<svg height="190" preserveAspectRatio="xMidYMid" viewBox="0 0 512 190" width="512" xmlns="http://www.w3.org/2000/svg"><path d="m49.4427074 2.09729041-49.44225608 51.55143129 24.44657418 22.1734189 17.7324166-13.2884056v124.448859h52.7233624v-184.88530359zm413.7885816 127.39282859c-24.640642 15.924122-51.291169 18.096482-78.749561 9.19492-13.879637-4.498169-24.782056-14.266268-35.255721-24.1141-16.027926-15.0711254-28.943239-32.8757535-42.716063-49.8935779-14.355029-17.7384342-29.481817-34.5050231-49.028545-46.7644159-16.193411-10.15473085-33.420348-16.57703395-52.646638-16.80269463-30.154285-.35503948-55.344035 10.97613573-74.929878 33.90025253-5.059313 5.9243451-9.209965 12.3797451-12.27895 19.3601823-1.98431 4.5117093-6.730706 15.9903161-7.598748 22.2997889.726628-1.3509553 4.508701-10.8106512 5.226302-12.1661197 1.872984-4.2394121 3.748976-6.5802656 5.97399-9.5439426 3.953576-5.2624072 8.745104-9.7515504 14.896614-12.989029 26.349646-13.8676013 62.48394-8.8820046 84.705499 11.3507324 19.539207 17.789584 35.749166 38.6120476 53.588396 57.9496636 16.668802 18.067899 32.416909 37.057998 50.955687 53.289019 17.986661 15.748107 38.670719 24.897895 63.209062 24.648164 42.714559-.433268 79.796627-28.719083 90.857009-70.0872 1.251665-4.681707 2.698902-10.497735 2.16183-16.895967-4.033309 11.293565-9.367928 21.445287-18.370285 27.264324zm-232.399514-5.53982c-9.996769 7.349017-20.261321 14.243703-33.772378 10.995693-16.87942-4.058883-28.097764-14.32494-31.74745-31.300641-3.408981-15.8564243 1.37653-29.5856204 14.102288-40.1254788 5.728773-4.744892 12.080369-7.5084832 18.96302-8.708998 3.544377-.6198147 8.400595-.0601762 12.214261.0917687-12.6716-9.3784581-28.156436-13.1454871-43.472779-12.9288529-26.161595.3685791-42.29483 11.0558692-52.011779 35.3640382-3.912956 9.7906649-7.209107 19.9980499-6.031158 30.7109148 3.732428 25.067893 15.341918 46.010709 35.660406 61.298468 28.51298 21.451305 59.876806 26.051774 93.164766 12.70921 21.055646-8.439709 37.555955-26.373716 52.866281-42.317396l-35.072184-39.8938001c-6.793891 7.6679501-16.574025 18.0107311-24.863294 24.1050741zm208.078257-85.487037c0-7.0902587 1.712012-13.7758326 4.728344-19.6851338-21.443783-15.52545509-48.936776-21.72661071-75.030674-15.77969946-26.017172 5.9303628-46.466544 20.99396576-65.182841 39.11451876-1.951212 1.8895321-4.179236 4.7433875-4.179236 4.7433875l35.729609 43.3810101 3.4496-3.4887142c9.041471-9.9080085 18.415416-19.5031008 30.059507-26.4775203 4.761441-2.8523511 9.697392-5.5271824 15.344927-5.7062066 16.841809-.5370724 29.775175 6.6750431 37.748519 21.3490052 7.908655 14.5536098 6.511063 29.1132368-2.763591 42.8469468-5.035242 7.457333-12.369214 11.92391-20.508043 15.609701 18.328161 3.038898 36.09217 2.064044 53.173179-5.843107 20.17557-9.340848 30.026411-30.2686197 29.560046-46.7192837-23.378447-.661938-42.129346-19.8069905-42.129346-43.3449043z" fill="#919fa1"/><path d="m479.528955 20.2792231v8.3118352h-8.367498v29.2230587h-8.794749v-29.2230587h-8.557053v-8.3118352zm18.472734 29.204705c1.423167 0 2.531913-.4287553 3.321726-1.2336118.791317-.8048564 1.214054-1.8759925 1.214054-3.1637628 0-1.3404245-.422737-1.4126359-1.266708-2.1633337-.843971-.7522023-1.951213-1.1267991-3.269072-1.1267991h-5.272938v7.6875074zm-.738662-14.4979468v-.1068128c1.107242 0 2.056521-.3219425 2.795184-.9658277.738662-.6423807 1.107241-1.5013958 1.107241-2.5198776 0-1.0726405-.368579-1.9301511-1.107241-2.5740363-.738663-.6423807-1.687942-.9643233-2.795184-.9643233h-4.534276v7.1308777zm1.319363-14.692015.157962-.1609713c1.633783 0 3.163763.267784 4.534275.7506979 1.372017.4829138 2.531913 1.1794531 3.481193 2.0911223.949279.9116692 1.686437 1.9843096 2.214483 3.2179214.528046 1.2336117.791317 2.5198776.791317 3.9144607 0 .9643233.227165 2.2821817-.08876 3.0870381-.315925.8033521-.686008 1.5013958-1.159896 2.1437765-.475392.6438852-1.001933 1.1809576-1.582633 1.6097129-.580701.4287553-1.107242.6965393-1.58113.8575106v.0541586c.842467.2136254 1.30131.1835373 2.092627.7191054.789813.5370724 1.475821 1.1809575 2.056521 1.9843096.579196.8048564 1.054588 1.7165256 1.423167 2.7350075s.5807 2.0384682.5807 3.1096042c0 1.6623671-.264775 3.1637628-.791317 4.5583459-.528046 1.394583-1.317858 2.5740362-2.37395 3.5925181-1.054588 1.0184819-2.372446 1.8233383-4.007734 2.4130649-1.633783.5897266-3.532342.8575106-5.746825.8575106h-14.50246v-37.5348939z" fill="#3390da"/></svg>