<svg height="116" preserveAspectRatio="xMidYMid" viewBox="0 0 512 116" width="512" xmlns="http://www.w3.org/2000/svg"><g fill="#101010"><path d="m469.628797 78.6776438s3.881554-8.6480495 13.470185-7.6756738c0 0 9.864181.9723757 10.004606 11.7003022 0 0 .148373 10.7067304-13.618558 11.2233878h-55.597632v-93.26327876h-20.088699v112.03251376l74.864978.023846c33.341622-.545803 32.358648-29.4918628 32.358648-29.4918628-1.239977-29.8336511-28.606921-29.4150262-28.606921-29.4150262-11.803633.0423924-19.426317 7.1166241-22.984629 11.4379993z"/><path d="m203.589995.59084407h34.451773c12.900537 0 20.944495 2.42696486 27.319252 7.58294045 6.374757 5.16127458 13.202583 14.27034148 13.202583 27.16822898 0 7.4372166-2.73166 19.1242712-10.775618 26.8661831-6.674153 6.3721076-13.05156 7.8876359-18.665903 9.2547907l30.50663 41.4332717h-25.194333l-29.748866-42.9514495h-.302046v42.9514495h-20.793472zm20.793472 53.72176813h13.356255c17.150375 0 20.033059-11.3823592 20.033059-17.301398 0-6.2210846-3.79412-16.9940531-20.033059-16.9940531h-13.356255z"/><path d="m277.951563 70.8562461c0-25.4990282 20.793472-45.0763682 44.922696-45.0763682 23.829827 0 44.620649 18.9732483 44.620649 44.7716729 0 27.6239472-21.24654 45.0790182-44.620649 45.0790182-25.040661 0-44.922696-20.6424495-44.922696-44.7743229m69.359264.151023c0-15.327502-11.838077-26.7098612-24.436568-26.7098612-10.470923 0-24.741265 8.9527448-24.741265 26.5588382 0 15.9342432 11.9944 26.259442 24.741265 26.259442 14.72341 0 24.436568-12.7521637 24.436568-26.108419"/><path d="m374.317435.58819454h20.181432v112.31071346h-20.181432z"/></g><path d="m47.1302469.58819454h16.2389385l47.0529136 112.30806446h-22.9210403l-11.9891004-28.9884529h-40.2171395l-11.99175 28.9884529h-22.91839089zm-4.8565793 63.73962206h25.8010741l-12.7495141-34.4491236h-.3020459z" fill="#00aff0"/><path d="m193.429067 112.896259h-18.514881v-10.32255h-.304695c-3.79412 6.078011-12.595842 13.05686-26.863534 13.05686-21.397563 0-42.948799-17.6060939-42.948799-44.7743229 0-28.3817114 22.764718-45.0763682 42.948799-45.0763682 12.293796 0 19.57734 4.0988151 25.499029 10.3198997v-35.51423258h20.184081zm-43.558191-15.7832205c15.179129 0 24.892287-13.6609507 24.892287-26.4078153 0-13.8119736-10.624595-26.4078153-24.892287-26.4078153-15.022806 0-24.889637 13.960347-24.889637 25.7984246 0 15.6321973 11.687055 27.017206 24.889637 27.017206z" fill="#00aff0"/></svg>