<svg height="255" preserveAspectRatio="xMidYMid" viewBox="0 0 256 255" width="256" xmlns="http://www.w3.org/2000/svg"><g fill="#87c040"><path d="m88.9565187 166.907984 32.2995893-32.301662-48.5032721.002073h-.1160663c-26.8776359 0-48.6670087 21.789372-48.6670087 48.664936 0 26.879708 21.7873002 48.667009 48.6649361 48.667009 2.0415231 0 4.0498844-.140938 6.0250839-.385506-10.6221379-20.925094-7.1981824-47.154002 10.2967378-64.64685"/><path d="m128.336152 183.213225v-45.678302l-34.2955154 34.299661-.0829045.080832c-19.0058546 19.005854-19.0058546 49.819381 0 68.825235 19.0058549 19.005855 49.8193809 19.005855 68.8252359 0 1.442538-1.442538 2.737921-2.974198 3.962834-4.541093-22.297162-7.293523-38.407578-28.251778-38.40965-52.986333"/><path d="m167.713712 166.897621-32.299589-32.299589v48.619338c0 26.879709 21.789373 48.667009 48.667008 48.667009 26.877636 0 48.667009-21.7873 48.667009-48.664936 0-2.041523-.140937-4.049884-.385506-6.025084-20.925093 10.624211-47.154001 7.198182-64.648922-10.296738"/><path d="m241.546379 93.0732448c-1.442538-1.4425382-2.972126-2.7379208-4.539021-3.9628347-7.293522 22.2950899-28.25385 38.4075779-52.986332 38.4075779h-45.67623l34.376348 34.37842c19.005854 19.005854 49.821453 19.005854 68.825235 0 19.005855-19.005855 19.005855-49.819381 0-68.8231632"/></g><path d="m184.027244 23.1080724c-2.041524 0-4.049885.138865-6.025084.3834332 10.622138 20.9271661 7.198182 47.1540018-10.296738 64.648922l-32.297517 32.2995894h48.619339c26.875563 0 48.664936-21.7893726 48.664936-48.6670085.002072-26.877636-21.787301-48.6649361-48.664936-48.6649361" fill="#ed9a2d"/><path d="m162.704208 14.305688c-19.005854-19.00378186-49.819381-19.00378186-68.8252352.0020727-1.4404655 1.4425381-2.7358482 2.972126-3.960762 4.5410934 22.2950902 7.2935226 38.4075782 28.2517779 38.4075782 52.9842601v45.6783018l34.295515-34.2975878.082904-.0808319c19.005855-19.0058545 19.005855-49.8193811 0-68.8273083" fill="#5698c6"/><path d="m88.9958983 88.1735894 1.384505 1.4446107 30.8342527 30.8342529h.033162v-48.5074177-.1160663c0-26.8776359-21.789373-48.6670087-48.6670089-48.6670087s-48.6670087 21.7873002-48.6649361 48.6649361c0 2.0373779.138865 4.0395213.3813606 6.0105756 20.9396018-10.6159201 47.2016719-7.1608754 64.6986647 10.3361174" fill="#5698c6"/><path d="m19.7975924 165.515189c.3813607-1.131646.7917379-2.246712 1.2414948-3.345196.0559605-.138865.1057032-.279803.1637363-.414523.4932817-1.181389 1.0363062-2.331689 1.6062745-3.46748.1243568-.250786.2528587-.497427.3834333-.748213.5865493-1.127501 1.2041877-2.236349 1.8632784-3.31618.0704689-.116066.1471555-.225915.2176243-.337836.6259289-1.009362 1.2870922-1.989707 1.9751995-2.953472.1409377-.198971.2798027-.400014.4248855-.596912.7399226-1.00729 1.5109344-1.985563 2.3130353-2.938965.1637364-.194825.3295454-.383433.497427-.572041.7834474-.907804 1.5917662-1.792809 2.4311742-2.646725.074614-.074615.1430102-.153374.2176243-.227988.8932958-.897441 1.8238988-1.755502 2.7752278-2.588693.2072612-.182389.4145224-.362707.6238563-.540951.9575469-.81661 1.9378925-1.60213 2.9472546-2.354488.1326472-.097413.2715122-.188608.4041594-.283948.9430386-.686034 1.9088759-1.34098 2.8954394-1.968981.1948255-.124357.3875785-.252859.5844766-.375143 1.0653227-.659091 2.1555168-1.278802 3.266437-1.867424.2342052-.122284.470483-.240423.7067608-.360634 1.1088475-.565824 2.2322034-1.106775 3.3804306-1.597984.0559605-.022799.1098484-.049743.1658089-.074615 1.1876069-.503644 2.4021577-.953401 3.6312167-1.376214.2652944-.091195.5285162-.18239.7958832-.26944 1.2166234-.395869 2.4498277-.760648 3.7016855-1.077758.1906803-.045598.3875785-.08705.5782588-.130575 1.1606629-.279802 2.3337614-.520225 3.5192956-.725414.2217695-.037307.4414664-.082904.663236-.116066 1.2870922-.207261 2.5907653-.362707 3.9048015-.478774.2839479-.024871.5699684-.043525.8539162-.066323 1.3596337-.097413 2.7254852-.165809 4.1099902-.165809l45.6783021-.002073-34.37842-34.3784196c-19.0058546-19.0037819-49.8214538-19.0058545-68.8252357 0-19.00585453 19.0058546-19.00585453 49.8193816 0 68.8252356 1.4404655 1.440466 2.9493273 2.771083 4.5141495 3.993924.0518153-.153373.1160663-.300529.1678816-.453902" fill="#5698c6"/><path d="m84.0547906 93.1499314 27.2196174 27.2196166h-36.5857522l-2.0746849.043525c-22.2805819 0-41.0625943-14.972551-46.8368921-35.4043626 18.5353715-10.3941505 42.4284458-7.7059724 58.19688 8.0603892z" fill="#446ba6"/><path d="m121.229164 71.8186059v38.4946281l-25.870346-25.8703467-1.4964261-1.4363203c-15.7559985-15.7539259-18.4503944-39.6242014-8.0852605-58.1533551 20.4566836 5.7577169 35.4520326 24.5542376 35.4520326 46.8493278z" fill="#446ba6"/><path d="m162.853437 83.0956893-27.219617 27.2216897v-36.5857519l-.043525-2.0746849c0-22.2805819 14.972551-41.0646669 35.404363-46.8368921 10.39415 18.5353715 7.705972 42.4284458-8.06039 58.1948073z" fill="#446ba6"/><path d="m183.996154 120.338459h-38.494627l25.870346-25.8703462 1.43632-1.496426c15.753926-15.7559985 39.624202-18.4503945 58.153355-8.0852605-5.757717 20.4566827-24.554237 35.4520327-46.849327 35.4520327z" fill="#fff101"/><path d="m172.627876 161.703655-27.219617-27.219617h36.585752l2.074685-.043525c22.280582.002073 41.062594 14.974624 46.836892 35.406436-18.537444 10.392077-42.428446 7.705972-58.19688-8.062462z" fill="#45ab47"/><path d="m135.526044 182.993528v-38.494628l25.870346 25.870347 1.498499 1.43632c15.753926 15.755999 18.448322 39.622129 8.083188 58.153355-20.456683-5.757717-35.452033-24.552165-35.452033-46.8514z" fill="#45ab47"/><path d="m94.1587755 171.946505 27.2196165-27.22169v36.585752l.043525 2.074685c0 22.280582-14.972551 41.064667-35.4043625 46.838965-10.3941506-18.539517-7.7059725-42.430519 8.0603891-58.19688z" fill="#45ab47"/><path d="m72.8046512 134.685081h38.4946278l-25.8703464 25.870347-1.4363203 1.496426c-15.7559985 15.755998-39.6242014 18.450394-58.1554277 8.08526 5.7597895-20.458755 24.5542375-35.452033 46.8514003-35.452033z" fill="#45ab47"/></svg>