<svg height="111" preserveAspectRatio="xMidYMid" viewBox="0 0 512 111" width="512" xmlns="http://www.w3.org/2000/svg"><g fill="#77c159"><path d="m.25599922 69.6453823c0-5.7821612.96799548-11.1771085 2.90398645-16.1849606 1.93599097-5.0076935 4.64637039-9.370136 8.13117793-13.0873275 3.4847679-3.7170329 7.6536034-6.6339053 12.5065461-8.7506966 4.8528634-2.1165931 10.1703757-3.1749491 15.9525766-3.1750284 4.3882145.0000793 8.3763686.6454097 11.9644623 1.935991 3.5880144 1.2907399 7.0598963 3.407452 10.4156853 6.3500567v-6.7372311h19.6696889v79.2983932h-19.6696889v-6.737271c-3.355789 2.942724-6.8276709 5.059396-10.4156853 6.350057-3.5880937 1.29066-7.5762478 1.935991-11.9644623 1.935991-5.7822009 0-11.0997132-1.058356-15.9525766-3.175029-4.8529427-2.116672-9.0217782-5.033584-12.5065461-8.7506962-3.48480754-3.7171122-6.19518696-8.0795547-8.13117793-13.0873275s-2.90398645-10.40272-2.90398645-16.184921zm42.04983648 22.6898475c1.5487372.0000396 3.174949-.1677161 4.878675-.5033466 1.7036467-.3354322 3.420219-.9034465 5.1497566-1.7036863 1.7294583-.8002001 3.420219-1.8714421 5.0723217-3.2137656 1.6519838-1.3422443 3.2265723-2.9943073 4.7238449-4.9561496v-24.6258384c-1.4972726-1.9617629-3.0718611-3.6009004-4.7238449-4.917452-1.6521027-1.3163929-3.3428634-2.3876746-5.0723217-3.2137259-1.7295376-.8259721-3.4461099-1.4067932-5.1497566-1.7424236-1.703726-.3354322-3.3299378-.5032673-4.878675-.5033466-3.0460099.0000793-5.8984128.5679351-8.5571293 1.7036864-2.6587958 1.1358305-4.9690752 2.7233447-6.9308381 4.7625425-1.9618423 2.0393168-3.4977332 4.439917-4.6076728 7.2019197-1.1100189 2.7620423-1.6649887 5.7692753-1.6649887 9.0217385 0 3.2525029.5549698 6.2597359 1.6649887 9.0217386 1.1099396 2.7620423 2.6458305 5.1626822 4.6076728 7.20188 1.9617629 2.0392772 4.2720423 3.6267913 6.9308381 4.7625426 2.6587165 1.1358305 5.5111194 1.7037259 8.5571293 1.7036863z"/><path d="m130.97036 48.0231291c-9.320654.0681967-17.416861 6.5631315-17.416861 16.2014547v45.0699952h-19.6697285v-44.5279113c.1098283-18.5677188 16.1894415-36.069112 36.8047235-36.3192985h.549419c20.615283.2501865 36.694975 17.7515797 36.804724 36.3192985v44.5279113h-19.669729v-45.0699952c0-9.6383232-8.096207-16.1332977-17.416861-16.2014547"/><path d="m177.35429 69.6453823c0-5.7821612.967995-11.1771085 2.903986-16.1849606 1.935991-5.0076935 4.646371-9.370136 8.131178-13.0873275 3.484768-3.7170329 7.653604-6.6339053 12.506546-8.7506966 4.852864-2.1165931 10.170376-3.1749491 15.952617-3.1750284 4.388214.0000793 8.389254.6454097 12.00316 1.935991 3.613786 1.2907399 7.072782 3.3816403 10.376948 6.2726218v-30.43385094h19.669689v103.07244794h-19.669689v-6.659836c-3.304166 2.942724-6.763162 5.04651-10.376948 6.311359-3.613906 1.264849-7.614946 1.897254-12.00316 1.897254-5.782241 0-11.099753-1.058356-15.952617-3.175029-4.852942-2.116672-9.021778-5.033584-12.506546-8.7506962-3.484807-3.7171122-6.195187-8.0795547-8.131178-13.0873275s-2.903986-10.40272-2.903986-16.184921zm42.049836 22.6898475c1.548738.0000396 3.174989-.1677161 4.878715-.5033466 1.703607-.3354322 3.420179-.9034465 5.149717-1.7036863 1.729458-.8002001 3.420219-1.8714421 5.072322-3.2137656 1.651984-1.3422443 3.226612-2.9943073 4.723845-4.9561496v-24.6258384c-1.497233-1.9617629-3.071861-3.6009004-4.723845-4.917452-1.652103-1.3163929-3.342864-2.3876746-5.072322-3.2137259-1.729538-.8259721-3.44611-1.4067932-5.149717-1.7424236-1.703726-.3354322-3.329977-.5032673-4.878715-.5033466-3.046009.0000793-5.898373.5679351-8.557129 1.7036864-2.658796 1.1358305-4.969075 2.7233447-6.930838 4.7625425-1.961842 2.0393168-3.497733 4.439917-4.607673 7.2019197-1.110019 2.7620423-1.664988 5.7692753-1.664949 9.0217385-.000039 3.2525029.55493 6.2597359 1.664949 9.0217386 1.10994 2.7620423 2.645831 5.1626822 4.607673 7.20188 1.961763 2.0392772 4.272042 3.6267913 6.930838 4.7625426 2.658756 1.1358305 5.51112 1.7037259 8.557129 1.7036863z"/><path d="m351.011268 92.3352298c2.942684.0000396 5.717573-.5549698 8.324785-1.6649491 2.607094-1.1099396 4.878636-2.6716421 6.814706-4.6851076 1.935912-2.0134259 3.458917-4.4011401 4.568935-7.1631825 1.1099-2.7620026 1.66491-5.8208589 1.66495-9.1766083-.00004-3.3040865-.567936-6.337131-1.703647-9.099213-1.13587-2.7619631-2.684647-5.1496773-4.64641-7.1631825-1.961842-2.0133465-4.233424-3.5879747-6.814706-4.7238052-2.581361-1.1357513-5.317591-1.7036071-8.208613-1.7036864-2.942763.0000793-5.717691.5679351-8.324785 1.7036864-2.607172 1.1358305-4.878754 2.7104587-6.814705 4.7238052-1.936031 2.0135052-3.471922 4.4012194-4.607673 7.1631825-1.135791 2.762082-1.703686 5.7951265-1.703686 9.099213 0 3.3557494.554969 6.4146057 1.664988 9.1766083 1.10994 2.7620424 2.632905 5.1497566 4.568936 7.1631825 1.935951 2.0134655 4.207533 3.575168 6.814706 4.6851076 2.607093 1.1099793 5.407833 1.6649887 8.402219 1.6649491zm0 18.5081262c-5.730577 0-11.125564-1.032545-16.184921-3.097594-5.059435-2.065049-9.486387-4.943224-13.280934-8.6345242-3.794547-3.6913005-6.788894-8.053743-8.983041-13.0873275-2.194107-5.0335844-3.291161-10.4930805-3.291161-16.378528 0-5.7304983 1.097054-11.0996736 3.291161-16.1074861 2.194147-5.0077331 5.175568-9.3701756 8.944304-13.0873671 3.768735-3.7170329 8.195726-6.646831 13.280934-8.7893942 5.085208-2.1424444 10.493081-3.2136864 16.223658-3.2137657 5.730499.0000793 11.125486 1.0713213 16.184921 3.2137657 5.059357 2.1425632 9.473423 5.0723613 13.242198 8.7893942 3.768695 3.7171915 6.750117 8.079634 8.944303 13.0873671 2.194068 5.0078125 3.291121 10.3769878 3.291201 16.1074861-.00008 5.8854475-1.097133 11.3449436-3.291201 16.378528-2.194186 5.0335845-5.188533 9.396027-8.983001 13.0873275-3.794626 3.6913002-8.208692 6.5694752-13.242197 8.6345242-5.033664 2.065049-10.415725 3.097594-16.146224 3.097594z"/><path d="m411.322097 23.7867648c-1.593659.0000793-3.100131-.3112462-4.519413-.9337783-1.419362-.622413-2.664347-1.4690027-3.735034-2.5398085-1.070726-1.0706473-1.917356-2.3156321-2.539848-3.7350336-.622532-1.4192034-.933778-2.9256746-.933778-4.5194137 0-1.5935012.311246-3.1124223.933778-4.55676323.622492-1.44410304 1.469122-2.70153765 2.539848-3.77238315 1.070687-1.07060761 2.315672-1.91719725 3.735034-2.53980859 1.419282-.62241308 2.925754-.93365928 4.519413-.93377823 1.593581.00011895 3.112502.3112462 4.556724.93377823 1.444182.62261134 2.701657 1.46920098 3.772383 2.53980859 1.070687 1.0708455 1.917316 2.32828011 2.539848 3.77238315.622493 1.44434093.933739 2.96326203.933779 4.55676323-.00004 1.5937391-.311247 3.1002103-.933779 4.5194137-.622532 1.4194015-1.469161 2.6643863-2.539848 3.7350336-1.070726 1.0708058-2.328201 1.9173955-3.772383 2.5398085-1.444222.6226114-2.963143.9338576-4.556724.9337783z"/><path d="m401.485845 29.9961858h19.669729v79.2983932h-19.669729z"/><path d="m430.199873 69.6453823c0-5.7821612.967995-11.1771085 2.903986-16.1849606 1.935991-5.0076935 4.646371-9.370136 8.131178-13.0873275 3.484768-3.7170329 7.653604-6.6339053 12.506546-8.7506966 4.852864-2.1165931 10.170376-3.1749491 15.952617-3.1750284 4.388214.0000793 8.389254.6454097 12.003159 1.935991 3.613787 1.2907399 7.072783 3.3816403 10.376949 6.2726218v-30.43385094h19.669688v103.07244794h-19.669688v-6.659836c-3.304166 2.942724-6.763162 5.04651-10.376949 6.311359-3.613905 1.264849-7.614945 1.897254-12.003159 1.897254-5.782241 0-11.099753-1.058356-15.952617-3.175029-4.852942-2.116672-9.021778-5.033584-12.506546-8.7506962-3.484807-3.7171122-6.195187-8.0795547-8.131178-13.0873275s-2.903986-10.40272-2.903986-16.184921zm42.049836 22.6898475c1.548738.0000396 3.174989-.1677161 4.878715-.5033466 1.703607-.3354322 3.420179-.9034465 5.149717-1.7036863 1.729458-.8002001 3.420219-1.8714421 5.072322-3.2137656 1.651983-1.3422443 3.226612-2.9943073 4.723845-4.9561496v-24.6258384c-1.497233-1.9617629-3.071862-3.6009004-4.723845-4.917452-1.652103-1.3163929-3.342864-2.3876746-5.072322-3.2137259-1.729538-.8259721-3.44611-1.4067932-5.149717-1.7424236-1.703726-.3354322-3.329977-.5032673-4.878715-.5033466-3.04601.0000793-5.898373.5679351-8.557129 1.7036864-2.658796 1.1358305-4.969075 2.7233447-6.930838 4.7625425-1.961842 2.0393168-3.497733 4.439917-4.607673 7.2019197-1.110019 2.7620423-1.664989 5.7692753-1.664949 9.0217385-.00004 3.2525029.55493 6.2597359 1.664949 9.0217386 1.10994 2.7620423 2.645831 5.1626822 4.607673 7.20188 1.961763 2.0392772 4.272042 3.6267913 6.930838 4.7625426 2.658756 1.1358305 5.511119 1.7037259 8.557129 1.7036863z"/><path d="m307.396914 47.7854719c-13.181732 0-18.994621 6.8007887-18.994621 16.4391119v45.0699952h-19.669729v-44.5279113c.109828-18.5677188 10.835174-36.8216141 38.66435-36.8216141"/></g></svg>