<svg height="76" preserveAspectRatio="xMidYMid" viewBox="0 0 256 76" width="256" xmlns="http://www.w3.org/2000/svg" xmlns:xlink="http://www.w3.org/1999/xlink"><linearGradient id="a"><stop offset="0" stop-color="#6a3894"/><stop offset=".1058" stop-color="#8a2f83"/><stop offset=".2653" stop-color="#b4256c"/><stop offset=".4092" stop-color="#d31c5d"/><stop offset=".5309" stop-color="#e51e54"/><stop offset=".6158" stop-color="#ec1e4f"/><stop offset="1" stop-color="#f8e47f"/></linearGradient><linearGradient id="b" x1="48.376697%" x2="51.43904%" xlink:href="#a" y1="-14.474804%" y2="108.20454%"/><linearGradient id="c" x1="49.460987%" x2="52.04182%" xlink:href="#a" y1="25.137086%" y2="134.884739%"/><linearGradient id="d" x1="48.221143%" x2="51.662211%" xlink:href="#a" y1="-15.768216%" y2="108.575315%"/><linearGradient id="e" x1="48.845593%" x2="52.551951%" xlink:href="#a" y1="14.370788%" y2="133.905532%"/><linearGradient id="f" x1="48.477351%" x2="51.653246%" xlink:href="#a" y1="-17.018113%" y2="108.531087%"/><linearGradient id="g" x1="48.957306%" x2="52.141181%" xlink:href="#a" y1="4.908405%" y2="155.044045%"/><linearGradient id="h" x1="48.747033%" x2="51.570674%" xlink:href="#a" y1="-20.568809%" y2="111.805424%"/><linearGradient id="i" x1="48.901455%" x2="51.964137%" xlink:href="#a" y1="-8.263885%" y2="139.506575%"/><linearGradient id="j"><stop offset="0" stop-color="#f8e47f"/><stop offset=".1057" stop-color="#f7db7c"/><stop offset=".3493" stop-color="#f3c87b"/><stop offset=".5198" stop-color="#f2c179"/><stop offset=".7096" stop-color="#f6d17b"/><stop offset="1" stop-color="#f8e47f"/></linearGradient><linearGradient id="k" x1="48.878344%" x2="49.751781%" xlink:href="#j" y1="-40.567732%" y2="35.508044%"/><linearGradient id="l" x1="61.295004%" x2="47.16699%" xlink:href="#j" y1="-95.754217%" y2="83.376777%"/><linearGradient id="m" x1="48.762753%" x2="49.828921%" xlink:href="#j" y1="-62.554903%" y2="31.517294%"/><linearGradient id="n" x1="61.891562%" x2="44.031621%" xlink:href="#j" y1="-134.185589%" y2="133.251663%"/><linearGradient id="o" x1="47.962144%" x2="49.584242%" xlink:href="#j" y1="-127.500646%" y2="28.726395%"/><linearGradient id="p" x1="48.008289%" x2="49.998285%" xlink:href="#j" y1="-165.229325%" y2="24.960116%"/><linearGradient id="q" x1="49.420499%" x2="51.331394%" xlink:href="#j" y1="-96.090192%" y2="148.654117%"/><linearGradient id="r" x1="47.285039%" x2="50.254724%" xlink:href="#j" y1="-269.552579%" y2="94.972751%"/><linearGradient id="s" x1="36.811764%" x2="63.319681%" xlink:href="#a" y1="136.870384%" y2="-33.291266%"/><linearGradient id="t" x1="51.267873%" x2="111.195249%" xlink:href="#a" y1="47.797288%" y2="-92.981563%"/><linearGradient id="u" x1="28.860879%" x2="66.465133%" xlink:href="#a" y1="154.569829%" y2="-25.939489%"/><linearGradient id="v" x1="39.40574%" x2="98.599528%" xlink:href="#a" y1="88.522944%" y2="-60.131647%"/><linearGradient id="w" x1="30.207325%" x2="63.34222%" xlink:href="#a" y1="198.315613%" y2="-44.552919%"/><linearGradient id="x" x1="23.352572%" x2="83.032896%" xlink:href="#a" y1="145.50073%" y2="-60.883798%"/><linearGradient id="y" x1="27.956357%" x2="59.912541%" xlink:href="#a" y1="228.377354%" y2="-21.299582%"/><linearGradient id="z" x1="50.046828%" x2="50.948835%" xlink:href="#j" y1="55.245132%" y2="155.803843%"/><linearGradient id="A" x1="52.93483%" x2="41.003189%" xlink:href="#j" y1="4.415883%" y2="204.290039%"/><linearGradient id="B" x1="54.557778%" x2="39.844148%" xlink:href="#j" y1="-13.072117%" y2="224.278444%"/><linearGradient id="C" x1="58.244176%" x2="35.884092%" xlink:href="#j" y1="-110.719102%" y2="341.375938%"/><linearGradient id="D" x1="48.738776%" x2="50.612851%" xlink:href="#j" y1="-111.609454%" y2="138.353811%"/><linearGradient id="E" x1="49.450291%" x2="50.597695%" xlink:href="#j" y1="4.043359%" y2="145.151657%"/><linearGradient id="F"><stop offset="0" stop-color="#7f3996"/><stop offset=".071" stop-color="#9c2f82"/><stop offset=".1599" stop-color="#b92770"/><stop offset=".2542" stop-color="#d02162"/><stop offset=".3554" stop-color="#df1e57"/><stop offset=".4682" stop-color="#e91f52"/><stop offset=".6158" stop-color="#ec1e4f"/><stop offset="1" stop-color="#f8e47f"/></linearGradient><linearGradient id="G" x1="106.724158%" x2=".727065%" xlink:href="#F" y1="8.252491%" y2="121.341091%"/><linearGradient id="H" x1="99.541843%" x2="9.967583%" xlink:href="#F" y1="11.088804%" y2="104.951544%"/><linearGradient id="I" x1="87.195506%" x2="13.244046%" xlink:href="#F" y1="12.426421%" y2="100.149353%"/><linearGradient id="J" x1="80.290753%" x2="21.404463%" xlink:href="#F" y1="14.09119%" y2="97.155562%"/><linearGradient id="K" x1="76.025046%" x2="25.917329%" y1="-4.777985%" y2="100.047107%"><stop offset="0" stop-color="#7f3996"/><stop offset=".0959" stop-color="#873a93"/><stop offset=".2469" stop-color="#9e3b90"/><stop offset=".4329" stop-color="#c23b89"/><stop offset=".6158" stop-color="#ec3e81"/><stop offset="1" stop-color="#f8e47f"/></linearGradient><linearGradient id="L" x1="54.804939%" x2="35.234868%" xlink:href="#F" y1="35.22979%" y2="97.281316%"/><linearGradient id="M" x1="56.074654%" x2="41.888922%" xlink:href="#F" y1="31.589451%" y2="89.90272%"/><linearGradient id="N" x1="54.688685%" x2="32.078637%" xlink:href="#F" y1="22.487617%" y2="154.954459%"/><linearGradient id="O" x1="56.249469%" x2="40.592625%" xlink:href="#F" y1="25.104804%" y2="88.789265%"/><linearGradient id="P" x1="55.80447%" x2="33.194421%" xlink:href="#F" y1="12.813992%" y2="155.28944%"/><linearGradient id="Q" x1="54.102805%" x2="46.781015%" xlink:href="#F" y1="7.856111%" y2="83.491471%"/><linearGradient id="R" x1="52.81449%" x2="44.770411%" xlink:href="#F" y1="16.018779%" y2="115.366485%"/><linearGradient id="S" x1="53.102613%" x2="44.409012%" xlink:href="#F" y1="11.804616%" y2="118.906549%"/><linearGradient id="T" x1="55.463483%" x2="37.302184%" xlink:href="#F" y1=".97537%" y2="159.67327%"/><linearGradient id="U" x1="54.840747%" x2="39.381783%" xlink:href="#F" y1="-.941154%" y2="157.755956%"/><linearGradient id="V" x1="54.571571%" x2="44.506964%" xlink:href="#F" y1="15.506944%" y2="89.968775%"/><linearGradient id="W" x1="54.241528%" x2="41.207709%" xlink:href="#F" y1="-3.009055%" y2="160.546943%"/><linearGradient id="X" x1="53.77534%" x2="45.321282%" xlink:href="#F" y1="17.447935%" y2="92.293315%"/><linearGradient id="Y" x1="53.99055%" x2="41.860342%" xlink:href="#F" y1="-4.158462%" y2="155.32898%"/><linearGradient id="Z" x1="52.893697%" x2="45.151301%" xlink:href="#F" y1="20.817739%" y2="98.464819%"/><linearGradient id="aa" x1="18.800313%" x2="117.39748%" xlink:href="#a" y1="73.646808%" y2="-83.502794%"/><linearGradient id="ab" x1="27.744826%" x2="109.998418%" xlink:href="#a" y1="80.148336%" y2="-58.868538%"/><linearGradient id="ac" x1="38.209952%" x2="91.400179%" xlink:href="#a" y1="76.922274%" y2="-54.680841%"/><linearGradient id="ad" x1="32.742575%" x2="87.579219%" xlink:href="#a" y1="82.686074%" y2="-44.688993%"/><linearGradient id="ae" x1="40.239698%" x2="84.907734%" xlink:href="#a" y1="78.534597%" y2="-52.423405%"/><linearGradient id="af" x1="33.922133%" x2="78.717516%" xlink:href="#a" y1="87.723029%" y2="-34.244605%"/><linearGradient id="ag" x1="41.127353%" x2="78.045014%" xlink:href="#a" y1="77.814016%" y2="-44.174259%"/><linearGradient id="ah" x1="40.866396%" x2="80.113554%" xlink:href="#a" y1="81.999982%" y2="-43.424582%"/><linearGradient id="ai" x1="33.90896%" x2="77.477072%" xlink:href="#a" y1="98.206733%" y2="-29.168333%"/><linearGradient id="aj" x1="40.30966%" x2="78.446049%" xlink:href="#a" y1="85.980852%" y2="-51.021092%"/><linearGradient id="ak" x1="32.376152%" x2="74.782921%" xlink:href="#a" y1="106.137066%" y2="-27.147153%"/><linearGradient id="al" x1="39.506717%" x2="78.190519%" xlink:href="#a" y1="90.205678%" y2="-48.937198%"/><linearGradient id="am" x1="31.244597%" x2="72.910172%" xlink:href="#a" y1="113.210071%" y2="-28.085767%"/><linearGradient id="an" x1="40.418512%" x2="72.374696%" xlink:href="#a" y1="97.374744%" y2="-52.711655%"/><linearGradient id="ao" x1="28.389254%" x2="69.164312%" xlink:href="#a" y1="127.878742%" y2="-23.331972%"/><linearGradient id="ap" x1="39.344359%" x2="68.744048%" xlink:href="#a" y1="105.26627%" y2="-45.668375%"/><linearGradient id="aq" x1="38.567003%" x2="67.754996%" xlink:href="#a" y1="109.272229%" y2="-46.050052%"/><linearGradient id="ar" x1="39.202476%" x2="65.885362%" xlink:href="#a" y1="117.022289%" y2="-33.06411%"/><linearGradient id="as" x1="31.855323%" x2="99.208603%" xlink:href="#a" y1="87.332906%" y2="-50.690621%"/><linearGradient id="at" x1="24.991309%" x2="90.165389%" xlink:href="#a" y1="105.66897%" y2="-33.201327%"/><linearGradient id="au"><stop offset="0" stop-color="#d4e5ee"/><stop offset=".0722" stop-color="#cddfe8"/><stop offset=".1858" stop-color="#b4cbd7"/><stop offset=".3267" stop-color="#90abbb"/><stop offset=".4878" stop-color="#5f8096"/><stop offset=".5537" stop-color="#486d86"/><stop offset=".5941" stop-color="#5d7e95"/><stop offset=".685" stop-color="#88a3b5"/><stop offset=".7734" stop-color="#aac1ce"/><stop offset=".8572" stop-color="#c1d5e0"/><stop offset=".9348" stop-color="#d0e1ea"/><stop offset="1" stop-color="#d4e5ee"/></linearGradient><linearGradient id="av" x1="139.779127%" x2="-149.958651%" xlink:href="#au" y1=".614643%" y2="198.321967%"/><linearGradient id="aw" x1="110.786277%" x2="29.296198%" xlink:href="#au" y1="-267.694984%" y2="157.981534%"/><linearGradient id="ax" x1="103.51575%" x2="-26.867844%" xlink:href="#au" y1="-125.978103%" y2="304.087929%"/><linearGradient id="ay" x1="154.582009%" x2="-217.942547%" xlink:href="#au" y1="-23.699607%" y2="218.837013%"/><linearGradient id="az" x1="99.211208%" x2="-47.287212%" xlink:href="#au" y1="-20.855713%" y2="216.169014%"/><linearGradient id="aA" x1="116.137181%" x2="-120.923901%" xlink:href="#au" y1="-19.297592%" y2="219.080955%"/><linearGradient id="aB" x1="107.111596%" x2="17.8074%" xlink:href="#au" y1="-1209.88682%" y2="686.308584%"/><linearGradient id="aC" x1="103.166067%" x2="33.44222%" xlink:href="#au" y1="-263.872807%" y2="149.160907%"/><linearGradient id="aD" x1="120.64823%" x2="27.517851%" xlink:href="#au" y1="-176.666973%" y2="107.118095%"/><linearGradient id="aE" x1="164.291094%" x2="3.323693%" xlink:href="#au" y1="-159.745011%" y2="104.282196%"/><path d="m254.801872 62.0494505-.199688-.098901v-.5934066l-.299532-.7912088-.599064-.6923077-.798752-.4945055-.099844-.1978022-.599064-.5934066-.898596-.4945055-.798752-.2967033h-.199688l-.798752-.6923077-1.098284-.5934066-1.198127-.5934066-1.297972-.3956044h-.199688l-.99844-1.0879121-1.198128-.989011-1.198128-.5934065-1.198128-.2967033h-.199688l-1.098284-.7912088-1.797192-.6923077-.798752-.0989011-1.098284-.6923077-1.198128-.4945055-1.098284-.1978022-1.198128-.0989011-1.198127.0989011-.898596.1978022-.49922-.8901099-1.49766-.989011-1.897036-.3956044h-1.697348l-2.096724.3956044-.599064.1978022-1.49766-.5934066-1.697348-.4945055-1.797192-.1978022h-1.697347l-1.797192.1978022h-.199688l-1.797192-.6923077-1.897036-.4945055-1.897036-.2967033-.99844-.0989011-1.597504-1.4835164-1.797192-1.2857143-1.797192-.8901099-1.597504-.4945055-1.996879-.0989011-.898596.0989011-.798752-.6923077-1.397816-.5934066-1.697348-.1978022-.99844.1978022-1.397816-.4945055-1.49766-.3956044-1.397816-.1978022h-.49922l-2.096724-.7912088-2.595943-.6923077-2.396256-.1978022h-.299532l-2.196568-1.2857143-2.4961-.5934066h-1.697348l-3.694228-.8901098-2.396255-.1978022h-.798752l-1.198128-1.1868132-1.697348-.989011-1.897036-.4945055-1.897036.1978022-1.198128.2967033-1.597504-.2967033-1.697348-.0989011-1.99688.0989011h-.099844v-.2967033l-2.995319-.6923077-2.795632-.3956044-2.595944-.0989011-.898596.0989011v-.0989011l-1.99688-.2967033-1.99688-.1978022h-.199688l-2.196568-.8901099-2.296411-.5934066-2.096724-.2967033h-1.49766l-2.196568-.7912088-1.797192-.3956044-1.897036-.0989011h-.299532l-2.096724-1.3846153-1.99688-.7912088-1.49766-.1978022-1.597503-.7912088-2.396256-.5934066-2.096724.0989011-2.096724-.989011-2.196568-.4945055h-1.098284l-2.196568-1.1868132-2.196568-.5934066-2.196567-.0989011-.399376.0989011-2.8954762-1.4835165-2.1965678-.7912088-2.2964119-.1978022h-.099844l-1.1981279-.6923076-1.2979719-.5934066-1.397816-.3956044-1.4976599-.0989011-1.1981279.0989011-1.3978159-.989011-1.6973479-.6923077-1.8970359-.2967033-1.5975039.0989011-1.8970359.3956044-.1996879.0989011-1.8970359-.8901099-1.9968799-.4945055-1.8970359-.0989011-1.4976599-.989011-1.5975039-.5934066-1.6973479-.1978022-1.5975039.1978022-1.3978159.3956044-1.0982839-1.0879121-1.3978159-.89010987-1.6973479-.29670329-1.4976599.29670329-1.098284.49450547-.6989079-.49450547-.698908-.29670329-.7987519-.2967033-.599064-.0989011-.8985959.0989011-.898596.2967033-.8985959.59340659-.199688.19780217-1.6973479-.39560437-1.6973479.0989011-1.4976599.49450547-1.1981279.8901099-.99844 1.1868132-.6989079 1.4835165-.49922 1.5824176-.399376 1.6813186-.199688 1.6813187.099844 7.5164835c-.9984399-.3956043-1.9968798-.7912087-2.8954758-1.087912l.099844-1.0879121.199688-1.1868132.099844-1.2857143.099844-1.2857143.099844-1.1868132.099844-1.1868132-.099844-1.1868131-.099844-1.1868132-.099844-1.1868132-.199688-.989011-.299532-.989011-.099844-.3956044.099844-.2967033.299532-.989011.399376-.98901097.299532-.98901099.4992199-.98901099-1.6973479 1.58241758-.7987519.69230767-.299532-.39560437-.698908-.69230769-.7987519-.59340659.199688 1.18681318.199688 1.18681317.199688.7912088-.49922.6923077-.299532.6923077-.099844-.2967033-.199688-.5934066-.199688-.6923077-.1996879-.7912088v-.69230767l-.099844-.79120879-.099844-.69230769-.099844-.7912088v-.79120879l.099844-.69230769.099844-.69230769.099844-.69230769.1996879-.6923077.199688-.59340659-.8985959 1.18681319-.698908 1.28571428-.4992199 1.28571429-.299532 1.28571428-.099844 1.38461539v1.38461537l.199688 1.3846154.299532 1.3846154.2995319 1.0879121-.4992199-.2967033-.49922-.6923077-.599064-.7912088-.5990639-.7912088-.49922-.8901099-.49922-.989011-.3993759-1.18681317-.299532-1.38461538-.099844-1.58241758-1.0982839.98901098-.599064 1.08791209-.299532 1.18681319v1.18681317l.199688 1.1868132.49922 1.2857143.5990639 1.2857143.599064.989011-1.0982839-.1978022-1.198128-.0989011.798752.4945055.7987519.4945055.798752.4945055.6989079.4945054.698908.4945055.599064.5934066.9984399 1.0879121.9984399.989011.898596.989011.7987519.8901099.698908.7912088.399376.4945055.3993759.4945055.199688.2967033c-11.6817472-4.6483517-24.2620905-10.1868132-39.6380655-17.50549454 3.09516381 5.04395604 14.4773791 10.28571424 19.1700468 13.84615384 4.9921997 2.6703297 11.8814353 5.5384615 17.8720749 7.8131868l-1.2979719.2967033-1.297972.1978022-.4992199.0989011h-.299532l-.8985959.0989011-.898596.0989011h-.8985959l-.898596.0989011h-.7987519-.99844l-.8985959-.0989011-.898596-.0989011-.8985959-.0989011-.8985959-.0989011-.898596-.1978022-.8985959-.1978022.9984399.6923077.9984399.5934066.99844.3956044.9984399.2967033.599064.0989011-1.2979719.3956044-1.297972.4945055-1.5975039.8901099-1.1981279.7912088-.9984399.7912088-.898596.9890109-.7987519.989011-.599064 1.1868132-.3993759 1.3846154.3993759-.4945055.49922-.4945055.49922-.4945055.4992199-.4945055.599064-.3956044.599064-.3956044.5990639-.3956044.599064-.3956044.6989079-.2967032.599064-.2967033.698908-.1978022.6989079-.2967033.698908-.1978022.6989079-.1978022.599064-.0989011.6989079-.0989011 1.198128-.4945055 1.2979719-.6923077 1.2979719-.7912088 1.2979719-.7912088 1.198128-.6923077.5990639-.1978022h.099844l-.8985959.4945055-.898596.5934066-.9984399.5934066-.99844.6923077-.8985959.5934066-.9984399.5934066-.898596.5934066-.9984399.5934066-.99844.5934065-.9984399.5934066-.9984399.5934066-.99844.5934066-1.1981279.7912088-1.0982839.5934066 1.0982839.0989011 1.0982839-.0989011.99844-.1978022.9984399-.2967033.99844-.3956044-.299532.2967033-.698908 1.0879121-.49922 1.1868132-.1996879 1.2857143.1996879 1.2857143.49922 1.2857143.798752-1.4835165.7987519-1.1868132.798752-1.0879121.7987519-.8901099.798752-.6923077.8985959-.5934066.898596-.5934066.8985959-.4945055.49922-.2967033-.099844.0989011-.299532 1.2857143-.199688 1.5824176.099844 1.6813187.299532 1.8791209.5990639 2.1758241.199688-1.0879121.199688-.9890109.299532-.989011.299532-.989011.299532-.989011.3993759-.8901099.399376-.989011.49922-.989011.4992199-.8901099.49922-.8901099.49922-.9890109.49922-.8901099.5990639-.8901099.599064-.989011.5990639-.989011.49922-.7912088c.798752.2967033 1.4976599.5934066 2.1965679.7912088l-1.2979719 2.1758242-1.198128 2.3736263-.9984399 2.8681319-.399376 1.5824176-.099844 1.4835165.099844 1.4835165.299532 1.2857142.698908 1.3846154 1.0982839 1.1868132 1.5975039.8901099 1.5975039.4945055.399376.8901099.8985959 1.1868132.8985959.7912088.798752.5934066.8985959.4945055.898596.2967033.7987519.0989011h.99844l.8985959 1.1868131 1.2979719.989011 1.4976599.5934066 1.7971919.0989011 1.3978159-.3956044.199688.2967033 1.2979719 1.1868132 1.297972.8901099 1.2979719.5934066 1.7971919.2967033 1.0982839-.0989011 1.0982839.7912088 1.6973479.6923077 1.4976599.3956044 1.098284.7912088 1.7971919.7912088 2.2964118.4945054 2.0967239.0989011.099844.0989011 1.5975039 1.1868132 1.5975039.8901099 1.4976599.4945055 1.8970359.1978022 1.6973479-.2967033.6989079.3956044 1.2979719.5934066 1.3978159.2967033 1.297972.0989011 1.1981279-.1978022.399376.2967033 2.0967238.6923077 2.3962559.2967033 2.5959438-.0989011.49922.2967033 2.0967239.6923077 2.0967242.2967033 2.795631-.0989011 1.797192.5934066 2.196568.2967033 2.096724-.0989011.698908.3956044 2.096724.7912088 2.396256.2967033 2.396256-.2967033v-.0989011l1.198128.2967033h1.996879l2.196568-.4945055 1.297972.4945055 1.697348.3956044 1.697348.1978021h2.096724l.49922.1978022 1.99688.5934066 2.096724.3956044 2.296411.0989011 2.296412-.1978022v-.0989011l1.198128.2967033 1.897036.2967033 1.897036.0989011.099844-.1978022 1.297972.3956044 2.4961.3956044 2.695788.0989011 2.895475-.0989011.399376.0989011 1.797192.3956044 1.697348.1978022 1.697348.0989011.099844.0989011 1.597504.7912088 1.897036.4945055h1.697348l1.797192-.3956044 1.497659-.8901099 1.697348.4945055 2.296412.1978022h2.396256l.49922.1978022 2.396256.3956044 2.296412-.1978022 2.396256-.7912088 1.996879.1978022 2.4961-.0989011 1.897036-.2967033 1.098284.1978022 1.397816.0989011 3.095164-.2967033.99844.3956044 1.49766.1978022 1.297972-.2967033.99844-.4945055h.099844l1.597503.4945055 1.697348.2967033h1.697348l1.797192-.3956044 1.897036-.8901099 1.797192-1.0879121 1.397816.0989011 1.897036-.0989011 1.597504-.1978022.898596.2967033 1.597503.2967033 1.597504.1978022 1.697348-.0989011 1.597504-.2967033.299532.0989011 1.99688.6923077 1.797192.3956044h1.597504l1.597504-.4945055.798752-.7912088.399376.0989011 1.098284.2967033 1.098283.1978022 1.198128-.0989011 1.098284-.1978022.798752-.2967033 1.397816.0989011 1.49766-.1978022 1.397816-.5934066h.199688l1.397816-.0989011 1.198128-.1978022 1.397816-.5934066.99844-.6923076h1.297972l1.198128-.1978022 1.098283-.2967033 1.198128-.4945055h.49922l.698908-.0989011.698908-.2967033.199688-.1978022.798752-.0989011.898596-.3956044.399376-.6923077.099844-.4945055h.299532l.898596-.8901099.099844-.3956044.199688.0989011.099844-2.4725275zm-213.5663026-36.7912087c-.4992199-.1978022-.9984399-.3956044-1.4976599-.5934066l-.099844-.1978022v-.1978022l.099844.1978022-.099844-.2967033v-.3956044l.099844-1.1868132.099844-1.1868132.099844-1.1868132.099844-1.0879121.099844-.7912088.099844.8901099.099844.989011.199688.989011.199688.989011.1996879.989011.199688.989011zm-4.1934477 3.5604395h.099844l-.49922.2967033h-.199688-.399376l.299532-.1978022zm-2.5959439 2.7692308.898596-.8901099.8985959-.989011.399376-.3956044.599064-.2967033-.399376.0989011.199688-.1978022c.49922.1978022 1.0982839.3956044 1.5975039.5934066l-.599064.3956044-.9984399.4945055-1.1981279.5934066-1.198128.5934066-.6989079.2967033zm5.1918877-1.3846154-.4992199.4945055-.698908.3956044-.599064.3956044.199688-.3956044.798752-1.5824176c.3993759.1978022.7987519.2967033 1.1981279.3956044z" fill="#dcddde"/><g stroke="#231f20"><path d="m255.8 61.8c-20.6-2.8-96.8-6.7-130.7-12.2-27.3-4.5-54-12.6-79.5-21.1-6.6-2.2-18.2-6.7-25.7-10.8-4.7-3.6-16.1-9-19.2-14 49.4 23.4 69.3 29.8 127.2 41.6 23.5 4.8 108.9 11.7 127.9 16.5z" fill="#231f20" stroke-width=".5956"/><g stroke-width=".254"><path d="m182.8 70.9-2.2.8-2.2.1-2.1-.3-2.2-.9-2.1-1.1-2.1-1.6-2-1.7-1.9-1.9-1.9-1.9-1.8-1.9-1.7-1.9-1.5-1.7-1.5-1.5-1.3-1.1-1.2-.8-1-.3h.8l1 .1 1 .1 1.1.1 1 .1 1.1.1 1 .1.9.1 1.5 1.4 1.4 1.2 1.2 1.3 1.1 1.3 1.1 1.2 1.1 1.2 1 1.2 1 1.1 1.1 1.1 1.1 1 1.2 1 1.3.9 1.4.9 1.6.8 1.7.8z" fill="url(#b)"/><path d="m190 70.6-2.5.4-2.4.1-2.2-.2-2.1-.6-2-.8-1.7-1-1.8-1.1-1.5-1.4-1.6-1.4-1.5-1.5-1.4-1.6-1.4-1.6-1.5-1.6-1.4-1.5-1.5-1.5-1.5-1.3h.6.6l.6.1h.6l.7.1.6.1.7.1h.6l.6.1.7.1.7.1h.7l.7.1h.7.7l.7.1.5.8.6 1 .9 1.2.8 1.2 1.1 1.3 1.1 1.4 1.2 1.4 1.2 1.3 1.3 1.3 1.2 1.2 1.4 1.1 1.3.9 1.2.8 1.3.5 1.3.3z" fill="url(#c)"/><path d="m194.8 70.7-1.5.1-1.4.2-1.3-.1-1.3-.2-1.4-.3-1.3-.5-1.2-.7-1.4-.9-1.3-.9-1.4-1.2-1.3-1.4-1.4-1.5-1.5-1.8-1.5-2-1.6-2.2-1.6-2.4h1l.9.1 1 .1.9.1.9.1 1 .1h1 1.1l1 .9.8 1 .9 1 .9 1 .8 1 .9 1.1.8.9.9 1.1.8 1 .9 1 .9 1 .9.9 1 .9 1 .8 1 .9z" fill="url(#d)"/><path d="m199.9 70.4-1.1.6-1.3.2-1.2-.1-1.3-.5-1.3-.8-1.3-1.1-1.3-1.1-1.4-1.4-1.3-1.5-1.3-1.5-1.2-1.5-1.3-1.5-1.1-1.4-1.1-1.3-1.1-1.1-.9-.9 6.2.6.7.9.8.9.7 1 .7.9.7.9.7.9.7 1 .8.9.8.9.8.9.8.9 1 .9.9.8 1 .9 1.1.8z" fill="url(#e)"/><path d="m210.2 69.1-1.8 1.1-1.7.8-1.7.4h-1.6l-1.6-.3-1.5-.6-1.5-.8-1.4-1-1.4-1.3-1.4-1.3-1.3-1.6-1.4-1.6-1.3-1.7-1.2-1.7-1.3-1.8-1.2-1.6 1.1.1.8.1h.6l.5.1.5.1h.5.8l1 .1 1.1 1.5 1.1 1.5 1.1 1.4 1.2 1.2 1.2 1.1 1.2 1.1 1.2.9 1.2.8 1.1.7 1.2.7 1.1.4 1 .4 1.1.4.9.2 1 .1z" fill="url(#f)"/><path d="m215.6 68.7-1.9.3-1.8.1-1.7-.1-1.7-.3-1.6-.3-1.6-.5-1.4-.7-1.4-.8-1.4-.9-1.3-1-1.3-1.1-1.2-1.2-1.2-1.3-1.1-1.4-1.1-1.4-1-1.5h1.1l1.3.1 1.2.2h1.3l1 .1.9.1h.6l.3.1.1.1.3.3.5.5.6.6.6.7.8.8.9.8 1 1 1.1.9 1.2 1 1.1.9 1.3 1 1.3.8 1.4.8 1.4.7z" fill="url(#g)"/><path d="m222.7 69.1-1.5.3-1.5.1-1.6-.1-1.6-.3-1.6-.5-1.5-.7-1.5-.7-1.5-1-1.4-1-1.4-1-1.3-1.1-1.3-1.2-1.2-1.2-1.2-1.2-1.1-1.1-1-1.2h.7l.9.1h1 .9l1 .1.9.1.8.1.6.1v.1l.2.3.6.5.8.6 1 .9 1.2.9 1.3 1 1.3 1 1.4 1 1.4 1.1 1.4.9 1.2.9 1.2.8 1.1.7.8.4z" fill="url(#h)"/><path d="m230.7 69.1-1 .9-1.2.4h-1.5l-1.7-.4-1.9-.7-1.9-1-2-1.1-2-1.3-2-1.4-1.8-1.4-1.8-1.4-1.5-1.2-1.3-1.1-1-.9-.7-.5-.3-.3.8.1h.8l.9.1.8.1 1 .1h.9l.9.1h1l1.1.7 1 .6 1.1.7 1 .7 1 .7 1 .7 1.1.7 1 .7 1 .8 1 .7 1 .7 1 .7 1.1.6 1 .6 1 .7z" fill="url(#i)"/><path d="m236.5 69.2-1 .3-1 .2-1 .1-1-.2-1-.3-1-.4-1.1-.6-1.2-.7-1.3-.8-1.3-.9-1.5-1.1-1.6-1.1-1.8-1.2-1.9-1.3-2.1-1.4-2.3-1.5.9.1h1.2.9l1 .1h.9l.7.1.5.1h.1l.2.2.3.3.5.5.7.6.9.8 1 .9 1 .8 1.3 1 1.2.9 1.3.9 1.3.8 1.3.9 1.3.7 1.3.5 1.2.4z" fill="url(#k)"/><path d="m240.7 68.5-1.3.6-1.4.2-1.6-.1-1.5-.4-1.7-.6-1.5-.8-1.7-.9-1.5-1-1.4-1.1-1.4-1.1-1.3-1-1.1-1.1-1-.9-.8-.7-.6-.5-.3-.4.9.1h.9l.9.1.8.1.9.1h.8l1 .1.9.1.7.6.8.7.6.6.8.7.8.8.7.7.8.7.9.7.8.6.8.6.9.6.8.5.9.5.9.4.9.3z" fill="url(#l)"/><path d="m245.9 66.9-1.2.8-1.2.5-1.1.3h-1.2l-1.2-.2-1.1-.4-1.2-.5-1.1-.7-1.2-.7-1.1-1-1.1-.9-1.1-1-1.1-1-1.1-1-1-1-1.1-.9h.7l.6.1.8.1.8.1.9.1h.9l1 .1 1 .1.2.7.4.7.5.6.5.7.6.6.6.5.6.6.8.5.8.5.8.4.9.4.8.3 1 .2.9.2 1 .1z" fill="url(#m)"/><path d="m250.5 66-1 .4-1.1.3-1.1.2h-1.2l-1.2-.1-1.2-.1-1.3-.4-1.2-.3-1.2-.6-1.1-.5-1-.7-.9-.7-.8-.8-.7-.9-.5-1-.4-1 .7.1h.7l.8.1.7.1h.8l.8.1.9.1h1l.4.6.5.6.4.5.5.5.4.4.6.4.5.4.5.3.6.3.6.3.7.3.7.3.7.2.7.2.9.2z" fill="url(#n)"/><path d="m252.9 65.2-.4.4-.5.2-.7.1h-.7l-.8-.1-.8-.1-1-.3-.9-.3-.9-.4-1-.5-.9-.5-.8-.6-.8-.6-.7-.7-.6-.7-.4-.8.5.1h.5l.5.1.6.1h.5l.5.1h.4.4v.2l.5.5.9.6 1.1.8 1.4.7 1.4.8 1.4.6z" fill="url(#o)"/><path d="m254.5 63.6-.1.8-.3.5-.4.2-.7.2-.7-.2-.9-.2-.9-.4-.9-.5-.9-.5-.9-.6-.9-.5-.7-.6-.6-.4-.5-.4-.3-.2v-.1l4.5.5.4.2.5.3.7.4.8.3.8.4.8.3.7.3z" fill="url(#p)"/><path d="m249.3 61.2h1l.9.1.8.1h.7l.7.1h.8l.8.2.8.1-.1 1.1-.6.6h-.8l-1-.3-1.1-.6-1.1-.5-1-.6z" fill="url(#q)"/><path d="m249.5 60.6 1 .2.8.1.8.2.8.1.7.2.7.1.8.2.8.2.1-1.2-.5-.9-.8-.2-1.1-.1-1.2.2-1.2.3-1 .4z" fill="url(#r)"/><path d="m188.9 36.9-2.6-.9-2.4-.7-2.3-.2-2.2.2-2.1.4-1.9.7-1.8 1-1.8 1.1-1.8 1.3-1.7 1.4-1.7 1.5-1.6 1.5-1.6 1.4-1.7 1.4-1.6 1.4-1.7 1.2.6.1.7.1h.6l.6.2h.6l.7.1h.7l.6.1h.6l.7.1.7.1.7.1h.7l.7.1.7.1.7.1.6-.8.8-1 .8-1.1 1.1-1.2 1.1-1.3 1.2-1.3 1.4-1.3 1.3-1.2 1.5-1.2 1.4-1 1.5-.9 1.5-.8 1.4-.6 1.5-.3 1.4-.1z" fill="url(#s)"/><path d="m193.3 37.9-1.5-.5-1.4-.3-1.3-.3-1.4-.1-1.4.1-1.4.3-1.3.4-1.4.7-1.5.8-1.4 1-1.5 1.3-1.6 1.4-1.7 1.7-1.7 1.9-1.8 2.2-1.9 2.4h1l1 .2h.8l.9.1.8.1.8.2 1 .1 1.2.2 1.1-.9.9-.9 1.1-1 .9-1 1-1 1-1 .9-1 1-.9 1-1 1.1-.8.9-.9 1.1-.9 1.1-.8 1.2-.6 1.1-.6z" fill="url(#t)"/><path d="m198.1 39.2-1.1-.9-1.2-.5-1.3-.1-1.4.3-1.4.6-1.5.8-1.5 1-1.5 1.3-1.5 1.3-1.5 1.4-1.5 1.4-1.4 1.5-1.3 1.3-1.2 1.2-1.1 1.1-1.1.9 6.4.7.8-.9.8-1 .7-.9.9-.9.8-1 .8-.9.9-1 .8-.9.9-.8.9-.9 1-.8 1.1-.8 1.1-.7 1.1-.7 1.3-.6z" fill="url(#u)"/><path d="m207.7 43.3-1.7-1.7-1.7-1.2-1.7-.8-1.6-.5-1.6-.1-1.6.3-1.6.6-1.5.7-1.5 1.1-1.5 1.2-1.5 1.4-1.4 1.5-1.4 1.6-1.4 1.7-1.4 1.7-1.4 1.6 1.1.1.9.1h.8l.7.1.7.2.7.1.9.1 1.1.2 1.2-1.6 1.1-1.4 1.3-1.3 1.1-1.1 1.3-.9 1.1-.9 1.1-.7 1.2-.5 1.1-.5 1-.4 1.2-.2 1-.3 1-.1 1-.1h1z" fill="url(#v)"/><path d="m214.5 44.8-1.9-.7-1.8-.5-1.8-.3-1.7-.1h-1.7l-1.6.3-1.6.3-1.5.5-1.5.7-1.4.8-1.5.9-1.3 1.1-1.4 1.1-1.2 1.3-1.3 1.4-1.2 1.5 1.2.2 1.4.2 1.4.2 1.4.1 1.3.2 1 .1.8.1h.3l.1-.1.3-.3.4-.4.5-.5.6-.6.8-.7.9-.7 1-.9 1.1-.7 1.1-.8 1.3-.8 1.4-.7 1.4-.7 1.5-.6 1.6-.5z" fill="url(#w)"/><path d="m223.1 45.9-1.5-.6-1.6-.5-1.7-.2h-1.6l-1.7.2-1.7.3-1.6.6-1.7.6-1.6.8-1.6.8-1.5 1-1.5 1-1.3 1-1.4 1.1-1.2 1.1-1.1 1.1.8.1.9.1 1 .1 1.1.1 1.2.2.9.1h.9.7v-.1l.2-.3.6-.4.9-.6 1-.6 1.3-.8 1.4-.8 1.4-.8 1.5-.8 1.5-.8 1.5-.8 1.4-.7 1.3-.6 1.1-.4 1-.3z" fill="url(#x)"/><path d="m231.3 47.6-.8-1.3-1.2-.8-1.6-.2h-1.7l-1.9.4-2.1.6-2.2.9-2.2 1-2.2 1.1-2 1.1-2 1.2-1.7 1.1-1.5.9-1.1.7-.7.5-.4.2.8.2 1 .1 1 .1 1 .1 1.1.1 1.1.1 1.1.2 1 .1 1.1-.5 1.1-.5 1.1-.6 1-.6 1.1-.5 1-.6 1.1-.6 1.1-.6 1-.5 1.1-.6 1.1-.5 1-.5 1.1-.5 1.1-.4 1.1-.5z" fill="url(#y)"/><path d="m241.7 50.4-1.3-1-1.4-.5-1.5-.2h-1.7l-1.7.3-1.7.5-1.7.6-1.7.8-1.5.9-1.6.8-1.4 1-1.2.8-1.1.8-.9.7-.7.4-.3.3.9.1.9.1.8.2h.7l.8.1.8.1.9.1.9.1.8-.5.8-.5.9-.7.9-.6.9-.6.9-.6 1-.7.9-.6.9-.5 1-.5 1-.5.9-.3 1-.3 1-.2h.9z" fill="url(#z)"/><path d="m237.9 48.7-1-.7-1.1-.4-1-.3-1-.1-1 .1-1.2.2-1.2.4-1.3.5-1.4.6-1.4.7-1.6.9-1.8.9-1.9 1-2.1 1.1-2.3 1.1-2.5 1.2 1 .1 1 .1 1 .1 1.1.2.9.1.7.1.6.1.2-.1.1-.1.4-.3.5-.5.7-.5.9-.6 1.1-.7 1.1-.8 1.2-.7 1.3-.8 1.4-.8 1.4-.6 1.5-.6 1.4-.5 1.5-.3 1.4-.1z" fill="url(#A)"/><path d="m246.4 53.3-1.1-1.1-1.1-.9-1.1-.6-1.1-.3-1.2-.1-1.2.1-1.3.3-1.2.4-1.3.7-1.2.6-1.3.8-1.3.8-1.3.9-1.2.8-1.2.9-1.2.8.6.1h.8l.9.2.9.1 1 .1 1.1.2.9.1 1 .1.4-.8.4-.6.5-.7.5-.5.6-.6.7-.4.7-.4.8-.3.8-.3.9-.3.8-.1 1-.1 1-.1h.9l1 .1z" fill="url(#B)"/><path d="m253.6 57.2-.3-.5-.5-.4-.6-.4-.7-.2-.9-.2h-.9-.9-1.1l-1 .2-1 .3-1 .3-.9.4-.9.5-.8.6-.7.6-.5.7.5.1.6.1.7.1.6.2h.6l.5.1h.3.1l.3-.1.5-.4 1-.5 1.2-.5 1.3-.4 1.5-.5 1.5-.2z" fill="url(#C)"/><path d="m255 59.6v-1l-.2-.7-.4-.4-.7-.3-.7-.2-.9.1-.9.1-1.1.3-1 .3-1 .4-.9.3-.8.4-.7.3-.6.2-.3.3h-.1l4.7.8.4-.1.6-.2.7-.2.8-.3.8-.1.9-.2h.7z" fill="url(#D)"/><path d="m251.1 55.7-.9-.8-1-.6-1.1-.5-1.2-.4-1.3-.2-1.2-.2h-1.3l-1.3.2-1.2.2-1.2.4-1.1.5-1.1.5-.9.8-.9.8-.6.9-.5 1 .7.1.7.1.8.1.8.1.8.1.9.1.9.1 1 .2.4-.6.4-.4.4-.4.6-.4.5-.4.7-.3.6-.3.7-.3.7-.2.8-.2.7-.1.7-.1h.8.7.8z" fill="url(#E)"/><path d="m43.7 27.8-.1.2-.3.4-.4.8-.5.9-.6 1.1-.6 1.3-.5 1.4-.5 1.4-.3 1.4-.1 1.4v1.4l.3 1.3.7 1.2 1 1 1.4.8 1.8.6-.3-.9-.2-.9-.2-.9-.1-1.1-.1-1v-1.1l.1-1.1.1-1.1.1-1.1.1-1.1.2-1.1.2-1 .2-.9.2-.9.3-.9.2-.7-.3-.2h-.2l-.3-.1-.2-.1-.3-.1-.2-.1-.3-.1z" fill="url(#G)"/><path d="m45.7 28.6-.8 3.2-.6 2.9-.3 2.5v2.2l.1 2 .3 1.6.5 1.4.5 1.2.7.9.8.7.7.6.8.4.8.3.7.1h.7.5l-.3-.9-.4-.9-.3-1.1-.2-1-.2-1.2-.2-1.1-.2-1.2-.1-1.2-.1-1.3v-1.2l.1-1.3.1-1.2.2-1.3.2-1.2.3-1.2.4-1.2-.7-.3-.7-.2-.7-.2-.6-.2-.5-.2-.6-.2-.5-.1z" fill="url(#H)"/><path d="m50.4 30.1-.3 1.1-.4 1.5-.2 1.6-.1 1.8-.1 2v2l.2 2 .3 1.9.4 1.8.5 1.7.8 1.4.9 1.2 1.1.9 1.3.4 1.4.1 1.7-.5-.6-1-.7-1.1-.5-1.2-.5-1.1-.3-1.2-.4-1.2-.2-1.2-.2-1.2-.2-1.3v-1.2-1.3l.1-1.2.1-1.3.2-1.2.3-1.3.3-1.3-.6-.2-.7-.2-.7-.2-.7-.3-.7-.2-.5-.2-.6-.2z" fill="url(#I)"/><path d="m65.2 54.2-1.5.1-1.6-.2-1.3-.6-1.2-.8-1.2-1.1-1-1.3-.8-1.5-.7-1.7-.6-1.8-.5-2-.3-1.9-.1-2v-2l.2-2 .3-1.9.5-1.8.7.2.6.3.7.1.7.3.7.2.8.2.7.3.7.2v1.2 1.4l.1 1.5v1.5l.1 1.6.1 1.6.1 1.7.2 1.6.3 1.6.2 1.4.3 1.4.4 1.3.5 1 .6.9.6.6z" fill="url(#J)"/><path d="m61.1 33.5.6.3.6.2.5.1.6.1.5.2.6.2.6.2.5.2.1 1.2.1 1.2.1 1.4v1.5 1.5 1.5l.1 1.6v1.5l.2 1.5.1 1.5.3 1.4.3 1.3.5 1.2.5 1.2.7.9.8.7-1.7-.4-1.4-.5-1.2-.9-1-.9-.8-1.1-.6-1.3-.5-1.4-.3-1.4-.3-1.7-.2-1.7v-1.7l-.1-1.9v-1.8l-.1-1.9v-2z" fill="url(#K)"/><path d="m76.5 58.4-2.3-.1-2-.5-1.6-.7-1.3-1-1.1-1.3-.8-1.5-.6-1.6-.4-1.8-.2-1.9-.2-1.9-.1-2v-1.9-2-1.8l-.1-1.8-.1-1.6.6.2.6.1.5.2.6.2.6.2.5.1.6.2.7.1-.1.2-.1.4-.1.7-.2.8-.1 1-.1 1.2-.1 1.3.1 1.5.1 1.6.3 1.8.6 1.8.6 1.8.9 2 1.2 2 1.4 2z" fill="url(#L)"/><path d="m84.5 60.9-1.6.3-1.6-.1-1.5-.5-1.5-.9-1.5-1.1-1.4-1.3-1.2-1.6-1.2-1.8-1-2-.9-2.1-.7-2.2-.5-2.2-.2-2.3-.1-2.3.2-2.2.5-2.3 5.5 1.8v.9l-.1 1.1.1 1.2.1 1.4.2 1.5.3 1.6.2 1.6.5 1.7.5 1.7.7 1.6.7 1.6.9 1.6.9 1.5 1.1 1.4 1.2 1.3z" fill="url(#M)"/><path d="m75.7 38 .9.3 1.1.2 1.2.5 1.3.3 1.2.4 1.2.4 1.1.2.8.2.1 1.4.1 1.4.1 1.5.1 1.5.1 1.5.2 1.6.1 1.5.3 1.5.3 1.5.3 1.4.5 1.4.5 1.2.6 1.3.8 1 .8 1 1 .9-1.2.1h-1.2l-1.2-.3-1.2-.5-1.3-.8-1.2-.9-1.1-1.2-1.2-1.4-1.1-1.6-.9-1.9-.9-2-.7-2.3-.6-2.5-.5-2.7-.3-3z" fill="url(#N)"/><path d="m98 63.2-2.6.1-2.2-.2-1.9-.6-1.5-1-1.3-1.2-1.1-1.5-.7-1.6-.6-1.9-.5-1.8-.3-2.1-.1-2-.2-1.9-.1-2-.1-1.8-.1-1.7-.2-1.5.8.1.7.2.7.2.6.2.7.2.6.2.8.2.9.2.2 1.6.1 1.5.2 1.5.2 1.5.2 1.4.2 1.4.3 1.4.3 1.3.4 1.3.5 1.3.6 1.2.6 1.2.8 1.2.9 1.2 1.1 1.1z" fill="url(#O)"/><path d="m105.1 64.5-2.3.1-2.1-.3-1.8-.6-1.6-1-1.3-1.2-1.2-1.5-.9-1.7-.8-1.8-.7-1.8-.5-2-.5-1.9-.2-2-.3-1.9-.2-1.7-.2-1.7-.1-1.4.8.2.7.2.6.2.7.1.6.2.6.1.8.2.8.2.3 2.3.4 2.1.4 2 .4 1.9.5 1.6.5 1.7.6 1.4.6 1.3.5 1.2.7 1.1.7 1 .6.8.7.9.7.6.8.6z" fill="url(#P)"/><path d="m111.7 65.4-2.2.1-2-.3-1.7-.6-1.6-1-1.4-1.2-1.2-1.4-1.1-1.6-.9-1.8-.8-1.8-.7-1.9-.5-1.9-.4-1.9-.5-1.8-.2-1.8-.3-1.6-.2-1.4.7.2.7.1.7.2.7.2.7.2.7.1.7.2.7.2.1 1.1.2 1.2.2 1.3.4 1.4.4 1.5.6 1.5.6 1.5.6 1.5.8 1.6.8 1.4.8 1.4.9 1.2.9 1.3.9 1 1 .9z" fill="url(#Q)"/><path d="m119 66.7-2.3.3-2.1-.3-1.9-.7-1.7-1.2-1.7-1.5-1.4-1.7-1.2-2-1.2-2-.9-2.2-.9-2.1-.7-2-.5-1.9-.4-1.6-.3-1.4-.2-.9v-.6l.9.1.8.2.8.3.9.1.8.3.7.1.8.2.7.1.3 1 .3 1.2.4 1.3.4 1.5.5 1.6.5 1.6.6 1.7.6 1.7.7 1.6.8 1.5.8 1.5.9 1.2.9 1.1 1 .9 1.1.7z" fill="url(#R)"/><path d="m124.3 66.4-2.1.5h-1.8l-1.7-.4-1.6-.8-1.4-1.1-1.2-1.4-1.1-1.6-1-1.8-.8-1.8-.8-1.9-.5-2-.6-1.8-.5-1.8-.3-1.6-.4-1.4-.3-1.1.7.2h.6l.6.1.5.1.6.2.5.1.5.1.5.1.2 1.3.3 1.4.3 1.4.4 1.3.4 1.4.6 1.4.5 1.3.7 1.2.7 1.3.9 1.2.9 1.2.9 1 1.1 1.1 1.1.9 1.3.9z" fill="url(#S)"/><path d="m131 67.5h-1.8l-1.7-.2-1.6-.4-1.6-.6-1.4-.8-1.5-1-1.3-1.2-1.3-1.3-1.1-1.4-1-1.6-1-1.7-.8-1.8-.7-2-.6-2-.5-2.1-.4-2.1.8.1.7.1.8.2.8.1.7.2.7.1.8.1.7.2.4 1.2.2 1.3.4 1.2.3 1.3.3 1.2.4 1.2.5 1.2.5 1.2.6 1.2.7 1.2.9 1.2 1 1.1 1.2 1.1 1.4 1.2 1.6 1.2z" fill="url(#T)"/><path d="m140.4 68.6-2.3.1-2.2-.1-2-.3-2-.6-1.8-.8-1.7-1-1.5-1.1-1.4-1.4-1.3-1.5-1.2-1.6-1-1.8-.9-1.8-.8-2-.6-2-.5-2.1-.3-2.1.6.1.7.2.7.1.7.1.7.1.8.2.7.1.8.2.2 1.4.4 1.5.4 1.4.6 1.4.7 1.4.8 1.4.9 1.4.9 1.3 1.1 1.2 1.2 1.2 1.2 1.1 1.3 1.1 1.4.9 1.5.9 1.6.7z" fill="url(#U)"/><path d="m145.6 69.1-2-.1-1.8-.3-1.9-.4-1.8-.7-1.7-.9-1.7-.9-1.5-1.1-1.5-1.3-1.3-1.4-1.3-1.5-1.1-1.7-1-1.7-.8-1.8-.7-1.8-.6-1.9-.3-2 .6.1h.6l.5.1.6.1h.5l.6.1.7.2.8.1.8 1.7.7 1.5.7 1.5.6 1.4.7 1.4.7 1.2.7 1.2.7 1.1.9 1.1.9 1 1 1 1.2 1 1.3.9 1.6 1 1.6.9z" fill="url(#V)"/><path d="m154.9 69.7-2.9.1-2.6-.1-2.4-.4-2.2-.6-2.1-.9-1.8-1.1-1.7-1.2-1.5-1.4-1.4-1.5-1.3-1.6-1.1-1.7-1-1.8-1-1.8-.9-1.8-.8-1.9-.8-1.8.5.1.7.1.9.1.9.1.9.2.8.1.7.1.6.1.7 1.6.7 1.6.9 1.6.9 1.4 1 1.4 1 1.3 1.1 1.2 1.2 1.2 1.3 1.1 1.3 1.1 1.4 1 1.5 1 1.5.8 1.6.9 1.6.7z" fill="url(#W)"/><path d="m160.4 70.5h-1.5l-1.7-.3-1.7-.4-1.8-.6-1.8-.8-1.8-.9-1.9-1.1-1.8-1.2-1.7-1.4-1.7-1.5-1.6-1.6-1.5-1.8-1.3-1.8-1.2-1.9-1.1-2-.9-2.1.9.1.9.1.9.1.9.1h.8l.7.2.6.1.3.2 1.1.8 1 .8 1.1 1.1 1.1 1 1.1 1.2 1.2 1.2 1.2 1.3 1.1 1.3 1.2 1.3 1.2 1.3 1.3 1.3 1.2 1.3 1.3 1.2 1.3 1.2 1.3 1.2z" fill="url(#X)"/><path d="m168.9 70.5-1.5 1-1.6.4h-1.5l-1.7-.4-1.6-.8-1.6-1.1-1.7-1.4-1.7-1.6-1.7-1.8-1.7-1.8-1.9-2-1.8-2-1.8-1.9-1.8-1.9-1.9-1.8-1.9-1.6h.7l.7.2h.9l.9.2.9.1 1 .2.8.1.8.2 1.4 1.3 1.5 1.3 1.4 1.4 1.4 1.4 1.3 1.4 1.4 1.4 1.3 1.4 1.3 1.3 1.3 1.3 1.3 1.2 1.2 1 1.2.9 1.2.8 1.2.7 1.2.6z" fill="url(#Y)"/><path d="m175.5 71.3h-2.4l-2.2-.3-2.1-.5-2-.8-1.8-.9-1.7-1.2-1.6-1.3-1.5-1.4-1.5-1.5-1.5-1.6-1.4-1.5-1.4-1.7-1.5-1.6-1.5-1.6-1.6-1.4-1.6-1.4h.6l.7.1.8.1.9.1.9.1h.7l.6.1h.3l1 .2 1 .5 1 .6 1 .9 1.1 1.1 1.1 1.2 1.2 1.3 1.1 1.4 1.4 1.4 1.3 1.5 1.5 1.5 1.6 1.4 1.7 1.5 1.8 1.3 1.9 1.3z" fill="url(#Z)"/><path d="m45.9 23.3v-.2l-.1-.7v-1l-.1-1.2-.1-1.4.1-1.6.1-1.6.1-1.7.4-1.6.4-1.5.6-1.4.9-1.1 1-.8 1.3-.4 1.5-.1 1.8.5-.5.5-.6.7-.5.9-.5.9-.4 1.1-.4 1-.4 1.2-.4 1.2-.4 1.2-.3 1.2-.3 1.2-.3 1.2-.2 1.2-.2 1.1-.2 1-.2.9h-.3l-.2-.1-.3-.1-.2-.1-.2-.1-.3-.1-.3-.1z" fill="url(#aa)"/><path d="m48 24.2.8-3.8.8-3.2.8-2.7.8-2.3.8-1.8.9-1.5.8-1 .7-.8.8-.5.7-.2.8-.1.6.1.7.2.6.3.5.4.5.3-.9.8-.8.9-.7.8-.7.9-.7.9-.6 1-.6 1-.5 1.1-.5 1.1-.5 1.1-.5 1.2-.4 1.2-.3 1.3-.4 1.3-.3 1.3-.3 1.4-.7-.1h-.5l-.4-.2-.2-.1h-.3l-.2-.1-.2-.1z" fill="url(#ab)"/><path d="m50.9 25.3.2-1.4.3-1.6.5-1.7.6-1.9.7-1.9.9-1.9.9-1.8 1.1-1.7 1.1-1.5 1.1-1.3 1.3-1 1.2-.6 1.4-.2 1.3.2 1.3.7 1.3 1.4-1 .7-1 .9-.9.9-.9.9-.9.9-.7 1-.7 1.1-.7 1-.6 1.2-.5 1.2-.6 1.2-.4 1.3-.4 1.3-.3 1.4-.3 1.5-.2 1.5-.6-.2-.7-.2-.8-.3-.7-.2-.7-.3-.7-.3-.5-.2z" fill="url(#ac)"/><path d="m73.7 10-1.4-.9-1.4-.5-1.5-.2-1.4.2-1.5.4-1.4.8-1.3 1-1.3 1.3-1.1 1.4-1.2 1.6-1 1.8-.9 1.9-.7 1.9-.6 2.1-.5 2.1-.2 2.2.7.2.7.1.7.3.7.2.8.3.7.2.7.2.8.1.5-1.3.5-1.5.5-1.4.6-1.5.5-1.5.7-1.5.6-1.5.7-1.4.7-1.3.7-1.2.8-1.2.9-1 .9-.9.9-.7 1-.5z" fill="url(#ad)"/><path d="m80.1 11.7-2.3-.9-1.9-.6h-1.8l-1.6.3-1.4.6-1.2 1-1.1 1.2-1 1.5-.8 1.6-.8 1.8-.8 1.9-.7 1.9-.6 1.9-.7 1.9-.7 1.8-.7 1.7.6.1.6.1.6.2.5.2.6.2.6.2.7.2.6.1.1-.2v-.6l.2-.7.2-1.1.2-1.2.5-1.4.4-1.5.7-1.6.7-1.6.9-1.5 1.1-1.6 1.2-1.5 1.5-1.4 1.6-1.1 1.9-1.1z" fill="url(#ae)"/><path d="m88.3 13-1.3-1-1.5-.7-1.7-.2-1.6.1-1.7.3-1.8.7-1.7 1-1.7 1.1-1.6 1.5-1.5 1.6-1.3 1.9-1.3 2-1 2.2-.8 2.3-.5 2.4-.3 2.6 6 1.5.3-1 .5-1.1.4-1.3.6-1.3.7-1.4.7-1.5.8-1.4.9-1.5 1-1.4 1.1-1.4 1.2-1.3 1.2-1.2 1.3-1.1 1.5-1 1.5-.8z" fill="url(#af)"/><path d="m72.9 32.5.9.2 1.1.2 1.1.3 1.2.4 1.2.4 1.1.3 1 .3 1 .3-.2-.1.8-1.4.7-1.5.6-1.5.6-1.6.7-1.6.6-1.4.6-1.6.8-1.6.8-1.4.8-1.2 1-1.3 1-1.1.9-1 1.2-.8 1.2-.6 1.2-.5-1.1-.7-1.1-.5-1.2-.4-1.4-.1-1.4.1-1.4.4-1.5.6-1.5.9-1.5 1.1-1.5 1.4-1.5 1.7-1.5 2-1.4 2.3-1.4 2.6-1.3 3.1z" fill="url(#ag)"/><path d="m102.1 17.2-2.4-1.3-2.1-.7-2-.2-1.8.3-1.6.7-1.5 1-1.3 1.4-1.2 1.6-1 1.8-1 1.9-.9 2.1-.8 2-.8 2-.8 1.9-.7 1.8-.7 1.5.8.2.7.1.7.2.6.1.7.2.7.2.7.1.9.2.8-1.6.7-1.6.7-1.5.7-1.5.6-1.4.8-1.3.8-1.4.7-1.2.9-1.2.9-1.1.9-1.1 1.1-1 1.2-.9 1.2-.8 1.4-.8z" fill="url(#ah)"/><path d="m109.4 19.3-2.2-1.2-2-.5-2-.2-1.8.3-1.7.7-1.6 1.1-1.5 1.3-1.4 1.5-1.3 1.7-1.2 1.8-1.2 1.9-.9 1.9-1 2-.8 1.7-.7 1.7-.6 1.4.8.2.8.2.7.2.6.1.7.2.7.1.9.1.9.2 1-2.3 1.1-2.2 1-1.9 1-1.9.9-1.6.9-1.4.9-1.3.9-1.3.9-.9.9-.9 1-.8 1-.6.9-.5 1.1-.4 1.1-.2z" fill="url(#ai)"/><path d="m114.8 20.9-2.1-1-1.9-.5h-1.9l-1.8.4-1.6.7-1.6 1-1.5 1.2-1.4 1.5-1.2 1.6-1.1 1.8-1.2 1.8-.9 1.8-.9 1.8-.8 1.7-.7 1.6-.6 1.5.7.2.6.1.7.1.6.2.6.1.6.1.7.2.8.1.3-1.1.6-1.3.6-1.3.8-1.4.8-1.4 1-1.4 1-1.4 1.1-1.4 1.1-1.3 1.2-1.3 1.3-1.1 1.2-1 1.3-.9 1.2-.8 1.2-.6z" fill="url(#aj)"/><path d="m121.4 22.6-2.1-1.2-2.1-.5h-2.1l-2 .6-1.9.9-1.9 1.4-1.7 1.6-1.7 1.7-1.5 1.9-1.3 1.9-1.2 1.9-1 1.8-.8 1.5-.7 1.4-.3 1-.2.6.9.1.7.2.8.2.7.2.8.1.7.1.8.2.7.1.5-1 .6-1.2.7-1.4.8-1.4.9-1.6.9-1.5 1-1.5 1.1-1.6 1.1-1.5 1.1-1.3 1.3-1.2 1.2-1 1.3-.8 1.2-.6 1.4-.2z" fill="url(#ak)"/><path d="m126.2 24.4-1.9-1.3-1.9-.7-1.7-.1-1.8.3-1.6.7-1.6 1-1.4 1.3-1.4 1.6-1.3 1.7-1.2 1.8-1.1 1.8-1.1 1.9-.9 1.7-.8 1.7-.6 1.4-.6 1.1.7.1.6.2.5.2.5.2.5.1.5.2.4.1.6.1.5-1.4.6-1.5.7-1.4.7-1.4.8-1.4.8-1.2.9-1.3 1-1.2 1.1-1.2 1.1-1.1 1.2-.9 1.3-.9 1.4-.7 1.4-.7 1.5-.4z" fill="url(#al)"/><path d="m132.3 25.8-1.7-.6-1.7-.4-1.8-.2-1.6.2-1.7.3-1.6.5-1.5.9-1.6.9-1.5 1.2-1.4 1.4-1.3 1.5-1.3 1.7-1.2 1.9-1 2-1.1 2.2-.9 2.2.8.2.8.1.7.2.8.2.7.2.8.2.7.2.8.1.5-1.3.5-1.3.6-1.3.5-1.4.6-1.2.7-1.3.7-1.2.8-1.2 1-1.1 1.1-1.1 1.2-1 1.3-1 1.6-.8 1.6-.7 2-.7z" fill="url(#am)"/><path d="m140.9 27.8-2.2-.9-2.2-.6-2.1-.3h-2l-1.9.3-1.9.5-1.8.8-1.6.9-1.6 1.3-1.5 1.4-1.3 1.5-1.3 1.8-1.2 1.9-.9 2.1-1 2.1-.8 2.2.7.1.7.2.8.1.8.1.8.1.8.1.8.1.8.2.5-1.7.5-1.5.7-1.5.8-1.5.9-1.3 1-1.3 1-1.2 1.2-1.1 1.2-1.1 1.4-.8 1.5-.9 1.5-.7 1.6-.5 1.7-.5 1.8-.2z" fill="url(#an)"/><path d="m145.1 28.3-1.9-.3-2-.2-1.9.1-1.9.2-1.8.5-1.8.6-1.7.7-1.6 1-1.5 1.1-1.5 1.3-1.2 1.4-1.3 1.5-1 1.8-.9 1.9-.8 2-.6 2.1.7.1.6.1.6.1.6.1.6.1.5.1.7.2.8.1 1-1.7.9-1.6.8-1.5.8-1.4.8-1.3.8-1.2.7-1.2.9-1 .9-1 1.1-.9 1.1-.8 1.3-.8 1.5-.6 1.7-.6 1.9-.5z" fill="url(#ao)"/><path d="m154.4 29.5-2.9-.7-2.8-.4-2.5-.1-2.3.2-2.1.5-2 .7-1.8.9-1.7 1.1-1.5 1.3-1.4 1.5-1.3 1.6-1.2 1.7-1.1 1.7-1.1 1.9-.9 1.8-.9 1.9.4.1.7.1.7.1.7.2.8.1.7.2.6.1h.5l.9-1.7.9-1.6 1.1-1.5 1.1-1.4 1.2-1.4 1.2-1.2 1.3-1.1 1.4-1 1.5-1 1.5-.8 1.6-.8 1.6-.8 1.7-.6 1.7-.6 1.8-.5z" fill="url(#ap)"/><path d="m159.9 30.1-1.6-.3-1.7-.1-1.9.1-1.9.3-1.9.4-2 .6-2 .8-1.9.9-2 1.1-1.9 1.3-1.8 1.4-1.7 1.6-1.6 1.7-1.5 1.9-1.2 2-1.1 2.2.8.1.8.1.8.2.8.1.7.2.6.2h.5.3l1.1-.7 1.2-.8 1.2-1 1.3-1 1.3-1.1 1.3-1.2 1.4-1.2 1.4-1.2 1.5-1.2 1.4-1.2 1.5-1.2 1.5-1.2 1.6-1.1 1.5-1 1.7-.9z" fill="url(#aq)"/><path d="m167.7 32.3-1.5-1.5-1.6-.8-1.6-.4-1.7.1-1.7.5-1.9.9-1.8 1.2-2 1.3-2 1.6-2 1.7-2.1 1.8-2 1.8-2.1 1.8-2.1 1.7-2.1 1.6-2.1 1.4.6.1.8.1h.9l1 .1.9.1h1 .9l.8-.1 1.5-1.1 1.6-1.2 1.5-1.3 1.4-1.2 1.4-1.3 1.3-1.2 1.3-1.2 1.4-1.2 1.4-1 1.3-1 1.4-.9 1.5-.8 1.5-.6 1.6-.5 1.6-.3z" fill="url(#ar)"/><path d="m173.5 33-2.4-.6-2.3-.2-2.2.1-2 .4-1.9.7-1.9.9-1.8 1.1-1.7 1.2-1.7 1.4-1.7 1.4-1.7 1.5-1.6 1.6-1.7 1.4-1.7 1.5-1.8 1.2-1.8 1.3h.6l.7.1.9.2h.9l.8.1.8.2h.6l.3.1h1.1l1-.3 1.1-.6 1.2-.7 1.2-.9 1.2-1.1 1.4-1.3 1.4-1.3 1.4-1.3 1.6-1.4 1.7-1.3 1.7-1.3 2-1.2 1.9-1.2 2.1-.9z" fill="url(#as)"/><path d="m180.8 35-2.1-1.2-2.3-.5h-2.2l-2.3.5-2.2.8-2.3 1.3-2.2 1.4-2.2 1.6-2 1.7-2 1.8-1.9 1.6-1.8 1.5-1.5 1.3-1.5 1-1.3.6-1.1.2 1 .1.9.2 1.2.1 1.1.2 1.2.1 1.1.2 1.2.1h.9l1.7-1.2 1.4-1.2 1.4-1.1 1.2-1.2 1.2-1.1 1.1-1.1 1.2-1 1.1-1 1.1-.9 1.2-.9 1.3-.8 1.4-.8 1.5-.7 1.6-.6 1.9-.5z" fill="url(#at)"/><g transform="translate(19)"><path d="m20.7 11.1-.2-.5-.3-.7-.2-.6-.2-.7-.2-.7-.1-.7-.1-.7-.1-.8-.1-.7v-.7-.8-.7l.1-.7.1-.7.2-.7.2-.6-1 1.2-.7 1.3-.5 1.3-.3 1.4-.1 1.4v1.4l.2 1.4.3 1.4.3 1.3.5 1.4.5 1.3.5 1.4.6 1.2.5 1.3.6 1.2.5 1.2-.1-.3-.1-.4v-.4-.5l-.1-.7v-.6-.7-.7l-.1-.8v-.8-.8l-.1-.7v-.7l-.2-.7-.1-.7z" fill="url(#av)"/><path d="m3 35.3 1.1-.6 1.1-.7 1.1-.7 1-.6 1-.6 1-.6.9-.6 1-.6.9-.6 1-.6.9-.7 1-.5.9-.6 1-.5 1.1-.6 1-.6-.9.9-.9 1-1 .9-.9.9-1 .9-1 .8-1 .8-1 .8-1 .7-1.1.6-1 .5-1 .4-1 .4-1.1.1-1 .1z" fill="url(#aw)"/><path d="m11.7 12 .8.5.7.5.8.5.7.6.7.5.6.6.7.6.6.6.6.6.6.7.6.6.5.7.6.6.5.7.5.7.5.7-.2-.7-.3-.8-.3-.8-.3-.8-.4-.8-.4-.8-.4-.7-.6-.8-.5-.7-.8-.6-.7-.6-.8-.5-1-.4-.9-.3-1.2-.3z" fill="url(#ax)"/><path d="m20.3 5 .3 1.2.1 1.2.3 1.1.2 1.1.1 1.1.1 1 .2 1.1.1 1 .2 1.1.1 1 .1 1 .2 1.1.2 1 .2 1.1.2 1 .2 1.1.2-1.3.1-1.2.2-1.3.1-1.3v-1.2l.1-1.2-.1-1.2v-1.2l-.2-1.2-.1-1-.3-1.1-.4-.9-.4-.9-.6-.8-.6-.7z" fill="url(#ay)"/><path d="m14.1 3.1-1 1-.7 1.1-.3 1.2v1.2l.2 1.2.5 1.3.6 1.3.8 1.3.8 1.2 1 1.2 1 1.2 1 1 .9 1.1.8.8.7.9.6.6-.1-1.8-.3-1.5-.3-1.3-.4-1.1-.5-1-.6-.9-.6-.8-.6-.8-.6-.7-.6-.8-.6-.8-.5-.9-.4-1.1-.4-1.1-.3-1.4z" fill="url(#az)"/><path d="m21.6 21.7v-1.2-1.1l.1-1.2v-1.2l.1-1.1.1-1.1.1-1.1.1-1 .2-1.1.2-1.1.3-1.1.2-1 .3-1 .4-1.1.4-1 .4-1.1-1.7 1.6-1.4 1.6-.9 1.5-.7 1.4-.5 1.3-.2 1.2-.1 1.3.1 1.1.3 1 .3 1 .4.9.4.8.4.9.3.7.3.7z" fill="url(#aA)"/><path d="m4.5 25.8.9.1 1 .2.9.1.9.2h1l.9.1h.9.9l.9-.1h.9l.9-.1.9-.1h1l.8-.1 1-.2.8-.1-.7.4-.8.3-.8.3-.8.3-.9.3-.9.2-.9.3-.9.1h-1-.9-1l-1-.2-1-.3-1-.4-1-.6z" fill="url(#aB)"/><path d="m9.9 30.5-.7.1-.6.1-.7.2-.7.2-.7.3-.7.2-.6.3-.7.3-.7.4-.6.4-.6.4-.6.4-.5.5-.5.4-.4.5-.5.5.5-1.4.6-1.2.7-1 1-1 1-.8 1.2-.8 1.3-.6 1.3-.6 1.4-.4 1.4-.5 1.5-.4 1.4-.3 1.5-.3 1.4-.3 1.3-.2 1.2-.3-.6.2-.9.5-1 .7-1.3.7-1.3.9-1.3.7-1.3.7z" fill="url(#aC)"/><path d="m7.3 40.9-.6-1.3-.1-1.3.1-1.3.5-1.2.7-1.1.9-1.1 1.1-1 1.3-.9 1.2-1 1.4-.8 1.4-.8 1.3-.7 1.2-.7 1.2-.5 1-.6.7-.4-.8 1.7-.8 1.4-.9 1.1-.8 1-.8.7-.9.7-.9.5-.9.6-.8.5-.9.6-.9.6-.8.7-.8.8-.8 1.1-.8 1.2z" fill="url(#aD)"/><path d="m21.9 26.6-.6 1-.7 1-.6.9-.6 1-.5.9-.5 1-.5.9-.5 1-.5 1-.4 1-.4.9-.3 1-.3 1-.3 1-.3 1.1-.2 1.1-.6-2.2-.3-2v-1.7l.2-1.5.3-1.3.5-1.2.7-1 .7-.8.8-.7.8-.7.9-.5.8-.5.7-.4.7-.4.6-.5z" fill="url(#aE)"/></g></g></g></svg>