<svg height="313" preserveAspectRatio="xMidYMid" viewBox="0 0 256 313" width="256" xmlns="http://www.w3.org/2000/svg"><path d="m76.3791 312.096902v-54.048l-67.372-34.828c-5.532-2.86-9.007-8.568-9.007-14.796v-111.549l114.324 61.664c7.291 3.933 16.072 3.939 23.368.015l118.308-63.621v111.609c0 4.618-2.522 8.867-6.575 11.08zm59.4849-171.281 120.136-64.006v-4.8c0-3.816-2.111-7.32-5.484-9.104l-114.839-60.72900004c-5.509-2.913-12.105-2.902-17.604.03l-112.659 60.68300004c-3.335 1.796-5.414 5.278-5.414 9.066v6.796l116.15 62.053c6.158 3.29 13.552 3.294 19.714.011z" fill="#ea6f21"/></svg>