<svg height="259" preserveAspectRatio="xMidYMid" viewBox="0 0 256 259" width="256" xmlns="http://www.w3.org/2000/svg" xmlns:xlink="http://www.w3.org/1999/xlink"><linearGradient id="a" x1="100.011588%" x2="0%" y1="49.990506%" y2="49.990506%"><stop offset="0" stop-color="#37bda6"/><stop offset="1" stop-color="#8ad3b8"/></linearGradient><linearGradient id="b" x1="100.011588%" x2="0%" y1="49.998094%" y2="49.998094%"><stop offset=".5" stop-color="#4bb6ad"/><stop offset="1" stop-color="#78bbc1"/></linearGradient><linearGradient id="c" x1="-.018438%" x2="100.023183%" y1="49.998094%" y2="49.998094%"><stop offset="0" stop-color="#4379a7"/><stop offset="1" stop-color="#7cc9b8"/></linearGradient><path d="m127.693413 36.8670659v73.5808381l63.846707-36.8670657v-73.5808383z" fill="#13a049" opacity=".5"/><path d="m127.693413 36.8670659-63.8467064-36.8670659v73.7341317l63.8467064 36.8670663z" fill="#a2cc39" opacity=".5"/><path d="m191.54012 0-63.846707 36.8670659-63.8467064-36.8670659-63.8467066 36.8670659 127.693413 73.7341321 127.616767-73.7341321z" fill="url(#a)" opacity=".9"/><path d="m127.693413 110.601198-127.693413-73.7341321v73.7341321l63.8467066 36.867065v73.657486l63.8467064 36.867065 63.846707-36.867065v-73.657486l63.77006-36.867065v-73.7341321z" fill="url(#b)"/><path d="m127.693413 110.601198v147.391616l63.846707-36.867065v-73.657486l63.77006-36.867065v-73.7341321z" fill="url(#c)"/><g fill="#231f20"><path d="m127.693413 184.258683v73.734131l63.846707-36.867065z" opacity=".05"/><path d="m127.693413 258.146108v-73.734132l-63.8467064 36.867066z" opacity=".1"/><path d="m63.8467066 73.7341317-63.8467066 36.8670663 63.8467066 36.867065 63.8467064-36.867065z" opacity=".05"/><path d="m191.54012 73.7341317-63.846707 36.8670663 63.846707 36.867065 63.77006-36.867065z" opacity=".05"/></g></svg>