<svg height="188" preserveAspectRatio="xMidYMid" viewBox="0 0 256 188" width="256" xmlns="http://www.w3.org/2000/svg"><path d="m244.675204 104.605355c-7.450524-9.2386494-16.838183-15.348079-28.461001-18.0302676 3.576251-5.5133877 5.513388-11.6228172 5.513388-18.3282887 0-9.3876602-3.278231-17.4342259-9.983703-24.1396974-6.705471-6.7054715-14.752036-9.983702-24.139698-9.983702-8.493597 0-15.795109 2.6821886-22.05355 8.1955763-5.215366-12.8149011-13.559952-23.096624-25.18277-30.8451688-11.473807-7.59953439-24.139698-11.4738068-37.997672-11.4738068-18.9243307 0-35.0174622 6.70547148-48.2793947 19.967404-13.2619325 13.2619325-19.967404 29.355064-19.967404 48.2793947 0 1.1920838.1490105 3.12922.298021 5.6623982-10.4307334 4.9173456-18.7753202 12.218859-25.03376023 22.0535506-6.25844004 9.6856815-9.38766007 20.4144355-9.38766007 31.8882425 0 16.391153 5.81140862 30.547148 17.5832364 42.169965 11.6228172 11.622817 25.7788125 17.583235 42.169965 17.583235h144.9871956c14.155995 0 26.225843-5.066355 36.209545-15.050057 9.983701-9.983702 15.050058-22.053551 15.050058-36.209546-.149011-11.771828-3.874272-22.351572-11.324796-31.739232zm-43.958091 82.998835h-21.159487l-7.152504-22.35157h-41.275902l-7.152503 22.35157h-21.159488l38.146683-106.3934799h21.606519zm-64.223515-39.338766h30.547147l-15.199068-47.981373z" fill="#00a4d3"/></svg>