<svg height="257" preserveAspectRatio="xMidYMid" viewBox="0 0 256 257" width="256" xmlns="http://www.w3.org/2000/svg"><path d="m201.685002 25.373279c-30.782846-26.57400003-98.894507-39.737-149.9372524-1.586-47.8847614 32.099-50.2527496 90.771-50.2527496 90.771 8.15595936 32.099 40.5177981 62.883 102.873487 47.886-7.3669629-43.15 7.071965-152.331 97.316515-137.071z" fill="#00acd2"/><path d="m169.62 129.732998c-33.685 27.955-136.218 70.612-168.125-15.173-7.622 39.946 13.529 106.431 72.089 131.56 51.742 25.42 105.664-4.02 105.664-4.02 23.72-23.113 34.538-65.864-9.628-112.367" fill="#c8e9eb"/><path d="m108.779 90.5238771c41.052 15.1949999 128.807 81.0509999 70.469 151.5759999 38.405-13.373 83.44-64.539 75.922-127.818-3.856-57.5199999-53.484-88.9069999-53.484-88.9069999-31.876-8.986-74.717 3.649-92.907 65.149" fill="#662d91"/></svg>