<svg height="315" preserveAspectRatio="xMidYMid" viewBox="0 0 256 315" width="256" xmlns="http://www.w3.org/2000/svg"><path d="m213.803394 167.030943c.441806 47.578703 41.739088 63.411696 42.196606 63.613784-.349188 1.11663-6.598617 22.563566-21.75737 44.716719-13.104075 19.152523-26.704377 38.234887-48.128871 38.630099-21.051708.387897-27.821007-12.483717-51.889069-12.483717-24.060792 0-31.581791 12.088473-51.5095774 12.871614-20.6800719.782568-36.4277295-20.710917-49.6407047-39.79328-26.99911473-39.033618-47.6320248-110.299834-19.9272419-158.405692 13.7631451-23.8895647 38.3589257-39.0174344 65.0554465-39.4053604 20.307302-.387364 39.4749815 13.6620755 51.8890925 13.6620755 12.40624 0 35.69905-16.8956822 60.185922-14.4143377 10.251041.4266581 39.025882 4.1408404 57.502998 31.1865416-1.4888.922944-34.334275 20.044016-33.977231 59.821599m-39.564252-116.8322847c10.979189-13.2898714 18.368816-31.7906014 16.352846-50.1987033-15.825676.63605023-34.962474 10.5457909-46.313879 23.8283506-10.173039 11.7623252-19.082334 30.5886769-16.678452 48.6324426 17.639574 1.3647501 35.659756-8.963767 46.639485-22.2620683"/></svg>