<svg height="327" preserveAspectRatio="xMidYMid" viewBox="0 0 256 327" width="256" xmlns="http://www.w3.org/2000/svg"><path d="m88.7 326.4 67.4-10.4-91.9-76s-47.8 6.3-55.5 7.9c-14.1 3-5.5 8.4-5.5 8.4z" fill="#231f20" opacity=".2"/><g transform="translate(57 207)"><path d="m3.6 3 .1.1-3.1 2.7v84.5l1.9 5.1 29.5 23.8 1.1-2.2v-89.3l-1.1-1.7z" fill="#178faa"/><path d="m198.6 90v-85.3l-2.9-2.9.6-.9-164.3 25v93.3l163.8-25z" fill="#22a9cd"/><path d="m.5 90.2 2 5.3 29.5 23.7v-3.7z" opacity=".15"/><path d="m198.5 90.2-166.5 25.3v3.7l163.8-25z" opacity=".15"/></g><g transform="translate(57 116)"><path d="m.6.7v.3l2.8 4.1-2.8 2.5v82.6l3.1 3.9-.4.4 28.8 23.2 1.5-1.6v-87.7l-1.5-2.2z" fill="#d8aa29"/><path d="m198.6 88.8v-82.6l-2.9-2.9 1.6-2.3-165.3 25.1v91.6l163.7-24.9z" fill="#ffcd18"/><path d="m.6 88.7v1.5l3.2 4-.5.4 28.8 23.2v-3.7z" opacity=".12"/></g><g transform="translate(57)"><path d="m.5 27.1 166.6-25.4 31.5 25.4-2.3 2-164.5 25.2-29.3-23.5z" fill="#3cd6a3"/><path d="m111.6 10.2 32.9-5.1 13.8 11.3-32.9 5.1z" fill="#35b48c"/><path d="m24.3 23.5 32.9-5.1 13.8 11.3-32.9 5.1z" fill="#35b48c"/><path d="m123.9 19.5c0 2.9 7.7 5.3 17.3 5.3s17.3-2.4 17.3-5.3v-13.5h-34.6z" fill="#219972"/><path d="m123.9 5.9c0 2.9 7.7 5.3 17.3 5.3s17.3-2.4 17.3-5.3-7.7-5.3-17.3-5.3c-9.5.1-17.3 2.4-17.3 5.3" fill="#3cd6a3"/><path d="m36.9 32.9c0 2.9 7.7 5.3 17.3 5.3s17.3-2.4 17.3-5.3v-13.5h-34.6z" fill="#219972"/><path d="m36.9 19.3c0 2.9 7.7 5.3 17.3 5.3s17.3-2.4 17.3-5.3-7.7-5.3-17.3-5.3-17.3 2.4-17.3 5.3" fill="#3cd6a3"/><path d="m.6 27.2v89.8l2.7 3.9 28.8 23.2 1-2.2v-87.8l-1-1.6z" fill="#219972"/><path d="m198.6 115.1v-88l-166.6 25.4v91.6l163.7-24.9z" fill="#35b48c"/><path d="m.5 115.1v1.9l2.8 4 28.7 23.1v-3.7z" opacity=".15"/></g><path d="m216.4 246.5c-22.3 3.4-76.2 11.6-85.1 13-11.3 1.7-11.1-10.6-11.1-10.6v-152s-.7-8.4 7.7-9.7c24.9-3.8 87.2-13.3 91.8-14 5.9-.9 6.4 5.1 6.4 5.1v156.4c0 .1.1 10.3-9.7 11.8zm-106.5 45.4c.2 3.5 1.8 12.5 12.9 10.8 4.3-.6 25.5-3.9 51-7.8 25.1-3.8 45.6-6.9 49.8-7.6 11-1.7 12.7-11.1 12.9-14.7v-199.2-7.6s-.8-14-12.9-12.1c-8.4 1.3-92.4 14.1-100.8 15.4-13.7 2.1-12.9 16-12.9 16v7.6 198.4.2z" fill="#fff" opacity=".8"/><path d="m255.6 204.8-166.6 25.3v3.7l163.7-24.9z" opacity=".12"/><path d="m255.6 115.1-166.6 25.3v3.7l163.7-24.9z" opacity=".1"/><path d="m164.6 273.8c0 5.1 3.8 8.7 8.5 8s8.5-5.4 8.5-10.6c0-5.1-3.8-8.7-8.5-8s-8.5 5.4-8.5 10.6" fill="#34b1de"/></svg>