<svg height="174" preserveAspectRatio="xMidYMid" viewBox="0 0 256 174" width="256" xmlns="http://www.w3.org/2000/svg"><g fill="#00979c"><path d="m14.044 130.399-13.125 42.843h10.328l2.369-7.983h12.803l2.305 7.983h11.231l-13.124-42.843zm2.166 26.242 3.899-13.325 3.855 13.325z"/><path d="m64.632 153.696c-.155-.166-.313-.323-.474-.47.323-.122.638-.252.946-.394 1.25-.574 2.345-1.343 3.255-2.28.92-.946 1.643-2.086 2.148-3.389.5-1.287.754-2.766.754-4.393 0-2.243-.405-4.183-1.201-5.768-.805-1.603-1.97-2.923-3.461-3.924-1.447-.97-3.207-1.671-5.232-2.082-1.946-.395-4.138-.597-6.513-.597h-13.398v42.843h10.275v-16.74h.305c1.124 0 2.061.247 2.864.757.797.505 1.408 1.25 1.871 2.282l6.21 13.701h11.955l-7.545-15.283c-.914-1.856-1.817-3.249-2.759-4.263zm-4.469-8.219c-.297.566-.709 1.03-1.26 1.418-.581.408-1.302.721-2.146.931-.891.223-1.908.335-3.024.335h-2.002v-9.019h2.258c2.352 0 4.1.369 5.195 1.098.954.635 1.418 1.705 1.418 3.273 0 .758-.144 1.401-.439 1.964z"/><path d="m105.04 135.487c-1.73-1.739-3.912-3.041-6.485-3.868-2.508-.809-5.46-1.22-8.773-1.22h-13.589v42.843h11.829c3.817 0 7.156-.52 9.923-1.545 2.81-1.039 5.157-2.547 6.974-4.481 1.814-1.93 3.166-4.288 4.016-7.007.834-2.662 1.256-5.656 1.256-8.899 0-3.535-.423-6.636-1.259-9.217-.854-2.644-2.163-4.866-3.892-6.606zm-8.401 26.037c-1.784 1.982-4.372 2.945-7.912 2.945h-2.26v-25.297h2.803c1.981 0 3.644.28 4.941.833 1.258.535 2.231 1.291 2.975 2.309.76 1.044 1.311 2.354 1.637 3.891.343 1.626.518 3.51.518 5.6 0 4.458-.909 7.728-2.702 9.719z"/><path d="m134.942 157.654c0 1.477-.136 2.736-.407 3.742-.252.939-.623 1.706-1.105 2.279-.462.551-1.027.94-1.726 1.189-.761.272-1.734.409-2.894.409-1.227 0-2.239-.157-3.008-.468-.739-.3-1.333-.729-1.817-1.31-.486-.585-.834-1.319-1.035-2.185-.224-.956-.337-2.081-.337-3.347v-27.564h-10.274v28.028c0 2.316.287 4.442.851 6.318.587 1.949 1.555 3.634 2.878 5.005 1.323 1.37 3.055 2.43 5.148 3.147 2.034.701 4.492 1.056 7.305 1.056 2.515 0 4.823-.355 6.857-1.056 2.08-.713 3.873-1.794 5.33-3.214 1.458-1.422 2.589-3.212 3.362-5.32.76-2.07 1.146-4.494 1.146-7.205v-26.759h-10.274z"/><path d="m150.47 139.018h9.22v25.544h-9.22v8.68h28.843v-8.68h-9.22v-25.544h9.22v-8.619h-28.843z"/><path d="m207.905 154.811-11.486-24.412h-11.629v42.843h9.569v-24.876l11.547 24.876h11.57v-42.843h-9.571z"/><path d="m250.738 135.468c-3-3.815-7.497-5.749-13.364-5.749-2.51 0-4.904.445-7.116 1.322-2.243.889-4.225 2.273-5.892 4.117-1.652 1.828-2.964 4.179-3.897 6.986-.923 2.771-1.391 6.094-1.391 9.878 0 6.99 1.487 12.428 4.419 16.166 3 3.826 7.497 5.765 13.364 5.765 2.511 0 4.907-.445 7.119-1.322 2.244-.89 4.225-2.275 5.89-4.116 1.65-1.827 2.962-4.177 3.898-6.986.921-2.77 1.389-6.093 1.389-9.879 0-7.01-1.487-12.455-4.419-16.182zm-6.762 22.261c-.294 1.581-.753 2.914-1.364 3.963-.58.999-1.298 1.731-2.193 2.236-.892.503-2.003.758-3.301.758-2.568 0-4.358-.956-5.472-2.921-1.224-2.159-1.845-5.561-1.845-10.115 0-2.138.154-4.059.46-5.706.294-1.578.756-2.909 1.376-3.958.59-1.003 1.31-1.737 2.201-2.244.879-.501 1.982-.755 3.28-.755 2.588 0 4.383.954 5.486 2.916 1.215 2.16 1.831 5.565 1.831 10.119 0 2.144-.154 4.064-.459 5.707z"/><path d="m240.315 5.74h1.823v4.793h1.293v-4.793h1.838v-1.19h-4.954z"/><path d="m249.768 4.55-1.247 4.078-1.29-4.078h-1.687v5.983h1.216v-3.822l1.206 3.822h1.11l1.144-3.723v3.723h1.21v-5.983z"/><path d="m190.275 120.327c-16.288 0-30.214-5.492-42.47-16.725-7.571-6.937-13.813-15.436-19.556-24.273-5.742 8.837-11.985 17.336-19.555 24.273-13.169 12.069-28.267 17.511-46.149 16.634-34.101-.148-61.798-27.06-61.798-60.118 0-33.149 27.849-60.118 62.08-60.118 18.732 0 34.503 6.199 48.21 18.95 6.584 6.125 12.142 13.23 17.212 20.664 5.07-7.434 10.629-14.539 17.212-20.664 13.707-12.751 29.478-18.95 48.21-18.95 34.232 0 62.08 26.969 62.08 60.118 0 33.058-27.696 59.97-61.798 60.118-1.239.061-2.466.091-3.678.091zm-49.555-61.011c6.794 11.023 13.388 21.283 21.42 28.643 9.066 8.309 18.622 11.727 30.975 11.074l.556-.015c22.531 0 40.862-17.45 40.862-38.9 0-21.449-18.331-38.9-40.862-38.9-13.301 0-24.028 4.216-33.758 13.267-7.267 6.761-13.267 15.423-19.193 24.831zm-77.893-38.098c-22.531 0-40.862 17.451-40.862 38.9 0 21.45 18.331 38.9 40.862 38.9l.557.015c12.354.653 21.908-2.765 30.974-11.074 8.032-7.36 14.627-17.62 21.42-28.643-5.926-9.408-11.926-18.07-19.192-24.831-9.731-9.051-20.458-13.267-33.759-13.267z"/><path d="m196.477 52.407v-11.506h-11.976v11.506h-11.505v11.918h11.505v11.591h11.976v-11.591h11.506v-11.918z"/><path d="m45.599 52.263h37.817v12.292h-37.817z"/></g></svg>