<svg height="308" preserveAspectRatio="xMidYMid" viewBox="0 0 256 308" width="256" xmlns="http://www.w3.org/2000/svg"><path d="m172.965 115.5429c-6.606-15.939-23.657-22.952-51.123-21.065-22.52-22.163-47.417-32.718-81.179 0-12.453-1.239-24.138-1.703-30.376 3.339l6.485 42.902 77.583 20.038z" fill="#5bc5df"/><path d="m248.4923 132.7553c-7.407-8.812-21.8-11.028-38.792-10.79-23.634-30.057-62.977-24.088-81.949 1.285-25.104-7.062-43.216-4.094-52.664 11.303l43.158 23.377 53.178 16.955 60.614 8.078z" fill="#3189aa"/><path d="m22.7209 77.4453 44.745-19.378v-22.607l60.302-14.344 61.296 14.371v22.497l45.179 20.174c1.316 11.022 3.225 38.672-4.806 72.026-1.149 4.769-2.456 9.471-3.92 14.101-17.844-8.442-35.052-6.155-51.781 4.179-16.447-12.29-34.107-18.949-53.949-15.5-26.19-31.717-58.896-40.955-98.112-27.735-2.372-22.349-.299-39.796 1.046-47.784m230.962-8.312-1.013-5.255-43.054-19.225v-25.457l-81.882-19.196-80.82 19.223v25.347l-41.944 18.166-1.242 4.897c-.373 1.472-9.023 36.602 1.374 83.447 6.091 27.44 17.481 53.287 33.858 76.821 20.33 29.217 48.403 54.867 83.44 76.241l5.174 3.157 5.265-3c34.014-19.385 61.561-43.779 81.877-72.504 16.31-23.061 27.984-48.9 34.702-76.799 11.432-47.481 4.564-84.318 4.265-85.863" fill="#136a8f"/><path d="m128.0002 0-.427 307.299c159.967-87.97 125.097-243.421 125.097-243.421l-43.055-19.224v-25.458z" fill-opacity=".15"/></svg>