<svg height="169" preserveAspectRatio="xMidYMid" viewBox="0 0 256 169" width="256" xmlns="http://www.w3.org/2000/svg" xmlns:xlink="http://www.w3.org/1999/xlink"><radialGradient id="a" cx="50%" cy="54.652196%" r="66.263334%"><stop offset="0" stop-color="#ffb900"/><stop offset=".6" stop-color="#f95d8f"/><stop offset=".9991" stop-color="#f95353"/></radialGradient><path d="m24.0405804 159.63112c-8.4361447 0-15.27494743-6.989102-15.27494743-15.612481 0-8.621916 6.83880273-15.612115 15.27494743-15.612115 8.4365103 0 15.2738503 6.990199 15.2738503 15.612115 0 8.623379-6.83734 15.612481-15.2738503 15.612481zm15.322853 1.980587c0 1.429123 2.4494038 5.445517 5.451368 5.445517h1.9443834c.7536908 0 1.3706129-.617654 1.3706129-1.370979v-42.723776h-.0080452c-.039129-.719315-.634841-1.296011-1.3625677-1.296011h-6.0244071c-.7284581 0-1.3234387.576696-1.3643962 1.296011h-.0069481v3.471879c-3.6912933-4.546647-9.5105472-6.432885-15.346623-6.432885-13.2647395 0-24.0168104 10.752071-24.0168104 24.017176s10.7520709 24.019004 24.0168104 24.019004c5.8360758 0 12.1958223-2.263998 15.3458916-6.432153zm23.1592631-6.118756c4.0215129 2.785109 8.4112776 4.138169 12.629167 4.138169 4.0193188 0 8.1735779-2.083712 8.1735779-5.709181 0-4.841394-9.0530667-5.595085-14.7406716-7.527766-5.6890677-1.933047-10.5893381-5.930059-10.5893381-12.401707 0-9.902203 8.823778-13.992466 17.0587921-13.992466 5.2184223 0 10.6021373 1.720946 14.0926657 4.186074 1.2027605.910207.469914 1.956452.469914 1.956452l-3.3318181 4.758747c-.3744685.535739-1.1508322.963964-1.9688848.418352-2.2446164-1.483612-4.7448514-2.913467-9.2618768-2.913467-5.5914279 0-8.0510711 2.321046-8.0510711 5.196481 0 3.449571 3.9337469 4.534213 8.5414638 5.710277 8.0302268 2.163433 16.7889116 4.765696 16.7889116 14.609023 0 8.724676-8.1615101 14.117167-17.1816646 14.117167-6.8347801 0-12.6547655-1.949137-17.5356542-5.530723-1.0162576-1.017355-.3064498-1.962302-.3064498-1.962302l3.3157278-4.733881c.6743357-.886071 1.5249349-.576696 1.8972092-.319249zm74.9898625 6.118756c0 1.429123 2.449403 5.445517 5.451368 5.445517h1.943652c.754422 0 1.37171-.617654 1.37171-1.370979v-42.723776h-.008046c-.040226-.719315-.635206-1.296011-1.363664-1.296011h-6.024042c-.728824 0-1.323804.576696-1.363665 1.296011h-.007313v3.471879c-3.690928-4.546647-9.510913-6.432885-15.345526-6.432885-13.265106 0-24.0186393 10.752071-24.0186393 24.017176s10.7535333 24.019004 24.0186393 24.019004c5.834613 0 12.194725-2.263998 15.344794-6.432153zm-15.322854-1.980587c-8.43651 0-15.274947-6.989102-15.274947-15.612481 0-8.621916 6.838437-15.612115 15.274947-15.612115 8.435779 0 15.274217 6.990199 15.274217 15.612115 0 8.623379-6.838438 15.612481-15.274217 15.612481zm78.063502 3.448839-.00256-22.106802h.000732c0-12.462411-7.862374-20.869301-20.400118-20.869301-5.984181 0-10.880795 3.460542-12.613443 6.432885v-.041323l-.010239.034009c-.003657-3.008546-2.443553-4.76021-5.451368-4.76021h-1.934144c-.754788 0-1.371344.617654-1.371344 1.37171v38.577562.006582 4.142191h.008045c.038763.719316.635206 1.296744 1.363299 1.296744h6.024041c.092155 0 .182846-.010971.270612-.027427.040226-.008411.07643-.024136.115193-.035472.045712-.013165.092154-.024136.134209-.042055.054488-.021941.102759-.052294.152859-.080086.024136-.014628.0501-.025233.07387-.039861.058876-.039129.114827-.085937.168218-.133843.008777-.009142.019382-.014993.027793-.023404.060339-.057414.114461-.120313.163098-.1876l.000732-.000732c.150665-.207347.242088-.456383.257081-.726264h.008045v-25.237124c0-6.693257 5.426135-12.119392 12.119759-12.119392 6.693623 0 12.120124 5.426135 12.120124 12.119392l.004754 21.095665.001828-.007314c0 .018284.003291.038032.003291.057413v4.09136h.008046c.03986.719316.634841 1.296744 1.363664 1.296744h6.024042c.092885 0 .182114-.010971.26988-.027427.035838-.008045.06875-.022307.10276-.030718.050465-.014628.100931-.027427.148105-.046809.048637-.020844.093983-.048637.14006-.074601.028524-.015725.058511-.027793.085572-.045346.056682-.037666.107147-.081549.157247-.124701.012799-.011336.027061-.02121.039129-.032912.057414-.054854.107148-.114462.154322-.176629.002926-.005486.006948-.009142.010971-.013531.148471-.205153.238797-.452361.254887-.720413 0-.001462.000732-.003657.000732-.003657h.006948v-2.786206zm46.98116-1.468252c0 1.429123 2.446478 5.445517 5.448808 5.445517h1.945481c.753325 0 1.371344-.617654 1.371344-1.370979v-42.723776h-.007314c-.040226-.719315-.636304-1.296011-1.36403-1.296011h-6.022945c-.731383 0-1.323804.576696-1.36403 1.296011h-.007314v3.471879c-3.693487-4.546647-9.511644-6.432885-15.348086-6.432885-13.263642 0-24.017176 10.752071-24.017176 24.017176s10.753534 24.019004 24.017176 24.019004c5.836442 0 12.195823-2.263998 15.344429-6.432153zm-15.322487-1.980587c-8.436511 0-15.274948-6.989102-15.274948-15.612481 0-8.621916 6.838437-15.612115 15.274948-15.612115 8.432853 0 15.27129 6.990199 15.27129 15.612115 0 8.623379-6.838437 15.612481-15.27129 15.612481z" fill="#283343"/><path d="m155.732542 47.3578088c-11.625541 0-21.04824 9.4230642-21.04824 21.0475093 0 11.6251755 9.422699 21.0489701 21.04824 21.0489701 11.62408 0 21.047509-9.4237946 21.047509-21.0489701 0-11.6244451-9.423429-21.0475093-21.047509-21.0475093zm-54.684668.0014608c-11.6240794 0-21.047874 9.4216034-21.047874 21.0471441 0 11.6240799 9.4237946 21.0478745 21.047874 21.0478745 11.624811 0 21.048971-9.4237946 21.048971-21.0478745 0-11.6255407-9.42416-21.0471441-21.048971-21.0471441zm48.389478-26.3117603c0 11.6244451-9.422699 21.0497004-21.046779 21.0497004-11.625175 0-21.048239-9.4252553-21.048239-21.0497004 0-11.62371472 9.423064-21.0475093 21.048239-21.0475093 11.62408 0 21.046779 9.42379458 21.046779 21.0475093z" fill="url(#a)"/></svg>