<svg height="237" preserveAspectRatio="xMidYMid" viewBox="0 0 256 237" width="256" xmlns="http://www.w3.org/2000/svg"><path d="m87.5 24.125-81.28 141.272c-12.841 22.568 72.253 62.534 80.876 47.379l80.652-141.744z" fill="#4985ff"/><path d="m87.714 71.032 80.652 141.744c8.626 15.157 93.718-24.811 80.875-47.379l-80.652-141.744c-8.623-15.157-93.715 24.811-80.875 47.379" fill="#8efaff"/><path d="m46.693 142.179c-25.681 0-25.681 94.758 0 94.758h161.304c25.681 0 25.681-94.758 0-94.758z" fill="#fc436f"/><path d="m128.753 142.179 40.173 70.873c.133.23.165.284.195.338 8.74 14.984 24.365 23.314 40.377 23.314 7.906 0 15.909-2.033 23.213-6.312 14.935-8.75 23.289-24.757 23.289-41.163 0-.229 0-.455-.004-.683-.004-.211-.009-.424-.013-.635-.004-.117-.008-.233-.013-.349-.006-.181-.012-.353-.021-.524-.042-.846-.115-1.69-.199-2.536-2.378-22.477-20.407-40.382-42.729-42.176-.346-.026-3.668-.147-3.693-.147z" fill="#fa2b61"/><path d="m46.672 142.179c-.373.002-3.346.121-3.55.136-22.464 1.805-40.494 19.71-42.871 42.187-.146 1.345-.227 2.694-.246 4.044-.236 16.643 8.141 32.976 23.285 41.846 7.494 4.327 15.4 6.31 23.209 6.312 16.177-.004 31.952-8.5 40.576-23.652l40.249-70.741z" fill="#4275f4"/><path d="m104.806 6.303c-22.241 13.03-29.932 42.153-17.092 64.72l40.307 70.838 40.384-70.905c12-21.088 6.065-47.898-12.911-61.954-1.076-.799-2.186-1.546-3.33-2.238-7.299-4.419-15.685-6.764-24.175-6.764-7.897 0-15.886 2.029-23.183 6.303" fill="#83e7ff"/></svg>