<svg height="286" preserveAspectRatio="xMidYMid" viewBox="0 0 256 286" width="256" xmlns="http://www.w3.org/2000/svg" xmlns:xlink="http://www.w3.org/1999/xlink"><linearGradient id="a" x1="0%" x2="100%" y1="50%" y2="50%"><stop offset="0" stop-color="#52f2c9"/><stop offset=".0987647947" stop-color="#52f2c9"/><stop offset="1" stop-color="#8573e2"/></linearGradient><path d="m22.37 285.191864c-3.854 0-7.706-1.016-11.214-3.048-6.985-4.048-11.156-11.285-11.156-19.358v-240.8779997c0-7.887 4.073-14.95999995 10.895-18.91899995 6.822-3.96 14.983-3.986 21.832-.072l155.474 88.84699995c3.833 2.191 5.164 7.074 2.974 10.9069997-2.191 3.833-7.07 5.166-10.907 2.974l-155.473-88.8469997c-2.658-1.518-4.994-.493-5.876.019-.881.512-2.931 2.032-2.931 5.091v240.8779997c0 3.321 2.226 4.969 3.183 5.523.957.555 3.494 1.668 6.375.015l200.493-114.952h-23.111c-4.415 0-7.994-3.58-7.994-7.995v-5.329h-9.992v18.153c0 4.415-3.58 7.994-7.994 7.994h-25.314c-4.414 0-7.994-3.579-7.994-7.994v-33.308h-10.242v56.373c0 4.415-3.579 7.994-7.994 7.994h-26.23c-4.414 0-7.994-3.579-7.994-7.994v-79.855h-9.825v108.583c0 4.415-3.58 7.994-7.995 7.994h-26.646c-4.415 0-7.994-3.579-7.994-7.994v-144.2229997h-3.331c-4.415 0-7.994-3.579-7.994-7.994s3.579-7.994 7.994-7.994h11.325c4.415 0 7.994 3.579 7.994 7.994v144.2239997h10.658v-108.5839997c0-4.415 3.579-7.994 7.994-7.994h25.814c4.415 0 7.994 3.579 7.994 7.994v79.8549997h10.242v-56.373c0-4.415 3.58-7.994 7.994-7.994h26.23c4.415 0 7.994 3.579 7.994 7.994v33.308h9.326v-18.153c0-4.415 3.579-7.994 7.994-7.994h25.98c4.415 0 7.994 3.579 7.994 7.994v5.329h34.144c5.02 0 9.261 3.26 10.552 8.111 1.292 4.851-.767 9.788-5.123 12.284l-216.997 124.416c-3.487 1.999-7.308 2.998-11.128 2.998" fill="url(#a)"/></svg>