<svg height="289" preserveAspectRatio="xMidYMid" viewBox="0 0 256 289" width="256" xmlns="http://www.w3.org/2000/svg"><path d="m165.258 288.501h3.508l57.261-28.634.953-1.347v-228.556l-.953-1.354-57.261-28.61h-3.551z" fill="#5294cf"/><path d="m90.741 288.501h-3.557l-57.212-28.634-1.161-1.997-.589-226.742 1.75-2.518 57.212-28.61h3.601z" fill="#1f5b98"/><path d="m87.285 0h81.426v288.501h-81.426z" fill="#2d72b8"/><path d="m256 137.769-1.935-.429-27.628-2.576-.41.204-57.312-2.292h-81.43l-57.313 2.292v-43.704l-.06.032.06-.128 57.313-13.28h81.43l57.312 13.28 21.069 11.199v-7.2l8.904-.974-.922-1.798-28.192-20.159-.859.279-57.312-17.759h-81.43l-57.313 17.759v-43.905l-29.972 35.113v30.666l.232-.168 8.672.946v7.348l-8.904 4.765v30.513l.232-.024 8.672.128v12.807l-7.482.112-1.422-.136v30.525l8.904 4.788v7.433l-8.531.942-.373-.28v30.661l29.972 35.118v-43.901l57.313 17.759h81.43l57.481-17.811.764.335 27.821-19.862 1.219-1.979-8.904-.982v-7.284l-1.167-.466-19.043 10.265-.69 1.44-57.481 13.203v.016h-81.43v-.016l-57.313-13.259v-43.864l57.313 2.284v.056h81.43l57.312-2.34 1.305.6 26.779-2.306 1.889-.923-8.904-.128v-12.807z" fill="#1a476f"/><g fill="#2d72b8"><path d="m226.027 215.966v43.901l29.973-35.118v-30.461l-29.8 21.626z"/><path d="m226.027 197.421.173-.04 29.8-16.028v-30.649l-29.973 2.757z"/><path d="m226.2 91.208-.173-.04v43.8l29.973 2.801v-30.634z"/><path d="m226.2 72.687 29.8 21.506v-30.462l-29.973-35.121v43.905l.173.06z"/></g></svg>