<svg height="309" preserveAspectRatio="xMidYMid" viewBox="0 0 256 309" width="256" xmlns="http://www.w3.org/2000/svg"><path d="m255.197 158.817.803-4.307h-20.63l-35.39 102.835 20.163 5.442 1.825-2.319z" fill="#4b612c"/><g fill="#759c3e"><path d="m256 154.51v90.505l-35.942 17.982z"/><path d="m33.674 259.574-32.871-100.757-.803-4.307h19.919l35.689 102.948-19.743 5.329z"/><path d="m128.004 217.284-53.598-70.972-37.945-100.448 91.543 24.825 1.425 3.45.715 136.843z"/></g><path d="m128.004 217.284 55.466-72.848 36.073-98.572-91.539 24.825z" fill="#4b612c"/><path d="m256 100.74v-36.929l-36.457-17.947-91.539 171.42v91.418l67.713-33.854z" fill="#759c3e"/><path d="m128.004 154.51.358-.835.128-153.22-.486-.455-67.494 33.816z" fill="#4b612c"/><path d="m0 154.51v90.505l35.947 17.982z" fill="#4b612c"/><path d="m128.004 154.51v-154.51l67.49 33.816z" fill="#759c3e"/><path d="m0 100.74v-36.929l36.461-17.947 91.543 171.42v91.418l-67.713-33.854z" fill="#4b612c"/></svg>