<svg height="290" preserveAspectRatio="xMidYMid" viewBox="0 0 256 290" width="256" xmlns="http://www.w3.org/2000/svg"><path d="m256 199.305-127.957-18.797-128.043 18.821 128.01 47.439z" fill="#b7ca9d"/><path d="m25.621 197.113 21.63 6.761 1.971-2.238v-151.352l-1.971-2.585-21.63 8.274z" fill="#4b612c"/><path d="m123.832 190.423-76.581 13.451v-156.171l76.581 17.222z" fill="#759c3e"/><path d="m89.686 216.889-29.848-9.201v-192.76l29.848-14.924 2.612 2.845v210.858z" fill="#4b612c"/><path d="m191.967 192.894-102.281 23.995v-216.889l102.281 39.866z" fill="#759c3e"/><path d="m127.965 244.714-127.965-45.385v26.324l127.965 63.983z" fill="#4b612c"/><path d="m256 225.622-128.035 64.014v-44.922l128.035-45.409z" fill="#759c3e"/><path d="m220.039 155.692h-31.026l-88.445 6.026 27.432 5.057z" fill="#b7ca9d"/><path d="m100.568 219.906 27.42 8.226.789-.849-.023-61.849-.789-.758-27.397-2.958z" fill="#4b612c"/><path d="m220.039 155.692-92.074 8.98.023 63.46 92.051-27.711z" fill="#759c3e"/></svg>