<svg height="310" preserveAspectRatio="xMidYMid" viewBox="0 0 256 310" width="256" xmlns="http://www.w3.org/2000/svg"><g transform="translate(153 46)"><path d="m103 91.042-62.152 2.575-40.289-2.57 66.64-6.387z" fill="#634b1e"/><path d="m67.055 87.45 35.945 3.592v-72.406l-35.945-17.975-2.76 2.98v80.728z" fill="#d9a740"/><path d="m.559 18.594 66.496-17.997v86.853l-66.496 3.597z" fill="#886a2a"/></g><g transform="translate(0 46)"><path d="m0 91.042 62.152 2.575 40.289-2.57-66.45-7.117z" fill="#634b1e"/><path d="m35.945 87.45-35.945 3.485v-72.625l35.945-17.945 1.655 3.091v81.281z" fill="#886a2a"/><path d="m102.441 18.594-66.496-17.997v86.853l66.496 3.597z" fill="#d9a740"/></g><g transform="translate(153 171)"><path d="m103 3.486-62.152-2.576-40.289 2.571 66.35 6.707z" fill="#fad791"/><path d="m67.055 7.078 35.945-3.592v72.405l-35.945 17.975-1.888-4.111v-78.983z" fill="#d9a740"/><path d="m.559 75.934 66.496 17.997v-86.853l-66.496-3.597z" fill="#886a2a"/></g><g transform="translate(0 171)"><path d="m0 3.486 62.152-2.576 40.289 2.571-66.931 7.288z" fill="#fad791"/><path d="m35.945 7.078-35.945-3.592v72.405l35.945 17.975 2.179-3.24v-79.857z" fill="#886a2a"/><path d="m102.441 75.934-66.496 17.997v-86.853l66.496-3.597z" fill="#d9a740"/></g><g transform="translate(55)"><path d="m40.553 106.629 32.966-5.781 65.814 9.319 5.669 3.261-31.966 3.498z" fill="#634b1e"/><path d="m105.447 106.629-32.966-5.781-68.648 10.652-2.835 1.928 31.966 3.498z" fill="#634b1e"/><path d="m40.553 204.899 32.966 5.781 65.648-9.18 5.835-3.4-31.966-3.498z" fill="#fad791"/><path d="m105.447 204.899-32.966 5.781-69.148-9.847-2.335-2.733 31.966-3.498z" fill="#fad791"/><path d="m145.002 113.428v-35.787l-33.713-11.025v-46.84l-38.289-19.142v.001l-1.597 2.543-.291 302.588 1.888 3.891 38.289-19.142v-45.603l33.713-11.025v-35.787l-33.713 5.935v-96.542z" fill="#d9a740"/><path d="m34.711 19.776v46.84l-33.713 11.025v35.787l33.713-5.935v96.542l-33.713-5.935v35.787l33.713 11.025v45.603l38.289 19.142v-309.023z" fill="#886a2a"/></g></svg>