<svg height="308" preserveAspectRatio="xMidYMid" viewBox="0 0 256 308" width="256" xmlns="http://www.w3.org/2000/svg"><g transform="translate(165 48)"><path d="m1.01 79.465 59.2023978-6.3140856 30.6756022 6.3690856.111.068-56.558 3.374-33.484-3.442z" fill="#5e1f18"/><path d="m.958 79.521 59.204-4.625.407-.593.002-73.044-.407-.835-59.206 15.397z" fill="#8c3123"/><path d="m91 79.59-30.838-4.694.002-74.472 30.835 15.428z" fill="#e05243"/></g><g transform="translate(165 176)"><path d="m.958 4.115.865.606 58.349 3.959 29.772-3.959 1.055-.579-56.557-3.475z" fill="#f2b0a9"/><path d="m.958 4.115 59.214 4.405.183.246-.045 73.942-.146.386-59.206-15.275z" fill="#8c3123"/><path d="m90.999 4.142-30.827 4.378-.008 74.574 30.835-15.309z" fill="#e05243"/></g><g transform="translate(0 48)"><path d="m89.119 79.408-58.5303282-5.0138594-30.3936718 5.0448594-.193.151 56.557 3.374 32.874-3.376z" fill="#5e1f18"/><path d="m.002 79.59 30.557-4.474.899-.637v-73.2l-.899-.855-30.557 15.431z" fill="#8c3123"/><path d="m89.433 79.588-58.874-4.472v-74.692l58.877 15.397z" fill="#e05243"/></g><g transform="translate(0 176)"><path d="m89.433 4.142-1.351.985-57.523 4.313-29.583-4.313-.976-.985 56.559-3.475z" fill="#f2b0a9"/><path d="m0 4.142 30.558 4.34.777.952.083 72.333-.859 1.327-30.557-15.309z" fill="#8c3123"/><path d="m89.433 4.142-58.875 4.34.001 74.612 58.874-15.275z" fill="#e05243"/></g><g transform="translate(66 183)"><path d="m123.104 6.66-61.103-6.026-61.712 6.027.87.735 60.541 9.617 60.533-9.617z" fill="#f2b0a9"/><path d="m.289 6.661 61.411 8.998.623.833.079 106.959-.702 1.186-61.411-30.706z" fill="#8c3123"/><path d="m123.104 6.66-61.404 8.999v108.978l61.405-30.706z" fill="#e05243"/></g><g transform="translate(66)"><path d="m62.001 123.933-61.712-5.958.159-.091 61.2490009-9.501969 61.2219991 9.523969.186.069z" fill="#5e1f18"/><path d="m.289 117.975 61.411-8.949.294-.268-.136-108.593-.158-.165-61.411 30.709z" fill="#8c3123"/><path d="m123.105 117.975-61.405-8.949v-109.026l61.405 30.709z" fill="#e05243"/></g></svg>