<svg height="280" preserveAspectRatio="xMidYMid" viewBox="0 0 256 280" width="256" xmlns="http://www.w3.org/2000/svg" xmlns:xlink="http://www.w3.org/1999/xlink"><linearGradient id="a" x1="-2.58736%" x2="97.694663%" y1="59.83163%" y2="41.181022%"><stop offset="0" stop-color="#f7962f" stop-opacity=".96"/><stop offset=".3563" stop-color="#d64626" stop-opacity=".96"/><stop offset=".4519" stop-color="#d04730" stop-opacity=".9659"/><stop offset=".6116" stop-color="#bf4949" stop-opacity=".9759"/><stop offset=".8144" stop-color="#a44c73" stop-opacity=".9885"/><stop offset="1" stop-color="#87509f"/></linearGradient><path d="m170.422148 31.5703265 46.789973 26.7779462v20.0032425l11.636364 6.2836363v59.1903035l-11.636364 6.283636v21.333333l19.39394 10.472728 19.393939-10.860607v-20.945454l-19.393939-10.472727v-50.8121216l19.393939-10.860606v-20.5575758l-19.393939-10.8606061-12.554161 6.7792469-53.385233-30.55242v-11.9116753l-17.454546-10.8606061-17.454545 10.4727273v21.3333333l17.454545 10.4727273z" fill="#ad688a"/><path d="m23.2727273 86.729697v55.001212l15.5151515 8.378182v21.333333l-19.3939394 10.472728-19.3939394-10.860607v-20.945454l11.6363636-6.283636v-59.345455l-11.6363636-6.5163636v-20.5575758l19.3939394-10.8606061 13.1019121 7.0750326 45.0799061-25.7992734v-16.9606076l19.3939394-10.8606061 19.393939 10.4727273v21.3333333l-19.393939 10.4727273-14.6769824-8.2191101-43.5048358 24.8978591v19.3939783z" fill="#f58435"/><path d="m145.842424 250.264535 46.802252-26.137645 15.646233 8.988262 18.230303-10.084849.387879-21.333333-18.230303-10.860606-18.618182 10.472727v15.37532l-49.591588 27.695405-12.856897-7.385877-16.686106 9.585636-44.9329333-26.555787.334191-18.714697-18.230303-10.472727-18.6181818 10.472727v21.333333l18.230303 10.472728 13.0100673-7.197059 48.6626598 28.76009v14.121817l18.230303 10.472727 18.230303-10.472727z" fill="#df5343"/><path d="m58.569697 91.1515152v80.6787878l69.042424 39.563636 67.878788-38.4 1.163636-80.6787875-68.654545-40.3393939z" fill="url(#a)"/><path d="m127.224242 185.793939-46.9333329-27.151515.3878788-54.690909 47.3212121-26.7636362 46.545455 27.5393942-.775758 54.690909zm-42.2787875-29.866666 42.2787875 24.436363 41.503031-23.660606.775757-49.260606-41.890909-24.4363634-42.2787877 23.6606064z" fill="#fff"/></svg>