<svg height="490" preserveAspectRatio="xMidYMid" viewBox="0 0 256 490" width="256" xmlns="http://www.w3.org/2000/svg"><g fill="#3c4929"><path d="m21 165.75-21 6.856 21.75 2.519z"/><path d="m19.955 206.806 108.045 6.908 108.045-6.908-108.045-21.056z"/><path d="m234.5 175.125 21.5-2.519-21.5-5.731z"/></g><path d="m157.387 352.929 56.606 13.396-56.756 17.116z" fill="#b7ca9d"/><path d="m19.955 92.221v-38.202l108.045-54.019.482.405-.248 48.496-.234.102-.405 1.117-59.098 23.856-.542 84.037 31.452-5.29 28.593-5.721v343.028l-32.369-16.177v-45.771l-28.354-11.338v-214.675l-47.322 4.737v-38.195l-19.955 3.995v-72.408z" fill="#4b612c"/><path d="m99.408 152.727-32.131 6.424v-85.871l32.131 10.018z" fill="#759c3e"/><path d="m183.925 27.959 52.106 26.06v38.202l19.969 7.977v72.402l-19.969-3.989v38.195l-25.441-2.538-21.881-2.199v42.939h47.336v39.284l-21.997 1.974v39.611l-53.692 10.672v45.77l53.57-15.899.122 40.38-53.692 21.282v45.771l-32.356 16.177v-343.028l28.572 5.71 30.583 4.038v-82.784l-58.338-22.498-.817-2.465v-49.003z" fill="#759c3e"/><path d="m160.356 61.941-32.356-12.931-60.723 24.27 32.131 10.018z" fill="#3c4929"/><path d="m67.277 73.28 60.723-24.27 12.775 5.104 19.581 7.827 28.353 11.353-1.515 1.541-28.876 8.991-1.74-.528-28.578-10.018-28.592 10.018z" fill="#3c4929"/><path d="m156.578 83.298 32.131-10.004v85.864l-32.131-6.446z" fill="#4b612c"/></svg>