<svg height="310" preserveAspectRatio="xMidYMid" viewBox="0 0 256 310" width="256" xmlns="http://www.w3.org/2000/svg"><path d="m127.25 57.75-102.445 34.261-.805 97.864 20.877-4.638v-89.844l83.123-21.753 83.123 21.753v89.844l21.502 4.638.038-98.839z" fill="#876929"/><path d="m230.316 186.738-19.193-1.501-83.123 11.306-83.123-11.306-19.193 1.501 102.675 20.486z" fill="#fad791"/><path d="m129.434 205.7-1.434-3.013-102.311-15.95v-94.236l102.311-30.695 1.009-1.418v-58.462l-1.009-1.926-128 64v154.941l89.714 31.93v39.62l38.372 19.269 1.169-3.316z" fill="#876929"/><path d="m128 0v61.806l102.311 30.695v94.236l-102.311 15.95v13.625l-.086.017v93.431l38.372-19.269v-39.62l89.714-31.93v-154.941z" fill="#d9a741"/></svg>