<svg height="312" preserveAspectRatio="xMidYMid" viewBox="0 0 256 312" width="256" xmlns="http://www.w3.org/2000/svg"><path d="m16.491 215.53 2.176 2.47 109.915 31.157.498-19.313-76.98-19.318-3.767-1.359z" fill="#b7ca9d"/><path d="m239.505 215.53-112.255 37.47-.334-23.156 76.979-19.318 3.355-3.776z" fill="#b7ca9d"/><path d="m126.916 83.165 76.979 17.941 33.855-1.606 1.755-3.393-107.255-38.607z" fill="#3c4929"/><path d="m52.1 210.526-35.609 5.004-.991-3.697v-111.833l.991-3.893 32.176 2.393 3.433 2.61z" fill="#759c3e"/><path d="m129.08 83.165-76.98 17.941-35.609-4.999 1.342-2.107 110.749-31.52z" fill="#3c4929"/><path d="m127.846 0-127.846 64.531.061 182.613 127.785 64.497 1.904-2.891v-305zm-37.384 237.73-73.971-22.2v-119.423l73.971-22.192z" fill="#4b612c"/><path d="m203.895 210.526 35.61 5.004 1.995-3.53v-112.5l-1.995-3.393-35.61 5.003z" fill="#4b612c"/><path d="m127.846 311.641 128.093-64.493.061-182.612-128.154-64.536zm37.687-237.726 73.972 22.192v119.423l-73.972 22.2z" fill="#759c3e"/></svg>