<svg height="169" preserveAspectRatio="xMidYMid" viewBox="0 0 256 169" width="256" xmlns="http://www.w3.org/2000/svg"><path d="m152.000362 95.1993124c-6.400015 0-12.000333 3.9997047-15.200341 9.6000226h-94.4002248c-16.0000381 0-28.8000686-13.5997274-28.8000686-29.5997655s12.8000305-29.5997657 28.8000686-29.5997657h13.5997276c0-3.2000076 1.6000038-6.4000152 2.4003105-9.6000228.7996971-.7996972.7996971-2.4003105 1.6000038-3.2000077 6.4000152-12.0003333 19.2000457-19.9997428 33.60008-19.9997428 12.8000309 0 24.0000569 6.4000152 31.2003789 16.0000381 3.999705-1.6000038 8.000019-3.2000076 12.800031-3.9997048-8.800326-15.20034094-24.800364-24.8003638-44.0004099-24.8003638-21.6003562 0-40.0000952 13.6003371-48.0001143 32.8003829h-3.2000076c-23.1997505-.0012191-42.3997962 19.1988266-42.3997962 43.1988838 0 24.0000571 19.2000457 42.3997963 42.3997962 42.3997963h95.2005318c2.40031 5.600318 8.000019 9.600023 15.200341 9.600023 8.800325 0 16.000038-7.199713 16.000038-16.799736 0-9.600022-7.200322-16.0000376-16.800345-16.0000376zm52.800126-32.8003829c-9.600023-19.2000457-29.599766-32.7997733-51.999819-32.7997733-28.000372 0-51.200122 19.9997428-56.8004404 46.4001105-13.5997276 1.6000038-25.600061 8.7997162-32.7997734 19.2000457h69.6004708c4.800011-6.4000153 12.000333-9.6000229 19.999743-9.6000229 14.400034 0 25.600061 12.0003334 25.600061 26.3997585 0 14.399424-12.000334 26.399758-25.600061 26.399758-8.000019 0-15.200341-3.999705-19.999743-9.600023h-77.6010993c3.2000076 22.400053 22.4000533 40.000095 44.8001066 40.000095h104.0002477c28.800069 0 51.999819-23.19975 51.999819-52.800126 0-29.6003749-23.199141-52.7995158-51.199512-53.5998225z" fill="#008cdb"/></svg>