<svg height="92" preserveAspectRatio="xMidYMid" viewBox="0 0 512 92" width="512" xmlns="http://www.w3.org/2000/svg"><g fill="#002a41" transform="translate(103.403922 21.082353)"><path d="m.5568464 1.34317342h13.3626947c6.0204066.00005682 10.4413105 1.02196986 13.2627247 3.06579594 2.8213467 2.0438829 4.232039 5.13184123 4.2320732 9.26387494-.0000342 2.8214415-.8608893 5.1707107-2.5825652 7.047921-1.7217424 1.8772675-4.2376584 3.0824463-7.547755 3.6155936v.199916c3.8877021.5776426 6.7479602 1.8050974 8.5807834 3.682251 1.8327492 1.8772673 2.7491409 4.4931671 2.7491807 7.847699-.0000398 4.487541-1.4884823 7.942088-4.465339 10.3635837-2.976923 2.4214958-7.1978864 3.6322437-12.6629015 3.6322437h-14.928896zm3.39898972 21.69356078h10.73014428c4.5763917.0000569 7.9031769-.7608515 9.9803666-2.2826683 2.0771271-1.5217032 3.1157084-3.9043296 3.1157426-7.1478223-.0000342-3.2434928-1.1719093-5.59833097-3.5156234-7.06457132-2.3437764-1.46618353-5.837179-2.19930372-10.4802188-2.19936054h-9.83041128zm0 2.9991382v21.0270415h11.46325938c9.0195103.0000568 13.5292751-3.6655441 13.5293093-10.996689-.0000342-6.6869016-4.7541706-10.0303525-14.2624244-10.0303525z"/><path d="m66.8038246 32.8671705h-19.7941198l-6.7979749 17.1948818h-3.7655475l19.5941751-48.91879492h2.1660206l19.1942976 48.91879492h-3.8321937zm-18.5611529-3.065739h17.4281551l-6.6313649-17.5614703c-.5554121-1.3773067-1.2218802-3.28787434-1.9994047-5.73164614-.5998391 2.13275974-1.2551977 4.06548974-1.9660816 5.79830374z"/><path d="m105.059116 3.70914958c-6.1093156.00005684-10.9189898 1.95500609-14.4290448 5.86496139-3.5100778 3.90995533-5.2651054 9.26393183-5.2650998 16.06187263-.0000056 6.9534753 1.6550525 12.3518902 4.9651916 16.1951878 3.3101107 3.8432977 8.0420345 5.7649466 14.195777 5.7649466 4.087647 0 7.84208-.5220662 11.26332-1.5661983v2.9990813c-3.221296 1.1330092-7.24232 1.6995139-12.063081 1.6995139-6.8424297 0-12.2297122-2.2104418-16.161864-6.6313821-3.9321688-4.4208835-5.8982504-10.5968-5.8982448-18.5278069-.0000056-4.9540306.9386053-9.3193945 2.8158327-13.0960914 1.8772105-3.77664012 4.5764009-6.69241379 8.0975882-8.7474347 3.5211592-2.05485046 7.6143799-3.08233251 12.2796859-3.08238934 4.75411.00005683 9.008394.88865463 12.762872 2.66585022l-1.36626 3.06579595c-3.554533-1.77725241-7.286752-2.66585021-11.196673-2.66590705z"/><path d="m159.409626 50.0620523h-4.16543l-18.694446-25.7256934-6.498067 5.7316462v19.9940472h-3.398987v-48.71887888h3.398987v25.32580448l5.398399-5.3983581 19.094322-19.92744638h4.332046l-19.960734 20.59390888z"/><path d="m166.374234 1.34317342h13.362693c6.020411.00005682 10.441312 1.02196986 13.262725 3.06579594 2.82135 2.0438829 4.232042 5.13184123 4.232076 9.26387494-.000034 2.8214415-.860888 5.1707107-2.582565 7.047921-1.721743 1.8772675-4.237657 3.0824463-7.547756 3.6155936v.199916c3.887702.5776426 6.747962 1.8050974 8.580785 3.682251 1.832749 1.8772673 2.74914 4.4931671 2.749181 7.847699-.000041 4.487541-1.488483 7.942088-4.465339 10.3635837-2.976925 2.4214958-7.197887 3.6322437-12.662903 3.6322437h-14.928897zm3.398993 21.69356078h10.730143c4.57639.0000569 7.903174-.7608515 9.980363-2.2826683 2.077132-1.5217032 3.115707-3.9043296 3.115741-7.1478223-.000034-3.2434928-1.171908-5.59833097-3.515619-7.06457132-2.343774-1.46618353-5.837178-2.19930372-10.48022-2.19936054h-9.830408zm0 2.9991382v21.0270415h11.463258c9.019509.0000568 13.529276-3.6655441 13.52931-10.996689-.000034-6.6869016-4.754172-10.0303525-14.262425-10.0303525z"/><path d="m250.116011 25.6359836c-.000053 7.7310339-1.932811 13.8458618-5.798283 18.344541-3.865551 4.4986791-9.197296 6.7479903-15.995242 6.7479903-6.775785 0-12.09642-2.2493112-15.961922-6.7479903-3.865526-4.4986792-5.79828-10.6357265-5.79828-18.4111987 0-7.7531961 1.949414-13.856943 5.848266-18.31124046 3.898822-4.45418385 9.225016-6.68127577 15.978581-6.6813326 6.797948.00005683 12.118583 2.23828676 15.961921 6.7146898 3.843257 4.47645996 5.764906 10.59128796 5.764959 18.34454096zm-39.854826 0c-.000006 6.9756944 1.555083 12.3685403 4.665283 16.1785376 3.110174 3.8099406 7.575505 5.7149392 13.396018 5.7149392 5.864891 0 10.346888-1.8882916 13.446001-5.6649886 3.09904-3.7766401 4.648576-9.1861363 4.648621-16.2284882-.000045-7.0201328-1.549581-12.4018407-4.648621-16.14523727-3.099113-3.74328285-7.558895-5.61492429-13.379356-5.61498111-5.798299.00005682-10.269183 1.88840529-13.412678 5.66498855-3.143517 3.77669693-4.715274 9.14175453-4.715268 16.09522983z"/><path d="m296.702152 50.0620523h-3.432311l-28.858091-43.25380637h-.266583c.266572 5.15406047.39987 9.04179657.399876 11.66320837v31.590598h-3.265694v-48.71887888h3.398992l28.824761 43.18720538h.199946c-.199986-3.9988319-.299955-7.7976913-.299915-11.3966346v-31.79057078h3.299019z"/><path d="m337.090157 50.0620523h-26.625417v-48.71887888h26.625417v3.13245358h-23.22643v18.4278488h21.926817v3.1323966h-21.926817v20.8937831h23.22643z"/><path d="m346.687286 47.4628028c-.000006-2.1770845.888615-3.2656553 2.665873-3.2656553 1.821668 0 2.732508 1.0885708 2.73252 3.2656553-.000012 2.1771414-.910852 3.2657121-2.73252 3.2657121-1.777258 0-2.665879-1.0885707-2.665873-3.2657121z"/><path d="m356.451047 62.3583659c-2.043831 0-3.721109-.299874-5.031837-.8996789v-2.9324808c1.732825.4442706 3.387884.6664626 4.965193.6664626 5.376171 0 8.064265-2.9324807 8.064271-8.7973852v-49.05211018h3.398987v48.71887888c-.000012 8.1975235-3.798877 12.2963136-11.396614 12.2963136z"/><path d="m408.269 37.499108c-.000034 4.0654898-1.494029 7.2867633-4.482 9.6638208-2.988028 2.3770573-6.959061 3.5655861-11.913127 3.5655861-5.953792 0-10.5191-.6553815-13.695924-1.9660875v-3.3989703c3.510062 1.4884596 7.986504 2.2326609 13.429341 2.2326609 3.998785 0 7.170063-.916386 9.513836-2.749158 2.343719-1.8328289 3.51559-4.2376744 3.515624-7.2145368-.000034-1.8439099-.388807-3.3712388-1.16632-4.5819869-.777575-1.2107479-2.043864-2.3159688-3.798871-3.3156624-1.755061-.9996939-4.332068-2.0771265-7.731038-3.2324117-4.976308-1.7105379-8.414176-3.560017-10.3136-5.5483235-1.899441-1.9882497-2.849155-4.6375065-2.849149-7.9476569-.000006-3.64332486 1.427342-6.61461814 4.282055-8.91399352 2.854696-2.29926172 6.525826-3.44892099 11.013397-3.44897782 4.576389.00005683 8.875113.86643543 12.896164 2.59924944l-1.232969 2.93242387c-4.043269-1.68831876-7.908781-2.53253498-11.596549-2.53259181-3.598949.00005683-6.46476.83313504-8.597447 2.49929142-2.132709 1.66621321-3.199054 3.93217452-3.199048 6.79794082-.000006 1.7995284.327673 3.27685.983043 4.4320215.655348 1.155285 1.72725 2.1938483 3.21571 3.1157465 1.488431.9220119 4.043226 2.0272327 7.664387 3.3157194 3.798848 1.3107059 6.65355 2.5825424 8.564123 3.8155094 1.910511 1.2329672 3.304542 2.6325499 4.182088 4.1987483.877482 1.5661983 1.31624 3.4601158 1.316274 5.6816387z"/></g><path d="m.2922382.53494616v49.31518914l36.7067695 20.9243859v-14.2233395l-24.5563112-13.9981194v-21.9869981l24.5563112 13.9981194v-13.1048516z" fill="#002a41"/><path d="m73.7057774.53494616v49.31518914l-36.7067697 20.9243859v-14.2233395l24.5563113-13.9981194v-21.9869981l-24.5563113 13.9981194v-13.1048516z" fill="#0071b5"/><path d="m.2922382 91.7207663v-49.315189l36.7067695-20.9243859v14.2233394l-24.5563112 13.9981194v20.8685092l24.5563112-13.9981184v14.2233395z" fill="#0071b5"/><path d="m73.7057774 91.7207663v-49.315189l-36.7067697-20.9243859v14.2233394l24.5563113 13.9981194v20.8685092l-24.5563113-13.9981184v14.2233395z" fill="#002a41"/></svg>