<svg height="95" preserveAspectRatio="xMidYMid" viewBox="0 0 512 95" width="512" xmlns="http://www.w3.org/2000/svg"><g fill="#0a0b09"><path d="m42.3830069 77.1622621c2.0197517 0 3.9371034-.1800828 5.7414621-.5826207 1.8290758-.402538 3.4533517-1.0345931 4.8233931-1.9738483 1.3700413-.9004138 2.5035034-2.1362759 3.3297655-3.7111172.8262621-1.5571862 1.2217379-3.580469 1.2217379-6.0274759 0-4.7916138-1.3488552-8.195531-4.0289103-10.2611862-2.6871173-2.0374069-6.2711173-3.0508138-10.6778483-3.0508138h-22.2596414v25.6070621zm-1.129931-39.5828966c3.6263724 0 6.6277517-.8615724 9.0076689-2.6094345 2.3552-1.7160827 3.4992552-4.5585655 3.4992552-8.4568276 0-2.1609931-.3813517-3.9512275-1.1440552-5.3389241-.7874207-1.3876965-1.8326069-2.4752552-3.1532138-3.2344276-1.3100138-.7909517-2.7895172-1.338262-4.509131-1.6313379-1.6843034-.3319172-3.4533517-.4590345-5.2647724-.4590345h-19.1558621v21.7299862zm2.6482758-37.57020688c4.4455724 0 8.4603586.38488276 12.1291035 1.17936552 3.6475586.77329655 6.761931 2.06565517 9.3925517 3.83823448 2.5917793 1.76904828 4.6185931 4.12424828 6.0698483 7.09031728 1.4159448 2.9236965 2.1292138 6.5818482 2.1292138 10.9108965 0 4.6821517-1.0628414 8.5910069-3.1885242 11.7159724-2.1398069 3.1214345-5.2859586 5.6814345-9.4878896 7.6694069 5.7238069 1.6454621 9.9610482 4.5444414 12.7717517 8.6616276 2.8248276 4.1454345 4.2054621 9.110069 4.2054621 14.9256828 0 4.717462-.9039449 8.7746207-2.7047724 12.189131-1.8220138 3.4568828-4.3008 6.2605241-7.3551449 8.4215172-3.079062 2.1821794-6.6171586 3.781738-10.5789793 4.8233931-3.9194483 1.0416552-7.9872 1.5642483-12.1538207 1.5642483h-45.07012411v-92.98979308z"/><path d="m128.360166 41.4776276c-2.199835-2.4328828-5.921545-3.7499586-10.462456-3.7499586-2.955476 0-5.402482.4978758-7.358676 1.5112827-1.91382.9992828-3.485131 2.245738-4.682151 3.7111173-1.19349 1.4900965-2.009159 3.0614069-2.482317 4.7421793-.473159 1.6384-.755642 3.1249655-.843918 4.4385103h30.091476c-.441379-4.717462-2.055062-8.2025931-4.261958-10.653131zm-21.249766 35.3739034c2.768331 2.7047724 6.772524 4.0677518 11.959614 4.0677518 3.728772 0 6.952607-.9427862 9.657379-2.8248276 2.680055-1.8749793 4.311393-3.884138 4.943448-5.9674483h16.285131c-2.616496 8.1037241-6.58891 13.8910897-12.009048 17.3726897-5.353048 3.4992551-11.885462 5.2435862-19.494841 5.2435862-5.303614 0-10.077573-.8615725-14.360717-2.5494069-4.2831453-1.7125518-7.8636143-4.1136552-10.8755867-7.2421518-2.9342896-3.1426207-5.2118069-6.8572689-6.8360827-11.2180965-1.6066207-4.3396414-2.4187587-9.1453793-2.4187587-14.3536552 0-5.0352552.8439173-9.7385931 2.4858483-14.0852965 1.6807724-4.3608276 4.0006621-8.1249104 7.0514759-11.2816552 3.0614069-3.1744 6.6877789-5.6779035 10.9108969-7.5069793 4.226648-1.8255448 8.884082-2.7400828 14.042924-2.7400828 5.695558 0 10.68491 1.0946207 14.960993 3.3297655 4.261958 2.1998345 7.754152 5.1835587 10.501296 8.9193931 2.743614 3.7323035 4.696276 7.9977931 5.918014 12.7788138 1.207614 4.7774897 1.634869 9.7668414 1.285297 14.9927724h-48.587035c0 5.321269 1.800828 10.3600552 4.579752 13.0648276z"/><path d="m177.385048.00915862v35.06317238h.423724c2.348138-3.9017931 5.317738-6.7372138 8.968828-8.4956689 3.644028-1.7725793 7.199779-2.6482759 10.663724-2.6482759 4.939917 0 8.986483.6497104 12.146759 1.9879724 3.163807 1.3629793 5.66731 3.2061793 7.499917 5.6037517 1.797297 2.3869794 3.068469 5.3000828 3.813517 8.7322483.730924 3.4251035 1.108745 7.2033104 1.108745 11.3699311v41.376662h-18.583834v-38.0186483c0-5.5437241-.865104-9.7103448-2.588249-12.4363034-1.726676-2.7294897-4.791613-4.099531-9.212469-4.099531-4.999944 0-8.615724 1.5148138-10.8544 4.5056-2.281048 2.9907862-3.386262 7.9130482-3.386262 14.7632551v35.2856276h-18.576772v-92.98979308z"/><path d="m271.614234 61.7210483c-1.151117.3813517-2.42582.7026758-3.739365.9816276-1.355917.2577655-2.771862.4660965-4.240772.6497103-1.454787.1765517-2.951945.3778207-4.4032.6391172-1.384166.2718897-2.768331.610869-4.085407 1.0522483-1.341793.4378483-2.517628 1.020469-3.485131 1.7549242-1.002814.7450482-1.800828 1.6772413-2.411697 2.7965793-.593214 1.1228689-.911007 2.5811862-.911007 4.304331 0 1.6454621.317793 3.0331586.911007 4.1736828.610869 1.129931 1.408883 2.0126896 2.4576 2.665931 1.045186.6532414 2.270455 1.1122759 3.633435 1.3665103 1.384165.2754207 2.814234.3778207 4.279613.3778207 3.636966 0 6.440607-.6038069 8.439173-1.8149517 1.987972-1.2182069 3.485131-2.6729931 4.420855-4.3678896.953379-1.6948966 1.528938-3.4039173 1.716083-5.1270621.243641-1.7337379.353103-3.1320276.353103-4.1807448v-6.9172966c-.801545.7097379-1.744331 1.2570483-2.93429 1.6454621zm-36.401434-26.2002759c1.882041-2.863669 4.307862-5.1835586 7.259807-6.9172965 2.951945-1.7513931 6.249931-2.9837242 9.957517-3.7217104 3.693462-.7591724 7.386924-1.1158069 11.136883-1.1158069 3.372138 0 6.783117.2330483 10.296496.713269 3.456883.4766896 6.617159 1.4124138 9.484359 2.8071724 2.863669 1.4018207 5.197683 3.3191724 7.005572 5.8226759 1.832607 2.4399448 2.761269 5.7449931 2.761269 9.8409931v35.0914207c0 3.0508137.183614 5.9497931.508469 8.7251862.367228 2.8001103 1.317076 4.9010758 2.213959 6.2781793l-18.891034-.0459035c-.554373-.8050758-1.013407-2.0656551-1.2288-3.1638069-.218925-1.0734345-.370759-2.1786482-.455504-3.3121103-2.941352 3.0437517-6.391172 5.1835586-10.40949 6.4052965-3.986537 1.2040828-8.050758 1.8149518-12.224441 1.8149518-3.199117 0-6.17931-.406069-8.968828-1.1899587-2.747144-.7838896-5.187089-1.9985655-7.266868-3.6404965-2.090373-1.6737104-3.696994-3.7499586-4.869297-6.2640552-1.165241-2.5282207-1.765517-5.5366621-1.765517-9.0112 0-3.8347034.688551-6.9914483 2.048-9.4631724 1.324138-2.4717241 3.043751-4.4596966 5.194151-5.9321379 2.11509-1.4830345 4.544442-2.5988414 7.295118-3.3262345 2.725958-.7344552 5.494289-1.3417931 8.237903-1.7690483 2.785986-.4272552 5.497821-.7732965 8.206124-1.0416552 2.715366-.2648275 5.067035-.6426482 7.168-1.1723034 2.072718-.515531 3.732304-1.2994207 4.950511-2.2916414 1.19702-.9957517 1.772579-2.4434759 1.691365-4.3714207 0-1.9915034-.353103-3.5804689-.992221-4.7668965-.642648-1.1687724-1.511282-2.0691862-2.574124-2.7259587-1.091089-.6567724-2.319889-1.0875586-3.735834-1.3170758-1.440662-.208331-2.966069-.3248552-4.593876-.3248552-3.61931 0-6.482979.8050759-8.513324 2.351669-2.086842 1.5924965-3.287393 4.2125241-3.658152 7.8706758h-18.552055c.268359-4.3678896 1.341793-7.9730758 3.283862-10.8367448z"/><path d="m320.850979 25.6868414v9.3854896h.413131c2.341076-3.9017931 5.360111-6.7372138 9.110069-8.4956689 3.71818-1.7725793 7.570538-2.6482759 11.475862-2.6482759 4.961104 0 9.032387.6497104 12.178538 1.9879724 3.202649 1.3629793 5.692028 3.2061793 7.496387 5.6037517 1.850262 2.3869794 3.121434 5.3000828 3.862951 8.7322483.74858 3.4251035 1.119338 7.2033104 1.119338 11.3699311v41.376662h-18.590896v-38.0186483c0-5.5437241-.872166-9.7103448-2.605904-12.4363034-1.758455-2.7294897-4.791614-4.4808828-9.244248-4.4808828-5.031724 0-8.696938 1.8961656-10.949738 4.8869518-2.266924 2.9907862-3.389793 7.9130482-3.389793 14.7632551v35.2856276h-18.389628v-67.3121103z"/><path d="m407.657931 37.727669c-2.973131 0-5.4272.6567724-7.401048 2.0197517-2.016221 1.3594483-3.661683 3.0825931-4.918731 5.218869-1.26058 2.1221517-2.132745 4.4702896-2.672993 7.0408827-.504938 2.5670621-.787421 5.1094069-.787421 7.6376276 0 2.4434759.282483 4.918731.787421 7.4469517.540248 2.5140966 1.370041 4.7845517 2.542344 6.853738 1.189959 2.0268137 2.771863 3.693462 4.770428 5.0105379 1.987972 1.3100138 4.406731 1.9632552 7.277462 1.9632552 4.452635 0 7.863614-1.2429242 10.254124-3.7040552 2.379917-2.4752552 3.852359-5.8014897 4.473821-9.9681104h17.859972c-1.225269 8.9299862-4.699807 15.7519449-10.416551 20.4552828-5.737931 4.6715586-13.086014 7.0408828-22.033656 7.0408828-5.056441 0-9.650317-.8615725-13.887558-2.5494069-4.230179-1.7125518-7.821242-4.0712828-10.780248-7.1150345-2.959007-3.0508138-5.25418-6.6771862-6.934952-10.8932414-1.641931-4.2231172-2.468193-8.8593655-2.468193-13.8910897 0-5.2118069.766234-10.0669793 2.28811-14.5549241 1.514814-4.4702896 3.75349-8.3438345 6.737214-11.5923862 2.955476-3.2697379 6.571255-5.8120828 10.847338-7.6411586 4.258427-1.8255448 9.124193-2.7400828 14.586703-2.7400828 3.997131 0 7.835366.5402483 11.542952 1.5501242 3.679338 1.031062 6.987917 2.6235586 9.890428 4.7598344 2.909572 2.1221518 5.29302 4.7668966 7.118565 7.9201104 1.804359 3.1532138 2.835421 6.9314207 3.121435 11.2498758h-18.135394c-1.200551-7.683531-5.755586-11.5182344-13.661572-11.5182344"/><path d="m98.7489103 6.24849655h37.6937927v9.17715865h-37.6937927z"/><path d="m489.12949 41.4776276c-2.228083-2.4328828-5.978042-3.7499586-10.462456-3.7499586-2.951944 0-5.406013.4978758-7.397517 1.5112827-1.917351.9992828-3.668745 2.245738-4.844579 3.7111173-1.175835 1.4900965-2.019752 3.0614069-2.510566 4.7421793-.437848 1.6384-.745048 3.1249655-.826262 4.4385103h30.317462c-.494344-4.717462-2.069186-8.2025931-4.276082-10.653131zm-21.479283 35.3739034c2.778924 2.7047724 6.973793 4.0677518 12.199724 4.0677518 3.72171 0 6.938483-.9427862 9.6256-2.8248276 2.687117-1.8749793 4.353766-3.884138 4.946979-5.9674483h16.285131c-2.602372 8.1037241-6.599503 13.8910897-11.984331 17.3726897-5.374234 3.4992551-11.8784 5.2435862-19.516027 5.2435862-5.317738 0-10.109352-.8615725-14.360717-2.5494069-4.276083-1.7125518-7.860083-4.1136552-10.857932-7.2421518-2.966068-3.1426207-5.240055-6.8572689-6.857268-11.2180965-1.606621-4.3396414-2.404635-9.1453793-2.404635-14.3536552 0-5.0352552.826262-9.7385931 2.471724-14.0852965 1.666648-4.3608276 4.035973-8.1249104 7.069131-11.2816552 3.075531-3.1744 6.670124-5.6779035 10.882648-7.5069793 4.23018-1.8255448 8.926456-2.7400828 14.057049-2.7400828 5.688496 0 10.699034 1.0946207 14.932745 3.3297655 4.272551 2.1998345 7.7824 5.1835587 10.508358 8.9193931 2.743614 3.7323035 4.717462 7.9977931 5.928607 12.7788138 1.19349 4.7774897 1.652524 9.7668414 1.310014 14.9927724h-48.798897c0 5.321269 1.776111 10.3600552 4.562097 13.0648276z"/></g></svg>