<svg height="295" preserveAspectRatio="xMidYMid" viewBox="0 0 256 295" width="256" xmlns="http://www.w3.org/2000/svg"><g fill="#205081"><path d="m128 .00000461c-70.2681182 0-127.98836049 18.82181109-127.98836049 42.66277719 0 6.2739409 15.05745349 95.3638832 21.33139439 130.4979332 2.5095717 16.312251 43.9175746 38.898431 106.6569661 38.898431 62.739386 0 102.892591-22.58618 106.656972-38.898431 6.273929-35.13405 21.331383-124.2239923 21.331383-130.4979332-1.254786-23.8409661-57.720243-42.66277719-127.988355-42.66277719zm0 183.19902039c-22.58618 0-40.1532112-17.567037-40.1532112-40.153217s17.5670312-40.153201 40.1532112-40.153201c22.586169 0 40.153205 17.567021 40.153205 40.153201 0 21.331395-17.567036 40.153217-40.153205 40.153217zm0-127.9883614c-45.1723663 0-81.5612141-7.5287268-81.5612141-17.5670252 0-10.0383101 36.3888478-17.5670368 81.5612141-17.5670368 45.172349 0 81.561208 7.5287267 81.561208 17.5670368 0 10.0382984-36.388859 17.5670252-81.561208 17.5670252z"/><path d="m220.608176 207.039991c-2.509584 0-3.764369 1.254786-3.764369 1.254786s-31.369693 25.095764-87.83515 25.095764c-56.4654457 0-87.8351501-25.095764-87.8351501-25.095764s-2.5095718-1.254786-3.7643576-1.254786c-2.5095833 0-5.019155 1.254786-5.019155 5.019155v1.254786c5.019155 26.35055 8.7835126 45.172361 8.7835126 47.681932 3.7643691 18.821823 41.4080029 33.879277 86.5803641 33.879277 45.172361 0 82.815995-15.057454 86.580364-33.879277 0-2.509571 3.764357-21.331382 8.783512-47.681932v-1.254786c1.254786-2.509583 0-5.019155-2.509571-5.019155z"/><circle cx="128" cy="141.79108" r="20.076605"/></g></svg>