<svg height="287" preserveAspectRatio="xMidYMid" viewBox="0 0 256 287" width="256" xmlns="http://www.w3.org/2000/svg" xmlns:xlink="http://www.w3.org/1999/xlink"><linearGradient id="a"><stop offset="0" stop-color="#fff" stop-opacity="0"/><stop offset="1" stop-color="#fff"/></linearGradient><linearGradient id="b" x1="14.551495%" x2="411.68505%" xlink:href="#a" y1="49.972493%" y2="49.972493%"/><linearGradient id="c" x1="5.239203%" x2="379.915947%" xlink:href="#a" y1="82.910365%" y2="-193.342226%"/><linearGradient id="d" x1="62.675083%" x2="-363.978405%" xlink:href="#a" y1="44.012284%" y2="243.704415%"/><linearGradient id="e" x1="11.134115%" x2="355.291211%" xlink:href="#a" y1="19.904295%" y2="478.170894%"/><linearGradient id="f" x1="53.115474%" x2="46.265571%" y1="2.534033%" y2="110.506183%"><stop offset="0" stop-color="#1a3b54" stop-opacity="0"/><stop offset="1" stop-color="#1a3b54"/></linearGradient><path d="m142.4 3.9c33.1 19.1 66.2 38.2 99.3 57.3 9.3 5.4 14.3 14.3 14.3 25.7v114c0 10.8-4.9 19.2-14.1 24.6-33 19.1-66.1 38.1-99.1 57.2-9.6 5.6-20 5.5-29.7-.1-32.9-19-65.9-38-98.8-57.1-7.9-4.5-14.3-13.6-14.3-25.1v-118.6c0-10.4 4.9-15.7 14.1-21l39.6-22.8v148.3l74.3 42.9 74.3-42.9v-85.8l-74.3-42.9-31.2 18v-62c5.6-3.2 11.2-6.5 16.9-9.7 8.7-5.1 19.5-5.3 28.7 0z" fill="#2a5d84"/><path d="m159.2 125.2v18 18l-15.6 9-15.6 9.1-15.6-9.1-15.6-9v-18-18l15.6-9 15.6-9 15.6 9z" fill="#1a3b54"/><path d="m158.1 125.9-30.1-17.4-30.1 17.4 30.1 17.5z" fill="url(#b)"/><path d="m128 178 30.1-17.4v-34.7l-30.1 17.3z" fill="url(#c)"/><path d="m128 178-30.1-17.4v-34.7l30.1 17.3z" fill="url(#d)"/><path d="m97.9 14.3v59.4l30.1-17.4 75.4 43.5v.3l48.1-27.6c-2.3-4.2-5.7-7.7-10.4-10.4-33.1-19-66.2-38.1-99.3-57.2-8.6-5-19-5-27.6 0-5.4 3.1-10.9 6.2-16.3 9.4z" fill="url(#e)"/><path d="m52.6 186.8v-.5c0-50.3.2-98 .2-148.3l-37.9 21.8c-8.8 5.1-13.8 11.9-13.8 22v118.6c0 4.9 1.3 9.7 3.6 13.9z" fill="url(#f)"/></svg>