<svg height="348" preserveAspectRatio="xMidYMid" viewBox="0 0 256 348" width="256" xmlns="http://www.w3.org/2000/svg"><path d="m142.029889 85.6873567 28.6935 28.6934993-28.675897 28.670029zm0 175.6464653 28.6935-28.687631-28.675897-28.675897zm-30.635738-87.823232-62.0284226-62.186853 17.9789127-17.9730448 49.4126709 49.4361418v-118.4707067l89.865224 89.8593567-59.335106 59.335106 59.346842 59.352709-89.871092 89.859356v-118.476575l-49.4244067 49.44201-17.9789127-17.98478zm16.617585 173.53406c75.776657 0 127.988264-35.9989 127.988264-173.528193 0-137.523425-52.211607-173.516457-127.988264-173.516457-75.7707898 0-128.011736 35.9988998-128.011736 173.516457 0 137.529293 52.2350784 173.528193 128.011736 173.528193z" fill="#0060a9"/></svg>