<svg height="298" preserveAspectRatio="xMidYMid" viewBox="0 0 256 298" width="256" xmlns="http://www.w3.org/2000/svg"><path d="m192 112.384 64 37.942857v74.441143l-64 36.48-64-36.48v-74.422857" fill="#00b46f"/><path d="m128 0 64 37.9428571v74.4411429l-64 36.48-64-36.48v-74.4228571" fill="#2294d9"/><path d="m192 37.9428571 64 37.9428572v74.4502857l-64 36.48-64-36.48v-74.4502857" fill="#2294d9"/><path d="m64 37.9428571 64 37.9428572v74.4502857l-64 36.48-64-36.48v-74.4502857" fill="#f85551"/><path d="m64 112.384 64 37.942857v74.441143l-64 36.48-64-36.48v-74.422857" fill="#f85551"/><path d="m128 148.873143 64 37.942857v74.441143l-64 36.48-64-36.48v-74.441143" fill="#00b46f"/><path d="m192 37.9428571-64 37.9428572-64-37.9428572 64-37.9428571zm64 37.9428572-64 37.9611427-64-37.942857 64-37.9428571 64 37.9428571z" fill="#30b2e9"/><path d="m128 223.305143v-74.422857l-64 37.942857v74.422857" fill="#00ab64"/><path d="m192 186.816-64 36.48-64-36.48 64-37.942857" fill="#00ce8e"/><path d="m128 223.305143-64-36.48 64-37.942857z" fill="#00c783"/><path d="m128 75.8857143-64-37.9428572 64-37.9428571z" fill="#2caee7"/><path d="m128 75.8857143-64 37.9611427-64-37.942857 64-37.9428571" fill="#fb716c"/><path d="m256 150.336-64 36.48-64-37.942857 64-35.017143" fill="#1f8ed6"/><path d="m63.0125714 260.626286-63.0125714-36.48 63.0125714-37.961143z" fill="#f64743"/><path d="m64 113.846857v-75.8857141l64 37.9428571v72.96" fill="#f96560"/><path d="m128 148.873143v-72.9874287l-64 37.9611427v72.96" fill="#b71d1d"/><path d="m128 148.873143-64-35.017143 64-37.9702857z" fill="#b21a1a"/><path d="m256 224.768-64-37.942857 64-36.48z" fill="#10161a" fill-opacity=".2"/><path d="m192 261.257143v-74.441143l-64 36.48v74.450286l64-36.48zm64-36.48v-74.441143l-64 36.48v74.441143z" fill="#007233"/><path d="m256 224.768-64-37.942857 64-36.48z" fill="#00682c"/><path d="m256 150.336v-74.4502857l-64 37.9611427v72.96" fill="#0759ba"/><path d="m256 150.336-64-36.48 64-37.9702857z" fill="#0860bf"/><path d="m0 75.8857143 64 36.4982857 64-36.48-62.5371429 38.674286-1.4628571 71.936-1.4628571-71.954286z" fill="#febcb7" opacity=".78"/><path d="m128 75.8857143 64 36.4982857 64-36.48-62.537143 38.674286-1.462857 72.228571-1.462857-72.228571" fill="#4edcf8" opacity=".78"/><path d="m64 186.816 64 35.035429 64-35.035429-62.537143 37.211429-1.462857 73.664-1.462857-73.654858-62.537143-37.211428z" fill="#00f3c9" opacity=".78"/></svg>