<svg height="256" preserveAspectRatio="xMidYMid" viewBox="0 0 256 256" width="256" xmlns="http://www.w3.org/2000/svg"><path d="m0 222.991225c0 18.232249 14.7785318 33.008775 33.0087747 33.008775h189.9824503c18.232249 0 33.008775-14.778532 33.008775-33.008775v-189.9824503c0-18.2322484-14.778532-33.0087747-33.008775-33.0087747h-189.9824503c-18.2322484 0-33.0087747 14.7785318-33.0087747 33.0087747z" fill="#563d7c"/><path d="m106.157563 113.238095v-36.2535012h31.911765c3.039231 0 5.969874.2532655 8.792017.759804 2.822143.5065384 5.318616 1.4110579 7.489495 2.7135854 2.17088 1.3025275 3.907557 3.1115664 5.210084 5.4271709 1.302528 2.3156044 1.953782 5.2824282 1.953782 8.9005602 0 6.5126377-1.953762 11.2161387-5.861345 14.1106447-3.907582 2.894505-8.900529 4.341736-14.978991 4.341736zm-34.082633-62.738095v155h75.112045c6.946813 0 13.712619-.868339 20.297619-2.605042s12.446286-4.414081 17.584033-8.032213c5.137748-3.618132 9.226176-8.285452 12.265407-14.002101 3.03923-5.716648 4.558823-12.482454 4.558823-20.297619 0-9.696594-2.35175-17.981992-7.055322-24.856442-4.703572-6.874451-11.831185-11.686495-21.383053-14.436275 6.946813-3.328681 12.193026-7.598013 15.738795-12.808123 3.54577-5.21011 5.318628-11.7226501 5.318628-19.5378153 0-7.236264-1.193966-13.3146345-3.581933-18.2352941-2.387967-4.9206595-5.752779-8.8643642-10.094538-11.8312325-4.341758-2.9668682-9.55179-5.1015341-15.630252-6.4040616s-12.808086-1.9537815-20.189076-1.9537815zm34.082633 128.515406v-42.549019h37.121849c7.380989 0 13.314637 1.700496 17.80112 5.10154 4.486484 3.401044 6.729692 9.081426 6.729692 17.041317 0 4.052308-.687435 7.380939-2.062325 9.985994s-3.22011 4.667359-5.535714 6.186975c-2.315605 1.519615-4.992982 2.605039-8.032213 3.256302-3.039231.651264-6.223139.976891-9.551821.976891z" fill="#fff"/></svg>