<svg height="256" preserveAspectRatio="xMidYMid" viewBox="0 0 256 256" width="256" xmlns="http://www.w3.org/2000/svg" xmlns:xlink="http://www.w3.org/1999/xlink"><defs><path id="a" d="m256 9.14285714c0-5.04941714-4.09344-9.14285714-9.142857-9.14285714h-237.71428586c-5.04941714 0-9.14285714 4.09344-9.14285714 9.14285714v237.71428586c0 5.049417 4.09344 9.142857 9.14285714 9.142857h237.71428586c5.049417 0 9.142857-4.09344 9.142857-9.142857z"/><mask id="b" fill="#fff"><use fill="#fff" xlink:href="#a"/></mask></defs><use fill="#1f5296" xlink:href="#a"/><path d="m9.14285714 0h237.71428586c5.049417 0 9.142857 4.09344 9.142857 9.14285714v109.71428586c0 5.049417-4.09344 9.142857-9.142857 9.142857h-237.71428586c-5.04941714 0-9.14285714-4.09344-9.14285714-9.142857v-109.71428586c0-5.04941714 4.09344-9.14285714 9.14285714-9.14285714" fill="#4ba2d9" mask="url(#b)"/><path d="m9.14285714 128h237.71428586c5.049417 0 9.142857 4.09344 9.142857 9.142857v109.714286c0 5.049417-4.09344 9.142857-9.142857 9.142857h-237.71428586c-5.04941714 0-9.14285714-4.09344-9.14285714-9.142857v-109.714286c0-5.049417 4.09344-9.142857 9.14285714-9.142857" fill="#1f5296" mask="url(#b)"/><path d="m54.8571429 54.8571429 73.1428571 73.1428571-73.1428571 73.142857-73.1428572-73.142857z" fill="#356eb6" mask="url(#b)"/><path d="m54.8571429 205.021623-77.0216229-77.021623 77.0216229-77.0216229 77.0216231 77.0216229zm-69.2640915-77.021623 69.2640915 69.264091 69.2640911-69.264091-69.2640911-69.2640914z" fill="#fff" mask="url(#b)"/><path d="m201.142857 54.8571429 73.142857 73.1428571-73.142857 73.142857-73.142857-73.142857z" fill="#356eb6" mask="url(#b)"/><g fill="#fff"><path d="m201.142857 205.021623-77.021623-77.021623 77.021623-77.0216229 77.021623 77.0216229zm-69.264091-77.021623 69.264091 69.264091 69.264092-69.264091-69.264092-69.2640914z" mask="url(#b)"/><path d="m53.9428571-19.2h2.1942858v294.4h-2.1942858z" mask="url(#b)"/><path d="m127.085714-19.2h2.194286v294.4h-2.194286z" mask="url(#b)"/><path d="m200.228571-19.2h2.194286v294.4h-2.194286z" mask="url(#b)"/></g><path d="m54.8571429 32c12.6237257 0 22.8571428 10.2334171 22.8571428 22.8571429 0 12.6237257-10.2334171 22.8571428-22.8571428 22.8571428-12.6237258 0-22.8571429-10.2334171-22.8571429-22.8571428 0-12.6237258 10.2334171-22.8571429 22.8571429-22.8571429" fill="#1f5296" mask="url(#b)"/><path d="m54.8571429 82.2857143c-15.1241143 0-27.4285715-12.3044572-27.4285715-27.4285714 0-15.1241143 12.3044572-27.4285715 27.4285715-27.4285715 15.1241142 0 27.4285714 12.3044572 27.4285714 27.4285715 0 15.1241142-12.3044572 27.4285714-27.4285714 27.4285714zm0-45.7142857c-10.0827429 0-18.2857143 8.2029714-18.2857143 18.2857143 0 10.0827428 8.2029714 18.2857142 18.2857143 18.2857142 10.0827428 0 18.2857142-8.2029714 18.2857142-18.2857142 0-10.0827429-8.2029714-18.2857143-18.2857142-18.2857143z" fill="#fff" mask="url(#b)"/><path d="m201.142857 32c12.623726 0 22.857143 10.2334171 22.857143 22.8571429 0 12.6237257-10.233417 22.8571428-22.857143 22.8571428s-22.857143-10.2334171-22.857143-22.8571428c0-12.6237258 10.233417-22.8571429 22.857143-22.8571429" fill="#1f5296" mask="url(#b)"/><path d="m201.142857 82.2857143c-15.124114 0-27.428571-12.3044572-27.428571-27.4285714 0-15.1241143 12.304457-27.4285715 27.428571-27.4285715 15.12448 0 27.428572 12.3044572 27.428572 27.4285715 0 15.1241142-12.304092 27.4285714-27.428572 27.4285714zm0-45.7142857c-10.082743 0-18.285714 8.2029714-18.285714 18.2857143 0 10.0827428 8.202971 18.2857142 18.285714 18.2857142s18.285714-8.2029714 18.285714-18.2857142c0-10.0827429-8.202971-18.2857143-18.285714-18.2857143z" fill="#fff" mask="url(#b)"/><path d="m54.8571429 178.285714c12.6237257 0 22.8571428 10.233417 22.8571428 22.857143s-10.2334171 22.857143-22.8571428 22.857143c-12.6237258 0-22.8571429-10.233417-22.8571429-22.857143s10.2334171-22.857143 22.8571429-22.857143" fill="#4ba2d9" mask="url(#b)"/><path d="m54.8571429 228.571429c-15.1241143 0-27.4285715-12.304458-27.4285715-27.428572s12.3044572-27.428571 27.4285715-27.428571c15.1241142 0 27.4285714 12.304457 27.4285714 27.428571s-12.3044572 27.428572-27.4285714 27.428572zm0-45.714286c-10.0827429 0-18.2857143 8.202971-18.2857143 18.285714s8.2029714 18.285714 18.2857143 18.285714c10.0827428 0 18.2857142-8.202971 18.2857142-18.285714s-8.2029714-18.285714-18.2857142-18.285714z" fill="#fff" mask="url(#b)"/><path d="m201.142857 178.285714c12.623726 0 22.857143 10.233417 22.857143 22.857143s-10.233417 22.857143-22.857143 22.857143-22.857143-10.233417-22.857143-22.857143 10.233417-22.857143 22.857143-22.857143" fill="#4ba2d9" mask="url(#b)"/><path d="m201.142857 228.571429c-15.124114 0-27.428571-12.304458-27.428571-27.428572s12.304457-27.428571 27.428571-27.428571c15.12448 0 27.428572 12.304457 27.428572 27.428571s-12.304092 27.428572-27.428572 27.428572zm0-45.714286c-10.082743 0-18.285714 8.202971-18.285714 18.285714s8.202971 18.285714 18.285714 18.285714 18.285714-8.202971 18.285714-18.285714-8.202971-18.285714-18.285714-18.285714z" fill="#fff" mask="url(#b)"/></svg>