<svg height="300" preserveAspectRatio="xMidYMid" viewBox="0 0 256 300" width="256" xmlns="http://www.w3.org/2000/svg"><path d="m91.3515335 212.095914c2.8545108 0 5.1913269 2.315246 5.1913269 5.176947l-.0143805 29.37917c0 2.854511 1.8047411 3.717336 4.0193241 1.905404l40.538366-33.182788c2.214583-1.811931 6.35614-3.285923 9.210651-3.285923l67.063026.043141c7.966746-.467363 14.739917-9.857769 15.221661-17.378721l-.086283-93.70273c0-2.8545111 2.336816-4.5801599 5.198517-4.5801599h12.985508c2.85451 0 5.191326 1.7184586 5.191326 4.5801599l.129424 96.068307c0 20.772497-15.710594 43.1556-39.078755 43.1556h-58.269408c-2.854511 0-7.003258-.927536-9.210651.877205l-72.2903041 57.960229c-2.2145826 1.811931-4.0193236.35232-4.0193236-2.502191l.0287608-55.666554c0-2.847321-2.3368161-5.342321-5.1913269-5.342321l-26.0501067-.035951c-20.3051342 0-40.81159418-19.844961-41.9188855-40.164476v-40.444894c0-2.861701 3.72452533-.970677 6.58622627-.970677h12.98550723c2.8545107 0 5.1913268.222896 5.1913268 3.077407l.1366139 37.899562c0 7.319627 9.1459387 16.472755 16.7028424 17.637568zm-33.6070104-79.91911c-1.3301876 2.530952-4.7527244 4.59454-7.6144254 4.59454h-43.54387143c-2.85451073 0-5.19132682-2.336816-5.19132682-5.191327v-12.985507c0-2.854511 2.33681609-5.191327 5.19132682-5.191327h29.42231213c2.8545107 0 6.2842377-2.070779 7.6144253-4.59454l39.3951242-74.8284462c1.3301876-2.5237613 3.6598135-2.617234 5.1769464-.2013257l33.2546907 52.9055163c1.524323 2.4230985 3.89709 2.3511965 5.277609-.1509943l46.384002-83.93124368c1.380519-2.49500056 3.774857-2.5740928 5.32075-.17256488l31.80227 49.46859906c1.545893 2.4015279 5.140995 4.3644534 8.002696 4.3644534h32.435007c2.854511 0 5.191327 2.3368161 5.191327 5.198517v12.9783171c0 2.8545107-2.336816 5.198517-5.191327 5.198517h-45.211998c-2.854511 0-6.456803-1.9629255-8.002697-4.3644534l-17.544096-27.2149197c-1.545894-2.4015279-3.947421-2.3224357-5.327941.1797551l-46.563756 84.2188519c-1.380519 2.495-3.753287 2.559712-5.27761.150994l-32.7298053-52.1074035c-1.5171329-2.4159083-3.853949-2.3296259-5.1841366.1941355z" fill="#0385cd"/></svg>