<svg height="252" preserveAspectRatio="xMidYMid" viewBox="0 0 256 252" width="256" xmlns="http://www.w3.org/2000/svg" xmlns:xlink="http://www.w3.org/1999/xlink"><linearGradient id="a" x1="46.64585%" x2="57.362591%" y1="-2.088643%" y2="137.781163%"><stop offset="0" stop-color="#ff992e"/><stop offset=".635" stop-color="#ff4c2e"/><stop offset="1" stop-color="#e3302e"/></linearGradient><path d="m51.5348709 251.616129c-15.0398164 0-27.7484613-11.580659-29.8540356-26.319679-.2255972-2.105574-21.05574293-190.5544741-21.05574293-192.6600484-.22559725-.5263936-.52639357-1.0527871-.52639357-1.5791807l.05013272-6.3167229c0-5.2639358 2.05544157-10.5278715 6.26659017-13.6862329 3.50929051-4.73754221 11.58065861-11.0542651 121.59691531-11.0542651 109.765594 0 117.912161 6.31672289 121.596916 11.0542651 3.709821 3.684755 5.790329 8.4222971 5.790329 14.2126265l-.075199 5.2639357c0 1.0527872.075199 1.5791807-.451194 2.6319679l-22.359194 192.1336548c0 .526393-.27573 1.052787-.27573 1.579181-2.732233 14.212626-15.265414 24.740498-29.47804 24.740498z" fill="#e5d1bf"/><path d="m247.553809 24.9510554c0-3.684755-1.478915-6.8431164-3.584489-8.9486907-5.4394-6.31672293-55.271326-8.42229723-116.33298-8.42229723-60.8109916 0-110.5426509 1.57918072-116.3329802 7.89590363-2.13064069 2.6319679-3.68475506 5.2639357-3.68475506 8.9486907l.05013273 5.7903294c0 .5263935-.05013273 1.0527871.47626085 1.5791807-.22559725.5263936 21.05574298 192.1336551 21.05574298 192.1336551 1.529048 11.054265 11.054265 19.476562 22.1085301 19.476562h151.1250886c11.530526 0 21.00561-8.422297 22.058397-19.476562h.250664l22.559724-192.1336551v-1.5791807-5.2639358z" fill="#fef9ec"/><ellipse cx="127.109946" cy="23.371875" fill="#e5d1bf" rx="105.805108" ry="5.790329"/><path d="m213.964886 205.504051c-.250663 6.843117-5.263936 12.107053-12.107052 12.107053h-149.5709745c-6.5172538 0-11.5054596-5.263936-12.0318532-12.107053-1.0026544-17.897381-7.36951-71.589526-7.36951-71.589526-.1503982-4.737542 2.1055743-7.36951 7.36951-7.36951h173.7098797c4.762608 0 7.36951 2.631968 7.36951 7.36951.150398 0-6.843117 53.692145-7.36951 71.589526z" fill="url(#a)"/><g fill="#fef9ec"><path d="m97.1556472 136.335936c-3.007963 3.684755-2.306105 9.475084 1.9050436 12.633446l32.6865342 25.793285c4.010618 2.631968 9.951345 2.105574 12.583313-2.105575l25.517555-33.162795c3.007964-3.684755 2.381305-9.475084-1.829844-12.633446l-32.761733-25.793285c-4.010618-2.6319676-9.876147-2.105574-13.034508 2.105575z" opacity=".65"/><path d="m65.8226966 112.121831c-5.0132724.526394-8.3470982 5.263936-7.8207046 10.001478l5.3140684 41.585093c.7519911 5.263935 5.2138031 8.422297 10.4777388 7.895903l40.9083008-5.263936c5.013272-1.052787 8.572695-5.263935 7.519908-10.527871l-5.013272-41.585092c-.751991-4.737543-5.514599-8.422298-10.252142-7.36951z" opacity=".65"/></g></svg>