<svg height="225" preserveAspectRatio="xMidYMid" viewBox="0 0 256 225" width="256" xmlns="http://www.w3.org/2000/svg"><path d="m250.862897 110.127448c-13.125518-12.6118618-78.758069-20.4849652-99.467587-22.7768273 1.003035-2.3691035 1.857104-4.8193104 2.562207-7.3423448 2.823173-1.2364138 5.870897-2.3867587 9.021793-3.3473104.384 1.1326897 2.192552 5.4725517 3.223173 7.5321379 41.643586 1.1486897 43.781517-30.9467586 45.47531-39.7395862 1.656276-8.5975172 1.571862-16.9048275 15.856-32.0915862-21.280552-6.20137928-51.883586 9.6115862-62.134069 33.1475862-3.852138-1.4433103-7.712552-2.5092413-11.531034-3.1685517-2.736552-11.0377931-16.98538-41.78924136-54.3768279-41.78924136-47.3417931 0-98.94013796 39.05599996-98.94013796 105.17020686 0 55.575172 37.94317246 104.279724 59.38096556 104.279724 9.3622069 0 17.4157241-7.010758 19.3064827-13.295448 1.5851035 4.308965 6.4485517 17.704827 8.0457931 21.115034 2.3608276 5.042759 13.2788965 9.406345 18.0568275 4.173242 6.143448 3.412965 17.415724 5.468689 23.559724-3.633104 11.831724 2.502621 22.291862-4.552827 22.520276-12.971586 5.805793-.310069 8.653793-8.461793 7.385931-14.953931-.934621-4.779586-10.918069-21.929931-14.812138-27.849931 7.70869 6.270345 27.234759 8.045241 29.606069.003862 12.42869 9.755586 31.797517 4.635035 33.333517-3.298759 15.101794 3.923863 32.423173-4.694068 29.579035-15.131586 24.260965-1.677793 21.155862-27.490758 14.34869-34.032z" fill="#543729"/><path d="m183.311448 55.0758621c5.22538-10.3674483 11.791449-21.6877242 20.084966-28.6913104-9.128276 3.6788966-18.14069 14.6764138-23.469242 26.4308966-2.716138-1.7263449-5.473655-3.2662069-8.254344-4.6129655 7.433379-15.8664828 24.705655-29.1172414 43.740689-30.1522759-12.749793 11.5630345-8.224 35.5961379-18.706758 48.3188965-2.999725-3.0129655-9.887449-8.8275862-13.395311-11.2932413zm-8.241655 16.8822069c.005517-.3966897.153931-3.4571035.432552-4.854069-.731035-.1721379-5.275035-1.0609655-7.644138-1.0052414-.17269 2.9754483 1.250207 8.0375173 2.656552 11.0846897 9.685517-.2030345 16.681379-3.1034483 20.798896-5.7699311-3.505655-1.6342069-9.487448-3.0868965-14.035862-3.955862-.507586 1.049931-1.75669 3.7252414-2.208 4.5004138z" fill="#00acee"/><path d="m139.080276 153.98069.009931.046344c-1.227586-2.641655-2.53131-5.850482-4.088276-10.044689 6.062345 8.824276 25.062621 4.273103 24.066207-3.634207 9.299862 6.997517 28.443034-1.165793 24.091034-10.977655 9.315862 4.340965 19.94869-4.39338 17.564138-8.199173 15.882483 3.063173 31.102897 6.116414 35.880828 7.339035-3.174069 5.175172-10.402759 8.829793-21.29931 6.290207 5.888 8.020965-5.543725 17.643586-21.466483 12.343724 3.505103 7.874207-10.672 14.96331-26.785104 6.755862.20469 7.877517-19.989517 8.784552-27.972965.080552zm31.506207-39.816276c18.433655 1.415172 48.917517 4.163862 67.789793 6.804965-1.192276-6.141793-4.449104-7.896276-14.694069-10.648276-11.018483 1.175173-38.97269 3.921104-53.095724 3.843311z" fill="#2baf2b"/><path d="m159.068138 140.348138c9.299862 6.997517 28.443034-1.165793 24.091034-10.977655 9.315862 4.340965 19.94869-4.39338 17.564138-8.199173-18.777379-3.620413-38.481103-7.254069-42.95062-7.889103 2.711172.144 7.204965.451862 12.813793.882759 14.123586.077793 42.077793-2.668138 53.095724-3.843311-17.840552-4.523586-54.265379-11.1249653-79.42069-12.7514481-1.165793 1.7037241-3.308689 4.5931031-7.041103 7.6634481-11.005793 23.286621-30.946759 38.765242-53.0102071 38.765242-6.4297931 0-13.6237241-1.08469-21.6871724-3.662345-5.0284138 5.387034-26.4678621 9.469241-43.8637242.930758 13.7986207 32.310069 45.7986207 53.878069 81.2198621 53.878069 29.8317246 0 43.0598616-30.462896 40.1649656-38.523034-.702345-1.956966-3.485793-8.445793-5.04331-12.639448 6.063448 8.823724 25.063172 4.272551 24.06731-3.634759z" fill="#ffcc2f"/><path d="m140.989241 79.0388966c2.633931-1.4328276 11.736276-6.950069 20.409931-9.0234483-.136827-.9605517-.24-1.9293793-.304-2.9037242-5.690482 1.3627587-16.418758 5.9608276-22.56662-.3757241 12.970482 3.913931 19.44662-3.4874483 28.979862-3.4874483 5.680552 0 13.786483 1.5867586 20.176 4.0954483-5.139311-4.7475862-21.992276-19.0758621-42.858483-19.1255172-4.658759 5.648-9.694345 17.8824827-3.83669 30.8204138z" fill="#cecece"/><path d="m62.5230345 140.336552c8.0634483 2.577655 15.2573793 3.662345 21.6871724 3.662345 22.0634481 0 42.0038621-15.479173 53.0102071-38.765242-8.140138 6.795035-22.287448 12.609104-44.3812416 12.609104 19.6794486-4.462345 36.6206896-14.269242 45.2386206-28.6041383-6.057931-9.641931-12.628414-30.9726897 4.010483-47.8355862-2.559448-8.2228966-15.017379-29.9299311-42.5964139-29.9299311-48.1302069 0-88.0182069 40.2742069-88.0182069 94.2482756 0 12.776828 2.5793103 24.759724 7.1862069 35.54538 17.3953103 8.539034 38.8347586 4.456827 43.8631724-.930207z" fill="#ef5734"/><path d="m76.9633103 58.1555862c0 12.2769655 9.9525518 22.2306207 22.230069 22.2306207 12.2775177 0 22.2311727-9.9536552 22.2311727-22.2306207 0-12.2775172-9.953655-22.2306207-22.2311727-22.2306207-12.2775172 0-22.230069 9.9531035-22.230069 22.2306207z" fill="#ffcc2f"/><path d="m85.8835862 58.1555862c0 7.350069 5.9597241 13.3092414 13.3092414 13.3092414 7.3511724 0 13.3097934-5.9591724 13.3097934-13.3092414 0-7.3506207-5.958069-13.3097931-13.3097934-13.3097931-7.3495173 0-13.3092414 5.9591724-13.3092414 13.3097931z" fill="#543729"/><ellipse cx="99.192828" cy="52.249931" fill="#fff" rx="7.755586" ry="4.822069"/></svg>