<svg height="256" preserveAspectRatio="xMidYMid" viewBox="0 0 256 256" width="256" xmlns="http://www.w3.org/2000/svg"><path d="m213.564 256h-171.128c-23.437 0-42.436-18.999-42.436-42.436v-171.128c0-23.437 18.999-42.436 42.436-42.436h171.128c23.437 0 42.436 18.999 42.436 42.436v171.128c0 23.437-18.999 42.436-42.436 42.436" fill="#00aeef"/><g fill="#fff"><path d="m131.02 107.786c-13.319 0-24.909 7.492-30.746 18.491-5.839-10.999-17.423-18.491-30.751-18.491-7.826 0-15.056 2.589-20.89 6.961v-29.323c-.069-3.789-3.159-6.822-6.961-6.822s-6.862 3.033-6.949 6.822v57.742h.007c.307 18.959 15.757 34.232 34.793 34.232 13.328 0 24.912-7.499 30.751-18.487 5.837 10.988 17.427 18.487 30.746 18.487 19.216 0 34.804-15.582 34.804-34.813 0-19.221-15.588-34.799-34.804-34.799m-61.497 55.677c-11.531 0-20.89-9.341-20.89-20.873 0-11.528 9.359-20.87 20.89-20.87 11.53 0 20.869 9.342 20.869 20.865 0 11.534-9.339 20.878-20.869 20.878m61.497 0c-11.534 0-20.886-9.344-20.886-20.878 0-11.523 9.352-20.865 20.886-20.865 11.529 0 20.876 9.342 20.876 20.865 0 11.534-9.347 20.878-20.876 20.878"/><path d="m219.83 165.745-18.918-23.205 18.941-23.25c2.395-3.067 1.708-7.35-1.598-9.625-3.31-2.295-7.954-1.707-10.515 1.269v-.004l-16.296 19.972-16.281-19.972v.004c-2.535-2.976-7.208-3.564-10.508-1.269-3.3 2.277-3.99 6.558-1.583 9.625h-.007l18.908 23.25-18.908 23.205h.007c-2.407 3.077-1.717 7.346 1.583 9.631s7.973 1.703 10.508-1.277l16.281-19.944 16.273 19.944c2.564 2.98 7.206 3.562 10.516 1.277 3.307-2.285 3.997-6.554 1.597-9.631"/></g></svg>