<svg height="256" preserveAspectRatio="xMidYMid" viewBox="0 0 256 256" width="256" xmlns="http://www.w3.org/2000/svg"><path d="m256 127.996353c0-70.5960396-57.422197-127.996353-127.996353-127.996353-70.5741556 0-128.003647 57.4003134-128.003647 127.996353 0 66.693489 51.2729449 121.628266 116.471064 127.471149h.313663c1.069858.092397 2.142148.172637 3.216869.240719l.620031.036472c.972598.058356 1.959785.102123 2.961561.131301h.780511c1.210884 0 2.421769.058356 3.647243.058356 1.225473 0 2.312352 0 3.464881-.051062h.48873c1.016365-.029178 2.027868-.070513 3.034507-.124006h.204245c2.271017-.126438 4.527445-.313663 6.769284-.561676 64.023707-6.944351 114.027411-61.339336 114.027411-127.201253zm-114.46508 115.019461-1.232769-35.400142 30.914034-18.965665c7.234215 4.958507 16.639649 5.435855 24.338711 1.235246 7.699062-4.200608 12.388008-12.367849 12.133721-21.134605-.495499-12.277667-10.335241-22.117409-22.612908-22.612908-6.956008-.24955-13.655608 2.641646-18.245923 7.873982-4.590314 5.232336-6.584847 12.251274-5.43198 19.115618l-21.817809 13.4948-1.582903-44.605784 30.425302-18.608235c10.688471 7.982005 25.569948 7.116032 35.260444-2.051852 9.690497-9.167884 11.379313-23.9785607 4.001512-35.0926901-7.3778-11.1141294-21.682308-15.3080906-33.893363-9.9372488-12.211055 5.3708419-18.786877 18.7486899-15.580874 31.6977189l-20.94247 12.998775-1.240063-35.5970938c9.96419-3.8528211 16.367838-13.6240319 15.923864-24.2979342-.518822-12.4461779-10.1443-22.5995964-22.545078-23.7816359-12.400778-1.1820396-23.771135 6.9700604-26.631983 19.0940887-2.8608493 12.1240284 3.665786 24.4991956 15.286877 28.9854814l-2.26129 73.7545518-22.7952705-14.523322c1.5208547-6.214971.7947996-12.767554-2.0497507-18.498818-4.5590539-9.482832-13.7501068-16.208349-24.2322838-16.864852-12.9635392-.846118-24.8978533 7.06368-29.1690421 19.332593-4.2711887 12.268912.1710713 25.879904 10.8574712 33.267063 10.6863998 7.38716 24.9890582 6.733918 34.9575889-1.596607l31.774783 20.103604-1.911156 62.477276c-56.8969936-7.258014-101.0869922-56.007067-101.0869922-114.880866.043767-63.8559341 51.9950991-115.8218552 115.8583272-115.8218552 63.863229 0 115.814561 51.9513321 115.814561 115.8145602 0 59.289586-44.780852 108.30124-102.283288 115.026756z" fill="#333e48"/><path d="m127.272727 47.1636364c8.323122.0080184 15.068345 6.7532415 15.076364 15.0763636 0 8.3264457-6.749918 15.0763636-15.076364 15.0763636-8.326445 0-15.076363-6.7499179-15.076363-15.0763636s6.749918-15.0763636 15.076363-15.0763636zm56.836364 108.6399996c7.550306-.004059 13.681039 6.100654 13.709091 13.650909.014704 5.537284-3.308393 10.537918-8.419112 12.669178s-11.002091.973221-14.925873-2.933909c-3.923782-3.907129-5.106867-9.793522-2.997362-14.913259 2.109504-5.119738 7.09596-8.464072 12.633256-8.472919zm8.436364-39.709091c-7.997681 3.886239-17.631868.564217-21.534546-7.425454-2.854564-5.857328-1.899451-12.8574811 2.419929-17.7359834 4.319381-4.8785024 11.152298-6.6745021 17.312268-4.5504466 6.159969 2.1240556 10.433744 7.7498201 10.828278 14.253755.394535 6.503936-3.167878 12.60505-9.025929 15.458129zm-128.1854567 4.48c9.5923724.008021 17.3665251 7.782174 17.3745455 17.374546-.0040167 9.589785-7.77991 17.361337-17.369696 17.359998s-17.3635089-7.775062-17.3648478-17.364848 7.7702131-17.365679 17.3599983-17.369696z" fill="#009bde"/></svg>