<svg height="241" preserveAspectRatio="xMidYMid" viewBox="0 0 256 241" width="256" xmlns="http://www.w3.org/2000/svg"><path d="m0 240.881233h209.07898v-31.763628h-177.2972722v-177.3309664h177.3391842v116.3792504h-15.164788l31.020715 31.024003 31.023181-31.024003h-15.119589v-148.165889h-240.880411zm80.6430119-189.5093112c4.0917726-.6574449 8.8155142-1.1554594 14.1794427-1.5408864 5.3828304-.3846053 12.0838374-.5736207 20.1284974-.5736207 7.021511 0 13.677319.5736207 19.925511 1.7290801 6.27038 1.139845 11.725529 3.0883473 16.379417 5.836467 4.655532 2.7555159 8.336401 6.4100876 11.019598 11.0228854 2.680732 4.5914307 4.020276 10.3366772 4.020276 17.2447794 0 4.0843764-.591701 7.8827642-1.822766 11.4009162-1.200659 3.4951414-2.835231 6.5686962-4.880707 9.2034062-2.047119 2.612522-4.338314 4.772229-6.904815 6.493912-2.54842 1.728259-5.160942 2.793319-7.841673 3.155736 2.933026.392001 6.179982 1.298453 9.770452 2.710316 3.567461 1.3831 6.885092 3.472953 9.951251 6.221073 3.070267 2.748119 5.636768 6.2975 7.678134 10.630883 2.046297 4.341602 3.068624 9.565824 3.068624 15.704715 0 8.312569-1.566362 15.108084-4.703196 20.415308-3.132725 5.300649-7.338729 9.475424-12.65828 12.548979-5.291609 3.064515-11.426392 5.171626-18.376406 6.311471-6.973025 1.155459-14.289565 1.72908-21.944689 1.72908-5.885775 0-11.677043-.158609-17.426398-.475826-5.7682575-.316395-12.2687438-.936037-19.5622731-1.819478zm27.7885521 116.8690472v-39.857596h11.495424c3.974254 0 7.564725.324613 10.83387.959047 3.251065.633613 6.070681 1.752091 8.430087 3.367762 2.362692 1.585264 4.178884 3.699771 5.455149 6.311471 1.272156 2.612521 1.9296 5.903855 1.9296 9.860851 0 4.220796-.842351 7.633757-2.499112 10.268468-1.657583 2.612521-3.77209 4.657997-6.316402 6.138069-2.5665 1.449666-5.319551 2.445695-8.248468 2.951928-2.929738.521025-5.745246.770032-8.430087.770032-1.928779 0-4.061366-.067388-6.42488-.181619-2.366802-.134776-4.432-.323791-6.225181-.588413zm8.425978-60.937745h-8.425978v-36.7766453c2.430902-.3854271 5.428851-.5736207 9.015213-.5736207 2.548421 0 5.13711.2112042 7.749631.6640194 2.612522.4528151 4.976036 1.343653 7.089722 2.6807315 2.11122 1.343653 3.835369 3.2009348 5.179844 5.5644492 1.341187 2.3626925 1.996989 5.38283 1.996989 9.0899974 0 3.8353691-.566225 6.9993226-1.702783 9.498435-1.158746 2.4917161-2.748941 4.4689815-4.794417 5.9268655-2.042188 1.471855-4.455011 2.499113-7.202308 3.065337-2.725931.589235-5.700048.860431-8.905913.860431z" fill="#40d1f6" fill-rule="evenodd"/></svg>