<svg height="256" preserveAspectRatio="xMidYMid" viewBox="0 0 256 256" width="256" xmlns="http://www.w3.org/2000/svg"><path d="m115.665455 146.618182c2.094545-20.014546 14.661818-36.305455 29.323636-36.305455s22.574545 16.290909 20.48 36.305455c-2.094546 20.014545-14.196364 36.538182-27.927273 36.538182s-24.901818-12.567273-21.876363-36.538182m12.334545 90.763636c-32.5796834.046455-63.4768683-14.463273-84.2472727-39.563636 18.1527272 5.818182 38.4.698182 54.2254545-14.894546 1.6712466-1.676493 3.2263612-3.464875 4.6545452-5.352727 7.214546 15.592727 21.178182 23.505455 35.141818 23.505455 23.738182 0 43.752728-24.436364 46.08-54.690909 2.327273-30.254546-14.661818-54.225455-37.236363-54.225455-8.191364-.113559-16.251671 2.0627238-23.272727 6.2836364l6.981818-40.7272728c.695982-3.2600182-.069317-6.6613451-2.094546-9.3090909-2.094545-3.2581818-3.956363-4.6545454-6.749091-4.6545454h-32.5818178c-1.9262234.1003739-3.4993278 1.5751593-3.7236364 3.4909091-.8657373 3.8355745-1.487589 7.7221477-1.8618182 11.6363636-.2327272 2.56 1.6290909 3.4909091 3.7236364 3.4909091h23.738182c-3.723637 23.2727273-11.1709093 68.4218179-13.2654547 79.8254549-2.1956388 10.794097-7.4463603 20.730078-15.1272728 28.625454-13.0327272 13.032727-37.0036363 16.058182-51.2 1.861818-4.8872727-5.12-12.5672727-17.687272-12.5672727-44.683636 0-60.4099101 48.9719081-109.3818182 109.3818182-109.3818182 60.40991 0 109.381818 48.9719081 109.381818 109.3818182 0 60.40991-48.971908 109.381818-109.381818 109.381818m0-237.381818c-70.692448 0-128 57.307552-128 128s57.307552 128 128 128 128-57.307552 128-128c0-33.9477107-13.485676-66.5050116-37.490332-90.509668s-56.561957-37.490332-90.509668-37.490332" fill="#212124"/></svg>