<svg height="266" preserveAspectRatio="xMidYMid" viewBox="0 0 256 266" width="256" xmlns="http://www.w3.org/2000/svg"><path d="m99.3160509 250.602761c1.2288801 2.51664 3.3120481 5.28128 5.5252101 7.184586 2.704528 2.325867 6.074891 3.97072 9.641558 5.291147 2.490064.921866 5.780266 1.725226 8.44136 2.203146 2.758063.49536 6.14417.486294 9.335498.451307 5.671099-.062293 10.14712-.59008 15.199088-1.8208 3.182922-.775413 6.205877-1.636053 8.660256-2.60176 4.633482-1.823093 7.587472-3.847306 8.203909-5.160746-.462752-2.171307-1.190373-5.590187-1.732347-8.6632-.573472-3.251627-.95528-6.15648-1.202858-8.304854-.693846-6.020821-.336923-10.256778.432336-17.260325 1.132949-10.314746 3.335808-15.013493 6.552016-21.143178 3.071717-5.854315 8.142554-14.037162 12.050367-19.308549 4.073691-5.495147 14.273104-16.23481 17.993579-20.225866 1.29793.383882 3.803994 1.219637 7.679402 1.984741 2.953579.583109 6.392662 1.277877 10.72016 1.132165 10.304117-.34696 14.055035-2.317066 20.04888-6.224709 5.438277-3.54544 10.641642-10.639584 13.366288-17.437562 2.095024-5.227072 2.739488-10.549035 1.827776-16.794694-.61328-4.201263-1.970742-9.176031-3.05551-12.465749-1.179952-3.5784-3.032538-7.421888-4.588373-10.330624 0 0 6.255211-7.4735407 8.758245-13.708362 2.155488-5.3690986 3.160251-12.2776051 2.728982-16.5954611-.4476-4.4813759-4.251824-12.7029011-6.642747-15.6370077-3.149989-3.8656155-6.229771-7.8733594-10.120795-11.0162873-3.81393-3.080656-8.133066-5.6022826-12.656943-7.4920053-4.687312-1.9579999-10.294918-3.0912266-14.739291-3.8723626-.667493-3.5604693-1.587301-6.0427199-4.037424-10.3270238-3.058933-5.5019146-6.419301-7.9869706-11.700661-11.8537439-6.552576-4.79749802-15.685605-9.74667139-24.550336-10.42413275-3.819093-.29186133-9.417333-.41254933-16.457674 1.10162669-6.121456 1.31654926-12.155744 3.80371189-16.744432 6.14799415-9.212506-3.52834624-17.819461-3.00711425-24.609877-1.16321598-5.726133 1.55489597-6.947968 2.48767463-12.187312 5.57087989-5.1436794 2.222224-10.73145 7.3890346-15.0585326 13.3713758-16.1164104.4576267-29.5317382 6.1264479-39.0830048 11.5466825-10.8641902 6.1653066-20.6126221 17.9493006-24.4297058 25.4451938-4.2602159 8.3661065-8.5154526 20.199685-4.9208495 38.4999776-23.74167696 14.597296-21.29990223 37.946181-7.9529545 50.983365 11.7054131 11.433744 31.097247 14.996528 49.463795 13.144128 5.4878346 5.5624 26.2462716 30.710842 26.2462716 30.710842s20.9090666 23.563914 13.5966505 55.063061zm-22.525797-97.544143c2.8410933-2.841088 5.2763092-6.899792 7.1703732-10.011461 2.1495146.119419 6.5635679.409061 10.9033118.209616 4.3515946-.199989 8.9632851-.842864 10.8073441-1.92056.517429 1.552283 4.118304 14.407957 4.346938 22.307562.29975 10.356859.0112 12.192576-1.662938 15.827829-.911344.430752-1.797659.618608-2.916267.217072-3.984475-1.430261-10.6242344-6.406656-15.3853063-10.847834-7.3727573-6.877392-13.2634558-15.782224-13.2634558-15.782224zm82.0736521-2.187701c-.142379 1.257674-.234064 5.774181.374267 9.718618.617893 4.006422 1.223824 7.72935 2.734826 9.175125 5.309382-.956645 9.017893-4.363039 12.222656-6.75465 0 0 10.402011-8.121184 12.410965-9.98664-1.53064-1.387136-3.683088-4.639728-4.448405-6.600853 0 0-7.319909 2.144208-11.002992 2.909525-4.639733 1.004475-10.091029 1.443211-12.291317 1.538875z" fill="#598527"/></svg>