<svg height="152" preserveAspectRatio="xMidYMid" viewBox="0 0 512 152" width="512" xmlns="http://www.w3.org/2000/svg"><g fill-rule="evenodd" stroke="#fff" stroke-opacity="0"><g fill="#e6b35a"><path d="m108.73574 45.79281c-1.575729.0146605-3.047648.2910398-4.214208.8743169-2.612353 1.3061764-6.1000294.6718727-8.7081966 1.9759563-2.5116705 1.2558325-3.7870094 2.9719334-5.8229508 4.3540984.2370644-.7213661.4765741-1.42599.7169399-2.1333334-.2700786.3194041-.5271194.6495238-.8218579.9442623-.2867872.2867872-.4243445.761856-.4721312 1.3289618-.0477866.5671057-.0193608 1.2155327.0174584 1.8710382.0369311.6555055.0851599 1.3190575.052431 1.8710439-.0244529.4134386-.1580653.6830527-.2972677.9442623 4.4139436-2.0975549 10.2705857-4.3654855 12.1704919-2.4655794 1.577603 1.5776091 2.286894 3.4934571 3.951912 5.1584755.262911.2629162.850592.3809224 1.43388.5420765.334003-.0005595.643856-.0596326.874317-.1748634.139952-.0699733.48424.0228302.594536-.0874316.360045-.3600452.49082-.6831703.891803-1.0841531.300832-.3008321.594535-1.1205245.594535-1.5912568 0-.4922866-.359149-1.4433084-.699453-1.7836065-.11879-.1187952-.874317-.6683419-.874317-.7868909 0-.5890238 2.015523.8439439 2.063388.8918089.131895.1318945-.026971.5500782.104918.6819672.191678.1916783-.032455.5296318.104918.8043716.457409.9148181-.351411 2.414799-.804372 2.8677596-.540901.5409014.679578.2122254.891804 0 .203714-.2037145.41139-.6212211.594535-.8043716.014549-.0145487-.011639-.2797815 0-.2797815.178478 0 .17229 1.5063992 0 1.6786886-.539569.5395696-1.047876.995037-1.923497 1.189071 2.049231 1.5148765 4.94094 2.7726339 6.434973 4.2666667.424171.424171 2.900298-.1374622 3.165027-.4021858 1.881804-1.8818043 3.244709-5.2206654 5.543169-7.5191257.711781-.7117807-.572695-4.1399089-.786885-4.354104-.881821-.881815-.704786-3.0829338-1.975956-4.3540983-2.285619-2.285624-8.072819-4.4680366-12.8-4.4240437z"/><path d="m91.6865595 42.1206788c-.0981026.0236136-.1917398.0868218-.2797814.1748634-.0494654.0494654-.247808-.0494653-.2972678 0-.3046932.3046932-.825372.4231862-1.189071.7868853-1.002317 1.0023169-1.879415 2.0343858-2.9027323 3.0775956-4.8731209 1.757654-9.415652 3.2540593-14.915847 3.8994535.4125881.0408481.8365521.1003688 1.2590164.1748634-.8794425.0835819-2.2856631.0411838-2.7278688.2622951-.1322191.0661124-.8014059.2630897-.926776.2797814.2331307-.0228301 1.0040796.0174584 1.1191257.0174584.6958164 0 1.4284856.2098361 2.0808743.2098361.978211 0 2.136036-.0304962 3.252459-.0524311 1.8420753.6163529 3.5563017 1.4849959 4.7737705 2.4830601.697372.5716998-.1380833 4.4916277-.2972677 5.1934482-.7373976 3.2510881 1.980651 12.5749271.262295 14.6710383-.751879.9171627.4117991 3.5709566.6994536 5.4032787.8899623.6779439 1.6908366 2.8920558 1.9409836 3.3923497.2333265.466653.8393443 1.0326061.8393443 1.5387978 0 .069106-1.1373339-1.1373338-1.2590164-1.2590164-.1739793-.1739793-1.0474625-1.3180782-1.6612022-1.9060109-.0716073.4214627-.1180398 1.0306196-.1398907 1.7486339.3720085.3841902.7755876.7642845.9617486 1.136612.3721429.7442857.7586217 1.4580753 1.2590164 1.9584699.4279537.4279537-.8774169-.2988177-1.1191257-.4196721-.1521843-.0760893-.6041656-.4507838-1.1016393-.8043716.0382741 4.045091.4287034 9.7089917.5945355 11.3836066.347108 3.5050345-.1334446 6.8323179-.1398907 6.7672129-.0085054-.085697-1.6902155 2.068553-2.8327869 3.462295-1.6885984 2.059801-3.7108473 5.271401-5.7879782 7.921312.8975165-.892481 2.0412181-1.988396 3.147541-2.48306 2.5467104-1.138694 8.8150509-6.04874 12.537705-8.638252.8241913.592756 2.5670057-2.049393 5.1409836.52459.3308807.330881 1.37573 3.567214 1.1715847 3.567214-1.8127934 0-2.1431313 1.791289-1.1715847 2.762841.4961475.496148.9798057.265602 1.3639344-.262295.3982576-1.133837.7927271-2.652082.0874317-3.357377-.1165737-.116574.1165737-.582874 0-.699454-.6310246-.631024-.3626359-1.901433-1.1191257-2.657923-.2597155-.259716-1.3787964-.858179-1.6612022-1.468853-.0202562-.019528-.0503047-.032846-.0699453-.052431-.2064172-.206417-.6499491-.178746-.9617487-.279781-.2318269-.304648-.7126872-.884501-.2622951-2.063388.7876351-2.061575 1.0047679-5.8260452.7868853-8.0262295-.0733195-.7403576.0174024-2.3168811.1923497-4.1267759.0016787-.0055957-.0016787-.0120866 0-.0174584.2793841-1.0708522.7178184-2.2225277 1.1016394-2.9901639.2989408-.5978817-.0495214-1.9089487.4021857-2.3606558.2423187-.2423187.2118841-.7566353.1923498-1.2590164-1.2952481.3315858-2.825009.6972657-3.4098361.874317.0710085-.0669014.1473105-.1473105.1923497-.1923498.157696-.157696.6959955-.2780523.979235-.4196721.9390136-.4695068 1.7921903-.9683962 2.3256831-1.2240437.0276424-.060735.060679-.113138.104918-.1573771.8377327-.8377327.0936037-3.4057736-.7519126-5.2109289-.0323987-.4646834-.0288175-.9132625.0349727-1.3464481.3858186-2.6189164.3595135-5.3051873.2972678-7.9912568-.1410211-.0073303-.2959976-.0174584-.4721312-.0174584-.0753507 0-1.7377112-.0878402-2.1508196-.0349727.1089133-.044821.4167176-.2171048.7519125-.3846994.1953154-.0976549 1.0958703-.2074468 1.8535519-.2972678-.011471-.4790585-.0261316-.9549331-.0349726-1.4338798-1.3116209.1100884-3.2868554.2617244-3.0775957.0524311.3352285-.3352285 2.1688488-.3150227 2.6579235-.5595629.0560458-.0280341.2072901-.0881199.4021858-.157377-.020424-1.5993257.0011191-3.1929999.1398907-4.7737705.164159-.1006542.3728423-.2127738.5420765-.3147541.1127799-.2736654.2087449-.5479184.1923498-.9617542-.021879-.5525236-.1259856-1.2048731-.2273224-1.853552-.1013425-.6486732-.2015042-1.3019852-.2098361-1.8710382-.0083375-.569053.0925964-1.0502827.3497268-1.3639344.2642591-.322353.4796516-.6697408.7169399-1.0142077.0820375-.352172.1652109-.7157368.2448087-1.0666666.29137-1.2845269-.4830482-3.1530639-.0174584-4.3715847.0746737-.1954721.682594-1.0760786.6644809-1.2590164-.006435-.0650828-.0723011-.0837386-.1748634-.0699454-.513466.0690277-2.0570873.9812158-3.0950819 1.5737705.2275854-.8235814-.5339237-1.9197482-1.1715847-1.7661202zm-1.084153 38.5049236c-.1095904.1007773-.2098361.1685851-.2098361.0699454 0-.0128699.0864748-.0315593.2098361-.0699454z"/><path d="m46.1346469 1.01029631c-.7582076.09358688-1.509404.21752446-2.220765.4546448-4.8037743 1.60125622-9.2287189 3.60083166-13.8491803 5.14098361-1.7517787.58392621-3.7929632 2.49101709-5.1409837 3.16502732-5.5845714 2.79228576-10.5680509 5.80106076-15.77267251 8.69071036-.71579671.1804534-1.37018307.2735591-1.62622951.0174584-4.21052797-4.2105313 4.02893532-6.5781928 2.76284152-9.11038253-1.96473704-3.9294741-8.23537451 1.10094553-9.11038251 1.97595633-.83094858.8309452-.78688524 2.7097446-.78688524 4.3540983 0 .3098132-.19743056 1.7785257 0 1.9759563.9218076.921807.8774863 2.4687465 1.97595628 3.5672131 1.91510103 1.9151038 5.45069605 1.7754873 7.88633877.8218579.0231827.0457723.0464661.0761565.0699454.1224044 1.0496414-.4864839 1.837845-.8592815 1.9409836-.9442623 4.4949745-3.7036289 8.535533-5.2644903 13.8491753-7.9213115 1.3896575-.6948259 7.3058259-4.43979537 8.7081967-5.14098357 1.8708368-.9354156 4.7177079-1.43724275 7.5191257-1.97595628.5273376-.52733762 1.2090922-.84834203 1.9934426-1.01420765.5962702-1.40521897 1.1866873-2.78785399 1.8010929-4.17923497zm7.536612 42.59672129c-2.7267049 2.8809205-5.6709735 4.822542-7.7814207 5.3333334.0561521.0336856.1180565.056499.1748634.0874316-1.847587.4464529-3.5821871.9417499-4.5289618 1.8885246-.1829043.1829043-.9326905-.1194442-1.1715847 0-4.8722591 2.4361296-11.6595829 1.7623152-15.0382514 5.1409836-2.0830454 2.0830567 13.6906282-1.9759562 13.8491804-1.9759562 1.3604707 0 4.3225558-.5875075 5.525683-1.1890711.5861925-.293099 2.1104752 0 2.7803279 0 4.4213858 0 6.916885 1.4912294 11.0688525 3.5672187 1.2726081.6363069 1.6426079 2.0273018 2.378142 2.7628416 1.4547179 1.4547123 3.2024341 2.837655 4.3540984 5.1409836.3428497.685733-.1648248 3.4023883.4021858 3.9693989 3.5800719 3.5800718-3.1740083 20.5729154-5.5431694 22.9420765-2.7575033 2.7575033-5.8748503 5.4726645-8.3060109 7.9038251-1.0772816 1.0772811-2.8149201 1.2411551-3.9519126 2.3781421-.5807815.580787-2.2458167.336023-3.1825137.804372-3.1463211 1.57316-6.2323549 1.533666-9.4950819 3.165027-.88125.440622-2.6534358.598234-4.7038252.681967l-4.1967213-.90929c-1.2700622.801972.9862687-.675694-.4896175.209837-.424171.254506-.9589844.891803-1.5737705.891803-.2784944 0-1.8893527-.69862-2.0808743-.507104-.1934856.193486-.765924.276312-.9967213.507104l-.8918033.874317c-.8188307.81883.3053926 2.587978 1.4863388 2.587978.5457417 0 .6499994-1.052185.8918033-1.293989.5372755-.53727 1.724886-.891803 2.5704918-.891803.023054 0-.104918.149487-.104918.192349v.996722c0 .389338-.0404005 1.864418-.1923498 2.168306-.1342838.268567-.0615239.630146-.1923497.891803-.0466116.093262-.209187.297268-.104918.297268.3773188 0 .3130474-2.86776 1.8885246-2.86776 1.0230151 0 1.5221564.769819 2.3606557 1.189071.4178312.208913.9864645.195965 1.3989071.402186.2520495.126025.5340692.170862.7868853.297268.0809351.040456.4896174.32411.4896174.297267 0-.304391-1.7145844-1.080409-2.2382513-2.168306 3.1801971-.665594 6.6592678-.041351 9.8622951-.681967 5.2945836-1.058917 10.1846088-2.191125 15.1606557-4.63388.0194168.193755.0705609.350343.1748634.454645.1236466.123641 1.1368526-.419789 1.2765027-.489617 1.0712047-.535597 4.1900402-.527925 5.2459017 0 .0266352.013317.5381539.015556 1.031694.034972-.3594408-.133606-.6869977-.284811-.7344263-.33224-.1331424-.133137-1.8334748-.45206-2.3781421-.996721-.1609918-.160998-.2711865-.455686-.3322404-.821858 9.6829104-9.6067598 18.8741889-16.4924379 15.7726776-32.0000002-.8346215-4.1731078-1.6018717-8.7066356-3.9693989-12.2579235-3.9240743-5.8861255-11.7738625-4.6907706-14.4612022-6.9595685-.5249147-.114895-1.0836606-.1936311-1.2939891-.4896175-.0168428-.0011191-.0874317.0033574-.0874317 0 0-.0071624.042359-.0382181.0524311-.052431-.0342453-.0655304-.0524311-.1383351-.0524311-.2273224 0-1.8453935 5.2822901-2.9322156-.9092896-6.3125683zm8.3934427 60.4502784c.4326875.160836.9174592.289093 1.0491803.157377.0952432-.095237-.4720752-.134686-1.0491803-.157377z"/><path d="m46.2395649 2.82887554c-.6570722-.03206295-2.2362537.92677596-2.8502732.92677596-2.1874542 0-15.8055687 6.8525632-17.0666667 8.1136612-.696208.6962081-.9648038 3.4828366-1.3989071 3.9169399-1.2181515 1.2181571-1.9157025 4.3825409-2.7103825 7.3442623-.5508896 1.3403544-.909575 2.8505586-1.4863388 3.4273224-.2063332.2063388-.1083089.8077681-.2797814.979235-.5185525.5185524-1.4411653.881608-1.8185792 1.2590164-.1380162.1380161-1.1877617.2441596-1.5387978.4196721-.3711525.185579-.7750729.3436779-.8917977.3846994.2434322-.0214872.9909018.154473 1.0316884.1748634.2273727.1136864.6513591.0918019.8393442.2797814.2558154.255821.659193 1.1191257.979235 1.1191257 2.6613816 0-.9228478-1.5108252 1.4163935-1.6612022.8920662.9218183 3.6512426 6.5622677 4.3191256 9.337705.0044765.03072.01287.0562584.0174584.0874317.0439257.2965347.071708.6446387.104918.9792349.0222147.6293907.0684849 1.206507.1224044 1.7311476.3205288 6.9235605-.7693989 18.4967806-.7693989 22.5573826 0 2.7264867-.3898195 11.8629897.4021858 13.4469946.3573088.7146233-.1391521 1.8520746-.4021858 2.378142-1.3909669 2.7819338 1.1753897 15.0790827-.6469945 17.6262295.347606.5027728.6065045 1.0786358 1.0316939 1.5038252.1819083.1819083 1.6367605 5.5741914 2.4131148 8.4808744 3.4153813-.032175 6.8773407.023613 8.7781421-.926776 1.9993684-.999681 4.3606564-1.620763 6.1551912-2.518033.3861264-.19306 2.0948466-1.01719 3.0251366-1.328962-1.2817514-.18822-4.2192493-1.189071-4.4240437-1.189071-.5580352 0-1.2124495-.154238-1.9060109-.402185.0709358-.015556.1389115-.036316.2098361-.052431-2.4075919-1.6129851-4.2086232-5.650813-3.5672131-8.7431699-1.1584294-6.4438137-.3147541-16.5173326-.3147541-22.2076502 0-6.0660865.6928507-12.4043332.7868852-18.7978198-.4842457.1438692-.9598014.246756-1.084153.1224043-.2789029-.2789029-.4132651-2.6978483-.5945355-4.1792349-.2050127-.4673973-.3469626-.8190937-.3846995-.8568306-.5417631-.5417632-.9432942-1.3270257-1.2590164-1.95847-.0356441-.0712267-.5290219-.8393443-.4196721-.8393443.2608794 0 1.1786855 1.3185763 1.3989071 1.5387979.049969.0499689.1056399.0816961.1748634.104918.006379.0005596.0111912-.0005596.0174583 0 .2749692.0354763.4854656.0566613.5071039.0349727.3816834-.3816834-.2797814-1.2753892-.2797814-1.3989071 0-.3182794.0423589-.7497415.0874316-1.2240438.4064553.3328952.7872098.489293 1.031694.2448088 1.0423649-1.0423593-.8412523-5.7374272-1.3989071-6.295082-.0844772-.0844772 0-.7066775 0-.8393442 0-.4192189-.0923055-.8796888-.209836-1.3464481.011471-.8396688.0572768-1.6437271.1748634-2.3081967.2225941.2387207.4444719.5020174.5945355.5770491.6566694.3283347.9355163-1.0316884 1.1191257-1.3989071.5048431-1.0096864-.2690938-3.0595105-1.2590164-5.0185792-.1449884-3.903018-.5596076-9.1180206-.8043716-11.5060109-.0005428-.0050361.0005428-.0122545 0-.0174584.1269312-.6165487.2835529-1.2627878.6644809-1.6437158.3956724-.3956669 1.1191256 0 1.6786885 0-.9869346.6280757.7622365 2.8749219 2.2382513 1.3989071 2.3685904-2.3685848 3.9041595-6.4221923 6.1551913-8.67322408.2371315-.23713154 2.7598535-2.83577495 2.5180328-3.07759563-.0503607-.05036065-.1334557-.08284887-.2273224-.08743169zm-1.2240437 100.03934946c.3565926.052375.6120219.042751.6120219-.069945 0-.105892-.2506898-.051144-.6120219.069945zm-28.8174807-73.2677648c-.0466116.003917-.0874317.0137653-.0874317.0349727 0 .0011191.0695369-.0287056.0874317-.0349727z"/><path d="m13.3827394 80.8179522c-.2106861.0429744-.7750544.5099296-.9092896.5770492-.7267804.3633913-1.7046075.5854817-2.2382514 1.1191256-.60408559.6040873-1.41565707.8560976-2.09836066 1.5387979-.46630219.4663061-.79271422 1.0724973-1.2590164 1.5387978-.17763042.1776332.55439024 1.6683422.69945355 1.9584699.27903609.5580744.2762517 1.2519603.55956285 1.8185792.26165829.52332.3904484 2.4888125.69945355 2.7978143.29272075.2927241.14133662-.0016787.27978142-.1398908.067119-.0671195.25957393.2999873.41967213.1398908.34611927-.3461176 1.13394626-.1472994 1.67868856-.4196722.9603805-.4801888 3.1643888.0964966 4.1967218-.4196721.496668-.248334 1.1628611-.4142164 1.8535464-.5245902.0443733.0415196.0782212.0812597.1224043.1224044-.005036.011527-.0124782.0235016-.0174583.0349727.1027805.0729558.1981524.1530292.2972677.2273224.2684055.2407127.5328605.4651198.6819672.5420765.0033574.0027978.014101-.0027978.0174584 0 .5880166.4961196 1.1490231 1.0440995 1.8185792 1.7136612.9715074.9715074 2.524714 7.8755332 2.7628416 8.1136612 1.0020259 1.002026 1.0752559 4.240278 1.9759562 5.140984.5162975.516297.7495904 1.151776 1.1890711 1.591256.5461165.546111 1.5130691.726184 1.9759563 1.189071.5851628.585158 3.7011724-3.106636 4.1617486-3.567213.1989694-.198975.4695012-.904214.5945355-.979235.3045197-.182708.8204199-.08455.979235-.402185.0397849-.07957-.0377705-.128347-.1573771-.157377l-4.9836065-5.1934431c-.9397075 0-1.8812503-4.2593923-2.7628415-5.1409836-2.6654888-2.6654888-4.5789699-4.8869533-6.8371585-7.2043716-.4097623-.7405926-.7445319-1.5314172-1.4338798-2.220765-.6481081-.6481137-1.6251495-1.2918404-2.0983551-2.2382514-.1089356-.2178658-1.3424712-1.5235777-1.7486344-1.4338798-.0270772.0059874-.0508027.0158357-.0699453.0349727-.025684.025684-.0455708.0596662-.0699454.0874317-.056729-.0694529-.1288427-.1463313-.2098361-.2273224-.0131945-.0132057-.0398464-.0236135-.0699453-.0174583z"/><path d="m57.3084174 38.1512799c-.0994343.1382232-.3916268.4859971-.4371585.5770492-.0592912.118577-.1466614.2523349-.2273224.3846994.1063785-.1289568.2150009-.2674598.3322405-.3846994.1025678-.1025679.2457208-.4111388.3322404-.5770492zm-.6644809.9617486c-1.0145657 1.2298912-1.5914527 2.9204145-2.6404371 3.969399-.8018984.8018983-1.434943 1.9063466-.979235 2.378142l.6819672-.4896175c-.1768666-.3537388.1225834-.7522706.2972678-1.1016393.1063337-.2126675.4021858-.832305.4021858-.5945355 0 .3791821 1.2705937.8102805 1.7836065.2972677.6788728-.6788728-.7099341-1.5702844-.209836-2.5704918.1296283-.259251.2972677-.6823029.2972677-.9792349 0-.2858024.1847621-.6098788.3672131-.9092897zm-6.2950819 8.1486339c-1.453084.2565316-2.8849326.7179807-4.1442623 1.2590164-1.2620213.1175754-2.5205173.2366-3.6896175.6469946-4.8037743 1.6863097-9.2287189 3.7813186-13.8491804 5.4032786-1.7517786.6149428-3.7929631 2.6300853-5.1409836 3.3398963-2.7370848 1.4412381-5.3237368 2.9340846-7.8688468 4.4415301-.2843643.6623881-.3471472 1.3516129.0349727 2.115847.3297895.6595791.7045064 1.0707291 1.1016393 1.3289617 2.4437172-1.411072 4.9935668-2.602633 7.9213059-4.1442622 1.3896575-.7317292 7.3058259-4.6823324 8.7081967-5.4207651 1.8708368-.9851104 4.7177079-1.5135503 7.5191257-2.0808799.8318237-.8760124 2.0474236-1.2167974 3.4448087-1.2065574.4259337.0027978.8761523.0405124 1.3289618.1049181.349447-.0878066.6345778-.1235683.7519125 0 .0608917.0641259.1207201.1396277.1923498.1923497.6244609.135901 1.2562689.2939607 1.8885246.5071038 1.4331915.1281791 3.1263447.068345 4.0743169 1.0666667 1.6246963 1.7110033 5.3284204 2.9693314 7.2743169 5.0185848 1.2287721 1.294045 1.170779 3.9365694 1.95847 5.5956284.3230244.6803669 1.5146695 6.0513476 1.4338798 6.9595629-.0121985-.1501251-.0286496-.2958297-.0874317-.4196722-.2556699-.5384897-.7325517-1.9075889-.9967213-2.1857923l-.8918033-.926776c-.1577184-.166095-.4670112-.1057238-.6644809-.157377-.0011191-.0003078.0011191-.0172345 0-.0174584-.0135974-.0387217-.0276984-.0612553-.052431-.0874317-.3306793-.3482439-.7040868-.1855006-1.0491804-.3672131-.1480995-.0779807-.3491224.003917-.4896174-.0699453-1.4222241-.7488798-2.7278689 1.5819513-2.7278689 2.8677595 0 .7432506 1.203144 2.2857863 2.1333333 2.5180328.1976376-.1976376 1.0122156-.1476406 1.2765028-.2797814.363285-.1816397.8378726-.5945355 1.1016393-.5945355.0632138 0-.5163534.4114353-.8918033.7868852-.1707953.170801-.533974.3977597-.8568306.6644809.0543895.2036809.1140949.4044184.2448088.5420765.0494653.0520953-.0494654.2626588 0 .3147541.2459838.2590552.326393.6349975.3322404 1.0491803.4941779-.0120865 1.0503498-.104918 1.3639344-.104918.5157435 0 1.084153-.311117 1.084153-.1923497 0 .1397788-1.2755794.3319326-1.4863388.4021858-.3407346.1135744-.6635296.2072285-.9792349.3147541-.0296569.4016262-.0941129.812972-.1224044 1.189071-.0113591.0011191-.0237814-.0011191-.0349727 0-.088036 1.2977773-.307877 2.574862-.6120218 3.8120218.005036.1519381.0087851.3031432.0174583.4546449-.1736211.4726851-.3713427.9212251-.5595628 1.3639344-2.7842168 8.4150753-9.8334161 14.8715128-13.8491803 15.895082.0561521.0354762.1180565.0548371.1748633.0874316-1.8475869.4701671-3.582187.9963748-4.5289617 1.9934428-.1829043.192618-.9326905-.12579-1.1715847 0-4.8722591 2.565528-11.659583 1.862633-15.0382514 5.420765-2.0830454 2.193699 13.6906282-2.080874 13.8491804-2.080874 1.3604707 0 4.3225558-.625502 5.525683-1.259017.5861925-.308671 2.1104752 0 2.7803279 0 2.8290882 0 4.8739154.64282 7.0644809 1.678689.5077585-.322292.9252371-.52459 1.1540983-.52459.3840784 0 3.6319322-.941918 4.9836066-1.136612-.4297387-.146701-.9262332-.458232-.9967213-.839345-1.6721641-.399807-3.0859052-.821925-3.8994536-1.678688-.0169547-.01785-.0261316-.031224-.0349727-.052431-.1196513-.076258-.2290178-.171081-.3322404-.279782-.0411279-.04331-.8393443.034637-.8393443 0 0-.212152 4.1186791-3.4552947 4.7562842-4.1267757 1.0087239-1.0623021 2.0394611-1.2673706 3.0775956-2.3606557 1.7456346-1.8383542 4.4095567-4.3518042 6.1551913-6.1901639.0509202.0536061 3.6629711-2.9675073 3.9169399-3.2349727.6910769-.7277842 1.4229851-1.2719703 2.1333333-1.8010929.0016787-.0072184.0157237-.01024.0174584-.0174584.278707-1.0568239 1.3566265-2.468864 1.4863388-2.6054645.2300251-.2422459.4173779-.59594.5945355-.9967213-.0120306-.1550101-.0349167-.3994887-.0349167-.4722151 0-2.4369073.0844156-4.7490042.157377-7.0295082.2229243-2.215589.2819973-4.5647737.1398907-6.7672131.0317832-1.389277.2718245-7.7039996-.0174583-8.0087431-.4196722-.4419652-.979235-.7296196-1.3989071-1.1715903-.1495936-.1575394-.3831999-.2222528-.6644809-.2448088-.4898301.1406573-.9466796.2647124-1.0142077.3322405-.3627925.3627981-.9693531.5496865-1.3989071.9792405-.3208589.320859-.6634233.9432047-1.1191257 1.3989071-.440264.4402641-.70656.8464507-1.1191256 1.2590164-.0060433.0060433-.4196722.7140246-.4196722.5595629 0-.0557325.3582098-.4980949.4196722-.5595629.3166342-.3166286.2691665-1.1085108.5595628-1.3989071.8691354-.8691298 2.1560124-1.7462557 2.6229508-3.1125739-.0340214-.0315034-.080924-.0796482-.104918-.104918-.4307459-.4536208-1.2192203-.9089763-2.1857924-1.3639344.000291.151233-.008897.2975643-.052431.3846994-.3247815.6495629-1.3064897 2.425621-1.6786885 2.7978198-.0997365.0997365-.1837381.370162-.2622951.6295082-.0039169.0737168-.0174584.1587592-.0174584.2098361 0 .0577916-.0597669.1284476-.1224043.1923497-.0517036.1325045-.0986118.2273224-.1573771.2273224-.1103346 0 .0378265-.1053265.1573771-.2273224.0453805-.1163163.0944374-.2521278.1398907-.4021858.0212074-.3923934.1002457-1.0270216.4021858-1.3289673.0887354-.0887355-.0582337-.4430899 0-.5595629.1969325-.3938651.7201909-1.9169951.5595628-2.2382513-.0206479-.0412958-.0327904-.1085552-.052431-.1748634-.0067148-.0027978-.0107436-.0147165-.0174584-.0174584-3.2561241-1.3489773-7.8113294-2.6446339-9.8622951-3.7245902-.8744456-.460453-1.9725821-.3173784-2.5180328-.8918032-1.0970005-1.1552679-4.5447861.6780279-5.9103825-1.0666667z" stroke-width="1.026215"/><path d="m133.898581 46.7195859c1.012009 1.7386905 4.717641 2.9545758 4.563935 4.179235-2.683826 1.9797557-6.465497 3.0291095-7.763935 6.5049236-1.146494 1.5991467-2.162391 3.2575734-3.060109 5.0010929-.310664.383737-.624304.7467087-.926776 1.0491803-.260639.2606388-.532228.854626-.699453 1.1890711-.162039.324082-.594318.8041477-.786886.9967213-.487446.4874464-.979486 1.8712845-1.486339 2.3781421-.010799.0107995-.036763.0833413-.052431.104918-.460206.2103061-.99051.4165666-1.521311.6819672-.487872.2439358-1.013917.0610539-1.486339.2972678-.042974.0214872-.105942.0160594-.174863 0 .226785.1040507 2.172044.5945355 2.343169.5945355.484705 0 1.127917.1998311 1.76612.4721311.005764.0056516.011807.0118068.017459.0174584.019193.019193.133304.0734258.279781.1224044.215622.0983208.406646.1940955.612022.2972677-.329734-.0542216-.934946-.1714724-1.608743-.3147541-.021879.0989755-.050752.1975873-.069945.2972678.334652.3346577.802055.6096997 1.084153.8918033.024508.0245088.402185.0317272.402185.0874317 0 .1318889-.270297 0-.402185 0-.16445 0-.680362-.0539978-1.206558-.1224044-.090436.8017864-.106888 1.6197945-.017458 2.4655738-.012199 2.5384064-.064613 5.0788497-.087432 7.6240437-.001679.0055956.001679.0120306 0 .0174583-.132818.4843017-.064915 1.0679369-.017458 1.6437159-.001119.343538-.001119.6882231 0 1.031694-.002798.0174024.003357.0352524 0 .052431-.02865.1557208-.088215.3163153-.157377.4546448-.092323.1846446.092322.4973227 0 .6819672-.424893.8497913-.737336 1.57959-1.084153 2.2732241-.135185.2703584-.770474 1.6251551-.402186 1.9934426.158899.1588991.360532.5353953.507104.6819672.110015.1100157.505061.1049181.681967.1049181.233517 0 .436481-.0596998.629508-.1224044.067607 1.2215033.15261 2.4375453.279782 3.6546448 1.564229 3.0041586 4.543812 5.0254563 6.942076 7.2918033 2.829256 2.649351 6.350356 4.289637 9.180328 6.889617 1.761011 2.090007 3.821775 7.199565 6.854645 3.91694 4.316177-3.220799 9.194748-5.70927 12.834972-9.862295 2.092849-.286641 3.718821-2.8054464 5.595629-4.0568303 1.304453-1.849428-.65912-4.4214586.664481-6.3650274.730156-2.1893455.059755-4.6953477.244808-6.9945355-.098678-6.6470358-.168551-13.2936855-.472131-19.9344262 1.82737.6253171 1.889426 1.2971282 1.328962 3.0076503.114509 3.7612135 4.726454 3.9198888 5.001093.0874317.431412-3.0917974-2.267483-4.5292695-4.004372-6.347541-2.44276-1.6214229-4.838125-3.1333897-7.571584-4.1617487-2.18741-.9253938-4.729213-1.2253195-6.487432-3.0426285-2.44017-1.0419172-4.877217-1.9763368-7.431694-2.6404372-2.16994-1.2737888-4.279962-2.4761551-6.697268-3.1650273-1.975038-.8633551-4.083107-1.3112628-6.137705-1.9060109zm11.873224 8.7606558c1.91845.7929061 3.719767 2.1853782 5.630601 3.1300602 1.928707 1.6600607 5.309631 1.6964155 5.910383 4.6513661.205427.5718397.391341 1.1467177.542076 1.7311476-.059565.0599347-.143376.1433767-.174863.1748634-.370693.3706935.559563 1.3989742.559563 1.9584699 0 .571392-.549301.6891912-.839344.979235-.388673.3886779-.122466 5.001216-.559563 5.8754098-.198953.3979051-.021711 1.8402847-.279782 2.0983607-.783298.7832984-.356033 6.4475852-1.119125 7.9737705-.397128.7942602.13989 2.4243619.13989 3.2174863v1.3989071c0 .1564426-.162273.3972896-.13989.4196721.235772.2357439 1.02325.0440376 1.259016.2797814.71769.7176898-1.223204 1.5746099-1.119126 1.6786886.029266.0292651 1.259017.7645251 1.259017.8393442 0 .0704882-1.298365.3191355-1.398907.4196722-.230764.2307469-.540236 6.7340814-.279782 6.9945355.35041.3504094.831762.4750912 1.311476.4896175-2.888945 1.7619122-5.650304 3.8721352-8.74317 5.1759562-.020592.014381-.048682.020984-.069945.034973-.593019.390619-1.431614.628372-1.95847.891803-.292237.146119-1.11456.804372-1.293989.804372-.03279 0 .460156-.267807.699454-.507104.131486-.131486.85279-.679556 1.363934-1.24153-.087963-.403193-.158368-.815552-.227322-1.24153-.730499.067489-1.731148.487687-1.731148.314754 0-.167852 1.031101-.844638 1.57377-1.24153-.158188-.930246-.358148-1.847391-.734426-2.640437-.285159.127798-.591279.259038-.839344.507103.166699-.213904.380486-.467917.594536-.6819668.03984-.0398409.067908-.066381.104918-.1049181-.369127-.6653202-.891793-1.2339759-1.661203-1.6087431-2.617825-1.5579293-5.338598-2.8300283-8.323497-3.3224044-3.451854.4027397-4.601727-3.1785688-3.986885-6.242623.505598-4.1380175.637706-8.2979252.507104-12.4677595.126069-1.4927514-.116742-3.1078009-.069946-4.6338798.099899.0731125.383295.1035135.472131.1923497.03184.0318391.175955.2972678.19235.2972678.00996 0 .884372-1.4789022.996721-1.5912569 1.361596-1.3615954 1.659776-3.4258955 2.972678-4.7387978.239633-.2396328.249985-.6521705.489618-.8918032.384889-.3848842 1.486338-1.2959252 1.486338-1.6786886 0-.3327944-.629838-1.2314411-1.031694-1.6961748.095859-.165653.203609-.3223586.297268-.4896175.011471.0011191.02367 0 .034973 0 .4507 0 .808518.0022382 1.189071.1923497.153264.0766321 1.63356-2.3541648 1.975956-2.8677596.110094-.1651437.569579-.7723925.996721-1.3639344 1.159454-.5029463 2.393984-.884736 3.514755-1.36394zm-25.862295 13.4470001c-.088226-.0059873-.168048.0106876-.227322.0699453-.099608.0996078.557526.0302164.769399.1049181-.164998-.0479546-.370459-.1632469-.542077-.1748634zm24.585793 31.7377052c-.041016.0575-.195551.384699-.279782.384699-.003357 0 .111398-.167701.279782-.384699z" stroke-width=".908263"/><path d="m175.760876 41.5786023c-.070191.098069-.142873.1832177-.227322.2622951.06891.0896699.136908.1893673.19235.2448087.13397.1339706.559563.4319434.559563.6994536 0 .1536224 1.296719 2.136064 1.538797 2.3781421 1.182569 1.1825689 2.14565 3.8970754 2.255738 6.2076502-.200844-.1749137-.413332-.3395819-.629508-.5071038-.028146-.0331261-.058491-.0759774-.087432-.104918-1.79374-1.7937403-3.636649-4.0563158-5.455737-5.8754099-.318213-.3182121-.8633-.5835177-1.259017-.9792349-.203082-.2030822-1.650106-1.2875989-1.678688-1.2590164-.329728.329728.839344.6528252.839344 1.1191257 0 .234177 2.722424 3.9923354 2.657923 4.0568306-.175618.1756188-.397871-.1180902-.419672-.1398907-.01964-.0196407-.269648-.0337976-.612022-.0349727-.082837-.0177382-.154182-.0280341-.192349 0-.106149.0003581-.210804.0160594-.332241.0174583-.182484-.059308-.357913-.1224043-.542076-.1224043-.585241 0-1.163639.094941-1.766121.1748634-.180934.006379-.373905.0107436-.542076.0174583.065497.0062671.126316.0261876.19235.0349727-.309472.0344131-.621003.052431-.961749.052431-.033686 0-.134261.01287-.19235.0174584.015164-.0072743.037883-.010184.052431-.0174584.049466-.0247326.116009-.0371549.174864-.052431-.378142.0200883-.719425.0374347-.734426.052431-.035533.0355323-.07435.0761621-.122405.1049181-.499454.079318-1.03762.1850082-1.224044.3147541-.183883.0377705-.351746.0796985-.472131.1398907-.340706.1703533-.839344.4221566-.839344.4196721 0-.0315593.688492-.1935808 1.468852-.4021858.572517.0206479 2.174411-.0904813 2.587979-.2972677.815456-.4077255 2.181965.8768741 3.077595.2797814.068256-.0454925.132773-.1188512.19235-.1923498.145581.0313915.288136.0671028.437158.1049181-.038442.0841191-.069945.1586025-.069945.2273224 0 .233153.466301 0 .699454 0 .153242 0 .518043.2146427.664481.157377.692833.2567275 1.353017.5775416 1.888524.9442623-.04622.0213194-.092691.0290973-.139891.0524311-.017178-.0062112-.035868-.0106317-.052431-.0174584-.001678.0113032.001679.0236695 0 .0349727-1.128095.5675422-2.424132 1.5323237-3.392349 2.5005464-.469171.4691711-.417143 1.606214-.786886 1.9759563-.658874.6588741.00112 3.0375813.017459 3.479787.131805-.3441255.894215-1.7359653.979235-1.9060165.365764-.7315221 1.544539-1.3630223 2.8153-1.6612022-.059666 3.3841522.235078 6.8458709-.052431 10.1770548-.421367 4.8802105-.404234 10.0616673.19235 14.8983607.141687 1.1486762-.260622 14.1086831.209836 14.6535519.506466.5865841 1.209937 1.5692884 1.76612 2.5355191 2.418895 4.2022889 5.762244 7.5798889 7.728962 12.1355189l1.57377 3.654645c.060993.141284.556105 1.075407.612022 1.328962.153018-.262967 1.08497-1.268971 1.363935-2.238252.758118-2.634119 2.337059-4.44811 3.759563-6.644808 1.942774-3.000113 4.76935-5.9581359 6.53989-8.0087435.373357-.4324134.469977-1.0097815.594536-1.5737705 1.997186 2.370504 4.097276 4.7326706 6.050273 7.256831.002798.003357-.002798.013877 0 .017458.220781.342827.526202.727404.856831 1.119126.011918.014157.022942.020815.034972.034972.605699.820985 1.188719 1.670877 1.748634 2.535519.6819 1.053019 1.05791 2.586831 1.783607 3.427323.300787.348372 1.093677 2.990164 1.381421 2.990164.041071 0 2.313031-5.022575 3.374863-6.662295 1.392556-2.150451 3.259129-3.936262 4.546448-6.1726779 1.102154-1.9147513 1.894786-4.0783178 2.727869-5.5081967.63385.2978385 1.435363.2258396 1.993443-.3322404.366278-.3662787.382645-2.0325169.13989-2.5180328-.253739-.5074844.124548-1.1498121-.13989-1.6786886-.483765-.9675289.216304-2.3652105-.279782-3.357377-.307564-.6151274.2924-2.6453054-.139891-3.0775956-.535037-.5350372-.189787-3.8064039-.594535-5.1759563-.01522-.4157832-.031056-.8267653-.052431-1.2415301.002798-.053774-.010296-.1085272-.017459-.157377-.113943-2.1194506-.310227-4.2261376-.66448-6.2775956-.23486-1.3600399.079245-2.7875351-.209836-4.126776-.192619-.8923461-.409768-12.3068853-.19235-13.0623007.022326-.0775946.071249-.3182681.122404-.5945355 1.789051-1.5539732 4.094657-3.1489679 5.420765-3.8120219.28803-.1440091 1.573771-.5925434 1.573771-.7868852 0-.2306406-1.992206.5945355-3.549727.5945355-1.669433 0-13.959476 1.2818745-14.251366 1.5737705-.090342.0016787-.168949.0078898-.19235.0349727-.08117.0940121.786885 5.2749541.786885 5.9628415 0 1.8735563.890841 6.6716342 1.573771 8.2535575.590837 1.3685844.52158 4.0846185.996721 5.7355191.047787.1660223.003917.4890188-.034973.821858-.406567.9808353-.814499 1.7937346-1.486338 2.4655737-.055565.0555646.525452.5254519.559562.5595629.396227.3962264.39588 1.6310977.699454 2.2382513.277096.5541967-.087784 1.7307951.279781 2.0983607.223613.2236125.061166 2.7190893.419673 3.0775956.429106.4291064-.407004 4.7816212 0 5.5956284.169536.3390727.88619.0936932 1.119125.5595629.149627.2992486-.313657.5256869-.13989.6994535-.197655-.010128-.396333-.0233337-.419673 0-.040512.0405124-.688558.2906762-.559562.4196722.265865.2658651 2.797814 1.5020513 2.797814 1.6786885 0 .1993946-2.40673.0571817-2.657924.5595628-.05534.1107151.271036 1.6699426.419672 1.8185793.230109.230109.754554.2094667 1.363935.3497267-.187034.359715-.125141 1.6694054-.244809 2.0284153-.138464.4153859-.286054.9159653-.419672 1.4338798-.504966.3355755-1.004175.6721245-1.521312.821858-1.090923.3158732-2.649255.4738602-3.357377 1.293989-.090861.105237-1.921656-1.1106483-2.238251-1.293989-2.158844-1.2501642-4.585231-1.987931-6.679781-3.1650274-.004477-.0022382-.012926.0022383-.017459 0-.029489-.0276424-.058289-.0430304-.087431-.0699453-.303116-1.6168736-.663955-5.056596-.874317-7.5715847.125101-.8070967.264768-1.6124475.419672-2.4131148-.173129.0156678-.410171.0349727-.489618.0349727-.050081 0-.935343-.112405-1.119125-.104918-.04124.0298247-.069946.0368752-.069946 0 0-.003917.049522.0005595.069946 0 .041239-.0298247.089435-.0709526.122404-.0874317.324177-.1620886.752383-.1313854 1.084153-.2972678.13467-.0673266.33731-.0401206.507104-.052431.031056-.1515744.054781-.3032775.087432-.4546448.145777-.6753532.147181-1.4035179.174863-2.115847-.072391-.1901227-.119137-.4018948-.157377-.6295082-.424166.0778967-.865588.2010957-1.101639.2797814-.126098.0420232-.323305.0016787-.489618-.0174584-.127989.1103962-.297268.2404218-.297268.1224044 0-.132913.130955-.1414127.297268-.1224044.031951-.0275305.06661-.0666103.087432-.0874317.224245-.2242448.981585-.4648344 1.451366-.5420765-.108964-1.1696933.10433-2.6608332.314754-4.0743169-.04566-.0067707-.178372-.0139891-.174863-.0174584.043142-.0431423.107564-.1101611.192349-.157377.054837-.3677223.110643-.7395574.157377-1.084153-.602766.0773148-1.350824.052431-1.836065.052431-.028594 0-.067629-.0262994-.104918-.0349727.036203-.0277543.077292-.0561409.104918-.0699453.255211-.1276027.633565-.063225.891803-.1923497.164914-.0824572.588319-.1673149.996721-.2448088.046836-.3991362.080533-.7738418.087432-1.1016393-.498783.0539978-1.068496.1370313-1.556284.2273224-.417563.1756579-.868531.2740011-.821858.2273224.065631-.0656255.411598-.1513786.821858-.2273224.059649-.0250684.117721-.0413517.174863-.0699454.444383-.2221912 1.094376-.3716392 1.503825-.6469945.110771-.2538401.249649-.5149041.087432-.8393443-.896974-1.7939361.693466-4.7507668-.19235-6.5224043-.407971-.815714-.996805-6.5156169-.996805-7.7289058 0-1.1694808-.879996-5.047878-.786885-5.1409892.345043-.3450433 3.969214-2.7925432 5.735519-3.9344263.145559-.3410255.26173-.6715537.19235-.7519125-.065413-.0757592-.159285-.0961777-.279782-.0874317-.361483.0262435-.897371.3322404-1.101639.3322404-2.394498 0-4.87029.2098361-7.326776.2098361-.283368 0-1.603259-.2088736-1.783607 0-.005595.0064909.022327.2399405.034973.3322404-2.73624-.6513815-4.245398-.0264114-4.581421.7519126-.204598.4739217.785185 6.6092653.996722 7.3442679.296753 1.031084-.296753 2.4137302 0 3.4448087.243969.8476762.040512 2.4027013.384699 3.2 1.027022 2.3789535-.641511 6.9260338 0 9.8972678.424775 1.9678706-.123904 3.6103274.402186 5.4382513.018298.0636111.034861.1284365.052431.1923498.122818 1.4752594.227322 3.6171988.227322 4.284153v1.1191257c0 .1440034-.24412.1755516-.13989.2797814.312012.3120122.813016.4340025 1.189071.6819672.047451.2054882.104313.4102938.157377.6120218-.319846.4147424-1.143769.8671602-1.066667.9442623.262295.2622951.803331.2762954 1.224044.3672132.015388.1160981.036371.2312841.052431.3497267-.53469.1650655-1.416394.4286867-1.416394.6819672 0 .4033833.37385 3.5430904.279782 3.6371585-.136416.1364158-.419672 1.8588902-.419672 1.95847 0 .3730437.746082 0 1.119125 0 .136707 0 .435021.0194168.681968.0349726-.293821.2218723-.580664.4403648-.804372.6994536-1.678968 1.9445536-3.922211 3.2450952-6.015301 4.8612022-.218845.1689712-1.061529 1.0284544-1.119125.9617484-.829575-.9607972-1.821159-1.7030125-3.077596-2.4306009-.391694-.2268244-.587541-.8923013-.979235-1.1191257-1.655181-.9585031-3.002222-2.6421718-4.546448-3.8819672-.072849-.1348658-.131872-.2677172-.174863-.3846994.149862-.037211.284722-.0662747.437158-.1049181.92789-.0259077 3.425157-.4524737 3.567213-.5945355.448859-.4488589-.189848-2.1383358.139891-2.7978142.223825-.4476503-.223825-1.2310382 0-1.6786885.067321-.1346364.171875-.8393443 0-.8393443-.280061 0-1.409147-.2900214-1.538798-.4196721-.061563-.0615631 1.721333-.8393443 1.538798-.8393443-.106183 0-.186362-3.0311239.139891-3.357377.266424-.2664247-.332269-1.5912848-.419672-1.6786885-.349162-.3491617.617886-1.177449.699453-1.2590164.140327-.1403216-.293826-1.8045342.139891-2.2382514.165558-.1655523-.139891-1.6850899-.139891-2.0983607 0-2.6977867-.419672-5.4001059-.419672-7.8338797 0-.1854392.010911-.8550792.017458-1.4513662-.001678-.005036.001679-.0125342 0-.0174583-.191331-.533795.122405-1.5263308.122405-1.8885246 0-.5371636-.075155-1.6035337.13989-1.8185793.075457-.075457.194672-.1020698.332241-.104918.365669.8602048.927604 1.644544 1.206557 1.9234973.104901.1049012 1.243321 1.2747121 1.818579.6994535.336141-.3361406.695218-.5553269.979235-.8393442.234306-.2343058.325258-1.0247107.559563-1.2590164.084477-.0844772 0-.7066831 0-.8393443 0-2.3577068-.2514-5.4273623-1.678688-6.8546504-.01371-.0137093-.038498-.0212634-.052431-.0349727-.006547-.0109114-.010912-.0240612-.017459-.0349726-.701831-1.1526268-1.810633-2.120732-2.395628-3.095082-.055173-.0918578-.109635-.169693-.174863-.2448088-.024901.1340825-.072072.2776551-.017459.3322405 1.160987 1.1609866 2.895296 5.5405618 1.95847 7.4142132-.576232 1.1524701-.035028 1.3989071-1.398907 1.3989071-.167947 0-.360677.1988855-.559563 0-.82878-.8287797-1.187857-2.1014998-1.731147-3.304918.018969-.0165631.034693-.0346929.052431-.052431.306858-.3068587.230954-2.0561249 0-2.5180384-.504469-1.0089422.240908-2.03621-.279782-3.0775956-1.060903-2.1218064-1.884546-4.9621418-3.637158-6.7147541-.807903-.8079025-1.748293-1.8533785-2.797814-2.3781421-.062168-.0310558-.329857-.1469188-.524591-.2273224zm-6.434972 6.190164c.205303-.0109115.413343-.0241172.681967-.0349727-.098405-.0082256-.204397-.017906-.297268-.0174584-.146342.0005596-.265199.0213753-.384699.0524311zm32.087431 26.8415356c.013374-.0033574.03184-.0039169.052431 0-.045828.0343012-.069945.0748303-.069945.0349727 0-.0165071.003917-.0318951.017458-.0349727zm-13.079781 38.8721311c-.017458.033966-.022159.034973 0 .034973.015612 0 .023558-.001679.017458-.034973-.001119.001679-.016451-.001679-.017458 0z" stroke-width="1.076189"/><path d="m248.175924 46.876963c-4.366571 1.3110221-14.480261 14.0875373-17.556284 23.1694045-.362166 1.0693022-2.494408 5.8461727-.90929 7.0469945 1.341496 1.0162669 2.803684 3.2362653 4.371585 4.4240437 1.272009.9636288 2.985581 1.1823955 4.896175 1.0142077-.115421-1.0203125-.240668-2.2557377-.017459-2.2557377.149034 0 .478964 1.1483516.839344 2.168306.231189-.0319511.464057-.0639525.699454-.104918-.205332-.5723545-.368651-1.135174-.139891-1.3639345.069498-.0694977.474325.5552766.874317 1.2065574 1.846977-.3794004 3.750951-.950535 5.595629-1.5038251-.061591-.8275095-.107185-1.6612022.244808-1.6612022.212634 0 .304654 1.0291591.3847 1.4688524.253689-.0751996.520584-.1556871.769399-.2273224.083324-.4009603.239263-1.6612022.244808-1.6612022.093263 0-.041687.1963674 0 .2797815.154143.3082855.205416.7747035.262296 1.24153 2.802939-.782252 5.230446-1.2277872 6.504918-.2622951 1.164142.8819102 1.917717 3.2827874 2.448087 4.0568306 2.550985 3.7229955-3.260086 20.3298469-5.053552 22.6972679-.540694.713722-3.59307 5.944639-4.319126 7.099453.515576-.237025 1.588924-.158031 2.098361-.507103 2.350242-1.610383 4.902867-4.281059 6.627323-6.557377 4.485903-5.921501 7.315595-12.901673 9.792349-20.2142081.683926-2.019272.309248-4.40522.996722-6.4349726.378538-1.1176037-.51716-3.7363802-.681968-4.9311476-1.809581-13.1185871-18.251636-1.1102454-21.910382-3.8819672-5.146686-3.8989276-2.150965-12.7369708-.52459-17.5388034.841957-2.4858579 1.382523-3.2791782 3.462295-6.7672131zm.13989 66.832792c-.198974.091472-.329834.218549-.297267.454645.001678.011527.204884-.307703.297267-.454645z" stroke-width="1.112929"/><path d="m236.216723 94.7957312c-.050137.0005596-.091483.018018-.132292.0379384-1.589449.7756716-2.889107 2.788906-4.478567 3.5645776-.639374.3120234 1.691362.1197464 2.222354.3024493.740033.2546346 4.36234 2.2207985 4.760492 3.0366635.35934.736318 1.518743 1.314866 1.8727 2.040177l1.504413 3.073248c.42567.872258 1.514048 3.238498 1.689907 4.560359.066683.498912.040121 1.119372.199451 1.445882.034693.071043.083123.11433.136942.13828-.727958 1.479333-1.655797 3.843139 1.568902 3.39832 3.874475-.534444 5.495411-3.9269 7.335091-6.355336.236052-.311581-.2638-.596908-.302477-.626218-.104487-.07915-.178434-.185461-.25727-.298476.725311-.288175 1.640285-.70271 1.382058-1.231844-.712513-1.460045-2.840481-3.176806-4.068475-4.428711-1.260645-1.285176-10.117243-9.4452078-12.23995-8.4093115-.285663.1393927-.842271-.2534596-1.193279-.2479535z" stroke-width="1.112929"/><path d="m235.833137 93.8663757c-.109932.0104638-.199909.0359799-.259257.1143411-.912591 1.204638-4.235017 2.5106129-6.431022 3.7946082-.031671.0142689-.059286.0370431-.091069.0518715-1.911226.8904379-3.95363 2.7083845-4.158128 5.6027745-.042303.597932.697081 1.09658.791765 1.324899.481095 1.160125 1.333001 1.785957 2.437746 1.864016 4.271183.301777 5.029351-6.221069 2.262828-8.0916932.823906-.2824169 1.621143-.4119613 2.028902-.1030547.048738.0369312.656222.6834053.928695.3237351.593942-.7840147 5.663386-1.8014062 5.930454-2.1539308.18108-.2390341-2.206244-2.4104457-2.569384-2.5334432-.060035-.0203121-.541724-.2254926-.87153-.1941067z" stroke-width="1.112929"/><path d="m248.123465 47.3316078c-1.082676-.0992273-4.19389 4.5085657-4.773771 5.473224l-.384699 2.8502732c-.965369.5055035-1.793539.2635877-2.657924.2797815-.102299.0016787 1.396054 1.1227908 1.573771 1.2939946.400518.3857906.974562.7331617 1.608743 1.0491804.078725-.3550874.283072-.7202302.646994-1.084153.140233-.1402321.185451-.8393443.419673-.8393443.09085 0-.704691 1.2491457-.646995 2.115847.327954.1513617.669534.2945203 1.014208.4371585.443526-.4405159.872207-1.2939891 1.311475-1.2939891.169962 0-.370716.9733819-.419672 1.6786885.570821.2310995 1.136965.4486799 1.62623.6819672.0094.0044765.023669.0131498.034972.0174584.02048.0343012.042695.0601754.069946.0874317.537163.5371691 1.754486.2156947 2.203278.6644809.161859.1618591.554852.1475007.926776.157377.037267-.2259347.08121-.4422057.174864-.6295082.204223-.4084473.419672-.8780492.419672-1.2590164 0-.0197526.028929-.0646239.052431-.104918-.007666-.0962616.00968-.1748634.087431-.1748634.022047 0-.038665.0913486-.087431.1748634.018018.225543.181774.6156926.087431.8043716-.117138.2342833-.19701.7299385-.209836 1.24153.081618.0249565.159342.0719094.209836.1224044.165127.1651382.586786.0621954.751913.2273224.123926.1239264.310977.2064955.542077.2622951.276435-.9524879.65677-2.2732241.944262-2.2732241.192708 0-.139913 1.2176368-.314754 2.3431694 1.182725.0530466 2.947021-.2660665 4.58142-.5071038 1.144189.2650425 2.428945.1128359 3.39235.5945355.293564.1467901.790584-.1467845 1.084153 0 .159476.0797377.449251.1522067.786885.2098361.006771.0011191.010632-.0011191.017459 0 1.603142.8582407 3.061211 1.7672226 4.284153 2.9901639.093441.093447 1.220255 1.7592712 1.416393 1.6612022.784502-.3922535.209836-2.2810243.209836-2.9901639 0-.621305.109311-1.3420611-.297267-1.7486339-.165799-.1658041-.41561-.3302932-.699454-.4721311.021263-.2937649.032679-.5550192.122404-.7344263.1745-.3490105.801166-2.5212335.786886-2.5355191-.128437-.1284365-.41364-.0988859-.542077-.2273224-.699017-.6990115-1.89224-1.0947567-2.990164-1.6437159-.735831-.3679237-2.231397-.1155497-2.762841-.6470001-.107643-.1076431-.46573-.1360353-.874317-.1398907-.615626-.2533756-1.14392-.4196721-1.416394-.4196721-.560463 0-2.870652-.6673738-3.2-.9967213-.294447-.2944476-1.758773-.4298059-1.871038-.5420765-.105612-.1056119-.181337-.2736263-.262295-.4371585-2.040972-.9885461-4.008887-2.0763363-5.665574-3.6721312-.481056-.4633795-.682633-1.5380144-1.119125-1.9584699-.052767-.0508083-.120172-.0808177-.19235-.0874317z" stroke-width="1.112929"/><path d="m264.326782 58.7943813c-.021431.3275177-.391728.9611611-.064204.98257.327523.0214312-.019025-1.3000492.064204-.98257.275243 1.0494545.0884 1.5644034.251775 2.1873199.105327.4015871.813028.6451872.91836 1.0467743.063052.2403937.809302.3392125.950463.5554892.430371.6594 2.03584 1.6253622 2.216904 2.3157284.041687.1587312.186278.5539672.269088.4122859.260515-.4457477.842511-5.3429186.908607-6.3545635.111151-1.7010822 2.217838-6.8859132 1.987483-7.7642198-.10437-.3979779-.499751-.7657002-.807264-1.2368577-1.09098-1.6715597-6.156675-1.9950989-5.468312.6294355.272491 1.0389347-.006211 2.512633.836849 3.8043726.674475 1.0334007 2.797411.3598045 2.456414.1605162-.20038-.1171109-.202098.4568663-.143204.6813685.063925.2438351-.747475 1.278976-.888781 1.5207463-.590289 1.0100165-.950826 2.2667387-1.14307 2.3922039-.245844.1604546-.697847.6122457-.444399.7603731.633649.3703243-1.267275-.7406485-1.900913-1.1109728z" stroke-width="1.112929"/><path d="m293.916068 48.7130285c-.277667.0284818-1.481365 1.3064953-1.940984 1.7661203-2.10479 2.10479-4.465709 3.8604352-6.59235 5.9453608-1.251876.3188109-2.675152.8041141-3.269945 1.3989071-.564789.5647891-1.153897 1.2588149-1.783607 1.8885245-.432228.4322344-.832579 2.9134535-1.084153 3.1650274-.390798.3907931-.814259 1.2863902-1.293989 1.7661202-.275265.2752657-.586724.5738988-.874317.8568306-.070135.0263554-.139073.0638461-.209836.0874317-.864043.2880126-1.868279.8393442-2.727869.8393442-.162446 0-1.608743.1187393-1.608743.1398908 0 .0552288.673479.0919361.769399.1398907.311878.1559389 1.499539.0482343 2.360656.1923497-.990829.9636064-1.978211 1.9432386-2.937705 2.9027322-.080594.0805939-.22143.4025495-.349727.7693989-.403495.1829099-.754027.3322405-.891803.3322405-.00005 0-2.378136.7344262-2.448087.7693989-.036316.0181858-.086207.0228861-.139891.0174583-.311805.1260751-.560402.2627204-.839344.4021858-.085983.0429745-.279782-.0261875-.279782.0699454 0 .093391 1.246729.0699453 1.398907.0699453.494419 0 1.056225.0033574 1.468853.2098361.04068.0203121.586936-.0624192 1.189071-.157377-.063746.3526085-.090644.8853739 0 1.0666666.197268.3945366.478795.5161968.786885.5071039-.062111.0948459-.114884.1851033-.139891.2448087.004477.0292651-.004476.0583232 0 .0874317.096144.0597165.574263 0 .681968 0h.559562c.046612 0 .139891-.0466116.139891 0 0 .0538299-.17831.038442-.209836.0699453-.27333.2733297-.659937.5328606-1.014208.821858.396742 1.9836838-.150718 4.1775786.244809 6.1551912.813353 4.0667517 1.325437 10.7297014 0 14.706011-.169402.5081949-.092003 2.2777956-.454645 2.6404371-.009065.0090649-.636648.6923024-.454645.874317.396143-.4283622 2.060322-1.267063 2.553006-1.0841531-.308123.2218947-.486193.5139473-.314754.8568307.021095.0422469-.032343.1775045 0 .209836.313573.3135734.487088.663216.979235.90929.28846.144233 1.711786.382825 1.888524.559562.346012.346012.828601.478874 1.259017.90929.083621.083621.19616.336057.279781.419672.253236.253236.793164.397256.979235.769399.158384.316769.47409.738349.699454 1.189071.312516.625032.587429 2.475954 1.04918 2.937705.589673.589673 1.067915 1.417641 1.538798 1.888525.246571.246571.745517.325844.979235.559563.188483.188483 1.205225.155715 2.010929.174863.372076.342173 1.09648.684351 1.486339.944262.418452.27897.758638.639821 1.189071.926776.523487.348994 1.164545 1.699583 1.433879 2.238252.061944.123892 1.308057 1.668235 1.328962 1.678688.315756.157875.639491.394682.891803.646995.223087.223081 1.185893.954591 1.62623.734426.163717-.081859.494335-.092149.594535-.19235.38212-.382125.697837-.875856.996722-1.363934.577872-.526515 1.567716-1.15007 2.255738-1.608744 2.20264-1.468427 4.085709-3.518928 6.155191-5.071038 1.865661-1.399254 3.98538-2.429599 5.927869-3.72459 1.64907-1.099379 3.314704-3.204896 4.843715-3.969399.096782-.048402.220401-.091057.349727-.139891.131912.113625.246879.239885.349727.367214.527422 1.292355.734426 3.741572.734426 4.861202 0 .250359.061821.707578-.069945.839344-.128235.128235.05829.571219-.069945.699454-.104918.104918.034972.454644-.069946.559562-.082076.082077-.012534 1.341513-.139891 1.468853-.173263.173263-.957484-1.910269-2.09836-.769399-.868486.868486-.916547 2.720611 0 3.637158.295292.295293.550078.139891.909289.139891.99234 0 1.459262-1.109535 1.888525-1.538798.128235-.128235-.05829-.571218.069945-.699453.139891-.139891-.13989-.699454 0-.839344.239717-.23974.279782-1.122456.279782-1.538798 0-.535306.139359-2.377079.349727-2.797815.069872-.139745.063946-.307698.052431-.489617.003357.001119.014213 0 .017458 0 .033909 0 .209836-1.043215.209836-1.189071 0-1.121017.114475-2.325991.139891-3.514754.362412-.7022515.174863-4.9448066.174863-5.4207652 0-1.6492946.840173-5.087702.209836-5.7180327-1.396103-1.3961093-13.992462.13049-17.206557.2273224.059498.0521512.15247.1342447.262295.2273224h1.57377c.09704 0 .313725.0200323.594536.0699453.007666.0058754.009512.011527.017458.0174584.946607.7048925 4.117398 2.0365234 4.651366 2.5704918.845852.845852 1.491834 1.7716207 2.238252 2.5180328.067019.0670188.106473.1421401.13989.2273224-.013149.0088411-.020647.0256839-.034972.0349727-1.015344.1576344-2.293038.5082677-2.500547.6120218-1.00841.5042053-2.644124.7275268-3.951912 1.3814208-.857111.428558-1.793466 1.4611193-2.640437 2.220765.604316 1.5750631 1.941185 3.9169401 1.993442 3.9169401.00789 0-.71633-.71633-1.398907-1.398907-.376026-.376021-.841515-1.330048-1.259016-1.538798-.071372-.0357002-.255217-.0963512-.472131-.1573772-.304805.1625922-.68016.4039592-1.10164.6994532.063673.103939.15656.260667.174864.297268.507652 1.01531 1.410092 1.701054 1.95847 2.797814 1.000403 2.000807 1.289865 2.494358-.279782.139891-.288197-.432296-.431328-.711109-.839344-1.119126-.342827-.342827-.621926-.761816-.979235-1.119125-.19855-.198544-.395628-.395958-.594536-.594536-1.073638.813386-2.193598 1.834197-2.570491 2.587978-.313826.627645-.817141 1.499114-1.293989 1.975957-.717489.717493-1.306272 1.353526-1.766121 2.273224-.07849.156985-.123243.367974-.122404.612022-.080213.080778-.16736.16366-.244809.244808-.25215-.19221-.496505-.356212-.751912-.559563-.011248-.069458-.034973-.139874.017458-.244808.239644-.479299-.095383-1.54675-.384699-1.836066-.042191-.042191-.199149-.153482-.244809-.244809-.285282-.570564-1.2583-.751196-1.643716-1.136612-.052095-.052095.312622-.467867.349727-.542076.032119-.064204.109517-.212433.157377-.262295-.101404-.012982-.602151-.257354-.646995-.279782-.078333-.039169-.212729-.024285-.297268-.052431-.28212-.09404-.400076-.331188-.646994-.454645-.379898-.189954-.800813-.347941-1.189071-.542076-1.155973-.577984-2.57935-1.390279-3.462295-2.273224-.129388-.129388-.474163-.1769-.594536-.2972678-.089675-.0896756-.440779-.2147323-.821858-.3322405-.956472-.7736627-1.78792-1.4751363-2.360655-2.063388.039841-.1049124.103882-.2951973.122404-.3322404.475875-.9517492 1.373302-1.5400512 1.783607-2.3606557.200491-.4009884-.86227-1.4272602-1.189071-2.0808743-.125863-.251725 0-.9013886 0-1.1890711 0-.6485053.29903-5.3384701.454644-6.2426229-.279927-.0405683-.675213-.5003499-.85683-.6819672-.332672-.3326658-.795245-.4979718-1.189071-.8918033-.216103-.2160976-.303199-.7113107-.489618-1.084153-1.269693-2.5393801-1.186586-5.9013624.227323-7.1169399.036371-.0762237.091359-.2002004.104918-.2273224.345927-.6918547 1.289865-1.0100837 1.748634-1.4688525.094068-.0940625.38504-.1052593.489617-.209836.194487-.1944817.999967-.0699454.979235-.0699454-.732238 0-1.538798-1.0495944-1.538798-1.8185792 0-.7990614.229057-1.2579645.699454-1.7486339.374252.0297128.733603.0691228.85683.1923497.025796.0257959.496098.5006241.594536.4021858.121246-.1212461.046444-.5535475.19235-.6994536.378482-.3784827.807365-1.1920647 1.189071-1.5737704l4.948634-4.9486339c.522312-.5223184 3.837084-.7769698 4.05683-.9967213.44821-.4482099-.729121-2.7331735.087432-3.5497268.895088-.8950879 2.72971-1.7504749 3.951912-2.9726832.02367-.0236695.059644-.0483462.087432-.0699454.519252.3266225.960316.715513 1.101639.8568362 2.365177 2.365177 7.87709 3.9076904 10.544263 6.5748634.464107.464107 1.654252.3602634 2.185792.8918033.235856.2358501-1.061105 2.1396956-1.311475 2.6404372-.082553.165099-.138962 2.4573817-.174864 4.5114754-.049913.0033574-.10583.0134854-.157377.0174583-.138464.6346842-.298252 1.3444729-.174863 1.5912569.309572.6191451.279781 1.3831834.279781 2.0983606-.132342-.2267348-.279781-.4587352-.279781-.6994535 0-.7108966-.273296-2.2314303-.646995-2.9377049-.351976.0166749-.664061.0118067-.85683-.0524311-.197173-.0657262-.689717-.1188791-1.311476-.1748634-.119366.3023094-.042918 2.8417119-.209836 4.336612.040177.2948393.051592.5787839-.052431.7868853-.007722.0154439-.303624.4673525-.139891.1398907.088607-.1772191.147456-.5246685.19235-.926776-.059381-.436112-.192266-.8962741-.192266-1.1715567 0-.965895-.347337-2.3366896-.751912-3.252459-2.070523-.1225946-4.704833-.1568734-5.15847.0699454-.939321.4696578-1.516768 1.3529222-2.378142 1.7836065-.367963.1839843-1.560766-.1923497-2.063388-.1923497-1.20855 0-5.653851.6944622-7.151913 1.4863388-1.19503-.1811081-2.516315.6665736-3.444808.8743169-.698743-.2671577-1.437277-.537309-2.168306-.5245901-.321301.0055956-.635048.0656423-.944263.209836-.549088.0182977-1.037054.0927923-1.259016.3147541-.142291.1422913-.514182.3742972-.629508.4896175-.058145.0581442-.100683.1610534-.139891.2622951l.052431.052431c-.451523.3947381-.860132.8667237-1.031694 1.3814208-.204873.6146126-.209836 1.2717129-.209836 1.9759563 0 1.2199197.97684 2.051044 1.591257 2.9726776.61323.9198374 1.221889 1.5901769 2.168306 2.063388.662808.3314011 2.076459-.1376805 2.570492-.3846995.602889-.3014421 1.299959-.5538049 1.975956-.8918033.895737-.4478685 1.169089-1.4273497 1.43388-2.3081967.31016-.4672462.495593-1.4923205.559562-1.5562841.165625-.1656306.289613-.3566206.437159-.5595629.898305-.0966645 1.636134-.1601245 1.906011-.1748634-.320059 1.0116225-.824628 2.0606182-.769399 2.115847.129209.1292031 1.275865-.768761 1.381421-.8743169.425631-.4256315 1.98008-.7417341 2.762841-1.1715847.125035-.0215432.243472-.0518155.349727-.1049181.246364-.1231821.614848-.0699453.90929-.0699453.180319 0 .334288.0065469.489617.0174584.005596.0003916.011975-.0004029.017458 0 .50091.1187672 1.03574.2711305 1.521312.3846994.419236.1892721.818545.4246858 1.363934.6994536 2.536706-.2507457 5.033072-.5245902 7.029509-.5245902 2.845852 0 5.480263-.6644809 8.35847-.6644809h3.742076c.231542 0 .664481.4588583.664481.2273224v-7.5016393c-.216126-.2152527-.41425-.4169583-.52459-.4721312-.289708-.144854-.209836-.0798552-.209836-.4896175 0-.7921675.322571-1.275557.734426-1.7136612v-.157377-.1748634c.056611-.0448769.116014-.092977.174863-.1224044.183722-.0918578.521698-.1020251.629508-.209836.063595-.0635888-.349726-.4533187-.349726-.5595629 0-.1696314-.20658-.4164154-.279782-.4896175-.022942-.022942-.437074-2.2034465-.419672-2.2382513.317132-.6342645.436694-2.5350547.839344-2.9377049.247506-.2475059.332325-.8219419.559563-1.0491804.3281-.3280996.588935-.728825.90929-1.0491803.030888-.0308879.279781-.1814662.279781-.2098361 0-.1255155-1.068054.5690027-1.189071.6295082-.6113.30565-1.174259.7801034-1.608743 1.2939891-.002238.0027978-.015052-.0027978-.017458 0-.210418.1040955-.397049.2221912-.52459.3497268-.015332.015332-.64958.8192727-.681968.7868852-.053326-.0533263.227077-1.3466999 0-1.5737705-.84494-.8449455-2.034156-.7868852-3.374863-.7868852-.088187 0 .148329-.6485501.19235-1.4513661-.215281-.0969947-.436885-.1922099-.646995-.2972678-3.025909-1.5129572-5.964503-3.156701-9.2153-3.9694045-1.978939-.4947319-4.084731-2.1869059-5.73552-3.2874317-1.409141-.9394277-3.501789-.8788382-4.598907-1.9759563-.009904-.0099042-.016451-.0195287-.034972-.0174583zm-4.179235 55.0994595c.010799.001119.034972.005036.034972 0 0-.033798-.012422-.023446-.034972 0zm19.602185-28.8000003c.043926.0752444.087746.1579982.122405.2273224.003917.0074981.000559.0711652 0 .1224044.073929.1609079.128162.2972677 0 .2972677-.007274 0-.001679-.1728265 0-.2972677-.054502-.1185882-.104885-.2450438-.122405-.3497268zm-25.512568 1.4338798c1.792342-.0735769 2.59612 3.4716398 1.643716 4.4240437-.303199.3031991-1.679942 1.5381711-2.168306 1.2939891-.334859-.1674268-.806157-.2291074-1.084153-.5071039-.77204-.77204-1.851689-2.13706-1.189071-3.462295.633526-1.2670574 1.349425-1.5144569 1.975956-1.4688525.294023-.1764134.565808-.2692728.821858-.2797814z" stroke-width="1.110308"/><path d="m342.248308 41.7010067c-.030776-.030776-3.51072 1.1325776-3.951912 1.5737705-2.427692 2.4276913-11.344035 5.4872355-16.961749 6.4349727-.017179.0027978-.035309-.0027979-.052431 0-.325638-.3256432-1.559216.304542-2.168306 0-.315767-.1578863-.618591-.0557325-.891803-.1923498-.963226-.4816101-2.239046-.7527071-2.972678-1.4863388-.23045-.2304503-.722105-.1275691-.996721-.4021858-.402947-.4029468-.16943-1.1486706-.489618-1.4688524-.378225-.3782253-.864278-.6894094-1.276503-1.1016394-.215594-.2155883-.892648-.5054195-1.101639-.0874317-.430791.8615813.939931 1.7268166 1.486339 2.2732241.563094.5630937 1.356123 1.0715069 2.185792 1.4863388.464482.2322409 1.012423.6277232 1.276503.8918033.067349.0673545.161798.1120412.262295.1398907.005036.0016787.012143-.0011192.017458 0 .805312.8935491 10.188297 1.427635 10.596722 1.8360655.15417.1541652 0 1.3323192 0 1.5737705 0 1.0774942-.748488 7.862009-1.171585 8.7082024-1.364673 2.7293461.93912 27.6901294 1.573771 30.8633879.464123 2.3206135.505078 4.9618228.087431 7.4841528-.001119.005652.001119.011863 0 .017459-.068087.143069-.138732.293792-.192349.454644-.550991 1.652971-2.411073 4.073299-4.056831 4.896175-.822457.411229-1.452317 1.239466-1.696175 1.486339.53248-.117547 2.676596-.227322 2.955191-.227322.140725 0 .279077-.00056.419672 0-.33501.47006-.687311.914633-1.084153 1.311475-.905686.905686-1.644784 1.889269-2.255737 2.762842-.1892.195153-.454438.454437-.612022.612021-.318906.318912-.350913.735613-.594536.979235-.043198.043199.017794.210379 0 .279782-.001119.003917.001679.014157 0 .017458-.307686.542731-.492102.894288-.489617.891803.080029-.080028.17164-.191471.262295-.314754-.199747.567867-.340645 1.1884-.646995 1.801093-.190939.381885-.072995.970909-.209836 1.381421-.350152 1.050467-.297267 2.207783-.297267 3.374863 0 .19498.087784.752266.209836.874317.012366.012367.030328.036036.052431.052431-.142118-.348686.13989-2.608312.13989-3.00765 0-.497496.615038-2.416125.979235-2.780328.274611-.274611.086067-.960383.402186-1.276502.282675-.282675.266447-.756065.594536-1.084153.933132-.933133 1.660944-2.299373 3.409836-2.53552 1.279485-1.140433 3.165105-2.237893 5.001093-3.234972.804187.018969 1.609834.034972 2.413114.034972 1.526516 0 3.400816-.299069 4.896175 0 .874687.174937 1.895206.279782 2.797814.279782.283738 0 4.13165.22082 5.420765.349727-.292304-.080846-.625294-.190241-.66448-.209836-1.018354-.509175-2.232197-.894087-3.357377-1.119126-1.301706-.260342-3.413099-.859679-5.193443-1.486339.567039-.015108 1.1303-.02865 1.206557-.104918.101886-.101885-1.492404-.187683-2.010929-.19235-.536604-.205617-1.030082-.40138-1.416393-.594535-.144809-.072402-.447085-.251871-.681967-.3847.199814-.168506.38118-.346212.542076-.507103 2.702174-2.702174 2.117504-14.3754273 6.330055-18.5879786.881849-.8818487-1.041296-3.4194438-1.189071-3.5672131-.061188-.0611938-.09437-.2248716-.104918-.4371585-1.106558-1.0444632-4.336612-3.4298349-4.336612-3.5147541 0-.0650828.565707.4227441 1.119125.6994535 1.094824.5474148 2.400066 1.1410494 3.077596 1.8185793.006827.0068266.101443.0149403.174863.0174583.030049-.3927795.069946-.816391.069946-.9617486 0-1.5939371-.023054-3.4853435.017458-5.4382514-.78646.0232779-1.581117.0874317-2.080874.0874317-.692856 0-1.398907.1486703-1.398907.1398907 0-.2122701.859533-.2199305.979235-.2797814.657402-.328704 1.690131-.7952227 2.535519-.9267759.009792-.2938153.003917-.5799533.017458-.874317-.011415-.005036-.024061-.0120306-.034972-.0174583-.483882-.2419382-.803863-.4196722-1.398908-.4196722-.791479 0 .450152-.3913694 1.503826-.6819672.152055-2.247361.454158-4.440064 1.04918-6.2251366.394889-1.1846617-.303535-2.7377507 0-3.9519126.933804-3.735205.028873-7.6811247.786885-11.4710438.299467-1.4973454.804372-3.2555142.804372-4.7562842 0-.6725106.860238-1.500423.384699-1.9759562zm3.269945 65.9235033c.241346.06675.454645.114827.454645.069945 0-.01522-.19682-.04415-.454645-.069945zm-23.798907-.524591c-.039505.011919-.087431.023166-.087431.034973 0 .038554.036763.012646.087431-.034973zm-2.238251 13.796722c.008673.011079.006379.034972.017458.034972.023334 0 .008953-.01438-.017458-.034972z"/><path d="m352.530275 45.7053783c-5.879578.1129813-11.805276 1.80581-14.024043 5.1759563-.002239.1101163-.013766.2351283-.017459.3497267l1.783607.3672131c-.581509-.1163051-1.311884.0439817-1.801093-.2448087-.085535 2.3825235-.42599 5.5193712-.174863 5.7704974.446229.4462234.891691-.3846994 1.189071-.3846994 1.047496 0 2.864598-.8266366 3.951912-1.1890767 1.81281-.6042663 9.112095-.4412489 10.579235.7169455.312499-.5951958.728999-1.2213354 1.293989-1.5038307.194846-.0974255.589427-.3972561.874317-.4721312.091388-.0752612.161999-.1224043.209836-.1224043.065945 0-.021487.0874316-.087432.0874316-.035308 0-.081707.0242851-.122404.0349727-.506925.4174731-1.525508 1.7968962-1.363934 1.9584756.054781.0547812.854004-.2098417 1.084153-.2098417.091969 0 .175059.0116949.262295.0174584.196591-.0488499.378874-.0757704.437158-.0174584.008785.0087292.012423.0225504.017459.0349727.113361-.0139891.225912-.0349727.367213-.0349727.414865 0 .734991.0480105.979235.279787.006043.0057076.011583.011527.017458.0174584.063762.0039169.127351 0 .19235 0 .135179 0 .328888.0621338.52459.1398907.224698.0096245.435502.033294.559563.157377.082435.0824292.214838.1099206.297268.1923498.024732.0247326-.034414.1088629-.069946.1224043.053215.0404564.250472.3846995.174864.3846995-.111493 0-.368467-.1761168-.402186-.2098361-.3801-.3800998-2.253231.2947609-2.360656.4021858-.058737.0587373-.109456.1175082-.157377.1748634.092199.1687306.096653.463872.244809.6120219.003917.0039169.045716.0450448.052431.052431-.478163.1578863-.8665.4215243-1.031694.7519126-.133227.2664582-.209523 1.6615155 0 1.8710382.009568.0095685 1.574738.3588253 1.801093.3846995-.029209.1306859-.064053.2564029-.122405.3147541-.053046.0530465-.413282.7757891-.297267.8918033.313937.3139371.49796.6903158.891803 1.084153.552848.552848 2.082838.5049607 3.042623.4721311.001119.0033574.017458.0147725.017458.0174584 0 .4381768-2.490911.1923497-2.570492.1923497-.114967 0-1.163639-.2463923-1.084153-.0874317.320932.6418689.841163 1.0434 1.503825 1.4163934.546654-.0139331 1.067624-.0340214 1.259017.1573771.504748.5047425 1.340175.4021858 2.378142.4021858 4.22494 0 5.834931-2.5769604 7.519126-5.9453552.747995-1.4959857-.319074-3.8031696-.786886-4.7388034-1.257427-2.5148433-2.114487-4.4751374-3.969399-6.3300547-2.415397-2.4153921-7.711867-3.6175681-13.062295-3.5147541zm-14.059016 5.6480874c.001679-.0407362.016171-.082127.017458-.1224044l-.192349-.0349726c.056208.056208.109293.118672.174863.157377zm-.174863-.157377c.062111-.108919.14031-.2091478.209836-.3147541.031167-1.5081842-.098455-2.5769548-.612022-2.063388-.294812.2948113.402186.3970658.402186.8043716 0 .5275614-.373044 1.2007267 0 1.5737705z"/><path d="m388.552133 39.2704056c-1.443263.7365134-2.967087 1.6612637-3.409836 2.2382514-.925556 1.206188-3.315466 2.3377136-3.951912 4.1792349-3.62679 10.4939464-6.133559 17.29893-15.772678 23.8163991-1.475953.9979635-3.746911.2102445-5.245902.9617486 1.410681.1697714 6.677046.7461994 7.571585-.4196721.649468-.8463836 3.635385-2.7751687 5.997814-4.284153-.274538 1.256364-.108225 2.5671848.961749 3.6371584.098914.0989196.495616-.0989195.594535 0 .134351.1343511.290123.2118897.472132.2448088-.195931 1.0798164-.367146 2.0538026-.489618 2.4306011-2.957334 9.0986093 3.515689 1.9593596 2.168306 5.8579235-.363346 1.0513346.242028 2.4059691-.104918 3.409836-1.445675 4.5633413-.252676 9.5535172-.139891 14.7234973-.80398 1.0477479-1.059336 8.9099634-1.696174 9.7398904-.295254.384773-.886253.83099-1.241531 1.293989-.657559.856932-1.823693 1.768348-3.077595 2.378142-.891457.433527-6.435622 7.420162-7.571585 8.900547-.258372.336717-1.584553 2.039271-1.416393 2.168306.266279.20433 2.67645-2.453308 3.269945-2.972678 1.085809-.950205 3.258732-2.118174 5.15847-3.322404.565427-.14834 1.12842-.476809 1.259016-.646995.170326-.221967.773943-.092764.944263-.314754.374386-.487888 1.334412-.605827 1.661202-1.031694.553906-.721853 1.075894-1.537673 1.311475-2.587978.143366-.0893.319113-.174936.472131-.262295.470072-.802642 1.577078-1.741779 1.783607-2.010929.271371-.353638 1.389831-.468203 1.661202-.821858.526532-.686175 2.023385-.995373 2.587978-1.731147.039785-.051816 1.398079-.491476 3.112569-.996722.516571.07976 1.093044-.094913 1.748633-.489617.425744-.120088.832983-.233959 1.259017-.349727.405946.035029.790539.134362 1.014208.104918.204072-.026859 3.260175.502835 3.269945.577049.009904.074959-.62628-.652064-.681967-.734426-.527713-.780467-1.316461-1.620231-1.923498-2.518033-.373793-.5528198-.845314-1.0835819-1.224043-1.6437155-.177371-.2623231-.2343-.5894883-.297268-.926776.105819-.9419681.231558-2.0581784.419672-3.6021858.037547-.3082967.058603-.5598762.087432-.8393443-1.738064-.0379383-4.703825.0318392-4.703825-.2797814 0-.1318945.270296 0 .402185 0 .541075 0 2.70035-.0910576 4.354099-.2448087.156957-1.7270404.159492-2.9323275.13989-4.0043716-2.053231-.01024-5.088524.020424-5.088524-.3147541 0-.1862393 2.978475-.1085664 5.088524-.104918-.010351-.5280315-.028929-1.0508423-.017458-1.6087432-1.458193-.0463878-3.282177-.052431-3.689617-.052431-1.381975 0 1.56203-.6592826 3.742076-1.0666667.023446-.3333987.060875-.682191.104918-1.0666667.116596-1.0174027-.190732-2.0695543-.122404-3.0950819.139532-2.0950145.717695-4.2235692.85683-6.3125683.201046-3.0185618-.035532-6.0510902.122405-9.1103826.261646.0458282.543156.0458282.891803 0 .244926-.0322308.657151.2967754.804372.1049181.425799-.5549185.973107-1.036344 1.398907-1.5912569.046443-.0605279-.039002-4.6117434-.227323-4.7562841-.670893-.5146691-1.728943-3.6588919-1.259016-5.0185848.351064-1.0158024.760726-7.7954826.594535-9.0579235-.103838-.7887766-.042582-2.8720347-.629508-3.3224044-.064517-.0494654-.128615-.0674217-.192349-.104918-.002798-.0022383.002797-.0156678 0-.0174584-.023502-.3311157-.03861-.6765171-.034973-.979235-.002798-.0044765.003357-.0130937 0-.0174583-.103536-.1478142-.223585-.2744768-.367213-.3846995-.796118-.6108971-1.277281-1.2861328-2.413115-1.6786885-.097325-.0336297-.207822-.0556206-.297268-.0699454z"/></g><path d="m388.723751 36.5200703c-5.434575-.0801574-8.799579-6.3316942-5.891822-14.7451244.281522-.814578 2.832284-3.8115014 2.890461-3.7668539.125298.0961497-2.14857 4.797966-1.080068 4.6573087.1016-.0133736 1.551478-3.9717491 2.430495-5.117275.71483-.9315658 5.366426-9.34797287 4.620114-9.92065186-.246453-.18911546-.260633 4.85844356-.211386 4.82514956.63037-.4262246 3.614015-6.84505951 3.415751-8.35113409-.08267-.62801416-.022103-2.24598452.226136-2.56952376.053159-.0692459-.192948-1.10337958-.146068-1.10955156.190805-.02506842.297945 4.40706098.306881 4.47472332.441943 3.35713084.256918 8.43552739-1.809721 9.83287889-.851884.5759972-1.840302 3.1696493-1.926978 2.5112341-.074019-.5624278 1.282473-.0463878 1.627819-.4964833.237618-.3096677 2.377784-2.5705814 2.481745-2.5842683.292394-.0384979-.206328.5762882-.167836.8686766.26055 1.9791849-4.935439 7.525348-4.766182 8.8111003.032063.243712 4.215444-2.2764583 4.219115-2.2485865.150572 1.1438024-1.334535 3.364047-1.985268 4.2120813-.363531.4737539-.84903 2.1250518-.926972 1.5330007-.009736-.0719541 1.581364-.1109445 1.664331-.2190968.120334-.1568175 1.709878-1.6803504 2.07304-1.4016825.797657.6120778.016339 3.8784308-.525295 4.5842801-.309153.4028964-1.082335.4355749-1.31391.7373584-.080286.1046382-.223651.4446622-.240869.3139035-.077986-.5923924 4.82459-1.087779 3.233853.9852615-1.616862 2.1070954-5.252638 3.1802698-8.19736 4.183275z" fill="#5a8ce6"/><path d="m386.881681 34.6667702c-.267129-.0506964-.852085.1150293-.801389-.1521004.050697-.2671297 1.004371.3330182.801389.1521004-.181432-.1617081-1.026322-.1651998-1.20776-.3269078-.341585-.3044638-.645713-.7629248-1.055649-1.1283025-.200502-.1787132.070902-.9428634-.068104-1.185059-.772605-1.3460844-2.498073-5.186588-1.175977-6.6699163.294637-.3305562.032622-1.78533.292864-1.8002872.178612-.01024.750653 1.7934157.903542 1.9296917.020928.0186334.573916-.0131498.592533-.0340774.248009-.2782538.203199-1.2792054.501721-1.6141318.989245-1.1098817 1.503813-2.9486723 2.538109-4.1090993 1.208891-1.3563132 1.202714-3.0313422 2.143098-4.0864035.087756-.0984551-.154378-.3874525-.022718-.3950178.094146-.0055956-.480458 1.5647111-.501715 1.6141261-.417037.969465-1.559452 3.8977357-1.527864 4.4473663.012702.2208763-.196888.5740891-.163454.6038803.423203.3772069 2.003962-2.2949463 2.442755-2.3201658.044597-.0027978-.814405 1.4454459-.896733 1.6368276-.209775.487659-2.412807 5.9073161-1.809375 6.4451679.101046.0900673 2.824791-2.568869 2.837784-2.3428728.025852.4494744-2.024051 4.7546838-1.482461 5.2374075.188103.1676618 3.732687-2.2948064 4.045539-2.0159595.219734.1958526-2.351519 2.5888903-2.013694 2.8899966.449044.4002329 1.65432-.2120295 2.195311.270157 1.207044 1.0758491-3.563968 3.1772481-4.569961 3.2350622-.33679.0193609-1.692885-.2385417-1.997802-.2815105z" fill="#c8dceb"/><path d="m431.481095 2.14690833c-1.77556.02243847-3.657924.48607545-6.032787 1.22404371-.014996.00447651-.037491-.0044765-.052431 0-3.463017.42084722-7.341795 1.31613098-9.897268 2.93770492-1.046153.17826553-2.77171 1.25410343-4.109289 2.37814208-.029321.02462076-.058531.04526863-.087432.06994535-.332554.2359061-.744778.57812354-1.398907 1.01420765-.317703.21180013-.406472.64402326-.699454.83934426-3.37197 2.2479822-4.55643 6.3350124-5.455737 9.9322404-.162162.6486397.069206 1.471074-.139891 2.0983607-.23862.7158543-.254769 2.173398 0 2.9377049.218112.654336.485505 1.3166122.699453 1.95847.304643.9139228.461248 1.6219488.839345 2.378142.050752.1015663.702637.8393443.559563.8393443-.117386 0 .53803-.0807113.699453 0 .166828.083414.427674.131889.559563 0 .39236-.3923599.044933-1.1690946-.139891-1.5387978-.217261-.4345285-1.097011.161999-1.259016 0-.11532-.1153203-1.817164-5.8768255-1.119126-6.5748634.349727-.3497268-.069945-1.4688525.279782-1.8185792.584614-.5846145.910162-3.8478675 1.678688-4.6163935.853026-.8530256 1.306512-1.8660749 2.098361-2.6579235.498302-.4983019.948089-.8371172 1.381421-1.1715847.094359.4055488.109411.8438376.437158 1.1715847.878038.8780381 3.160713-.0490177 4.528962-.7169399.074203-.0016787.154014.0022383.227322 0-.200133.3485797-.407932.7052003-.699453.9967213-.26027.2602695-.353952 1.4730772-.699454 1.8185793-.140439.1404391-.388185 2.066874-.839344 2.5180328-.047339.047339-.150332.487424-.279782.9442623.420036.3779679 1.24007 1.0815846 1.783607 1.4338797.238592-.0160594.454645-.0066028.454645.1398908 0 .1225834-.1893.0321189-.454645-.1398908-.204028.0137093-.426286.0491297-.52459 0-.203368-.1016837-1.464706-.4937638-1.678689-.2797814l-.034972.0349727c-.066544.231424-.302685 1.2872072-.489618 2.0284153.557828.5177691 1.308135 1.0562532 1.503825 1.1540984.073689.0368192.350661.1948006.612022.3322404.285718.074226.507104.1491067.507104.2273224 0 .0270269-.245743-.0898826-.507104-.2273224-.705396-.1832624-2.00178-.4147256-2.780328-1.1191257-.006043-.0055956-.011471-.0119746-.017458-.0174583-.325828-.1586025-.704098-.348479-1.381421-.6819673-.377817 1.6836743-.527019 3.3976936-.209836 4.9836066.762013 3.8100522-.647118 8.1307782.559563 11.7508197.622413 1.8672332.914863 3.9392384 1.398907 5.8754098.805127 3.2205192 2.357768 6.2339553 3.357377 9.2327869.601787 1.8053568.773657 4.4503935.664481 6.8721367-.900326.8736511-1.707842 1.8943721-2.238251 2.9551913-.059034.1180678-.096491.2424865-.139891.3672131-2.988379-.0059873-5.983825-.0990258-8.970492-.3672131l-.786885.979235c-.065945 0-.145738-.0466116-.19235 0-.508094.5080942-.459384 3.3001785 0 3.7595628.507149.5071486 3.795867-.1923497 4.546448-.1923497 1.799828 0 3.89942.0607237 5.735519-.2622951.484811 1.2265226 1.12184 2.0926195 1.975957 2.8153005.064987 1.1123886.023445 2.2028423-.314755 3.2174864-.942824 2.8284782-.454158 6.1187637-1.398907 8.9530054-.745897 2.2376974-1.739155 4.378126-2.518032 6.7147541-.739619 2.2188514-1.437338 5.2336025-2.797815 7.274317-1.542144 2.313216-3.478024 4.7178028-4.756284 7.2743168-.888132 1.776265-2.81685 3.10615-3.91694 4.756284-1.689253 2.53388-2.800724 4.479413-4.756284 6.434973-1.107554 1.107554-4.373342 5.389301-5.036065 6.714754-.46394.927878-1.319494 1.72342-1.381421 2.692896.764195-.737588 2.834516-2.214615 3.339891-2.972677 2.188282-3.282424 4.912777-4.912777 7.554098-7.554099.904673-.904673 2.707982-1.309069 3.637158-2.238251 1.863317-1.863316 4.182861-4.285362 7.274317-5.315847 1.756586-.585527 3.662485-.852007 5.315847-1.678689.934521-.467257 4.759379-.28287 5.315847-.839344.223842-.223842-.778659-1.181366-1.871038-2.360656-.46442.034022-.896129.107084-1.206557.262295-.630952.315476-2.484963.872415-2.518033.839345-.317877-.317877 1.873819-1.29052 3.060109-1.853552-.728657-.842484-1.384476-1.7304259-1.643716-2.5355193-1.092955.3659597-2.567621 1.2036868-2.67541 1.3114754-.287822.2878219-.698821.5068069-1.084153.7693989-.179843.241681-.405481.489617-.594535.489617-.065945 0 .093262-.093256.139891-.13989.132935-.132936.296909-.242235.454644-.349727.109748-.147484.21842-.323338.244809-.349727.743877-.743877 1.769103-1.0696489 2.518033-1.818579l.891803-.8918033c.001119-.0055956-.001119-.0119746 0-.0174583.053439-.231715.17694-.4392345.367213-.6295082.902463-.902463.183257-3.8204097 1.119126-4.7562842.955409-.9554088 1.019893-2.9783627 1.95847-3.9169399 2.586182-2.5861763 3.368367-6.7367337 5.315847-10.631694.549093-1.0981868.009513-2.8168057.559563-3.9169399.347639-.6952792.283088-1.591184.297268-2.4306011.522872-.2474274 1.224491-.5425297 1.57377-.8918032 1.029467-1.029467 1.490312-2.2722336 1.521312-3.5672131 3.002032-.1915832 7.01398.209836 9.162841.209836.48485 0 1.494755-.0973415 2.622951-.2448087.051536 1.5024598.199467 2.836659.489617 3.7071038.294526.8835777.419673 2.016491.419673 2.9377049 0 .4627585.232459.9861344.297267 1.2415301.03833-.2548977.262295-1.5418642.262295-1.6612022 0-1.3758307.419673-3.0996424.419673-4.6163935 0-.60618.026355-1.2435221.052431-1.8885245-.002798-.0044765.002797-.0129259 0-.0174584-.064602-.1140277-.135303-.2181456-.19235-.3322404-.215119-.4302423-.732177-.6443926-1.136612-.8568306.362031-.0456044.690556-.096021.71694-.1224044.178455-.1784446.472366-.1398907.839344-.1398907.156443 0 .39729-.1622732.419672-.1398907.288069.2880685.382819 1.3620599.559563 1.5387978.216209.2162095 2.026955-.6637479 2.378142-.8393443.694048-.3470241 3.576558-.2191807 3.91694-.5595628.211212-.2112126-.664929-.1053657-.699454-.1398907-.351668-.3516629-1.288466-.2945036-1.818579-.5595629-.516292-.2581431-2.857268-1.2590164-3.077596-1.2590164-.465125 0-1.067248.9273635-1.259016 1.1191257-.034077.0340774-.793857-.1445015-1.43388-.2797814.165357-.1553794.387537-.3525638.454645-.4196721.172189-.1721887.365143-.3192642.559563-.4721312-.04303.0022383-.078496-.0022382-.122404 0 .024005-2.4333373-.173605-4.8241311-1.276503-6.6622951-.240534.6740047-.598565 3.6035679-.734426 6.7147541-4.149679.0155559-8.358689.2202496-12.590164.4371585-.502779-1.0610822-1.22189-2.0659004-2.080875-2.9027322-.858112-4.1867332-2.359061-8.4427178-3.33989-10.4043772-.582679-1.1653568-.528642-2.7359713-1.119126-3.9169399-3.107611-6.2152156-7.980737-12.8560123-4.196721-20.4240437.516784-1.0335686.341741-2.8597746 1.119125-3.6371585 1.58781-1.5878099 2.694905-3.7255918 5.315847-5.0360656 1.725256-.8626276 3.531222-2.7978142 5.315847-2.7978142 1.062772 0 3.21573-.9101681 4.476503-.2797814 2.581168 1.2905813 5.143463 2.6254297 6.714754 4.1967213.573949.5739436.689477 2.2182918 1.119126 3.0775956.919104 1.8382143-.556474 7.840063.559563 10.0721312.144954.2899039.225011.6206111.262295.9617486-.156728.0172346-.310765.0250125-.472131.0349727.521176.3599164.944452.7171301 1.189071.9617486.041575.0415756.172177.0150523.279781 0-.047171.0236136-.092389.0741477-.139891.1049181-.381426.0827817-.676203.2023659-.699453.3147541-.609107-.6091066-1.159565-.8563718-1.678689-.8568306-.865201-.0005596-1.634483.6727344-2.378142 1.4163934-1.016793 1.0167984-1.678688 3.7745927-1.678688 5.4557377 0 .4745597-.000521 3.4977938-.139891 3.6371585-.233008.2330075-.390972 2.9090049-.699454 3.2174863-.190105.1901059-.839344 1.7507826-.839344 1.8185793 0 .1414686.6508-.9549052 1.538798-1.3989071.609336-.3046652 1.177208-.7995034 1.731148-1.3464481.461096-.3893551.851727-.8167547.926775-.8918033 1.57334-1.5733396 4.21695-3.3776053 5.87541-5.0360656 1.038387-1.0383808.911579-2.3827137 1.538798-3.6371585.130563-.2611312-.130563-.7181037 0-.9792349.731606-1.4632177-.233897-2.0618716-1.381421-2.1508197 1.06693-2.1863967 1.321861-5.3852608 1.801093-7.7814208.168054-.3952808-.037602-5.1488622-1.119125-8.3934426-1.201729-3.605185-1.367331-8.4656542-5.036066-10.9114754-4.180595-2.78705941-6.834752-3.88397605-9.757377-3.84699454zm10.754098 72.51585257c-.003917.0255161-.018074.1573771-.017458.1573771.051871 0 .042415-.0591794.017458-.1573771zm-53.857923 50.1333331c-.176352.170214-.297268.31279-.297268.3847 0 .186524.279782-.093257.279782-.279782 0-.036651.01522-.068759.017458-.104918zm32.507104-64.2972675c.056532-.0124783.089384-.0155559.104918 0 .330511.3305114 1.862443 1.2284922 2.378142 1.4863388.613583.3067971 1.452882 1.1381284 1.783606 1.4688524.026188.0261876 0 .2565316 0 .2972678v2.7803279c0 .2581263.32331 1.4428104.087432 1.6786885-.516454.5164541-2.02259 1.4484508-2.86776 1.8710383-.201353.1006765-2.414401 1.4500791-2.570491 1.293989-.526605-.5266046-1.177293-1.1839566-1.871039-1.9759563-.318497-.3636095-1.556787-1.4518641-1.783606-1.6786885-.176307-.176307.049857-3.9760521.104918-4.4590164.869812-1.0872642 2.097437-1.2985551 2.867759-1.8710382.115461-.1154658 1.370381-.8043157 1.766121-.8918033z" fill="#e6b35a"/><path d="m403.590385 58.4704112c-2.190515.8720507-3.464371 3.0353039-3.951913 5.4907104-.41026.0190811-.810795.0707567-1.206557.2448087-.113278.7770314-.231245 1.2821431 0 1.6786885.032622.0559563.439799.0237255.979235-.052431-.019081.4543259.006547.9139788.034972 1.3639344-.42994.0477307-.856153.1388164-1.293989.3672131 0 .5816488.071921 1.4688525.419672 1.4688525.014157 0 .609471-.1837996 1.049181-.3147541.270297 1.4299293.801378 2.725183 1.538798 3.6721312.393238.5049774 1.634897 2.2515969 2.325683 1.7136612-.795688-1.294946-1.5352-2.2513844-2.080875-3.7945356-.140461-.3972224-.205992-1.1656869-.227322-2.0633879.335027-.1022042.886829-.2585461.891803-.2622951.360806-.2710467 2.657924.3606662 2.657924-.2098361 0-.3582713.13989-1.3043466.13989-1.4688524 0-.2888576-.367302.209836-.559562.209836-.245128 0-1.382798-.2343841-1.538798 0-.289915.4356085-.952852.5719236-1.591257.6120219.013709-.5306167.05726-1.0616306.104918-1.5912569 1.044485-.1797427 2.059969-.3672131 2.325683-.3672131.200368 0 1.131492.2186828 1.259016 0 .197078-.3379591-.265266-.0421351-.13989-.4721311.075188-.2578746.279781-.4286308.279781-.7169399 0-.2528609-.272216.2273224-.419672.2273224h-2.098361c-.339291 0-.707226-.1048061-1.031694-.1748634.131139-.7455391.307687-1.3529166.52459-1.6786885.138688-.2083029-.033797-.631047.104918-.8393443.703231-1.0562028.961458-1.995194 1.503826-3.0426229z" fill="#e6b35a"/><path d="m417.29038 65.6529822c.111034-.5451877 1.103284-2.8727005 1.35863-2.8331842.270229.0418553.73122.0104639 1.068927-.0468913.595895-.1011746 1.105428-.3951241 1.744527-.2962046.030048.0044765 2.149846 2.9372125 2.161675 2.9533782.007498.01024-.622553 1.3062939-.729928 1.5149157-.290469.5643919-.410814 1.2823222-.496231 1.8342078-.011135.0718703-.84607-.1309544-.967708-.1497837-.877624-.1358339-1.591486.3906811-2.377325.2690434-.031615-.0050361-1.220099-2.5043403-1.762567-3.2454869z" fill="#e6b35a"/><path d="m455.035193 21.9239575c-.019864 0-.010519.1756132 0 .3846995.043366-.226041.054446-.3846995 0-.3846995zm0 .3846995c-.056678.2954268-.172227.7336988-.262295 1.24153.077058-.1846333.170135-.3624848.262295-.4546448.0418-.0417993.016675-.4551316 0-.7868852zm-.262295 1.24153c-.347169.8318517-.542076 2.3968539-.542076 3.1125683 0 1.54018-2.724165 10.675989-3.72459 11.820765-.008002-.0528227-.032119-.3497267-.034973-.3497267-.19033 0-.119243.296171-.122404.5420765-.644326.6779271-1.358485 1.6780562-1.923498 2.5005464-1.081293 1.0437358-2.216451 2.0241067-3.479781 3.2874317-.207564.2075643-.879823.2852931-1.189071.5945355-.271545.2715447 1.251848 4.0321819 1.381421 4.1617487.010855.0108555.035028.0124223.052431.0174583 1.611675-.8115563 3.894093-2.2086449 3.899453-2.2032787.090884.0908786-.882156 1.0919925-.979235 1.1890711-.600875.6008753-.812373 1.983958-1.398907 2.5704918-.075071.0750709-.029041.9868674.034973 2.0109289 1.555529 3.5908827 3.777849 7.9574481 5.578142 11.2786942 1.394139.2659994 2.83136.4535816 3.2.4021858-.206591.1352967-.680831.5409405-.699454.5595628-.13707.1370705-.842164.0552848-.979235.1923497-.073661.0736609-.335782.2820868-.629508.4896175 1.069375 1.9070182 1.876416 3.2156006 2.080874 3.3224044 4.390582 2.2934466-4.383044 7.813618-2.168306 8.9704918 1.914461 1.0000283 12.584015 3.0691015 13.1847 4.9836065.504317 1.6073611-16.82925 23.7443215-19.287432 28.4502735-1.025013 1.962297-10.313649 17.355983-9.844809 18.850273.026971.085949 2.930073-3.809705 3.5847-4.44153 3.866646-3.73196 7.256747-5.539644 11.17377-9.320219 2.302109-2.221917 5.788756-3.936838 7.431694-4.686338-1.607433.876633-3.161172 2.552557-3.654644 3.497267-1.226775 2.348542-4.416345 4.274389-6.365028 6.155192-5.848164 5.64445-9.544167 13.461123-12.852459 19.794535-.39194.750424-4.16327 7.290847-1.416365 8.725711 7.083427 3.700042 12.779537-.434881 16.19235-9.2153-1.129763 2.162833-3.183628 2.45314-3.829509 3.689617-1.210799 2.317967-9.518622 3.411168-9.022951.332241 1.765701-10.967723 21.821771-29.416012 33.014208-40.21858 1.176352-1.135364 7.73749-5.1377826 8.113661-5.8579232.159313-.304973.035477-.7865215.017459-1.1715847-1.437086.9406755-4.573968 2.6089109-6.06776 3.0775959-1.533023.480994-14.96144 7.818564-15.143169 7.239344-.284717-.907454 1.099283-1.560279 1.783606-2.220765 4.644831-4.483033 8.638078-13.7425725 14.61858-19.5147542 7.734395-7.4649823 14.063207-23.2446545 19.86448-33.4863443-1.04383-.2458496-2.140249-.4302423-1.906011-.6644809.158413-.1584123 1.337977-.2203615 2.553006-.4371585.282092-.480228.577049-.9668127.856831-1.4163934-.418061.015276-.783377.0349726-.891804.0349726h-1.24153c.407619-.0740581 1.094057-.2797814 1.10164-.2797814.21265 0 .738007-.0364275 1.224043-.0699453.508878-.8051158 1.019009-1.552703 1.521312-2.2382514-.994657-.6957884-2.398063.2098361-3.72459.2098361-.027811 0-.067959-.0083375-.104918-.0174584-.115158.0552289-.174864.0728159-.174864.0174584 0-.0654577.087824-.0390575.174864-.0174584.345474-.165597 1.140489-.6819672 1.923497-.6819672.447991 0 1.655427-.1965465 2.622951-.4546448.046387-.0576686.093542-.1183979.13989-.1748634 1.513243-.7729745 4.246288-2.1828994 4.371585-2.3081967.452507-.4525073 2.181316-3.1865761 2.378142-3.7770492.201325-.6039642 1.033334-1.1303281 1.398907-1.6786885.708754-1.0631303 1.543644-2.1080523 2.098361-3.2174864.458366-.9167318 1.442805-4.5204004 1.818579-4.8961748.076095-.0760894.975156-2.242325.839344-2.3781421-.425413-.4254133-6.105272-1.0041915-6.994535-.5595628-.430181.2150903-2.666994.9792349-2.937705.9792349-.13843 0-1.538798.6920785-1.538798.8393443 0 .067612.684357-.2646844.699454-.2797814.274566-.2745663 1.030228-.0509762 1.259016-.2797815.510025-.5100191 4.27933-.1971731 4.616394.1398908.13989.1398907.419672.1398907.559562.2797814.532436.5324352-.259855 1.7457241-.874317 2.5005464-.797953.0451567-1.574453.0869505-2.133333.2622951-5.996287 1.8813622-14.099534 1.6140031-16.891803 6.9595628-3.471304 6.6454579-2.742412 18.5356703-4.651366 22.1901696-1.421033 2.7204434-4.54651 1.1020086-5.473224.4196721.178618 1.1485867-1.515246 5.683463-1.661203 5.9628415-.815685 1.5615665-3.776355 10.3129391-4.179235 10.4393443-1.480441.4644931-10.965271-16.9527397-13.674316-19.7595628-.949573-.9838514-.210625-6.4270773-1.363935-7.0295138-1.865303-.97435.690019-9.3402789-1.101639-8.7781421-.90887.2851644-2.319797.5875634-3.812022.9617486-.121957-.3856507-.263342-.7540053-.3847-.9967213-.064545-.1290855-.203966-1.2169708-.33224-2.273224.214945-.4189839.416623-.7663437.542077-.8918033.089725-.0897259.227523-.1540421.314754-.2448088-.004477.0929266.010072.1849244.069945.2448088.164864.164864.429672.2373218.594536.4021858.865666.8656661 3.595017-1.0245204 3.759562-1.1890711.554807-.5548009-.839131-2.2380387-.979235-2.378142-.131894-.131889.131889-.6549963 0-.7868853-1.181298-1.1812987-.594535-3.9207393-.594535-5.9278688 0-1.7173488.19235-3.1616924.19235-4.5639345 0-.4518358.063655-.8991279.13989-1.3289617zm22.469946 38.1377105c-.03156-.2028639-.130916-.3144911-.297268-.2622951-.036484.0114711.104258.120183.297268.2622951zm2.325683 35.8994536c.795234-.5205389 1.08892-.8364066.262295-.5770492-.234496.0735713-.275087.3020073-.262295.5770492zm-28.292896 43.2262299c.503556-.964004-3.365368.768414-2.797815 1.696174.567548.927772 1.870054-1.128621 2.797815-1.696174zm42.45683-90.6491863c.056829-.0130938.174864.0349726.244809.0349726-.162374.0287056-.279782.0392814-.279782 0 0-.0233337.016004-.030608.034973-.0349726zm-38.137705 14.2863444c.02104-.0095686.034973-.0111353.034973 0 0 .0170666-.029097.0265792-.069945.0349726.013597-.0081696.025068-.0304961.034972-.0349726z" fill="#e6b35a"/></g></svg>