<svg height="387" preserveAspectRatio="xMidYMid" viewBox="0 0 256 387" width="256" xmlns="http://www.w3.org/2000/svg"><path d="m146.437673 115.038455v266.99169c0 2.836565 2.836565 4.609418 5.31856 3.191136l102.470914-55.66759c1.063712-.709141 1.772853-1.772853 1.772853-3.191136v-151.401662c0-1.418282-.709141-2.481994-1.772853-3.191136l-102.116344-59.922437c-2.481994-1.418283-5.67313.35457-5.67313 3.191135zm-14.537396 268.055402v-379.39058165c0-2.48199446-2.481994-4.25484765-4.963989-3.54570637l-124.45429354 46.09418282c-1.41828255.7091413-2.48199446 1.7728532-2.48199446 3.5457064v288.6204988c0 1.418282 1.06371191 2.836565 2.48199446 3.545706l124.45429354 44.6759c2.481995.709142 4.963989-1.063711 4.963989-3.545706z" fill="#f14646"/></svg>