<svg height="229" preserveAspectRatio="xMidYMid" viewBox="0 0 256 229" width="256" xmlns="http://www.w3.org/2000/svg"><path d="m130.270001 120.093c-7.733.287-15.332.434-22.702.434-50.4080004 0-90.2290004-6.837-90.7960004-22.086-.441-11.846 20.008-20.871 52.095-26.162l-.059 5.011-.13 10.967 9.998 4.51c15.607 7.041 31.2050004 10.611 46.3590004 10.611 17.03 0 33.747-4.484 49.687-13.328l8.382-4.651.243-9.583.186-7.351c32.283 2.784 55.282 9.426 55.695 20.547.65 17.479-48.336 28.828-108.958 31.081zm-44.6130004-50.108c.047-.005.089-.011.136-.017l.198-16.889c-.061.007-.118.015-.179.022.015-.008.03-.014.044-.022l.062-5.276c2.938-20.906 22.0290004-31.04 40.9950004-31.04 19.37 0 38.611 10.573 40.375 31.04l-.072 2.848-.424 16.745-.203 7.996c-13.719 7.612-27.573 11.223-41.554 11.223-13.05 0-26.2110004-3.148-39.4660004-9.127zm128.6100004-14.139c-8.66-1.818-18.878-3.209-30.309-4.164l.087-3.454.024-.934-.08-.93c-2.316-26.865-26.32-46.364-57.076-46.364-30.1490004 0-53.8330004 18.698-57.5940004 45.471l-.15 1.062-.012 1.073-.09 7.665c-10.231 1.588-19.461 3.523-27.463 5.794-28.232 8.009-42.223 20.794-41.583 37.999.969 26.079 35.143 38.225 107.5470004 38.225 7.528 0 15.376-.149 23.325-.445 32.263-1.199 60.336-4.793 81.182-10.393 29.774-7.999 44.546-20.805 43.905-38.062-.892-23.976-31.617-30.424-41.713-32.543zm-81.9057 172.5069c-4.524 0-8.25-3.603-8.375-8.152l-1.746-63.908c-.125-4.628 3.523-8.481 8.15-8.608 4.598-.077 8.482 3.522 8.608 8.149l1.746 63.908c.125 4.628-3.522 8.481-8.15 8.608-.077.002-.155.003-.233.003zm53.4356-23.7446c-3.447 0-6.676-2.143-7.897-5.577l-16.763-47.145c-1.551-4.361.729-9.154 5.09-10.705 4.362-1.547 9.155.729 10.704 5.09l16.763 47.145c1.551 4.362-.728 9.154-5.09 10.705-.927.33-1.875.487-2.807.487zm-107.5546004 3.1417c-.668 0-1.348-.08-2.026-.248-4.492-1.115-7.23-5.66-6.115-10.154l11.524-46.447c1.116-4.492 5.656-7.231 10.154-6.115 4.492 1.114 7.23 5.66 6.115 10.153l-11.524 46.447c-.947 3.814-4.367 6.364-8.128 6.364z" fill="#5581b5"/></svg>