<svg height="274" preserveAspectRatio="xMidYMid" viewBox="0 0 256 274" width="256" xmlns="http://www.w3.org/2000/svg"><path d="m233.6468 181.9252v-29.805c13.306-5.854 22.353-19.16 22.353-34.062 0-15.967-10.112-29.805-25.014-35.127-11.177-47.9-54.287-82.495-103.784-82.495-50.029 0-93.139 35.127-103.784 83.56-14.37 5.322-23.418 19.16-23.418 34.594 0 14.37 7.984 27.144 20.757 33.53v30.87c-12.241 6.918-19.692 20.224-19.692 34.594 0 21.821 17.563 39.917 38.32 39.917h56.948c6.387 10.112 17.563 16.499 30.337 16.499 12.773 0 23.95-5.855 30.336-16.499h58.013c20.757 0 38.32-18.096 38.32-39.917 0-14.902-7.451-28.74-19.692-35.659" fill="#fff"/><path d="m212.5933 102.6067c.035-.012.071-.02.106-.033.004.095.011.189.015.284-.04-.084-.081-.167-.121-.251m-4.929-9.042c-12.058-19.5-30.931-34.291-53.319-41.092v-27.338c29.687 9.926 52.102 35.604 57.302 67.193-1.364.337-2.716.702-3.983 1.237m-101.219-43.038v-27.262c6.65-1.657 13.585-2.604 20.757-2.604 5.651 0 11.158.582 16.498 1.624v27.612c-5.527-.999-11.209-1.56-17.031-1.56-6.95 0-13.706.779-20.224 2.19m-60.426 42.47c-1.057-.36-2.1-.75-3.216-.979 5.038-29.925 25.528-54.528 52.997-65.368v26.817c-20.781 7.125-38.291 21.234-49.781 39.53m-14.086 13.353v27.233c-.037.353-.048.711-.081 1.065-6.818-2.33-11.628-8.815-11.628-16.057 0-7.699 5.184-13.95 11.905-16.136-.052 1.302-.196 2.579-.196 3.895m203.31 12.241c0 8.094-5.345 14.612-12.773 16.457v-28.698c0-1.446-.153-2.852-.216-4.282 7.544 1.768 12.989 8.348 12.989 16.523m-12.773 70.181v-44.52c12.8-1.999 22.353-12.754 22.353-26.193 0-13.863-10.175-24.833-23.583-26.314-7.026-45.716-46.329-80.664-94.038-80.664-47.747 0-87.074 35.001-94.055 80.769-12.874 1.939-22.503 12.718-22.503 26.209 0 12.819 9.077 23.225 20.757 25.898v44.965c-11.738 3.58-20.224 15.288-20.224 28.13 0 15.435 12.241 29.273 27.675 29.273h63.867c3.726 10.644 13.306 16.499 23.95 16.499 10.645 0 20.225-5.322 23.95-16.499h64.4c15.434 0 27.675-13.838 27.675-29.273 0-13.035-8.212-24.896-20.224-28.28" fill="#475e93"/><path d="m127.2017 68.5612c-42.046 0-76.108 34.062-76.108 76.108 0 29.805 23.95 53.755 53.755 53.755h44.706c29.805 0 53.755-23.95 53.755-53.755 0-41.513-34.062-76.108-76.108-76.108" fill="#feeedf"/><path d="m127.734 71.7546c-40.449 0-74.511 32.998-74.511 73.979v22.354c0-40.449 34.062-73.98 74.511-73.98s74.511 32.998 74.511 73.98v-22.354c0-40.981-34.062-73.979-74.511-73.979" fill="#bbadb6"/><path d="m126.6695 173.4095c-11.177 0-20.225-7.983-20.225-17.031 0-1.065.533-2.661 1.065-3.194 1.064-1.064 2.661-2.128 4.79-2.128h29.272c4.258 0 5.855 3.193 5.855 5.322 0 9.048-9.048 17.031-20.757 17.031" fill="#fff"/><path d="m127.2017 72.2868c-40.449 0-72.915 32.998-72.915 72.915 0 27.675 22.886 50.561 50.562 50.561h44.706c27.676 0 50.562-22.886 50.562-50.561 0-40.449-32.466-72.915-72.915-72.915m22.353 129.863h-44.706c-31.402 0-56.948-25.547-56.948-56.948 0-43.643 35.659-79.302 79.301-79.302s79.301 35.659 79.301 79.302c0 31.401-25.546 56.948-56.948 56.948m-56.4154-91.5428c4.997 0 9.048 4.051 9.048 9.048s-4.051 9.048-9.048 9.048-9.048-4.051-9.048-9.048 4.051-9.048 9.048-9.048m65.9959 0c4.997 0 9.048 4.051 9.048 9.048s-4.051 9.048-9.048 9.048-9.048-4.051-9.048-9.048 4.051-9.048 9.048-9.048m-17.5634 40.4491h-29.272c-3.726 0-5.855 0-6.919 1.597-1.597 1.596-2.129 2.661-2.129 4.79 0 11.176 10.644 20.224 23.418 20.224 13.305 0 23.95-7.983 23.95-19.16 0-4.258-3.194-7.451-9.048-7.451m.532 4.79c2.661 0 2.129 1.064 2.129 1.064 0 7.452-7.983 13.306-17.563 13.306s-17.031-6.387-17.031-13.306c0 0 0-1.064 2.661-1.064h31.401" fill="#475e93"/><path d="m172.4408 140.9438c7.936 0 14.37 6.434 14.37 14.37s-6.434 14.37-14.37 14.37-14.37-6.434-14.37-14.37 6.434-14.37 14.37-14.37zm-91.0104 0c7.936 0 14.37 6.434 14.37 14.37s-6.434 14.37-14.37 14.37-14.37-6.434-14.37-14.37 6.434-14.37 14.37-14.37z" fill="#fdcccd"/><path d="m127.2019 207.4719c-6.919 0-12.774 5.854-12.774 12.774v12.773c0 6.919 5.855 12.773 12.774 12.773s12.773-5.322 12.773-12.773v-12.773c0-6.92-5.854-12.774-12.773-12.774" fill="#fff"/></svg>