<svg height="131" preserveAspectRatio="xMidYMid" viewBox="0 0 256 131" width="256" xmlns="http://www.w3.org/2000/svg"><path d="m256 93.602h-9.529c-32.965-58.463-112.805-23.437-98.124 36.781h-17.095v-15.984h-4.539v15.984h-16.178v-16.129h-20.957v16.129h-15.356v-16.177h-5.505v16.177h-15.501v-16.129h-10.769v16.129h-42.447c0-97.285 92.09-146.961 168.002-125.246.925-2.415 3.122-4.195 6.421-5.137 3.104 1.712 5.336 4.76 6.445 9.524 2.366.953 4.709 1.979 7.025 3.082 0 0 4.204-4.252 10.095-4.203 2.994 4.346 2.946 11.41 2.946 11.41 23.896 15.17 43.795 39.434 55.066 73.789" fill="#fc5252"/><path d="m190.1969 39.7741c0 7.254-5.881 13.135-13.135 13.135s-13.135-5.881-13.135-13.135 5.881-13.135 13.135-13.135 13.135 5.881 13.135 13.135" fill="#f9ffff"/><path d="m187.1071 43.6374c0 2.774-2.249 5.022-5.022 5.022-2.774 0-5.023-2.248-5.023-5.022 0-2.773 2.249-5.022 5.023-5.022 2.773 0 5.022 2.249 5.022 5.022" fill="#fc5252"/></svg>