<svg height="176" preserveAspectRatio="xMidYMid" viewBox="0 0 256 176" width="256" xmlns="http://www.w3.org/2000/svg"><path d="m57.838 170.0168c.151 1.663-.051 3.789-.14 5.436h56.864c.053-1.654.091-3.311.091-4.974 0-39.942-15.768-76.266-44.011-104.51-13.938-13.937-29.757-24.658-47.396-32.071l-23.246 52.43c33.989 15.82 54.211 43.783 57.838 83.689zm69.1972-1.6434c.108 2.371-.062 4.732-.167 7.08h58.177c.077-2.355.129-4.714.129-7.08 0-28.826-5.659-56.821-16.819-83.207-10.767-25.456-26.169-48.306-45.778-67.915-5.019-5.018-10.253-9.757-15.686-14.218l-37.68 44.315c37.293 33.313 55.304 65.858 57.824 121.025zm108.2279-103.9844c-8.668-22.604-21.328-44.868-36.536-64.389l-46.95 34.442c27.495 35.099 44.442 79.71 46.058 127.612.152 4.502-.164 8.969-.457 13.399h58.252c.226-4.448.447-8.916.344-13.399-.805-34.945-8.23-65.12-20.711-97.665z" fill="#3676a1"/></svg>