<svg height="292" preserveAspectRatio="xMidYMid" viewBox="0 0 255 292" width="255" xmlns="http://www.w3.org/2000/svg"><path d="m202.383739 162.431104c0 45.622785-36.98453 82.607315-82.607316 82.607315-45.6217895 0-82.6063187-36.98453-82.6063187-82.607315v-37.018397h165.2136347z" fill="#fff"/><g fill="#303846"><path d="m214.983023 193.26476h-6.368125c3.36386-9.666242 5.216623-20.03474 5.216623-30.832561v-2.866801h1.151502c9.290708 0 16.848186 7.557478 16.848186 16.848186 0 9.290709-7.557478 16.851176-16.848186 16.851176m-95.207098 40.325478c-39.2367312 0-71.1590347-31.921307-71.1590347-71.158039v-25.571113h124.0454477 18.272622v25.571113c0 18.262662-6.921961 34.936529-18.272622 47.548265-13.035082 14.483424-31.912343 23.609774-52.886413 23.609774m95.207098-97.200311h-1.151502v-10.977121c0-6.323299-5.123985-11.44828-11.448281-11.44828h-165.2136338c-6.3232996 0-11.4482801 5.124981-11.4482801 11.44828v37.019393c0 51.863409 42.1921867 94.055596 94.0545989 94.055596 31.775876 0 59.901012-15.85407 76.936467-40.050553h18.270631c22.069789 0 40.021665-17.954864 40.021665-40.023658 0-22.068793-17.951876-40.023657-40.021665-40.023657"/><path d="m125.71642 60.9408498h-14.411704v-14.4117043c0-4.7484513-3.848965-8.5974163-8.597416-8.5974163-4.7474556 0-8.5964206 3.848965-8.5964206 8.5974163v14.4117043h-14.4117043c-4.7484514 0-8.5974163 3.848965-8.5974163 8.5974163 0 4.7474553 3.8489649 8.5974164 8.5974163 8.5974164h14.4117043v14.4107082c0 4.7484513 3.848965 8.5974163 8.5964206 8.5974163 4.748451 0 8.597416-3.848965 8.597416-8.5974163v-14.4107082h14.411704c4.748452 0 8.598413-3.8499611 8.598413-8.5974164 0-4.7484513-3.849961-8.5974163-8.598413-8.5974163"/><path d="m175.138665 23.0089214h-14.409712v-14.41170428c0-4.74745525-3.849962-8.59741634-8.598413-8.59741634-4.747455 0-8.597416 3.84996109-8.597416 8.59741634v14.41170428h-14.410708c-4.748452 0-8.597417 3.848965-8.597417 8.5974163 0 4.7474553 3.848965 8.5964203 8.597417 8.5964203h14.410708v14.4117043c0 4.7484513 3.849961 8.5974163 8.597416 8.5974163 4.748451 0 8.598413-3.848965 8.598413-8.5974163v-14.4117043h14.409712c4.748451 0 8.598412-3.848965 8.598412-8.5964203 0-4.7484513-3.849961-8.5974163-8.598412-8.5974163"/><path d="m228.827343 291.913612h-217.3788636c-6.32329963 0-11.44828018-5.123984-11.44828018-11.44828 0-6.324295 5.12498055-11.44828 11.44828018-11.44828h217.3788636c6.325292 0 11.44828 5.123985 11.44828 11.44828 0 6.324296-5.122988 11.44828-11.44828 11.44828"/></g></svg>