<svg height="255" preserveAspectRatio="xMidYMid" viewBox="0 0 256 255" width="256" xmlns="http://www.w3.org/2000/svg"><path d="m142.262 17.199 18.881-13.036 9.979 20.605 20.551-7.707 4.817 21.388 22.285-1.388-1.55 22.613 21.469 2.938-7.429 21.225 20.164 10.367-13.062 16.98 17.633 15.755-17.306 14.122 12.898 18.776-19.919 10.367 8.245 22.367-24.326 1.633 6.041 23.02-25.143-1.224-4.572 21.796-20.326-7.755-10.612 20-18.041-12.816-14.612 17.142-15.184-16.979-17.878 12.734-10.775-19.918-20.735 7.674-2.122-22.939-24.653 2.694 1.632-24.245-23.428-.245 9.551-22.694-20.245-10.612 11.836-18.449-16.326-14.123 16.408-14.939-11.918-17.469 19.918-11.347-7.184-19.755 21.47-4.816-1.388-22.041 22.449 1.633 4.49-22.205 20.735 8.327 10.04-20.571 18.123 12.571 14.857-16.653z" fill="#c82334"/><path d="m213.096 161.97c0 20.184-37.184 36.547-83.053 36.547s-83.053-16.363-83.053-36.547c0-20.185 37.184-36.548 83.053-36.548s83.053 16.363 83.053 36.548" fill="#b8271a"/><path d="m125.763 61.671 27.001 47.373-1.514 38.504 41.398 17.497 13.684-81.182z" fill="#ccb463"/><path d="m206.332 83.863 3.921-11.087s-7.489 48.579-8.523 55.076-8.122 36.473-8.122 36.473l-.96.72 3.914-23.534-50.059-17.425 2.068-5.832 49.246 15.874 3.027-17.499-62.536-20.008.074-6.793 63.348 19.344z" fill="#dfd26f"/><path d="m46.073 78.305 9.729 70.004s.118 20.048 26.376 33.768c26.257 13.72 67.417 7.806 67.417 7.806l3.169-80.839c-7.935 1.188-16.391 1.83-25.168 1.83-41.158 0-75.271-14.111-81.523-32.569" fill="#e6d273"/><g fill="#fff"><path d="m150.542 164.69c-38.44 2.957-71.925-3.681-96.645-30.057l1.302 9.61c20.277 22.472 53.998 29.375 95.047 27.839z"/><path d="m151.665 137.191c-38.44 2.957-76.346.064-101.066-26.312l1.171 8.535c20.277 22.472 58.433 26.705 99.481 25.169z"/><path d="m210.153 72.197c0 4.066-1.339 7.985-3.821 11.666l-80.569-22.192 27.001 47.373c-7.935 1.188-16.391 1.83-25.168 1.83-45.595 0-82.557-17.316-82.557-38.677 0-21.36 36.962-38.676 82.557-38.676s82.557 17.316 82.557 38.676"/><g transform="translate(17 180)"><path d="m30.961 13.999c-2.81-1.726-5.364-2.364-8.43-2.364-7.281 0-11.56 5.237-11.56 14.817 0 9.772 4.407 15.072 11.943 15.072 2.938 0 5.621-.894 8.367-2.554l.447 8.559c-3.257 1.276-6.707 1.852-10.411 1.852-12.773 0-21.075-8.751-21.075-22.929 0-14.05 8.366-22.864 20.756-22.864 3.513 0 6.962.703 10.474 2.107z"/><path d="m62.13 41.908c0 2.235.063 4.47.383 6.77h-9.069l-.383-4.279c-2.555 3.321-5.813 4.982-9.772 4.982-5.684 0-9.58-4.024-9.58-10.156 0-7.28 5.493-11.432 15.711-11.432h3.257v-.958c0-3.512-2.235-5.364-6.386-5.364-3.002 0-6.068 1.085-8.622 3.064l-.511-7.344c4.087-1.532 7.919-2.298 11.432-2.298 10.921 0 13.54 4.47 13.54 14.816zm-12.327-8.877c-4.598 0-7.025 1.788-7.025 5.236 0 2.747 1.661 4.408 4.343 4.408 3.896 0 5.556-2.555 5.556-7.665v-1.852c-1.149-.127-2.171-.127-2.874-.127z"/><path d="m78.289.841v28.166l8.558-13.412h9.836l-9.963 15.072 10.857 18.011h-10.73l-8.558-15.584v15.584h-9.643v-47.837z"/><path d="m115.268 42.611c2.939 0 5.812-.895 8.687-2.556l.319 7.09c-3.449 1.533-7.089 2.236-10.346 2.236-10.347 0-16.414-6.196-16.414-17.053 0-10.475 5.748-17.435 14.178-17.435 8.942 0 14.242 6.321 14.242 17.69 0 .703 0 1.405-.064 2.172h-18.648c.51 5.236 3.129 7.856 8.046 7.856zm1.725-14.689c0-4.088-1.725-6.451-4.662-6.451-3.384 0-4.982 2.554-5.301 7.918h9.899c0-.83.064-1.276.064-1.467z"/></g></g><g transform="translate(149 182)"><path d="m12.762.813c5.246 0 9.265.34 12.128 2.043 4.428 2.589 6.744 7.087 6.744 13.082 0 9.88-5.791 14.853-17.237 14.853h-2.589v17.306h-10.833v-47.284zm-.954 22.007h2.521c4.838 0 6.745-1.977 6.745-7.154 0-5.315-2.181-6.95-7.018-6.95h-2.248z"/><path d="m44.645.813v18.6h11.514v-18.6h10.833v47.284h-10.833v-20.099h-11.514v20.099h-10.833v-47.284z"/><path d="m84.091.813c5.246 0 9.266.34 12.128 2.043 4.428 2.589 6.744 7.087 6.744 13.082 0 9.88-5.791 14.853-17.237 14.853h-2.589v17.306h-10.833v-47.284zm-.954 22.007h2.521c4.838 0 6.745-1.977 6.745-7.154 0-5.315-2.18-6.95-7.018-6.95h-2.248z"/></g></svg>