<svg height="176" preserveAspectRatio="xMidYMid" viewBox="0 0 512 176" width="512" xmlns="http://www.w3.org/2000/svg"><path d="m126.916601 175.250405c-.999738-6.556444-6.667712-11.668915-13.558797-11.668915-6.890248 0-12.558222 5.001203-13.5587975 11.668915h1.5560785z"/><path d="m96.3538824 175.250405c-.9997386-6.556444-6.6677125-11.668915-13.5587974-11.668915-6.891085 0-12.5582223 5.001203-13.5587974 11.668915h25.5606797z"/><g fill="#ed1c24"><path d="m78.5727582 152.008946v19.240832h14.7810719v-48.455111h-14.7810719v19.909275c-.9099239 1.33426-1.4448105 2.938377-1.4448105 4.652502 0 1.714126.5348866 3.318243 1.4448105 4.652502zm6.8902483-9.765809c-2.7783529 0-5.111634 2.22285-5.111634 5.112471s2.2228497 5.111634 5.111634 5.111634c2.889621 0 5.1124706-2.222013 5.1124706-5.111634s-2.3341176-5.112471-5.1124706-5.112471z"/><path d="m117.247163 142.544736v-19.750069h-14.781071v48.455111h14.781071v-19.081298c.977468-1.365048 1.556079-3.029028 1.556079-4.812036 0-1.782865-.578647-3.446722-1.556079-4.811708zm-6.77898-.301599c-2.778353 0-5.112471 2.22285-5.112471 5.112471s2.22285 5.111634 5.112471 5.111634 5.111634-2.222013 5.111634-5.111634-2.333281-5.112471-5.111634-5.112471z"/><path d="m142.884784 75.1110549 2.702249-41.7800222h4.334431l2.085264 41.9116799c1.580096 1.3233624 2.582135 3.312308 2.582135 5.542856 0 3.8872681-3.042549 7.0407543-6.885835 7.2163438-5.057891 5.8665353-13.917399 13.9983436-27.121172 18.9006756v-20.4490455s12.222784 1.658797 19.567292-5.3152341c-.005572-.1168584-.00839-.2344594-.00839-.3527398 0-2.3058045 1.070795-4.3534288 2.744026-5.6745137zm4.480026 1.8964222c-2.111581 0-3.889359 1.7777778-3.889359 3.8893595s1.777778 3.8893595 3.889359 3.8893595c2.111582 0 3.88936-1.7777778 3.88936-3.8893595s-1.66651-3.8893595-3.88936-3.8893595z"/><path d="m52.9351378 75.1110549-2.7022489-41.7800222h-4.3344314l-1.9766683 41.8225106c-1.6426394 1.322274-2.6907304 3.3507966-2.6907304 5.6320253 0 3.8875382 3.0437618 7.0411925 6.8867029 7.2163803 5.0578966 5.8665326 13.9173948 13.9983171 27.1211403 18.9006391v-20.4490455s-12.223672 1.6589175-19.5680921-5.3159942c.0055481-.1166083.0083535-.2339558.0083535-.3519797 0-2.3058045-1.0707949-4.3534288-2.7440256-5.6745137zm-4.4800267 1.8964222c-2.1115817 0-3.8893595 1.7777778-3.8893595 3.8893595s1.7777778 3.8893595 3.8893595 3.8893595 3.8893595-1.7777778 3.8893595-3.8893595-1.7777778-3.8893595-3.8893595-3.8893595z"/></g><path d="m53.4554771 18.3282614v12.2252549h-10.1128366v-12.2252549c-3.1121568 1.7777778-5.2237385 5.1124706-5.2237385 8.8905621 0 5.6679739 4.5569673 10.2241046 10.2249411 10.2241046 5.6679739 0 10.2241046-4.5561307 10.2241046-10.2241046.111268-3.7780915-2.0003137-7.1127843-5.1124706-8.8905621z"/><path d="m143.031216 18.3282614v12.2252549h10.112836v-12.2252549c3.112157 1.7777778 5.223739 5.1124706 5.223739 8.8905621 0 5.6679739-4.556131 10.2241046-10.224105 10.2241046s-10.224941-4.5561307-10.224941-10.2241046c-.111268-3.7780915 2.000314-7.1127843 5.112471-8.8905621z"/><path d="m76.2423413 83.2842054.2188352-23.1693819c.1112679-5.8905098 2.444549-11.3359477 6.6677124-15.4478431s9.7798693-6.3347451 15.6695425-6.2234771c5.8905096.1112679 11.3359476 2.444549 15.4478436 6.6677124 4.111895 4.2231634 6.334745 9.7798693 6.223477 15.6703791l-.28407 22.1860157c4.668029 5.1956845 7.508122 12.0668641 7.508122 19.6013825 0 16.203818-13.13579 29.339608-29.3396079 29.339608-16.203818 0-29.3396079-13.13579-29.3396079-29.339608 0-7.3824672 2.7266199-14.1280987 7.2277531-19.2847876zm36.4616627-6.3121357.208728-16.3017429c0-3.8893595-1.44481-7.5570196-4.111895-10.3353726-2.667085-2.7783529-6.334745-4.3344313-10.2249416-4.3344313-3.8901961 0-7.5570196 1.4448104-10.3353725 4.1118954-2.778353 2.667085-4.3344314 6.3347451-4.3344314 10.2241046l-.2384062 16.8276516c4.3192391-2.5023431 9.3355921-3.9347889 14.6865108-3.9347889 5.2124539 0 10.1074339 1.3592709 14.3498129 3.742687zm-21.7955596-7.9666841c1.7797864 0 3.2225883-1.4428019 3.2225883-3.2225882 0-1.7797864-1.4428019-3.2225882-3.2225883-3.2225882-1.7797863 0-3.2225882 1.4428018-3.2225882 3.2225882 0 1.7797863 1.4428019 3.2225882 3.2225882 3.2225882zm15.1140396 0c1.779786 0 3.222588-1.4428019 3.222588-3.2225882 0-1.7797864-1.442802-3.2225882-3.222588-3.2225882-1.779787 0-3.222589 1.4428018-3.222589 3.2225882 0 1.7797863 1.442802 3.2225882 3.222589 3.2225882z"/><path d="m95.6871111 97.7903268-1.1118431 21.0037122h8.224627l-1.667346-21.1149802c2.000314-1.0005751 3.333856-3.0008889 3.333856-5.4462745 0-3.3338562-2.778353-6.1122091-6.1122089-6.1122091-3.3338562 0-6.1122092 2.7783529-6.1122092 6.1122091.111268 2.5566536 1.4448105 4.5561307 3.4451242 5.5575425z" fill="#ed1c24"/><path d="m27.7835294 11.5484444c-3.0008889-4.4448627-7.2240523-7.0015163-11.668915-7.0015163-4.5569673 0-8.66886277 2.44454902-11.78101963 6.8902484-2.77751634 4.112732-4.33359477 9.5581699-4.33359477 15.2261438 0 5.6671372 1.55607843 11.1134117 4.33443137 15.2253072 3.00088889 4.4448627 7.22405233 6.8902483 11.66891503 6.8902483 4.4456994 0 8.6688628-2.444549 11.7810196-6.8902483 2.0003137-2.889621 3.3338562-6.3347451 3.8893595-10.1136733.111268-.6667712.7780392-1.2222745 1.4448104-1.2222745l176.1489151.111268c.778039 0 1.44481-.6667712 1.556078-1.4448104v-4.6682353c0-.7780393-.666771-1.4448105-1.44481-1.5552419h-5.33417c-.778039 0-1.44481-.6667712-1.44481-1.5560784v-19.78227451c0-.77803922-.666772-1.44481046-1.444811-1.55607843h-22.226823c-.77804 0-1.444811.66677124-1.556079 1.44481046v19.78227448c0 .7780392-.666771 1.4448105-1.556078 1.4448105h-1.333543c-.778039 0-1.44481-.6667713-1.44481-1.5552418v-15.11403926c0-.77803922-.666771-1.44481046-1.444811-1.55607843h-3.445124c-.778039 0-1.44481.66677124-1.556078 1.44481045v15.11403924c0 .7780392-.666772 1.4448104-1.555242 1.4448104h-131.8065361c-.7780392 0-1.3335425-.5555032-1.4448104-1.2222745-.7788759-3.4459608-2.0003138-7.0023529-4.0014641-9.7807059zm-11.780183 31.0069543c-5.3341699 0-9.89113725-7.3353203-9.89113725-15.8920784 0-8.5575948 4.55696735-15.8929151 10.00240525-15.8929151s9.8911372 7.3353203 9.8911372 15.8929151c0 8.5575947-4.6682353 15.8920784-10.0024052 15.8920784z" fill="#ed1c24"/><path d="m55.7904314 33.3310327c-.7780392-1.1118432-1.5560785-1.6673464-2.3341177-2.778353h-10.1136732v-12.2252549c-3.1121568 1.7777778-5.2237385 5.1124706-5.2237385 8.8905621 0 5.6679739 4.5569673 10.2241046 10.2249411 10.2241046 3.1113203 0 5.8905098-1.4448105 7.7795556-3.5563922 0-.2208627-.222536-.3321307-.3329673-.5546666z"/><path d="m140.808366 33.3310327c.778039-1.1118432.999739-1.6673464 1.777778-2.778353h.555503 10.112837v-12.2252549c3.112157 1.7777778 5.223738 5.1124706 5.223738 8.8905621 0 5.6679739-4.55613 10.2241046-10.224104 10.2241046-3.112157 0-5.89051-1.4448105-7.779556-3.5563922.000837-.2208627.111268-.3321307.333804-.5546666z"/><path d="m166.147346 163.248523c2.889621 0 5.223739-.888471 6.890249-2.556654 1.777778-1.66651 2.555817-3.889359 2.555817-6.667712h14.558536l.111268.332967c.111268 6.000941-2.111582 11.113412-6.779817 15.225307-4.667399 4.111896-10.557909 6.11221-17.448157 6.11221-8.890562 0-15.780811-2.777517-20.670745-8.446327-4.778667-5.667138-7.224053-12.89119-7.224053-21.782589v-1.666509c0-8.780131 2.445386-16.003347 7.445752-21.782589 5.001203-5.667137 12.002719-8.557594 21.227085-8.557594 4.778667 0 9.113098.666771 13.002458 2.110745 3.778928 1.445647 7.001516 3.445124 9.557333 6.113046l.222536 16.003346h-13.113726l-2.667085-9.334797c-.778039-.666772-1.777777-1.33438-3.000052-1.778615-1.222274-.444235-2.556653-.666771-4.000627-.666771-4.556968 0-7.779556 1.667346-9.668602 5.001203-1.889882 3.333856-2.778353 7.557019-2.778353 12.780758v1.66651c0 5.335006.888471 9.669437 2.555817 12.892026 1.889046 3.335529 4.889935 5.002039 9.224366 5.002039zm59.01302 12.335686c-8.668863 0-15.559111-2.777516-20.670745-8.335059-5.112471-5.556706-7.779556-12.558222-7.779556-21.115817v-2.222013c0-8.891398 2.445386-16.225882 7.335321-22.005124 4.889934-5.778405 11.447215-8.557595 19.671006-8.557595 8.112523 0 14.336 2.444549 18.7817 7.335321 4.444862 4.889934 6.667712 11.447215 6.667712 19.782274v8.779294h-35.674353l-.111268.332968c.333804 4.000627 1.667346 7.224052 4.001464 9.779869 2.334118 2.556653 5.556706 3.778928 9.557333 3.778928 3.555556 0 6.556445-.332967 8.890562-1.111007 2.334118-.666771 4.889935-1.889882 7.779556-3.445124l4.334431 10.001569c-2.445385 2.00115-5.667973 3.556392-9.557333 4.890771-4.002301 1.443974-8.336732 2.110745-13.22583 2.110745zm-1.44481-49.566117c-3.000889 0-5.33417 1.111006-7.112785 3.445124-1.778614 2.334117-2.778353 5.33417-3.223425 9.00183l.111268.223372h19.893543v-1.445647c0-3.445124-.778039-6.112209-2.444549-8.223791-1.556079-2.00115-3.890196-3.000888-7.224052-3.000888zm34.896313 38.785673 7.779556-1.66651v-37.119163l-8.557595-1.66651v-9.77987h23.561203l.666771 8.779295c1.44481-3.111321 3.223425-5.556706 5.445438-7.223216 2.22285-1.778615 4.779503-2.556654 7.668287-2.556654.889308 0 1.778615.111268 2.667085.222536.888471.111268 1.667347.332968 2.334118.444235v12.224419l-4.779503.111268c-4.223164 0-8.001255 1.556078-9.334798 2.445385-1.44481.999739-2.778353 3.333857-3.66766 5.001203v29.117072l7.779556 1.66651v9.669438h-31.672889v-9.669438zm74.015791-64.791425v14.225568h10.557909v12.224419h-10.557909v30.006379c0 2.334118.444235 4.000627 1.445647 5.002039.999739.999739 2.222013 1.444811 3.88936 1.444811 1.111006 0 2.110745 0 2.888784-.111268.778876-.111268 1.778614-.222536 2.778353-.444236l1.334379 11.668915c-1.778614.555504-3.556392.999739-5.335007 1.222275-1.777777.222536-3.66766.444235-5.778405.444235-5.557542 0-9.891137-1.555242-12.892026-4.556131-3.000889-3.112156-4.556131-7.890823-4.556131-14.558536v-30.006379h-8.779294v-12.224418h8.779294v-14.336837h16.225046z"/><path d="m407.644026 146.245438c0 8.890562-2.000314 16.003346-6.000941 21.448784-4.000627 5.335007-9.779869 8.001255-17.226458 8.001255-3.556392 0-6.557281-.778039-9.113098-2.222013-2.556653-1.445647-4.779503-3.556392-6.557281-6.334745l-1.111006 7.33532h-13.891765v-74.9050978l-8.557595-1.6665098v-9.7798693h24.671373v32.7847319c1.778614-2.445386 3.778928-4.223163 6.223477-5.557542 2.445386-1.333543 5.222902-1.889046 8.335059-1.889046 7.557019 0 13.336261 2.889621 17.337725 8.557595 4.000628 5.779241 6.000942 13.336261 6.000942 22.893594v1.33438h-.110432zm-16.114614-1.223111c0-5.778405-.888471-10.446641-2.556654-13.890928-1.66651-3.445124-4.667399-5.112471-8.779294-5.112471-2.556654 0-4.667399.555503-6.334745 1.556079-1.777778.999738-3.112157 2.555817-4.111895 4.55613v25.226876c.999738 1.889882 2.334117 3.223425 4.111895 4.224 1.778614.999739 3.889359 1.444811 6.446013 1.444811 4.111895 0 7.112784-1.444811 8.779294-4.444863 1.667347-2.889621 2.445386-7.112785 2.445386-12.446954zm22.893595-1.000575c0-8.890562 2.445385-16.225883 7.445751-21.893857 5.001203-5.667137 11.891451-8.557594 20.671582-8.557594 8.890562 0 15.78081 2.889621 20.782013 8.557594 5.001203 5.667974 7.445752 13.003295 7.445752 22.005125v1.111006c0 9.002667-2.445386 16.33715-7.445752 22.005124-5.001203 5.667974-11.891451 8.446327-20.670745 8.446327-8.891399 0-15.781647-2.777516-20.78285-8.446327-5.001202-5.667137-7.445751-13.002457-7.445751-22.005124zm16.114614 1.111006c0 5.446275 1.000575 9.779869 2.889621 13.114562 1.889882 3.333856 5.001202 5.001203 9.335634 5.001203 4.111895 0 7.224052-1.66651 9.113098-5.001203 1.889882-3.333856 2.889621-7.668287 2.889621-13.114562v-1.111006c0-5.33417-.999739-9.669438-2.889621-13.003294-2.000314-3.33302-5.001203-5.001203-9.22353-5.001203-4.224 0-7.224052 1.667346-9.224366 5.001203-1.889045 3.333856-2.88962 7.669124-2.88962 13.003294v1.111006zm69.126693-45.120418v14.669804h10.557908v11.335948h-10.557908v30.450614c0 2.334118.444235 4.000627 1.44481 5.002039.999739.999739 2.22285 1.444811 3.88936 1.444811 1.111006 0 2.111581 0 2.889621-.111268.778039-.111268 1.777777-.222536 2.778353-.444236l1.333542 11.668915c-1.777778.555504-3.556392.999739-5.33417 1.222275-1.778614.222536-3.66766.444235-5.779242.444235-5.556706 0-9.891137-1.555242-12.891189-4.556131-3.000889-3.112156-4.556968-7.890823-4.556968-14.558536v-30.561882h-8.779294v-11.335948h8.779294v-14.669804h16.225883z" fill="#ed1c24"/></svg>