<svg height="257" preserveAspectRatio="xMidYMid" viewBox="0 0 256 257" width="256" xmlns="http://www.w3.org/2000/svg" xmlns:xlink="http://www.w3.org/1999/xlink"><linearGradient id="a" x1="49.997663%" x2="49.997663%" y1=".705786%" y2="96.989874%"><stop offset="0" stop-color="#86bbe5"/><stop offset="1" stop-color="#1072ba"/></linearGradient><path d="m127.788721.0352132s75.321045-3.38046767 115.25282 72.327923h-121.661624s-22.9590092-.7394773-42.5727643 27.1141678c-5.6341128 11.690784-11.6907841 23.7337-4.8946355 47.4674-9.789271-16.585419-51.9746905-90.0401648-51.9746905-90.0401648s29.7551582-53.87620357 105.8508943-56.869326z" fill="#ef3f36"/><path d="m239.132875 192.228886s-34.755433 66.940302-120.253095 63.630261c10.563961-18.275653 60.848418-105.357909 60.848418-105.357909s12.148556-19.508116-2.183219-50.42531c-7.289133-10.740027-14.719119-21.9730394-38.664099-27.9592843 19.261623-.176066 103.949381 0 103.949381 0s31.727098 52.7141683-3.697386 120.1122423z" fill="#fcd900"/><path d="m16.9727648 192.757084s-40.6008253-63.559835 5.0354883-135.9581844c10.5287483 18.2756534 60.8132049 105.3579094 60.8132049 105.3579094s10.8456672 20.282806 44.755984 23.311141c12.923246-.950756 26.37469-1.76066 43.558734-19.472902-9.472352 16.761486-51.97469 90.004952-51.97469 90.004952s-61.5526827 1.126823-102.1887212-63.242916z" fill="#61bc5b"/><path d="m118.844567 256.492985 17.113617-71.41238s18.803852-1.478954 34.579368-18.768638c-9.789271 17.219257-51.692985 90.181018-51.692985 90.181018z" fill="#5ab055"/><path d="m70.4616231 129.056396c0-31.4806051 25.5295736-57.0101787 57.0101789-57.0101787 31.480605 0 57.010179 25.5295736 57.010179 57.0101787 0 31.480605-25.529574 57.010179-57.010179 57.010179-31.4806053-.035213-57.0101789-25.529574-57.0101789-57.010179z" fill="#fff"/><path d="m80.0044017 129.056396c0-26.198624 21.2335623-47.4674001 47.4674003-47.4674001 26.198624 0 47.4674 21.2335621 47.4674 47.4674001 0 26.198625-21.233562 47.4674-47.4674 47.4674-26.198625 0-47.4674003-21.268775-47.4674003-47.4674z" fill="url(#a)"/><path d="m242.795048 72.1518569-70.461623 20.6701514s-10.634388-15.5994498-33.487758-20.6701514c19.825035-.1056396 103.949381 0 103.949381 0z" fill="#eaca05"/><path d="m72.5392022 144.338927c-9.8949106-17.148831-50.6013755-87.4343878-50.6013755-87.4343878l52.1859697 51.6225588s-5.3524071 11.021733-3.3452544 26.797249z" fill="#df3a32"/></svg>