<svg height="259" preserveAspectRatio="xMidYMid" viewBox="0 0 256 259" width="256" xmlns="http://www.w3.org/2000/svg"><g fill="#343434"><circle cx="126.157031" cy="129.007874" r="30.593296"/><path d="m1.20368953 96.5716086c0 .3685938-.36859392 1.1057817-.36859392 1.4743757 0 3.3173457 2.58015748 6.2660967 6.26609675 6.2660967h51.97174354c2.5801575 0 4.4231271-1.474375 5.5289089-3.685939 10.6892238-23.5900115 34.279235-39.4395504 61.1865912-39.4395504 37.227987 0 67.452689 30.224702 67.452689 67.4526884 0 37.227987-30.224702 67.452689-67.452689 67.452689-27.2759501 0-50.4973674-16.218134-61.1865912-39.070956-1.1057818-2.580158-2.9487514-4.054533-5.5289089-4.054533h-51.97174354c-3.31734535 0-6.26609675 2.580157-6.26609675 6.266095 0 .368595 0 1.105782.36859392 1.474377 14.37516317 56.026276 64.87253097 97.308796 124.95334147 97.308796 71.138627 0 129.007874-57.869246 129.007874-129.007874 0-71.1386276-57.869247-129.007874-129.007874-129.007874-60.0808105 0-110.5781783 41.2825197-124.95334147 96.5716086z"/></g></svg>