<svg height="199" preserveAspectRatio="xMidYMid" viewBox="0 0 256 199" width="256" xmlns="http://www.w3.org/2000/svg"><path d="m162.614136 141.314851h-69.2226325v-124.4015509h69.2226325z" fill="#2271ce"/><path d="m97.7828805 79.1166102c0 25.2354278 11.8154305 47.7144238 30.2151105 62.2007758-13.455206 10.593145-30.43643 16.915834-48.8914395 16.915834-43.6904362 0-79.10654978-35.421143-79.10654978-79.1166098 0-43.6954661 35.41611358-79.1166097 79.10654978-79.1166097 18.4550095 0 35.4362335 6.32268922 48.8914395 16.9158344-18.39968 14.4863524-30.2151105 36.9653483-30.2151105 62.2007753" fill="#005eb6" transform="matrix(1 0 0 -1 0 158.23322)"/><path d="m256.000004 79.1166102c0-43.6954661-35.416114-79.1166097-79.10655-79.1166097-18.455009 0-35.436233 6.32268922-48.891439 16.9158344 18.399679 14.4863524 30.215111 36.9653483 30.215111 62.2007753 0 25.2354278-11.815432 47.7144238-30.215111 62.2007758 13.455206 10.593145 30.43643 16.915834 48.891439 16.915834 43.690436 0 79.10655-35.421143 79.10655-79.1166098" fill="#0099df" transform="matrix(1 0 0 -1 0 158.23322)"/><path d="m181.70081 178.644159c-2.198102-1.448635-5.231182-2.198103-8.566061-2.198103-5.321722 0-8.747141 2.550202-8.747141 6.725087 0 3.42542 2.550201 5.532983 7.248206 6.196941l2.157863.306829c2.499902.352098 3.686978 1.011026 3.686978 2.193072 0 1.629715-1.669955 2.550201-4.788544 2.550201-3.16386 0-5.447473-1.011026-6.986647-2.198102l-2.152833 3.561228c2.504931 1.846004 5.668791 2.726251 9.094209 2.726251 6.066161 0 9.582119-2.857031 9.582119-6.855867 0-3.692008-2.766491-5.623521-7.338746-6.28748l-2.152833-.306828c-1.976783-.26156-3.561228-.658928-3.561228-2.062294 0-1.539175 1.493905-2.459661 3.998837-2.459661 2.680981 0 5.276452 1.011026 6.549038 1.800733zm-107.9241295 8.831645c0 6.372989 4.4364455 11.030753 11.2068035 11.030753 3.1638595 0 5.2714225-.704198 7.555035-2.504932l-2.198103-3.692007c-1.710194 1.232346-3.5109285 1.891274-5.492742 1.891274-3.646738-.045271-6.322689-2.680982-6.322689-6.725088 0-4.044107 2.675951-6.679818 6.322689-6.725088 1.9818135 0 3.782548.658927 5.492742 1.891273l2.198103-3.692007c-2.2836125-1.800734-4.3911755-2.504932-7.555035-2.504932-6.770358 0-11.2068035 4.657764-11.2068035 11.030754zm44.0546075-11.029265c-2.635711 0-4.350936 1.232346-5.538012 3.07835v-2.550202h-4.521955v21.005211h4.567225v-11.780221c0-3.470689 1.493905-5.402203 4.481715-5.402203.925517 0 1.891274.13078 2.85703.528149l1.403366-4.305666c-1.005997-.397369-2.328882-.573418-3.249369-.573418zm16.972371 0c-2.635711 0-4.350936 1.232346-5.538011 3.07835v-2.550202h-4.521956v21.005211h4.567225v-11.780221c0-3.470689 1.493906-5.402203 4.481715-5.402203.925518 0 1.891275.13078 2.857031.528149l1.403366-4.305666c-1.005997-.397369-2.328883-.573418-3.24937-.573418zm-32.019265 21.523822h-4.597405v-20.975031h4.597405zm-2.323852-31.457517c.452698 0 .875217.08048 1.272385.251499.39435.165789.734377.397168 1.026116.689108.289727.29174.523118.633778.689309 1.026117.173031.397167.249487.819887.249487 1.272586 0 .452698-.080479.875217-.249487 1.267556-.164984.397167-.398375.734377-.689309 1.021086-.289727.281679-.633778.508028-1.026116.663958-.398375.160959-.819687.241439-1.272385.241439-.452699 0-.8752175-.08048-1.267556-.241439-.398375-.155728-.7343775-.382279-1.021288-.663958-.281679-.286507-.5029985-.623717-.663958-1.021086-.1609595-.392339-.241439-.814858-.241439-1.267556 0-.452699.0804795-.875218.241439-1.272586.1609595-.392339.382279-.734377.663958-1.026117.285703-.291739.623718-.523118 1.021288-.689108.3943505-.171019.814857-.251499 1.267556-.251499zm60.261616 22.570542c0 1.664925-.276649 3.09344-.819888 4.290576-.548267 1.197136-1.267555 2.172953-2.162892 2.932481-.895337.759527-1.916424 1.317855-3.06829 1.674984-1.156896.357129-2.338942.538208-3.546138.538208-1.212226 0-2.394272-.181079-3.546139-.538208-1.156896-.357129-2.183012-.915457-3.08338-1.674984-.900366-.759528-1.619654-1.735345-2.162893-2.932481-.538207-1.197136-.809827-2.625651-.809827-4.290576v-12.08705h4.542075v11.669561c0 1.005998.13078 1.866125.387309 2.575352.261559.704198.618688 1.277616 1.071387 1.715224.452698.437609.990906.759528 1.609594.955698.618688.196168 1.282646.296769 1.991874.296769.704198 0 1.368155-.100601 1.986843-.296769.618688-.19617 1.156896-.518089 1.609595-.955698.457729-.437608.809827-1.011026 1.071386-1.715224.26156-.709227.387309-1.569354.387309-2.575352v-11.669561h4.542075z" fill="#231f20"/></svg>