<svg height="192" preserveAspectRatio="xMidYMid" viewBox="0 0 256 192" width="256" xmlns="http://www.w3.org/2000/svg"><path d="m134.028357 126.958919 22.793477 9.675257.268288-92.408515-66.2867532 64.385339 22.5942182 9.590677-10.329767 24.335405 20.63077 8.757242zm-75.7559835 64.293999c-32.1829432 0-58.2723735-26.08943-58.2723735-58.272373 0-25.045233 15.8002238-46.4001268 37.9765841-54.6405929 1.9766803-30.393332 27.254883-54.4333373 58.1479295-54.4333373 4.5754164 0 9.0276704.5273201 13.2993044 1.5245017l.000006-.0000088c11.832355-15.46005288 30.475631-25.4311077 51.447771-25.4311077 35.758826 0 64.747082 28.9882559 64.747082 64.7470817 0 1.9999975-.090681 3.9788153-.268154 5.9325664 18.408561 11.5348455 30.649477 32.0019799 30.649477 55.3281339 0 36.033894-29.211243 65.245136-65.245136 65.245136v.498055h-132.4824905z"/></svg>