<svg height="256" preserveAspectRatio="xMidYMid" viewBox="0 0 256 256" width="256" xmlns="http://www.w3.org/2000/svg" xmlns:xlink="http://www.w3.org/1999/xlink"><linearGradient id="a" x1=".241935%" x2="115.268817%" y1="50%" y2="50%"><stop offset="0" stop-color="#ed358c"/><stop offset=".16" stop-color="#e9388c"/><stop offset=".3" stop-color="#de418c"/><stop offset=".43" stop-color="#cc508c"/><stop offset=".57" stop-color="#b2658d"/><stop offset=".7" stop-color="#90808d"/><stop offset=".83" stop-color="#67a18e"/><stop offset=".95" stop-color="#37c78f"/><stop offset="1" stop-color="#22d88f"/></linearGradient><linearGradient id="b"><stop offset=".09" stop-color="#22d88f"/><stop offset=".9" stop-color="#029de0"/></linearGradient><linearGradient id="c" x1="66.762295%" x2="28.196721%" xlink:href="#b" y1="17.457447%" y2="151.840426%"/><linearGradient id="d" x1="10618.1424%" x2="-1095.23079%" xlink:href="#b" y1="-66066%" y2="-79666%"/><linearGradient id="e" x1="5973.42462%" x2="9952.73006%" xlink:href="#b" y1="-73910%" y2="-74606%"/><path d="m98.4 103.6-17.2 7.2 15.6-110.8 58.8 32.4z" fill="url(#a)"/><path d="m89.2 153.6 8.4-153.6-74 46.4-23.6 141.6z" fill="url(#c)"/><path d="m250.8 76.8-32.8-67.2-62.4 22.8-45.6 50.4-110 105.2 83.2 60.8 104-94.4z" fill="url(#d)"/><path d="m107.6 109.2-14.4 87.6 58.4 45.2 64 14 40.4-91.2z" fill="url(#e)"/><path d="m48 48h160v160h-160z"/><path d="m63.2 178h60v10h-60zm-1.2-75.6c-.2042384-9.1845367 3.3544128-18.0534798 9.8504665-24.5495335s15.3649968-10.0547049 24.5495335-9.8504665c12.4 0 20 4 26 10.4l-9.2 10.8c-5.2-4.8-10.4-7.6-16.8-7.6-11.2 0-19.2 9.2-19.2 20.8 0 11.2 8 20.8 19.2 20.8 7.6 0 12.4-3.2 17.6-7.6l9.2 9.2c-6.8 7.2-14.4 12-27.2 12-9.0870949.000629-17.7963035-3.63636-24.1841644-10.099372-6.387861-6.463013-9.9227426-15.214162-9.8158356-24.300628zm71.2-33.6h14.8v54h28.8v12.4h-43.6z" fill="#fff"/></svg>