<svg height="249" preserveAspectRatio="xMidYMid" viewBox="0 0 256 249" width="256" xmlns="http://www.w3.org/2000/svg"><path d="m256 124.8323c0 68.576-57.308 124.168-128 124.168s-128-55.592-128-124.168 57.308-124.168 128-124.168 128 55.592 128 124.168" fill="#72c7e6"/><path d="m45.6048 112.1856s-5.174-25.772 47.042-31.617c2.14-34.427 123.497-35.193 93.221 8.623 22.42 7.76 18.779 23.377 18.779 23.377s.894 8.815-6.898 16.863c-7.793 8.047-16.115 13.051-42.156 13.029-10.447-.008-25.293.511-42.667-7.409-23.505 4.855-48.992.014-56.718-5.876-12.902-9.836-10.603-16.99-10.603-16.99" fill="#fff"/><path d="m45.6048 112.1856v39.856s2.683 36.024 68.216 21.845c26.059 19.161 86.227 6.898 90.826-15.713v-45.605c.383 11.114-51.353 41.389-90.443 15.33-58.252 13.03-68.599-15.713-68.599-15.713" fill="#002c77"/></svg>