<svg height="168" preserveAspectRatio="xMidYMid" viewBox="0 0 256 168" width="256" xmlns="http://www.w3.org/2000/svg"><path d="m218.621451 161.618939c-3.260618 0-6.296295-2.075155-7.36628-5.34393-1.331402-4.06925.887601-8.448558 4.958813-9.779981 14.748771-4.827168 24.277312-17.754332 24.277312-32.934986 0-19.2255849-15.640425-34.8682847-34.865705-34.8682847-1.335455 0-2.772234.105379-4.521092.3323491l-7.581088.9828617-1.088223-7.5690483c-4.658893-32.4567275-32.932437-56.9330233-65.767603-56.9330233-27.144791 0-51.3106463 16.2506554-61.5585901 41.4017821l-1.9292154 4.7319217-5.1067468.0932199c-23.4687438.4316485-42.5623026 19.8679918-42.5623026 43.3249488 0 17.124085 9.9419443 32.74044 25.3270322 39.782593 3.8928812 1.783337 5.6052625 6.383535 3.8219542 10.276478-1.7833084 3.892943-6.381407 5.601298-10.2742882 3.824041-20.8890261-9.561116-34.3854283-30.709868-34.3854283-53.883112 0-30.1546021 23.2336713-55.4151608 52.7453988-58.5177613 13.5977266-28.4320609 42.0962107-46.5390077 73.9201592-46.5390077 38.089847 0 71.200615 26.7054667 79.786839 63.1949669 27.396076.4438076 49.547603 22.8672398 49.547603 50.3671021 0 21.669567-14.05166 40.826251-34.962977 47.669805-.800462.261421-1.61511.387065-2.415572.387065z" fill="#0071ce"/><path d="m100.01656 164.973281c-.002024-.002024-.002024-.002024-.004048-.002024-.002023 0-.004047-.002024-.006071-.002024h-.002023l-.002024-.002024-.002024-.002023s-.0020236 0-.0020236-.002024h-.0020237l-.0020237-.002024c.0020237-.002023-.0020238-.002023-.0020238-.002023l-.0020237-.002024h-.0020237l-.0020237-.002024c.0020237.002024-.0020237-.002024-.0020237-.002024s-.0040475-.002023-.0060712-.002023l-.0020237-.002024-.0020237-.002024-.0020237-.002023c-.0060712-.002024-.0040474-.002024-.0060712-.002024-.0020237.002024-.0020237-.002024-.0040474-.002024l-.0020237-.002024s-.0020237-.002023-.0040474-.002023l-.0020238-.002024c-.0020237-.002024-.0060711-.002024-.0080948-.002024s-.0060712-.002023-.0080949-.002023c-.0020237-.002024-.0020237-.002024-.0040474-.002024h-.0020237c-.0020237-.002024-.0040475-.002024-.0060712-.002024-.0020237-.002024-.0060711-.002024-.0060711-.002024h-.0020237l-.0040475-.002023c-.0020237 0-.0020237-.002024-.0020237-.002024h-.0020237c-.1193992-.042498-.2468933-.068806-.3804585-.074877h-.0040474-.0040475-.0040474s0 0-.0020237 0h-.0020237-.0020237l-.0020237-.002024h-.0040475-.0040474-.0020237-.0020237-.0020238-.0040474-.0020237.0020237-.0020237-.0020237-.0020237-.0020237-.0020238-.0020237-.0020237-.0020237c-3.3512727 0-6.0934071-2.727969-6.1136443-6.071146v-68.1304036h5.1948775.0263083c.7953202.0344032 1.3376759-.5767589 1.3376759-1.3113676 0-.5484268-.3359368-1.0179288-.8135336-1.2142292l-25.0515731-17.2906245c-.4492649-.3096285-1.0422135-.3096285-1.4914783 0l-25.2478735 17.4262134c-.4735494.3258182-.6779447.9228143-.5079526 1.4712411.1720158.5484269.6779447.9207906 1.2526799.9207906h5.2211857l.0040475 68.1465928c.0263083 4.71121 3.8106561 8.556269 8.6250751 8.677692.0546403.006071.1072569.010118.1618972.010118h37.4002846.0222608c.3440317-.006071.6556838-.143683.8863878-.364268 0 0 0 0 .002023-.002024.004048-.004048.008095-.008095.010119-.010119.002024-.002023.004047-.002023.006071-.006071l.002024-.002024.002023-.002023.002024-.002024.002024-.002024.002024-.002023.002023-.002024c.004048-.002024.002024-.002024.004048-.004048 0 0 0 0 .002023-.002023l.002024-.002024s0 0 .002024-.002024c.226656-.234751.368316-.552474.37034-.904601v-.004047-.002024-.002023-.002024-.002024-.002024-.002023-.004048c-.010119-.518071-.323795-.971383-.775083-1.175778z" fill="#dc8327"/><path d="m154.124635 164.973281s-.002024-.002024-.004047-.002024c-.002024 0-.004048-.002024-.006072-.002024h-.002023l-.002024-.002024-.002024-.002023h-.002023l-.002024-.002024-.002024-.002024c.002024-.002023-.002024-.002023-.004047-.002023l-.002024-.002024h-.002024c-.002023 0-.002023-.002024-.002023-.002024-.004048.002024-.004048-.002024-.004048-.002024l-.004047-.002023-.002024-.002024h-.002024l-.002023-.002024-.002024-.002023c-.002024-.002024-.004048-.002024-.004048-.002024-.002023.002024-.002023-.002024-.006071-.002024l-.002023-.002024-.002024-.002023s-.002024 0-.004048-.002024c-.002023-.002024-.006071-.002024-.008094-.002024-.002024 0-.006072-.002023-.008095-.002023-.002024-.002024-.002024-.002024-.004048-.002024-.002023 0-.002023 0-.004047-.002024 0 0-.002024 0-.004048-.002024-.006071-.002023-.002023-.002023-.004047-.002023-.006071 0-.002024 0-.004047-.002024 0 0-.002024-.002024-.004048-.002024l-.002024-.002023h-.002023c-.1194-.042498-.246894-.068807-.380459-.074878h-.004047-.002024-.004047-.002024-.002024-.002024l-.002023-.002024h-.004048-.004047-.002024-.002024-.002023-.004048-.004047-.002024-.002024-.002023-.002024-.002024-.002023-.002024-.002024-.002024c-3.349249 0-6.091383-2.727968-6.11162-6.071146v-52.869565h5.219162c.018213-.002024.032379-.002024.052617 0 .72449 0 1.311367-.586878 1.311367-1.311368 0-.548427-.335937-1.017928-.813533-1.214229l-25.053597-17.2906244c-.449265-.3096284-1.042214-.3096284-1.491479 0l-25.237755 17.4241894c-.473549.325819-.677944.922815-.507952 1.471241.172016.548427.677945.920791 1.25268.920791h5.196901l.004047 52.889802c.022261 4.713234 3.81268 8.560317 8.629123 8.679716.052616.006071.105233.008095.15785.008095h37.400284.022261c.344032-.006072.655684-.143684.886388-.364269 0 0 0 0 .002023-.002024.004048-.004047.012143-.008095.010119-.010118.002024-.002024.004047-.002024.006071-.006072l.002024-.002023.002023-.002024.002024-.002024s.002024 0 .002024-.002023l.002024-.002024c.002023 0 .002023-.002024.002023-.002024.006071-.002024.004048-.002024.004048-.004047 0 0 0 0 .002023-.002024 0 0 0 0 .002024-.002024 0 0 0 0 .002024-.002023.226656-.234751.368316-.552475.37034-.904601v-.004048-.002023-.002024-.002024-.002024-.002023-.002024-.004047c-.012143-.516048-.325818-.96936-.777107-1.173755z" fill="#f4b21b"/><path d="m208.37438 164.973281-.004047-.002024c-.002024 0-.004048-.002024-.006071-.002024h-.002024l-.002024-.002024-.002023-.002023c-.002024 0-.002024 0-.002024-.002024h-.002024l-.002024-.002024-.002023-.002023s-.002024 0-.002024-.002024h-.002024l-.002023-.002024c-.002024.002024-.002024-.002024-.004048-.002024.002024-.002023-.002024-.002023-.004047-.002023l-.002024-.002024h-.002024l-.002023-.002024-.002024-.002023c-.006071-.002024-.004048-.002024-.004048-.002024-.002023.002024-.002023-.002024-.006071-.002024l-.002023-.002024c.002023-.002023-.002024-.002023-.004048-.002023 0 0-.002024 0-.002024-.002024-.002023-.002024-.006071-.002024-.008094-.002024-.002024 0-.006072-.002023-.008095-.002023l-.004048-.002024s-.002023 0-.004047-.002024l-.004048-.002024c-.006071-.002023-.006071-.002023-.004047-.002023-.006071 0-.006071 0-.004047-.002024-.002024 0-.002024-.002024-.002024-.002024-.002024 0-.004048-.002023-.004048-.002023h-.002023c-.1194-.042498-.246894-.068807-.380459-.074878h-.002024-.004047-.006071-.002024-.002024-.002023c-.002024-.002024-.002024-.002024-.004048-.002024h-.004047-.004048-.002023-.002024-.002024-.004047-.004048s0 0-.002023 0h-.002024-.002024-.002023-.002024-.002024-.002024.008095-.002023c-3.349249 0-6.091384-2.727968-6.111621-6.071146v-37.618846h5.20702.026308c.738656-.018213 1.337676-.576759 1.337676-1.311367 0-.548427-.335937-1.017929-.813534-1.21423l-25.053596-17.290624c-.447242-.309628-1.042214-.309628-1.491479 0l-25.247873 17.42419c-.47355.325818-.677945.922814-.507953 1.471241.172016.548427.677945.92079 1.25268.92079h5.20702l.004047 37.639083c.026309 4.713234 3.814704 8.56234 8.629123 8.679716.052616.006071.105233.008095.15785.008095h37.400284.022261c.344032-.006072.655684-.143684.886387-.364269l.002024-.002024c.004048-.004047.010119-.008095.010119-.010118.002023-.002024.004047-.002024.006071-.006072l.002024-.002023.002023-.002024.002024-.002024.002024-.002023.002023-.002024.002024-.002024c.006071-.002024.002024-.002024.004048-.004047 0 0 0 0 .002023-.002024l.002024-.002024s0 0 .002024-.002023c.226656-.234751.368316-.552475.37034-.904601v-.004048-.002023-.002024-.002024-.002024-.002023-.002024-.004047c-.008095-.516048-.323795-.96936-.77306-1.173755z" fill="#f2d864"/></svg>