<svg height="285" preserveAspectRatio="xMidYMid" viewBox="0 0 256 285" width="256" xmlns="http://www.w3.org/2000/svg"><path d="m64.1228609 37.536715 1.7292977-2.0241549 59.3220824-34.22335851 2.657699-.50603872 2.330966.10758303 59.593032 34.4305555 1.689452 2.2154136-49.304906 28.36606c-8.343662 4.0961245-20.727665 4.0921399-29.067342-.0039845z" fill="#c1eae2" transform="matrix(1 0 0 -1 0 69.75604)"/><path d="m.29783128 195.864675c.62955998-9.256126 6.80960761-19.966614 14.51574052-25.142554l49.3088907-28.374029 1.1156759 2.649731v68.398902l-1.1156759 2.458472-1.7253131 2.311043-59.91578098 34.577984-2.04806221-.131491z" fill="#a5e0d3" transform="matrix(1 0 0 -1 0 395.092316)"/><path d="m254.935318 195.996165c-.633544-9.256125-6.813592-19.966614-14.519725-25.142553l-48.970203-28.374029-1.191383 2.478394v68.072169l1.191383 2.956541 1.868757 2.191506 59.198561 34.199451 2.56207.36658z" fill="#68bdab" transform="matrix(1 0 0 -1 0 395.223806)"/><path d="m191.44539 105.98941-63.61345-36.7535524.653467-2.9565412 58.947534-34.0599917 4.012449.2589962 1.020046 3.1079543v67.9486478z" fill="#f14831" transform="matrix(1 0 0 -1 0 138.208734)"/><path d="m240.595695 77.3711272-49.149508 28.3580908v-73.5110887l3.418749.5578379 54.823518 31.6333967.852695 1.9086027c-2.593947 4.4985646-6.080434 8.4631987-9.945454 11.0531606" fill="#e92023" transform="matrix(1 0 0 -1 0 137.947348)"/><path d="m255.073981 71.627787.067737 56.748058c-.31478 4.626071-2.008216 9.61872-4.598178 14.105331l-59.098947-34.099837 1.322873-2.295105 59.521309-34.3827404z" fill="#c13722" transform="matrix(1 0 0 -1 0 214.108964)"/><path d="m191.44539 179.235526 63.629388-36.753553-63.629388-36.753552-2.020171 3.183661v66.908678z" fill="#a9371e" transform="matrix(1 0 0 -1 0 284.963946)"/><path d="m64.1228609 252.548183 3.4426571.195244 58.30602-33.705366 1.960402-3.319136-1.5739-2.123769-59.6886612-34.362818-2.4465179-.191259z" fill="#f25257" transform="matrix(1 0 0 -1 0 431.784506)"/><path d="m113.308629 219.136878c4.163862-2.040094 9.343786-3.072094 14.523709-3.072094l.673391 1.725313v64.597636l-.673391 1.805004-63.7090786-36.677846z" fill="#f57590" transform="matrix(1 0 0 -1 0 500.257522)"/><path d="m127.830745 284.190346v-68.123968c5.179924 0 10.343909 1.032 14.511756 3.076078l49.101693 28.370045-1.263104 1.729297-60.28236 34.753305z" fill="#f15051" transform="matrix(1 0 0 -1 0 500.256724)"/><path d="m191.44539 251.384693-2.020171 1.358734-59.939688-34.701506-1.653591-3.486487 63.61345-36.677845z" fill="#ec402c" transform="matrix(1 0 0 -1 0 430.621016)"/><path d="m64.1228609 32.3053911 2.3668268-.0876603 59.8480433 34.5261849 1.494209 2.3150275-63.7090791 36.7575368-1.3388111-1.534054-.1633668-68.8451733z" fill="#f36375" transform="matrix(1 0 0 -1 0 138.03421)"/><path d="m14.9861031 77.4667566 49.1375548 28.3580904v-73.5110883l-3.3669506-.0956294-53.83136266 31.0875123-1.85680348 3.1079544c2.5939465 4.4985646 6.05254184 8.4631986 9.91756194 11.0531606" fill="#f25749" transform="matrix(1 0 0 -1 0 138.042976)"/><path d="m5.06973653 142.482372c-2.58996194-4.486611-4.25152213-9.479261-4.56630212-14.105331l-.06773747-56.7480586 4.04034062.2988417 58.11077674 33.5340299 1.5380389 2.920681z" fill="#f14926" transform="matrix(1 0 0 -1 0 214.111354)"/><path d="m64.1228609 179.235924-63.68915623-36.753552 63.68915623-36.753552 1.6137456 2.685591v66.908678z" fill="#ef3844" transform="matrix(1 0 0 -1 0 284.964744)"/><path d="m127.830745 68.9720799-2.322997.071722-59.3260665 34.2074201-2.0600159 2.454487 63.7090794 36.757537.872618-3.19163v-68.2355357z" fill="#9b3940" transform="matrix(1 0 0 -1 0 211.435326)"/><path d="m64.1228609 179.235924 63.7090791-36.733629-1.577885-2.295105-59.2702823-34.115776-2.8609118-.362594z" fill="#b62b22" transform="matrix(1 0 0 -1 0 284.964744)"/><path d="m127.830745 216.06598 1.287011-2.418626v-68.729621l-1.287011-2.454487-63.7090794 36.829259z" fill="#842921" transform="matrix(1 0 0 -1 0 358.529226)"/><path d="m127.830745 142.463644 63.613449 36.829259-1.553977 2.24729-58.780182 33.976316-3.27929.549869z" fill="#a01f20" transform="matrix(1 0 0 -1 0 358.530022)"/><path d="m191.44539 179.235526-4.550364-.677375-57.871704-33.418478-1.191382-2.637777 63.61345-36.773475z" fill="#7d2629" transform="matrix(1 0 0 -1 0 284.963946)"/><path d="m127.830745 68.9720799 63.613449 36.7336291-63.613449 36.757537z" fill="#7c253b" transform="matrix(1 0 0 -1 0 211.435326)"/><path d="m127.830745 188.430289-39.805723-22.97097v-45.945925l39.805723-22.9749546 39.7858 22.9749546v45.945925z" fill="#b6e6db" transform="matrix(1 0 0 -1 0 284.968728)"/><g transform="matrix(1 0 0 -1 0 307.941292)"><path d="m127.830745 165.478046-39.805723 22.955032v-45.945925l39.805723-22.978939 1.741251 3.33109v39.845568z" fill="#a5e0d3"/><path d="m127.830745 165.478046 39.7858 22.955032v-45.945925l-39.7858-22.978939z" fill="#68bdab"/></g></svg>