<svg height="294" preserveAspectRatio="xMidYMid" viewBox="0 0 256 294" width="256" xmlns="http://www.w3.org/2000/svg"><path d="m197.2435 224.2878 9.345 16.182c.662 1.146.269 2.612-.877 3.274l-4.817 2.782c-1.126.65-2.567.264-3.218-.862l-9.35-16.193c-.616-1.065-1.936-1.456-3.047-.927-9.561 4.553-20.042 7.485-31.102 8.397-1.231.101-2.186 1.104-2.186 2.339v18.618c0 1.304-1.057 2.361-2.361 2.361h-5.55c-1.328 0-2.405-1.077-2.405-2.405v-18.576c0-1.228-.951-2.225-2.176-2.322-11.068-.88-21.566-3.771-31.143-8.295-1.13-.533-2.469-.135-3.094.947l-9.247 16.018c-.663 1.147-2.13 1.54-3.277.878l-4.812-2.779c-1.128-.651-1.515-2.094-.864-3.222l9.266-16.05c.624-1.08.298-2.438-.728-3.148-8.909-6.163-16.65-13.889-22.827-22.788-.702-1.012-2.043-1.333-3.11-.717l-16.02 9.249c-1.14.658-2.598.268-3.257-.873l-2.749-4.761c-.672-1.163-.273-2.651.89-3.322l15.968-9.219c1.067-.616 1.459-1.936.93-3.049-4.554-9.585-7.469-20.097-8.367-31.184-.1-1.234-1.105-2.192-2.343-2.192h-18.445c-1.328 0-2.404-1.077-2.404-2.405v-5.556c0-1.301 1.054-2.355 2.354-2.355h18.461c1.257 0 2.277-.973 2.379-2.226.901-11.068 3.812-21.563 8.356-31.134.533-1.122.138-2.454-.938-3.075l-15.973-9.224c-1.151-.665-1.545-2.137-.88-3.289l2.757-4.775c.661-1.145 2.124-1.537 3.269-.876l16.015 9.249c1.064.615 2.403.295 3.103-.715 6.182-8.907 13.929-16.639 22.847-22.805 1.017-.704 1.341-2.05.722-3.121l-9.274-16.063c-.652-1.13-.265-2.575.865-3.227l4.813-2.779c1.145-.662 2.609-.269 3.271.876l9.262 16.044c.618 1.069 1.941 1.464 3.058.936 9.578-4.528 20.077-7.422 31.148-8.304 1.235-.098 2.194-1.103 2.194-2.342v-18.534c0-1.341 1.088-2.429 2.43-2.429h5.515c1.309 0 2.371 1.062 2.371 2.371v18.608c0 1.235.955 2.238 2.186 2.34 11.048.911 21.518 3.836 31.072 8.382 1.128.536 2.469.139 3.093-.943l9.329-16.153c.654-1.132 2.101-1.52 3.233-.866l4.798 2.77c1.151.665 1.545 2.138.88 3.289l-9.323 16.146c-.623 1.079-.3 2.436.723 3.147 4.579 3.182 8.855 6.769 12.763 10.72 2.917 2.949 7.558 3.275 10.739.614l31.823-26.618c3.302-2.761 3.613-7.741.677-10.888-28.582-30.636-70.115-49.031-115.889-46.413-69.41 3.969-132.491 65.852-137.673 135.182-6.437 86.122 61.532 157.992 146.288 157.992 41.819 0 79.538-17.509 106.26-45.584 3.524-3.702 3.108-9.646-.812-12.925l-31.379-26.247c-2.785-2.329-6.864-2.061-9.39.546-4.089 4.22-8.591 8.034-13.432 11.396-1.009.7-1.328 2.039-.714 3.102" fill="#248bd2"/><path d="m146.809 161.1017c-7.866 0-14.243-6.377-14.243-14.243s6.377-14.243 14.243-14.243 14.243 6.377 14.243 14.243-6.377 14.243-14.243 14.243m2.601-57.722c-20.074-1.167-37.403 11.274-43.658 28.951-.386 1.091.1 2.309 1.103 2.887l16.612 9.592c1.578.91 1.578 3.187 0 4.098l-16.615 9.593c-1.001.578-1.486 1.794-1.101 2.884 5.982 16.91 22.099 29.028 41.058 29.028 24.755 0 44.687-20.652 43.505-45.667-.989-20.919-19.997-40.15-40.904-41.366" fill="#423b3d"/></svg>