<svg height="118" preserveAspectRatio="xMidYMid" viewBox="0 0 256 118" width="256" xmlns="http://www.w3.org/2000/svg"><path d="m60.3400512 68.1619096h-23.1862234c-3.3522251 0-5.5870418.8380563-7.2631543 3.9109293-6.145746 12.8501961-12.570844 25.7003921-18.995942 38.5505881-2.23481675 4.469634-.5587042 6.70445 5.3076896 6.70445h42.7408696c5.0283376 0 8.1012106-1.955464 10.0566752-6.145746 5.8663939-12.5708437 11.7327877-25.4210398 18.1578858-37.9918838 2.2348167-4.4696334.2793521-5.3076897-4.1902814-5.3076897-7.5425064.2793521-15.0850128.2793521-22.6275191.2793521zm143.5869738-6.1457459c-6.983802-15.9230691-7.542507-31.2874339-1.396761-46.9311509 1.676113-4.1902813 0-4.4696334-3.910929-5.0283376-15.364365-2.23481672-11.453436 16.7611253-24.02428 17.8785337-1.955464.2793521-2.514168 2.2348167-2.514168 4.1902813.558704 7.2631543-3.91093 16.7611253 8.939266 19.5546462 1.396761.2793521 3.072873 2.2348167 3.631578 3.6315772 3.631577 8.6599147 10.336027 8.6599147 19.275294 6.7044501zm-203.927025-59.78134699c23.1862234 14.24695649 48.8866155 11.17408359 74.5870077 10.61537939-2.5141688-8.10121059-7.5425064-10.89473148-15.3643649-10.61537939zm154.761057 37.43317989v-30.44937767c0-1.95546462.279352-4.19028133-2.793521-4.46963342-2.234816 0-3.072873 1.95546462-2.793521 3.63157715.558705 8.10121054-3.352225 15.64371694-2.793521 24.02427964.838057 12.0121398-.279352 24.0242796 2.514169 35.7570673.558704 1.9554647-.558704 5.3076897 2.514169 5.5870418 3.631577.2793521 3.352225-3.072873 3.352225-5.5870418zm11.732788-.5587042v-26.2590963c0-1.9554646-.279352-4.46963344-2.793521-4.46963344s-2.793521 2.51416884-2.793521 4.74898554v53.3562489c0 1.9554646.279352 4.4696334 2.793521 4.4696334s2.793521-2.5141688 2.793521-4.7489855zm60.619403-11.7327877h15.643717c1.955465 0 3.910929-.5587042 3.910929-2.7935209 0-1.3967604-1.39676-2.5141688-3.072873-2.5141688h-32.404842c-1.955465 0-3.631577 1.1174084-3.352225 3.072873.279352 1.6761125 1.955465 1.9554646 3.631577 1.9554646 5.028338.2793521 10.336027.2793521 15.643717.2793521zm8.659915 5.0283376h-14.805661c-2.234817 0-4.748985.2793521-4.469633 2.7935209.279352 2.2348167 2.514169 2.2348167 4.190281 2.2348167h30.449378c1.955464 0 4.190281-.2793521 4.190281-2.5141688 0-1.9554646-1.676112-2.7935209-3.910929-2.7935209-5.30769.2793521-10.336027.2793521-15.643717.2793521zm-6.70445 11.4534356h-14.805661c-1.676113 0-4.190281 0-4.469633 1.9554646 0 2.2348167 1.955464 3.072873 4.469633 3.072873h30.72873c2.234816 0 3.910929-1.1174083 3.910929-2.7935209 0-1.9554646-2.234817-2.5141688-4.190281-2.5141688-5.028338.2793521-10.336028.2793521-15.643717.2793521z" fill="#57abdf"/><path d="m140.234749 0c0 25.141688.279352 48.0485592.279352 71.7934868 0 2.2348167.838056 5.5870418-2.234817 5.5870418-4.190281.279352-3.352225-3.6315772-3.072873-5.8663939 1.117408-7.2631543-1.676113-9.2186189-10.056675-8.9392668-29.0526175.5587041-58.1052347 0-87.1578519 0-15.0850128 0-25.4210401-8.9392669-25.7003922-21.2307588-.2793521-13.1295481 10.8947315-22.6275192 26.5384484-22.9068712 28.7732652 0 57.5465303-.2793521 86.3197957.279352 7.821858 0 11.732787-1.1174083 10.056675-8.9392668-.558704-3.35222506-.279352-6.98380221 1.39676-9.7773231z" fill="#57abdf"/><g fill="#7bcd33"><path d="m60.3400512 68.1619096h22.348167c4.4696335 0 6.4250981.5587042 4.1902814 5.3076897-6.145746 12.570844-12.0121398 25.4210401-18.1578858 37.9918837-1.9554646 3.91093-5.0283376 5.866394-10.0566752 5.866394h-42.7408695c-5.5870418 0-7.54250644-2.234816-5.3076897-6.70445 6.425098-12.850196 12.850196-25.700392 18.995942-38.5505881 1.3967604-3.072873 3.6315772-3.9109293 7.2631543-3.9109293z"/><path d="m203.927025 62.0161637c-8.939267 1.9554646-15.643717 1.9554646-18.995942-6.7044501-.558704-1.3967605-2.234817-3.3522251-3.631577-3.6315772-12.850197-3.072873-8.380563-12.2914919-8.939267-19.5546462-.279352-1.9554646.558704-3.9109292 2.514169-4.1902813 12.291491-.8380563 8.380562-20.11335042 24.024279-17.8785337 3.910929.5587042 5.587042.8380563 3.910929 5.0283376-6.425098 15.643717-5.866393 31.0080818 1.117409 46.9311509z"/><path d="m0 2.23481671c19.8339983 0 39.3886445.27935209 59.2226428 0 8.1012106 0 13.1295482 2.5141688 15.3643649 10.61537939-25.7003922.5587042-51.4007843 3.6315771-74.5870077-10.61537939z"/><path d="m154.761057 39.6679966v28.7732651c0 2.5141688.279352 5.8663939-3.352225 5.5870418-3.072873-.2793521-1.955465-3.3522251-2.514169-5.5870418-3.072873-11.7327877-1.955464-23.7449275-2.514169-35.7570673-.558704-8.3805627 3.352226-15.9230691 2.793521-24.02427965 0-1.67611253.558705-3.63157715 2.793521-3.63157715 3.072873 0 2.793521 2.51416879 2.793521 4.46963341z"/><path d="m166.493845 39.1092924v27.0971526c0 1.9554646-.279352 4.7489855-2.793521 4.7489855s-2.793521-2.5141688-2.793521-4.4696334v-53.3562489c0-1.9554647.279352-4.46963345 2.793521-4.74898554 2.514169 0 2.793521 2.51416884 2.793521 4.46963344z"/></g><path d="m227.113248 27.3765047h-15.643717c-1.39676 0-3.352225-.2793521-3.631577-1.9554646-.279352-1.9554647 1.39676-3.072873 3.352225-3.072873h32.404842c1.676113 0 3.352225 1.1174083 3.072873 2.5141688 0 1.9554646-1.955464 2.5141688-3.910929 2.7935209-5.30769-.2793521-10.336027-.2793521-15.643717-.2793521z" fill="#57abdf"/><path d="m235.773163 32.4048423h15.643717c1.955464 0 3.910929.8380563 3.910929 2.7935209 0 2.2348167-2.234817 2.5141688-4.190281 2.5141688h-30.449378c-1.955465 0-4.190281-.2793521-4.190281-2.2348167-.279352-2.7935209 2.234816-2.7935209 4.469633-2.7935209 5.028338-.5587042 9.777323-.2793521 14.805661-.2793521z" fill="#57abdf"/><path d="m229.068713 43.8582779h15.643717c1.955464 0 4.190281.5587042 4.190281 2.5141688 0 1.6761125-1.955465 2.7935209-3.910929 2.7935209h-30.72873c-2.514169 0-4.469633-.8380563-4.469633-3.072873s2.514168-1.9554646 4.469633-1.9554646c5.028338-.2793521 9.777323-.2793521 14.805661-.2793521z" fill="#57abdf"/></svg>