<svg height="93" preserveAspectRatio="xMidYMid" viewBox="0 0 512 93" width="512" xmlns="http://www.w3.org/2000/svg"><g fill="#1b6db2"><path d="m456.119668 54.6038781h47.796121c-.141828-6.3822715-2.127423-12.0554016-6.382271-17.3030471-4.113019-5.2476454-9.927978-7.800554-17.586704-7.800554-7.233241 0-12.906371 2.5529086-17.161218 7.6587258-4.11302 5.2476454-6.382272 11.0626038-6.665928 17.4448753zm-7.516898 3.2620499c0-9.6443214 2.978393-17.7285319 8.93518-24.3944599 5.956787-6.6659279 13.473684-10.0698061 22.550693-10.0698061 9.644321 0 17.161218 3.2620499 22.69252 9.9279779s8.367867 14.8919667 8.367867 24.9617728v1.8437674h-55.029362c.283656 7.5168975 2.836565 13.6155124 7.516897 18.5795013 4.680333 4.963989 10.778947 7.5168975 18.295845 7.5168975 8.793352 0 15.884765-2.9783933 21.557895-9.0770083l3.687534 4.6803324c-6.807756 7.0914128-15.459279 10.6371192-25.670914 10.6371192-9.644321 0-17.444875-3.2620499-23.54349-9.6443214-6.098615-6.3822714-9.360665-14.7501385-9.360665-24.9617728zm-321.80831 0c0 4.8221606 1.418282 8.6515235 4.113019 11.6299169 2.694737 2.9783933 6.240443 4.3966759 10.353463 4.3966759 2.269252 0 4.538504-.567313 6.949584-1.7019391 2.411081-1.134626 4.254848-2.5529086 5.673131-4.2548476v-20.1396122c-1.418283-1.7019391-3.26205-3.1202216-5.673131-4.2548477-2.41108-1.134626-4.680332-1.5601108-6.949584-1.5601108-4.254848 0-7.658726 1.4182826-10.353463 4.3966759-2.836565 2.8365651-4.113019 6.665928-4.113019 11.4880887zm264.226039 24.1108033 4.254847-5.2476454c2.269252 2.8365651 5.247646 5.1058171 8.93518 6.9495845 3.687535 1.8437673 7.800554 2.6947368 12.339058 2.6947368 5.389474 0 9.644322-1.2764543 12.764543-3.6875346 3.120222-2.5529086 4.822161-5.6731302 4.822161-9.6443214 0-3.2620498-1.418282-5.8149584-4.254848-7.800554-2.836565-1.8437673-6.240443-3.4038781-10.353462-4.2548476-3.971191-.9927978-8.084211-1.9855956-12.19723-3.1202216-4.113019-1.1346261-7.516898-2.9783934-10.495291-5.6731302-2.836565-2.6947369-4.254848-6.2404432-4.254848-10.4952909 0-5.2476454 2.127424-9.502493 6.382272-13.0481994s9.927978-5.2476455 17.161219-5.2476455c9.927978 0 17.728532 3.2620499 23.54349 9.6443214l-3.971191 4.9639889c-4.254848-5.8149584-10.778947-8.6515235-19.572299-8.6515235-4.963989 0-8.93518 1.134626-11.913574 3.4038781-2.978393 2.269252-4.396676 5.1058171-4.396676 8.6515235 0 2.9783934 1.418283 5.3894737 4.254848 7.0914128 2.836565 1.701939 6.240443 2.9783933 10.353463 3.9711911 3.971191.9927978 8.08421 1.9855956 12.055401 3.1202216s7.516898 3.2620499 10.353463 6.098615 4.254848 6.6659279 4.254848 11.3462603c0 5.6731302-2.127424 10.2116344-6.382272 13.899169s-10.353462 5.3894737-18.154017 5.3894737c-10.920775.1418283-19.288642-3.4038781-25.529085-10.3534626zm-186.645984-31.4858726h27.089197c-.283657-2.6947368-1.560111-5.1058171-3.829363-7.0914127-2.127424-2.1274238-5.389474-3.1202216-9.78615-3.1202216-4.113019 0-7.375069.9927978-9.502493 2.9783933-2.269252 2.1274239-3.545706 4.5385042-3.971191 7.233241zm132.46759 20.1396122c0 4.6803324 1.701939 8.6515236 4.963989 11.6299169 3.26205 2.9783934 7.658726 4.5385042 13.0482 4.5385042 8.651523 0 15.317451-2.9783934 19.855955-9.0770083v-14.3246538c-4.538504-6.0986149-11.204432-9.0770083-19.855955-9.0770083-5.389474 0-9.644322 1.5601108-13.0482 4.6803324-3.26205 2.9783934-4.963989 6.9495845-4.963989 11.6299169zm-326.7722989-37.5844875c6.8077562-6.3822715 15.3174515-9.6443214 25.6709141-9.6443214 6.5240997 0 12.0554017 1.1346261 16.5939058 3.5457064 4.5385042 2.4110804 7.9423823 5.2476455 10.2116344 8.6515236l-13.331856 12.6227146c-2.8365651-4.1130193-6.9495845-6.2404432-12.4808864-6.2404432-4.3966759 0-8.0842105 1.4182826-11.0626039 4.2548477-2.8365651 2.8365651-4.3966759 6.665928-4.3966759 11.6299169s1.4182826 8.7933518 4.3966759 11.6299169c2.8365651 2.8365651 6.5240998 4.3966759 11.0626039 4.3966759 5.2476454 0 9.3606648-2.1274238 12.4808864-6.3822715l13.6155125 12.7645429c-2.2692521 3.4038782-5.6731302 6.2404433-10.2116344 8.6515236-4.5385041 2.4110803-10.069806 3.5457064-16.5939058 3.5457064-10.3534626 0-18.8631579-3.2620499-25.6709141-9.6443214-6.94958448-6.5240997-10.3534626-14.7501385-10.3534626-24.9617728 0-10.2116344 3.40387812-18.4376732 10.0698061-24.8199446zm319.3972299 37.4426593c0-6.8077563 2.269252-12.19723 6.807756-16.0265928 4.538504-3.8293629 9.927978-5.8149585 16.168421-5.8149585 9.218837 0 16.735734 3.1202216 22.408865 9.3606648v-13.3318559c0-4.6803324-1.701939-8.3678671-4.963989-11.0626039s-7.516898-4.1130194-12.622715-4.1130194c-8.226039 0-15.033795 3.2620499-20.706925 9.6443213l-3.971191-4.9639889c6.807756-7.3750692 15.317451-11.0626039 25.387257-11.0626039 7.091413 0 12.906371 1.7019391 17.303047 5.3894737 4.396676 3.5457064 6.665928 8.7933518 6.665928 15.8847646v46.3778393h-7.091412v-7.800554c-5.673131 6.2404432-13.190028 9.3606648-22.408865 9.5024931-6.098615 0-11.488088-1.9855956-16.026593-5.9567867-4.680332-3.9711912-6.949584-9.2188366-6.949584-16.0265928zm-138.14072-37.1590028c6.5241-6.665928 14.891967-9.9279779 24.961773-9.9279779 9.927977 0 18.012188 3.4038782 24.252631 10.0698061 6.240443 6.665928 9.360665 15.6011081 9.360665 26.663712v4.8221606h-46.803324c.850969 3.2620499 2.552909 5.8149585 5.389474 7.800554 2.836565 1.9855956 6.524099 2.9783934 11.062604 2.9783934 2.552908 0 5.389473-.567313 8.509695-1.5601108 3.120221-.9927978 5.67313-2.4110803 7.516897-3.9711912l9.218837 13.7573408c-3.120222 2.8365651-7.233241 4.9639889-12.19723 6.3822714-4.963989 1.5601108-10.069806 2.2692521-15.317452 2.2692521-10.353462 0-18.863157-3.1202216-25.670914-9.5024931-6.807756-6.3822714-10.211634-14.7501385-10.211634-25.1036011.141828-9.9279778 3.403878-18.0121883 9.927978-24.6781163zm78.00554 40.9883656c1.985596 3.2620499 4.963989 6.098615 9.077008 8.3678671 3.971191 2.2692521 8.226039 3.4038781 12.622715 3.4038781 7.233241 0 12.764543-2.6947368 16.877562-7.9423823 4.11302-5.2476454 6.098615-11.9135734 6.098615-20.1396122 0-8.2260387-1.985595-15.033795-6.098615-20.2814404-4.113019-5.2476454-9.644321-7.9423823-16.877562-7.9423823-4.396676 0-8.509695 1.1346261-12.622715 3.5457064-4.113019 2.4110803-7.091412 5.2476454-9.077008 8.5096953zm-155.869252-41.5556786c5.389474-6.2404432 12.339058-9.3606649 20.848753-9.3606649 7.942383 0 14.466482 3.1202217 19.430471 9.5024931v-32.9041551h20.848754v90.7700831h-20.848754v-7.6587258c-5.389473 6.098615-11.913573 9.2188366-19.430471 9.3606649-8.367867 0-15.317451-3.1202216-20.848753-9.2188366-2.836565-3.2620499-4.963989-7.0914127-6.382272-11.6299169l14.040998-14.0409972v-1.1346261l-13.473685-13.6155124c1.418283-3.8293629 3.26205-7.233241 5.814959-10.0698061zm148.919667 58.0077562v-90.7700831h7.091413v35.7407202c5.814959-8.2260388 13.473684-12.1972299 22.834349-12.3390582 8.793352 0 15.884765 3.1202217 21.274238 9.5024931 5.389474 6.3822715 8.084211 14.7501385 8.084211 25.1036011s-2.694737 18.7213297-8.084211 25.1036011c-5.389473 6.2404433-12.480886 9.3606649-21.274238 9.3606649-4.680332 0-9.077008-1.1346261-13.048199-3.4038782-3.971191-2.269252-7.233241-5.2476454-9.78615-8.7933518v10.4952909z"/><path d="m82.2603878 80.132964-5.8149584 6.0986149-28.0819945-28.6493074v-1.1346261l28.2238227-28.7911357 5.8149585 6.098615 6.2404432-6.098615 28.3656507 28.7911357v1.1346261l-28.3656507 28.6493074zm.4254848-36.5916898-13.6155125 13.4736842 13.7573407 13.331856 13.0481995-13.331856z"/></g></svg>