<svg height="256" preserveAspectRatio="xMidYMid" viewBox="0 0 256 256" width="256" xmlns="http://www.w3.org/2000/svg"><path d="m255.806943 87.0866439c-.058606-.3102696-.110318-.6205392-.193056-.923914-.051712-.1827143-.113766-.3550863-.172372-.5343532-.086186-.2689003-.17582-.5378006-.28269-.799806-.075844-.1827144-.16203-.3585338-.244769-.5343532-.117213-.2482157-.237873-.492984-.375771-.7308573-.096528-.1758195-.206846-.3412966-.313717-.5102211-.14824-.2275311-.299927-.4516147-.465404-.6688034-.12066-.1620297-.244768-.3171645-.375771-.4722993-.172372-.2068464-.358534-.4033505-.544695-.5964071-.144793-.1447925-.289585-.289585-.441273-.43093-.199951-.1827143-.406798-.3550863-.623986-.5205634-.165478-.1275553-.327507-.258558-.499879-.375771-.062054-.0448167-.117213-.0965283-.182715-.1378976l-116.992324-78.0017776c-3.692208-2.4649196-8.508282-2.4649196-12.20049 0l-116.99921875 77.9983301c-.06550136.0413693-.11721296.0930809-.18271432.1378976-.172372.1206605-.33440168.2482157-.4998788.375771-.21374128.1689246-.42403512.3412966-.62398664.517116-.15168736.1378976-.29647984.2826901-.43782488.43093-.19305664.1930567-.37232352.3895607-.54814297.5964071-.13100272.1551348-.25511056.3102696-.37577096.4826416-.16547712.2171888-.31716448.4378249-.4654044.6688034-.10687064.1689246-.21374128.3344017-.31371704.5102211-.1378976.2378734-.258558.4826416-.37232352.7239624-.08273856.1758195-.172372.3550863-.24476824.5343532-.10687064.2620055-.19995152.5309058-.28613752.7998061-.05860648.1792669-.1206604.3550863-.16892456.517116-.07929112.3033747-.1378976.6101969-.19305664.9239139-.03102696.1585823-.0689488.3137171-.08963344.4757467-.06205392.4757468-.09652832.9514935-.09652832 1.4375825v78.0155676c0 .482641.0344744.965283.1034232 1.437582.02413208.172372.0689488.31027.1034232.475747.05515904.31027.1034232.620539.2068464.930809.04826416.172372.1034232.344744.172372.534353.086186.275795.172372.55159.2757952.803254.07239624.172372.172372.344744.2413208.517116.11376552.24132.2413208.482641.3792184.734304.09652832.172372.2068464.344744.3102696.503326.14823992.241321.3102696.448168.4826416.655014.1206604.172372.2413208.31027.3792184.475747.17581945.206846.34474401.413693.55159041.596407.14134504.137898.2757952.31027.4481672.413693.19995152.172372.4136928.344744.6205392.524011.16547712.137897.344744.24132.4826416.375771.06550136.034474.1034232.103423.172372.13445l116.96819179 78.039699c1.847828 1.241079 3.964556 1.861618 6.101969 1.851275 2.137413-.010342 4.254141-.620539 6.101969-1.851275l116.999219-77.99833c.065501-.041369.12066-.089633.182714-.13445.172372-.120661.334402-.248216.499879-.375771.213741-.168925.424035-.344744.623987-.524011.151687-.13445.296479-.28269.441272-.427483.189609-.193056.372323-.38956.544695-.596407.131003-.155134.255111-.310269.375771-.475746.165477-.217189.317165-.441273.465405-.668804.10687-.165477.213741-.334401.313717-.503326.137897-.241321.258558-.486089.375771-.734305.082738-.175819.168924-.351639.244768-.530905.106871-.265453.196504-.534354.28269-.803254.058607-.179267.12066-.355086.172372-.534353.079291-.303375.13445-.613645.193057-.923914.027579-.158582.068948-.313717.086186-.475747.062054-.475747.096528-.951493.096528-1.437582v-78.0017779c0-.4860891-.037922-.9618358-.096528-1.4375825-.02758-.1689246-.079291-.3068222-.113766-.4757467zm-127.81039 66.9354951-38.9043609-26.021277 38.9043609-26.024725 38.907807 26.024725zm-10.997334-71.1551617-47.6918851 31.8991627-38.4975626-25.7523772 86.1894477-57.4584826zm-67.4767433 45.1304367-27.5174661 18.405883v-36.811765zm19.7848582 13.245065 47.6918851 31.895715v51.311697l-86.1894477-57.465378 38.4975626-25.748929zm69.6900001 31.88882 47.691885-31.895715 38.50101 25.748929-86.192895 57.458483zm67.476743-45.12699 27.520913-18.409329v36.815211l-27.520913-18.412777zm-19.784858-13.238169-47.691885-31.8957153v-51.3151445l86.192895 57.4584826z" fill="#ccc"/></svg>