<svg height="256" preserveAspectRatio="xMidYMid" viewBox="0 0 256 256" width="256" xmlns="http://www.w3.org/2000/svg"><path d="m245.176607 128.82503c0 64.731247-52.475353 117.2066-117.2066 117.2066-64.7312479 0-117.2061786-52.475353-117.2061786-117.2066 0-64.7312478 52.4749307-117.206601 117.2061786-117.206601 64.731247 0 117.2066 52.4753532 117.2066 117.206601" fill="#fff"/><path d="m128 255.788779c-34.1337558 0-66.2241584-13.292568-90.3599736-37.428805-24.1362376-24.135816-37.42880528-56.226218-37.42880528-90.359974 0-34.1337558 13.29256768-66.2241584 37.42880528-90.360396 24.1358152-24.1362377 56.2262178-37.42838288 90.3599736-37.42838288 34.133756 0 66.224158 13.29214518 90.359974 37.42838288 24.136237 24.1362376 37.428805 56.2266402 37.428805 90.360396 0 34.133756-13.292568 66.224158-37.428805 90.359974-24.135816 24.136237-56.226218 37.428805-90.359974 37.428805zm0-241.6369638c-30.4099274 0-58.9995512 11.8423234-80.5027063 33.3454785-21.5031551 21.5027327-33.3454785 50.0927789-33.3454785 80.5027063 0 30.409927 11.8423234 58.999551 33.3454785 80.502706s50.0927789 33.345479 80.5027063 33.345479c30.409927 0 58.999551-11.842324 80.502706-33.345479s33.345479-50.092779 33.345479-80.502706c0-30.4099274-11.842324-58.9999736-33.345479-80.5027063-21.503155-21.5031551-50.092779-33.3454785-80.502706-33.3454785z" fill="#3c4655"/><path d="m86.6500858 95.2155248c0-7.0518284.03633-13.7268383-.0274587-20.4010033-.0147855-1.5309307.9403564-2.073769 2.0180066-2.611538 4.7499406-2.3715908 9.8855709-3.5493597 14.9852933-4.8538614 20.834852-5.3286865 41.251486-3.3089901 61.369453 3.5349967 5.271656 1.7932673 5.2273 1.9242244 5.2273 7.4193531v16.7984159c-.82165.1132145-1.188753-.3844225-1.628093-.6856238-11.844435-8.1168053-24.712871-14.1078812-38.321425-18.6009769-1.841426-.6083168-3.456845-.5821254-5.278839.0536502-13.124435 4.5796964-25.5357883 10.5648581-36.9979138 18.464528-.336264.2314984-.6830891.4482113-1.3463234.8820595" fill="#3c4655"/><path d="m108.19464 46.3089637c0-2.7441848.148277-5.4993531-.046891-8.2300198-.159261-2.2309175.923036-3.3888317 2.7087-4.2463894 3.913927-1.879868 8.096105-2.8181123 12.36235-3.3322245 7.051406-.8499538 13.883986.2348779 20.481689 2.7800924 3.860278 1.489109 4.133598 1.985901 4.133598 6.0282509 0 5.2779934-.033796 10.5564092.021967 15.8335577.015208 1.4084225-.135182 1.9525281-1.840581 1.613307-12.074244-2.4003169-24.174257-2.4391816-36.24132.0743498-1.511076.3147195-1.620911-.2348779-1.598099-1.4430627.056185-3.0251089.018587-6.0514852.018587-9.0778614" fill="#6e717e"/><path d="m222.630865 157.638125c-3.720872-2.399894-7.304449-5.016079-11.060806-7.355986-7.579036-4.72206-15.286072-9.232053-23.899247-11.87105-2.610693-.800106-5.269545-1.593452-8.060621-.726601-2.746719.853334-4.991577 2.533387-7.141386 4.344819-4.583076 3.861544-8.599656 8.313241-12.901386 12.46796-.506086.488344-.826297 1.325624-1.73666 1.265637-.255155-.396251-.059564-.71097.040555-1.042587 4.280607-14.199551 11.070943-27.010957 21.125914-37.989386 1.043855-1.139749 1.092013-1.708779-.138139-2.762773-14.465267-12.391075-30.461888-22.0814781-48.67295-27.9458214-1.399129-.4507458-2.665611-.5238283-4.061783-.0299934-18.072501 6.393241-34.5447916 15.5564358-49.0649765 28.1481718-1.1139802.965703-.9610561 1.44602-.0371749 2.42862 6.8651089 7.302337 12.065373 15.698377 15.9531089 24.907617 1.685967 3.994614 3.4788119 7.968106 4.231604 12.290958 1.5528977 6.478574 3.0297555 21.57328 3.8273265 22.320158-10.4571351-2.544792-12.5617423-3.694257-19.1509965-6.899749-8.6423234-4.204568-17.4633399-6.85835-27.2475247-6.266086-5.8905347.356541-10.861835 1.435881-16.4046997 3.30899-.9809109.331617-3.0584818 1.48066-2.6601188 2.303155.1309571.393294.2289637.414416.3975181.790812 5.409373 12.093677 12.899274 22.733729 22.5808053 31.76639 19.7250957 18.401584 43.0967133 27.957227 70.1021783 28.030732 17.732858.048581 34.338218-4.635459 49.627247-13.626297 21.749439-12.789861 36.94173-31.052884 45.308621-54.930587.490455-1.398707.268673-2.136713-.956409-2.927103zm-90.681875-21.8466c-.287683 15.161029-2.285412 22.36198-3.433188 33.263525-.08829.838125-.460885 3.022574-.460885 3.022574s-.662811-2.788541-.732937-3.051301c-1.210719-9.906693-2.156567-17.342099-3.297162-27.256818-.916277-7.963881-1.268171-16-1.18326-23.980356.05027-4.741915 1.906904-9.463974 2.949069-14.19575.683934-3.105373 1.211987-5.9302439 2.209373-9.2945739 1.175234 5.8013989 2.439182 11.6572939 3.881399 17.3919469 2.028146 8.064423.21967 16.079842.067591 24.100753z" fill="#3c4655"/><path d="m97.2069175 154.154667c4.3443965 5.069307 9.7782705 8.780462 15.4575845 12.119868 3.989122 2.345821 8.198759 4.298349 12.741703 5.39332.729135.176158 4.466904.940356 5.413175 1.026534 1.258455.114482 2.072501.190099 3.869148.260647-4.319049 1.884938-8.46701 3.390099-12.778878 4.153875-12.625109 1.598944-23.6930955.404277-34.9980724-4.864845-6.9441057-3.23633-13.6698086-6.765413-21.3624819-7.949096-9.7448977-1.49967-19.5573861-.352317-28.7260726 3.168317-.4587723.175736-.7895446.904871-1.2521188 1.070891-1.8076304-3.516409-2.878099-7.305294-4.1107855-11.036303-.3033135-.917545-.3033135-.917545.7164621-1.987169 10.1276303-8.835802 21.4571089-14.686627 35.3305346-14.011564 10.1812805.495525 19.0728449 4.409875 27.0565809 10.583868.8854389.685201 1.762429 1.380964 2.6432211 2.071657" fill="#777885"/></svg>