<svg height="281" preserveAspectRatio="xMidYMid" viewBox="0 0 256 281" width="256" xmlns="http://www.w3.org/2000/svg"><path d="m218.551006 37.4189601c-24.135229-24.1295165-56.221273-37.4189601-90.453909-37.4189601-70.5604472.04713075-128.00569191 57.5266524-128.05710727 128.121377l-.03998973 21.691571 16.8585269-11.489906c11.4684828-7.813707 24.7507854-11.944075 38.417275-11.944075 4.0789523 0 8.1978944.372761 12.2397133 1.109715 12.7424413 2.320832 24.1652216 8.089351 33.4142748 16.758553 2.119455-4.670229 4.614529-9.209064 7.559486-13.536523 1.208262-1.775259 2.485076-3.483391 3.806166-5.150106-11.652721-9.84033-25.6491264-16.462914-40.9266308-19.245057-5.3257749-.968323-10.7486677-1.458197-16.1201451-1.458197-11.1257137 0-21.9643583 2.040905-32.2902774 6.06987 8.3607096-51.2225576 52.8507105-89.369902 105.2315413-89.4084636 28.391279 0 55.077282 11.0528753 75.147841 31.1177215 16.011602 16.0101733 26.254685 36.0321734 29.788063 58.1165011-10.328776-4.034678-21.211694-6.099862-32.403106-6.144136l-1.568168-.007141c-1.146849.022851-2.285128.04713-3.400555.1114-1.955212.099974-3.897571.277071-5.821362.499871-.574138.062841-1.138279.152818-1.706705.231369-1.378217.185667-2.750722.394185-4.108944.638408-.602703.109972-1.202549.231369-1.799538.351338-1.38393.281356-2.756435.594133-4.114657.936902-.491303.125682-.982605.242795-1.469623.37419-1.715274.464166-3.414837.976892-5.090121 1.538176-.099974.034277-.204233.062841-.304208.09569-3.804737 1.298238-7.492361 2.856409-11.05716 4.648806-.097117.049987-.192807.101402-.292781.15139-1.668143.845497-3.302009 1.74955-4.911596 2.700734-.131395.078552-.265646.158531-.398469.238511-8.419266 5.047275-15.953045 11.519898-22.301415 19.252197-.262789.31849-.524151.635551-.784084.958326-1.376789 1.725271-2.717873 3.489103-3.976122 5.335772-1.069725 1.571025-2.062327 3.174899-3.024937 4.795911-.218515.369905-.434174.744095-.646977 1.116856-.876917 1.526751-1.715273 3.073496-2.496501 4.638808-.044274.089977-.088549.174241-.132823.264218-1.81382 3.663345-3.353425 7.42952-4.63738 11.272819 0 .002856-.001429.004285-.001429.008569v.004285c-3.144906 9.42615-4.670229 19.310754-4.508842 29.312471.004285.397041.004285.794081.018567 1.192551.021423.776943.059985 1.556743.104259 2.33797.034277.621269.074267 1.238254.119969 1.855238.048559.658402.101403 1.318233.168528 1.978064.078552.804079.174241 1.60673.275644 2.410809.062841.511297.118541 1.025451.194236 1.533892.191379 1.338227.40561 2.673599.658402 4.00897 4.338886 22.938394 17.261281 42.937542 36.389225 56.316963l2.446514 1.563884.019995-.048559c10.867209 7.065328 23.33115 11.699852 36.232122 13.450831l1.746694.235653 12.973811-20.821794-4.664517-.12711c-35.897922-.985461-65.100421-31.003465-65.100421-66.917098 0-35.348063 27.624333-64.701952 62.876707-66.828549l2.230855-.085692c14.290615-.361336 28.371284 3.859009 40.323929 11.996919l16.781403 11.421352.035706-21.580172c.027135-34.2183532-13.272306-66.378664-37.448953-90.5538829" fill="#e0225c"/></svg>