<svg height="270" preserveAspectRatio="xMidYMid" viewBox="0 0 256 270" width="256" xmlns="http://www.w3.org/2000/svg" xmlns:xlink="http://www.w3.org/1999/xlink"><linearGradient id="a" x1="50%" x2="50%" y1="0%" y2="100%"><stop offset="0" stop-color="#286a87"/><stop offset="1" stop-color="#00b0e0"/></linearGradient><path d="m200.485098 185.751285c4.472764 0 7.893114-3.683454 7.893114-7.893114v-103.6628986s0 0 0-.2631038c0-23.1531347-15.523125-42.8859199-36.834533-49.463515l-74.9845834-22.89003078c-3.4203495-1.05241521-7.1038027-1.57862282-10.5241521-1.57862282-19.2065776 0-34.729702 15.7862282-34.729702 34.729702v61.0400822l8.1562179-1.5786228 7.6300103-5.5251799v-53.9362795c0-10.5241522 8.4193217-18.9434738 18.9434738-18.9434738 1.0524152 0 2.1048304 0 2.8941418.2631038s1.8417266.2631038 2.631038.5262076l75.7738947 23.1531346c14.733813 4.4727646 25.257966 18.1541624 25.257966 34.2034944v.2631038 103.6628986c0 4.20966 3.683453 7.893114 7.893114 7.893114zm55.514902-87.3504628v94.9804728c0 2.10483-1.578623 3.946557-3.420349 4.735868l-113.397739 68.406989c-3.946557 1.841727-8.156218 2.894142-12.628983 2.894142-3.157246 0-6.051387-.263104-8.156218-1.052415l-112.08221974-37.097636c-3.15724563-.789312-5.52517985-2.894142-6.31449126-6.051388v-93.928057h.2631038c.26310381 1.315519 1.57862282 2.894141 2.89414183 3.157245l111.02980437 33.677287c3.42035 1.052415 7.103803 1.841727 11.05036 1.841727 6.577595 0 13.15519-1.841727 18.417266-4.998973l42.096609-23.942446v36.834533c0 8.156217 6.577595 14.733813 14.733813 14.733813 8.419321 0 14.996916-6.577596 14.996916-14.733813v-53.673176l38.413156-22.10072c1.315519-.789311 2.10483-2.3679338 2.10483-3.6834528zm-70.248715-24.2055498v63.4080166l-43.412128 8.682425c-3.420349.789312-7.103802 1.052415-10.524152 1.052415-5.262076 0-10.524152-.789311-14.733813-2.10483l-106.8201437-32.361768c-2.10483042-.263103-3.42034943-2.10483-3.42034943-4.20966 0-2.367935 1.57862282-4.209661 3.68345323-4.472765l48.9373073-9.9979446 55.7780066-40.2548819c4.20966-3.1572456 9.73484-5.262076 15.786228-5.262076 2.894142 0 5.52518.5262076 7.893114 1.315519l44.727646 13.4182939c1.315519 3.1572457 2.104831 6.8406989 2.104831 10.787256zm58.672148 7.6300102c3.946557 1.0524152 6.840699 4.7358685 6.840699 8.9455293 0 3.1572457-1.841727 6.0513875-3.946557 7.8931141l-31.835561 22.890031v-47.3586846-.5262077c-.263103-.2631038-.263103-.2631038-.263103-.5262076z" fill="url(#a)"/></svg>