<svg height="108" preserveAspectRatio="xMidYMid" viewBox="0 0 512 108" width="512" xmlns="http://www.w3.org/2000/svg"><g fill="#204156"><path d="m20.9477107 74.177213c-.9219686-2.7963987-1.3793654-6.3264262-1.3793654-11.0725912 0-4.7479586.4573968-8.2851609 1.3793654-11.0743849 2.5757721-8.003548 9.3990568-12.3766206 18.333542-12.3766206 6.6349449 0 11.8887306 2.6995383 15.3936461 6.9811315.2708507.3695049.3623301.9273497-.0932731 1.2986483l-5.802662 5.1192573c-.462778.3748861-.9219685.281613-1.2932671-.1829587-2.2134421-2.5111984-4.5165697-3.9102946-8.2026502-3.9102946-3.9605186 0-6.9990687 1.9551473-8.2923359 5.8636482-.7318349 2.238554-.9201748 4.8412317-.9201748 8.2833673 0 3.4421355.1865462 6.13988.9201748 8.3748466 1.2914735 3.8116404 4.3318173 5.7667877 8.2923359 5.7667877 3.6860805 0 5.9892081-1.3973025 8.2026502-3.9031198.3712986-.4717465.8304891-.4717465 1.2932671-.0986542l5.802662 5.1192573c.4556032.3712986.3641238.837664.0932731 1.3040295-3.5031218 4.1901138-8.7569075 6.8860647-15.3936461 6.8860647-8.9344852-.0035874-15.7577699-4.3802475-18.333542-12.3784144"/><path d="m222.274073 74.177213c-.921968-2.7963987-1.379365-6.3264262-1.379365-11.0725912 0-4.7479586.457397-8.2851609 1.379365-11.0743849 2.581153-8.003548 9.397263-12.3766206 18.331748-12.3766206 6.636739 0 11.892318 2.6995383 15.391853 6.9811315.274438.3695049.369505.9273497-.095067 1.2986483l-5.804456 5.1192573c-.460984.3748861-.918381.281613-1.287886-.1829587-2.209854-2.5111984-4.514776-3.9102946-8.204444-3.9102946-3.958725 0-7.000862 1.9551473-8.288748 5.8636482-.73901 2.238554-.918381 4.8412317-.918381 8.2833673 0 3.4421355.179371 6.13988.918381 8.3748466 1.287886 3.8116404 4.330023 5.7667877 8.288748 5.7667877 3.689668 0 5.99459-1.3973025 8.204444-3.9031198.369505-.4717465.828696-.4717465 1.287886-.0986542l5.804456 5.1192573c.464572.3712986.369505.837664.095067 1.3040295-3.499535 4.1901138-8.755114 6.8860647-15.391853 6.8860647-8.934485-.0035874-15.750595-4.3802475-18.331748-12.3784144"/><path d="m454.96351 85.5314172c-.552464 0-.920175-.3695049-.920175-.9327308v-25.8671372c0-5.7703751-2.859179-9.7739429-8.389196-9.7739429-5.343472 0-8.475295 4.001774-8.475295 9.7739429v25.8671372c0 .5614322-.371299.9327308-.920175.9327308h-8.480676c-.552463 0-.923762-.3695049-.923762-.9327308v-25.8671372c0-5.7703751-2.855591-9.7739429-8.37664-9.7739429-5.347059 0-8.48247 4.001774-8.48247 9.7739429v25.8671372c0 .5614322-.367711.9327308-.921968.9327308h-8.477088c-.556052 0-.920175-.3695049-.920175-.9327308v-42.9917165c0-.5596385.364123-.9327308.920175-.9327308h8.477088c.554257 0 .921968.3730923.921968.9327308v3.2573831h.093273c1.937211-2.7928114 5.804456-5.2107367 11.700391-5.2107367 5.253786 0 9.49233 2.1363123 12.159582 5.9533339h.095066c3.408055-3.7183673 7.833146-5.9533339 14.191859-5.9533339 10.315644 0 16.125481 7.0708172 16.125481 16.6564202v28.2868561c0 .563226-.371299.9345246-.925556.9345246z"/><path d="m477.162503 102.279317c-.550669 0-.918381-.373093-.918381-.934525v-7.4421156c0-.5560511.367712-.9345246.918381-.9345246h1.660979c3.499534 0 5.255579-1.5748801 6.634945-5.3004223l1.291473-3.8152278-16.218754-42.2473255c-.186546-.5596385.184752-.9327308.740804-.9327308h9.119237c.552464 0 .921969.3730923 1.10134.9327308l10.048381 29.3128601h.181165l9.585603-29.3128601c.184752-.5596385.554257-.9327308 1.10134-.9327308h8.751526c.557845 0 .92735.3730923.73901.9327308l-16.950589 46.7136712c-3.867246 10.6098132-7.558707 13.9568816-14.927281 13.9568816z"/><path d="m63.1519871 74.1808005c-1.0134479-3.1694912-1.4744322-6.1452612-1.4744322-11.0761787 0-4.9237425.4609843-7.9031 1.4744322-11.0600352 2.4878801-7.8170018 9.3004026-12.3784143 18.3281608-12.3784143 8.9326914 0 15.7488013 4.5596188 18.2366815 12.3784143 1.0080666 3.1569352 1.4726386 6.1362927 1.4726386 11.0600352 0 4.9309175-.464572 7.9066875-1.4726386 11.0761787-2.4896739 7.8116207-9.3039901 12.3694457-18.2366815 12.3694457-9.0277582.0017938-15.8402807-4.5560313-18.3281608-12.3694457m26.6169092-2.7910177c.7390098-2.3228585.9219686-4.4663457.9219686-8.2833672 0-3.8062593-.1829588-5.8564734-.9219686-8.272605-1.287886-3.7183674-4.145271-5.8636483-8.2887484-5.8636483-4.1416836 0-7.0941354 2.1452809-8.3802278 5.8636483-.7336286 2.4179253-.9201748 4.4663457-.9201748 8.272605 0 3.8170215.1865462 5.9605087.9201748 8.2833672 1.2860924 3.7255422 4.2403379 5.8582671 8.3802278 5.8582671 4.1434774-.0017937 7.0008624-2.1345186 8.2887484-5.8582671"/><path d="m280.688135 39.6536163c-7.280682 0-12.161375 1.7668074-15.75777 4.3730726-.364124.2834067-.45919.7425973-.179371 1.207169l3.40088 6.1452612c.2852.4663654.830489.5596385 1.295061.1865461 2.120169-1.6717406 5.156925-3.0726306 10.136273-3.0726306 7.259157 0 9.723719 2.2026798 9.849279 7.0439115h.001793v.0591926c.003588.1130039.003588.2278015.003588.3479803v14.5183141c0 5.1174636-3.499535 7.6250746-9.85466 7.6250746-4.979348 0-7.648393-1.8564931-7.648393-5.5766542 0-4.1901139 2.950658-6.0555755 9.582016-6.0555755l2.016133.0035874c.552464 0 .923762-.3730923.923762-.9273497v-5.9658899c0-.556051-.371298-.9273497-.923762-.9273497h-.443047l-3.230477-.0017937c-10.963175 0-17.788254 4.4735206-17.788254 14.2384949 0 9.4008505 6.825079 13.6788564 14.929075 13.6788564 6.260059 0 10.408917-2.1381061 12.529086-5.208943h.089686v3.2573831c0 .5596385.373092.9327308.923762.9327308h7.738079c.554257 0 .923762-.3712986.923762-.9327308v-29.3128601c.001794-10.9793181-4.972173-15.6357974-18.516501-15.6357974"/><path d="m170.606166 58.632895c-.240357 0-.398204.1596405-.398204.399998v.2654696.7784715 4.9291237.6618801.3820609c0 .2403576.157847.4017918.398204.4017918h.229595 22.586436c.645737 0 1.015242-.369505 1.015242-.9237623 0-7.2645382-.464572-10.3371688-1.474432-13.4976914-2.491468-7.6304556-9.122825-12.3748269-18.24565-12.3748269-8.8448 0-15.66091 4.5578251-18.152377 12.3748269-.916588 2.8842908-1.474432 6.4214931-1.474432 11.0743849 0 4.6528919.645736 8.0932337 1.573086 10.9811119 2.486086 7.8134144 9.117444 12.4663063 18.514707 12.4663063 8.197269 0 14.46809-3.16411 18.242063-7.6304557.365917-.462778.365917-.9273497-.093273-1.3040295l-5.431364-4.8376443c-.464572-.3712986-.923762-.2744381-1.38654.1865462-2.208061 2.4215127-5.433157 4.2815932-10.408917 4.2815932-4.97038 0-8.475295-2.4179253-9.949727-6.7892042-.222421-.6116562-.407173-1.2538055-.523764-1.9515599h-.001794c-.335425-1.8941611-.532733-3.7380982-.532733-6.446605.071749-2.5524538.218833-4.182939.581163-6.2546777.003588-.0286994.008969-.0538114.01435-.0807171.003587-.0215246.007175-.037668.010762-.0591925v.0017937c.087892-.48789.208071-.9470806.356949-1.4044774 1.1982-3.6286817 4.514776-5.7685815 8.756908-5.7685815 4.147064 0 7.458259 2.1398998 8.656459 5.7685815.371299 1.1228644.552464 2.2331729.552464 3.8188153 0 .3712986-.182959.5542573-.552464.5542573h-12.10577l.001794-.0017937z"/><path d="m146.530949 22.2563926h-8.462739c-.557845 0-.925556.3712986-.925556.9237623v21.7415969 17.9801805.143497.1434971 2.3874321h-.046637c-.098654 2.5650098-.376679 4.2511002-.86995 5.8313615-1.196407 3.7129861-4.053792 5.7560254-8.281574 5.7560254-4.13989 0-6.9901-2.0430393-8.191888-5.7560254-.642149-2.0466267-.914794-4.2744185-.914794-8.3622907 0-4.0860785.272645-6.3192514.914794-8.3587032 1.17847-3.6430314 3.9372-5.7004204 7.940768-5.7811374h3.612538c.175784-.0430492.290582-.1811651.290582-.3820609l.046636-8.4950255c0-.2170392-.136322-.36233-.337218-.387442l-2.88429-.0107623h-3.390118v.0017937c-7.417004.0789234-12.846574 3.6950491-15.121002 10.7712474-1.104927 3.4421355-1.564118 6.6062455-1.564118 12.6420902 0 6.0376384.459191 9.198161 1.564118 12.6331216 2.29954 7.1569154 7.820589 10.780216 15.363153 10.780216 5.983827 0 9.664527-2.225998 11.775727-5.2968349h.089686v3.345275c0 .5596385.369504.9309371.925556.9309371h8.462738c.552464 0 .921969-.3695049.921969-.9309371v-61.3270521c.003587-.5542574-.365918-.9237623-.918381-.9237623"/><path d="m368.386358 58.632895c-.23677 0-.398205.1596405-.398205.399998v.2654696.7784715 4.9291237.6618801.3820609c0 .2403576.161435.4017918.398205.4017918h.233182 22.58823c.643943 0 1.013448-.369505 1.013448-.9237623 0-7.2645382-.462778-10.3371688-1.472639-13.4976914-2.491467-7.6304556-9.124618-12.3748269-18.243856-12.3748269-8.846593 0-15.662703 4.5578251-18.154171 12.3748269-.918381 2.8842908-1.474432 6.4214931-1.474432 11.0743849 0 4.6528919.645737 8.0932337 1.573087 10.9811119 2.484292 7.8134144 9.117444 12.4663063 18.514707 12.4663063 8.197269 0 14.46809-3.16411 18.243856-7.6304557.365917-.462778.365917-.9273497-.095067-1.3040295l-5.431363-4.8376443c-.462778-.3712986-.921969-.2744381-1.384747.1865462-2.208061 2.4215127-5.431363 4.2815932-10.410711 4.2815932-4.970379 0-8.473501-2.4179253-9.949727-6.7892042-.220626-.6116562-.407172-1.2538055-.520176-1.9515599h-.001794c-.337218-1.8941611-.534527-3.7380982-.534527-6.446605.068162-2.5524538.215246-4.182939.57937-6.2546777.007175-.0286994.010762-.0538114.014349-.0807171.003588-.0215246.007175-.037668.010763-.0591925v.0017937c.091479-.48789.209864-.9470806.358742-1.4044774 1.196407-3.6286817 4.514776-5.7685815 8.756908-5.7685815 4.147065 0 7.458259 2.1398998 8.65646 5.7685815.369504 1.1228644.554257 2.2331729.554257 3.8188153 0 .3712986-.184753.5542573-.554257.5542573h-12.10577v-.0017937z"/><path d="m336.271718 22.2563926c-.554258 0-.923763.3730923-.923763.925556v21.77209 18.0088799.2869941 2.3910196c-.14529 2.5685972-.42511 4.2564813-.918381 5.8385363-1.1982 3.720161-4.060966 5.7685814-8.292335 5.7685814-4.143478 0-6.999069-2.0484204-8.202651-5.7685814-.640355-2.0502141-.920174-4.2797996-.920174-8.3748467 0-4.0914596.276231-6.3300136.920174-8.3712592 1.17847-3.6484125 3.942582-5.689658 7.953324-5.7703751l3.61792.0017937c.554257 0 .923762-.3712986.923762-.925556v-7.4564655c0-.5560511-.369505-.9273497-.923762-.9273497h-.443047l-5.469032-.0017937h-.127353-.118385-.12556c-7.425973.0789234-12.864511 3.7022239-15.140733 10.7891845-1.106721 3.4475167-1.565911 6.6134203-1.565911 12.6582336 0 6.046607.45919 9.2143044 1.565911 12.6546462 2.301334 7.1640903 7.833145 10.7945656 15.386471 10.7945656 5.991002 0 9.677083-2.2277917 11.793664-5.3040097l.089686 3.3488624c0 .563226.369505.9327309.925556.9327309h8.477088c.552464 0 .923762-.3677112.923762-.9327309v-61.4131503c-.007174-.5542574-.376679-.925556-.927349-.925556z"/><path d="m221.5817 98.2183502v8.4788818c0 .557845.369505.92735.923762.92735h31.418679c.561433 0 .932731-.371299.932731-.92735v-8.4788818c0-.5506699-.371298-.9219686-.932731-.9219686h-31.418679c-.554257 0-.923762.3712987-.923762.9219686"/><path d="m213.605058.29955009c-.01435-.0143497-.023319-.03228683-.035875-.04484282-.001793-.00179372-.003587-.00179372-.003587-.00179372-.161434-.15964047-.39103-.25291355-.663674-.25291355h-.010762-211.77474173c-.06995482 0-.1363222.00717485-.20089587.01793713-.01793714.00358743-.03408055.01076228-.0538114.01434971-.0412554.01076228-.08609823.01973084-.1237662.03587426-.00717486.00179371-.012556.00538114-.01793714.00896856-.3282495.13452849-.52914537.44125344-.52914537.84663261v.00358742 105.75732631.007175c0 .322868.12555992.575782.33721807.737216.01614342.016144.03049312.030493.05201768.041256v.001793c.14708448.093273.32645579.143497.53632023.143497h211.77294773.010762c.312106 0 .56502-.120178.72466-.326455.12556-.15426.199103-.356949.199103-.599101v-.007175-105.75553231-.00358742c0-.25291356-.080718-.46636542-.218833-.62421218zm-202.1747892 96.99324411c-.0663674 0-.1309411-.0053811-.1883399-.0143497-.0179371-.0035874-.037668-.012556-.0556051-.0179371-.0430491-.0089686-.0860982-.0179371-.1255599-.0340806-.0071749-.0017937-.0107623-.0071748-.0179371-.0089685-.3264558-.1327348-.525558-.437666-.5273517-.8394578v-76.6561246-8.4752945c0-.4071729.2008959-.7103104.5273517-.8466326.0089685-.0017937.0143497-.0071749.0197308-.0089686.037668-.0143497.1596405-.0448428.1793713-.050224.0609863-.0089685.1255599-.0143497.1919273-.0143497h191.1452468c.068161 0 .130941.0053812.191927.0143497.019731.0053812.037668.012556.053812.0179372.043049.0089685.086098.0179371.125559.0340805.008969.0017937.012556.0071749.019731.0089686.32825.1345285.527352.4394597.527352.8466326v85.1314191c-.001794.4035855-.20269.7085167-.525558.8412515-.007175.0017937-.010762.0071748-.019731.0089686-.037668.0143497-.082511.0251119-.123766.0340805-.019731.0053811-.035874.0143497-.055605.0179371-.060986.0107623-.120179.0143497-.186546.0143497h-191.1560092z"/></g></svg>