<svg height="256" preserveAspectRatio="xMidYMid" viewBox="0 0 256 256" width="256" xmlns="http://www.w3.org/2000/svg"><path d="m256 128c0 70.692-57.308 128-128 128-70.693 0-128-57.308-128-128 0-70.693 57.307-128 128-128 70.692 0 128 57.307 128 128" fill="#237dac"/><path d="m129.283 60.731s39.839 64.87 39.839 88.5c0 18.839-8.81 41.505-39.839 41.505s-39.854-22.679-39.854-41.517c0-22.818 39.854-88.488 39.854-88.488" fill="#fff"/><path d="m100.532 82.518s25.074 40.828 25.074 55.701c0 11.857-5.545 26.123-25.074 26.123-19.53 0-25.084-14.274-25.084-26.131 0-14.361 25.084-55.693 25.084-55.693" fill="#61aad4"/></svg>