<svg height="206" preserveAspectRatio="xMidYMid" viewBox="0 0 256 206" width="256" xmlns="http://www.w3.org/2000/svg"><path d="m101.614018 9.07118344c.23286 1.39715816-.465719 2.56145676-2.7943165 3.72575526-3.0271761-1.6300179-9.5472477-2.5614568-14.9030209-2.0957374-5.8214925.4657195-10.7115462 2.3285971-10.0129671 6.287212.9314388 3.9586149 6.5200716 6.2872119 16.5330388 5.3557731 24.4502687-2.0957373 24.2174087-18.6287761 60.0778027-21.88881192 27.943164-2.56145671 43.544764 6.05435224 45.640502 16.53303882 1.630018 8.1500895-5.122914 16.0673194-25.381708 17.6973373-17.930197 1.6300179-28.408883-3.2600358-29.340322-8.1500896-.46572-2.5614567.931439-6.2872119 9.547248-7.2186507.931438 3.9586149 5.821492 8.1500896 17.464477 6.985791 8.38295-.6985791 15.368741-3.7257552 14.437302-8.3829492-.931439-4.8900537-9.780108-7.6843702-23.75169-6.5200716-28.408883 2.5614567-35.394674 18.1630567-59.6120834 20.258794-17.2316179 1.6300179-31.2032-4.657194-33.0660776-13.9715821-.6985791-3.4928955-.6985791-11.64298508 17.4644776-13.27300299 9.3143881-.69857911 16.7658984.9314388 17.6973374 4.65719403zm-90.8152836 97.33535556c-7.91722989 10.012967-11.41012541 21.655952-10.7115463 33.066077.6985791 11.410126 6.28721194 20.724514 15.1358806 27.943164 9.3143881 7.218651 19.3273552 9.314388 30.7374806 7.218651 4.4243343-.698579 9.314388-3.027176 13.7387224-4.424334-9.3143881 0-17.2316179-3.027176-25.1488478-9.314388-8.6158089-6.287212-14.4373015-15.135881-15.8344597-25.847427-2.0957373-10.012967 0-19.327355 5.5886328-27.477445 6.287212-7.9172297 14.4373015-12.341564 25.1488478-13.7387222 10.7115463-.6985791 20.0259343 2.0957373 29.3403224 8.6158092-2.0957373-3.0271764-5.1229134-5.1229137-7.9172299-7.9172301-9.314388-6.287212-19.3273552-9.3143881-31.6689194-6.287212-11.1772656 2.328597-20.4916537 8.1500896-28.4088835 18.1630571zm124.8127996-53.7905914c-30.038901 0-56.8177668-3.0271761-76.145122-7.2186507-20.7245135-5.1229135-31.6689194-10.7115463-31.6689194-17.930197 0-3.0271762 1.3971582-5.5886329 5.5886328-8.615809-13.0401433 5.1229134-20.0259343 9.3143881-20.0259343 15.8344597.6985791 7.2186507 12.3415642 14.4373015 36.0932537 20.0259343 22.3545313 5.5886329 50.9962742 8.615809 85.4595102 8.615809 35.161815 0 63.104979-3.0271761 85.459511-8.615809 23.751689-5.5886328 35.161815-13.0401433 35.161815-20.0259343 0-5.1229134-5.122914-10.0129672-14.437302-13.7387224 2.095737 1.3971582 3.725755 3.7257552 3.725755 6.287212 0 7.2186507-10.711546 13.0401432-32.367498 17.930197-20.025934 4.4243343-45.640502 7.4515104-76.843702 7.4515104zm85.69237 20.0259343c-22.354531 5.1229135-50.996274 8.615809-85.45951 8.615809-35.161815 0-63.8035582-3.7257552-86.1580895-8.615809-20.0259343-5.1229134-30.7374806-10.7115462-34.4632358-16.5330388 3.7257552 25.1488478 12.3415642 48.9005369 23.7516895 69.8579109 8.615809 13.040143 17.2316179 24.450268 25.8474269 36.791832 3.7257552 7.218651 6.2872119 14.437302 7.9172299 21.655953 5.5886328 7.917229 13.7387223 13.040143 23.7516895 15.834459 12.3415645 4.424335 25.1488475 6.287212 38.1889915 5.588633h1.397158c13.040143.698579 26.778865-1.397158 39.353289-5.588633 9.314388-3.027176 17.231618-7.91723 23.053111-15.834459h.698579c1.397158-7.218651 3.725755-14.437302 7.218651-21.655953 8.615809-12.341564 17.231617-23.751689 25.847426-36.791832 11.410126-20.724514 19.327356-44.4762034 23.75169-69.8579109-4.657194 6.5200717-15.36874 12.1087045-34.696096 16.5330388z" fill="#28334c"/></svg>