<svg height="257" preserveAspectRatio="xMidYMid" viewBox="0 0 256 257" width="256" xmlns="http://www.w3.org/2000/svg"><path d="m214.570715 131.720728c0 17.482509-5.186706 33.735437-14.018462 47.404374l29.509925 26.239366c16.159305-21.42091 25.858633-47.991077 25.858633-76.895574 0-28.7422167-9.593222-55.1813115-25.596489-76.5460475l-32.262437 28.7796663c10.342205 14.3742293 16.50883 31.9566022 16.50883 51.0182152" fill="#7a797a"/><path d="m196.102046 185.360384c-16.01575 20.578304-40.950637 33.87275-69.043736 33.87275-48.3343603 0-87.5124052-39.184287-87.5124052-87.512406 0-48.33436 39.1780449-87.512405 87.5124052-87.512405 26.526476 0 50.244267 11.8464122 66.291224 30.4898439l32.281162-28.7921494c-23.46813-27.7373318-58.48932-45.38836112-97.661123-45.38836112-70.666533 0-127.95123852 57.28470552-127.95123852 127.95123762 0 70.666533 57.28470552 127.951239 127.95123852 127.951239 39.022006 0 73.899641-17.519958 97.367771-45.063802z" fill="#343334"/><path d="m162.491441 132.625749c0 19.623351-15.909644 35.532995-35.532995 35.532995-19.629593 0-35.5329953-15.909644-35.5329953-35.532995 0-19.629592 15.9034023-35.5329947 35.5329953-35.5329947 19.623351 0 35.532995 15.9034027 35.532995 35.5329947" fill="#474547"/></svg>