<svg height="148" preserveAspectRatio="xMidYMid" viewBox="0 0 256 148" width="256" xmlns="http://www.w3.org/2000/svg"><g><path d="m202.150846 29.5362716h-.127863l-49.610707-28.89695836-48.971394 28.51337036-50.2500206-29.1526836-53.1908614 30.9427607v56.2595649l102.673706 59.8397194 49.099257-28.385508 50.377883 29.152684 53.574449-30.942761v-56.2595651zm-.255726 57.666054-42.066811-24.4217657 42.450399-24.8053536 42.066811 24.677491zm-99.605002-49.6107072 42.450399 24.5496283-41.938948 24.4217657-42.3225367-24.677491zm92.316832-3.8358794-41.555361 24.1660403-42.322536-24.5496283 41.683223-24.29390302zm-99.0935523-.7671759-8.5667974 4.9866432-34.6507775 19.5629851-41.2996351-24.5496283 42.3225363-24.54962836zm-88.09736414 6.137407 41.55536044 25.061079v44.2404759l-41.55536044-25.3168041zm49.86643254 29.408409 41.5553605 24.677491v44.1126129l-41.5553605-24.677491zm98.8378269.5114506 42.322536 24.9332162v43.7290251l-42.322536-25.188941z"/><path d="m57.2824661 112.774855 41.5553605 24.421766v-43.9847509l-41.5553605-24.677491zm-49.86643254-29.7919967 41.55536044 25.3168037v-44.1126129l-41.55536044-25.061079zm148.70425944 29.6641337 42.322536 25.188942v-43.8568881l-42.322536-24.9332162z" opacity=".5"/></g></svg>