<svg height="256" preserveAspectRatio="xMidYMid" viewBox="0 0 256 256" width="256" xmlns="http://www.w3.org/2000/svg" xmlns:xlink="http://www.w3.org/1999/xlink"><defs><path id="a" d="m255.774254 0c-3.374363 68.4647791-13.363559 131.708591-40.029726 191.254384-20.46801 45.705435-67.265449 69.495391-120.0412181 62.801407-43.3791101-5.501589-83.159032-42.606609-92.84346605-86.600351-10.80555816-49.088878 9.47060105-100.4437037 53.01758005-122.7965947 61.4709761-31.5544966 128.6734741-40.5334022 199.8968301-44.6588453"/><mask id="b" fill="#fff"><use fill="#fff" xlink:href="#a"/></mask></defs><use fill="#fff" xlink:href="#a"/><g mask="url(#b)"><path d="m113.789102 76.0935034s-5.893396 32.6570116-8.238563 49.2037236c-11.9366748-9.303469-35.5592197-26.2296693-35.5592197-26.2296693s18.5325214 24.9234283 27.2836846 36.0554343c-16.6250117 1.884461-49.9509758 7.073472-49.9509758 7.073472s34.0833724 5.481616 49.9559719 7.316145c-9.205808 11.657298-27.3736144 35.291463-27.3736144 35.291463s24.6807182-17.048036 35.7710544-25.593526c2.262232 15.859637 8.111662 49.638138 8.111662 49.638138s5.35082-33.750538 7.384231-50.198383c10.964434 8.545489 34.114348 26.395446 34.114348 26.395446s-16.1274-24.141482-24.958501-35.544123c16.041468-1.883463 48.637003-7.30516 48.637003-7.30516s-32.913287-5.241939-48.521093-7.046509c8.077689-10.947254 24.99747-36.0953798 24.99747-36.0953798s-23.710476 18.3882318-34.29021 26.8568248c-1.957471-16.341988-7.363248-49.8178966-7.363248-49.8178966m142.011054-75.63212487c-3.374364 68.46477917-13.36356 131.70859047-40.029727 191.25438347-20.468009 45.705436-67.265449 69.495391-120.0412174 62.801408-43.3791101-5.50159-83.1590321-42.60661-92.84346609-86.600351-10.80555816-49.088878 9.47060109-100.4437041 53.01757999-122.7965952 61.4709755-31.5544966 128.6734735-40.53340217 199.8968305-44.65884527" fill="#e21708"/><g fill-opacity=".3"><path d="m6.19516003 103.901047c3.89195937-11.4615614 9.58051527-22.1661425 16.93676817-31.5964401 2.7778298-3.4203927 5.8654176-6.8367909 9.2957377-10.3600452 3.0306323-2.9380425 6.2391257-5.676354 9.643466-8.2149346 3.124559-2.2789303 6.5688681-4.5189131 10.2649805-6.6989766 1.1710851-.6631068 2.3601561-1.3052418 3.5672131-1.9244078 14.8833724-7.6397095 30.100484-13.9562013 45.6323495-19.2011364 40.264544-13.5946882 82.622451-19.98907509 126.64306-23.55926611 10.860516-.82788485 20.260172-1.37315039 27.621421-1.88446166-74.936503 16.16189337-114.748778 32.06432437-163.2351875 53.26824807-48.4864096 21.2039237-89.87770629 67.2702654-92.07235336 80.4606214 1.29099142-11.933925 3.1015769-21.743712 5.70254489-30.289201z" fill="#fa524a"/><path d="m97.01121 259.081814c-4.7073224-.599193-9.5905074-1.511963-14.5336456-2.836179-18.2137705-5.251926-37.2459016-16.483797-52.4330367-32.869725-13.2266667-14.420576-22.98604214-32.096767-27.15878219-51.051235-1.95147541-8.866058-2.88874317-17.808013-2.85876659-26.637121.54357533 79.974277 93.99365318 92.33598 118.98512908 92.336663 39.670702.001085 39.175308-7.900397 100.790171-51.235026-1.303981 3.13278-2.644933 6.238597-4.03185 9.334427-14.427728 32.217603-41.942232 53.545875-75.407088 60.983856-8.783138 1.944381-17.86804 2.93205-27.22573 2.93205-5.295862 0-10.676659-.316573-16.126401-.95771z" fill="#ae0e10"/></g></g></svg>