<svg height="256" preserveAspectRatio="xMidYMid" viewBox="0 0 256 256" width="256" xmlns="http://www.w3.org/2000/svg" xmlns:xlink="http://www.w3.org/1999/xlink"><linearGradient id="a" x1="49.980476%" x2="49.980476%" y1="0%" y2="99.958454%"><stop offset="0" stop-color="#7a7a7a"/><stop offset="1"/></linearGradient><radialGradient id="b" cx="49.251789%" cy="67.581464%" r="62.337436%"><stop offset="0" stop-color="#fff"/><stop offset=".653161473" stop-color="#6b6b6b"/><stop offset="1"/></radialGradient><linearGradient id="c" x1="49.998309%" x2="49.998309%" y1="-.025275%" y2="100.005495%"><stop offset="0" stop-color="#fff"/><stop offset=".2182" stop-color="#fcfcfc"/><stop offset=".3538" stop-color="#f4f4f4"/><stop offset=".4671" stop-color="#e5e5e5"/><stop offset=".5679" stop-color="#d1d1d1"/><stop offset=".6605" stop-color="#b6b6b6"/><stop offset=".7472" stop-color="#959595"/><stop offset=".8292" stop-color="#6e6e6e"/><stop offset=".9075" stop-color="#414141"/><stop offset=".9803" stop-color="#0f0f0f"/><stop offset="1"/></linearGradient><linearGradient id="d" x1="49.999662%" x2="49.999662%" y1=".120874%" y2="99.902185%"><stop offset="0" stop-color="#fff"/><stop offset=".00587422" stop-color="#f7f7f7"/><stop offset=".03627752" stop-color="#d3d3d3"/><stop offset=".07048631" stop-color="#b2b2b2"/><stop offset=".1083" stop-color="#979797"/><stop offset=".151" stop-color="#818181"/><stop offset=".2009" stop-color="#707070"/><stop offset=".2625" stop-color="#646464"/><stop offset=".349" stop-color="#5e5e5e"/><stop offset=".5892" stop-color="#5c5c5c"/></linearGradient><linearGradient id="e" x1="49.99799%" x2="49.99799%" y1=".007014%" y2="99.990361%"><stop offset="0"/><stop offset=".2757" stop-color="#666"/><stop offset=".3135"/><stop offset=".6216" stop-color="#404040"/><stop offset=".9405" stop-color="#383838"/><stop offset="1"/></linearGradient><path d="m220.737743 0h-186.4715951c-18.9260701 0-34.2661479 15.3400778-34.2661479 34.2661479v186.5712061c0 18.92607 15.3400778 34.266148 34.2661479 34.266148h186.5712061c18.92607 0 34.266148-15.340078 34.266148-34.266148v-186.5712061c-.099611-18.9260701-15.439689-34.2661479-34.365759-34.2661479z" fill="url(#a)"/><path d="m219.940856 1.09571984h-184.9774319c-18.7268482 0-33.86770426 15.14085606-33.86770426 33.86770426v184.9774319c0 18.726848 15.24046696 33.967315 33.96731516 33.967315h184.977432c18.726848 0 33.967315-15.240467 33.967315-33.967315v-184.9774319c-.099611-18.7268482-15.240467-33.86770426-34.066926-33.86770426z" fill="#010101"/><path d="m244.245914 215.259144c0 17.332296-14.045136 31.277821-31.277821 31.277821h-170.6334626c-17.3322958 0-31.2778211-14.045136-31.2778211-31.277821v-170.5338522c0-17.3322957 14.0451362-31.277821 31.2778211-31.277821h170.5338516c17.332296 0 31.277822 14.0451362 31.277822 31.277821v170.5338522z" fill="url(#b)" opacity=".3"/><path d="m213.66537 9.56264591h-172.3268486c-17.5315175 0-31.67626459 14.14474709-31.67626459 31.57665369v62.3564204c34.16653699 9.363424 74.50894939 14.842023 117.83968919 14.842023 43.231128 0 83.673151-5.478599 117.839688-14.842023v-62.3564204c0-17.4319066-14.144747-31.57665369-31.676264-31.57665369z" fill="url(#c)" opacity=".3"/><path d="m41.3385214 18.8264591h172.3268486c17.431906 0 31.576653 14.1447471 31.576653 31.5766537v-9.3634241c0-17.4319066-14.144747-31.57665368-31.576653-31.57665368h-172.3268486c-17.4319066 0-31.5766537 14.24435798-31.5766537 31.67626458v9.3634241c0-17.5315175 14.1447471-31.6762646 31.5766537-31.6762646z" fill="url(#d)" opacity=".64"/><path d="m39.5455253 248.927626c-18.5276265 0-33.46926071-14.941634-33.46926071-33.46926v-175.9128407c0-18.5276265 14.94163421-33.46926071 33.46926071-33.46926071h175.9128407c18.527626 0 33.46926 14.94163421 33.46926 33.46926071v175.9128407c0 18.527626-14.941634 33.46926-33.46926 33.46926zm-31.07859923-209.3821007v175.9128407c0 17.133074 13.94552533 31.078599 31.07859923 31.078599h175.9128407c17.133074 0 31.078599-13.945525 31.078599-31.078599v-175.9128407c0-17.1330739-13.945525-31.07859923-31.078599-31.07859923h-175.9128407c-17.1330739 0-31.07859923 13.94552533-31.07859923 31.07859923z" fill="url(#e)"/><path d="m215.458366 249.525292h-175.9128407c-18.8264592 0-34.06692608-15.340078-34.06692608-34.066926v-175.9128407c0-18.8264592 15.34007778-34.06692608 34.06692608-34.06692608h175.9128407c18.826459 0 34.066926 15.34007778 34.066926 34.06692608v175.9128407c0 18.826459-15.240467 34.066926-34.066926 34.066926zm-175.9128407-242.85136204c-18.1291829 0-32.87159534 14.74241244-32.87159534 32.87159534v175.9128407c0 18.129183 14.74241244 32.871595 32.87159534 32.871595h175.9128407c18.129183 0 32.871595-14.742412 32.871595-32.871595v-175.9128407c0-18.1291829-14.742412-32.87159534-32.871595-32.87159534zm175.9128407 240.46070004h-175.9128407c-17.4319066 0-31.6762646-14.244358-31.6762646-31.676264v-175.9128407c0-17.4319066 14.244358-31.6762646 31.6762646-31.6762646h175.9128407c17.431906 0 31.676264 14.244358 31.676264 31.6762646v175.9128407c0 17.431906-14.244358 31.676264-31.676264 31.676264zm-206.39377456-207.5891047v175.9128407c0 16.73463 13.64669256 30.381323 30.48093386 30.480934h175.9128407c16.73463 0 30.480934-13.646693 30.480934-30.480934v-175.9128407c0-16.7346304-13.646693-30.38132297-30.480934-30.48093386h-175.9128407c-16.7346304.09961089-30.38132297 13.74630346-30.48093386 30.48093386z" fill="#010101"/><path d="m207.688716 154.994553c-18.328405-21.814786-46.418677 24.205447-61.559533 34.066926-10.459144 6.873151-26.396887 7.371206-37.553308.896498-15.2404664-8.964981-10.5587544-30.480934 5.4786-35.760312 14.343969-4.781323 39.445914 10.359533 48.510506-4.781323 11.256031-18.627237-27.094164-23.010116-38.449806-22.512062-20.420233.796887-40.1431906 7.470817-52.1961089 22.910506-13.0490272 16.635019-10.0607003 36.75642 4.2832685 51.897276 14.6428016 14.144747 35.8599224 19.623347 57.0770424 17.929961 5.378989-.398443 14.543191-2.689494 21.515954-6.574319 13.945525-7.670039 56.578988-53.690272 52.893385-58.073151zm-133.777432-16.236576c7.0723736 1.394552-6.6739299-38.150973-7.570428-43.6295723-1.0957198-6.5743191-3.4863813-15.8381323-10.0607004-16.8342413-7.570428-1.0957198-9.6622568 7.570428-8.1680933 15.1408561 1.7929961 7.7696495 19.2249027 43.9284045 25.7992217 45.3229575zm58.670817-20.519845c10.957199 1.593775 10.259922-51.1003888 10.259922-58.2723732 0-6.4747082 2.490273-24.3050584-6.175875-25.8988327-11.953308-2.2910506-13.148638 13.4474708-13.34786 21.814786.398444 8.466926-2.19144 60.7626459 9.263813 62.3564199zm26.098055 8.466926c11.953307 4.980545 21.117509-48.2116728 22.512062-54.9852136 1.294942-6.9727627 1.593774-21.7151751-10.359533-17.0334631-5.976654 2.3906615-7.072374 12.0529183-7.968872 17.4319066-1.494163 6.67393-13.447471 50.7019451-4.183657 54.5867701zm-57.674709-4.48249c13.547082.996109.796888-52.4949415-.298832-59.666926-1.0957201-7.2715953-5.9766539-21.814786-16.0373543-13.3478599-5.0801556 4.2832685-2.7891051 14.1447471-1.7929961 19.7229572.896498 7.1719844 7.7696498 52.4949417 18.1291824 53.2918287z" fill="#fff"/></svg>