<svg height="254" preserveAspectRatio="xMidYMid" viewBox="0 0 256 254" width="256" xmlns="http://www.w3.org/2000/svg"><path d="m145.958788 150.375178c9.791652-.814742 17.068876-9.412924 16.254134-19.204576s-9.412924-17.068876-19.204576-16.254134-17.068876 9.412924-16.254134 19.204576 9.412924 17.068876 19.204576 16.254134zm20.728857-.249637c-3.838401 4.238183-8.588204 7.55043-13.891866 9.687412l-.041412.118966c4.021177 15.463445 10.31673 30.24391 18.680607 43.857637-7.314974 3.887332-15.27817 6.406578-23.497959 7.433843l-1.161797.150589-1.381657.104659-2.767832.211578c-1.699401 0-3.363413.15586-5.142626.052707-6.997369-.147645-13.934166-1.332112-20.584056-3.514755-3.10866-.994097-6.142451-2.208671-9.078278-3.634474-2.659347-1.275215-5.238684-2.710973-7.723727-4.299325-2.1178579-1.348507-4.1608547-2.81113-6.1199503-4.381397-1.8018013-1.355304-3.2128234-2.728679-4.4378676-3.800122-2.3409112-2.246793-3.6322147-3.604356-3.6322147-3.604356s1.087255 1.509659 3.1239757 4.079466c1.0744549 1.233326 2.3122992 2.810749 3.9394169 4.428079 1.7760613 1.870656 3.6526729 3.643206 5.6214999 5.30978 2.3428931 1.990527 4.8045421 3.83689 7.3713481 5.528887 2.880628 1.917793 5.893706 3.628768 9.016536 5.120037 3.360455 1.626225 6.832859 3.010154 10.390664 4.141207 3.71186 1.169256 7.504626 2.064159 11.347659 2.677478 1.913991.371956 3.983088.494686 5.982162.7409l2.779879.164895 1.38241.080566 1.587964.0256c3.84345.038829 7.684685-.199974 11.493731-.714547 6.533655-.899004 12.932951-2.593143 19.055574-5.044742 2.331625 3.171411 4.779455 6.25523 7.343489 9.251455l-.354638.219108-3.059975 1.892908-.42165.260519-.106919.06626-.027106.016565c-.514262.256754.671629-.330544.538357-.265038l-.055718.028612-.225884.115201-.928383.471345-1.957661.994642-1.027773.521792-.527062.267296-.266543.134778-.06626.033882-.033882.017318c-.092613.039153.688193-.282355.341085-.138542l-.13779.060236-2.270134.996901-2.3891 1.049608-.306449.134777-.0384.016565c.527062-.188237.124989-.042918.231907-.081318l-.076047.035388-.157366.061742-.632475.247719-1.287539.502969c-11.682716 4.496188-24.149827 6.598877-36.660973 6.183198l-1.626365-.05873-1.83719-.145319-3.684921-.295155c-2.285946-.361414-4.571139-.519533-6.916568-1.033043-9.271304-1.676724-18.24346-4.716159-26.6249471-9.019548-2.032956-1.015725-3.9943821-2.083403-5.8541603-3.242188-1.9139905-1.076714-3.6728739-2.304017-5.4084159-3.477861-3.2478026-2.241833-6.3566538-4.678575-9.3094326-7.296806-2.5130251-2.220621-4.9036352-4.576042-7.1612758-7.055863-2.0909329-2.165475-3.6660973-4.263937-5.0552839-5.927949-1.3515393-1.691871-2.286699-3.117199-2.9869394-4.047089l-1.04509-1.447916.8975124 1.545047c.6023574.994642 1.3921984 2.518606 2.5720658 4.350525 1.2175148 1.807072 2.5916425 4.08323 4.4740091 6.480612 2.0350294 2.75156 4.2177633 5.390748 6.5385889 7.90594 2.75648 2.997055 5.6920797 5.824283 8.7906523 8.466133 1.6655181 1.394457 3.3656716 2.85442 5.2344853 4.175842 1.8146014 1.402739 3.7459096 2.725667 5.760042 4.005676 4.1343647 2.675841 8.4544559 5.053162 12.9273412 7.11384 4.656648 2.129651 9.46332 3.914663 14.381281 5.340651 2.441806.798123 5.089167 1.288292 7.636385 1.935073l3.644262.669369 1.813096.331297 2.024674.289132c4.989048.674408 10.020232.988197 15.054415.938924 9.03646-.102222 18.022933-1.357231 26.741654-3.734615l1.331963-.369697.655063-.18146.91483-.291391 2.484724-.801888 2.358982-.761229 2.560019-.987866 2.048015-.790594.971301-.376473.237178-.091107.05873-.022588.62344-.307956.112942-.054965.445744-.216848 3.237671-1.572153 4.044077-1.965191c2.748255 2.630043 5.580087 5.181026 8.518838 7.620573 0 0 13.999538 14.415917 21.710464 8.486462 7.249371-5.571805-1.101561-23.04845-1.101561-23.04845-11.218471-31.972507-32.183924-59.620349-59.94359-79.049612zm-48.834614-23.692973-.081319-.09713c-15.190463-4.478847-30.9575488-6.696966-46.7941291-6.583012.4701645-8.614817 2.5759923-17.061381 6.2050334-24.8886524l.4894154-1.0639136.6407576-1.2273031 1.2867858-2.4598768c.8997713-1.4411399 1.6489532-2.936492 2.6797372-4.390432 3.8323269-5.8565766 8.51211-11.1123564 13.8865954-15.5957843 2.4896959-2.1096711 5.1266783-4.0390971 7.8908813-5.773595 2.491054-1.5784154 5.075656-3.0041083 7.739539-4.2692076 2.265832-1.0819616 4.588841-2.03987 6.958733-2.8694798 2.10825-.8079117 4.016217-1.2800093 5.571805-1.750601 3.146564-.8011352 4.983754-1.1776085 4.983754-1.1776085s-1.856014.1219773-5.11552.4886623c-1.61507.2575078-3.60812.4713447-5.842113.9946426-2.527623.5165745-5.025314 1.1700914-7.482031 1.9576613-2.929532.9327225-5.799768 2.0423461-8.594886 3.3227537-3.1523445 1.4273751-6.199396 3.0767081-9.1181842 4.9355654-3.1604721 1.987983-6.1746811 4.1995102-9.0195482 6.6176482-2.9581683 2.5290727-5.7264314 5.2721698-8.2824133 8.2071187-1.3304567 1.426081-2.5299008 3.1164462-3.79711 4.6810694l-1.6128118 2.2701342-.8003823 1.12942-.8636298 1.3334685c-2.0690544 3.23906-3.9014736 6.6233234-5.4829576 10.1263798-2.8397913 6.314456-4.8590606 12.966658-6.0085144 19.794215l-.0459298.275578c-3.8611105.353885-7.7069111.847818-11.5374018 1.481799l.0090354-2.013379.0158119-3.598332v-.496192-.15586c.0549651-.572239-.0752947.743911-.0602358.597087l.0052707-.062495.0218354-.25299.0926125-1.036807.1927543-2.183546.1016478-1.148243.0519533-.587299.0263532-.296661.0060235-.075294.0037648-.037648c.0150589-.099389-.1257421.732617-.0632476.36292l.0210826-.150589.3568967-2.4531.3764733-2.582607.0481886-.33205.0060236-.041412c-.1219774.548898-.029365.128001-.0542122.24019l.0158119-.082824.0308708-.165648.1257421-.667864.2560019-1.355304c2.3756012-12.290762 7.1970549-23.9787543 14.1779857-34.3697563l.9118184-1.3485275 1.0962904-1.4810461 2.202369-2.9688687c1.5171875-1.7468362 2.8611973-3.6020968 4.5402684-5.3188152 6.3338152-6.9747102 13.6645364-12.9741185 21.754135-17.803424 1.9373318-1.1843851 3.882946-2.2836872 5.8503956-3.2474589 1.9282965-1.0541254 3.900264-1.8944138 5.815007-2.7452436 3.621913-1.5667505 7.335482-2.912476 11.120269-4.0297705 3.214854-.9544697 6.479166-1.7336617 9.778519-2.3341347 2.944021-.6264516 5.558252-.8500768 7.706409-1.1474907 2.153427-.2552489 3.857346-.2936492 5.014625-.3945441l1.782225-.1189656-1.782225-.0632475c-1.16255-.0173177-2.874751-.1505893-5.052272-.1242362-2.17451.0752947-4.836177.0346356-7.866787.3614144-3.412025.2675839-6.807028.7200163-10.170051 1.355304-4.002047.7502122-7.954977 1.7421535-11.837074 2.9703746-2.06458.677652-4.2037016 1.3425039-6.3142111 2.2279692-2.1511686.7958646-4.2963136 1.7317773-6.4489882 2.7633143-4.4595941 2.0887167-8.7643453 4.4932177-12.8814115 7.1951583-4.2737506 2.8216571-8.3347487 5.9530322-12.1503004 9.3689154-1.9697085 1.6474473-3.7880747 3.6337206-5.6862532 5.4520868l-2.4982771 2.7362082-1.2408561 1.3643394-1.3176566 1.5638702c-3.2156468 3.8746346-6.1474566 7.9762998-8.7725816 12.2730306-4.7007067 7.7184135-8.3969269 16.0053048-10.999045 24.6597562l-.3922852 1.325186-.1927543.652052-.2371782.930642-.6369929 2.531407-.6023573 2.404159c-.1776954.926124-.3506222 1.825142-.5187803 2.697055l-.4148736 2.155686-.1965191 1.021748-.0481886.249979-.0120471.061741-.0685182.691205-.013553.12499-.0519533.49318-.381744 3.578002c-.3501202 3.282095-.5842866 5.488228-.677652 6.3624-3.7233212 1.011207-7.4210423 2.140627-11.0781043 3.421389 0 0-19.566825 4.573398-18.45698161 14.235963 1.04358408 9.085807 20.32203051 10.929021 20.32203051 10.929021 33.1836603 6.855691 67.6819164 3.129089 98.6360133-10.654949-1.657592-5.47388-2.050977-11.252622-1.150502-16.900641zm137.796016-10.498335c-.434222-5.102555-1.242042-10.166398-2.416959-15.150793-.504474-2.5186063-1.380151-5.0650719-2.068344-7.604761l-1.204715-3.5027079-.602357-1.7415657-.742406-1.905708c-1.864424-4.6766622-4.063975-9.2126529-6.581506-13.5726166-4.530068-7.8194986-10.039451-15.0289618-16.394661-21.4537094l-.978831-.9788306-.48038-.4811329-.704758-.6490401-1.918508-1.7694246-1.822131-1.680577-2.120298-1.7460833-1.694883-1.3952102-.801888-.6618401-.195766-.1618835-.048942-.0399062-.574498-.3907793-.103154-.07153-.407344-.282355-2.962092-2.0450031-3.969535-2.7437377c1.02451-4.0784611 1.8909-8.201346 2.599172-12.3686549.708272-4.1673088 5.462628-19.3379292-3.53132-23.04016796-8.455591-3.48162539-19.395153 12.49891466-19.395153 12.49891466-22.052 25.7270454-35.478121 57.7234703-38.38748 91.4830204 5.590976 1.198518 10.837168 3.649899 15.343547 7.169558l.124237-.024095c10.986043-10.848078 20.358158-23.2168563 27.829661-36.727985 7.168666 4.4975002 13.434413 10.2941528 18.475053 17.0918893l.699487.9389245.77177 1.1497496 1.544294 2.3062756c.835771 1.4795402 1.789001 2.852915 2.574325 4.45368 3.310126 6.165834 5.687444 12.788526 7.054357 19.651908.6608 3.196839 1.093081 6.436682 1.293562 9.694941.195833 2.942532.212931 5.894237.051201 8.838841-.133649 2.507297-.40335 5.005487-.807912 7.483537-.301179 2.237004-.798123 4.141206-1.12942 5.732183-.806406 3.143552-1.355304 4.934812-1.355304 4.934812s.781559-1.688859 2.017144-4.726246c.546639-1.542035 1.311633-3.394284 1.920767-5.606441.756178-2.466158 1.377526-4.971656 1.861284-7.505372.582244-3.018703.980534-6.069994 1.192668-9.137008.254041-3.451042.263099-6.915753.027106-10.368076-.234443-3.726714-.735175-7.431883-1.498364-11.087139-.805583-3.807406-1.890246-7.550371-3.2452-11.1985762-.615911-1.84999-1.526976-3.71278-2.294982-5.5718053l-1.222785-2.5020418-.609134-1.243115-.757464-1.3952101c-1.855386-3.3662531-3.951259-6.5942352-6.271293-9.6587999-4.107509-5.4032269-8.877354-10.2691975-14.197562-14.4836821 1.647949-3.6763875 3.157858-7.411756 4.529727-11.2061052l.620428.3335554 3.152588 1.7317773.43445.2394371.110683.0602357.027859.0150589c.475862.3215083-.617416-.4216501-.496192-.338826l.052706.0346356.211578.140801.866642.5767571 1.825143 1.2182678.960007.6384987.491674.3267789.247719.1648953.062495.0414121.031624.0210825c.079812.0609887-.583534-.4600504-.289132-.225884l.121225.0903536 1.988532 1.4833049 2.089427 1.5646232.268049.2010367.033882.0256002c-.423909-.3689438-.098636-.0873418-.185977-.1626365l.065506.0534593.131013.1069184.527062.4299325 1.071443.8734182c9.65763 7.9648883 17.616204 17.7893055 23.403089 28.8898106l.747676 1.4456576.776288 1.6715416 1.554835 3.3543774c.807911 2.1684864 1.793519 4.2360775 2.49903 6.5318125 3.096463 8.89836 4.859127 18.205948 5.23072 27.620342.113695 2.267876.150589 4.502621.053459 6.691437 0 2.196346-.201789 4.331703-.370449 6.419624-.356375 3.930155-.950788 7.835077-1.779966 11.693261-.698697 3.280091-1.575164 6.519779-2.625525 9.70473-.857607 2.885292-1.911732 5.288697-2.677479 7.316383-.809417 2.008862-1.591729 3.523037-2.05705 4.592974l-.747676 1.621095.907301-1.535259c.570733-1.012713 1.505893-2.450088 2.525383-4.377632.971301-1.946367 2.282181-4.263937 3.443978-7.081463 1.39655-3.124676 2.622395-6.322882 3.672121-9.580493 1.255276-3.873376 2.274627-7.819275 3.052445-11.815992.39605-2.13611.828242-4.334714 1.063914-6.610872.330544-2.269381.533086-4.601257.658076-6.985086.296989-4.917358.242639-9.849642-.162637-14.759261z" fill="#4da9e1"/></svg>