<svg height="296" preserveAspectRatio="xMidYMid" viewBox="0 0 256 296" width="256" xmlns="http://www.w3.org/2000/svg"><path d="m127.9998.3968-128 73.901v147.801l128 73.901 128-73.901v-60.098h-20.03v48.534l-107.97 62.336-107.969-62.336v-124.673l107.969-62.336 107.97 62.336v48.534h20.03v-60.098z" fill="#384453"/><path d="m206.0051 91.3414-78.347 45.268-57.868-33.787 57.865-33.691 41.403 23.88 19.137-11.357-60.587-34.944-87.917 51.19v9.81l87.914 51.333 68.667-39.675v68.169l-68.626 40.304-68.407-40.412v-47.305l-19.399-10.936v69.31l87.777 51.854 88.054-51.711v-101.5z" fill="#27d1b9"/></svg>