<svg height="256" preserveAspectRatio="xMidYMid" viewBox="0 0 256 256" width="256" xmlns="http://www.w3.org/2000/svg" xmlns:xlink="http://www.w3.org/1999/xlink"><filter id="a" height="200%" width="200%" x="-50%" y="-50%"><feOffset dx="4" dy="4" in="SourceAlpha" result="shadowOffsetInner1"/><feGaussianBlur in="shadowOffsetInner1" result="shadowBlurInner1" stdDeviation="1.5"/><feComposite in="shadowBlurInner1" in2="SourceAlpha" k2="-1" k3="1" operator="arithmetic" result="shadowInnerInner1"/><feColorMatrix in="shadowInnerInner1" result="shadowMatrixInner1" type="matrix" values="0 0 0 0 0   0 0 0 0 0   0 0 0 0 0  0 0 0 0.55 0"/><feMerge><feMergeNode in="SourceGraphic"/><feMergeNode in="shadowMatrixInner1"/></feMerge></filter><path d="m256 128c0 70.692-57.308 128-128 128s-128-57.308-128-128 57.308-128 128-128 128 57.308 128 128" fill="#8cafc4"/><path d="m243.2 128c0 63.623-51.577 115.2-115.2 115.2s-115.2-51.577-115.2-115.2 51.577-115.2 115.2-115.2 115.2 51.577 115.2 115.2" fill="#1777bb"/><path d="m178.286 128c0 27.772-22.514 50.286-50.286 50.286s-50.286-22.514-50.286-50.286 22.514-50.286 50.286-50.286 50.286 22.514 50.286 50.286" fill="#eb9b23" filter="url(#a)"/></svg>