<svg height="150" preserveAspectRatio="xMidYMid" viewBox="0 0 512 150" width="512" xmlns="http://www.w3.org/2000/svg"><path d="m75.2473043.3666087c-41.2313043 0-74.76799995 33.5387826-74.76799995 74.7638261 0 41.2278262 33.53669565 74.7645222 74.76799995 74.7645222 41.2187827 0 74.7582607-33.536696 74.7582607-74.7645222 0-41.2250435-33.539478-74.7638261-74.7582607-74.7638261z" fill="#53a3da"/><path d="m75.2473043 7.22713043c-12.0229565 0-22.219826 19.23130437-25.9026086 45.96104347-.1175653.8598261-.2316522 1.730087-.3325218 2.6059131-.5029565 4.2066087-.8438261 8.5808695-1.0142609 13.083826-.0813913 2.0605218-.1217391 4.1433044-.1217391 6.2525218 0 2.1071304.0403478 4.1940869.1217391 6.2504348.1704348 4.5022608.5113044 8.8793043 1.0142609 13.085913 5.6375652.7297391 11.6653913 1.2250435 17.9526957 1.4601739 2.717913.1015652 5.4761739.162087 8.2831304.162087 2.7986087 0 5.5652174-.0612174 8.2747826-.162087 6.2949565-.2351304 12.3186087-.7304348 17.9610434-1.4601739.620522-.0793043 1.231304-.1662609 1.849739-.256 23.481044-3.2973913 39.815652-10.5961739 39.815652-19.0803478-.000695-37.504-30.404174-67.90330437-67.9019127-67.90330437z" fill="#f1606d"/><path d="m103.33287 56.048c-.681044-.9933913-1.411479-1.9450435-2.189913-2.8591304-6.2302613-7.344-15.510957-12.0104348-25.894957-12.0104348-3.3662609 0-6.3638261 5.1526956-8.2831304 13.1540869-.7624348 3.1902609-1.3544348 6.8306087-1.7356522 10.7812174-.3005217 3.1659131-.4626087 6.5328696-.4626087 10.0166957s.162087 6.8514782.4626087 10.0146087c3.168.3005217 6.5300869.461913 10.0187826.461913 3.4845217 0 6.8466087-.1613913 10.0146087-.461913 6.9641739-.6608696 12.976-2 17.2347823-3.7641739 4.205913-1.7398261 6.694957-3.906087 6.694957-6.2504348-.000696-7.0733913-2.160696-13.6431305-5.859478-19.0824348z" fill="#fff"/><g fill="#231f20"><path d="m220.445913 38.2977391c8.754783 0 15.872 4.2699131 20.356174 9.0866087l-7.001044 7.8789565c-3.723826-3.611826-7.773913-5.9095652-13.245913-5.9095652-11.714087 0-20.141217 9.8504348-20.141217 25.9415652 0 16.3116522 7.769739 26.1620867 19.70087 26.1620867 6.349913 0 11.057391-2.6260867 15.107478-7.1151301l7.00313 7.7697391c-5.798261 6.67687-13.243826 10.4-22.329739 10.4-18.169739 0-32.508522-13.133913-32.508522-36.8869565.000696-23.426087 14.667827-37.3273044 33.058783-37.3273044z"/><path d="m270.581565 56.1398261c13.462261 0 25.615305 10.2907826 25.615305 28.2413913 0 17.8413916-12.15374 28.1314786-25.615305 28.1314786-13.354435 0-25.502608-10.290087-25.502608-28.1314786 0-17.9506087 12.148173-28.2413913 25.502608-28.2413913zm0 46.0827829c7.881739 0 12.695652-7.1151307 12.695652-17.8413916 0-10.8361739-4.813913-17.9506087-12.695652-17.9506087s-12.58713 7.1144348-12.58713 17.9506087c0 10.7262609 4.705391 17.8413916 12.58713 17.8413916z"/><path d="m300.362435 57.4532174h10.39513l.876522 9.5220869h.437565c3.830261-7.0052173 9.524174-10.8361739 15.214609-10.8361739 2.739478 0 4.490435.3283479 6.129391 1.0949566l-2.189913 10.9453913c-1.857391-.5453913-3.281391-.8744348-5.577739-.8744348-4.270609 0-9.418435 2.9530435-12.699826 11.056v32.8368695h-12.585739z"/><path d="m356.953739 56.1398261c14.558609 0 22.219826 10.5092174 22.219826 25.5074782 0 2.4055653-.218435 4.594087-.547478 5.9095653h-34.149565c1.092174 9.7412174 7.220174 15.2132174 15.868521 15.2132174 4.600348 0 8.53774-1.419826 12.480696-3.9387827l4.267826 7.8789567c-5.144348 3.393391-11.600695 5.802435-18.387478 5.802435-14.889739 0-26.490435-10.4-26.490435-28.1314786.000696-17.5151304 12.148174-28.2413913 24.738087-28.2413913zm11.273044 23.4260869c0-8.5405217-3.60974-13.6841739-10.944-13.6841739-6.347826 0-11.823305 4.7081739-12.918261 13.6841739z"/></g><path d="m398.331826 74.8570435c0-22.768 12.372174-37.1088696 29.773217-37.1088696 17.296 0 29.663305 14.3408696 29.663305 37.1088696 0 22.8793043-12.366609 37.6556525-29.663305 37.6556525-17.401043 0-29.773217-14.7763482-29.773217-37.6556525zm54.182957 0c0-19.9227826-9.849044-32.5085218-24.410435-32.5085218-14.667131 0-24.520348 12.5864348-24.520348 32.5085218 0 20.032 9.853217 33.0580865 24.520348 33.0580865 14.561391 0 24.410435-13.0260865 24.410435-33.0580865z" fill="#f1606d"/><path d="m467.296 98.173913c5.257043 5.909565 12.808348 9.741217 21.237565 9.741217 10.944 0 17.952696-5.912347 17.952696-14.4466083 0-8.9766956-5.90887-11.9332174-13.024696-15.1074782l-10.946782-4.9266087c-6.239305-2.738087-14.562783-7.2243478-14.562783-17.9533913 0-10.3979131 8.976696-17.7335652 20.910609-17.7335652 8.756869 0 15.762087 3.9408695 20.138434 8.6504347l-2.952347 3.3933913c-4.161392-4.4883478-9.961739-7.4434782-17.186087-7.4434782-9.524174 0-15.872 5.0358261-15.872 12.9147826 0 8.3213913 7.224348 11.4928696 12.477217 13.9026087l10.948174 4.8146087c7.990261 3.613913 15.104696 8.1022609 15.104696 19.1575652 0 11.0553047-9.085913 19.3746087-23.096348 19.3746087-10.509218 0-18.608696-4.487652-24.300522-10.835478z" fill="#53a4d9"/></svg>