<svg height="114" preserveAspectRatio="xMidYMid" viewBox="0 0 512 114" width="512" xmlns="http://www.w3.org/2000/svg"><path d="m42.3274312 27.8902687h31.9956873l-4.9551574 18.971174c-.7569592 2.6436945-2.1727185 4.7673334-4.2472777 6.3709167-2.0769189 1.6064148-4.4841815 2.4072627-7.2199003 2.4072627h-14.8654723c-3.3982941 0-6.3959284.9905595-8.9905432 2.9730944-2.5974463 1.982063-4.4129216 4.6715337-5.4511451 8.0693559-.6606876 2.5488386-.7314756 4.9556293-.2118919 7.2203722.5181679 2.2656867 1.4379395 4.2722895 2.7607305 6.0169769 1.3209034 1.7475188 3.0193426 3.1392102 5.0972053 4.1774336 2.0745592 1.0396392 4.3402459 1.5563914 6.7956444 1.5563914h9.0603874c1.6989111 0 3.0906024.6861713 4.1764898 2.0528509 1.0839997 1.3695111 1.3916913 2.9023065.9207154 4.6012176l-5.663037 20.953237h-9.9103148c-6.7956445 0-13.0495251-1.486547-18.7588102-4.45917-5.7121167-2.973566-10.4549102-6.91268-14.22838059-11.8220615-3.77630187-4.9060777-6.34920837-10.4983268-7.71588797-16.7758034-1.36951113-6.2760608-1.20386729-12.7182373.49504382-19.3260577l.56677562-2.1236389c1.22510368-4.5299577 3.13637868-8.7069194 5.73288117-12.5289975 2.59555865-3.8230219 5.66303705-7.0787963 9.20243515-9.7692108 3.5393982-2.6899426 7.4799281-4.7890417 11.8220618-6.2996568 4.3402459-1.5087275 8.8706756-2.2656867 13.5917608-2.2656867zm16.1383814 85.3704723 27.8904574-104.48303359c.7536558-2.64133486 2.1694151-4.76497375 4.2472778-6.37091667 2.0745592-1.60405524 4.48135-2.40679074 7.2203722-2.40679074h29.589369c6.795644 0 13.046693 1.48654722 18.75881 4.45964167 5.708813 2.97309444 10.452078 6.91551203 14.22838 11.82158983 3.773471 4.9084373 6.370917 10.5011583 7.786676 16.7767472 1.415759 6.2784204 1.225104 12.7196531-.566775 19.3251139l-.565832 2.1236389c-1.227935 4.5304296-3.114671 8.7069195-5.663037 12.5294695-2.548839 3.82255-5.592249 7.1033361-9.131647 9.8395268-3.539399 2.7385503-7.481816 4.8621892-11.822062 6.3709167-4.342134 1.511087-8.872563 2.2656867-13.590817 2.2656867h-25.625243l5.096734-19.1132219c.754127-2.5483667 2.169887-4.6233978 4.247277-6.2293408 2.075031-1.6035833 4.48135-2.4067907 7.219901-2.4067907h8.211875c3.397351 0 6.441705-1.0377515 9.131176-3.1146704 2.690414-2.0750311 4.460113-4.7649737 5.309097-8.0698277.659272-2.3581831.73006-4.6720056.212836-6.9372204-.519584-2.2652148-1.440299-4.269458-2.761203-6.0169769-1.322791-1.7451592-3.021702-3.1609185-5.096261-4.2472778-2.077391-1.0839996-4.342134-1.6281231-6.795645-1.6281231h-15.856503l-20.6705576 76.8761995c-.7564873 2.547895-2.1722466 4.625286-4.2472777 6.228869-2.0764469 1.605943-4.4369896 2.406791-7.0787963 2.406791zm176.5431504-55.7810094.424728-1.5573352c.188296-.7541278.07126-1.3912194-.35394-1.911275-.424728-.5172241-1.014627-.7786676-1.769699-.7786676h-46.012176c-1.981591 0-3.776302-.4242559-5.379885-1.2741833-1.605471-.8494556-2.926375-1.9579951-3.963182-3.3270343-1.040111-1.3666796-1.747991-2.9485546-2.123639-4.7427935-.378952-1.7918793-.332232-3.6323664.140632-5.5214611l2.831518-10.7597704h62.293408c3.869742 0 7.40914.8494555 10.618194 2.5488386 3.207639 1.6984392 5.876345 3.9169339 7.999984 6.6535966 2.123639 2.7385503 3.585174 5.8754009 4.38791 9.4147991.80132 3.5393981.73006 7.198192-.211892 10.9721342l-11.18497 41.6237942c-1.131664 4.2472781-3.421418 7.6932361-6.865961 10.3350421-3.44643 2.643695-7.386488 3.964126-11.822061 3.964126l-46.012176-.141576c-4.058982 0-7.786676-.872107-11.184027-2.619626-3.398294-1.744687-6.18262-4.056622-8.353451-6.936749-2.171775-2.877766-3.680502-6.1812045-4.53043-9.9103143-.848512-3.7276942-.753656-7.5261763.283152-11.397334l.566776-2.1236389c.659272-2.6408629 1.769699-5.0962614 3.326562-7.3614762 1.557807-2.2656868 3.373282-4.199142 5.451145-5.8050849 2.074559-1.6040553 4.389326-2.8536988 6.936749-3.7512901 2.548366-.8961756 5.239253-1.3454432 8.070771-1.3454432h38.649284l-2.831518 10.6186663c-.756016 2.5483667-2.171775 4.6252855-4.247278 6.2288688-2.076447 1.6064149-4.43699 2.4067908-7.078796 2.4067908h-17.272263c-1.605471 0-2.643223.8036793-3.114199 2.4072626-.283152 1.0396393-.094856 1.9598828.565832 2.7607306.659744.8027355 1.508727 1.2029235 2.548367 1.2029235h27.890457c1.037751 0 1.933927-.2831519 2.690414-.8489837.754128-.5667756 1.225104-1.3209034 1.41576-2.2656867l.283152-1.1326074zm82.397897-29.5894629c6.887197 0 13.187797 1.4865472 18.89897 4.4596416 5.710701 2.9730945 10.452079 6.9155121 14.229325 11.8215898 3.77347 4.9089093 6.346848 10.5256982 7.714944 16.8475352 1.367623 6.3246686 1.155731 12.791385-.636148 19.3963738l-7.078796 26.6162739c-.473808 1.888623-1.487491 3.397351-3.043411 4.53043-1.557807 1.132607-3.281258 1.698439-5.168937 1.698439h-15.289728c-1.793295 0-3.209054-.682868-4.247278-2.052379-1.039639-1.367152-1.323263-2.902778-.849455-4.601218l8.494555-32.1377348c.659744-2.3586549.73006-4.6720055.211892-6.9376923-.520055-2.2652148-1.439827-4.269458-2.759787-6.0169768-1.323263-1.7451593-3.02123-3.1609185-5.097205-4.2472778-2.077391-1.0839997-4.343077-1.6276512-6.7947-1.6276512h-15.857448l-13.733337 51.3920609c-.471919 1.888623-1.486075 3.397351-3.04341 4.53043-1.557807 1.132607-3.327506 1.698439-5.309097 1.698439h-15.148625c-1.698911 0-3.09249-.682868-4.176489-2.052379-1.083528-1.367152-1.391692-2.902778-.920716-4.601218l20.953709-78.7166863zm83.386002 26.9704026c-1.131663.8980633-1.935815 2.052851-2.406791 3.4686102l-6.370916 24.0679074c-.377536 1.323263-.140632 2.5483667.707879 3.6809741.849928 1.1330793 1.983007 1.6989111 3.398767 1.6989111h58.611961l-4.53043 16.8480069c-.756487 2.547895-2.172246 4.625286-4.247277 6.228869-2.077391 1.605943-4.437934 2.406791-7.078797 2.406791h-53.373652c-3.87163 0-7.411028-.824916-10.618194-2.477579-3.21047-1.649831-5.876345-3.868326-7.999984-6.654068-2.123639-2.782439-3.588006-5.9457174-4.38791-9.4851156-.80132-3.5393981-.684284-7.1500561.35394-10.8310302l8.635188-32.1377352c.942895-3.4903185 2.40679-6.7003167 4.389325-9.627163 1.981591-2.9244867 4.318538-5.4261333 7.008009-7.5035241 2.68947-2.0750311 5.708813-3.7026823 9.060387-4.8843694 3.349686-1.1788555 6.817825-1.7696991 10.406302-1.7696991h37.800301c3.869742 0 7.40914.8494556 10.618194 2.5483667 3.207639 1.6989111 5.876345 3.9178778 7.999984 6.6540685 2.123639 2.7385503 3.561106 5.8999408 4.317122 9.4855871.755071 3.5880058.659743 7.2203722-.283152 10.9013463l-2.548367 9.6271629c-1.131663 4.2477497-3.421418 7.6691679-6.86596 10.2647266-3.44643 2.5965025-7.339768 3.8933379-11.680014 3.8933379h-42.755458l2.831519-10.4770904c.6588-2.5483667 2.027367-4.6233978 4.105229-6.2293407 2.07456-1.6040553 4.48135-2.4067908 7.220845-2.4067908h17.271791c1.604055 0 2.640863-.8008478 3.11467-2.4067907l.565832-2.1236389c.284096-1.0377516.092968-1.982063-.565832-2.8315185-.662103-.8494556-1.510615-1.2741834-2.548839-1.2741834h-26.332178c-1.415759 0-2.690886.4492676-3.823494 1.3449713zm53.797012 58.4000697 28.456289-106.88982433c.470976-1.88673517 1.486547-3.42000245 3.044354-4.6012176 1.556863-1.17885554 3.326563-1.76969907 5.309097-1.76969907h15.148624c1.791408 0 3.231235.6856994 4.318066 2.05285093 1.084 1.36951112 1.390748 2.90230648.919772 4.60121759l-21.236389 78.85826268c-1.039639 4.1543096-2.714483 7.92778-5.025945 11.3260741-2.313823 3.3973507-5.050014 6.3001287-8.211876 8.7064477-3.163278 2.406791-6.677665 4.296357-10.546935 5.663037-3.871157 1.369983-7.92778 2.052851-12.175057 2.052851z" fill="#ff6c2c"/></svg>