<svg height="269" preserveAspectRatio="xMidYMid" viewBox="0 0 512 269" width="512" xmlns="http://www.w3.org/2000/svg"><g fill="#cb5546"><path d="m466.843327 114.369745h40.136217l4.674752-24.5432673h-40.136217l6.838926-35.9002398h-.133612l-30.438665 23.8702615-2.28789 12.0299783h-31.527352l9.21589-48.3739401c2.170774-18.2552819 29.965253-12.7277271 34.103908-11.691826l4.443818-23.30942333c-49.982226-19.21365527-64.573914 35.00124933-64.573914 35.00124933l-9.210943 48.3739401h-.161653l-31.301367 24.5432673h26.788269l-29.432456 154.502663h26.026189l29.427508-154.502663h31.527352l-11.523574 60.476498c-7.325537 44.032392 36.777786 39.210834 50.851524 36.380251l4.39928-23.061995c-33.668433 7.604306-29.231214-13.318256-29.231214-13.318256z"/><path d="m312.908101 177.787344c-27.081886 27.787881-44.421681 9.588683-44.421681 9.588683-11.739662-11.429552 1.237143-23.167564 1.237143-23.167564 17.912181-16.369877 45.32397 1.614884 45.32397 1.614884zm5.991071-33.515028s-37.285841-19.136128-63.386258 2.174072c0 0-15.286139 10.194058-15.286139 30.578875 0 20.389766 18.685808 31.349204 18.685808 31.349204s28.102939 14.829221 50.114188-8.87114l-2.42975 11.030367h24.609249l15.469236-73.379074c11.6077-72.4042057-74.654156-46.7409117-74.654156-46.7409117l-4.704443 26.0311377c63.592448-27.7169512 52.880439 20.571213 52.880439 20.571213z"/><path d="m249.977112 89.8990568c-20.06811.2094896-38.306897 11.4097572-38.306897 11.4097572l2.32583-10.9858296h-24.087999l-21.978257 120.4350446h24.614196l14.9018-79.233235c11.013871-22.377442 38.242564-15.426348 38.242564-15.426348z"/><path d="m156.056515 38.287101c1.243741.9418782 2.42645 1.9381907 3.581116 2.9493489l18.684159-14.6560205.582282-.7571316c-2.861925-2.8899659-5.934988-5.6248767-9.257129-8.1354522-42.874427-32.3603614-107.6594814-18.81447048-144.6929442 30.2572183-37.0351124 49.0700393-32.3009786 115.0724431 10.5734486 147.4377521 35.0045483 26.420425 84.6090336 22.230634 121.7975506-6.903258l-.039588-.074229-17.785168-13.948374c-27.555298 17.715888-61.7416817 18.990969-86.4713451.328255-32.9343958-24.855028-36.5682971-75.5630437-8.1206066-113.2596151 28.4509895-37.691623 78.2154787-48.0968202 111.1482247-23.2384939"/></g></svg>