<svg height="295" preserveAspectRatio="xMidYMid" viewBox="0 0 256 295" width="256" xmlns="http://www.w3.org/2000/svg"><path d="m123.44816 294.206044c-28.4187149-12.998348-53.5657739-31.59474-80.5206112-47.099702-9.0168224-5.186098-17.7945695-10.789659-26.6513953-16.255292-10.74000475-6.627907-16.30678461-16.051157-16.26080856-28.909738.1360891-36.766126.17470898-73.530413-.01471234-110.2946998-.07356168-14.3445269 6.26929387-23.9571989 18.5798404-31.2103802 29.531335-17.4010146 58.7941698-35.2765019 87.825285-53.4995682 14.622223-9.17865816 28.278948-9.27612738 42.880941-.12689389 26.971388 16.90079519 54.077027 33.60849089 81.526566 49.71849799 17.255731 10.1257648 22.956761 26.2504842 19.098451 45.4298521-1.399511 6.947901-5.66241 12.161584-11.576769 15.902196-10.602077 6.706985-21.305301 13.255814-31.95887 19.881882-3.096947 1.927316-6.168147 3.898768-10.041169 6.350211 2.221562 1.914443 3.808656 3.578776 5.671605 4.83852 12.933982 8.750161 25.95072 17.375268 38.886541 26.121751 8.544189 5.77827 13.995109 13.507763 14.936699 24.080415 1.278134 14.355561-4.671167 24.806836-16.810683 32.17036-20.935653 12.696745-41.810617 25.494638-62.711329 38.25391-3.135566 1.912604-6.206766 3.939228-9.412216 5.724938-11.392865 6.350212-22.831705 12.621345-34.252156 18.921902-3.063844.001839-6.129526.001839-9.195209.001839zm-108.6561133-148.456658c0 17.761467.2758563 35.526612-.1121816 53.282561-.2041336 9.349689 3.5953269 15.499446 11.451714 20.234978 30.1308626 18.166056 60.162417 36.493948 90.0762729 55.0131 8.281205 5.127249 15.755072 4.937828 23.95536-.141606 29.652711-18.359155 59.480132-36.438777 89.228474-54.643452 2.083635-1.274456 4.248187-2.508454 6.06516-4.110259 6.48814-5.717581 7.71662-14.355561 3.260622-21.616099-4.678523-7.620989-13.320181-10.401621-21.513113-6.581931-3.863827 1.802261-7.472027 4.174626-11.126203 6.403544-23.24549 14.180852-46.568219 28.23665-69.633483 42.704392-5.978725 3.749807-10.835635 3.799461-16.792292.069884-20.7425534-12.987314-41.6451038-25.728196-62.6727089-38.252072-5.965852-3.553029-8.4779832-8.020061-8.3161476-14.949571.3439009-14.690267.0570103-29.395246.1471234-44.094708.0165514-2.716265.1802261-5.561263 1.0041169-8.113853 1.4289355-4.430252 5.0371358-6.013667 9.4324459-4.421057 1.9861653.720905 3.8270462 1.90157 5.6476977 3.010512 16.7224081 10.186453 33.3988401 20.44279 50.1561896 30.572232 2.846837 1.721344 5.89413 3.315793 9.059121 4.266578 6.478944 1.951223 15.004743-1.480429 18.458463-6.975486 4.139684-6.587448 3.490502-14.600154-2.030302-20.277276-2.094669-2.153518-4.752084-3.832564-7.341455-5.421496-22.162294-13.603393-44.3668861-27.136902-66.5622829-40.6906411-8.6159114-5.2614989-17.1196412-10.7234534-25.888193-15.7164522-7.8214452-4.4541595-15.8617364-2.9112033-21.5829958 3.5732584-3.422457 3.8822175-4.4559986 8.4743052-4.4192177 13.5923588.1268939 17.7614671.0478151 35.5210941.0478151 53.2825611z" fill="#3a485d"/></svg>