<svg height="256" preserveAspectRatio="xMidYMid" viewBox="0 0 256 256" width="256" xmlns="http://www.w3.org/2000/svg"><path d="m80.8402335 194.493967c-18.7022854-30.992473-28.9984423-61.284934-33.7905157-87.958341-1.0970165-6.092093-1.904029-11.9991837-2.4590372-17.6792701-1.155018-11.8461809-1.2180187-22.7213471-.4930079-32.3064929v-.0090003c-.6510099.7100109-1.2920196 1.4260218-1.9290291 2.1400326-.1040016.1190021-.2150036.2350034-.3190051.3540055-.6550098.7350111-1.3030198 1.4760228-1.9470297 2.2180343-.1150018.1320018-.2300035.2650034-.3480051.3970057-2.1640331 2.5030383-4.2780654 5.0400767-6.3260967 7.6191162-13.8662116 17.4422661-25.01438164 36.603559-33.228507 56.956869.68901051 1.703026 1.40702147 3.393052 2.12903249 5.076078 7.97312161 18.471282 18.38828061 35.898547 31.09847451 51.881791 2.6700408 3.363051 5.4440831 6.662102 8.3141269 9.895152l17.743271 1.33402c4.8230734.361005 12.1941859.622009 21.5553286.081" fill="#276691"/><path d="m106.78763 208.603183c-6.084093 1.100017-11.9881833 1.918029-17.6662701 2.479038-11.8111801 1.168018-22.6543457 1.248019-32.2314915.547008-.115002-.008-.2300036-.012-.3490057-.023 4.1340634 3.789058 8.3781279 7.410113 12.7291946 10.871166 17.440266 13.863211 36.6025577 25.008381 56.9568687 33.223507 1.786027-.721011 3.563055-1.471023 5.326082-2.236034 18.37728-7.963122 35.721545-18.33828 51.631787-30.986473 3.414052-2.717042 6.766103-5.531085 10.043154-8.447129l1.33802-17.764271c.361005-4.811073.62101-12.162185.080001-21.504328-30.945472 18.709285-61.203934 29.024443-87.85834 33.840516" fill="#f78921"/><path d="m174.762667 56.8386296c18.695285 30.9394721 28.998442 61.1829334 33.812516 87.8263394 1.098016 6.094093 1.912029 11.998184 2.471038 17.678271 1.166017 11.785179 1.244018 22.609344.549008 32.16849-.012001.123002-.020001.244004-.027001.367006 3.789058-4.129063 7.416113-8.379128 10.867166-12.729195 13.869212-17.441266 25.014382-36.600558 33.227507-56.956869-.67001-1.667025-1.369021-3.32005-2.080032-4.970076-7.980121-18.508282-18.414281-35.9745485-31.146474-51.9877926-2.689042-3.3840518-5.480085-6.704102-8.363129-9.9551523l-17.918273-1.3490202c-4.797073-.3600055-12.104185-.6160091-21.392326-.0920013" fill="#cc2128"/><path d="m181.997635 33.223507c-17.439266-13.8632116-36.605559-25.00838163-56.960869-33.223507-1.652025.66701018-3.29205 1.36202078-4.929075 2.06503151-18.525283 7.98312189-36.0015496 18.41928109-52.0317945 31.15847549-3.3260507 2.6460403-6.5850999 5.3880822-9.784149 8.2271254l-1.3630209 18.0622761c-.3550051 4.7750727-.6150093 12.0531838-.0920012 21.2973244 30.9284718-18.6632845 61.1639326-28.9464416 87.7923396-33.7415146 6.097093-1.0960169 11.999183-1.9110294 17.68127-2.4680379 11.80718-1.1580174 22.650345-1.2280185 32.220491-.5170077.066001.0040002.129002.0060001.191003.0130001-4.132063-3.7900578-8.377128-7.413113-12.724194-10.8731658" fill="#146e39"/></svg>