<svg height="295" preserveAspectRatio="xMidYMid" viewBox="0 0 256 295" width="256" xmlns="http://www.w3.org/2000/svg"><path d="m129.349874 0c-71.4922365 0-129.349874 58.0177785-129.349874 129.707892 0 63.118735 45.1207794 115.564052 104.664783 127.23255v37.130122c77.413185-11.70343 145.957881-73.324517 151.072751-154.213772 3.078724-48.6885565-21.130081-98.3936878-61.959576-122.5294019-2.337657-1.3818686-4.712712-2.7537076-7.158677-3.9605463-2.492333-1.2297164-5.051641-2.4282236-7.652376-3.46547801-.82555-.3462959-1.634462-.6604417-2.468508-.99013657-2.271481-.84083587-4.563488-1.78768131-6.911827-2.47534145-12.657146-4.18333418-26.187446-6.43588777-40.236696-6.43588777z" fill="#00a818"/><path d="m156.146426 47.9270677c-4.433803-.4557704-9.102596 1.091366-12.367656 4.9607544-2.374589 3.1748826-3.858707 6.2505505-5.441768 9.4254332-4.749182 11.1120901-3.16612 23.0179006 3.95765 31.7488282 11.081418-2.3811622 20.480837-9.4750409 25.230018-20.5871307 1.583059-3.1748827 2.47353-7.2427015 2.47353-10.4175842.494708-8.4332826-6.462099-14.3706857-13.851774-15.1303009zm-57.6332767.7441131c-7.2273503.6898553-14.0991263 6.4489807-14.0991263 14.3861878 0 3.1748827.8904684 7.2427015 2.47353 10.4175842 4.7491815 11.1120898 14.890657 18.2059685 25.972078 20.5871307 6.33224-8.7309276 7.964769-20.6367381 3.215591-31.7488282-1.583062-3.1748827-3.067179-6.300158-5.441768-8.6813202-3.265064-3.8693883-7.783892-5.374667-12.1203047-4.9607543zm-38.8344396 38.1978089c-12.4816715.6423582-18.056777 16.3704893-7.6679457 24.5557343 3.1661199 2.381162 6.2332988 4.117426 9.3994187 5.704868 11.0814178 4.762324 23.8943087 3.125275 33.3926717-3.224491-2.3745925-10.318369-10.4383018-19.7934098-21.519723-24.5557343-3.9576507-1.5874411-7.173241-2.480377-11.1308917-2.480377-.8904684-.0992151-1.6414197-.0428609-2.47353 0zm121.9450873 48.1193173c-7.250542-.139536-14.593835 1.984302-20.530307 5.952906 2.374589 10.318369 10.438301 19.79341 21.519719 24.555734 3.957651 1.587441 7.173241 2.480377 11.130892 2.480377 14.247538.793721 21.222897-16.866565 10.141476-24.803772-3.16612-2.381162-6.233299-3.869389-9.399419-5.45683-4.155529-1.785871-8.512042-2.644701-12.862361-2.728415zm-108.0933133.744113c-4.3503229.083738-8.7068288.942544-12.8623613 2.728415-3.9576507 1.587442-7.0248296 3.323706-9.3994187 5.704868-10.2898904 8.730928-3.3640017 25.349455 10.883536 24.555734 3.9576507 0 7.9647718-.892936 11.1308917-2.480377 11.0814212-4.762324 18.9472487-14.237365 20.5303103-24.555734-5.936476-3.968604-13.0324165-6.092426-20.282958-5.952906zm40.0712043 24.307697c-11.081418 2.381162-20.4808362 9.475041-25.2300177 20.587131-1.5830582 3.174882-2.47353 6.994663-2.47353 10.169546-.7915308 13.493252 17.5620727 20.735953 25.4773707 10.417584 2.374592-3.174883 3.858709-6.25055 5.441768-9.425433 4.749181-10.318369 3.116649-22.22418-3.215591-31.748828zm29.435021.744113c-6.332239 8.730928-7.964768 20.636738-3.21559 31.748828 1.583062 3.174883 3.067179 6.300158 5.441771 8.68132 8.706829 9.524649 27.010958 2.480377 26.219431-9.425433 0-3.174883-.890472-7.242701-2.473533-10.417584-4.749179-11.11209-14.890658-18.205969-25.972079-20.587131z" fill="#fff"/></svg>