<svg height="172" preserveAspectRatio="xMidYMid" viewBox="0 0 256 172" width="256" xmlns="http://www.w3.org/2000/svg"><path d="m48.832 73.919 28.194-19.498 50.954 35.323 128.02-88.692-256-.054 48.832 33.868zm79.146 3.325-45.94-31.872 145.509-33.566zm-94.986-65.911 191.827-4.03-164.647 22.943z" fill="#235a5a"/><path d="m255.998 13.362-128.088 88.951-.038-.026-.003.001-50.909-35.408-38.49 26.766v-53.367l-38.182-26.601v125.61c.485 10.044 4.992 18.766 11.376 25.011 3.284 3.207 7.713 6.426 16.027 7.652l5.728-3.981-5.723 3.981c1.198.155 2.421.25 3.656.25h98.286l.003-.002h95.253c17.106 0 31.106-15.647 31.106-34.776v-53.094l-.002-.003z" fill="#235a5a"/><path d="m38.47 40.279-38.182-26.601v106.519l38.182-26.551z" fill="#82bfbe"/><path d="m224.894 172.198c17.106 0 31.106-15.646 31.106-34.775v-53.094l-126.362 87.869z" fill="#235a5a"/><path d="m256 13.36-128.09 88.954-.038-.027-100.176 69.664c1.198.155 2.421.25 3.656.25h98.286l126.36-87.874v-70.967z" fill="#2c7a79"/><path d="m76.96 66.88-76.672 53.317v19.091c.485 10.044 4.992 18.766 11.376 25.011 3.284 3.207 7.713 6.426 16.027 7.652l100.214-69.637z" fill="#389798"/></svg>