<svg height="253" preserveAspectRatio="xMidYMid" viewBox="0 0 256 253" width="256" xmlns="http://www.w3.org/2000/svg"><path d="m256 128c0-70.7745953-57.384807-128-128-128s-128 57.2254047-128 128c0 23.113325 6.05728518 44.79203 16.7372354 63.442092 7.3325031-18.012453 18.0124533-39.372354 25.0261519-44.632627 0 0 16.2590286-14.665007 32.996264-9.245331 0 0 72.5280197 25.982566 91.9750937 49.574098 0 0 10.201743 14.824408 5.897883 29.808219-1.753425 6.376089-8.129515 21.678705-15.302616 35.706102 56.587796-13.230386 98.669988-64.079701 98.669988-124.652553zm-76.353674 30.764633c-1.115815.797011-2.231631 1.43462-3.347447 1.912827-4.144458 1.43462-8.926525.159402-11.955168-3.50685-11.317559-13.867995-54.993773-36.184309-70.9339974-36.184309-6.0572852 0-10.8393525-4.782067-10.9987547-10.839352 0-6.057285 4.7820673-10.8393525 10.8393524-10.9987547 24.0697387-.1594023 73.8032377 26.6201747 87.9900377 44.1544207 3.825653 4.94147 3.188045 11.795766-1.594023 15.462018zm30.764633-12.75218c-29.489415-36.343711-102.336239-68.3835613-138.9987548-68.2241591-5.4196762 0-9.8829389-4.3038605-9.8829389-9.7235367 0-5.4196763 4.3038605-9.882939 9.7235367-9.882939 41.92279-.1594023 120.18929 33.4744707 154.30137 75.3972598 3.347447 4.144459 2.709838 10.361146-1.43462 13.708593-.956414.797011-1.912827 1.275218-3.028643 1.753425-3.666251 1.43462-7.970112.318804-10.67995-3.028643z" fill="#010101"/></svg>