<svg height="296" preserveAspectRatio="xMidYMid" viewBox="0 0 256 296" width="256" xmlns="http://www.w3.org/2000/svg"><path d="m0 74.0550788 128-73.90060607 128 73.90060607v147.8012122l-128 73.901576-128-73.901576z" fill="#fff"/><g transform="translate(12.606061 14.545455)"><path d="m115.630255.49658182-115.0244853 66.61527268.68169697 1.1820607 56.91345453 33.3139398 56.7437578-98.91781864z" fill="#95ca71"/><path d="m115.550352.60441212.672969 1.40412121.511031 130.01599967-1.184 1.588364-1.798788-.225939-56.2317579-32.120243z" fill="#7dc262"/><path d="m115.478982 48.271903.131879 85.232485 2.145939-.372364 72.334545-41.4933331z" fill="#67bc59"/><path d="m115.478982 49.2683636.151273-48.77187875 115.034181 66.55806065-.954181 1.324606-40.215273 23.7711515z" fill="#51b755"/><path d="m172.881261 164.059539 55.720727 32.972606 2.062545 2.996364-115.03806 66.528 2.045091-6.646303z" fill="#51b755"/><path d="m174.159224 164.826376-54.443636-31.183515-4.104727-.137697-2.029576 4.738909.512 124.22206 1.517576 4.090182z" fill="#67bc59"/><path d="m115.61057 133.504776-4.840728 1.160727-69.7793935 40.896 72.0795155 42.430061 2.540606-.339394z" fill="#95ca71"/><path d="m115.626376 217.651685v48.904727l-115.0206063-66.536727 2.30012121-2.731637 38.34084849-22.49309z" fill="#7dc262"/><path d="m230.664824 67.0542545v132.9735755l-115.054545-66.523151z" fill="#39b353"/><path d="m115.61057 133.504776-115.00509121-66.3932124v132.9086064z" fill="#b1d58b"/></g></svg>