<svg height="228" preserveAspectRatio="xMidYMid" viewBox="0 0 256 228" width="256" xmlns="http://www.w3.org/2000/svg" xmlns:xlink="http://www.w3.org/1999/xlink"><radialGradient id="a" cx="50%" cy="68.088951%" r="61.683404%"><stop offset="0" stop-color="#bf7715"/><stop offset="1" stop-color="#dc9636"/></radialGradient><linearGradient id="b" x1="50%" x2="50%" y1="0%" y2="100%"><stop offset="0" stop-color="#f2b968"/><stop offset="1" stop-color="#bf7a1d"/></linearGradient><radialGradient id="c" cx="50%" cy="11.981792%" r="47.209363%"><stop offset="0" stop-color="#e85c66"/><stop offset="1" stop-color="#c92935"/></radialGradient><radialGradient id="d" cx="50%" cy="11.981792%" r="47.209363%"><stop offset="0" stop-color="#75ed9f"/><stop offset="1" stop-color="#39bd67"/></radialGradient><radialGradient id="e" cx="50%" cy="11.981792%" r="47.209363%"><stop offset="0" stop-color="#f7de4a"/><stop offset="1" stop-color="#facf40"/></radialGradient><linearGradient id="f"><stop offset="0" stop-color="#f7db48"/><stop offset="1" stop-color="#face40"/></linearGradient><linearGradient id="g" x1="54.576862%" x2="52.493526%" xlink:href="#f" y1="100%" y2="39.432454%"/><linearGradient id="h" x1="45.546001%" x2="50%" xlink:href="#f" y1="100%" y2="44.506081%"/><linearGradient id="i" x1="50%" x2="50%" y1="0%" y2="100%"><stop offset="0" stop-color="#eda23b"/><stop offset="1" stop-color="#d89334"/></linearGradient><linearGradient id="j" x1="50%" x2="50%" y1="0%" y2="100%"><stop offset="0" stop-color="#f6cf9a"/><stop offset="1" stop-color="#e39b38"/></linearGradient><g transform="translate(.468061 126.044734)"><path d="m.04619321 28.9473852v43.5522518s-.29685585 28.99595 127.27588479 28.995956c127.572739.000004 127.572739-28.995956 127.572739-28.995956v-43.5522518s.000004 36.2741036-127.572739 36.2741036c-127.57274383 0-127.27588479-36.2741036-127.27588479-36.2741036z" fill="url(#a)"/><path d="m127.146831 65.8433039c78.501724 0 127.747986-17.1823428 127.747986-34.4207554s-58.240347-31.02003385-127.747986-31.02003385c-69.5076398 0-127.10063783 13.78162125-127.10063783 31.02003385s48.59891233 34.4207554 127.10063783 34.4207554z" fill="url(#b)"/><path d="m127.146831 65.4047373c37.296108 0 69.76665-3.8994884 93.189386-10.7284432 21.818601-6.3612656 34.120033-14.8556375 34.120033-23.2537456 0-16.7094968-57.587708-30.5814673-127.309419-30.5814673-69.59881 0-126.66207128 13.8419959-126.66207128 30.5814673 0 8.411456 12.16702988 16.9011933 33.79719248 23.2539893 23.2607666 6.8317058 55.5806011 10.7281995 92.8648788 10.7281995zm0 .4385666c-78.5017255 0-127.10063783-17.1823428-127.10063783-34.4207554s57.59299803-31.02003385 127.10063783-31.02003385c69.507639 0 127.747986 13.78162125 127.747986 31.02003385s-49.246262 34.4207554-127.747986 34.4207554z" fill="#bb791d"/></g><g transform="translate(.468061 120.428434)"><path d="m.04619314 31.7833145v7.438452s0 31.6834213 127.42431186 31.6834213c127.424312 0 127.424312-31.6834213 127.424312-31.6834213v-7.438452s0 33.6601117-127.424312 33.6601117c-127.42431186 0-127.42431186-33.6601117-127.42431186-33.6601117z" fill="#c92935"/><path d="m127.146824 65.797756c97.037981.0000048 127.747986-17.2169099 127.747986-34.4553224s-58.240346-31.02003389-127.747986-31.02003389c-69.5076391 0-127.10063716 13.78162139-127.10063716 31.02003389s30.06265706 34.4553176 127.10063716 34.4553224z" fill="url(#c)"/><path d="m127.146824 65.3591895c45.562955.0000022 78.805817-3.788843 100.127268-10.7416456 18.331322-5.9777381 27.182152-14.1095844 27.182152-23.2751103 0-16.7094969-57.587708-30.58146733-127.30942-30.58146733-69.5988094 0-126.66207061 13.84199593-126.66207061 30.58146733 0 9.1933977 8.71057127 17.3084278 26.85948811 23.2754378 21.1545009 6.9551875 54.2515177 10.7413158 99.8025825 10.7413181zm0 .4385665c-97.0379801-.0000048-127.10063716-17.2169099-127.10063716-34.4553224s57.59299806-31.02003389 127.10063716-31.02003389c69.50764 0 127.747986 13.78162139 127.747986 31.02003389s-30.710005 34.4553272-127.747986 34.4553224z" fill="#ad222c"/></g><g transform="translate(.468061 84.261977)"><path d="m.04619321 28.8646899v43.5522519s-.29685585 28.9959502 127.27588479 28.9959552c127.572739.000005 127.572739-28.9959552 127.572739-28.9959552v-43.5522519s.000004 36.2741037-127.572739 36.2741037c-127.57274383 0-127.27588479-36.2741037-127.27588479-36.2741037z" fill="#340405"/><path d="m127.146824 65.7731187c78.501725 0 127.747986-17.1823428 127.747986-34.4207553 0-17.2384127-58.240346-31.02003396-127.747986-31.02003396-69.5076391 0-127.10063716 13.78162126-127.10063716 31.02003396 0 17.2384125 48.59891236 34.4207553 127.10063716 34.4207553z" fill="#340405"/><path d="m127.146824 65.3345521c37.296109 0 69.766651-3.8994884 93.189386-10.7284432 21.818601-6.3612656 34.120034-14.8556375 34.120034-23.2537455 0-16.7094969-57.587708-30.5814674-127.30942-30.5814674-69.5988094 0-126.66207061 13.8419959-126.66207061 30.5814674 0 8.4114559 12.16702981 16.9011931 33.79719251 23.2539892 23.2607666 6.8317058 55.5806013 10.7281995 92.8648781 10.7281995zm0 .4385666c-78.5017248 0-127.10063716-17.1823428-127.10063716-34.4207553 0-17.2384127 57.59299806-31.02003396 127.10063716-31.02003396 69.50764 0 127.747986 13.78162126 127.747986 31.02003396 0 17.2384125-49.246261 34.4207553-127.747986 34.4207553z" fill="#150101"/></g><g transform="translate(.468061 80.465956)"><path d="m.04619314 31.1489894v7.4384521s0 32.3412857 127.42431186 32.3412857c127.424312 0 127.424312-32.3412857 127.424312-32.3412857v-7.4384521s0 34.3588603-127.424312 34.3588603c-127.42431186 0-127.42431186-34.3588603-127.42431186-34.3588603z" fill="#39bd67"/><path d="m127.146824 65.797756c97.037981.0000048 127.747986-17.2169099 127.747986-34.4553224s-58.240346-31.02003389-127.747986-31.02003389c-69.5076391 0-127.10063716 13.78162139-127.10063716 31.02003389s30.06265706 34.4553176 127.10063716 34.4553224z" fill="url(#d)"/><path d="m127.146824 65.3591895c45.562955.0000022 78.805817-3.788843 100.127268-10.7416456 18.331322-5.9777381 27.182152-14.1095844 27.182152-23.2751103 0-16.7094969-57.587708-30.58146733-127.30942-30.58146733-69.5988094 0-126.66207061 13.84199593-126.66207061 30.58146733 0 9.1933977 8.71057127 17.3084278 26.85948811 23.2754378 21.1545009 6.9551875 54.2515177 10.7413158 99.8025825 10.7413181zm0 .4385665c-97.0379801-.0000048-127.10063716-17.2169099-127.10063716-34.4553224s57.59299806-31.02003389 127.10063716-31.02003389c69.50764 0 127.747986 13.78162139 127.747986 31.02003389s-30.710005 34.4553272-127.747986 34.4553224z" fill="#33a65b"/></g><g transform="translate(.468061 44.304683)"><path d="m.04619321 28.8595058v43.5522519s-.29685585 28.9959503 127.27588479 28.9959553c127.572739.000005 127.572739-28.9959553 127.572739-28.9959553v-43.5522519s.000004 36.2741036-127.572739 36.2741036c-127.57274383 0-127.27588479-36.2741036-127.27588479-36.2741036z" fill="#340405"/><path d="m127.146824 65.7679345c78.501725 0 127.747986-17.1823428 127.747986-34.4207554 0-17.2384125-58.240346-31.02003381-127.747986-31.02003381-69.5076391 0-127.10063716 13.78162131-127.10063716 31.02003381 0 17.2384126 48.59891236 34.4207554 127.10063716 34.4207554z" fill="#340405"/><path d="m127.146824 65.329368c37.296109 0 69.766651-3.8994885 93.189386-10.7284433 21.818601-6.3612655 34.120034-14.8556374 34.120034-23.2537456 0-16.7094968-57.587708-30.58146726-127.30942-30.58146726-69.5988094 0-126.66207061 13.84199596-126.66207061 30.58146726 0 8.4114561 12.16702981 16.9011933 33.79719251 23.2539894 23.2607666 6.8317057 55.5806013 10.7281995 92.8648781 10.7281995zm0 .4385665c-78.5017248 0-127.10063716-17.1823428-127.10063716-34.4207554 0-17.2384125 57.59299806-31.02003381 127.10063716-31.02003381 69.50764 0 127.747986 13.78162131 127.747986 31.02003381 0 17.2384126-49.246261 34.4207554-127.747986 34.4207554z" fill="#150101"/></g><g transform="translate(.468061 43.040779)"><path d="m127.146824 65.7631889c78.501725 0 127.747986-17.1823428 127.747986-34.4207553s-58.240346-31.02003389-127.747986-31.02003389c-69.5076391 0-127.10063716 13.78162139-127.10063716 31.02003389s48.59891236 34.4207553 127.10063716 34.4207553z" fill="url(#e)"/><path d="m213.831387 52.8685688c15.469337-3.8511305 24.781987-6.5992275 33.159141-9.4945747-13.762822 7.6645545-13.706042 30.1987695-18.552021 30.1987695-4.84598 0-16.495933-12.8387895-51.820047-10.3290325 0 0 21.74359-6.5240319 37.212927-10.3751623z" fill="url(#g)"/><path d="m29.1627558 50.7630924c8.99553 3.2108593 18.6096906 7.4469415 27.1815888 9.3678615-25.0113182-1.92092-34.0505386 12.7391548-35.7435149 4.9513282s1.0738982-12.5279196-14.51815866-23.1764036c0 0 10.57953596 4.3952751 23.08008476 8.8572139z" fill="url(#h)"/></g><g transform="translate(-.389614 .400532)"><path d="m.90386819 28.9952284v43.5522518s-.29685584 28.9959508 127.27588481 28.9959558c127.572739.000004 127.572739-28.9959558 127.572739-28.9959558v-43.5522518s.000004 36.2741037-127.572739 36.2741037c-127.57274385 0-127.27588481-36.2741037-127.27588481-36.2741037z" fill="url(#i)"/><path d="m128.004506 65.8911472c78.501725 0 127.747986-17.1823429 127.747986-34.4207554s-58.240347-31.02003387-127.747986-31.02003387c-69.5076398 0-127.10063785 13.78162137-127.10063785 31.02003387s48.59891245 34.4207554 127.10063785 34.4207554z" fill="url(#j)"/><path d="m128.004506 66.1104305c37.354392 0 69.885569-3.9067705 93.373517-10.7547379 22.081953-6.4380467 34.593752-15.0776802 34.593752-23.8853008 0-17.3172008-57.795882-31.23931714-127.967269-31.23931714-70.046027 0-127.31992112 13.89308974-127.31992112 31.23931714 0 8.8187246 12.37777962 17.4555158 34.26966142 23.885179 23.3264968 6.8510106 55.7073402 10.7548597 93.0502597 10.7548597zm0-.4385666c-37.3038248 0-69.6439957-3.8989455-92.9266724-10.7370863-21.7174024-6.3784184-33.95468217-14.9171736-33.95468217-23.4643858 0-16.9417234 57.13347227-30.80075059 126.88135457-30.80075059 69.871603 0 127.528703 13.88868579 127.528703 30.80075059 0 8.5346123-12.371556 17.0774047-34.277941 23.464264-23.444472 6.8352924-55.935226 10.7372081-93.250762 10.7372081z" fill="#c58020"/><g fill="#fcf1de" transform="translate(6.201497 5.316612)"><path d="m72.3162717 7.80164894c1.3047639 0 3.2523813-.96069361 3.2523813-1.77734082s-1.9651921-1.81440389-3.2523813-1.8144039c-1.2871892 0-2.7808283-.35306152-2.7808283 1.81440385 0 2.16746538 1.4760644 1.77734087 2.7808283 1.77734087z"/><path d="m91.4461882 14.0957274c1.3047636 0 3.2523815-.9606935 3.2523815-1.7773408 0-.8166472-1.9651922-1.8144039-3.2523815-1.8144039s-2.7808286-.3530615-2.7808286 1.8144039c0 2.1674653 1.4760651 1.7773408 2.7808286 1.7773408z"/><path d="m74.9481211 18.6317594c-1.3115844-.3420134-3.4970453-.0256727-3.6905722.6772106s1.5454924 2.0767756 2.8394102 2.4141822 2.7116972 1.0328071 3.2253373-.8327171c.5136402-1.8655243-1.0625909-1.9166623-2.3741753-2.2586757z"/><path d="m42.1443911 25.293295c1.3052618-.37741 2.9951109-1.7404508 2.7753607-2.4202285-.21975-.6797777-2.4541765-.9418687-3.7418569-.5695423-1.2876803.3723265-2.876894.510481-2.2936546 2.3146806.5832394 1.8041997 1.9548891 1.0525002 3.2601508.6750902z"/><path d="m29.5794696 14.2615113c-1.3115845-.3420134-3.4970454-.0256727-3.6905722.6772106-.1935269.7028832 1.5454923 2.0767756 2.8394101 2.4141821 1.2939178.3374066 2.7116972 1.0328071 3.2253374-.8327171.5136401-1.8655242-1.0625909-1.9166623-2.3741753-2.2586756z"/><path d="m69.4504221 45.2011945c1.3363308 0 3.331068-.9606936 3.331068-1.7773408s-2.0127371-1.814404-3.331068-1.814404-2.8481065-.3530615-2.8481065 1.8144039 1.5117757 1.7773409 2.8481065 1.7773409z"/><path d="m59.6174688 32.4290667c-1.1883307.6324972-2.3387733 2.0826029-1.8088671 2.5127154.5299063.4301124 2.9671551.0029653 4.1394794-.6210123 1.1723242-.6239778 2.7617701-1.1620834 1.3553445-2.3036459-1.4064255-1.1415625-2.4976263-.2205545-3.6859568.4119428z"/><path d="m40.0622145 42.0213022c.9253976.7381733 3.3882182 1.574977 4.307543 1.3496554.9193247-.2253217.6487268-1.6124254-.264206-2.3406558-.9129328-.7282303-1.5748372-1.6706736-4.0148193-1.0726469-2.4399821.5980266-.9539153 1.3254741-.0285177 2.0636473z"/><path d="m20.4892606 60.6653785c1.3052617-.3774101 2.9951109-1.7404509 2.7753607-2.4202285-.2197501-.6797777-2.4541766-.9418687-3.7418569-.5695423s-2.8768941.5104809-2.2936547 2.3146805c.5832394 1.8041997 1.9548891 1.0525002 3.2601509.6750903z"/><path d="m31.8117429 78.3881539c1.3363307 0 3.3310678-.9606936 3.3310678-1.7773409 0-.8166472-2.012737-1.8144038-3.3310678-1.8144038-1.3183309 0-2.8481065-.3530615-2.8481065 1.8144038 0 2.1674654 1.5117757 1.7773409 2.8481065 1.7773409z"/><path d="m45.8543451 62.4054585c-.9432791.7349634-1.2929238 2.1069242-.3932328 2.3405913s3.4196439-.5878223 4.3502173-1.312886c.9305733-.7250635 2.3993637-1.4653975.0114916-2.0855739-2.3878721-.6201765-3.0251971.3229053-3.9684761 1.0578686z"/><path d="m69.9867018 79.7548775c1.3052618-.37741 2.9951109-1.7404508 2.7753608-2.4202285-.2197502-.6797777-2.4541767-.9418687-3.741857-.5695423s-2.8768941.5104809-2.2936547 2.3146805c.5832395 1.8041998 1.9548892 1.0525002 3.2601509.6750903z"/><path d="m103.336389 68.4824244c1.336331 0 3.331067-.9606935 3.331067-1.7773408 0-.8166472-2.012737-1.8144038-3.331067-1.8144038-1.318331-.0000001-2.848107-.3530616-2.848107 1.8144037 0 2.1674655 1.511775 1.7773409 2.848107 1.7773409z"/><path d="m67.5174814 60.8961552c-.943279.7349633-1.2929237 2.1069241-.3932327 2.3405912.899691.2336672 3.4196438-.5878223 4.3502172-1.3128859s2.3993636-1.4653976.0114915-2.085574c-2.3878719-.6201765-3.0251969.3229053-3.968476 1.0578687z"/><path d="m56.0457632 16.376431c.9253976.7381733 3.3882182 1.574977 4.307543 1.3496553.9193248-.2253216.6487268-1.6124253-.264206-2.3406557-.9129328-.7282303-1.5748371-1.6706737-4.0148193-1.0726469-2.4399821.5980266-.9539153 1.325474-.0285177 2.0636473z"/><path d="m93.6835443 83.3799777c1.3363307 0 3.3310682-.9606936 3.3310682-1.7773408s-2.0127372-1.8144039-3.3310682-1.8144039c-1.3183311 0-2.8481065-.3530615-2.8481065 1.8144038 0 2.1674654 1.5117757 1.7773409 2.8481065 1.7773409z"/><path d="m170.000106 53.2662996c1.33633 0 3.331067-.9606935 3.331067-1.7773408 0-.8166472-2.012736-1.8144038-3.331067-1.8144039-1.318331 0-2.848107-.3530615-2.848107 1.8144039 0 2.1674653 1.511776 1.7773408 2.848107 1.7773408z"/><path d="m96.7731316 52.3287557c1.3363307 0 3.3310684-.9606936 3.3310684-1.7773408 0-.8166473-2.0127373-1.8144039-3.3310684-1.8144039s-2.8481065-.3530616-2.8481065 1.8144039c0 2.1674653 1.5117758 1.7773408 2.8481065 1.7773408z"/><path d="m130.970293 29.3871672c1.33633 0 3.331067-.9606936 3.331067-1.7773407 0-.8166473-2.012736-1.814404-3.331067-1.814404s-2.848107-.3530615-2.848107 1.8144039 1.511776 1.7773408 2.848107 1.7773408z"/><path d="m115.878957 39.2871236c1.305262-.3774099 2.995112-1.7404507 2.775362-2.4202284-.219751-.6797778-2.454178-.9418687-3.741857-.5695423-1.287681.3723263-2.876895.5104809-2.293655 2.3146805.583239 1.8041997 1.954888 1.0525002 3.26015.6750902z"/><path d="m94.2198243 27.1134936c1.3052618-.3774099 2.9951105-1.7404508 2.7753606-2.4202285-.21975-.6797777-2.4541764-.9418687-3.7418569-.5695422-1.2876805.3723263-2.876894.5104808-2.2936548 2.3146805.5832391 1.8041997 1.9548893 1.0525001 3.2601511.6750902z"/><path d="m122.379166 6.14723414c-1.311584-.34201338-3.497045-.02567267-3.690573.67721061-.193526.70288328 1.545493 2.0767756 2.839411 2.41418222 1.293918.33740652 2.711697 1.03280703 3.225338-.83271718.513639-1.86552424-1.062592-1.91666227-2.374176-2.25867565z"/><path d="m103.991508 4.16125173c1.336331 0 3.331068-.96069361 3.331068-1.77734083 0-.8166472-2.012737-1.81440389-3.331068-1.8144039-1.31833 0-2.848106-.35306152-2.848106 1.81440386 0 2.16746537 1.511775 1.77734087 2.848106 1.77734087z"/><path d="m148.849463 2.80155811c.925397.73817327 3.388217 1.5749769 4.307542 1.34965529.919325-.22532162.648727-1.61242536-.264205-2.34065571-.912934-.72823034-1.574837-1.67067366-4.01482-1.07264701-2.439982.59802665-.953915 1.32547414-.028517 2.06364743z"/><path d="m139.567794 15.9159261c1.336331 0 3.331068-.9606937 3.331068-1.7773409s-2.012736-1.8144039-3.331068-1.8144039c-1.318331 0-2.848106-.3530615-2.848106 1.8144039s1.511776 1.7773409 2.848106 1.7773409z"/><path d="m184.940449 6.81493301c1.336331 0 3.331068-.9606936 3.331068-1.77734082 0-.81664721-2.012737-1.81440389-3.331068-1.81440389-1.318331-.00000001-2.848107-.35306153-2.848107 1.81440385s1.511776 1.77734086 2.848107 1.77734086z"/><path d="m212.093279 8.80091544c-1.311585-.3420134-3.497046-.02567272-3.690573.67721061-.193527.70288325 1.545493 2.07677565 2.839411 2.41418215 1.293917.3374066 2.711697 1.0328071 3.225336-.8327171.513641-1.86552425-1.06259-1.91666225-2.374174-2.25867566z"/><path d="m228.380162 19.7525806c-.943278.7349634-1.292924 2.1069242-.393232 2.3405913.899691.2336671 3.419643-.5878223 4.350217-1.312886.930573-.7250635 2.399364-1.4653974.011492-2.0855739s-3.025197.3229054-3.968477 1.0578686z"/><path d="m208.146377 22.1063728c1.336331 0 3.331068-.9606936 3.331068-1.7773408s-2.012737-1.8144039-3.331068-1.8144039c-1.318331-.0000001-2.848106-.3530616-2.848106 1.8144038 0 2.1674655 1.511775 1.7773409 2.848106 1.7773409z"/><path d="m176.715559 19.1028482c1.305262-.37741 2.995112-1.7404508 2.775361-2.4202284-.21975-.6797777-2.454176-.9418687-3.741857-.5695424-1.28768.3723265-2.876894.510481-2.293655 2.3146806.58324 1.8041997 1.95489 1.0525002 3.260151.6750902z"/><path d="m153.484947 27.5669686c1.336331 0 3.331067-.9606935 3.331067-1.7773408 0-.8166472-2.012737-1.8144039-3.331067-1.8144039-1.318331 0-2.848106-.3530615-2.848106 1.8144038 0 2.1674654 1.511775 1.7773409 2.848106 1.7773409z"/><path d="m182.358454 36.1002014c1.336331 0 3.331068-.9606936 3.331068-1.7773407 0-.8166473-2.012737-1.814404-3.331068-1.814404s-2.848106-.3530615-2.848106 1.8144039 1.511775 1.7773408 2.848106 1.7773408z"/><path d="m214.861831 39.2871236c1.305262-.3774099 2.995111-1.7404507 2.775361-2.4202284-.21975-.6797778-2.454177-.9418687-3.741857-.5695423-1.28768.3723263-2.876894.5104809-2.293654 2.3146805.583239 1.8041997 1.954889 1.0525002 3.26015.6750902z"/><path d="m240.447184 48.8541423c-1.311584-.3420134-3.497045-.0256727-3.690571.6772106-.193528.7028833 1.545491 2.0767756 2.839409 2.4141821 1.293918.3374067 2.711698 1.0328072 3.225338-.8327171.513639-1.8655242-1.062592-1.9166623-2.374176-2.2586756z"/><path d="m229.483941 64.7592507c1.33633 0 3.331067-.9606936 3.331067-1.7773408s-2.012736-1.814404-3.331067-1.814404-2.848107-.3530615-2.848107 1.8144039 1.511776 1.7773409 2.848107 1.7773409z"/><path d="m212.779655 57.9389613c.925397.7381732 3.388217 1.5749769 4.307542 1.3496553.919325-.2253217.648727-1.6124254-.264205-2.3406558-.912934-.7282303-1.574837-1.6706736-4.01482-1.0726469-2.439982.5980266-.953915 1.3254741-.028517 2.0636474z"/><path d="m204.864748 77.2022803c1.336332 0 3.331069-.9606935 3.331069-1.7773408 0-.8166472-2.012738-1.8144039-3.331069-1.8144039-1.31833 0-2.848106-.3530615-2.848106 1.8144038 0 2.1674654 1.511776 1.7773409 2.848106 1.7773409z"/><path d="m186.604688 60.1992645c-.94328.7349633-1.292924 2.1069242-.393233 2.3405913s3.419644-.5878224 4.350217-1.312886c.930574-.7250637 2.399364-1.4653975.011492-2.085574-2.387873-.6201765-3.025197.3229054-3.968476 1.0578687z"/><path d="m153.484947 47.0213931c1.336331 0 3.331067-.9606936 3.331067-1.7773409 0-.8166471-2.012737-1.8144038-3.331067-1.8144038-1.318331 0-2.848106-.3530615-2.848106 1.8144038 0 2.1674654 1.511775 1.7773409 2.848106 1.7773409z"/><path d="m120.331267 57.9472282c1.336331 0 3.331069-.9606935 3.331069-1.7773407 0-.8166473-2.012738-1.814404-3.331069-1.814404s-2.848106-.3530615-2.848106 1.8144039c0 2.1674653 1.511776 1.7773408 2.848106 1.7773408z"/><path d="m140.434139 51.5035456c0-.7872856-1.630672-1.9624645-3.016841-1.9624645s-3.079751 1.1857834-3.079751 1.9624645-.599284 1.6779327 3.079751 1.6779327c3.679034 0 3.016841-.8906471 3.016841-1.6779327z"/><path d="m125.709387 69.2594658c-.443787-.7790977-2.58522-1.8439506-3.842452-1.7605562-1.257231.0833944-2.124863 1.3587344-1.687054 2.1273379.43781.7686035.4023 1.6965358 3.739121 1.4751987 3.336822-.2213373 2.234172-1.0628828 1.790385-1.8419804z"/><path d="m156.574534 72.9275581c1.336331 0 3.331068-.9606937 3.331068-1.7773409 0-.8166471-2.012737-1.8144039-3.331068-1.8144039s-2.848107-.3530615-2.848107 1.8144039 1.511776 1.7773409 2.848107 1.7773409z"/><path d="m114.288627 86.0593885c-1.311584-.3420134-3.497045-.0256726-3.690572.6772106s1.545492 2.0767759 2.83941 2.4141818c1.293918.3374068 2.711697 1.0328075 3.225338-.8327169.513639-1.8655241-1.062592-1.9166621-2.374176-2.2586755z"/><path d="m127.701026 82.0285511c1.336331 0 3.331069-.9606936 3.331069-1.7773408s-2.012737-1.8144039-3.331069-1.8144039c-1.318331 0-2.848106-.3530615-2.848106 1.8144038 0 2.1674654 1.511776 1.7773409 2.848106 1.7773409z"/><path d="m3.77467643 44.4294343c-1.30888011-.3420134-3.48983492-.0256727-3.68296276.6772107-.19312784.7028832 1.54230577 2.0767756 2.83355571 2.4141821 1.29124994.3374066 2.70610611 1.0328071 3.21868718-.8327171s-1.06040003-1.9166622-2.36928013-2.2586757z"/><path d="m23.5085298 41.5607973c1.3335754 0 3.3241997-.9606937 3.3241997-1.7773408 0-.8166472-2.0085871-1.8144039-3.3241997-1.8144039-1.3156127 0-2.8422341-.3530616-2.8422341 1.8144038s1.5086586 1.7773409 2.8422341 1.7773409z"/><path d="m4.96495652 67.2959602c.92158153.7381732 3.37424616 1.5749769 4.28977987 1.3496553.91553381-.2253216.64605169-1.6124254-.26311642-2.3406557-.90916814-.7282304-1.56834296-1.6706737-3.99826332-1.072647-2.42992036.5980266-.94998166 1.3254741-.02840013 2.0636474z"/><path d="m179.367605 78.8722228c1.299879-.3774099 2.982759-1.7404508 2.763915-2.4202285-.218843-.6797777-2.444055-.9418687-3.726426-.5695422-1.28237.3723263-2.865031.5104808-2.284197 2.3146805.580835 1.8041997 1.946829 1.0525002 3.246708.6750902z"/><path d="m156.95581 89.3093455c1.33082 0 3.317332-.9606932 3.317332-1.7773408 0-.8166472-2.004437-1.8144038-3.317332-1.8144038-1.312894-.0000001-2.836362-.3530616-2.836362 1.8144037 0 2.1674651 1.505542 1.7773409 2.836362 1.7773409z"/><path d="m237.511834 29.9257032c.917765.7381733 3.360274 1.5749769 4.272017 1.3496553.911742-.2253216.643376-1.6124253-.262027-2.3406557-.905404-.7282304-1.561849-1.6706737-3.981708-1.0726471-2.419858.5980267-.946048 1.3254742-.028282 2.0636475z"/><path d="m14.6829001 27.5669686c1.3253095 0 3.3035951-.9606935 3.3035951-1.7773408 0-.8166472-1.9961371-1.8144039-3.3035951-1.8144039-1.3074581 0-2.8246169-.3530615-2.8246169 1.8144038 0 2.1674654 1.4993074 1.7773409 2.8246169 1.7773409z"/><path d="m42.2876437 10.4553302c1.3253095 0 3.3035952-.96069361 3.3035952-1.77734079 0-.81664721-1.9961372-1.81440389-3.3035952-1.8144039-1.307458 0-2.8246169-.35306152-2.8246169 1.81440385 0 2.16746534 1.4993075 1.77734084 2.8246169 1.77734084z"/></g></g></svg>