<svg height="106" preserveAspectRatio="xMidYMid" viewBox="0 0 256 106" width="256" xmlns="http://www.w3.org/2000/svg"><path d="m246.526165 38.5556177-18.432224-3.6930566-20.593903 23.3364352v-58.1989963l-17.345389 6.95249926v72.36683154c-2.236268-10.9630945-13.177861-13.9490269-22.2135-16.4079516-6.623561-1.8024998-12.342759-3.3595074-12.101684-7.9024472.23841-4.454883 4.656338-6.2173568 8.927754-5.9892093 5.046586.270842 9.144855 2.3575257 12.197581 6.2080174l12.748987-11.3500116c-6.915247-7.7236649-18.135207-9.4394419-24.292603-9.7689887-14.171461-.7591577-28.846383 5.519572-29.686815 21.2604254-.025307.4989894-.037294.9819687-.035961 1.4569429-5.066563-12.9123562-17.611771-22.0556066-32.297347-22.0556066-16.8073001 0-30.8096123 11.9744157-34.0008536 27.87137v-62.62319268l-17.3453885 6.95116506v32.46500932c-5.1051922-2.9619167-11.0308341-4.6643517-17.3560462-4.6643517-19.1634392 0-34.6987727 15.5594026-34.6987727 34.7571595 0 19.1964227 15.5353335 34.75716 34.6987727 34.75716 17.511879 0 31.9856812-12.9990794 34.3511424-29.8886761 2.3641318 16.8895967 16.8379372 29.8886761 34.3511459 29.8886761 13.184521 0 24.649551-7.3661009 30.521917-18.2144544l-18.777185-3.7624351c-3.088688 2.8511787-7.209599 4.597642-11.74207 4.597642-7.1110363 0-13.2204799-4.2881082-15.8989394-10.424079h15.9082644l33.990199-.0013342c.455511-2.2467873.695254-4.5709583.695254-6.9524993 0-1.2421371-.066596-2.4695983-.193127-3.6770461 3.974403 6.9017996 12.609139 9.2419806 19.953258 11.2326022 6.884613 1.8652069 12.830234 3.4755827 12.562523 8.4561389-.189133 3.5889895-4.208819 5.5235746-10.747138 5.1713467-6.062828-.3228755-10.784428-2.8831992-14.796125-8.0331986l-12.726345 12.7108923c7.469321 8.0412036 19.361893 9.8316956 25.866912 10.1812556 6.957869.373575 28.879683.096062 32.13619-17.4139362v16.1384442h17.345389v-30.3876654l26.811234 30.3796604h21.688728l-33.738466-38.2327425zm-203.9238724 46.4420544c-2.3721211 1.2167876-5.0545784 1.9079014-7.9008579 1.9079014-9.5803869 0-17.3480537-7.7797013-17.3480537-17.3779125 0-9.5968773 7.7676668-17.3779128 17.3480537-17.3779128 9.5803902 0 17.3467243 7.7810355 17.3467243 17.3779128 0 3.8184712-1.2320134 7.3487555-3.3164431 10.2159446.3116656 2.0680049 1.4610984 4.3681599 4.505832 6.4028101 1.4730856.983303-4.2953908 2.5563208-10.6352553-1.1487436zm44.902491-22.4211762c2.6771269-6.137305 8.7879031-10.4267477 15.8989394-10.4267477 7.112372 0 13.223148 4.2894427 15.900275 10.4267477z" fill="#239eda"/></svg>