<svg height="192" preserveAspectRatio="xMidYMid" viewBox="0 0 256 192" width="256" xmlns="http://www.w3.org/2000/svg"><g fill="#0080ff"><path d="m127.806368 103.431977v24.705088c41.873768 0 74.477145-40.4530763 60.779332-84.3320565-5.985904-19.1753428-21.222618-34.41205666-40.397961-40.39796034-43.87898-13.69781306-84.3327815 18.90628894-84.3327815 60.78005664h24.7616544c.0036261 0 .0065269-.0065269.0065269-.0065269.0036261-26.2787989 26.0104702-46.5956261 53.6388892-36.5702889 10.235649 3.7145382 18.400091 11.8775297 22.116805 22.1124532 10.02684 27.6122194-10.259442 53.6088108-36.515898 53.6461018v-24.6252746s-.002176-.0014504-.004351-.0014504h-24.685508c-.002175 0-.004351.003626-.004351.003626v24.686232zm-24.641994 18.973734h-18.9672069l-.0043512-.004351v-18.969383h18.9759091v18.969383s-.002175.004351-.004351.004351zm-18.9585043-18.973734h-15.9002833c-.0065269 0-.0116034-.004351-.0116034-.004351v-15.8930311s.0050765-.0116034.0116034-.0116034h15.8886799c.0065269 0 .0116034.0050765.0116034.0050765z"/><path d="m22.0964986 153.197507c-3.2192181-2.233654-7.2252918-3.365711-11.9065383-3.365711h-10.1899603v32.329246h10.1899603c4.6696431 0 8.6771672-1.19515 11.9101643-3.549915 1.7593655-1.248815 3.1416204-2.993677 4.1090539-5.184543.9623569-2.179264 1.4504249-4.750142 1.4504249-7.640114 0-2.856612-.488068-5.39413-1.4511501-7.542935-.9667083-2.158957-2.3504136-3.856679-4.1119547-5.046028zm-16.1446799 2.098765h3.19818697c3.55861753 0 6.48775073.69983 8.70907653 2.08281 2.4657223 1.486686 3.7167138 4.315014 3.7167138 8.407388 0 4.214935-1.2538923 7.170901-3.7254164 8.78885h-.0021756c-2.1270482 1.406912-5.0387762 2.120521-8.65396037 2.120521h-3.24242493zm25.8813824 26.86477h5.7299037v-22.77022h-5.7299037zm2.9197054-32.727388c-.9790368 0-1.8231841.347377-2.5027082 1.027626-.6875014.654867-1.0363286 1.485236-1.0363286 2.467898 0 .979037.3466515 1.822459 1.0319773 2.50706.6838754.685326 1.5280227 1.032703 2.5070595 1.032703s1.8224589-.347377 2.5077847-1.032703c.686051-.685326 1.0327026-1.528748 1.0327026-2.50706 0-.981212-.3488272-1.81158-1.0327026-2.463546-.6853258-.684601-1.5287479-1.031978-2.5077847-1.031978zm23.6179943 11.8594c-1.727456-1.536725-3.6565212-2.433088-5.7429575-2.433088-3.1626515 0-5.7915467 1.094346-7.8127138 3.249677-2.0465496 2.138652-3.0850539 4.890833-3.0850539 8.179671 0 3.214142 1.0218244 5.956896 3.0415411 8.156465 2.0356714 2.127773 4.6790708 3.206164 7.8562266 3.206164 2.2089972 0 4.1076034-.61498 5.6552068-1.829711v.524329c0 1.889178-.5061983 3.359184-1.5033654 4.36868-.9964419 1.008045-2.3786969 1.518595-4.1068782 1.518595-2.6448498 0-4.3026855-1.03923-6.3209518-3.766754l-3.9016431 3.748623.1051558.147944c.8426969 1.182821 2.1335751 2.34026 3.8370992 3.440408 1.7042493 1.09507 3.8465269 1.652034 6.3680906 1.652034 3.4019717 0 6.1534278-1.048658 8.1796714-3.116238 2.037847-2.078459 3.0712748-4.861825 3.0712748-8.269598v-20.679433h-5.6407026zm-1.5026402 13.44834c-1.0015184 1.137133-2.2873201 1.688294-3.9306515 1.688294-1.6426063 0-2.9211558-.551161-3.90817-1.686844-.9819377-1.130606-1.4808839-2.628895-1.4808839-4.45353 0-1.854368.4989462-3.371512 1.4816091-4.510096.9732351-1.126255 2.2880453-1.697722 3.9074448-1.697722 1.641881 0 2.9284079.555512 3.9299263 1.700623.9978924 1.137858 1.5033654 2.654278 1.5033654 4.507195 0 1.82391-.505473 3.322199-1.5026402 4.45208zm12.0472295 7.419648h5.7299037v-22.77022h-5.7299037zm2.9204306-32.727388c-.9797621 0-1.8239094.347377-2.5034334 1.027626-.6875015.654867-1.0363287 1.485236-1.0363287 2.467898 0 .979037.3466516 1.822459 1.0319774 2.50706.6838753.685326 1.5280226 1.032703 2.5077847 1.032703.9783116 0 1.8217337-.347377 2.5077847-1.032703.6853258-.685326 1.0319773-1.528748 1.0319773-2.50706 0-.981212-.3488272-1.81158-1.0319773-2.463546-.686051-.684601-1.5294731-1.031978-2.5077847-1.031978zm15.3679773 3.80519h-5.6407025v6.151978h-3.2757847v5.222254h3.2757847v9.458221c0 2.959593.5910481 5.077213 1.757915 6.293394 1.1697677 1.221983 3.2467762 1.841315 6.1737337 1.841315.9311728 0 1.8681473-.031184 2.7840906-.090652l.2581757-.017405v-5.217904l-1.9646006.10298c-1.3641246 0-2.2749915-.240045-2.7079433-.711433-.4387536-.479365-.6606686-1.493212-.6606686-3.012533v-8.645983h5.3332125v-5.222254h-5.3332125zm24.998074 7.855502h-.000726c-1.736158-1.482335-4.136611-2.23438-7.133189-2.23438-1.906584 0-3.689156.418448-5.3020287 1.236487-1.491762.756397-2.9566912 2.009564-3.887864 3.649269l.058017.069621 3.6688499 3.512204c1.5113428-2.409156 3.1916598-3.246051 5.4195128-3.246051 1.197326 0 2.190867.321269 2.954515.954379.759298.62876 1.129156 1.428669 1.129156 2.442516v1.105949c-1.420691-.432227-2.837756-.651241-4.216385-.651241-2.851535 0-5.1714901.670822-6.8953201 1.993609-1.7455864 1.339468-2.6303456 3.255479-2.6303456 5.695819 0 2.139377.7462436 3.876986 2.2227762 5.169314 1.4895864 1.245915 3.3504815 1.879026 5.5326455 1.879026 2.181439 0 4.222187-.879683 6.075105-2.384499v1.874674h5.641428v-14.637688c0-2.771762-.886935-4.934346-2.636147-6.429008zm-10.173281 12.365597c.649791-.453257 1.56791-.681699 2.7297-.681699 1.379354 0 2.842108.277031 4.349824.823841v2.233654c-1.24519 1.157439-2.908827 1.744862-4.945949 1.744862-.99209 0-1.762991-.220465-2.293122-.656318-.519977-.426425-.773076-.968884-.773076-1.656385 0-.781054.305314-1.372827.932623-1.807955zm17.37464 8.701099h5.729904v-32.329246h-5.729904zm26.518845.487343c-9.189893 0-16.666108-7.476215-16.666108-16.666833 0-9.189892 7.476215-16.666107 16.666108-16.666107 9.189892 0 16.666107 7.476215 16.666107 16.666107 0 9.190618-7.476215 16.666833-16.666107 16.666833zm0-27.459444c-5.951094 0-10.792612 4.841518-10.792612 10.792611 0 5.951819 4.841518 10.792612 10.792612 10.792612 5.951093 0 10.792612-4.840793 10.792612-10.792612 0-5.951093-4.841519-10.792611-10.792612-10.792611zm37.096793 18.830141c-1.024725 1.148737-2.073383 2.144453-2.881269 2.662255v.000725c-.791932.508374-1.792.76655-2.971196.76655-1.688294 0-3.045892-.61498-4.151841-1.881201-1.099422-1.259694-1.657111-2.878369-1.657111-4.813961 0-1.934866.550437-3.551365 1.63608-4.801631 1.091444-1.258969 2.44179-1.870323 4.128634-1.870323 1.845666 0 3.791411 1.147286 5.458675 3.119139l3.787059-3.631864c-2.469348-3.213417-5.618946-4.708805-9.377722-4.708805-3.146697 0-5.873496 1.145836-8.104975 3.404873-2.2206 2.242356-3.34613 5.098968-3.34613 8.488611 0 3.390369 1.124804 6.253508 3.342504 8.511094 2.219875 2.259762 4.948125 3.406323 8.108601 3.406323 4.148215 0 7.496521-1.791275 9.754107-5.072136zm23.516464-11.446753c-.812238-1.132782-1.918912-2.043649-3.289563-2.710119-1.367026-.66502-2.960318-1.002244-4.734912-1.002244-3.198187 0-5.815479 1.179921-7.780805 3.509303-1.907309 2.311252-2.873292 5.183819-2.873292 8.539377 0 3.450561 1.060261 6.307173 3.152499 8.489337 2.079909 2.171286 4.864725 3.272884 8.276124 3.272884 3.863932 0 7.034561-1.562833 9.423411-4.644986l.129088-.166074-3.737745-3.591977c-.346652.417722-.83762.892011-1.285802 1.314085-.565665.533756-1.097246.947127-1.665813 1.22996-.856476.426425-1.816657.636737-2.891422.636737-1.58749 0-2.9023-.467037-3.907445-1.388057-.939875-.861552-1.489586-2.023343-1.635354-3.458538h15.180148l.05149-2.091513c0-1.480158-.201609-2.905926-.599026-4.238867-.397416-1.335116-1.00732-2.580306-1.811581-3.699308zm-12.522968 5.36077c.27558-1.089269.777427-1.99651 1.496113-2.700691.776702-.764374 1.786923-1.150912 3.00383-1.150912 1.388782 0 2.464272.394515 3.195286 1.176294.678074.722312 1.060261 1.621575 1.140034 2.675309zm34.527365-6.838753h-.000725c-1.736159-1.482335-4.136612-2.23438-7.13319-2.23438-1.906584 0-3.689156.418448-5.302028 1.236487-1.492488.756397-2.957417 2.009564-3.887864 3.649269l.058017.069621 3.66885 3.512204c1.511342-2.409156 3.19166-3.246051 5.419512-3.246051 1.197326 0 2.190867.321269 2.954516.954379.759297.62876 1.129156 1.428669 1.129156 2.442516v1.105949c-1.421417-.432227-2.837757-.651241-4.217111-.651241-2.85081 0-5.17149.670822-6.894595 1.993609-1.745586 1.339468-2.630345 3.255479-2.630345 5.695819 0 2.139377.746243 3.876986 2.222776 5.169314 1.488861 1.245915 3.350481 1.879026 5.532646 1.879026 2.181439 0 4.222187-.879683 6.074379-2.384499v1.874674h5.642153v-14.637688c0-2.771762-.886935-4.934346-2.636147-6.429008zm-10.17328 12.365597c.64979-.453257 1.567909-.681699 2.729699-.681699 1.379354 0 2.842108.277031 4.349825.823841v2.233654c-1.245915 1.157439-2.908828 1.744862-4.946675 1.744862-.991365 0-1.762266-.220465-2.292396-.656318-.519978-.426425-.773077-.968884-.773077-1.656385 0-.781054.305315-1.372827.932624-1.807955zm34.851535-11.918867c-1.596193-1.77822-3.83855-2.68111-6.666878-2.68111-2.272816 0-4.119207.652691-5.500012 1.940669v-1.409813h-5.618946v22.77022h5.729904v-12.557779c0-1.72528.41047-3.095206 1.219807-4.072793.807887-.974685 1.918187-1.448974 3.39472-1.448974 1.29813 0 2.281518.423524 3.007456 1.294504.728839.875331 1.097972 2.080635 1.097972 3.586176v13.198866h5.729903v-13.198866c0-3.153949-.804986-5.650131-2.393926-7.4211z"/></g></svg>