<svg height="134" preserveAspectRatio="xMidYMid" viewBox="0 0 512 134" width="512" xmlns="http://www.w3.org/2000/svg"><path d="m99.2846073 133.859556c36.4459387.177168 69.7145227-29.658616 69.7145227-65.9553528 0-39.6889397-33.268584-67.12238733-69.7145227-67.11100955h-31.3647768c-36.8823978-.01137778-67.24071362 27.42857145-67.24071362 67.11100955 0 36.3048638 30.35831582 66.1325208 67.24071362 65.9553528z" fill="#006095"/><path d="m81.9093125 103.246832v-72.0717209c14.5171411 5.5572318 24.8227805 19.582781 24.8472095 36.0334222-.024429 16.4538921-10.3300684 30.4713143-24.8472095 36.0382987m-52.521629-36.0382987c.0325716-16.4408889 10.3219251-30.4583111 24.8309233-36.0317968v72.0554665c-14.5089982-5.5686093-24.7983517-19.5779046-24.8309233-36.0236697m38.678719-60.91499679c-33.7017857.01137778-61.01140416 27.27253329-61.01954705 60.91499679.00814289 33.6392127 27.31776135 60.8954917 61.01954705 60.9052447 33.7131855-.009753 61.0276895-27.266032 61.0325755-60.9052447-.004886-33.6424635-27.31939-60.90361901-61.0325755-60.91499679" fill="#fff"/><path d="m190.372583 29.4213079c0-6.2935365-3.291355-5.8806857-6.444281-5.9473269v-1.8188191c2.732753.1332825 5.535535.1332825 8.274803.1332825 2.942839 0 6.940998-.1332825 12.132903-.1332825 18.157012 0 28.042478 12.1027048 28.042478 24.4963556 0 6.9290666-4.063301 24.3533206-28.88771 24.3533206-3.573099 0-6.874226-.1381587-10.16721-.1381587-3.152926 0-6.242338.0666412-9.395264.1381587v-1.8204444c4.203359-.4209778 6.242338-.560762 6.444281-5.3199239zm6.872598 32.8248889c0 5.3881905 3.861358 6.0172191 7.294399 6.0172191 15.149029 0 20.124334-11.4070349 20.124334-21.835581 0-13.082819-8.414861-22.5296254-21.946712-22.5296254-2.879325 0-4.203359.2048-5.472021.2795683zm37.592458 6.4398222h1.330548c1.960807 0 3.364641 0 3.364641-2.314565v-18.9618794c0-3.0768762-1.050433-3.5043556-3.648014-4.8956952v-1.1215238c3.296241-.9849905 7.225999-2.3080635 7.502857-2.5177397.493459-.2795683.912004-.3543365 1.263777-.3543365.346887 0 .49183.4209777.49183.9849904v26.8661842c0 2.314565 1.542263 2.314565 3.507956 2.314565h1.188862v1.8204445c-2.385866 0-4.841761-.1397841-7.359542-.1397841-2.525924 0-5.051848.0682666-7.642915.1397841zm7.502857-40.9404952c-1.827264 0-3.436299-1.6790349-3.436299-3.4994794 0-1.7521777 1.685578-3.3661968 3.436299-3.3661968 1.817493 0 3.43467 1.4758603 3.43467 3.3661968 0 1.8919619-1.54552 3.4994794-3.43467 3.4994794zm14.162111 20.0817778c0-2.5876318-.775203-3.284927-4.063301-4.6145016v-1.3295746c3.01124-.9784889 5.884051-1.8919619 9.253578-3.362946.208458 0 .413659.1430349.413659.6989206v4.5511111c4.003044-2.8655746 7.440971-5.2500317 12.144303-5.2500317 5.955709 0 8.058202 4.3398095 8.058202 9.7995174v18.0516572c0 2.314565 1.540635 2.314565 3.506328 2.314565h1.262148v1.8204445c-2.459153 0-4.913419-.1397841-7.4312-.1397841-2.527553 0-5.053477.0682666-7.576143.1397841v-1.8204445h1.260519c1.967322 0 3.363013 0 3.363013-2.314565v-18.1199238c0-3.9936-2.442867-5.9489524-6.445911-5.9489524-2.242551 0-5.818908 1.8171936-8.141259 3.3580698v20.7108064c0 2.314565 1.552034 2.314565 3.516099 2.314565h1.260519v1.8204445c-2.454267 0-4.91179-.1397841-7.436086-.1397841-2.521038 0-5.050219.0682666-7.571257.1397841v-1.8204445h1.265405c1.962436 0 3.361384 0 3.361384-2.314565zm35.90688 3.3645714c-.144944.630654-.144944 1.6774095 0 4.0586159.41203 6.6462476 4.701704 12.1027048 10.302382 12.1027048 3.862986 0 6.882369-2.1000127 9.470179-4.6860191l.980404.9801143c-3.226213 4.2699174-7.224371 7.9075555-12.968364 7.9075555-11.154128 0-13.395051-10.7796317-13.395051-15.2559746 0-13.7183492 9.251949-17.7785904 14.157225-17.7785904 5.685365 0 11.790902 3.567746 11.852788 10.9860571 0 .425854 0 .8403302-.061886 1.2645587l-.636773.4209778zm12.413019-2.2414222c1.752349 0 1.955921-.9118476 1.955921-1.7505524 0-3.567746-2.170894-6.4365714-6.100651-6.4365714-4.275017 0-7.219485 3.141892-8.059831 8.1871238zm9.603722 19.7355682h1.894036c1.955922 0 3.359755 0 3.359755-2.314565v-19.6608c0-2.1682794-2.591067-2.5908826-3.644756-3.1500191v-1.0467555c5.118619-2.1715302 7.924659-3.9936 8.56469-3.9936.41203 0 .620488.2096762.620488.913473v6.2967873h.149829c1.745835-2.7290413 4.696818-7.2102603 8.971834-7.2102603 1.753978 0 3.994901 1.188165 3.994901 3.7091555 0 1.8903365-1.328919 3.5742476-3.291355 3.5742476-2.182295 0-2.182295-1.6839111-4.633304-1.6839111-1.193747 0-5.118619 1.6107683-5.118619 5.8124191v16.4392635c0 2.314565 1.398948 2.314565 3.364641 2.314565h3.924872v1.8204445c-3.8581-.0715175-6.792797-.1397841-9.81218-.1397841-2.87444 0-5.820537.0682666-8.344832.1397841zm26.995303-7.9108063c.913632 4.6177524 3.716414 8.5398349 8.838291 8.5398349 4.130073 0 5.672336-2.5193651 5.672336-4.9672127 0-8.2602666-15.280944-5.6027428-15.280944-16.8667428 0-3.9220826 3.15944-8.9608127 10.869127-8.9608127 2.240923 0 5.25542.6322793 7.988173 2.0333714l.495088 7.1322413h-1.613921c-.700288-4.4048254-3.152926-6.9241905-7.642914-6.9241905-2.807668 0-5.468764 1.6091428-5.468764 4.6177524 0 8.1936254 16.267862 5.6693841 16.267862 16.6554412 0 4.6177524-3.716414 9.5215746-12.062875 9.5215746-2.80441 0-6.100652-.9817396-8.551661-2.3795809l-.773574-8.0489651zm83.441804-26.4549587h-1.749092c-1.335434-8.1822477-7.155971-11.4753016-15.005715-11.4753016-8.067973 0-19.780704 5.3865651-19.780704 22.1817905 0 14.1442031 10.105324 24.2883047 20.899537 24.2883047 6.939369 0 12.694763-4.7575365 14.098597-12.1092063l1.609034.4193524-1.609034 10.2172444c-2.946097 1.8253206-10.870756 3.7124063-15.502431 3.7124063-16.403034 0-26.778702-10.5683301-26.778702-26.3151746 0-14.3473777 12.828306-24.637765 26.571873-24.637765 5.677221 0 11.149242 1.8253206 16.546349 3.7156571zm2.529181 34.365765h1.325662c1.968951 0 3.372785 0 3.372785-2.314565v-38.9737651c0-4.5527365-1.052062-4.6925206-3.716415-5.4613333v-1.1198985c2.802783-.9085968 5.748879-2.1682793 7.221114-3.0118603.765431-.4161016 1.330548-.7720635 1.537377-.7720635.426687 0 .568374.4242286.568374.9849905v48.3539302c0 2.314565 1.540634 2.314565 3.506327 2.314565h1.183976v1.8204445c-2.376095 0-4.83199-.1397841-7.356285-.1397841-2.522667 0-5.046962.0682666-7.642915.1397841zm45.022029-2.0333714c0 1.2645587.768689 1.3312 1.959179 1.3312.843603 0 1.890779-.0666413 2.806039-.0666413v1.4726096c-3.019383.2779428-8.766633 1.7473016-10.100438 2.1666539l-.353402-.2113015v-5.6661334c-4.200101 3.4279619-7.4312 5.8774349-12.414647 5.8774349-3.783186 0-7.709687-2.449473-7.709687-8.3252825v-17.92c0-1.8204444-.278486-3.5709968-4.20173-3.9188317v-1.3312c2.527553-.0682667 8.128231-.4876191 9.043492-.4876191.776831 0 .776831.4876191.776831 2.0284952v18.0516572c0 2.1032635 0 8.1204825 6.095766 8.1204825 2.384238 0 5.538793-1.818819 8.480004-4.2634158v-18.8334731c0-1.3962158-3.363013-2.1634031-5.882422-2.8639492v-1.2596825c6.304224-.4226032 10.237239-.9801143 10.93427-.9801143.566745 0 .566745.4876191.566745 1.2613079zm13.952025-23.0920127c2.801153-2.3795809 6.589225-5.0403555 10.448954-5.0403555 8.134745 0 13.036764 7.0737269 13.036764 14.6984635 0 9.1672381-6.727654 18.3377269-16.761321 18.3377269-5.183763 0-7.918145-1.6822857-9.74378-2.449473l-2.100865 1.6058921-1.467349-.7671873c.620488-4.1285079.978775-8.1887492.978775-12.4570413v-30.0909714c0-4.5527365-1.056947-4.6925206-3.719671-5.4613333v-1.1198985c2.810925-.9085968 5.748879-2.1682793 7.22437-3.0118603.770318-.4161016 1.327291-.7720635 1.54552-.7720635.420174 0 .558603.4242286.558603.9849905zm0 19.0333968c0 2.6591493 2.522666 7.1436191 7.221113 7.1436191 7.504486 0 10.657412-7.3516698 10.657412-13.5834413 0-7.5564698-5.743993-13.8516317-11.216014-13.8516317-2.600839 0-4.770104 1.6806603-6.662511 3.2914285zm-302.518069 48.6009903h.537431c1.371262 0 2.820696-.185295 2.820696-2.168279v-19.9484954c0-1.9862349-1.449434-2.1747809-2.820696-2.1747809h-.537431v-1.142654c1.48852 0 3.7783.1495365 5.652793.1495365 1.905436 0 4.191959-.1495365 5.985023-.1495365v1.142654h-.535802c-1.368005 0-2.820696.188546-2.820696 2.1747809v19.9484954c0 1.982984 1.452691 2.168279 2.820696 2.168279h.535802v1.14753c-1.830521 0-4.125187-.149536-6.025737-.149536-1.871236 0-4.123559.149536-5.612079.149536zm37.851402-6.358552.076543-.074768v-14.2774861c0-3.1240127-2.177408-3.5807492-3.32067-3.5807492h-.840346v-1.142654c1.794693 0 3.550299.1511619 5.341735.1511619 1.563434 0 3.133383-.1511619 4.693561-.1511619v1.142654h-.568374c-1.607406 0-3.40047.3055746-3.40047 4.8355555v17.3299808c0 1.3312.039086 2.6624.226372 3.842438h-1.449434l-19.647161-21.8599616v15.6915806c0 3.312559.643289 4.451962 3.5845 4.451962h.646545v1.14753c-1.638349 0-3.276698-.149536-4.919933-.149536-1.711635 0-3.46887.149536-5.18702.149536v-1.14753h.534174c2.631781 0 3.431413-1.786311 3.431413-4.829054v-16.0394156c0-2.1292699-1.758864-3.4230857-3.468871-3.4230857h-.496716v-1.142654c1.447806 0 2.936326.1511619 4.382503.1511619 1.146518 0 2.25558-.1511619 3.398841-.1511619zm11.665502-17.1723176c-2.866297 0-2.973783.6859174-3.547043 3.4620952h-1.143261c.1482-1.0646349.342001-2.1292698.45763-3.2361651.154715-1.0678857.228001-2.1292698.228001-3.2329142h.915261c.307801 1.1442793 1.260519 1.1036444 2.296294 1.1036444h19.681361c1.032518 0 1.983608-.0373841 2.063408-1.1816635l.910375.1527873c-.148201 1.0288762-.302916 2.0545016-.418545 3.0850032-.070029 1.0288762-.070029 2.0577524-.070029 3.0833778l-1.146518.4226031c-.078172-1.4075936-.270344-3.6587682-2.823954-3.6587682h-6.256995v20.2589456c0 2.937092 1.337062 3.271924 3.164326 3.271924h.724717v1.14753c-1.486891 0-4.159387-.149536-6.216281-.149536-2.28978 0-4.962276.149536-6.452424.149536v-1.14753h.724717c2.105751 0 3.167583-.18692 3.167583-3.192279v-20.3385906zm23.08183 23.5308696h.535802c1.372891 0 2.823954-.185295 2.823954-2.168279v-19.9484954c0-1.9862349-1.451063-2.1747809-2.823954-2.1747809h-.535802v-1.142654c2.322352 0 6.299339.1495365 9.497865.1495365 3.209927 0 7.172256-.1495365 9.764952-.1495365-.065143 1.6351492-.027686 4.1528889.083057 5.8270476l-1.149776.3055746c-.184029-2.4738539-.640031-4.4535873-4.649589-4.4535873h-5.297763v9.9734349h4.53396c2.288152 0 2.788125-1.290565 3.014498-3.3515682h1.141632c-.074914 1.4888635-.114 2.9728508-.114 4.4552127 0 1.4514793.039086 2.896457.114 4.34306l-1.141632.22593c-.226373-2.282057-.342002-3.7676694-2.978669-3.7676694h-4.569789v8.8714154c0 2.47548 2.203466 2.47548 4.646332 2.47548 4.581189 0 6.600625-.3072 7.747144-4.642133l1.066718.261688c-.498344 2.023619-.954346 4.035861-1.29309 6.057854-2.446124 0-6.833512-.149536-10.263297-.149536-3.437927 0-7.978401.149536-10.152553.149536zm26.858503-21.3999744c0-2.7778032-1.525977-2.8915809-2.711582-2.8915809h-.68726v-1.1442794c1.221434 0 3.586128.1527873 5.914994.1527873 2.286523 0 4.120302-.1527873 6.141367-.1527873 4.804304 0 9.082577 1.2938159 9.082577 6.7063873 0 3.4214603-2.288151 5.5165968-5.302649 6.7031365l6.522454 9.7410029c1.069975 1.610769 1.828892 2.062629 3.701757 2.283683v1.149155c-1.260519 0-2.481953-.149536-3.739215-.149536-1.182347 0-2.407037.149536-3.584499.149536-2.937954-3.845689-5.462249-7.957942-7.939316-12.3432631h-2.512895v8.1529901c0 2.935467 1.369634 3.041118 3.121983 3.041118h.688888v1.149155c-2.179036 0-4.384131-.149536-6.561539-.149536-1.833778 0-3.626842.149536-5.533907.149536v-1.149155h.68726c1.416863 0 2.711582-.638781 2.711582-2.049626zm4.885733 8.8324064h1.863093c3.819014 0 5.874279-1.4433524 5.874279-5.9392 0-3.3840762-2.172522-5.5556064-5.571364-5.5556064-1.146519 0-1.635092.1170286-2.166008.1511619zm43.680081 6.209016.0684-.074768v-14.2774861c0-3.1240127-2.170894-3.5807492-3.314156-3.5807492h-.837088v-1.142654c1.793064 0 3.542156.1511619 5.340106.1511619 1.566691 0 3.123612-.1511619 4.700075-.1511619v1.142654h-.576517c-1.600892 0-3.395584.3055746-3.395584 4.8355555v17.3299808c0 1.3312.035829 2.6624.224744 3.842438h-1.446177l-19.64879-21.8599616v15.6915806c0 3.312559.646546 4.451962 3.5845 4.451962h.648174v1.14753c-1.638349 0-3.279956-.149536-4.918305-.149536-1.723035 0-3.477013.149536-5.191905.149536v-1.14753h.529287c2.636668 0 3.437928-1.786311 3.437928-4.829054v-16.0394156c0-2.1292699-1.755607-3.4230857-3.470499-3.4230857h-.496716v-1.142654c1.444548 0 2.939582.1511619 4.389016.1511619 1.135119 0 2.245809-.1511619 3.393956-.1511619zm12.092189 2.061003c-.387602 1.29219-.846861 2.288559-.846861 2.967975 0 1.144279 1.604149 1.329574 2.859783 1.329574h.426687v1.14753c-1.529234-.082895-3.087783-.147911-4.625161-.147911-1.371262 0-2.73601.065016-4.115415.147911v-1.14753h.231258c1.486891 0 2.749039-.874463 3.312527-2.477105l6.112052-17.47139c.490201-1.4092191 1.183976-3.3141841 1.413605-4.7282794 1.214919-.4128508 2.744153-1.1735365 3.46887-1.6318984.117258-.0406349.18403-.0796444.304544-.0796444.114001 0 .18403 0 .270344.1170285.114001.3039492.221487.646908.345259.9508572l7.019169 19.9176125c.456002 1.3312.910375 2.738794 1.403834 3.886324.462516 1.06626 1.263777 1.516495 2.524296 1.516495h.228001v1.14753c-1.716521-.082895-3.436299-.147911-5.263563-.147911-1.867979 0-3.781558.065016-5.727708.147911v-1.14753h.42343c.872918 0 2.366324-.147911 2.366324-1.102019 0-.492495-.34363-1.519746-.770318-2.742044l-1.483634-4.416203h-8.660776zm5.568107-16.871619h-.078172l-3.548671 10.778006h7.129913zm16.443748-2.3617016c-2.863039 0-2.97704.6859174-3.550299 3.4620952h-1.146519c.149829-1.0646349.34363-2.1292698.462516-3.2361651.151458-1.0678857.223115-2.1292698.223115-3.2329142h.920147c.302915 1.1442793 1.260519 1.1036444 2.286523 1.1036444h19.691132c1.026004 0 1.978722-.0373841 2.056894-1.1816635l.913632.1527873c-.146572 1.0288762-.299659 2.0545016-.413659 3.0850032-.084686 1.0288762-.084686 2.0577524-.084686 3.0833778l-1.141633.4226031c-.070029-1.4075936-.262201-3.6587682-2.819068-3.6587682h-6.258624v20.2589456c0 2.937092 1.338691 3.271924 3.165955 3.271924h.726346v1.14753c-1.48852 0-4.157759-.149536-6.219538-.149536-2.284895 0-4.962276.149536-6.449168.149536v-1.14753h.724717c2.102494 0 3.169212-.18692 3.169212-3.192279v-20.3385906zm23.264232 23.5308696h.534173c1.377777 0 2.820697-.185295 2.820697-2.168279v-19.9484954c0-1.9862349-1.44292-2.1747809-2.820697-2.1747809h-.534173v-1.142654c1.491777 0 3.776671.1495365 5.643021.1495365 1.913579 0 4.201731-.1495365 5.998052-.1495365v1.142654h-.534174c-1.376148 0-2.828839.188546-2.828839 2.1747809v19.9484954c0 1.982984 1.452691 2.168279 2.828839 2.168279h.534174v1.14753c-1.833779 0-4.123559-.149536-6.028995-.149536-1.872864 0-4.120301.149536-5.612078.149536zm26.856874-26.0030982c8.134745 0 14.616484 5.0289778 14.616484 13.1397079 0 8.7592633-6.296081 14.5814353-14.419427 14.5814353-8.095659 0-14.272854-5.482464-14.272854-13.6695876 0-7.9189334 6.141366-14.0515556 14.075797-14.0515556zm.576516 26.0453592c7.403514 0 8.691719-6.516216 8.691719-12.0669465 0-5.5686095-3.004726-12.3058794-9.341521-12.3058794-6.678797 0-8.660776 5.9424508-8.660776 11.0396953 0 6.8169146 3.128497 13.3331306 9.310578 13.3331306zm39.750323-6.400813.078172-.074768v-14.2774861c0-3.1240127-2.180666-3.5807492-3.325556-3.5807492h-.827317v-1.142654c1.78655 0 3.543785.1511619 5.330334.1511619 1.571578 0 3.135012-.1511619 4.701704-.1511619v1.142654h-.576516c-1.599264 0-3.395585.3055746-3.395585 4.8355555v17.3299808c0 1.3312.035829 2.6624.22963 3.842438h-1.447806l-19.653675-21.8599616v15.6915806c0 3.312559.649803 4.451962 3.5845 4.451962h.651431v1.14753c-1.641607 0-3.278327-.149536-4.919933-.149536-1.716521 0-3.477014.149536-5.195163.149536v-1.14753h.539059c2.636667 0 3.429785-1.786311 3.429785-4.829054v-16.0394156c0-2.1292699-1.745836-3.4230857-3.470499-3.4230857h-.498345v-1.142654c1.452691 0 2.941211.1511619 4.389017.1511619 1.143261 0 2.247437-.1511619 3.395584-.1511619zm12.087303 2.061003c-.374572 1.29219-.837089 2.288559-.837089 2.967975 0 1.144279 1.607407 1.329574 2.858154 1.329574h.426688v1.14753c-1.527606-.082895-3.094298-.147911-4.620275-.147911-1.377777 0-2.745782.065016-4.113787.147911v-1.14753h.216601c1.493405 0 2.757181-.874463 3.320669-2.477105l6.113681-17.47139c.493459-1.4092191 1.183976-3.3141841 1.405462-4.7282794 1.223062-.4128508 2.747411-1.1735365 3.478642-1.6318984.109115-.0406349.185658-.0796444.301287-.0796444.114 0 .187286 0 .26383.1170285.115629.3039492.232886.646908.348515.9508572l7.015913 19.9176125c.45763 1.3312.913632 2.738794 1.415234 3.886324.45763 1.06626 1.262147 1.516495 2.517781 1.516495h.232886v1.14753c-1.719778-.082895-3.437927-.147911-5.271706-.147911-1.864721 0-3.776671.065016-5.722821.147911v-1.14753h.421801c.871289 0 2.369581-.147911 2.369581-1.102019 0-.492495-.346887-1.519746-.771946-2.742044l-1.482006-4.416203h-8.662404zm5.57625-16.871619h-.076543l-3.553556 10.778006h7.141313zm24.381436 18.583162c0 1.526247 1.060204 1.979733 2.281637 2.135771 1.565063.115403 3.281584.115403 5.042077-.078019 1.599263-.191797 2.972154-1.103644 3.657785-2.057752.609088-.838705.951089-1.90334 1.183976-2.742045h1.105804c-.418544 2.169905-.954346 4.307302-1.415234 6.475581-3.348355 0-6.717882-.147911-10.066238-.147911-3.363013 0-6.716254.147911-10.074381.147911v-1.14753h.52603c1.379405 0 2.871183-.185295 2.871183-2.548622v-19.5697778c0-1.9846095-1.491778-2.1731555-2.871183-2.1731555h-.52603v-1.142654c2.017807 0 4.004672.1511619 6.024108.1511619 1.952665 0 3.856472-.1511619 5.804251-.1511619v1.142654h-.959232c-1.446177 0-2.584553.0422603-2.584553 2.056127z" fill="#1a1918"/></svg>