<svg height="249" preserveAspectRatio="xMidYMid" viewBox="0 0 256 249" width="256" xmlns="http://www.w3.org/2000/svg"><path d="m132.668777 248.633094c-30.42164 0-58.2372374-11.116662-79.7430792-29.506303l-52.9256978 7.230619 20.4468489-50.465151c-7.1237985-15.719137-11.1203453-33.169496-11.1203453-51.575712 0-68.6540434 55.2223309-124.316547 123.3422734-124.316547 68.114417 0 123.331223 55.6625036 123.331223 124.316547 0 68.666935-55.214964 124.316547-123.331223 124.316547zm67.346417-124.672v-.346245c0-35.8731512-25.297957-61.4528922-68.91741-61.4528922h-47.1113667v124.3165472h46.4133527c43.958331.001841 69.615424-26.646101 69.615424-62.51741zm-68.398043 31.974215h-13.779798v-63.2209493h13.779798c20.238734 0 33.672288 11.5384173 33.672288 31.4382733v.346245c0 20.067453-13.433554 31.436431-33.672288 31.436431z" fill="#2e9fff"/></svg>