<svg height="239" preserveAspectRatio="xMidYMid" viewBox="0 0 512 239" width="512" xmlns="http://www.w3.org/2000/svg"><path d="m130.873388 0h24.006113v193.076897h-24.006113v-17.820195c-14.069521 13.908834-33.179197 22.175688-53.3927174 22.175688-26.4084211 0-61.2663392-16.137482-73.26989477-55.743127-1.15374659-3.664842-2.19670955-8.625154-2.40031189-11.090339-1.37631189-16.628522-.74554386-17.762308 0-23.564975 6.09309941-47.4163895 44.46016376-66.8334656 75.67020666-66.8334656 14.9328343 0 28.5192984 4.1089747 39.9948854 11.0883431l-3.362433 22.0788772c-9.601248-8.1151501-22.0838676-13.3638986-36.6324524-13.3638986-31.2100429 0-56.4647174 26.0401403-56.4647174 58.2192909 0 29.701988 22.8533645 59.40697 56.4647174 59.40697 22.1826744 0 44.3653484-13.95674 53.3927174-36.835056z" fill="#353535"/><path d="m237.346433 40.6486082c-31.371727 0-71.796772 18.7932943-76.061443 65.4092478-.524974 5.742783-1.031984 11.909739 0 23.061957.223564 2.413286 1.253552 7.267805 2.413287 10.854799 12.066433 38.760296 47.103002 54.554448 73.648156 54.554448 41.022877 0 77.221177-32.752031 77.221177-77.520592 0-41.1845616-32.625279-76.3598598-77.221177-76.3598598zm0 134.5003038c-33.785014 0-56.756148-29.072218-56.756148-58.140444 0-31.4944875 25.384421-56.9787136 56.756148-56.9787136 34.942752 0 57.915883 29.0712203 57.915883 56.9787136 0 35.079485-28.957443 58.140444-57.915883 58.140444z" fill="#353535"/><path d="m273.92 17.0247485c0 2.4422301-1.317427 2.4422301-2.534051 3.2995556h-65.833419c0-.8573255-1.315431-.8573255-1.315431-3.2995556 0-1.6497777 1.315431-1.6497777 2.533053-2.5071033h65.832421c0 .8573256 1.317427.8573256 1.317427 2.5071033" fill="#8c8c8c"/><g fill="#353535"><path d="m328.295797 6.37554776h19.267369v28.94646394h-19.267369z"/><path d="m347.563166 183.281029c1.345372 23.060959-28.321685 54.799969-28.321685 54.799969l-12.572444-17.553715c16.330105-11.579384 21.435135-29.917568 21.820382-38.452897l-.193622-137.1042184h19.267369z"/><path d="m434.777825 40.6486082c-31.369731 0-71.794776 18.7922963-76.060445 65.4092478-.524975 5.741785-1.031984 11.90874 0 23.061957.224562 2.413286 1.25455 7.267805 2.414285 10.853801 12.064436 38.761294 47.103002 54.556444 73.64616 54.556444 41.024873 0 77.222175-32.753029 77.222175-77.522588 0-41.1845616-32.625279-76.3588618-77.222175-76.3588618zm0 134.4983078c-33.783018 0-56.753154-29.069224-56.753154-58.139446 0-31.4944875 25.383423-56.9797117 56.753154-56.9797117 34.944748 0 57.916881 29.0722183 57.916881 56.9797117 0 35.080483-28.958441 58.139446-57.916881 58.139446z"/></g><path d="m468.44906 17.0247485c0 2.4422301-1.31543 2.4422301-2.532054 3.2995556h-65.834417c0-.8573255-1.315431-.8573255-1.315431-3.2995556 0-1.6497777 1.315431-1.6497777 2.532054-2.5071033h65.834418c0 .8573256 1.31543.8573256 1.31543 2.5071033" fill="#8c8c8c"/></svg>