<svg height="256" preserveAspectRatio="xMidYMid" viewBox="0 0 256 256" width="256" xmlns="http://www.w3.org/2000/svg"><g fill="#028bf4"><path d="m128 42.6666667c-47.1288889 0-85.3333333 38.2044444-85.3333333 85.3333333v85.333333h21.3333333 64c47.128889 0 85.333333-38.204444 85.333333-85.333333 0-47.1288889-38.204444-85.3333333-85.333333-85.3333333zm0 149.3333333h-64v-64c0-35.3457778 28.6542222-64 64-64 35.345778 0 64 28.6542222 64 64 0 35.345778-28.650667 64-64 64z"/><path d="m128 85.3333333c-23.562667 0-42.6666667 19.1039997-42.6666667 42.6666667v42.666667h21.3333337 21.333333c23.562667 0 42.666667-19.104 42.666667-42.666667s-19.104-42.6666667-42.666667-42.6666667zm0 63.9999997h-21.333333v-21.333333c0-11.779556 9.553777-21.333333 21.333333-21.333333s21.333333 9.553777 21.333333 21.333333-9.550222 21.333333-21.333333 21.333333z"/><path d="m128 0h-128v256h128c70.691556 0 128-57.308444 128-128 0-70.6915556-57.308444-128-128-128zm0 234.666667h-106.6666667v-64-42.666667c0-58.9084444 47.7582223-106.6666667 106.6666667-106.6666667 58.908444 0 106.666667 47.7582223 106.666667 106.6666667 0 58.908444-47.754667 106.666667-106.666667 106.666667z"/></g></svg>