<svg height="295" preserveAspectRatio="xMidYMid" viewBox="0 0 256 295" width="256" xmlns="http://www.w3.org/2000/svg"><g fill="none"><path d="m84.790786 47.5711751c-51.4818988 21.8665837-83.88133853 64.7480779-83.88133853 119.8458519 0 70.415938 57.08401553 127.50095 127.50294153 127.50095 70.415938 0 127.50095-57.085012 127.50095-127.50095 0-84.6632838-78.66372-118.319813-78.66372-118.319813s-17.181884-7.1351284-26.788358-13.5401089c0 0-12.137588-7.4170273-33.291954-34.72435802 0 0 .479129 31.02580542-32.378521 46.73942412" fill="#136da9"/><path d="m115.65323 270.238381c-4.478506-3.11284-3.413666-13.022132 8.72193-5.942786 0 0 25.839066 18.977868 66.751252-3.79119 3.180576-1.770086 7.079347 4.474521-3.034147 10.200155 0 0-41.339518 21.151378-72.439035-.466179z" fill="#f0f0f0"/><path d="m115.65323 270.238381c-4.478506-3.11284-3.413666-13.022132 8.72193-5.942786 0 0 25.839066 18.977868 66.751252-3.79119 3.180576-1.770086 7.079347 4.474521-3.034147 10.200155 0 0-41.339518 21.151378-72.439035-.466179z" stroke="#fffdff"/><path d="m168.370304 238.760342c15.044233 1.762117 9.871439 8.99586 13.907673 10.111502 8.215906 2.277105 4.676731-6.699828 4.676731-6.699828-6.069292-12.135596-16.561307-11.376561-16.561307-11.376561-16.434802-2.52912-28.697899 13.147642-28.697899 13.147642-3.034148 6.698833 1.211268 7.043487 2.781136 6.321308 7.963891-3.667673 12.808965-12.804981 23.893666-11.504063z" fill="#f0f0f0"/><path d="m168.370304 238.760342c15.044233 1.762117 9.871439 8.99586 13.907673 10.111502 8.215906 2.277105 4.676731-6.699828 4.676731-6.699828-6.069292-12.135596-16.561307-11.376561-16.561307-11.376561-16.434802-2.52912-28.697899 13.147642-28.697899 13.147642-3.034148 6.698833 1.211268 7.043487 2.781136 6.321308 7.963891-3.667673 12.808965-12.804981 23.893666-11.504063z" stroke="#fffdff"/><path d="m17.5972607 231.530584s45.7164202 37.823253 156.9678443-46.440592c0 0 55.878724-35.078973 54.1953-95.2240309 0 0-18.082366-25.9874864-48.594179-39.3891362-4.341043-1.9075486-42.467113-22.7122802-63.057681-48.80136965 0 0-3.731424 75.68535405-100.669759 105.56563375 0 0-24.42658367 36.028265-11.11059923 94.583534 0 0 8.52370433 23.74126 12.26907393 29.705961" fill="#008ece"/><path d="m90.1149883 245.586677s-37.9268482 1.010055-33.3746303-39.444918c0 0 7.9220545-45.512218 61.186988-35.397728 0 0 11.632561 2.528125 33.376623 19.215938 0 0 14.348949 11.06179 22.249089 10.853603 0 0 6.132047.587704 18.880249-7.481774 0 0 25.99944-20.062631 35.088934-19.467954.226117.014942 18.344343-1.98126 18.344343 27.221666 0 0 .336684 32.196233-23.934506 42.983097 0 0-6.405977 2.19144-13.317977-5.056249 0 0-19.890303-22.587767-29.667113-26.29628 0 0-5.645945-2.212358-13.147642.506023 0 0-4.887906.506024-24.945556 13.822008 0 0-33.714304 21.069696-50.7388017 18.542568z" fill="#f0f0f0"/><path d="m90.1149883 245.586677s-37.9268482 1.010055-33.3746303-39.444918c0 0 7.9220545-45.512218 61.186988-35.397728 0 0 11.632561 2.528125 33.376623 19.215938 0 0 14.348949 11.06179 22.249089 10.853603 0 0 6.132047.587704 18.880249-7.481774 0 0 25.99944-20.062631 35.088934-19.467954.226117.014942 18.344343-1.98126 18.344343 27.221666 0 0 .336684 32.196233-23.934506 42.983097 0 0-6.405977 2.19144-13.317977-5.056249 0 0-19.890303-22.587767-29.667113-26.29628 0 0-5.645945-2.212358-13.147642.506023 0 0-4.887906.506024-24.945556 13.822008 0 0-33.714304 21.069696-50.7388017 18.542568z" stroke="#fffdff"/><path d="m110.173634 100.453603c24.555082-35.1706147 6.934911-99.78919833 6.934911-99.78919833-2.166537 35.06004673-31.7469886 46.62985213-31.7469886 46.62985213-52.9631128 22.8597043-68.9227704 58.9347862-68.9227704 58.9347862 11.3496654 16.095128 41.4799689 69.065214 93.734848-5.77544" fill="#008ece"/><path d="m117.108545.66440467s3.178583 29.49877043-12.834864 39.10624123c0 0-25.6806849 11.9543035-33.5200623 15.8729961 0 0-32.978179 19.9052452-43.848716 38.6141634 0 0-23.26312838 31.1284046 8.8494319 23.7691516 0 0 58.0701635-16.393961 81.6689804-65.866708 0 0 1.389572-4.1717043-3.03614-8.4699144 0 0 17.700856-13.3588171 2.72137-43.02592993" fill="#a0d8f1"/><path d="m117.108545.66440467s1.324825 20.14331513-15.397852 36.83312063c0 0-5.0213856 7.0773541-30.9570743 18.1461167 0 0-29.6900234 15.4795331-43.0010273 36.9486693 0 0-19.72694159 23.7960467 7.323393 17.4159687 0 0 54.8089028-20.1990971 74.8924516-57.29021 0 0 2.716389-3.8977743-1.418459-7.9140856 0 0 19.66319-15.3570116 8.558568-44.13957973" fill="#f0f0f0"/></g></svg>