<svg height="256" preserveAspectRatio="xMidYMid" viewBox="0 0 257 256" width="257" xmlns="http://www.w3.org/2000/svg" xmlns:xlink="http://www.w3.org/1999/xlink"><linearGradient id="a" x1="5.175483%" x2="135.024889%" y1="30.082905%" y2="114.013331%"><stop offset="0"/><stop offset="1" stop-color="#e6e7e8"/></linearGradient><linearGradient id="b" x1="9.889196%" x2="104.104391%" y1="8.204717%" y2="64.486502%"><stop offset="0" stop-color="#939598"/><stop offset="1"/></linearGradient><linearGradient id="c" x1="42.135781%" x2="85.221983%" y1="42.362907%" y2="82.247993%"><stop offset="0" stop-color="#fefad8"/><stop offset="1" stop-color="#fcee21"/></linearGradient><path d="m89.6 219.7c16-.7 31.1-4.3 45-10.3-53.7-15.2-93-64.6-93-123.1 0-16.3 3.1-31.9 8.6-46.2-12.3 3.9-23.3 10.3-30.9 20.1-12.2 19.6-19.3 42.8-19.3 67.6 0 24.7 7 47.7 19.1 67.3 10.8 14.8 47.6 25.6 70.5 24.6z" fill="url(#a)"/><path d="m210.3 137.8c7.3-15.3 11.4-32.2 11.4-50.1 0-24.7-10.5-55.4-26.7-68.6-19.5-12.1-42.5-19.1-67.2-19.1-46 0-87 24.3-108.8 60.7 19.6-12.1 42.6-19.2 67.3-19.2 59.7 0 109.9 41 124 96.3z" fill="url(#b)"/><path d="m195 19c13 18.7 19.5 42.3 19.5 67 0 70.7-57.3 128.1-128.1 128.1-24.7 0-47.8-6.9-67.3-19.1 22.4 36.6 62.9 60.7 108.9 60.7 70.7 0 128.1-57.3 128.1-128.1-.1-46-24.7-88-61.1-108.6z" fill="url(#c)"/></svg>