<svg height="240" preserveAspectRatio="xMidYMid" viewBox="0 0 256 240" width="256" xmlns="http://www.w3.org/2000/svg" xmlns:xlink="http://www.w3.org/1999/xlink"><linearGradient id="a"><stop offset=".3033" stop-color="#473788"/><stop offset=".872" stop-color="#2c2255"/></linearGradient><linearGradient id="b" x1="49.999699%" x2="49.999699%" xlink:href="#a" y1="1089.3962%" y2="-159.499661%"/><linearGradient id="c" x1="49.998948%" x2="49.998948%" xlink:href="#a" y1="896.536635%" y2="-352.359227%"/><linearGradient id="d" x1="49.998844%" x2="49.998844%" y1="215.169856%" y2="-166.715419%"><stop offset=".3033" stop-color="#473788"/><stop offset=".8631" stop-color="#2c2255"/></linearGradient><g fill="#2c2255"><path d="m70.3816921 153.048902h-39.1206696c5.1797972 17.768316 14.7917438 33.693214 28.8638768 47.767683 22.4341059 22.436443 49.4101717 33.639477 80.9562357 33.639477 6.305941 0 12.415625-.469616 18.35008-1.364457 23.76118-3.586373 44.56448-14.329137 62.38887-32.27502 14.163252-14.069796 23.842954-29.999367 29.06247-47.767683h-15.875833-23.214463z"/><path d="m48.8097175 99.9145092h-20.4364846c-.7476477 4.4905598-1.2569828 9.0745748-1.4882863 13.7754098h24.289207 12.1843223 175.8724561 16.0534c-.23364-4.700835-.742975-9.28485-1.497632-13.7754098"/><path d="m26.8849466 126.481706c.2313035 4.703171.7383022 9.287187 1.4882863 13.77541h21.2472152 16.1048002 172.0711347 15.99499c.75232-4.488223 1.266328-9.072239 1.499968-13.77541"/><path d="m250.887228 87.1203867c-5.214843-17.8173809-14.896882-33.8170432-29.067143-47.9896413-17.777662-17.7776622-38.522552-28.4433249-62.206631-32.03203424-5.990528-.90885932-12.160959-1.38548478-18.532319-1.38548478-31.546064 0-58.5244662 11.14228822-80.9562357 33.41751902-14.0768058 14.1725981-23.6934252 30.1722604-28.870886 47.9896413"/></g><path d="m20.0930339 120.089317c0-60.3351751 45.3144641-110.46729461 104.2641541-119.28486552-1.462586-.05373718-2.932181-.11214717-4.408785-.11214717-66.1528094 0-119.78485505 53.45681569-119.78485505 119.39701269 0 65.942534 53.62970925 119.397013 119.78485505 119.397013 1.481277 0 2.950872-.056074 4.418131-.109811-58.959036-8.817571-104.2735001-58.94969-104.2735001-119.287202z" fill="#f7941e"/><g transform="translate(63.082781 99.461248)"><path d="m155.728022 14.2263353c-.38317-4.721863-1.177546-9.326906-2.364436-13.77541024h-150.72111841c-1.18689083 4.44616785-1.98360299 9.05121084-2.36677247 13.77541024z" fill="url(#b)"/><path d="m155.728022 27.0204578h-155.44999048c.38316948 4.7218629 1.17520884 9.3269059 2.36443607 13.7754102h150.72345441c1.186891-4.4485043 1.97893-9.0535473 2.3621-13.7754102z" fill="url(#c)"/><path d="m78.0030266 98.6357687c31.3007414 0 58.2814804-18.4411996 70.7064514-45.0481147h-141.41290303c12.42497143 26.6069151 39.40571033 45.0481147 70.70645163 45.0481147z" fill="url(#d)"/></g><g fill="#fff" transform="translate(25.700392 86.446774)"><path d="m26.1396352 40.0349319h11.4109741 155.8518507 20.473867 15.55341c.107475-2.0350038.168221-4.0840259.168221-6.1470665 0-2.2312613-.081774-4.4438315-.20794-6.647056h-15.516027-20.473867-155.8518511-12.2170318-24.14668666c-.12616556 2.2008881-.20793954 4.4157947-.20793954 6.647056 0 2.0630406.06074638 4.1120627.16822075 6.1470665z"/><path d="m44.2233657.67361312h-38.67208099c-1.27100122 4.16579993-2.09107737 8.43907422-2.87844393 12.79412248h19.91780392 16.9599224 151.1159699 21.401417 15.296406c-.789703-4.35271186-1.806036-8.62598615-3.074701-12.79412248"/><path d="m212.673081 53.8080057h-21.401417-151.1136331-16.1491918-21.33833471c.76633896 4.3527119 1.6378159 8.6236498 2.88778951 12.7941225h39.2678628 141.7773813 23.27521 15.158559c1.247637-4.1681363 2.254625-8.4390742 3.0233-12.7941225z"/></g></svg>