<svg height="256" preserveAspectRatio="xMidYMid" viewBox="0 0 256 256" width="256" xmlns="http://www.w3.org/2000/svg"><path d="m256 128c0 70.692-57.31 128-128 128-70.694 0-128-57.308-128-128 0-70.6925 57.306-128 128-128 70.69 0 128 57.3075 128 128zm-128 76.8005c-34.9925 0-65.544-23.685-74.29-57.6035-1.008-3.9085 1.346-7.9005 5.2545-8.9095 3.9165-1.012 7.9 1.3465 8.9085 5.259 7.0835 27.452 31.805 46.6285 60.127 46.6285 28.3175 0 53.0435-19.1765 60.123-46.6285 1.008-3.9125 4.9875-6.2755 8.9085-5.259 3.9125 1.009 6.2665 5.001 5.254 8.9095-8.746 33.9185-39.2925 57.6035-74.2855 57.6035z" fill-rule="evenodd"/></svg>