<svg height="256" preserveAspectRatio="xMidYMid" viewBox="0 0 256 256" width="256" xmlns="http://www.w3.org/2000/svg"><g fill-rule="evenodd"><path d="m128 0c70.692254 0 128 57.307746 128 128 0 70.692988-57.307746 128-128 128s-128-57.307012-128-128c0-70.692254 57.307746-128 128-128" fill="#0e0e11"/><path d="m90.021043 118.791335-39.261891 16.918739c-.0608825-.676309-.094625-1.360687-.094625-2.053134 0-12.419301 10.067622-22.486923 22.486923-22.486923 6.719083 0 12.7493865 2.948768 16.869593 7.621318zm-16.869593-24.438097c18.5266245 0 34.056068 12.819072 38.210017 30.071564l-15.841192 6.926671-.0036675-.033009-16.206487 7.120321-38.8775245 16.998693c-4.1590831-6.234957-6.5848481-13.72424-6.5848481-21.780538 0-21.707187 17.5965156-39.303702 39.3037021-39.303702zm27.463885 67.418957c-14.0726645 13.356745-32.6895125 14.667553-49.0478395 4.736367l9.242407-14.052127c9.308424 5.563783 18.6593925 4.661548 28.053639-2.71404zm16.003301-9.728733-.099026-74.325823h14.081468v72.3189c0 .693914.085822 1.304939.996126 1.658498l12.249856 4.764241-5.519037 14.349937-14.349937-6.071381c-5.441284-2.302533-7.349914-5.638602-7.35945-12.694372z" fill="#fff"/><path d="m169.639977 150.793536c-5.278441-4.104069-8.676859-10.509204-8.676859-17.713147 0-6.404401 2.688366-12.177237 6.992687-16.264435l-9.094968-14.740172c-9.142648 7.243553-15.013777 18.434934-15.013777 31.004607 0 13.548195 6.815909 25.500975 17.203347 32.627164z" fill="#2091c3"/><path d="m175.80525 111.968825c2.370016-.852355 4.924882-1.31961 7.589043-1.31961 9.604033 0 17.793833 6.038373 20.992733 14.523782l17.427805-1.456046c-4.206762-17.319977-19.806624-30.18306-38.420538-30.18306-5.259371 0-10.274476 1.0357365-14.864872 2.899622z" fill="#faec32"/><path d="m205.797593 134.167473c-.567748 11.883095-10.380103 21.344092-22.403301 21.344092-1.885158 0-3.713834-.236195-5.462556-.673376l-6.836447 15.828722c3.872275 1.26533 8.003484 1.959978 12.299003 1.959978 21.295679 0 38.650865-16.835118 39.504688-37.921009z" fill="#d0352a"/></g></svg>