<svg height="187" preserveAspectRatio="xMidYMid" viewBox="0 0 253 187" width="253" xmlns="http://www.w3.org/2000/svg"><g fill="#e92429"><path d="m157.333333 35.2h17.6l11.733334 11.7333333v-23.4666666c0-6.4-5.333334-11.7333334-11.733334-11.7333334h-1.066666c-2.666667-6.9333333-8.533334-11.7333333-16.533334-11.7333333-9.6 0-17.6 8-17.6 17.6.533334 9.6 8 17.6 17.6 17.6z"/><path d="m169.066667 139.733333h64.533333l-4.8-11.733333h-217.0666667v-11.733333h212.7999997l-4.8-11.733334h-207.4666663v-11.733333h203.2000003l-4.8-11.7333333h-23.466667v-11.7333334l11.733333-11.7333333h-35.2l11.733334 11.7333333v11.7333334h-84.266667l-4.8-11.7333334h11.7333333l-4.8-11.7333333h-93.3333333v99.2c0 16 13.3333333 29.333333 29.3333333 29.333333 13.8666667 0 26.1333334-11.733333 28.8-23.466666h1.0666667c2.6666667 11.733333 14.4 23.466666 28.8 23.466666 13.866667 0 26.133333-11.733333 28.8-23.466666h1.066667c2.666666 11.733333 14.4 23.466666 28.8 23.466666 16 0 29.333333-13.333333 29.333333-29.333333-1.066667-5.866667-3.2-11.733333-6.933333-17.066667zm-94.4000003-69.8666663 4.8 11.7333333h-27.7333334l-4.8-11.7333333zm-62.9333334 0h23.4666667l4.8 11.7333333h-28.2666667zm17.6 93.3333333h16.5333334c-2.1333334 6.933333-8.5333334 11.733333-16.5333334 11.733333-9.6 0-17.6-8-17.6-17.6s8-17.6 17.6-17.6c7.4666667 0 13.8666667 4.8 16.5333334 11.733334h-16.5333334c-3.2 0-5.8666666 2.666666-5.8666666 5.866666s2.6666666 5.866667 5.8666666 5.866667zm58.1333334 11.733333c-7.4666667 0-13.8666667-4.8-16.5333334-11.733333h33.0666667c-2.666667 6.933333-9.0666667 11.733333-16.5333333 11.733333zm-16.5333334-23.466666c2.6666667-6.933334 9.0666667-11.733334 16.5333334-11.733334 7.4666666 0 13.8666663 4.8 16.5333333 11.733334zm74.6666667 23.466666c-7.466667 0-13.866667-4.8-16.533333-11.733333h16.533333c3.2 0 5.866667-2.666667 5.866667-5.866667s-2.666667-5.866666-5.866667-5.866666h-16.533333c2.666666-6.933334 9.066666-11.733334 16.533333-11.733334 9.6 0 17.6 8 17.6 17.6s-7.466667 17.6-17.6 17.6z"/><path d="m237.866667 151.466667h-51.2v5.866666c0 11.2-4.8 21.866667-12.266667 29.333334h77.866667z"/></g></svg>