<svg height="97" preserveAspectRatio="xMidYMid" viewBox="0 0 512 97" width="512" xmlns="http://www.w3.org/2000/svg"><path d="m65.8980137 9.76509681c-2.5737514-1.42854715-9.9515402-.54525921-18.8125621 2.19766649-15.5080675 10.6004147-28.5965272 26.217534-29.5098763 51.29594-.1662961.5996252-1.6959001-.081549-1.998431-.2670331-4.1877827-8.0266633-5.8469057-16.4786608-2.3502111-28.6713604.6517526-1.0850818-1.4790756-2.4208869-1.8621962-2.0393654-.7675203.7687995-3.96712051 4.1772292-6.09219234 7.8632455-10.53357652 18.2727395-3.64508182 41.6859463 14.78403994 51.9323423 18.4252842 10.2623858 41.6923423 3.6425234 51.9515303-14.7881974 11.8687421-21.2724647.84811-63.6370269-6.1097814-67.52259839z" fill="#82b541"/><path d="m131.850394 19.974396c-21.846826 0-37.7044352 16.2413691-37.7044352 38.6190631 0 22.5612592 15.8163552 38.318451 38.4655592 38.318451 11.44021 0 20.497589-3.5772842 27.700767-10.9413217 2.151295-2.3230281 2.382831-4.561629 2.382831-5.4174141 0-3.6479601-2.712865-6.2978239-6.450689-6.2978239-1.883942 0-3.459917.7115553-5.267428 2.3828307-4.07873 3.8005047-9.450093 7.6828782-18.365481 7.6828782-12.397372 0-22.47971-9.3077826-23.114833-21.2606321h49.341961c5.365606 0 7.971977-2.5085121 7.971977-7.6668882 0-1.5187308 0-2.6146858-.305409-4.7768544-2.658178-19.1860887-15.611682-30.6397302-34.653541-30.6397302zm0 11.9800325c11.846356 0 19.448005 7.5495215 19.916831 19.7342261h-42.25519c1.109387-11.276792 10.643908-19.7342261 22.337719-19.7342261z"/><path d="m213.927096 19.974396c-9.924358 0-19.750536 5.7065134-23.589417 13.6321199v-4.8980587c0-7.5878975-5.880805-7.9722973-7.058628-7.9722973-3.484543 0-7.208615 2.0940512-7.208615 7.9722973v59.1598251c0 7.8795553 6.259768 8.2777065 7.514024 8.2777065s7.516902-.3981512 7.516902-8.2777065v-31.7139388c0-13.7987358 7.819433-23.4365521 19.014356-23.4365521 10.843143 0 16.116007 7.1158726 16.116007 21.7569619v33.393529c0 7.8795553 6.262646 8.2777065 7.516902 8.2777065s7.514024-.3981512 7.514024-8.2777065v-38.1137789c0-14.3958026-7.181432-29.7756302-27.335555-29.7756302z"/><path d="m309.272305 20.7374391c-3.473349 0-5.992415 2.0259338-7.492278 6.0119225l-20.564427 51.7116802-20.407405-51.7116802c-1.597722-4.0457913-4.097919-6.0119225-7.645142-6.0119225-4.14397 0-7.516582 3.2334991-7.516582 7.2089344 0 .984025.11161 2.2600275.94341 4.2530219l23.63291 55.8019238c2.816479 6.7317926 7.448464 8.1443498 10.839945 8.1443498 3.389242 0 8.024105-1.4125572 10.846021-8.1411518l23.786733-56.1121299c.812612-1.9683698.938294-3.4135466.938294-4.097599 0-4.0214866-3.16826-7.0563898-7.361479-7.0563898z"/><path d="m352.963398 19.974396c-9.613512 0-18.567276 2.6773666-25.208565 7.5332117-2.252352 1.5539089-3.348307 3.4925372-3.348307 5.9300538 0 3.3563023 2.562878 5.9872979 5.84019 5.9872979 1.417674 0 3.004522-.5644472 4.460252-1.5842898 5.709392-3.8059413 11.074998-5.580832 16.882249-5.580832 11.113054 0 17.492747 5.6518276 17.492747 15.5080675v1.6332192c-24.946968.027183-50.32055 3.04002-50.32055 24.7426159 0 15.6196777 13.348457 22.6130668 26.576989 22.6130668 10.535176 0 18.949117-4.174351 24.347343-12.0785309v3.8008245c0 5.6601424 3.800825 7.667208 7.061827 7.667208.686611 0 6.750341-.2155453 6.750341-7.667208v-39.7991256c0-17.9782036-11.417824-28.7094166-30.535795-28.7094166zm12.956382 40.4930918h3.162504v3.462476c0 12.6644047-8.06472 20.8464909-20.540762 20.8464909-3.386364 0-14.439296-.7879875-14.439296-10.9384435-.00032-11.985469 18.157931-13.3705234 31.817554-13.3705234z"/><path d="m422.647845 34.3945034c6.57637 0 6.908962-5.1174416 6.908962-6.1427208 0-3.0428982-1.815825-6.2955852-6.908962-6.2955852h-13.523068v-13.67849097c0-6.11010118-3.964242-8.27770643-7.361479-8.27770643-1.254256 0-7.514024.39815116-7.514024 8.27770643v64.95460337c0 14.9899913 7.394099 22.9130394 21.386314 22.9130394 3.620457 0 7.148812-.6408795 9.45489-1.7150881 2.645067-1.3194953 4.16092-3.489659 4.16092-5.9518001 0-3.4733492-2.519386-5.9924148-5.992735-5.9924148-.67094 0-1.624904.1662961-2.677366.468827-1.286876.3220387-2.159291.4470806-3.113574.4470806-5.692762 0-8.342946-3.7160775-8.342946-11.6963698v-37.3174766h13.523068z"/><path d="m472.344785 19.974396c-22.733312 0-39.226684 16.1134491-39.226684 38.312055 0 10.807965 3.996862 20.6584484 11.249289 27.735945 7.197742 7.0205721 17.132972 10.8869557 27.978674 10.8869557 22.449649 0 39.380187-16.6040225 39.380187-38.6222611-.00032-22.1989257-16.565966-38.312055-39.380187-38.312055zm0 64.1902811c-15.589617 0-23.741962-13.0190631-23.741962-25.8798251 0-17.6727945 12.307188-25.7212043 23.741962-25.7212043 11.434773 0 23.741961 8.0484098 23.741961 25.7212043 0 17.7821661-12.307188 25.8798251-23.741961 25.8798251z"/></svg>