<svg height="435" preserveAspectRatio="xMidYMid" viewBox="0 0 256 435" width="256" xmlns="http://www.w3.org/2000/svg" xmlns:xlink="http://www.w3.org/1999/xlink"><radialGradient id="a" cx="50%" cy="44.213307%" r="50%"><stop offset="0" stop-color="#a5c8e6"/><stop offset="1" stop-color="#353d4b"/></radialGradient><path d="m74.1721854 434.013245c.0008477-9.88143-.0059337-19.762437.0046623-29.643868.0114437-10.364609 7.7668874-18.283231 18.1327682-18.319682 4.7805033-.016953 9.6758671-.25388 14.3194701.643391 8.320848 1.607629 13.732027 8.948556 13.738384 17.464795.007629 9.951788.002967 19.903576.003391 29.855364h-12.291391c.017378-9.956026.061457-19.912477.038146-29.868503-.008053-3.454305-2.508291-6.054146-5.960901-6.173669-3.2440792-.111894-6.4991786-.120795-9.7428342.000848-3.4589669.129695-5.9668344 2.704105-5.9808212 6.173245-.0402649 9.955602.0135629 19.912053.0305166 29.868079z"/><path d="m37.7218543 434.013245c-3.7403973-1.107073-7.325245-2.467603-10.0810596-5.437881-3.309351-3.566198-5.1568742-7.701616-5.173404-12.597828-.0144106-4.166357-.0491655-8.333562.0101722-12.499496.1301192-9.185908 7.7100927-17.148186 16.8798941-17.39698 8.1148609-.219974 16.2411655-.050861 24.3619602-.045351.2716821.000423.5429404.086887.9400795.155125v12.078199h-2.2739073c-7.0620397.000424-14.1240795-.013563-21.1861192.006782-4.3312318.012291-6.8098543 2.476927-6.8611391 6.820874-.0381457 3.248318-.0394172 6.497483-.0021192 9.745801.0504371 4.41049 2.5888212 6.874702 7.04551 6.879364 7.6939867.008477 15.3879735.002543 23.4659602.002543v12.288848z"/><path d="m144.529801 434.013245c-.035602-3.458543.035179-11.938331.035179-11.938331-10.934252-1.818702-16.524291-8.959576-16.812503-18.01706-.177166-5.573933-.035179-11.158463-.027126-16.738331.000424-.338225.083921-.67645.147497-1.153271h12.095152c0 2.485827-.000424 4.863576.000424 7.2409.000848 3.178384-.065272 6.358464.020768 9.534729.126729 4.660556 2.538808 6.949298 7.191735 6.963708 2.61298.008477 5.226384.019497 7.839788-.002543 4.226967-.035602 6.732715-2.487947 6.76959-6.700079.042384-4.872901.006357-9.746649.015258-14.620397.001695-.758252.062728-1.516928.102146-2.417166h12.150251v2.381139c0 4.661828.000424 9.323232 0 13.98506-.000847 10.651549-6.063046 17.701722-16.812927 19.333086v12.148556z"/><path d="m64.6789934 404.00657v11.999364h-24.9930596v-11.999364z"/><path d="m212.560106 386.028927h-13.793483c-9.760636 0-17.673325 7.913113-17.673325 17.673748v12.468133c0 9.76106 7.912689 17.673748 17.673325 17.673748h13.793483c9.760636 0 17.673324-7.912688 17.673324-17.673748v-12.468133c0-9.760635-7.912688-17.673748-17.673324-17.673748zm5.072954 29.781616c0 3.370808-2.732504 6.103311-6.103312 6.103311h-12.175682c-3.370808 0-6.103311-2.732503-6.103311-6.103311v-11.49245c0-3.370808 2.732503-6.103312 6.103311-6.103312h12.175682c3.370808 0 6.103312 2.732504 6.103312 6.103312z"/><path d="m128 0 128 38.1456954v228.8741726l-128 92.397351-128-92.397351v-228.8741726z" fill="#2a3141"/><path d="m128 9.74834437 119.099338 35.17880793v217.8543047l-119.081113 85.615894-118.69372169-85.615894v-217.8543047z" fill="url(#a)" fill-opacity=".91"/><path d="m128.211921 9.46437086-119.09933822 35.30468874v.1580927h.21192053-.21192053v217.9628077l119.09933822 85.908768v-.540821l-.193696.139444-118.69372169-85.615894v-217.8543047l118.67549669-35.17880793.211921.06272848z" fill="#262c3a"/><g fill="#ecedec"><path d="m22.8874172 72.4768212v45.7748348l105.1125828 58.490066 105.112583-58.490066v-45.7748348l-105.112583 51.2847678z"/><path d="m22.8874172 138.596026v45.774835l105.1125828 68.662252 73.748344-48.317881v-47.89404l-73.748344 42.807947z"/><path d="m22.8874172 207.258278v45.774835l105.1125828 75.867549 105.112583-75.867549v-45.774835l-105.112583 68.662252z"/></g><path d="m127.788079 10.0323179-118.25165516 35.0529271v217.587709l118.25165516 85.297165z" fill-opacity=".07"/></svg>