<svg height="256" preserveAspectRatio="xMidYMid" viewBox="0 0 256 256" width="256" xmlns="http://www.w3.org/2000/svg"><path d="m0 0h256v256h-256z" fill="#f26522"/><path d="m105.536115 159.958938h39.156896v-10.65298h-27.064325v-16.507319h24.952924v-10.652979h-24.952924v-15.451618h27.064325v-10.652979h-39.156896zm91.462064-17.371074c0-12.764381-.863755-15.547592-18.042884-19.674421-11.03687-2.687238-11.228815-2.879184-11.228815-10.173116 0-5.566421 1.439591-7.293931 9.597278-7.293931 5.566422 0 11.804653.767782 17.083156 1.919456l1.343618-10.1731157c-6.334203-1.4395918-13.052298-2.1114012-18.618719-2.1114012-16.219401 0-21.497904 5.7583669-21.497904 17.3710739 0 13.532163 2.111401 16.507319 17.563019 19.962339 11.516734 2.495293 11.70868 3.07113 11.70868 10.173116 0 6.142258-1.439592 7.965741-10.173115 7.965741-6.334204 0-12.092571-1.151673-18.042884-2.975157l-2.111401 9.501305c4.222803 2.01543 12.668407 3.838912 19.962339 3.838912 18.906639 0 22.457632-6.23823 22.457632-18.330801zm22.265686-23.801251c0-9.789224 4.702666-11.70868 16.027455-11.70868 2.015428 0 6.23823.287919 9.021441.863755l.767783-9.7892239c-2.879184-.6718094-7.485877-1.1516733-11.03687-1.1516733-17.467047 0-26.488489 5.3744762-26.488489 22.2656862v23.321387c0 11.03687 3.263075 18.330801 19.770394 18.330801 15.067727 0 19.674421-7.485876 19.674421-17.467047v-4.606693c0-11.03687-4.702667-15.83551-16.315374-15.83551-4.126829 0-8.061714.575837-11.420761 1.727511zm9.597278 14.299945c4.222803 0 6.430177 1.439591 6.430177 6.046286v4.702666c0 4.894612-1.919455 7.006013-7.965741 7.006013-6.046285 0-8.061714-1.72751-8.061714-7.006013v-8.733523c2.687237-1.151674 6.142258-2.015429 9.597278-2.015429z" fill="#fff"/></svg>