<svg height="248" preserveAspectRatio="xMidYMid" viewBox="0 0 256 248" width="256" xmlns="http://www.w3.org/2000/svg"><path d="m252.386416 128.063547c-1.202238.100759-2.410201.147703-3.693734.147703-7.445861 0-14.669594-1.746107-21.18687-4.944061 2.169754-12.447171 3.092615-24.9870872 2.851022-37.4812035-7.065725-10.2201688-15.14133-19.8632633-24.256585-28.7472303 3.954791-7.4149466 9.801103-13.7948234 17.099261-18.3186736l3.133834-1.9373208-2.442261-2.7536978c-12.581135-14.1669447-27.596517-25.11990622-44.620208-32.55202763l-3.394892-1.47703537-.862176 3.58839447c-2.030065 8.36299723-6.273393 15.90732743-12.099095 21.96202753-11.196844-5.9516511-22.894049-10.7617484-34.956504-14.4051024-12.033831 3.635339-23.710425 8.4316965-34.9026895 14.3741877-5.8016575-6.0466851-10.0346806-13.5726956-12.0567306-21.91164803l-.8679014-3.58724947-3.3822965 1.47016544c-16.8095785 7.32449247-32.2383008 18.57400606-44.6133382 32.53027286l-2.4491308 2.7594227 3.130399 1.9373208c7.275258 4.5066754 13.1055403 10.8487676 17.0534612 18.2236395-9.087775 8.8496174-17.1542202 18.4617972-24.2142203 28.6350215-.2747972 12.4883913.6011191 25.1199064 2.7811775 37.7388264-6.4852158 3.168184-13.6688746 4.894826-21.06550139 4.894826-1.29841715 0-2.51325012-.046944-3.69373343-.145413l-3.67770358-.280522.34464159 3.671978c1.80221215 18.577441 7.57066503 36.246906 17.15422011 52.52292l1.8709115 3.176199 2.8086572-2.383867c6.5092605-5.521135 14.3741876-9.177084 22.7371848-10.650684 5.5131204 11.272413 12.0475707 21.863558 19.4602273 31.696721 11.8277329 4.136844 24.1512459 7.224878 36.8777945 9.062585 1.220558 8.416812.248463 17.122161-3.0720042 25.171431l-1.4003212 3.410921 3.6009894.792332c9.220594 2.027775 18.522482 3.060555 27.630866 3.060555l27.622852-3.060555 3.604424-.792332-1.403756-3.417791c-3.311307-8.04927-4.283403-16.764924-3.062845-25.182881 12.67617-1.838851 24.953883-4.920016 36.738107-9.044265 7.419526-9.841178 13.959701-20.439193 19.481982-31.726491 8.389332 1.464441 16.298913 5.122679 22.848248 10.659845l2.808658 2.380431 1.861751-3.168184c9.60073-16.296623 15.368038-33.964943 17.14277-52.512615l.344642-3.665108zm-84.89633 44.89615c-13.067755 3.554045-26.339319 5.348242-39.531878 5.348242-13.228054 0-26.483588-1.793052-39.5627933-5.348242-7.175644-11.149899-12.8490628-23.094421-16.9320924-35.669831-4.0658547-12.517017-6.4451411-25.630572-7.1355693-39.133423 8.4465814-10.4434416 18.0518912-19.591901 28.6647912-27.2930947 10.7846478-7.8443173 22.5173468-14.2173242 34.9656638-19.0113918 12.427707 4.7952126 24.138651 11.1590595 34.898109 18.9701722 10.65412 7.7424133 20.301794 16.961862 28.789595 27.470568-.723633 13.4261373-3.131544 26.4641233-7.204268 38.9605293-4.072725 12.57312-9.764464 24.555427-16.951558 35.706471zm-28.739215-62.997276c0 9.232044 7.481356 16.69966 16.700805 16.69966 9.217158 0 16.690499-7.466471 16.690499-16.69966 0-9.196549-7.473341-16.6927896-16.690499-16.6927896-9.219449 0-16.700805 7.4962406-16.700805 16.6927896zm-21.578456 0c0 9.232044-7.480211 16.69966-16.69966 16.69966-9.2263186 0-16.6859197-7.466471-16.6859197-16.69966 0-9.193114 7.4607461-16.6893546 16.6859197-16.6893546 9.219449 0 16.69966 7.4962406 16.69966 16.6893546z" fill="#419eda"/></svg>