<svg height="227" preserveAspectRatio="xMidYMid" viewBox="0 0 256 227" width="256" xmlns="http://www.w3.org/2000/svg"><path d="m159.032004 16.2735642c-9.427445-14.36562908-11.672074-16.2735642-30.863657-16.2735642h-.224463-.224463c-19.191582 0-21.32398 1.90793512-30.863656 16.2735642-8.8662867 13.4677773-96.855765 174.6321788-96.855765 179.1214378 0 6.509426 1.68347216 12.682157 7.74397194 21.436212 6.17273126 8.866287 16.83472166 13.804472 24.57869356 5.948269 5.2748794-5.27488 61.7273126-102.579571 88.9995615-139.3914953 3.254713-4.6014905 9.988602-4.6014905 13.355546 0 27.272249 36.8119243 83.724682 134.1166153 88.999562 139.3914953 7.743971 7.856203 18.405962 2.918018 24.578693-5.948269 6.0605-8.754055 7.743972-14.926786 7.743972-21.436212-.112231-4.489259-88.10171-165.765892-96.967996-179.1214378z" fill="#1173b6"/></svg>