<svg height="256" preserveAspectRatio="xMidYMid" viewBox="0 0 256 256" width="256" xmlns="http://www.w3.org/2000/svg"><path d="m58.7067669 196.330827-2.3097744 1.53985c-5.3894737 3.079699-5.3894737 10.778947 0 14.628571l59.2842105 39.266166c7.699248 5.389473 18.478195 5.389473 26.177444 0l58.514285-38.496241c5.389474-3.079699 5.389474-10.778947 0-14.628571l-3.079699-1.53985-20.018045 13.858646-40.03609 26.947369c-5.389474 3.849624-12.318797 3.849624-17.708271 0l-40.0360902-26.947369zm-28.487218-63.133835-3.0796993 2.309775c-6.9293233 4.619549-6.9293233 15.398496 0 20.018045l83.1518794 56.204511c10.778948 7.699248 25.407519 7.699248 36.956391 0l82.381955-54.664661c6.929323-4.619549 6.929323-15.398497 0-20.018045l-3.849624-2.309775-28.487218 18.478196-56.204511 37.726315c-7.699248 5.389474-17.708271 4.619549-25.407519 0zm219.4285711-58.5142852-100.090225-67.75338349c-13.088722-9.23909775-30.796993-9.23909775-44.655639 0l-98.5503763 66.21353379c-8.46917293 6.1593985-8.46917293 18.4781955 0 24.637594l100.0902253 66.9834589c13.088722 9.239098 30.796993 9.239098 43.885715 0l99.3203-66.2135341c8.469173-5.3894736 8.469173-18.4781954 0-23.8676691zm-38.49624 20.0180451-67.753384 45.4255641c-9.239098 6.159398-20.78797 6.159398-30.027067 0l-68.5233087-46.1954889c-6.1593985-3.8496241-6.1593985-12.318797 0-16.9383459l67.7533837-45.4255639c9.239098-6.1593985 20.78797-6.1593985 30.027067 0l68.523309 46.1954887c6.159398 4.6195489 6.159398 13.0887218 0 16.9383459z" fill="#080949"/></svg>