<svg height="251" preserveAspectRatio="xMidYMid" viewBox="0 0 256 251" width="256" xmlns="http://www.w3.org/2000/svg"><g><path d="m183.515429 102.912c.585142-13.824-3.437715-24.9417143-8.850286-33.792-5.412572-8.8502857-15.36-17.7005714-26.185143-16.6765714-6.436571.5851428-9.289143 3.1451428-10.825143 6.4365714-1.536 3.4377143-1.828571 11.4102857-1.828571 14.7017143v83.3097147c15.798857-2.121143 30.354285-11.117715 39.497143-25.673143 5.193142-8.192 7.899428-18.870857 8.192-28.306286"/><path d="m127.780571.07314286c-70.5097139 0-127.780571 56.39314284-127.780571 125.80571414 0 64.512 49.152 117.540572 112.713143 124.781714 3.145143.146286 4.973714-.146285 6.436571-1.316571 1.170286-1.024 1.682286-2.706286 1.682286-4.242286l.146286-74.971428c-34.450286-3.584-61.9520003-32.036572-61.5131431-66.706286.4388571-33.2068571 23.3325714-59.9771429 53.6868571-66.1211429.731429-.1462857 1.316571-.2925714 1.828571.1462858.438858.4388571.146286 1.6822857.146286 1.6822857l-2.267428 11.1177143s-.146286.5851428-.292572.8777142c-.146286.1462858-.438857.2925715-.731428.4388572-13.0925719 4.0228571-25.0880004 12.9462857-30.7931433 23.7714286-4.8274286 8.9965714-7.9725714 15.7988571-7.9725714 27.9405711 0 26.331429 20.7725714 50.541715 48.1279997 53.833143v-83.382857c0-8.704.438857-18.7977143 5.558857-25.8194286 4.022858-5.4125714 10.971429-8.704 21.942858-8.704 15.798857 0 34.742857 11.5565715 44.178285 36.6445715 2.852572 7.5337142 4.681143 17.1154285 4.534857 27.5017141-.146285 34.742857-27.209142 63.122286-61.513142 66.925714l-.146286 74.971429c0 1.974857.585143 3.437714 1.828571 4.388571 1.316572 1.024 2.56 1.536 6.436572 1.170286 1.536-.146286 4.242285-.438857 5.266285-.585143 60.269715-10.093714 106.276572-61.805714 106.276572-123.977143 0-69.7782853-57.270857-126.17142814-127.780572-126.17142814"/></g></svg>