<svg height="256" preserveAspectRatio="xMidYMid" viewBox="0 0 256 256" width="256" xmlns="http://www.w3.org/2000/svg"><path d="m256 128.004c0-70.694-57.309-128.004-128.002-128.004-70.662 0-127.948 57.262-127.998 127.914v99.054c.038 16.042 13.049 29.029 29.101 29.029h98.949c70.67-.028 127.95-57.318 127.95-127.993" fill="#294172"/><path d="m165.58 30.307c-33.109 0-60.045 26.935-60.045 60.045v31.87h-31.738c-33.109 0-60.045 26.937-60.045 60.046 0 33.108 26.936 60.045 60.045 60.045s60.045-26.937 60.045-60.045v-31.871h31.738c33.109 0 60.046-26.936 60.046-60.045 0-33.11-26.937-60.045-60.046-60.045zm-59.823 151.961c0 17.622-14.337 31.959-31.96 31.959s-31.96-14.337-31.96-31.959c0-17.623 14.337-31.96 31.96-31.96h31.738v.089h.222zm59.823-59.956h-31.738v-.09h-.221v-31.87c0-17.623 14.337-31.96 31.959-31.96s31.96 14.337 31.96 31.96-14.338 31.96-31.96 31.96z" fill="#3c6eb4"/><path d="m178.851 32.128c-4.66-1.218-8.238-1.786-13.271-1.786-33.177 0-60.075 26.899-60.075 60.074v31.842h-25.16c-7.845 0-14.185 6.165-14.18 13.996 0 7.782 6.27 13.973 14.032 13.973l20.831.004c2.473 0 4.479 2 4.479 4.469v27.553c-.031 17.491-14.219 31.659-31.71 31.659-5.925 0-7.392-.776-11.437-.776-8.497 0-14.182 5.696-14.182 13.528.002 6.479 5.554 12.049 12.348 13.827 4.66 1.218 8.238 1.787 13.271 1.787 33.177 0 60.075-26.899 60.075-60.075v-31.841h25.16c7.845 0 14.185-6.165 14.18-13.996 0-7.783-6.27-13.973-14.032-13.973l-20.831-.004c-2.473 0-4.479-2.001-4.479-4.47v-27.553c.031-17.491 14.219-31.659 31.71-31.659 5.925 0 7.392.777 11.437.777 8.497 0 14.182-5.697 14.182-13.528-.002-6.48-5.554-12.05-12.348-13.828" fill="#fff"/></svg>