<svg height="257" preserveAspectRatio="xMidYMid" viewBox="0 0 256 257" width="256" xmlns="http://www.w3.org/2000/svg" xmlns:xlink="http://www.w3.org/1999/xlink"><linearGradient id="a" x1="50.000371%" x2="50.000371%" y1="0%" y2="99.997032%"><stop offset="0" stop-color="#ea5f29"/><stop offset="1" stop-color="#fabd1f"/></linearGradient><linearGradient id="b" x1="49.996661%" x2="49.996661%" y1="99.998516%" y2=".000742%"><stop offset="0" stop-color="#abd33c"/><stop offset="1" stop-color="#6cb02f"/></linearGradient><path d="m91.7941754 237.859248c-60.775426 0-91.7941754-35.060913-91.7941754-100.522777v-45.727635-91.608836l59.5345348 59.691632v69.763503c0 27.119562 7.1752812 44.377305 31.2464521 48.25178 8.4091118 1.646873 25.9104431 1.069673 37.0378661 1.069673v-41.422466c0-.377739.051189-1.052022.148271-1.397988.465996-1.67688 1.980484-2.905416 3.773863-2.908946 1.014954-.001765 1.964597.526011 2.944248 1.493306l103.172247 103.302867-69.253378.015887z" fill="url(#a)" transform="matrix(1 0 0 -1 0 237.859248)"/><path d="m196.200253 196.452668v-69.761738c0-27.119562-7.177046-44.3790699-31.246452-48.2535452-8.409112-1.6451075-25.910443-1.0679078-37.037866-1.0679078v41.420701c0 .375974-.051189 1.052021-.148271 1.397988-.465996 1.678645-1.978719 2.905415-3.773863 2.908946-1.014954.00353-1.964597-.526011-2.944248-1.491541l-103.1722475-103.3028675 69.2533782-.0158863h76.8099293c60.775426 0 91.794175 35.0609128 91.794175 100.5210118v45.7294 91.607071z" fill="url(#b)" transform="matrix(1 0 0 -1 0 274.431116)"/></svg>