<svg height="256" preserveAspectRatio="xMidYMid" viewBox="0 0 256 256" width="256" xmlns="http://www.w3.org/2000/svg"><path d="m128.0001 231.899c-57.382 0-103.899-46.517-103.899-103.899s46.517-103.899 103.899-103.899 103.899 46.517 103.899 103.899-46.517 103.899-103.899 103.899m0-231.899c-70.692 0-128 57.308-128 128s57.308 128 128 128 128-57.308 128-128-57.308-128-128-128m12.9265 117.0906c3.138-7.877 5.668-16.052 9.458-23.597 3.989-7.943 9.162-13.113 18.91-12.814 9.333.286 16.591 6.262 19.84 14.108 5.136 12.403 8.887 24.698 13.079 37.474 2.676 8.156 5.29 17.047 13.194 21.224 7.307 4.861 4.425 9.451 2.53 12.723-3.674 4.556-9.686 3.009-10.213 2.94-6.172-.809-15.509-10.74-18.296-17.782-5.706-14.416-6.951-22.712-12.345-37.254-.553-1.492-2.044-7.076-2.867-8.667-1.68-3.251-6.297-3.436-8.197-.309-.552.908-1.007 1.771-1.358 2.675-4.027 10.374-12.589 35.227-13.442 37.089-11.032 24.083-27.139 27.016-45.998 6.833-3.201-3.425-6.146-8.053-9.258-11.536-5.587-6.252-10.432-6.785-15.431-.147-3.695 4.906-7.574 9.601-11.076 14.661-5.083 7.343-11.775 13.487-20.814 14.437-5.12.538-10.346-1.656-11.756-7.201-1.323-5.2 2.229-9.58 6.84-10.794 6.973-1.836 7.987-3.058 11.456-8.605.466-.745 3.95-6.303 4.409-7.054 16.775-27.451 37.379-27.157 56.135-1.288 1.336 1.844 3.535 4.896 5.522 7.659 2.029 2.82 6.317 2.513 7.921-.568 6.325-7.566 9.416-18.33 11.757-24.207" fill="#298eea"/></svg>