<svg height="317" preserveAspectRatio="xMidYMid" viewBox="0 0 256 317" width="256" xmlns="http://www.w3.org/2000/svg" xmlns:xlink="http://www.w3.org/1999/xlink"><linearGradient id="a" x1="16.107416%" x2="72.708733%" y1="58.187048%" y2="72.889608%"><stop offset="0" stop-color="#ffd441"/><stop offset="1" stop-color="#ffb047"/></linearGradient><linearGradient id="b" x1="70.213094%" x2="100%" y1="65.796781%" y2="0%"><stop offset="0" stop-color="#ffd754"/><stop offset="1" stop-color="#ffb532"/></linearGradient><linearGradient id="c" x1="22.177886%" x2="22.177886%" y1="66.13799%" y2="9.316171%"><stop offset="0" stop-color="#ffd642"/><stop offset="0" stop-color="#ffd441"/><stop offset="1" stop-color="#ffb532"/></linearGradient><linearGradient id="d" x1="88.952957%" x2="12.578611%" y1="24.298487%" y2="6.966288%"><stop offset="0" stop-color="#ffd441"/><stop offset="1" stop-color="#ffa829"/></linearGradient><g fill-opacity=".7"><path d="m211.6896 309.978667v-81.858134h-81.201067z" fill="#ffdf51"/><path d="m220.801067 263.565867v-88.533334h-87.821867z" fill="#ff8900"/><path d="m167.466667 228.1184v88.533333h87.821866z" fill="url(#a)"/><path d="m202.443733 180.962133v-70.026666h-69.466666z" fill="#ffdf4f"/></g><path d="m235.424 164.266667v-88.5333337h-87.821867z" fill="url(#b)" fill-opacity=".8"/><path d="m85.7354667 0v88.5333333h87.8218663z" fill="url(#c)" fill-opacity=".8"/><path d="m106.333867 138.666667v-88.5333337h-106.19840033l87.44213333 88.5514667z" fill="url(#d)" fill-opacity=".88"/><path d="m106.333867 316.174933v-107.108266h-106.19840033z" fill="#ffb700" fill-opacity=".7"/><path d="m106.357333 227.466667v-88.533334h-87.8218663z" fill="#ffb700" fill-opacity=".5"/><path d="m132.976 110.933333v88.533334h87.822933z" fill="#ffcd25" fill-opacity=".7"/><path d="m106.135467 120.8992v-88.5333333h-87.8229337z" fill="#ff8900" fill-opacity=".7"/><path d="m130.488533 228.1184v88.533333h87.822934z" fill="#ff8900" fill-opacity=".7"/></svg>