<svg height="182" preserveAspectRatio="xMidYMid" viewBox="0 0 256 182" width="256" xmlns="http://www.w3.org/2000/svg"><path d="m37.6004 90.7871779-1.0224.118948-30.354-30.353h-.001c-4.147-4.148-6.222-9.584-6.223-15.021 0-5.436 2.073-10.872 6.221-15.021 8.296-8.295 21.745-8.295 30.042.001l30.355 30.355-.219 1.549-27.973 28.275 28.0736 28.1746001.119 2.081-30.088 30.087c-8.297 8.297-21.745 8.299-30.043.002-8.295-8.296-8.295-21.745.003-30.042l30.087-30.0870001z" fill="#1db2ca"/><path d="m127.9533 122.204005-31.296-31.2949995 30.645-30.645c1.022-1.263 2.102-2.475 3.243-3.629 8.788-11.3 7.31-20.6-.169-28.078-4.143-4.143-9.947-6.842-15.376-6.847 0 0-8.667-.041-15.573 6.435-.371.348-.763.677-1.128 1.042l-31.682 31.682-30.04 30.04 30.04 30.0399995 31.416 31.415c.594.594 1.221 1.136 1.861 1.65 10.772 8.655 23.404 7.689 31.106-.012 7.702-7.704 7.333-19.667-1.279-29.82-.607-.644-1.197-1.302-1.768-1.978" fill="#2a3645"/><path d="m165.1613 0c-23.172 0-44.313 8.681-60.361 22.962-1.86 1.655-3.655 3.381-5.373 5.181 3.975-3.444 8.92-5.175 13.871-5.181h.043c5.429.006 10.857 2.079 15 6.222 7.478 7.478 8.211 19.144 2.204 27.449 1.287-1.303 2.649-2.53 4.075-3.682 8.36-6.751 18.983-10.806 30.541-10.806 26.85 0 48.694 21.844 48.694 48.694s-21.844 48.694-48.694 48.694c-11.558 0-22.181-4.055-30.541-10.807-1.736-1.402-3.371-2.923-4.899-4.546 6.601 8.338 6.057 20.48-1.646 28.183-7.701 7.702-19.843 8.248-28.181 1.649 1.53 1.581 3.118 3.106 4.76 4.573.022.02.044.04.066.059 16.058 14.324 37.231 23.033 60.441 23.033 50.169 0 90.839-40.669 90.839-90.838s-40.67-90.839-90.839-90.839" fill="#6ac08f"/></svg>