<svg height="256" preserveAspectRatio="xMidYMid" viewBox="0 0 256 256" width="256" xmlns="http://www.w3.org/2000/svg"><path d="m208.418 208.418c-21.48 21.48-50.04 33.31-80.418 33.31s-58.937-11.83-80.418-33.31c-21.48-21.48-33.31-50.04-33.31-80.418s11.83-58.937 33.31-80.418c21.481-21.48 50.04-33.31 80.418-33.31s58.938 11.83 80.418 33.31c21.48 21.481 33.31 50.04 33.31 80.418s-11.83 58.938-33.31 80.418m37.52-130.244c-6.447-15.243-15.675-28.931-27.428-40.684s-25.442-20.981-40.684-27.428c-15.785-6.677-32.549-10.062-49.826-10.062s-34.04 3.385-49.826 10.062c-15.243 6.447-28.931 15.675-40.684 27.428s-20.981 25.441-27.428 40.684c-6.677 15.786-10.062 32.549-10.062 49.826s3.385 34.041 10.062 49.826c6.447 15.242 15.675 28.931 27.428 40.684s25.441 20.981 40.684 27.428c15.786 6.676 32.549 10.062 49.826 10.062s34.041-3.386 49.826-10.062c15.242-6.447 28.931-15.675 40.684-27.428s20.981-25.442 27.428-40.684c6.677-15.785 10.062-32.549 10.062-49.826s-3.385-34.04-10.062-49.826m-57.9463-37.6837h-109.179v167.872c0 2.955 2.396 5.352 5.352 5.352s5.352-2.397 5.352-5.352v-64.759h77.246c2.956 0 5.352-2.396 5.352-5.351 0-2.956-2.396-5.352-5.352-5.352h-77.246v-9.812h76.176c2.955 0 5.351-2.396 5.351-5.352s-2.396-5.352-5.351-5.352h-76.176v-61.19h98.475c2.956 0 5.352-2.396 5.352-5.352s-2.396-5.352-5.352-5.352" fill="#3b99ed"/></svg>