<svg height="322" preserveAspectRatio="xMidYMid" viewBox="0 0 256 322" width="256" xmlns="http://www.w3.org/2000/svg"><path d="m252.464 309.711c0 4.974-3.521 8.582-8.479 8.582h-231.155c-4.958 0-9.294-3.608-9.294-8.582v-296.499c0-4.975 4.336-8.908 9.294-8.908h231.155c4.959 0 8.479 3.933 8.479 8.908z" fill="#fff"/><path d="m243.985 321.829h-231.155c-7.074 0-12.83-5.436-12.83-12.119v-296.498c0-6.862 5.756-12.444 12.83-12.444h231.155c6.849 0 12.015 5.349 12.015 12.444v296.498c0 6.909-5.166 12.119-12.015 12.119zm-231.155-313.989c-3.121 0-5.758 2.46-5.758 5.372v296.498c0 3.159 2.928 5.047 5.758 5.047h231.155c3.003 0 4.943-1.981 4.943-5.047v-296.498c0-3.163-2.032-5.372-4.943-5.372z"/><path d="m203.439 60.164c-15.099 0-27.382 12.284-27.382 27.383 0 6.277 2.128 12.064 5.694 16.688l-46.019 46.019c-2.559-1.65-5.602-2.613-8.866-2.613-3.246 0-6.272.951-8.821 2.584l-45.99-45.99c3.566-4.624 5.695-10.411 5.695-16.688 0-15.099-12.284-27.383-27.383-27.383s-27.383 12.284-27.383 27.383 12.284 27.383 27.383 27.383c6.277 0 12.064-2.128 16.688-5.694l45.99 45.99c-1.633 2.549-2.584 5.575-2.584 8.821 0 7.983 5.732 14.649 13.296 16.106v65.39c-13.622 1.566-24.237 13.162-24.237 27.197 0 15.099 12.284 27.383 27.383 27.383s27.383-12.284 27.383-27.383c0-13.766-10.212-25.187-23.457-27.098v-65.677c7.137-1.777 12.442-8.238 12.442-15.918 0-3.227-.94-6.236-2.555-8.776l46.035-46.036c4.624 3.567 10.411 5.695 16.688 5.695 15.1 0 27.383-12.284 27.383-27.383s-12.283-27.383-27.383-27.383zm-153.072 47.694c-11.2 0-20.311-9.111-20.311-20.311 0-11.199 9.111-20.311 20.311-20.311 11.199 0 20.311 9.112 20.311 20.311 0 4.325-1.363 8.336-3.677 11.634l-8.064-8.065c.514-1.177.804-2.475.804-3.84 0-5.309-4.32-9.629-9.63-9.629-5.309 0-9.628 4.32-9.628 9.629 0 5.31 4.319 9.629 9.628 9.629 1.357 0 2.648-.285 3.82-.794l8.07 8.07c-3.298 2.314-7.309 3.677-11.634 3.677zm96.847 164.882c0 11.2-9.111 20.311-20.311 20.311-11.199 0-20.311-9.111-20.311-20.311 0-10.129 7.454-18.55 17.165-20.067v11.344c-3.773 1.305-6.494 4.884-6.494 9.095 0 5.309 4.319 9.629 9.629 9.629 5.309 0 9.629-4.32 9.629-9.629 0-3.906-2.342-7.27-5.692-8.779v-11.52c9.327 1.834 16.385 10.07 16.385 19.927zm56.225-164.882c-4.325 0-8.336-1.363-11.634-3.677l8.07-8.07c1.172.509 2.462.794 3.819.794 5.309 0 9.629-4.319 9.629-9.629 0-5.309-4.32-9.629-9.629-9.629s-9.629 4.32-9.629 9.629c0 1.366.29 2.663.804 3.841l-8.064 8.064c-2.313-3.298-3.677-7.309-3.677-11.634 0-11.199 9.112-20.311 20.311-20.311 11.2 0 20.312 9.112 20.312 20.311 0 11.2-9.112 20.311-20.312 20.311z"/><path d="m138.638 14.166h-7.728l-8.447 9.873-8.446-9.873h-8.909l12.901 15.106-12.863 15.027h8.951l8.367-9.794 8.406 9.794h7.7465 7.7655l8.367-9.794 8.406 9.794h8.933l-12.884-15.026 12.964-15.107h-8.975l-8.445 9.873-8.446-9.873zm-.022461 28.7480127-11.695539-13.6410127 11.715006-13.6515428 11.657994 13.6505428zm-115.835539-17.0130127h17.877v6.662h-17.877zm-3.96-11.734c-.465 0-.907.085-1.313.254-.409.17-.768.413-1.066.72-.296.303-.53.661-.697 1.062-.169.405-.255.841-.255 1.294v26.802h6.622v-23.512h20.869v-6.62zm33.573 23.511v-23.512h-6.621v26.803c0 .467.085.909.254 1.313.169.406.406.763.703 1.059.299.299.656.536 1.06.704.405.169.847.254 1.314.254h24.46v-6.621zm44.99-23.512v23.514h-8.445c-.15 0-.466-.024-.948-.068-.471-.042-1.028-.153-1.658-.328-.625-.173-1.296-.444-1.996-.807-.672-.348-1.3-.837-1.869-1.454-.566-.614-1.042-1.398-1.415-2.328-.372-.926-.561-2.091-.561-3.462v-15.067h-6.621v15.066c0 1.74.212 3.346.63 4.775s1.003 2.72 1.74 3.836c.737 1.115 1.608 2.093 2.592 2.908.974.808 2.031 1.483 3.144 2.008 1.106.522 2.267.914 3.45 1.164 1.177.25 2.359.376 3.512.376h11.736c.453 0 .888-.085 1.293-.254.402-.168.759-.402 1.062-.696.308-.3.55-.658.721-1.068.168-.406.254-.847.254-1.312v-26.803zm105.685 7.239c-.634-1.559-1.529-2.918-2.659-4.04-1.13-1.123-2.484-2.013-4.025-2.646-1.542-.634-3.239-.954-5.045-.954h-7.05c-1.807 0-3.508.32-5.055.953-1.548.634-2.906 1.524-4.035 2.647-1.131 1.122-2.029 2.481-2.67 4.038-.64 1.555-.965 3.266-.965 5.085v5.488c0 1.832.325 3.547.966 5.097s1.538 2.908 2.667 4.035c1.13 1.131 2.49 2.022 4.04 2.649 1.548.626 3.247.943 5.052.943h7.05c1.807 0 3.503-.318 5.043-.943 1.543-.628 2.898-1.519 4.028-2.649 1.129-1.128 2.024-2.486 2.658-4.038.633-1.547.954-3.261.954-5.094v-5.488c0-1.821-.321-3.531-.954-5.083zm-5.667 5.084v5.488c0 .935-.149 1.788-.441 2.536-.289.738-.705 1.376-1.232 1.898-.531.524-1.174.937-1.914 1.226-.748.293-1.594.442-2.516.442h-7.009c-.922 0-1.768-.149-2.516-.442-.739-.289-1.383-.702-1.914-1.226-.528-.522-.942-1.161-1.231-1.898-.293-.749-.442-1.602-.442-2.536v-5.488c0-.934.149-1.788.442-2.536.29-.738.704-1.377 1.23-1.898.531-.524 1.176-.936 1.915-1.226.748-.293 1.594-.442 2.516-.442h7.05c.907 0 1.747.149 2.496.441.74.291 1.379.703 1.901 1.224.522.522.933 1.161 1.223 1.9.293.748.442 1.602.442 2.537zm31.855 8.268c.153-.025.308-.054.464-.085.778-.156 1.558-.413 2.319-.761s1.498-.798 2.19-1.336c.707-.547 1.339-1.215 1.878-1.985.541-.771.975-1.669 1.289-2.668s.473-2.142.473-3.396l-.001-3.324c0-.705-.121-1.468-.36-2.266-.246-.816-.65-1.586-1.204-2.288-.562-.71-1.295-1.305-2.18-1.77-.899-.472-2-.711-3.272-.711h-19.767c-.465 0-.907.085-1.314.254-.408.17-.766.412-1.067.72-.295.303-.529.661-.696 1.064-.169.406-.254.841-.254 1.292v26.802h6.621v-23.512h16.477c.084 0 .176.005.274.015l.078.073c.001.001.042.092.042.366v3.285c0 .586-.091 1.106-.269 1.547-.174.431-.424.803-.744 1.105-.325.311-.723.562-1.182.749-.47.192-1.001.313-1.523.358h-12.484v6.621h4.189l10.855 9.393h10.216z"/><path d="m235.905 311.221h-214.871c-5.359 0-9.719-3.714-9.719-8.28v-245.825c0-4.555 4.36-8.26 9.719-8.26h214.871c4.904 0 8.073 3.242 8.073 8.26v245.825c0 5.03-3.169 8.28-8.073 8.28zm-214.871-260.244c-4.189 0-7.597 2.754-7.597 6.139v245.825c0 3.396 3.408 6.158 7.597 6.158h214.871c3.726 0 5.951-2.302 5.951-6.158v-245.825c0-3.844-2.225-6.139-5.951-6.139z"/></svg>