<svg height="102" preserveAspectRatio="xMidYMid" viewBox="0 0 256 102" width="256" xmlns="http://www.w3.org/2000/svg"><path d="m205.033306 0c-10.047885 0-19.406324 2.92069408-27.301507 7.93881888l-49.733254 36.52613042-26.21352-19.2492358c-1.579618 2.5628799-3.1708729 5.1112146-4.6923101 7.7497301-.3665413.6341746-.7069011 1.2770764-1.0676243 1.911251l21.9110234 16.089999-45.977659 33.7625254c-6.3010193 3.9272281-13.5503915 6.0042954-20.9946705 6.0042954-21.925569 0-39.7668208-17.8383428-39.7668208-39.7668208 0-21.9284781 17.8383427-39.7668209 39.7668208-39.7668209 7.444279 0 14.6965603 2.0741583 20.9946705 6.0042954l4.5701299 3.3541437c1.8879785-3.2639629 3.8457745-6.4522903 5.8210248-9.6173452l-4.0843173-2.99923867c-7.8922739-5.02103385-17.2536221-7.93881887-27.3015079-7.93881887-28.1451347 0-50.9637845 22.81864974-50.9637845 50.96378454 0 28.1451347 22.8157407 50.9637844 50.9637845 50.9637844 10.0478858 0 19.409234-2.920694 27.3015079-7.9388188l49.7332526-36.5232213 26.315338 19.3248713c1.611618-2.6414246 3.220327-5.2915763 4.811581-8.0522722.314179-.5469028.599266-1.0908967.910536-1.6377995l-21.972114-16.1365439 45.97475-33.7625255c6.301019-3.9272281 13.5533-6.0042954 20.99467-6.0042954 21.928479 0 39.766821 17.8383428 39.766821 39.7668209 0 21.928478-17.838342 39.7668208-39.766821 39.7668208-7.444279 0-14.693651-2.0741583-20.99467-6.0042954l-4.503222-3.3075988c-1.908342 3.2959626-3.839956 6.4988352-5.780298 9.6464358l3.979592 2.9206941c7.895183 5.0210339 17.253622 7.9388189 27.301507 7.9388189 28.145135 0 50.963785-22.8186498 50.963785-50.9637845-.002909-28.1451347-22.81865-50.9637845-50.966694-50.9637845z" fill="#44b74a"/></svg>