<svg height="400" preserveAspectRatio="xMidYMid" viewBox="0 0 256 400" width="256" xmlns="http://www.w3.org/2000/svg" xmlns:xlink="http://www.w3.org/1999/xlink"><linearGradient id="a" x1="14.882517%" x2="81.606256%" y1="9.005265%" y2="56.899723%"><stop offset="0" stop-color="#3285ef"/><stop offset="1" stop-color="#a63ee1"/></linearGradient><path d="m128.730479 331.333807c.466506.137676.958043.210497 1.400655.414166.442611.202532.820366.524534 1.226568.79306l.078509.067131.398236.352723.681554.613285c1.004693.910254 1.994595 1.836438 2.973119 2.775138 1.828474 1.75224 3.615986 3.547717 5.357986 5.386432 1.89788 2.003698 3.743422 4.059735 5.509316 6.179491 1.144645 1.373346 2.257431 2.772863 3.323567 4.206514 1.025174 1.374484 2.009387 2.780827 2.935571 4.224719.824918 1.28801 1.606599 2.605603 2.317735 3.958469.624663 1.184469 1.196985 2.398521 1.694212 3.642156.86019 2.152753 1.504195 4.413597 1.720381 6.726782.039824.428957.064856.857915.073958 1.286872.007965.378894.003414.756649-.005689 1.134405-.017067.64173-.054615 1.282321-.111506 1.921775-.234391 2.564642-.820367 5.099701-1.789788 7.487982-.66221 1.630493-1.499645 3.190442-2.497511 4.640023-.815816 1.185606-1.736311 2.297255-2.746693 3.322429-.801025.81354-1.660077 1.573602-2.563505 2.273361-.722515.559806-1.474612 1.083203-2.249467 1.567913-.631489.393685-1.278907.763476-1.93998 1.109373-3.86403 2.016214-8.147916 3.160859-12.476177 3.587541-.667899.065993-1.336936.113782-2.008249.146778-.739582.036411-1.479164.051202-2.219883.048927-1.529228-.006827-3.058456-.095577-4.578581-.274215-2.531645-.29697-5.038259-.843123-7.451571-1.669179-2.073105-.709999-4.076803-1.629356-5.95079-2.76945-2.00256-1.218603-3.851514-2.688664-5.462665-4.391978-1.069549-1.130991-2.033281-2.363248-2.86844-3.677428-.789646-1.240222-1.464372-2.552127-2.0173516-3.914095-.9216327-2.271085-1.4985066-4.674157-1.75224-7.110226-.0807851-.763476-.1297113-1.531504-.1479164-2.299531-.0170673-.613284-.0159295-1.22543.0216185-1.838714.0694069-1.121889.2434931-2.234675.4972266-3.329256.2799033-1.20495.6553833-2.389419 1.0991324-3.545442.4494382-1.173091.9682835-2.320011 1.5349165-3.4419.68838-1.358555 1.448443-2.682976 2.256294-3.976675.864742-1.382449 1.785237-2.731901 2.744417-4.050633 1.476889-2.033281 3.047078-4.000569 4.676433-5.913241 1.714692-2.015076 3.495378-3.972124 5.326128-5.881383 1.628217-1.6999 3.295121-3.361115 4.998435-4.987057.708861-.67814 1.424548-1.349452 2.147063-2.011663.554118-.508604 1.112786-1.013796 1.678282-1.511022l.077372-.067131c1.222016-.790784 1.233395-.795335 2.627222-1.207226zm2.309771-331.27805391 3.433936.07964728 1.522401.09557673 9.31418.75209785 12.85507 1.79889063.935287.20708292 12.468212 3.06642014 3.515858 1.03427677 3.992604 1.35855497 4.86076 1.81937132 3.770729 1.5770161 5.860902 2.7455554 3.279192 1.6543877 6.635756 3.8640307 2.029868 1.2197412 9.05362 6.5401792 2.21078 1.9251884 6.238658 5.640165 5.356848 5.690229 1.470061 1.621391 6.28417 8.2639738.942114 1.4814394 4.840279 8.0864742 1.358555 2.5782961 2.730763 6.0110937 2.841132 7.0021334.942114 2.7205234 3.03001 10.9332954 2.365524 14.7848102.41189 4.59451.377756 6.601621.030721.960319-.137676 7.379889-.087612 1.388138-.360688 2.916228-2.079932 11.78097-.314038 1.433651-4.79249 14.80074-4.450007 10.668184-5.666335 11.221163-10.151615 17.524677-5.223723 7.891907-6.323994 9.36652-4.559237 6.190869-8.898877 11.790072-6.098706 7.600626-9.025174 10.890058-6.303513 7.296828-9.79889 10.933296-6.168113 6.700611-18.228986 18.857062-.413028.423268-9.764756 9.50761-5.398948 5.083771-.332243.304936-.418717.392547-.534774.376618-.390272.175224-1.067273.353861-2.546438-.108092-.226425-.076234-1.384725-.867018-.1775-.164983-.178637-.162708-.728204-.671313c-.671313-.623524-1.34035-1.247049-2.008249-1.873987l-.15133-.144503-17.886503-17.594083-5.5354854-5.68454-14.153321-15.074954-3.373631-3.65581-17.0649979-19.755938-4.7754231-5.863177-15.0260276-19.381596-1.4905419-1.97639-11.4191438-16.656521-3.0960034-4.950647-8.1979804-13.948514-2.3871426-4.325985-7.1659793-14.977101-1.13440474-2.934434-4.11548855-11.464656-1.42341061-4.875551-1.15602333-4.71967-.97852368-5.153179-.78395676-5.765325-.30265965-3.509031-.14222728-6.57659.02958327-1.119613.16953492-3.547717 1.4290997-14.3456125.33793202-1.8512303 3.26098705-14.3194425.06940692-.2662494.54046366-1.5986347 2.27904992-6.6186886.70430949-1.6680416 3.71042525-8.0944389 2.522543-4.7185322 3.5602333-5.8438344 3.5545441-5.1907268 2.4736169-3.242782 2.9116768-3.4646565 3.180202-3.4839994 2.5930878-2.6010525 6.8394254-5.9667188 5.107666-4.1371071 6.0429527-4.0574598 4.2964016-2.7273504 9.1161997-4.7594936 12.9335798-5.31930027.6485564-.25714692 11.4987911-3.32925615 4.5114493-.99900441 6.2079359-1.23794623 4.209928-.6360404 6.486702-.80102403 4.3806-.38458257 8.732755-.47105675h.014791l.038686-.00113781 3.24392-.03413455.327692.00113782.030721-.00568909.246906-.00227564zm-7.371924 20.34191441c-1.301664.1365382-2.595363.3151756-3.87996.5620822-1.922913.3686531-3.820794.8738444-5.673162 1.5076091-1.999147.6815532-3.943678 1.5132983-5.822216 2.4770303-1.245911.6405917-2.459963 1.3380743-3.642156 2.0901721-8.7998862 5.5946523-15.5130138 13.9610298-20.4659365 23.0374058-.8271939 1.5155739-1.6031859 3.0595932-2.3370787 4.6218177-.8738444 1.8614706-1.6873844 3.7513867-2.4463092 5.6640591-.9876262 2.4952354-1.8830892 5.0291566-2.6920779 7.5903855-.9910397 3.1392405-1.8535059 6.3183046-2.6021903 9.5246764-.9421135 4.0347035-1.7067274 8.1103684-2.322287 12.206514-.7816812 5.2089319-1.3187314 10.4531363-1.6566634 15.7087183-.2139098 3.338359-.3436211 6.682407-.4073389 10.027592-.075096 3.846964-.0466506 7.692789.2241502 11.531788.6349025 8.988764 2.1857488 17.889916 4.2133409 26.662495 2.5532641 11.05618 5.8802446 21.93486 9.6373204 32.637178 4.7196701 13.446736 10.1311336 26.645427 15.9806571 39.638174 7.2296973 16.063718 15.1443603 31.804295 23.5528373 47.282037l.638316 1.163988v-253.962168zm33.250462.638316c1.092306.7350306 2.158441 1.5098848 3.197269 2.3177357 9.531504 7.4208506 16.580288 17.6111507 21.619685 28.4989333.927322 2.0025601 1.789788 4.0358413 2.59195 6.0918789 1.050206 2.6898023 2.003698 5.420566 2.851372 8.1797752 3.947092 12.8459679 5.994027 26.2005405 6.80074 39.5960744.200256 3.325843.324278 6.656237.376618 9.987769.042099 2.60219.048926 5.206656-.039824 7.809984-.097852 2.847959-.307211 5.692505-.596217 8.527948-.664486 6.514009-1.749964 12.99047-3.126724 19.390698-1.605462 7.468639-3.554544 14.853079-5.76305 22.164699-2.949225 9.763618-6.342199 19.388423-10.031005 28.896032-3.361115 8.658797-6.966861 17.220879-10.763761 25.697625-6.820082 15.230835-14.253449 30.180628-22.140805 44.885791l1.427962-1.460958c11.127862-11.462381 21.903001-23.27521 32.21391-35.480586 9.860333-11.672878 19.304224-23.714408 28.039255-36.25544 7.087469-10.175509 13.706158-20.692363 19.448727-31.691652 2.587398-4.952922 4.976817-10.009387 7.094296-15.180771 1.703314-4.155312 3.226853-8.391409 4.472764-12.706016 1.522401-5.271512 2.668184-10.667046 3.101692-16.143365.19343-2.442896.208221-4.894894.154744-7.344617-.056891-2.629498-.192292-5.258995-.413028-7.881667-.841986-10.0036974-2.956052-19.9300237-6.595933-29.2976812-2.469065-6.3547148-5.639027-12.4386289-9.471199-18.0799317-6.491253-9.5542597-14.884938-17.7306216-24.461954-24.1706728-7.068127-4.7526667-14.751813-8.5620822-22.7484-11.4805859-5.617408-2.0503485-11.385009-3.6614991-17.239084-4.8709999z" fill="url(#a)"/></svg>