<svg height="179" preserveAspectRatio="xMidYMid" viewBox="0 0 512 179" width="512" xmlns="http://www.w3.org/2000/svg"><path d="m501.292209 104.619772c-7.933076 13.817705-17.616643 21.061759-27.281589 22.439805 5.866008-12.085837 8.975923-25.195898 8.975923-35.9036884 0-22.7936277-13.110061-36.2575108-36.946534-36.2575108-41.434495 0-60.764385 43.1477414-60.764385 69.3864842 0 2.067069 0 4.134139.353822 5.866007-6.908852 7.933077-12.77486 12.085837-17.262821 12.085837-3.445115 0-6.908852-2.420892 2.06707-25.195897l9.664945-23.1288282c3.798938-10.0187677 5.866007-16.5737979 5.866007-22.1046046 0-10.0187678-6.55503-16.9089984-18.99469-16.9089984-16.908998 0-32.10475 12.0858369-36.946534 16.9089984-.353822-10.0187678-6.55503-16.9089984-18.994689-16.9089984-16.219976 0-31.080527 13.1100604-31.76955 13.8177057l4.134138-9.3297447h-31.080526l-25.195898 61.0995852c-4.841783 4.134139-10.018767 5.866007-14.841929 6.908853 5.866007-12.085837 8.975922-25.195897 8.975922-35.903688 0-22.7936277-13.11006-36.5927112-36.946534-36.5927112-19.683712 0-34.171819 13.4638831-44.190587 22.4398051h-10.018767l16.908998-42.4587183c5.866007-14.1529061 15.884775-17.951844 15.884775-17.951844l-5.456318-16.9276206c-8.975922 0-18.305667 3.4451153-24.860697 9.32974467-21.750782 4.48796103-48.6785479-9.32974467-74.5634683-9.32974467-31.0805266 0-44.8796101 19.6837128-44.8796101 39.3488034 0 22.439805 17.9518441 34.8608423 35.9036881 34.8608423 17.262821 0 27.9706118-10.7077907 27.9706118-10.7077907l-12.0858369-18.9946898s-5.5308068 5.8660071-13.8177057 5.8660071c-6.2198298 0-12.4210373-3.7989379-12.4210373-11.3968138 0-7.2440533 5.5308067-14.8419292 20.0189132-14.8419292 15.5309522 0 37.2817342 8.6220994 57.6544702 10.3539682l-17.2628211 43.1477413h-17.262821l-6.5550302 17.6166436h17.262821l-6.2198298 14.5439736c-11.0429912 26.592565-23.8178512 43.501564-41.4344948 43.501564-9.3297447 0-18.3056667-7.244054-18.3056667-18.305667 0-6.908853 4.8417837-18.305667 22.4398051-16.908998v-25.8849207c-31.0619045-2.4395141-49.0137485 18.6222447-49.0137485 42.7939187.35382265 21.396959 15.1957518 43.501564 47.989525 43.501564 17.951844 0 44.5444097-5.866007 63.520477-52.831309l12.421037-30.3728811h7.244054c-4.841784 13.4638831-7.244054 21.0617591-7.244054 30.0376811 0 22.439805 13.463884 36.592711 37.635557 36.592711 17.262821 0 31.080527-8.286899 40.745472-19.683713 5.866007.353823 11.396814 3.109915 16.908998 1.378046l-7.597875 22.439805h31.080526l26.238743-68.6974609c8.286899-9.3297447 17.262821-15.5309522 21.750782-15.5309522 2.756092 0 5.176984.689023 5.176984 3.1099149 0 3.1099149-3.445115 14.1529061-6.908853 23.1288282-6.55503 16.573798-15.884774 40.391649-22.439805 58.008293h31.415727l26.238743-68.6974617c8.286899-8.975922 17.262821-15.5309522 22.104605-15.5309522 2.756092 0 5.176984.6890231 5.176984 3.4451153 0 2.7560923-3.109915 10.0187678-6.908853 19.3298906l-2.756092 6.908852c-14.152906 34.860843-5.530807 50.056595 14.841929 50.056595 12.421038 0 23.817851-6.21983 33.836619-16.219976 5.866007 10.018768 16.908998 16.219976 32.458573 16.219976 17.262821 0 31.080527-7.933077 40.745472-19.329891 20.018913 1.731869 37.635556-11.396813 48.324725-29.683858-1.378046-3.81756-6.55503-7.262675-10.707791-7.951698zm-313.82207.689023c-9.664945-.353823-16.573798 6.908852-16.573798 15.530952 0 4.134138 1.731869 7.933076 4.134138 11.042991-4.134138 5.530807-9.329744 9.664945-13.817705 9.664945-4.841784 0-7.597876-4.134138-7.597876-10.353968 0-14.506729 15.195752-55.5874009 30.372881-55.5874009 4.134139 0 7.597876 2.7560922 7.597876 10.0187677.037245 4.8231615-1.340802 11.7320143-4.115516 19.6837132zm261.698407 0c-9.664945-.353823-16.573798 6.908852-16.573798 15.530952 0 4.134138 1.731869 7.933076 4.134138 11.042991-4.134138 5.530807-9.329744 9.664945-13.817705 9.664945-4.841784 0-7.597876-4.134138-7.597876-10.353968 0-14.506729 15.195752-55.5874009 30.372881-55.5874009 4.134138 0 7.597876 2.7560922 7.597876 10.0187677.018622 4.8231615-1.359424 11.7320143-4.115516 19.6837132z" fill="#eca16c"/></svg>