<svg height="127" preserveAspectRatio="xMidYMid" viewBox="0 0 256 127" width="256" xmlns="http://www.w3.org/2000/svg"><path d="m0 63.2098765c0-17.3241883 6.20393233-32.1902149 18.611797-44.5980795 12.4078646-12.40786467 27.2738912-18.611797 44.5980795-18.611797 17.3241884 0 32.1902149 6.20393233 44.5980795 18.611797l20.367627 19.3141289 20.367627-19.6652949c12.173754-12.173754 26.922725-18.260631 44.246913-18.260631 17.090078 0 31.897577 6.20393233 44.422497 18.611797 12.52492 12.4078646 18.78738 27.2738912 18.78738 44.5980795 0 17.3241884-6.26246 32.1902149-18.78738 44.5980795-12.52492 12.407865-27.332419 18.611797-44.422497 18.611797-17.324188 0-32.190214-6.203932-44.598079-18.611797l-20.016461-19.3141288-20.718793 19.6652948c-12.1737539 12.173754-26.9227251 18.260631-44.2469135 18.260631-17.3241883 0-32.1902149-6.203932-44.5980795-18.611797-12.40786467-12.4078646-18.611797-27.2738911-18.611797-44.5980795zm63.2098765-26.6886145c-7.2574302 0-13.5198902 2.6337449-18.7873799 7.9012346s-7.9012346 11.5299497-7.9012346 18.7873799c0 7.491541 2.5752172 13.8125286 7.7256516 18.962963s11.471422 7.7256516 18.9629629 7.7256516c7.491541 0 13.8125286-2.5752172 18.962963-7.7256516l19.3141285-18.962963-19.3141285-18.6117969c-5.384545-5.3845451-11.7055327-8.0768176-18.962963-8.0768176zm148.5432095 45.6515775c5.150435-5.1504344 7.725652-11.471422 7.725652-18.962963 0-7.4915409-2.575217-13.8125285-7.725652-18.9629629-5.150434-5.1504344-11.412894-7.7256516-18.78738-7.7256516-7.374485 0-13.636945 2.5752172-18.78738 7.7256516l-19.665294 18.9629629 19.314128 18.611797c5.150435 5.1504344 11.471423 7.7841793 18.962963 7.9012346 7.491541.1170553 13.812529-2.3996342 18.962963-7.5500686z"/></svg>