<svg height="283" preserveAspectRatio="xMidYMid" viewBox="0 0 256 283" width="256" xmlns="http://www.w3.org/2000/svg"><path d="m234.666667 54.8392157-85.333334-49.19215688c-13.30196-7.52941176-29.615686-7.52941176-42.917647 0l-85.3333331 49.19215688c-15.56078427 8.7843137-21.0823529 21.8352941-21.0823529 37.145098v98.6352943c0 15.309804 8.03137255 29.364706 21.3333333 37.145098l85.3333337 49.192157c13.30196 7.529412 29.615686 7.529412 42.917647 0l85.082353-49.192157c13.30196-7.529412 21.333333-21.835294 21.333333-37.145098v-98.6352943c0-15.3098039-8.031373-29.3647059-21.333333-37.145098zm-57.22353 158.3686273c0 2.509804-1.756862 4.266667-4.015686 4.266667h-90.6039216c-2.5098039 0-4.2666667-1.756863-4.2666667-4.266667v-18.572549c0-2.258823.7529412-4.266667 2.509804-6.023529l10.7921568-10.541177 6.5254902-60.737255c.2509804-1.756862-.5019608-3.262745-1.7568627-4.266666l-8.7843137-7.780392c-1.7568628-1.505883-2.509804-3.764706-2.509804-6.0235299v-29.6156863c0-2.5098039 1.7568628-4.517647 4.2666667-4.517647h13.301961c2.258823 0 4.517647 2.0078431 4.517647 4.2666666v6.7764706h11.043137v-6.5254902c0-2.5098039 2.007843-4.517647 4.517647-4.517647h10.792157c2.258824 0 4.015686 2.0078431 4.015686 4.2666666v6.7764706h11.043138v-6.2745098c0-2.5098039 2.509803-4.7686274 5.019607-4.7686274h13.050981c2.258823 0 4.768627 2.0078431 4.768627 4.2666666v30.6196076c0 2.007843-1.003921 3.764706-2.258823 5.270589l-9.537255 7.780392c-1.254902 1.003921-1.756863 2.509804-1.756863 4.015686l6.776471 60.988235 10.792157 11.043137c1.254901 1.254902 1.756862 2.760785 1.756862 4.517648zm-49.192157-63.749019c-7.027451-.250981-12.549019 6.023529-12.549019 12.8v26.10196c0 1.505883 1.254902 2.760785 2.760784 2.760785h18.82353c1.505882 0 3.011764-1.505883 3.011764-3.011765v-25.85098c-.25098-6.776471-5.019608-12.54902-12.047059-12.8z" fill="#524b5a"/></svg>