<svg height="233" preserveAspectRatio="xMidYMid" viewBox="0 0 256 233" width="256" xmlns="http://www.w3.org/2000/svg"><path d="m50.6810272 65.5917821c8.9988483 0 13.8777899-4.2992062 13.8777899-13.8817743 0-5.5672529-3.9993774-13.8777899-13.8777899-13.8777899-9.8385681 0-13.8777898 5.2395331-13.8777898 13.8777899 0 8.6392529 4.9187859 13.8817743 13.8777898 13.8817743" fill="#accd3e"/><path d="m86.8766381 37.8322179c-9.0436731 0-13.1486381 4.3998132-13.7801712 11.7700233h-.1384591c.0288871.4223502.0517976.8456965.0657432 1.2690428-.008965.2789106-.0258989.5518444-.0258989.8387238v.9911284c-.6066303 10.7759066-8.6731206 19.5605914-19.1013852 21.293821-1.0339611.2241245-2.2073774.4223502-3.3598755.4223502-.8715953 0-1.5609027-.1414475-2.3169494-.2858833-10.8834864-1.3407626-19.4261167-10.3246692-20.0556576-21.4243113v-.997105c0-.2888716-.0159377-.5637977-.0249027-.8447004.0139455-.4213541.036856-.8427082.0657432-1.2630662h-.1384591c-.6315331-7.3702101-4.7364981-11.7700233-13.7801712-11.7700233h-13.87778993v13.8777899c0 9.5825681 4.87894163 13.8817743 13.87778993 13.8817743h2.3986303c10.651393 1.2003113 19.0864436 9.7220233 20.1931206 20.4202335-.0448249.6026459-.0747081 1.2172451-.0747081 1.856747 0 8.6432374 2.6396887 13.8827704 13.8777898 13.8827704 8.9988483 0 13.8777899-4.3002023 13.8777899-13.8827704v-3.7891984c1.8418055-9.7778054 9.9132763-17.3611829 19.9181946-18.4877821h2.3996264c8.9580078 0 13.8777899-4.2992062 13.8777899-13.8817743v-13.8777899z" fill="#1f9ba0"/><path d="m205.338895 65.5917821c8.998848 0 13.878786-4.2992062 13.878786-13.8817743 0-5.5672529-4.000374-13.8777899-13.878786-13.8777899-9.878413 0-13.87779 5.2395331-13.87779 13.8777899 0 8.6392529 4.919782 13.8817743 13.87779 13.8817743" fill="#accd3e"/><path d="m241.53351 37.8322179c-9.042677 0-13.147642 4.3998132-13.779175 11.7700233h-.13846c.027892.420358.051798.8417121.065744 1.2630662-.008965.2809027-.025899.5558288-.025899.8447004v.997105c-.609619 10.7739144-8.675113 19.5546148-19.101385 21.2878444h-3.21544c-.872591 0-1.682428.0557821-2.46537.1354708-10.881494-1.3417587-19.422132-10.3246692-20.050677-21.4233152v-.997105c0-.2888716-.016934-.5637977-.025899-.8447004.014942-.4213541.037853-.8427082.065744-1.2630662h-.13846c-.631533-7.3702101-4.736498-11.7700233-13.779175-11.7700233h-13.878786v13.8777899c0 9.5825681 4.879938 13.8817743 13.878786 13.8817743h2.398631c10.650397 1.2003113 19.084451 9.7210272 20.192124 20.4192374-.044825.6016498-.074708 1.2172451-.074708 1.8577431 0 8.6432374 2.599844 13.8827704 13.87779 13.8827704 8.998848 0 13.878786-4.3002023 13.878786-13.8827704v-3.7891984c1.840809-9.7778054 9.91228-17.3611829 19.917198-18.4877821h2.398631c8.959004 0 13.878786-4.2992062 13.878786-13.8817743v-13.8777899z" fill="#1f9ba0"/><path d="m205.338895 140.52607c8.998848 0 13.878786-4.300202 13.878786-13.878786 0-5.571237-4.000374-13.881774-13.878786-13.881774-9.878413 0-13.87779 5.243517-13.87779 13.881774 0 8.643237 4.919782 13.878786 13.87779 13.878786" fill="#accd3e"/><path d="m241.53351 112.76551c-9.040685 0-13.146646 4.401805-13.779175 11.770023h-.13846c.027892.423346.051798.843704.065744 1.267051-.008965.280902-.025899.555828-.025899.8447v1.00109c-.609619 10.768933-8.674117 19.547642-19.100389 21.279875h-3.216436c-.872591 0-1.683424.055782-2.46537.136467-10.88249-1.342755-19.422132-10.321681-20.050677-21.416342v-1.00109c0-.288872-.016934-.563798-.025899-.8447.014942-.423347.037853-.843705.065744-1.267051h-.13846c-.632529-7.368218-4.737494-11.770023-13.779175-11.770023h-13.878786v13.881774c0 9.578584 4.879938 13.878786 13.878786 13.878786h2.398631c10.650397 1.199315 19.084451 9.724016 20.192124 20.42123-.044825.602646-.074708 1.218241-.074708 1.858739 0 8.639253 2.599844 13.878786 13.87779 13.878786 8.998848 0 13.878786-4.300202 13.878786-13.878786v-3.789199c1.840809-9.778801 9.91228-17.364171 19.917198-18.49077h2.398631c8.959004 0 13.878786-4.300202 13.878786-13.878786v-13.881774z" fill="#1f9ba0"/><path d="m51.4809027 140.52607c8.9988483 0 13.878786-4.300202 13.878786-13.878786 0-5.571237-4.0003735-13.881774-13.878786-13.881774-9.8784124 0-13.8777899 5.243517-13.8777899 13.881774 0 8.643237 4.8799378 13.878786 13.8777899 13.878786" fill="#accd3e"/><path d="m87.6755175 112.76551c-9.0416809 0-13.1795175 4.401805-13.8180233 11.770023h-.0996109c.0159377.23309.0298832.465183.0428327.697276-.0258989.462195-.0428327.931362-.0428327 1.414475v1.526039c-.8387238 10.527875-8.8056031 19.050584-19.0605448 20.754926h-3.2164358c-.8725914 0-1.6834241.055782-2.4653696.136467-10.8824903-1.342755-19.4231284-10.322677-20.0506771-21.417339v-1.000093c0-.288872-.0169338-.562802-.0258988-.843704.0139455-.423347.036856-.844701.0657432-1.268047h-.1384592c-.6325291-7.368218-4.7384902-11.770023-13.7801712-11.770023h-13.87778984v13.881774c0 9.578584 4.87894163 13.878786 13.87778984 13.878786h2.3996265c10.6494008 1.199315 19.0834553 9.723019 20.1911284 20.419237-.0448249.603642-.0737121 1.219238-.0737121 1.860732 0 8.639253 2.5998444 13.878786 13.8777899 13.878786 8.9988483 0 13.878786-4.300202 13.878786-13.878786v-3.789199c1.8408094-9.778801 9.9122802-17.364171 19.9171985-18.49077h2.3986303c8.9590039 0 13.8777895-4.300202 13.8777895-13.878786v-13.881774z" fill="#1f9ba0"/><path d="m127.07063 102.694848c8.997852 0 13.87779-4.3031904 13.87779-13.8817741 0-5.5712373-3.999377-13.8817743-13.87779-13.8817743-9.878412 0-13.878786 5.2425214-13.878786 13.8817743 0 8.6382568 4.879938 13.8817741 13.878786 13.8817741" fill="#accd3e"/><path d="m163.225401 74.9312996c-9.041681 0-13.146646 4.4018055-13.780171 11.7700234h-.097619c.020918.3117821.029883.6225681.034864.933354-.01793.3874864-.034864.7759689-.034864 1.1783969v.9990973c-.608623 10.7669418-8.633276 19.5396728-19.068514 21.2818678h-3.208467c-.88056 0-1.698365.055782-2.486288.138459-10.901416-1.347735-19.404202-10.324669-20.030754-21.4203268v-.9990973c0-.2888716-.016934-.5637976-.025899-.8456965.014941-.4223502.037852-.8427081.065743-1.2660544h-.138459c-.632529-7.3682179-4.7374944-11.7700234-13.7791753-11.7700234h-13.878786v13.8817743c0 9.5785837 4.8799377 13.8817741 13.878786 13.8817741h2.3717354c10.6772919 1.199315 19.1113459 9.722024 20.2190199 20.420234-.044825.602646-.074709 1.219237-.074709 1.860731 0 8.635269 2.599845 13.873806 13.878786 13.873806 8.997852 0 13.87779-4.295222 13.87779-13.873806v-3.799159c1.838817-9.775814 9.881401-17.356203 19.905245-18.481806h2.371736c8.998848 0 13.87779-4.3031904 13.87779-13.8817741v-13.8817743z" fill="#1f9ba0"/><path d="m127.07063 179.436078c8.997852 0 13.87779-4.303191 13.87779-13.885759 0-5.563268-3.999377-13.878786-13.87779-13.878786-9.878412 0-13.878786 5.243518-13.878786 13.878786 0 8.642241 4.879938 13.885759 13.878786 13.885759" fill="#accd3e"/><path d="m127.07063 28.1729494c8.997852 0 13.87779-4.3071751 13.87779-13.8857587 0-5.57123739-3.999377-13.88177436-13.87779-13.88177436-9.878412 0-13.878786 5.24351751-13.878786 13.88177436 0 8.6392529 4.879938 13.8857587 13.878786 13.8857587" fill="#accd3e"/><g fill="#1f9ba0"><path d="m163.225401.40541634c-9.043673 0-13.148638 4.40379767-13.780171 11.77400776h-.097619c.020918.310786.029883.6195798.034864.9293697-.01793.3884825-.034864.7759688-.034864 1.1783969v1.0000933c-.608623 10.7669417-8.633276 19.5386771-19.068514 21.2808716h-3.208467c-.88056 0-1.698365.0557821-2.486288.1384592-10.901416-1.3477354-19.404202-10.3246693-20.030754-21.4203269v-.9990972c0-.2888716-.016934-.5637977-.025899-.8447004.014941-.4223502.037852-.8417121.065743-1.2630662h-.138459c-.631533-7.37021009-4.7364983-11.77400776-13.7791753-11.77400776h-13.878786v13.88177436c0 9.5785836 4.8799377 13.8857587 13.878786 13.8857587h2.4016186c10.6633467 1.2122646 19.0824587 9.728 20.1891367 20.416249-.044825.6036421-.074709 1.2192374-.074709 1.8607316 0 8.6352684 2.599845 13.878786 13.878786 13.878786 8.997852 0 13.87779-4.3002024 13.87779-13.878786v-3.7991596c1.836825-9.7658521 9.865463-17.3402646 19.875362-18.477821h2.401619c8.998848 0 13.87779-4.3071751 13.87779-13.8857587v-13.88177436z"/><path d="m163.225401 151.671533c-9.044669 0-13.149634 4.404794-13.780171 11.775004h-.097619c.019922.306802.029883.615595.034864.926381-.01793.387487-.034864.774973-.034864 1.177401v1.003082c-.672374 11.887564-10.382444 21.346615-22.39751 21.59365-12.01407-.247035-21.725136-9.706086-22.396513-21.594646v-1.002086c0-.288872-.016934-.562801-.025899-.842708.014941-.42235.037852-.843704.065743-1.261074h-.137463c-.630537-7.37021-4.7355021-11.775004-13.7801713-11.775004h-13.878786v13.878786c0 9.582568 4.8799377 13.885759 13.878786 13.885759h2.3737276c10.3595327 1.164451 18.2666457 9.257836 19.7598137 19.505805.124513 1.026989-.016934 1.610708-.016934 2.4833v21.473121c0 5.150879 4.199595 9.374381 9.358443 9.374381h8.758786c5.119004 0 9.358444-4.223502 9.358444-9.374381v-21.025868c.149416-11.625588 9.241899-21.161339 20.583595-22.436358h2.373728c8.998848 0 13.87779-4.303191 13.87779-13.885759v-13.878786z"/></g></svg>