<svg height="252" preserveAspectRatio="xMidYMid" viewBox="0 0 256 252" width="256" xmlns="http://www.w3.org/2000/svg"><g fill="#b5010f"><path d="m252.722963 5.10923976c13.507758 13.50143954-23.938678 72.84901644-30.269254 79.18275214-6.330577 6.3210998-22.409736.5054353-35.911176-12.9991632-13.507757-13.5014395-19.326581-29.5837578-12.996004-35.9143345 6.327418-6.3337357 65.671836-43.77701189 79.176434-30.26925444"/><path d="m63.3047797 19.3941039c-20.6217588-11.70082635-49.9654349-24.71578442-59.30019241-15.38102687-9.45795739 9.45479837 4.03400521 39.45869927 15.85803141 60.11836577 10.5225304-18.2935976 25.4897322-33.6935783 43.442161-44.7373389"/><path d="m232.123317 79.6356695c1.898541 6.4411407 1.557372 11.7608468-1.522624 14.834525-7.192975 7.1961345-26.623802-.4643686-44.140293-17.1342554-1.222522-1.0961628-2.435566-2.2333921-3.626498-3.4274829-6.333736-6.3368946-11.26173-13.0812965-14.414382-19.2918323-6.134721-11.0058529-7.66998-20.7260048-3.032612-25.3633733 2.527177-2.5240174 6.570659-3.2126729 11.501812-2.3250023 3.215831-2.0343769 7.012914-4.2993587 11.176437-6.6212019-16.928923-8.8293223-36.176529-13.81733658-56.592955-13.81733658-67.7188485 0-122.61859514 54.89026978-122.61859514 122.61543618 0 67.712531 54.89974664 122.609118 122.61859514 122.609118 67.718849 0 122.615436-54.896587 122.615436-122.609118 0-21.869552-5.739849-42.3775879-15.766421-60.1562733-2.167054 3.9550309-4.274087 7.5783699-6.1979 10.6867968"/></g></svg>