<svg height="217" preserveAspectRatio="xMidYMid" viewBox="0 0 256 217" width="256" xmlns="http://www.w3.org/2000/svg"><path d="m219.171752 0h-71.079798c-.7362 0-1.446293.26889555-1.999748.75447393l-16.091963 11.42675567c-1.146069 1.0024844-2.856036 1.0024844-3.999495 0l-16.091963-11.42675567c-.553455-.48557838-1.263548-.75447393-1.999747-.75447393h-71.0797984c-.8406249 0-1.6499222.34460401-2.2242622.95810357-21.3523954 22.77258163-34.47084348 53.35879803-34.60398594 87.00729103-.27411682 69.8449674 56.32709164 127.5269794 126.16683754 128.5033574 71.531438.999873 129.832171-56.684749 129.832171-127.9864514 0-33.8547333-13.144554-64.6341368-34.606597-87.52419703-.57434-.61349956-1.381026-.95810357-2.221651-.95810357zm-27.586595 32.9462318c12.980084 14.8440787 20.858985 34.2646031 20.858985 55.5360688 0 48.1557994-40.310837 86.8950334-89.025313 84.3209464-43.4383798-2.29475-78.3034294-37.851618-79.8097666-81.3239358-.7779696-22.4358095 7.2157991-42.9867395 20.7989405-58.5278582 1.0416439-1.1930608.9659355-2.9917893-.1514169-4.1117523l-26.137692-26.22123236 86.077904 61.76765796c2.221652 1.7856753 5.385743 1.7856753 7.607395 0l86.02047-61.71022396-26.080258 26.16118766c-1.114741 1.1199631-1.198282 2.9186916-.159248 4.1091418z" fill="#ff6b6b"/></svg>