<svg height="187" preserveAspectRatio="xMidYMid" viewBox="0 0 256 187" width="256" xmlns="http://www.w3.org/2000/svg"><path d="m121.474 45.3190339c5.002-9.665 8.723-21.757 11.188-36.22899996-58.339-22.91000004-129.115-5.092-132.662 83.11299996.947 81.9010001 66.864 111.8840001 139.855 83.3800001l35.962-126.0020001 34.631 131.3300001c15.912 2.698 31.174 2.986 45.552 0l-55.942-179.01300006c-16.693-2.53-31.966-2.53-45.818 0l-23.709 74.32199996c7.959 2.397 17.192 3.257 25.307 4.795h-68.995c-2.206 12.485-2.056 24.2490001 0 35.4300001h30.902l-8.792 27.704c-36.495 9.49-62.468-3.796-62.867-52.7450001 1.165-46.618 26.023-63.613 75.388-46.085" fill="#2c3345"/></svg>