<svg height="256" preserveAspectRatio="xMidYMid" viewBox="0 0 256 256" width="256" xmlns="http://www.w3.org/2000/svg"><path d="m128 0c-70.6924019 0-128 57.307374-128 128 0 70.69285 57.3078221 128 128 128 70.69285 0 128-57.307374 128-128s-57.30715-128-128-128zm-100.496027 129.334313 99.16149 99.161714c-54.4510118-.709722-98.4519919-44.710702-99.16149-99.161714zm122.992292 96.649011-120.4795889-120.479589c10.2161455-44.6804584 50.2056721-78.0165641 97.9833239-78.0165641 33.397489 0 62.984927 16.2929172 81.262736 41.3592366l-13.916647 12.2794475c-14.826427-21.2620923-39.459475-35.1771715-67.346089-35.1771715-35.5051492 0-65.740477 22.5524961-77.1688404 54.1129525l105.1074284 105.107428c25.525354-9.243413 45.156519-30.79047 51.731306-57.476739h-43.567261v-19.692101h45.948684v-.000448h18.461512v.000224c0 47.777652-33.335882 87.767178-78.016564 97.983324z" fill="#744c9e"/></svg>