<svg height="248" preserveAspectRatio="xMidYMid" viewBox="0 0 256 248" width="256" xmlns="http://www.w3.org/2000/svg"><path d="m230.399407 247.474h-204.7998177c-14.1378586 0-25.5995893-11.08-25.5995893-24.748v-86.626c0-13.667 11.4617307-24.747 25.5995893-24.747 14.1388931 0 25.6006238 11.08 25.6006238 24.747v61.879h117.3958459l-161.09834924-155.733c-9.99694635-9.664-9.99694635-25.333 0-34.998 9.99798084-9.664 26.20681274-9.664 36.20375914 0l204.7998181 197.98c7.321853 7.076 9.511788 17.722 5.548801 26.969-3.961952 9.247-13.296848 15.277-23.650681 15.277zm0-123.7364c-6.551186 0-13.103406-2.416-18.101879-7.249l-76.799803-74.241c-9.996946-9.665-9.996946-25.334 0-34.999 9.997981-9.664 26.205779-9.664 36.203759 0l76.799803 74.242c9.996946 9.665 9.996946 25.334 0 34.998-4.998473 4.833-11.550694 7.249-18.10188 7.249z" fill="#171717"/></svg>