<svg height="122" preserveAspectRatio="xMidYMid" viewBox="0 0 512 122" width="512" xmlns="http://www.w3.org/2000/svg"><path d="m337.428761 109.815867c-5.698262 0-6.905622-5.350734-6.905622-12.0825919 0-7.2501541 1.983307-11.9058315 7.070398-11.9058315 3.193663 0 5.527494 1.2912464 6.992504 6.902626l14.326544-4.4909012c-2.675367-7.7654543-7.507804-14.6680803-21.145284-14.6680803-10.183171 0-24.335951 4.8354333-24.335951 24.0783009 0 18.991209 12.858538 23.991419 23.730773 23.991419 13.37983 0 19.248859-7.59169 21.92123-14.497312l-14.15278-4.748552c-1.548896 6.039798-4.742559 7.420923-7.501812 7.420923zm41.122155-49.1692271h-16.642399v46.0924051c0 9.011762 1.482986 14.560227 17.247577 14.560227 3.37941 0 9.380261-.53028 10.491752-.784934v-11.953767c-1.111491.25765-3.295525.518296-4.769523.518296-4.853409 0-6.327407-1.210356-6.327407-6.153643v-16.7592402h11.09693v-12.2054246h-11.09693zm-85.428985 44.8700651c-1.108495 1.432055-3.903699 2.777228-8.295734 2.777228-2.237961 0-4.008556-1.081531-4.008556-3.415361 0-3.667021 3.427345-5.9079773 12.301294-6.1746152v6.8127482zm16.642399-13.5356183c0-13.5326222-5.188953-20.1596226-19.347725-20.1596226-9.053705 0-15.243299 2.1630625-19.776143 4.8174578l5.135026 11.8908518c3.565158-2.052213 7.696548-3.5351991 12.130526-3.5351991 4.122402 0 5.215917 1.6986931 5.215917 4.0295278v.6261497c-19.973875.8957835-29.530896 7.4388977-29.530896 18.1912959 0 9.41022 6.872667 13.6225 13.775293 13.6225 7.082381 0 12.040648-2.870102 15.983294-7.801406 0 2.693343.476353 4.682641 1.108494 6.899631h17.556159c-.982666-2.21699-2.249945-5.725225-2.249945-11.459438zm-42.164739-18.0175316h-9.982443v-.566231c0-4.9163235 2.750265-5.0900875 5.770164-5.0900875 1.468006 0 3.103785.2576501 4.212279.5182961v-11.6481814c-1.108494-.2576501-7.136309-.7759462-10.50074-.7759462-15.704672 0-17.238589 8.6282825-17.238589 16.3068547v47.8570082h17.756886v-34.3992842h9.982443zm126.488225-4.4369744h16.642399v-8.8769449h-16.642399zm-175.250005 21.6515964c-4.658673-.6051782-7.073394-1.3841203-7.073394-3.538195 0-2.0731846 1.896425-2.9360128 4.745555-2.9360128 3.708964 0 8.628283 1.7286524 13.634484 4.6586734l6.300444-9.4042288c-5.608383-4.0564912-11.480409-6.3873258-21.576698-6.3873258-10.440821 0-18.898335 5.2638515-18.898335 15.6177905 0 11.9987054 11.132881 13.8082484 18.985217 14.9377144 5.003206.683072 7.166268 1.46501 7.166268 3.879731 0 2.157071-2.591481 3.022895-5.524498 3.022895-5.266847 0-12.253359-2.160067-16.570496-5.61138l-6.300444 9.577993c5.090087 3.708963 12.169473 6.644976 22.957823 6.644976 10.701467 0 21.226174-4.224263 21.226174-16.486611 0-11.2167671-11.216768-12.9424236-19.0721-13.9760199zm279.475464-17.607089c-8.544397 0-13.242017 4.8354333-15.462003 8.0290962v-7.6366292h-16.642399v46.6017129h16.642399v-29.731623c3.32848-1.8155345 5.06612-3.277549 8.002133-3.277549 2.852127 0 4.203292 1.8065467 4.203292 5.0032055v28.0059665h16.642399v-33.620342c0-9.9225249-6.138663-13.3738379-13.385821-13.3738379zm-59.205597 36.2447789c-5.952916 0-7.591691-5.350734-7.591691-12.0825919 0-7.2501541 1.986303-11.9058315 7.591691-11.9058315 5.872025 0 7.59169 5.1799654 7.59169 11.9058315.002996 7.3340399-1.980311 12.0825919-7.59169 12.0825919zm0-36.2447789c-11.213772 0-24.677488 4.8354333-24.677488 24.0783009 0 18.991209 13.544606 23.991419 24.677488 23.991419 11.135877 0 24.683479-5.00021 24.683479-23.991419.002996-19.2458635-13.547602-24.0783009-24.683479-24.0783009zm-45.019862 46.9911849h16.642399v-46.5987179h-16.642399zm-272.944333-15.045568c-2.216989 1.432055-4.00556 2.777228-8.397596 2.777228-2.23796 0-3.960621-1.081531-3.960621-3.415361 0-3.667021 3.481272-5.9079773 12.358217-6.1746152zm16.642399-13.5356183c0-13.5326222-5.290815-20.1596226-19.449587-20.1596226-12.903476 0-20.2584878 4.3920355-24.6445314 8.3316853l7.3430274 10.0393663c4.029528-2.8730983 9.245445-5.1979411 14.802898-5.1979411 4.116409 0 5.305794 1.6986931 5.305794 4.0295278v.6261497c-19.970879.8957835-29.6387494 7.4388977-29.6387494 18.1912959 0 9.41022 6.8247318 13.6225 13.7243614 13.6225 7.082382 0 12.019677-2.870102 15.959327-7.801406 0 2.693343.452386 4.682641 1.081531 6.899631h17.56215c-.988657-2.21699-2.046221-5.725225-2.046221-11.459438zm21.08237-31.3344468h-16.642399v46.0924051c0 9.011762 1.47999 14.560227 17.244581 14.560227 3.379411 0 9.383257-.53028 10.491752-.784934v-11.953767c-1.108495.25765-3.295525.518296-4.766527.518296-4.853409 0-6.327407-1.210356-6.327407-6.153643v-16.7592402h11.093934v-12.2054246h-11.093934zm-87.9335836 30.5315372c-4.6616693-.6051782-7.0793859-1.3841203-7.0793859-3.538195 0-2.0731846 1.8994205-2.9360128 4.7455554-2.9360128 3.7089631 0 8.6282825 1.7286524 13.6374798 4.6586734l6.2944519-9.4042288c-5.6053877-4.0564912-11.4744173-6.3873258-21.5707062-6.3873258-10.4408211 0-18.9013314 5.2638515-18.9013314 15.6177905 0 11.9987054 11.1358771 13.8082484 18.9882134 14.9377144 5.0062014.683072 7.163272 1.46501 7.163272 3.879731 0 2.157071-2.5914807 3.022895-5.5215016 3.022895-5.2668475 0-12.2563555-2.160067-16.5704967-5.61138l-6.3004438 9.577993c5.0900875 3.708963 12.1694734 6.644976 22.9548266 6.644976 10.6984711 0 21.2291701-4.224263 21.2291701-16.486611 0-11.2167671-11.2167673-12.9424236-19.0691036-13.9760199zm103.4674876-21.6515964h16.642399v-8.8769449h-16.642399zm0 51.0356923h16.642399v-46.5987179h-16.642399z" fill="#792980"/><path d="m89.9528411 33.7192082-3.8258044.8118974-1.2343237 12.5259893c-.3984589 4.0864505-.002996 4.8743805 2.3637899 4.3770559.8628282-.1827519 1.7556158-.5931945 2.4177166-1.0695476l.5123043 5.4495993c-2.4596597 1.6897053-4.8833682 2.7023302-6.7678091 3.0977931-5.8630378 1.2463075-8.9398594.4703612-8.3226975-5.7192331l1.6237948-16.6693625-2.1181235.4463938.6710886-6.4172851 2.1031439-.482345.6381334-6.5251386 9.5360497-3.4842683-.784934 8.0051288 5.06612-1.0815312zm-32.6556525 20.4202686c.2576501 2.7203058 1.351165 3.280545 4.2122796 2.7083221 2.3757736-.482345 5.3417457-2.2439527 7.5617309-4.3590803l2.3967451 5.5724325c-4.1883121 3.3973862-8.2507951 5.2159166-11.1119096 5.7911354-7.9871532 1.6058193-11.9058315-.8778079-12.5769202-8.0171125-.9766736-10.3569349 4.2272593-20.4592157 14.5332634-22.5353962 5.8300825-1.1714092 10.7374182.1198373 11.2796818 5.8929971.4943287 5.2338923-3.8617556 10.9411416-12.9813709 12.7746517-1.5638762.3205646-2.8701023.4733571-3.3135001.4493897-.0539268.566231-.0239675 1.4530267 0 1.7226605zm-13.1221797 13.3738379c-.2576501 2.8101837-.5332758 4.9642584-1.0395882 6.0577734-2.1091357 4.6227222-6.9954999 7.4838367-13.4247687 8.7780791-4.1493651.8328689-8.2448033.4943287-10.267057-.5392677l2.5735051-6.507163c1.3901122.7699543 3.7898532 1.177401 7.6186536.4014548 2.9629762-.5961904 4.9342991-2.9899396 5.1380224-5.5244976.0748983-.9047713.1557884-1.8095426.4733572-2.5375539-.9886574 1.1983726-2.5405499 2.1750462-5.0211811 2.6753668-5.3387498 1.0725434-8.3975958-1.0845272-9.08666-8.3766243-.5362718-5.7162372.7939218-20.1326592 15.1324496-23.0207371 3.7718777-.7549747 7.2231907-1.1654173 10.7883491-.6621009 0 0-2.5974726 26.1604733-2.885082 29.2552704zm73.5051781-16.77422-12.636839-7.9332264 5.185957-13.9939958-14.7070273-2.4956108-.5602392-14.9107508-14.5452471 3.322488-6.2285414-13.55958564-12.1664776 8.64026624-10.9381456-9.8086795-7.9332264 12.2953026-13.9909998-5.18895325-2.4986068 14.70702735-14.9107507.5632351 3.3224879 14.5482431-13.56258156 6.2195536 8.64026626 12.1694735-10.1502157 10.9381456 12.6338428 7.9332264-5.18595727 13.9939957 14.71002327 2.492615.5632352 14.9167423 14.545247-3.325484 5.6563186 10.395882 7.0164714-10.671507c-3.2595734-2.7023305-5.5844162-6.7168786-5.5844162-12.7956234 0-11.5583035 9.08666-19.3207618 22.6072986-19.3207618 9.9075452 0 16.7891997 2.052213 23.7457525 7.0853778l.653113.4733572.0269634-.0269634c6.3963136-5.7491924 14.8238687-8.8499815 25.0699537-9.2424485l-8.924879-6.4772037zm-82.7326469-4.284182c-3.3943903.6830724-4.7934903 9.1226112-4.4189988 13.0952163.2726297 2.8880779 1.0335963 3.3973862 2.5974725 3.0798175.916755-.1827518 1.9773147-1.7286524 2.2080015-2.2169892l1.5998274-13.8591788c-.1917397-.2936013-1.1234743-.2726298-1.9863026-.0988658zm25.2347304-.7819381c2.1031439-.4254222 4.3201332-1.9833066 4.1313895-3.9995684-.1198373-1.2552953-.9407225-1.8125385-2.2888916-1.5369129-2.3757737.4763531-3.4902601 2.6424116-3.8108248 5.6533227.2786216.0539267.9437184.083886 1.9683269-.1168414z" fill="#f47d30"/></svg>