<svg height="229" preserveAspectRatio="xMidYMid" viewBox="0 0 256 229" width="256" xmlns="http://www.w3.org/2000/svg" xmlns:xlink="http://www.w3.org/1999/xlink"><linearGradient id="a" x1="49.94194%" x2="49.94194%" y1="100.039622%" y2="-.028314%"><stop offset="0" stop-color="#e14760"/><stop offset="1" stop-color="#fa8816"/></linearGradient><path d="m254.777001 80.1724585-60.283871-77.13032256c-3.468387-4.29419355-9.909678-3.96387097-13.047742.49548387l-25.6 36.50064519c-8.092903-4.6245162-17.672258-7.1019355-27.581936-6.9367742-10.735483 0-20.810322 2.6425806-29.2335479 7.2670967l-24.7741935-35.67483866c-3.1380646-4.45935484-9.7445162-4.78967742-13.047742-.49548387l-60.44903224 77.13032253c-2.47741936 3.1380646 1.6516129 7.1019355 4.62451613 4.4593549l52.02580641-46.4103226c1.4864517-1.3212903 3.963871-1.156129 5.2851613.3303226l6.4412904 20.1496774c-29.563871 7.2670968-51.5303226 34.0232258-51.5303226 65.7341932.1651613 35.509678 27.7470967 64.578065 62.596129 67.220646.9909677 12.88258 8.2580645 26.92129 32.04129 35.344516 1.981936.660645 3.468387-1.486452 2.312258-3.138065-2.312258-3.138064-4.789677-7.432258-5.615483-12.056774 5.615483 1.981935 11.56129 3.138064 18.00258 3.138064 5.615484 0 10.900645-.990967 16.185807-2.64258-.825807 4.459355-3.303226 8.588387-5.450323 11.56129-1.156129 1.651613.330323 3.79871 2.312258 3.138065 23.948387-8.423226 32.04129-22.627097 33.527742-35.509678 36.500645-.990968 65.734194-31.050322 65.569032-67.716129-.165161-32.2064514-22.627096-58.9625805-52.686451-65.7341934l6.606451-20.6451612c1.321291-1.6516129 3.633549-1.8167742 5.285162-.3303226l52.025806 46.4103226c2.807742 2.6425806 6.936774-1.4864517 4.459355-4.4593549z" fill="url(#a)"/><ellipse cx="72.688244" cy="133.437855" fill="#fff" rx="48.390257" ry="35.508209" transform="matrix(.52332163 .85213524 -.85213524 .52332163 148.356012 1.666724)"/><path d="m58.6322581 154.747097s-.6606452-2.147097-.6606452-6.110968.6606452-5.945806.6606452-5.945806l18.1677419-7.59742-18.1677419-7.76258s-.6606452-2.147097-.6606452-5.945807c0-3.963871.6606452-5.945806.6606452-5.945806l31.3806451 13.378064s.6606452 2.312258.6606452 6.110968-.6606452 6.44129-.6606452 6.44129z" fill="#e54d42"/><ellipse cx="184.509737" cy="133.955999" fill="#fff" rx="48.720566" ry="36.168827" transform="matrix(.52332163 -.85213524 .85213524 .52332163 -26.196827 221.081176)"/><path d="m162.353548 141.534194s-.660645-1.486452-.660645-5.615484c0-4.129033.660645-5.615484.660645-5.615484h41.620646s.660645 1.486451.660645 5.615484c0 3.963871-.660645 5.615484-.660645 5.615484z" fill="#e54d42"/></svg>