<svg height="249" preserveAspectRatio="xMidYMid" viewBox="0 0 256 249" width="256" xmlns="http://www.w3.org/2000/svg"><path d="m208.722894 153.428763-11.955487 21.918394-39.353482 28.394284-29.390574 1.992581v-72.231073h82.193979z" fill="#f39800"/><path d="m256 124.256606c0 68.865107-57.387914 124.256606-127.750487 124.256606-70.3625734 0-128.249513-55.391499-128.249513-124.256606 0-68.8651068 57.3879142-124.256606 127.750487-124.256606 70.362573 0 128.249513 55.8905217 128.249513 124.256606zm-127.750487-115.77322325c-65.8713454 0-118.76803152 51.89834155-118.76803152 115.77322325 0 63.874882 53.39571152 115.773224 118.76803152 115.773224 65.372319 0 118.768031-51.898342 118.768031-115.773224 0-63.8748817-53.395712-115.77322325-118.768031-115.77322325zm83.836257 120.76344825h-79.345029v-52.8963862s-.499026-3.9921801-4.491228-3.9921801c-3.992203 0-4.491228 3.9921801-4.491228 3.9921801v127.2507412c-42.4171544-2.495112-77.3489283-36.927666-77.3489283-79.34458 0-42.4169135 35.4307992-79.8436022 82.8382063-79.8436022 21.957115 0 35.929825 7.4853378 46.908382 14.9706755 8.483431 5.4892476 16.966862 14.4716529 20.959065 20.9589456.499025.4990225 2.994152 2.9941351 5.988304.998045 3.493177-1.99609 1.497076-5.4892476 1.497076-5.9882701-16.467836-23.9530808-44.413255-39.9218012-75.851852-39.9218012-49.9025341 0-90.8226121 38.4247336-90.8226121 88.8260074 0 49.902252 40.4210527 88.826008 90.8226121 88.826008 36.42885 0 68.366472-20.958946 83.337232-52.397364 3.493177-7.485338 4.990253-14.471653 6.986355-22.955036.499025-4.491202-1.497076-8.483383-6.986355-8.483383zm-4.491228 15.469698c-6.986355 23.454059-20.460039 36.428644-30.440546 43.414959-10.978557 7.485338-24.951267 14.970676-44.912281 15.968721v-66.369995h76.849903s-.998051 4.990225-1.497076 6.986315z" fill="#3e3a39"/></svg>