<svg height="139" preserveAspectRatio="xMidYMid" viewBox="0 0 512 139" width="512" xmlns="http://www.w3.org/2000/svg"><path d="m98.6961598 59.3124474h-43.0606636c-1.110768 0-2.0124002.902699-2.0124002 2.013467v21.0533738c0 1.110768.9016322 2.0145342 2.0124002 2.0145342h16.7980974v26.1569306s-3.7719161 1.28576-14.1999034 1.28576c-12.3027422 0-29.4892352-4.495356-29.4892352-42.2870748 0-37.8002547 17.8960615-42.7736353 34.6973604-42.7736353 14.5434841 0 20.8090261 2.5608481 24.7954134 3.7943235 1.2526815.3841273 2.4114652-.8632194 2.4114652-1.9750542l4.8037248-20.34167158c0-.5196388-.1760585-1.14597959-.7693217-1.57172063-1.6186693-1.15451577-11.4960746-6.68167999-36.4494069-6.68167999-28.7465892 0-58.2336902 12.2301846-58.2336902 71.022993 0 58.794942 33.7605165 67.556245 62.2094068 67.556245 23.5555364 0 37.8450692-10.066268 37.8450692-10.066268.588995-.325441.653017-1.148114.653017-1.525839v-65.6612166c0-1.110768-.9005652-2.013467-2.0113332-2.013467zm221.7993372-51.95320964c0-1.12037112-.88776-2.02413717-1.998528-2.02413717h-24.245897c-1.107569 0-2.008132.90376605-2.008132 2.02413717 0 .00533512.0064 46.85605424.0064 46.85605424h-37.792784v-46.85605424c0-1.12037112-.89203-2.02413717-2.000663-2.02413717h-24.244832c-1.103297 0-2.002796.90376605-2.002796 2.02413717v126.87189324c0 1.119304.899499 2.030539 2.002796 2.030539h24.244832c1.108633 0 2.000663-.911235 2.000663-2.030539v-54.2675763h37.792784s-.066153 54.2633083-.066153 54.2675763c0 1.119304.899497 2.030539 2.00813 2.030539h24.303518c1.110769 0 1.998529-.911235 2.000662-2.030539zm-176.124474 16.96241874c0-8.7303585-6.999652-15.78549556-15.635046-15.78549556-8.626857 0-15.631844 7.05513706-15.631844 15.78549556 0 8.7207555 7.004987 15.7950989 15.631844 15.7950989 8.635394 0 15.635046-7.0743434 15.635046-15.7950989zm-1.923837 83.2126315v-58.5644666c0-1.111835-.897364-2.0209362-2.005998-2.0209362h-24.169073c-1.108634 0-2.100962 1.1438457-2.100962 2.2556805v83.9051273c0 2.465883 1.536509 3.198926 3.525434 3.198926h21.775747c2.389058 0 2.974852-1.172655 2.974852-3.238406zm270.714743-60.5854028h-24.060239c-1.103301 0-2.001727.9091012-2.001727 2.0284054v62.2094064s-6.111895 4.471882-14.787835 4.471882c-8.674872 0-10.977501-3.936238-10.977501-12.430785v-54.2505034c0-1.1193042-.896297-2.0284054-2.000665-2.0284054h-24.418756c-1.102228 0-2.004929.9091012-2.004929 2.0284054v58.3585314c0 25.230757 14.06226 31.403469 33.407331 31.403469 15.869792 0 28.665498-8.767704 28.665498-8.767704s.609268 4.620197.884558 5.168645c.27636.546314.994461 1.097964 1.770186 1.097964l15.534747-.06829c1.102232 0 2.004931-.911235 2.004931-2.025204l-.007469-85.1674114c0-1.1193042-.899499-2.0284054-2.00813-2.0284054zm55.434893 68.7577098c-8.345161-.253951-14.005706-4.040806-14.005706-4.040806v-40.1775751s5.584782-3.4230005 12.436119-4.0354702c8.664206-.7757235 17.012569 1.8416766 17.012569 22.5098565 0 21.7949528-3.767648 26.0961108-15.442982 25.7439948zm9.490077-71.4828791c-13.665326 0-22.960139 6.096953-22.960139 6.096953v-42.96143114c0-1.12037112-.895228-2.02413717-2.000663-2.02413717h-24.314184c-1.105434 0-2.003865.90376605-2.003865 2.02413717v126.87189324c0 1.119304.898431 2.030539 2.007064 2.030539h16.86959c.759715 0 1.33484-.391596 1.759513-1.07769.41934-.681826 1.024342-5.849405 1.024342-5.849405s9.942493 9.421788 28.763659 9.421788c22.095853 0 34.767784-11.207979 34.767784-50.3153337 0-39.1073541-20.238171-44.2173134-33.913101-44.2173134zm-265.857664 2.5074971h-18.187359s-.027742-24.0218238-.027742-24.027159c0-.9091011-.468422-1.3636516-1.519437-1.3636516h-24.784743c-.963519 0-1.481024.423607-1.481024 1.3497805v24.8295579s-12.420114 2.9983267-13.259859 3.2405402c-.836544.2422137-1.452214 1.013669-1.452214 1.9334405v15.6030352c0 1.1225052.896297 2.0273381 2.004931 2.0273381h12.707142v37.5356342c0 27.880168 19.556345 30.619209 32.75325 30.619209 6.029731 0 13.242786-1.936642 14.43358-2.376254.720239-.264621 1.138511-1.010468 1.138511-1.819269l.020273-17.164086c0-1.119304-.945379-2.025204-2.010265-2.025204-1.059551 0-3.770849.431076-6.562173.431076-8.933093 0-11.96023-4.153909-11.96023-9.530624 0-5.372446-.001066-35.6704822-.001066-35.6704822h18.188425c1.108633 0 2.005998-.9048329 2.005998-2.0273381v-19.5435405c0-1.1193042-.897365-2.0220032-2.005998-2.0220032z" fill="#11110f"/></svg>