<svg height="224" preserveAspectRatio="xMidYMid" viewBox="0 0 256 224" width="256" xmlns="http://www.w3.org/2000/svg"><path d="m247.775947 50.434484c-1.054365-2.7413509-4.217463-4.0065898-6.74794-2.9522241-1.897859.8434926-3.163098 2.7413509-3.163098 4.6392092 0 .6326195 0 1.2652389.421747 1.6869852 4.850082 12.863262 7.591433 26.7808896 7.591433 41.5420099 0 59.6771008-44.494234 109.2322898-102.273476 116.6128498v-55.037891c3.584843-.632619 6.958814-1.686985 10.332784-2.741351v46.181219c47.024712-11.38715 82.240527-53.983525 82.240527-105.0148268 0-40.6985173-22.563426-76.3360791-55.881384-94.68204284-2.530477-1.47611203-5.693575-.4217463-6.958813 2.31960461-.421747.63261944-.421747 1.47611203-.421747 2.31960461 0 1.89785832 1.054366 3.5848435 2.530478 4.42833608 30.15486 16.65897854 50.609555 48.92257004 50.609555 85.82537064 0 41.5420097-25.726524 76.9686987-62.207578 91.3080727v-40.909391c6.326194-1.897858 10.965404-7.802306 10.965404-14.971993 0-5.904448-2.952225-10.754531-7.802307-13.495881 3.584844-35.426689 19.822076-25.9373974 19.822076-37.3245474v-6.5370675c0-16.8698517-39.011532-71.90774301-57.357496-73.17298189h-3.37397c-18.345964 1.26523888-57.3574962 56.30313019-57.3574962 73.17298189v6.5370675c0 11.1762768 16.0263591 1.8978584 19.8220758 37.3245474-4.6392092 2.74135-7.5914333 7.802306-7.5914333 13.495881 0 6.958814 4.6392092 12.863262 10.9654036 14.971993v40.909391c-36.2701812-14.339374-62.2075782-49.766063-62.2075782-91.3080727 0-36.9028006 20.4546952-69.1663921 50.6095552-85.82537064 2.3196046-1.26523888 3.3739703-4.21746293 2.1087314-6.74794069-.6326194-1.89785832-2.5304777-2.95222405-4.428336-2.95222405-.8434926 0-1.6869852.21087314-2.5304778.63261944-33.3179572 18.34596374-55.8813839 53.98352554-55.8813839 94.68204284 0 51.0313018 35.2158155 93.6276768 82.6622734 105.2256998v-46.181219c3.37397 1.054366 6.747941 2.108732 10.332784 2.741351v55.037891c-57.7792419-7.591433-102.2734758-56.935749-102.2734758-116.8237228 0-14.5502471 2.7413509-28.4678748 7.5914333-41.5420099 1.0543657-2.5304778-.2108732-5.4827018-2.7413509-6.5370675-.6326195-.2108732-1.2652389-.4217463-1.8978584-.4217463-2.1087314 0-4.00658975 1.2652388-4.85008234 3.3739703-5.48270181 14.1285008-8.43492586 29.3113674-8.43492586 45.1268534 0 68.9555188 54.4052718 125.0477758 122.728171 127.7891268v-64.738056c1.897859.210873 5.271829.210873 5.271829.210873s3.37397 0 5.271829-.210873v64.738056c68.322899-2.741351 122.728171-58.833608 122.728171-127.7891268-.210873-15.815486-2.952224-30.9983526-8.224053-44.9159802zm-96.158155 72.962109c1.897859-1.897859 4.428337-3.163098 7.380561-3.163098s5.482701 1.265239 7.38056 3.163098c1.897858 1.897858 3.163097 4.428336 3.163097 7.38056s-1.265239 5.482702-3.163097 7.38056c-1.897859 1.897858-4.428336 3.163097-7.38056 3.163097s-5.482702-1.265239-7.380561-3.163097c-1.897858-1.897858-3.163097-4.428336-3.163097-7.38056s1.265239-5.482702 3.163097-7.38056zm-47.235584 14.76112c-1.897859 1.897858-4.4283365 3.163097-7.3805606 3.163097-2.952224 0-5.4827018-1.265239-7.3805601-3.163097-2.1087315-1.897858-3.1630972-4.428336-3.1630972-7.38056s1.2652389-5.482702 3.1630972-7.38056c1.8978583-1.897859 4.4283361-3.163098 7.3805601-3.163098 2.9522241 0 5.4827016 1.265239 7.3805606 3.163098 1.897858 1.897858 3.163097 4.428336 3.163097 7.38056-.210873 2.952224-1.265239 5.482702-3.163097 7.38056z" fill="#128379"/></svg>