<svg height="256" preserveAspectRatio="xMidYMid" viewBox="0 0 256 256" width="256" xmlns="http://www.w3.org/2000/svg" xmlns:xlink="http://www.w3.org/1999/xlink"><filter id="a" height="200%" width="200%" x="-50%" y="-50%"><feMorphology in="SourceAlpha" operator="dilate" radius="1" result="shadowSpreadOuter1"/><feOffset dx="1" dy="1" in="shadowSpreadOuter1" result="shadowOffsetOuter1"/><feGaussianBlur in="shadowOffsetOuter1" result="shadowBlurOuter1" stdDeviation="1.5"/><feColorMatrix in="shadowBlurOuter1" result="shadowMatrixOuter1" type="matrix" values="0 0 0 0 0   0 0 0 0 0   0 0 0 0 0  0 0 0 0.14 0"/><feMerge><feMergeNode in="shadowMatrixOuter1"/><feMergeNode in="SourceGraphic"/></feMerge></filter><filter id="b" height="200%" width="200%" x="-50%" y="-50%"><feMorphology in="SourceAlpha" operator="dilate" radius="1" result="shadowSpreadOuter1"/><feOffset dx="0" dy="0" in="shadowSpreadOuter1" result="shadowOffsetOuter1"/><feGaussianBlur in="shadowOffsetOuter1" result="shadowBlurOuter1" stdDeviation="2"/><feColorMatrix in="shadowBlurOuter1" result="shadowMatrixOuter1" type="matrix" values="0 0 0 0 0   0 0 0 0 0   0 0 0 0 0  0 0 0 0.17 0"/><feMerge><feMergeNode in="shadowMatrixOuter1"/><feMergeNode in="SourceGraphic"/></feMerge></filter><clipPath id="c"><path d="m19.9202025 28.0114768 174.7659075-27.68040507c12.727088-2.01559494 24.678616 6.66761181 26.694211 19.39470047l27.680135 174.7656368c2.015865 12.727089-6.667342 24.678616-19.394431 26.694211l-174.7659069 27.680405c-12.7268185 2.015595-24.6783459-6.667611-26.6942109-19.3947l-27.68013505-174.7656372c-2.01586498-12.7270886 6.66734177-24.6786161 19.39443035-26.694211z"/></clipPath><g transform="translate(-1 -1)"><g transform="translate(3.240506 3.240506)"><path d="m19.9202025 28.0114768 174.7659075-27.68040507c12.727088-2.01559494 24.678616 6.66761181 26.694211 19.39470047l27.680135 174.7656368c2.015865 12.727089-6.667342 24.678616-19.394431 26.694211l-174.7659069 27.680405c-12.7268185 2.015595-24.6783459-6.667611-26.6942109-19.3947l-27.68013505-174.7656372c-2.01586498-12.7270886 6.66734177-24.6786161 19.39443035-26.694211z" fill="#f5f5f5" filter="url(#a)"/><g clip-path="url(#c)"><ellipse cx="129.582177" cy="128.848203" fill="#fbfbfb" filter="url(#b)" rx="116.67092" ry="116.67092"/><circle cx="129.582177" cy="128.848203" fill="#fcfcfc" filter="url(#b)" r="72.924084"/><circle cx="129.582447" cy="128.847932" fill="#fff" filter="url(#b)" r="29.168878"/></g></g><path d="m23.2029531 31.5187006 174.7659069-27.68040506c12.579854-1.99227731 24.392994 6.59051256 26.385249 19.17022326l27.680135 174.7656402c1.992538 12.579811-6.590196 24.392988-19.169953 26.385249l-174.7659107 27.680406c-12.5795853 1.992277-24.3927274-6.590514-26.3852496-19.170229l-27.68013469-174.7656348c-1.99253731-12.5798102 6.59019669-24.3929871 19.16995309-26.385249zm-.0844845-.5334356c-12.8743707 2.0389201-21.65810824 14.1287559-19.61890735 27.0031749l27.68013475 174.7656351c2.0391852 12.87432 14.1289763 21.65811 27.0031696 19.619175l174.7659104-27.680406c12.874367-2.038919 21.658104-14.128755 19.618903-27.003174l-27.680134-174.7656354c-2.038912-12.8743185-14.128705-21.65810946-27.003169-19.61917464l-174.7659114 27.68040564z" fill-opacity=".2"/></g></svg>