<svg height="342" preserveAspectRatio="xMidYMid" viewBox="0 0 256 342" width="256" xmlns="http://www.w3.org/2000/svg"><g transform="translate(150.044444)"><path d="m60.18176 19.10528c-21.6860444-15.61742222-46.4739556-25.36817778-46.4739556-14.47466667 0 1.41866667-.2055111 174.58773367-.2055111 174.58773367h79.2042667v-122.6894226c.1863111-7.3251555-11.9765333-22.6261333-32.5248-37.4236444" fill="#d53a56"/><path d="m90.2803911 56.4782222c-4.0213333 5.4897778-23.5285333-1.9612444-43.5704889-16.6421333-20.0419555-14.6808889-33.0296889-31.03217779-29.0076444-36.52195557 4.0213333-5.48977777 23.5278222 1.96053334 43.5697778 16.64142227 20.0426666 14.6808888 33.0296888 31.0328888 29.0083555 36.5226666" fill="#e47176"/><path d="m5.45848889 341.707378h94.81457811v-10.666667h-94.81457811z" fill="#505457"/><path d="m7.11751111 196.048356h91.49653329v-81.540978h-91.49653329z" fill="#e8e8e3"/><path d="m5.45848889 209.203911h94.81457811v-13.155555h-94.81457811z" fill="#adbbb5"/><path d="m.24248889 331.751822h105.24515511v-122.547911h-105.24515511z" fill="#393d3e"/></g><path d="m198.328178 51.4503111c-8.738845.2645333-20.3904 2.1191111-35.748978 27.0101333-7.414044 14.2997334-12.7104 24.0618666-12.7104 24.0618666s-38.661689-3.9359999-64.3491556 10.8928c-16.1528888 9.003378-44.2225777 29.922845-38.3964444 62.229333 3.1779556 11.916089 13.5054222 25.686756 50.0487111 28.864.2645333.530489-55.0805333 19.066312-59.5818667 39.456712-3.1772444 15.094755 2.9127112 23.303111 30.1888 31.512177l-51.1089777 13.504711s-16.61724448 5.078045-16.6698667 19.543467v.1216c.00284444.992.0832 2.028089.25244444 3.108978 1.05884445 6.089955 11.38631116 23.832178 67.52639996 22.773333 22.2428445-1.853866 97.1839996-8.738844 96.3896886-59.052089-.265244-12.180622-10.062933-24.362666-29.393777-33.1008-17.212445-6.884977-37.8680893-14.564977-37.8680893-14.564977s-19.5953778-5.825423-3.1772445-15.093334c12.1806218-6.355911 18.8010668-8.4736 18.8010668-8.4736l6.3552-1.589333s46.077155-4.2368 66.731378-41.309867c2.912711-6.884266 21.173333-45.799111-29.105067-57.723022.778667-.206933 12.334222-31.1047111 27.251911-41.0503111 1.058133-.5290667 5.560178-1.3233778 3.4432 1.3233778-4.423111 5.5310222-9.591467 9.5985777-12.463644 16.4053333-5.361778 12.7068444 2.024533 24.797156 15.4112 26.081422 22.023822 2.113422 42.363733-27.2028442 29.543111-46.7619553-4.098134-6.2535111-11.316622-8.2823111-18.414222-8.2830223-.990578 0-1.9776.0398223-2.955378.1130667m-91.093334 145.2394669c-8.5646218-1.706667-9.2031996-23.292445-3.875555-47.706311 5.328355-24.413156 17.057422-42.235734 25.589333-40.373334 8.532622 1.8624 10.6368 22.703645 5.308445 47.1168-5.036089 23.076267-14.574934 41.144889-25.172623 41.147023-.6144 0-1.229511-.060445-1.8496-.184178m-49.519644 122.7456c.2652444-21.713778 18.272-43.164445 18.272-43.164445s9.0446222 3.426134 21.4897778 7.133156c22.4682662 7.236267 22.9980442 12.462933 21.6739552 18.882133-3.177955 17.275022-28.3342219 23.504356-37.3375997 25.093689-4.0049777.644267-7.3464889.920178-10.1326222.920178-13.2430222.000711-13.9655111-6.239289-13.9655111-8.864711" fill="#f93954"/></svg>