<svg height="256" preserveAspectRatio="xMidYMid" viewBox="0 0 256 256" width="256" xmlns="http://www.w3.org/2000/svg"><path d="m256 74.981v106.038l-3.417.333-123.367-51.822-1.216-1.53z" fill="#f36a22"/><path d="m256 181.019-74.981 74.981-1.145-.881-52.309-123.609.435-3.51z" fill="#f3852f"/><path d="m128 128-2.828 1.943-50.636 123.898.445 2.159h106.038z" fill="#f2c32e"/><path d="m0 181.019 3.174-2.468 121.998-51.002 2.828.451-53.019 128z" fill="#cbdc38"/><path d="m0 74.981 3.174-.215 123.071 50.473 1.755 2.761-128 53.019z" fill="#b5d66d"/><path d="m74.981 0-74.981 74.981 128 53.019.225-3.256-47.729-121.718z" fill="#69c5e5"/><path d="m74.981 0h106.038l-53.019 128z" fill="#6d9fd5"/></svg>