<svg height="257" preserveAspectRatio="xMidYMid" viewBox="0 0 512 257" width="512" xmlns="http://www.w3.org/2000/svg"><path d="m354.947693 213.464917c-3.318006 8.927018-8.058015 16.590032-14.220028 22.989045-6.162012 6.399012-13.509026 11.376022-22.120043 14.852029s-18.091035 5.29301-28.440055 5.29301c-16.116032 0-29.941059-4.029008-41.396081-12.008023-11.455022-7.979016-18.960037-18.881037-22.515044-32.785064h23.384046c2.291004 5.05601 5.13501 9.164018 8.690017 12.245024 3.476006 3.081006 7.268014 5.37201 11.218021 6.952013 3.950008 1.580003 7.742016 2.607005 11.455023 3.160007 3.713007.553001 6.715013.790001 9.243018.790001 8.611017 0 15.879031-1.501003 21.962043-4.582009s10.981021-7.031014 14.694028-11.850023c3.792008-4.819009 6.478013-10.27002 8.137016-16.432032 1.659004-6.162012 2.528005-12.245024 2.528005-18.407036v-14.220028c-4.898009 6.636013-11.376022 12.324024-19.355037 16.985033-7.979016 4.661009-16.906034 6.952014-26.702053 6.952014s-18.881037-1.817004-27.097053-5.530011-15.40503-8.769017-21.409041-15.24703c-6.083012-6.478012-10.823022-14.062027-14.220028-22.594044-3.397007-8.611017-5.13501-17.775035-5.13501-27.650054s1.738003-19.039037 5.13501-27.729054c3.397006-8.6900169 8.137016-16.1950316 14.220028-22.5940441 6.083011-6.3990125 13.193025-11.4550224 21.409041-15.2470298s17.301034-5.6880111 27.097053-5.6880111c10.03302 0 19.118038 2.4490048 27.334054 7.3470144 8.216016 4.8980095 14.694028 10.8230211 19.434038 17.6170344v-21.5670422h21.567042v129.1652524c.079 10.981021-1.580003 20.856041-4.89801 29.783058zm-21.014041-110.442216c-2.449005-6.1620117-5.767011-11.5340221-10.033019-16.1950313-4.187009-4.6610091-9.085018-8.2950162-14.615029-10.9020212-5.530011-2.6070051-11.455022-3.9500078-17.775035-3.9500078-6.320012 0-12.245024 1.3430027-17.854035 3.9500078-5.60901 2.607005-10.42802 6.2410121-14.457028 10.9020212-4.029008 4.6610092-7.268014 10.0330196-9.638019 16.1950313-2.370004 6.162012-3.555007 12.719025-3.555007 19.750039 0 6.873013 1.185003 13.351026 3.555007 19.434038 2.370005 6.162012 5.530011 11.455022 9.638019 16.037031 4.029008 4.582009 8.848018 8.137016 14.457028 10.823021 5.609011 2.607005 11.613023 3.950008 17.854035 3.950008 6.320013 0 12.245024-1.343003 17.775035-3.950008s10.42802-6.241012 14.615029-10.823021c4.187008-4.582009 7.505014-9.875019 10.033019-16.037031 2.449005-6.162012 3.713007-12.640025 3.713007-19.434038-.079-7.031014-1.264002-13.667027-3.713007-19.750039zm136.907268-46.2150899c8.295016 3.7920074 15.48403 8.9270175 21.567042 15.4050301 6.083012 6.4780127 10.823021 14.0620275 14.299028 22.7520444 3.476006 8.6900174 5.29301 17.9330354 5.29301 27.7290544s-1.738003 18.960037-5.29301 27.492053c-3.476007 8.532017-8.295017 15.958032-14.299028 22.357044-6.083012 6.399013-13.272026 11.455023-21.567042 15.08903-8.295017 3.634007-17.301034 5.53001-26.939053 5.53001s-18.565036-1.817003-26.860052-5.53001c-8.295017-3.713008-15.405031-8.690017-21.567043-15.08903-6.162012-6.399012-10.981021-13.825027-14.457028-22.357044-3.476007-8.532016-5.29301-17.696034-5.29301-27.492053s1.738003-19.039037 5.29301-27.7290544c3.476007-8.6900169 8.295016-16.2740317 14.457028-22.7520444 6.162012-6.4780126 13.351026-11.6130227 21.567043-15.4050301 8.216016-3.7920074 17.222033-5.6880111 26.860052-5.6880111 9.638019.0790002 18.565036 1.9750039 26.939053 5.6880111zm-9.243018 111.9432189c5.53001-2.607005 10.42802-6.162012 14.615028-10.665021s7.505015-9.796019 9.875019-15.879031c2.370005-6.162012 3.555007-12.640025 3.555007-19.434038 0-7.031014-1.185002-13.667027-3.555007-19.829039-2.370004-6.241012-5.688011-11.6130225-9.875019-16.1950314-4.187008-4.582009-9.085018-8.2160161-14.615028-10.9020213-5.530011-2.6860052-11.455023-4.108008-17.775035-4.108008-6.320013 0-12.245024 1.3430026-17.775035 4.108008-5.530011 2.6860052-10.34902 6.3200123-14.457028 10.9020213-4.108008 4.5820089-7.347014 9.9540194-9.717019 16.1950314s-3.555007 12.877025-3.555007 19.829039c0 6.873013 1.185002 13.351026 3.555007 19.434038 2.370005 6.162012 5.609011 11.455022 9.717019 15.879031 4.108008 4.503009 8.927017 8.058016 14.457028 10.665021s11.455022 3.950007 17.775035 3.950007c6.399012 0 12.245024-1.343002 17.775035-3.950007zm-439.1618582 55.142107c-3.6340071 0-7.2680142-.869001-10.5860207-2.686005-7.26801415-3.871007-11.8500231-11.455022-11.8500231-19.750038v-89.507175c0-12.4030244 10.0330196-22.3570439 22.3570437-22.3570439 12.324024 0 22.3570436 10.0330196 22.3570436 22.3570439v47.716093l71.5741397-47.716093-106.2552074-70.9421387c-10.27002006-6.8730135-13.03502546-20.7770406-6.24101219-31.04706068 6.87301339-10.27002006 20.77704059-13.03502546 31.04706059-6.24101219l134.379263 89.58617497c6.241012 4.1870082 9.954019 11.1390216 9.954019 18.6440366 0 7.505014-3.713007 14.457028-9.954019 18.644036l-134.3002628 89.586175c-3.7920074 2.449005-8.1370159 3.713007-12.4820244 3.713007z"/></svg>