<svg height="252" preserveAspectRatio="xMidYMid" viewBox="0 0 256 252" width="256" xmlns="http://www.w3.org/2000/svg" xmlns:xlink="http://www.w3.org/1999/xlink"><linearGradient id="a" x1=".040716%" x2="100.078192%" y1="50.090951%" y2="50.090951%"><stop offset="0" stop-color="#4284f0"/><stop offset="1" stop-color="#4487f4"/></linearGradient><linearGradient id="b" x1="28.44806%" x2="55.474233%" y1="81.561144%" y2="42.237375%"><stop offset="0" stop-color="#f5b406"/><stop offset="1" stop-color="#f4b913"/></linearGradient><g transform="translate(102 126)"><path d="m152.2 28.4-44.8 97.6h-107.1l58.6-126h75c14.6 0 24.3 15.1 18.3 28.4z" fill="#437de6"/><path d="m133.9 1.8c6.3 0 12 3.1 15.4 8.4s3.8 11.8 1.2 17.5l-44.2 96.6h-101.1l56.9-122.5zm0-1.8h-72.9l-58.6 126h105l44.7-97.6c6.1-13.3-3.6-28.4-18.2-28.4z" fill="#196cea"/><path d="m62.1 1.8s56.2 61 69.4 67.3l18.3-40.1c6.4-12.7-1.8-27.5-17.1-27.3z" fill="url(#a)"/></g><path d="m112.9 10.9-112.9 241.1h104.4l60.6-130.3 56.6-121.7h-91.6c-7.3 0-14 4.2-17.1 10.9z" fill="url(#b)"/><path d="m218.8 1.8-55.4 119.2-60.1 129.3h-100.5l111.7-238.7c2.8-6 8.9-9.9 15.5-9.9h88.8zm2.8-1.8h-91.6c-7.3 0-14 4.2-17.1 10.9l-112.9 241.1h104.4l60.6-130.3z" fill="#f3aa00"/></svg>