<svg height="256" preserveAspectRatio="xMidYMid" viewBox="0 0 256 256" width="256" xmlns="http://www.w3.org/2000/svg" xmlns:xlink="http://www.w3.org/1999/xlink"><linearGradient id="a" x1="24.691233%" x2="74.733562%" y1="26.424697%" y2="80.126865%"><stop offset="0" stop-color="#1a237e" stop-opacity=".2"/><stop offset="1" stop-color="#1a237e" stop-opacity=".02"/></linearGradient><linearGradient id="b" x1="24.155126%" x2="76.173587%" y1="24.15507%" y2="76.17353%"><stop offset="0" stop-color="#fff" stop-opacity=".1"/><stop offset="1" stop-color="#fff" stop-opacity="0"/></linearGradient><linearGradient id="c"><stop offset="0" stop-opacity=".2"/><stop offset="1" stop-color="#d8d8d8" stop-opacity="0"/></linearGradient><linearGradient id="d" x1="41.172212%" x2="58.443682%" xlink:href="#c" y1="30.969402%" y2="47.661406%"/><linearGradient id="e" x1="41.172212%" x2="63.154537%" xlink:href="#c" y1="30.969402%" y2="52.181347%"/><mask id="f" fill="#fff"><path d="m250.874183 115.639875-110.514058-110.51405847c-6.834422-6.83442204-17.885828-6.83442204-24.72025 0l-110.51405847 110.51405847c-6.83442204 6.834422-6.83442204 17.885828 0 24.72025l110.51405847 110.514058c6.834422 6.834423 17.885828 6.834423 24.72025 0l110.514058-110.514058c6.834423-6.834422 6.834423-17.885828 0-24.72025zm-122.874183 41.442772-29.082647-29.082647 29.082647-29.082647 29.082647 29.082647z" fill="#fff"/></mask><mask id="g" fill="#fff"><path d="m250.579492 115.781385-110.164027-110.16402678c-6.812775-6.81277537-17.829178-6.81277537-24.641954 0l-110.16402679 110.16402678c-6.81277537 6.812776-6.81277537 17.829179 0 24.641954l110.16402679 110.164027c6.812776 6.812776 17.829179 6.812776 24.641954 0l110.164027-110.164027c6.812776-6.812775 6.812776-17.829178 0-24.641954zm-122.485004 41.311511-28.9905333-28.990534 28.9905333-28.9905333 28.990534 28.9905333z" fill="#fff"/></mask><mask id="h" fill="#fff"><path d="m250.579492 115.781385-110.164027-110.16402678c-6.812775-6.81277537-17.829178-6.81277537-24.641954 0l-110.16402679 110.16402678c-6.81277537 6.812776-6.81277537 17.829179 0 24.641954l110.16402679 110.164027c6.812776 6.812776 17.829179 6.812776 24.641954 0l110.164027-110.164027c6.812776-6.812775 6.812776-17.829178 0-24.641954zm-122.485004 41.311511-28.9905333-28.990534 28.9905333-28.9905333 28.990534 28.9905333z" fill="#fff"/></mask><mask id="i" fill="#fff"><path d="m250.579492 115.781385-110.164027-110.16402678c-6.812775-6.81277537-17.829178-6.81277537-24.641954 0l-110.16402679 110.16402678c-6.81277537 6.812776-6.81277537 17.829179 0 24.641954l110.16402679 110.164027c6.812776 6.812776 17.829179 6.812776 24.641954 0l110.164027-110.164027c6.812776-6.812775 6.812776-17.829178 0-24.641954zm-122.485004 41.311511-28.9905333-28.990534 28.9905333-28.9905333 28.990534 28.9905333z" fill="#fff"/></mask><g fill="none" mask="url(#f)"><path d="m250.579492 115.781385-40.586747-40.5867464-28.990533-28.9905335-52.907724 52.9077236 28.990534 28.9905333-28.990534 28.990534-52.9077234 52.907723 40.5867464 40.586747c6.812776 6.812776 17.829179 6.812776 24.641954 0l40.586747-40.586747 28.990533-28.990533 40.586747-40.586747c6.812776-6.812775 6.812776-17.829178 0-24.641954z" fill="#4285f4"/><path d="m181.002212 46.2041051-40.586747-40.58674688c-6.812775-6.81277537-17.829178-6.81277537-24.641954 0l-40.5867464 40.58674688-28.9905335 28.9905335-40.58674689 40.5867464c-6.81277537 6.812776-6.81277537 17.829179 0 24.641954l40.58674689 40.586747 28.9905335 28.990533 52.9077234-52.907723-28.9905333-28.990534 28.9905333-28.9905333z" fill="#4fc3f7"/><path d="m115.773511 7.0668849c6.812776-6.81277537 17.829179-6.81277537 24.641954 0l110.164027 110.1640271c3.188959 3.188959 4.928391 7.392586 5.073344 11.596214.144952-4.638486-1.449527-9.421924-5.073344-13.045741l-110.164027-110.16402678c-6.812775-6.81277537-17.829178-6.81277537-24.641954 0l-110.16402679 110.16402678c-3.62381669 3.623817-5.21829603 8.407255-5.07334336 13.045741.14495267-4.203628 1.88438467-8.407255 5.07334336-11.596214z" fill="#fff" mask="url(#g)" opacity=".2"/><path d="m250.579492 138.973812-110.164027 110.164028c-6.812775 6.812775-17.829178 6.812775-24.641954 0l-110.16402679-110.164028c-3.18895869-3.188958-4.92839069-7.392586-5.07334336-11.596213-.14495267 4.638485 1.44952667 9.421923 5.07334336 13.04574l110.16402679 110.164027c6.812776 6.812776 17.829179 6.812776 24.641954 0l110.164027-110.164027c3.623817-3.623817 5.218296-8.262302 5.073344-13.04574-.144953 4.203627-1.884385 8.407255-5.073344 11.596213z" fill="#1a237e" mask="url(#h)" opacity=".2"/><path d="m128.094488 157.092896-52.9077234 52.907723 40.5867464 40.586747c6.812776 6.812776 17.829179 6.812776 24.641954 0l40.586747-40.586747z" fill="url(#a)" mask="url(#i)"/><path d="m250.579492 115.781385-110.164027-110.16402678c-6.812775-6.81277537-17.829178-6.81277537-24.641954 0l-110.16402679 110.16402678c-6.81277537 6.812776-6.81277537 17.829179 0 24.641954l110.16402679 110.164027c6.812776 6.812776 17.829179 6.812776 24.641954 0l110.164027-110.164027c6.812776-6.812775 6.812776-17.829178 0-24.641954zm-122.485004 41.311511-28.9905333-28.990534 28.9905333-28.9905333 28.990534 28.9905333z" fill="url(#b)" mask="url(#i)"/><path d="m-11.060073-11.052199h278.309121v278.309121h-278.309121z" mask="url(#i)"/><g fill-opacity=".8"><path d="m128.581969 157.330709 22.25618 22.223976-54.8615764 50.97528-20.2915332-20.292524z" fill="url(#d)" mask="url(#i)"/><path d="m180.991418 46.4645669 22.25618 22.223976-54.861577 50.9752811-20.291533-20.2925243z" fill="url(#e)" mask="url(#i)"/></g></g></svg>