<svg height="227" preserveAspectRatio="xMidYMid" viewBox="0 0 256 227" width="256" xmlns="http://www.w3.org/2000/svg"><path d="m81.5576061 190.482332-44.9394578-77.835457 44.9394578-77.8357855h89.8759689l44.939131 77.8357855-44.939131 77.835457z" fill="#cac9c2"/><path d="m127.996726 148.17555c-19.314578 0-35.0281326-15.713882-35.0281326-35.028133 0-19.3139234 15.7135546-35.0278057 35.0281326-35.0278057 19.313924 0 35.027479 15.7138823 35.027479 35.0278057 0 19.314251-15.713555 35.028133-35.027479 35.028133" fill="#fff"/><g transform="translate(25.207161)"><path d="m173.257657 8.7164399c-2.7538-4.76971867-9.513575-8.67224553-15.021831-8.67224553h-110.7429155c-5.507601 0-12.2677033 3.90252686-15.0211765 8.67224553l-32.35879282 56.0476317c-.25403581 3.6209923.41051662 7.403376 2.00642455 10.1673248l21.90404087 37.4499846 39.1018722-67.5522455h123.5900562c2.923376 0 6.195724 1.1064962 9.039223 2.8513555z" fill="#5072aa"/><path d="m1.51963171 62.3111202-1.41585677 2.4529514c-.25436317 3.6209923.41051662 7.403376 2.00642455 10.1673248l21.90404091 37.4499846 11.6532379-20.1323375z" fill="#4d6796"/><g fill="#fff"><path d="m50.3472123 28.8373197c-3.7264041 0-6.7584655-3.0320614-6.7584655-6.7584655 0-3.7267314 3.0320614-6.7581381 6.7584655-6.7581381 3.7270588 0 6.7581381 3.0314067 6.7581381 6.7581381 0 3.7264041-3.0310793 6.7584655-6.7581381 6.7584655"/><path d="m161.088818 22.0788542c0 3.4563274-2.801595 6.2579233-6.257595 6.2579233s-6.258251-2.8015959-6.258251-6.2579233c0-3.4563273 2.802251-6.2579233 6.258251-6.2579233s6.257595 2.801596 6.257595 6.2579233z"/></g></g><g transform="translate(138.475703 44.521739)"><path d="m115.361391 60.1023836-32.8753757-56.94363168c-2.8434987-1.74485934-6.1158465-2.8513555-9.0392225-2.8513555h-44.568225l38.5365115 67.92511508-61.01180564 107.7933505c-1.34252686 2.324297-3.63867008 4.439079-6.27527366 5.999632h44.8392839c5.5082557 0 12.2680307-3.902527 15.0218312-8.671591l55.3722759-95.906701c2.754456-4.7697186 2.754456-12.5747723 0-17.3448184" fill="#cc4232"/><path d="m83.9699642 5.71285934-1.4738005-2.55410742c-2.8421893-1.74485934-6.1138824-2.8513555-9.0382404-2.8513555h-44.5678977l11.6011867 20.44791818z" fill="#b23f33"/><g fill="#fff"><path d="m41.5626803 165.459806c-3.7270588 0-6.7584655-3.031734-6.7584655-6.758466 0-3.726731 3.0314067-6.758138 6.7584655-6.758138 3.7264041 0 6.7584655 3.031407 6.7584655 6.758138 0 3.726732-3.0320614 6.758466-6.7584655 6.758466"/><path d="m94.157913 75.3838159c-3.726404 0-6.7584654-3.0314067-6.7584654-6.7581382 0-3.726404 3.0320614-6.7584654 6.7584654-6.7584654 3.7270589 0 6.758138 3.0320614 6.758138 6.7584654 0 3.7267315-3.0310791 6.7581382-6.758138 6.7581382"/></g></g><g transform="translate(0 64.491049)"><path d="m89.1842455 116.198465-61.8577186-105.7581172c-1.595908-2.76394882-2.2604604-6.54633245-2.0064246-10.16732478l-23.01348337 39.86005118c-2.75380052 4.770046-2.75380052 12.5750997 0 17.3448184l55.37227617 95.9067004c2.7534732 4.769064 9.5135755 8.671591 15.0211765 8.671591h65.9036314c2.636604-1.560552 4.932747-3.675335 6.275274-5.999632l22.558772-39.858087z" fill="#ecb02a"/><path d="m134.85733 162.056184h3.832471c2.63693-1.560552 4.932092-3.675335 6.274291-5.999632l22.560082-39.858087h-24.024061z" fill="#c79732"/><g fill="#fff"><path d="m75.5543734 145.490496c-3.7264041 0-6.7584655-3.031734-6.7584655-6.758465 0-3.726732 3.0320614-6.758138 6.7584655-6.758138 3.7270588 0 6.7581381 3.031406 6.7581381 6.758138 0 3.726731-3.0310793 6.758465-6.7581381 6.758465"/><path d="m22.8648593 55.4145064c-3.7264041 0-6.7584654-3.0314067-6.7584654-6.7581381 0-3.7264041 3.0320613-6.7584655 6.7584654-6.7584655 3.7267315 0 6.7584655 3.0320614 6.7584655 6.7584655 0 3.7267314-3.031734 6.7581381-6.7584655 6.7581381"/></g></g></svg>