<svg height="194" preserveAspectRatio="xMidYMid" viewBox="0 0 256 194" width="256" xmlns="http://www.w3.org/2000/svg" xmlns:xlink="http://www.w3.org/1999/xlink"><linearGradient id="a" x1=".00389%" x2="100.032232%" y1="49.997619%" y2="49.997619%"><stop offset="0" stop-opacity=".1"/><stop offset="1" stop-opacity=".2"/></linearGradient><path d="m238.833923 193.595007h-222.6797035c-8.63451906 0-15.90569305-7.04395-15.90569305-15.905693v-160.8747242c0-8.63451907 7.0439498-15.90569305 15.90569305-15.90569305h222.6797035c8.634519 0 15.905693 7.04394979 15.905693 15.90569305v160.8747242c0 8.861743-7.04395 15.905693-15.905693 15.905693z" fill="#e3e3e3"/><path d="m32.0599126 193.595007 95.2069344-76.574551.681673-4.090035-98.1608492-70.6667222-.2272242 147.9229452z" fill="#231f20" opacity=".1"/><path d="m16.1542195 193.595007c-8.86174325 0-15.90569305-7.04395-15.90569305-15.905693v-161.1019484c0-8.86174324 7.0439498-10.45231255 15.90569305-10.45231255 8.8617433 0 15.9056931 1.81779349 15.9056931 10.45231255v177.0076414z" fill="#d54b3d"/><path d="m16.1542195 8.40729492c11.3612094 0 13.6334513 3.40836278 13.6334513 8.18007068v174.7353994h-13.6334513c-7.49839813 0-13.63345118-6.135053-13.63345118-13.633451v-161.1019484c0-4.9989321 2.27224187-8.18007068 13.63345118-8.18007068zm0-2.27224187c-8.86174325 0-15.90569305 1.81779349-15.90569305 10.45231255v161.1019484c0 8.861743 7.0439498 15.905693 15.90569305 15.905693h15.9056931v-177.0076414c0-8.86174324-7.0439498-10.45231255-15.9056931-10.45231255z" fill="#d72b27"/><path d="m238.833923 193.595007h-15.905693v-177.4620897c0-8.86174332 7.043949-9.99786425 15.905693-9.99786425 8.861743 0 15.905693 1.13612093 15.905693 9.99786425v161.7836207c0 8.634519-7.04395 15.678469-15.905693 15.678469z" fill="#d54b3d"/><path d="m238.833923 8.40729492c10.225088 0 13.633451 2.04501768 13.633451 7.72562238v161.7836207c0 7.498399-6.135053 13.633452-13.633451 13.633452h-13.633451v-175.4170727c0-5.9078289 3.408362-7.72562238 13.633451-7.72562238zm0-2.27224187c-8.861744 0-15.905693 1.13612093-15.905693 9.99786425v177.6893137h15.905693c8.861743 0 15.905693-7.043949 15.905693-15.905693v-161.7836207c0-8.86174332-7.04395-9.99786425-15.905693-9.99786425z" fill="#d72b27"/><path d="m170.666667 193.595007-169.08686794-170.4002526 8.89381584 3.6176997 117.7021291 84.7546219 126.563876-92.8066129-.000004 159.1560749c0 8.634519-7.04395 15.678469-15.905693 15.678469z" fill="url(#a)"/><path d="m127.266847 117.020456-120.20159494-87.2540875c-7.04394979-5.2261563-9.08896748-15.2240205-3.86281118-22.26797033 5.2261563-7.0439498 15.45124472-8.6345191 22.72241872-3.4083628l101.5692114 73.84786073 102.250884-74.75675748c7.04395-5.2261563 17.041814-3.63558699 22.267971 3.63558699 5.226156 7.04394979 3.635587 17.04181399-3.635587 22.26797029z" fill="#d54b3d"/><path d="m238.833923 2.27224187c4.317259 0 8.407295 2.04501768 11.133985 5.68060467 4.317259 6.13505306 2.953914 14.54234796-2.953915 19.08683166l-119.747146 87.2540878-118.83824982-86.345191c-6.13505304-4.5444837-7.72562235-13.1790028-3.4083628-19.08683171 2.49946606-3.4083628 6.81672562-5.68060467 11.36120932-5.68060467 2.9539145 0 5.9078289.90889675 8.1800708 2.72669024l101.3419875 73.62063654 1.363345.9088968 1.363345-.9088968 102.02366-74.75675747c2.499466-1.59056931 5.226156-2.49946606 8.180071-2.49946606zm0-2.27224187c-3.181139 0-6.589502.90889675-9.316192 2.95391443l-102.250884 74.75675747-101.5692116-73.84786072c-2.7266903-2.04501768-6.1350531-2.95391443-9.5434159-2.95391443-4.9989321 0-9.99786418 2.27224187-13.1790028 6.58950142-4.99893212 7.04394983-2.95391443 17.04181403 4.09003536 22.26797033l120.20159494 87.4813115 120.883267-88.1629841c7.04395-5.2261563 8.63452-14.9967963 3.635587-22.26797029-3.181138-4.54448374-7.952846-6.81672561-12.951778-6.81672561z" fill="#d72b27"/></svg>