<svg height="257" preserveAspectRatio="xMidYMid" viewBox="0 0 256 257" width="256" xmlns="http://www.w3.org/2000/svg" xmlns:xlink="http://www.w3.org/1999/xlink"><linearGradient id="a" x1="32.813224%" x2="113.876316%" y1="32.532384%" y2="114.132318%"><stop offset="0" stop-color="#263238" stop-opacity=".2"/><stop offset=".4313" stop-color="#263238" stop-opacity="0"/></linearGradient><linearGradient id="b" x1="0%" x2="100%" y1="49.967127%" y2="49.967127%"><stop offset="0" stop-color="#fff" stop-opacity=".1"/><stop offset="1" stop-color="#fff" stop-opacity="0"/></linearGradient><path d="m256 20.5473684c0-11.28421051-9.263158-20.5473684-20.547368-20.5473684h-214.9052636c-11.28421051 0-20.5473684 9.26315789-20.5473684 20.5473684v215.0736846c0 11.28421 9.26315789 20.547368 20.5473684 20.547368h105.0947366c72.252632 0 130.357895-55.073684 130.357895-129.515789 0-21.221053 0-106.1052636 0-106.1052636z" fill="#3367d6"/><path d="m256 126.484211c0-7.242106 0-21.894737 0-38.0631584l-87.242105-86.73684207-168.757895 166.73684247 87.7473684 87.578947h37.8947366c72.252632 0 130.357895-55.073684 130.357895-129.515789z" fill="url(#a)"/><path d="m79.3263158 1.68421053h156.1263162c11.28421 0 20.547368 9.26315787 20.547368 20.54736837v-1.6842105c0-11.28421051-9.263158-20.5473684-20.547368-20.5473684h-156.1263162z" fill="#fff" opacity=".2"/><path d="m20.5473684 0c-11.28421051 0-20.5473684 9.26315789-20.5473684 20.5473684v147.8736846h84.0421053c47.8315787 0 84.3789477-38.736842 84.3789477-84.5473688v-83.8736842z"/><path d="m20.5473684 0c-11.28421051 0-20.5473684 9.26315789-20.5473684 20.5473684v147.8736846h84.0421053c47.8315787 0 84.3789477-38.736842 84.3789477-84.5473688v-83.8736842z" fill="#64b5f6"/><path d="m168.421053 1.68421053h-147.8736846c-11.28421051 0-20.5473684 9.26315787-20.5473684 20.54736837v-1.6842105c0-11.28421051 9.26315789-20.5473684 20.5473684-20.5473684h147.8736846z" fill="#fff" opacity=".2"/><path d="m125.642105 254.315789h-105.0947366c-11.28421051 0-20.5473684-9.263157-20.5473684-20.547368v1.684211c0 11.28421 9.26315789 20.547368 20.5473684 20.547368h105.0947366c72.252632 0 130.357895-55.073684 130.357895-129.515789 0-.505264 0-1.010527 0-1.684211 0 74.442105-58.105263 129.515789-130.357895 129.515789z" fill="#263238"/><path d="m256 20.5473684c0-11.28421051-9.263158-20.5473684-20.547368-20.5473684h-214.9052636c-11.28421051 0-20.5473684 9.26315789-20.5473684 20.5473684v215.0736846c0 11.28421 9.26315789 20.547368 20.5473684 20.547368h105.0947366c72.252632 0 130.357895-55.073684 130.357895-129.515789 0-21.221053 0-106.1052636 0-106.1052636z" fill="url(#b)"/></svg>