<svg height="240" preserveAspectRatio="xMidYMid" viewBox="0 0 256 240" width="256" xmlns="http://www.w3.org/2000/svg" xmlns:xlink="http://www.w3.org/1999/xlink"><defs><path id="a" d="m.02207817 91.4663879c-.01401954-3.4837859 3.27131041-7.9345103 10.03705863-12.7860645l105.9524632-75.97594531c4.934517-3.53842308 12.946286-3.53878798 17.887575.00435601l105.617363 75.7327731c6.913868 4.9575786 10.192766 9.5007239 10.031677 13.0248807h.103596v11.4986321h-249.651811v-11.4986321z"/><filter id="b" height="102.9%" width="101.2%" x="-.6%" y="-1.5%"><feOffset dx="0" dy="3" in="SourceAlpha" result="shadowOffsetInner1"/><feComposite in="shadowOffsetInner1" in2="SourceAlpha" k2="-1" k3="1" operator="arithmetic" result="shadowInnerInner1"/><feColorMatrix in="shadowInnerInner1" type="matrix" values="0 0 0 0 1   0 0 0 0 1   0 0 0 0 1  0 0 0 0.282269022 0"/></filter><path id="c" d="m0 97.7383688 219.295825 141.1195702h-206.2396799c-7.21172401 0-13.0561451-5.844811-13.0561451-13.05475z"/><filter id="d" height="108.5%" width="105.5%" x="-1.4%" y="-5.7%"><feOffset dx="3" dy="-2" in="SourceAlpha" result="shadowOffsetOuter1"/><feGaussianBlur in="shadowOffsetOuter1" result="shadowBlurOuter1" stdDeviation="1.5"/><feColorMatrix in="shadowBlurOuter1" type="matrix" values="0 0 0 0 0.181283504   0 0 0 0 0.347530335   0 0 0 0 0.727242827  0 0 0 0.4 0"/></filter><path id="e" d="m249.651811 97.7383688v128.0648202c0 7.209939-5.847765 13.05475-13.055858 13.05475h-223.5114766z"/><filter id="f" height="108.5%" width="105.1%" x="-1.3%" y="-6.4%"><feOffset dx="3" dy="-3" in="SourceAlpha" result="shadowOffsetOuter1"/><feGaussianBlur in="shadowOffsetOuter1" result="shadowBlurOuter1" stdDeviation="1.5"/><feColorMatrix in="shadowBlurOuter1" type="matrix" values="0 0 0 0 0.181283504   0 0 0 0 0.347530335   0 0 0 0 0.727242827  0 0 0 0.1 0"/></filter><filter id="g" height="106.4%" width="103.8%" x="-.6%" y="-5.3%"><feOffset dx="0" dy="3" in="SourceAlpha" result="shadowOffsetInner1"/><feComposite in="shadowOffsetInner1" in2="SourceAlpha" k2="-1" k3="1" operator="arithmetic" result="shadowInnerInner1"/><feColorMatrix in="shadowInnerInner1" type="matrix" values="0 0 0 0 1   0 0 0 0 1   0 0 0 0 1  0 0 0 0.129840353 0"/></filter><filter id="h" height="182.7%" width="720%" x="-310%" y="-41.3%"><feGaussianBlur in="SourceGraphic" stdDeviation="15"/></filter><linearGradient id="i" x1="33.968864%" x2="97.739778%" y1="100%" y2="11.915268%"><stop offset="0" stop-color="#335fcf"/><stop offset="0" stop-color="#3558b1"/><stop offset=".408985544" stop-color="#3a4768"/><stop offset=".839913199" stop-color="#3a4768"/><stop offset=".840114578" stop-color="#687eb7"/><stop offset=".840242347" stop-color="#cbcbcb"/><stop offset=".840780453" stop-color="#cbcbcb"/><stop offset=".842718045" stop-color="#cbcbcb"/><stop offset="1" stop-color="#cbcbcb"/></linearGradient><path id="j" d="m123.967869 128.70735-47.3193673-47.332135 15.89635-15.9006392 31.3709153 31.4291857 76.902658-76.923408 15.89635 15.9006392-77.484498 77.5054043-1.89782 1.898332z"/><filter id="k" height="104.6%" width="103.6%" x="-1.8%" y="-2.3%"><feOffset dx="0" dy="5" in="SourceAlpha" result="shadowOffsetInner1"/><feComposite in="shadowOffsetInner1" in2="SourceAlpha" k2="-1" k3="1" operator="arithmetic" result="shadowInnerInner1"/><feColorMatrix in="shadowInnerInner1" type="matrix" values="0 0 0 0 1   0 0 0 0 1   0 0 0 0 1  0 0 0 0.5 0"/></filter></defs><use fill="#3760c9" fill-rule="evenodd" xlink:href="#a"/><use filter="url(#b)" xlink:href="#a"/><path d="m0 97.7383688h249.651811v68.0575092 47.732794c0 5.730734-5.856916 10.3762-13.081787 10.3762h-223.4882376c-7.22523574 0-13.0817864-4.645583-13.0817864-10.3762v-47.732794z" fill="#3f72db"/><use filter="url(#d)" xlink:href="#c"/><use fill="#36bbf7" fill-rule="evenodd" xlink:href="#c"/><use filter="url(#f)" xlink:href="#e"/><use fill="#96ddfc" fill-rule="evenodd" xlink:href="#e"/><use filter="url(#g)" xlink:href="#e"/><path d="m156.145991 41.2886836-2.530015 96.2256574 14.517045-.000004-.753229-108.8311134z" fill="#203364" filter="url(#h)" transform="matrix(.70710678 .70710678 -.70710678 .70710678 105.878762 -89.416379)"/><path d="m124.104507 130.02941 27.285301 26.586117 98.226774-58.3680387s.381157-7.0060073-1.078296-10.1441799c-1.340781-2.8830005-7.322404-7.9193394-7.322404-7.9193394l-39.999567-28.7102225z" fill="#cbcbcb"/><path d="m123.967869 130.252782-47.3193673-47.3321351 15.89635-15.9006391 31.3709153 31.4291856 76.902658-76.9234079 16.321136 14.9996785-15.074783 15.1709639-62.834501 63.2354011-1.89782 1.898332z" fill="url(#i)"/><use fill="#e5e5e5" fill-rule="evenodd" xlink:href="#j"/><use filter="url(#k)" xlink:href="#j"/></svg>