<svg height="297" preserveAspectRatio="xMidYMid" viewBox="0 0 256 297" width="256" xmlns="http://www.w3.org/2000/svg" xmlns:xlink="http://www.w3.org/1999/xlink"><defs><linearGradient id="a" x1="26.070079%" x2="74.949106%" y1="68.042237%" y2="19.279176%"><stop offset="0" stop-color="#058b7e"/><stop offset="0" stop-color="#058d80"/><stop offset="1" stop-color="#058d7f"/></linearGradient><filter id="b" height="100.7%" width="100.8%" x="-.4%" y="-.3%"><feOffset dx="0" dy="2" in="SourceAlpha" result="shadowOffsetInner1"/><feComposite in="shadowOffsetInner1" in2="SourceAlpha" k2="-1" k3="1" operator="arithmetic" result="shadowInnerInner1"/><feColorMatrix in="shadowInnerInner1" type="matrix" values="0 0 0 0 1   0 0 0 0 1   0 0 0 0 1  0 0 0 0.2 0"/></filter><filter id="c" height="100.7%" width="100.8%" x="-.4%" y="-.3%"><feOffset dx="0" dy="-2" in="SourceAlpha" result="shadowOffsetInner1"/><feComposite in="shadowOffsetInner1" in2="SourceAlpha" k2="-1" k3="1" operator="arithmetic" result="shadowInnerInner1"/><feColorMatrix in="shadowInnerInner1" type="matrix" values="0 0 0 0 0   0 0 0 0 0   0 0 0 0 0  0 0 0 0.1 0"/></filter><linearGradient id="d" x1="30.048294%" x2="81.940429%" y1="27.302306%" y2="84.64024%"><stop offset="0"/><stop offset="1" stop-color="#d8d8d8" stop-opacity="0"/></linearGradient><path id="e" d="m55.5801916 128.105402v34.238578c0 9.039013 7.3955556 16.434568 16.4345679 16.434568h85.0160195c9.039013 0 16.434568-7.395555 16.434568-16.434568v-21.622834l33.659259 33.659259v-46.275003z"/><filter id="f" height="111.8%" width="102.6%" x="-1%" y="-3%"><feOffset dx="1" dy="3" in="SourceAlpha" result="shadowOffsetOuter1"/><feColorMatrix in="shadowOffsetOuter1" type="matrix" values="0 0 0 0 0   0 0 0 0 0   0 0 0 0 0  0 0 0 0.1 0"/></filter><mask id="g" fill="#fff"><path d="m127.682686 0c-70.5169379 0-127.682686 55.7909333-127.682686 124.612267 0 68.821649 57.1657481 124.612266 127.682686 124.612266l.271487 46.913739c65.605847-37.270756 128-87.018825 128-171.526005 0-68.8213337-57.754232-124.612267-128.271487-124.612267z" fill="#fff"/></mask></defs><path d="m127.682686 0c-70.5169379 0-127.682686 55.7909333-127.682686 124.612267 0 68.821649 57.1657481 124.612266 127.682686 124.612266l.271487 46.913739c65.605847-37.270756 128-87.018825 128-171.526005 0-68.8213337-57.754232-124.612267-128.271487-124.612267z" fill="url(#a)"/><path d="m127.682686 0c-70.5169379 0-127.682686 55.7909333-127.682686 124.612267 0 68.821649 57.1657481 124.612266 127.682686 124.612266l.271487 46.913739c65.605847-37.270756 128-87.018825 128-171.526005 0-68.8213337-57.754232-124.612267-128.271487-124.612267z" filter="url(#b)"/><path d="m127.682686 0c-70.5169379 0-127.682686 55.7909333-127.682686 124.612267 0 68.821649 57.1657481 124.612266 127.682686 124.612266l.271487 46.913739c65.605847-37.270756 128-87.018825 128-171.526005 0-68.8213337-57.754232-124.612267-128.271487-124.612267z" filter="url(#c)"/><path d="m58.3180642 168.559565 109.0370368 112.724386 144.539813-105.665739-104.454321-93.9194466-22.333946 38.2719996z" fill="url(#d)" fill-opacity=".21" mask="url(#g)"/><use filter="url(#f)" xlink:href="#e"/><use fill="#f6f6f6" fill-rule="evenodd" xlink:href="#e"/><path d="m207.124638 128.105402v-46.4064785l-33.659259 33.5875165v-21.4196153c0-9.0393284-7.395556-16.4345679-16.434568-16.4345679h-85.0160199c-9.0390123 0-16.4345679 7.3952395-16.4345679 16.4345679v34.2385773z" fill="#e2e2e2"/></svg>