<svg height="256" preserveAspectRatio="xMidYMid" viewBox="0 0 256 256" width="256" xmlns="http://www.w3.org/2000/svg"><g fill="#fff"><path d="m67.8521 9.3669c1.935-.314 4.03-.346 5.843.51 2.684 1.082 4.583 3.652 5.233 6.422.221 1.97.157 4.058-.775 5.857-1.692 3.719-6.193 5.864-10.144 4.833-4.054-.907-7.071-4.808-7.032-8.952-.078-4.033 3.009-7.717 6.875-8.67"/><path d="m183.8081 9.3527c1.96-.307 4.073-.311 5.893.589 3.013 1.328 5.054 4.472 5.272 7.731-.003 2.509-.842 5.129-2.702 6.885-1.581 1.667-3.859 2.588-6.132 2.691-3.519.05-7.067-2.052-8.445-5.335-.892-1.753-.782-3.773-.667-5.672.667-3.348 3.472-6.115 6.781-6.889"/><path d="m172.1724 146.4318c4.586-.021 9.173-.025 13.756 0-.057 18.229-.01 36.461-.021 54.689-4.569 0-9.138.004-13.71-.003-.011-18.229.039-36.457-.025-54.686"/></g><path d="m183.8081 9.3527c-3.309.774-6.114 3.541-6.781 6.889-.115 1.899-.225 3.919.667 5.672 1.378 3.283 4.926 5.385 8.445 5.335 2.273-.103 4.551-1.024 6.132-2.691 1.86-1.756 2.699-4.376 2.702-6.885-.218-3.259-2.259-6.403-5.272-7.731-1.82-.9-3.933-.896-5.893-.589m-115.956.014c-3.866.953-6.953 4.637-6.875 8.67-.039 4.144 2.977 8.045 7.032 8.952 3.951 1.031 8.452-1.114 10.144-4.833.932-1.799.996-3.887.775-5.857-.65-2.77-2.549-5.34-5.233-6.422-1.813-.856-3.908-.824-5.843-.51m-44.367-7.97c2.892-1.267 6.09-1.46 9.206-1.381 64.251.007 128.502 0 192.753-.004 7.01-.117 13.839 4.216 16.673 10.636 1.195 2.531 1.702 5.34 1.652 8.131-.028 6.247.064 12.493-.036 18.736-2.073-.789-4.308-.999-6.51-1.014-72.7.015-145.399.007-218.099.011-2.302.061-4.658.16-6.832 1.007-.093-6.49-.043-12.978-.064-19.464-.043-7.153 4.615-14.02 11.257-16.658" fill="#c7c7c7"/><path d="m182.7305 91.7146c1.028-.425 2.148-.403 3.237-.318-.064 18.29.008 36.582-.035 54.871l-.004.164c-4.583-.025-9.17-.021-13.756 0v-.16c-.007-12.646-.011-25.288.003-37.935-9.144 3.041-18.271 6.132-27.419 9.155-.028-4.129.021-8.259-.025-12.388 12.65-4.509 25.342-8.906 37.999-13.389" fill="#c7c7c7"/><path d="m70.8325 98.2858c5.729-4.365 12.899-6.621 20.06-6.889 7.103-.25 14.455.899 20.669 4.508 4.916 2.816 8.806 7.324 10.926 12.571 2.113 5.24 2.784 11.033 2.142 16.633-1.375 8.97-8.302 16.216-16.398 19.799 1.157.35 2.285.789 3.363 1.335-.711.136-1.428.214-2.149.193-9.551-.068-19.103.064-28.648-.065-.035-2.073-.085-4.15.047-6.221 6.885-.164 14.149.678 20.591-2.341 5.293-2.234 9.23-7.296 9.977-13.01.642-5.444.092-11.397-3.134-16.005-2.538-3.648-6.839-5.668-11.14-6.307-5.804-.81-12.168-.232-17.04 3.291-4.797 3.373-7.335 9.326-7.214 15.105-4.419.118-8.841.028-13.263.043.086-2.427.271-4.869.903-7.221 1.52-6.128 5.272-11.636 10.308-15.419" fill="#c7c7c7"/><path d="m12.292 37.5183c2.174-.846 4.53-.946 6.832-1.007 72.7-.003 145.399.004 218.099-.011 2.202.015 4.437.226 6.51 1.014 6.283 2.267 11.372 8.085 12.029 14.824-1.278-4.619-4.04-8.917-8.17-11.462-2.991-1.866-6.482-2.944-10.015-2.912-72.932.05-145.868.05-218.803.05-5.493-.1-11.029 2.27-14.53 6.546-1.7 1.817-2.588 4.162-3.777 6.3 1.178-6.146 5.986-11.268 11.825-13.342" fill="#4483ef"/><path d="m171.9155 146.2927.257-.021v.16c.064 18.229.014 36.457.025 54.686 4.572.007 9.141.004 13.71.004.01-18.229-.036-36.461.021-54.69l.004-.164.221.018c2.016.243 4.051.096 6.078.118 17.18-.011 34.362-.032 51.541 0 1.985 28.729 3.851 57.466 5.815 86.195.192 3.284.61 6.657-.3 9.877l-.082.103c-.843.946-1.328 2.124-1.931 3.223-3.223 5.261-9.213 8.802-15.423 8.742-68.535-.04-137.065.031-205.596.006-2.149 0-4.34.111-6.436-.453-4.736-1.292-9.03-4.394-11.414-8.73-.5-.95-.964-1.924-1.632-2.767l-.085-.118c-1.146-4.304-.214-8.766-.071-13.127 1.884-27.634 3.679-55.278 5.589-82.912 22.84-.057 45.684-.032 68.523-.014.022 1.313.033 2.627.015 3.94 7.238.139 14.813-.728 21.669 2.138 4.629 1.807 8.431 5.676 9.895 10.455 1.613 5.289 1.427 11.143-.468 16.337-1.767 4.868-6 8.63-10.944 10.083-6.003 1.777-12.689 1.624-18.471-.857-4.501-1.923-8.174-5.8-9.562-10.525-.66-2.082-.917-4.27-.957-6.443-4.376.028-8.752.018-13.128.004.082 5.535 1.425 11.157 4.515 15.804 3.295 5.083 8.406 8.795 14.007 10.972 7.099 2.77 14.944 3.388 22.45 2.238 7.3-1.156 14.449-4.426 19.407-10.019 4.554-5.054 6.91-11.814 7.22-18.556.418-6.436-1.063-13.196-5.15-18.308-2.298-3.026-5.458-5.211-8.684-7.131 1.57-.196 3.155-.154 4.736-.146 16.184-.015 32.367.003 48.55-.008 2.027-.042 4.065.125 6.086-.114" fill="#4483ef"/><path d="m4.2437 44.5603c3.501-4.276 9.037-6.646 14.53-6.546 72.936 0 145.871 0 218.803-.05 3.533-.032 7.024 1.046 10.015 2.912 4.13 2.545 6.893 6.843 8.171 11.462.353 1.631.256 3.323.071 4.972-3.962 29.679-8.07 59.339-11.979 89.025-16.486-.028-32.973.015-49.456-.003-2.749-.022-5.501.103-8.245-.046l-.222-.018c.043-18.29-.028-36.582.036-54.872-1.089-.085-2.209-.107-3.237.318-12.657 4.483-25.349 8.881-37.999 13.389.046 4.129-.004 8.259.025 12.389 9.148-3.023 18.275-6.115 27.419-9.156-.014 12.647-.011 25.289-.003 37.935l-.257.021c-19.157.143-38.32.004-57.477.076-.946-.022-1.945.271-2.844-.125-1.079-.546-2.206-.985-3.363-1.335 8.095-3.584 15.023-10.829 16.398-19.799.642-5.6-.029-11.393-2.142-16.633-2.12-5.247-6.011-9.755-10.926-12.571-6.214-3.609-13.567-4.758-20.67-4.509-7.16.268-14.331 2.524-20.059 6.89-5.036 3.783-8.788 9.29-10.308 15.419-.632 2.352-.818 4.793-.904 7.221 4.423-.015 8.845.074 13.264-.043-.121-5.779 2.417-11.733 7.214-15.106 4.872-3.523 11.236-4.101 17.04-3.291 4.301.639 8.602 2.659 11.14 6.307 3.226 4.608 3.776 10.562 3.133 16.005-.746 5.715-4.683 10.776-9.976 13.011-6.442 3.019-13.706 2.177-20.591 2.341l-.171.003c.071 2.074-.011 4.152.046 6.229-22.851-.036-45.705-.043-68.559.003-3.898-29.079-7.856-58.151-11.775-87.226-.451-2.742-.604-5.586.082-8.299 1.188-2.138 2.077-4.483 3.776-6.3" fill="#3664d0"/><path d="m6.7739 242.5998c.667.843 1.132 1.817 1.631 2.767 2.385 4.336 6.679 7.438 11.415 8.73 2.095.564 4.287.453 6.435.453 68.531.025 137.062-.046 205.596-.007 6.211.061 12.2-3.48 15.423-8.741.604-1.099 1.089-2.277 1.931-3.223-1.513 5.857-6.224 10.718-11.985 12.524-3.213 1.122-6.657.839-9.994.875-66.75 0-133.5-.003-200.249-.003-2.663.021-5.387.046-7.95-.786-5.875-1.742-10.704-6.65-12.253-12.589" fill="#3664d0"/></svg>