<svg height="348" preserveAspectRatio="xMidYMid" viewBox="0 0 256 348" width="256" xmlns="http://www.w3.org/2000/svg"><g fill="#f6d2a2"><path d="m3.68560311 188.164981c.49805448 10.259922 10.75797669 5.478599 15.34007779 2.29105 4.3828794-3.087938 5.677821-.498054 6.0762646-6.474708.2988327-3.984436.6972763-7.869261.4980545-11.853697-6.67393-.597665-13.8459144.996109-19.32451362 4.980545-2.88871595 1.992218-8.06848249 8.566537-2.58988327 11.05681"/><path d="m208.18677 314.272374c7.869261 4.880933 22.312841 19.623346 10.459144 26.79533-11.355642 10.359533-17.730739-11.455253-27.691828-14.443579 4.283268-5.877043 9.662256-11.256032 17.232684-12.351751z"/><path d="m67.336965 330.907393c-9.2638132 1.394553-14.4435798 9.761868-22.2132296 14.045136-7.2715953 4.283269-10.0607004-1.394552-10.6583658-2.589883-1.0957198-.498055-.9961089.498054-2.789105-1.294942-6.7735409-10.658365 6.9727626-18.428015 14.1447471-23.707393 9.9610895-1.992218 16.2365758 6.67393 21.5159533 13.547082z"/><path d="m251.915953 186.870039c-.498054 10.259922-10.757976 5.478599-15.340078 2.29105-4.382879-3.087937-5.677821-.498054-6.076264-6.474708-.298833-3.984435-.697276-7.86926-.498055-11.853696 6.67393-.597666 13.845915.996109 19.324514 4.980545 2.789105 1.992217 8.068483 8.566537 2.589883 11.056809"/></g><path d="m224.722179 61.7587549c35.561089-12.5509728 7.76965-61.26070042-23.209339-39.7447471-20.320622-17.43190663-48.311284-20.61945527-77.696498-20.61945527-28.7875482 2.29105058-56.1805443 7.57042801-75.3058362 24.30505837-30.8793774-19.92217899-59.3680933 27.8910506-23.1097276 39.9439689-10.1603113 39.4459142 1.3945525 79.6887162-.1992218 119.8319062-1.4941634 36.059144-10.9571984 84.370428 9.0645915 116.743969 17.033463 27.691829 53.6902723 37.553308 83.8723731 38.649027 38.549417 1.394553 85.266926-8.068482 103.993775-45.422568 17.929961-35.561089 12.949416-79.887937 10.658365-118.238132-2.29105-38.748638 1.992218-78.0949415-8.068482-115.4490271z" fill="#69d7e2"/><path d="m254.605447 180.793774c-.996108-2.091828-2.888715-4.48249-4.681712-5.777432-4.582101-3.287159-10.459144-5.080155-16.535408-5.279377-.199222-6.175876-.398444-12.949416-.398444-21.515953v-7.76965c-.099611-24.50428-.398443-35.262257-1.792996-48.7097278-1.09572-10.5587548-2.789105-20.3206225-5.179766-29.4848249 8.068482-3.0879377 13.34786-8.1680933 15.439688-14.7424124 1.992218-6.0762646.996109-12.9494164-2.390661-19.0256809-3.486381-5.9766537-9.064592-10.459144-15.5393-12.2521401-6.972762-1.892607-14.54319-.4980545-21.814786 4.3828794-6.474708-5.4785993-13.945525-9.6622569-22.31284-12.84980549-14.842024-5.47859923-32.074708-7.57042802-55.483269-7.57042802v.99610895l-.099611-.99610895c-25.0023342 1.9922179-43.5299607 5.8770428-58.8700385 13.34785991-6.1758755 2.9883269-11.6544747 6.5743191-16.4357977 10.7579767-7.3712062-4.5821012-15.0412451-5.677821-22.1136186-3.4863814-6.5743191 1.9922179-12.2521401 6.67393-15.6389105 12.7501946-3.38677047 6.0762646-4.18365763 13.0490272-1.89260705 19.0256809 2.29105055 5.9766537 7.57042805 10.6583658 15.43968875 13.5470817-2.4902724 10.0607004-3.785214 20.7190662-3.9844358 32.4731518-.1992218 11.455253.2988327 20.619455 2.0918288 41.338521 1.2949416 15.439689 1.7929961 22.512063 1.9922179 31.0786-6.7735409-.298833-13.5470818 1.494163-18.62723739 5.179766-1.79299611 1.294942-3.78521401 3.585992-4.68171207 5.777432-1.29494163 2.789105-.79688715 5.279377 1.79299611 6.773541.39844358 4.781323 3.08793775 6.972763 7.17198445 6.574319 2.9883268-.298833 6.5743191-1.892607 9.6622568-4.084047.6972763-.498054 1.3945525-.896498 2.0918288-1.19533.2988327-.099611.4980545-.199222.7968872-.298833 0 0 .5976653-.199222.7968871-.298833.2988327-.099611.5976654-.199222.7968872-.398443-.1992218 4.681712-.5976654 9.562646-1.4941635 20.719066-.9961089 12.550973-1.4941634 19.424124-1.6933852 27.094163-.896498 28.488716 2.4902724 49.207782 12.6505837 65.64358 3.1875486 5.179766 7.0723735 9.761868 11.6544747 13.945525-.8964981.597666-4.6817121 3.386771-5.8770428 4.283269-4.1836576 3.187548-7.0723735 5.877043-8.7657588 8.865369-2.1914396 3.884825-2.1914396 7.76965.2988327 11.853697l.0996109.099611.0996109.099611c1.0957199 1.095719 1.6933852 1.394552 2.4902724 1.394552h.0996109.1992218c.0996109.199222.1992218.298833.2988327.498055.2988326.498054.5976653.896498.896498 1.294941 2.4902724 2.888716 5.9766537 3.585993 10.6583658.796887 2.4902723-1.294941 4.2832685-2.789105 8.0684825-5.976653l.1992218-.199222c6.0762645-5.179767 9.0645914-7.072374 13.5470817-7.76965l1.5937743-.298833c.5976654.298833 1.1953307.498055 1.892607.796888 14.1447471 5.677821 30.580545 8.765758 47.215564 9.363424 21.515953.796887 42.23502-1.892607 59.766537-8.267705 4.681712-1.693385 9.064592-3.685603 13.248249-5.877042 2.589883.996109 4.781323 3.087937 8.964981 7.968871.199222.199222.199222.199222.298832.398444.199222.199222.199222.298833.298833.398443.199222.298833.498055.498055.697276.796888 3.28716 3.884824 5.4786 5.777431 7.968872 6.873151 3.287159 1.394553 6.474708.697277 9.761868-2.29105 5.777432-3.585992 6.175875-9.164203 2.390661-15.5393-2.689494-4.48249-7.371206-9.164202-11.754085-12.152529 5.179766-5.080156 9.662256-11.15642 13.148638-18.029572 9.562646-19.125292 13.248249-41.438132 13.049027-70.12607-.099611-10.160311-.498055-19.025681-1.593774-35.959533v-.498055c.498054.199222.996109.498055 1.494163.896498 3.087938 2.091829 6.67393 3.785214 9.662257 4.084047 4.084047.398444 6.773541-1.792996 7.171984-6.574319 2.490273-1.593774 2.988327-4.084047 1.693385-6.873152zm-31.676264-162.4653693c5.976654 1.5937743 11.15642 5.7774319 14.343969 11.355642 3.187548 5.5782101 4.084046 11.8536965 2.29105 17.4319066-1.892607 5.8770428-6.67393 10.5587549-14.144747 13.3478599-1.494163-5.3789883-3.287159-10.6583657-5.279377-15.7385214 2.888716-2.4902723 4.283268-5.5782101 1.992218-9.9610895-2.291051-4.3828793-6.275487-4.8809338-10.359533-3.5859922-2.589884-3.3867704-5.4786-6.3750973-8.466926-9.1642023 6.574319-4.1836576 13.347859-5.3789883 19.623346-3.6856031zm-212.3704281 33.6684825c-2.09182883-5.3789884-1.39455257-11.7540856 1.7929961-17.3322958 3.1875486-5.5782101 8.3673151-9.9610895 14.5431906-11.7540856 6.3750973-1.892607 13.2482491-.9961089 20.0217899 2.9883269-3.8848249 3.4863813-7.3712062 7.4708171-10.3595331 11.8536965-5.1797665-2.6894942-10.4591439-3.1875487-13.4474708 2.2910506-3.0879377 5.8770428.4980545 9.5626459 5.5782101 12.3517509-.6972762 1.6933853-1.3945525 3.4863814-1.9922179 5.2793775-.6972762 2.1914397-1.3945525 4.4824902-1.9922179 6.7735408-7.2715953-2.789105-12.0529182-7.0723735-14.144747-12.4513618zm12.0529183 135.7696498c-.0996109 0-.6972763.199222-.6972763.298833-.2988327.099611-.5976654.199221-.8964981.398443-.7968871.298833-1.5937743.796887-2.3906614 1.394553-2.7891051 1.992218-6.1758755 3.486381-8.7657588 3.685603-2.98832685.298833-4.68171206-.996109-4.98054475-4.582101 2.0918288-.697277 2.98832685-1.195331 3.78521401-2.390662l-1.59377432-1.195331c-.59766537.796888-1.19533074 1.09572-2.98832685 1.693386-.09961089 0-.09961089 0-.19922179.099611-1.59377432-.896498-1.892607-2.291051-.99610895-4.283269.79688716-1.792996 2.58988327-3.884825 4.0840467-4.980545 4.78132295-3.486381 11.15642025-5.179766 17.53151755-4.781323 0 2.490273.0996109 4.980545 0 7.371207 0 .298832 0 .498054-.0996109.796887-.0996109 1.394552-.0996109 1.992218-.1992218 2.689494-.2988327 2.888716-.4980545 3.287159-1.5937743 3.785214zm30.0824902 150.31284c-.0996109.099611-.0996109.099611-.1992218.199222-3.6856031 3.187549-5.4785992 4.48249-7.7696498 5.777432-3.785214 2.291051-6.3750972 1.792996-8.1680934-.398443-.2988326-.298833-.4980544-.697277-.6972762-.996109-.0996109-.099611-.1992218-.298833-.2988327-.398444 0 0 0 0 0-.099611.1992218-1.792996.896498-3.087938 2.6894942-5.877043.0996109-.099611.0996109-.099611.0996109-.199221 1.0957198-1.593775 1.5937743-2.490273 2.0918287-3.585993l-1.7929961-.796887c-.3984435.896498-.896498 1.693385-1.892607 3.28716-.0996109.099611-.0996109.099611-.0996109.199221-1.7929961 2.589884-2.5898832 4.183658-2.9883268 5.976654h-.0996109s0 0-.0996109 0h-.1992218c-.1992218-.099611-.4980545-.298833-.896498-.697276-3.8848249-6.175876-.7968872-11.455253 7.9688716-18.029572 1.0957198-.796887 4.7813229-3.386771 5.7774319-4.183658.1992217 0 .3984435-.099611.5976653-.199221 5.3789884 4.582101 11.6544747 8.566537 18.6272374 11.853696 0 .099611.0996109.199222.1992218.298833-4.0840467.996109-7.2715954 3.087937-12.8498055 7.86926zm167.2466926-10.857587c3.087938 5.179766 2.988327 9.363424-.896498 12.25214-.298833-.597665-.498054-1.294942-.896498-2.291051 0-.099611 0-.099611-.099611-.199221-1.394553-3.785214-2.291051-5.378989-3.984436-7.171985l-1.394552 1.394553c1.494163 1.394552 2.191439 2.888716 3.585992 6.375097 0 .099611 0 .099611.099611.199222.498054 1.294941.796887 2.091829 1.09572 2.789105-2.589884 2.191439-4.880934 2.589883-7.271596 1.494163-2.091828-.896498-4.084046-2.789105-7.271595-6.375097-.199222-.199222-.398444-.498055-.597665-.796887-.099611-.099611-.199222-.199222-.298833-.398444-.199222-.199222-.199222-.199222-.298833-.398443-3.685603-4.283269-5.877043-6.574319-8.267704-7.869261 5.57821-3.187549 10.558755-6.773541 15.041245-10.957199 4.183658 3.087938 8.86537 7.670039 11.455253 11.953308zm1.394553-32.27393c-8.566537 17.232685-23.707393 29.385214-44.028016 36.75642-17.332296 6.275487-37.85214 8.86537-59.069261 8.068483-36.5571981-1.294942-68.2334627-14.045137-83.0754861-38.150973-9.9610895-16.037354-13.248249-36.457588-12.351751-64.54786.2988327-7.670039.6972763-14.543191 1.6933853-27.094163 1.0957198-14.144748 1.3945525-18.228794 1.6933852-24.603892.1992218-4.582101.1992218-9.263813.0996109-14.244357-.1992218-8.765759-.6972763-15.738522-1.9922179-31.377432-1.7929961-20.719067-2.2910506-29.783658-2.0918288-41.1393.2988327-14.9416342 2.2910506-28.0902724 6.4747081-40.5416342 6.7735409-20.2210117 19.2249028-33.8677043 37.1548639-42.733074 15.0412451-7.3712062 33.2700389-11.15642021 58.0731514-13.14863811 23.209339 0 40.143191 2.09182879 54.785993 7.47081712 17.531517 6.47470819 30.580544 17.83035019 39.545525 35.26225679 5.777432 14.1447471 9.164202 29.385214 10.957198 46.9167315 1.394553 13.3478599 1.693385 24.1058369 1.792996 48.5105059v7.76965c.099611 12.052918.298833 20.519844.796888 28.98677.199221 3.28716.298832 4.681712.796887 12.550973 1.09572 16.933852 1.494163 25.699611 1.593774 35.859922.199222 28.588327-3.38677 50.602335-12.849805 69.428794zm30.480933-109.07393c-.09961 0-.199221-.099611-.298832-.099611-1.792996-.597665-2.390662-.996109-2.988327-1.693385l-1.593774 1.195331c.896498 1.19533 1.792996 1.693385 3.785214 2.390661-.398444 3.585992-2.091829 4.880934-4.980545 4.582101-2.589883-.199222-5.976654-1.792996-8.765759-3.685603-.796887-.597665-1.593774-.996109-2.390661-1.394552-.099611 0-.199222-.099611-.298833-.099611-.398444-5.4786-.398444-6.873152-.597665-9.761868-.099611-1.792996-.199222-3.585992-.298833-5.378988 5.57821.099611 11.056809 1.792996 15.240467 4.880934 1.494163 1.095719 3.287159 3.187548 4.084046 4.980544.996109 1.693385.796888 3.187549-.896498 4.084047z"/><g transform="translate(108.934905 96.951015)"><path d="m29.9828794 7.17198444c.0996109 5.08015566 1.0957198 10.65836576.1992218 16.03735406-1.3945526 2.5898833-3.9844358 2.888716-6.2754864 3.8848249-3.1875487-.4980545-5.8770428-2.5898832-7.1719844-5.5782101-.7968872-6.0762646.1992217-11.85369649.4980544-17.92996108 0-.19922179 3.785214.09961089 7.1719845 1.09571984 2.8887159.89649806 5.5782101 2.39066148 5.5782101 2.49027238z" fill="#fff"/><path d="m1.79299611 7.57042802c-2.78910506 10.55875488 3.68560311 27.79143968 14.34396889 13.64669258-.7968872-5.9766537.0996109-11.75408558.3984436-17.63112838.0996109-.49805448-14.6428016 3.28715953-14.74241249 3.9844358z" fill="#fff"/><path d="m31.1782101 11.8536965c-.1992218-2.98832685-.2988327-4.18365759-.2988327-5.67782101v-.69727627l-.6972762-.19922179-12.5509728-3.8848249v-.69727626l-1.2949416.29883268h-.0996109v.09961089l-14.14474711 3.58599222-.49805447.0996109-.19922179.49805447c-2.19143969 5.27937747-1.69338522 13.24824907 1.09571984 18.12918287 3.18754864 5.5782101 8.36731513 5.677821 13.64669263-.6972763 1.4941634 2.888716 4.2832685 4.8809339 7.4708171 5.3789884h.2988327l.2988327-.0996109c.3984436-.1992218.7968871-.2988327 1.4941634-.5976654.0996109 0 .0996109 0 .1992218-.0996109 2.8887159-.9961089 4.0840467-1.7929961 5.0801556-3.6856031l.0996109-.0996109v-.1992218c.2988327-1.7929961.3984436-3.6856031.3984436-5.7774319 0-1.4941634-.0996109-2.8887159-.2988327-5.677821zm-15.9377432-3.68560311c-.0996109 1.7929961-.1992218 2.49027241-.2988327 3.48638131-.1992217 3.6856031-.1992217 6.4747082.0996109 9.2638132-4.681712 5.9766537-8.36731514 5.9766537-10.85758751 1.4941635-2.39066148-4.1836576-2.88871596-11.2560312-1.09571985-15.93774323l12.55097276-3.18754864c-.0996109 1.29494164-.1992218 2.58988327-.3984436 4.88093386zm13.9455253 14.74241241c-.6972762 1.1953308-1.5937743 1.7929961-3.9844358 2.5898833-.0996109 0-.0996109 0-.1992218.0996109-.5976653.1992218-.9961089.3984436-1.2949416.4980545-2.6894942-.4980545-4.9805448-2.2910506-6.0762646-4.781323-.2988327-2.6894941-.2988327-5.4785992-.0996109-9.1642023.0996109-.996109.0996109-1.6933852.2988327-3.48638134.1992218-2.29105058.2988327-3.68560311.2988327-4.98054475l10.8575875 3.28715954c0 1.29494163.0996109 2.49027237.2988327 5.08015565.1992218 2.6894942.2988327 4.0840467.2988327 5.677821 0 1.892607-.0996109 3.5859922-.3984436 5.1797665z"/></g><g transform="translate(48.475508 21.975564)"><path d="m2.29105058 38.7486381c9.16420232 35.6607004 66.24124512 26.4964981 64.04980542-9.2638132-2.5898832-42.8326848-72.81556417-34.56498054-64.04980542 9.2638132" fill="#fff"/><path d="m67.336965 29.385214c-.5976654-10.3595331-5.1797666-18.4280156-12.7501946-23.5081712-6.7735408-4.58210117-15.7385214-6.37509728-24.603891-5.27937743-8.8653697 1.19533074-17.0334631 5.17976654-22.41245138 11.45525293-5.9766537 6.9727626-8.26770429 16.136965-6.17587549 26.6957198l.89649805-.1992218-.89649805.1992218c9.36342417 36.6568094 68.13385217 27.7914397 65.94241247-9.3634241zm-64.14941636 9.1642023c-1.9922179-10.0607003.19922179-18.6272373 5.7774319-25.1019455 5.08015566-5.87704278 12.75019456-9.76186769 21.21712066-10.85758753 8.466926-1.09571985 16.9338521.59766537 23.3089494 4.98054475 7.0723735 4.78132298 11.355642 12.25214008 11.9533074 22.11361868 2.0918288 34.7642023-53.3914397 43.1315175-62.25680936 8.8653696z"/><ellipse cx="18.029572" cy="32.871595" rx="9.662257" ry="10.459144"/><ellipse cx="22.412451" cy="35.262257" fill="#fff" rx="2.291051" ry="2.689494"/></g><g transform="translate(129.617789 18.097523)"><path d="m1.19533074 35.9595331c7.07237354 40.9400778 74.01089496 30.0824902 64.34863816-11.1564203-8.6661479-37.0552529-66.73929964-26.7953307-64.34863816 11.1564203" fill="#fff"/><path d="m66.4404669 24.6038911c-8.8653696-38.1509728-68.63190659-27.69182884-66.24124511 11.4552529v.0996109c3.28715953 19.3245136 20.51984431 29.1859922 39.54552531 25.9984435 8.6661478-1.4941634 16.4357976-5.677821 21.5159533-11.8536965 5.5782101-6.8731517 7.570428-15.7385214 5.1797665-25.6996108zm-6.6739299 24.5042801c-4.781323 5.7774319-12.0529183 9.7618677-20.3206226 11.1564202-18.029572 2.9883269-34.16653697-6.2754863-37.35408561-24.4046692-2.19143968-36.85603115 54.18832681-46.7175097 62.55564201-10.8575876 2.1914397 9.463035.3984436 17.7307393-4.8809338 24.1058366z"/><ellipse cx="17.631128" cy="34.166537" rx="9.463035" ry="10.459144"/><ellipse cx="22.014008" cy="36.557198" fill="#fff" rx="2.19144" ry="2.689494"/></g><g transform="translate(99.536375 70.451072)"><path d="m13.248249 12.5509728c-7.86926067.6972762-14.24435795 9.9610895-10.16031126 17.3322957 5.37898833 9.7618677 17.43190666-.8964981 24.90272376.0996109 8.6661478.1992218 15.7385214 9.1642023 22.6116731 1.5937743 7.6700389-8.3673152-3.2871595-16.5354086-11.9533074-20.1214008z" fill="#f6d2a2"/><path d="m51.5984436 19.2249027c-2.6894942-3.3867704-7.3712062-6.4747081-12.4513619-8.5665369l-.1992218-.0996109h-.1992218l-25.5003891.9961089c-8.86536962.7968872-15.2404669 11.0568094-10.95719842 18.8264592 1.69338522 2.9883268 3.9844358 4.4824902 7.07237354 4.681712 2.29105058.0996109 4.68171208-.3984436 8.36731518-1.6933852.2988327-.0996109.6972763-.1992218 1.1953307-.3984436 4.9805448-1.6933852 6.9727627-2.1914397 8.9649806-1.892607h.0996109c2.3906615 0 4.3828794.6972763 8.1680934 2.1914397 4.1836576 1.6933852 5.4785992 2.1914397 7.570428 2.3906615 2.8887159.1992218 5.3789883-.7968872 7.6700389-3.2871595 3.8848249-4.2832685 3.6856031-8.8653697.1992218-13.1486382zm-1.6933852 11.7540856c-1.892607 2.0918288-3.785214 2.7891051-6.0762646 2.6894942-1.7929961-.0996109-2.9883269-.5976654-6.9727627-2.1914397-3.9844358-1.6933852-6.1758755-2.2910506-8.7657587-2.3906615-2.4902724-.2988327-4.5821012.1992218-9.8614786 1.9922179-.4980545.1992218-.8964981.2988327-1.1953308.3984436-7.2715953 2.4902724-10.75797662 2.2910506-13.1486381-2.0918288-3.58599221-6.4747082 1.89260701-15.2404669 9.3634241-15.9377432l25.2015564-.9961089c4.781323 1.9922179 9.0645915 4.8809338 11.5548639 7.9688716 2.9883268 3.5859922 3.0879377 7.1719844-.0996109 10.5587548z" fill="#231f20"/><path d="m28.6879377 8.26770428c-3.0879377-11.35564202-28.98677039-9.66225681-28.38910501 3.88482492 1.29494163 10.0607004 31.37743191 7.3712062 28.38910501-3.88482492z" transform="translate(11.953307)"/></g></svg>