<svg height="256" preserveAspectRatio="xMidYMid" viewBox="0 0 256 256" width="256" xmlns="http://www.w3.org/2000/svg"><path d="m256 128c0 70.692-57.308 128-128 128s-128-57.308-128-128 57.308-128 128-128 128 57.308 128 128" fill="#3e4349"/><path d="m86.9908 81.7895v-20.18c43.243-7.352 41.946 8.937 55.928 44.108 4.854 12.209 17.298 47.568 24.937 64.577 1.73 6.054 5.301 5.767 11.244 4.18v17.586c-14.425 6.487-30.847 6.438-35.076-9.321l-16.096-49.346-21.766 60.253h-29.261l38.487-88.794c-1.94-6.302-5.17-13.28-8.937-20.54-3.316-6.127-12.829-5.502-19.46-2.523" fill="#fff"/></svg>