<svg height="257" preserveAspectRatio="xMidYMid" viewBox="0 0 256 257" width="256" xmlns="http://www.w3.org/2000/svg"><path d="m105.609463 45.7403268h72.158132l36.40081 63.0487162h41.568622c-9.463035-61.446973-62.564607-108.49817919-126.660233-108.49817919-16.209681 0-31.7021636 3.03912841-45.977401 8.52968094z" fill="#006533"/><path d="m216.097868 146.762708-38.330273 66.390662h-96.6554394l-48.3272217-83.706024 38.6101789-66.8757662-21.3316731-34.9873308c-29.9101634 23.4623502-49.15000779 59.9079845-49.15000779 100.869977 0 70.782506 57.38085599 128.163362 128.16336209 128.163362 64.563797 0 117.953245-47.748483 126.840529-109.85488z" fill="#82b816"/><path d="m174.510319 128.114553c0 25.280249-20.492949 45.773198-45.773198 45.773198-25.279253 0-45.7722027-20.492949-45.7722027-45.773198 0-25.279253 20.4929497-45.7722028 45.7722027-45.7722028 25.280249 0 45.773198 20.4929498 45.773198 45.7722028" fill="#006532"/></svg>