<svg height="279" preserveAspectRatio="xMidYMid" viewBox="0 0 256 279" width="256" xmlns="http://www.w3.org/2000/svg" xmlns:xlink="http://www.w3.org/1999/xlink"><linearGradient id="a" x1="49.994784%" x2="49.994784%" y1="122.450358%" y2="31.139008%"><stop offset="0" stop-color="#fff100"/><stop offset="1" stop-color="#f05a28"/></linearGradient><path d="m255.5901 122.775215c-.459832-4.674962-1.226219-10.039672-2.758993-16.017491-1.532775-5.901181-3.831936-12.4154711-7.204039-19.1596777-3.372103-6.7442065-7.74051-13.7183292-13.411775-20.5391744-2.222522-2.6823549-4.674961-5.2880711-7.280677-7.8171485 3.908574-15.5576583-4.7516-29.0460714-4.7516-29.0460714-14.944549-.9196645-24.447749 4.6749614-27.97313 7.2040388-.613109-.2299161-1.14958-.5364709-1.76269-.7663871-2.529077-.9963032-5.134794-1.9926065-7.893787-2.8356323-2.682355-.8430258-5.441349-1.6094129-8.276981-2.2991613s-5.671264-1.2262194-8.583535-1.6860516c-.536471-.0766387-.996304-.1532775-1.532775-.2299162-6.51429-20.84572928-25.214135-29.5825423-25.214135-29.5825423-20.922369 13.258497-24.830943 31.8050649-24.830943 31.8050649s-.076638.3831936-.229916 1.072942c-1.149581.3065548-2.299161.6897484-3.448742.9963032-1.609413.4598323-3.218826 1.072942-4.7516 1.6860517-1.609413.6131097-3.142187 1.2262193-4.7516 1.9159677-3.1421871 1.3794968-6.2843743 2.912271-9.3499227 4.5983227-2.9889097 1.6860516-5.9011807 3.5253807-8.736813 5.4413484-.3831936-.1532774-.7663871-.3065548-.7663871-.3065548-28.9694327-11.0359743-54.6434008 2.2225226-54.6434008 2.2225226-2.3758 30.8087617 11.5724454 50.1983555 14.3314389 53.7237366-.6897484 1.915967-1.302858 3.831935-1.9159677 5.747903-2.1458839 6.974123-3.7552969 14.101523-4.7516001 21.535478-.1532774 1.072942-.3065548 2.145884-.3831935 3.218825-26.8235488 13.258497-34.717336 40.311962-34.717336 40.311962 22.3018648 25.673968 48.3590265 27.283381 48.3590265 27.283381s.0766387-.076638.0766387-.076638c3.2954645 5.90118 7.1274001 11.495806 11.4191679 16.783877 1.839329 2.222523 3.6786581 4.291768 5.6712646 6.361013-8.1237034 23.298168 1.1495806 42.611123 1.1495806 42.611123 24.8309423.919665 41.1549877-10.882697 44.6037297-13.565051 2.452439.843025 4.981516 1.609413 7.510594 2.222522 7.663871 1.992607 15.481019 3.142187 23.298168 3.448742 1.915967.076639 3.908574.153278 5.824542.076639h.919664.61311 1.226219l1.22622-.076639v.076639c11.725722 16.707239 32.264897 19.083039 32.264897 19.083039 14.637994-15.404381 15.481019-30.732123 15.481019-34.027588 0 0 0-.076638 0-.229916 0-.306555 0-.459832 0-.459832 0-.229916 0-.459832 0-.689748 3.065549-2.145884 5.97782-4.445046 8.736813-6.974123 5.824542-5.288071 10.959336-11.342529 15.251104-17.85682.383193-.613109.766387-1.226219 1.149581-1.839329 16.553961.919665 28.279684-10.269587 28.279684-10.269587-2.758994-17.24371-12.568749-25.673968-14.637994-27.283381 0 0-.076639-.076639-.229916-.153277-.153278-.076639-.153278-.153278-.153278-.153278-.076638-.076639-.229916-.153277-.383193-.229916.076639-1.072942.153277-2.069245.229916-3.142187.153277-1.839329.153277-3.755297.153277-5.594626v-1.379497-.689748-.383194c0-.459832 0-.306555 0-.459832l-.076638-1.149581-.076639-1.532774c0-.536471-.076639-.996303-.153277-1.456135-.076639-.459833-.076639-.996304-.153278-1.456136l-.153277-1.456135-.229916-1.456136c-.306555-1.915968-.61311-3.755297-1.072942-5.671265-1.762691-7.433954-4.674962-14.484716-8.430258-20.845729-3.831936-6.361013-8.583536-11.955639-14.024885-16.707239-5.364709-4.7516-11.419167-8.583535-17.703542-11.419168-6.361013-2.835632-12.951942-4.674961-19.542871-5.5179868-3.295465-.4598323-6.590929-.6131097-9.886394-.536471h-1.226219-.306555c-.076639 0-.459832 0-.383193 0h-.536471l-1.22622.0766387c-.459832 0-.919664.0766387-1.302858.0766387-1.686051.1532774-3.372103.3831936-4.981516.6897484-6.590929 1.2262194-12.798665 3.602019-18.240013 6.897484-5.441349 3.295465-10.192949 7.357316-14.024884 11.955639-3.831936 4.598322-6.820845 9.733116-8.890091 15.021187-2.069245 5.288071-3.218826 10.806058-3.52538 16.094129-.076639 1.302858-.076639 2.682355-.076639 3.985213v.996304l.076639 1.072942c.076638.613109.076638 1.302858.153277 1.915967.229916 2.682355.766387 5.288071 1.456136 7.74051 1.456135 4.981516 3.755296 9.5032 6.590929 13.335136 2.835632 3.831935 6.284374 6.974122 9.886393 9.5032 3.60202 2.452439 7.510594 4.215129 11.34253 5.36471 3.831935 1.14958 7.663871 1.609413 11.26589 1.609413h1.302858.689748c.229917 0 .459833 0 .689749-.076639.383193 0 .766387-.076639 1.149581-.076639.076638 0 .229916 0 .306554-.076639l.383194-.076638c.229916 0 .459832-.076639.689748-.076639.459833-.076639.843026-.153277 1.302858-.229916.459833-.076639.843026-.153278 1.22622-.306555.843026-.153277 1.609413-.459832 2.3758-.689748 1.532774-.536471 3.065548-1.149581 4.368406-1.839329 1.379497-.689749 2.605717-1.532775 3.831936-2.299162.306555-.229916.689748-.459832.996303-.766387 1.226219-.996303 1.456136-2.835632.459832-4.061852-.843025-1.072941-2.3758-1.379496-3.602019-.689748-.306555.153277-.61311.306555-.919665.459832-1.072941.536471-2.145883.996304-3.295464 1.379497-1.149581.383194-2.3758.689749-3.60202.919665-.613109.076638-1.226219.153277-1.915967.229916-.306555 0-.61311.076638-.996304.076638-.306554 0-.689748 0-.919664 0-.306555 0-.61311 0-.919665 0-.383193 0-.766387 0-1.14958-.076638h-.076639-.153277-.229917c-.153277 0-.383193 0-.53647-.076639-.383194-.076639-.689749-.076639-1.072942-.153277-2.835633-.383194-5.671265-1.22622-8.35362-2.452439-2.758993-1.226219-5.36471-2.912271-7.74051-5.058155s-4.445045-4.674961-6.054458-7.587232-2.758993-6.131097-3.295464-9.5032c-.229917-1.686052-.383194-3.448742-.306555-5.134794 0-.459832.076638-.919665.076638-1.379497v-.076639-.153277-.383194c0-.229916.076639-.459832.076639-.689748.076639-.919665.229916-1.839329.383194-2.758994 1.302858-7.357316 4.981516-14.561355 10.652781-20.002703 1.456135-1.379497 2.988909-2.605716 4.598322-3.755297s3.372103-2.145884 5.211433-2.98891c1.839329-.843025 3.678658-1.532774 5.671264-2.069245 1.915968-.536471 3.908574-.843026 5.97782-1.072942.996303-.076638 1.992606-.153277 3.065548-.153277h.689748.843026.536471.076639.229916l.843026.076639c2.222522.153277 4.368406.459832 6.51429.996303 4.291768.919664 8.506897 2.529077 12.415471 4.674961 7.817149 4.368407 14.484717 11.112613 18.546568 19.236317 2.069246 4.061851 3.525381 8.430258 4.215129 12.951942.153278 1.14958.306555 2.299161.383194 3.448742l.076639.843025.076638.843026v.843026.843026.766387.843026c0 .536471-.076638 1.456135-.076638 1.992606-.076639 1.22622-.229916 2.529078-.383194 3.755297-.153277 1.226219-.383193 2.452439-.61311 3.678658-.229916 1.22622-.536471 2.452439-.843025 3.60202-.61311 2.3758-1.379497 4.7516-2.299162 7.1274-1.839329 4.598322-4.291767 9.043368-7.204038 13.105219-5.901181 8.123704-13.948246 14.714633-23.144891 18.929762-4.598323 2.069245-9.426562 3.602019-14.408078 4.368406-2.452438.459833-4.981516.689749-7.510593.766387h-.459833-.383193-.843026-1.226219-.61311-.076639-.229916c-1.379497 0-2.682355-.076638-4.061852-.229916-5.364709-.383193-10.65278-1.379496-15.864213-2.835632-5.134793-1.456136-10.11631-3.525381-14.86791-5.977819-9.426561-5.058155-17.9334579-11.955639-24.524387-20.309259-3.2954646-4.13849-6.2077356-8.660174-8.5835356-13.335135-2.3758-4.674962-4.2917678-9.656478-5.6712646-14.637994-1.3794968-5.058155-2.2225226-10.192949-2.6057162-15.404381l-.0766387-.996303v-.229916-.229917-.459832-.843026-.229916-.306555-.613109-1.22622-.229916s0 .076639 0-.076638v-.459833c0-.613109 0-1.302858 0-1.915968.0766387-2.529077.3065549-5.211432.6131097-7.817148.3065549-2.605716.7663871-5.288071 1.3028581-7.893787s1.1495807-5.211433 1.9159678-7.817149c1.4561355-5.134793 3.2954645-10.11631 5.4413484-14.791271 4.3684065-9.3499226 10.0396711-17.7035421 16.8605164-24.3711099 1.6860516-1.6860516 3.4487417-3.2188258 5.2880707-4.7516001 1.839329-1.4561355 3.755297-2.8356322 5.747904-4.1384903 1.915967-1.3028581 3.985213-2.4524388 6.054458-3.5253807.996303-.536471 2.069245-1.072942 3.142187-1.5327742.536471-.2299162 1.072942-.4598323 1.609413-.6897484.536471-.2299162 1.072942-.4598323 1.609413-.6897484 2.145884-.9196646 4.368406-1.6860517 6.667568-2.3758001.536471-.1532774 1.14958-.3065548 1.686051-.5364709.536471-.1532775 1.149581-.3065549 1.686052-.4598323 1.149581-.3065548 2.299161-.6131097 3.448742-.8430258.536471-.1532774 1.149581-.2299162 1.76269-.3831936.61311-.1532774 1.149581-.2299161 1.762691-.3831935.613109-.0766387 1.14958-.2299162 1.76269-.3065549l.843026-.1532774.919664-.1532774c.61311-.0766387 1.149581-.1532774 1.762691-.2299161.689748-.0766388 1.302858-.1532775 1.992606-.2299162.536471-.0766387 1.456136-.1532774 1.992607-.2299161.383193-.0766387.843025-.0766387 1.226219-.1532774l.843026-.0766387.383193-.0766388h.459833c.689748-.0766387 1.302858-.0766387 1.992606-.1532774l.996303-.0766387s.383194 0 .076639 0h.229916.459832c.536471 0 1.149581-.0766387 1.686052-.0766387 2.222523-.0766387 4.521684-.0766387 6.744207 0 4.445045.1532774 8.813451.6897484 13.02858 1.4561355 8.506897 1.6094129 16.477323 4.2917678 23.758001 7.8937872 7.280677 3.5253807 13.718329 7.8937872 19.389593 12.6453873.383194.3065548.689749.6131097 1.072942.9196645.306555.3065549.689749.6131097.996304.9196645.689748.6131097 1.302858 1.2262194 1.992606 1.8393291.689749.6131097 1.302858 1.2262194 1.915968 1.8393291.61311.6131096 1.226219 1.2262193 1.839329 1.9159677 2.3758 2.5290775 4.598323 5.0581549 6.590929 7.6638711 3.985213 5.134794 7.204039 10.346226 9.733116 15.251103.153278.306555.306555.61311.459833.919665.153277.306555.306554.61311.459832.919664.306555.61311.61311 1.22622.843026 1.83933.306555.613109.536471 1.14958.843026 1.76269.229916.61311.536471 1.149581.766387 1.76269.919664 2.299162 1.839329 4.521684 2.529077 6.590929 1.149581 3.372104 1.992607 6.361013 2.682355 8.96673.229916 1.072941 1.226219 1.76269 2.299161 1.609412 1.149581-.076638 1.992607-.996303 1.992607-2.145883.076638-2.758994 0-6.054459-.383194-9.809755z" fill="url(#a)"/></svg>