<svg height="300" preserveAspectRatio="xMidYMid" viewBox="0 0 256 300" width="256" xmlns="http://www.w3.org/2000/svg"><path d="m241.982317 98.9023279c-14.55311-8.1959545-32.844236 2.4978151-35.775673 4.3364841l-62.835092 35.637224c-9.277086-7.368401-22.4942-7.055378-31.412073.743938s-10.989064 20.857008-4.922437 31.033184c6.066627 10.176178 18.538106 14.56396 29.639982 10.428097 11.101875-4.135865 17.662834-15.613941 15.592914-27.279041l62.661633-35.559168.381608-.23417c4.119623-2.601891 13.677148-6.496053 18.143686-3.972219 3.217643 1.81265 5.056296 7.883727 5.203735 16.825557h-.078056v78.603106c-.013008 7.332185-3.924244 14.104232-10.268703 17.779584l-90.07664 52.037807c-6.354949 3.65466-14.173782 3.65466-20.528732 0l-90.07664-52.037807c-6.3444591-3.675352-10.255695-10.447399-10.2687023-17.779584v-104.032247c.0130073-7.3321846 3.9242432-14.1042321 10.2687023-17.7795843l81.52517-47.0508499c7.756494 8.8983799 20.755207 11.0008942 30.921348 5.0014624 10.16614-5.9994317 14.609143-18.3949753 10.569017-29.4865274-4.040125-11.09155218-15.41464-17.7254227-27.057703-15.78065574-11.643062 1.94476697-20.24417 11.91521064-20.460321 23.71769834l-84.127037 48.5686193c-11.73063636 6.766513-18.97076608 19.2674965-19.002303 32.8098373v104.006229c.01281456 13.536036 7.22896827 26.042165 18.9415928 32.827182l90.0766402 52.037807c11.724138 6.744295 26.150375 6.744295 37.874513 0l90.07664-52.037807c11.704597-6.78035 18.919513-19.274423 18.941593-32.801164v-75.610932h.06071c.442318-17.736219-4.301754-29.48809-13.989372-34.9520601z" fill="#27ae60"/></svg>