<svg height="256" preserveAspectRatio="xMidYMid" viewBox="0 0 256 256" width="256" xmlns="http://www.w3.org/2000/svg" xmlns:xlink="http://www.w3.org/1999/xlink"><radialGradient id="a" cx="71.139437%" cy="30.656067%" r="62.854937%"><stop offset="0" stop-color="#8d5391"/><stop offset="1" stop-color="#56185b"/><stop offset="1" stop-color="#55175a"/></radialGradient><linearGradient id="b" x1="5.177026%" x2="94.272313%" y1="21.82545%" y2="78.17455%"><stop offset="0" stop-color="#6c8a55"/><stop offset="1" stop-color="#5e7a44"/></linearGradient><filter id="c" height="200%" width="200%" x="-50%" y="-50%"><feOffset dx="4" dy="6" in="SourceAlpha" result="shadowOffsetOuter1"/><feGaussianBlur in="shadowOffsetOuter1" result="shadowBlurOuter1" stdDeviation="3"/><feColorMatrix in="shadowBlurOuter1" result="shadowMatrixOuter1" type="matrix" values="0 0 0 0 0   0 0 0 0 0   0 0 0 0 0  0 0 0 0.21 0"/><feMerge><feMergeNode in="shadowMatrixOuter1"/><feMergeNode in="SourceGraphic"/></feMerge></filter><linearGradient id="d" x1="100%" x2="0%" y1="73.957917%" y2="23.824292%"><stop offset="0" stop-color="#90c567"/><stop offset=".589756594" stop-color="#a2ce7f"/><stop offset="1" stop-color="#98c871"/></linearGradient><path d="m256 128c0 70.692429-57.307571 128-128 128-70.6924288 0-128-57.307571-128-128 0-70.6924288 57.3075712-128 128-128 70.692429 0 128 57.3075712 128 128" fill="url(#a)"/><path d="m127.001949.00840858c57.88694-.08308772 129.081139 58.30287722 101.80117 145.96491242-64.540694-13.141084-113.611353-69.6971229-101.80117-145.96491242" fill="url(#b)" filter="url(#c)"/><path d="m146.493031 2.09630565c51.495173 9.76392985 97.90453 61.41305265 86.863594 124.41001135-52.08577-9.289356-97.301458-57.5635708-86.863594-124.41001135" fill="url(#d)"/></svg>