<svg height="290" preserveAspectRatio="xMidYMid" viewBox="0 0 256 290" width="256" xmlns="http://www.w3.org/2000/svg"><path d="m152.911887 137.677944 62.901911-35.39877c2.093954 1.834737 4.504574 3.314014 7.138648 4.344194l.044143 76.366045c-9.069145 3.526307-15.500565 12.372477-15.500565 22.727602 0 1.787875.191721 3.530767.555638 5.209064l-62.983341 35.793501c-4.233451-3.623524-9.722625-5.810589-15.720309-5.810589-6.165418 0-11.793487 2.311105-16.072531 6.117956l-65.0343984-37.710299c.1731789-1.174643.2628935-2.376613.2628935-3.599633 0-11.308857-7.6706757-20.818003-18.0705982-23.563587l-.1103023-74.648023c10.4559421-2.707271 18.1809005-12.2436249 18.1809005-23.5924259 0-2.1058259-.2659752-4.1492482-.7660202-6.0982166l62.2642781-35.7390133c4.343797 4.1214949 10.203024 6.6483105 16.649754 6.6483105 13.394003 0 24.251988-10.9072523 24.251988-24.3620298 0-13.4547776-10.857985-24.3620299-24.251988-24.3620299s-24.251988 10.9072523-24.251988 24.3620299c0 1.4623619.128264 2.8946302.374108 4.2860717l-63.2746436 36.318952c-4.1656456-3.3871739-9.4706902-5.4161043-15.2474763-5.4161043-13.3940032 0-24.2519881 10.9072522-24.2519881 24.3620298 0 10.193438 6.23214515 18.9246759 15.0776865 22.5585449l.1132468 76.640759c-8.90554951 3.605654-15.1909333 12.367847-15.1909333 22.604732 0 13.454777 10.8579849 24.36203 24.2519881 24.36203 6.6880559 0 12.7437998-2.719533 17.1311491-7.117816l64.2370748 37.24797c-.343504 1.632918-.524188 3.326174-.524188 5.061822 0 13.454777 10.857985 24.36203 24.251988 24.36203s24.251988-10.907253 24.251988-24.36203c0-1.895774-.215561-3.740973-.623403-5.512212l62.813094-35.69675c4.264742 3.746708 9.847603 6.016986 15.958321 6.016986 13.394003 0 24.251988-10.907253 24.251988-24.36203 0-11.195978-7.51831-20.627993-17.759999-23.479355l-.043256-74.833327c10.263768-2.836817 17.803255-12.2796197 17.803255-23.4913539 0-13.4547776-10.857985-24.3620298-24.251988-24.3620298s-24.251988 10.9072522-24.251988 24.3620298c0 1.7984507.193996 3.5513855.562114 5.23884l-63.211644 35.5730769c-4.202548-3.511281-9.60502-5.622997-15.498482-5.622997-13.394003 0-24.251988 10.907252-24.251988 24.362029 0 13.454778 10.857985 24.36203 24.251988 24.36203s24.251988-10.907252 24.251988-24.36203c0-1.993659-.238396-3.931386-.688113-5.785984z" fill="#e05f47"/></svg>