<svg height="256" preserveAspectRatio="xMidYMid" viewBox="0 0 256 256" width="256" xmlns="http://www.w3.org/2000/svg"><path d="m127.997333 0c-70.6894724 0-127.997333 57.304-127.997333 127.994667 0 70.696 57.3078606 128.005333 127.997333 128.005333 70.705473 0 128.002667-57.309333 128.002667-128.005333 0-70.690667-57.294527-127.994667-128.002667-127.994667zm59.123899 116.872-58.238547 78.845333-58.2358799-78.845333c-4.9281026-5.794667-9.8455384-25.968 7.0668139-37.1173333 14.4056335-9.496 28.088585-2.304 35.259401 6.0293333 2.674723 3.1093333 7.258818 6.7706667 15.909665 6.7706667 8.653514 0 13.237609-3.6613334 15.912332-6.7706667 7.168149-8.3333333 20.851101-15.5253333 35.259401-6.0293333 16.912352 11.1493333 11.99225 31.3200003 7.066814 37.1173333z" fill="#630"/></svg>