<svg height="256" preserveAspectRatio="xMidYMid" viewBox="0 0 256 256" width="256" xmlns="http://www.w3.org/2000/svg"><path d="m128 0c-14.144 0-25.6 11.456-25.6 25.6v89.6c0 14.128 11.456 25.6 25.6 25.6s25.6-11.472 25.6-25.6v-59.616c29.824 10.56 51.2 38.976 51.2 72.416 0 42.4-34.4 76.8-76.8 76.8s-76.8-34.4-76.8-76.8c0-21.216 8.592-40.416 22.496-54.304 10-10 10-26.208 0-36.208s-26.208-10-36.208 0c-23.152 23.152-37.488 55.152-37.488 90.512 0 70.688 57.312 128 128 128s128-57.312 128-128-57.312-128-128-128" fill="#1e8cbe"/></svg>