<svg height="248" preserveAspectRatio="xMidYMid" viewBox="0 0 256 248" width="256" xmlns="http://www.w3.org/2000/svg"><path d="m146.302 72.728c-1.751.076-3.213 1.364-3.51 3.092s-12.032 77.699-13.275 77.699c-1.242 0-13.672-58.383-13.672-58.383-.366-1.561-1.692-2.714-3.288-2.858-1.599-.144-3.108.752-3.748 2.226l-12.426 28.649h-7.089c-1.466-3.062-4.567-5.192-8.189-5.192-5.028 0-9.105 4.076-9.105 9.105 0 5.028 4.077 9.105 9.105 9.105 3.777 0 7.015-2.3 8.394-5.575h9.326c1.483 0 2.823-.881 3.413-2.241s8.044-20.572 8.923-20.572c.879 0 15.303 65.344 15.303 65.344.395 1.687 1.898 2.873 3.622 2.873 1.884-.055 3.37-1.349 3.67-3.094s12.394-78.806 13.464-78.806c1.07 0 13.503 51.764 13.503 51.764.41 1.57 1.791 2.695 3.41 2.776 1.602.085 3.108-.889 3.678-2.41l9.836-26.282 6.559 10.069c.561-4.691.437-9.437-.333-14.233l-3.932-6.154c-.753-1.195-2.102-1.855-3.529-1.717-1.405.146-2.608 1.075-3.106 2.399l-8.347 22.302-14.895-57.106c-.432-1.648-1.929-2.783-3.608-2.783-.051 0-.103.001-.154.003z" fill="#8d8e92"/><path d="m128 208.3098c-46.23 0-83.707-37.691-83.707-84.184 0-46.494 37.477-84.185 83.707-84.185s83.707 37.691 83.707 84.185c0 46.493-37.477 84.184-83.707 84.184m0-207.775c-70.693 0-128 55.397-128 123.733 0 68.335 57.307 123.732 128 123.732s128-55.397 128-123.732c0-68.336-57.307-123.733-128-123.733" fill="#c4222f"/></svg>