<svg height="222" preserveAspectRatio="xMidYMid" viewBox="0 0 256 222" width="256" xmlns="http://www.w3.org/2000/svg" xmlns:xlink="http://www.w3.org/1999/xlink"><linearGradient id="a"><stop offset="0" stop-color="#fbe3d0"/><stop offset=".301" stop-color="#f7dbc6"/><stop offset=".779" stop-color="#eec7ad"/><stop offset="1" stop-color="#e3b092"/></linearGradient><radialGradient id="b" cx="59.777066%" cy="-7.200024%" r="88.42154%" xlink:href="#a"/><radialGradient id="c" cx="4.725424%" cy="121.675288%" r="40.679657%"><stop offset="0" stop-color="#c2a286"/><stop offset=".195" stop-color="#cfb6a0"/><stop offset=".554" stop-color="#e5d6cb"/><stop offset=".835" stop-color="#f2ebe6"/><stop offset="1" stop-color="#f7f2f0"/></radialGradient><linearGradient id="d"><stop offset="0" stop-color="#f7f1ec"/><stop offset=".58" stop-color="#edded7"/><stop offset="1" stop-color="#e8d5cd"/></linearGradient><radialGradient id="e" cx="41.058055%" cy="120.81661%" r="31.697554%" xlink:href="#d"/><linearGradient id="f" x1="48.946517%" x2="50.135885%" y1="88.240861%" y2="31.610671%"><stop offset="0" stop-color="#f4f1ef"/><stop offset="1" stop-color="#eeddd2"/></linearGradient><linearGradient id="g"><stop offset="0" stop-color="#f7f1ec"/><stop offset=".34" stop-color="#efdcd1"/><stop offset=".754" stop-color="#e6c7b7"/><stop offset="1" stop-color="#e3bfad"/></linearGradient><linearGradient id="h" x1="-12.795932%" x2="94.646591%" xlink:href="#g" y1="25.890667%" y2="66.715333%"/><linearGradient id="i"><stop offset="0" stop-color="#fff"/><stop offset="1" stop-color="#fff" stop-opacity="0"/></linearGradient><linearGradient id="j" x1="21.798208%" x2="77.044955%" xlink:href="#i" y1="-23.040984%" y2="126.7037%"/><radialGradient id="k" cx="56.01811%" cy="-2.831936%" r="266.955044%" xlink:href="#a"/><linearGradient id="l" x1="15.711111%" x2="89.747368%" y1="-20%" y2="95.625431%"><stop offset="0" stop-color="#f7f1ec"/><stop offset=".34" stop-color="#efddd1"/><stop offset=".754" stop-color="#e6c9b7"/><stop offset="1" stop-color="#e3c2ad"/></linearGradient><linearGradient id="m"><stop offset=".141" stop-color="#fce9da"/><stop offset=".356" stop-color="#f9e1d0"/><stop offset=".722" stop-color="#f1cdb5"/><stop offset=".816" stop-color="#eec7ad"/><stop offset="1" stop-color="#e3b092"/></linearGradient><radialGradient id="n" cx="80.48778%" cy="16.665549%" r="265.26303%" xlink:href="#m"/><linearGradient id="o" x1="44.116849%" x2="57.489307%" xlink:href="#g" y1="-12.264917%" y2="111.832108%"/><radialGradient id="p" cx="-18.931098%" cy="40.540636%" r="68.973781%" xlink:href="#d"/><radialGradient id="q" cx="31.294239%" cy="1.849758%" r="134.01811%"><stop offset=".227" stop-color="#fcecdc"/><stop offset=".397" stop-color="#f9e4d2"/><stop offset=".687" stop-color="#f1cfb7"/><stop offset=".779" stop-color="#eec7ad"/><stop offset="1" stop-color="#e3b092"/></radialGradient><linearGradient id="r"><stop offset="0" stop-color="#fff"/><stop offset=".266" stop-color="#fdfdfd"/><stop offset=".409" stop-color="#f5f5f5"/><stop offset=".522" stop-color="#e8e7e7"/><stop offset=".62" stop-color="#d5d4d4"/><stop offset=".708" stop-color="#bcbbbb"/><stop offset=".789" stop-color="#9e9c9c"/><stop offset=".865" stop-color="#7a7778"/><stop offset=".934" stop-color="#514e4f"/><stop offset="1" stop-color="#231f20"/></linearGradient><linearGradient id="s" x1="36.602132%" x2="59.699739%" xlink:href="#r" y1="-69.312308%" y2="91.705641%"/><linearGradient id="t" x1="-.012623%" x2="100.030807%" xlink:href="#g" y1="49.990846%" y2="49.990846%"/><linearGradient id="u" x1="120.815909%" x2="49.931818%" xlink:href="#g" y1="113.579412%" y2="65.57402%"/><linearGradient id="v" x1="12.400715%" x2="76.26086%" xlink:href="#g" y1="65.379793%" y2="-18.983257%"/><linearGradient id="w" x1="-93.804444%" x2="94.311111%" xlink:href="#i" y1="-25.473854%" y2="67.576773%"/><linearGradient id="x" x1="-55.104142%" x2="125.794379%" xlink:href="#r" y1="-171.025%" y2="176.947321%"/><radialGradient id="y" cx="6.178611%" cy="-6.624248%" r="87.796619%" xlink:href="#i"/><linearGradient id="z" x1="68.097989%" x2="4.278673%" xlink:href="#i" y1="-.792116%" y2="131.482573%"/><linearGradient id="A" x1="28.466231%" x2="66.337037%" xlink:href="#r" y1="22.032731%" y2="72.055756%"/><radialGradient id="B" cx="50.005044%" cy="49.968518%" r="37.409007%" xlink:href="#m"/><path d="m249.952756 94.1354331s4.837795-6.9543307 5.543307-11.0866142c.806299-4.0314961.705512-6.3496063-1.411024-10.1795276-.806299-1.4110236-2.922834-3.527559-6.450393-4.535433-2.318111-.6047244-5.03937-.8062992-7.357481-1.9149607-3.325984-1.6125984-6.349606-3.3259842-6.651968-3.4267716 0 0-6.148032-5.7448819-13.908662-6.4503937 0 0-20.560629-32.1511811-60.170078-35.376378 0 0-52.207874-8.0629921-86.8787405 46.7653544 0 0-6.9543307 13.0015748-15.7228346 29.0267716-8.9700788 16.8314957-20.4598425 25.9023627-27.2125984 30.1354327-25.39842523 10.179528-31.94960633 30.63937-28.62362208 39.811024 3.52755905 9.776378 12.90078738 17.133858 20.35905508 23.382677 7.3574804 6.148032 14.9165355 10.381103 23.080315 15.319685l.6047244.40315c37.896063 19.955905 84.4598421 19.149606 118.8283461 4.737008 15.722835-6.651969 29.026772-16.025197 38.500788-27.615748 7.962204-9.675591 12.195275-20.258268 13.404724-31.244095l.100788-.100787s8.163779-5.543307 13.404724-12.094488c5.44252-6.752756 7.659843-15.118111 7.659843-15.118111 3.023622-3.930708 5.543307-7.659842 7.458267-11.388976-.100787.100787 5.744882-11.388976 5.44252-19.0488189z" fill="url(#b)" opacity=".96"/><path d="m141.807874 118.324409c-6.853543 4.535434-18.343307 11.086615-26.809449 12.598426-3.225197.604724-6.248819 1.108661-9.474016 1.411023-4.63622.604725-9.1716531.907087-13.8078736 1.108662-4.6362204.201574-9.0708661 0-13.7070866 0-15.0173228.403149-39.1055118-4.837796-53.9212598.705511-12.9007874 4.837796-25.90236223 25.6-16.62992128 33.562205 12.29606298 10.381103 36.28346458 4.837795 43.74173228 2.72126 71.35748-21.770079 103.206299-61.480315 103.206299-61.480315s-5.644094 4.938583-12.598425 9.373228z" fill="url(#c)"/><path d="m40.2141732 173.858268 3.2251969-2.318111c-19.0488189 4.535434-26.103937-10.280314-16.0251969-20.459842-7.0551181 2.31811-10.1795275 14.110236-5.3417323 19.754331-8.2645669-5.744882-1.6125984-26.204725 8.6677166-30.034646-10.1795276.705512-20.2582677 14.412598-16.2267717 25.096063-5.74488186-7.055118-3.6283464-32.453543 37.6944882-34.166929-13.7070866-4.031496-45.9590551-1.511811-46.66456691 28.32126-.1007874 4.132283.70551181 6.148031 4.63622051 9.67559-.30236225-.100787 7.4582677 7.357481 30.0346456 4.132284z" fill="url(#e)" opacity=".66"/><path d="m70.4503937 162.368504c-13.7070866 5.543307-28.7244094 11.187402-43.7417323 10.985827-10.4818897-.100788-23.98740156-4.233071-20.3590551-17.940158 1.51181102-5.946456 5.4425197-11.187401 10.0787402-15.11811 14.9165354-12.598425 44.0440944-8.466142 60.9763779-3.628346-23.3826772-9.977953-47.4708661-9.171654-61.6818898 0-7.45826767 4.837795-20.05669287 22.777952-10.78425192 33.259842 8.86929132 9.977953 29.42992122 5.543307 35.37637792 4.132284 67.1244094-15.218898 116.6110234-63.899213 116.6110234-63.899213-7.458267 5.845669-46.563779 36.182677-86.4755903 52.207874z" fill="url(#f)"/><path d="m121.045669 135.458268c-13.203149 9.776378-38.5007871 22.677165-58.3559052 29.429921-7.4582677-4.63622-2.2173229-14.412598 16.831496-22.072441 8.0629922-3.325984 18.5448819-6.148031 31.6472442-8.163779-.100787.100787 11.590551-.302363 9.877165.806299z" fill="url(#h)" opacity=".8"/><path d="m193.007874 106.330709c-.100787-11.8929137-7.76063-20.5606303-15.218898-29.2283468 10.48189 31.4456688-106.9354327 110.8661418-166.1984248 100.1826768 64.503937 37.392126 182.3244098-4.837795 181.4173228-70.95433z" fill="url(#j)"/><path d="m231.206299 81.3354331c3.829921 9.4740157 8.970079 29.4299209 6.853544 41.3228349 1.310236-1.914961 3.930708-6.651969 4.837795-8.466142 2.31811-5.240945 2.620472-10.07874 2.31811-13.404724-.806299-9.5748036-1.310236-19.0488193-5.744882-27.6157485.705512 8.6677166-8.163779 8.1637796-8.264567 8.1637796z" fill="url(#k)" opacity=".49"/><path d="m249.952756 94.1354331c.201575 5.7448819-3.527559 14.9165359-3.527559 14.9165359.806299-2.015749.503937-5.44252.503937-7.559056.100787-6.8535429-1.310236-13.7070862-3.426772-20.2582673-2.015748-5.9464567-4.333858-12.3968504-8.768504-17.0330709-.201575-.2015748-1.511811-1.9149606-1.91496-1.9149606 0 0 12.39685 6.7527559 17.234645 31.7480315" fill="url(#l)" opacity=".95"/><path d="m226.570079 83.6535433c-.503937 21.2661417-9.977953 26.1039367-15.92441 30.2362207 2.318111 5.03937 7.559055 24.390551 6.248819 35.880315 2.72126-2.116536 7.458268-7.357481 10.381103-10.985827 1.612598-2.116535 3.225196-4.636221 4.63622-7.458268.201575-14.815748-1.108661-31.8488186-5.341732-47.6724407z" fill="url(#n)" opacity=".49"/><path d="m231.609449 136.466142c2.015748-3.527559 4.535433-7.458268 5.341732-12.195276 1.209449-7.256693 0-15.722835-.907087-21.770079-5.03937-32.4535429-17.03307-59.4645665-55.634645-76.5984248-5.543307-2.519685-11.792126-4.2330709-17.940158-4.6362205l-.604724 2.5196851c4.938583.2015748 10.381102 1.6125984 15.11811 3.3259842 9.574803 3.3259843 20.359055 9.9779528 27.615748 16.9322835 10.88504 10.1795275 17.738583 24.3905512 21.870866 39.7102362 4.233071 15.8236221 5.644095 32.7559053 5.341733 47.7732283 0 1.511811 0 3.225197-.201575 4.938583z" fill="url(#o)" opacity=".8"/><path d="m156.32126 107.338583c-28.018898-56.3401578-58.8598427-95.9496066-58.8598427-95.9496066-3.8299212-4.23307089-6.1480315-3.93070868-6.1480315-3.93070868s-.8062992.1007874-2.7212598.4031496l-1.3102362.40314961c-18.6456693 5.64409447-29.8330709 16.22677167-34.4692914 20.96377957-1.4110236 1.3102362-2.1165354 2.1165354-2.1165354 2.1165354s-1.6125984 1.6125984-.503937 7.2566929c0 0 .4031496 1.3102362 1.2094488 3.9307087 2.3181102 7.0551181 5.0393701 14.1102362 8.0629921 20.9637795 5.3417323 12.4976378 11.0866142 24.7937008 17.5370079 36.988976 9.3732283 17.83937 15.6220472 29.530709 26.1039372 46.664567m53.215748-39.811023c-28.018898-56.3401578-58.8598427-95.9496066-58.8598427-95.9496066-3.8299212-4.23307089-6.1480315-3.93070868-6.1480315-3.93070868s-.8062992.1007874-2.7212598.4031496l-1.3102362.40314961c-18.6456693 5.64409447-29.8330709 16.22677167-34.4692914 20.96377957-1.4110236 1.3102362-2.1165354 2.1165354-2.1165354 2.1165354s-1.6125984 1.6125984-.503937 7.2566929c0 0 .4031496 1.3102362 1.2094488 3.9307087 2.3181102 7.0551181 5.0393701 14.1102362 8.0629921 20.9637795 5.3417323 12.4976378 11.0866142 24.7937008 17.5370079 36.988976 9.3732283 17.83937 15.6220472 29.530709 26.1039372 46.664567"/><path d="m161.76378 104.919685c12.094488-12.296063 15.521259-28.5228346 15.521259-28.5228346-4.132283 7.5590551-12.094488 14.5133858-16.529133 17.7385827z" fill="url(#p)"/><path d="m250.255118 70.7527559c1.914961.8062992 4.535433 3.8299213 4.535433 9.1716535 0 3.4267717-2.822047 8.8692914-3.829921 10.6834646-.907087 1.8141732-.604724.9070866-.604724.9070866-1.310237-6.9543307-5.44252-15.6220472-8.365355-19.9559055 3.325984 1.3102362 8.264567-.8062992 8.264567-.8062992z" fill="url(#q)" opacity=".49"/><path d="m130.620472 128.806299c14.311811-10.784252 25.801575-21.366929 25.801575-21.366929-28.018897-56.3401574-58.8598423-95.9496062-58.8598423-95.9496062-3.8299212-4.23307089-6.1480315-3.93070868-6.1480315-3.93070868s-.8062992.1007874-2.7212598.4031496l-1.3102362.40314961c-18.6456693 5.64409447-29.8330709 16.22677167-34.4692914 20.96377957-1.4110236 1.3102362-2.1165354 2.1165354-2.1165354 2.1165354s-1.6125984 1.6125984-.503937 7.2566929c0 0 .4031496 1.3102362 1.2094488 3.9307087 2.3181102 7.0551181 5.0393701 14.1102362 8.0629921 20.9637795 5.3417323 12.4976378 11.0866142 24.7937008 17.5370079 36.9889766 9.3732284 17.83937 15.6220472 29.530708 26.1039368 46.664567 0-.40315 17.335433-10.48189 27.414173-18.444095z" fill="#47b0d4"/><path d="m95.9496063 12.6992126c-2.8220472-3.02362205-4.3338583-3.22519685-4.3338583-3.22519685l-2.519685.4031496-1.2094488.20157485c-18.9480315 5.7448818-30.0346457 16.831496-33.6629922 20.3590551-1.2094488 1.2094488-1.9149606 1.9149606-1.9149606 2.015748h.1007874l-.1007874.2015748c-.1007874.4031496-.7055118 1.9149606 0 5.3417323 0 0 .4031496 1.3102362 1.2094488 3.8299213 2.1165355 6.3496063 4.7370079 13.2031496 8.0629922 20.7622047 5.2409448 12.296063 11.0866141 24.6929134 17.335433 36.888189 6.7527559 12.9007876 11.6913386 22.1732286 17.6377953 32.3527556.4031496-18.746456 3.5275593-54.1228344 19.1496063-90.8094486-11.187402-17.1338582-19.1496063-27.4141732-19.7543307-28.3212598z" fill="#fff" opacity=".5"/><path d="m111.672441 126.488189s-9.574803 1.511811-18.9480316.907087l11.1874016 18.746456 9.070866-5.543307c.100788.100788-1.310236-14.110236-1.310236-14.110236z" fill="url(#s)" opacity=".46"/><path d="m177.788976 77.1023622c49.889764 53.2157478 46.765355 134.3496068-74.481889 144.2267718 60.774803 1.91496 102.4-30.740158 109.75748-57.348032 10.381102-37.492913-21.870866-75.892913-35.275591-86.8787398z" fill="url(#t)" opacity=".8"/><path d="m25.6 129.108661c7.2566929-3.527559 27.5149606-5.946456 35.4771654-1.814173 0-9.977953-16.4283465-18.746457-16.4283465-18.746457z" fill="url(#u)" opacity=".8"/><path d="m181.417323 26.2047244c-11.388977-1.8141732-23.68504 4.1322835-20.56063 70.0472441-8.365354-19.0488189-2.72126-75.0866142 1.511811-74.8850394s17.033071 3.6283465 19.048819 4.8377953z" fill="url(#v)" opacity=".8"/><path d="m45.0519685 114.998425c-9.6755905 11.086614-19.4519685 14.110236-19.4519685 14.110236-9.4740157-10.985826-17.63779528-21.266141-15.82362205-32.4535429 2.72125985-17.1338583 19.85511815-19.6535433 19.85511815-19.6535433 7.0551181-6.1480315 8.8692913-2.2173228 8.8692913-2.2173228 60.3716535 10.9858267 6.5511811 40.214173 6.5511811 40.214173z" fill="#b84e41"/><path d="m63.6976378 73.4740157c-7.7606299-2.9228346-17.3354331-5.03937-25.4992126-6.7527559-10.784252-2.2173228-20.0566929 5.7448819-26.8094488 19.9559056-2.51968506 5.543307-3.32598427 10.6834645-2.51968506 16.2267716.60472441 3.628346 3.42677166 8.466142 6.34960626 12.8-5.24094484-8.16378-7.76062988-15.622047.7055118-14.311811 0 0 26.9102363 5.240945 74.6834646 52.107087l12.497638-6.752756c-20.2582679-32.655118-31.2440947-56.4409452-39.4078742-73.2724413z" fill="#ff6d5a"/><path d="m39.6094488 108.548031c-13.2031496-6.752755-22.6771653-9.5748027-23.2818897-9.6755901-2.2173229-.503937-5.6440945-1.4110236-6.75275595 2.0157481 1.10866145-16.0251969 15.01732285-34.4692914 26.70866145-33.2598425.8062992.1007874 2.6204724.503937 3.3259842.7055118 3.3259843.7055118 6.9543307 2.2173228 10.784252 3.3259842-3.0236221 10.4818898-7.2566929 23.2818898-10.784252 36.8881885z" fill="url(#w)"/><path d="m103.206299 146.847244s-2.519685 1.612599-5.7448817 3.325984c-3.3259842 1.814174-5.0393701 2.519685-5.0393701 2.519685-8.7685039-8.768504-8.6677165-8.768504-23.2818897-21.366929 13.7070866.806299 24.088189-1.209449 24.088189-1.209449z" fill="url(#x)" opacity=".65"/><path d="m39.6094488 108.548031v3.829922c-10.2803149-6.349607-22.7779527-11.691339-26.4062992-10.985827-5.24094488 1.108661.9070866 10.985827 2.015748 13.001575-4.9385826-7.962205-6.85354327-13.001575-4.535433-15.1181104.9070866-.8062993 2.7212598-1.1086615 5.4425197-.4031497 7.1559055 2.0157481 18.5448818 7.1559051 23.4834645 9.6755901z" fill="url(#y)" opacity=".58"/><path d="m180.611024 25.9023622s-6.047244-2.2173228-9.373229-2.9228346c-3.225197-.7055119-8.970078-1.5118111-8.970078-1.5118111-3.628347 13.4047244-5.744882 37.5937008-.604725 83.4519685 0 0-21.669291 19.048819-48.680315 35.880315 0 0-9.977953-71.2566929 14.916536-120.6425197 0 0 5.644094-12.59842518 16.025196-17.53700786 0 0 29.429922-10.28031496 35.477166 12.90078736 1.612598 6.2488189 1.814173 10.4818898 1.814173 10.4818898z" fill="#509d9e"/><path d="m181.417323 26.2047244s-.100788-4.7370079-1.814173-10.9858268c-6.047244-23.18110232-35.477166-12.90078736-35.477166-12.90078736-10.280315 4.73700787-16.025197 17.53700786-16.025197 17.53700786-24.7937 49.3858268-14.916535 120.6425199-14.916535 120.6425199 27.111811-16.932284 48.579528-35.880315 48.579528-35.880315-10.381103-91.817323 7.35748-100.18267733 12.8-96.75590568 5.442519 3.42677168 6.248818 18.34330708 6.248818 18.34330708z" fill="#66c8ca"/><path d="m180.207874 25.8015748s-.604724-2.6204724-1.914961-8.8692913c-4.535433-22.47559059-34.771653-13.00157484-34.771653-13.00157484-9.171654 4.73700788-15.017323 17.73858264-15.017323 17.73858264-19.855118 40.2141733-16.529134 94.9417327-14.916535 112.3779527 25.096063-22.374803 38.500787-42.8346456 43.943307-50.4944881-6.450394-71.3574803 10.07874-78.61417322 15.11811-75.38897637 1.209449.70551181 4.233071 1.91496067 6.651968 17.23464567.705512.2015748.907087.4031496.907087.4031496z" fill="url(#z)" opacity=".4"/><path d="m113.788976 134.148031c.40315 3.628347.604725 5.644095.604725 5.644095 26.204724-16.428346 45.656693-33.76378 45.656693-33.76378-.503937-4.132283-.503937-6.2488184-.8063-10.8850389-4.737007 6.1480319-27.011023 25.2976379-45.455118 39.0047239z" fill="url(#A)" opacity=".58"/><path d="m207.52126 152.793701c-6.752756 49.889764-128.4031498 78.513386-195.8299214 29.026771 72.0629921 73.171654 193.2094484 30.236221 195.8299214-29.026771z" fill="url(#B)" opacity=".3"/></svg>