<svg height="156" preserveAspectRatio="xMidYMid" viewBox="0 0 256 156" width="256" xmlns="http://www.w3.org/2000/svg" xmlns:xlink="http://www.w3.org/1999/xlink"><linearGradient id="a" x1="73.715762%" x2="8.171163%" y1="4.104723%" y2="50.000001%"><stop offset="0" stop-color="#959595"/><stop offset="1" stop-color="#ccc"/></linearGradient><path d="m255.853996 146.503324c0 4.995605-57.274867 9.045343-127.926997 9.045343-70.6521291 0-127.92699649-4.049738-127.92699649-9.045343-.00000136-3.23159 24.38274619-6.217703 63.96349739-7.833498 39.5807511-1.615795 88.3462481-1.615795 127.9269991 0s63.963499 4.601908 63.963497 7.833498z" fill="url(#a)" opacity=".263538"/><path d="m110.638677 150.145646c-2.476598-.788355-2.485385-1.136477-.203703-8.064174 2.278619-6.918371 1.234351-13.34323-2.989589-18.393455-5.743851-6.867489-8.5097483-12.727502-9.3913796-19.897206-.7568938-6.155356-.996812-6.6433439-3.5028692-7.1244892-1.6808036-.3227044-4.0029257.3164102-9.5371067 2.6249143-8.0516331 3.3586049-9.969333 4.8333759-11.8692668 9.1277469-.9980824 2.255938-1.1180463 3.607291-.5519206 6.216826.6912962 3.18642 3.5244463 8.315707 4.5969612 8.322579.2798773.001925 1.8261462 1.06086 3.4361359 2.353477 2.6715333 2.144905 2.8549101 2.517577 2.0989402 4.266009-1.6425672 3.79905-5.5451621 8.405096-7.1214388 8.405096-.8843934 0-4.4959182-2.529665-8.4713191-5.933676-7.808462-6.686113-8.1357377-7.356429-8.9422436-18.315799-.9622905-13.076316 2.2532619-19.179 16.5747104-31.4565964l8.9824048-7.7004992.5736902-4.6709414c.5914178-4.8151867-.2423627-16.2808685-1.6441841-22.6097852-.82816-3.7389474-3.5611909-7.3000902-6.1547693-8.0196523-2.8256722-.783976-4.4821461.8335687-6.6317666 6.475953-2.3193407 6.0878629-4.5359639 8.2116812-8.570495 8.2116812-2.5129191 0-4.8579754-1.6074971-6.4772524-4.4400505-1.1602959-2.0296565-1.8338165-14.2230231-1.1401912-20.6415206.3336565-3.0875236.3527795-6.2135723.0425383-6.9467813-.5048686-1.1930274-4.8524415-3.7737673-15.1022484-8.9647255-1.8632951-.9436583-4.0355417-2.2142363-4.8272072-2.8235163-.791656-.60927042-2.8459501-1.72946291-4.565096-2.4893017-3.8939909-1.7210803-14.0471049-7.65772993-13.0965943-7.65772993 1.7982268 0 9.418856 2.3454797 13.4757246 4.14756572 2.4765305 1.10010706 4.8471578 2.00017804 5.2680661 2.00017804.4209179 0 5.1954334 1.53694316 10.6100451 3.41543459 5.4146214 1.87847218 10.3635248 3.41541538 10.9975676 3.41541538 1.5059825 0 1.7421377-1.3028957 1.2595584-6.94907192-.2192072-2.56484091-.209535-4.6633576.0215579-4.6633576.2310256 0 1.2288193.49518677 2.2172873 1.10040542 3.0199049 1.84902255 9.5157221 2.98147609 17.1505852 2.98998376 7.300379.00866165 16.8294689 1.456563 20.4714539 3.1116415 5.2245558 2.37427484 11.2848358 9.78993084 18.9725428 23.21574494 5.344635 9.3338851 11.087399 13.2861979 19.317568 13.2948596 3.327085.0038496 12.203789-1.3679062 24.224356-3.7425179 9.911511-1.9579766 22.995914-2.398056 28.074781-.9442647 6.195883 1.7735218 14.388345 6.5148632 21.16197 12.2473576 6.339763 5.3653269 7.316182 6.5565065 11.210606 13.6762226 4.647728 8.4968709 9.777333 20.572824 14.338887 33.7561891.64998 1.878472 2.022804 5.038311 3.050731 7.021849 2.742703 5.292405 2.605993 5.615206-2.378038 5.615206-5.409569 0-7.946558-.853038-11.492706-3.86433-3.401143-2.888161-4.289588-4.655119-9.613041-19.1187343-2.726775-7.4085052-5.381149-11.8542243-7.077736-11.8542243-1.162451 0-3.515342 7.9390219-3.515342 11.8614231 0 2.7858671 1.745805 6.5493654 6.259354 13.4935865 7.332293 11.280929 11.189347 27.228083 9.645436 39.879507l-.66688 5.464676-4.886588.203414c-7.693329.32027-7.616308.427203-7.616308-10.573772 0-11.71173-.797613-14.248074-5.965965-18.971399-2.146742-1.961894-6.963084-7.535938-10.702984-12.386763-3.739929-4.850834-7.321494-8.8197-7.95905-8.8197-1.465022 0-2.195566 3.989057-2.273443 12.413883-.0512 5.548222-.269715 6.487328-1.906642 8.197004-4.437695 4.634928-7.552743 13.074469-9.473128 25.665444-.425066 2.786926-.789491 3.30828-2.595994 3.713915-2.65626.596432-10.017145.694068-10.651477.141291-.547051-.476718.411583-8.044791 2.586187-20.417376.825408-4.696205 1.726335-10.997655 2.002074-14.00322.490875-5.350525-.606191-15.3749843-1.904592-17.4030818-.539861-.8432601-3.28883-1.0259825-16.146497-1.0731982-8.522721-.0312782-17.869464-.3116655-20.770512-.6230327l-5.274678-.5661354v2.3407062c0 2.5065576.642483 4.7158669 4.938779 16.9831939 1.513133 4.32051 3.705773 10.907121 4.872537 14.636925l2.121383 6.781469-1.790143 5.514048c-.984589 3.032724-2.445829 6.66675-3.247225 8.075616-1.413505 2.484971-1.57926 2.559942-5.543699 2.507626-2.247651-.029642-5.087605-.372557-6.311014-.761985z" fill="#499848"/></svg>