<svg height="316" preserveAspectRatio="xMidYMid" viewBox="0 0 256 316" width="256" xmlns="http://www.w3.org/2000/svg"><path d="m119.779817 158.372792-21.6073399 154.304587s-35.2293578 12.917431-67.1706422-14.091743l34.9944954-149.60734-65.9963303-133.8715592s26.0697248-11.03853208 42.7449541-7.28073392l58.0110089 109.44587112 100.521101-85.4899078s33.820184 11.7431192 36.873395 23.0165137z" fill="#ecdfa7"/><g fill="#3f3e29"><path d="m251.772477 173.798165c-1.644037-3.288073-3.757798-6.341284-6.106422-9.159633-4.697248-5.401835-10.333945-9.86422-16.440367-13.387156-5.87156-3.757798-12.447706-6.811009-19.023853-8.92477l-2.583486-.704588c-.704588-.234862-1.409175-.469724-2.113762-.704587-1.409174-.469725-2.583486-1.174312-3.757798-1.644037-2.348624-1.409174-3.992661-2.818348-5.166972-4.697247-2.348624-3.522936-2.583487-8.924771-1.409175-14.561468.234863-1.409174.704587-2.818349 1.174312-4.227523s.93945-2.818349 1.409174-4.462385c.469725-2.113762.704588-4.227523.704588-6.81101l1.174312-.939449 14.091743-11.7431193c2.583486-2.1137615 5.166972-4.4623854 7.750458-6.5761468.93945.4697247 1.878899 1.1743119 2.583487 1.6440367 0 0 7.280734.7045871 11.273394-10.333945l-2.113761-1.4091743 1.409174-1.1743119 3.522936-3.053211c1.174312-.9394496 2.113761-2.1137615 2.583486-4.227523-2.113762-.2348624-3.522936.4697248-4.697248 1.4091743l-3.757798 2.8183487-2.583486 1.878899-32.411009-22.3119266c1.644036-1.4091743 3.053211-2.5834862 4.697247-3.9926605l6.81101-6.106422c.234862-.2348624.469724-.4697248.704587-.7045872.704587.4697248 1.174312.9394496 1.878899 1.4091743 1.644036 1.174312 3.522936 2.3486239 5.166972 3.2880734l10.333945 5.6366973c3.288074 1.8788991 6.811009 3.7577981 10.333945 5.4018348 1.644037.9394496 3.522936 1.6440367 5.401835 2.3486239.93945.2348624 1.878899.7045871 2.818349.9394495.469724 0 1.174312.2348624 1.644036.2348624h1.174312c.469725 0 .93945-.2348624 1.409175-.9394495v-.2348624c0-.2348624 0-.4697248.234862-.7045872v-.9394495c0-.4697248-.234862-.7045872-.469725-.9394495-.234862-.4697248-.704587-.9394496-.939449-1.4091744-.704587-.7045871-1.409175-1.6440367-2.113762-2.1137614-1.409174-1.4091743-3.053211-2.5834863-4.462385-3.7577982-3.053211-2.3486238-6.341285-4.4623853-9.629358-6.5761468s-6.576147-3.9926605-10.099082-5.6366972c-1.644037-.9394496-3.522936-1.6440367-5.401835-2.3486239-.93945-.2348624-1.878899-.7045871-3.053211-.9394495-.469725 0-1.174312-.2348624-1.878899-.2348624-.469725 0-.704588 0-1.409175.2348624-.469725.2348624-1.174312.4697247-1.878899 1.1743119-1.644037.7045872-3.053211 1.4091743-4.227523 2.3486239l-7.045871 3.9926605c-2.113762 1.6440367-4.462386 3.5229358-6.576147 5.1669725l-2.348624-1.6440367s-9.86422.9394495-6.576147 7.2807339c0 0 .234863.2348624.93945.9394496-9.394496 7.7504587-18.554129 15.7357798-27.713762 23.4862385-9.394495 7.9853211-18.554128 15.9706422-27.948624 24.1908257l-13.85688 12.212844c-.704587.704587-1.409175 1.409174-2.348624 2.113761-.469725-1.409174-1.174312-2.583486-1.644037-3.757798l-3.288073-7.045871-6.3412846-14.0917433c-4.227523-9.3944955-8.4550459-18.7889909-12.9174312-28.1834863l-13.1522936-27.9486238c-.7045872-1.4091744-1.4091743-2.8183487-2.1137615-4.227523h2.8183487s.9394495-7.7504587-4.6972477-9.159633c0 0-.9394496 0-2.3486239.2348624-2.1137615-4.227523-3.9926605-8.4550459-6.106422-12.68256883l-.9394496-3.52293578c-.2348623-1.17431192-.9394495-1.64403669-1.4091743-2.11376146-.4697247-.23486239-.9394495-.46972477-1.1743119-.46972477-.7045872-.23486239-1.1743119-.23486239-1.8788991-.46972477-1.1743119-.23486239-2.1137614-.23486239-3.053211-.23486239-2.1137615 0-3.9926605.23486239-5.8715596.46972477-3.7577982.46972477-7.7504587 1.17431193-11.5082569 2.11376147s-7.5155963 1.87889908-11.2733945 3.05321101c-1.8788991.70458715-3.7577982 1.17431192-5.4018349 2.11376147-.9394495.46972477-1.878899.93944954-2.8183486 1.40917431-.4697248.23486238-.9394495.70458715-1.4091743.93944957-.2348624.2348624-.4697248.4697247-.7045872.7045871-.2348623.2348624-.2348623.4697248-.4697247.7045872v.7045871.2348624c.2348624.9394496.7045871 1.1743119 1.1743119 1.4091743s.7045872.4697248.9394495.4697248c.7045872.2348624 1.174312.2348624 1.6440367.4697248.9394496.2348624 2.1137615.2348624 3.0532111.2348624 1.878899 0 3.9926605-.2348624 5.8715596-.4697248 3.7577982-.4697248 7.7504587-.9394496 11.5082569-1.6440367l11.5082568-1.8788991c1.8788991-.2348624 3.7577982-.7045871 5.8715597-1.17431192 1.6440367 3.28807342 3.2880734 6.81100922 4.9321101 10.09908262-10.8036698.9394495-27.7137615 2.3486238-38.2825688 3.5229357-1.174312-2.1137614-2.1137615-3.9926605-3.2880734-6.106422-.2348624-.4697248-.9394496-.9394495-1.6440367-.7045871-.7045872.2348623-.9394496.9394495-.7045872 1.6440367.7045872 1.878899 1.4091743 3.5229357 2.1137615 5.4018348-3.2880734.4697248-5.4018349.9394496-5.6366973 1.4091743-1.1743119 2.1137615 2.3486239 13.1522936 7.0458716 15.9706422 0 0 1.8788991-.7045871 5.1669725-1.4091743 1.6440367 3.7577982 3.2880734 7.5155963 4.9321101 11.2733945l14.0917431 31.9412844 14.3266055 31.941284c4.6972477 10.568808 9.6293578 21.137615 14.5614679 31.941285s0 .234862.2348624.234862c-.7045872 2.348624-1.4091743 4.697248-2.1137615 7.045872-1.8788991 6.576147-3.7577982 13.152293-5.6366973 19.72844-3.5229357 13.152294-6.8110091 26.53945-10.0990825 39.691743l-4.9321101 19.963303-4.6972477 19.963303c-3.2880734 13.387156-6.3412844 26.539449-10.0990826 39.691743 0 .234862 0 .704587.2348624.939449 1.8788991 2.583487 4.4623853 4.462386 6.8110092 6.341285 2.5834862 1.878899 5.1669724 3.288073 7.7504587 4.697248 5.4018349 2.818348 11.0385321 4.93211 16.9100917 6.811009 5.8715597 1.644036 11.9779817 2.818348 18.3192661 3.053211 3.053211.234862 6.3412844 0 9.3944954-.469725s6.1064221-.93945 9.3944951-1.878899c.93945-.234863 1.644037-1.174312 1.878899-2.113762v-.234862c2.583487-12.917431 4.697248-26.069725 7.045872-38.987156l6.576147-39.222018c2.113761-13.152294 4.462385-26.069725 6.576147-39.222019.234862-1.409174.469724-3.053211.704587-4.462385.469724.469725.704587 1.174312 1.174312 1.644037 2.348623 2.818348 5.166972 5.166972 7.985321 7.280734 5.636697 3.99266 11.743119 7.045871 17.849541 9.394495s12.447706 4.227523 18.788991 5.636697c4.227523.93945 8.220183 1.644037 12.447706 2.113762-1.878899 4.227523-3.053211 8.689908-2.818348 13.622018 0 .469725.234862.93945.704587 1.174312h.234862c4.462385 2.348624 9.159633 4.227523 14.326606 5.401835 4.93211.939449 10.333945 1.409174 15.500917.704587 5.401835-.704587 10.80367-2.818349 15.031193-6.341284 4.227523-3.522936 7.280734-8.220184 9.159633-13.152294l.234862-.234862v-.234863c.234863-2.113761.469725-4.227523.704587-6.341284v-.234862c2.348624-1.409175 4.697248-2.818349 7.045872-4.697248 2.818349-2.348624 5.401835-4.93211 7.280734-8.220184 1.878899-3.288073 3.053211-7.280734 2.818348-11.273394-.234862-3.757798-1.644036-7.515596-3.288073-10.80367zm-4.462385-118.3706421s0 .2348624 0 0zm-16.67523-12.4477064c3.288074 1.8788991 6.341285 3.7577982 9.394496 6.106422 1.409174 1.174312 3.053211 2.1137615 4.462385 3.5229358.704587.7045872 1.409174 1.1743119 1.878899 1.8788991.234863.2348624.234863.2348624.469725.4697248h-.469725c-.939449-.2348624-1.644036-.4697248-2.583486-.7045872-1.644037-.7045871-3.522936-1.4091743-5.166973-2.1137615-3.288073-1.6440367-6.811009-3.2880734-9.86422-5.4018348-3.053211-2.1137615-6.106422-4.4623853-8.689908-7.0458716-.939449-.9394495-1.878899-1.8788991-2.583486-2.8183486 1.174312.4697248 2.348624.9394495 3.522936 1.4091743 3.053211 1.1743119 6.341284 2.8183486 9.629357 4.6972477zm-15.970642-10.3339449s0 0 .234863.2348623v.2348624.2348624s0-.2348624-.234863-.2348624zm-167.4568806-26.3045872c-3.2880733 1.6440367-7.0458715 2.81834863-10.5688073 3.7577982-3.7577982.9394495-7.2807339 1.6440367-11.0385321 1.8788991-1.8788991.2348623-3.7577982.2348623-5.6366972.2348623-.9394496 0-1.8788991 0-2.5834863-.2348623h-.7045871c.2348623 0 .2348623-.2348624.4697247-.2348624.7045872-.4697248 1.6440367-.7045872 2.3486239-1.174312 1.6440367-.70458712 3.5229358-1.17431189 5.1669725-1.87889904 3.5229357-.93944954 7.2807339-1.87889909 11.0385321-2.58348624 3.7577981-.70458716 7.5155963-1.17431193 11.0385321-1.40917431 1.1743119 0 2.3486238 0 3.5229358-.23486239-.7045872.70458716-1.8788991 1.17431193-3.0532111 1.87889908zm162.9944956 80.0880734-14.561468 11.2733945-14.561468 11.5082567c-3.99266 3.288074-7.985321 6.576147-11.977982 9.629358.234863-.234862.469725-.704587.704588-.93945 1.878899-2.583486 3.757798-4.93211 5.636697-7.280734 3.99266-4.697247 7.750459-9.629357 11.977981-14.0917426 4.227523-4.4623854 8.689909-8.9247707 13.152294-12.9174312 2.348624-2.1137615 4.697248-3.9926606 7.280734-5.6366973.704587-.4697247 1.409174-.9394495 2.113761-1.4091743 2.113762 1.6440367 4.462386 3.2880734 6.576147 4.9321101-1.878899 1.6440367-4.227523 3.2880734-6.341284 4.9321101zm-172.1541286-28.8880734 1.1743119 1.1743119c2.3486239 2.3486239 4.6972478 4.6972477 6.5761468 7.280734 1.8788991 2.5834862 3.5229358 5.4018348 4.227523 8.2201835.4697247 2.3486238.4697247 4.9321101-.7045872 7.0458715l-.2348624-.7045871zm11.5082569 24.4256881c.7045872-.7045872 1.1743119-1.6440367 1.6440367-2.8183486.7045872-1.6440367.7045872-3.5229358.4697248-5.1669725-.4697248-3.5229358-2.1137615-6.8110092-4.227523-9.3944954-3.053211-3.9926606-6.8110091-7.280734-11.0385321-10.0990826l-2.5834862-5.4018349c-1.6440367-3.5229357-3.2880734-7.0458715-5.1669725-10.3339449 3.5229358-.9394496 7.7504587-2.3486239 12.4477064-3.5229358 4.227523 6.8110092 7.9853211 13.8568807 11.5082569 21.1376147 3.9926606 9.159633 7.9853211 18.7889908 8.6899083 28.653211.2348624 2.3486238 0 4.9321101 0 7.5155963 0 2.5834863 0 5.1669725.2348624 7.7504592.2348623 3.522935.9394495 7.280733 1.6440367 10.803669zm55.4275227 191.4128445c-.704587.939449-1.174312 1.644036-2.113761 2.348623-1.174312.93945-2.348624 1.409175-3.7577984 1.174312-1.1743119-.234862-2.1137615-1.409174-2.5834862-2.583486-.4697248-1.174312-.9394496-2.583486-.9394496-3.99266-.2348624-2.818349-.2348624-5.636698.4697248-8.455046.4697248-2.818349 1.4091743-5.401835 2.5834862-7.985321.7045872-1.174312 1.4091742-2.348624 2.3486242-3.288074.939449-.939449 2.113761-1.644037 3.288073-1.409174 1.174312 0 2.348624 1.174312 3.053211 2.348624.469725.704587.704587 1.409174.93945 2.113761l-2.818349 16.67523c-.234862 1.174311-.234862 2.113761-.469725 3.053211zm13.856881-81.027523c-1.409174 8.220183-2.818349 16.440367-4.227523 24.66055-.234862-1.644037-.704587-3.288073-1.174312-4.93211-1.174312-4.462385-2.583486-8.689908-3.99266-12.917431-3.053211-8.455046-6.576147-16.67523-10.8036702-24.425688 2.5834862 8.689908 5.6366972 16.910091 8.6899082 25.365137 1.644037 4.227523 3.053211 8.455046 4.462385 12.447707.704588 2.113761 1.409175 4.227523 2.113762 6.341284 0 .234863.234862.704587.234862.93945-.704587 3.757798-1.409174 7.515596-1.878899 11.508257l-3.522936 21.372477c-.234862-.469725-.234862-.93945-.469724-1.409175-.704588-1.409174-1.644037-2.818348-3.522936-3.288073-1.644037-.469725-3.288074.469725-4.697248 1.409174-1.1743118.93945-2.1137613 2.348624-3.0532109 3.522936-1.6440367 2.583486-2.5834862 5.636697-3.053211 8.455046-.4697247 3.053211-.7045871 6.106422 0 9.159633.2348624 1.409174.7045872 3.053211 1.6440367 4.462385.7045872 1.409175 2.1137615 2.818349 3.7577982 3.053211 1.644037.234863 3.288073-.704587 4.227523-1.878899.469725-.469725.939449-1.174312 1.409174-1.644037-1.644036 11.038533-3.522936 22.077065-5.1669722 33.350459-2.1137615.704587-4.227523 1.174312-6.3412844 1.409174-2.8183487.469725-5.6366973.704588-8.4550459.93945-5.8715596.234862-11.5082569-.234862-17.3798165-1.644037-5.6366973-1.174312-11.5082569-3.053211-16.9100918-5.401835-5.1669724-2.348623-10.0990825-5.401834-13.8568807-9.629357 3.5229358-12.917432 7.5155963-25.834863 11.5082569-38.752294l6.106422-19.493578 5.8715596-19.72844c3.9926606-13.152294 7.9853211-26.304587 11.7431193-39.456881 1.8788991-6.576147 3.5229358-13.152294 5.4018349-19.72844 1.4091743-6.81101 4.2275229-13.152294 2.1137614-20.66789v-.234863c-.2348624-.234862-.4697247-.234862-.4697247 0-1.174312 1.174312-1.8788991 2.113762-2.8183487 3.288074-2.5834862-5.87156-5.4018348-11.508257-7.9853211-17.379817-.7045871-2.113761-1.4091743-4.227523-1.8788991-6.576147-1.1743119-4.93211-2.1137614-9.86422-2.3486238-14.79633-.2348624-2.5834861-.2348624-4.9321099-.2348624-7.5155962 0-2.5834862.2348624-5.1669725 0-7.7504587-.9394495-10.333945-4.9321101-20.1981651-9.3944954-29.3577982-3.5229358-7.2807339-7.7504587-14.0917431-12.4477064-20.6678899 7.7504587-2.1137614 15.9706422-4.2275229 22.546789-5.4018348.9394495 2.1137614 2.1137614 3.9926605 3.053211 6.106422l14.0917431 27.7137615c4.6972477 9.159633 9.3944954 18.319266 14.0917431 27.478899l7.0458718 13.6220183 3.522936 6.811009c.939449 1.409175 1.409174 3.053211 2.348623 4.227523-3.053211 2.818349-6.106422 5.636697-9.1596326 8.455046-.2348624.234862-.4697248.704587 0 1.174312.2348624.469725.9394496.469725 1.1743116.234862 4.93211-3.522935 9.86422-7.280734 14.796331-11.038532l14.79633-11.273394c9.86422-7.5155966 19.493578-15.0311929 29.122936-22.5467892 9.629357-7.5155964 19.258715-15.2660551 28.888073-23.0165138l.234862-.2348624c5.166973 4.9321101 12.917432 12.2128441 21.137615 18.5541285-3.522936 1.8788991-6.811009 3.7577981-9.86422 6.106422-4.93211 3.7577982-9.629358 7.9853211-13.856881 12.6825688s-8.220183 9.3944951-11.743119 14.5614681c-2.583486 3.522936-4.93211 7.280734-7.280734 11.273394-14.326606 11.74312-28.418349 23.721101-42.040367 36.168808-.469725.469724-.469725 1.174312-.234862 1.644036.469724.469725 1.174312.704587 1.644036.469725-1.644036 4.697248-2.583486 9.394496-3.522935 14.091743-1.409175 6.576147-2.818349 13.152294-3.992661 19.728441zm103.809174 31.471559c-3.288073 2.583486-7.280734 4.227523-11.508257 5.166973-4.227523.939449-8.92477.939449-13.387156.469724-4.227522-.469724-8.689908-1.174311-12.917431-2.348623-.469725-3.757799.234863-7.985321 1.878899-11.74312 1.644037.234863 3.053211.234863 4.697248.469725.704587 0 1.174312-.234862 1.409174-.939449.234863-.704588 0-1.644037-.939449-1.8789-1.174312-.469724-2.113762-.704587-3.288074-1.174311.93945-1.644037 2.113762-3.053211 3.288074-4.462386 1.409174-1.409174 2.818348-2.818348 4.227523-3.99266 3.053211 1.878899 6.106422 3.288073 9.629358 4.462385 3.99266 1.174312 8.220183 1.644037 12.682568 1.174312 4.227523-.469725 8.689909-2.583486 11.508257-6.106422 2.583486-3.053211 3.757798-6.576147 3.992661-10.333945.469725 1.409174.469725 3.053211.234862 4.462385-.234862 1.878899-.469725 3.992661-.939449 5.87156-.234863 1.174312-.469725 2.348624-.704588 3.522936-1.174311.704587-2.348623 1.409174-3.522935 2.113761-1.409175.93945-2.583487 1.878899-3.757798 3.992661 2.113761.704587 3.757798.469724 5.401834 0 .234863 0 .234863-.234863.469725-.234863-.234862.704587-.234862 1.174312-.469725 1.878899-1.878899 3.757799-4.697247 7.045872-7.985321 9.629358zm23.251376-30.766972c-1.174311 2.583486-3.053211 4.93211-5.166972 7.045871-.93945.93945-2.113762 1.878899-3.053211 2.583487 0-2.113762-.234862-4.227523-.704587-6.341285-.234863-1.174312-.469725-2.113761-.93945-3.288073-.469725-.93945-.939449-2.113762-2.113761-2.818349-.234863 0-.469725 0-.469725.234862-1.409174 3.522936-3.757798 6.576147-6.341284 8.689909-2.583487 2.113761-5.87156 3.053211-9.159633 3.288073-3.288074.234863-6.81101-.469725-10.333945-1.409174-3.522936-.93945-7.045872-2.113762-10.568808-3.288074l-.469724-.234862c-.704588-.234862-1.644037 0-2.113762.469725-1.878899 2.348624-3.288073 4.462385-4.93211 6.811009-1.174312 1.878899-2.113762 3.522936-3.053211 5.401835-4.227523-1.644037-8.220184-3.053211-12.447706-4.697248-5.87156-2.348624-11.74312-4.697248-17.144955-7.515596-5.636697-2.583486-11.038532-5.636697-15.735779-9.159633-4.697248-3.522936-8.924771-7.280734-11.038533-11.977982v-.234862c-.469724-.93945-1.174311-1.644037-2.113761-2.113762 0-.469724.234862-1.174312.234862-1.644036.704588-5.636698 1.644037-11.273395 1.174312-17.144955 19.023854-13.387155 37.577982-27.478899 55.897248-42.040367-.234862.704588-.469725 1.409175-.704587 2.113762-1.174312 3.522936-1.644037 7.515596-1.644037 11.508257.234863 3.99266 1.409174 8.455046 3.992661 12.212844 2.583486 3.757798 6.106422 6.576147 9.629358 8.220183 1.878899.93945 3.757798 1.644037 5.401834 2.113762.93945.234862 1.878899.469725 2.818349.704587l2.348624.469725c6.106422 1.644036 11.977982 3.99266 17.379816 7.045871 5.401835 3.053211 10.568808 6.811009 14.796331 11.038532s7.515596 9.629358 7.985321 15.031193c.234862 3.757798-.234863 6.576147-1.409175 8.924771z"/><path d="m89.9522936 247.075229c-1.8788991 2.583487-3.2880734 5.636698-3.9926606 8.689909-.4697247 1.644036-.7045871 3.288073-.7045871 4.697247l-.2348624 4.697248c-.4697248 6.106422-.2348624 12.682569 1.6440367 18.788991s4.4623853 11.743119 7.5155963 17.144954c-.9394495-3.053211-2.1137615-5.87156-3.053211-8.689908-.9394495-2.818349-1.8788991-5.87156-2.5834862-8.924771-1.4091743-5.87156-1.4091743-11.977982-1.174312-18.084404l.2348624-4.697247c0-1.409175.2348624-3.053211.4697248-4.462386.7045872-2.818348 1.8788991-5.636697 3.2880734-8.220183 1.6440367-2.583486 3.5229358-4.93211 5.8715596-7.045872 2.1137615-2.113761 4.6972475-3.99266 7.5155965-5.401835-5.8715598 2.348624-11.2733946 6.106422-14.7963304 11.508257z"/></g></svg>