<svg height="244" preserveAspectRatio="xMidYMid" viewBox="0 0 256 244" width="256" xmlns="http://www.w3.org/2000/svg"><g fill="#2c1137"><path d="m92.7254367.15407856c-5.6951281.58975395-10.1699217 3.03849593-15.4923255 8.47782179-2.3563811 2.40797315-2.9476231 3.08379455-6.9806499 7.97953625-5.7126516 6.9341823-8.3497588 9.5829355-11.9255982 11.9776674-2.203226 1.4756916-6.6063485 3.6639662-10.338848 5.1384381-1.4972054.5914962-4.3282972 1.7074117-6.3084496 2.4863747-13.3879317 5.2673653-18.4339905 9.9439309-20.8460963 19.3195377-.7894325 3.0682885-1.2341781 6.7599566-1.6706878 13.8683646-.6846419 11.1504437-1.4024033 14.9513512-3.842021 20.3495598-.8432293 1.8656087-2.8382766 5.2441931-5.8849072 9.965709-4.89009988 7.5788181-6.63035579 10.7856151-7.89432374 14.5478441-.9071901 2.700499-1.21858219 4.240828-1.33791702 6.620577-.16980244 3.382766.44719897 6.620576 1.96543251 10.314161 1.42465819 3.466045 2.6681237 5.679756 6.73286805 11.986726 4.3565101 6.759956 6.0739855 9.780856 7.270488 12.788165 1.5955121 4.010153 2.3756572 8.589327 2.8973308 17.004428.329266 5.313884.5363934 7.875.8083578 10.000553 1.4740744 11.516317 5.6138192 17.201651 16.1413948 22.168128 1.0890837.513791 4.6612433 1.996626 7.9381324 3.295305 6.9568179 2.756773 9.4532117 3.849167 11.8458665 5.183911 4.9205906 2.744925 7.9128986 5.574176 14.9613642 14.14608 3.5672531 4.338219 6.5066401 7.608609 8.2046645 9.128903 6.3364872 5.672788 11.9334837 7.507908 20.0118039 6.561339 3.0077291-.352285 5.5899881-.898655 12.3540471-2.613211 11.092357-2.811654 14.877777-3.290949 20.660172-2.61565 3.168244.370054 5.730175.908761 12.809657 2.693878 9.340011 2.355009 12.895874 2.925597 16.997768 2.727154 3.38203-.163597 5.574565-.731748 8.604024-2.229566 3.703411-1.830938 7.926216-5.586198 12.512283-11.126575 1.297965-1.568031 3.350138-4.044301 4.548218-5.488109 2.847915-3.432246 7.16412-7.700426 9.259752-9.156778 3.253759-2.260928 6.956819-4.04918 14.229059-6.871114 6.904248-2.679241 9.781952-3.963633 12.651947-5.646828 7.607289-4.461746 11.008943-10.034354 12.303929-20.156867.271964-2.125553.478565-4.686669.806605-10.000553.85427-13.83352 1.939674-17.068718 9.790539-29.182803 5.600501-8.641593 7.686144-12.876845 8.716524-17.701329.390949-1.82937.43651-6.286063.083062-8.084072-.402164-2.044539-1.670162-5.644912-2.79219-7.927268-1.158827-2.357623-3.27321-5.906252-6.280412-10.5406547-7.736963-11.9238316-8.693043-14.9311412-9.609345-30.2281562-.430902-7.1955207-.880556-10.781608-1.776004-14.164548-1.973319-7.4554655-5.89805-11.9402089-13.97637-15.9709201-2.681267-1.3377048-4.205634-1.978681-11.670632-4.9065437-2.260527-.8864603-5.430174-2.261972-7.026912-3.0492979-6.416745-3.1635901-9.295676-5.6916046-16.601911-14.5771147-4.097338-4.9828544-5.635725-6.7092567-8.106183-9.0959744-4.865042-4.7002605-9.164776-6.86362082-14.737239-7.41469666-3.747395-.37057803-8.148414.23799229-15.99893 2.21231774-12.248905 3.08031009-13.340618 3.26986764-18.837731 3.26986764-5.518842 0-6.588825-.1858988-18.750114-3.25749761-7.973179-2.01387469-12.4583116-2.61652134-16.4194923-2.20621985zm17.9615583 49.84527144c7.079481 3.8618864 8.002969 4.4157499 8.237959 4.9417372.093049.2080254.120561 8.2234523.068166 19.8965732-.077804 17.3703006-.057302 19.5937688.183997 19.9575521.150351.2266676 1.147786.8721737 2.234242 1.4460732 1.077869.5693694 5.055521 2.8039881 8.823067 4.9567213l6.860439 3.920078.113903-6.7599574c.062559-3.7110069.14159-6.7874842.175235-6.8209354.033645-.0334513 5.090567-3.0085291 11.223783-6.6031534l11.16245-6.5421745 14.824857 8.27572.043808 48.4260287c.042933 47.406808.036976 48.437353-.285632 48.966129-.536042.878968-3.245347 2.55955-13.601717 8.437576-2.418239 1.372375-5.059902 2.935179-5.896648 3.488172-.928745.613797-1.841543 1.069223-2.356908 1.176023-.750705.155584-.955029.122655-1.901296-.304895-.578276-.261338-1.418525-.75126-1.848726-1.07776-1.505267-1.142919-3.014038-2.094715-5.309612-3.349315-6.098169-3.332936-6.134617-3.357503-6.371358-4.310343-.081134-.325976-.103916-9.251384-.050994-19.844305.088318-17.649063.072372-19.288178-.192758-19.687502-.16367-.246531-1.270452-.953712-2.549665-1.629011-1.241364-.655436-5.195711-2.874549-8.770498-4.921875-3.574788-2.047326-6.557283-3.72843-6.61511-3.72843-.057828 0-.105141 3.022816-.105141 6.7164 0 4.442754-.063434 6.834352-.187151 7.064852-.244277.454381-2.196041 1.679535-3.843247 2.412154-.726699.323189-2.646044 1.38283-4.293251 2.370342-1.634939.980193-4.678766 2.764438-6.746535 3.954921-2.067771 1.190485-4.2299919 2.463901-4.7926702 2.822457-.5607511.357337-1.3505339.800915-1.7435855.978974-1.4381513.652126-1.5946358.594981-6.8166303-2.486026-2.6285206-1.550783-5.6917985-3.348444-6.7991067-3.989768-1.1390255-.659794-2.1110525-1.349031-2.2356444-1.585453-.3404811-.646031-.2246509-96.5558754.1175826-97.217933.1873259-.3627379 2.2932965-1.6053154 9.1975442-5.4271301 4.9240953-2.7257608 9.9403643-5.5095387 11.1449273-6.1850117 1.20912-.6780864 2.253343-1.232124 2.330622-1.2370023.077103-.0048784 3.03156 1.5685537 6.571302 3.4994971z"/><path d="m83.3854258 108.741978v47.110625l2.1466252 1.106333c1.1758249.605957 3.7237376 1.996626 5.633796 3.075084 1.9100583 1.078457 3.5625216 1.968749 3.6536436 1.968749.1072437 0 .147723-6.751245.1139027-18.947043-.0492411-17.736175-.0329442-18.983281.2540903-19.513276.2540902-.46919.4118015-.566233.9199822-.566233.8370962 0 1.489495.301062 3.6974522 1.705669 1.038792.660838 3.592311 2.174685 5.660082 3.355586 2.075655 1.185432 7.938132 4.553563 13.054986 7.500417 5.116852 2.946853 11.608773 6.654376 14.456863 8.256206 5.116854 2.878034 5.811659 3.32893 6.177725 4.009282.218868.406468.19118 21.813055-.041356 32.109793-.09375 4.146571-.082711 6.562037.031893 6.977739.096029.348451.428799.870605.735986 1.155116.435808.403507 10.391418 6.058001 11.162451 6.339898.093926.034322.157711-18.880663.157711-46.80904 0-37.284297-.04486-46.902251-.219044-47.040934-.120912-.096173-2.497094-1.4784797-5.300849-3.0837952-2.803756-1.6053154-5.340979-3.0658494-5.660082-3.2580203l-.578275-.3484513.026286 18.6160148c.014545 10.24447-.026286 18.890246-.090772 19.225804-.190655.993087-.520096 1.302511-1.372438 1.28927-.907015-.014113-1.734823-.426679-4.328297-2.157262-1.111164-.741331-3.469647-2.165451-5.257041-3.174044-1.78722-1.008593-5.081807-2.867407-7.342335-4.142913-4.820006-2.719488-11.653108-6.684342-17.278142-10.025293-2.207958-1.311223-4.7695388-2.759387-5.6951286-3.219518-1.9451052-.966952-2.7054487-1.601133-2.9246673-2.439159-.0907715-.34758-.1103978-8.8158196-.0455609-19.6875023.0625587-10.4883862.0530961-19.2425299-.0210282-19.4435864-.1039142-.2820713-6.8919812-4.3692316-11.6057949-6.9880179-.0674654-.0374585-.1226643 21.1351435-.1226643 47.0425026z"/></g></svg>