<svg height="305" preserveAspectRatio="xMidYMid" viewBox="0 0 256 305" width="256" xmlns="http://www.w3.org/2000/svg"><ellipse cx="128" cy="180.374331" fill="#ffc627" rx="103.632079" ry="103.632079"/><g fill="#232323"><path d="m169.254517 211.536972-38.76067-75.620887c-3.415014-6.662305-11.599448-9.303015-18.28067-5.885478-6.663566 3.423843-9.304275 11.605754-5.889261 18.270582l16.184749 31.553576-28.9683546 28.887645c-5.315468 5.302857-5.315468 13.895882-.0290049 19.208828 2.6545813 2.65332 6.1313892 3.988808 9.6081975 3.988808 3.476807 0 6.939743-1.335488 9.591802-3.964848l22.792828-22.742384 9.584237 18.690522c2.408669 4.693754 7.147822 7.392473 12.098837 7.392473 2.075744 0 4.18932-.482995 6.176788-1.499428 6.66735-3.416276 9.306798-11.598188 5.890522-18.279409"/><path d="m221.389588.9268116c-7.729091 4.90951108 5.324513 49.6861759-25.651807 76.0967889-19.547878-12.6781574-42.846132-20.110137-67.894562-20.110137-24.971891 0-48.2076392 7.404135-67.7261777 19.9974929-30.7913525-26.41441-17.7989784-71.07463372-25.4949031-75.9841448-12.6211633-8.04962373-36.34803197 38.1863518-34.52259385 67.5560875.98351698 15.7043603 5.16123175 38.7128679 16.57181455 56.5384819-8.50723049 16.724485-13.40568079 35.532254-13.40568079 55.496839 0 68.173732 55.88187819 123.640196 124.57881689 123.640196 68.71097 0 124.580092-55.463933 124.580092-123.640196 0-19.846879-4.855078-38.559722-13.267912-55.200674 11.548352-17.877506 15.757958-41.0505498 16.74275-56.8346469 1.835644-29.3697357-21.905257-75.60697689-34.509837-67.5560875m-93.546369 275.9578084c-53.5347039 0-97.1194308-43.21357-97.1194308-96.367665 0-53.128783 43.5847269-96.3600716 97.1194308-96.3600716 53.566595 0 97.124534 43.2312886 97.124534 96.3600716 0 53.156627-43.557939 96.367665-97.124534 96.367665"/></g></svg>