<svg height="202" preserveAspectRatio="xMidYMid" viewBox="0 0 256 202" width="256" xmlns="http://www.w3.org/2000/svg"><path d="m146.807045 120.124162c-6.579.134-13.163.041-19.745.041v.261c-6.221 0-12.443.019-18.664-.005-6.608-.026-11.7409999 2.925-15.7389999 7.951-5.767 7.251-10.293 15.63-19.066 20.086-.97.493-1.749 2.412-1.644 3.583.063.716 1.909 1.516 3.078 1.855 10.408 3.021 20.979 3.459 31.5779999 1.324 15.01-3.023 28.543-8.95 38.294-21.337 2.235-2.84 3.772-6.342 5.1-9.747.938-2.404-.095-4.075-3.192-4.012zm-123.4029999-18.915c-1.554-2.1380002-3.244-4.4100002-4.877-6.7230002-1.284-1.819-2.494-2.231-4.345-.517-7.78299997 7.2040002-10.56799997 25.4500002-5.32599997 34.5790002 4.86599997-9.143 9.79299997-18.403 14.54799997-27.339zm209.0259999 3.895c-3.774-.741-4.137-2.304-5.776-4.335-8.561-10.6110002-14.92-20.4470002-26.152-31.4340002-18.076-18.852-40.542-28.597-66.759-30.049-14.225-.787-28.249.42-42.2209999 2.546-6.719 1.022-11.125-1.597-14.374-6.989-1.227-2.036-2.535-4.192-3.041-6.463-1.868-8.385-3.493-16.827-5.044-25.27800004-.561-3.056-1.429-3.768-4.27-2.514-4.676 2.065-7.772 5.741-9.169 10.49000004-1.203 4.091-2.28 8.43-2.215 12.64.15 9.685.887 19.369 1.67 29.03.435 5.376-.325 10.037-4.047 14.322-4.232 4.873-7.874 10.257-11.803 15.397-14.195 18.5720002-26.012 38.4680002-33.67699997 60.6580002-3.897 11.278-6.889 22.696-4.94 34.835.662 4.122.997 8.296 1.488 12.446.59 4.992 7.435 10.99 12.46099997 10.906 5.769-.095 10.769-2.496 15.131-5.904 7.702-6.017 16.207-10.546 24.914-14.846 10.367-5.12 19.889-11.51 27.927-19.931.592-.621 1.063-1.357 1.669-2.141-4.102-.99-7.873-1.719-11.528-2.829-3.984-1.21-4.774-4.192-2.089-7.429.899-1.084 2.181-1.843 3.24-2.804 3.081-2.795 6.36-5.417 9.14-8.487 2.639-2.915 4.655-6.383 7.107-9.479 4.4-5.557 10.1219999-8.69 17.3039999-8.831 4.312-.084 8.629-.153 12.94-.055 3.409.077 6.134-1.018 8.815-3.215 6.566-5.38 12.164-10.767 19.196-15.4960002 11.152-6.235 19.518-8.905 30.241-7.828 19.258 1.935 33.629 12.1290002 45.269 26.8870002.429.543.793 1.301.714 2.081s-1.203.405-1.203.405-9.352-9.785-13.738-14.362c-2.411 3.354-3.666 5.651-5.657 8.089-2.718 3.328-6.054 6.219-8.385 9.78-3.785 5.781-2.173 14.406 2.945 17.759.436-.67 1.155-1.299 1.257-2.016.395-2.772.62-4.862 3.908-5.076 1.492-.097.426-1.836 3.256-1.988.883.068.815.816 1.698.748.714-.102 1.031-1.331 1.801-1.665 1.529-.663 3.562-.581 5.067-.519 2.79.115 4.123-1.351 4.486-3.14.24-1.179.349-2.106.927-4.176 1.336 5.335 4.808 6.945 9.116 6.907 2.037-.018 4.132-.442 6.096-.091 4.785.305 5.632 1.378 8.328 2.403 4.157 1.578 7.934 3.481 9.369 8.401.425-.133 1.257-.238 1.699-1.087.441-.85.431-2.002.466-3.449.395-16.352-7.862-27.938-23.557-32.824zm-168.8749999 25.541c3.78-.061 4.35.806 2.76 4.099-.355.734-.71 1.538-.773 2.333-.504 6.38-3.639 10.944-9.174 14.102-2.798 1.596-5.249 3.804-8.064 5.363-1.544.855-3.948 1.769-5.175 1.133-.661-.342-1.034-1.242-1.344-2.264-.593-1.965-.744-4.068-.278-6.067 2.34-10.033 11.897-18.533 22.048-18.699zm-22.767 34.14c.04-.852 3.968-4.232 4.963-4.072.994.159.938.863.942 1.886.004 1.022-3.932 4.548-5.827 3.37-.442-.379-.189-1.019-.078-1.184zm37.193-3.412c-4.995 4.621-10.57 8.322-15.99 11.739-4.235 2.669-8.853 4.725-13.154 7.299-6.549 3.919-12.979 8.038-19.447 12.094-4.819 3.023-9.504 6.379-15.705 6.221.097-.515.084-.879.185-.915 6.523-2.289 11.334-6.614 15.786-11.854 2.688-3.163 6.716-5.349 10.445-7.431 7.802-4.355 14.123-10.103 18.939-17.657 3.437-5.39 3.571-5.175 9.268-2.686 2.931 1.281 5.444 1.736 9.673 3.19zm91.8069999-76.4620002c7.477-.155 10.901.714 16.203 1.954 4.2 1.018 7.135 3.827 8.851 6.098-6.688-2.046-10.071-3.147-16.691-3.737-14.228-1.699-26.718 2.743-37.671 11.6930002-4.632 3.785-9.225 7.672-13.4 11.939-2.468 2.522-2.517 3.182-8.449 2.807 5.246-8.117 10.029-16.3390002 14.714-24.4830002 15.153-26.341 53.234-21.83 66.32-6.555.534.624 1.345 2.278 1.345 2.278s-12.384-6.625-21.492-6.625c-5.486 0-6.861.405-10.252.988-.895.154-2.391.929-2.379 2.239.013 1.311 1.888 1.26 2.901 1.404zm79.873 47.9070002c-3.976-6.157-9.984-4.824-15.609-4.849-1.676-.008-3.353.088-5.03.149-2.831.102-5.219-.56-6.454-3.473-.318-.749-1.115-1.908-1.777-2.026-.646.177-.861.598-.976.843-2.553 5.43-7.506 6.288-12.648 6.397-2.974.063-5.41.475-6.873 3.428-.283.573-1.73 1.231-1.98 1.029-.634-.51-1.412-1.664-1.213-2.245.759-2.212 1.564-4.533 2.931-6.388 3.467-4.705 7.247-9.18 11.223-14.148 1.874 1.975 3.93 4.193 6.043 6.354 1.669 1.707 3.229 3.617 5.188 4.904 1.033.679 3.267.783 4.122.1.738-.589.83-2.95.257-4.017-1.17-2.181-3.019-3.989-4.511-6.007-1.114-1.506-2.106-3.101-3.432-5.072 13.391-2.39 33.279 13.87 30.739 25.021z"/></svg>