<svg height="231" preserveAspectRatio="xMidYMid" viewBox="0 0 256 231" width="256" xmlns="http://www.w3.org/2000/svg"><path d="m218.468271 148.03688s-3.921225 4.4814-8.962801 9.522976c11.203502-14.004377 16.805252-28.008753 19.606127-41.452954 5.601751 0 23.527353-1.12035 23.527353-23.5273527 0 0-1.680525-23.5273523 1.12035-26.8884026 0 0-20.726477 2.2407002-23.527353 36.9715533 0-12.8840259-2.800875-24.6477021-7.282275-35.8512032 4.4814-2.2407002 21.286652-11.7636761 7.282275-35.2910284 0 0-3.921225-6.1619256-3.36105-11.2035011 0 0-17.365427 10.643326-11.763676 27.4485777 0 0 2.2407 4.4814004 5.041575 11.7636761-6.161925-11.7636761-13.444201-21.8468271-20.726477-30.2494529 0-4.4814005-3.36105-35.85120354-47.614879-28.00875277 0 0 6.7221 35.85120347 45.934354 29.12910287 6.722101 8.4026258 12.884027 17.9256017 17.925602 29.1291028-6.722101-10.643326-20.166302-26.3282276-39.772429-14.0043764 0 0 6.161926 3.9212254 11.763676 16.8052517 0 0 5.601751 14.5645514 31.369803 6.1619256 3.921226 11.2035011 6.161926 22.9671772 5.041576 35.851203-1.12035-7.2822752-7.282276-30.8096275-32.490153-21.2866516 0 0 3.921225 5.6017506 5.60175 15.6849015 0 0 5.041576 16.8052521 25.207878 15.6849011-2.800876 11.763677-7.842451 24.647703-17.365427 36.971554 3.921225-10.083151 7.282276-29.689278-16.245077-36.971554 0 0 1.680526 6.161926-2.800875 13.444202 0 0-10.643326 17.365426 8.962801 35.291028-7.282276 7.842451-16.805252 16.245077-27.448578 24.087528 5.601751-7.282276 10.643326-20.726477 1.680526-39.772429 0 0 .560175 5.041575-7.842451 7.84245 0 0-26.888403 8.402626-10.083151 43.13348-5.041576 2.800875-12.323851 6.7221-22.967177 11.203501-10.643327-3.921226-17.925602-7.842451-22.967178-11.203501 16.805252-34.730854-10.0831507-43.13348-10.0831507-43.13348-8.4026258-2.800875-7.8424508-7.84245-7.8424508-7.84245-8.9628008 19.045952-3.9212253 32.490153 1.6805252 39.772429-11.2035011-7.842451-20.166302-16.245077-27.4485777-24.087528 19.0459519-17.925602 8.9628009-35.291028 8.9628009-35.291028-4.4814004-7.282276-2.8008753-13.444202-2.8008753-13.444202-23.5273523 7.842451-20.166302 26.888403-16.2450766 36.971554-9.5229759-12.884026-15.1247264-25.207877-17.3654267-36.971554 20.166302.560176 25.2078775-15.6849011 25.2078775-15.6849011 1.6805252-10.0831509 5.6017505-15.6849015 5.6017505-15.6849015-25.2078774-9.5229759-31.369803 14.0043764-32.4901531 21.2866516-1.1203501-12.8840258 1.1203501-24.6477019 5.0415755-35.851203 25.7680525 8.4026258 31.369803-6.1619256 31.369803-6.1619256 6.1619256-12.8840263 11.7636762-16.8052517 11.7636762-16.8052517-19.6061269-12.3238512-33.0503283 3.3610504-39.7724289 14.0043764 5.0415755-11.2035011 11.7636761-20.726477 17.9256017-29.1291028 39.2122539 7.2822757 45.9343543-29.12910287 45.9343543-29.12910287-43.693654-7.84245077-47.0547044 22.96717727-47.6148794 28.00875277-7.2822757 8.4026258-15.1247265 18.4857768-20.726477 30.2494529 2.2407002-7.2822757 4.4814004-11.7636761 4.4814004-11.7636761 5.6017505-16.8052517-11.7636762-27.4485777-11.7636762-27.4485777.5601751 5.0415755-3.3610503 11.2035011-3.3610503 11.2035011-14.0043764 23.5273523 2.8008753 33.0503282 7.2822757 35.2910284-4.4814004 10.6433261-7.2822757 22.9671773-7.2822757 35.2910282-3.3610503-34.7308531-23.52735228-36.9715533-23.52735228-36.9715533 2.80087527 3.3610503 1.12035011 26.8884026 1.12035011 26.8884026.56017505 22.4070017 17.92560177 23.5273527 23.52735227 23.5273527 2.2407002 13.444201 8.4026258 26.888402 19.6061269 41.452954-5.0415755-5.041576-8.9628008-9.522976-8.9628008-9.522976-16.8052517-20.166302-37.5317287-20.166302-37.5317287-20.166302 2.80087527 5.041575 4.48140044 15.124726 4.48140044 15.124726 3.36105033 16.805252 14.56455146 24.647703 14.56455146 24.647703 12.3238512 10.643326 31.9299781 2.2407 36.4113785 0 7.8424508 8.402625 17.9256018 16.805251 29.6892779 25.768052-7.8424508-2.800875-24.6477024-12.323851-33.6105033-7.842451-.560175 0-12.3238512 5.601751-28.0087527 1.12035 0 0 24.0875273 38.652079 75.6236324 19.606127 5.6017503 3.361051 11.7636763 6.161926 17.9256013 8.962801-12.323851 3.921226-28.0087523 7.842451-47.6148792 11.203501l6.7221006 4.481401c9.522976-1.680525 30.8096276-5.041576 50.9759296-11.763676 20.726477 6.7221 41.452954 10.083151 50.97593 11.763676l6.722101-4.481401c-19.606127-3.36105-35.291028-7.282275-47.61488-11.203501 6.161926-2.2407 12.323852-5.60175 17.925602-8.962801 52.09628 19.606127 76.183808-19.606127 76.183808-19.606127-15.684902 4.481401-27.448578-1.12035-28.008753-1.12035-8.962801-4.4814-25.768053 4.481401-32.490153 8.402626 11.763676-8.402626 21.846827-17.365427 29.689278-25.768052 5.041575 2.2407 24.087527 10.643326 36.411378 0 0 0 10.643326-8.402626 14.564552-24.647703 0 0 1.680525-10.083151 4.4814-15.124726 0 0-20.726477 0-37.531729 20.166302z" fill="#1d547d"/></svg>