<svg height="243" preserveAspectRatio="xMidYMid" viewBox="0 0 256 243" width="256" xmlns="http://www.w3.org/2000/svg"><path d="m178.6 119.7-1.8-3.1-60.3-19.7-1.7 2-2.6.6-53.6 125.2.7 3.8 129.1-54.5 1.1-2.2-9-50z" fill="#78758c"/><path d="m59.3 228.5 55.5-129.6-114-37.2z" fill="#a3edba"/><path d="m157.1.3-42.3 98.6 63.8 20.8.3-.8-21.4-117.7z" fill="#8087e8"/><path d="m178.6 119.7 9.8 54.3 4.5-.1 61.1-26.5 2.7-2.3-3.2-2.7-71.9-24.2z" fill="#30426b"/><g fill="#6699a1"><path d="m188.4 174 12.5 69.4 55.8-98.3z"/><path d="m157.1.3 21.5 119.4 78.1 25.4z"/></g></svg>