<svg height="239" preserveAspectRatio="xMidYMid" viewBox="0 0 256 239" width="256" xmlns="http://www.w3.org/2000/svg"><g fill="#274970"><path d="m197.278255 134.702545c-.003103-2.670157-2.169019-5.071903-5.081213-5.071903-1.176048 0-2.378472.400291-3.365236 1.286206-12.854303 11.549479-34.729115 21.764655-61.185551 21.832922h-.107055c-26.411442-.068267-47.6594424-10.691491-61.187103-21.829818-.8564364-.704388-2.4420849-1.18691-3.4691879-1.18691-3.1433697 0-4.9710546 2.674813-4.9741576 5.616485-.0015515 2.269867 1.5887515 4.165818 2.8982303 6.131588 7.5838061 11.385018 31.1078788 30.718449 66.5088002 30.718449h.553891c35.399369 0 58.923442-19.333431 66.5088-30.718449 1.309479-1.96577 2.901333-4.508703 2.899782-6.77857"/><path d="m198.32863 212.745309c.400291.53217.612849.985212.612849 1.477043 0 .738521-.701285 1.245866-1.582546 1.245866-6.392242 0-26.087175-10.612363-36.4544-19.358254-1.419636-1.196219-3.405575-1.635297-6.224678-1.020897-8.648146 1.881988-17.719855 2.896678-27.083249 2.896678-58.6534787 0-106.2043151-39.256436-106.2043151-87.697842 0-48.4165818 47.5508364-87.6683636 106.2043151-87.6683636 58.648824 0 106.196558 39.2517818 106.196558 87.6683636 0 28.904727-16.933237 54.534206-43.049891 70.510158-1.745455 1.067442-3.605721 3.075103-3.605721 5.587006 0 5.155685 4.845381 17.937066 11.191078 26.360242zm34.147297 10.7008c-9.012751-5.133964-17.566254-13.814691-21.485382-25.711709-.768-2.331927-.085333-4.217018 1.712873-5.607176 26.074764-20.158836 42.482037-49.426618 42.482037-82.020848 0-60.7914669-57.125237-110.07224267-127.587297-110.07224267-70.4698186 0-127.598158 49.28077577-127.598158 110.07224267 0 60.820945 57.1283394 110.11103 127.598158 110.11103 9.20669 0 18.183757-.842473 26.838109-2.442085 2.124024-.392533 3.85086.105503 5.264291.974352 17.462303 10.714763 43.465697 19.702691 66.269866 19.702691 7.346424 0 10.171734-4.6592 10.171734-8.902594 0-2.736873-1.483249-4.860897-3.666231-6.103661z"/></g></svg>