<svg height="223" preserveAspectRatio="xMidYMid" viewBox="0 0 512 223" width="512" xmlns="http://www.w3.org/2000/svg"><path d="m140.554538 0h-53.0644993c-23.4461927 1.10858841-42.6118068 10.5521938-48.1457033 30.0263634-2.8855461 10.1561975-4.4735512 21.3104262-6.7299257 31.8384983-11.4708246 53.5328603-21.6420981 108.5391473-32.6144097 161.0026163h413.120547c31.938 0 53.866542-6.749021 59.79342-32.0968 2.752877-11.77536 5.390172-25.113598 8.024451-38.050815 10.26776-50.44228 20.544566-100.8815452 31.061582-152.719863z" fill="#b82126"/><path d="m353.699639 133.153129c-5.72938 5.60891-21.812204 7.202134-20.166776-6.205239 1.366337-11.135498 13.489694-13.501741 26.630023-11.893459-.976815 6.090793-2.097192 13.825004-6.463247 18.098698zm-18.098698-43.4366741c-.547137 3.072-1.387419 5.8518588-2.068078 8.7903373 6.560627-1.6444236 26.989427-6.6881255 28.958117 2.0680788.653553 2.909364-.473851 6.000439-1.293051 8.274321-18.474164-1.749835-33.53098 1.319153-37.490447 14.478557-2.65236 8.814431.297161 17.488314 5.947232 19.909773 10.881506 4.661207 24.117208-.678651 28.699106-8.01531-.475859 2.539921-.92662 5.104941-.776032 8.273317h9.566369c.101396-9.161788 1.434604-16.577756 2.84411-24.82196 1.201694-7.020424 3.461521-13.970573 3.102117-20.1667768-.821208-14.1904314-24.330039-9.1708236-37.489443-8.7903373zm95.922698 47.8318431c-7.484235.160627-11.205772-4.471467-11.376439-12.151467-.298165-13.450541 5.601882-28.3939134 17.581678-29.7341486 5.577789-.6234353 9.616565.6736313 13.70353 2.0690823-3.751655 15.1080153-2.397365 39.4410663-19.908769 39.8165333zm24.820957-71.1017411c-.952721 8.3546353-2.226698 16.3890196-3.877145 24.0449255-27.271529-8.6317177-43.996863 11.4326586-43.69669 36.1973956.059231 4.78971.883451 9.539263 3.879153 12.927498 5.162164 5.838808 19.943906 7.235263 27.406055 2.328095 1.445647-.94971 2.921411-2.678463 3.879153-3.878149.718807-.90353 1.86127-3.266761 2.067074-2.587106-.391529 2.625255-.97782 5.055749-1.033035 8.016313h10.083388c1.942588-27.876894 7.952063-51.6879055 12.410478-77.0489721zm-284.665976 66.9655841c-5.948236 6.299608-20.571357 6.203232-21.717836-4.396172-.499953-4.612016 1.218761-9.447906 2.068079-14.219545.859357-4.829867 1.477772-9.463969 2.326086-13.704534 5.858886-7.1539449 23.075137-8.0173175 24.821961 3.879153 1.515921 10.328345-2.572047 23.223718-7.49829 28.441098zm8.791341-43.6956861c-9.409757-3.5348078-20.878557.6846745-25.849977 4.6983529.017067.1766902-.118462.2007844-.265035.2138353.085333-.0712784.17669-.1425568.265035-.2138353-.001004-.0150588-.002008-.0281098-.006023-.0441725.084329-1.7267451.691702-2.9284392.776031-4.6541804h-9.566368c-3.986573 26.5226041-8.71404 52.3033101-13.70353 77.8240001h11.117428c1.609286-9.939828 2.672439-20.424784 4.913192-29.733145 2.538917 9.790243 19.117678 7.918933 26.113004 4.137161 14.435388-7.805491 25.568878-44.9546043 6.206243-52.2280161zm52.744031 18.6157181h-26.113004c.826228-6.003451 6.227326-12.6022279 14.736565-12.9274985 8.009286-.3061961 13.743686 2.9404863 11.376439 12.9274985zm-10.600408-19.6497573c-8.03338.6184157-14.823906 2.930447-19.649757 8.0143059-5.919121 6.2363604-10.712847 20.0232154-9.30836 32.5782584 2.003827 17.911969 24.305945 17.269459 42.144627 12.927498.303184-3.143278 1.064157-5.830776 1.551059-8.790337-7.348706 2.749741-20.107545 6.587734-27.665067 1.810071-5.70629-3.608094-5.739419-12.744785-3.878149-20.6848 11.988832-.38149 24.449506-.308204 36.455404 0 .761977-5.627985 2.94149-11.763953 1.034039-17.3226669-2.515827-7.3386667-11.52-9.2380863-20.683796-8.5323294zm-97.732768 1.0340392c-.301177.0431686-.281098.4085961-.259012.7750275-2.449569 18.3205646-5.764518 35.7767526-9.307357 53.0040466h11.117428c2.671435-18.444047 5.731388-36.498572 9.566368-53.7790741zm290.096188.2580078c-9.826384-4.9121882-18.006337 3.3310118-21.200816 8.2733177.909553-2.5359059.961757-5.9311686 1.809067-8.5313255h-9.82538c-2.648346 18.4661331-5.842824 36.3871371-9.566369 53.7790741h11.376439c.072282-7.127843 1.471749-12.400439 2.585098-19.391749 2.37829-14.925302 5.867922-31.2942427 23.270902-26.3720153.577255-2.5248627.817192-5.3880471 1.551059-7.757302zm-124.88182 40.8515763c-1.024-2.647341-1.290039-7.019419-1.034039-10.3424.575247-7.471184 3.296879-16.566714 7.49829-20.6837959 5.797647-5.6832 17.243357-4.7425255 26.372016-1.5520627.283106-3.0770196.901522-5.8207373 1.293051-8.7893333-14.972486-2.445553-29.180988-.9246118-36.714416 6.9802666-7.373804 7.7382273-12.20869 25.5237023-8.791341 36.7144153 4.000628 13.095153 21.934682 13.806934 36.457412 8.791342.641506-2.632283.981835-5.566746 1.551059-8.274322-7.934996 4.123106-23.105255 6.265475-26.632032-2.84411zm-6.204235-41.1095841c-9.85851-3.9815529-17.60778 2.7467294-21.200816 9.049349.814181-2.8039529 1.150494-6.0877804 1.809067-9.049349h-9.82538c-2.401381 18.6277651-5.942212 36.1160781-9.307357 53.7790741h11.118431c1.558086-10.484956 2.230714-24.61716 5.687216-34.646337 2.762792-8.014306 9.993035-14.8419763 20.425788-11.1174273.146573-2.956549.992878-5.2133647 1.293051-8.0153098zm-179.17691-21.7188392c-1.588204 10.3052549-3.377192 20.4097255-5.1711998 30.5091765-11.5179921.1214745-23.2779294.5692235-34.3873255-.2590118 2.0981961-9.8795922 3.6030745-20.3545098 5.6872157-30.2501647h-12.4094745c-4.4433569 25.2054588-8.4841412 50.8114823-13.4445176 75.4979133h12.6684862c1.9877647-12.66447 3.8460236-25.457443 6.4632471-37.490447 10.8021961-.266039 23.7487686-.729851 34.1293176.259012-2.1403607 12.510871-4.7264627 24.574996-6.7222588 37.231435h12.6694906c4.069898-25.576909 8.359655-50.9349643 13.444517-75.4979133zm31.543216 11.3764392c2.216659-1.5259608 5.070808-8.4811294 1.81007-11.3764392-1.033035-.9165804-2.761788-1.1826196-5.1712-.7750275-2.235733.3774745-3.521756 1.1364393-4.395168 2.3260863-1.40549 1.9134745-2.692518 7.6820079-.518024 9.8253804 2.118275 2.0871529 6.863812.9707922 8.274322 0z" fill="#fff"/></svg>