<svg height="119" preserveAspectRatio="xMidYMid" viewBox="0 0 512 119" width="512" xmlns="http://www.w3.org/2000/svg"><g fill="#e94e1b"><path d="m112.65562 19.5695501v78.9431583c1.671434 1.5428626 3.34287 2.8285816 5.142876 4.1143006v-87.1717603c-1.800006 1.2857192-3.600013 2.7000103-5.142876 4.1143014z"/><path d="m103.912729 112.784192h-22.5000858c-4.7571611 0-8.7428906-3.857158-8.7428906-8.742891 0-7.5857433-6.171452-13.8857674-13.8857672-13.8857674s-13.8857673 6.1714521-13.8857673 13.8857674c0 4.757161-3.8571575 8.742891-8.7428904 8.742891h-22.2429421c-4.7571609 0-8.74289043-3.857158-8.74289043-8.742891v-90.0003435c0-4.75716088 3.98572953-8.6143185 8.74289043-8.6143185h22.5000859c4.757161 0 8.7428905 3.85715762 8.7428905 8.7428905 0 7.5857433 6.1714521 13.8857673 13.8857672 13.8857673 7.7143152 0 13.8857673-6.1714521 13.8857673-13.8857673 0-4.75716097 3.8571576-8.7428905 8.7428905-8.7428905h22.500086c4.371445 0 7.971459 3.3428699 8.614319 7.5857432 1.414291-1.1571472 2.957153-2.1857226 4.500017-3.21429792-2.057151-5.52859255-7.200028-9.51432204-13.37148-9.51432204h-22.5000858c-7.5857432 0-13.8857673 6.17145212-13.8857673 13.88576726 0 4.757161-3.8571576 8.7428905-8.7428905 8.7428905s-8.7428905-3.8571576-8.7428905-8.7428905c.2571438-7.71431514-6.0428802-13.88576726-13.6286234-13.88576726h-22.5000859c-7.58574317 0-13.88576719 6.17145212-13.88576719 13.88576726v90.0003435c0 7.585743 6.17145211 13.885767 13.88576719 13.885767h22.5000859c7.5857432 0 13.8857672-6.171452 13.8857672-13.885767 0-4.7571615 3.8571577-8.7428907 8.7428905-8.7428907 4.885733 0 8.7428906 3.857158 8.7428906 8.7428907 0 7.585743 6.1714521 13.885767 13.8857672 13.885767h22.500086c6.04288 0 11.314329-3.985729 13.114336-9.38575-1.542864-1.028575-3.085726-2.057151-4.500017-3.214298-.771432 4.114302-4.500017 7.3286-8.871463 7.3286z"/><path d="m148.912901 112.784192c-11.571473 0-22.371514-3.728586-31.242977-10.028611-1.800007-1.285719-3.471441-2.70001-5.142877-4.1143006-10.671468-9.7714659-17.3572085-23.914377-17.3572085-39.4715793 0-15.5572021 6.8143115-29.7001132 17.4857815-39.600151 1.671434-1.542863 3.34287-2.8285822 5.142876-4.1143014 8.742891-6.300024 19.542932-10.0286097 31.242977-10.0286097 16.842921 0 32.014408 7.842887 41.785874 20.0572194 1.028575-1.4142911 2.05715-2.8285822 3.214298-4.2428734-10.800042-12.85719185-27.000104-20.95722276-45.000172-20.95722276-11.700045 0-22.75723 3.47144181-31.885836 9.38575013-1.542864 1.02857533-3.085726 2.05715063-4.500017 3.21429793-13.6286239 10.8000412-22.3715145 27.5143906-22.3715145 46.1573189s8.7428906 35.3572778 22.3715145 46.1573188c1.414291 1.157148 2.957153 2.185723 4.500017 3.214299 9.257178 5.914307 20.185791 9.385749 31.885836 9.385749 18.000068 0 34.20013-8.228602 45.000172-20.9572226-1.157148-1.2857192-2.185723-2.7000102-3.214298-4.2428732-9.900038 12.3429038-24.942953 20.1857918-41.914446 20.1857918z"/><path d="m197.12737 25.4838584c-1.157147 1.414291-2.185723 2.9571542-3.214298 4.3714452 5.528593 8.3571747 8.74289 18.5143564 8.74289 29.1858256 0 10.6714693-3.214297 20.828651-8.74289 29.1858257 1.028575 1.542863 2.057151 2.9571541 3.214298 4.3714453 6.68574-9.5143221 10.671469-21.0857948 10.671469-33.6858429s-3.985729-23.9143769-10.671469-33.4286989z"/><path d="m270.15622 102.755581c-8.74289 6.300025-19.542931 10.028611-31.242976 10.028611-16.842922 0-32.014408-7.842888-41.785874-20.0572199-1.157147-1.4142912-2.185723-2.9571542-3.214298-4.3714453-5.528593-8.3571747-8.74289-18.3857844-8.74289-29.1858257 0-10.8000411 3.214297-20.8286508 8.74289-29.1858255 1.028575-1.542863 2.057151-2.9571542 3.214298-4.3714453 9.900038-12.3429043 24.942952-20.1857913 41.914446-20.1857913 11.571473 0 22.371514 3.7285857 31.242976 10.0286097v-1.2857192c0-1.542863.385716-2.9571541.900004-4.2428733-9.257179-6.04288022-20.314364-9.51432204-32.14298-9.51432204-18.000069 0-34.200131 8.22860282-45.000171 20.95722274-1.157148 1.2857193-2.185723 2.7000104-3.214298 4.2428734-6.68574 9.514322-10.67147 21.0857947-10.67147 33.6858427 0 12.6000481 3.98573 24.0429489 10.67147 33.6858429 1.028575 1.4142911 2.05715 2.8285822 3.214298 4.2428733 10.80004 12.8571918 27.000102 20.9572228 45.000171 20.9572228 11.828616 0 22.885801-3.471442 32.14298-9.514322-.64286-1.285719-.900004-2.828583-.900004-4.242873z"/><path d="m297.799183 59.1697011c0-18.6429282-8.742891-35.3572777-22.371514-46.1573189-.128571.3857158-.128571.7714315-.128571 1.1571473v5.4000206c10.671468 9.7714659 17.357208 23.9143769 17.357208 39.4715791 0 15.5572023-6.68574 29.7001133-17.357208 39.4715792v5.5285926c0 .385716 0 .771431.128571 1.157147 13.628623-10.800041 22.371514-27.3858186 22.371514-46.0287469z"/><path d="m289.570581 5.426639c-7.200028 0-13.242909 3.3428699-14.142912 7.5857432-.128571.3857158-.128571.7714315-.128571 1.1571473v5.4000206 78.9431583 5.5285926c0 .385716 0 .771431.128571 1.157147.900003 4.242874 7.071455 7.585744 14.142912 7.585744h39.343006c11.571473 0 22.371514-3.728586 31.242977-10.028611v1.28572c0 1.542863.257143 2.957154.900003 4.242874-9.257178 6.042879-20.185791 9.514321-32.014408 9.514321h-39.471578c-8.871464 0-16.071491-3.985729-18.514357-9.514321-.64286-1.28572-.900004-2.828583-.900004-4.242874v-1.28572-87.3003323-1.2857192c0-1.542863.385716-2.9571541.900004-4.2428733 2.442866-5.65716447 9.771466-9.64289396 18.514357-9.64289396h39.343006c11.828617 0 22.75723 3.47144181 32.014408 9.51432204-.514288 1.41429112-.900003 2.82858222-.900003 4.37144522v1.2857192c-8.614319-6.300024-19.41436-10.0286097-30.985833-10.0286097z"/><path d="m387.799526 59.1697011c0-18.6429282-8.74289-35.3572777-22.371513-46.1573189 0 .3857158-.128573.7714315-.128573 1.1571473v5.4000206c10.671469 9.7714659 17.357209 23.9143769 17.357209 39.4715791 0 15.5572023-6.68574 29.7001133-17.357209 39.4715792v5.5285926c0 .385716 0 .771431.128573 1.157147 13.628623-10.6714691 22.371513-27.3858186 22.371513-46.0287469z"/><path d="m416.471064 19.5695501v78.9431583c1.671436 1.5428626 3.34287 2.8285816 5.142877 4.1143006v-87.1717603c-1.800007 1.2857192-3.471441 2.7000103-5.142877 4.1143014z"/><path d="m405.028164 112.784192h-28.157251c-5.785736 0-10.671469-3.34287-11.4429-7.585744 0-.385716-.128573-.771431-.128573-1.157147v-5.5285926-78.9431583-5.5285926c0-.3857157 0-.7714315.128573-1.1571472.771431-4.24287332 5.528592-7.58574321 11.4429-7.58574321h28.157251c5.785736 0 10.671468 3.34286989 11.4429 7.58574321 1.414291-1.1571473 2.828583-2.1857226 4.371445-3.21429793-2.185722-5.52859256-8.485747-9.51432204-15.814345-9.51432204h-28.157251c-7.3286 0-13.628623 3.98572948-15.814346 9.51432204-.514288 1.41429113-.900003 2.82858213-.900003 4.37144513v1.2857193 87.3003322 1.28572c0 1.542863.257143 2.957154.900003 4.242873 2.185723 5.528592 8.485746 9.514322 15.814346 9.514322h28.157251c7.328598 0 13.628623-3.98573 15.814345-9.514322-1.542862-1.028576-2.957154-2.05715-4.371445-3.214298-.900004 4.62859-5.657164 7.842888-11.4429 7.842888z"/><path d="m511.614285 31.0124509v-16.8429214c0-7.71431514-6.171453-13.88576726-13.757196-13.88576726h-45.000172c-11.828617 0-22.75723 3.47144181-32.014408 9.51432204-1.542862 1.02857532-2.957154 2.05715072-4.371445 3.21429792-13.628623 10.8000412-22.371513 27.5143907-22.371513 46.1573189 0 18.6429283 8.74289 35.3572778 22.371513 46.1573189 1.414291 1.157147 2.828583 2.185723 4.371445 3.214298 9.257178 6.04288 20.185791 9.514322 32.014408 9.514322h45.000172c7.585743 0 13.885767-6.171452 13.885767-13.885767v-16.9714935c0-4.6285891-2.314294-8.7428905-5.785737-11.1857569 3.471443-2.4428665 5.785737-6.5571679 5.785737-11.3143289v-11.3143289c0-4.8857329-2.442866-8.7428905-5.914308-11.1857569 3.471442-2.4428665 5.785737-6.5571679 5.785737-11.185757zm-5.142877 0c0 4.757161-3.857159 8.7428905-8.742891 8.7428905v5.1428767c4.114302 0 8.742891 3.6000138 8.742891 8.7428906v11.3143288c0 4.8857329-3.857159 8.7428905-8.742891 8.7428905v5.1428767c4.757161 0 8.742891 3.8571576 8.742891 8.7428906v16.8429217c0 4.75716-3.857159 8.74289-8.742891 8.74289h-45.000172c-11.571472 0-22.371513-3.728585-31.242976-10.028609-1.800007-1.285719-3.471442-2.700011-5.142877-4.1143019-10.671469-9.7714659-17.357209-23.914377-17.357209-39.4715792s6.68574-29.7001133 17.357209-39.4715792c1.671435-1.542863 3.34287-2.8285821 5.142877-4.1143013 8.871463-6.8143117 19.671504-10.5428974 31.371548-10.5428974h45.000172c4.75716 0 8.74289 3.85715762 8.74289 8.7428905v16.8429214z"/></g></svg>