<svg height="224" preserveAspectRatio="xMidYMid" viewBox="0 0 256 224" width="256" xmlns="http://www.w3.org/2000/svg" xmlns:xlink="http://www.w3.org/1999/xlink"><linearGradient id="a" x1="47.952271%" x2="47.952271%" y1="97.594737%" y2="0%"><stop offset="0" stop-color="#ffb300"/><stop offset=".613719707" stop-color="#dc3939"/><stop offset="1" stop-color="#ff1bb4"/></linearGradient><path d="m13.1805225 4.5h229.6389555c4.517978 0 8.180522 3.65491795 8.180522 8.1634877v197.6730243c0 4.50857-3.662544 8.163488-8.180522 8.163488h-229.6389555c-4.5179778 0-8.1805225-3.654918-8.1805225-8.163488v-197.6730243c0-4.50856975 3.6625447-8.1634877 8.1805225-8.1634877z"/><path d="m7.1748879 14.3496957v194.5831203c0 3.960989 3.2141377 7.174807 7.1776991 7.174807h227.294826c3.965515 0 7.177699-3.21182 7.177699-7.174807v-194.5831203c0-3.9609897-3.214138-7.1748078-7.177699-7.1748078h-227.294826c-3.9655147 0-7.1776991 3.2118204-7.1776991 7.1748078zm-7.1748879 0c0-7.9251181 6.4240406-14.3496957 14.352587-14.3496957h227.294826c7.926715 0 14.352587 6.42669715 14.352587 14.3496957v194.5831203c0 7.925118-6.42404 14.349695-14.352587 14.349695h-227.294826c-7.92671495 0-14.352587-6.426697-14.352587-14.349695z" fill="url(#a)"/><path d="m76.149126 83.3100265h38.486564v7.472727h-38.486564zm-11.7424875-19.3629325-33.8851625 30.4459465 10.5462442-26.645114-14.8864107-10.0402855 33.8851625-30.443067-11.4705693 28.3456445z" fill="#fff"/></svg>