<svg height="194" preserveAspectRatio="xMidYMid" viewBox="0 0 256 194" width="256" xmlns="http://www.w3.org/2000/svg"><path d="m103.961 133.9317s10.927 23.415 9.99 28.722c-.936 5.307 5.927-21.371 11.239-24.976 8.742-5.931-21.229-3.746-21.229-3.746" fill="#3458d0"/><path d="m103.2747 157.8879c-.901 6.117-4.252 30.245-2.58 33.671 1.671 3.427 3.991.349 4.149-1.459.158-1.809 2.775-52.608 2.775-52.608s-3.443 14.279-4.344 20.396" fill="#3458d0"/><path d="m105.2428 173.0039s-1.837 12.525-.177 14.564 4.637.77 4.497-5.438c-.139-6.209-2.028-44.873-2.028-44.873z" fill="#ff686c"/><path d="m108.2032 156.1992s-.155 24.786 1.998 27.147c2.152 2.361 5.111.08 4.074-4.749-.766-3.563-5.819-34.267-5.819-34.267l-.164-.999c-.28-1.714-.839-5.141-.839-5.141z" fill="#f49cb1"/><path d="m111.6102 167.0008s1.064 8.599 2.388 10.172 5.002 1.406 3.334-4.571c-1.667-5.977-9.906-34.101-9.906-34.101z" fill="#009ee5"/><path d="m111.1662 151.2899s3.491 17.043 5.602 19.441 5.837.144 3.252-3.726c-2.584-3.87-12.425-29.148-12.425-29.148z" fill="#009ee5"/><path d="m118.3079 40.3626-8.415-5.61 18.731-21.953-.005.208c6.214-7.867 16.485-13.008 28.103-13.008 16.372 0 30.068 14.423 33.509 25.598 7.439-.658 15.971-.882 24.559.002 24.265 2.498 40.898 6.343 40.898 6.343s-41.028-2.205-65.097 2.338c-2.356 9.806-13.271 22.813-27.21 26.12 1.325 6.374 2.323 14.621 1.458 23.268-1.873 18.731 0 15.297-11.863 31.531-11.864 16.235-36.361 30.139-45.061 24.323s-16.061-47.174-14.723-53.313c1.178-5.403 20.501-38.09 25.116-45.847" fill="#3458d0"/><path d="m125.4687 39.1346s-66.81-38.4-100.839-30.595c-7.028 1.612-7.904 5.967-4.869 11.864 1.437 2.79 7.884 4.028 10.834 7.382 2.533 2.878 1.4 7.814 4.723 10.933 2.505 2.352 9.019 2.268 11.824 4.677 3.446 2.958 3.243 8.413 6.925 11.341 22.305 17.736 46.739 33.725 46.739 33.725z" fill="#3458d0"/><path d="m43.8204 8.0841c-6.996-.863-13.545-.84-19.191.455-7.028 1.612-7.904 5.968-4.868 11.864 1.436 2.791 7.883 4.029 10.834 7.382 2.532 2.879 1.399 7.815 4.722 10.934 2.506 2.351 9.019 2.268 11.824 4.676 3.446 2.958 3.244 8.414 6.925 11.341 17.314 13.768 34.426 21.901 41.218 24.852-4.595-6.284-12.345-15.299-24.36-24.852-3.681-2.927-3.478-8.383-6.924-11.341-2.806-2.408-9.319-2.325-11.825-4.676-3.322-3.119-2.189-8.055-4.722-10.934-2.95-3.353-9.398-4.591-10.834-7.382-3.035-5.896-2.159-10.252 4.869-11.864.761-.174 1.539-.326 2.332-.455" fill="#ff686c"/><path d="m54.6501 9.9443c-4.637-1.094-9.085-1.857-13.128-2.139-7.272-.508-7.938 6.701-4.903 12.598 1.437 2.791 7.884 4.029 10.835 7.382 2.532 2.878 1.399 7.815 4.722 10.933 2.505 2.352 9.019 2.269 11.824 4.677 3.446 2.958 3.243 8.414 6.925 11.341 22.305 17.736 30.851 16.444 30.851 16.444l.853-2.915c-3.993-4.2-8.897-8.799-14.846-13.529-3.681-2.927-3.479-8.383-6.925-11.341-2.805-2.408-9.318-2.325-11.824-4.677-3.322-3.118-2.19-8.055-4.722-10.933-2.95-3.353-9.398-4.591-10.834-7.382-2.384-4.631-2.355-8.312 1.172-10.459" fill="#f49cb1"/><path d="m109.02 78.9854s-23.478 14.049-41.586 15.61c-4.007.345-7.541-4.715-13.736-5.308-3.995-.382-11.904 3.18-16.235 2.498-5.805-.914-7.024-5.253-12.487-6.558-5.055-1.207-10.521 1.401-14.389 0-5.851-2.118-9.854-4.381-10.523-6.554-2.498-8.117 68.995-30.595 86.166-30.595 17.17 0 30.595 3.746 30.595 3.746z" fill="#3458d0"/><path d="m4.2058 73.6611c-2.983 1.932-4.55 3.642-4.142 4.968.669 2.173 4.672 4.436 10.523 6.555 3.869 1.4 9.334-1.207 14.389 0 5.463 1.304 6.682 5.643 12.488 6.557 4.331.683 12.239-2.879 16.234-2.497 6.195.593 9.729 5.653 13.736 5.307 18.108-1.561 33.405-5.888 33.405-5.888l-.058-.405c-2.461-.6-16.87-3.869-33.347-2.448-4.007.345-7.541-4.715-13.736-5.308-3.995-.382-11.903 3.18-16.234 2.498-5.806-.914-7.025-5.253-12.488-6.558-5.055-1.207-10.52 1.401-14.389 0-2.504-.906-4.67-1.84-6.381-2.781z" fill="#ff686c"/><path d="m4.1463 73.6282c1.72.952 3.907 1.897 6.441 2.814 3.868 1.401 9.334-1.207 14.388 0 5.463 1.305 6.683 5.643 12.488 6.558 4.331.682 12.239-2.88 16.234-2.498 6.195.593 9.73 5.653 13.737 5.308 18.107-1.561 33.405 2.541 33.405 2.541l-.026-.32c-2.08-1.913-13.594-11.704-29.945-10.295-4.007.346-10.976-5.382-17.171-5.975-3.995-.382-11.903 3.18-16.234 2.497-5.805-.914-4.058-2.453-12.8-4.951-8.303-2.372-19.422 3.705-20.517 4.321" fill="#f49cb1"/><path d="m117.9833 40.1371.338.226c-.017.028-.034.057-.051.086 3.138 3.362 7.59 6.706 13.49 7.941 13.422 2.81 24.036 8.116 33.401 27.153-.116-5.605-.866-10.807-1.767-15.143 13.94-3.306 24.855-16.314 27.21-26.12 24.069-4.542 65.097-2.338 65.097-2.338s-16.633-3.844-40.897-6.342c-8.589-.884-17.121-.66-24.56-.003-3.441-11.174-17.137-25.597-33.509-25.597-11.618 0-21.889 5.14-28.103 13.007l.006-.207-16.248 19.041.014.003s1.774 4.11 5.579 8.293" fill="#3458d0"/><path d="m163.5902 11.8634c8.276 0 14.985 6.709 14.985 14.985 0 8.277-6.709 14.986-14.985 14.986s-14.985-6.709-14.985-14.986c0-8.276 6.709-14.985 14.985-14.985"/><g fill="#fff"><path d="m178.3631 29.3779c-1.202 7.072-7.359 12.456-14.773 12.456-8.276 0-14.985-6.709-14.985-14.985s6.709-14.985 14.985-14.985 14.986 6.709 14.986 14.985c0 .055-.001.111-.001.166-.079-6.312-5.22-11.405-11.551-11.405-6.379 0-11.551 5.172-11.551 11.551 0 6.38 5.172 11.551 11.551 11.551 5.622 0 10.305-4.015 11.339-9.334"/><path d="m170.4585 27.4732c1.724 0 3.122 1.398 3.122 3.122s-1.398 3.122-3.122 3.122-3.122-1.398-3.122-3.122 1.398-3.122 3.122-3.122"/></g></svg>