<svg height="256" preserveAspectRatio="xMidYMid" viewBox="0 0 256 256" width="256" xmlns="http://www.w3.org/2000/svg" xmlns:xlink="http://www.w3.org/1999/xlink"><filter id="a" height="200%" width="200%" x="-50%" y="-50%"><feOffset dx="-1" dy="-1" in="SourceAlpha" result="shadowOffsetOuter1"/><feGaussianBlur in="shadowOffsetOuter1" result="shadowBlurOuter1" stdDeviation="1.5"/><feColorMatrix in="shadowBlurOuter1" result="shadowMatrixOuter1" type="matrix" values="0 0 0 0 0   0 0 0 0 0   0 0 0 0 0  0 0 0 0.317623415 0"/><feMorphology in="SourceAlpha" operator="dilate" radius="1" result="shadowSpreadOuter2"/><feOffset dx="1" dy="2" in="shadowSpreadOuter2" result="shadowOffsetOuter2"/><feGaussianBlur in="shadowOffsetOuter2" result="shadowBlurOuter2" stdDeviation="2"/><feColorMatrix in="shadowBlurOuter2" result="shadowMatrixOuter2" type="matrix" values="0 0 0 0 0   0 0 0 0 0   0 0 0 0 0  0 0 0 0.293132926 0"/><feMerge><feMergeNode in="shadowMatrixOuter1"/><feMergeNode in="shadowMatrixOuter2"/><feMergeNode in="SourceGraphic"/></feMerge></filter><path d="m128 4.79837176c67.496209 0 122.21278 54.71657134 122.21278 122.21278024 0 67.496208-54.716571 122.21278-122.21278 122.21278-67.4962087 0-122.21277999-54.716572-122.21277999-122.21278 0-67.4962089 54.71657129-122.21278024 122.21277999-122.21278024" fill="#fff" filter="url(#a)"/><path d="m128 5.34823714c67.204571 0 121.684723 54.48015216 121.684723 121.68472386 0 67.204571-54.480152 121.684723-121.684723 121.684723-67.2045713 0-121.6847234-54.480152-121.6847234-121.684723 0-67.2045717 54.4801521-121.68472386 121.6847234-121.68472386" fill="#447cad"/><path d="m128 251c-16.734448 0-32.9695769-3.277913-48.2542475-9.742954-14.7622738-6.243909-28.019487-15.181966-39.4036795-26.566158-11.3841924-11.384193-20.3225029-24.64166-26.5661588-39.40368-6.46504062-15.284671-9.74295366-31.519799-9.74295366-48.254247 0-16.734449 3.27791304-32.9695774 9.74295366-48.254248 6.2436559-14.7622738 15.1819664-28.019487 26.5661588-39.4036794 11.3841925-11.3841925 24.6414057-20.3225029 39.4036795-26.5661589 15.2846706-6.46504058 31.5197995-9.74295361 48.2542475-9.74295361s32.969577 3.27791303 48.254248 9.74295361c14.76202 6.243656 28.019487 15.1819664 39.403679 26.5661589 11.383939 11.3841924 20.322249 24.6414056 26.566159 39.4036794 6.46504 15.2846706 9.742953 31.519799 9.742953 48.254248 0 16.734448-3.277913 32.969576-9.742953 48.254247-6.24391 14.76202-15.18222 28.019487-26.566159 39.40368-11.384192 11.384192-24.641659 20.322249-39.403679 26.566158-15.284671 6.465041-31.5198 9.742954-48.254248 9.742954m0-243.36944681c-16.120252 0-31.7569063 3.15669671-46.4760697 9.38234771-14.2180683 6.0136492-26.9876266 14.6233061-37.9541552 25.5898347-10.9665286 10.9665287-19.5761855 23.736087-25.5898348 37.9541552-6.225651 14.7191634-9.38234765 30.3558182-9.38234765 46.4760702 0 16.119998 3.15669665 31.756906 9.38234765 46.475816 6.0136493 14.218321 14.6233062 26.98788 25.5898348 37.954408 10.9665286 10.966529 23.7360869 19.576186 37.9541552 25.589835 14.7191634 6.225398 30.3558177 9.382348 46.4760697 9.382348s31.756906-3.15695 46.475816-9.382348c14.218322-6.013649 26.98788-14.623306 37.954155-25.589835 10.966529-10.966528 19.576439-23.736087 25.590089-37.954408 6.225397-14.71891 9.382347-30.355818 9.382347-46.475816 0-16.120252-3.15695-31.7569068-9.382347-46.4760702-6.01365-14.2180682-14.62356-26.9876265-25.590089-37.9541552-10.966275-10.9665286-23.735833-19.5761855-37.954155-25.5898347-14.71891-6.225651-30.355564-9.38234771-46.475816-9.38234771" fill="#ebedf4"/><path d="m191.166393 63.5021573c13.089337 34.2788656 22.115389 69.6567927 22.402454 106.6019107-54.532138 2.94571-107.11036 7.567653-155.7627451 21.604658-13.088829-34.278612-22.1143746-69.656033-22.4009321-106.6001362 54.5318846-2.9469772 107.1095992-7.5691744 155.7612232-21.6064325" fill="#ecf7f9"/><path d="m209.878088 164.532681c-51.950838 3.749846-102.349195 8.556657-149.4120736 21.20931-11.2049038-31.046599-19.2143116-62.972397-20.4282502-96.1450999 51.8790726-3.6511985 102.1442938-8.493766 149.0121618-21.3165783 11.364666 31.0727187 19.507209 63.0340192 20.828162 96.2523682" fill="#dbf0f6"/><path d="m206.743454 147.022499c-7.82809-5.593196-15.912307-10.880562-24.120023-15.977988.013694-.01978-7.365034-5.842222-12.976488-4.759389-5.034282.968716-9.964846 7.076447-10.9115 8.268577-2.744358-1.665583-5.500382-3.316966-8.263252-4.958965.007101-.011412-8.663418-6.617703-15.22812-5.392606-6.566984 1.210135-12.972684 9.83171-12.968627 9.833485-.605321.690528-1.210135 1.380802-1.814188 2.071836-5.205455-3.054246-10.428916-6.104435-15.6364-9.179982-.015977.016483-10.5983153-8.151165-18.6597092-6.736636-8.1270739 1.400074-16.0124759 12.375985-15.9655616 12.40743-6.1906555 7.489801-12.1358352 15.178163-17.6146617 23.163987 2.6467259 9.476683 5.6738377 18.86461 8.9821816 28.174177 46.2851159-12.099825 95.6678419-16.904608 146.4828479-20.755889-.261959-5.418219-.7027-10.803977-1.306499-16.158037" fill="#6cc077"/><path d="m136.001293 103.640996c-.010144-.147082.080895-.288332.046407-.436937-.49298-2.290431-3.841899-3.7087632-7.489547-3.198032-.480301.068977-.881481.239897-1.327294.363142-1.337437-1.0620374-3.500565-1.6389562-5.891418-1.3166425-3.094567.4176639-5.300045 2.1458845-5.544253 4.0597335-2.93024.892892-4.917377 2.827282-4.53978 4.875027.356548 1.93515 2.705052 3.264472 5.625402 3.481546 1.293312 1.637689 4.154829 2.579524 7.324713 2.152478 2.873943-.389008 5.0921-1.779953 5.925653-3.441226.781059.102197 1.605483.109551 2.461858-.011158 3.281971-.454941 5.589392-2.485949 5.156513-4.523804-.180303-.834313-.866773-1.493649-1.748254-2.004127zm26.132772.563225c-.048943-.102958-.150633-.179796-.174977-.283514-.392051-1.645804 1.381055-3.334718 3.956521-3.776726.341841-.059848.660097-.030431.98799-.040575.551306-1.0153768 1.805312-1.8808818 3.478249-2.1806259 2.179866-.3940799 4.178921.3131845 4.941215 1.5768268 2.210803-.0182586 4.123637.8852851 4.511124 2.3845131.369989 1.418079-.767112 2.840976-2.617563 3.611892-.346405 1.402103-1.953155 2.657123-4.182217 3.022801-2.021879.333471-3.918737-.161791-4.981789-1.113517-.48943.229246-1.03465.408281-1.636421.505913-2.31934.374807-4.475114-.518592-4.818476-1.984347-.150126-.598727.099154-1.188833.536344-1.722641z" fill="#87c3e8"/><path d="m91.9191191 116.981894c-.0537612-.018512-.1158909-.085713-.1600157-.115891-.1820781-.125527-.2989834-.295433-.3697352-.481061l-.0020287-.006086.0106508.016229.0659336-.015469.0002536-.002789c.0109044-.097125-.0154691-.197294-.0319525-.293658l-.0491966-.438458c-.0441247-.27185-.1440395-.527723-.2847823-.775227-.1176661-.207437-.2591697-.414114-.4415013-.587062-.0999148-.094336-.2043941-.185629-.3131845-.272357-.0329668-.025866-.1650876-.125527-.2163129-.198561.1133551.056804.2211311.112594.3474193.160015l.064412-.020287c-.0005072-.06213-.0821634-.126288-.1229915-.175992-.0890103-.108537-.1643267-.229753-.2396432-.345137-.1465754-.224681-.2459829-.465592-.4521521-.660096-.1998295-.188672-.4328793-.295687-.7026998-.394334-.1214699-.044378-.245983-.086981-.3763286-.109044-.0770915-.012679-.1562118-.018005-.2343177-.025866-.1110728-.05579-.223667-.107015-.3334718-.15469-.1551975-.067455-.3200314-.122231-.4909515-.153423l-.0053254-.00076c-.0689767-.02257-.1387141-.042604-.2173272-.056044-.3405723-.058072-.7006711-.007354-.9923003.150887-.1752312.095096-.3050696.192221-.5201145.223159-.1100583.015723-.2363465-.012426-.3529982-.050464-.0091293-.054522-.0268806-.106255-.0575651-.157734-.0256127-.042349-.0522397-.073795-.0666943-.120202-.012426-.03956-.0555364-.055536-.0737949-.090278.0948429.02612.1719344.072273.2825.077092l.0453927-.023077c.0131867-.059594-.1191876-.098647-.1658483-.117666-.1856284-.076331-.2429399-.226203-.3073519-.381401-.0583258-.142517-.1711737-.234317-.2814856-.348687l-.0522397-.041589.0623833-.01978c.0347419.011158.06568.027388.0930678.049197.0654264.051225.0976324.11792.1531687.175231l.0639049-.021809c-.0240911-.14835-.1389677-.31927-.2287388-.447841-.0631441-.090532-.1516472-.169906-.240404-.24294-.0390529-.032206-.1539295-.068216-.1752311-.119694.0664407.005071.139982.009129.1828389-.038039l-.0025359-.021555c-.0659336-.040321-.136939-.055283-.212509-.080389-.1115799-.03677-.1668627-.124766-.222399-.207183-.0956037-.142264-.1716809-.28884-.2868111-.422482-.0854601-.099154-.1521544-.218088-.276921-.28884-.1108191-.062637.0116652-.017751.0626369.00634.0458999.022062.0664407.032206.1169053.028148l.0360099-.027134c-.0443784-.113862-.1782743-.179542-.289347-.245222-.0575651-.033981-.1420108-.084192-.2117482-.100676-.0286558-.006846-.0973788-.02054-.152408-.038799.050211.005326.1004219.007101.1478434.002282l.0332203-.031191c-.0245983-.025359-.0641584-.033474-.0994075-.042857-.1179197-.031192-.2137769-.104479-.2967011-.179035-.0456463-.041589-.08546-.046154-.1531688-.048943-.0443783-.001775-.1042257-.003043-.1620444-.001522l-.021048-.022316-.0633977-.100168-.1539295-.156719c-.0864744-.140743-.1186805-.286557-.2409112-.412085-.0431104-.044885-.1057473-.053254-.1676234-.030684-.0821634.030177-.0205408.133388-.0078613.185121.0192729.076331-.0225696.162805-.0281486.24015-.0040574.059341.0101437.098647.0387994.149112-.0826706.012172-.163566.036263-.2411647.066948l-.0375315-.032714c-.1067616-.081909-.2069299-.135924-.2873182-.240657-.0575651-.075317-.1176661-.154183-.2107338-.201098l-.0535077.010144c-.0507181.040828-.0205408.123752-.0182585.17447.0027895.076585.0106508.152155.0213016.228486.0187657.133895.0834314.191968.1810638.243447-.0431105.019019-.0849529.040321-.1227379.067201-.1011827.073541-.1980543.146322-.3126773.204648-.0281486.014201-.0202873.037024.0126795.035249.0469143-.002282.0907855-.011158.1338959-.02333-.0580723.048943-.1037186.097886-.162298.166102-.0251055.029162.0316988.028909.0504645.018258.0423496-.025105.0887567-.045393.1361782-.063651-.0950965.072527-.1856284.139982-.3073519.196025-.0268806.01268-.0200337.039307.0129331.035249.0575651-.007354.1138622-.020033.1699058-.035756l-.0063398.005326c-.047675.038799-.1681306.094082-.1894322.148857-.0240911.064159-.0243447.128064-.0192729.194758l-.0025359.005325-.0453928.074302-.021048.025613-.0431104.043618c-.1004219.074555-.185882.159255-.2680453.246236-.1067617.106508-.20693.216059-.3238353.317496l-.1346567.112848c-.0963644.071259-.1668626.138967-.237868.241164-.0456463.065427-.086728.123245-.0943358.199323-.0058325.057565.0522397.110819.0971253.162298l.0233303.059847c.037785.102704.0131867.204648.0750629.301519.0484358.075824.2127625.250802.340065.217074l.0793739-.028149.023584.014962c.0626369.037278.1704129.009637.2414183.016737.1549439.014708.2675381-.091039.3289071-.194504l.036517-.058072c.3393044-.104733.6775943-.213016 1.0239992-.299998l.011158-.003043c.139982.049704.2999977.051479.4521521.017751l.0357563.140236c.0088757.164327-.0025359.331189.022316.49298.042096.275146.0522397.549531.1234987.821381.048943.186642.0895175.374553.1316135.562464-.0172442.110312-.0431104.218848-.0775987.327639-.0398138.08267-.0890104.162551-.1478434.243447-.1039722.142518-.1693986.364156-.1950112.526708-.0316989.205408-.0316989.457224.0385458.655532l.0256126.058325.0076077.13136c.0043111.0847.0509718.178275.1027043.262974.048943.203126.0134403.390783.0258662.594163.0114116.187403.0682159.349448.1440395.525693.0573115.133135.1166517.266017.1772599.398898l.0162298.067709c.0382922.146576.091039.289854.0999147.440994.0169906.277428.1392213.550546.0015216.818337-.0324596.063398-.0190193.174471.0010143.237108.0311917.098139.0243447.189432.093575.277681l.0284021.036518c.023584.067962.0509718.135671.0707518.20414.0372779.130853.0573115.266777.0720198.400673l.0015215.017498-.0007607.00279c.0053254.091292-.0065934.181063-.0147083.272356-.0093829.103972-.07557.222653-.0248519.322314.0725269.141757.1196948.305069.0174978.449616-.0524933.074048-.1328815.117412-.124513.207944l.0053254.011158-.0043111.142772c-.0065933.075823-.0157226.14835-.0339811.223667-.0086221.035249.0375314.066441.0720197.075316.0423497.011158.0989004.008622.142518.009637.0583258.001521.1158909.016737.1739632.011918.0727805-.006086.3702424-.041588.3879937-.126795.0119188-.060354.0017751-.129838-.0020287-.190193-.0038039-.060355.0058326-.126542-.0116652-.185882l.006847-.01978c-.0532541-.106762-.0996612-.205916-.1298385-.310649l.0103972-.124259.0050719-.029163c.0398137-.04311.064412-.104986.079881-.182078.0182586-.0918-.0355027-.176499-.0697374-.25993-.048943-.120202-.0324596-.283768-.0494502-.410564-.016737-.127556-.0200337-.253083-.0228232-.3814-.0012679-.08546.0537613-.201605.0517325-.293658.0200337-.06213.0268807-.128063.0238376-.179796-.0030431-.053761.0050718-.138714-.0131867-.207183l.0020287-.010905c.0215552-.119187-.0540148-.203126-.0770916-.318003l-.015469-.077598c.0207944-.176753.0519861-.355534.0611153-.533048.0126796-.252069.0319525-.5191-.0101436-.771423.0329668-.067708.0707518-.133388.0971252-.203633.0187657-.050972.0316989-.104226.0387994-.158494.120202-.049958.2822464-.04235.4118313-.02612.0403209.005072.0768379.013187.1113263.023077l.0344883.045139c.0786131.08901.1539295.165848.2094659.268552l.0542684.107776c.0570579.394587.1148766.788921.1729488 1.183254l.0022824.097379-.0007608.01268c-.0238375.103211-.0679623.206423-.1049866.303294-.0202872.052494-.0083685.111834.0022824.164834.0162298.08191.0187657.166356.0423496.24649.0169906.058073.0573115.097886.0983932.145815.0261198.030938.0469143.063905.0664407.097379.0649192.180049.0793739.392812.0841921.553335.0038039.118426.0258663.233557.0428569.351223l.0091292.105747-.0071005.028909c-.0215552.06847-.0669479.133643-.0664408.205916 0 .044125.0263735.115891.0687231.17447.0273878.077599.0202873.169399.0190193.243447-.0022823.126035-.1295848.159509-.1671162.26906l.0271342.004058.0005071.02333.0187657.00355c-.0035502.084699-.0190193.17092-.030938.254098-.0053254.037024-.033474.086221-.001268.109298.0071006.029163.0385458.046407.093575.053507.107776.014201.2459829.018512.3532518.008115.1432787-.013694.3628882-.061369.3755678-.171174.0091292-.026373.0035502-.057057-.001268-.083177-.0116651-.064412-.0071005-.241165-.0963644-.253084l-.0005072-.001268.0461535-.023837c-.0950965-.080642-.157987-.180557-.2010974-.287065.097886-.116144.1425179-.248265.1037186-.380639l-.0230768-.097886c-.0337275-.142772-.0824169-.271089-.0915462-.419439-.0086221-.138207-.0372778-.278443-.0339812-.416396.0015216-.081657-.0071005-.182839-.0205408-.270328l.0316988-.068977c.0912927-.142771.0088757-.286811.0294165-.433893.0228232-.165088-.1141158-.310395-.1202019-.471172l-.0043111-.112848.0362635-.105493c.0562971-.175485.1006755-.346152.1232451-.527469.025359-.205916.0276413-.403716.0245983-.6109-.0015216-.119441.0073541-.245983 0-.369481l.0065933.000507c.2764138.002789.5378658-.021809.7993178-.086728.0273878.104225.0578187.207944.1014363.308873.0857136.196786.2094659.375061.3180027.561957.0568043.097886.1222307.166609.1227379.280725.0002536.092561.0301773.189432.0486894.280218.0149618.072273.0451391.137953.0925606.196532l.0428568.114116c.0276414.07202.0522397.144293.0750628.217074.0192729.133642.0507182.268806.0603546.401434.0147083.207183.0466607.426032.026627.633977-.0144546.152408-.1270489.282246-.0448855.429329.1184268.212762-.1237523.336261-.2059156.5191l.0550291.002028.0129332-.006339-.0844457.044632c-.0230768.018258-.0273878.041335-.034742.065172-.0344883.115638-.0844456.213777-.1440395.321807-.0443783.080895.3788645.018258.4125921.013947.1534223-.019526.43364-.00989.4932338-.173709.0332204-.091293.0403209-.178782-.0458999-.248265-.0694838-.056298-.1032114-.095604-.0806418-.18005l.0116652-.045646c.0268806-.021555.0710053-.007608.1027042-.01623.0748092-.020287.0633976-.124767.0702446-.17447.036517-.258156-.0195265-.517072-.001268-.775734.022316-.313438-.0608617-.628651-.0395601-.944118.0093828-.138714.0071005-.282247.0058326-.421214-.001268-.113102.0068469-.221892-.0131867-.332711.0149618-.089264.0157226-.169906-.0519861-.253845-.0999147-.123752-.2021118-.291375-.2294996-.438711-.0535076-.286812.0314453-.58047.2104803-.825438.0839385-.11513.222399-.186896.2984762-.305577l.0380386-.075063c.1072689.144547.2251885.284275.3245961.431865l.0286557.040828c.0385458.240658.1156374.470665.1754847.711829l.0010144.003551c.0190193.135924.0367707.272102.0578187.408027l.0159762.071766-.0109044.106001c-.0119188.067202-.0461535.139982-.0527469.204394-.0207944.198308.0375315.384951.0387994.581484.0002536.094335.0778523.158494.1321208.234571.0281485.039306.0481822.077599.0666943.116652l.0410817.307098c.0240911.132121-.0005072.309381.0509717.44708.0045646.097125.0035503.194251-.021048.289601-.0360099.138714-.0560436.234064.004311.372525l.0190193.042349c.0010144.066948-.011158.132121-.0273878.203126-.0182585.079121-.0831777.169145-.0720197.250294l.0251055.005579c-.0301773.096872-.0286558.22595-.0078613.311917.0106508.043364.0152154.050464.0697374.054268.0902783.007608.1820781.012426.2723564.017244.1067616.005579.3065911-.058833.359338-.13846.0159762-.024091.0035502-.122992.003043-.148351-.0022823-.07557-.0180049-.138967-.043364-.209719l.0076078-.01268c-.0043111-.023584-.0215553-.034488-.0431105-.050211-.0527468-.038292-.0821633-.07557-.1062545-.12223l-.042096-.156973c.0722733-.105494.1019434-.188671.0687231-.312424-.022316-.08546-.06568-.169905-.1123407-.251562-.0147083-.113101-.0461535-.228231-.0527469-.337275-.0136939-.21961-.0387993-.445559-.021048-.664408.0083685-.109551.0636513-.213523.0778524-.323328.0114115-.090785.0291629-.182332.0329667-.273624.0048183-.115384-.0380386-.2295-.0710053-.339812-.0228232-.074809-.0273878-.157987-.0289094-.239643.0466607-.138714.1163981-.268806.1815709-.402195.0857137-.174977.0773452-.427554.0106508-.635752l-.0025359-.019526c-.0180049-.151901.0220624-.341333.05579-.490698l.0276414-.144547c.0045646.051226.0106508.102958.0202872.154437l.0025359.002282c.0126796.259931.1278097.52189.2672846.745557l.0669479-.018005c-.0076077-.078867.0174978-.150633.0426033-.222906.032206.159255.0649192.316988.0864744.479033.0101436.076584.0225696.153168.0215552.230514-.0005072.04666-.0116652.105747.0109044.149364l.0593402-.009129c.1113263-.063651.1564655-.222145.1559583-.327893-.0010144-.108283-.0294165-.211241-.0547756-.316481-.0086221-.035756-.0471679-.134149-.0456463-.1978.096618.100929.0570579.288839.1714273.373031l.005579.058073c.0182585.237868.1397284.438204.2721027.643613.1229915.191207.2830072.357816.4648318.511746.0943357.080134.296701.23381.4430229.225188l.0542684-.021809c-.040321-.065426-.1800494-.082163-.250294-.121216-.1422644-.07912-.2589161-.182332-.3367684-.30938-.082417-.135164-.1323744-.265003-.174724-.412085l-.0190193-.091547-.0357563-.039813.0005072-.010651.0022823.001521c.0349955.02536.0623833.059341.0905319.089772.1115799.119948.2117482.247758.3149596.372271.0704982.085206.1562118.174216.2097195.267538.0278949.048943.0464071.146829.1103119.172441l.064412-.017751c.0327132-.150379-.0030431-.322821-.0628904-.465085-.0517325-.124006-.1529152-.232543-.2269637-.347419l.0466607.041081c.0905319.078106.2061692.130346.3180027.185121.1384605.067709.3187635.207945.4914587.168892l.0387994-.020034c-.0159762-.042857-.0438712-.054015-.093575-.071259zm-9.8745672-8.250319c-.6565462-.656546-1.3105566-1.315121-1.962031-1.975217.4359224.742767.8743806 1.484012 1.3156284 2.22399z" fill="#bab9d6"/><path d="m137.666876 201.041877-16.343665 18.792337 7.956915 4.885677 10.217421-11.747334 13.245802 8.148122 6.138162-7.047792zm-2.389584-15.580865-16.343666 18.793098 7.956661 4.885171 10.216915-11.746828 13.246055 8.147362 6.138162-7.047285zm-8.639328-139.5938036-10.217168 11.7470807-13.246055-8.1476147-6.1381621 7.0475384 21.2143811 13.0312638 16.343665-18.7930975zm-2.390345-15.5806109-10.217168 11.7473343-13.246056-8.1478683-6.1381618 7.0475383 21.2143818 13.0310103 16.343918-18.7928439z" fill="#76a1c4"/></svg>