<svg height="73" preserveAspectRatio="xMidYMid" viewBox="0 0 512 73" width="512" xmlns="http://www.w3.org/2000/svg"><path d="m0 0h23.7226667v70.144h-23.7226667zm31.0613333 0h18.432l18.2613334 26.9653333 18.2613333-26.9653333h18.602667v70.144h-22.5280003v-25.2586667l-14.336 20.992-14.336-20.992v25.2586667h-22.3573334zm80.7253337 0h18.602666l18.090667 26.9653333 18.261333-26.9653333h18.602667v70.144h-22.528v-25.2586667l-14.336 21.1626667-14.336-20.992v25.2586667h-22.357333zm107.690666 72.0213333c-4.437333 0-8.362666-.512-11.946666-1.7066666-3.584-1.1946667-6.656-2.7306667-9.216-5.12-2.56-2.2186667-4.437334-5.12-5.802667-8.5333334-1.365333-3.4133333-2.048-7.5093333-2.048-12.1173333v-44.544h22.357333v43.6906667c0 2.3893333.512 4.2666666 1.536 5.632 1.024 1.3653333 2.730667 1.8773333 5.12 1.8773333 2.389334 0 4.096-.6826667 5.12-1.8773333 1.024-1.3653334 1.536-3.2426667 1.536-5.632v-43.6906667h22.528v44.544c0 4.608-.682666 8.704-2.048 12.1173333-1.365333 3.4133334-3.413333 6.3146667-5.973333 8.5333334-2.56 2.2186666-5.632 3.9253333-9.216 5.12-3.584 1.024-7.509333 1.7066666-11.946667 1.7066666zm45.738667-53.5893333h-12.970667v-18.432h48.981334v18.432h-12.970667v51.712h-23.210667v-51.712zm52.906667-18.432h16.896l26.624 70.144h-22.016l-2.389334-6.3146667h-21.333333l-2.389333 6.3146667h-22.016zm13.141333 48.4693333-4.778667-12.288-4.778666 12.288zm32.085333-48.4693333h27.477334c3.584 0 6.656.34133333 9.557333 1.19466667 2.901333.85333333 5.461333 2.048 7.509333 3.584s3.754667 3.584 4.778667 5.97333333c1.194667 2.3893333 1.706667 5.12 1.706667 8.192 0 2.2186667-.341334 4.096-.853334 5.8026667-.512 1.536-1.194666 2.9013333-1.706666 3.9253333-.853334 1.1946667-1.706667 2.3893333-2.56 3.072 1.536 1.024 2.901333 2.2186667 4.266666 3.7546667 1.024 1.3653333 2.048 3.072 2.901334 5.12.853333 2.048 1.365333 4.608 1.365333 7.5093333 0 3.4133333-.512 6.4853333-1.706667 9.216-1.194666 2.7306667-2.901333 5.12-5.12 6.9973333-2.218666 1.8773334-4.949333 3.4133334-8.021333 4.4373334-3.242667 1.024-6.826667 1.536-10.752 1.536h-28.672v-70.3146667zm29.525334 21.3333333c0-3.2426666-1.706667-4.7786666-5.290667-4.7786666h-2.56v9.728h2.56c3.584 0 5.290667-1.7066667 5.290667-4.9493334zm-5.290667 32.256c5.290667 0 8.021333-2.048 8.021333-6.144s-2.730666-6.144-8.021333-6.144h-2.56v12.288zm36.181333-53.5893333h23.381334v51.712h19.285333v18.432h-42.666667zm46.08 0h41.301334v18.432h-18.944v7.8506667h18.602666v17.408h-18.602666v8.0213333h19.797333v18.432h-42.154667z" fill="#fc4349"/><path d="m0 0h23.7226667v70.144h-23.7226667zm13.312 61.7813333v-53.41866663h-2.7306667v53.41866663zm17.7493333-61.7813333h18.432l18.2613334 26.9653333 18.2613333-26.9653333h18.602667v70.144h-22.5280003v-25.2586667l-14.336 20.992-14.336-20.992v25.2586667h-22.3573334zm13.1413334 61.7813333v-48.2986666l23.552 34.304 23.552-34.304v48.2986666h2.7306666v-53.41866663h-2.7306666l-23.552 34.64533333-23.552-34.64533333h-2.7306667v53.41866663zm67.5840003-61.7813333h18.602666l18.090667 26.9653333 18.261333-26.9653333h18.602667v70.144h-22.528v-25.2586667l-14.336 21.1626667-14.336-20.992v25.2586667h-22.357333zm13.141333 61.7813333v-48.2986666l23.552 34.304 23.381333-34.304v48.2986666h2.730667v-53.41866663h-2.730667l-23.381333 34.64533333-23.552-34.64533333h-2.730667v53.41866663zm94.549333 10.24c-4.437333 0-8.362666-.512-11.946666-1.7066666-3.584-1.1946667-6.656-2.7306667-9.216-5.12-2.56-2.2186667-4.437334-5.12-5.802667-8.5333334-1.365333-3.4133333-2.048-7.5093333-2.048-12.1173333v-44.544h22.357333v43.6906667c0 2.3893333.512 4.2666666 1.536 5.632 1.024 1.3653333 2.730667 1.8773333 5.12 1.8773333 2.389334 0 4.096-.6826667 5.12-1.8773333 1.024-1.3653334 1.536-3.2426667 1.536-5.632v-43.6906667h22.528v44.544c0 4.608-.682666 8.704-2.048 12.1173333-1.365333 3.4133334-3.413333 6.3146667-5.973333 8.5333334-2.56 2.2186666-5.632 3.9253333-9.216 5.12-3.584 1.024-7.509333 1.7066666-11.946667 1.7066666zm0-12.6293333c-10.581333 0-15.701333-5.12-15.701333-15.5306667v-35.49866663h-2.730667v35.49866663c0 5.9733334 1.536 10.4106667 4.778667 13.4826667s7.850667 4.608 13.653333 4.608c5.973334 0 10.581334-1.536 13.824-4.608 3.242667-3.072 4.778667-7.68 4.778667-13.4826667v-35.49866663h-2.901333v35.49866663c0 10.24-5.12 15.5306667-15.701334 15.5306667zm45.738667-40.96h-12.970667v-18.432h48.981334v18.432h-12.970667v51.712h-23.210667v-51.712zm12.970667 43.3493333v-50.8586666h15.018666v-2.56000003h-32.768v2.56000003h15.018667v50.8586666zm39.936-61.7813333h16.896l26.624 70.144h-22.016l-2.389334-6.3146667h-21.333333l-2.389333 6.3146667h-22.016zm-10.922667 61.7813333 2.048-5.2906666h34.645333l2.048 5.2906666h2.901334l-20.309334-53.41866663h-3.925333l-20.309333 53.41866663zm19.285333-50.8586666 16.384 43.008h-32.768zm4.778667 37.5466666-4.778667-12.288-4.778666 12.288zm32.085333-48.4693333h27.477334c3.584 0 6.656.34133333 9.557333 1.19466667 2.901333.85333333 5.461333 2.048 7.509333 3.584s3.754667 3.584 4.778667 5.97333333c1.194667 2.3893333 1.706667 5.12 1.706667 8.192 0 2.2186667-.341334 4.096-.853334 5.8026667-.512 1.536-1.194666 2.9013333-1.706666 3.9253333-.853334 1.1946667-1.706667 2.3893333-2.56 3.072 1.536 1.024 2.901333 2.2186667 4.266666 3.7546667 1.024 1.3653333 2.048 3.072 2.901334 5.12.853333 2.048 1.365333 4.608 1.365333 7.5093333 0 3.4133333-.512 6.4853333-1.706667 9.216-1.194666 2.7306667-2.901333 5.12-5.12 6.9973333-2.218666 1.8773334-4.949333 3.4133334-8.021333 4.4373334-3.242667 1.024-6.826667 1.536-10.752 1.536h-28.672v-70.3146667zm25.770667 61.7813333c6.144 0 10.752-1.3653333 13.653333-3.9253333 2.901334-2.7306667 4.437334-6.144 4.437334-10.5813333 0-2.9013334-.682667-5.12-1.877334-6.8266667-1.194666-1.7066667-2.56-3.072-3.925333-4.096-1.706667-1.1946667-3.754667-1.8773333-5.802667-2.3893333 1.706667-.512 3.242667-1.1946667 4.608-2.3893334 1.194667-.8533333 2.218667-2.2186666 3.242667-3.7546666s1.365333-3.584 1.365333-5.9733334c0-4.4373333-1.365333-7.68-4.266666-10.0693333-2.730667-2.21866667-6.656-3.41333333-11.434667-3.41333333h-15.189333v53.41866663zm-12.458667-29.184v-21.6746666h12.458667c4.608 0 7.850667 1.024 9.898667 3.072s3.072 4.608 3.072 7.8506666c0 3.2426667-1.024 5.8026667-3.072 7.8506667s-5.290667 3.072-9.898667 3.072h-12.458667zm0 26.624v-24.064h12.288c2.218667 0 4.266667.1706667 5.973334.6826667 1.877333.512 3.413333 1.1946667 4.949333 2.048 1.365333 1.024 2.56 2.2186667 3.242667 3.7546667.853333 1.536 1.194666 3.4133333 1.194666 5.4613333 0 4.2666667-1.365333 7.3386667-4.266666 9.216-2.901334 1.8773333-6.656 2.9013333-11.264 2.9013333zm16.213334-37.888c0-3.2426666-1.706667-4.7786666-5.290667-4.7786666h-2.56v9.728h2.56c3.584 0 5.290667-1.7066667 5.290667-4.9493334zm-5.290667 32.256c5.290667 0 8.021333-2.048 8.021333-6.144s-2.730666-6.144-8.021333-6.144h-2.56v12.288zm36.181333-53.5893333h23.381334v51.712h19.285333v18.432h-42.666667zm36.864 61.7813333v-2.56h-23.552v-50.85866663h-2.730666v53.41866663zm9.216-61.7813333h41.301334v18.432h-18.944v7.8506667h18.602666v17.408h-18.602666v8.0213333h19.797333v18.432h-42.154667zm34.304 61.7813333v-2.56h-20.992v-23.04h19.968v-2.56h-19.968v-22.6986666h20.992v-2.56000003h-23.722666v53.41866663z" fill="#2c3e50"/></svg>