<svg height="613" preserveAspectRatio="xMidYMid" viewBox="0 0 256 613" width="256" xmlns="http://www.w3.org/2000/svg"><path d="m193.439278 15.5775565c3.461 4.176 6.516 8.262 9.755 12.603 42.171 56.522 54.844 124.2230005 42.573 193.1650005-.78 4.384-3.09 4.573-6.364 7.732-20.25 19.539-39.743 39.789-51.848 65.505-5.087 10.809-7.671 22.947-10.146 34.742-.74 3.528 1.775 10.155 4.543 11.362 3.108 1.355 9.634-.494 12.171-3.251 12.905-14.023 25.332-28.525 37.263-43.392 8.141-10.144 15.193-21.162 23.499-31.412 2.247 22.43 1.858 44.475-8.419 64.577-4.325 12.802-9.897 14.317-16.851 22.031-7.911 5.933-17.027 14.958-22.629 22.492-8.753 14.029-8.287 25.364 4.83 35.192.824.504 5.146 2.575 6.546 2.886-2.967 1.986-5.578 2.633-12.377 4.611-.242 10.192-8.736 16.987-11.221 21.751-1.174 4.567-1.612 5.257-1.984 10.349-3.206 43.808-9.676 91.216-25.972 132.447-5.509 13.938-12.149 22.667-25.945 28.445-1.651.692-9.38 4.702-10.374 4.914 3.396-5.394 4.039-13.359-.461-19.473-3.229-4.387-16.118-4.142-20.287-8.155.794-.182 6.325.236 7.112.262 6.572.226 12.79-.107 14.718-8.199 1.546-6.492-1.911-12.975-8.45-17.524-4.444-3.093-7.509-3.971-11.305-7.845-.918-.937-2.304-6.091-1.343-9.49.131-.464.687-.638 1.046-.316 4.286 3.843 9.878 7.914 13.458 12.194 2.297 2.102 5.195 4.514 7.196 4.489 2.114-.026 3.331-2.596 5.803-4.341 5.691-5.065 7.709-7.532 11.293-14.454.621-3.807-.73-10.268-1.92-14.958-4.982-19.619-6.557-40.029-1.437-59.714 3.669-14.108 8.919-28.515 16.755-40.666 12.532-19.433 13.111-37.213-.019-55.823-22.442-31.809-19.86-63.956-1.676-96.556 12.958-23.233 29.63-43.454 48.089-62.451 3.821-3.932 6.314-4.333 7.369-9.716 13.515-62.299 5.201-125.4810005-24.557-180.8820005-1.318-2.389-12.44-17.83299997-12.608-18.70599997.35-.23500001 13.824 15.80999997 14.174 15.57499997zm-121.6981002 336.8921005c-.721-9.112-.81-17.709-2.168-26.102-5.421-33.498-23.178-60.454-45.848-84.682-1.801-1.925-3.462-4.106-5.597-5.571-11.324-7.771-14.777-19.198-16.244-32.1-8.175-71.901 10.096-135.6750005 57.864-190.5320005.318-.366 9.776-12.70599997 11.318-13.31499997-13.395 23.34499997-29.337 46.14699997-36.897 85.16799997-7.319 37.7790005-7.397 75.2470005.506 112.7620005.807 3.83 3.615 7.639 6.414 10.585 19.841 20.887 38.522 42.783 49.906 69.461 5.459 12.79 9.1420002 26.844 10.7240002 40.658 2.146 18.741-9.4800002 30.81-29.9780002 33.668zm-20.1703 58.9684c18.106-12.047 31.533-8.303 39.11 8.113 8.061 17.462 13.1850002 42.644 14.0680002 61.888-4.56-11.154-10.8930002-28.827-15.3390002-40.026-2.09-5.265-4.85-9.09-11.324-8.972-6.052.11-10.041-3.434-11.351-9.101-.602-2.604-1.323-6.504-2.903-8.267-2.633-2.938-6.985-2.996-12.261-3.635zm-6.3152-57.2598c-23.631-15.817-40.726-36.082-43.963-66.286 13.006 5.58 36.592 40.667 43.963 66.286z" fill="#2c6791"/></svg>