<svg height="152" preserveAspectRatio="xMidYMid" viewBox="0 0 512 152" width="512" xmlns="http://www.w3.org/2000/svg"><path d="m511.891394 76.1964606c.017067 41.8172124-33.868024 75.7310064-75.686012 75.7488484-41.817212.017067-75.731006-33.8688-75.748849-75.686012v-.0628364c-.017066-41.8179879 33.8688-75.73178181 75.686012-75.74884848 41.817213-.01784242 75.731782 33.86802428 75.748849 75.68523638z" fill="#db3975"/><path d="m406.217697 53.7894788h12.338424v51.8353452h-12.338424z" fill="#fff"/><path d="m451.577018 107.178667c-16.171442 0-26.957576-11.8171155-26.957576-27.6790306 0-15.8611394 10.990158-27.2678788 26.435491-27.2678788 14.408146 0 26.750449 10.0592485 26.849746 27.2678788.000776 16.1722181-10.672097 27.6790306-26.327661 27.6790306m-.619054-43.7488488c-7.7824 0-13.381819 6.2200242-13.381819 15.7540848 0 10.6821818 6.53731 16.5895758 13.999322 16.5895758 9.018181 0 13.579636-7.8793697 13.263903-16.4817455-.203249-8.6039272-5.180509-15.8619151-13.881406-15.8619151" fill="#fff"/><path d="m420.822109 41.5441455c0 4.5552484-3.691054 8.2455272-8.246303 8.2455272-4.556024 0-8.2432-3.6887272-8.2432-8.2455272 0-4.553697 3.687952-8.2470788 8.2432-8.2470788 4.554473 0 8.246303 3.6933818 8.246303 8.2470788" fill="#fff"/><g fill="#4c4d4a"><path d="m23.9546182 50.7275636h15.3328485l-.0209455 7.4201212c5.1805091-6.4752484 14.3794424-9.1989333 20.4675879-9.1989333 6.0920242 0 13.7340121 2.3319273 18.0107636 9.9762424 2.5902546-3.6282181 9.3246061-9.9762424 20.729794-9.9762424 6.4760243 0 12.6937213 1.8152727 17.1008003 6.607903 5.180509 5.7010425 5.052509 12.5688243 5.052509 19.3031758v40.9568967h-15.418958v-35.9012846c0-6.0889212.906861-16.3250424-10.8831028-16.3250424-4.9206304 0-8.9367273 2.7205818-11.0103273 6.0904727-2.9804606 4.7941818-3.3691152 9.9739152-3.3691152 15.5454061v30.5920002h-15.4189575v-36.2907154c0-4.6661818 0-6.351903-.5182061-8.2920727-1.1636364-4.278303-4.5319758-7.6458667-9.9746909-7.6458667-4.6646303 0-9.1973818 2.7198061-11.9187394 7.5132122-2.7229091 5.0540606-2.8509091 11.1437575-2.8509091 17.4894545v27.2244361h-15.4166303z"/><path d="m126.324364 50.8920242h15.415854v5.9593697c2.462255-2.588703 7.646643-7.9010909 17.751661-7.9010909 19.044848 0 29.408194 17.1039031 29.408194 34.9812364 0 19.3031756-12.049843 33.6833936-29.408194 33.6833936-8.939055 0-14.50977-4.272872-17.751661-7.257212v26.433164h-15.415854zm31.093915 52.0812608c7.516315 0 15.677285-5.1797335 15.677285-19.821382 0-16.1931636-11.270982-19.3008485-15.934061-19.3008485-7.127661 0-15.287079 5.1812849-15.546958 19.0417455-.262206 13.3453576 7.122231 20.080485 15.803734 20.080485z"/><path d="m227.169745 117.616485c-20.210036 0-33.683393-14.773527-33.683393-34.5933577 0-19.8244849 13.733236-34.0728243 33.034084-34.0728243 18.008437 0 33.430497 12.5688243 33.557722 34.0728243 0 20.2108117-13.348461 34.5933577-32.908413 34.5933577m-.779636-54.6722911c-9.714036 0-16.709818 7.7738667-16.709818 19.6887273 0 13.3476849 8.159418 20.7313458 17.489454 20.7313458 11.268655 0 16.970473-9.8435882 16.58337-20.6017943-.259879-10.752-6.479903-19.8182788-17.363006-19.8182788"/><path d="m280.078739 50.8920242v10.080194c1.941722-3.3691152 6.218473-11.0157576 20.728243-10.6247758v15.9356121c-3.366788.1303273-9.202812.2583273-13.993115 3.8865455-6.608679 5.0532848-6.735128 11.6619636-6.735128 22.4139636v23.1881694h-15.031078v-64.8797088z"/><path d="m2.41260606 50.7275636h15.77347874v65.1310544h-15.77347874z"/><path d="m21.0881939 35.0045091c0 5.8228364-4.7220363 10.5425454-10.5433212 10.5425454-5.82361209 0-10.5448727-4.719709-10.5448727-10.5425454 0-5.8212849 4.72048485-10.544097 10.5448727-10.544097 5.8212849 0 10.5433212 4.7228121 10.5433212 10.544097"/><path d="m343.985648 65.4211879v-2.3171879h.013964v-11.1429818h-.013964v-.8510061h-13.847272v-21.8220606h-15.546182v21.8220606h-9.765236v14.3111758h9.765236v29.651006c0 6.4791271 0 10.6247761 1.034085 13.2158061 2.981236 7.900315 13.858909 7.900315 17.100024 7.900315 3.50177 0 6.609455-.256 11.273309-1.03486v-13.085479c-2.2016.648533-4.1472.774982-6.483006.774982-7.376679 0-7.376679-3.4947883-7.376679-11.5293095v-25.8924606z"/></g></svg>