<svg height="266" preserveAspectRatio="xMidYMid" viewBox="0 0 256 266" width="256" xmlns="http://www.w3.org/2000/svg"><path d="m84.1099 58.7344-3.335 2.213c-27.487 17.978-41.969 43.559-42.301 76.315-.426 41.889 29.091 78.327 69.92 87.701 52.705 12.101 104.865-26.106 109.105-79.918 3.353-42.563-25.426-80.801-66.033-94.018-6.123-6.827-11.683-29.772-2.006-40.223 39.907 8.868 69.826 29.245 89.116 62.064 42.178 71.759 4.261 165.298-75.856 187.64-74.422 20.754-149.723-28.306-160.853-104.798-12.351-71.322 38.008-134.771 109.059-145.434-16.575 14.991-25.444 35.578-26.816 48.458" fill="#494949"/><path d="m179.5839 119.4594c5.738-10.692 5.478-21.875 2.22-33.19-.801-2.783-2.468-7.557-3.593-10.678 19.183 14.176 35.565 48.262 27.238 82.136-7.714 31.385-37.794 56.664-68.824 59.587-39.959 3.763-71.029-20.182-82.724-49.292-12.47-31.035-2.484-69.205 18.948-88.208-10.487 21.114-7.241 37.875-2.956 44.129 4.763 6.953 12.346 10.558 19.747 8.499 7.781-2.164 13.749-9.125 13.614-18-.09-5.926-1.147-12.609-3.484-17.948-13.867-31.677-2.308-60.245 20.059-79.919 6.492-5.711 14.041-11.191 23.649-16.575-10.558 14.991-12.352 33.256-4.329 50.253 4.703 9.262 10.73 18.935 16.047 27.871 9.557 16.061 15.418 32.574 12.88 51.732-.028.212 7.602-2.957 11.508-10.397" fill="#fb3239"/></svg>