<svg height="265" preserveAspectRatio="xMidYMid" viewBox="0 0 256 265" width="256" xmlns="http://www.w3.org/2000/svg"><path d="m82.472546 256.199228c-6.9729746-9.562937-4.7814683-22.711975 4.7814683-29.684949 1.9922784-1.394595 4.1837848-2.390734 6.3752911-3.187646l.3984557-7.969114c-5.179924-2.191506-9.3637088-7.769886-9.7621645-13.348265l-7.769886-1.992279c-1.3945949 1.992279-2.9884177 3.586101-4.9806962 4.980696-9.5629366 6.972975-22.9112023 4.781469-29.684949-4.781468-6.9729747-9.562937-4.7814683-22.711974 4.7814683-29.684949s22.7119744-4.781468 29.684949 4.781468c1.7930507 2.589962 3.1876456 5.57838 3.7853291 8.566798l13.5474936 3.586101c3.5861012-1.394595 7.5706586-1.593823 11.1567596-.199228l7.769886-5.57838c-1.992279-8.168341 1.195367-17.133594 8.168341-22.114291 9.562937-6.972974 22.911203-4.781468 29.68495 4.781469 6.972974 9.363709 4.781468 22.711974-4.781469 29.684949-6.972974 4.980696-16.336683 5.379152-23.508886.996139l-7.769886 5.57838c.199228 3.785329-1.195367 7.570658-3.586101 10.559076l-.796911 13.945949c2.78919 1.593823 5.179924 3.586101 6.972974 6.176063 6.773747 9.562937 4.781469 22.711975-4.781468 29.684949-9.363709 6.972975-22.7119744 4.781468-29.684949-4.781468z" fill="#0690ba"/><path d="m112.157495 234.68262c-2.191506-2.988417-5.179924-4.980696-8.367569-5.777607l1.195367-20.32124c3.187645-2.589962 4.383012-6.773747 2.988417-10.559076l14.344405-10.359848c5.179924 5.379152 13.746722 6.176063 19.922785 1.593823 6.972974-4.980697 8.367569-14.543633 3.386873-21.516608-4.980696-6.773747-14.543633-8.367569-21.516607-3.386873-6.176063 4.58224-8.168342 12.94981-4.582241 19.524329l-14.543632 10.359848c-2.988418-2.589962-7.3714307-2.78919-10.9575319-.597684l-19.7235568-5.179924c.1992278-3.386873-.7969114-6.972974-2.7891899-9.762164-4.9806961-6.773747-14.7428606-8.36757-21.5166073-3.386874-6.9729747 4.980696-8.3675696 14.543633-3.3868734 21.516608 4.9806961 6.972974 14.5436327 8.367569 21.5166074 3.386873 2.589962-1.992278 4.3830126-4.383013 5.3791518-7.172202l17.3328226 4.58224c-1.3945949 2.78919-.9961392 6.375291.9961392 8.965253 1.9922785 2.78919 5.1799241 3.984557 8.3675693 3.785329l-.9961389 17.930506c-2.9884177 0-5.9768354.99614-8.5667974 2.988418-6.7737468 4.980696-8.3675696 14.543633-3.3868734 21.516607 4.9806961 6.972975 14.5436327 8.36757 21.5166077 3.386874 6.972974-4.980696 8.367569-14.543633 3.386873-21.516608zm15.739-64.948277c3.984557-2.78919 9.363709-1.992279 12.152899 1.992278 2.789189 3.984557 1.992278 9.363709-1.992279 12.152899-3.187645 2.390734-7.570658 2.191506-10.559076-.199228l2.589962-1.992279c1.793051.99614 4.383013.99614 6.176063-.398455 2.589962-1.793051 3.187646-5.379152 1.195368-7.969114-1.793051-2.589962-5.379152-3.187646-7.969114-1.195367-1.793051 1.394595-2.589962 3.586101-2.191507 5.777607l-2.589962 1.992279c-1.195367-3.586101 0-7.769886 3.187646-10.16062zm-63.3544552 25.501164c-4.1837847 2.988418-9.9613923 1.992278-12.94981-2.191506-2.9884177-4.183785-1.9922784-9.961393 2.1915063-12.94981 4.1837848-2.988418 9.9613923-1.992279 12.94981 1.992278.9961393 1.394595 1.5938228 2.988418 1.7930506 4.582241l-3.1876455-.796912c-.1992278-.597683-.3984557-1.394595-.9961392-1.992278-1.9922785-2.78919-5.9768354-3.386874-8.7660253-1.394595-2.7891898 1.992278-3.3868733 5.976835-1.3945949 8.766025 1.9922785 2.78919 5.9768354 3.386873 8.7660253 1.394595.7969113-.597684 1.3945949-1.394595 1.7930506-2.191506l2.9884177.796911c-.7969114 1.593823-1.7930507 2.988418-3.1876456 3.984557zm27.6926706 53.990746c-2.9884177-4.183785-1.9922784-9.961392 1.9922785-12.94981 1.3945949-.996139 2.9884177-1.593823 4.5822405-1.79305l-.1992279 3.187645c-.9961392.199228-1.7930506.398456-2.589962.996139-2.7891898 1.992279-3.3868734 5.976836-1.3945949 8.766026 1.9922785 2.789189 5.9768354 3.386873 8.7660254 1.394595 2.78919-1.992279 3.386873-5.976836 1.394595-8.766026-.398456-.597683-.996139-.996139-1.593823-1.394595l.199228-3.386873c1.394595.597684 2.78919 1.593823 3.785329 2.988418 2.988418 4.183784 1.992278 9.961392-2.191506 12.94981-3.984557 3.187645-9.7621649 2.191506-12.7505826-1.992279z" fill="#c3e8f2"/><path d="m239.065633 223.924317c-11.156759 3.586101-23.11043-2.589962-26.696531-13.746722-.796912-2.390734-.99614-4.58224-.99614-6.972974l-7.570658-2.78919c-3.586101 4.383013-10.359848 6.375291-15.739 4.980696l-4.383012 6.773747c1.394595 1.79305 2.589962 3.984557 3.187645 6.375291 3.586102 11.156759-2.589962 23.11043-13.746721 26.895759-11.156759 3.586101-23.11043-2.589962-26.696531-13.746721-3.586102-11.15676 2.589962-23.11043 13.746721-26.696532 2.988418-.996139 6.176063-1.195367 9.363709-.796911l7.570658-11.754443c-.199228-3.785329.796911-7.570658 3.386873-10.559076l-2.988417-9.164481c-8.36757-.597683-15.739-6.574519-18.52819-14.543632-3.586101-11.15676 2.589962-23.110431 13.746721-26.696532 11.15676-3.586101 23.11043 2.589962 26.696532 13.746722 2.589962 8.168341 0 17.133594-6.375291 22.711974l2.988417 9.164481c3.785329.996139 6.972975 3.386873 8.965253 6.773747l9.562937 4.58224c2.390734-2.191506 8.566797-3.386873 11.555215-4.383012 11.156759-3.586102 23.11043 2.589962 26.895759 13.746721 3.386874 10.559076-2.78919 22.512747-13.945949 26.098848z" fill="#0690ba"/><path d="m227.709646 189.059444c-3.386874 1.195367-6.375291 3.386873-8.168342 6.176063l-19.125873-7.37143c-1.394595-3.785329-5.179924-6.176064-9.164481-5.976836l-5.379152-16.735139c6.773747-3.386873 10.16062-11.156759 7.769886-18.52819-2.589962-8.168341-11.355987-12.551354-19.325101-9.961392s-12.551354 11.355987-9.961392 19.325101c2.390734 7.371431 9.762164 11.754443 17.133595 10.359848l5.379151 16.934367c-3.386873 2.191506-4.980696 6.176063-3.785329 10.16062l-11.156759 17.133595c-3.187646-1.195367-6.773747-1.394595-10.16062-.398456-8.168342 2.589962-12.551355 11.355988-9.961393 19.325101 2.589962 8.168342 11.355988 12.551355 19.325102 9.961393 8.168341-2.589962 12.551354-11.355987 9.961392-19.325101-.996139-2.988418-2.78919-5.57838-5.179924-7.371431l9.762164-15.141316c2.390734 2.191506 5.777608 2.988418 8.965253 1.992279 3.187646-.99614 5.379152-3.586102 6.176064-6.773747l16.735139 6.574519c-.796912 2.78919-.796912 5.976835.199228 8.965253 2.589962 8.168341 11.355987 12.551354 19.325101 9.961392 8.168341-2.589962 12.551354-11.355987 9.961392-19.325101-2.589962-8.168342-11.156759-12.551354-19.325101-9.961392zm-56.779936-35.064101c-1.394595-4.582241.996139-9.562937 5.578379-10.957532 4.582241-1.593823 9.562937.996139 10.957532 5.57838 1.195367 3.785329-.398456 7.969114-3.586101 9.961392l-.99614-2.988417c1.593823-1.394595 2.390735-3.78533 1.593823-5.976836-.996139-2.988418-4.183785-4.58224-7.172202-3.586101-2.988418.996139-4.582241 4.183785-3.586101 7.172202.796911 2.191507 2.589962 3.586102 4.781468 3.984557l.996139 3.187646c-3.785329-.199228-7.37143-2.589962-8.566797-6.375291zm4.58224 68.135923c1.593823 4.980696-1.195367 10.16062-5.976835 11.754443-4.980696 1.593823-10.16062-1.195367-11.754443-5.976835-1.593823-4.781469 1.195367-10.16062 5.976835-11.754443 1.593823-.597684 3.386874-.597684 4.980696-.199228l-1.79305 2.78919c-.597684 0-1.394595 0-2.191507.199228-3.187645.996139-4.980696 4.58224-3.984556 7.969113.996139 3.187646 4.58224 4.980697 7.969113 3.984557 3.187646-.996139 4.980697-4.58224 3.984557-7.769886-.398455-.996139-.796911-1.79305-1.593822-2.390734l1.79305-2.589962c.996139.996139 1.992279 2.390734 2.589962 3.984557zm59.768354-9.562936c-4.980696 1.593822-10.16062-1.195368-11.754443-5.976836-.597683-1.593823-.597683-3.386873-.199228-4.980696l2.988418 1.195367c-.199228.996139-.199228 1.992279.199228 2.78919.996139 3.386873 4.58224 4.980696 7.969114 3.984557 3.386873-.996139 5.179924-4.582241 3.984557-7.969114-.99614-3.187646-4.582241-4.980696-7.969114-3.984557-.597684.199228-1.394595.597684-1.793051.996139l-3.187645-1.195367c.996139-1.195367 2.390734-2.191506 4.183784-2.78919 4.980696-1.593822 10.16062 1.195367 11.754443 5.976836 1.394595 5.179924-1.195367 10.359848-6.176063 11.953671z" fill="#c3e8f2"/><path d="m255.203089 66.7335461c0 11.754443-9.562937 21.3173796-21.31738 21.3173796-2.390734 0-4.781468-.3984557-10.559076-1.5938228l-4.980696 6.1760632c6.375291 5.179924 6.375291 12.1528989 3.386873 16.9343669l4.980697 6.176063c2.191506-.796911 4.58224-1.195367 6.972974-1.195367 11.754443 0 21.31738 9.562937 21.31738 21.31738s-9.562937 21.317379-21.31738 21.317379-21.317379-9.562936-21.317379-21.317379c0-3.187646.796911-6.375291 1.992278-9.164481l-8.766025-10.758304c-3.785329-.996139-6.972975-3.187645-9.164481-6.375291h-9.562937c-2.789189 7.769886-10.559075 12.94981-19.125873 12.94981-11.754443 0-21.317379-9.562937-21.317379-21.317379 0-11.7544434 9.562936-21.31738 21.317379-21.1181522 8.566798 0 16.336684 5.3791519 19.524329 13.1490379h9.562937c2.191506-3.1876456 5.379152-5.5783797 9.164481-6.3752911l8.766025-10.7583037c-1.394595-2.7891898-1.992279-5.9768354-1.992279-9.1644809 0-11.7544429 9.562937-21.3173796 21.31738-21.3173796s21.118152 9.5629367 21.118152 21.1181517z" fill="#0690ba"/><path d="m218.545165 66.7335461c0 3.5861013 1.195367 6.9729746 3.386873 9.5629366l-12.94981 15.7389999c-3.984557.1992278-7.570658 2.9884177-8.566797 6.7737468h-17.731278c-1.195367-7.3714303-7.570659-13.1490379-15.141317-13.1490379-8.566797 0-15.340544 6.7737468-15.340544 15.3405445 0 8.367569 6.773747 15.340544 15.340544 15.340544 7.769886 0 14.145177-5.777608 15.340544-13.149038h17.731279c.996139 3.785329 4.383012 6.574519 8.566797 6.773747l12.94981 15.739c-2.191506 2.589962-3.386873 5.976835-3.386873 9.562936 0 8.566798 6.972974 15.340544 15.340544 15.340544 8.566797 0 15.340544-6.972974 15.340544-15.340544 0-8.566797-6.773747-15.340544-15.340544-15.340544-3.187646 0-6.176063.996139-8.566797 2.589962l-11.355988-13.945949c2.78919-1.593823 4.582241-4.582241 4.582241-7.769886 0-3.3868736-1.793051-6.3752912-4.582241-7.969114l11.355988-13.9459493c2.390734 1.5938228 5.379151 2.589962 8.566797 2.589962 8.566797 0 15.340544-6.9729746 15.340544-15.3405441 0-8.5667974-6.972975-15.3405442-15.340544-15.3405442-8.566797.5976836-15.539772 7.5706582-15.539772 15.9382277zm-50.803101 43.2324429c-4.781468 0-8.766025-3.984557-8.766025-8.766025 0-4.7814688 3.984557-8.7660257 8.766025-8.7660257 3.984557 0 7.37143 2.7891898 8.36757 6.3752911h-3.187646c-.796911-1.9922785-2.78919-3.3868734-5.179924-3.3868734-3.187645 0-5.57838 2.589962-5.57838 5.57838 0 3.187645 2.589962 5.777607 5.57838 5.777607 2.390734 0 4.383013-1.394595 5.179924-3.386873h3.187646c-.99614 3.984557-4.383013 6.574519-8.36757 6.574519zm66.143645 16.735139c5.179924 0 9.363709 4.183785 9.363709 9.363709s-4.183785 9.363708-9.363709 9.363708-9.363709-4.183784-9.363709-9.363708c0-1.793051.597684-3.386874 1.394595-4.781469l2.191507 2.589962c-.199228.597684-.398456 1.394595-.398456 2.191507 0 3.386873 2.78919 6.176063 6.176063 6.176063s6.176063-2.78919 6.176063-6.176063c0-3.386874-2.78919-6.176064-6.176063-6.176064-.996139 0-1.992278.199228-2.78919.597684l-1.992278-2.390734c1.394595-.996139 3.187645-1.394595 4.781468-1.394595zm9.363709-59.9675819c0 5.179924-4.183785 9.3637088-9.363709 9.3637088-1.793051 0-3.386873-.3984557-4.781468-1.3945949l1.992278-2.3907342c.796912.3984557 1.793051.5976836 2.78919.7969114 3.386873 0 6.176063-2.7891898 6.176063-6.1760632s-2.78919-6.1760633-6.176063-6.1760633-6.176063 2.7891899-6.176063 6.1760633c0 .7969114.199228 1.3945949.398456 1.9922784l-2.191507 2.589962c-.796911-1.3945949-1.394595-2.9884177-1.394595-4.7814683 0-5.179924 4.183785-9.3637087 9.363709-9.3637087 5.179924.1992278 9.363709 4.1837847 9.363709 9.3637087z" fill="#c3e8f2"/><path d="m110.7629 1.98449612c11.15676 3.58610124 17.332823 15.73899988 13.547494 26.89575928-.796912 2.3907341-1.793051 4.3830126-3.386874 6.375291l4.383013 6.7737468c5.57838-1.3945949 12.152899.7969114 15.739 5.179924l7.570658-2.7891898c0-2.3907342.398456-4.7814683.996139-6.9729747 3.586101-11.1567593 15.739-17.3328226 26.895759-13.5474935 11.15676 3.5861012 17.332823 15.539772 13.547494 26.8957592-3.586101 11.1567594-15.739 17.3328227-26.895759 13.5474936-2.988418-.9961393-5.777608-2.589962-7.969114-4.7814683l-12.94981 4.9806961c-1.992279 3.1876456-5.179924 5.7776076-8.965253 6.7737468l-2.988418 9.1644809c6.375291 5.5783797 8.965253 14.5436328 6.375291 22.7119745-3.586101 11.156759-15.739 17.332823-26.895759 13.547494-10.9575316-4.183785-17.1335949-16.137456-13.5474936-27.2942154 2.589962-8.1683417 10.1606206-13.9459492 18.5281896-14.5436328l2.988418-9.1644809c-2.390734-2.9884177-3.586101-6.7737468-3.187646-10.7583037l-7.570658-11.7544429c-3.187645.3984557-6.375291.1992278-9.3637087-.7969114-11.1567594-3.5861012-17.3328226-15.539772-13.7467214-26.6965314 3.7853291-11.15675938 15.7389999-17.33282261 26.8957591-13.74672138z" fill="#0690ba"/><path d="m99.4069129 36.8493692c3.3868731 1.1953671 6.9729751.9961392 10.1606201-.1992278l10.957532 17.1335947c-1.195367 3.984557.597683 7.9691139 3.785329 10.1606202l-5.57838 16.7351391c-7.37143-1.1953671-14.742861 2.9884177-17.133595 10.359848-2.5899618 8.1683417 1.793051 16.7351386 9.762165 19.5243286 7.969114 2.589962 16.735139-1.79305 19.524329-9.762164 2.390734-7.3714305-.99614-15.1413165-7.769886-18.5281899l5.578379-16.735139c3.984557.1992278 7.769886-2.1915064 9.164481-5.9768354l19.125873-7.3714303c1.793051 2.7891898 4.582241 5.179924 8.168342 6.1760632 8.168342 2.589962 16.735139-1.7930506 19.524329-9.9613923 2.589962-8.1683417-1.793051-16.7351391-9.961392-19.5243289-8.168342-2.589962-16.735139 1.7930506-19.524329 9.7621644-.996139 2.9884177-.996139 6.1760633-.199228 8.9652531l-16.735139 6.5745189c-.597684-2.9884177-2.78919-5.7776075-5.976835-6.7737467-3.187646-.9961393-6.574519-.1992279-8.965254 1.7930506l-9.762164-15.1413163c2.390734-1.7930507 4.183785-4.3830127 5.179924-7.3714303 2.589962-8.1683417-1.793051-16.73513913-9.961392-19.32510113-8.168342-2.589962-16.7351394 1.79305062-19.3251014 9.96139233-2.589962 8.1683417 1.7930506 16.9343669 9.9613923 19.5243289zm25.3019361 61.9598602c-1.593822 4.5822406-6.375291 7.1722026-10.957531 5.5783796-4.582241-1.593823-7.172203-6.375291-5.57838-10.9575315 1.195367-3.7853291 4.980696-6.1760632 8.766025-5.9768354l-.996139 2.9884177c-2.191506.1992279-3.984557 1.7930506-4.781468 3.7853291-.996139 2.9884177.597683 6.1760631 3.586101 7.1722021 2.988418.99614 6.176063-.597683 7.172203-3.5861009.796911-2.1915063 0-4.5822404-1.593823-5.9768354l.996139-3.1876455c3.187646 2.1915063 4.781468 6.1760632 3.386873 10.1606202zm36.259468-57.9753033c1.593823-4.9806961 6.773747-7.5706581 11.754443-5.9768354 4.781469 1.5938228 7.570658 6.9729747 5.976836 11.754443-1.593823 4.7814683-6.773747 7.5706581-11.754443 5.9768354-1.593823-.5976836-2.988418-1.5938228-3.984557-2.7891899l3.187645-1.1953671c.597684.3984557 1.195367.7969114 1.992279.9961393 3.187645.9961392 6.773747-.7969114 7.769886-3.984557.996139-3.1876455-.796912-6.7737467-3.984557-7.769886-3.187646-.9961392-6.773747.7969114-7.969114 3.984557-.199228.9961392-.398456 1.9922784-.199228 2.7891898l-2.988417 1.1953671c-.199228-1.5938228-.199228-3.3868734.199227-4.9806962zm-53.990746-27.4934427c4.980696 1.5938227 7.570658 6.7737467 5.976835 11.7544429-.597683 1.5938228-1.394594 2.9884177-2.789189 4.1837848l-1.593823-2.589962c.597683-.5976836 1.195367-1.394595 1.593823-2.3907342.996139-3.3868734-.796912-6.7737468-3.984557-7.9691139-3.187646-.9961392-6.7737471.7969114-7.9691142 3.984557-.9961392 3.1876455.7969114 6.7737467 3.9845572 7.769886.597683.1992278 1.394595.3984557 1.992278.1992278l1.793051 2.7891899c-1.593823.3984557-3.187646.3984557-4.980696-.1992279-4.9806965-1.5938227-7.5706585-6.7737468-5.9768357-11.7544429 1.7930506-4.5822405 7.1722027-7.3714303 11.9536707-5.7776075z" fill="#c3e8f2"/><path d="m34.6578629 114.149774c1.9922785 1.394594 3.5861012 3.187645 4.9806962 5.179924l7.769886-1.992279c.3984556-5.57838 4.5822404-11.355987 9.7621644-13.348266l-.3984557-7.9691135c-2.1915063-.5976835-4.3830126-1.7930506-6.3752911-3.1876455-9.3637087-7.1722025-11.555215-20.5204682-4.5822404-30.0834048s20.1220124-11.5552151 29.6849491-4.5822405c9.3637087 6.9729747 11.555215 20.1220125 4.5822404 29.6849491-1.7930506 2.589962-4.1837847 4.5822405-6.9729746 6.1760633l.7969114 13.9459489c2.3907341 2.988418 3.7853291 6.773747 3.5861012 10.559076l7.769886 5.57838c7.1722025-4.383013 16.5359112-3.984557 23.5088862.996139 9.562936 6.972975 11.555215 20.32124 4.58224 29.684949-6.773747 9.562937-20.1220123 11.555215-29.6849489 4.781468-6.9729747-4.980696-10.1606202-13.945949-8.1683417-22.11429l-7.769886-5.57838c-3.5861013 1.394595-7.5706582 1.394595-11.1567594-.199228l-13.5474936 3.586101c-.5976835 3.187646-1.7930506 6.176063-3.785329 8.566798-6.7737468 9.363708-19.9227847 11.555215-29.48572128 4.58224-9.56293661-6.773747-11.55521507-20.122012-4.7814683-29.684949 6.97297458-9.562937 20.12201248-11.555215 29.68494908-4.58224z" fill="#0690ba"/><path d="m34.6578629 140.447849c2.1915063-2.988417 3.1876455-6.375291 2.9884177-9.762164l19.7235568-5.179924c3.3868733 2.191506 7.769886 1.992278 10.9575315-.597684l14.3444049 10.359848c-3.3868734 6.574519-1.5938227 14.942089 4.5822405 19.524329 6.9729746 4.980696 16.5359117 3.586101 21.5166077-3.386873 4.980696-6.773747 3.586101-16.535911-3.386874-21.516608-6.1760629-4.58224-14.7428603-3.785329-20.1220122 1.593823l-14.3444049-10.359848c1.3945949-3.586101.3984557-7.969114-2.7891898-10.559076l-1.1953671-20.32124c3.3868734-.7969114 6.3752911-2.7891899 8.3675695-5.7776076 4.9806962-6.9729746 3.3868734-16.5359112-3.3868734-21.5166073-6.7737467-4.9806962-16.5359112-3.5861013-21.5166074 3.3868733-4.9806961 6.7737468-3.5861012 16.5359113 3.3868734 21.5166074 2.589962 1.7930506 5.5783797 2.7891899 8.5667974 2.9884177l.9961392 17.9305065c-3.1876455-.398456-6.375291.996139-8.3675695 3.785329s-2.1915063 6.176063-.9961392 8.965253l-17.3328226 4.58224c-.9961393-2.78919-2.7891899-5.379152-5.3791519-7.172202-6.9729746-4.980696-16.5359112-3.386874-21.51660738 3.386873-4.98069615 6.773747-3.58610123 16.535911 3.38687338 21.516608 6.9729746 4.980696 16.5359112 3.386873 21.5166074-3.386874zm66.7413281-5.179924c3.984557 2.78919 4.781469 8.36757 1.992279 12.152899-2.78919 3.984557-8.3675697 4.781468-12.1528988 1.992278-3.1876455-2.390734-4.3830126-6.574519-2.9884177-10.16062l2.589962 1.992279c-.3984557 2.191506.3984557 4.383012 2.1915063 5.777607 2.589962 1.793051 6.1760633 1.195367 7.9691142-1.195367 1.79305-2.589962 1.394595-6.176063-1.1953674-7.969114-1.7930506-1.394595-4.3830126-1.394595-6.1760632-.398455l-2.9884177-1.992279c3.1876455-2.390734 7.3714303-2.589962 10.7583033-.199228zm-44.0293536-52.3969233c-4.1837848-2.9884177-4.9806962-8.9652531-1.9922785-12.94981 2.9884177-4.1837848 8.9652531-4.9806962 12.94981-1.9922785 4.1837848 2.9884177 5.179924 8.9652531 1.9922785 12.94981-.9961393 1.3945949-2.3907342 2.3907342-3.7853291 2.9884177l-.1992279-3.3868734c.5976836-.3984557 1.1953671-.7969114 1.5938228-1.3945949 1.9922785-2.7891899 1.3945949-6.7737468-1.3945949-8.7660252-2.7891899-1.9922785-6.7737468-1.394595-8.7660252 1.3945949-1.9922785 2.7891898-1.394595 6.7737468 1.3945949 8.7660252.7969114.5976836 1.7930506.9961392 2.589962.9961392l.1992278 3.1876456c-1.3945949-.1992279-2.9884177-.7969114-4.5822404-1.7930506zm-42.6347591 43.0332143c2.9884177-4.183784 8.9652531-5.179924 12.94981-1.992278 1.3945949.996139 2.3907341 2.390734 3.1876455 3.785329l-3.1876455.796911c-.3984557-.796911-.9961392-1.593822-1.7930506-2.191506-2.7891899-1.992278-6.7737468-1.394595-8.7660253 1.394595-1.9922784 2.78919-1.3945949 6.773747 1.394595 8.766025 2.7891898 1.992279 6.7737467 1.394595 8.7660252-1.394595.3984557-.597683.7969114-1.195367.9961392-1.992278l3.3868734-.796911c-.1992278 1.593822-.5976835 3.187645-1.7930506 4.58224-2.9884177 4.183785-8.7660252 4.980696-12.94981 1.992278-4.3830126-2.988417-5.179924-8.965253-2.1915063-12.94981z" fill="#c3e8f2"/></svg>