<svg height="256" preserveAspectRatio="xMidYMid" viewBox="0 0 256 256" width="256" xmlns="http://www.w3.org/2000/svg" xmlns:xlink="http://www.w3.org/1999/xlink"><linearGradient id="a" x1="0%" x2="99.798658%" y1="50%" y2="50%"><stop offset=".26" stop-color="#f97a12"/><stop offset=".46" stop-color="#b07b58"/><stop offset=".72" stop-color="#577bae"/><stop offset=".91" stop-color="#1e7ce5"/><stop offset="1" stop-color="#087cfa"/></linearGradient><linearGradient id="b" x1=".344828%" x2="121.182266%" y1="34.539683%" y2="77.619048%"><stop offset="0" stop-color="#f97a12"/><stop offset=".07" stop-color="#cb7a3e"/><stop offset=".15" stop-color="#9e7b6a"/><stop offset=".24" stop-color="#757b91"/><stop offset=".33" stop-color="#537bb1"/><stop offset=".43" stop-color="#387ccc"/><stop offset=".54" stop-color="#237ce0"/><stop offset=".66" stop-color="#147cef"/><stop offset=".79" stop-color="#0b7cf7"/><stop offset="1" stop-color="#087cfa"/></linearGradient><linearGradient id="c" x1="78.169014%" x2="30.105634%" y1="97.749361%" y2="-6.624041%"><stop offset="0" stop-color="#fe315d"/><stop offset=".08" stop-color="#cb417e"/><stop offset=".16" stop-color="#9e4e9b"/><stop offset=".25" stop-color="#755bb4"/><stop offset=".34" stop-color="#5365ca"/><stop offset=".44" stop-color="#386ddb"/><stop offset=".54" stop-color="#2374e9"/><stop offset=".66" stop-color="#1478f3"/><stop offset=".79" stop-color="#0b7bf8"/><stop offset="1" stop-color="#087cfa"/></linearGradient><linearGradient id="d" x1="20%" x2="103.421589%" y1="24.086539%" y2="132.676282%"><stop offset="0" stop-color="#fe315d"/><stop offset=".04" stop-color="#f63462"/><stop offset=".1" stop-color="#df3a71"/><stop offset=".17" stop-color="#c24383"/><stop offset=".29" stop-color="#ad4a91"/><stop offset=".55" stop-color="#755bb4"/><stop offset=".92" stop-color="#1d76ed"/><stop offset="1" stop-color="#087cfa"/></linearGradient><path d="m64.8 199.6-62-48.8 30.8-57.2 88.4 34.4z" fill="url(#a)"/><path d="m256 68.4-4.8 148-98.4 39.6-59.2-38.4 86.4-89.6-37.6-83.2 34-40.8z" fill="url(#b)"/><path d="m256 68.4-78 92-35.6-115.6 34-40.8z" fill="url(#c)"/><path d="m123.2 212.4-102.4 37.2 16.4-57.6 21.2-71.2-58.4-19.6 37.2-101.2 80 9.6 79.2 90.4z" fill="url(#d)"/><path d="m48 48h160v160h-160z"/><path d="m63.2 178h60v10h-60zm42.8-97.2v-12h-32.8v12h9.2v42h-9.2v12.4h32.8v-12.4h-9.2v-42zm32 55.2c-4.566649.205984-9.110237-.757807-13.2-2.8-3.346034-1.845975-6.327998-4.285763-8.8-7.2l9.2-10.4c1.661272 1.82513 3.542265 3.43741 5.6 4.8 1.93613 1.135124 4.157474 1.69046 6.4 1.6 2.466127.188479 4.864692-.860893 6.4-2.8 1.852667-2.386058 2.712461-5.395334 2.4-8.4v-42.8h14.8v43.2c.151789 3.537935-.391805 7.071293-1.6 10.4-1.055421 3.377032-2.987809 6.413641-5.6 8.8-4.533251 3.365567-9.961237 5.314074-15.6 5.6z" fill="#fff"/></svg>