<svg height="256" preserveAspectRatio="xMidYMid" viewBox="0 0 256 256" width="256" xmlns="http://www.w3.org/2000/svg"><path d="m232.793212 0h-209.5864241c-12.8164849 0-23.2067879 10.390303-23.2067879 23.2067879v209.5864241c0 12.816485 10.390303 23.206788 23.2067879 23.206788h209.5864241c12.816485 0 23.206788-10.390303 23.206788-23.206788v-209.5864241c0-12.8164849-10.390303-23.2067879-23.206788-23.2067879" fill="#dc395f"/><g fill="#fff"><path d="m85.5553939 80.5449697c8.5100606 0 15.6383031-6.6705455 15.6383031-15.4123636 0-8.736-7.1282425-15.4046061-15.6383031-15.4046061s-15.6373333 6.6686061-15.6373333 15.4046061c0 8.7418181 7.1272727 15.4123636 15.6373333 15.4123636"/><path d="m53.1287273 163.065212c-.9183031 3.909818-1.3798788 8.131879-1.3798788 11.576243 0 13.570909 7.3590303 22.580363 22.998303 22.580363 12.9706667 0 23.4850909-7.703273 31.0555155-20.139636l-4.622546 18.553212h25.755152l14.72-59.03903c3.67903-14.948849 10.808242-22.707394 21.618424-22.707394 8.509091 0 13.798788 5.291636 13.798788 14.027636 0 2.531879-.230788 5.288727-1.150061 8.279273l-7.590788 27.136969c-1.15006 3.909819-1.607757 7.822546-1.607757 11.498667 0 12.883394 7.586909 22.306909 23.456 22.306909 13.568969 0 24.377212-8.73503 30.357333-29.664l-10.117818-3.906909c-5.060849 14.021818-9.430303 16.556606-12.879515 16.556606-3.450182 0-5.290667-2.298182-5.290667-6.895515 0-2.069333.461576-4.366545 1.150061-7.132121l7.360969-26.438788c1.838546-6.208 2.52994-11.71297 2.52994-16.770909 0-19.77794-11.960243-30.0993941-26.448485-30.0993941-13.568 0-27.367758 12.2385451-34.265212 25.1190301l5.057939-23.1195149h-39.325091l-5.520485 20.3636359h18.399031l-11.32897 45.360485c-8.897939 19.77794-25.241212 20.098909-27.2921211 19.639273-3.3677576-.759273-5.5214546-2.038303-5.5214546-6.414545 0-2.525091.4596364-6.151758 1.609697-10.525091l17.2499394-68.4237579h-43.6945455l-5.5204848 20.3636359h18.1672727z"/></g></svg>