<svg height="179" preserveAspectRatio="xMidYMid" viewBox="0 0 512 179" width="512" xmlns="http://www.w3.org/2000/svg"><g fill="#4e8ef7"><path d="m227.68138 66.299984h3.692424v69.868925h-3.692424z"/><path d="m283.837742 64.5852862c-20.96088 0-36.775656 15.8208-36.775656 36.6491608 0 20.960878 15.814776 36.648157 36.775656 36.648157 20.962886 0 36.782682-15.687279 36.782682-36.648157-.002008-20.8283608-15.8208-36.6491608-36.782682-36.6491608zm0 69.8699298c-18.849632 0-33.086244-14.237616-33.086244-33.220769 0-18.9841568 14.235608-33.2197646 33.086244-33.2197646 18.851638 0 33.09327 14.2356078 33.09327 33.2197646-.002008 18.983153-14.240628 33.220769-33.09327 33.220769z"/><path d="m390.354824 71.5725804c-7.909898-6.4602354-17.39997-6.9872942-22.278024-6.9872942-11.07225 0-23.335152 5.1430902-27.68113 15.1612236h-.268046v-13.4465254h-3.69142v69.8689256h3.69142v-40.208063c0-17.5324862 10.813238-27.9461646 28.344722-27.9461646 10.546196 0 16.21032 3.4273882 19.77123 6.5897412 5.2736 4.7465412 8.569474 12.5239214 8.569474 24.6492862v36.9152002h3.693428v-36.9152002c0-12.5209098-3.295874-21.8814746-10.151654-27.6811294z"/><path d="m420.939294 66.299984h3.69142v69.868925h-3.69142z"/><path d="m477.096658 134.455216c-17.798524 0-33.090258-13.448534-33.090258-33.220769 0-9.4910744 3.953444-18.7191216 9.624596-23.8632156 7.249318-6.4582274 13.707546-9.356549 23.597176-9.356549 13.707546 0 25.836926 7.6438588 30.582464 20.9578666h4.087968c-5.537632-16.4773646-20.565334-24.3872628-34.801946-24.3872628-21.226916 0-36.783686 16.0828236-36.783686 36.7816788 0 21.751968 16.47837 36.515639 36.783686 36.515639 16.610888 0 29.792378-9.491075 34.668424-23.72869h-4.083952c-3.427388 10.414682-14.76568 20.301302-30.584472 20.301302z"/><circle cx="229.528596" cy="44.642384" r="3.984565"/><circle cx="422.783498" cy="44.642384" r="3.984565"/><circle cx="89.373114" cy="89.270714" r="36.448376"/><path d="m163.754667 27.4241254c0-6.923043-5.61393-12.5329568-12.534965-12.5329568-3.141271 0-6.002447 1.1625412-8.203043 3.072-14.945381-11.27203134-33.526965-17.9631686-53.6445492-17.9631686-49.2242824 0-89.27071372 40.0474352-89.27071372 89.2717176 0 49.2232784 40.04743532 89.2717174 89.27171772 89.2717174 49.2242822 0 89.2707132-40.048439 89.2707132-89.2717174 0-20.1175842-6.691137-38.6991686-17.962164-53.6455528 1.909459-2.1985884 3.073004-5.0617726 3.073004-8.2020394zm-74.3825572 148.1155766c-47.5678118 0-86.26898824-38.701177-86.26898824-86.2689882 0-47.5678118 38.70117644-86.2689883 86.26898824-86.2689883 19.3415532 0 37.2143682 6.39899606 51.6186352 17.1901491-1.447655 2.0439842-2.306008 4.5357176-2.306008 7.231247 0 6.9220392 5.611922 12.531953 12.532957 12.531953 2.696533 0 5.185255-.858353 7.230243-2.306008 10.791153 14.4042668 17.190149 32.2770824 17.190149 51.6206432.002008 47.5688152-38.697161 86.2699922-86.2659762 86.2699922z"/></g></svg>