<svg height="255" preserveAspectRatio="xMidYMid" viewBox="0 0 256 255" width="256" xmlns="http://www.w3.org/2000/svg"><g fill="#8a4182" transform="matrix(1 0 0 -1 0 255)"><path d="m118.267273 149.665989h19.794545l4.918182 6.732655v52.727684h-29.627273v-52.733108z"/><path d="m105.508545 126.148701 6.115091 18.717288-4.918363 6.730847-50.4340003 16.292882-9.154-28.015368 50.4394546-16.296497z"/><path d="m124.06 106.813107-16.012364 11.570622-7.958909-2.572656-31.1683634-42.6594346 23.9674546-17.3139887 31.1721818 42.6608814z"/><path d="m148.285455 118.385537-16.016364-11.568814.003636-8.3199998 31.169091-42.6590735 23.969091 17.3139887-31.174545 42.6630506z"/><path d="m144.701818 144.869605 6.118182-18.719097 7.958182-2.569039 50.434545 16.292881-9.156363 28.017175-50.436364-16.296497z"/><path d="m128.170909 254.893559c-70.4614545 0-127.78745445-56.992542-127.78745445-127.045423 0-70.0783733 57.32599995-127.08682527 127.78745445-127.08682527 70.454546 0 127.774546 57.00845197 127.774546 127.08682527 0 70.052881-57.32 127.045423-127.774546 127.045423zm0-25.724745c56.269091 0 101.9-45.356837 101.9-101.320678 0-55.9819213-45.630909-101.3586445-101.9-101.3586445-56.2881817 0-101.9130908 45.3767232-101.9130908 101.3586445 0 55.963841 45.6249091 101.320678 101.9130908 101.320678z"/><path d="m205.565455 99.6085876-38.338182 12.3877964 2.534545 7.764972 38.338182-12.387797z"/><path d="m156.669091 160.809944-6.643636 4.798192 23.692727 32.428474 6.643636-4.798192z"/><path d="m100.071818 161.104633-23.6896362 32.430282 6.6441818 4.798192 23.6896364-32.428474z"/><path d="m50.608 100.093107-2.5361818 7.764972 38.3343636 12.382373 2.5363637-7.764972z"/><path d="m123.807273 46.8411299h8.210945v40.084791h-8.210945z"/></g></svg>