<svg height="346" preserveAspectRatio="xMidYMid" viewBox="0 0 256 346" width="256" xmlns="http://www.w3.org/2000/svg"><path d="m82.5539491 267.472524s-13.1984291 7.675345 9.3928727 10.272581c27.3687272 3.12227 41.3565672 2.674502 71.5170912-3.033832 0 0 7.929483 4.971985 19.003578 9.278371-67.611927 28.977338-153.0191128-1.678429-99.9135419-16.51712" fill="#5382a1"/><path d="m74.2921309 229.658996s-14.8033164 10.957731 7.8047418 13.296175c29.2361313 3.016145 52.3245383 3.262836 92.2763633-4.430196 0 0 5.525877 5.60221 14.214982 8.665832-81.746851 23.903884-172.798138 1.885091-114.2960871-17.531811" fill="#5382a1"/><path d="m143.941818 165.514705c16.659549 19.180451-4.377134 36.440437-4.377134 36.440437s42.30144-21.837266 22.874298-49.18272c-18.144349-25.501324-32.058647-38.171927 43.267723-81.8585602 0 0-118.2375559 29.5302982-61.764887 94.6008432" fill="#e76f00"/><g fill="#5382a1"><path d="m233.364015 295.441687s9.767098 8.047709-10.756655 14.273629c-39.026502 11.822546-162.4324655 15.392582-196.7141236.47104-12.3233746-5.361105 10.7864436-12.800931 18.0559127-14.362065 7.5813236-1.643986 11.9137745-1.337716 11.9137745-1.337716-13.7048436-9.654459-88.5825163 18.957032-38.0341527 27.150894 137.8527421 22.355782 251.2923931-10.066851 215.5352441-26.195782"/><path d="m88.9008873 190.479825s-62.7721309 14.90944-22.2291782 20.323608c17.1184873 2.291898 51.2437529 1.773382 83.0305749-.889949 25.977949-2.19136 52.062952-6.85056 52.062952-6.85056s-9.160145 3.922851-15.787287 8.448c-63.744 16.764741-186.88558536 8.965585-151.4347054-8.182691 29.9808582-14.492393 54.3576437-12.848408 54.3576437-12.848408"/><path d="m201.506444 253.422313c64.79872-33.671913 34.838341-66.030313 13.9264-61.670866-5.125586 1.066822-7.410968 1.991215-7.410968 1.991215s1.902779-2.980771 5.537048-4.271011c41.370531-14.544524 73.187141 42.897222-13.354822 65.647709 0 .000931 1.002589-.895535 1.302342-1.697047"/></g><path d="m162.438982.37143273s35.886545 35.89864727-34.036829 91.10062547c-56.0714475 44.2814838-12.786037 69.5295998-.023273 98.3766108-32.7298327-29.530298-56.7491491-55.525934-40.6351127-79.720262 23.6516077-35.5151125 89.1745747-52.7341379 74.6952147-109.75697427" fill="#e76f00"/><path d="m95.2683055 344.665367c62.1986905 3.981498 157.7118255-2.209047 159.9739345-31.639738 0 0-4.348276 11.156946-51.403869 20.017338-53.087884 9.990517-118.5643055 8.824088-157.3990401 2.421295.0009309-.000931 7.9499636 6.579665 48.8289746 9.201105" fill="#5382a1"/></svg>