<svg height="256" preserveAspectRatio="xMidYMid" viewBox="0 0 256 256" width="256" xmlns="http://www.w3.org/2000/svg"><path d="m0 0h256v256h-256z" fill="#f7df1e"/><path d="m67.311746 213.932292 19.590908-11.856051c3.7794539 6.701105 7.2175746 12.370896 15.464432 12.370896 7.905117 0 12.88899-3.092318 12.88899-15.120254v-81.798096h24.057499v82.13821c0 24.917333-14.605816 36.258946-35.915175 36.258946-19.2451048 0-30.4164571-9.96734-36.0870603-21.995683"/><path d="m152.380952 211.354413 19.58847-11.341613c5.156572 8.421181 11.858489 14.607035 23.714946 14.607035 9.968153 0 16.324673-4.983873 16.324673-11.857676 0-8.248483-6.529625-11.170134-17.527873-15.980089l-6.012749-2.579505c-17.357206-7.387835-28.871111-16.667225-28.871111-36.257727 0-18.04353 13.7472-31.791543 35.228444-31.791543 15.294172 0 26.292013 5.327645 34.195911 19.247137l-18.731073 12.028343c-4.124444-7.388648-8.591034-10.309486-15.464431-10.309486-7.045689 0-11.513905 4.467809-11.513905 10.309486 0 7.217574 4.468216 10.139631 14.777702 14.607847l6.013968 2.577473c20.449524 8.764546 31.963428 17.699353 31.963428 37.804292 0 21.653537-17.012215 33.509588-39.86692 33.509588-22.339454 0-36.774603-10.653664-43.819073-24.573562"/></svg>