<svg height="209" preserveAspectRatio="xMidYMid" viewBox="0 0 512 209" width="512" xmlns="http://www.w3.org/2000/svg" xmlns:xlink="http://www.w3.org/1999/xlink"><linearGradient id="a" x1="23.962082%" x2="68.784266%" y1="46.043155%" y2="55.601987%"><stop offset="0" stop-color="#919191"/><stop offset="1" stop-color="#fff"/></linearGradient><linearGradient id="b" x1="26.427397%" x2="67.13219%" y1="42.381482%" y2="51.906413%"><stop offset="0" stop-color="#900"/><stop offset="1" stop-color="#e80000"/></linearGradient><linearGradient id="c" x1="49.999998%" x2="49.999998%" y1="99.821596%" y2="-.043524%"><stop offset="0" stop-color="#1a1a1a"/><stop offset=".4026" stop-color="#4a4a4c"/><stop offset="1" stop-color="#333"/></linearGradient><g transform="translate(394.230019)"><path d="m65.0729045 4.29161793c-.0998051.39922028-.0998051.79844055 0 1.19766082 0 0 1.2974659 8.48343085-.1996102 12.27602335l-61.47992198 159.9875249c-4.391423 11.776998 1.49707602 24.851461 13.27407408 29.34269 11.776998 4.491228 24.851462-1.297466 29.5423002-12.974659l61.4799224-159.9875247c1.19766-3.0939571 8.08421-9.1820662 8.08421-9.1820662.299415-.2994152.598831-.5988305.798441-.8982457v-.099805c0-.0998051.099805-.0998051.099805-.1996102 1.596881-4.0920078-8.683041-11.8768031-22.8553609-17.36608183-14.1723197-5.48927876-27.0471735-6.58713451-28.6440545-2.39532164 0 0-.0998051.09980507-.0998051.2994152z" opacity=".1"/><path d="m63.2764133 2.89434698c-.0998051.39922027-.0998051.79844054 0 1.19766082 0 0 1.2974658 8.4834308-.1996102 12.2760234l-61.47992201 159.9875248c-4.391423 11.776998 1.49707603 24.851462 13.27407411 29.34269 11.776998 4.491228 24.851462-1.297466 29.5423002-12.974659l61.4799216-159.9875246c1.197661-3.0939571 8.084211-9.1820663 8.084211-9.1820663.299415-.2994152.59883-.5988304.79844-.8982456v-.0998051c0-.099805.099806-.099805.099806-.1996101 1.596881-4.0920078-8.683041-11.8768031-22.8553611-17.36608189-14.1723197-5.48927875-27.0471735-6.5871345-28.6440546-2.39532164 0 .09980507 0 .19961014-.099805.29941521z" fill="url(#a)"/><path d="m82.6385965 75.2530214-44.4132554 115.3746586c-3.2935672 8.283821-12.7750487 12.575439-21.2584795 9.281872-8.4834308-3.293568-12.97465887-12.974659-9.88070176-21.25848l28.34463936-73.755945s3.4931774-5.6888892 10.4795322-9.780897 12.6752436-3.1937622 20.3602339-6.5871345c7.7847953-3.3933723 16.3680312-13.2740741 16.3680312-13.2740741z" fill="url(#b)"/><path d="m104.176205 19.018572c.884655-2.3084678-5.4829176-6.9152418-14.2223712-10.28951781-8.7394536-3.37427599-16.541335-4.23828423-17.4259899-1.92981643-.8846549 2.30846781 5.4829176 6.91524184 14.2223713 10.28951784 8.7394536 3.374276 16.5413348 4.2382843 17.4259898 1.9298164z" fill="#333"/><g fill="#fff"><path d="m62.8627119 4.08047619s1.288983 8.45952381-.1983051 12.24142861l-61.07796612 159.5366662c-4.36271187 11.74381 1.48728813 24.781429 13.18728812 29.26 1.9830509.796191 4.0652543 1.29381 6.1474576 1.393334-7.8330508-5.971429-11.20423725-16.520953-7.6347457-26.274286l59.8881356-156.3519047s-8.229661-7.6633333-10.3118644-19.80523811z" opacity=".3"/><g opacity=".5"><ellipse cx="43.230509" cy="106.988095" rx="1.784746" ry="1.791429"/><ellipse cx="54.831356" cy="119.826667" rx="2.677119" ry="2.687143"/><ellipse cx="37.083051" cy="135.153333" rx="5.05678" ry="5.075714"/><ellipse cx="28.952542" cy="144.508571" rx="2.677119" ry="2.687143"/><ellipse cx="39.561864" cy="164.413333" rx="1.784746" ry="1.791429"/></g></g></g><path d="m120.464717 97.1352381c2.694737 2.1895238 7.585186.8957143 10.878753-2.6871429 3.493177-3.7819047 3.992203-8.6585714 1.297466-10.8480952s-7.585186-.8957143-10.878753 2.8861905c-3.493177 3.7819047-4.092008 8.5590476-1.297466 10.6490476zm-8.08421 7.0661909c-.698636 0-1.996102 1.293809-.898246 1.791428 1.497076.497619 2.195712 1.791429 2.195712 3.582857-1.297466 7.464286-10.579338 15.92381-14.17232 18.81-.8982456.895715.3992203 2.886191 1.297466 2.189524 1.996101-1.592381 6.187914-4.876667 9.581286-9.255714-5.589083 12.440476-16.5676409 28.563333-20.7594537 34.23619-16.3680312 22.591905-41.2194932 43.392381-58.2861599 43.392381-13.6732943 0-25.25068224-9.255714-27.74580894-22.790952-.19961014-1.492857-2.1957115-1.791429-1.79649123.199047 3.09395711 18.610953 17.46588697 25.876191 34.83196877 25.876191 19.0627681 0 41.4191034-13.734286 53.7949318-27.866667 19.9610132-22.790952 32.8358672-49.065238 29.4424952-63.894285-1.397271-5.47381-5.289669-6.369524-7.48538-6.27zm122.660429 49.662381c5.289668-1.29381 9.581286-4.18 9.581286-8.758096 0-.497619-.898245-.497619-.898245 0 0 2.687143-3.093958 4.976191-6.587135 5.47381-8.184015 1.293809-24.352437-8.260476-31.937622-18.113334 8.184016 3.085239 24.851462-1.393333 32.736063-7.06619 7.28577-5.274762 10.180117-11.047143 10.679142-15.724762.898246-7.762857-7.585185-12.3409523-19.461988-7.762857-7.585186 3.085238-16.667447 9.753333-26.148928 22.293333 9.980507-16.421428 29.642105-43.2928569 48.904483-60.4109521 23.454191-20.8004762 37.027681-16.8195238 15.968811 5.2747619-8.683041 9.0566667-25.051072 20.8004762-36.329045 25.8761905-3.493177 1.4928571-1.796491 3.4833333.698636 2.3885714 11.976608-5.2747619 27.945419-16.1228571 37.62651-25.1795238 28.54425-27.3690476 4.690839-47.9704762-26.847563-19.0090476-21.45809 19.7057143-35.430799 40.3071428-47.607017 67.0790477-4.191813 5.075714-7.28577 9.255714-11.078363 12.440476-.499025.398095-.798441.796191-1.097856 1.194286-10.479532 8.957143-26.947368 21.099047-37.22729 21.198571-7.28577.199048-10.379727-5.274762-9.082261-12.340952 1.996101-11.047143 13.473684-24.084762 23.254581-28.563333 12.675243-5.772381 20.160623 5.473809 3.493177 14.430952-6.387524 3.284286-13.97271 5.075714-17.066667 5.075714-3.592982 0-3.293567 1.492857-.19961 1.592381 5.090059.199048 13.274074-1.990476 18.663548-4.478571 17.066667-8.160953 18.164522-23.388096-.39922-23.885715-20.160624-.696666-44.313451 16.421429-44.113841 38.018096.199611 9.753333 7.984406 15.028095 18.663548 15.028095 17.865107-.199048 33.734113-13.734286 46.808577-25.677143 1.896296-1.592381 3.692788-3.284286 5.489279-5.075714-4.591033 11.544762-6.88655 22.293333-5.788694 30.255238.698635 5.772381 3.992203 8.459524 6.587134 10.649047.499026.398096 1.596882 0 .898246-1.094761-3.792593-4.478572-2.694737-17.914286 2.495127-30.951905 4.391423 8.758095 21.458089 19.805238 39.323197 15.824286zm-21.45809-37.719524c20.859259-18.6109527 29.043275-1.990476 15.769201 8.160952-6.88655 5.274762-20.559844 9.255714-24.851462 6.668095l-.898246-.497619c-.499025-.895714-1.097856-1.791428-1.497076-2.687143 3.493178-4.279523 7.48538-8.061428 11.477583-11.644285zm115.973489-21.1985717c8.383626.8957143 4.890449-9.2557143-3.592982-6.6680953-3.792593 1.094762-7.48538 8.36-10.180117 14.63-8.383626 12.440476-22.356335 29.459048-32.137232 38.416191-8.683041 7.464285-16.667446 9.454761-6.88655-4.478572 3.992203-5.573333 9.082261-11.544762 11.976608-17.51619 6.88655-15.028096-7.784795-21.6961909-19.661598-12.639524-6.88655 5.274762-16.168421 16.122857-23.454191 22.094286-1.996101 1.59238-1.497076 3.980952.499025 2.388571 5.788694-4.677619 15.968811-15.426191 24.751657-21.696191 7.28577-5.573333 10.180117-1.990476 5.988304 2.687143-5.788694 6.668096-15.968811 18.312381-18.563742 25.677143-3.592983 11.047143.698635 15.92381 7.984405 15.92381 9.980507 0 24.851462-15.525715 34.831969-27.866667 3.293567-4.18 6.88655-9.056667 9.980507-13.734286-8.683041 16.819524-17.765302 33.838096-29.043275 49.264286-15.968811 21.696191-35.929825 38.018095-54.892788 38.018095-13.673294 0-25.450292-9.255714-27.945419-22.790952-.19961-1.492857-1.996101-1.791429-1.796491.199048 3.093957 18.610952 17.465887 25.87619 34.831969 25.87619 19.062768 0 37.4269-11.047143 50.301754-24.582381 25.949318-27.369048 29.043275-58.121905 37.02768-75.339524 3.792593-7.8623807 7.185965-8.1609521 9.980507-7.8623807zm105.593762-26.2742857c3.792593-6.4690476 3.592983-11.5447619-5.289668-11.5447619-6.68694.1990476-18.863158 4.8766666-24.552047 9.2557143-1.297466 1.2938095-.698635 1.9904761.898246 1.2938095 1.097855-.3980953 2.395321-1.0947619 3.592982-1.592381 6.387525-3.4833333 3.792593 3.7819048 2.395322 6.4690476-7.585185 13.2366667-21.05887 31.8476189-28.145029 41.1033329-3.393373 4.578096-7.185965 9.056667-10.878753 12.938096-6.786745 6.469047-20.260429 17.914285-30.540351 21.69619-33.035477 12.340953 9.082261-43.790476 12.575439-48.3685712 7.784795-9.7533334 25.250682-26.7719048 30.540351-35.3309524 3.792592-6.4690476 3.592982-11.5447619-5.289669-11.5447619-6.686939.1990476-18.863158 4.8766666-24.552047 9.2557143-1.297466 1.2938095-.698635 1.9904762.898246 1.2938095 1.097856-.3980953 2.395322-1.0947619 3.592982-1.592381 6.387525-3.4833333 3.792593 3.7819048 2.395322 6.4690477-7.585185 13.2366666-21.058869 31.847619-28.145029 41.103333-5.788694 7.762857-12.874854 15.525715-18.364133 19.904762-2.195711 1.791429-.898245 3.483334 1.297466 1.990476 1.996101-1.293809 4.890448-4.18 8.184016-7.563809-5.988304 11.942857-10.878753 28.762381 4.890448 30.752857 13.473684 1.791429 29.442495-11.843333 39.822222-21.994762 1.097856-1.094762 2.395322-2.388571 3.692788-3.682381.299415-.298571.59883-.597143.898245-.895714-5.988304 11.942857-10.878752 28.762381 4.890449 30.752857 17.266277 2.388571 38.724366-20.800476 47.008187-29.359524 1.596881-1.592381 1.097856-4.379047-1.596881-1.592381-4.890449 5.075715-21.45809 20.10381-33.434698 24.582381-33.035478 12.340953 9.082261-43.790476 12.575439-48.368571 7.8846-9.9523812 25.350487-26.9709526 30.640155-35.4304764z" opacity=".1"/><path d="m118.668226 95.4433333c2.694737 2.1895238 7.585185.8957143 10.878753-2.6871428 3.493177-3.7819048 3.992202-8.6585715 1.297465-10.8480953-2.694736-2.1895238-7.585185-.8957142-10.878752 2.8861905-3.493177 3.7819048-3.992203 8.4595238-1.297466 10.6490476zm-7.984405 7.0661907c-.698636 0-1.996102 1.293809-.898246 1.791428 1.497076.497619 2.195712 1.791429 2.195712 3.582858-1.297466 7.464285-10.579338 15.923809-14.1723201 18.81-.8982457.895714.3992202 2.88619 1.2974658 2.189523 1.9961013-1.592381 6.1879143-4.876666 9.5812863-9.255714-5.589084 12.440476-16.567641 28.563333-20.7594539 34.236191-16.3680312 22.591904-41.2194932 43.39238-58.2861598 43.39238-13.6732944 0-25.2506823-9.255714-27.745809-22.790952-.19961014-1.492857-2.19571151-1.791428-1.79649123.199048 3.09395711 18.610952 17.46588693 25.87619 34.83196883 25.87619 19.062768 0 41.4191033-13.734286 53.7949318-27.866666 19.9610133-22.790953 32.8358673-49.065239 29.4424953-63.894286-1.497076-5.573334-5.289669-6.469048-7.48538-6.27zm122.560623 49.662381c5.289669-1.29381 9.581287-4.18 9.581287-8.758095 0-.49762-.898246-.49762-.898246 0 0 2.687142-3.093957 4.97619-6.587134 5.473809-8.184016 1.29381-24.352437-8.260476-31.937622-18.113333 8.184016 3.085238 24.851462-1.393334 32.736062-7.066191 7.28577-5.274762 10.180117-11.047143 10.679143-15.724762.898245-7.762857-7.585185-12.340952-19.461989-7.762857-7.585185 3.085238-16.667446 9.753334-26.148927 22.293334 9.980506-16.421429 29.642105-43.2928576 48.904483-60.4109529 23.454191-20.8004761 37.02768-16.8195238 15.968811 5.2747619-8.683041 9.0566667-25.051072 20.8004762-36.329045 25.8761905-3.493177 1.4928572-1.796491 3.4833334.698636 2.3885715 11.976608-5.274762 27.945419-16.1228572 37.62651-25.1795239 28.54425-27.3690476 4.690838-47.9704761-26.847563-19.0090476-21.45809 19.6061905-35.430799 40.3071429-47.607018 67.0790475-4.191813 5.075714-7.28577 9.255714-11.078362 12.440476-.499026.398096-.798441.796191-1.097856 1.194286-10.479532 8.957143-26.947368 21.099048-37.22729 21.198571-7.28577.199048-10.379728-5.274761-9.082262-12.340952 1.996102-11.047143 13.473685-24.084762 23.254581-28.563333 12.675244-5.772381 20.160624 5.473809 3.493178 14.430952-6.387525 3.284286-13.97271 5.075714-17.066667 5.075714-3.592982 0-3.293567 1.492858-.19961 1.592381 5.090058.199048 13.274074-1.990476 18.663548-4.478571 17.066666-8.160952 18.164522-23.388095-.399221-23.885714-20.160623-.696667-44.31345 16.421428-44.11384 38.018095.19961 9.753333 7.984406 15.028095 18.663548 15.028095 17.865107-.199047 33.734113-13.734286 46.808577-25.677143 1.896296-1.592381 3.692787-3.284285 5.489279-5.075714-4.591033 11.544762-6.88655 22.293333-5.788694 30.255238.698635 5.772381 3.992202 8.459524 6.587134 10.649048.499026.398095 1.596881 0 .898246-1.094762-3.792593-4.478572-2.694737-17.914286 2.495127-30.951905 4.491228 8.758095 21.557894 19.805238 39.323196 15.824286zm-21.458089-37.819048c20.859259-18.6109522 29.043275-1.990476 15.769201 8.160953-6.88655 5.274761-20.559844 9.255714-24.851462 6.668095l-.898246-.497619c-.499025-.895715-1.097856-1.791429-1.497076-2.687143 3.493177-4.18 7.48538-8.061429 11.477583-11.644286zm115.973489-21.0990475c8.383626.8957143 4.890448-9.2557143-3.592982-6.6680952-3.792593 1.0947619-7.485381 8.36-10.180117 14.6299997-8.383626 12.440476-22.356336 29.459048-32.137232 38.416191-8.683041 7.464285-16.667447 9.454762-6.88655-4.478572 3.992203-5.573333 9.082261-11.544762 11.976608-17.51619 6.88655-15.028095-7.784795-21.6961906-19.661598-12.639524-6.88655 5.274762-16.168421 16.122857-23.454191 22.094286-1.996102 1.592381-1.497076 3.980952.499025 2.388571 5.788694-4.677619 15.968811-15.42619 24.751657-21.69619 7.28577-5.573334 10.180117-1.990476 5.988304 2.687143-5.788694 6.668095-15.968811 18.312381-18.563743 25.677142-3.592982 11.047143.698636 15.92381 7.984406 15.92381 9.980507 0 24.851462-15.525714 34.831969-27.866667 3.293567-4.18 6.886549-9.056666 9.980506-13.734285-8.683041 16.819523-17.765302 33.838095-29.043274 49.264285-15.968811 21.696191-35.929825 38.018096-54.892788 38.018096-13.673294 0-25.450292-9.255715-27.945419-22.790953-.19961-1.492857-1.996101-1.791428-1.796491.199048 3.093957 18.610952 17.465887 25.87619 34.831969 25.87619 19.062768 0 37.4269-11.047143 50.301754-24.582381 25.949318-27.369047 29.043275-58.121904 37.02768-75.339524 3.792593-7.8623805 7.28577-8.2604757 9.980507-7.8623805zm105.593762-26.3738095c3.792593-6.4690476 3.592983-11.5447619-5.289668-11.5447619-6.68694.1990476-18.863158 4.8766667-24.552047 9.2557143-1.297466 1.2938095-.698636 1.9904762.898245 1.2938095 1.097856-.3980952 2.395322-1.0947619 3.592983-1.5923809 6.387524-3.4833334 3.792593 3.7819047 2.395322 6.4690476-7.585186 13.2366666-21.05887 31.8476194-28.14503 41.1033334-3.393372 4.578095-7.185965 9.056667-10.878752 12.938095-6.786745 6.469048-20.260429 17.914286-30.540351 21.696191-33.035478 12.340952 9.082261-43.790477 12.575439-48.3685718 7.784795-9.7533333 25.250682-26.7719048 30.54035-35.3309524 3.792593-6.4690476 3.592983-11.5447619-5.289668-11.5447619-6.68694.1990476-18.863158 4.8766667-24.552047 9.2557143-1.297466 1.2938095-.698635 1.9904762.898246 1.2938095 1.097855-.3980952 2.395321-1.0947619 3.592982-1.5923809 6.387525-3.4833334 3.792593 3.7819047 2.395322 6.4690476-7.585185 13.2366666-21.05887 31.847619-28.145029 41.1033336-5.788694 7.762857-12.874854 15.525714-18.364133 19.904762-2.195712 1.791428-.898246 3.483333 1.297466 1.990476 1.996101-1.29381 4.890448-4.18 8.184015-7.56381-5.988304 11.942857-10.878752 28.762381 4.890449 30.752857 13.473684 1.791429 29.442495-11.843333 39.822222-21.994761 1.097856-1.094762 2.395322-2.388572 3.692788-3.682381.299415-.298572.59883-.597143.898245-.895715-5.988304 11.942857-10.878752 28.762381 4.890449 30.752857 17.266276 2.388572 38.724366-20.800476 47.008187-29.359523 1.596881-1.592381 1.097855-4.379048-1.596881-1.592381-4.890449 5.075714-21.45809 20.103809-33.434698 24.582381-33.035478 12.340952 9.082261-43.790477 12.575438-48.368572 7.984406-9.9523808 25.350488-26.9709522 30.640156-35.430476z" fill="url(#c)"/></svg>