<svg height="258" preserveAspectRatio="xMidYMid" viewBox="0 0 256 258" width="256" xmlns="http://www.w3.org/2000/svg"><path d="m255.6673 35.5610895c0-18.6073152-15.084078-33.691393-33.691393-33.691393-16.989635 0-31.034771 12.5778677-33.348732 28.9289961-.216156-.1145525-.341665-.1792996-.341665-.1792996-27.552374-12.4274553-50.761712 9.5835642-50.761712 9.5835642l-61.391191 61.6920158 24.257245 23.359751 49.412981-48.5453699c23.073867-23.0748638 35.63779-7.4568716 35.63779-7.4568716 17.370147 14.6736809.598661 32.0438285.598661 32.0438285l24.856903 23.958413c20.297712-21.922366 21.475113-41.0556267 15.305214-56.2761715 16.611113-2.0798755 29.465899-16.2425525 29.465899-33.417463" fill="#f9ae41"/><path d="m226.514179 190.506833c.114553-.21516.1793-.34067.1793-.34067 12.428451-27.553369-9.583565-50.761712-9.583565-50.761712l-61.693011-61.3931825-23.358755 24.2582415 48.54537 49.41298c23.074863 23.074864 7.456871 35.638786 7.456871 35.638786-14.673681 17.370148-32.043829.598662-32.043829.598662l-23.958412 24.855906c21.92137 20.297712 41.055626 21.475113 56.275175 15.305214 2.079875 16.612109 16.243549 29.466895 33.418459 29.466895 18.607315 0 33.690397-15.084078 33.690397-33.691393 0-16.989634-12.576872-31.03477-28.928-33.349727" fill="#ee4035"/><path d="m155.941852 133.040311-49.41298 48.544374c-23.0748642 23.07586-35.6387864 7.458864-35.6387864 7.458864-17.3701479-14.674677-.5986615-32.043829-.5986615-32.043829l-24.8559066-23.958413c-20.2977121 21.92137-21.4751128 41.054631-15.3062101 56.275175-16.612109 2.079876-29.46589884 16.241557-29.46589884 33.417464 0 18.607315 15.08407784 33.690396 33.69139304 33.690396 16.9896342.000997 31.0347704-12.575875 33.3487315-28.927003.2161556.114552.3416653.178303.3416653.178303 27.5533697 12.429447 50.7617126-9.583564 50.7617126-9.583564l61.392186-61.693012z" fill="#4f91cd"/><path d="m75.7271907 106.612545c-23.0748639-23.0748641-7.4588639-35.6387862-7.4588639-35.6387862 14.6756732-17.3701479 32.0448252-.5986615 32.0448252-.5986615l23.958412-24.8549105c-21.921369-20.2977121-41.0546301-21.4751129-56.2741788-15.3062101-2.0808716-16.6131051-16.2425525-29.46689499-33.4194552-29.46689499-18.6063191 0-33.68940082 15.08407779-33.69039693 33.69139299 0 16.9906304 12.57687163 31.0357665 28.92800003 33.3497276-.1145526.2161557-.1783035.3416654-.1783035.3416654-12.4304436 27.5523735 9.5825681 50.7597203 9.5825681 50.7597203l61.6940073 61.393182 23.358755-24.257245z" fill="#7ac043"/></svg>