<svg height="191" preserveAspectRatio="xMidYMid" viewBox="0 0 256 191" width="256" xmlns="http://www.w3.org/2000/svg"><path d="m34.337.0373h183.452c4.016 0 6.995 3.724 6.114 7.642l-25.856 114.928c-.898 3.99-4.441 6.825-8.53 6.825h-182.511c-4.482 0-7.81-4.151-6.836-8.526l25.345-113.796c.921-4.133 4.588-7.073 8.822-7.073" fill="#0481a3"/><path d="m114.6839 31.3307h136.448c3.116 0 5.429 2.888 4.749 5.928l-22.927 102.522c-.798 3.564-3.961 6.098-7.613 6.098h-136.863c-2.818 0-4.909-2.612-4.291-5.362l23.214-103.357c.765-3.408 3.791-5.829 7.283-5.829" fill="#14bef0"/><path d="m114.6839 31.3307c-3.492 0-6.518 2.421-7.283 5.829l-20.725 92.272h102.841c4.089 0 7.633-2.834 8.53-6.824l20.535-91.277z" fill="#73d8f4"/><path d="m70.1124 65.5352h62.454c3.375 0 5.873 3.14 5.114 6.429l-26.184 113.422c-.759 3.286-3.685 5.614-7.057 5.614h-63.407c-3.042 0-5.299-2.823-4.628-5.791l25.569-113.169c.86-3.804 4.239-6.505 8.139-6.505" fill="#6aba2f"/><path d="m84.1866 140.5167c-.618 2.75 1.474 5.363 4.292 5.363h32.138l3.797-16.448h-37.737z" fill="#b8ec00"/><path d="m132.5662 65.5352h-31.539l-14.351 63.897h37.737l13.267-57.468c.76-3.289-1.738-6.429-5.114-6.429" fill="#fff"/><path d="m70.1123 65.5352c-3.9 0-7.279 2.701-8.139 6.505l-12.967 57.392h37.67l14.351-63.897z" fill="#81d958"/></svg>