<svg height="183" preserveAspectRatio="xMidYMid" viewBox="0 0 257 183" width="257" xmlns="http://www.w3.org/2000/svg"><path d="m253.011 117.358-18.349-6.48-2.224-13.43c-.275-1.668-1.445-3.041-3.035-3.588-1.59-.535-3.348-.173-4.592.968l-22.715 20.981-12.525-26.841c15.612-24.514 23.184-48.918 23.739-50.75.514-1.737-.022-3.605-1.385-4.789-1.363-1.183-3.293-1.442-4.932-.688l-35.842 16.719-6.481-13.905 12.462-28.726c.76-1.737.357-3.771-1.01-5.091-1.37-1.337-3.404-1.678-5.128-.877l-168.277 78.479c-1.575.729-2.603 2.285-2.655 4.017-.041 1.722.875 3.343 2.405 4.164l30.626 16.536 23.679 50.785c.518 1.091 1.441 1.944 2.577 2.36l69.452 25.344c.506.186 1.039.281 1.572.281.655 0 1.318-.147 1.929-.427l121.13-56.58c1.676-.789 2.716-2.514 2.622-4.372-.085-1.855-1.292-3.475-3.043-4.09" fill="#4a0000"/><path d="m226.066 115.042-1.274-7.732-18.636 17.22 5.109 10.949 28.16-13.21-10.365-3.659c-1.564-.553-2.715-1.928-2.994-3.568" fill="#ca1f27"/><path d="m40.106 97.435-25.37-13.698 15.616-7.236z" fill="#ffd440"/><path d="m176.644 91.549c.067-.097.134-.181.205-.276 11.862-16.698 19.854-34.718 24.085-45.601l-90.36 42.136c-1.378.635-2.968.551-4.272-.214-1.3-.768-2.134-2.14-2.238-3.643-.008-.203-1.43-19.845-12.451-26.746-5.15-3.229-11.996-3.149-20.301.22l-40.968 19.094 33.929 72.738 65.876 24.047 65.988-30.76c-4.317-6.288-13.903-18.933-26.711-28.005-10.048 10.076-21.906 18.421-35.716 22.752-.455.142-.913.209-1.367.209-1.944 0-3.751-1.257-4.362-3.214-.759-2.408.582-4.982 2.995-5.727 0 0 24.718-6.296 45.668-37.01" fill="#ca1f27"/><path d="m63.863 74.931c-5.69-2.071-11.996.862-14.059 6.554-2.074 5.693.864 11.987 6.551 14.051 5.695 2.08 11.992-.853 14.063-6.555 2.063-5.686-.864-11.979-6.555-14.05" fill="#4a0000"/></svg>