<svg height="214" preserveAspectRatio="xMidYMid" viewBox="0 0 256 214" width="256" xmlns="http://www.w3.org/2000/svg"><path d="m0 .29866667h256v213.33333333h-256z" fill="#ebd851"/><path d="m53.0773333 99.328 6.912-4.1813333c1.3226667 2.3466666 2.56 4.352 5.4613334 4.352 2.816 0 4.5653333-1.0666667 4.5653333-5.3333334v-28.928h8.4906667v29.056c0 8.7893337-5.1626667 12.7999997-12.672 12.7999997-6.8266667 0-10.752-3.498666-12.7573334-7.509333zm34.432-.8106667 6.8266667-3.968c1.8346667 2.944 4.1386667 5.0773334 8.277333 5.0773334 3.498667 0 5.717334-1.7066667 5.717334-4.096 0-2.9013334-2.304-3.9253334-6.144-5.5893334l-2.090667-.896c-6.0586667-2.56-10.0693333-5.8026666-10.0693333-12.6293333 0-6.3146667 4.8213333-11.0933333 12.2880003-11.0933333 5.333333 0 9.173333 1.8773333 11.946666 6.6986666l-6.528 4.224c-1.450666-2.6026666-3.029333-3.6266666-5.418666-3.6266666-2.4320003 0-4.010667 1.5786666-4.010667 3.6266666 0 2.4746667 1.5786667 3.4986667 5.162667 5.0773334l2.090666.896c7.125334 3.072 11.136 6.1866666 11.136 13.184 0 7.5520003-5.930666 11.6906663-13.909333 11.6906663-7.7653333 0-12.8-3.712-15.2746667-8.5759997zm69.0773337-20.5653333 6.485333-4.352c-6.954667-9.216-20.096-11.008-29.269333-4.0106667-9.173334 6.9973334-11.008 20.096-4.010667 29.2693334 6.997333 9.1733333 20.096 11.0080003 29.269333 4.0106663 1.536-1.152 2.858667-2.517333 4.010667-4.0106663l-6.485333-4.3093334c-4.565334 5.5039997-12.757334 6.2719997-18.261334 1.664-5.504-4.608-6.272-12.7573333-1.664-18.2613333 4.565334-5.504 12.757334-6.272 18.261334-1.664.597333.512 1.152 1.0666667 1.664 1.664zm16.256 20.5653333 6.826666-3.968c1.834667 2.944 4.138667 5.0773334 8.277334 5.0773334 3.498666 0 5.717333-1.7066667 5.717333-4.096 0-2.9013334-2.304-3.9253334-6.144-5.5893334l-2.090667-.896c-6.058666-2.56-10.069333-5.8026666-10.069333-12.6293333 0-6.3146667 4.821333-11.0933333 12.288-11.0933333 5.333333 0 9.173333 1.8773333 11.946667 6.6986666l-6.528 4.224c-1.450667-2.6026666-3.029334-3.6266666-5.418667-3.6266666-2.432 0-4.010667 1.5786666-4.010667 3.6266666 0 2.4746667 1.578667 3.4986667 5.162667 5.0773334l2.090667.896c7.125333 3.072 11.136 6.1866666 11.136 13.184 0 7.5520003-5.930667 11.6906663-13.909334 11.6906663-7.765333 0-12.8-3.712-15.274666-8.5759997zm-118.2293337 43.9893337h22.1866667v7.253333h-22.1866667zm37.9733334 0h22.1866663v7.253333h-22.1866663zm35.4133333 0 18.346667-18.346667 18.346666 18.346667h-11.093333l-7.253333-7.253334-7.253334 7.253334z" fill="#323330"/></svg>