<svg height="273" preserveAspectRatio="xMidYMid" viewBox="0 0 256 273" width="256" xmlns="http://www.w3.org/2000/svg"><path d="m126.517 0 129.483 45.398-19.667 167.398-109.816 60.021-108.811-60.102-17.706-167.293z" fill="#e14337"/><path d="m174.235 140.62c0 4.123-3.343 7.466-7.467 7.466s-7.467-3.343-7.467-7.466c0-4.124 3.343-7.467 7.467-7.467s7.467 3.343 7.467 7.467zm-44.555-46.77c0 4.123-3.343 7.466-7.466 7.466-4.124 0-7.467-3.343-7.467-7.466 0-4.124 3.343-7.467 7.467-7.467 4.123 0 7.466 3.343 7.466 7.467zm-1.969-12.639c9.104-9.002 19.144-16.759 29.379-22.47-9.307-3.989-19.555-6.205-30.323-6.205-5.039 0-9.961.5-14.731 1.424.863 7.608 3.7 16.714 8.198 26.263.648-.093 1.306-.158 1.98-.158 1.955 0 3.812.412 5.497 1.146zm-38.804 70.549c.711-5.656 2.044-11.461 4.049-17.382 3.799-11.214 9.948-22.554 17.618-33.165-1.351-2.132-2.145-4.653-2.145-7.363 0-3.722 1.481-7.093 3.878-9.573-4.688-9.881-7.802-19.551-8.936-28.113-31.111 9.907-53.651 39.026-53.651 73.419 0 2.254.118 4.479.307 6.684 9.542 11.564 20.334 18.108 31.005 21.5 1.773-2.873 4.562-5.044 7.875-6.007zm43.017-36.592c-2.132-2.623-4.158-5.309-6.096-8.029-1.154.314-2.362.495-3.614.495-1.689 0-3.3-.318-4.796-.874-6.98 9.76-12.581 20.166-16.069 30.461-1.487 4.391-2.809 9.473-3.555 14.946 3.838 1.51 6.837 4.681 8.097 8.637 2.832-.139 5.556-.421 8.135-.801 13.701-2.017 27.372-7.369 39.685-14.988-.465-1.382-.728-2.857-.728-4.396 0-1.294.192-2.542.525-3.73-7.1-5.738-14.378-12.859-21.584-21.721zm1.245-12.976c7.042 9.891 15.605 19.4 25.364 27.392 2.299-1.719 5.143-2.749 8.235-2.749 2.729 0 5.266.803 7.406 2.171 9.813-9.608 17.616-20.733 22.215-32.446-6.476-13.628-16.828-25.057-29.64-32.85-11.275 5.353-22.49 13.561-32.515 23.403 1.119 1.993 1.764 4.288 1.764 6.737 0 3.139-1.061 6.024-2.829 8.342zm47.07 41.338c6.597 3.143 13.523 5.5 20.722 6.818 1.845-6.609 2.854-13.567 2.854-20.765 0-7.421-1.071-14.589-3.029-21.38-5.209 9.957-12.464 19.349-21.092 27.664.546 1.483.859 3.079.859 4.752 0 1-.112 1.972-.314 2.911zm-101.198 22.82c-9.512-2.946-18.26-7.782-26.015-14.413 7.526 24.86 27.276 44.393 52.259 51.636-3.462-3.402-6.25-6.861-8.375-10.409-2.75-4.59-4.832-9.464-6.266-14.569-6.167-.951-10.988-5.973-11.603-12.245zm79.999-14.316c-13.536 8.524-28.616 14.512-43.724 16.736-3.248.478-6.453.776-9.61.907-1.142 3.153-3.389 5.774-6.288 7.378 1.161 3.877 2.816 7.753 5.094 11.555 3.637 6.071 9.755 11.978 18.568 17.927 1.222.058 2.451.094 3.687.094 32.212 0 59.793-19.775 71.302-47.841-6.279-1.28-13.928-3.591-22.368-7.683-2.406 2.052-5.522 3.297-8.933 3.297-2.864 0-5.524-.874-7.728-2.37zm-58.816 12.955c0 4.124-3.343 7.467-7.467 7.467s-7.467-3.343-7.467-7.467 3.343-7.467 7.467-7.467 7.467 3.343 7.467 7.467z" fill="#f9bd3e"/><path d="m256 45.398-129.483-45.398v272.817l109.816-60.021z" fill="#440401" fill-opacity=".3"/></svg>