<svg height="287" preserveAspectRatio="xMidYMid" viewBox="0 0 256 287" width="256" xmlns="http://www.w3.org/2000/svg"><path d="m240.402682 225.914838-97.116315 56.04089c-9.500281 5.722227-21.385892 5.722227-30.886173 0l-97.1163149-56.04089c-9.55242443-5.731454-15.2838791-15.920707-15.2838791-26.746788v-112.0817804c0-11.1444952 5.73145467-21.0153338 15.2838791-26.7467885l97.1163149-56.0408901c9.552425-5.73145467 21.015334-5.73145467 30.886173 0l97.116315 56.0408901c9.552424 5.7314547 15.283879 15.9207074 15.283879 26.7467885v112.0817804c.308728 11.072415-5.587829 21.391389-15.283879 26.746788z" fill="#dbc01d"/><path d="m106.980686 54.6065348s.318414 18.1496065-7.0051112 39.1649402c-5.0946264 14.965465-12.0997377 22.607405-28.6572734 39.801769-7.9603537 7.960353-30.249344 27.70203-47.1252939 49.035778-7.8202202 9.579477-14.64803909 19.92789-20.3785055 30.886173 0 0 2.86572734 7.323525 11.7813235 12.736566l23.562647 13.691808 10.826081-17.831192c4.7762122-7.323526 12.7365659-17.194364 12.7365659-17.194364l25.4731319 38.846526 36.6176267-24.51789-30.886172-46.170051s14.647051-14.010223 18.468021-18.468021l10.189252-11.781323s15.602294 9.23401 21.652162 13.373394c8.915597 5.731455 20.378506 14.965465 20.378506 14.965465l-32.159829 48.080536 36.617627 24.51789 26.746788-39.801769 14.965465 21.652162c3.502556 5.413041 7.323526 13.373395 7.323526 13.373395l22.28899-12.736566c9.23401-5.413041 12.736566-14.328637 12.736566-14.328637s-9.870838-17.831192-18.786435-29.612516c-9.23401-12.418152-22.28899-26.428374-28.338859-32.796657-10.826081-10.507667-29.612516-25.154718-39.16494-31.523001-8.597182-5.731454-23.881061-14.010222-23.881061-14.010222s3.502555-9.8708388 5.731454-24.5178896c1.273657-8.9155962 1.910485-23.8810612 1.910485-23.8810612z" fill="#383307"/></svg>