<svg height="175" viewBox="0 0 256 175" width="256" xmlns="http://www.w3.org/2000/svg"><path d="m224.942987 79.4961013c.091383-1.497114.226836-2.9812659.226836-4.4978228 0-41.4201519-34.09596-74.9982785-76.15838-74.9982785-30.331139 0-56.4431392 17.4987342-68.6922531 42.7682025-5.9430886-4.5367088-13.3832912-7.2652152-21.478076-7.2652152-19.4041519 0-35.1335696 15.4896203-35.1335696 34.5956456 0 3.590481.5508861 7.0578228 1.5878481 10.3112912-15.1266835 8.8595443-25.2953924 25.0620759-25.2953924 43.6496199 0 27.790583 22.6641013 50.331545 50.7852152 50.759291l.5962532.032406.2073924.006481.2073924-.006481h151.0335188c.920304.044718 1.821165.136101 2.754431.136101 27.84243 0 50.415797-22.223393 50.415797-49.644557 0-20.66795-12.825924-38.3675951-31.057013-45.8466837zm-156.2183288 57.0847597c-5.113519-4.628091-8.2956962-10.240648-9.5724557-16.850633-.4212658-2.210025-.6351392-4.523747-.6351392-6.960608-.006481-9.423392 3.4219747-17.2142175 10.2918481-23.3504403 6.8633924-6.144 15.5933164-9.222481 26.1962532-9.2166481 10.8816204 0 21.1410634 4.070076 30.2015194 12.2167089 2.261873 2.0292051 4.445974 4.3163544 6.552303 6.8504304l11.652213 13.7015091c2.016243 2.760911 4.180901 5.145276 6.416203 7.15439 5.981974 5.373407 12.475949 8.062379 17.959534 8.062379 4.665681 0 8.560769-1.425822 11.697579-4.29043 2.735636-2.605367 4.278117-5.722734 4.621611-9.332658l.070643-1.580719c0-1.568405-.220355-3.052557-.673378-4.445327-.745316-2.320202-2.113458-4.407737-4.096-6.267787-3.097924-2.9553419-7.000141-4.4135698-11.730633-4.4135698-5.814116 0-11.562774 1.9572659-17.862318 8.0617318l-10.317773-12.1324558-1.257316-1.4063798c9.022218-8.8401012 18.030177-12.1583797 30.156152-12.1583797 10.745519 0 19.443038 3.0525569 26.099038 9.1453569l.149063.1224912c6.765529 6.0791899 10.155747 13.9406582 10.155747 23.5850532 0 2.385013-.213874 4.665681-.635139 6.83682-1.269631 6.52638-4.458289 12.087089-9.553013 16.695089-5.002694 4.608648-11.107808 7.492699-18.315342 8.63919-2.403159.382379-4.931402.57681-7.582136.57681-11.127899-.006481-21.420395-3.985823-30.273459-11.931544-2.390845-2.151697-4.678643-4.588557-6.849782-7.323545l-11.652861-13.603645c-1.970228-2.728507-4.102481-5.087595-6.318987-7.083747-5.969013-5.360446-12.547241-8.0429369-18.1857216-8.0429369-1.7498734 0-3.3895696.2067443-4.9190886.6156962-2.540557.6805063-4.7635443 1.9378227-6.6819241 3.7661167-2.3461265 2.235301-3.8173164 4.808911-4.4006076 7.718238-.1944303.965671-.2981265 1.976709-.2916455 3.020152 0 4.134886 1.4906329 7.673519 4.4718987 10.609417l.2268354.213874c3.2016203 2.929417 7.135595 4.387645 11.8019241 4.387645 5.8653162 0 11.6398992-1.969579 17.9264812-8.126541l10.265924 11.982744 1.134177 1.367494c-9.371544 8.943797-18.282937 12.326886-29.9422784 12.320405-10.739038 0-19.5013671-3.046076-26.2999494-9.131747z" fill="#4679a4" fill-rule="evenodd"/></svg>