<svg height="256" preserveAspectRatio="xMidYMid" viewBox="0 0 256 256" width="256" xmlns="http://www.w3.org/2000/svg"><path d="m128 .0001c-70.691 0-128 57.306-128 127.998s57.309 128.005 128 128.005c70.693 0 128-57.313 128-128.005s-57.307-127.998-128-127.998" fill="#dd4813"/><path d="m65.8791 207.1492c-1.085 1.085-2.532 1.684-4.072 1.684-1.545 0-2.994-.6-4.083-1.69-1.086-1.086-1.684-2.532-1.684-4.073s.598-2.988 1.685-4.075c1.09-1.089 2.539-1.689 4.082-1.689 1.54 0 2.986.599 4.072 1.685 1.088 1.088 1.687 2.537 1.687 4.079 0 1.543-.599 2.992-1.687 4.079zm25.1176-86.0795c-.58-1.847-1.414-3.365-2.481-4.512-1.063-1.148-2.35-2.006-3.826-2.552-1.484-.552-3.166-.832-4.997-.832s-3.497.279-4.951.83c-1.452.548-2.726 1.407-3.79 2.554-1.065 1.144-1.898 2.663-2.479 4.512-.584 1.86-.88 4.136-.88 6.765v67.081h-11.58v-68.107c0-3.436.466-6.634 1.384-9.504.92-2.882 2.369-5.427 4.304-7.564 1.938-2.141 4.411-3.824 7.352-5.005 2.933-1.179 6.485-1.777 10.555-1.777 4.068 0 7.646.598 10.637 1.776 2.997 1.181 5.5 2.865 7.439 5.006 1.933 2.134 3.397 4.678 4.347 7.562.948 2.871 1.429 6.07 1.429 9.506v9.244h-11.58v-8.218c0-2.62-.298-4.897-.883-6.765zm48.3292 47.0245c0 3.443-.48 6.642-1.427 9.509-.948 2.876-2.411 5.42-4.348 7.561-1.939 2.14-4.442 3.824-7.439 5.004-2.993 1.18-6.573 1.778-10.638 1.778-4.066 0-7.616-.599-10.554-1.779-2.939-1.179-5.412-2.863-7.351-5.003-1.937-2.141-3.386-4.686-4.305-7.564-.918-2.87-1.382-6.068-1.382-9.506v-29.267h11.579v28.243c0 2.631.297 4.906.879 6.762.58 1.851 1.415 3.369 2.48 4.516 1.064 1.148 2.341 2.007 3.789 2.552 1.453.551 3.118.831 4.951.831 1.831 0 3.513-.28 4.996-.831 1.475-.546 2.762-1.406 3.827-2.552 1.066-1.148 1.903-2.667 2.481-4.515.584-1.866.882-4.141.882-6.763v-28.243h11.58zm-11.5518-37.7183c0-3.176 2.582-5.761 5.758-5.761 3.179 0 5.768 2.585 5.768 5.761 0 3.179-2.589 5.766-5.768 5.766-3.176 0-5.758-2.587-5.758-5.766zm34.956-81.7032c-.58-1.847-1.416-3.365-2.483-4.514-1.065-1.148-2.353-2.006-3.828-2.551-1.481-.552-3.163-.831-4.996-.831-1.83 0-3.496.279-4.949.829-1.451.548-2.726 1.407-3.792 2.553-1.063 1.148-1.897 2.666-2.477 4.514-.583 1.859-.879 4.135-.879 6.765v67.081h-11.58v-68.106c0-3.435.464-6.633 1.383-9.506.921-2.882 2.369-5.427 4.306-7.564 1.935-2.139 4.409-3.823 7.352-5.003 2.938-1.18 6.487-1.779 10.551-1.779 4.066 0 7.646.598 10.639 1.778 3 1.181 5.501 2.865 7.437 5.004 1.937 2.136 3.4 4.68 4.35 7.561.946 2.874 1.427 6.074 1.427 9.509v9.243h-11.582v-8.218c0-2.625-.296-4.901-.879-6.765zm48.3254 47.0248c0 3.441-.48 6.64-1.426 9.508-.949 2.879-2.411 5.423-4.346 7.561-1.94 2.141-4.443 3.824-7.438 5.005-2.997 1.179-6.576 1.777-10.638 1.777-4.068 0-7.62-.599-10.556-1.779-2.941-1.179-5.412-2.862-7.351-5.003-1.936-2.138-3.384-4.683-4.306-7.564-.917-2.875-1.383-6.073-1.383-9.505v-29.268h11.58v28.244c0 2.626.296 4.901.88 6.763.58 1.848 1.413 3.366 2.482 4.514 1.064 1.149 2.339 2.008 3.786 2.553 1.456.551 3.12.83 4.95.83 1.835 0 3.515-.28 4.997-.831 1.476-.545 2.763-1.403 3.83-2.552 1.064-1.146 1.899-2.664 2.479-4.514.584-1.862.881-4.137.881-6.763v-28.243h11.579z" fill="#fff"/></svg>