<svg height="709" preserveAspectRatio="xMidYMid" viewBox="0 0 256 709" width="256" xmlns="http://www.w3.org/2000/svg"><path d="m256 315.320909c0-17.17577-13.971972-31.147742-31.147742-31.147742s-31.147741 13.971972-31.147741 31.147742c0 13.748079 8.961039 25.422485 21.344439 29.543177v37.214168s-.031985 1.796473-.996856 3.992754c-.970202 2.196281-1.332695 2.665389-1.332695 2.665389l-83.101514 85.596319 1.167441-185.351186s-.788955-10.187119 1.993711-14.654312c2.782667-4.461862 6.828728-7.159236 6.828728-7.159236l46.46307-47.795765s7.953522-7.169897 9.659372-12.159506c1.705849-4.984279.831601-22.314641.831601-22.314641l-1.759157-100.4052228c18.103326-5.0962247 31.424942-21.7175937 31.424942-41.4254836 0-23.7486205-19.318743-43.0673636-43.067363-43.0673636-23.74329 0-43.062033 19.3187431-43.062033 43.0673636 0 19.7505362 13.374924 36.3932282 31.536889 41.4521375l1.279386 100.7144079s.95421 8.028153 0 11.322574c-.948878 3.299753-4.6591 7.329821-4.6591 7.329821l-48.632697 49.960061s-10.032526 10.94409-11.653083 14.489058c-1.625888 3.539637-.836932 20.981946-.836932 20.981946v77.269641l-44.7945364-41.798638s-1.8337879-1.737834-3.1664827-4.99494c-1.3326947-3.262436-.8316015-8.993024-.8316015-8.993024l-1.4393103-128.466443c21.9947941-4.269954 38.6588093-23.652666 38.6588093-46.878871 0-26.35004-21.4350624-47.7797718-47.7797722-47.7797718-26.3500406 0-47.7797722 21.4297318-47.7797722 47.7797718 0 23.370136 16.8772463 42.843471 39.0799409 46.948171l1.4393103 133.061575s-.4317931 7.025966 1.5032797 10.986735c1.929742 3.9661 6.3276346 9.328864 6.3276346 9.328864l54.2886535 52.454865s1.716511 2.009704 4.493847 7.495075l-.165255 135.060617s1.43398 13.913333-10.6562268 15.155405h-41.3028757v.197239h-.1599234v116.226974h33.3067073v-.186577h.1599233v-82.73369h98.9072733v-.197239h.181247v-33.306707h-45.460884c-8.689169-1.43398-11.97826-6.914021-12.6606-15.155405l.170585-26.813818c4.23797-8.854424 12.820524-17.149116 12.820524-17.149116l86.262666-89.263895s3.198467-2.718697 4.499177-7.660329c1.354018-5.12821 1.497949-9.328864 1.497949-9.328864l-.149262-35.609603c12.527331-4.040731 21.616309-15.795098 21.616309-29.644462zm-106.359703-272.2535454c0-18.4871416 15.032797-33.52526919 33.519939-33.52526919 18.487141 0 33.525269 15.03812759 33.525269 33.52526919 0 18.4871415-15.038128 33.5252691-33.525269 33.5252691-18.487142 0-33.519939-15.0381276-33.519939-33.5252691zm-140.09820259 92.3877304c0-21.083231 17.15444679-38.2376773 38.23767779-38.2376773 21.0832309 0 38.2376778 17.1544463 38.2376778 38.2376773s-17.1544469 38.237678-38.2376778 38.237678c-21.083231 0-38.23767779-17.154447-38.23767779-38.237678zm215.31016359 201.471462c-11.914291 0-21.605647-9.696687-21.605647-21.605647 0-11.914291 9.691356-21.605648 21.605647-21.605648s21.605648 9.691357 21.605648 21.605648c0 11.90896-9.691357 21.605647-21.605648 21.605647zm-70.403598 338.66439h-99.6002749v33.306707h132.9069819v-116.392229h-33.306707z" fill="#587635"/></svg>