<svg height="284" preserveAspectRatio="xMidYMid" viewBox="0 0 256 284" width="256" xmlns="http://www.w3.org/2000/svg" xmlns:xlink="http://www.w3.org/1999/xlink"><linearGradient id="a" x1="81.810052%" x2="37.824329%" y1="8.917677%" y2="79.439596%"><stop offset="0" stop-color="#a8b57d"/><stop offset=".249859163" stop-color="#a8b57d"/><stop offset=".589358327" stop-color="#26a0a2"/><stop offset="1" stop-color="#268999"/></linearGradient><path d="m245.256271 231.6322c-3.319318.286703-5.87788-1.911352-8.513086-3.917325-32.105035-24.444488-64.206286-48.893707-96.311321-73.338196-2.130873-1.622756-4.323251-3.167924-6.418168-4.834206-7.02753-5.590231-7.089034-11.514476.133416-17.020495 14.029512-10.696001 28.227451-21.170588 42.303328-31.805085 20.995539-15.863275 41.927681-31.810763 62.928897-47.6664682 4.675243-3.5303238 9.125286-3.4896366 12.933797-.2110057 5.275142 4.5418264 4.872055 11.5911195-1.096662 16.1707944-12.62817 9.686391-25.350961 19.2497743-37.993324 28.9181872-13.208199 10.1017793-26.367195 20.2679003-39.547953 30.4056353-3.690234 2.838642-7.394661 5.660251-11.070702 8.518763-4.944914 3.847306-4.958161 4.576836-.087052 8.28221 20.197881 15.366513 40.40617 30.717886 60.609727 46.075882 9.411043 7.154323 18.850472 14.271744 28.213258 21.488517 4.226737 3.257814 5.587393 7.679471 4.021409 12.102075-1.487448 4.200243-5.24581 6.826932-10.105564 6.830717zm-185.2544752-90.240413c-.3728082-3.679826 1.3370002-6.118219 4.0251937-8.163933 12.288479-9.351431 24.4974761-18.806946 36.8162345-28.11769 14.684292-11.1000348 29.449013-22.0931471 44.185347-33.124108 1.13451-.8487538 2.26429-1.7287326 3.491529-2.4270385 4.622255-2.6323668 9.977825-1.5536831 13.1079 2.5689706 3.093173 4.0743968 2.896361 9.8718489-1.190337 13.2678104-7.119313 5.9147827-14.442062 11.6204521-21.998525 16.9608825-4.697006 3.320265-9.200037 6.936694-13.721047 10.420653-10.393213 8.008754-20.719244 16.122538-31.1275965 24.123722-4.9496446 3.804726-4.9695151 4.510601-.0652888 8.243415 21.4478293 16.324081 42.8814643 32.66614 64.3756583 48.928717 3.757415 2.842427 6.490081 6.125789 5.819215 11.078272-1.129779 8.356014-10.168014 11.704665-17.347884 6.344364-11.745353-8.76951-23.351612-17.725424-35.025998-26.590502-15.0618317-11.437832-30.1511037-22.839709-45.1845491-34.314444-3.1026352-2.368373-6.6745924-4.554127-6.1598521-9.199091zm120.9582992 142.2008c-2.86892.118276-5.20323-1.105178-7.371952-2.779977-33.918927-26.18836-67.855833-52.355903-101.7454272-78.584005-5.8286773-4.511547-6.862889-10.605164-2.9540796-15.604012 3.7063195-4.740531 9.9910718-5.224993 15.5321-.955676 33.9482598 26.152404 67.8700258 52.341711 101.7757058 78.548995 4.687544 3.623053 6.069962 7.674741 4.397056 12.354714-1.610456 4.508709-4.963838 6.694463-9.633403 7.019961zm.704929-283.592587c4.591976.37280825 7.909402 2.31065418 9.570953 6.64336733 1.622757 4.23336067.412549 8.49037677-3.673202 11.68763327-9.302228 7.2801692-18.707594 14.4278685-28.037262 21.6739741-21.852808 16.9722375-43.686693 33.9700228-65.5262541 50.9592922-2.8036316 2.1810229-5.5788768 4.3989481-8.4014326 6.5553694-5.5627912 4.2475537-11.6895257 3.8775847-15.5207456-.9017418-3.9655821-4.9458597-2.8575657-11.0990882 2.982466-15.5727872 18.2240785-13.9594927 36.5134453-27.8347724 54.7365783-41.7961575 15.626721-11.9724436 31.21654-23.9940904 46.771349-36.06115539 2.189539-1.69845384 4.514387-2.79133081 7.09755-3.18779441zm-138.9183836 175.895474c-1.7060236.092729-3.845413-.817528-5.7804203-2.287945-10.6638299-8.09959-21.3920024-16.118752-31.95931848-24.343243-6.66513024-5.187144-6.67743102-11.22115-.0274402-16.399778 10.56636988-8.225437 21.24533918-16.308942 31.98108138-24.311072 5.2032298-3.878531 11.5551633-2.965434 15.0788636 1.828085 3.4461108 4.68849 2.5500463 10.64869-2.4611022 14.636982-5.5467054 4.414087-11.2126339 8.68435-16.9164109 12.894056-2.9796273 2.199947-2.969219 4.044118-.0198705 6.246903 5.9327608 4.43112 11.8702526 8.866024 17.6175554 13.532751 3.8378433 3.117774 4.8370451 7.666224 2.951241 11.934595-1.8309238 4.14347-5.1038775 6.26015-10.4641788 6.268666zm206.0134606 96.889458c-.179781 4.45099-2.039091 7.596205-5.707562 9.481063-3.877584 1.992726-7.663386 1.527189-11.097196-1.098554-9.76398-7.469412-19.491058-14.987081-29.22476-22.495288-7.986045-6.160798-16.010884-12.27334-23.918393-18.535383-3.483013-2.758213-5.00074-6.456963-3.760254-10.91363 1.163843-4.17848 3.968421-6.70014 8.220706-7.556464 3.334457-.671812 6.211893.448505 8.804519 2.448802 17.346939 13.380409 34.669275 26.792044 52.038923 40.142175 2.965434 2.280376 4.520063 5.158758 4.644017 8.527279zm-62.434027-209.9894509c-4.551289-.2091133-7.813834-2.3740505-9.196253-6.7597517-1.429729-4.5370953-.072858-8.3938629 3.695912-11.3110401 7.724889-5.978179 15.478166-11.9213481 23.219141-17.8787104 9.614479-7.3993922 19.208141-14.8271708 28.851952-22.1877682 5.417074-4.13495445 11.314825-3.54640945 14.944501 1.36160171 3.451788 4.66767279 2.392975 10.36861119-2.899199 14.46382469-17.19649 13.3075513-34.447861 26.5431904-51.662329 39.8261402-2.060854 1.5896393-4.224845 2.7515899-6.953725 2.4857038z" fill="url(#a)"/></svg>