<svg height="361" preserveAspectRatio="xMidYMid" viewBox="0 0 256 361" width="256" xmlns="http://www.w3.org/2000/svg"><g transform="translate(15.937743 250.023346)"><path d="m48.3282179 50.3971362-.9841556.4721556.9751906-.4920778-7.6700389-15.4367004c-1.032965-2.0260856-2.1625525-3.2164358-3.0470973-3.894786.8178055-.7520622 1.8985837-1.9772762 2.9375253-3.8698832l14.5402024-26.53335413h-14.793214l-12.507144 23.26512063c-.3964514.6594241-.7689961.9214008-1.3567004 1.1345681-.5956732.2002179-1.4553152.2520156-2.5380856.247035h-5.3620545v-17.74866925c0-2.13864592-.4552218-3.92466926-1.6804358-5.17179767-1.2371673-1.24414008-3.0321556-1.72625681-5.2176187-1.72625681h-6.65002331v62.75386773h13.54807781v-26.4427082h4.6787237c1.1833775 0 2.1675331.036856 2.8418989.2430506.6853229.2201401 1.0728093.485105 1.4742412 1.2172451l9.883393 19.848467c1.0190195 2.066926 2.1735098 3.4535097 3.7603113 4.2354552 1.5848093.7689961 3.3678444.8935097 5.6708483.8984903h8.2029572l-.8377277-1.6097121c-.0069727-.0119533-5.0403113-9.6532918-5.8690739-11.3895097zm58.7275951-49.75464593h-5.367035c-2.1476107-.00498054-3.9386146.47713619-5.1827547 1.71729183-1.2351751 1.23915953-1.7272529 3.0271751-1.7172918 5.1757821v18.7756576h-20.1034708v-18.7756576c0-2.13864591-.448249-3.92168093-1.6774475-5.17080155-1.2451362-1.24513619-3.0351439-1.72725292-5.2255875-1.72227238h-6.4687315v62.74888713h13.3717665v-25.4137276h20.1034708v25.4137276h13.3667865v-62.74888713zm32.617588 17.04641243c.431315 1.6794397.943315 3.5730428 1.430412 5.0432996l4.708607 13.7343502h-12.282023l4.707611-13.7293696c.493074-1.4752374 1.009058-3.3688405 1.435393-5.0482802zm6.66098-17.04641243h-13.230319l-.261976.72217899-22.537961 62.02670814h8.303564c2.212358 0 3.899766-.2719377 5.264436-1.234179 1.359688-.9702101 2.14761-2.4494319 2.850863-4.4336809l3.493354-9.8525136h18.915113l3.497339 9.8475331c.708233 1.9942101 1.522054 3.483393 2.90565 4.443642 1.376622.9572607 3.078972 1.2291984 5.290334 1.2291984h8.218895zm75.346677 0h-5.372015c-2.192436 0-3.985432.48211673-5.214631 1.72625681-1.235175 1.25011673-1.690396 3.03315175-1.690396 5.17378988v27.71872374c0 .9283735.043828 1.9523735.105587 2.9614319-.827766-1.6067237-1.77407-3.3170428-2.702443-4.6787237l-19.936125-32.90147863h-12.879689v62.75386773h6.493635c2.170521 0 3.956544-.4532296 5.190723-1.6874086 1.23916-1.2441401 1.687409-3.0301634 1.687409-5.2156264v-27.6300701c0-.9114397-.036856-1.9234864-.095627-2.9176031.823782 1.6117043 1.776063 3.3120623 2.709417 4.6518288l20.012825 32.7988794h12.786054v-62.75386773z" fill="#23282e"/><path d="m14.1058988 101.681805-3.0162179-8.1461785c-.3914708-1.0708172-.8765758-2.952467-.8765758-2.952467h-.0647471s-.4870973 1.8816498-.8765759 2.952467l-2.98733074 8.1461785zm-5.12597662-13.5660073h2.43349412l8.658179 22.8158753h-.6743657c-1.6216654 0-2.0629417-.324731-2.6486537-1.88165l-2.0260856-5.387953h-9.05164205l-2.0589572 5.387953c-.58471595 1.556919-.99212451 1.88165-2.61777432 1.88165h-.65942412zm43.81185992 5.2594552c-.8795642-1.8726848-3.3658521-4.0163113-7.0136031-4.0163113-5.0622257 0-8.9550195 3.9605292-8.9550195 9.4779767 0 5.4517047 3.8619144 9.8345837 9.0546304 9.8345837 2.4723424 0 4.4536031-.82179 5.6877821-1.731237 1.499144-1.103689 3.0749883.172326 3.0749883.172326s-3.1487004 3.698553-8.795642 3.698553c-6.6858833 0-11.3924981-5.32221-11.3924981-11.9742257 0-6.5882646 4.8351129-11.6176187 11.2620078-11.6176187 3.245323 0 7.2466926 1.4393774 8.7627704 4.8809339.7092296 1.5609027.7998755 2.3020077.7998755 2.3020077s-1.8955953.2271129-2.4852918-1.0269883zm29.9081712 8.3065521-3.0182101-8.1461785c-.3894786-1.0708172-.8765759-2.952467-.8765759-2.952467h-.0647471s-.4870972 1.8816498-.8785681 2.952467l-2.9853385 8.1461785zm-5.128965-13.5660073h2.4344903l8.658179 22.8158753h-.6743658c-1.6226614 0-2.0629416-.324731-2.6476576-1.88165l-2.0250895-5.387953h-9.0546303l-2.0579611 5.387953c-.5847159 1.556919-.9931206 1.88165-2.6167782 1.88165h-.6614163zm32.8227857 20.8017433h-3.830039c-.453229 0-.712217-.226117-.712217-.71421v-18.0763894h4.542256c5.582195 0 9.314615 3.3110662 9.314615 9.3793619 0 6.1021635-3.700545 9.4112375-9.314615 9.4112375zm.226117-20.8017433h-7.043486v20.8356113c0 1.394552.585712 1.979268 1.979268 1.979268h5.064218c6.880125 0 11.456249-4.155766 11.456249-11.4243735 0-7.2028638-4.576124-11.3905058-11.456249-11.3905058zm40.408156 20.8017433h-8.014693c-.455222 0-.71421-.226117-.71421-.71421v-7.754708h8.567533v-2.0121405h-8.567533v-8.3095409h10.645416v-.0288871c0-1.398537-.585712-1.9822568-1.98126-1.9822568h-10.937277v20.8356113c0 1.394552.585712 1.979268 1.980265 1.979268h9.867455c1.393557 0 1.978273-.584716 1.978273-1.979268v-.033868zm20.130365-20.8017433h2.304l6.036421 13.2741483c.551844 1.168435 1.137556 2.692482 1.137556 2.692482h.063751s.58372-1.524047 1.101697-2.692482l6.038412-13.2741483h2.304l1.986241 22.8158753h-.655439c-1.395549 0-1.882646-.585712-1.979269-1.980264l-1.070817-13.856872c-.099611-1.2351751-.099611-3.1825681-.099611-3.1825681h-.063751s-.617587 2.0131362-1.169432 3.1825681l-5.41684 11.584747h-2.044016l-5.388949-11.584747c-.519969-1.1365603-1.200312-3.2463191-1.200312-3.2463191h-.064747s0 2.011144-.098614 3.2463191l-1.071814 13.856872c-.096622 1.394552-.583719 1.980264-1.979268 1.980264h-.530926zm42.529868 12.8846693-7.944965-12.8846693h.674366c1.556918 0 2.140638.2261167 3.114833 1.8169027l3.86291 6.4577743c.713214 1.2003113 1.39256 2.5659767 1.39256 2.5659767h.067736s.680342-1.3656654 1.393556-2.5659767l3.861915-6.4577743c.974194-1.590786 1.556918-1.8169027 3.116825-1.8169027h.675361l-7.944965 12.8846693v9.93021h-2.270132z"/><path d="m4.02328405 75.5538677h219.64700395v-.9961089h-219.64700395z" fill="#231f1f"/></g><path d="m152.93958 231.716856c-12.344778 0-24.346895-.02291-36.349012.022911-1.973292.005976-2.095813-.78095-1.640591-2.42951 2.423533-8.786677 1.952373-17.792498 1.889618-26.762459-.012949-1.907549-.274926-3.711502-1.536-5.195705-8.144186-9.557665-10.924327-21.108544-12.699393-33.147517-2.187455-14.83007-6.3242954-29.108296-13.278132-42.479066-.4233463-.815814-.7739766-1.675456-1.1046848-2.536094-.7490739-1.942412-1.2750194-4.10098.8566537-5.315237 2.1844669-1.243144 4.5303035-.608623 5.9915953 1.427424 1.8418055 2.564981 3.3558911 5.364047 4.9855258 8.07944 2.650645 4.412762 5.141914 8.932109 8.401182 12.939455.943316 1.163455 2.158569 2.944498 3.798164 2.053977 1.404513-.765012.492078-2.62674.27891-4.022288-1.834832-12.002117-3.167626-24.063004-4.087035-36.166724-.213167-2.7901011.457214-5.4855719 3.785214-6.0015564 3.263253-.5070194 3.791191 2.1376498 4.399814 4.4765136 2.824965 10.8456338 5.61905 21.6952528 8.498801 32.5259458.317759 1.192342.364576 3.20249 1.824872 3.174599 1.754148-.033868 1.643579-2.096809 1.903564-3.437572 1.38758-7.146086 1.398537-14.433619 2.145619-21.648436.694288-6.690864 1.204295-13.4016496 1.639595-20.1154239.226117-3.4634708 1.885634-5.5064903 5.277385-5.7644825 2.876763-.2181479 4.42372 2.1326692 4.416747 6.2485914-.020918 13.207409-.084669 26.413821-.052794 39.619237.004981 2.023098-.484109 5.09709 1.726257 5.511471 1.913526.359596 2.394646-2.717385 3.098895-4.485478 4.115922-10.307736 9.565634-19.990911 14.040156-30.1313 1.164451-2.6386926 3.428607-3.3509105 5.907922-2.4583969 3.23835 1.1664436 2.642677 3.9635175 1.890615 6.3810739-3.918693 12.590817-7.904125 25.156732-11.959284 37.70372-1.344747 4.152778-1.509105 8.270692-.432312 12.465307.164358.638506.294849 1.293946.54786 1.897588.79888 1.909541 1.142537 4.468545 3.584997 4.797261 2.204389.29684 3.288155-1.906553 4.556202-3.361868 3.615875-4.139829 6.556389-9.089494 12.750194-9.951129 2.641681-.367564 5.250491-.57077 7.84137.248032 3.376809 1.071813 3.82207 2.514179 1.364669 4.959626-1.299922 1.296934-2.73133 2.543066-4.304186 3.469447-7.031534 4.129868-11.566818 10.215098-14.588016 17.671969-1.582817 3.907736-3.54814 7.661074-5.448716 11.429354-1.616685 3.200498-3.434584 6.611176-6.304374 8.53765-5.403891 3.630817-5.886007 8.786677-6.139019 14.388794-.384498 8.462942-.127502 16.849183 2.521152 25.380856z" fill="#9a9188"/><g fill="#9eb63a"><path d="m60.5146148 97.7670973c3.8549416 4.4884667 7.7088871 8.9769337 11.5857432 13.4932917-8.3812607 3.265245-19.3145526.182288-25.1876109-7.23972-6.4109572-8.1083266-8.6701323-17.6241554-8.9281245-27.7466145-.0328716-1.2142568-.0149417-2.3807004 1.6874085-2.57793 13.5978833-1.5848093 36.4167471 10.2429883 36.6299144 28.2645915.0059767.661416.0697277 1.330802-.0229105 1.979268-.2320934 1.648561.0806848 3.993401-1.4005292 4.612981-1.4792218.622568-2.3906614-1.637603-3.5331984-2.634708-3.3748171-2.947487-6.6729339-5.9836266-10.0009339-8.9868951-1.0110505-.4512374-1.0618521.0508015-.8297587.8357354"/><path d="m166.678911 70.317323c-5.522429 3.529214-9.302662 8.7996264-13.771207 13.431533-4.469541-6.5115642-2.423533-18.5814163 4.38288-25.2782568 6.029447-5.9288404 13.509229-9.097463 21.692264-10.6912373 6.814382-1.3278133 6.958817-1.1694319 6.962802 5.9437821.006973 9.5058677-3.242335 17.8711906-9.360436 25.0322179-5.525416 6.4677354-12.580856 9.2130116-21.70123 7.7367782 4.110942-5.6379767 7.95393-10.9063969 11.794927-16.1748171"/><path d="m215.474304 155.914957c-4.755425-3.894786-10.556763-5.728622-15.989541-8.363331 4.502412-5.882023 15.860046-7.576404 23.814972-3.460482 7.044483 3.647751 12.04993 9.392311 15.856063 16.223626 3.170614 5.688779 3.071004 5.863098-3.26923 7.940981-8.473899 2.777152-16.879066 2.317945-25.048156-1.048903-7.377182-3.04112-11.880591-8.531673-13.223346-17.093229 6.224685 2.022101 12.042957 3.91172 17.859238 5.801338"/><path d="m124.955891 51.6313152c-1.921494 5.9726692-2.689494 12.0897743-3.379798 18.221821-.11256.9981012.401432 2.3896654-.711221 2.8907082-1.29295.5807315-2.139642-.7470818-2.944498-1.4891829-6.747642-6.225681-8.959004-13.7532763-6.193806-22.5887627 2.585899-8.2677042 7.563455-14.9824747 13.718413-20.9312373 1.280996-1.2361712 2.236264-1.5310195 3.478412.1075797 7.605292 10.0357977 11.357634 21.0706927 8.549603 33.681432-1.220233 5.4686381-4.703626 9.3026614-9.849525 11.6186147-2.162553.9751907-3.207471 1.1714242-3.022195-1.9772762.383502-6.4936343 1.479222-12.9882646.354615-19.5336965"/><path d="m99.6407782 95.542786c-1.9782724-5.9019455-3.8818366-11.5777743-5.7844047-17.2516109-.6275486 5.1717977 1.032965 9.8624747 2.0091518 14.6687004.2032062 1.0020856.9662257 2.2233152.0209183 2.953463-.9034708.7002646-2.0211051-.2171517-2.9375253-.6285447-8.2507704-3.7015409-13.2352996-9.9003269-14.0192374-19.0505837-.73214-8.5505992 1.6057277-16.4587082 5.5104747-23.9743502.6355176-1.2232218 1.1774008-2.249214 2.9743814-1.4075019 12.3955797 5.8053229 22.432374 23.6645603 18.052482 36.1746926-1.132575 3.2413385-2.587891 6.3023813-5.8262408 8.5157354"/><path d="m66.9116265 139.739144c4.8809338 4.613977 9.7598754 9.224965 14.7922179 13.984374-4.827144 2.985338-11.135502 3.146708-16.3830039-.008965-11.5847471-6.963798-17.42593-17.591285-18.5485448-30.940141-.1613696-1.919501.5986615-2.516171 2.5520311-2.312965 10.0238444 1.043923 19.4271129 3.833028 27.5065526 10.042771 6.2824591 4.827144 8.8006225 11.325759 7.552498 19.211953-.1215253.765012.0239066 1.752156-.8586459 2.054973-.896498.30979-1.3327938-.635518-1.874677-1.141541-4.433681-4.152778-9.0267393-8.112311-13.942537-11.684358-.2032062-.245043-.4313152-.306801-.6484669-.141447-.3406693.257992-.4422724.57077-.1474241.935346"/><path d="m72.4230973 57.4964047c-6.5294942-2.7801401-11.8277977-7.3492919-18.559502-8.8185526 5.0721868 4.4725292 10.7669417 7.9887938 16.4626926 11.5110351-3.3658521 4.6886848-13.8369494 5.7485447-19.2946303 2.496249-9.6413385-5.7475487-14.4684825-15.0173385-18.0176187-25.1627082-.5259455-1.5061167.3077977-2.1436264 1.663502-2.5022257 11.8028949-3.126786 22.8547237-1.7501634 32.3954552 6.2137277 4.8530428 4.0511751 6.4896498 9.6632529 5.3501012 16.2624747"/><path d="m172.240187 128.871595c6.558381-2.275113 12.999222-3.727439 18.899175-6.713774-6.569339.407409-12.776094 2.633712-19.610397 3.896778 1.304903-6.264529 4.741479-10.396389 10.151346-12.577867 9.834584-3.962522 19.602428-3.350911 29.118257 1.329805 1.439378.70923 2.575938 1.382599 1.093728 3.17958-6.321308 7.665058-13.384716 14.34098-23.455378 16.601151-6.322303 1.420452-11.624591-.674365-16.196731-5.715673"/><path d="m157.817525 24.6158444c-2.553027 5.0980856-3.534194 10.6563735-5.026365 16.0662412-5.041308-2.1964202-8.391222-8.9201556-7.134133-14.7593463 1.979269-9.1811362 8.023658-15.5203735 15.168747-21.03981323 1.442366-1.11464591 2.086849-.2779144 2.781137.80684825 5.095097 7.94894938 6.957821 16.45771208 4.240435 25.66873148-1.395548 4.726537-4.585089 7.9310195-9.133323 9.7698366-2.450428.9921245-3.426614.3058055-2.842895-2.4424591.981168-4.6249339 2.04302-9.2488716 1.946397-14.0700389"/><path d="m95.3525292 31.9950195c1.8826459 4.0342412 3.767284 8.0674863 5.6648718 12.1316109-6.1977901 1.2112684-12.5300547-2.2751129-15.2902726-8.5167316-3.1247938-7.0594241-2.7472685-14.3897899-1.3796109-21.7679688.2958444-1.5877977 1.0389416-1.9274709 2.496249-1.4324047 9.0367004 3.0670194 16.2156575 8.3115331 19.7618055 17.4757354 1.839813 4.7524358 1.048903 9.3006693-2.678537 13.6795642-2.687502-4.2932296-5.2235953-8.3454008-7.7616809-12.3985681-.9791751-.4183657-1.024.0806848-.8128249.8287627"/><path d="m222.503844 94.1840934c5.417837-2.230288 10.794833-3.5640778 16.327222-7.1779611-6.724731.2141634-11.903502 2.6008405-17.373136 3.6736498-.007969-5.7844047 2.564981-9.901323 8.029634-11.9084825 8.398195-3.0859455 16.590195-2.1067704 24.487347 1.9912218 1.517073.78593 1.786023 1.6644981.929369 3.1018833-3.500327 5.8750506-7.70291 11.0807159-13.937556 14.2363891-6.613168 3.3469262-13.075922 1.9942102-18.46288-3.9167004"/><path d="m84.4042957 181.825743c2.971393-1.048903 5.9278444-2.152591 8.9281245-3.117821 1.0389417-.335689 2.1735098-1.619673 3.2204203-.53491.9353463.971206.0059766 2.26814-.2679533 3.364856-1.2680467 5.085136-4.6528249 8.202957-9.5885448 9.499891-6.2964047 1.658521-12.5181012.780949-18.679035-1.023004-1.8278599-.535907-2.3458366-1.390568-1.5778366-3.132763 3.5361868-8.02565 9.0038288-13.852887 17.911035-15.737525 4.5093853-.954272 8.137214.759035 11.6833619 3.881837-4.3828794 2.123704-8.3902257 4.066116-12.397572 6.008529-.2271128.200218-.3038132.432311-.1563891.658428.247035.377525.5787393.344653.9243891.132482"/><path d="m25.3210895 134.295409c4.8739611 1.710319 9.6204202.410396 14.3280311.822786-.8676109 5.069198-5.2465058 8.995859-10.6464124 9.357447-7.826428.525946-14.3230506-2.854848-20.44912065-7.225774-1.22621012-.876576-1.20529183-1.650553-.34863813-2.931549 4.31713618-6.45379 16.20669258-11.06179 23.55996888-8.992872 3.748358 1.053884 6.4408405 3.304094 8.2687004 7.22179-5.1309572.609619-9.9222413 1.178397-14.7125292 1.748172"/><path d="m193.719284 90.5104436c-2.713401 2.0619455-5.428794 4.1218988-8.165105 6.1997821-1.957354-5.3102568.250023-11.7580701 5.443735-15.4616031 5.533386-3.949572 11.885572-5.4078755 18.580421-5.7764358 2.225307-.1225214 2.778147.7859299 2.386677 2.7771517-1.611705 8.183035-5.259456 15.1816965-12.208312 20.0397199-4.009338 2.8020546-8.398194 3.5501326-13.275144.7530583 2.819985-2.6765447 5.459674-5.1837509 8.09737-7.6889649.171331-.3406693.512-.9214008.426335-1.0090584-.424343-.438288-.845697.0956264-1.285977.1663502"/><path d="m30.22593 95.7021634c-4.7255409 1.5220545-9.3544592 2.4364825-14.3529339 4.9576346 4.7902879.712218 8.4579611-.8058525 12.233214-1.2969342.950288-.1225214 2.148607-1.1485136 2.8857276-.0448249.6096187.9144281-.1643579 2.0310661-.5478599 3.0012761-1.6057276 4.049183-4.8062257 6.330273-8.8743346 7.130148-6.6948483 1.316856-13.10779767.304809-19.11831908-3.100887-2.15159533-1.219237-2.79607782-2.396638-1.11165758-4.596047 3.172607-4.1428169 6.71078599-7.8503344 11.40046696-10.2290426 6.5842801-3.3389572 12.4115175-1.9772763 17.4856965 4.178677"/><path d="m209.544467 52.4122646c-3.242335 1.7043424-6.485665 3.4076887-9.729992 5.1100389-1.655533-4.8610117.379517-10.2081245 5.151875-12.9165447 5.998568-3.4047004 12.52607-3.6756421 19.191035-2.8558444 1.806942.2221323 2.552031 1.069821 2.064934 2.9136187-1.900576 7.204856-5.669852 13.047035-12.43144 16.5294319-4.459579 2.295035-8.865369 1.9762801-13.270163-1.1734164 3.534195-2.5560155 6.913992-4.9984747 10.29379-7.4439221-.299829-1.0110506-.840716-.1504125-1.270039-.1633619"/><path d="m188.671004 178.958942c-3.878848-1.785028-7.7567-3.569059-11.634553-5.357074 3.313059-4.983533 9.698117-6.904031 15.591098-4.420732 7.408062 3.121806 12.296965 8.959004 16.27642 15.696685 1.07779 1.82786.825774 3.117821-1.224218 3.978459-8.005728 3.364856-16.080187 4.035238-24.100856.263969-5.290335-2.487284-8.126257-6.784498-8.347393-13.090864 4.871969 1.447347 9.529774 2.83393 14.190568 4.217526.721183-.996109-.45821-.882553-.751066-1.287969"/><path d="m27.92193 75.0338988c-3.6766382-.997105-6.5424436-3.4993307-11.1614008-3.483393 3.9595331 2.1037821 7.1749727 3.812109 10.6374475 5.64993-3.7224592 3.3429416-7.6182413 3.8738677-11.7132452 2.4364825-6.75660699-2.3737276-11.1325136-7.2666148-13.91863033-13.7592529-.79688716-1.8597354-.25301168-2.6376965 1.60074708-3.0102413 5.37101945-1.0807782 10.74104285-1.444358 16.06225685.1414475 5.6389727 1.6814319 8.68607 5.9746615 8.4928249 12.0250272"/><path d="m59.227642 163.555113c-2.6894941.29684-4.8630039.510008-7.0295408.787922-2.0280779.257992-4.0461946.58372-5.9786459 1.448342 3.5411673 0 7.0823346.054786 10.6235019-.018926 2.2591751-.044825 2.5221479.796888 1.4075019 2.552031-2.0539766 3.230382-5.0731828 5.027362-8.777712 5.401899-6.582288.667393-12.4722802-1.216249-17.7287471-5.253478-1.837821-1.409494-1.8955953-2.458397-.0697276-3.936623 4.7773385-3.858926 9.7608716-7.230755 16.164856-7.540545 4.9048405-.236077 8.5276887 1.851767 11.3885136 6.559378"/><path d="m195.016218 23.7103813c-4.783315 1.7720778-8.100358 4.3579767-11.950319 6.4737121-1.242148-5.0682023.487097-8.6322802 4.243424-11.218179 5.014412-3.4574942 10.627486-4.3739144 16.611113-3.3658521 2.084856.3526225 2.993307 1.0767937 2.236264 3.4076887-1.481214 4.5721401-3.371828 8.8494319-6.862194 12.2840155-3.364856 3.3140545-7.333354 3.8898055-11.68635 2.6396888-.83972-.2420545-1.980265-.7092296-2.248218-1.3716421-.420358-1.0389416.936342-1.3517198 1.595766-1.883642 2.509199-2.0250895 5.357074-3.6577121 8.060514-6.9657899"/><path d="m224.554833 120.389728c4.126879-.622568 7.932015 1.442365 12.394583.44028-3.982443-1.849775-7.936-1.885634-11.633556-2.876763 2.297027-5.484576 8.256747-7.820451 14.721494-5.603113 5.28137 1.811922 9.464031 5.249494 13.16358 9.362428 1.28 1.422444 1.461292 2.359782-.300825 3.560094-6.191813 4.217525-12.87172 6.021478-20.209058 3.967502-4.348016-1.219238-7.269604-4.045199-8.136218-8.850428"/><path d="m117.573728 14.5820389c.501042 1.9125292 2.561992 2.9614319 2.87477 5.0094319-5.792373 1.1505059-9.258833-.8994864-11.74014-7.0175875-1.509105-3.71747863-3.204483-8.7557977-.486101-11.14247474 2.723362-2.38866926 7.136124.80385992 10.354552 2.72834241 5.376996 3.21942413 6.61516 7.42698833 4.31614 13.65864593-2.158568-.6962802-2.650645-3.1477043-4.404793-4.187642-1.119627-.4651829-1.237168.0318755-.914428.951284"/><path d="m70.9408872 30.2030195c-5.348109.0049805-8.2069417-1.9135253-9.627393-6.3183191-1.3357821-4.1477977-.8935098-8.3095409.1324825-12.4533541.329712-1.325821.9293696-1.99520622 2.4942568-1.72625681 5.0851361.87657591 11.8327782 8.11330741 12.1296186 13.29705841.136467 2.4056031-.3576031 4.2125447-2.5032217 6.0294474-1.6714709-2.9056498-3.3877666-5.2903346-5.0024592-8.0993618-.3038132 3.3548949 1.6943813 5.9846225 2.376716 9.270786"/></g></svg>