<svg height="256" preserveAspectRatio="xMidYMid" viewBox="0 0 256 256" width="256" xmlns="http://www.w3.org/2000/svg"><path d="m240.67075 256h-225.3415005c-8.46634449 0-15.3292495-6.864479-15.3292495-15.329341v-225.3413177c0-8.46639519 6.86290501-15.3293413 15.3292495-15.3293413h225.3415005c8.464812 0 15.32925 6.86294611 15.32925 15.3293413v225.3413177c0 8.464862-6.864438 15.329341-15.32925 15.329341" fill="#161d15"/><path d="m116.890891 105.512348 25.600956-37.091173c4.84024-6.988059 11.087883-10.4820885 18.749048-10.4820885 6.249173 0 11.655434 2.2166588 16.227962 6.6515062 4.567939 4.4348474 6.851908 9.7432023 6.851908 15.9250644 0 4.5694686-1.207001 8.6019825-3.627121 12.096012l-23.08293 33.5634879 28.223009 35.781677c2.822453 3.56134 4.232915 7.728475 4.232915 12.498346 0 6.318013-2.215129 11.741102-6.651506 16.276915-4.434847 4.537343-9.813572 6.802955-16.126996 6.802955-6.922278 0-12.195448-2.248784-15.825628-6.752472l-34.571617-43.138414v23.78816c0 6.787657-1.174875 12.060827-3.527685 15.824099-4.300226 6.851908-10.549399 10.278627-18.7459884 10.278627-7.4592329 0-13.2402914-2.519556-17.3370563-7.558669-3.8305822-4.636779-5.7443436-10.786516-5.7443436-18.443091v-88.1951791c0-7.2573012 1.9458869-13.2357019 5.8453095-17.9397916 4.0982946-4.971802 9.7416724-7.4592328 16.9316631-7.4592328 6.8549677 0 12.5656557 2.4874308 17.1351247 7.4592328 2.553211 2.7536135 4.165605 5.542412 4.837181 8.3648658.403863 1.7485445.605795 5.0054573.605795 9.7768575z" fill="#2cdf72"/></svg>