<svg height="180" preserveAspectRatio="xMidYMid" viewBox="0 0 256 180" width="256" xmlns="http://www.w3.org/2000/svg"><path d="m112.474514 179.503543c-20.8822854 0-39.8308569-11.518172-49.4482283-30.059886l-.2185143-.393143c-1.0669714.061257-2.1385143.092343-3.2109714.092343-32.8621714 0-59.5968-26.740114-59.5968-59.6022856 0-32.8621714 26.7346286-59.5977143 59.5968-59.5977143 12.5988571 0 24.6436571 3.8866286 34.8361143 11.2384.0484571.0356572 1.7746286 1.4208 2.3579428 2.0434286l2.3926858 2.5536c7.4130281 7.9707429 29.3805711 32.1307429 29.3805711 32.1307429l10.659657 11.4797714 25.467429 26.974171 1.114514 1.250743c7.787886 8.458057 18.879086 13.317486 30.405486 13.317486 22.821486 0 41.390629-18.568229 41.390629-41.3906286 0-22.8214857-18.569143-41.3915428-41.390629-41.3915428-9.736229 0-19.197257 3.456-26.640457 9.728l-4.928 6.1522285 10.976914 10.9961143-31.816228-1.8569143-1.948343-31.9643428 9.9008 9.9264 4.854857-6.0406857c5.839543-5.2324572 12.293486-9.0596572 19.3664-11.6086857-7.194514-10.2445715-18.852572-16.3108572-31.498057-16.3108572-12.707657 0-25.7984 7.264-33.343086 18.5088l-.909714 1.3577143-11.8875431-12.9682286.6573714-.8585143c4.1526857-5.3915428 9.2781717-10.1586285 14.8251427-13.78742853 9.443657-6.1632 20.046629-9.42262857 30.657829-9.42262857 20.912457 0 39.781485 11.4697143 49.435428 29.9904.7616-.0301714 1.524115-.0475429 2.296686-.0475429 32.862171 0 59.601371 26.7355429 59.601371 59.5977143 0 32.8621716-26.7392 59.6022856-59.601371 59.6022856-13.083429 0-26.021486-4.418743-36.432457-12.4416l-69.8825144-75.2521141-3.6114286-3.5373715c-7.3874286-6.2747428-16.8914286-9.7627428-26.688-9.7627428-22.8214857 0-41.3869714 18.5700571-41.3869714 41.3915428 0 22.8223996 18.5654857 41.3906286 41.3869714 41.3906286 8.9462857 0 17.7764571-2.9632 24.9398857-8.357486l5.4336-4.907885 1.2123429-1.576229-10.7684572-10.791314 31.8125716 1.852343 1.955657 31.969828-10.122971-10.128457-1.141029 1.472914c-6.2811429 6.615772-13.9757714 11.700115-22.4128 14.869029 7.1643429 10.6816 18.9961143 17.009371 31.968914 17.009371 11.770515 0 24.465372-6.746514 32.349257-17.191314l.928-1.234286 11.770515 12.847543-.714972.862172c-11.1744 13.492114-28.16 21.876114-44.3328 21.876114" fill="#da5024"/></svg>