<svg height="273" preserveAspectRatio="xMidYMid" viewBox="0 0 256 273" width="256" xmlns="http://www.w3.org/2000/svg"><path d="m235.064998 64.604c34.744 53.273 24.716 120.053-18.778 152.069-38.21 28.125-95.885 25.379-128.3669998-13.767 41.9719998 7.829 85.2079998 5.441 116.1979998-24.114 30.806-29.38 38.865-66.941 30.947-114.188" fill="#6cc24a"/><path d="m56.8199997 23.861c52.3000003-36.192 119.3300003-27.999 152.5260003 14.6 29.163 37.424 28.332 82.173-1.877 122.023 6.675-42.17-5.262-78.651-35.655-108.819-30.214-29.988-67.982-37.014-114.9940003-27.804" fill="#a77bca"/><path d="m22.8610566 199.116937c-36.192-52.3-27.99899999-119.33 14.6-152.526 37.424-29.164 87.0950004-26.222 126.9450004 9.772-42.171-6.676-83.5730004-2.633-113.7410004 27.76-29.988 30.214-37.014 67.982-27.804 114.994" fill="#ef3340"/><path d="m193.330815 239.545c-31.572 18.785-67.758 24.99-97.9000002 16.112l-60.215 17.632 6.224-56.236c-.35-.519-.694-1.04-1.031-1.563-25.275-39.17-16.762-99.995 19.231-126.99-9.551 41.614-8.104 85.773 20.149 117.953 28.0870002 31.99 65.9790002 43.376 113.5420002 33.092" fill="#009cde"/></svg>