<svg height="297" preserveAspectRatio="xMidYMid" viewBox="0 0 256 297" width="256" xmlns="http://www.w3.org/2000/svg"><path d="m127.83365 0 2.865805 6.44681712v63.99003888l-2.865805 4.059144-5.595144.4890895-56.0062258-32.7231751-2.1496032-5.0144125z" fill="#c5e3eb"/><path d="m.33170428 74.496 1.43240467 4.5362802 55.55498835 31.8346458 6.7635797.160374 2.6267393-4.298211v-65.4224431l-2.6267393-4.059144z" fill="#c5e3eb"/><path d="m.33170428 222.053603 2.38767315-4.655813 57.23841247-32.798879 4.1248871.923393 5.2534786-1.432405 56.5451204 32.402428 1.952374 5.561276 2.03007 3.582008v68.048187l-2.03007 2.865805z" fill="#78abdb"/><path d="m64.082677 37.2475019 63.750973 37.2484981 2.865805 6.445821v60.647097l-2.865805 6.685884-7.762677-.707238-53.9582259-31.526848-2.0300701-5.013416z" fill="#a4c0c5"/><path d="m127.83365 148.274802-1.307891 3.744373-56.1157979 32.786926-6.3272841.716203-1.9095408-4.655814v-67.331984l1.9095408-2.507206z" fill="#7ba6c1"/><path d="m.33170428 222.053603 63.75097272-36.531299v-74.495004l-63.75097272-36.5313z" fill="#98c3e4"/><path d="m127.83365 148.274802 1.671471 4.655813v63.750973l-1.671471 5.372015-63.750973-36.531299z" fill="#4b7c9e"/><path d="m127.83365 296.549603v-74.496l3.175595-.847689 57.233432 33.439378 3.341946 4.656809z" fill="#f4bc6a"/><path d="m127.83365 148.274802v73.778801l63.750973 37.248498 2.03007-5.373012v-63.750972l-2.03007-4.655813-3.700545-5.013417-55.734288-32.563798z" fill="#b48340"/><path d="m191.584623 111.0273 2.03007 3.223408v65.89958l-2.03007 5.372016-63.750973-37.247502 2.937525-4.687689 53.889494-31.486008z" fill="#8c3d33"/><path d="m127.83365 74.496 4.178677-1.0748016 57.19558 32.7749726 2.376716 4.831129-63.750973 37.247502z" fill="#c47973"/><path d="m191.584623 259.302101v-73.779797l3.682614-.835736 57.084016 32.711222 2.984342 4.655813z" fill="#f4bc6a"/><path d="m255.335595 74.496h-5.141914l-56.388732 32.312778-2.220326 4.218522v74.495004l63.750972 36.531299z" fill="#bb6651"/><path d="m127.83365 0v74.496l63.750973 36.5313 63.750972-36.5313z" fill="#e1938a"/></svg>