<svg height="264" preserveAspectRatio="xMidYMid" viewBox="0 0 256 264" width="256" xmlns="http://www.w3.org/2000/svg"><g fill="#4971a9"><path d="m0 219.977836v.955614c0 23.41254 18.8733742 42.285914 42.2859143 42.285914s42.2859142-18.873374 42.2859142-42.285914v-46.586177z"/><path d="m255.673376 220.21674c-.716711-9.078332-4.539166-17.439954-10.98956-23.890347v-.238904l-75.971304-67.131875-73.8211719 39.657976 95.3224849 84.810732c7.167104 6.21149 16.245436 9.556139 25.801575 9.556139 1.194517 0 2.389034 0 3.344648-.238904 10.511753-.955614 20.067892-5.972586 26.757189-13.856401 7.167104-7.883815 10.272849-18.156664 9.556139-28.668416z"/><path d="m84.5718285 48.2062409v-4.539166-.9556138c0-23.4125401-19.1122776-42.28591429-42.2859142-42.28591429-23.4125401 0-42.2859143 18.87337419-42.2859143 42.28591429v51.842053z"/></g><path d="m0 112.710178 197.57317-107.74546526c5.733683-3.10574511 12.184077-4.53916593 18.634471-4.53916593 4.061359 0 8.122718.71671041 12.184077 1.91122776 20.784602 6.68929717 32.013065 28.90731993 25.323768 49.69192183-2.866842 8.6005249-8.361622 16.0065325-16.006533 21.0235054v.2389035l-2.389035 1.4334208-235.319918 127.0966459z" fill="#f58a1f"/></svg>