<svg height="256" preserveAspectRatio="xMidYMid" viewBox="0 0 256 256" width="256" xmlns="http://www.w3.org/2000/svg"><g fill="#f35045"><path d="m160.444667 208c2 2.888667 3.222 2.666667 4.777333 2s81.556-27.666667 84-28.555333c2.444-.888667 1.666667-1.666667.889333-2.889334-.777333-1.222666-27.444666-37.444-28.778-39.555333-1.333333-2.111333-2-1.666667-4.111333-1l-84.805333 22.066667s26.028 45.044666 28.028 47.933333z"/><path d="m256 171.115333v-42.398666c-9.541333 2.542666-21.608667 5.756-26.372667 7.023333 7.186667 9.616 18.422667 24.664667 26.372667 35.375333z"/><path d="m229.545333 83.5213333c-1.307333.2966667-30.247333 5.5266667-32.03 5.764-1.782666.2373334-1.188666 1.248-.475333 2.258l25.467333 34.9426667s31.138667-7.725333 33.040667-8.141333c.154-.034.304667-.07.452-.106667v-4.626667c-5.66-7.177333-21.080667-26.7179997-22.413333-28.5439997-1.604-2.1993333-2.734-1.8426666-4.041334-1.546z"/><path d="m47.456 28.634c6.2666667-.2846667 6.8386667 1.1413333 9.592 5.224l69.170667 115.642 86.973333-20.835333c-4.818667-6.830667-26.695333-37.8460003-28.809333-40.8053337-2.376667-3.328.059333-4.8733333 3.922-5.5266666 3.862666-.6533334 37.14-6.2393334 39.992666-6.6553334 2.852667-.416 5.111334-1.426 9.746 4.16 2.371334 2.858 10.412 12.87 17.956667 22.2546667v-54.092c0-13.222-4.694667-24.528-14.083333-33.9166667-9.388667-9.38866663-20.694667-14.0833333-33.916667-14.0833333h-160c-13.222 0-24.528 4.69466667-33.9166667 14.0833333-5.3853333 5.3853334-9.21799997 11.404-11.51466663 18.0506667 15.67800003-1.288 40.50133333-3.3006667 44.88733333-3.5z"/><path d="m168.288667 223.564c-7.334 2.222-10.622667 3.324667-15.4-3.342-3.578-4.993333-22.926667-39.843333-32.414-57.023333-17.954667 4.702666-50.8140003 13.278666-60.2893337 15.555333-9.2486666 2.222-13.198-3.322667-14.7173333-6.740667-1.0653333-2.396666-28.1786667-60.854-45.468-98.3626663v134.3493333c0 13.222667 4.69466667 24.527333 14.0833333 33.916667 9.3886667 9.388666 20.6946667 14.083333 33.9166667 14.083333h160c13.222 0 24.528-4.694667 33.916667-14.083333 9.388666-9.389334 14.083333-20.694 14.083333-33.916667v-15.781333c-19.640667 7.184-82.77 29.848-87.711333 31.345333z"/><path d="m60.412 165.288c2.5993333-.594667 51.312667-12.253333 52.352667-12.476s1.708-.817333.594-2.747333-64.9333337-112.0893337-64.9333337-112.0893337c-.5893333-1.0113333-.4213333-1.348-2.022-1.264-1.4273333.0753334-37.53799997 3.2973334-45.89866663 3.996-.24666667 1.7386667-.39533334 3.5173334-.46066667 5.3306667 8.48733333 17.3746667 57.1986667 117.836667 57.472 118.655333.2973333.891334.2966667 1.188667 2.896.594667z"/></g></svg>