<svg height="131" preserveAspectRatio="xMidYMid" viewBox="0 0 512 131" width="512" xmlns="http://www.w3.org/2000/svg"><g fill="#d41107"><path d="m114.409975 120.16185-6.03279-16.398442s-9.8031032 10.933258-24.5037858 10.933258c-13.0079775 0-22.2441975-11.310217-22.2441975-29.4071427 0-23.1851509 11.685732-31.4789732 23.1858731-31.4789732 16.5869222 0 21.8650722 10.7447785 26.3893032 24.5052299l6.03279 18.8501213c6.030623 18.2839607 17.34084 32.9860877 49.950691 32.9860877 23.375797 0 39.209523-7.162223 39.209523-26.0109 0-15.26901-8.672948-23.1865953-24.883633-26.9569085l-12.063413-2.6387136c-8.2931-1.8847955-10.743335-5.2781496-10.743335-10.9332582 0-6.4090268 5.088226-10.1786177 13.383493-10.1786177 9.04774 0 13.948208 3.393354 14.702849 11.4986967l18.849399-2.2624767c-1.507836-16.9646037-13.194291-23.9390691-32.422093-23.9390691-16.963882 0-33.552248 6.4090268-33.552248 26.955464 0 12.8180536 6.220547 20.9241185 21.864349 24.6937095l12.82022 3.0156728c9.61318 2.2624767 12.815888 6.2205472 12.815888 11.6871758 0 6.973022-6.785264 9.800937-19.603318 9.800937-19.038601 0-26.954742-9.990138-31.479695-23.7505896l-6.220547-18.848677c-7.915419-24.5052299-20.545715-33.5536925-45.6171062-33.5536925-27.7086601 0-42.4122313 17.5300423-42.4122313 47.3126996 0 28.6532245 14.7035712 44.1085475 41.0943188 44.1085475 21.2989107 0 31.4796957-9.990139 31.4796957-9.990139"/><path d="m33.7428942 111.301867c-1.8855176.566161-3.7703131.942398-6.2205472.942398-4.5242313 0-7.7291058-2.072553-7.7291058-7.540626v-102.73579697h-19.7932412v107.44922997c0 14.13741 9.80310296 19.983165 21.3010776 19.983165 3.7703131 0 7.3521467-.566883 11.876378-1.696316z"/><path d="m272.183966 108.286195c-4.90119 3.394798-9.04774 5.091836-14.702849 5.091836-7.163667 0-11.12246-3.770313-11.12246-13.007255v-44.1128804h26.014511v-15.4560451h-25.826031v-20.9255628l-19.980999 2.4509563v18.4746065h-12.631018v15.4560451h12.631018v48.2579864c0 17.345895 9.990138 25.636107 26.201546 25.636107 8.859983 0 16.777568-1.69415 22.998116-5.275261z"/><path d="m289.376045 115.071458c0 7.73055 6.03279 13.951098 13.760451 13.951098 8.106787 0 14.138855-6.220548 14.138855-13.951098 0-7.916863-6.032068-13.946764-14.138855-13.946764-7.727661 0-13.760451 6.029901-13.760451 13.946764"/><path d="m337.766183 56.2578956v71.6330604h19.793242v-71.6330604h22.243475v-15.4560451h-22.243475v-7.9183075c0-11.8749337 5.090392-15.6445247 13.384214-15.6445247 5.843588 0 9.802381 1.3179126 14.326612 3.769591l3.20343-16.58981099c-5.276705-2.45095628-11.497974-3.77031312-19.037878-3.77031312-16.589811 0-31.66962 7.91686319-31.66962 31.48041751v8.6729478h-12.630296v15.4560451z"/><path d="m458.672564 57.956378c-2.262477-14.1381326-11.498697-19.229969-23.563554-19.229969-12.064136 0-22.431233 5.4673512-26.956908 18.8508435l-2.449512-16.775402h-16.023651v87.0891055h19.793242v-49.1989391c0-16.7790127 8.671503-23.1880395 17.908445-23.1880395 9.613902 0 13.572694 6.4090268 13.572694 16.7775684v55.6094102h19.604762v-49.3874186c0-16.5905332 8.859261-22.99956 18.096925-22.99956 9.425422 0 13.38277 6.4090268 13.38277 16.7775684v55.6094102h19.793963v-62.5824313c0-18.6623639-10.933258-26.5821157-25.449071-26.5821157-12.251171 0-23.185874 5.4673512-27.710105 19.229969"/></g></svg>