<svg height="342" preserveAspectRatio="xMidYMid" viewBox="0 0 256 342" width="256" xmlns="http://www.w3.org/2000/svg"><path d="m87.4121 291.88584h38.781s-16.325 45.268-19.462 49.688c-3.635-4.705-19.319-49.688-19.319-49.688zm42.5594 0h38.781s-16.325 45.268-19.462 49.688c-3.635-4.705-19.319-49.688-19.319-49.688zm-2.0296-136.0051c-20.542 0-37.195-16.653-37.195-37.195 0-20.5430001 16.653-37.1960001 37.195-37.1960001s37.195 16.653 37.195 37.1960001c0 20.542-16.653 37.195-37.195 37.195zm125.422 70.324c-5.238-26.508-17.327-49.408-36.176-68.738-.451-.462-1.412-1.187-1.412-1.187s-.101-2.277-.114-3.475c-.128-11.406-1.586-22.556-3.992-33.718-8.803-40.8490001-30.092-74.2260001-60.905-101.9340001-7.201-6.476-22.676-16.99999998-22.595-17.05999999 1.774-1.302-15.932 11.44499999-22.215 16.91699999-12.98 11.307-24.214 23.64-34.006 38.107-19.483 28.788-30.381 60.2010001-31.271 95.0110001-.049 1.927 0 5.981 0 5.981s-2.136 1.623-3.93 3.588c-29.99 34.177-42.628 73.241-34.177 118.507 1.49 7.98 7.709 14.568 15.607 15.579 8.905 1.14 16.395-2.974 20.62-11.563 6.383-12.975 14.762-24.546 24.721-35.031 1.99-2.094 2.082-2.049 3.411.194 4.007 6.763 8.649 13.096 13.512 19.275 1.115 1.417.678.923 1.817 2.547h91.48c4.785-6.094 11.229-15.108 15.151-21.788 1.463-2.492 1.612-2.64 3.796-.334 10.186 10.757 18.312 22.863 24.914 36.102 3.873 7.768 11.509 11.738 20.106 10.541 7.518-1.046 14.009-7.236 15.607-14.924 3.63-17.469 3.519-35.046.051-52.597m-105.4288-107.4625c0 11.011-8.926 19.936-19.936 19.936-11.011 0-19.937-8.925-19.937-19.936s8.926-19.9360001 19.937-19.9360001c11.01 0 19.936 8.9250001 19.936 19.9360001" fill="#0092f2"/></svg>