<svg height="199" preserveAspectRatio="xMidYMid" viewBox="0 0 256 199" width="256" xmlns="http://www.w3.org/2000/svg"><g transform="translate(138.880182)"><path d="m84.5545584 66.6799734h-14.7659615v-7.6161275c0-6.0618157-4.9737975-11.0356133-11.0356133-11.0356133s-11.0356133 4.9737976-11.0356133 11.0356133v7.6161275h-14.7659615v-7.6161275c0-14.2996679 11.657338-25.8015748 25.8015748-25.8015748 14.299668 0 25.8015748 11.657338 25.8015748 25.8015748z" fill="#ffa400"/><path d="m90.6163742 66.6799734h-63.7267812c-2.7977611 0-4.9737975 2.1760365-4.9737975 4.9737976v47.095646c0 2.797761 2.1760364 4.973797 4.9737975 4.973797h63.7267812c2.7977611 0 4.9737975-2.176036 4.9737975-4.973797v-47.095646c-.1554312-2.7977611-2.3314676-4.9737976-4.9737975-4.9737976zm-28.7547671 30.9308036v6.372678c0 1.709743-1.3988806 3.264055-3.2640547 3.264055-1.7097429 0-3.2640546-1.398881-3.2640546-3.264055v-6.372678c-2.0206053-1.0880182-3.2640547-3.2640547-3.2640547-5.7509535 0-3.5749169 2.9531923-6.5281092 6.5281093-6.5281092s6.5281093 2.9531923 6.5281093 6.5281092c.1554312 2.4868988-1.2434494 4.6629353-3.2640546 5.7509535z" fill="#003a70"/><g fill="#ffa400"><path d="m20.3614837 59.6855706h-15.38768615c-2.48689877 0-4.50750403-2.0206052-4.50750403-4.507504s2.02060526-4.507504 4.50750403-4.507504h15.38768615c2.4868988 0 4.5075041 2.0206052 4.5075041 4.507504s-2.0206053 4.507504-4.5075041 4.507504z"/><path d="m31.2416659 35.4383076c-.9325871 0-2.0206053-.3108624-2.7977611-1.0880183l-12.1236316-9.9475951c-1.8651741-1.5543117-2.1760364-4.3520728-.6217247-6.3726781 1.5543118-1.8651741 4.3520729-2.1760364 6.3726781-.6217247l12.1236316 9.9475951c1.8651741 1.5543118 2.1760364 4.3520729.6217247 6.3726782-1.0880182 1.0880182-2.3314676 1.7097429-3.574917 1.7097429z"/><path d="m58.7529836 24.8689878c-2.4868988 0-4.507504-2.0206053-4.507504-4.5075041v-15.54311732c0-2.48689878 2.0206052-4.50750403 4.507504-4.50750403s4.507504 2.02060525 4.507504 4.50750403v15.54311732c0 2.4868988-2.0206052 4.5075041-4.507504 4.5075041z"/><path d="m86.1088701 35.4383076c-1.2434494 0-2.6423299-.6217247-3.4194858-1.7097429-1.5543117-1.8651741-1.2434494-4.8183664.6217247-6.3726782l12.1236315-9.9475951c1.8651741-1.5543117 4.8183665-1.2434494 6.3726785.6217247 1.554311 1.8651741 1.243449 4.8183664-.621725 6.3726781l-12.1236316 9.9475951c-.932587.7771559-1.8651741 1.0880183-2.9531923 1.0880183z"/><path d="m112.376738 59.6855706h-15.5431169c-2.4868988 0-4.507504-2.0206052-4.507504-4.507504s2.0206052-4.507504 4.507504-4.507504h15.5431169c2.486899 0 4.507504 2.0206052 4.507504 4.507504s-2.020605 4.507504-4.507504 4.507504z"/></g></g><path d="m.39100655 123.101489v-50.2042686h12.12363155v39.6349496h19.4288967v10.569319zm71.65377095-17.25286v1.398881 1.39888h-25.6461436c.1554312.932587.4662935 1.865174.932587 2.64233.4662936.777156 1.0880183 1.554312 1.8651741 2.020605.7771559.621725 1.7097429 1.088019 2.64233 1.398881.932587.310862 2.0206052.466294 2.9531923.466294 1.8651741 0 3.4194858-.310863 4.6629352-1.088019 1.2434494-.621724 2.3314676-1.554311 3.1086235-2.64233l8.082421 5.129229c-1.7097429 2.486899-3.8857794 4.196642-6.5281093 5.595522-2.64233 1.24345-5.9063846 2.020606-9.4813016 2.020606-2.6423299 0-5.1292287-.466294-7.4606963-1.24345s-4.3520729-2.020605-6.217247-3.574917c-1.7097429-1.554311-3.1086234-3.574917-4.1966417-5.906384-1.0880182-2.331468-1.5543117-4.973798-1.5543117-7.92699s.4662935-5.440091 1.5543117-7.7715589c.9325871-2.3314676 2.3314677-4.3520728 4.0412106-5.9063846 1.7097429-1.5543117 3.7303481-2.9531923 6.0618157-3.7303481 2.3314676-.9325871 4.8183664-1.3988806 7.4606964-1.3988806 2.6423299 0 4.9737975.4662935 7.1498339 1.2434494 2.1760365.932587 4.0412105 2.1760364 5.5955223 3.7303482 1.5543117 1.7097429 2.7977611 3.7303481 3.574917 6.0618157.932587 2.4868989 1.3988805 5.1292289 1.3988805 8.0824209zm-10.7247509-4.352073c0-1.8651738-.6217247-3.4194855-1.7097429-4.8183661-1.0880183-1.3988805-2.9531923-2.0206052-5.2846599-2.0206052-1.0880183 0-2.1760365.1554311-3.1086235.4662935-.9325871.3108623-1.7097429.7771559-2.4868988 1.3988806-.7771559.6217246-1.2434494 1.3988805-1.7097429 2.1760364-.4662935.7771558-.6217247 1.7097428-.7771559 2.6423298h15.0768239zm29.3764918-4.9737972v13.5225122c0 1.709743.3108623 2.953192.932587 3.730348s1.7097429 1.243449 3.4194858 1.243449c.6217247 0 1.2434494 0 1.8651741-.155431s1.2434494-.310862 1.5543117-.466293l.1554312 8.548714c-.7771559.310863-1.8651741.466294-3.1086235.777156-1.2434494.155431-2.4868987.310862-3.7303481.310862-2.3314676 0-4.3520729-.310862-5.9063846-.932587-1.5543118-.621724-2.9531923-1.39888-3.8857794-2.486898-.932587-1.088019-1.7097429-2.486899-2.0206052-4.041211-.3108624-1.554312-.6217247-3.264055-.6217247-5.129229v-14.9213922h-5.7509534v-8.7041458h5.5955222v-9.3258704h11.5019069v9.3258704h8.2378522v8.7041458zm18.9626036-24.5581255c-3.419486 0-6.217247 2.4868988-6.217247 5.7509535 0 3.4194858 2.331467 5.5955222 5.750953 5.5955222.310862 0 .621725 0 .777156-.1554312-.621725 2.4868988-2.953192 4.3520729-5.28466 4.6629352h-.466294v5.4400911h.621725c2.797761-.3108623 5.440091-1.5543117 7.460696-3.4194858 2.64233-2.4868988 4.041211-6.217247 4.041211-10.5693198 0-4.1966417-2.797761-7.3052652-6.68354-7.3052652zm26.889593 26.2678684c-.932587-.9325871-2.020606-1.7097429-3.264055-2.3314676s-2.64233-.9325871-4.041211-.9325871c-1.088018 0-2.020605.1554312-2.953192.6217247s-1.39888 1.0880182-1.39888 2.1760364c0 .9325871.466293 1.7097429 1.554311 2.1760365 1.088018.4662934 2.64233.9325874 4.973798 1.3988804 1.39888.310862 2.64233.621725 4.04121 1.24345 1.398881.621724 2.486899 1.243449 3.574917 2.020605 1.088019.777156 2.020606 1.865174 2.64233 3.108623.621725 1.24345.932587 2.64233.932587 4.352073 0 2.176037-.466293 4.041211-1.39888 5.595522-.932587 1.554312-2.020606 2.797761-3.574917 3.730349-1.398881.932587-3.108624 1.554311-4.818367 2.020605-1.865174.466293-3.574917.621724-5.440091.621724-2.953192 0-5.750953-.466293-8.393283-1.39888-2.797761-.932587-5.129229-2.331468-6.838972-4.041211l6.52811-6.838971c1.088018 1.088018 2.331467 2.020605 3.885779 2.797761s3.108623 1.088018 4.818366 1.088018c.932587 0 1.865174-.155431 2.797761-.621725.932587-.466293 1.398881-1.243449 1.398881-2.331467s-.621725-1.865174-1.709743-2.486899c-1.088018-.466293-2.953192-1.088018-5.28466-1.554312-1.243449-.310862-2.486899-.621724-3.730348-1.088018-1.243449-.466293-2.331468-1.088018-3.264055-1.865174s-1.709743-1.865174-2.331467-2.953192c-.621725-1.24345-.932587-2.64233-.932587-4.196642 0-2.1760364.466293-3.8857793 1.39888-5.4400911.932587-1.5543117 2.020606-2.6423299 3.419486-3.574917 1.398881-.932587 2.953192-1.7097429 4.662935-2.0206052 1.709743-.4662935 3.419486-.6217247 5.129229-.6217247 2.64233 0 5.28466.4662935 7.771559 1.2434494 2.486898.7771558 4.662935 2.0206052 6.372678 3.7303481zm-136.15770845 83.0002463v-50.204269h33.72856465v10.258458h-22.0712266v9.481301h20.8277772v9.636733h-20.8277772v10.413889h23.314676v10.413888zm65.59195525 0v-19.273465c0-.932587-.1554312-1.865174-.3108624-2.797761s-.4662935-1.709743-.7771558-2.331468c-.3108624-.621725-.9325871-1.243449-1.5543118-1.554312-.6217247-.466293-1.5543117-.621724-2.6423299-.621724s-2.0206053.155431-2.7977612.621724c-.7771558.466294-1.3988805.932587-2.0206052 1.709743-.4662935.777156-.9325871 1.554312-1.2434494 2.486899s-.4662935 1.865174-.4662935 2.797761v19.118034h-11.657338v-35.282876h11.1910445v4.818366h.1554311c.4662936-.777155.9325871-1.554311 1.7097429-2.176036.6217247-.777156 1.5543118-1.398881 2.3314676-1.865174.9325871-.466294 1.8651741-.932587 2.9531923-1.243449 1.0880183-.310863 2.1760365-.466294 3.4194859-.466294 2.3314676 0 4.3520728.466294 6.0618157 1.243449 1.7097429.777156 2.9531923 2.020606 4.0412105 3.264055 1.0880183 1.398881 1.7097429 2.953192 2.1760365 4.662935.4662935 1.709743.6217247 3.419486.6217247 5.28466v21.760364h-11.1910445zm41.6555542-23.9364c-.621724-.777156-1.554311-1.554312-2.64233-2.020606-1.088018-.466293-2.331467-.777156-3.419485-.777156-1.24345 0-2.3314681.310863-3.2640551.777156-.9325871.466294-1.8651741 1.088019-2.4868988 2.020606s-1.2434494 1.709743-1.7097429 2.797761-.6217247 2.176036-.6217247 3.419486c0 1.243449.1554312 2.331467.6217247 3.419485.3108623 1.088019.932587 2.020606 1.7097429 2.797761.7771559.777156 1.5543117 1.554312 2.6423299 2.020606 1.0880182.466293 2.176036.777156 3.419486.777156 1.243449 0 2.331467-.155432 3.574917-.621725 1.088018-.466294 2.020605-1.088018 2.797761-2.020605l6.372678 7.926989c-1.39888 1.398881-3.419486 2.486899-5.595522 3.264055-2.331468.777156-4.818367 1.24345-7.305265 1.24345-2.7977614 0-5.4400914-.466294-7.771559-1.24345-2.4868988-.777156-4.507504-2.020605-6.3726781-3.730348-1.7097429-1.554312-3.1086235-3.574917-4.1966417-5.906385-1.0880182-2.331467-1.5543117-4.973797-1.5543117-7.926989 0-2.953193.4662935-5.440092 1.5543117-7.771559 1.0880182-2.331468 2.4868988-4.352073 4.1966417-5.906385 1.7097429-1.554311 3.8857793-2.953192 6.3726781-3.730348 2.4868988-.932587 4.9737976-1.243449 7.771559-1.243449 1.243449 0 2.486898.155431 3.730348.310862 1.243449.310862 2.486899.621725 3.574917.932587 1.088018.466294 2.176036.932587 3.264054 1.554312.932588.621725 1.865175 1.243449 2.486899 2.020605zm33.883996-1.709743c-.466293-.155431-1.088018-.310863-1.554312-.310863h-1.39888c-1.554312 0-2.797761.310863-3.88578.777156-1.088018.621725-1.865174 1.24345-2.486898 2.020605-.621725.777156-1.088019 1.709743-1.398881 2.64233s-.466293 1.709743-.466293 2.486899v18.030016h-11.657338v-35.282876h11.191044v5.129229h.155431c.932587-1.865174 2.176037-3.264055 3.88578-4.352073s3.574917-1.709743 5.750953-1.709743h1.398881c.466293 0 .777155.155431 1.088018.155431zm27.355887 30.930803c-.777156 1.865174-1.554312 3.419486-2.331468 4.973798-.932587 1.39888-1.865174 2.64233-3.108623 3.730348-1.24345 1.088018-2.64233 1.709743-4.196642 2.331468-1.554312.466293-3.574917.777155-5.750954.777155-1.088018 0-2.176036 0-3.419485-.155431-1.088019-.155431-2.176037-.310862-2.953193-.621724l1.24345-9.792164c.621724.155431 1.243449.310862 1.865174.466293s1.243449.155431 1.865174.155431c1.865174 0 3.108623-.466293 3.885779-1.243449s1.554312-2.020605 2.020605-3.574917l1.088019-2.953192-14.765962-34.661152h12.900788l7.926989 22.692951h.155432l6.994402-22.692951h12.279063zm58.131259-23.003813c0 2.486898-.310863 4.818366-1.088019 7.149834-.777156 2.331467-1.865174 4.196641-3.264054 6.061815-1.398881 1.709743-3.264055 3.108624-5.28466 4.196642s-4.507504 1.554312-7.149834 1.554312c-2.176037 0-4.196642-.466294-6.217247-1.24345-1.865174-.932587-3.419486-2.020605-4.507504-3.574917h-.155431v20.983209h-11.657338v-52.224875h11.035613v4.352073h.155431c1.088018-1.39888 2.64233-2.64233 4.507504-3.730348s4.196642-1.554312 6.838972-1.554312c2.486899 0 4.818366.466294 6.994403 1.554312 2.020605.932587 3.885779 2.331468 5.284659 4.041211 1.398881 1.709743 2.486899 3.730348 3.264055 5.906384.777156 1.709743 1.24345 4.041211 1.24345 6.52811zm-11.346476 0c0-1.088019-.155431-2.176037-.466294-3.264055-.310862-1.088018-.932587-2.020605-1.554311-2.797761-.621725-.777156-1.554312-1.554312-2.64233-2.020605-1.088019-.466294-2.176037-.777156-3.574917-.777156-1.398881 0-2.486899.310862-3.574917.777156-1.088019.466293-1.865174 1.243449-2.64233 2.020605s-1.24345 1.865174-1.709743 2.953192c-.466294 1.088018-.621725 2.176036-.621725 3.264055 0 1.088018.155431 2.176036.621725 3.264054.466293 1.088019.932587 2.020606 1.709743 2.953193.777156.777156 1.554311 1.554311 2.64233 2.020605 1.088018.466293 2.176036.777156 3.574917.777156 1.39888 0 2.64233-.310863 3.574917-.777156 1.088018-.466294 1.865174-1.243449 2.64233-2.020605.621724-.777156 1.243449-1.865174 1.554311-2.953193.310863-1.243449.466294-2.331467.466294-3.419485zm29.842785-8.859577v13.522512c0 1.709743.310863 2.953192.932587 3.730348.621725.777156 1.709743 1.243449 3.419486 1.243449.621725 0 1.243449 0 1.865174-.155431s1.24345-.310862 1.554312-.466293l.155431 8.548714c-.777156.310862-1.865174.466294-3.108623.777156-1.24345.155431-2.486899.310862-3.730349.310862-2.331467 0-4.352072-.310862-5.906384-.932587-1.554312-.621724-2.953192-1.39888-3.88578-2.486898-.932587-1.088019-1.709742-2.486899-2.020605-4.041211-.310862-1.554312-.621724-3.264055-.621724-5.129229v-14.921392h-5.595523v-8.704146h5.595523v-9.32587h11.346475v9.32587h8.237852v8.704146z" fill="#003a70"/></svg>