<svg height="194" preserveAspectRatio="xMidYMid" viewBox="0 0 256 194" width="256" xmlns="http://www.w3.org/2000/svg"><path d="m236.651163 193.180981c10.686068 0 19.348837-8.66277 19.348837-19.348837 0-10.686068-8.662769-19.348838-19.348837-19.348838s-19.348837 8.66277-19.348837 19.348838c0 10.686067 8.662769 19.348837 19.348837 19.348837zm-137.3587216-68.385585c-14.4241312 0-26.1605128-11.050698-26.1605128-24.705225 0-13.6106726 11.7363816-24.65539 26.1605128-24.65539 14.4769666 0 26.1864016 11.0442194 26.1864016 24.65539 0 13.654527-11.709435 24.705225-26.1864016 24.705225zm-56.1061709-124.79439932c-23.7496221 0-43.1862705 17.66616662-43.1862705 40.06656692v151.6250454h155.431898c23.742754 0 41.033218-23.334789 41.033218-45.72871v-145.963899h-153.2762037z" fill="#0f80aa"/></svg>