<svg height="318" preserveAspectRatio="xMidYMid" viewBox="0 0 256 318" width="256" xmlns="http://www.w3.org/2000/svg"><path d="m209.255 159.9c0 20.398-16.542 43.912-36.931 52.519l-135.402 57.17c-20.389 8.616-36.922-.936-36.922-21.334v-135.409c0-20.39 16.533-43.896 36.922-52.511l135.402-57.17c20.389-8.607 36.931.945 36.931 21.342z" fill="#4861b4"/><path d="m238.19 44.996v134.946c0 20.389-16.534 43.904-36.931 52.51l-135.402 57.171c-6.998 2.96-13.531 3.739-19.112 2.703v.456c0 20.381 16.534 29.941 36.923 21.334l135.41-57.17c20.389-8.615 36.922-32.122 36.922-52.519v-135.402c0-13.39-7.147-22.055-17.81-24.029" fill="#25336d"/><path d="m186.728 262.083c-17.437 0-32.221-6.202-44.368-18.639-12.139-12.429-18.208-27.371-18.208-44.825v-91.978l32.892-13.888-58.994-50.015-53.672 97.575 35.157-14.842v73.107c0 29.261 10.538 54.169 31.599 74.699 7.827 7.62 17.966 14.831 26.921 19.623l70.271-30.817z" fill="#fff"/></svg>