<svg height="130" preserveAspectRatio="xMidYMid" viewBox="0 0 512 130" width="512" xmlns="http://www.w3.org/2000/svg"><g fill="#1a1918"><path d="m0 19.1635571h19.9868963v72.8047803h37.0106714v18.4427976h-56.9975677z"/><path d="m75.4304675 17.8111213c6.1520984 0 11.1452232 4.9931247 11.1452232 11.1398242 0 6.1565976-4.9931248 11.1380246-11.1452232 11.1380246-6.1457997 0-11.1389244-4.981427-11.1389244-11.1380246 0-6.1466995 4.9931247-11.1398242 11.1389244-11.1398242zm-9.6065237 30.7397961h19.2130474v61.8368226h-19.2130474z"/><path d="m95.662116 48.558116h18.441898v8.4520492h.25645c2.5591-4.8653497 8.836274-9.9853497 18.185448-9.9853497 19.468598 0 23.054397 12.8035993 23.054397 29.4494481v33.9134764h-19.212147v-30.0658279c0-7.1760984-.132274-16.3947979-9.994348-16.3947979-9.98715 0-11.52045 7.8158735-11.52045 15.8800985v30.5805273h-19.211248z"/><path d="m165.343606 19.1581582h19.204949v54.5347487l21.757751-25.1698841h23.546601l-25.197779 28.6297083 24.670482 33.2584039h-24.143185l-20.382819-30.5670296h-.251051v30.5670296h-19.204949z"/><path d="m286.551733 99.6798313c-6.152998 7.8158737-16.261624 12.3023967-26.255972 12.3023967-19.206749 0-34.576647-12.8143967-34.576647-32.6645197 0-19.8501231 15.369898-32.6537224 34.576647-32.6537224 17.940696 0 29.203796 12.8035993 29.203796 32.6537224v6.0198242h-44.568295c1.526102 7.301174 7.040225 12.0405483 14.470074 12.0405483 6.278073 0 10.500949-3.2033743 13.704323-7.5594235zm-16.261624-27.4014482c.125975-6.404949-4.868049-11.7831986-11.790397-11.7831986-8.44935 0-13.061849 5.7633744-13.56845 11.7831986z"/><path d="m362.567086 110.376942h-17.679747v-8.199199h-.249251c-2.955023 4.481125-10.375874 9.735199-19.087972 9.735199-18.448197 0-30.612921-13.3146995-30.612921-32.1444218 0-17.2928225 10.757399-33.1729209 28.429947-33.1729209 7.947248 0 15.374398 2.1766749 19.730447 8.1946995h.251951v-35.6321406h19.217546zm-33.056843-46.8745448c-9.598426 0-15.36 6.4094481-15.36 15.7505237 0 9.3590721 5.761574 15.754123 15.36 15.754123 9.614622 0 15.377096-6.3950509 15.377096-15.754123 0-9.3410756-5.762474-15.7505237-15.377096-15.7505237z"/></g><path d="m501.763599 0h-110.421033c-5.27657 0-9.563332 4.18238313-9.563332 9.33927592v110.88534308c0 5.161392 4.286762 9.350073 9.563332 9.350073h110.421033c5.285568 0 9.592127-4.188681 9.592127-9.350073v-110.88534308c0-5.15689279-4.306559-9.33927592-9.592127-9.33927592" fill="#006087"/><path d="m410.603304 17.8390158c6.1458 0 11.138025 4.9931248 11.138025 11.1398243 0 6.1511986-4.992225 11.146123-11.138025 11.146123-6.158397 0-11.144323-4.9949244-11.144323-11.146123 0-6.1466995 4.985926-11.1398243 11.144323-11.1398243zm-9.612822 30.7388963h19.218446v61.8368229h-19.218446z" fill="#fff"/><path d="m432.262974 48.5779121h18.436499v8.4484499h.25555c2.564499-4.8608506 8.834474-9.9871493 18.183648-9.9871493 19.461399 0 23.054398 12.8071985 23.054398 29.4566467v33.9188756h-19.204949v-30.0712271c0-7.1742988-.132275-16.3974974-9.98715-16.3974974-10.001546 0-11.533047 7.8122742-11.533047 15.8782988v30.5904257h-19.204949z" fill="#fff"/></svg>