<svg height="239" preserveAspectRatio="xMidYMid" viewBox="0 0 256 239" width="256" xmlns="http://www.w3.org/2000/svg" xmlns:xlink="http://www.w3.org/1999/xlink"><linearGradient id="a" x1="50%" x2="50%" y1="0%" y2="100%"><stop offset="0" stop-color="#4ad8ac"/><stop offset="1" stop-color="#4076c4"/></linearGradient><g transform="translate(0 44.444444)"><g fill="#40a0b4"><path d="m238.2176 97.2113778 17.777778 10.2631112v-96.4000001l-17.777778-10.26666668z"/><path d="m0 11.0753778v96.4053332l17.7777778-10.2684443v-96.40177781z"/><path d="m78.232 183.513778 17.7777778 10.263111 42.3288892-24.439111-17.777778-10.263111z"/></g><path d="m103.117511 169.145956 17.777778 10.264888 17.443555-10.072888-17.777777-10.263112z" fill="#338090"/></g><g fill="#45c1a8" transform="translate(87.111111 133.333333)"><path d="m81.7729778 64.8551111v-20.528l-76.5457778-44.19555554-5.22666667 3.01688888.00888889.00533334v14.49422222z"/><path d="m.00888889 62.8104889 72.88000001 42.0782221 17.7813333-10.263111-90.66133331-52.3448889z"/></g><g fill="#7ce1c0"><path d="m194.712 70.3742222 17.776 10.2631111 43.507556-25.1182222-17.781334-10.2613333z"/><path d="m136.989867 124.228978-17.777778-10.263111-40.9884446 23.665777 17.7777778 10.263112z"/><path d="m216.8928 32.9425778-17.781333-10.2631111-43.502223 25.1182222 17.777778 10.2648889z"/><path d="m97.8876444 101.652622-17.7777777-10.2631109-40.9884445 23.6657779 17.7777778 10.263111z"/><path d="m116.5072 25.2222222 17.777778 10.2631111 43.505778-25.1182222-17.781334-10.2631111z"/><path d="m.0192 92.4782222 17.7777778 10.2631108 40.9884444-23.6639997-17.7777778-10.2648889z"/></g><g fill="url(#a)" transform="translate(0 92.444444)"><path d="m238.2176 10.2897778v90.3271112l17.777778-10.264889v-90.32533333z"/><path d="m216.883556 112.932622v-90.3253331l-17.777778 10.2631111v90.327111z"/><path d="m159.9936 55.4513778v90.3271112l17.779556-10.264889v-90.3271111z"/><path d="m78.232 135.513778 17.7777778 10.263111v-90.3235557l-17.7777778-10.2666666z"/><path d="m56.8986667 32.8714667v90.3253333l-17.7777778-10.263111v-90.3271112z"/><path d="m.0096 90.3521778 17.7777778 10.2631112v-90.3253334l-17.7777778-10.26488893z"/></g><g fill="#45c1a8" transform="translate(24.888889 67.555556)"><path d="m78.2190222 55.7077333 17.7777778 10.2631111 16.104889-9.2977777-17.7777779-10.2631111z"/><path d="m.01493333 10.5550222 17.77777777 10.2631111 16.1031111-9.2977777-17.776-10.26311116z"/><path d="m39.1171556 33.1313778 17.7777777 10.2631111 16.1031111-9.2977778-17.776-10.2631111z"/></g><g fill="#a2eacf"><path d="m96.0016.09422222-17.7795556 10.26311108 159.9928886 92.3751107 17.779556-10.2631107z"/><path d="m56.8894222 22.6757333-17.7777778 10.2631111 159.9911116 92.3751116 17.781333-10.263112z"/><path d="m0 55.5198222 159.991111 92.3751108 17.781333-10.263111-159.9946662-92.3751109z"/></g></svg>