<svg height="247" preserveAspectRatio="xMidYMid" viewBox="0 0 256 247" width="256" xmlns="http://www.w3.org/2000/svg"><g fill="#497bbb"><path d="m165.758529 82.9512863 58.343899 108.0294777-19.343343 28.728048h-153.4150412l-19.4778588-29.301981 58.3349316-107.4555447zm16.047711-26.9031199h-107.6124797l-73.70109692 135.7621106 36.43130812 54.801655h182.1520565l36.431309-54.102174z"/><path d="m163.870826 145.725233h-42.596606l15.693487-42.596607h-24.661194l-33.5437062 67.455089h98.4743862z"/><path d="m9.17788725 192.805692 44.83853315 40.35468h152.4510126l44.838533-40.35468z"/><path d="m128 0c-20.011437 0-36.2340186 16.2808714-36.2340186 36.3685342 0 2.1298303.2197088 4.2013706.5694494 6.2280723h23.0245872c-.928158-1.8877023-1.493124-3.9816618-1.493124-6.2280723 0-7.8332917 6.326717-14.182428 14.128622-14.182428 7.806389 0 14.128622 6.3491363 14.128622 14.182428 0 2.2464105-.569449 4.34037-1.493123 6.2280723h23.02907c.349741-2.0267017.56945-4.1027258.56945-6.2280723.004484-20.0876628-16.218098-36.3685342-36.229535-36.3685342z"/></g></svg>