<svg height="257" preserveAspectRatio="xMidYMid" viewBox="0 0 256 257" width="256" xmlns="http://www.w3.org/2000/svg"><path d="m178.7441 77.6384h49.915v-30.125h-19.723v-19.79h-30.192zm20.6116 50.5054 35.295 35.295 21.302-21.302-13.946-13.945 13.993-13.994-21.349-21.35zm-85.0149-128.1438-21.35 21.35 35.296 35.295 35.296-35.295-21.302-21.302-13.946 13.946zm-36.5112 178.6484h-49.915v30.125h19.723v19.79h30.192zm-77.7816-64.4987 13.946 13.946-13.994 13.994 21.349 21.349 35.296-35.295-35.296-35.296zm77.7816-36.5113v-49.915h-30.125v19.723h-19.79v30.192zm100.9145 101.01v49.915h30.125v-19.723h19.79v-30.192zm-85.7531 56.2894 21.302 21.301 13.946-13.946 13.994 13.994 21.349-21.349-35.295-35.296zm35.267-169.6074c-34.733 0-62.89 28.157-62.89 62.89s28.157 62.889 62.89 62.889 62.89-28.156 62.89-62.889-28.157-62.89-62.89-62.89zm0 96.72c-18.684 0-33.83-15.146-33.83-33.83s15.146-33.831 33.83-33.831 33.83 15.147 33.83 33.831-15.146 33.83-33.83 33.83z" fill="#397ff8"/></svg>