<svg height="200" preserveAspectRatio="xMidYMid" viewBox="0 0 512 200" width="512" xmlns="http://www.w3.org/2000/svg"><path d="m17.1007808 157.508772v-113.0643431h-17.1007808v113.6739361c0 26.78557 16.888282 41.314902 41.5274011 38.430071v-16.330204c-13.0225225.609591-24.4266203-4.112602-24.4266203-22.70946zm75.7654522 24.943916c-19.3416764 0-35.2490299-17.165175-35.2490299-38.219719 0-21.483836 15.9073535-39.0783 35.2490299-39.0783 19.519832 0 35.397135 17.594464 35.397135 39.0783 0 21.054544-15.877303 38.219719-35.397135 38.219719zm0-93.8471617c-29.7283561 0-52.7511971 24.9460617-52.7511971 55.6274427 0 30.256383 23.022841 54.981359 52.7511971 54.981359 29.912951 0 52.712561-24.727123 52.712561-54.981359 0-30.681381-22.79961-55.6274427-52.712561-55.6274427zm261.802714 2.665893h-25.441892l-47.840115 47.2348157v-94.0618061h-17.315426v152.1104461h17.315426v-33.926815l20.140156-19.652912 35.822132 53.579727h20.968687l-44.167537-65.838113zm10.178474 41.7098497c4.475352-17.987265 19.73877-28.620787 34.205854-28.620787 15.261272 0 29.513711 11.436295 33.800175 28.620787zm34.203708-44.3757427c-29.11447 0-52.719 24.9460617-52.719 55.4149437 0 30.863829 23.602382 54.985653 53.72354 54.985653 24.246318 0 42.147725-12.664065 49.471419-35.156733h-18.330699c-5.698829 12.254093-16.270103 19.433974-31.14072 19.433974-17.281083 0-33.986917-12.90876-36.225667-34.759639h88.148333c.216792-37.419092-25.864743-59.9181987-52.927206-59.9181987zm78.57945 14.5293317v-11.8591458h-16.699394v105.2748708h17.313279v-60.927032c0-21.054545 15.475918-30.649184 33.587677-29.636059v-17.1651741c-12.011544-1.4467084-26.261836 3.0629866-34.201562 14.3125401z" fill="#3e4345"/><path d="m203.202436 88.6055263c-7.75513 0-15.023015 1.7128684-21.548229 4.7801479l11.06496 13.5784528c3.309828-1.16123 6.836448-1.809458 10.483269-1.809458 19.519832 0 35.427185 17.594464 35.427185 39.0783 0 21.054544-15.907353 38.219719-35.427185 38.219719-19.341676 0-35.218979-17.165175-35.218979-38.219719 0-12.906614 5.733172-24.334323 14.499281-31.473422l-10.818117-13.2414602c-12.936664 10.1462772-21.181185 26.3841842-21.181185 44.7148822 0 30.256383 22.988497 54.981359 52.719 54.981359 29.912951 0 52.712561-24.727123 52.712561-54.981359 0-30.681381-22.801757-55.6274427-52.712561-55.6274427zm-29.176718-19.3695801c0 4.3208072-1.809458 8.2445209-4.722193 11.0027113l7.508288 9.223303c5.548578-4.9647428 9.070904-12.1961386 9.070904-20.2281608 0-5.9435248-1.925366-11.4341483-5.147191-15.9073536l-9.043001 7.8173771c1.476759 2.3610968 2.333193 5.1192873 2.333193 8.092123zm-15.17112 15.2333676c-8.369016 0-15.171121-6.8364486-15.171121-15.2333676 0-8.3947727 6.802105-15.2333678 15.171121-15.2333678 2.940638 0 5.698828.8628736 8.029875 2.3289001l9.221157-7.9654823c-4.683557-3.9237137-10.695769-6.2805177-17.251032-6.2805177-14.930719 0-27.062463 12.1660883-27.062463 27.1504677 0 14.9908186 12.133892 27.1569069 27.062463 27.1569069 3.739119 0 7.323693-.7662833 10.603471-2.180795l-8.122173-9.9595359c-.828531.1244943-1.654914.2167916-2.481298.2167916zm47.350724-65.219935c6.280517 0 11.369755 5.117141 11.369755 11.4277089 0 6.3191539-5.089238 11.4341482-11.369755 11.4341482-3.279778 0-6.22471-1.4059258-8.311061-3.6747253l-6.733419 5.8533739c3.706922 4.1319194 9.070905 6.7742015 15.04448 6.7742015 11.189453 0 20.290408-9.1352984 20.290408-20.3869983 0-11.2130636-9.098809-20.3784124-20.290408-20.3784124-6.589607 0-12.41937 3.1896272-16.124145 8.0942693l8.800452 3.6167711c1.989761-1.6914039 4.533306-2.7603369 7.323693-2.7603369zm-11.371901 11.4298554c0-2.0219576.551638-3.8936634 1.472466-5.5442848l-8.306768-3.4085653c-1.315775 2.7002362-2.079912 5.7331725-2.079912 8.9528501 0 3.4922769.886485 6.7699087 2.419051 9.6246894l7.083291-6.1324125c-.347725-1.1011297-.588128-2.2687994-.588128-3.4922769zm-31.136428-3.5223273c5.82547 0 10.760162-3.7391188 12.655478-8.9807539l-5.48633-2.2366027c-1.006685 3.0329363-3.831416 5.2673925-7.169148 5.2673925-4.202753 0-7.600586-3.4321763-7.600586-7.6263429 0-4.19845951 3.395687-7.60058545 7.600586-7.60058545 4.136212 0 7.508287 3.33773239 7.570535 7.50614155l5.698829 2.3267537c.126641-.7319401.240403-1.4703194.240403-2.2323098.002146-7.47823771-6.065872-13.5805999-13.509767-13.5805999-7.478238 0-13.55055 6.10236219-13.55055 13.5805999 0 7.5018488 6.070166 13.576307 13.55055 13.576307z" fill="#652b81"/></svg>