<svg height="296" preserveAspectRatio="xMidYMid" viewBox="0 0 256 296" width="256" xmlns="http://www.w3.org/2000/svg"><path d="m0 73.9555556 128-73.9555556 128 73.9555556v147.9111114l-128 73.481481-128-73.481481z" fill="#fff"/><path d="m204.8 201.955556h-121.837037v-107.6148153h-24.1777778v132.2666663h69.2148148v20.385186z" fill="#07582a"/><path d="m180.622222 135.585185c5.214815-7.585185 8.059259-16.592592 8.059259-26.074074 0-26.074074-21.333333-47.4074073-47.407407-47.4074073h-13.274074v-16.1185185l-68.7407407 40.2962963h81.5407407c12.8 0 22.755556 10.4296296 22.755556 22.7555555 0 12.325926-10.42963 22.755556-22.755556 22.755556h-10.42963-39.8222219v24.651851h39.8222219 10.42963 21.807407c12.325926 0 22.755556 10.42963 22.755556 22.755556 0 5.688889-1.896296 10.903704-5.688889 14.696296h27.496296c1.422223-4.74074 2.370371-9.481481 2.370371-14.696296.474074-19.911111-11.851852-36.977778-28.918519-43.614815z" fill="#6cb433"/></svg>