<svg height="296" preserveAspectRatio="xMidYMid" viewBox="0 0 256 296" width="256" xmlns="http://www.w3.org/2000/svg"><path d="m127.997275 107.43728s40.318951-24.0529593 40.318951-53.7186398c0-29.6656804-40.318951-53.7186402-40.318951-53.7186402s-40.3189506 24.0529598-40.3189506 53.7186402c0 29.6656805 40.3189506 53.7186398 40.3189506 53.7186398zm0 188.020691s40.318951-24.05296 40.318951-53.718641c0-29.671129-40.318951-53.71864-40.318951-53.71864s-40.3189506 24.05296-40.3189506 53.71864c0 29.665681 40.3189506 53.718641 40.3189506 53.718641zm-34.951446-167.874838s-.6702569-46.945231-26.363439-61.7780712-66.68239 8.0539816-66.68239 8.0539816.67025692 46.9452306 26.363439 61.7780706c25.693182 14.83829 66.68239-8.053981 66.68239-8.053981zm162.954171 94.010345s-.670257-46.945231-26.363439-61.778071-66.68239 8.059431-66.68239 8.059431.670257 46.945231 26.363439 61.778071 66.68239-8.059431 66.68239-8.059431zm-162.954171-53.72409s-40.989208-22.892271-66.68239-8.05943c-25.69318208 14.83284-26.363439 61.78352-26.363439 61.78352s40.9892079 22.892271 66.68239 8.059431 26.363439-61.783521 26.363439-61.783521zm162.954171-94.0103446s-40.989208-22.892271-66.68239-8.0594308-26.363439 61.7780714-26.363439 61.7780714 40.989208 22.892271 66.68239 8.05943c25.693182-14.83284 26.363439-61.7780706 26.363439-61.7780706z" fill="#502b4d"/></svg>