<svg height="81" preserveAspectRatio="xMidYMid" viewBox="0 0 512 81" width="512" xmlns="http://www.w3.org/2000/svg"><g transform="translate(0 -1)"><path d="m84.2982249 68.4746982c5.0215384 3.9839054 33.1633611 3.4355503 53.1586271 2.655432 5.416899-.2105562.372639-1.1906272.648331-4.2141539.274178-3.0220118 9.468971-24.8501775 10.56871-26.2240946 1.09974-1.3739172 14.566249-.5498699 15.665989-.5498699 1.099739 0-10.791385 23.3490178-9.462912 26.843645 2.456994 6.4590769 8.735811 5.4078107 12.972687 3.0220118 2.769041-1.5556923 13.53013-29.8656568 14.62987-30.1398343 1.099739-.2741775 8.182911-.4817041 8.526769.343858.43626 1.0452071-14.648047 29.5021065-11.824474 31.0426509 1.242131.6786272 35.561279.6786272 36.270202.219645 1.829869-1.1815385-1.014912-17.0186983 11.071621-26.0498935 11.220071-8.3843787 36.270201-4.8958107 37.179077-4.6352663 1.923787.5498698-1.764734 5.5395976-3.688521 6.363645-1.923787.8255621-15.620544-1.0558107-20.03768 1.4648047-8.873657 5.0594083-11.444261 21.5418698-6.827172 22.7203787 3.411314.8694911 47.17974.4574675 47.54632 0 1.305751-1.6314319 8.726722-27.6904142 13.583148-29.5233136 5.347219-2.0177041 26.65884-3.2977041 28.399337.4574675 1.749586 3.7748639-1.935905 15.528142-6.595408 18.8500828-2.473657 1.7632189-19.719574.2014674-20.613302 6.5045207-.434746 3.0689704 1.625373 3.3446627 6.092497 3.8930178 2.835692.3499171 44.172876.3438579 44.928757-.1817752 3.771835-2.6296805 8.750959-26.0907929 14.131503-29.432426 2.914462-1.8086628 32.202982-4.3701775 36.295953 2.3600473 4.473183 7.3512899-8.382864 23.7004497-4.57619 26.7694201 1.284545 1.0346036 35.44161.8285917 35.946036.3029586 1.578414-1.6511243 8.490414-27.5540828 13.231716-29.4778698 4.268686-1.7314083 25.49245-3.2977042 28.034272-.2741775 2.831148 3.3658698-1.734438 16.7475503-6.115219 20.2694438-2.422154 1.9465088-19.721089.0090887-20.613302 6.596923-.405964 2.99929 4.403503 3.2734675 8.388924 3.343148 2.496378.0424142 24.666887-.0227219 59.366248-.0227219 0 0-.458982 5.5199053-8.108686 8.9312189h-110.899503c-6.062201 0-10.886817-6.1833846-7.969326-13.0772071 2.869018-6.7832426 6.918059-16.0946746 5.236639-18.6667929-1.557207-2.3812544-15.002509-1.1209467-16.032568-.0227219-3.091692 3.2992189-8.981207 31.8273136-14.808615 31.8015621l-278.8597398-.028781.0681657-.0242367c-7.6951479.0772544-20.3936568-3.0629113-16.347645-15.0055385 3.7566864-11.0852544 6.3227456-17.4534438 6.3227456-17.4534438-28.584142.9164497-51.0303432.9164497-55.8625325-.9603787-6.7908166-2.640284-9.73405921-12.3228402-7.14527814-10.8565207 2.25552663 1.2769704 7.16648524 4.0990296 10.44298224 4.4792426 4.7413018.5498699 48.7733018-3.8506035 55.164213-4.2626272 3.4734201-.2241893 4.2020355-4.4080473 4.2020355-4.4080473-26.2937751 1.0073373-50.9515739 1.155787-55.1051361-.848284-4.5580118-2.1979645-8.0177988-6.7559764-8.0390059-9.8022249-.0196923-2.4888047 3.9914793 4.3610888 10.9246864 4.6625325 11.6124024.5044261 47.0328047-3.7582011 54.0856805-4.2626272 3.6688284-.2620591 4.0657041-4.2944378 4.0657041-4.2944378-30.1413491 1.192142-51.2181775.7861775-54.052355-.5483551-4.7640237-2.244923-8.0617278-7.51337275-8.2222959-10.87924258-.1211834-2.53121893 2.9599054 5.27753848 10.9943669 5.70168048 9.3447574.4953373 62.3579645-5.97585799 65.1148876-6.13794083 7.7875498-.45746746 5.4047808 7.42097043 3.3901065 12.00170413-3.9914793 9.0705799-22.1568758 44.8605917-14.8419408 50.6637633z" fill="#c1da94"/><path d="m83.7050964 69.2223107c4.4808848 3.5549704 23.4268466 4.045996 53.7889606 2.8614135 2.368722-.0920728 3.15746-.2577623 3.401586-1.2306965.135646-.540603-.050146-.9059531-.446726-1.377988-.096275-.1145933-.563975-.6229384-.685415-.7662105-.529506-.6247014-.759966-1.135648-.707942-1.7061953.226352-2.4948672 9.155934-24.205928 10.363372-25.7143932.181788-.2271098 3.173799-.4689888 7.078974-.4322356 1.444363.0135935 2.970167.0542743 4.64953.1171143.508168.0190151 2.98881.123212 3.192446.123212-.465187 0-.784531-.3235736-.864906-.6764479-.022159-.0972874-.021145-.138637-.0178-.1609256-.014707.097991-.069346.2971123-.161832.5730283-.190774.5691396-.522656 1.4138093-1.012861 2.5862218-.533098 1.2749994-3.059645 7.103914-3.56791 8.2969497-.251679.5907586-.489626 1.1535695-.717559 1.6976558-3.272334 7.8112049-4.682871 12.1474004-4.012082 13.9119494 2.377545 6.2502175 8.382873 6.8649733 14.332972 3.5144528 1.386858-.7791587 3.563518-5.090867 7.442419-13.9273161.219704-.5005035.446102-1.0185561.682232-1.5609406.371783-.8539791 3.677743-8.5237981 4.463821-10.29824.668322-1.5086244 1.18029-2.6189042 1.56693-3.390427.202782-.4046431.368106-.7096593.491436-.907803.050761-.0815529.089617-.1370757.109127-.1601642-.065827.0779-.148293.1458353-.363486.1994853.467159-.116468 2.503162-.2279257 4.30765-.212166 1.015322.0088674 1.901468.0546946 2.545694.1362444.324506.0410777.575586.0899851.733144.1401304-.01235-.0039308-.072141-.0407654-.171533-.2793954-.076028-.1821502-.075663-.2766265-.060515-.3665463-.004421.0262404-.019278.0843145-.044453.1655892-.061496.1985267-.169146.4876784-.321169.8613413-.287691.7071304-.723529 1.6927194-1.347756 3.0552321-.453397.9896398-3.392551 7.2908359-4.29666 9.2657637-.284318.6210614-.555988 1.218342-.817689 1.7980465-4.905471 10.8662929-6.552194 15.6210919-4.512346 16.7340346 1.438756.7860523 36.147639.894052 37.245922.182984.769203-.4966698.957889-1.3264233 1.208047-3.7570895.7214-7.0094874 1.045236-8.9580253 2.608663-12.7709189 1.569463-3.8276124 3.933923-7.0377202 7.307489-9.5584879 4.726293-3.5317979 12.459128-5.1957845 21.902593-5.3697994 3.40656-.0627727 6.823551.0766516 10.006993.3560116 2.128695.1868016 4.161837.4530252 4.435286.5314138-.090199-.0257809-.138997-.1428203-.168982.0160335-.073716.3905317-.347042.9751823-.769688 1.6256409-.862658 1.3276429-2.139662 2.6176903-2.86263 2.9273712-.4075.1748719-1.717394.1870579-5.755565.0813342-1.978813-.0518074-3.167766-.0729919-4.461871-.0697727-4.777248.0118838-8.006709.411245-9.917472 1.5016116-8.679288 4.948587-12.969587 22.84558-6.590208 24.4739124 1.659666.4230233 11.584651.588479 25.155263.5272467 15.338198-.0692079 22.870177-.2291725 23.371796-.8551594.532155-.6648852 5.201297-13.8706619 5.640544-15.0314234 1.187951-3.1392977 2.278206-5.7828819 3.30856-7.9671084 1.71989-3.6459601 3.229526-5.8524956 4.226302-6.2286961 6.189105-2.335379 25.978117-2.662814 27.196524-.0340679 1.620787 3.4969711-2.151409 14.725742-6.283564 17.6717162-.426245.3038267-1.847652.5390872-4.834069.8113128-.114363.0104247-1.843561.1647453-2.374906.2143927-.954793.0892131-1.757171.1721007-2.527132.2636431-6.95424.8268054-10.771784 2.3581784-11.26807 5.8582529-.265705 1.8756794.282261 3.141028 1.718445 3.8753977 1.016789.5199189 2.057381.712713 5.202648 1.0988054 3.463615.4274014 44.607259.3378158 45.58987-.345483 1.821048-1.2696132 2.278564-2.3862387 6.939676-15.252579 3.122295-8.6186538 5.180065-12.9289142 7.150476-14.1526548 1.364747-.8469377 9.704375-1.8553958 17.205478-1.8784383 9.391165-.0288485 16.202026 1.3427368 17.771609 3.923661 1.386519 2.2786233.987911 5.8031171-.90287 11.0219642-.368483 1.0170699-.777354 2.063972-1.332294 3.4299707-.179702.4423416-.813533 1.9898027-.793184 1.9399955-.312462.7648055-.540196 1.3301234-.752021 1.8704425-.542014 1.3825605-.925117 2.4695184-1.195646 3.4307046-.720361 2.5594392-.652579 4.3004882.616236 5.3234164 1.493553 1.2029448 36.244905 1.251003 37.233555.220788.506516-.5298468 1.084679-1.9720104 2.294642-5.4226508.32581-.9291613 1.680419-4.8513538 1.577406-4.5540942.697004-2.0113126 1.251622-3.5828592 1.80857-5.1114155 1.18754-3.2592303 2.248912-5.9335547 3.252995-8.1328978 1.606603-3.5191002 3.020364-5.6486371 3.968355-6.0332852 4.97057-2.016097 25.076194-2.767322 26.944985-.544374 2.30091 2.7354853-1.754429 15.512306-5.982681 18.9115752-.423819.3405925-1.91723.5854122-5.169421.8595706-.252092.0212512-.531306.0444357-1.079102.0898542-.452288.0376272-.787964.066058-1.122006.095286-.872132.0763097-1.612175.1480283-2.321437.2271046-6.970997.7772021-10.778236 2.3165687-11.269077 5.9407962-.265343 1.9603669.999304 3.2042093 3.241127 3.8186328 1.506256.4128246 3.274902.5577784 6.076799.6067664 1.274656.0216569-.433517.0226075 25.849894-.0040422 12.004823-.0121721 22.265441-.0185339 33.533037-.0185339l-.951037-1.0333987c-.02245.2699884-.141581.8088163-.432522 1.5271617-.499195 1.2325301-1.321275 2.4733908-2.546332 3.641505-1.188503 1.13326-2.697628 2.1362097-4.56747 2.9700478l.388675-.0827359h-110.899503c-5.738135 0-9.601882-5.8166635-7.090469-11.7509521.073491-.1737554.598831-1.4141391.756574-1.7874508.299148-.7079559.546606-1.2969839.784149-1.8676425.341445-.820268.649062-1.5709187.937275-2.2891951 2.940374-7.3279287 4.010236-11.5795257 2.67857-13.6166147-1.711139-2.6166445-15.7707-2.0263741-17.527416-.1534052-.794751.8480983-1.624795 2.7453654-2.805266 6.1296654-.620548 1.7790545-2.984155 9.0080384-3.305819 9.9649419-3.27796 9.7514657-5.810336 14.9781468-7.812512 15.3865824-.063741.0130028-.125014.0191842-.184739.0189202l-278.8638583-.0287903-.0000985.9543195.3197063.8991739.0681657-.0242367 5.3738471-1.9107012-5.7031337.0572558c-4.3969877.044143-8.9939871-.9340373-12.0615519-2.8504054-3.7479148-2.3413962-5.074854-5.8702609-3.3726555-10.8946461 1.6403519-4.8403611 3.1748134-9.1430321 4.5603757-12.8562823.4845955-1.2986961.9158536-2.4306867 1.2884015-3.3895172.2230009-.57394.3765491-.9618196.4552714-1.1571848l.5469641-1.3574009-1.4627056.0468965c-31.4369229 1.0079141-51.2084877.7654355-55.4864386-.896126-2.7617039-1.0737564-5.15364362-3.5976675-6.57893325-6.4993946-.55501091-1.1299388-.8737013-2.1744205-.88846866-2.7842154-.00280229-.1157159-.00209919-.1182598-.12375576-.0159001-.20537287.1727971-.37519578.159973-.36996532.1629356 1.75377679.9929039 2.45071417 1.378029 3.60500735 1.9680879.94996714.4856103 1.85283984.9138894 2.71449254 1.2811933 1.7221111.7340984 3.2215353 1.2010726 4.483811 1.3475503 2.2109366.2564121 11.7062691-.413106 27.9546777-1.8377036 1.0350761-.0907515 2.099482-.1847437 3.2013713-.2826536 2.4317484-.2160764 4.9045953-.4385094 8.025206-.7211675-.0005927.0000537 5.6957901-.5166682 7.1351107-.6465496 5.0808455-.458485 7.7542307-.6886128 9.0192486-.7701689 1.8331161-.1183171 3.1917472-1.1220734 4.1100663-2.663187.5631875-.9451355.8563507-1.8766223.9707407-2.533473l.2024527-1.1625242-1.179156.0451745c-29.8185284 1.1423736-51.1103801.9555605-54.6538966-.7541669-4.1044958-1.97927-7.4802403-6.1950595-7.499415-8.9493655.0006332.0799692-.1398058.3779174-.6326507.4155728-.1551995.0118579-.0519158.0637769.118575.1869415.0259181.0187235 2.0643457 1.6509464 2.93509 2.2535256 2.4006365 1.6613072 4.8145456 2.6494516 7.5079227 2.7665549 4.7634297.2069166 13.548531-.3386064 25.9398045-1.4803414 2.1806227-.2009231 4.4587448-.4190262 6.8851295-.6582064 1.2972662-.1278776 19.3700724-1.9825541 21.3702791-2.1256101 1.901869-.1358478 3.2633056-1.1187349 4.1135728-2.6227897.5332213-.943226.7689099-1.8709376.8337823-2.5300616l.1073146-1.0903483-1.0947607.0432997c-28.5157426 1.1278465-50.8421105.8442485-53.6080931-.4581731-4.1068289-1.935237-7.5159131-6.71378241-7.6756068-10.06132446-.0038597-.08062082-.0017455-.11382617-.0184926-.06113282-.1029013.32377036-.4558642.60674545-.898037.55068022-.1726248-.02188794-.2239158-.05205806-.2516549-.0753393.0591274.04962525.1497404.13827608.2783048.27341083.0382451.04019954.7845437.84927501 1.0767476 1.15190422.5454654.56492675 1.0774072 1.06768879 1.654764 1.54767695 2.3426961 1.94761086 4.9965881 3.14651986 8.1491907 3.31294676 3.9071642.207107 15.118781-.7174047 32.0626987-2.4964641 1.7164834-.1802255 3.4831327-.3683755 5.3039846-.56470449 7.05739-.76094612 27.2336259-3.04058698 27.854522-3.07709021 3.0201119-.17741175 4.2453939.91019405 4.3617819 3.20714601.099027 1.95434159-.6363086 4.58160739-1.901247 7.45767779.0116286-.0264257-5.7380778 12.3788461-7.9041169 17.3831867-1.1093074 2.5629048-2.1233768 5.0019285-3.0446061 7.3372234-5.7597326 14.6007894-7.5495742 23.9519897-3.6127691 27.075183zm1.1862424-1.4952364c-2.8752469-2.2810253-1.1434821-11.3287977 4.202027-24.8795399.9130905-2.3146635 1.9192717-4.7347146 3.020723-7.2794688 2.1538101-4.9760873 7.9002432-17.3742973 7.8995652-17.3727551 1.375652-3.1277992 2.178312-5.9956052 2.06039-8.32284702-.170246-3.35984371-2.3055872-5.25525188-6.3799484-5.01590991-.680813.04002582-20.985066 2.33413088-27.947158 3.08480172-1.8191378.19614416-3.5840269.38410672-5.2986817.56414022-16.7898753 1.76288549-28.0063689 2.68779929-31.7625696 2.48869439-2.7033428-.1427104-4.9818308-1.17202878-7.0298482-2.87465708-.5188377-.43133809-1.0015582-.88757895-1.5018753-1.40574647-.2734065-.28316116-1.0132089-1.08519398-1.0669929-1.14172662-.5108037-.53690845-.729137-.72015413-1.1693758-.77597416-1.0556398-.1338497-1.2749631.5562326-1.2300171 1.49504183.1944616 4.0763563 4.0420489 9.4695556 8.7687278 11.6968809 3.2043415 1.5088321 25.375418 1.7904576 54.4968663.6386544l-.9874461-1.0470486c-.0088128.0895407-.0400224.2785508-.1043061.5315828-.1086972.4278511-.2703646.8549114-.4915346 1.2461435-.55436.9806185-1.3727891 1.5714822-2.5881253 1.6582919-2.0346563.1455199-20.1662449 2.0062287-21.4214431 2.1299595-2.4225546.2388027-4.6966961.4565246-6.8730141.6570511-12.2992591 1.1332568-21.0371491 1.6758481-25.6818156 1.4740905-2.2836345-.0992885-4.3750024-.9553992-6.5046715-2.4291894-.8021828-.5551327-2.8201771-2.1709941-2.9035265-2.2312067-.5473064-.3953806-.9120984-.5787557-1.381662-.5428791-.8352873.0638194-1.1368463.7035914-1.1305312 1.5017138.024899 3.5766309 3.8765556 8.3867619 8.5787815 10.6542694 3.9933517 1.9267703 25.0395341 2.111428 55.5561841.9423087l-.9767033-1.1173496c-.0172004.0987681-.0643502.2999221-.1485487.5674516-.1420779.4514333-.3346955.9023302-.5814705 1.3164655-.6219877 1.0438134-1.4591641 1.6623191-2.5933149 1.735522-1.2889492.0830989-3.9647661.313436-9.0679176.7739339-1.4398463.1299288-7.1367546.6466984-7.1357515.6466076-3.1196209.2825684-5.5914712.5049117-8.0219598.7208762-1.1011696.097846-2.1648365.1917729-3.1991445.2824571-15.90957 1.3948895-25.5635468 2.0755937-27.5680319 1.8431246-1.0467796-.1214709-2.3870162-.5388684-3.9553075-1.2073968-.8174974-.3484814-1.6812442-.7582012-2.5941952-1.2248892-1.12182372-.573461-1.80360851-.9502129-3.53325152-1.9294534-1.34854621-.7638342-2.38991613.112356-2.35485852 1.5600043.02251089.929552.41722418 2.2231925 1.08341298 3.5794769 1.6198583 3.2978466 4.34166659 6.1698262 7.60073326 7.4369584 4.6548763 1.8079598 24.2971443 2.0488527 56.2389363 1.0247518l-.9157415-1.3105044c-.0816564.2026466-.2381201.5978913-.4640185 1.1792886-.3756178.9667316-.8099218 2.1067173-1.2975393 3.4135123-1.3921893 3.7310102-2.933136 8.0518658-4.5798564 12.9110189-1.990628 5.8757437-.3186002 10.3223378 4.1690913 13.1258871 3.4192192 2.1360535 8.3615335 3.1877123 13.0919629 3.1402217l-.0095803-.9542714-.3197063-.8991739-.0681656.0242367-5.2113447 1.8529225 5.5309524.0005709 278.8597393.0287811c.187953.0008394.379808-.0185154.570552-.0574263 3.08411-.6291454 5.602465-5.8268885 9.240174-16.6485564.326954-.9726406 2.685638-8.1865686 3.298814-9.9444861 1.07388-3.078714 1.864767-4.886478 2.395525-5.4528634.251562-.2682085 3.791233-.850985 7.162283-.9925137 3.897782-.1636427 6.956358.2444546 7.375234.8849916.795878 1.217478-.251257 5.3787534-2.852443 11.8613665-.284925.7100815-.589503 1.4533184-.927991 2.2664815-.236059.5670956-.48227 1.1531544-.780199 1.8582257-.157366.3724189-.682529 1.6123849-.756241 1.7866623-3.044352 7.1935863 1.74472 14.403278 8.848261 14.403278h110.899503.203143l.185531-.0827359c2.066838-.9216869 3.758925-2.0462308 5.107248-3.3318822 2.459485-2.3451647 3.42568-4.7307387 3.563802-6.3918412l.085927-1.0333987h-1.036965c-11.268326 0-21.529555.0063622-33.534973.0185349-26.175859.0265407-24.560412.0256416-25.815064.0043247-2.644692-.0462395-4.302374-.1820991-5.605191-.5391663-1.430442-.3920459-1.963297-.9161341-1.854248-1.7217965.315521-2.329706 3.513074-3.6225607 9.589181-4.2999909.692349-.0771905 1.41807-.1475212 2.276318-.2226161.330832-.0289471.664068-.0571713 1.113879-.0945924.547049-.0453562.827703-.0686603 1.081192-.0900292 3.863174-.3256641 5.322735-.5649346 6.204839-1.2738174 4.960751-3.9881555 9.378213-17.9058863 6.247735-21.6276204-2.584396-3.074169-23.45664-2.2943001-29.123287.0041304-1.592041.645972-3.160895 3.0091242-4.987109 7.0092611-1.028481 2.2527818-2.1068 4.9698091-3.310048 8.2721508-.560988 1.5396438-1.118665 3.1198591-1.818683 5.1398678.101528-.2929752-1.251042 3.6233149-1.575105 4.5474946-1.021714 2.9137815-1.664431 4.5169677-1.871899 4.7339928.213641-.2226253.023698-.1849199.114362-.1947393-.254801.0275963-.629998.0551573-1.113405.0816244-.95634.0523608-2.314603.0993846-3.982193.138408-3.325162.0778123-7.685277.119422-12.008094.1134439-9.305435-.0128687-17.380629-.2938058-17.668268-.5254771-.960148-.7740792-.42152-2.6878228 2.695324-10.3600172.563323-1.3866348.98023-2.4541124 1.358501-3.4981981 2.077837-5.7351486 2.52881-9.7226591.739004-12.6640501-2.080817-3.4215656-9.280533-4.8714593-19.408102-4.8403486-7.885111.0242221-16.418678 1.0561319-18.206314 2.1655069-2.526896 1.5693508-4.603738 5.9195591-7.938289 15.1241153-4.226185 11.6657882-4.95433 13.4429152-6.235792 14.3363365-.407104.2830955-41.390418.3723321-44.266095.0174809-2.863076-.3514527-3.840891-.5326159-4.566852-.9038248-.658789-.3368611-.855787-.7917626-.697633-1.9082061.313747-2.2127134 3.55053-3.5111197 9.603651-4.2307889.751956-.0894017 1.539243-.1707303 2.47936-.2585723.526599-.0492039 2.252696-.2032476 2.370605-.2139956 3.509149-.3198751 4.92082-.5535241 5.768721-1.157907 4.841217-3.451492 8.938136-15.6468729 6.907328-20.0284938-1.836031-3.9612909-22.526436-3.6189412-29.602091-.9490338-1.659158.6261951-3.328636 3.0663602-5.27863 7.2001121-1.055107 2.2366992-2.163198 4.9235323-3.367448 8.1059011-.733756 1.9390357-5.04891 14.1436255-5.345221 14.5138423.250187-.3122162-.19462-.2449297.110368-.2698751-.32277.0263998-.798661.0532371-1.41471.079773-1.209735.0521084-2.939612.1022419-5.074905.1475914-4.253641.0903391-9.875449.1567077-15.51138.1821378-13.141519.0592962-23.268288-.1095234-24.674924-.468053-1.500611-.3830303-2.064038-4.1234437-.953122-8.7576305 1.272622-5.3087473 4.221839-10.0449557 8.017271-12.208961 1.518329-.8664262 4.537899-1.239832 8.976551-1.2508734 1.270952-.0031616 2.445502.0177662 4.407171.0691248 4.771685.1249278 5.739612.1159231 6.557618-.2351107 1.138304-.4875882 2.661238-2.0260781 3.710987-3.6416567.54619-.8405938.916688-1.6330995 1.04475-2.3115426.194014-1.0278383-.177113-1.9179779-1.181291-2.2049988-1.485567-.4258628-8.869313-1.0738165-15.00269-.9607968-9.809979.1807686-17.882892 1.9179348-23.009907 5.7491792-3.664268 2.7379828-6.235859 6.2293024-7.930959 10.3633189-.951181 2.3197445-1.597914 4.761306-2.041403 7.4297966-.171516 1.0320164-.307982 2.0646355-.434017 3.2237997-.070491.6483192-.259787 2.5865906-.265904 2.6460265-.159537 1.5501395-.340599 2.3463675-.34575 2.3496931-.484696.3138087-34.446538.2081334-35.294986-.255409.127223.0694131.163105.1342377.158701.1062261-.027253-.1733183-.017147-.458679.039119-.8359983.120695-.8093746.437403-1.9531295.936643-3.3946519.880027-2.541018 2.275477-5.8796712 4.202851-10.1490692.260268-.5765315.530559-1.170779.813529-1.7888968.900372-1.9667631 3.839369-8.2676251 4.29643-9.265261 1.766823-3.8564794 2.069456-4.6003361 1.800333-5.2451091-.572133-1.3736241-7.504724-1.4341708-9.638309-.9022441-.754839.1881901-1.196585 1.0696739-3.087364 5.3377934-.790694 1.7848606-4.100337 9.4632233-4.468742 10.3094423-.235386.5406781-.461017 1.0569735-.679913 1.555637-3.451374 7.8625088-5.834899 12.5839919-6.630428 13.0309329-5.070057 2.8549653-9.747275 2.3761659-11.613287-2.5293056-.391204-1.0290852 1.082339-5.5589722 3.988482-12.4960621.226383-.5403854.462848-1.0996936.713084-1.6870655.503855-1.1826824 3.034035-7.0199789 3.572894-8.3087563.50686-1.2122473.852354-2.0915593 1.061628-2.7158889.124997-.3729066.204667-.6632509.23965-.896335.028929-.1927474.033097-.3626456-.008722-.5462458-.100357-.4406019-.463261-.8083126-.99607-.8083126-.156811 0-2.546639-.1003823-3.121077-.1218772-1.695717-.0634519-3.238309-.1045804-4.702936-.1183646-5.116642-.0481547-7.803359.1690438-8.587014 1.1480721-1.438484 1.7971149-10.513474 23.8617138-10.774088 26.7342255-.107471 1.1786442.324185 2.1356585 1.152756 3.1131909.155851.1838705.619788.6881253.680048.7598502.010166.0121005-.01343-.0342993.05682-.3142716.052438-.2089846.172521-.3446191.286381-.4088428-.00133.0007507-.059358.0200069-.167091.0426381-.330706.0694713-.897513.1213188-1.743896.1542179-29.306143 1.1433836-48.6311262.6425349-52.5284317-2.449445z" fill="#cbcbcb"/><path d="m303.054012 43.1715976c-1.65746 0-6.394859 7.7500722-5.135202 9.0128935 1.015684 1.0156852 3.40115.7319684 6.649203-.0782363 1.955033-.4898464 5.75026-7.0579983 4.520019-8.4937364-.592254-.6898643-1.645687-.7942108-3.439003-.6823325-.391054.0243964-.796272.0600408-1.270163.1090953-.204833.0212031-.806925.0868544-.880642.0945791-.245312.0257052-.392149.0377373-.444212.0377373zm0 1.9086391c.144141 0 .326063-.014907.643122-.0481305.079496-.0083301.679982-.0738063.878253-.0943302.450185-.0466006.831174-.0801137 1.192483-.1026545 1.065516-.0664735 1.86519.0127372 1.871406.0199788-.134644-.157134-.144835-.2273412-.144991-.2260749-.018389.1490458-.078851.3746121-.179265.6523152-.212848.5886526-.580133 1.3463852-1.025955 2.1179407-.874824 1.5140008-1.915503 2.7880569-2.183965 2.8553219-2.174623.5424443-4.587531.8294249-4.835833.5811235.246454.2470722.249211.3531804.235904.4082211.041226-.1705281.137356-.4304111.281463-.7525564.293725-.6566115.761185-1.5173907 1.301978-2.4020924.534839-.8749606 1.099901-1.705264 1.57063-2.3057939.23326-.2975797.435204-.5281225.588028-.6733974.029751-.0282814.032241-.029871-.193258-.029871zm147.38026-1.9086391c-1.620617 0-6.03865 7.1361581-5.3334 8.7259203.51182 1.1537343 1.836417 1.2050593 4.114839.8125927.414932-.0714736.850249-.1593466 1.310488-.2623132.455985-.102015.649701-.1492573 1.420559-.3415426 1.955034-.4898464 5.750261-7.0579983 4.52002-8.4937364-.592164-.6897585-1.645418-.7941629-3.437982-.6823844-.391259.0243977-.796708.0600656-1.270734.1091506-.205161.0212443-.807484.0869518-.880258.0945828-.245094.0257003-.391742.0377302-.443532.0377302zm0 1.9086391c.143966 0 .325616-.0149013.642579-.0481376.078541-.0082358.67921-.0737629.877798-.0943265.450282-.0466264.831462-.0801593 1.192933-.1026995 1.064952-.066407 1.864256.0128244 1.87044.0200272-.134644-.157134-.144835-.2273412-.144992-.2260749-.018388.1490458-.078851.3746121-.179264.6523152-.212848.5886526-.580133 1.3463852-1.025955 2.1179407-.874824 1.5140008-1.915504 2.7880569-2.183966 2.8553219-.753488.1879519-.939351.233279-1.374354.3305998-.43144.0965237-.83663.1783154-1.217778.2439695-.730021.1257488-1.336083.1854611-1.772395.168555-.273862-.0106115-.346203-.0374434-.273776.1258197.055004.1239898.056133.1008081.078781.011746.052087-.2048222.155834-.4855893.305245-.8211764.29873-.6709679.759653-1.5166395 1.291942-2.3764115.519503-.8391182 1.069688-1.6309901 1.530566-2.2023694.225098-.2790675.420395-.494742.567968-.6296616.029388-.0268679.027038-.0254376-.185772-.0254376zm-370.4132903 20.4973725c4.4802647 3.55583 23.4042033 4.0462665 53.7905413 2.8630409 2.369312-.0920957 3.158078-.2578216 3.401755-1.2313059.135311-.5405653-.050565-.9057312-.447306-1.3777359-.096227-.1144809-.564169-.6229089-.685761-.7663142-.529649-.6246677-.76032-1.1356877-.708584-1.7062093.226276-2.4952889 9.156862-24.2047761 10.364843-25.7139211.181522-.2270905 3.174156-.4690006 7.079071-.4322293 1.444258.0136001 2.969954.054278 4.649191.1171081.508267.0190173 2.989058.1232119 3.192688.1232119-.465185 0-.784544-.323581-.864916-.6764733-.02216-.0973014-.021144-.1386639-.017796-.1609675-.014708.0979705-.069348.2970637-.161836.5729432-.19078.5690709-.522669 1.4136403-1.012887 2.5859348-.532995 1.2745911-3.059347 7.1023642-3.567971 8.296112-.251751.5908603-.489763 1.1537669-.717758 1.6979446-3.272864 7.8116719-4.683333 12.1476548-4.011608 13.9118893 2.377244 6.2494254 8.379662 6.8644041 14.332441 3.5156999 1.387285-.7801577 3.564162-5.092475 7.442772-13.9282718.219699-.5004917.44609-1.0185276.682207-1.5608841.373136-.8570867 3.677996-8.5243995 4.463842-10.2983742.668339-1.5087151 1.180308-2.6190668 1.566953-3.3906993.202797-.4047241.368135-.7098254.491488-.9080693.050794-.0816327.089688-.1372335.109257-.1604064-.065594.0776753-.147778.145461-.362486.199286.464977-.1160834 2.500251-.2272377 4.30503-.2112987 1.015207.0089658 1.901403.0548274 2.545709.1363272.324582.0410572.575749.0899266.733407.1400331-.012395-.0039393-.072043-.0406259-.171667-.2793736-.076232-.1829039-.075867-.2772296-.060769-.3669077-.004425.0262852-.019286.084397-.044465.1657104-.061496.1985929-.169145.4878081-.321164.8615303-.287697.7072689-.723552 1.6930108-1.347747 3.0555648-.454596.9923375-3.393355 7.292989-4.296652 9.2661992-.284222.6208705-.555798 1.2179593-.817409 1.7974754-4.905832 10.8673032-6.55249 15.6218746-4.512621 16.7348289 1.440666.7843827 36.148941.8923805 37.245495.1832599.76966-.4976027.958352-1.3276026 1.208475-3.7582015.721196-7.0083128 1.044944-8.9566307 2.607718-12.7687653 1.569432-3.8283741 3.934135-7.0389141 7.308372-9.5597593 4.726933-3.5318001 12.45968-5.1957844 21.903245-5.3700352 3.406242-.0628513 6.822792.0764122 10.006687.3555686 2.127827.1865629 4.16093.4524229 4.436414.5309359-.091488-.0261495-.140246-.143035-.170203.0158908-.073616.3905406-.346776.975218-.769252 1.6257677-.86228 1.3277838-2.13904 2.6183609-2.862327 2.9287479-.406769.1741007-1.715346.1861721-5.753325.0803999-1.97985-.0518608-3.169739-.0730708-4.464724-.0698461-4.776603.0118945-8.006251.4110743-9.917453 1.5006623-8.679161 4.9499962-12.968913 22.8475893-6.590333 24.4741586 1.660052.4236707 11.58669.5895558 25.156376.5283287 15.342808-.0692276 22.871343-.2294569 23.372946-.8574972.531236-.6637352 5.201001-13.8714683 5.639151-15.0293948 1.187179-3.1374325 2.276733-5.7796644 3.306435-7.9631075 1.72046-3.6481668 3.230521-5.8559843 4.227193-6.2319518 6.190289-2.3369173 25.979591-2.6643471 27.198128-.0342584 1.620976 3.4959746-2.151762 14.7247059-6.285065 17.6718836-.426183.3037831-1.847542.5389451-4.834299.8110257-.113002.0102939-1.842901.1645826-2.374375.2142146-.95452.0891383-1.756728.1719683-2.526519.2634527-6.954441.826488-10.77199 2.3580594-11.267456 5.8591284-.266535 1.8749975.28132 3.1403606 1.717848 3.8746395 1.016259.519459 2.051973.711462 5.20141 1.0992658 3.47544.4267759 44.610714.33721 45.592798-.3476901 1.819937-1.268109 2.276235-2.3818431 6.93803-15.2510566 3.121905-8.618238 5.179935-12.928639 7.150797-14.1517606 1.364961-.8470704 9.704485-1.8555772 17.205768-1.8787935 9.391103-.0290652 16.202076 1.3421117 17.771636 3.922417 1.385869 2.2787969.987211 5.8032595-.90327 11.0218019-.368461 1.0171127-.777303 2.064041-1.332238 3.4301641-.179648.4422511-.813 1.988703-.793147 1.9401052-.312431.7648098-.540166 1.3301951-.751985 1.8705653-.54198 1.3826435-.925064 2.4697078-1.195571 3.4310047-.720262 2.5595892-.652433 4.3008523.616203 5.3241417 1.494407 1.2036325 36.24516 1.2509411 37.233169.2184271.505506-.5283069 1.08378-1.970363 2.293977-5.4209774.326118-.9298542 1.684896-4.8634188 1.577668-4.5540444.69724-2.0116761 1.251845-3.5829768 1.80882-5.1114361 1.186144-3.2550397 2.246297-5.92646 3.249244-8.1242044 1.608094-3.5237917 3.02298-5.6562675 3.971408-6.0412159 4.969633-2.0167649 25.075801-2.7680333 26.945039-.5456685 2.301111 2.7369564-1.753532 15.5139722-5.982708 18.9128088-.42373.3407339-1.917262.5854665-5.169988.8594129-.251944.0212189-.531273.0443914-1.079033.0897653-.452171.0375833-.787886.0659924-1.12193.0951961-.872036.0762375-1.612045.1478995-2.32127.2269207-6.970866.7766875-10.77812 2.3157789-11.268948 5.9399027-.265291 1.9609744.999528 3.2052535 3.241624 3.8199387 1.506372.4129816 3.274894.5579772 6.076296.6069751 1.269098.0215494-.746137.0227507 25.696623-.0049123 12.03136-.0125865 22.353082-.0191784 33.686315-.0191784l-.951059-1.0331395c-.022385.2700936-.141437.80913-.432365 1.5277531-.499173 1.2330119-1.321459 2.4743607-2.547034 3.6429432-1.188084 1.1328347-2.696579 2.1355256-4.565532 2.969338l.388818-.0828001h-110.899503c-5.737948 0-9.602115-5.8166079-7.091914-11.7511159.066195-.1564218.596037-1.4068498.75581-1.7848026.298536-.7062091.545969-1.2949423.783418-1.8651571.342277-.8219544.650664-1.5742456.939574-2.2940947 2.940494-7.3265461 4.010475-11.5797308 2.677482-13.6170144-1.710841-2.6178523-15.768851-2.0276167-17.527171-.1531074-.794794.8477544-1.624842 2.744974-2.805272 6.1294171-.620636 1.779442-2.98448 9.010004-3.305597 9.9654032-3.280236 9.7594638-5.814905 14.9880896-7.816054 15.3872756-.0621.0123875-.121871.0182871-.180177.0180446l-278.8651194-.0303041-.0001037.9543196.2958587.9073.0696805-.0227219 5.8960019-1.9226093-6.2012531.061036c-4.3980406.0432878-8.9944481-.9349636-12.0617397-2.851161-3.7479525-2.3414198-5.0748589-5.8703667-3.3726438-10.8954384 1.6403408-4.8396667 3.1745327-9.1419512 4.5596369-12.8550031.4844368-1.298631.9155245-2.4305857 1.2879022-3.3894037.2229014-.5739384.3763738-.9618281.4550559-1.157209l.5465641-1.3572092-1.4623785.046886c-31.4402026 1.0080192-51.2072835.7652086-55.48629052-.8975832-2.76182636-1.073188-5.15335381-3.5967723-6.57847604-6.4988082-.55492305-1.130013-.87360768-2.1746889-.88843705-2.7847339-.00281689-.1158801-.00205867-.1186266-.12360911-.016257-.2055626.1731245-.37585639.1602724-.37095734.1630489 1.7431777.9874107 2.44936081 1.3777571 3.60372538 1.9680142.95035933.4859439 1.85368342.9145436 2.71576825 1.2821144 1.72278103.7345496 3.22281533 1.2018059 4.48554053 1.3483357 2.2110303.2557167 11.7061862-.4139127 27.9537135-1.8381923 1.0339607-.0906384 2.0971908-.1845092 3.1978135-.282287 2.4321209-.2160662 4.9054604-.4384963 8.0262966-.7211136.0050089-.0004536 5.6971473-.5166793 7.1361475-.6465051 5.0817511-.4584726 7.7552672-.6885798 9.0201428-.770146 1.8337463-.1183062 3.1928284-1.1223567 4.1113925-2.6639648.5633342-.9454327.8565414-1.8772152.9709249-2.5342666l.2023808-1.1625322-1.179149.0452421c-29.8106794 1.1437903-51.1113462.9573114-54.6553566-.7526542-4.1039142-1.9803535-7.4788674-6.1961546-7.4994183-8.9513549.0005911.0809296-.1400501.3786977-.63248547.4161606-.15499964.0117919-.05168934.0637407.1189088.1870209.02625741.0189746 2.06417827 1.6513923 2.93469057 2.2540404 2.4004748 1.6618276 4.814291 2.6502521 7.5078265 2.7673623 4.7635874.206302 13.5488102-.3394026 25.9408287-1.4810355 2.1792155-.2007634 4.4558378-.4186762 6.880575-.6576321 1.2910416-.1272311 19.3740587-1.9823893 21.3753096-2.1254893 1.9018836-.1358488 3.2633201-1.1187359 4.1135873-2.6227907.5332214-.9432261.7689099-1.8709376.8337824-2.5300617l.1073091-1.090293-1.0947074.0432426c-28.5281893 1.126905-50.8437918.8434437-53.6077633-.4595081-4.1080823-1.9345215-7.5178411-6.71338402-7.6759631-10.06105411-.0038832-.08111427-.0017679-.11436156-.018501-.06169375-.1029025.32388825-.4560188.60699251-.8983932.55076508-.1726369-.0219428-.2238922-.05211389-.251621-.0753994.0591291.04965427.1497354.13834089.2783044.27353809.037687.03962992.7843254.84936195 1.0766789 1.1522381.5454093.56504 1.0773639 1.06794489 1.6547471 1.54806157 2.3421268 1.94757 4.9956249 3.14669066 8.1478921 3.31369426 3.9073434.20711644 15.1189602-.71739522 32.0628779-2.49645466 1.7164834-.1802255 3.4831327-.36837552 5.3039846-.5647045 7.05739-.76094611 27.2336259-3.04058697 27.8545219-3.0770902 3.0202501-.17800734 4.2457923.90953804 4.3623537 3.20646105.099196 1.95472696-.6368166 4.58374387-1.9016653 7.45649947.0085351-.0193993-5.7389654 12.3818313-7.9042732 17.3845855-1.109046 2.5623539-2.1228778 5.0008092-3.0439155 7.3355622-5.7603595 14.6020254-7.550452 23.9532651-3.6133618 27.0758692zm1.1862858-1.495202c-2.8752448-2.2804281-1.1432153-11.3283531 4.2028038-24.8800607.9129028-2.3141316 1.9188502-4.7336234 3.020044-7.2778355 2.1530812-4.9745057 7.8973385-17.3687385 7.8995857-17.373846 1.3755671-3.1242219 2.1790603-5.99427802 2.0609306-8.32210828-.1705038-3.35989698-2.306305-5.25520551-6.380697-5.0150692-.6806283.04001495-20.9848813 2.33412-27.9469733 3.08479084-1.8191378.19614417-3.584027.38410673-5.2986818.56414023-16.7898752 1.76288545-28.0063689 2.68779925-31.7625696 2.48869443-2.7029062-.14319695-4.9810634-1.17270035-7.0285685-2.87528084-.5188492-.43144344-1.0015682-.88780139-1.5018175-1.40605606-.2735458-.28339143-1.013633-1.08601873-1.0668451-1.14197416-.5107787-.53711125-.728941-.72031521-1.169114-.77626284-1.0559432-.13421432-1.2752078.55592619-1.2302493 1.49499656.192556 4.07669062 4.0411967 9.47065722 8.7689524 11.69698672 3.2020965 1.5094865 25.3611222 1.7909589 54.4965938.6400653l-.9873982-1.0470505c-.0088128.0895406-.0400225.2785508-.1043062.5315828-.1086971.4278511-.2703646.8549114-.4915346 1.2461434-.5543599.9806186-1.372789 1.5714823-2.5881252 1.658292-2.0356685.145561-20.1774756 2.0067506-21.4264401 2.129835-2.4209142.2385791-4.6935629.4561115-6.8684817.6564791-12.3000985 1.1331647-21.0381657 1.6759402-25.68299 1.4747816-2.2835331-.0992841-4.3747164-.9555948-6.5041715-2.4297979-.801952-.5551844-2.819475-2.171263-2.9031794-2.2317508-.5471966-.3954236-.91205789-.5788914-1.38160354-.5431699-.83507988.0635301-1.1371454.7030689-1.13131705 1.501067.02668684 3.5778178 3.87712429 8.3875671 8.57855429 10.6562531 3.9940987 1.9271308 25.0496112 2.1114635 55.5579855.9409037l-.9767682-1.11729c-.0172017.0988111-.064358.3000432-.1485743.5676739-.1421073.4516025-.334777.9026684-.5816323 1.3169608-.6222241 1.0442664-1.4598052 1.663047-2.5946057 1.73626-1.2888177.0831101-3.9647555.3134258-9.0687891.7739087-1.4395247.1298731-7.1321864.6461463-7.1367862.6465628-3.1198473.2825277-5.5921914.5048683-8.0230537.7208227-1.0999049.097714-2.1623979.1915198-3.1955925.282091-15.9092378 1.3946247-25.5627844 2.0754244-27.5673945 1.8435813-1.0468659-.1214811-2.3876723-.5391384-3.95659541-1.2080869-.81791378-.3487374-1.68209626-.7587656-2.59542488-1.2257747-1.12187776-.5736458-1.81271743-.9555109-3.53176678-1.9292543-1.34852184-.7642677-2.38959162.1125196-2.35440043 1.5602011.02259817.9296349.41726606 2.2233905 1.08330259 3.5796685 1.61972314 3.2983099 4.3412346 6.1700995 7.60037489 7.4365332 4.65574532 1.8091897 24.29350182 2.0504118 56.23876392 1.0261996l-.9158145-1.3103232c-.0816018.2026309-.2379756.5978537-.4637606 1.1792171-.375433.9666849-.8095523 2.1066-1.2969972 3.4132945-1.3917006 3.7307351-2.9323489 8.0511252-4.5790559 12.9095747-1.9906183 5.8764602-.3186499 10.3231097 4.1690786 13.126682 3.4188814 2.1358426 8.3604268 3.1875495 13.091775 3.1409811l-.0093924-.9542733-.2958587-.9073001-.0696805.0227219-5.7069668 1.8609674 6.0027218.0006522 278.8612548.0302958c.183774.0007722.371218-.0177291.557625-.0549133 3.089652-.6163189 5.609809-5.8150078 9.25186-16.6509567.326409-.9711438 2.685324-8.1866278 3.298584-9.9449218 1.073769-3.078635 1.864651-4.8863338 2.395337-5.4523808.252453-.2691354 3.791546-.8522564 7.163002-.9938094 3.897398-.163635 6.955554.2448258 7.374511.8858951.796976 1.218061-.250112 5.3802482-2.851361 11.8615289-.285607.7116192-.590941 1.4564644-.930247 2.2712833-.235961.5666434-.482141 1.1523954-.779454 1.8557098-.15939.3770483-.689035 1.6270102-.755589 1.7842802-3.042971 7.1940588 1.746465 14.4034445 8.849705 14.4034445h110.899503.203226l.185593-.0828002c2.06583-.9216468 3.757181-2.0458813 5.105006-3.331029 2.460515-2.3460941 3.426685-4.7326364 3.564406-6.3944041l.085622-1.0331395h-1.036681c-11.333985 0-21.656339.0065923-33.688312.0191795-26.3331.0275483-24.412691.0264035-25.661735.0051948-2.644142-.0462475-4.30166-.1821423-5.604542-.539336-1.4308-.3922632-1.963976-.9167802-1.854878-1.7232049.315484-2.329445 3.512996-3.6220465 9.588908-4.299019.69231-.0771365 1.417996-.1474116 2.276147-.2224351.330832-.0289229.664105-.0571255 1.113798-.0945028.54701-.0453114.827778-.0686032 1.081117-.0899396 3.864412-.3254629 5.32376-.564594 6.205657-1.273754 4.961457-3.9873451 9.378172-17.9053214 6.247644-21.6287906-2.585141-3.0735144-23.458127-2.2935938-29.123583.0055483-1.592555.6463867-3.162266 3.0122107-4.990025 7.0173524-1.027274 2.2510503-2.104336 4.96508-3.306153 8.2631278-.561012 1.5395391-1.118674 3.1195001-1.818925 5.1398651.105735-.3050664-1.250991 3.6225542-1.575359 4.5474193-1.021694 2.9131397-1.664646 4.5164836-1.87192 4.7331065.212406-.2219732.022973-.1842618.113792-.1941256-.254731.027666-.629866.0552985-1.113215.0818347-.956219.0524972-2.314356.0996446-3.981941.1387774-3.324368.0780121-7.684147.1197778-12.007531.1138921-9.303834-.012666-17.379813-.2935858-17.66749-.5252877-.960337-.7746134-.421714-2.6887113 2.695054-10.3614807.563317-1.3867582.980193-2.4542604 1.358441-3.498388 2.077456-5.7346745 2.528471-9.7220157.739453-12.6637144-2.081019-3.4211274-9.28073-4.8705646-19.408243-4.8392202-7.885299.0244048-16.418718 1.0563595-18.206292 2.1656962-2.527498 1.5685708-4.604657 5.9190378-7.938893 15.1234309-4.226462 11.6674436-4.953752 13.4426172-6.234977 14.3353586-.407072.2838901-41.385267.3731139-44.268381.0190743-2.866061-.3529106-3.83998-.5334579-4.56566-.9043879-.658746-.3367168-.855464-.7910699-.696816-1.907117.313327-2.2140326 3.54979-3.5124767 9.602975-4.2318565.751784-.0893444 1.538898-.170616 2.478742-.2583837.526725-.0491885 2.25351-.2031995 2.370059-.2138166 3.509629-.3197117 4.921164-.5532486 5.769112-1.1576642 4.842352-3.4527529 8.939877-15.6481421 6.908781-20.0286264-1.835943-3.9626983-22.527121-3.6203462-29.603682-.9488491-1.659156.6258718-3.328941 3.0672167-5.27962 7.2035557-1.054421 2.2358569-2.161791 4.9212937-3.36525 8.1017504-.732827 1.9366891-5.048427 14.1427181-5.344776 14.5129826.249138-.3119388-.19478-.2445765.110138-.2695901-.322721.026474-.798574.0533846-1.414593.0799897-1.209678.0522446-2.939511.1024962-5.074859.1479427-4.253199.0905205-9.874935.1569884-15.511503.1824208-13.140385.0592901-23.268717-.1099655-24.675962-.4691158-1.500207-.3825604-2.063503-4.1226942-.952833-8.7566016 1.272467-5.3089539 4.221391-10.0454833 8.016802-12.210124 1.51858-.8657521 4.538447-1.2390032 8.976768-1.2500553 1.271819-.0031671 2.447296.017786 4.409993.0691975 4.769674.1249385 5.737223.116013 6.555153-.2340687 1.13954-.4890149 2.662026-2.0279775 3.711193-3.6435382.545973-.840718.916255-1.6332764 1.044144-2.311747.193739-1.0278079-.177514-1.917798-1.181572-2.2047848-1.494098-.4258182-8.870944-1.0726026-15.002146-.9594709-9.810025.1810126-17.882802 1.9181668-23.010402 5.7493311-3.665035 2.7380968-6.236927 6.2299358-7.932007 10.3648087-.950781 2.3192753-1.597255 4.7603351-2.040587 7.4283117-.171458 1.0318342-.307883 2.0642836-.433886 3.2232752-.070477.6482576-.259753 2.586488-.265854 2.645769-.159587 1.5508081-.34064 2.3472044-.346216 2.3508096-.482692.3121477-34.445635.206469-35.295735-.2563748.128442.0700775.164322.1348995.159916.1068784-.027253-.1733326-.017143-.4587133.039131-.8360576.120709-.8094186.43744-1.9532343.936715-3.3948411.880065-2.5411043 2.275528-5.8798094 4.203049-10.1496167.26018-.5763454.530378-1.1704032.813254-1.7883323.899559-1.9650481 3.838174-8.2653886 4.296437-9.2657313 1.765805-3.8545762 2.069273-4.6006145 1.80051-5.2454578-.57285-1.372822-7.508538-1.4340747-9.637283-.9026225-.754763.1892101-1.197182 1.0721507-3.087079 5.3384199-.790457 1.7843837-4.098991 9.4602202-4.468752 10.3095551-.235374.5406503-.460998 1.0569292-.679889 1.5555813-3.451496 7.8627956-5.834955 12.5843449-6.630773 13.0318837-5.0721 2.8532825-9.746983 2.3743166-11.612942-2.5310148-.3917-1.0287707 1.081881-5.5587661 3.98816-12.4954717.226443-.5404747.462973-1.0998766.71328-1.6873483.504213-1.1833946 3.034195-7.0195414 3.572951-8.3079086.506875-1.2121284.852376-2.0913388 1.061658-2.7155989.125005-.3728718.204681-.6631891.239672-.8962564.028936-.1927434.03311-.3626398-.008707-.5462443-.100349-.44061-.463264-.8083232-.996068-.8083232-.156809 0-2.546793-.1003807-3.121325-.1218773-1.695586-.0634419-3.238065-.1045672-4.702582-.1183581-5.11814-.0481959-7.804478.1689549-8.58752 1.1485668-1.438611 1.7972733-10.514637 23.8603131-10.775206 26.7337672-.106896 1.1788155.324999 2.1356221 1.153642 3.1129225.156008.1839954.620249.6884021.680481.7600607.010292.0122447-.013208-.0339228.056853-.3138142.05235-.2091352.172489-.3449363.286461-.4092494-.001267.0007151-.059244.0199597-.166932.0425858-.33068.0694785-.897511.1213324-1.743968.1542345-29.328668 1.1420405-48.6332156.6417401-52.5298087-2.4508501z"/></g></svg>