<svg height="256" preserveAspectRatio="xMidYMid" viewBox="0 0 256 256" width="256" xmlns="http://www.w3.org/2000/svg"><path d="m245.851081 78.242944c-6.440319-15.3850082-15.608803-28.9157162-27.39178-40.7057975-11.885993-11.7829767-25.416701-20.9550135-40.69514-27.3882275-15.932063-6.76357779-32.407627-10.148919-49.764161-10.148919-17.34943 0-33.9315627 3.38534121-49.757056 10.148919-15.2784392 6.433214-28.8126995 15.6052508-40.7057975 27.3882275-11.7900813 11.9002026-20.9479089 25.4273583-27.3953321 40.7057975-6.75647319 15.9320622-10.1418144 32.411179-10.1418144 49.757056 0 17.352982 3.38534121 33.945772 10.1418144 49.771265 6.4474232 15.274887 15.6052508 28.798491 27.3953321 40.691588 11.7829767 11.793634 25.3207893 20.955014 40.7057975 27.395333 15.8254933 6.770682 32.407626 10.148919 49.757056 10.148919 17.356534 0 33.832098-3.378237 49.764161-10.148919 15.278439-6.440319 28.809147-15.601699 40.69514-27.395333 11.782977-11.893097 20.951461-25.416701 27.39178-40.691588 6.777787-15.825493 10.148919-32.418283 10.148919-49.771265 0-17.345877-3.371132-33.8249938-10.148919-49.757056zm-201.9837372 84.796936-19.2037299-18.781006 4.3657758-1.520384c2.0709905.436933 4.1455333 1.087003 6.3195404 1.964421 3.2823246 1.193573 5.3497628 2.507924 6.3337497 3.712153 1.7512835 2.067438 2.5114756 5.889712 2.184664 11.456165l-.2166902 2.944856 2.2947853-1.857852c4.7991563-4.038965 9.3780701-6.436767 13.6337246-7.200511 2.7317182-.543502 10.0423501-1.417367 21.7187578-2.618044l16.6922544-1.634058 3.3888933 2.614492zm121.5632342 22.475398c-2.507924-6.109955-4.259207-11.786529-5.673022-17.019066-1.531041-6.227181-1.744179-9.935781-.650071-10.926873 2.063886-1.847195 3.697943-3.921738 5.122415-6.220076.099465-.209585.32326-.539949.547054-.760192 0-.106569 0-.106569.113674-.106569l16.908945 21.935448zm-9.275054-50.741043c6.440319-5.570006 10.479283-9.061916 11.900203-10.475731 3.27522-3.282324 8.287514-8.845225 15.047539-16.926706-17.562567 13.31757-28.372214 20.741876-32.286848 22.049122l-3.935947 1.534593c-1.417368.429828-2.724614.75664-3.928843.980435-3.051425.436932-7.314185.106569-12.766964-1.094109-5.12952-1.207781-8.40474-3.7086-9.829212-7.527322-.323259-.987539-.75664-2.731718-1.193573-5.239641-.436932-2.294786-.870313-4.149086-1.307246-5.353315-.440485-.976883-1.420919-2.941304-3.051425-5.779591-1.634057-2.941304-3.069186-5.562901-3.935947-7.7440126-2.948409-6.6605611-4.586019-13.971193-5.239642-22.1556906h.440485c3.278772 0 6.106403-.9804346 8.40474-2.7246135.53995-.4404851.983987-.770849 1.307246-1.2042295l2.074543-6.3301973v-.1030167c.436933-2.8382871 2.401355-4.3693281 5.889712-4.3693281 3.499015 0 5.346211 1.4138151 5.88616 4.0425166-.106569.4298282-.106569.8738656-.106569 1.4138151 0 2.5114756 1.097661 4.6925873 3.495463 6.5504399 2.287681 1.7441789 5.133072 2.7246135 8.401188 2.7246135 3.278772 0 6.006938-.9804346 8.401187-2.7246135 2.184665-1.8578526 3.385342-4.0389643 3.385342-6.5504399v-.106569h4.475897v-2.8382871h-5.022951c-.53995-1.3107985-1.527489-2.5114756-2.838288-3.5984792-2.394249-1.7512835-5.122415-2.7317181-8.401187-2.7317181-3.268116 0-6.113507.9804346-8.401188 2.7317181-.760192.5506064-1.307246 1.2006772-1.8543 1.8578525-.216691-.3268115-.436933-.6571753-.653623-.8774179-1.63761-1.7512835-3.822274-2.6251492-6.767131-2.6251492-2.834734 0-5.12952.8738657-6.653456 2.6251492-.330364.2202426-.554159.5506064-.75664.8774179-.444037-.6571753-1.101213-1.2006771-1.861405-1.8578525-1.857852-1.4209197-3.932395-2.2983376-6.440318-2.6251492 4.483001-11.5662864 14.624816-23.7826436 30.443205-36.6668331 7.747564 20.3013904 19.967474 33.3951655 36.563816 39.0681875.429828.9875392.97333 2.1882163 1.740627 3.3782366 0 .2237948.113673.3303638.213138.4440374h-12.102684v2.8382871h13.637277c.099464.3303638.323259.6500708.436933.9804346 1.090556 2.7352705.539949 5.8861599-1.538146 9.2715011l-3.051425 4.1526379c-.97333 1.6340577-1.087003 3.0585297-.429828 4.3657758.330364.7566398 1.317903 1.8578525 2.948408 3.1650987.980435.8738656 1.410263 2.184664 1.200677 3.9217384 3.484806-.8738656 4.909278-2.6144923 4.028308-5.4527794-.436933-1.6340577-.323259-3.1650987.444037-4.6925874l.983987-1.9644215c.103017-.2237948.209586-.3303638.209586-.4369328v-.1030167c.120778 0 .120778 0 .120778-.1136735 1.847196-3.062082 2.937751-5.3497628 3.484806-6.8772514.103016-.5435018.206033-.9875392.206033-1.4173675 0-1.3072461-.639414-2.6180445-2.063886-3.7121527h3.932395c3.602032 3.3853412 4.362224 9.6018649 2.504371 18.5465545.326812 5.2431938-.429828 8.1880499-2.291233 8.7386563-1.861404.4333805-3.715705-.106569-5.676574-1.63761l.113674 51.1744232 25.967307.110122 3.719258 5.026503-29.800239 20.074043zm-52.378653-66.026587c.213138.6536231.870314.9839869 2.074543.9839869.543502 0 1.090556-.213138 1.523936-.5506064.216691-.106569.330364-.213138.440485-.4333805h7.310632c-.323259 1.424472-1.204229 2.5114756-2.61094 3.6091361-1.754835 1.1900202-3.932395 1.8471956-6.447423 1.8471956-2.507923 0-4.586018-.6571754-6.4403184-1.8471956-1.7441789-1.3107985-2.6180445-2.8382872-2.6180445-4.5895707 0-1.8578525.8738656-3.3888935 2.6180445-4.5789138 1.8543004-1.3072461 3.9323954-1.9644215 6.4403184-1.9644215 2.515028 0 4.692588.6571754 6.447423 1.9644215 1.193573.7566398 1.957317 1.7406267 2.387146 2.8382871h-13.523604v2.7210613zm35.686399 0c.213138.6536231.870313.9839869 1.957317.9839869 1.200677 0 1.8543-.3303638 2.181111-.9839869h6.770683c-.209586 1.424472-1.087004 2.5114756-2.504371 3.6091361-1.857853 1.1900202-4.042517 1.8471956-6.447423 1.8471956-2.621597 0-4.685483-.6571754-6.543336-1.8471956-1.747731-1.3107985-2.618044-2.8382872-2.618044-4.5895707 0-.4333805 0-.866761.106569-1.1935726 0-.1136735.106569-.4404851.223795-1.0976604.213138-.5470541.976882-1.4244721 2.28768-2.2876808 1.857853-1.3072461 3.921739-1.9644215 6.543336-1.9644215 2.404906 0 4.58957.6571754 6.447423 1.9644215 1.083451.7566398 1.953764 1.7406267 2.294785 2.8382871h-12.994311v2.7210613zm53.685899 30.8801376c.753087.7708494 1.090556 1.6447144 1.090556 2.5150284 0 .976882-.337469 1.857852-1.090556 2.507923-.653623.760192-1.527489 1.09766-2.511476 1.09766s-1.747731-.337468-2.504371-1.09766c-.66428-.650071-.991091-1.531041-.991091-2.507923 0-.870314.326811-1.744179.991091-2.5150284.75664-.653623 1.520384-1.0870035 2.504371-1.0870035s1.857853.4333805 2.511476 1.0870035zm24.54994 74.3212054c-7.083285 5.456332-15.385008 11.122249-24.873199 16.912497h-.106569l-7.211168-17.679793 33.498182-22.592624.113674-.106569v-.113673c2.078095 1.200677 4.035412 2.845391 5.893264 4.916382 1.523937 1.634057 2.618045 3.27522 3.385342 4.799156.43338.657175.65007 1.307246.866761 2.078095.326811 1.63761-3.488358 5.562901-11.566287 11.786529zm27.17509-8.514861c-5.562901-2.511476-9.939334-4.262759-13.314018-4.91283-.763744-2.284129-2.294785-4.578914-4.365776-6.980268-2.401354-2.621597-4.792052-4.468793-7.204063-5.896817-2.397802-1.200677-4.369328-1.634058-5.882607-1.09766l-.66428-.866761h9.711986c4.799156 0 8.845225-1.42092 12.11334-4.472345 4.042517-3.818722 5.999834-9.598313 5.90037-17.459551-.223795-7.744013-2.0852-17.239309-5.573558-28.3722146-4.035412-12.7669636-9.381622-24.546388-15.92851-35.3524824-7.967807-12.8735326-17.019066-23.026004-27.061416-30.3366359-11.900203-8.6178781-24.880304-12.9872062-38.954514-12.9872062-15.939167-.1172259-28.702578 5.3497627-38.194322 16.2588738-5.896817 6.6570089-10.376266 15.3850082-13.53426 26.1875503-1.531041.4333805-2.9484084 1.0870036-4.2627592 2.0780951-1.3072461 1.0870036-2.2876807 2.2876807-2.8311825 3.5984792h-5.4563317v2.8382871h4.8027086v.106569c0 2.5114756 1.1971249 4.6925873 3.4848056 6.5504399.3303639.1101212.5506064.3268115.770849.5399495-1.5239364 10.04235-2.0780951 20.9550134-1.63761 32.6349732.3232592 9.70133.9768823 16.475564 1.8543002 20.283629 1.417367 5.466989 3.385341 9.388727 6.106403 11.903755 4.038964 3.818722 10.479282 5.779591 19.207282 5.779591l36.776954.110121 2.067438 2.728166c-1.087003 2.511476-2.944856 4.916382-5.5629 7.207615-.657176.653623-1.087004 1.520384-1.310799 2.838287-17.132739 7.193407-26.624483 12.546722-28.36511 15.932063l-9.498848 17.015513-9.16138-40.585019-4.259206.75664-5.893265-4.589571-18.006605 1.86851c-11.5591819 1.19002-18.7632448 2.067438-21.6050843 2.607387-2.9413038.547054-6.3301973 1.971526-9.9286765 4.15619-1.0905558.760192-2.0709904 1.307246-2.8347348 1.847196l-.1136736-2.500819c-.4369328-3.712152-1.3107984-6.333749-2.7281658-8.085033-1.3036938-1.634058-4.141981-3.268115-8.1880499-4.692587l-6.433214-1.957317-.3232592.113673-5.8968168 2.170455-2.9484084-2.82763 14.0848667 67.11359c-7.7546694-9.392279-14.0848667-19.640662-18.884023-30.890794-6.44031862-15.274887-9.70843396-31.199845-9.70843396-47.796187 0-16.688702 3.26811534-32.5177476 9.70843396-47.7926345 6.2236283-14.6248162 14.9516276-27.6013654 26.2976716-38.9545139 11.3567008-11.3531486 24.3368023-20.0775956 38.9616185-26.3083285 15.2713346-6.42966172 31.1003805-9.70132936 47.7926345-9.70132936 16.585685 0 32.517748 3.27166764 47.689618 9.70132936 14.720728 6.2307329 27.715039 14.9551799 39.068187 26.3083285 11.346044 11.3531485 20.077596 24.3296977 26.287015 38.9545139 6.447423 15.2748869 9.729748 31.1039325 9.729748 47.7926345 0 12.880637-1.971526 25.423806-5.900369 37.43413zm-111.520884-53.469209c-2.404907.75664-4.152638 1.307246-5.239641 1.413815-1.307247.220243-2.948409.220243-4.91283-.106569-1.744179-.223795-2.845392-.550606-3.381789-.763744-.657176-.323259-1.094108-.870313-1.310799-1.751284-.330364 1.527489.436933 2.735271 2.401355 3.609136 1.310798.657176 2.944856 1.087004 4.902173 1.307246 1.971526.106569 4.479449-.543501 7.43141-2.181111 2.944856-1.634058 4.145533-2.511476 3.49191-2.735271 0 0-1.20423.330364-3.381789 1.207782zm-11.573391-1.634058c.980435-.330363 2.074543-.330363 3.385341-.330363h6.546888c2.28768 0 3.165098-.433381 2.841839-.877418-.987539-1.200678-4.369328-2.39425-10.269697-4.028308l-2.170455 1.083452-1.758388-1.083452c-1.079899.209586-2.063886 1.19002-2.831183 3.154442l2.401355.767297zm66.786779-20.7347705c-1.200677-2.8382872-1.857853-4.7991564-1.971526-6.2236284-.75664 2.4013543-.866761 3.9217384-.32326 4.4687925.660728.6607277 1.424472 1.2042295 2.294786 1.7548359zm-61.653707 7.3106319-16.589237-4.1455333c1.850748 2.5114756 3.385341 4.1455333 4.802708 4.7991564 1.523937.7566397 5.353315.4333805 11.786529-.6536231z"/></svg>