<svg height="199" preserveAspectRatio="xMidYMid" viewBox="0 0 256 199" width="256" xmlns="http://www.w3.org/2000/svg"><path d="m162.611457 141.314624h-69.222522v-124.4013525h69.222522z" fill="#6c6bbd"/><path d="m97.782719 79.1164824c0 25.2353866 11.815412 47.7143476 30.215063 62.2006766-13.455185 10.593128-30.4363815 16.915808-48.8913615 16.915808-43.6903671 0-79.10642437-35.421088-79.10642437-79.1164846 0-43.6953967 35.41605727-79.1164839 79.10642437-79.1164839 18.45498 0 35.4361765 6.32267919 48.8913615 16.9158075-18.399651 14.4863293-30.215063 36.9652899-30.215063 62.2006764" fill="#d32011" transform="matrix(1 0 0 -1 0 158.232966)"/><path d="m255.999994 79.1164824c0-43.6953967-35.416058-79.1164839-79.106424-79.1164839-18.45498 0-35.436178 6.32267919-48.896392 16.9158075 18.404681 14.4863293 30.220093 36.9652899 30.220093 62.2006764 0 25.2353866-11.815412 47.7143476-30.220093 62.2006766 13.460214 10.593128 30.441412 16.915808 48.896392 16.915808 43.690366 0 79.106424-35.421088 79.106424-79.1164846" fill="#0099df" transform="matrix(1 0 0 -1 0 158.232966)"/><path d="m186.032633 192.824108c.920485 0 2.243369-.176049 3.254394-.573417l-1.408393-4.305659c-.965756.397368-1.931511.528148-2.857027.528148-2.987805 0-4.481708-1.93151-4.481708-5.402194v-11.780202h-4.572247v21.005177h4.526978v-2.550197c1.187074 1.846001 2.902295 3.078344 5.538003 3.078344zm-16.890658-4.703026h-7.469514v-9.491564c0-2.10756.744437-3.515953 3.033076-3.515953 1.187074 0 2.680977.397368 4.03907 1.187074l1.317853-3.908291c-1.448632-1.011025-3.732241-1.629712-5.709021-1.629712-5.407224 0-7.293465 2.902296-7.293465 7.781372v9.577074h-4.265419v4.174879h4.265419v6.372979h4.612487v-6.372979h7.469514zm-58.493585-4.481708c.487908 3.033075 2.328879 5.100394 5.583273 5.100394 2.942536 0 4.833806-1.846001 5.316684-5.100394zm15.648254-1.846001c-.045269 6.549027-4.08937 11.030735-9.979471 11.030735-6.15166 0-10.457319-4.481708-10.457319-11.030735 0-6.674778 4.481708-11.025707 10.769178-11.025707 3.163854 0 6.06112.789707 8.611318 2.942536l-2.24337 3.385173c-1.755461-1.408393-3.99883-2.198099-6.10639-2.198099-2.942535 0-5.623513 1.363124-6.282439 5.140635h15.597954c.04527.573417.090539 1.141804.090539 1.755462zm20.079662 5.140635c-1.272583.794736-3.863021 1.80576-6.543998 1.80576-2.504927 0-3.998831-.925515-3.998831-2.464687 0-1.403364 1.579413-1.800732 3.556193-2.06229l2.15283-.306829c4.572247-.663956 7.338734-2.595467 7.338734-6.287469 0-3.99883-3.515953-6.855857-9.577074-6.855857-3.430443 0-6.594297.880246-9.099225 2.726247l2.152829 3.561223c1.539173-1.187074 3.827812-2.1981 6.991666-2.1981 3.118585 0 4.788537.920486 4.788537 2.550198 0 1.182044-1.187074 1.846001-3.692002 2.193069l-2.152829.306828c-4.703028.663957-7.253225 2.771517-7.253225 6.19693 0 4.17488 3.430443 6.725077 8.747127 6.725077 3.339904 0 6.372979-.749465 8.566048-2.198098zm56.360876 1.549232c-.940606 0-1.810792-.165989-2.620618-.492938-.804796-.331978-1.503962-.794736-2.09247-1.388273-.588507-.593537-1.051265-1.307793-1.388273-2.137739-.337009-.829947-.502997-1.745402-.502997-2.741337 0-1.000965.165988-1.911391.502997-2.741337.337008-.829946.799766-1.544203 1.388273-2.13774.588508-.593537 1.287674-1.056295 2.09247-1.388273.809826-.331978 1.680012-.492937 2.620618-.492937.940605 0 1.81582.160959 2.620617.492937.809825.331978 1.514022.794736 2.10253 1.388273.598567.593537 1.061324 1.307794 1.403363 2.13774.337008.829946.502997 1.740372.502997 2.741337 0 .995935-.165989 1.91139-.502997 2.741337-.342039.829946-.804796 1.544202-1.403363 2.137739-.588508.593537-1.292705 1.056295-2.10253 1.388273-.804797.326949-1.680012.492938-2.620617.492938zm-.000001 4.340868c1.629712 0 3.138705-.281678 4.526978-.850065 1.388273-.563358 2.590437-1.343003 3.601462-2.333909 1.016055-.990905 1.805762-2.162889 2.379179-3.510923.573417-1.353063.860126-2.821816.860126-4.406258 0-1.584443-.286709-3.053195-.860126-4.406258-.573417-1.348034-1.363124-2.525048-2.379179-3.515954-1.011025-.990905-2.213189-1.765521-3.601462-2.333908-1.388273-.563357-2.897266-.845036-4.526978-.845036s-3.138705.281679-4.526978.845036c-1.388273.568387-2.580377 1.343003-3.586372 2.333908-1.005995.990906-1.795702 2.16792-2.369119 3.515954-.573417 1.353063-.860126 2.821815-.860126 4.406258 0 1.584442.286709 3.053195.860126 4.406258.573417 1.348034 1.363124 2.520018 2.369119 3.510923 1.005995.990906 2.198099 1.770551 3.586372 2.333909 1.388273.568387 2.897266.850065 4.526978.850065zm-118.7879005-11.030735c0 3.692002 2.4194185 6.725077 6.372979 6.725077 3.7775115 0 6.327709-2.902296 6.327709-6.725077 0-3.822782-2.5501975-6.720048-6.327709-6.720048-3.9535605 0-6.372979 3.028046-6.372979 6.720048zm17.0063465 0v10.502588h-4.567217v-2.550197c-1.453663 1.89127-3.646732 3.078344-6.6345375 3.078344-5.8901015 0-10.502589-4.612487-10.502589-11.030735 0-6.413219 4.6124875-11.030737 10.502589-11.030737 2.9878055 0 5.1808745 1.187075 6.6345375 3.078345v-2.550197h4.567217zm-25.7484435-10.502589v13.183565c0 4.964586-3.163855 8.30449-8.25922 8.349759-2.680977.045271-5.4524935-.789706-7.384004-3.737271-1.448633 2.328879-3.7372715 3.737271-6.946396 3.737271-2.238339 0-4.4364383-.658926-6.15166-3.118584v2.590437h-4.5672177v-21.005177h4.6124875v11.644393c0 3.646732 2.0220501 5.583273 5.1406347 5.583273 3.0330755 0 4.572248-1.97678 4.572248-5.538004v-11.689662h4.6124875v11.644393c0 3.646732 2.1125895 5.583273 5.140635 5.583273 3.1236145 0 4.6175175-1.97678 4.6175175-5.538004v-11.689662z" fill="#110f0d" transform="matrix(1 0 0 -1 0 369.290736)"/></svg>