<svg height="158" preserveAspectRatio="xMidYMid" viewBox="0 0 512 158" width="512" xmlns="http://www.w3.org/2000/svg"><g fill="#262f45"><path d="m146.191214 74.0283204c-15.875969 0-27.782945 11.9069768-27.782945 27.7829456v26.459948h7.937984v-26.459948c0-11.9069766 7.937985-19.8449611 19.844961-19.8449611 11.906977 0 19.844962 7.9379845 19.844962 19.8449611v26.459948h7.937984v-26.459948c0-11.9069766 7.937985-19.8449611 19.844961-19.8449611 11.906977 0 19.844962 7.9379845 19.844962 19.8449611v26.459948h7.937984v-26.459948c0-15.8759688-11.906977-27.7829456-27.782946-27.7829456-10.362562 0-19.040764 5.0848083-23.813953 13.0231897-4.773189-7.9383814-13.451391-13.0231897-23.813954-13.0231897z"/><path d="m261.953488 74.0283204c-15.875969 0-27.782945 11.9069768-27.782945 27.7829456 0 15.875969 11.906976 27.782946 27.782945 27.782946 7.937985 0 14.883721-2.976744 19.844962-7.937985v6.614987h7.937984v-26.459948c0-15.8759688-11.906977-27.7829456-27.782946-27.7829456zm0 7.9379845c11.906977 0 19.844962 7.9379845 19.844962 19.8449611 0 11.906977-7.937985 19.844961-19.844962 19.844961-11.906976 0-19.844961-7.937984-19.844961-19.844961 0-11.9069766 7.937985-19.8449611 19.844961-19.8449611z"/><path d="m329.426357 74.0283204c-15.875969 0-27.782946 11.9069768-27.782946 27.7829456 0 15.875969 11.906977 27.782946 27.782946 27.782946 7.937984 0 14.883721-2.976744 19.844961-7.937985v7.937985c0 11.906977-7.937985 19.844961-19.844961 19.844961v7.937985c15.875969 0 27.782945-11.906977 27.782945-27.782946v-27.782946c0-15.8759688-11.906976-27.7829456-27.782945-27.7829456zm0 7.9379845c11.906976 0 19.844961 7.9379845 19.844961 19.8449611 0 11.906977-7.937985 19.844961-19.844961 19.844961-11.906977 0-19.844962-7.937984-19.844962-19.844961 0-11.9069766 7.937985-19.8449611 19.844962-19.8449611z"/><path d="m396.899225 74.0283204c-15.875969 0-27.782946 11.9069768-27.782946 27.7829456 0 15.875969 11.906977 27.782946 27.782946 27.782946v-7.937985c-10.522831 0-17.930624-6.215971-19.514212-15.875969h47.049096c.169065-1.294156.248062-2.611729.248062-3.968992 0-15.8759688-11.906977-27.7829456-27.782946-27.7829456zm0 7.9379845c10.52283 0 17.930623 6.2161034 19.514212 15.875969h-39.028424c1.583588-9.6598656 8.991381-15.875969 19.514212-15.875969z"/><path d="m436.589147 75.3513178h7.937985v52.9198962h-7.937985z"/></g><path d="m440.55814 148.777661c-3.288039 0-5.953489-2.665463-5.953489-5.953508 0-3.287979 2.66545-5.953442 5.953489-5.953442 3.287966 0 5.953488 2.665463 5.953488 5.953442 0 3.288045-2.665522 5.953508-5.953488 5.953508z" fill="#2397d4"/><path d="m484.217054 74.0283204c-15.875969 0-27.782945 11.9069768-27.782945 27.7829456 0 15.875969 11.906976 27.782946 27.782945 27.782946 7.937985 0 14.883721-2.976744 19.844962-7.937985v6.614987h7.937984v-26.459948c0-15.8759688-11.906977-27.7829456-27.782946-27.7829456zm0 7.9379845c11.906977 0 19.844962 7.9379845 19.844962 19.8449611 0 11.906977-7.937985 19.844961-19.844962 19.844961-11.906976 0-19.844961-7.937984-19.844961-19.844961 0-11.9069766 7.937985-19.8449611 19.844961-19.8449611z" fill="#262f45"/><path d="m12.5193989 62.6254917c-6.91292614 8.9603175-12.5193989 19.0386141-12.5193989 31.247823 0 26.4641423 20.0820622 48.2894053 44.9819121 48.2894053 24.8991025 0 44.9819122-21.825151 44.9819122-48.2894053 0-12.2116233-5.6153898-21.9696884-12.9191822-31.2478098-2.7387634-2.8739671-6.6927595-2.4466456-9.5712182-.6076262-8.4228366 4.3583173-12.9694032 6.0996399-22.4915118 6.0569864-9.2093982-.0412775-14.0480297-1.5452742-22.4713294-6.136955-2.8784587-1.7590508-7.252427-2.1863856-9.9911838.6875816zm6.0025649 7.4338695c8.7306452 4.8273133 16.517034 7.2764858 26.4599483 7.2764858 9.951322 0 17.7248182-2.4492056 26.4599484-7.2764858 4.7664289 6.7207277 9.2609819 15.0543215 9.2609819 23.8139535 0 21.6980113-15.9919364 39.0284243-35.7209303 39.0284243-19.7299398 0-36.3824289-17.330301-36.3824289-39.0284243 0-8.748069 5.1456595-17.0879669 9.9224806-23.8139535z" fill="#262f45"/><g fill="#2397d4" transform="translate(26.32233 .417538)"><path d="m8.52708879 54.9888463h-.00661499c-4.41411473 0-8.00884424-3.5897616-8.01352103-8.0008335-.00661499-4.4257637 3.5887231-8.020857 8.00684651-8.0255404 4.42078262 0 8.01485062 3.5897616 8.02018232 8.0008334 0 4.4257704-3.5887099 8.0215318-8.00683328 8.0262086z"/><path d="m30.1697125 49.1129319c-4.1217588 0-7.4765627-3.3512517-7.4792815-7.4694251-.006615-4.1290617 3.3479971-7.4857509 7.4724879-7.4891444 4.1271962 0 7.4820002 3.3505571 7.4860684 7.4687371 0 4.1290551-3.3486652 7.4857509-7.4724746 7.4898324h-.006615z"/><path d="m24.0134278 27.756131c0 3.6881201-2.9898125 6.6779323-6.6779325 6.6779323s-6.6779324-2.9898122-6.6779324-6.6779323c0-3.68812 2.9898124-6.6779324 6.6779324-6.6779324s6.6779325 2.9898124 6.6779325 6.6779324z"/><path d="m34.1638828 16.537206c0 3.3930709-2.7506271 6.1436982-6.143698 6.1436982s-6.1436979-2.7506273-6.1436979-6.1436982c0-3.3930704 2.750627-6.143698 6.1436979-6.143698s6.143698 2.7506276 6.143698 6.143698z"/><path d="m20.2737857 5.58540002c0 2.9504963-2.3918497 5.34234598-5.342346 5.34234598s-5.34234603-2.39184968-5.34234603-5.34234598c0-2.9504958 2.39184973-5.34234603 5.34234603-5.34234603s5.342346 2.39185023 5.342346 5.34234603z"/></g></svg>