<svg height="256" preserveAspectRatio="xMidYMid" viewBox="0 0 256 256" width="256" xmlns="http://www.w3.org/2000/svg"><path d="m127.997895 105.847663c12.238299 0 22.156847 9.917346 22.156847 22.151736 0 12.236795-9.918548 22.155343-22.156847 22.155343-12.234089 0-22.152637-9.921254-22.152637-22.155343 0-12.23439 9.918548-22.151736 22.152637-22.151736zm-75.4849434 22.151736c0-41.6908585 33.7955889-75.4852447 75.4849434-75.4852447 41.694767 0 75.487951 33.7943862 75.487951 75.4852447 0 2.759645-.147334 5.482007-.435386 8.159868-.573397 7.358554 4.826825 12.975266 12.138473 12.975266 12.409085 0 13.731478-15.999812 13.731478-21.135134 0-55.7398553-45.183864-100.9225164-100.922516-100.9225164s-100.9210124 45.1826611-100.9210124 100.9225164c0 55.735946 45.1823604 100.91981 100.9210124 100.91981 29.601397 0 56.226356-12.737429 74.68784-33.035469l20.747557 17.422031c-23.435641 26.197693-57.510262 42.698138-95.435397 42.698138-70.6914945 0-127.997895-57.311813-127.997895-128.00451 0-70.6929985 57.3064005-127.999399 127.997895-127.999399 70.695704 0 128.002105 57.3064005 128.002105 127.999399 0 28.415813-13.530924 51.490337-40.70643 51.490337-11.960169 0-19.229422-5.479903-23.199908-11.595745-13.329769 21.368463-37.04805 35.595764-64.095767 35.595764-41.6893545 0-75.4849434-33.801002-75.4849434-75.490356zm75.4849434-48.4095648c-26.733806 0-48.4092635 21.6718498-48.4092635 48.4095648 0 26.736512 21.6754575 48.41197 48.4092635 48.41197 26.736512 0 48.413474-21.675458 48.413474-48.41197 0-26.737715-21.676962-48.4095648-48.413474-48.4095648z" fill="#af252a"/></svg>