<svg height="291" preserveAspectRatio="xMidYMid" viewBox="0 0 256 291" width="256" xmlns="http://www.w3.org/2000/svg"><g fill="#59473d"><path d="m243.812537 261.513803c-.458948.303681-.933879.454381-1.427078.454381-.730664 0-1.364286-.261441-1.897442-.78318-.53544-.524024-.80259-1.210163-.80259-2.058419 0-.793454.230616-1.469319.691847-2.02645.458949-.558274 1.090288-.836839 1.890594-.836839.510324 0 .952146.105033 1.326612.315099.61079.341357.989822.938446 1.137096 1.790127l-1.228429-.019409c-.074208-.396157-.230615-.661022-.470365-.79688-.200932-.127866-.421274-.190658-.659881-.190658-.361907 0-.658739.149558-.889355.446391-.230615.297974-.345923.747789-.345923 1.347161 0 .595948.126724 1.028639.382457 1.298071.25459.269433.560556.404148.916754.404148.327658 0 .575398-.08905.743222-.267149.166683-.178099.276283-.404148.323091-.67358h1.195321c-.13015.760347-.424698 1.293503-.885931 1.597186zm-4.37485-5.19114c-.767198.784321-1.150797 1.714776-1.150797 2.790222 0 1.116546.39045 2.064126 1.171346 2.841599.776332.782039 1.712494 1.171346 2.809632 1.171346 1.094854 0 2.028734-.392732 2.802781-1.177054.776332-.787747 1.163355-1.733045 1.163355-2.835891 0-1.070879-.384741-2.001334-1.156504-2.790222-.778614-.801448-1.714778-1.202171-2.809632-1.202171-1.106271 0-2.049284.400723-2.830181 1.202171zm6.201511 6.247177c-.936164.906481-2.060701 1.358579-3.37133 1.358579-1.354011 0-2.496816-.463515-3.422704-1.391687-.930455-.92703-1.393971-2.068692-1.393971-3.423847 0-1.406527.502332-2.576731 1.502428-3.508328.941873-.872231 2.047001-1.307204 3.314247-1.307204 1.328896 0 2.463708.469223 3.404438 1.412236.94073.939589 1.412237 2.074401 1.412237 3.403296 0 1.367713-.481782 2.51965-1.445345 3.456955z"/><path d="m255.933569 210.868507c-.018266-.482923-.060508-.944154-.114166-1.376844-.035391-.287699-.08905-.573115-.160975-.850539-.119874-.642756-.267149-1.280946-.482922-1.887169l-.004567-.011416c-.444107-1.260396-1.131388-2.469416-2.013893-3.488921-.87908-1.017221-1.931693-1.823235-2.985447-2.380367l-.034251-.019407c-1.123395-.589099-2.227383-.916755-3.228622-1.108555-.294549-.053658-.568547-.081058-.842546-.111883 1.279803-5.483405-.321949-9.669882-1.357437-11.627833.079916-.077634.164399-.154126.240891-.228333 1.366569-1.319762 2.52764-2.582441 3.504904-3.850828l.184949-.253449c.786605-1.127963 1.304921-2.283325 1.636002-3.34393.283133-.911047.422415-1.735328.504616-2.487682l.009133.00114.007991-.045665.004567-.107317.031967-.231757h-.018267l.0137-.2603h.00685l.003425-.155266c.005708-.154124.009134-.312815.009134-.481781.007991-.310533.006849-.632481-.009134-.986397-.075349-1.697652-.382457-3.905628-1.497862-6.296269-.55713-1.190754-1.326611-2.415758-2.351824-3.55057-1.019505-1.13253-2.292459-2.164593-3.754929-2.980882l.007992.003425c-.106175-.059367-.189516-.11645-.287699-.173533-3.036822-4.471892-6.506335-7.93798-9.581974-10.56837-1.596044-1.363146-3.084773-2.501383-4.354301-3.429554-1.256971-.923606-2.316434-1.653128-2.906673-2.090385l.005708.003425c-1.35287-.992105-2.358675-1.589194-2.840457-1.86091-1.108553-.67358-1.932834-1.211304-2.430599-1.586911-.388166-.293407-.577681-.481782-.648465-.559414l-.037674-.049092c-.00685-.010275-.049092-.093616-.107317-.392732-.062791-.299116-.129008-.809439-.158691-1.548095-.051375-1.16107-.011417-2.861006.11645-5.105514.202074-3.608796.613073-8.58987 1.03663-15.340521.140424-2.146325.160973-4.16821.082199-6.074786-.126724-3.056231-.52174-5.824763-1.161071-8.334138l-.002283-.0137c-.140425-.570831-.303682-1.131387-.474932-1.683952l-.002283-.004566-.003425-.006851c-.129008-.41214-.242033-.722672-.311674-.921322l.004567.011417c-.129008-.367616-.262582-.730664-.409857-1.099421l-.004567-.015983c-.073066-.179241-.165541-.410999-.287698-.698697l-.002284-.006851-.002283-.004566c-.231758-.543432-.49434-1.127963-.827705-1.7581607l-.08905-.1678244-.166683-.297974-.118733-.1997909c-.615356-1.0126547-1.266104-1.9362598-1.946535-2.7959317-.342499-1.5526611-.939588-3.8485446-1.92941-6.4583854-.87908-2.2970251-2.057275-4.845216-3.732095-7.3591571-.581106-.8653802-1.242129-1.7239105-1.965943-2.5641742l.240891-.2500241c.337932-.3539154 8.38437-8.7805271 14.685206-19.7153715 11.742-20.3821024 7.832947-32.8433497 2.488824-39.7070253l-.151841-.1917992-.160973-.1803828c-5.153466-5.7277212-12.160991-9.1789673-20.830777-10.25555512-17.954928-2.23309205-38.259396 6.57711822-43.58297 9.08306772l-9.677873-10.69052866-.036534-.0399582c-.856247-.94072998-1.80611-1.78099366-2.824473-2.5185077-1.025213-.73979736-2.123493-1.37684509-3.27543-1.91114319-2.313009-1.07316285-4.849783-1.74446046-7.550956-2.08010926-5.416048-.66673096-11.496543-.01940826-18.110194 1.6759607-9.911915 2.55732423-21.044267 7.50871491-32.6800923 14.48884001-11.6301169 6.9824085-23.750007 16.0015431-35.5171235 26.7343132-14.3792405 13.1142784-26.2570982 26.9797706-34.9109008 40.1397154-4.3234762 6.5816849-7.84436367 12.9875538-10.46105435 19.0634824-2.61098237 6.079353-4.32804292 11.826482-4.99020723 17.144347-.4794983 3.86567-.4030069 7.517848.37332367 10.884611.33793213 1.472745.8242804 2.887265 1.44876985 4.227577.80030547 1.722769 1.83579345 3.319954 3.12358887 4.733333l.03196655.03425 11.26021824 11.793375-.0650748.111883c-.1221579.213491-.2363241.429264-.3561987.645039-.1735327.319665-.3482071.639331-.5148898.962422-.111883.221482-.2214826.441823-.3276572.664447-.1609744.329941-.3173821.657597-.470365.992105-.1027497.223766-.2009326.448673-.2979739.675864-.1484161.337932-.291124.67929-.4269818 1.024072-.0901914.226049-.1780994.453239-.2682908.681572-.1312912.348208-.2557324.704406-.3813153 1.05718-.077633.229474-.1575494.458948-.2317575.689564-.1175912.360765-.2260492.723814-.3345071 1.090288-.0308249.101607-.0639331.199791-.0936163.301398-.0365332.129008-.0707831.2603-.1061747.389308-.105033.374465-.1963659.753496-.2888406 1.132529-.0547998.226049-.1141663.45324-.1666828.683855-.0353915.166684-.0707831.331083-.1050329.498907-.0490915.234041-.091333.468082-.1381412.704406-.0399581.212349-.0867663.42584-.1232996.639331-.0833414.476073-.1529827.960138-.2203409 1.440778-.0171249.142708-.0445247.280849-.0616497.424699l-.0045667.039958-.0114166.129008c-.0376748.313957-.0650748.630197-.0981829.949863-.0468082.496624-.0867664.99553-.1130246 1.499003-.0159833.219199-.0262583.444107-.0365332.667873-.0068501.172391-.0194084.342498-.0262583.517173-.0091333.35049-.0045667.704406-.00685 1.061746 0 .211208-.0022833.423557 0 .639332.0022833.127866-.0022833.253449 0 .381315v.071925c.00685.228331.0159833.457806.0216917.683855.0114166.251166.0342498.496623.0502331.744365.010275.184948.0148416.369898.0262582.552564.0159833.163258.023975.286557.0353915.392732.02055.232899.0422416.469223.0673582.700981.0239749.26829.0536581.553706.0936163.880222l.0022833.0274v-.004567c.017125.127866.0308249.212349.0445248.312815.0353915.263724.0776331.529732.1175913.792314.0319666.236324.0742081.501191.1278662.832272.0262582.131292.0468082.242033.0662164.340216.0296833.159833.0627915.318524.0936164.474931l.0022833.012559.0045666.021691.0422416.202075c.0399582.218057.0958996.492056.179241.866521.0228332.100466.0399582.167825.0593664.252308.0605081.238608.105033.416707.1381413.543431l.0582247.242033c.02055.078774.0399582.151841.0673581.264865l.0582247.222625.0502333.18609.0433831.168966c.0239749.084483.0422415.142708.0650748.2192l.0616498.229474c.0536582.179241.1130246.355058.1666827.534298.0650748.207783.1472745.485207.2682907.856247l-.0205499-.060508.0228332.069642c.0285416.089049.0513749.147274.0776331.221482.1073162.308249.1940826.544574.2363241.666731l.00685.0137v.002284c.0707831.202073.1758161.497765.3230906.882504l.0022833.005709.0022834.009133-.0022834-.009133.0125582.035391-.0057083-.017124.0650748.15869c.0936164.237467.1678245.421274.2294742.561699l.0730664.180382.0114166.028542c.037675.091332.0890497.214633.1495578.357341.0559415.133574.1221579.289981.2009326.469222l-.0068499-.014842.0799164.172392c.074208.1644.1427078.319666.2054992.445249.0593665.122157.1107413.231756.1529828.320806l-.0057083-.014841.0079916.019408.0068501.014842-.0068501-.014842c.094758.197508.2089243.450957.3687571.766056l.0125583.029683.0091332.015983.0673582.132433c.0684997.129008.1335745.255733.1917993.365332.0821997.156408.1575494.289983.2157742.403007l.0114166.025117c.0867664.157549.2077826.389306.372182.686139l.0114167.019408.0114166.022833.0684997.114166c.0673582.119875.1324329.234042.1940827.336791.105033.1781.2032159.336791.2797073.470365l.0239749.036534.0045667.011416c.0799163.129008.2020743.334507.3744653.61079l.0159833.026258.0490915.079916c.084483.132433.1666827.2603.2420325.375607.1232996.182667.2328991.348207.3265155.489774l-.0159833-.023975c.1027496.151841.2431741.367614.4349734.63933l.0148417.022834.0091332.017124-.0171248-.028541.0194082.029683.0159833.021692-.0045667-.003425.00685.009133.0022833.002283c.091333.129008.182666.255733.273999.383599.1267246.176958.2477408.340216.3550571.484065l-.00685-.010274c.1027496.139282.2317575.313956.3870236.519456l.0342499.044525c.1175913.152982.2294742.294549.3390738.433831.1427078.178099.2785657.344783.4052903.500049l.0422415.053658c.0867663.105032.1872326.229474.3230905.389306l.0605081.071925-.0022833.001142.0205499.025116.0353915.037676c.203216.238607.385882.442964.568548.647322l.1940827.222624.0022833.003425.0079917.007992.0148415.014841-.0045667-.003424c.0913331.100465.2020743.22719.3402156.373323l.0433831.049092.0011417.003424.0068499.005709.0274.0274-.00685-.00685c.2203409.238608.4361151.457806.653031.678148.0890497.090191.1780994.189515.2682907.277424l.010275.010274c.0468082.044525.1518411.154125.3219488.324232l.0331083.029684.0970413.101608c.2614407.255732.534298.502331.8037304.751214l.0627915.06165.0171249.0137.00685.00685.0091333.009132c.0696414.061651.1803827.164401.3413571.309392l.0171249.018266c.3459238.305966.6941309.60394 1.0400546.891638l.0194084.017126.1963659.162115.1335745.108459-.0045667-.004567.2009327.158691c.2922656.23404.5799646.461231.856247.672439l.077633.06165.0365332.026258c.1061747.078775.1838077.135859.2271909.170108l.0536581.042241.0422415.028542c.0799164.058225.1598328.114166.2431741.173533.2454576.176957.4897733.35049.7375141.520598l.2077825.146133.0239751.017124.256874.174675.0114166.004567.1312912.084483c.2500241.168966.5171732.334507.7820389.504615.1392828.08905.2660073.173533.4109985.261441l.2249076.136999.1267245.074208.0833414.049091c.4121402.247742.8003055.471507 1.1542209.666731l.0342499.017126.2203409.119874.0159832.011417c.4897733.26144.9567133.501189 1.3973951.720389l.0764914.036533.2408907.115308.0022834-.002284c.2386075.115309.470365.215775.7066891.321949.1095996.051376.2226242.10275.3345071.151841.1335746.060508.2739991.131291.4075736.188375l.1141663.049092.0331082.0137.0536582.023974c.2294741.097041.4543816.179241.6804308.271716l.115308.043383c.2545908.102749.5091815.210066.7626305.305966l.0605081.021692.1872328.067357c.1187329.042242.2408908.079917.3607654.1233l.1118829.037674c.3630487.13015.727239.261442 1.0971378.379033l.0867663.0274.0319666.010275.0125583.006849c.568548.176958 1.1370959.340216 1.7033606.493199l.0228332.005708.0958997.023975-.0331083-.00685c.50119.131292.9943882.244316 1.4830197.353916h.0057084l.1815244.047949.189516.039959c.4657982.101607.9407299.183807 1.4190866.267149l.1347161.036533.3367905.051375c.287699.046807.5753979.084483.8630969.123299.0445248.119874.0867663.236324.1244413.337932l.0045665.015984c.7866056 2.147467 1.6394276 4.283518 2.555041 6.402443 13.5058686 37.374609 50.8405189 66.347722 93.4428004 71.643895 42.604565 5.297315 88.081553-23.019343 106.609596-61.284448.798022-1.463611 1.527545-2.899823 2.191992-4.29151 1.836935-1.891735 3.264013-3.853111 4.211593-5.933221 1.134812-2.444299 1.516129-5.017607 1.409953-7.122833"/><path d="m218.467628 101.184415.004567.010275.002283.003424z"/><path d="m30.4746139 205.814367-.0022833-.002283h-.0022834z"/><path d="m18.4095235 194.510765.0022833.004567v-.003425z"/><path d="m18.4163735 194.522183.0022834.001141-.0068501-.007992z"/><path d="m12.7662853 182.552991-.0045667-.017125-.0022833-.003424z"/><path d="m12.2879286 180.662398-.0011416-.00685-.0022833-.002282z"/><path d="m19.5078029 196.01091.0137.017125-.0194083-.023974-.0114166-.014842z"/></g><path d="m219.493983 24.0867976c-2.062984-2.2936001-4.44906-4.0220774-7.041775-5.3018811-.478357-.1769577-.958997-.3527738-1.452195-.4954816-.240891-.1598328-.486348-.3105322-.735231-.4578067-2.292458-.8779386-4.718492-1.4510532-7.214166-1.7718604-12.377905-1.5926193-26.469448 2.9135229-34.528444 6.1136033-.441823.1849493-.887072.368757-1.338028.5605563-.677006.2888407-1.359721.5833895-2.051568.8882135-1.161071.5114648-2.335842 1.0469046-3.538012 1.6063192-.174675.0799165-.348208.1632578-.521741.2454576l-3.174963-3.688712-.909905-1.0583211-.392732-.4589484-8.306737-9.6447657-.721531-.83798034-.89278-1.03548798-.158691.03539154-2.349542.53201477-2.713732.61421448c-1.500144-.69641419-3.282279-1.19303741-5.345263-1.4499115-4.131678-.52059815-9.377617-.04224151-15.354221 1.50242799-5.976604 1.53439454-12.678163 4.11455204-19.785013 7.65370604-14.2148412 7.0737415-30.0394265 17.9754777-45.2669223 31.8672282-5.3132977 4.8452161-10.2681134 9.7954652-14.8233472 14.7605558-4.4250842 4.8166746-8.4711365 9.6493323-12.1016236 14.414632-7.3728571 9.6767323-13.0240869 19.0885988-16.6328824 27.4843855-2.41004971 5.594147-3.90106111 10.733912-4.44563418 15.132737-.40186523 3.197797-.29683227 5.994871.23860748 8.305596.17353273.747789.4030069 1.427078.66216431 2.076684.53886473 1.365429 1.24669556 2.542483 2.16116729 3.550571l9.2132172 9.651616.9875382 1.033204.0650748-.069641c.2808489-.325374.568548-.649606.8608136-.966989l.077633-.084483c.1061746-.114166.2169158-.221482.3230905-.331081.2762824-.288841.5559897-.577681.8414053-.859672.1769578-.174675.3561988-.342499.5365815-.512607.175816-.16554.3459238-.33679.5240231-.500048.0810581-.073067.1632577-.140425.2454574-.213491.1872328-.170108.3813154-.336791.575398-.504615.2694324-.232899.5400064-.463515.8185721-.690706.162116-.132433.3253738-.263723.4897733-.395015l.0719247-.055941c.2922656-.229475.5890979-.454382.8847885-.675864.1872326-.140425.375607-.277425.565123-.414424.3071073-.218058.6210645-.434973.9361633-.647323.189516-.126724.3767487-.253449.568548-.377891.3230905-.210065.653031-.414422.9829715-.615355.192941-.11645.379032-.2329.5708314-.343641.3459237-.203215.6964141-.395015 1.0457629-.586814.1872326-.100467.3710403-.2055.558273-.303683l.2100659-.110741.0319666-.018267c.2968323-.152982.6005145-.294549.9019134-.43954.1689661-.081058.3310821-.165541.5034733-.244315.2523073-.119875.5103231-.229475.7671972-.341357.2226242-.097042.442965-.196366.6690143-.289983l.2488824-.1096c.568548-.231756 1.1416626-.450956 1.7216273-.656455.1826659-.066217.3721819-.122159.5571312-.186091.1986494-.066217.3972986-.133575.6005146-.197508l.2340408-.079917c.1198746-.036533.2408909-.077632.3584821-.113024.2477407-.073066.4977648-.138141.744364-.210066l.1838077-.050233c.2876989-.081058.5731147-.160975.8630969-.234041.2694324-.069642.5411481-.127867.8140055-.190657.3367904-.077634.6735809-.154125 1.011513-.223766.1415662-.0274.2819907-.058225.4235568-.085625.1415662-.026258.287699-.046808.4304068-.073066.3322239-.059367.666731-.11645 1.0000964-.167825.2956907-.044525.5902396-.083341.8847886-.124441.2386075-.029683.4726483-.062792.7101141-.08905.0970414-.010274.192941-.018267.2888407-.026258.1095995-.012558.2134909-.028541.3230904-.037675l.1780994-.010275c1.1816209-.046809 2.4728412-.037675 3.8873612.067358l.2157743.0137c1.4270782.117591 2.970606.34364 4.591767.687281.3870236.083342.7729055.163258 1.1724874.260299.0821997-.151841.1666827-.308249.2500241-.46009.8585303-1.540103 1.7261939-3.041389 2.6041324-4.516418 5.1306318-8.601285 10.6334455-16.120275 16.2504255-22.675702 1.9157099-2.2388 3.8485446-4.370284 5.7813794-6.391027 8.056713-8.4129118 16.1602341-14.9649134 23.5696246-20.0236205 1.646277-1.1233959 3.258305-2.1737255 4.828091-3.1555553 2.138334-1.3346036 4.196751-2.541341 6.154703-3.6259205 1.594903-.8836468 3.123589-1.6873773 4.574642-2.4168997 2.419183-1.2170124 4.622592-2.2262421 6.559993-3.0562308.600515-.2568741 1.177055-.4977649 1.721627-.7192474.845972-.3447821 1.628011-.6507477 2.336984-.9167551-.61079-.0639331-1.230712-.1130246-1.864335-.1461328-.590239-.0308249-1.190754-.0422415-1.796977-.0433831-.152983-.0011418-.303683.0011416-.456665.0011416-.611931.0079916-1.229571.0228333-1.855201.0616497-1.187329.0707831-2.399776.1952244-3.641905.3904487-.414423.0650747-.83113.1381411-1.252403.2214825 3.083631-1.5960443 6.126161-2.7947901 9.061376-3.6955619 1.951101-.5993728 3.857678-1.0697378 5.687762-1.4270782 2.524217-.4874899 4.910292-.7706223 7.111417-.9144717 1.47617-.094758 2.865574-.1290079 4.152227-.1175913 1.294645.0125583 2.4854.0684998 3.556279.1484162 3.741228.2808489 5.996012.8528219 5.996012.8528219-.530874-.747789-1.199887-1.3996783-1.927127-1.9682263-1.324328-1.0263547-2.849589-1.7615854-4.187618-2.2821835-.526306-.2043577-1.027496-.382457-1.468178-.5205982-.35049-.1095996-.677006-.2043576-.946439-.277424.631341-.1084579 1.253547-.199791 1.867761-.2819906.651889-.0879081 1.296928-.1632578 1.92941-.2237659 5.392072-.5046149 10.107139-.0399582 13.649718.6176394 4.272101.7900305 6.844267 1.8643351 6.844267 1.8643351-.608506-1.1873291-1.511561-2.2011256-2.499099-3.0562308-.720389-.6210645-1.480737-1.1610709-2.207976-1.6086026 1.431645.3310821 2.792506.6998392 4.086011 1.0948544 3.415854 1.0434796 6.321386 2.257067 8.606994 3.3587713.739798.3573405 1.416803.700981 2.024168 1.0263547.173533.0924747.332223.1792411.493198.2682908 2.091526 1.1416626 3.24803 1.9613763 3.24803 1.9613763-.349349-1.2307122-1.059463-2.3929248-1.88831-3.4364044-.207783-.2614408-.418991-.5205982-.635906-.764914l.100467.0456666c.07649.0251165.24089.0764914.469222.1541244.166684.0559414.367616.1255829.608506.2123493.909906.3310821 2.301593.8870718 3.937595 1.6999355.077633.0376749.158692.0787747.238608.118733.221482.1141662.448673.2294742.675864.3504904.561697.2956906 1.141662.6244894 1.734185.9772632.551423.3287988 1.115405.6815726 1.681669 1.0628879.292266.1963659.58339.3984402.875656.6085062.624489.4475317 1.244412.9281716 1.859768 1.4419197.629056.5263065 1.248979 1.0891462 1.849493 1.6862358.117592.1187329.238608.2351824.356199.358482.438399.4498151.860814.9236051 1.268387 1.4156617.77633.92703 1.494437 1.9282681 2.132626 3.0059975.763772 1.2923621 1.415661 2.6874738 1.90201 4.2058851.026258.0856246.049091.1746743.073067.2602991.352773-.379032.974979-1.0606046 1.784417-1.989918 6.725536-7.7313391 26.529957-32.8376413 14.598441-48.1576118" fill="#141c26"/><path d="m249.08816 211.658538.003426-.001142s.232899-1.738752-.686139-3.293697l-.020551-.042241c-.053658-.093616-.110741-.176957-.168966-.260299l-.060508-.090191c-.100466-.135858-.222624-.266008-.348207-.397299-.224907-.236324-.48749-.457806-.800306-.655314-.162115-.107317-.339074-.205499-.528589-.299115-.52174-.248884-1.146229-.438399-1.888311-.546858-.542289-.078774-1.162211-.101607-1.836935-.081057-.272856.009134-.542289.014841-.836838.042241l-.133574.007992s.02055.071925.049091.179241c.030825.113025.073066.276282.131291.492057.02055.084483.042241.172391.067359.269432.095899.38474.211207.873372.328798 1.425936-.001142.004567-.034249.111883-.121016.313958l-.045667.107316c-.337932.785464-1.25697 2.599566-3.303971 4.959383-.348208.400723-.734089.820855-1.148513 1.252403-5.710596 5.900113-18.069094 14.301607-44.070459 19.001833-8.822769 1.244412-16.957115 1.312912-23.905273.448673-10.273823-1.277521-17.972053-4.5598-21.553449-8.973468-.310532-.379032-.594807-.769481-.86538-1.163354-.199791-.291124-.392732-.585673-.570831-.883647-.063934-.1096-.122158-.221483-.18495-.331082-1.538961-2.720582-2.209117-5.686622-2.171442-8.559044.049091-3.48778 1.137096-6.82486 2.978598-9.390175 1.494436-2.08011 3.480929-3.652179 5.804212-4.378276 1.13938-.355057 2.357534-.51489 3.637337-.428124.258016.018267.599374.0548 1.025213.107316.853964.107317 2.047002.275141 3.510613.463515.164399.02055.316241.039959.48749.06165 4.879465.606223 12.649622 1.33917 22.046646.766056 17.095256-1.041196 39.596284-6.420711 60.02862-24.844862l.055942-.071924v-.031967c.068499-1.543528-.138142-4.330327-2.088102-6.498344-.340215-.379032-.737513-.737513-1.189612-1.069738-.259157-.189515-.527448-.37104-.826564-.540006-.300257-.166683-.574256-.334507-.839122-.503473-.361907-.227191-.703264-.45324-1.005804-.678148l-.044525-.065074c-.138142-.215775-.285416-.42584-.42584-.641615-5.30074-8.02703-12.601673-12.686155-15.512912-14.821064-1.37342-1.009229-2.247934-1.46932-2.247934-1.46932-6.304261-3.840553-7.229007-5.114648-6.639909-15.544878.211207-3.756069.617639-8.692619 1.03663-15.385045.055941-.871088.082199-1.697653.097041-2.510516.003424-.194082.007991-.383599.007991-.574257.005709-.768338-.002283-1.51841-.031967-2.238799l-.006849-.206642-.017125-.221482c-.031967-.566265-.071925-1.116546-.118733-1.651986-.021692-.235182-.044525-.471507-.0685-.703264-.062791-.571973-.134716-1.127962-.223766-1.664544-.044525-.273999-.098183-.537723-.148415-.804873-.055942-.300256-.11645-.593664-.179242-.881363-.061649-.283132-.124441-.568548-.194083-.841405l-.002283-.001142.002283-.003424v.003424c-.084483-.33679-.182665-.655314-.27514-.973838-.03425-.116449-.06165-.237466-.099324-.35049-.035392-.107316-.073067-.205499-.107317-.312816l-.035391-.106174-.107317-.305966-.003424-.02055c-.087909-.246599-.179242-.486349-.268292-.720389l-.028541-.077633-.091333-.221483-.1096-.272857-.025117-.052517v-.00685c-.189515-.441823-.387023-.871088-.597089-1.272954l-.166682-.296832c-.238609-.393874-.484065-.763771-.73409-1.121112l-.100466-.149558-.124442-.165541c-.17924-.245458-.359623-.486349-.540005-.711256l-.2466-.3093905c-.242032-.2865574-.482923-.5639814-.726098-.8231388v-.0022833l-.005707-.0410999-.006851-.0502332-.0137-.0696413-.018266-.0993247-.014841-.0993247-.031967-.1609744-.014842-.0970413-.044525-.2249075-.017125-.0799164c-.085625-.4281235-.20664-.9829715-.368757-1.6417108l-.009133-.0479499c-.042241-.158691-.084483-.3253738-.129008-.4977648l-.018267-.0650748c-.046807-.1792411-.095899-.3607654-.149557-.551423l-.006851-.0125583c-.124441-.4418235-.267149-.9190384-.425839-1.4122367-.049092-.1598327-.108459-.3276572-.166683-.4931983-.114167-.3470654-.232899-.6918475-.365332-1.0526129-.076491-.2066409-.158692-.4121401-.240891-.6233477-.127866-.3356489-.263724-.670156-.410999-1.0137964-.093616-.2260492-.198649-.4486734-.296832-.677006-.154124-.3402154-.313956-.6770059-.48064-1.0160797-.114166-.2317575-.228333-.4612317-.35049-.6918475-.182666-.3470654-.376749-.6861392-.575398-1.0274964-.129008-.2180575-.256874-.4383984-.388166-.6575976-.229473-.3664737-.477214-.7260974-.727238-1.0845794-.126725-.1769578-.244316-.3619071-.376749-.5400064-.115308-.1541245-.246599-.2968323-.367616-.4475318-.287698-.3676154-.571972-.7352308-.887071-1.0811545l-.037675-.0388166-.179242-.1701076c-.40529-.4349736-.83113-.859672-1.288936-1.2501206l-.0822-.0696415c-.200932-.1712494-.41214-.3356487-.622207-.4954815l-.021691-.0182666-.076491-.0547998c-.181525-.1369996-.369898-.2682908-.559415-.3961569l-.100466-.0707831.039958.0342499c-.199791-.1484161-.563981-.3402155-1.041196-.5537064-.166683-.0719248-.349349-.1506995-.545714-.2306159-.984114-.3938735-2.314151-.8414052-3.889645-1.2603955-.098183-.0273999-.202075-.0513748-.297974-.0753497-1.309488-.3402154-2.765107-.656456-4.308634-.9019135-.519458-.0821996-1.045763-.158691-1.580062-.2226241-.252308-.0319666-.511464-.0445249-.764914-.0719248-.102749-.010275-.207783-.0182666-.310533-.0285416-1.212445-.1164496-2.444299-.1963659-3.681861-.1849493l-.073066.0022833c-1.593761.0148417-3.190947.1472745-4.711642.4486735.35734-.5936646 1.324329-1.248979 2.294742-1.796977 1.207879-.6838559 2.419183-1.1918958 2.419183-1.1918958-.690706.0513749-1.398537.1495578-2.105226.2637241-.227191.0376749-.456665.0684997-.68614.1107413-.149557.0273999-.296832.0570831-.444106.084483l-.129008.0262583c-.125582.0251165-.245457.0513747-.368757.077633-3.553996.7569223-6.974417 2.0367261-8.876426 2.8130567-.269433.1095995-.505757.2089242-.71354.2968322l-.119874.0502331c-.189516.0228333-.383599.0513749-.573115.0742082l.004567-.0057084c1.401962-2.5927157 3.471795-3.9901107 5.04729-4.7276248.275141-.1290078.537723-.2454575.776331-.3356488.08905-.0342499.163258-.0570831.243174-.0867664.227191-.0799163.421273-.1427078.589098-.1917993.372182-.1084579.614214-.1564078.614214-.1564078-.168966.0045667-.326515.0262583-.492056.0353915-.140424.0091334-.278566.0216917-.416707.0331083-.205499.0148416-.413282.0262582-.615356.0445248-.121017.0125584-.247741.0148417-.368757.0273999-3.929603.4258402-7.424232 1.7581604-10.418813 3.4124295-2.065268 1.140521-3.899919 2.4305998-5.443447 3.7024119-.412141.0856247-.834556.1735327-1.262679.2648657-4.296077.9167551-9.204084 2.0983758-14.364399 3.6818619-1.905435.5845313-3.846262 1.225004-5.804213 1.9259848-1.522977.5468564-3.058514 1.1428042-4.597475 1.7684354-1.101705.4475317-2.203409.9178967-3.303972 1.4088116-7.923138 3.5368707-15.729828 8.232529-22.28982 14.5322233-.236325.227191-.484065.440682-.715823.671297-.570831.567407-1.121113 1.162213-1.670253 1.755878-.224907.242032-.461231.469223-.681571.715822-.277425.305966-.533158.635906-.803732.949863-1.22272 1.423653-2.398633 2.899823-3.4866369 4.469609-.8117221 1.164497-1.576636 2.373517-2.3038751 3.62478l-.0890497.147274c-1.502428 2.608699-2.8141983 5.401205-3.9022027 8.394645-.5434315 1.497861-1.032063 3.044814-1.4601866 4.642-.1118828.423557-.2226241.848255-.3276571 1.278663l-.0582248.223765c-.4144235 1.734185-.7466473 3.53687-1.0149381 5.392072-.0513748.365332-.1084579.726098-.1575494 1.097139-.1164496.925887-.2077826 1.870042-.2854156 2.826756-.0719248.874514-.1255829 1.761585-.1655411 2.661215l-.0091334.206641c-.0171249.439541-.0422415.876797-.0513747 1.323187-.0091334.509182-.0057083 1.028638-.0057083 1.546953-.0022834.121016-.0022834.240891-.0034251.363049.0034251 1.012654.02055 2.033301.0650748 3.07678l.0114166.166684c.0445249 1.035487.1175913 2.092667.2077826 3.158979.0376749.442966.0753498.887072.1198746 1.335746.0114166.108458.0182666.218057.0285416.328798.0251165.248883.0559414.501191.0833413.748931.1312912 1.179338.2899824 2.379225.4749317 3.596238.0490914.337932.094758.674722.1495578 1.014937.1712494 1.065172.3561987 2.138335.5662647 3.230906 0 0-.1906577-1.40082-.0719248-3.461521.0296833-.47379.0742081-.980688.1381412-1.520695.1472745-1.170204.3972986-2.460283.8231388-3.791462.1050328-.325374.2226241-.65303.3493487-.982971.0525164-.143849.1164495-.285416.1746744-.429265.2523073-.609648.5354397-1.221579.8767969-1.825519.077633.430407.1598327.858531.246599 1.292363l.0274.140424-.0022834.196366c-.0022833.267149-.00685.554848-.0091333.859672-.0045666.657598-.0045666 1.399678.0022833 2.209117.0091334.811723.0239749 1.682811.0536582 2.606416.1175912 3.875944.4520984 8.554478 1.2889371 12.540022 0 0 .1575494-7.247275 1.3848367-8.06813 0 0 2.145184 13.422528 4.1362441 18.489226.258015.656456.514889 1.179338.76263 1.506995l-.051375-1.331179-.283132-7.459623s.012559-.278566.039959-.767197c1.492152 3.05623 3.190946 6.198085 5.107797 9.425566.533158.89278 1.075447 1.790127 1.64057 2.696607-3.688712 3.243463-7.098859 7.831805-9.5465829 13.319777-.3904485.876797-.7580639 1.776428-1.0971378 2.696607-.1917992.524023-.3744653 1.059463-.5491396 1.598328-.0559415.168966-.1084579.339074-.1598328.510323-.1175913.379032-.2328991.758065-.3413572 1.143946-.0559414.196366-.1084579.392733-.1609744.591382-.1027496.383598-.2009326.770622-.2922656 1.162212-.0445248.182666-.0913329.364191-.1290079.547999-.1267245.559414-.2454574 1.121112-.3504904 1.690802l-.0079916.052516c-.1027496.570831-.1940827 1.147371-.2751406 1.727335-.0262583.187233-.0490916.375607-.0707831.561698-.0536582.414424-.1004663.82999-.1404246 1.246696-.0228332.212349-.0399582.423557-.0582248.637048-.0353915.420131-.0627914.845972-.084483 1.269528-.0114166.1918-.0228332.383599-.0296832.57654-.0251166.611931-.0399582 1.22957-.0376748 1.851776l.0022832.079918c0 .478356.0137.955571.0319666 1.436211.0194083.485207.0490915.970414.0844831 1.459045l.0125582.196366.00685.122157c.0468082.592524.1095996 1.186188.182666 1.784419.0228332.189516.0559415.379032.081058.56969.0559416.408715.1107413.818572.1815244 1.231854.0365332.227191.0810581.458948.1210162.68728.0707831.377891.1404246.753498.2214826 1.13253.0513748.243174.1073163.486349.1598328.730664.0856247.367615.172391.738656.2682907 1.108554.0616497.246599.1267245.495482.1963659.744364.1027497.371041.206641.743223.3208072 1.116546.0730664.244316.1472745.490916.2249076.736373.1244412.385882.256874.774047.3904486 1.159929.0821996.231758.158691.463515.2443158.695273.1564077.428123.3242321.856246.4977649 1.285512.0764914.191798.1472744.382457.2283325.575397.5171731 1.243271 1.0971377 2.491108 1.7433188 3.740088.0981829.183807.2032159.369898.2991154.555989.2340418.437256.4726488.875655.7215308 1.312912.131291.228332.268291.456665.406432.687281.234041.393873.470365.791172.720389 1.186187.151842.244316.311674.489773.470365.735231.247741.379032.50119.760347.760347 1.138237.173533.25345.348208.503474.525165.754639.266007.377891.54229.755782.826564 1.131388.183808.248882.367615.496624.557131.744364.300257.387024.606224.772906.922464 1.157647.187232.236323.375607.472647.569689.706689.351632.420131.718106.841405 1.088005 1.259253.173533.198649.337932.396157.514889.593664.554848.615357 1.123397 1.230713 1.717061 1.842644l-.002283-.003425c-.003426-.005708-.345924-.498906-.811722-1.364287l-.017125-.028541c-.085625-.160975-.176958-.339074-.270574-.527449l-.029684-.052516c-.098182-.196366-.197507-.407573-.300257-.629056l-.020549-.038817c-.107317-.235182-.218058-.486347-.327658-.750072-.874513-2.101801-1.72391-5.018749-1.614311-8.273629.337932.45324.682715.889356 1.025214 1.334604.398439.810581.905338 1.816386 1.496719 2.946631.19865.375607.40529.766055.619923 1.167921.868805 1.601753 1.875751 3.381605 2.971748 5.160315 1.318619 2.134909 2.76739 4.272102 4.264109 6.117028l-.002283-.002284c-.00685-.012558-1.742178-3.635053-2.323284-6.011994-.163257-.667873-.24089-1.242129-.156407-1.602895.140425.142708.279707.287699.420132.431549.139282.144991.279707.286557.421273.431548.276282.367615.625631.83113 1.017221 1.346021l.197508.259156c.194082.255733.393874.520599.61079.801448l.011416.015984c.248882.324232.510323.661022.779756 1.01037 2.442016 3.138431 5.691188 7.150233 8.007621 9.353643.772906.735231 1.440779 1.269528 1.941968 1.501285l-3.342787-5.989161c7.565797 6.156986 38.785703 14.061858 69.542093 5.237947 3.711546-1.061745 7.420807-2.374658 11.074128-3.964994 2.207975-.95443 4.393117-2.003617 6.556568-3.166972l.313957-.174674c1.513845-.827705 3.015131-1.715919 4.505001-2.653224l.033108-.02055c1.11883-.704406 2.227384-1.44192 3.324522-2.206833 1.836935-1.294646 3.656745-2.657791 5.429746-4.13967l.004567-.002282.006851-.005709c.101607-.090192.20664-.178099.313956-.268291 1.757019-1.535535 3.402155-3.114455 4.9297-4.721916 2.018459-2.123493 3.83142-4.292651 5.471989-6.46866l.121016-.156408c.400724-.536581.793455-1.07088 1.174771-1.599469l.107316-.155266c.124442-.181525.234041-.353916.35734-.533158.529732-.76263 1.053755-1.526402 1.54467-2.284466.117592-.181524.238607-.366474.356199-.54914.254591-.401865.500048-.80373.745505-1.199887.18495-.311674.374465-.622206.553707-.930455.199791-.335649.400723-.67244.594806-1.005805.34364-.606222.679289-1.207879 1.001238-1.80611.126725-.237466.246599-.468081.369899-.702123.245457-.465798.486348-.925888.713539-1.381411.106175-.212349.213491-.424699.31624-.635906l.093616-.199791c.285416-.574256.557132-1.145088.820856-1.705644l.049092-.119875c.989821-.923604 1.759301-1.801543 2.376942-2.641807.089049-.118733.182665-.239749.264865-.358483 1.371137-1.978501 1.81981-3.728669 1.844926-5.299597" fill="#856249"/><path d="m65.3535481 189.423517c-.0274-.140424-.0513749-.278565-.0753498-.416706l.0239749-.009134c-.3596237-1.980785-.632481-4.012944-.8277053-6.089628-.0125583-.148416-.0331083-.291124-.0490915-.438399-.3424988.107317-.7283808.560556-1.1165461 1.179338-.1449911.231757-.2876989.485206-.4304068.752355-1.0389129 1.952243-1.9750763 4.660267-1.9750763 4.660267.0730664-.904196.1723911-1.842643.2831324-2.785656.0125583-.1096.0285416-.216917.0422415-.327658.1153079-.960138.2488824-1.928268.3915903-2.890689.0159833-.11645.0342499-.231758.0513747-.345924.1666828-1.084579.3424988-2.162309.5251649-3.202363.0239749-.135859.0456665-.26715.070783-.400724l.0137-.0685c.0216916-.119875.0422415-.242032.0639331-.361908.0308249-.17924.0627915-.358481.0958996-.535439.1495578-.82428.3036823-1.621161.4532401-2.376942.1358578-.682713.2671491-1.328895.3938736-1.937401l.0399582-.196366c.0182666-.0959.0388165-.182666.0582247-.273999.0194084-.08905.037675-.181524.0559416-.273999l.0068499-.031967c.0331083-.151841.0673581-.308249.0981831-.452098l.0091332-.039958c.0285416-.142708.0559415-.263724.084483-.397299.0468082-.208924.0913331-.423557.1347162-.618781l.0125583-.054799c.0353915-.158692.0684998-.319666.101608-.464657.0479498-.208924.0924747-.400724.1301495-.582248l.0022834-.005709.0022833-.004566c.0228332-.103891.0445249-.194083.0662164-.289983l.0045667-.017125c.0205498-.086765.0388164-.178099.0582248-.254591.0445248-.191798.084483-.365331.1164495-.498905l.0285416-.118734.0114166-.043383.0331083-.140424.0228332-.097042.0045666-.0137-.0159832.012559-.210066.190658c-.1849493.164399-.3744653.325374-.547998.50804l-.1906576.210065c-.2043577.228333-.4030069.468082-.5879563.722673l-.098183.123299c-.2294742.319665-.4429651.655315-.646181.996671v.001142l-.0262582.044525-.0011417.002283-.0821997.151841c-.0468082.083342-.0913331.168966-.1358579.253449-.1175912.213491-.2386074.421275-.3436404.637048l-.0057083.007992-.0034251.00685-.0057083.018267-.0410997.081057-.037675.081058c-.1643994.341357-.3139572.680431-.4543816 1.014939-.3972986.94073-.7044059 1.836935-.9350217 2.585866-.0799164.266007-.1552661.518314-.2157742.740938-.1335746.482924-.227191.860814-.2694325 1.045763l-.0022832.015984-.0296833.124441v-.002283.002283l.0114167-.144991c.0159832-.287699.0490914-.573115.0719247-.858531.0445248-.600514.0821997-1.203311.1484161-1.799259.0525165-.502332.1301496-.993247.2009327-1.492154.0228332-.155266.0468081-.311674.0696414-.465798.0308249-.229475.0627914-.458948.1004662-.687281.0331083-.213491.0799165-.423557.1198747-.632481l.0022833-.015983v-.001142l.0445248-.234041.0137-.063933c.0468081-.255732.0958996-.516032.1449911-.771764.0171249-.099325.0353915-.198649.0559415-.297973l.0353915-.176959.00685-.033108c.017125-.083341.0353916-.168966.0536581-.251166.0205499-.105032.0490915-.20664.0707831-.305965.084483-.375607.175816-.744364.263724-1.115404l.0148417-.06165c.0650748-.276282.1255829-.553707.196366-.825423l.0022833-.012558.0068499-.018266.0216916-.079917c.1449911-.559414.3059657-1.10627.4669401-1.657693l.084483-.303683c.0308249-.101608.0570832-.208924.0890497-.311674.2660074-.893922.5502814-1.776426.852822-2.639523l.0388164-.108459c.2591575-.732947.5217399-1.454478.7968805-2.165733l.030825-.081059c.1244412-.312815.2523074-.613072.3744653-.922463l.0205499-.045666c.1872327-.461232.372182-.924748.5639813-1.371137l.0011416-.004567v-.002284l.0034251-.005707.0216916-.055942c.0513747-.111883.1701077-.383599.3550571-.783181l.0034249-.006849.0251166-.053659v-.001141c.0719247-.157549.1404245-.310533.2100659-.470365.1130246-.254591.2271909-.505756.3390738-.755781l.101608-.219199.0022833-.010276 1.9488181-3.501479c.081058-.148415.1609744-.294548.2386075-.441823l.0410998-.070783.0993247-.180383c.2123492-.388165.4258401-.778614.6336227-1.157646.3128155-.563981.6130728-1.102846.8927802-1.608602.5719729-1.029779 1.0617462-1.903151 1.3597201-2.429458.1643995-.292266.2728574-.485207.3048239-.544573l.0137-.026259h-.0022834l-.0068499-.005707-.0182666-.013701c-.0753498-.051375-.666731-.458948-1.6405691-1.049187-1.1108378-.669015-2.7251488-1.576637-4.6888083-2.487683-.6290561-.293408-1.2912205-.58339-1.9853513-.867664-.8311304-.341357-1.7033606-.672439-2.6109824-.977263-.2340408-.077633-.4794983-.140425-.7158225-.214633-.7603473-.239749-1.5401028-.454381-2.338125-.645039l-.0456664-.010275c-.5479982-.131291-1.0925712-.26829-1.6542692-.372182-.4406817-.083341-.8825052-.165541-1.3311785-.227191-.213491-.029683-.4349736-.046809-.6507478-.066216-.2146325-.021692-.4269818-.043383-.6404727-.065076-.6039395-.053657-1.2101623-.081057-1.8163852-.095899-.294549-.006849-.5890979-.015983-.8836468-.009133-1.3197621.029683-2.6155491.146133-3.8885028.327657l-.2317575.035391c-2.2947419.343641-4.5084257.921322-6.6159348 1.717061-.7158225.269433-1.42137.560556-2.1143592.877939-.196366.091333-.3915903.187232-.5868146.283132-.2374658.115308-.4783566.228332-.7123975.348207-2.0915258 1.076588-4.0449105 2.379225-5.8384624 3.863387l-.0639332.053658c-1.5480945 1.283228-2.9694644 2.705739-4.2526932 4.251551-.3676154.440682-.7226724.891639-1.0651711 1.351728-.406432.543432-.7980223 1.09828-1.1713459 1.666828-.7021225 1.074305-1.3425952 2.191993-1.9179932 3.35078-.2020743.406432-.4007236.816289-.5856729 1.231853-.0342498.077634-.0650748.159833-.098183.238609-1.1839041 2.709165-2.0138929 5.608988-2.4237497 8.635535-.081058.593665-.1472745 1.191895-.196366 1.796977l-.0171249.22605c-.0353916.478356-.0593665.958996-.074208 1.44192-.0182666.591381-.0216917 1.187329-.00685 1.784417.0022833.097042.0114166.188375.0136999.283133.0148416.464656.0331083.925889.0673581 1.385978l.0262583.242033c.0091332.107317.0194082.213491.0285416.318524.0308248.36419.0650747.724955.1073162 1.080012l.0148416.0822v.022834l.0022834.003425c.0251165.179241.0559414.359623.081058.540006.0468081.32309.091333.648464.1449912.96813.0422415.232899.0936162.461231.1381411.691847.0605081.297975.1130246.600515.182666.896205.0547998.244316.1198746.482923.1803827.72039l.0399582.167824.0650748.250024.0490915.190657.0605081.230616c.0684998.247742.1495577.495482.2226242.742082.0799163.260298.1575494.525165.2431741.780896.0821998.253449.175816.502332.2671491.753498l.074208.200933c.0616499.17924.1244412.360764.196366.540006.098183.253449.2066409.505756.3116739.760347.0970413.230616.1917993.463515.2922656.692989.0582248.131292.1198746.259158.1803828.384741.0627913.126725.1187329.255733.1780993.382457.1027496.219199.2054992.434973.3150989.651889.1312912.260299.2694323.517173.4075735.772906.1095996.202074.2146325.404148.3253738.603939.1472745.262583.3059657.52174.4623734.783181.1107413.181524.2180576.366474.3322238.551423.1666827.264865.3402154.52174.5160315.780896.1130246.172392.2260492.342499.3413572.509182.1849493.263725.3767486.524023.5696896.785464.1130246.154125.2271908.308249.3424987.458948.203216.268291.4155652.52859.6290561.787748.1095997.138141.2214826.277424.3390738.412141.2226243.264865.4532401.524022.6872809.783179.108458.122158.2180576.243175.3322238.365332.2420325.264867.4920566.524024.7466474.775189.1095996.107317.2134909.216916.3230904.324233.2637242.258015.5377232.513748.8082973.764913.1038912.092475.2066409.186091.3093905.28085.2854156.253449.5765396.503473.8733719.748931.098183.081058.1917993.163257.2899823.242031.3082489.252309.6222061.493199.9384466.73409.0901914.065075.1838077.137.2717158.204357.3310821.240891.6633059.476073 1.0012381.70669l.2511657.171249c.3493488.23404.7044059.463515 1.0628879.682715l.2283325.138141c.3710404.22719.7500724.438398 1.1313876.650747l.196366.1096c.3950153.213491.7945972.415565 1.1953208.614215l.172391.081057c.4144236.200933.8311304.390449 1.2546872.574256l.1495578.065076c.4338318.181524.8710886.353915 1.3106287.521739l.1232995.044525c.4543818.165541.9076218.324232 1.3711368.472648l.0936164.030825c.2249075.069641.4555234.13015.6827142.196366.2477408.071925.4943399.149558.744364.216916l.0696414.019408c.4897733.127866.9829716.244316 1.4807365.350491l.0422415.012558c.0022833.001142.0068499.001142.0079916.002284.5023316.106174 1.0103714.202073 1.5218363.28199l.0239749.007992c1.569786.252307 3.177247.393873 4.8132495.413282.3893069.006849.7786139.011416 1.1690625.006849.5240231-.012558 1.0617462-.046807 1.6017527-.091332.7363723-.059367 1.4818779-.147275 2.2353753-.2603.6633059-.098183 1.3231869-.214633 1.9830679-.352774 1.0274964-.211207 2.0424345-.462373 3.0208393-.746647 2.9352145-.852822 5.5279303-1.989917 7.0783081-3.146421 0 0-1.0195047-4.516418-1.8826016-9.10476-.0936164-.504615-.186091-1.00923-.273999-1.506995" fill="#856249"/><path d="m199.05708 80.9199035.004567.0022834-.012558-.0091333z" fill="#856249"/><path d="m138.63002 19.7781629-.373324-4.574642 2.290176-5.068982.905338-.20321593c-1.500144-.69641419-3.282279-1.19303741-5.345263-1.4499115-4.131678-.52059815-9.377617-.04224151-15.354221 1.50242799-5.976604 1.53439454-12.678163 4.11455204-19.785013 7.65370604-14.2148412 7.0737415-30.0394265 17.9754777-45.2669223 31.8672282-5.3132977 4.8452161-10.2681134 9.7954652-14.8233472 14.7605558-4.4250842 4.8166746-8.4711365 9.6493323-12.1016236 14.414632-7.3728571 9.6767323-13.0240869 19.0885988-16.6328824 27.4843855-2.41004971 5.594147-3.90106111 10.733912-4.44563418 15.132737-.40186523 3.197797-.29683227 5.994871.23860748 8.305596.17353273.747789.4030069 1.427078.66216431 2.076684.53886473 1.365429 1.24669556 2.542483 2.16116729 3.550571l9.2132172 9.651616.9875382 1.033204.0650748-.069641c.2808489-.325374.568548-.649606.8608136-.966989l.077633-.084483c.1061746-.114166.2169158-.221482.3230905-.331081.2762824-.288841.5559897-.577681.8414053-.859672.1769578-.174675.3561988-.342499.5365815-.512607.175816-.16554.3459238-.33679.5240231-.500048.0810581-.073067.1632577-.140425.2454574-.213491.1872328-.170108.3813154-.336791.575398-.504615.2694324-.232899.5400064-.463515.8185721-.690706.162116-.132433.3253738-.263723.4897733-.395015l.0719247-.055941c.2922656-.229475.5890979-.454382.8847885-.675864.1872326-.140425.375607-.277425.565123-.414424.3071073-.218058.6210645-.434973.9361633-.647323.189516-.126724.3767487-.253449.568548-.377891.3230905-.210065.653031-.414422.9829715-.615355.192941-.11645.379032-.2329.5708314-.343641.3459237-.203215.6964141-.395015 1.0457629-.586814.1872326-.100467.3710403-.2055.558273-.303683l.2100659-.110741.0125582-.037674c2.2056922-6.106754 5.5096638-12.736388 9.7931819-19.643448 5.2619229-8.483695 11.9851739-17.3818126 19.9676789-26.2433977 5.0198905-5.5747385 10.5318374-11.1346354 16.4833246-16.5643827 7.6993726-7.0178 15.5483031-13.2798194 23.2899168-18.7050001 5.215115-3.6556036 10.37543-6.9104837 15.412446-9.7657819.477215-.270574.956713-.5514229 1.431644-.8128638 1.342595-.7432223 2.67149-1.4487698 3.993536-2.1292006 2.87699-1.4875865 5.703746-2.8370316 8.45972-4.0289274l-1.350587-1.6223026-.223766-.267149-11.188293-13.4544938.086766-8.1971374-.105032-.1187329 6.72325-2.0047596z" fill="#3478ad"/><path d="m249.08816 211.658538.003426-.001142s.232899-1.738752-.686139-3.293697l-.020551-.042241c-.053658-.093616-.110741-.176957-.168966-.260299l-.060508-.090191c-.100466-.135858-.222624-.266008-.348207-.397299-.224907-.236324-.48749-.457806-.800306-.655314-.162115-.107317-.339074-.205499-.528589-.299115-.52174-.248884-1.146229-.438399-1.888311-.546858-.542289-.078774-1.162211-.101607-1.836935-.081057-.272856.009134-.542289.014841-.836838.042241l-.133574.007992s.02055.071925.049091.179241c.030825.113025.073066.276282.131291.492057.02055.084483.042241.172391.067359.269432.095899.38474.211207.873372.328798 1.425936-.001142.004567-.034249.111883-.121016.313958l-.045667.107316c-.337932.785464-1.25697 2.599566-3.303971 4.959383-.348208.400723-.734089.820855-1.148513 1.252403-5.710596 5.900113-18.069094 14.301607-44.070459 19.001833-8.822769 1.244412-16.957115 1.312912-23.905273.448673-10.273823-1.277521-17.972053-4.5598-21.553449-8.973468-.310532-.379032-.594807-.769481-.86538-1.163354-.199791-.291124-.392732-.585673-.570831-.883647-.063934-.1096-.122158-.221483-.18495-.331082-1.538961-2.720582-2.209117-5.686622-2.171442-8.559044.049091-3.48778 1.137096-6.82486 2.978598-9.390175 1.494436-2.08011 3.480929-3.652179 5.804212-4.378276 1.13938-.355057 2.357534-.51489 3.637337-.428124.258016.018267.599374.0548 1.025213.107316.853964.107317 2.047002.275141 3.510613.463515.164399.02055.316241.039959.48749.06165 4.879465.606223 12.649622 1.33917 22.046646.766056 17.095256-1.041196 39.596284-6.420711 60.02862-24.844862l.055942-.071924v-.031967c.068499-1.543528-.138142-4.330327-2.088102-6.498344-.340215-.379032-.737513-.737513-1.189612-1.069738-.259157-.189515-.527448-.37104-.826564-.540006-.300257-.166683-.574256-.334507-.839122-.503473-.361907-.227191-.703264-.45324-1.005804-.678148l-.044525-.065074c-.138142-.215775-.285416-.42584-.42584-.641615-5.30074-8.02703-12.601673-12.686155-15.512912-14.821064-1.37342-1.009229-2.247934-1.46932-2.247934-1.46932-6.304261-3.840553-7.229007-5.114648-6.639909-15.544878.211207-3.756069.617639-8.692619 1.03663-15.385045.055941-.871088.082199-1.697653.097041-2.510516.003424-.194082.007991-.383599.007991-.574257.005709-.768338-.002283-1.51841-.031967-2.238799l-.006849-.206642-.017125-.221482c-.031967-.566265-.071925-1.116546-.118733-1.651986-.021692-.235182-.044525-.471507-.0685-.703264-.062791-.571973-.134716-1.127962-.223766-1.664544-.044525-.273999-.098183-.537723-.148415-.804873-.055942-.300256-.11645-.593664-.179242-.881363-.061649-.283132-.124441-.568548-.194083-.841405l-.002283-.001142.002283-.003424v.003424c-.084483-.33679-.182665-.655314-.27514-.973838-.03425-.116449-.06165-.237466-.099324-.35049-.035392-.107316-.073067-.205499-.107317-.312816l-.035391-.106174-.107317-.305966-.003424-.02055c-.087909-.246599-.179242-.486349-.268292-.720389l-.028541-.077633-.091333-.221483-.1096-.272857-.025117-.052517v-.00685c-.189515-.441823-.387023-.871088-.597089-1.272954l-.166682-.296832c-.238609-.393874-.484065-.763771-.73409-1.121112l-.100466-.149558-.124442-.165541c-.17924-.245458-.359623-.486349-.540005-.711256l-.2466-.3093905c-.242032-.2865574-.482923-.5639814-.726098-.8231388l-.001141-.0022833c-.297973-.3139572-.595947-.6107895-.89963-.8847885-.347065-.2157743-.688422-.409857-1.032063-.5811063-.111883-.0582248-.224908-.1016079-.339074-.1518411-.224907-.105033-.454382-.2077826-.681573-.2922656-.132432-.0502333-.26144-.0901914-.392731-.1347163-.203217-.0650747-.410999-.1312912-.615356-.1849493-.133575-.0331082-.271716-.0616497-.406433-.0890497-.199791-.0422415-.396157-.077633-.594806-.1061746-.135857-.0182666-.269431-.0342499-.406432-.0456665-.196365-.0194083-.393873-.0285415-.590239-.0365332-.133575-.003425-.266007-.00685-.395015-.003425-.203216.003425-.403008.0137-.603939.0296833-.123301.0091332-.247742.0194082-.369899.0331081l-.270574.0399582c-.122158.0216917-.245458.0353916-.372183.0593665-.107316.0182666-.215773.0365332-.32309.0582248-.250024.0525165-.497765.1164495-.744364.1872326l-.216916.0559415c-.650748.1940826-1.300354.4429651-1.941968.7352308l-.214632.1016079c-.250025.1153079-.501191.2363242-.751214.3641904l-.2877.1552661c-.227191.1175912-.454382.2431741-.679289.3698987l-.308249.1803827c-.222624.1290079-.446389.2614407-.669014.3995818l-.303682.1872328c-.231758.1449911-.465798.2945489-.69984.44639l-.258015.1689665c-.263724.172391-.52859.348207-.792314.527448l-.157549.106174c-.296832.202074-.598232.409857-.899631.61764l-.010275.009133-.046808.028541h.003425c-.561698.385883-1.122254.780898-1.68966 1.174771-.474932.331083-.958996.662164-1.445345.990963l-.234041.160975c-.489773.328799-.985255.649606-1.481878.969271l-.250024.156408c-.500049.310532-1.001238.613073-1.506994.900772l-.266009.147275c-.508039.286557-1.025212.553706-1.546952.809439l-.260299.122157c-.527448.251166-1.066313.485207-1.610886.690706l-.224908.085625c-.561697.205499-1.132529.393873-1.712494.546857l-.151841.035391c-.613073.157549-1.226145.284274-1.856343.369899-1.058321.142708-2.115501.189515-3.178389.194082-1.73076.007992-3.467229-.132433-5.211689-.39159-.581107-.087908-1.167921-.190658-1.752452-.297974-.207783-.038816-.414424-.070783-.619923-.110741-1.520695-.295691-3.050522-.648464-4.590626-1.019505-.647323-.154124-1.293503-.310532-1.943109-.468082-1.04348-.25459-2.097235-.500048-3.152131-.740939-.208924-.047949-.410998-.100467-.622206-.146132l.010275-.001142c-.148416-.031967-.297974-.062792-.447532-.093617-.234041-.051374-.468081-.101607-.699839-.154124-.223766-.044525-.448673-.089049-.671297-.133574l-.11645-.023976-.077633-.014841c-.2055-.0411-.409857-.0822-.616498-.122158-.478357-.090191-.960138-.175816-1.44192-.255733-.142708-.025116-.286558-.043383-.428124-.065074-.358481-.055941-.715822-.110741-1.072021-.158691-.180382-.026258-.36419-.043384-.542289-.065075l-.039959-.004567c-.311673-.039958-.624489-.076491-.936162-.107316-.207784-.02055-.41785-.037675-.622207-.057083-.093617-.00685-.187233-.012558-.283132-.02055-.212349-.015983-.428124-.033109-.642756-.045667-.204358-.0137-.409857-.025116-.61764-.034249-.32994-.0137-.653031-.021692-.978405-.0274-.098183-.001142-.196366-.002283-.294548-.004567-.08905-.001142-.182666-.004567-.274-.004567-.404148.001142-.814005.009134-1.225004.0274-.106175.003425-.218057.002283-.326515.010276-.520598.021691-1.04348.062791-1.568644.11759-.135858.0137-.271716.03425-.409857.04795-.339074.039958-.67929.085625-1.020647.138141l-.151841.021692c-.186091.0274-.375606.062791-.560556.0959-.349349.063933-.695272.131291-1.045763.20664-.202074.045667-.403007.08905-.60394.140425-.344781.082199-.692989.174675-1.041196.272858-.197507.054799-.395015.109599-.594806.171249-.375607.114166-.750073.242033-1.126821.375607-.171249.059366-.341357.113024-.512607.180383-.551423.202074-1.097137.423557-1.651985.670155-4.33261 2.494534-8.05443 5.898971-11.01362 9.870816-.985254 1.322044-1.887167 2.709165-2.697748 4.145377-.85853 1.520694-1.602895 3.099613-2.250217 4.717349-.189517.472649-.369899.945297-.541149 1.424795-.283132.807156-.553706 1.621161-.78318 2.4443-.023975.087908-.043383.1781-.067358.267148-.253449.928173-.472648 1.864335-.653031 2.809633-.191799.986396-.337932 1.978501-.447532 2.975172-.059366.538865-.114166 1.076588-.149557 1.616595-.093616 1.451053-.083342 2.908956.004567 4.362292.005707.131292.017124.264866.026258.395015.025116.372183.037674.74094.077632 1.113122.107317 1.034346.254591 2.068692.462374 3.095047.073066.379032.175816.736372.267149 1.101705.085625.349348.163258.710113.256873 1.05147v-.002283c.722673 2.621258 1.768436 4.982216 3.007141 7.1274 4.720774 8.156037 12.482938 13.03322 18.106768 15.651052 2.187426.964706 4.470751 1.826661 6.843126 2.583583 0 0-.111883.069641-.285416.187233-.41899.105033-.909905.235182-1.453336.389307-.823139.231757-1.773003.520598-2.821049.873372-1.177053.396157-2.475125.873371-3.843978 1.439636-3.651036 1.512703-7.79413 3.663596-11.465718 6.634202-.460089.371039-.911046.754638-1.354011 1.150795-.753498.678148-1.471603 1.40082-2.162309 2.157743-.078774.085624-.163257.167824-.238607.254591-.105034.116449-.207783.237465-.310533.355056-.260299.304824-.518314.616498-.769481.93388-.100466.127866-.199791.254591-.300256.382457-.329941.436115-.65189.877939-.956714 1.336888-.299116.449814-.586814.914471-.85853 1.385978-2.176009 3.798311-3.410147 8.345553-3.031115 13.768451l.011418-.055941.006849-.039958c.009133-.049092.022834-.117592.039958-.202075l.011418-.044525c.015982-.0822.039958-.179241.065074-.286558l.014842-.067357c.029683-.1233.065074-.264866.105032-.41899l.0274-.100467c.044525-.1644.093617-.342499.148417-.535439l.002283-.001142c.053658-.189516.121016-.393874.187233-.605082l.043383-.129007c.070783-.214633.148416-.43954.234041-.671298l.044525-.110741c.078774-.2192.166682-.444107.262582-.675864l.044524-.107317c.10275-.250024.216917-.50804.334507-.770622l.076492-.163258c.126725-.268291.255733-.540006.400724-.815147v-.001142c.005708-.011416.012558-.021691.018266-.031967.214633-.410998.456665-.829988.714681-1.251261.097041-.159833.190657-.318525.297974-.478357l.0822-.133575.002283-.003425c.220341-.32994.452099-.659881.702122-.986396.203217-.267149.41899-.532015.641615-.795738.069642-.082201.144991-.1644.219199-.2466.1781-.199791.363049-.399582.554848-.595948.078775-.078774.156408-.159833.235182-.237466.262583-.256874.532016-.508039.817431-.751214l.023975-.022833v.001142-.001142s-4.938833 11.174593-2.791365 20.035037c0 0-.002284-.0274-.002284-.074208v-.054799c-.002282-.049092-.002282-.106175-.002282-.181526 0-.014841 0-.031965-.001142-.047949.001142-.091333.001142-.196366.005708-.321948 0-.015984 0-.030825.002283-.049092 0-.131292.009133-.277424.015984-.440682 0-.014842.002283-.031967.002283-.046809.009133-.167824.019408-.351632.034249-.546856 0-.018267.001142-.033107.003426-.049091.015983-.199791.033108-.409857.058225-.632482.002283-.017124.004566-.035391.00685-.054799.021691-.222624.053658-.45324.086765-.696414.002284-.021692.006851-.043383.009134-.065075.037675-.256874.079916-.524023.131291-.799163l.011417-.065076.026258-.138141v-.005709c.060509-.30939.132433-.62563.214633-.946438.005708-.020549.010275-.042241.014842-.063932.084483-.312816.174674-.629057.27514-.94758.031967-.098183.06165-.194083.093616-.292266l.068501-.203216v-.003425c.093616-.26144.196365-.522882.307107-.78318l.017125-.042242.001141-.002283c.154125-.36419.334507-.716964.526306-1.067455.049092-.092474.103892-.18495.15755-.27514.204358-.345925.418991-.684998.663306-1.005805l.010275-.015984v.002284-.002284h.001142s-.283132 2.751407-.210067 6.025696c.0137.514889.037676 1.044621.070783 1.577777.020551.355057.043384.712398.076492 1.068597.218058-3.518605.860814-6.823718 1.796977-9.906207-.936163 3.084772-1.578919 6.388744-1.795835 9.909631v.001142c-.141566 2.24565-.110741 4.575784.121016 6.9904.392732 4.025503 1.349445 8.285046 3.03454 12.768355 0 0-1.54467-5.155749.680431-10.312639.200931.469224.415564.941872.640472 1.417946.182666 1.529828.490914 3.702411.94073 6.094195.430406 3.985544 2.336983 15.942176 10.459913 24.351663 0 0-3.069931-3.983261-2.592716-9.169834.320807.681572.638189 1.295787.94073 1.825519 1.389403 2.600707 4.153369 7.444781 7.166216 10.80241 0 0-2.444299-4.734474-1.87461-5.75512 0 0 7.971088 9.911914 10.506721 10.878903l-3.333655-5.527931-.07535-.162116c11.583309 8.399212 27.475253 11.517093 47.131257 6.043962 3.37818-.943013 6.867101-2.137193 10.465622-3.605371 2.207975-.95443 4.393117-2.003617 6.556568-3.166972l.313957-.174674c1.513845-.827705 3.015131-1.715919 4.505001-2.653224l.033108-.02055c1.11883-.704406 2.227384-1.44192 3.324522-2.206833 1.836935-1.294646 3.656745-2.657791 5.429746-4.13967l.004567-.002282.006851-.005709c.101607-.090192.20664-.178099.313956-.268291 1.757019-1.535535 3.402155-3.114455 4.9297-4.721916 2.018459-2.123493 3.83142-4.292651 5.471989-6.46866l.121016-.156408c.400724-.536581.793455-1.07088 1.174771-1.599469l.107316-.155266c.124442-.181525.234041-.353916.35734-.533158.529732-.76263 1.053755-1.526402 1.54467-2.284466.117592-.181524.238607-.366474.356199-.54914.254591-.401865.500048-.80373.745505-1.199887.18495-.311674.374465-.622206.553707-.930455.199791-.335649.400723-.67244.594806-1.005805.34364-.606222.679289-1.207879 1.001238-1.80611.126725-.237466.246599-.468081.369899-.702123.245457-.465798.486348-.925888.713539-1.381411.106175-.212349.213491-.424699.31624-.635906l.093616-.199791c.285416-.574256.557132-1.145088.820856-1.705644l.049092-.119875c.989821-.923604 1.759301-1.801543 2.376942-2.641807.089049-.118733.182665-.239749.264865-.358483 1.371137-1.978501 1.81981-3.728669 1.844926-5.299597" fill="#fce9c9"/><path d="m64.4253764 182.46965c-.3424988.107317-.7283808.560556-1.1165461 1.179338-.1449911.231757-.2876989.485206-.4304068.752355-1.0389129 1.952243-1.9750763 4.660267-1.9750763 4.660267.0730664-.904196.1723911-1.842643.2831324-2.785656.0125583-.1096.0285416-.216917.0422415-.327658.1153079-.960138.2488824-1.928268.3915903-2.890689.0159833-.11645.0342499-.231758.0513747-.345924.1666828-1.084579.3424988-2.162309.5251649-3.202363.0239749-.135859.0456665-.26715.070783-.400724l.0137-.0685c.0216916-.119875.0422415-.242032.0639331-.361908.0308249-.17924.0627915-.358481.0958996-.535439.1495578-.82428.3036823-1.621161.4532401-2.376942.1358578-.682713.2671491-1.328895.3938736-1.937401l.0399582-.196366c.0182666-.0959.0388165-.182666.0582247-.273999.0194084-.08905.037675-.181524.0559416-.273999l.0068499-.031967c.0331083-.151841.0673581-.308249.0981831-.452098l.0091332-.039958c.0285416-.142708.0559415-.263724.084483-.397299.0468082-.208924.0913331-.423557.1347162-.618781l.0125583-.054799c.0353915-.158692.0684998-.319666.101608-.464657.0479498-.208924.0924747-.400724.1301495-.582248l.0022834-.005709.0022833-.004566c.0228332-.103891.0445249-.194083.0662164-.289983l.0045667-.017125c.0205498-.086765.0388164-.178099.0582248-.254591.0445248-.191798.084483-.365331.1164495-.498905l.0285416-.118734.0114166-.043383.0331083-.140424.0228332-.097042.0045666-.0137-.0159832.012559-.210066.190658c-.1849493.164399-.3744653.325374-.547998.50804l-.1906576.210065c-.2043577.228333-.4030069.468082-.5879563.722673l-.098183.123299c-.2294742.319665-.4429651.655315-.646181.996671v.001142l-.0262582.044525-.0011417.002283-.0821997.151841c-.0468082.083342-.0913331.168966-.1358579.253449-.1175912.213491-.2386074.421275-.3436404.637048l-.0057083.007992-.0034251.00685-.0057083.018267-.0410997.081057-.037675.081058c-.1643994.341357-.3139572.680431-.4543816 1.014939-.3972986.94073-.7044059 1.836935-.9350217 2.585866-.0799164.266007-.1552661.518314-.2157742.740938-.1335746.482924-.227191.860814-.2694325 1.045763l-.0022832.015984-.0296833.124441v-.002283.002283l.0114167-.144991c.0159832-.287699.0490914-.573115.0719247-.858531.0445248-.600514.0821997-1.203311.1484161-1.799259.0525165-.502332.1301496-.993247.2009327-1.492154.0228332-.155266.0468081-.311674.0696414-.465798.0308249-.229475.0627914-.458948.1004662-.687281.0331083-.213491.0799165-.423557.1198747-.632481l.0022833-.015983v-.001142l.0445248-.234041.0137-.063933c.0468081-.255732.0958996-.516032.1449911-.771764.0171249-.099325.0353915-.198649.0559415-.297973l.0353915-.176959.00685-.033108c.017125-.083341.0353916-.168966.0536581-.251166.0205499-.105032.0490915-.20664.0707831-.305965.084483-.375607.175816-.744364.263724-1.115404l.0148417-.06165c.0650748-.276282.1255829-.553707.196366-.825423l.0022833-.012558.0068499-.018266.0216916-.079917c.1449911-.559414.3059657-1.10627.4669401-1.657693l.084483-.303683c.0308249-.101608.0570832-.208924.0890497-.311674.2660074-.893922.5502814-1.776426.852822-2.639523l.0388164-.108459c.2591575-.732947.5217399-1.454478.7968805-2.165733l.030825-.081059c.1244412-.312815.2523074-.613072.3744653-.922463l.0205499-.045666c.1872327-.461232.372182-.924748.5639813-1.371137l.0011416-.004567v-.002284l.0034251-.005707.0216916-.055942c.0513747-.111883.1701077-.383599.3550571-.783181l.0034249-.006849.0251166-.053659v-.001141c.0719247-.157549.1404245-.310533.2100659-.470365.1130246-.254591.2271909-.505756.3390738-.755781l.101608-.219199c-.1598328-.086766-.3276572-.1644-.4920566-.2466l-.0936164-.046807-.1746743-.087908c-1.0674545-.511465-2.1908505-.921322-3.3553464-1.222721l-.1849494-.045667c-.7466473-.187232-1.5092779-.32994-2.2878918-.420132-.4509567-.051374-.9030551-.092474-1.3620035-.110741-.3813153-.015983-.7626306-.02055-1.1485125-.012558-.5799646.012558-1.1507959.06165-1.712494.123299-.179241.022834-.3527737.053658-.5263065.076492-.2785656.042242-.5537063.0959-.8299886.146132-.1073164.022834-.2203409.036534-.3276572.060509-.1940826.041099-.385882.082199-.5776813.131291-.3767487.092474-.7443639.196366-1.109696.311674-.1701078.053658-.3390738.097041-.5046149.155266-.4943399.173533-.9806881.363049-1.4556198.574256-.189516.084483-.365332.181524-.5502814.268291-.2169159.107317-.4315485.221483-.6450394.331082l-.2203408.113025c-.2351826.13015-.4646567.269432-.6918476.407573-.2112075.129008-.4246984.266008-.6290561.406432-.2511657.165542-.4966232.333366-.7352306.509182-.1472745.113024-.2876991.228332-.4349736.342499-.3881652.307106-.7569222.637047-1.1199709.973838-.1872327.174674-.3676154.352773-.5468565.533156-.3173821.315099-.6279143.635906-.9178966.972697l-.1472745.168966c-.1529828.182666-.2956907.375607-.4383985.566265l-.0228332.0274-.0182666.025116c-.0970413.127866-.2020743.251166-.2968323.381315l-.0376748.051375-.037675.051375-.0022833.004566-.0022832.003425c-.585673.819714-1.0994212 1.691944-1.5446696 2.599566-.0650748.13015-.1232996.263724-.1849493.396157-.2054993.444107-.3950152.898489-.5662646 1.362004-.0673582.183808-.1427079.361906-.2054994.547998l-.0022832.002283v.001142l-.0022834.003425c-.1564078.471506-.2945489.948721-.4121402 1.44192l-.0445249.182666-.0433831.231757-.0057083.02055c-.0810581.356199-.1586912.712397-.2146326 1.074305-.0285416.178099-.0468082.359623-.0696414.540006l-.0079916.051375c-.0228333.191799-.0422415.385882-.0616499.579964-.0171248.144992-.0388165.292266-.0502331.440682-.0422415.570831-.0605081 1.14623-.0468082 1.729619.0114167.450956.0513749.893922.0936164 1.338029l.0034249.025116.0148417.206641c.0239749.245457.0662164.48749.1027496.730664.1312912.884789.3116739 1.750169.5662647 2.587008.189516.638188.4121401 1.259254.6690142 1.865477.4703651 1.114262 1.0548963 2.16345 1.7227689 3.149846 1.4053867 2.081252 3.2114969 3.864528 5.3212894 5.224248 1.1964624.770623 2.4899661 1.397395 3.8553946 1.876894 1.3106287.463515 2.6783404.800305 4.1042771.956713.3208072.033108.6450393.057083.9704131.079916.4863483.031967.9715549.052516 1.4670366.042242.456665-.010275.9007717-.066216 1.3494451-.1096.2557324-.023974.5194564-.026258.7729056-.06165.6450394-.090191 1.2775204-.221482 1.8997265-.376748l.1404246-.030825c.2591574-.067358.5000482-.162116.751214-.239749.7831805-.238608 1.5412444-.526307 2.2776168-.865381l.1598328-.070783c.2054993-.087907.4178485-.17239.6164978-.273998l.0239749-.009134c-.3596237-1.980785-.632481-4.012944-.8277053-6.089628-.0125583-.148416-.0331083-.291124-.0490915-.438399" fill="#fce9c9"/><path d="m141.496735 21.2451993.341357.1735327-.005707-.0456664z" fill="#4d94c3"/><path d="m242.030403 206.982288c-.025118-.097041-.046809-.184949-.067359-.269432-.058225-.215775-.100466-.379032-.131291-.492057-.559415-1.816386-1.268387-3.235472-1.899726-4.246985-.807156-1.306062-1.476171-1.951102-1.476171-1.951102.134717-.460089.240891-.908762.336792-1.350586.122157-.578823.218057-1.145088.283132-1.694227.486348-4.14081-.622206-7.362582-1.509279-9.181251-.141566-.291124-.27514-.541148-.397298-.759206-.639331.454382-1.286654.903055-1.932835 1.340312-12.275157 8.311304-26.091557 13.64401-41.050762 15.936469-10.309214 1.580061-21.155008 1.727335-32.43121.355057l.196366.057083s-6.796317.930455-8.640102 7.45049l.115307.066216-.561697 4.372568c.198649 5.921804 2.905532 9.627641 5.986879 11.577601 3.202363 1.221578 7.069175 2.153175 11.364109 2.686332 7.473323.929313 16.051776.683855 24.808329-.706689l.044525-.006851.044524-.005707c11.646101-1.561795 28.0849-7.780431 39.836033-15.807461 2.677199-1.828944 5.112366-3.748078 7.191333-5.732288l.077633-.075349.141566-.137001c-.117591-.552564-.232899-1.041196-.328798-1.425936" fill="#fff"/><path d="m219.812506 150.547622c-6.304261-3.840553-7.229007-5.114648-6.639909-15.544878.211207-3.756069.617639-8.692619 1.03663-15.385045.055941-.871088.082199-1.697653.097041-2.510516.003424-.194082.007991-.383599.007991-.574257.005709-.768338-.002283-1.51841-.031967-2.238799l-.006849-.206642-.017125-.221482c-.031967-.566265-.071925-1.116546-.118733-1.651986-.021692-.235182-.044525-.471507-.0685-.703264-.062791-.571973-.134716-1.127962-.223766-1.664544-.044525-.273999-.098183-.537723-.148415-.804873-.055942-.300256-.11645-.593664-.179242-.881363-.061649-.283132-.124441-.568548-.194083-.841405l-.002283-.001142.002283-.003424c-.898488-1.335746-1.965943-2.529925-3.217204-3.544864l-.245458-.182665-.049091-.037675-.18495-.138141-.062791-.046808c-.180383-.139283-.369899-.275141-.557132-.399583-.202074-.133574-.403007-.264865-.608506-.388164-1.864335-1.133671-3.942161-1.846069-6.166119-2.176009-1.228429-.180383-2.501383-.244316-3.806304-.194083-.606222.021692-1.219296.07535-1.836935.148416-1.60746.188374-3.253738.532014-4.923991 1.040054-.561698.385883-1.122254.780898-1.68966 1.174771-.474932.331083-.958996.662164-1.445345.990963l-.234041.160975c-.489773.328799-.985255.649606-1.481878.969271l-.250024.156408c-.500049.310532-1.001238.613073-1.506994.900772l-.266009.147275c-.508039.286557-1.025212.553706-1.546952.809439l-.260299.122157c-.527448.251166-1.066313.485207-1.610886.690706l-.224908.085625c-.561697.205499-1.132529.393873-1.712494.546857l-.151841.035391c-.613073.157549-1.226145.284274-1.856343.369899-1.058321.142708-2.115501.189515-3.178389.194082-1.73076.007992-3.467229-.132433-5.211689-.39159-.581107-.087908-1.167921-.190658-1.752452-.297974-.207783-.038816-.414424-.070783-.619923-.110741-1.520695-.295691-3.050522-.648464-4.590626-1.019505-.647323-.154124-1.293503-.310532-1.943109-.468082-1.04348-.25459-2.097235-.500048-3.152131-.740939-.208924-.047949-.410998-.100467-.622206-.146132-.884789.047949-1.773002.134715-2.664641.246598l-.194082.023976c-2.587008.339074-5.188857.955571-7.759881 1.844926-.142708.049092-.285416.091334-.42584.142708-.401865.142708-.800305.299116-1.199887.456665-.53544.21235-1.069738.43269-1.600612.667872-3.724102 1.643995-7.340889 3.880512-10.703087 6.723252-1.362002 1.151937-2.636098 2.372375-3.829136 3.638478-1.830085 1.946536-3.448963 4.019794-4.866907 6.175254-.078775.121016-.156408.240891-.231758.361907-.756922 1.172487-1.449911 2.367807-2.076684 3.583678-.226049.433832-.454382.868806-.662164 1.307204l-.042242.085625c-.675864 1.431645-1.261537 2.886123-1.766152 4.354301-.028541.087908-.053659.175817-.078775.262582-.071925.213491-.126724.428124-.194082.640473-.215775.681573-.413282 1.367712-.594807 2.05271-.182665.711256-.356198 1.424794-.498906 2.138334-.028542.152983-.062791.307107-.089049.461231-.082201.436115-.160975.87223-.229475 1.308345-.243174 1.604037-.376749 3.204648-.410998 4.794983-.011417.399582-.026258.802589-.021693 1.198746.722673 2.621258 1.768436 4.982216 3.007141 7.1274 4.720774 8.156037 12.482938 13.03322 18.106768 15.651052 2.187426.964706 4.470751 1.826661 6.843126 2.583583l.060507.10275.002284.001141.010276-.004567.152982-.11759c.30254-.230616.605081-.461233.917897-.689565.109599-.085625.222624-.165541.334507-.247741.318524-.232899.64618-.470365.980688-.703263.111883-.077634.226049-.156408.341357-.235184.335649-.23404.680431-.471506 1.032063-.703264.116449-.078774.234041-.154124.352774-.231757.355057-.235183.715822-.469223 1.085721-.702123.123299-.07649.243174-.152982.365332-.228332.375607-.230615.752356-.461232 1.133671-.692989.131292-.077633.264866-.156408.396157-.236324.383599-.222624.771764-.449815 1.170204-.675864.14385-.077634.286558-.158692.430407-.23975.390448-.221483.790031-.438398 1.196462-.655314.159833-.085625.320807-.172391.485207-.256874.399581-.21235.804872-.422416 1.215871-.630198.175815-.087908.351632-.176958.529731-.266007.408715-.204358.823139-.406433 1.238704-.607364.197508-.094759.39844-.187233.597089-.281991.408715-.192942.823139-.384741 1.244412-.575399.218058-.101608.446391-.198649.671299-.299116.407573-.181524.821997-.363048 1.244412-.541147.246598-.108458.501189-.213491.751214-.317383.407573-.170107.820855-.339073 1.239845-.509181.278566-.110741.56284-.221482.84483-.333365.40529-.15755.811723-.316241 1.226146-.472649.310532-.118732.626773-.236324.938447-.349348.401865-.147275.799163-.294549 1.209021-.439541.345923-.121015.697555-.242032 1.048045-.363048.392733-.135858.786607-.273999 1.186188-.403007.383598-.129008.771764-.252308 1.159929-.376749.383599-.124441.764914-.247741 1.154221-.368757.425841-.133575.85853-.262582 1.295787-.393873.36419-.106175.729522-.2192 1.101705-.325374.470365-.138141.952147-.270574 1.429361-.404149.240891-.065075.472649-.138141.71354-.19979 1.866618-4.699084 7.407107-16.352034 16.897747-17.627271 1.020647-.147275 1.941969-.200933 2.814199-.210067.218058-.002282.452098-.018266.65988-.0137-.109599-.675864-.196365-1.380269-.240889-2.112075-.296833-5.021032 1.246694-9.194951 3.446679-9.327383 1.704502-.138142 3.059655 2.350683 3.291413 3.221772.647322 1.526403 1.101704 3.476362 1.232996 5.639813.116449 1.976218-.066217 3.800595-.442966 5.321289.191799.197507.349349.416707.52174.626773 2.173725 2.697748 2.541341 6.440118 2.452292 9.091059.84483-.085624 1.712493-.159833 2.580157-.234041.22034-.020549.437256-.0411.662164-.061649l.137-.012558c.125583-.012559.251166-.019409.375607-.029684 1.073162-.08905 2.158883-.172391 3.260588-.251165l.049092-.002284c2.494532-.173533 5.056423-.320808 7.699372-.433832-1.37342-1.009229-2.247934-1.46932-2.247934-1.46932" fill="#efcfa5"/><path d="m243.693805 220.838647c-4.152227 3.697845-8.499678 6.666168-12.81288 9.048818-2.153175 1.186187-4.292651 2.215967-6.399018 3.13158-4.683101 2.040151-9.175543 3.458097-13.133687 4.422801-8.734861 2.128059-14.895272 2.132626-14.895272 2.132626 4.776717 2.641808 10.822961 2.666924 14.970622 2.247934 2.854156-.284274 4.816674-.77519 4.816674-.77519-.08905 1.753594-.308248 3.366764-.621064 4.872617-.347066 1.666827-.821997 3.180672-1.390546 4.565509l-.044525.118732-.004566.007992c-.711256 1.712494-1.567502 3.214922-2.521933 4.539251-.103891.142708-.204357.29569-.30939.433831l.313957-.174674c1.513845-.827705 3.015131-1.715919 4.505001-2.653224l.033108-.02055c1.11883-.704406 2.227384-1.44192 3.324522-2.206833 1.836935-1.294646 3.656745-2.657791 5.429746-4.13967l.004567-.002282.006851-.005709c.101607-.090192.20664-.178099.313956-.268291 1.757019-1.535535 3.402155-3.114455 4.9297-4.721916 2.018459-2.123493 3.83142-4.292651 5.471989-6.46866l.121016-.156408c.400724-.536581.793455-1.07088 1.174771-1.599469l.107316-.155266c.124442-.181525.234041-.353916.35734-.533158.529732-.76263 1.053755-1.526402 1.54467-2.284466.117592-.181524.238607-.366474.356199-.54914.254591-.401865.500048-.80373.745505-1.199887.18495-.311674.374465-.622206.553707-.930455.199791-.335649.400723-.67244.594806-1.005805.34364-.606222.679289-1.207879 1.001238-1.80611.126725-.237466.246599-.468081.369899-.702123.245457-.465798.486348-.925888.713539-1.381411.106175-.212349.213491-.424699.31624-.635906l.093616-.199791c.285416-.574256.557132-1.145088.820856-1.705644-.287699.26144-.573114.509182-.85853.760347" fill="#efcfa5"/><path d="m139.615275 174.855903c-1.177053.396157-2.475125.873371-3.843978 1.439636-3.651036 1.512703-7.79413 3.663596-11.465718 6.634202-.460089.371039-.911046.754638-1.354011 1.150795-.753498.678148-1.471603 1.40082-2.162309 2.157743-.078774.085624-.163257.167824-.238607.254591-.105034.116449-.207783.237465-.310533.355056-.260299.304824-.518314.616498-.769481.93388-.100466.127866-.199791.254591-.300256.382457-.329941.436115-.65189.877939-.956714 1.336888-.299116.449814-.586814.914471-.85853 1.385978-2.176009 3.798311-3.410147 8.345553-3.031115 13.768451l.011418-.055941.006849-.039958c.009133-.049092.022834-.117592.039958-.202075l.011418-.044525c.015982-.0822.039958-.179241.065074-.286558l.014842-.067357c.029683-.1233.065074-.264866.105032-.41899l.0274-.100467c.044525-.1644.093617-.342499.148417-.535439l.002283-.001142c.053658-.189516.121016-.393874.187233-.605082l.043383-.129007c.070783-.214633.148416-.43954.234041-.671298l.044525-.110741c.078774-.2192.166682-.444107.262582-.675864l.044524-.107317c.10275-.250024.216917-.50804.334507-.770622l.076492-.163258c.126725-.268291.255733-.540006.400724-.815147v-.001142c.005708-.011416.012558-.021691.018266-.031967.214633-.410998.456665-.829988.714681-1.251261.097041-.159833.190657-.318525.297974-.478357l.0822-.133575.002283-.003425c.220341-.32994.452099-.659881.702122-.986396.203217-.267149.41899-.532015.641615-.795738.069642-.082201.144991-.1644.219199-.2466.1781-.199791.363049-.399582.554848-.595948.078775-.078774.156408-.159833.235182-.237466.262583-.256874.532016-.508039.817431-.751214l.023975-.022833v.001142-.001142s-4.938833 11.174593-2.791365 20.035037c0 0-.002284-.0274-.002284-.074208v-.054799c-.002282-.049092-.002282-.106175-.002282-.181526 0-.014841 0-.031965-.001142-.047949.001142-.091333.001142-.196366.005708-.321948 0-.015984 0-.030825.002283-.049092 0-.131292.009133-.277424.015984-.440682 0-.014842.002283-.031967.002283-.046809.009133-.167824.019408-.351632.034249-.546856 0-.018267.001142-.033107.003426-.049091.015983-.199791.033108-.409857.058225-.632482.002283-.017124.004566-.035391.00685-.054799.021691-.222624.053658-.45324.086765-.696414.002284-.021692.006851-.043383.009134-.065075.037675-.256874.079916-.524023.131291-.799163l.011417-.065076.026258-.138141v-.005709c.060509-.30939.132433-.62563.214633-.946438.005708-.020549.010275-.042241.014842-.063932.084483-.312816.174674-.629057.27514-.94758.031967-.098183.06165-.194083.093616-.292266l.068501-.203216v-.003425c.093616-.26144.196365-.522882.307107-.78318l.017125-.042242.001141-.002283c.154125-.36419.334507-.716964.526306-1.067455.049092-.092474.103892-.18495.15755-.27514.204358-.345925.418991-.684998.663306-1.005805l.010275-.015984v.002284-.002284h.001142s-.283132 2.751407-.210067 6.025696c.0137.514889.037676 1.044621.070783 1.577777.020551.355057.043384.712398.076492 1.068597.218058-3.518605.860814-6.823718 1.796977-9.906207.26144-.849397.546856-1.677102.849397-2.493391.042242-.117591.083342-.235183.127867-.352773.292265-.771765.601655-1.522979.924746-2.262776.062792-.138141.124441-.276283.184949-.414424.329941-.730663.671298-1.447628 1.028638-2.147467.058225-.108458.113024-.214633.168966-.321949.758064-1.460186 1.572069-2.84959 2.416901-4.163644.06279-.097041.123299-.19294.184948-.28884.32195-.492056.651889-.965847.98183-1.436212.085625-.124441.168966-.256874.255733-.379032.081058-.110741.156408-.22034.236324-.32994.420131-.579964.841406-1.145088 1.267246-1.691944.068499-.086767.135857-.172391.203215-.256874.442966-.561698.884789-1.109696 1.328895-1.632577l.023975-.028542c.559415-.661022 1.117688-1.292362 1.670253-1.894018.406432-.440682.808297-.864239 1.206737-1.272954.149558-.152983.304824-.304825.458948-.460091.952147-.96128 1.871185-1.824377 2.727433-2.58929 2.568741-2.299309 4.568933-3.719536 5.266489-4.191043-.41899.105033-.909905.235182-1.453336.389307-.823139.231757-1.773003.520598-2.821049.873372" fill="#efcfa5"/><path d="m205.307683 150.111507s-.0274-.285416-.129008-.715822c-.401865-1.63372-2.016176-5.487972-8.374095-4.877183-6.64676.640472-8.87871 6.004004-9.451825 7.831806-.117591.379032-.168966.617639-.168966.617639l.180383.154124c.842547-.715822 2.451149-.631339 3.909053.294549.666731.423557 1.197603.957856 1.560653 1.520695v.002284c.561698.865379.718105 1.798118.320807 2.491107-.084483.148416-.190658.273999-.312816.38474 0 0 .255733.098183.687281.223766 1.84721.544574 6.968709 1.618878 9.740665-1.960234.133575-.172392.269432-.332224.391591-.524024-.545715-.278565-.850539-1.078871-.851681-2.027592-.004567-.456665.058225-.945297.205499-1.432787.454382-1.50357 1.483021-2.391783 2.292459-1.983068" fill="#efcfa5"/><path d="m172.355875 198.936991c-4.301784.887072-8.063562 1.548095-10.981652 2.01846.164399.02055.316241.039959.48749.06165 4.879465.606223 12.649622 1.33917 22.046646.766056 17.095256-1.041196 39.596284-6.420711 60.02862-24.844862l.055942-.071924v-.031967c.068499-1.543528-.138142-4.330327-2.088102-6.498344-.340215-.379032-.737513-.737513-1.189612-1.069738-.076491-.044525-.147274-.094757-.226049-.139282-.536581-.300258-1.004663-.60394-1.439637-.904197-.361907-.227191-.703264-.45324-1.005804-.678148l-.044525-.065074c-1.255829 1.80611-2.711449 3.524312-4.341743 5.160314-.577681.577682-1.190754 1.134813-1.808393 1.691945-5.63753 5.078115-12.921338 9.306832-20.783968 12.790045-13.066329 5.787089-27.670477 9.542016-38.709213 11.815066" fill="#efcfa5"/><path d="m64.1445273 169.16129c-.1849493.164399-.3744653.325374-.547998.50804l-.1906576.210065c-.2043577.228333-.4030069.468082-.5879563.722673l-.098183.123299c-.2294742.319665-.4429651.655315-.646181.996671v.001142l-.0262582.044525-.0011417.002283-.0821997.151841c-.0468082.083342-.0913331.168966-.1358579.253449-.1175912.213491-.2386074.421275-.3436404.637048l-.0057083.007992-.0034251.00685-.0057083.018267-.0410997.081057-.037675.081058c-.1643994.341357-.3139572.680431-.4543816 1.014939-.3972986.94073-.7044059 1.836935-.9350217 2.585866-.0799164.266007-.1552661.518314-.2157742.740938-.1335746.482924-.227191.860814-.2694325 1.045763l-.0022832.015984-.0296833.124441v-.002283.002283l.0114167-.144991c.0159832-.287699.0490914-.573115.0719247-.858531.0445248-.600514.0821997-1.203311.1484161-1.799259.0525165-.502332.1301496-.993247.2009327-1.492154.0228332-.155266.0468081-.311674.0696414-.465798.0308249-.229475.0627914-.458948.1004662-.687281.0331083-.213491.0799165-.423557.1198747-.632481l.0022833-.015983v-.001142l.0445248-.234041.0137-.063933c.0468081-.255732.0958996-.516032.1449911-.771764.0171249-.099325.0353915-.198649.0559415-.297973l.0353915-.176959.00685-.033108c.017125-.083341.0353916-.168966.0536581-.251166.0205499-.105032.0490915-.20664.0707831-.305965.084483-.375607.175816-.744364.263724-1.115404l.0148417-.06165c.0650748-.276282.1255829-.553707.196366-.825423l.0022833-.012558.0068499-.018266.0216916-.079917c.1449911-.559414.3059657-1.10627.4669401-1.657693l.084483-.303683c.0308249-.101608.0570832-.208924.0890497-.311674.2660074-.893922.5502814-1.776426.852822-2.639523l.0388164-.108459c.2591575-.732947.5217399-1.454478.7968805-2.165733l.030825-.081059c.1244412-.312815.2523074-.613072.3744653-.922463l.0205499-.045666c.1872327-.461232.372182-.924748.5639813-1.371137l.0011416-.004567v-.002284l.0034251-.005707.0216916-.055942c.0513747-.111883.1701077-.383599.3550571-.783181l.0034249-.006849.0251166-.053659v-.001141c.0719247-.157549.1404245-.310533.2100659-.470365.1130246-.254591.2271909-.505756.3390738-.755781l.101608-.219199c-.1598328-.086766-.3276572-.1644-.4920566-.2466l-.0936164-.046807-.1746743-.087908c-1.0674545-.511465-2.1908505-.921322-3.3553464-1.222721l-.1849494-.045667c-.7466473-.187232-1.5092779-.32994-2.2878918-.420132-.4509567-.051374-.9030551-.092474-1.3620035-.110741-.3813153-.015983-.7626306-.02055-1.1485125-.012558-.5799646.012558-1.1507959.06165-1.712494.123299-.1803826.021692-.3527737.053658-.5263065.076492-.2785656.042242-.5537063.0959-.8299886.146132-.1073164.022834-.2203409.036534-.3276572.060509-.1940826.041099-.385882.082199-.5776813.131291-.3767487.092474-.7443639.196366-1.109696.311674-.1701078.053658-.3390738.097041-.5046149.155266-.4943399.173533-.9806881.363049-1.4556198.574256-.189516.084483-.365332.181524-.5502814.269433-.2169159.106175-.4315485.220341-.6450394.32994l-.2203408.113025c-.2351826.13015-.4646567.269432-.6918476.407573-.2112075.129008-.4246984.266008-.6290561.406432-.2511657.165542-.4966232.333366-.7352306.509182-.1472745.113024-.2876991.228332-.4349736.342499-.3881652.307106-.7569222.637047-1.1199709.973838-.1872327.174674-.3676154.352773-.5468565.533156-.3173821.315099-.625631.635906-.9178966.972697l-.1472745.168966c-.1529828.182666-.2956907.375607-.4383985.566265l-.0228332.0274-.0182666.025116c-.0970413.127866-.2020743.251166-.2968323.382457l-.0376748.050233-.037675.051375-.0022833.004566-.0022832.003425c-.585673.823139-1.0994212 1.694228-1.5446696 2.604133-.0650748.129008-.1232996.260299-.1826661.39159-.2077825.444107-.3950152.898489-.5685478 1.362004-.0673582.183808-.1427079.361906-.2054994.547998l-.0022832.002283v.001142c.0353915.119874.0753496.232899.1118829.35049.1267245.41214.2557324.811723.3915903 1.199887l.0468081.133575.0513748.134716c.1427078.399582.2899823.782039.4418235 1.155362.4612316 1.142805.9475799 2.163451 1.4293615 3.067648.0730665.132433.1449912.271716.2157743.39844l.0513747.094758.0673582.113024c.3630487.64504.7181058 1.21473 1.0480462 1.713636.5251648.792314.9852548 1.395113 1.3129121 1.801544.0719247.087909.1335744.160974.189516.230616.0490914.058224.0936162.110742.1358577.156407.1244412.14385.2020744.226049.2020744.227191-.0479499-.203215-.0719248-.403006-.1141663-.608506-.2968323-1.457902-.4509568-2.89754-.4886316-4.307493l-.0011416-.083341-.0034251-.163257c-.0159833-.903056-.0022833-1.798119.0696415-2.668067h.0011416c.0924747.334508.1917993.657599.2922656.977264.1518412.481782.3082489.951005.4703651 1.401962l.0559414.162116.0228333.058224c.7112558 1.923702 1.5206945 3.540296 2.2787585 4.842933.9064802 1.560653 1.7364689 2.665782 2.2319504 3.273147.1004663.122158.1849493.224907.2568741.305966.1404245.163257.2180575.246598.2180575.246598-.358482-1.549235-.5400064-3.080205-.5970895-4.58035-.0205499-.505756-.0388165-1.011513-.0296833-1.505852.0091334-.633623.0422416-1.258113.0936164-1.873469v.002283-.002283c.2762824 1.052613.5936645 2.026451.9327383 2.944348l.0239749.070783c1.2181541 3.300547 2.7217237 5.727721 3.759495 7.166216l.1187329.158691c.1826661.244316.3402155.449815.4829233.634765.098183.123299.1917994.243174.2705741.332223.1004663.122159.175816.212349.2374658.279708.0764914.086766.1232996.141566.1232996.141566l-.0422416-.215774c-.0468081-.216916-.091333-.431549-.1335745-.646181-.1495578-.774048-.2477408-1.543528-.3208072-2.303875-.0490915-.50804-.0958997-1.016081-.1141662-1.516128-.0182666-.477215-.0159834-.94758-.0091334-1.416804.0022834-.084483.0057083-.168966.00685-.253449.0079917-.243174.0137-.486348.0262583-.727239l.0091332-.148416.0091334-.107316c.0376748-.61764.0913329-1.229571.1678243-1.828944v.002284-.002284c.1175913.398441.2420325.786606.3698988 1.15993.0958996.285415.1963659.55599.2968323.828846l.0216915.055942.0331082.094758.0605081.166683c.1232996.326516.2500241.639331.379032.949863.2454575.578823.490915 1.125679.7432224 1.638286.3048238.631339.6153561 1.213587.9156133 1.746743.1746745.300258.3413572.58339.5068983.853965.2089242.340215.4121401.657597.6062228.945296.1780994.264865.3436405.497765.5011899.716964.0399582.053658.081058.109599.1187329.162116.1472745.199792.287699.388165.4121402.545715.0936164.119875.1803827.227191.2591575.32309.2043575.248883.3493486.41214.4144234.482924l.0376749.039958.1301496.08905c.0125583-.1096.0285416-.216917.0422415-.327658.1153079-.960138.2488824-1.928268.3915903-2.890689.0159833-.11645.0342499-.231758.0513747-.345924.1666828-1.084579.3424988-2.162309.5251649-3.202363.0239749-.135859.0456665-.26715.070783-.400724l.0137-.0685c.0216916-.119875.0422415-.242032.0639331-.361908.0308249-.17924.0627915-.358481.0958996-.535439.1495578-.82428.3036823-1.621161.4532401-2.376942.1358578-.682713.2671491-1.328895.3938736-1.937401l.0399582-.196366c.0182666-.0959.0388165-.182666.0582247-.273999.0194084-.08905.037675-.181524.0559416-.273999l.0068499-.031967c.0331083-.151841.0673581-.308249.0981831-.452098l.0091332-.039958c.0285416-.142708.0559415-.263724.084483-.397299.0468082-.208924.0913331-.423557.1347162-.618781l.0125583-.054799c.0353915-.158692.0684998-.319666.101608-.464657.0479498-.208924.0924747-.400724.1301495-.582248l.0022834-.005709.0022833-.004566c.0228332-.103891.0445249-.194083.0662164-.289983l.0045667-.017125c.0205498-.086765.0388164-.178099.0582248-.254591.0445248-.191798.084483-.365331.1164495-.498905l.0285416-.118734.0114166-.043383.0331083-.140424.0228332-.097042.0045666-.0137-.0159832.012559z" fill="#efcfa5"/><path d="m202.502618 216.921603c1.612028-.557132 3.016272-1.008089 4.105419-1.48302 2.182859-.929313 3.355346-1.556086 3.28228-1.787844-.074209-.236324-1.391686-.058224-3.710403.465798-1.161071.271716-2.5676.508041-4.185335.871089-.803732.192941-1.691945.303682-2.612125.481782-.92703.160974-1.90201.36419-2.931789.474931-2.031019.2877-4.354301.550282-6.821435.836839-1.21587.099325-2.470557.203217-3.760636.307107-1.302637.065076-2.640666.131292-4.014086.19865-5.487971.160974-11.545634-.087909-17.70947-1.221579-3.250313-.571973-7.59434-2.048143-10.719071-3.822287l-.115307-.066216c1.843785-6.520035 8.640102-7.45049 8.640102-7.45049l-.196366-.057083c-.113024-.0137-.227191-.025116-.342499-.038817-.988679-.122158-1.857484-.24089-2.60299-.341357-.532015-.070783-.998955-.134716-1.392829-.183807-.379031-.046809-.649605-.07535-.807155-.085625-4.094002-.280849-6.337368 3.18638-7.112558 4.688808-.110741.216916-.212349.43954-.315098.666731-.591382 1.347162-.984114 2.900965-1.089147 4.542676-.202074 3.064222.586815 6.428702 2.935215 9.293133 1.565219 1.931693 4.290368 3.635054 7.823814 4.982216-3.081347-1.94996-5.78823-5.655797-5.986879-11.577601 3.490062 1.500145 7.556665 2.418042 10.611753 2.961473 6.542869 1.205596 12.857405 1.349445 18.532609 1.001238 1.417946-.118733 2.798215-.222624 4.138528-.35734 1.341453-.174675 2.644091-.342499 3.906769-.505757 2.455717-.414423 4.721916-.815147 6.849976-1.284371 1.060605-.198649 2.044717-.489773 2.976314-.743222.931596-.270574 1.815244-.47379 2.622399-.766055" fill="#efcfa5"/><path d="m197.075154 140.610591c3.418138.079917 5.739138 1.164496 7.287232 2.743415.376749-1.521836.561698-3.346213.440682-5.32243-.131291-2.162309-.58339-4.112269-1.230712-5.640955-.229475-.868806-1.586911-3.358772-3.292555-3.221772-2.201125.133574-3.740086 4.308634-3.443254 9.328525.042242.732947.126725 1.436211.238607 2.113217" fill="#59473d"/><path d="m202.848542 153.555903c.003425.949863.307108 1.749028.85168 2.027593.81743.408715 1.836935-.484065 2.290175-1.988776.042242-.131291.066216-.262583.097042-.391591v-.003424c.289982-1.366571-.005708-2.688616-.742081-3.058515-.809439-.410998-1.836935.479499-2.290175 1.980785-.147275.489773-.208925.977263-.206641 1.433928" fill="#59473d"/><path d="m187.327639 155.978511c.361907.59024.908763 1.159929 1.60632 1.605178 1.476169.936163 3.115596 1.014938 3.946726.261441.123301-.1096.229475-.238608.312816-.385883.39844-.692989.242033-1.625727-.317382-2.492248l-.002283-.002284c-.363049-.560557-.893922-1.095997-1.560653-1.519553-1.457904-.925888-3.066506-1.011513-3.909053-.293407-.138141.118733-.262583.251165-.353915.41214-.381315.671297-.239749 1.567503.277424 2.413474z" fill="#59473d"/><path d="m243.992921 176.872078v-.030825l-.095901.139283c.013701-.012558.028542-.022833.042242-.035391z" fill="#59473d"/><path d="m242.219918 208.552074-.077632.074208c-2.078968 1.984209-4.516418 3.904487-7.191334 5.73343-11.751132 8.027029-28.189933 14.245666-39.838316 15.806318l-.044524.006851-.044525.006849c-8.756553 1.391687-17.335006 1.636003-24.808329.706689-4.294934-.534297-8.159462-1.464752-11.364109-2.687473-3.531163-1.347162-6.256312-3.049381-7.823814-4.981074-2.3484-2.864432-3.137289-6.228911-2.934073-9.293134.106174-1.641711.498906-3.196655 1.090287-4.542676.100467-.22719.204358-.450956.313958-.66673.77633-1.502428 3.017414-4.969657 7.113699-4.68995.155267.012558.428124.038817.804872.086766.393874.04795.861956.111883 1.395112.183808.743223.100466 1.614311.218058 2.602991.340215.115308.014842.227191.026258.340215.038817 11.276202 1.372278 22.121996 1.226146 32.43121-.353916 14.959205-2.292458 28.777889-7.626306 41.050762-15.936467.648464-.438399 1.293504-.885931 1.932835-1.341454l6.727817-10.062615c-20.418635 18.394468-42.901397 23.767132-59.988661 24.808329-9.397024.574256-17.167181-.158691-22.044363-.764914-.173532-.021692-.323091-.041099-.489773-.062792-1.463611-.186091-2.656649-.355057-3.50833-.462373-.42584-.053658-.76948-.090191-1.027496-.107316-1.279803-.086767-2.497957.071924-3.635054.428123-2.325566.72724-4.312059 2.297026-5.804212 4.378276-1.843785 2.565316-2.929506 5.901255-2.980881 9.390175-.035392 2.871282.632481 5.838463 2.173726 8.559045.060508.1096.118732.221482.183807.332224.178099.297974.369899.591381.56969.880222.270573.395015.554848.785463.867663 1.165637 3.579113 4.412526 11.278485 7.695948 21.551166 8.973468 6.950441.864238 15.084788.794597 23.907555-.449815 26.000225-4.699083 38.359864-13.100579 44.068177-19.001832.416708-.430407.800305-.849397 1.149655-1.251263 2.045859-2.359816 2.967181-4.17506 3.302829-4.959382l.046809-.107316c.085625-.203216.119874-.310532.121016-.315099z" fill="#59473d"/><path d="m159.477921 118.385845c-.819714-.44639-1.714777-.764913-2.617833-.98868-.597088-.147274-1.197603-.252307-1.790126-.326516-.222624-.027399-.444107-.047949-.666731-.066216-3.043672-.266007-5.675205.248883-5.675205.248883-.563981.129007-1.105129.27514-1.628011.434974-4.13396 1.253545-7.012091 3.406721-9.023701 5.890978-1.628011 2.009327-2.686332 4.23671-3.362196 6.385319-.060509.189516-.114167.377891-.167825.565123-.157549.558273-.29569 1.105129-.41214 1.642853-.381315 1.807251-.52859 3.474079-.570832 4.792699-.051374 1.803828.08905 2.966039.08905 2.966039.718106-1.575493 1.471604-3.020838 2.247934-4.373708 1.925985-3.354205 4.014086-6.056521 6.123878-8.227963 4.111127-4.228718 8.298746-6.460668 11.544492-7.633156 3.506046-1.267246 5.909246-1.310629 5.909246-1.310629" fill="#e1b27e"/><path d="m208.861679 112.498291-.138141-.182666c-.465798-.586815-1.020647-1.130246-1.686236-1.584627-1.569786-1.080014-3.736662-1.642853-6.740376-1.027497 0 0-3.565412.842547-5.650089 3.174964 0 0 6.21407-2.654366 12.79233 2.021884.599373.425841 1.20103.919039 1.801544 1.475029.613073.567405 1.223862 1.197603 1.83351 1.913426 0 0-.261441-2.865573-1.894019-5.334989-.098183-.155266-.20664-.307108-.318523-.455524" fill="#e1b27e"/><path d="m160.229135 157.999254c2.381509-.736373 4.961666-1.415662 7.72449-2.041292.48064-2.150893.599372-4.814392.259156-7.658274-.786605-6.669592-3.796027-11.778532-6.716401-11.417767-2.923797.360765-4.64885 6.059945-3.85996 12.726113.397298 3.357629 1.359719 6.323669 2.592715 8.39122" fill="#59473d"/><path d="m146.674175 8.74970218-6.127303 1.38483672 1.285513 11.2385267-16.333768-8.3135871-6.72325 2.0047596.105032.1187329 19.840955 22.6140527.189515-.1198745.255733-.1598328c.617639-.3938736 1.236421-.7866055 1.859769-1.1736291.218057-.1358578.434973-.2762824.65303-.4109986.899631-.551423 1.800402-1.0937127 2.704599-1.6325775l-8.427754-9.653899 13.63716 6.6673097.051375-.0285416c.410999-.2249076.818572-.4509568 1.228429-.6735809l-1.25697-9.7372404 6.187811 7.1570829.07535-.0365332c.524023-.2637241 1.036629-.5137482 1.551519-.768339l.160975-.077633.250024-.1255829c.087908-.0422415.178099-.0867664.264865-.1312912.2192-.1061746.444107-.2203409.659882-.3253738.044524-.0228333.086765-.0410999.13129-.0627915.734089-.3539154 1.454478-.6918475 2.174867-1.0297796z" fill="#face56"/><path d="m140.586831 10.4907377-.039959-.3561988.039959.3573404z" fill="#4d94c3"/><path d="m140.546872 10.1345389.905338-.20321593c-1.500144-.69641419-3.282279-1.19303741-5.345263-1.4499115-4.131678-.52059815-9.377617-.04224151-15.354221 1.50242799-5.976604 1.53439454-12.678163 4.11455204-19.785013 7.65370604-14.2148412 7.0737415-30.0394265 17.9754777-45.2669223 31.8672282-5.3132977 4.8452161-10.2681134 9.7954652-14.8233472 14.7605558l18.4960758 22.6551527c4.9947739-5.511947 10.4439295-10.9930692 16.316642-16.3497502 7.8523553-7.1593661 15.8588351-13.5469683 23.7751236-19.0977319 7.6708311-5.3738059 15.2469041-9.9358896 22.5409861-13.6268848l-3.212638-14.4660069.086766-8.1971374-.105032-.1187329 6.72325-2.0047596 13.131403 6.7186844-.373324-4.574642z" fill="#4d94c3"/><path d="m140.546872 10.1345389-2.290176 5.068982.373324 4.574642 3.202365 1.5949027z" fill="#141c26"/><path d="m135.956246 24.6462122 13.63716 6.6673097-5.209406 2.9865893z" fill="#141c26"/><path d="m149.61624 20.874159 1.25697 9.7372404 4.930841-2.5801575z" fill="#141c26"/><path d="m201.211398 17.2744968c.840264-.0331082 1.663402-.0422415 2.472841-.0251165 2.294742.0468081 4.4502.3173821 6.492635.8277053.1096.0285416.223766.0445249.332224.0742081l.025117.00685.079916.0171249.200933.0582248.184949.0559415c-.240891-.1598328-.486348-.3105322-.735231-.4578067-2.292458-.8779386-4.718492-1.4510532-7.214166-1.7718604-12.377905-1.5926193-26.469448 2.9135229-34.528444 6.1136033-.441823.1849493-.887072.368757-1.338028.5605563-.677006.2888407-1.359721.5833895-2.051568.8882135-1.161071.5114648-2.335842 1.0469046-3.538012 1.6063192-.174675.0799165-.348208.1632578-.521741.2454576-.720389.3379321-1.440778.6758642-2.174867 1.0297796-.044525.0216916-.086766.0399582-.13129.0627915-.215775.1050329-.440682.2191992-.659882.3253738-.086766.0445248-.176957.0890497-.264865.1312912l-.250024.1255829-.160975.077633c-.51489.2545908-1.027496.5046149-1.551519.768339l-.07535.0365332c-.015984.0091332-.031967.0171249-.046809.0251165-.130148.0616498-.252307.122158-.380173.186091l-.066216.0319666c-.0959.0490915-.189517.0993246-.283133.1484162-.802588.4064318-1.601753.8265637-2.397491 1.2478372-.557131.2945489-1.11198.5913812-1.667969.8916384l-.08905.0490916c-.409857.2226241-.81743.4486733-1.228429.6735809l-.051375.0285416c-1.333461.737514-2.657791 1.4898696-3.979835 2.2627752-.138141.0799164-.276282.1564078-.415566.2386075-.117591.0696414-.236324.1381412-.351632.2066409-.109599.0639331-.216915.1312912-.32309.1952243l-.139283.0833414c-.904197.5388648-1.804968 1.0811545-2.704599 1.6325775-.218057.1347162-.434973.2751408-.65303.4109986-.623348.3870236-1.24213.7797555-1.859769 1.1736291l-.255733.1598328-.189515.1198745c-1.719345 1.1017045-3.424988 2.2330921-5.122641 3.387313-2.800498 1.9065766-5.570171 3.8736612-8.301029 5.908104-.355057.263724-.706689.5320148-1.061746.7991638-7.159365 5.3897891-14.074416 11.1734519-20.699484 17.1797389-6.994967 6.344219-13.6599933 12.9373205-19.9562626 19.5612469-3.4101461 3.4169962-6.3396524 6.4789353-8.7302939 9.0533845-4.7961245 5.1648816-7.4116736 8.3581112-7.3043573 8.4300362.0433833.046809.4657984-.344781 1.214729-1.093712-.6199227.719247-1.2398455 1.437353-1.8483517 2.153175 10.4553461-11.1471934 22.0512132-22.5626777 34.5021855-33.3171394 7.563515-6.5268851 15.434137-12.810596 23.565058-18.6399253v.0011416c3.560846-2.5561825 7.173066-5.0221737 10.829812-7.383132 1.16792-.7569222 2.346116-1.5035696 3.525453-2.2388003.587957-.3653321 1.181621-.7203891 1.771861-1.0811545.332223-.2043577.666731-.4109986 1.003521-.6130729.631339-.3813153 1.264962-.7557806 1.897444-1.1313876.621064-.365332 1.239845-.730664 1.862051-1.0914294.326516-.1860911.65189-.375607.977263-.5605564.788889-.4520984 1.583486-.8939218 2.379225-1.3346036.472648-.2625824.949863-.527448 1.424795-.7854638l.004566-.0022833c1.500145-.8174305 3.008282-1.6063193 4.519843-2.3815083.124441-.0650747.251166-.1278661.379032-.1917993.236324-.1210161.472648-.2408908.708973-.3607654.313956-.158691.624489-.3219488.939587-.4783565.119876-.0582248.235184-.1210163.353916-.1803828l.050234-.0228332c.214631-.1061746.424698-.2066409.635906-.3093906.044524-.0216915.089049-.0422415.133574-.063933l.074208-.0388166c.662164-.3230905 1.319762-.6416144 1.968227-.9544299.118732-.0547998.238607-.1175913.359623-.1735327.211207-.1027496.418991-.196366.63134-.2968323.758063-.3573404 1.513844-.7135391 2.258208-1.0571796.205499-.0924747.414424-.1952243.617639-.2865574.107317-.0490914.21235-.0958996.319666-.1438494.211208-.094758.423557-.189516.635906-.2854157.875656-.3961569 1.746744-.7866054 2.600708-1.1576458.780896-.3402154 1.538961-.6518894 2.301591-.9726966 4.306351-1.8106768 8.354687-3.332513 12.116466-4.5426754 7.23129-2.3187168 13.473902-3.5893872 18.951599-3.8245698" fill="#fff"/></svg>