<svg height="163" preserveAspectRatio="xMidYMid" viewBox="0 0 256 163" width="256" xmlns="http://www.w3.org/2000/svg" xmlns:xlink="http://www.w3.org/1999/xlink"><linearGradient id="a" x1="50.955803%" x2="-9.063189%" y1="28.857096%" y2="91.34806%"><stop offset="0" stop-color="#eee"/><stop offset="1" stop-color="#5c6a7c" stop-opacity=".2"/></linearGradient><path d="m0 162.9v-162.9h42.7l42.7 43.4 42.6-43.4h42.7s85.3 0 85.3 81.5-85.3 81.5-85.3 81.5h-42.7v-108.7l-42.7 43.4-42.6-43.4v108.6zm170.7-119.5v76s41.8 0 42.7-38c.8-38-42.7-38-42.7-38z" fill="#eee"/><path d="m252.7 56c2.1 7.4 3.3 15.9 3.3 25.4 0 81.5-85.3 81.5-85.3 81.5v-141.2s51.3 9.1 82 34.3zm-82-12.6v76s41.8 0 42.7-38c.8-38-42.7-38-42.7-38z" fill="url(#a)"/><path d="m42.7 162.9v-43.4h85.3v43.4z" fill="#abb3bc"/></svg>