<svg height="423" preserveAspectRatio="xMidYMid" viewBox="0 0 256 423" width="256" xmlns="http://www.w3.org/2000/svg"><path d="m256 71.6255001c0-14.3582609-7.234783-27.3808696-19.478261-34.9495652l-50.086956-31.05391306c-.111305-.11130435-.222609-.11130435-.333913-.2226087-11.353044-6.78956522-25.154783-7.23478261-36.84174-1.00173913l-105.8504343 55.76347829c-26.7130435 14.1356521-43.4086957 41.6278257-43.4086957 71.9026087v276.702609c0 8.570434 9.34956522 14.135652 23.9304348 14.135652 2.7826087 0 5.5652174-.222609 8.4591304-.556522 15.36-2.114783 30.8313044-9.906087 30.8313044-20.702609v-251.436521l33.1686956 20.591304v209.252174c0 8.570435 9.4608698 14.135652 23.9304348 14.135652 2.782609 0 5.565217-.222609 8.45913-.556522 15.36-2.114782 30.831305-9.906087 30.831305-20.702608v-293.2869569l-107.8539133 56.8765219v252.660869c-3.5617391-1.113043-7.68-1.780869-12.4660869-1.780869-2.7826087 0-5.5652174.222609-8.4591305.556522-6.9008695 1.001739-13.8017391 3.116521-19.3669565 6.121739v-262.121739c0-25.933913 14.2469565-49.6417395 37.2869565-61.7739134l105.7391307-55.7634783c8.125217-4.3408696 17.697391-4.0069565 25.6.7791304 7.902608 4.786087 12.577391 13.1339131 12.577391 22.372174v313.6556523c0 8.570435 9.349565 14.135652 23.930435 14.135652 2.782609 0 5.565217-.222609 8.45913-.556522 15.36-2.114782 30.831305-9.906087 30.831305-20.702608v-.111305-272.3617389zm-107.853913 78.1356519v210.587826c-3.561739-1.113043-7.68-1.780869-12.466087-1.780869-2.782609 0-5.565217.222608-8.45913.556522-6.90087 1.001739-13.80174 3.116521-19.366957 6.121739v-194.226087zm-20.925217 232.403479c-2.337392.333913-4.674783.445217-6.90087.445217-7.791304 0-11.686957-2.003478-12.466087-2.893913.77913-2.114783 8.236522-7.457391 20.925217-9.238261 2.337392-.333913 4.674783-.445217 6.90087-.445217 7.791304 0 11.686957 2.003478 12.466087 2.893913-.77913 2.226087-8.236522 7.568695-20.925217 9.238261zm20.925217-245.314783-45.857391 24.153043-33.3913047-20.702608 79.2486957-41.7391307zm-115.7565218 262.455652c2.3373913-.333913 4.6747826-.445217 6.9008696-.445217 7.7913043 0 11.6869565 2.003478 12.4660869 2.893913-.7791304 2.114782-8.2365217 7.457391-20.9252174 9.238261-2.3373913.333913-4.6747826.445217-6.9008695.445217-7.7913044 0-11.6869565-2.003478-12.466087-2.893913.7791305-2.114783 8.2365218-7.457391 20.9252174-9.238261zm212.1460868-327.6799999v260.0069569c-3.561739-1.113044-7.68-1.78087-12.466087-1.78087-2.782608 0-5.565217.222609-8.45913.556522-6.90087 1.001739-13.801739 3.116522-19.366957 6.121739v-299.0747827c0-2.7826087-.333913-5.3426087-.890435-8.013913l27.158261 16.8069565c8.793044 5.5652174 14.024348 15.0260869 14.024348 25.3773913zm-20.925217 281.8226089c-2.337392.333913-4.674783.445217-6.90087.445217-7.791304 0-11.686956-2.003478-12.466087-2.893913.779131-2.114782 8.236522-7.457391 20.925218-9.238261 2.337391-.333913 4.674782-.445217 6.900869-.445217 7.791305 0 11.686957 2.003478 12.466087 2.893913-.77913 2.114783-8.236522 7.457391-20.925217 9.238261zm-170.0730437-261.4539133c-12.3547826 5.12-17.8086956 20.1460873-18.0313043 20.7026083-.7791305 2.114783.333913 4.563479 2.56 5.342609.4452173.111304.8904347.222609 1.4469565.222609 1.6695652 0 3.3391304-1.113044 3.8956522-2.782609 0-.111304 4.4521739-12.132174 13.467826-15.9165216 4.1182609-1.6695652 8.5704348-1.3356522 13.6904348 1.0017396 2.1147826 1.001739 4.5634783.111304 5.5652174-2.0034787 1.0017391-2.1147826.1113044-4.5634783-2.0034782-5.5652174-7.346087-3.2278261-14.2469566-3.5617392-20.5913044-1.0017392zm113.0852177-47.5269565c-7.234783-3.4504348-14.135652-3.7843478-20.48-1.1130435-12.354783 5.12-17.808696 20.146087-18.031305 20.7026087-.77913 2.1147827.333913 4.5634783 2.56 5.3426087.445218.1113044.890435.2226087 1.446957.2226087 1.669565 0 3.33913-1.1130434 3.895652-2.7826087 0-.1113043 4.452174-12.1321739 13.467826-15.9165217 4.118261-1.6695652 8.570435-1.3356522 13.690435 1.0017391 2.114783 1.0017392 4.563478.1113044 5.565217-2.0034782.779131-2.0034783-.111304-4.4521739-2.114782-5.4539131z" fill="#f22e2e"/></svg>