<svg height="316" preserveAspectRatio="xMidYMid" viewBox="0 0 256 316" width="256" xmlns="http://www.w3.org/2000/svg" xmlns:xlink="http://www.w3.org/1999/xlink"><linearGradient id="a" x1="0%" x2="100%" y1="46.152%" y2="46.152%"><stop offset="0" stop-color="#3933ff"/><stop offset="1" stop-color="#944dff"/></linearGradient><path d="m152.025864 195.8945c.74409-.370953 1.518731-.543338 2.275914-.543338 2.760338 0 5.287192 2.269368 5.287192 5.287192l-.008729 97.921065-28.757698 15.87685c-1.730393 1.154323-4.104502 1.154323-6.026918 0l-28.7795199-15.896489-.1396535-.074191v-97.698492c0-3.97576 4.1001378-6.474247 7.5631064-4.741671l21.665923 10.766407c1.472906.768094 3.2033.768094 4.741671 0zm-101.925192-85.518093c0-5.066801 4.1197766-8.647603 8.5821405-8.647603 1.437994 0 2.9109014.370954 4.2921612 1.184872l60.0073373 33.735034c2.574861 1.549281 5.913451 1.549281 8.490494 0l60.528856-33.211334c5.91345-3.360411 12.874301.76373 12.874301 7.462731l.50188 163.089034-25.726783 13.812599v-127.739257c0-3.646264-2.378471-6.65536-5.455212-8.008252-.892473-.392776-1.920235-.589164-3.011277-.589164-.305492 0-.632804 0-.960117.065463-.632806 0-1.331072.130925-1.98788.458238-.325131.065463-.630623.26185-.957936.392776l-36.091685 17.740351c-1.200148.720087-2.618502 1.023397-3.971395.894654-1.221968 0-2.356652-.240029-3.447695-.894654-.065462 0-.196387 0-.26185-.065463l-35.3279564-17.500322c-.5673421-.240029-1.156505-.501879-1.6583845-.632805-3.4695152-.76373-7.0481346.698268-9.033832 3.404053-.1309251.130925-.1963877.240029-.2618502.370955-.2618502.392774-.4582378.717906-.6328047 1.156504-.2618501.523701-.3927753 1.02558-.5237004 1.680206-.1309251.569524-.1963877 1.134684-.1963877 1.78931v127.435947l-25.6176781-13.836601-.152746-.087284zm197.04446-110.376407h.288035c4.512552.07200881 8.569048 3.62662531 8.569048 8.62578209v233.81040991c0 2.727606-1.505639 5.237004-3.905933 6.546256l-21.602641 11.543229-.130926.065462v-200.1626585c0-6.6990011-6.93903-10.8231418-12.612451-7.4845516l-86.017792 48.4204671c-2.57486 1.28743-5.91345 1.28743-8.510131 0l-85.2322408-48.4204671c-5.6756031-3.3385902-12.6124515 1.0474007-12.6124515 7.4845516v200.0317335l-21.47171651-11.477766c-2.40029353-1.309252-3.90593219-3.81865-3.90593219-6.546256v-233.81040991c0-4.9969747 4.05867814-8.55377328 8.57122996-8.62578209h.28803522c1.42490152.02400294 2.88908062.39713947 4.27688662 1.18487217l110.5007852 66.46630973c2.574861 1.5492803 6.15348 1.5492803 8.72834 0l110.500786-66.46630973c1.387805-.7877327 2.851985-1.16086923 4.279069-1.18487217z" fill="url(#a)"/><path d="m174.335064 152.336156c3.07674 1.346347 5.448666 4.359805 5.448666 8.012616v127.684705l-20.062089 10.766408v-97.877424c0-3.844833-4.10232-6.474247-7.565289-4.743853l-22.17653 10.897333c-1.53837.768094-3.268764.768094-4.743853 0l-21.665922-10.76859c-3.460787-1.730394-7.5631067.770277-7.5631067 4.743853v97.748681l-19.9988092-10.766408v-127.427219c0-.641533.0654626-1.219786.1920235-1.795856.128743-.641533.2574861-1.154322.51279-1.667113.1942055-.447328.3840469-.768094.641533-1.154323.0632804-.12656.128743-.255303.257486-.384046 1.9856974-2.690511 5.5752272-4.165601 9.0360141-3.397507.5127899.128743 1.0910424.386229 1.6671129.641533l35.3192274 17.498139c.063282.065463.192025.065463.255305.065463 1.091042.641534 2.243183.896837 3.460787.896837 1.346346.128743 2.755973-.192023 3.975758-.896837l36.087323-17.755625c.320766-.128743.641532-.320767.962299-.384048.639351-.320766 1.344164-.449509 1.985697-.449509.320767-.06328.641533-.06328.9623-.06328 1.08886 0 2.11444.192023 3.011277.57607zm43.547871-99.0985185c5.664692-3.3495006 12.618998.772458 12.618998 7.4670949v200.1081066l-24.982692 13.393638-.51279-163.023572c0-6.696819-6.954305-10.814413-12.878665-7.467095l-60.522311 33.222244c-2.57486 1.544917-5.922178 1.544917-8.497039 0l-60.0073378-33.739398c-5.6668748-3.3473183-12.8764837.772458-12.8764837 7.469277v163.538544l-24.7252053-13.393638v-200.1081066c0-6.4371508 6.9543049-10.8165955 12.6189976-7.4670949l85.2475152 48.4161025c2.574861 1.28743 5.922179 1.28743 8.499221 0z" fill="#fff"/></svg>