<svg height="256" preserveAspectRatio="xMidYMid" viewBox="0 0 256 256" width="256" xmlns="http://www.w3.org/2000/svg"><path d="m130.033 188.733 90.104 30.957-2.403-91.112 1.804-87.804-90.2 28.261-92.927-28.863 1.805 87.504-2.108 91.711z" fill="#e7ecd3"/><path d="m119.098 45.637-70.209-22.073c-.38-.12-.807-.049-1.131.194-.325.243-.511.627-.5 1.032l.377 17.533-10.956-3.571c-.391-.127-.807-.057-1.138.186-.324.244-.515.627-.504 1.036l1.888 87.318c.015.683.575 1.226 1.255 1.226h.028c.695-.014 1.244-.589 1.227-1.283l-1.85-85.545 10.108 3.294 1.686 78.202c.014.684.574 1.227 1.254 1.227h.029c.694-.014 1.243-.589 1.226-1.283l-1.666-77.321 61.888 20.168c.638.208 1.368-.145 1.583-.807.214-.659-.145-1.368-.807-1.582l-62.722-20.441-.359-16.662 68.539 21.548c.687.215 1.371-.162 1.575-.821.208-.662-.158-1.367-.821-1.575zm101.705-6.699c-.328-.239-.751-.31-1.138-.186l-10.956 3.571.378-17.533c.01-.405-.177-.789-.501-1.032-.321-.243-.743-.314-1.131-.194l-70.209 22.073c-.663.208-1.029.913-.821 1.575.208.659.902 1.033 1.575.821l68.538-21.548-.359 16.662-62.721 20.441c-.662.214-1.022.923-.807 1.582.215.662.938 1.018 1.583.807l61.888-20.168-1.666 77.321c-.018.694.532 1.269 1.226 1.283h.028c.681 0 1.241-.543 1.255-1.227l1.686-78.202 10.108-3.294-1.85 85.545c-.017.694.532 1.269 1.227 1.283h.028c.68 0 1.241-.543 1.255-1.226l1.888-87.318c.01-.409-.18-.792-.504-1.036zm-102.459 172.616-68.539 21.548.359-16.658 62.722-20.441c.662-.215 1.021-.923.807-1.582-.215-.663-.941-1.018-1.583-.807l-61.888 20.168 1.666-77.321c.017-.694-.532-1.269-1.226-1.283h-.029c-.68 0-1.24.543-1.254 1.227l-1.686 78.201-10.108 3.294 1.85-85.545c.017-.694-.532-1.268-1.227-1.282l-.028-.004c-.68 0-1.24.547-1.255 1.23l-1.888 87.317c-.011.409.18.793.504 1.036.222.162.482.25.751.25.13 0 .26-.021.387-.063l10.956-3.571-.377 17.529c-.011.405.175.789.5 1.033.218.165.486.253.754.253.127 0 .254-.021.377-.06l70.209-22.073c.663-.208 1.029-.913.821-1.575-.208-.659-.891-1.029-1.575-.821zm101.075-79.255c-.014-.683-.575-1.23-1.255-1.23l-.028.004c-.695.014-1.244.588-1.227 1.282l1.85 85.545-10.108-3.294-1.686-78.201c-.014-.684-.574-1.227-1.255-1.227h-.028c-.694.014-1.244.589-1.226 1.283l1.666 77.321-61.888-20.168c-.649-.215-1.368.144-1.583.807-.215.659.145 1.367.807 1.582l62.721 20.441.359 16.658-68.538-21.548c-.67-.205-1.367.162-1.575.821-.208.662.158 1.367.821 1.575l70.209 22.073c.123.039.25.06.377.06.268 0 .536-.088.754-.253.324-.244.511-.628.501-1.033l-.378-17.529 10.956 3.571c.127.042.257.063.387.063.269 0 .529-.088.751-.25.324-.243.514-.627.504-1.036z" fill="#6ea1a5"/><path d="m99.824 156.208c-33.407-9.289-66.538-18.5-99.683-27.718-.042-.296-.099-.599-.141-.902 33.195-9.423 66.502-18.444 99.816-27.824 9.261-33.357 18.487-66.562 27.712-99.754.317-.01.648-.01.972-.01 9.219 33.184 18.444 66.375 27.726 99.792 33.265 9.235 66.488 18.472 99.711 27.708.014.313.042.627.063.951-33.159 9.225-66.325 18.451-99.788 27.757-9.226 33.202-18.465 66.432-27.698 99.662-.317.031-.627.081-.951.12-9.218-33.153-18.437-66.305-27.739-99.782" fill="#d5645c"/><path d="m65.0100021 193.219c.082.078 39.4479999-20.331 39.4479999-20.331l-1.900419-19.215595-18.0145809-1.712405s-18.444 38.965-19.533 41.259zm86.3209999-111.044 2.545002 20.301128 17.981998 1.656872 20.261-43.237z" fill="#5d7d6d"/><path d="m151.338003 82.175c-14.384 7.574-28.768 15.144-43.153 22.695-1.216.644-2.02 1.444-2.622 2.706-6.9919999 14.791-13.9999999 29.587-21.0129999 44.384 5.087 1.414 10.18 2.83 15.28 4.248 1.5469999 5.568 3.0919999 11.129 4.6349999 16.68 14.994-7.895 29.987-15.787 44.98-23.674.994-.526 1.642-1.195 2.122-2.21 6.761-14.294 13.53-28.584 20.298-42.871-5.21-1.447-10.421-2.894-15.633-4.341-1.633-5.878-3.264-11.752-4.894-17.617" fill="#563530"/><path d="m128.244227 113.855c-3.71 0-7.199 1.449-9.821 4.088-2.6 2.622-4.024 6.107-4.003 9.796.018 3.689 1.473 7.154 4.095 9.751 2.608 2.586 6.054 4.017 9.729 4.017 3.711 0 7.199-1.452 9.821-4.098 2.601-2.622 4.021-6.097 4.003-9.789-.007-3.686-1.462-7.157-4.088-9.762-2.607-2.582-6.068-4.003-9.736-4.003" fill="#e7ecd3"/></svg>