<svg height="170" preserveAspectRatio="xMidYMid" viewBox="0 0 256 170" width="256" xmlns="http://www.w3.org/2000/svg"><path d="m250.391638.00446862c-3.949963.12621373-2.700775 1.26434026-11.235822 3.36474694-8.618833 2.1210301-19.146891 1.47064568-28.428048 5.36307399-27.705902 11.61933745-33.26472 51.33258415-58.452019 65.55864725-18.826879 10.6343587-37.821462 11.4825348-54.8987042 16.833826-11.2227876 3.5192024-23.4994882 10.7363532-33.6676522 19.4988112-7.8926215 6.803887-8.0986995 12.786261-16.3452454 21.319886-8.8207471 9.127753-35.0573533.154242-46.94816398 14.124424 3.83047273 3.873112 5.50978324 4.957954 13.05842968 3.953062-1.562847 2.96217-10.77551057 5.458473-8.97211833 9.81603 1.89755507 4.585084 24.16991333 7.693267 44.41642763-4.530475 9.4290746-5.692765 16.9393737-13.898064 31.6244964-15.856665 19.0031243-2.532802 40.8943974 1.62459 62.8936614 4.796974-3.261943 9.726132-9.811041 16.19423-15.057169 23.940455-1.624575 1.749652 3.262994 1.94578 8.838869.888329 10.030296-2.480214 17.258817-4.477176 24.828784-8.883286 9.299734-5.41383 10.708992-19.293771 22.11938-22.297047 6.35759 9.771614 23.64877 12.079861 34.378316 4.263978-9.414862-2.664987-12.016925-22.704968-8.83887-31.535665 3.010368-8.358816 5.98489-21.7299371 9.016535-32.7793231 3.254836-11.8666481 4.455614-26.8234715 8.394704-32.8681564 5.926432-9.0943382 12.474906-12.2173603 18.160166-17.3455744 5.685246-5.1282142 10.889074-10.1201231 10.718302-21.85453112-.055006-3.77958926-2.009243-5.88640611-5.604259-5.77152036z" fill="#002b64"/><path d="m8.59429122 159.000881c14.41792778 2.065186 23.18608588 0 34.76420488-5.021543 9.8512083-4.272505 19.3655625-13.080461 30.9991132-16.814283 17.085756-5.482053 35.8216717.007107 54.0857067 1.101528 4.447328.267209 8.866229.270052 13.228278-.204672 6.803885-4.18154 6.663175-19.823229 13.285131-21.255925-.194722 21.945268-9.191713 35.093952-18.600889 47.826187 19.830335-3.502146 31.696983-14.972244 39.711839-30.291292 2.431889-4.644892 4.508445-9.642273 6.344798-14.879858 2.838387 2.178892 1.229447 8.807955 2.656458 12.399645 13.65894-7.608356 21.480495-24.972693 26.659805-42.5345928 5.99231-20.3249573 8.445518-40.9057532 12.310103-46.9193823 3.772198-5.8700749 9.642273-9.4887702 15.000671-13.2467553 6.088959-4.272505 11.519844-8.7255183 12.45792-16.8668719-6.42155-.5941141-7.906835-2.0793995-8.856281-5.31575804-3.215039 1.81219025-6.171396 2.20021216-9.511511 2.29970496-2.898084.08812219-6.081853-.04121845-9.9706.35817407-32.160336 3.30316091-36.246647 38.74960211-56.860134 58.84430461-1.499498 1.4611228-3.121231 2.8241741-4.83535 4.1033673-7.218913 5.3797177-16.075194 9.2244037-24.21939 12.3371069-13.182795 5.0371783-25.716045 5.3953523-38.0844215 9.7431876-9.0794285 3.1908762-18.3052535 7.8201339-25.7629494 12.9241149-1.8647793 1.274929-3.6215378 2.581127-5.2375851 3.90296-4.3762618 3.580319-7.248761 7.552924-10.0274527 11.639235-2.8653926 4.211389-5.6327137 8.54359-9.8512083 12.68249-6.8337339 6.710079-32.3692712 1.957166-41.35915612 8.17973-1.0020346.692185-1.79797698 1.52366-2.33950207 2.521431 4.90499493 2.228638 8.18115059.861323 13.82381359 1.485286.7405107 5.354133-11.64207866 8.536481-9.81141118 11.002481z" fill="#fff"/><path d="m203.435102 120.426045c.383758 6.14297 3.949865 18.330838 7.0981 21.292881-6.16571 1.499498-16.787277-.977872-19.511958-5.327129 1.400006-6.279417 8.685721-12.020151 12.413858-15.965752z" fill="#fff"/><g fill="#002b64"><path d="m212.467627 22.9347869c4.552506 3.9527068 14.105236.7803079 12.398224-7.0838871-7.073938-.5855863-11.17162 1.8150328-12.398224 7.0838871z"/><path d="m244.207251 13.744495c-1.21097 2.5399091-3.529152 5.8146435-3.529152 12.280254-.009949 1.1100553-.842846 1.8704646-.857059.1591885.062538-6.319214 1.735439-9.051002 3.512096-12.6412707.82579-1.471072 1.323254-.864166.874115.2018282z"/><path d="m242.987754 12.7879429c-1.428433 2.4233603-4.868041 6.8436831-5.436572 13.2851311-.105178 1.1043701-1.003455 1.7880277-.867007.0810156.619697-6.2879448 3.368541-10.2235956 5.455047-13.6447265.946603-1.3914779 1.391478-.7433533.848532.2785798z"/><path d="m241.876277 11.5201204c-1.627418 2.2940197-6.921856 7.6026711-8.029069 13.9744742-.198986 1.0901567-1.151274 1.6984841-.871273.0085279 1.145589-6.2154573 5.709466-11.1005537 8.075973-14.3312269 1.060309-1.30904096 1.448331-.6253833.824369.3482248z"/><path d="m240.884192 10.1059014c-1.933004 2.042445-8.245111 8.8122192-10.234966 14.9637167-.352489 1.051781-1.380109 1.5208185-.864167-.1137061 2.006912-5.992309 7.534447-12.4465489 10.331617-15.31194152 1.235131-1.14700983 1.522239-.4150271.767516.46193092z"/></g></svg>