<svg height="178" preserveAspectRatio="xMidYMid" viewBox="0 0 256 178" width="256" xmlns="http://www.w3.org/2000/svg"><path d="m149.332 55.19c4.016-4.015 7.574-7.574 10.669-10.668 3.085-3.086 6.027-5.797 8.81-8.116 2.783-2.32 5.566-4.71 8.35-7.189 6.18-5.252 11.282-8.963 15.304-11.13 4.013-2.16 7.883-3.246 11.594-3.246 5.252 0 9.971 1.936 14.144 5.797 4.174 3.869 6.26 8.277 6.26 13.218 0 3.71-1.006 7.5-3.014 11.363-2.014 3.87-5.644 9.203-10.899 15.999-24.115 31.537-36.173 51.943-36.173 61.218 0 4.022 2.008 6.03 6.028 6.03 3.088 0 6.494-1.313 10.205-3.944 3.708-2.622 8.499-7.188 14.376-13.68 3.086-3.399 6.877-8.038 11.361-13.913 4.48-5.871 8.421-11.282 11.827-16.232 3.4-4.943 6.261-8.349 8.58-10.202 2.319-1.856 5.022-2.783 8.116-2.783 3.088 0 5.718 1.086 7.883 3.244 2.161 2.167 3.247 4.798 3.247 7.886 0 5.877-2.709 13.682-8.116 23.42-5.412 9.739-12.45 19.71-21.102 29.913-10.825 12.985-21.876 23.037-33.158 30.144-11.29 7.111-21.566 10.669-30.84 10.669-8.661 0-15.769-2.864-21.335-8.58-5.566-5.718-8.347-13.059-8.347-22.029 0-4.639.384-9.044 1.159-13.218.769-4.175 1.927-8.5 3.477-12.986 1.544-4.479 3.711-9.274 6.494-14.377 2.783-5.102 6.333-10.74 10.666-16.927.305-.616 1.081-1.855 2.32-3.71-8.045 6.189-16 13.991-23.885 23.421-7.883 9.433-15.847 21.565-23.884 36.405-5.878 9.898-10.362 16.464-13.45 19.71-3.094 3.247-6.955 4.869-11.593 4.869-4.95 0-9.044-1.774-12.291-5.332-3.247-3.552-4.869-7.958-4.869-13.219 0-3.397.383-6.724 1.158-9.971.769-3.245 2.394-7.651 4.872-13.216 1.541-4.327 3.549-9.044 6.028-14.147 2.471-5.099 4.638-9.043 6.493-11.824l8.811-15.305c.616-.616 1.544-2.16 2.783-4.638-6.189 4.95-12.217 10.594-18.087 16.927-5.878 6.341-11.522 12.913-16.927 19.712-5.414 6.803-10.203 13.68-14.377 20.637-4.175 6.956-7.653 13.68-10.435 20.174-3.711 8.658-7.03 14.449-9.972 17.391-2.933 2.935-6.725 4.405-11.363 4.405-4.636 0-8.499-1.855-11.594-5.564-3.085-3.71-4.636-8.501-4.636-14.377 0-11.746 5.723-32 17.158-60.754 6.494-16.384 13.53-31.537 21.101-45.449 7.574-13.913 15.074-25.812 22.493-35.712 4.327-5.564 8.038-9.507 11.132-11.824 3.086-2.32 6.492-3.48 10.203-3.48 4.015 0 7.493 1.392 10.435 4.174 2.935 2.783 4.405 6.189 4.405 10.203 0 3.094-.694 6.341-2.086 9.74-1.391 3.406-4.719 9.275-9.972 17.622-.927 1.553-2.319 3.943-4.174 7.188-1.855 3.247-4.174 7.35-6.955 12.291l-5.103 10.202c9.275-11.13 17.391-20.557 24.348-28.289 6.956-7.725 13.058-13.914 18.319-18.55 5.255-4.638 9.972-8.038 14.146-10.204 4.172-2.158 7.955-3.245 11.361-3.245 4.327 0 8.038 1.47 11.132 4.405 3.086 2.942 4.636 6.573 4.636 10.897 0 2.783-.623 5.878-1.855 9.277-1.239 3.406-3.87 8.659-7.883 15.768l-9.739 17.624-3.71 6.956 5.563-6.028c5.566-5.871 10.358-10.821 14.377-14.841z" fill="#1991eb"/></svg>