<svg height="199" preserveAspectRatio="xMidYMid" viewBox="0 0 256 199" width="256" xmlns="http://www.w3.org/2000/svg"><path d="m46.5392504 198.011312v-13.171486c0-5.049069-3.0733466-8.341941-8.3419408-8.341941-2.6342971 0-5.488119.878099-7.4638418 3.731921-1.5366733-2.414772-3.7319209-3.731921-7.0247922-3.731921-2.1952476 0-4.3904952.658575-6.1466932 3.073348v-2.634298h-4.6100199v21.074377h4.6100199v-11.634812c0-3.731921 1.9757228-5.488119 5.0490694-5.488119s4.6100199 1.975722 4.6100199 5.488119v11.634812h4.6100199v-11.634812c0-3.731921 2.1952476-5.488119 5.0490694-5.488119 3.0733466 0 4.61002 1.975722 4.61002 5.488119v11.634812zm68.2721996-21.074377h-7.463842v-6.366218h-4.610019v6.366218h-4.170971v4.17097h4.170971v9.65909c0 4.829545 1.975722 7.683367 7.244317 7.683367 1.975722 0 4.17097-.658575 5.707643-1.536674l-1.317148-3.951445c-1.317149.878098-2.853822 1.097623-3.951446 1.097623-2.195247 0-3.073347-1.317148-3.073347-3.512396v-9.439565h7.463842zm39.075407-.43905c-2.634297 0-4.390495 1.317149-5.488119 3.073348v-2.634298h-4.61002v21.074377h4.61002v-11.854337c0-3.512396 1.536673-5.488119 4.390495-5.488119.878099 0 1.975723.219525 2.853822.439049l1.317149-4.390495c-.878099-.219525-2.195248-.219525-3.073347-.219525zm-59.05216 2.195248c-2.1952475-1.536673-5.268594-2.195248-8.5614655-2.195248-5.268594 0-8.7809905 2.634298-8.7809905 6.805268 0 3.512397 2.6342975 5.488119 7.244317 6.146694l2.195248.219524c2.414772.439049 3.7319205 1.097624 3.7319205 2.195248 0 1.536673-1.756198 2.634297-4.8295445 2.634297s-5.488119-1.097624-7.0247925-2.195248l-2.1952475 3.512397c2.4147725 1.756197 5.707644 2.634297 9.000515 2.634297 6.1466935 0 9.6590895-2.853822 9.6590895-6.805268 0-3.731921-2.853822-5.707643-7.244317-6.366218l-2.1952475-.219525c-1.975723-.219525-3.512396-.658574-3.512396-1.975722 0-1.536674 1.536673-2.414773 3.9514455-2.414773 2.634297 0 5.268594 1.097624 6.5857425 1.756198zm122.494815-2.195248c-2.634297 0-4.390495 1.317149-5.488119 3.073348v-2.634298h-4.61002v21.074377h4.61002v-11.854337c0-3.512396 1.536673-5.488119 4.390495-5.488119.878099 0 1.975723.219525 2.853822.439049l1.317149-4.390495c-.878099-.219525-2.195248-.219525-3.073347-.219525zm-58.832635 10.976238c0 6.366218 4.390495 10.976239 11.195763 10.976239 3.073346 0 5.268594-.658575 7.463841-2.414773l-2.195247-3.731921c-1.756198 1.317149-3.512396 1.975723-5.488119 1.975723-3.731921 0-6.366218-2.634297-6.366218-6.805268 0-3.951445 2.634297-6.585742 6.366218-6.805267 1.975723 0 3.731921.658574 5.488119 1.975723l2.195247-3.731921c-2.195247-1.756198-4.390495-2.414773-7.463841-2.414773-6.805268 0-11.195763 4.61002-11.195763 10.976238zm42.587803 0v-10.537188h-4.61002v2.634298c-1.536673-1.975724-3.731921-3.073348-6.585743-3.073348-5.927168 0-10.537188 4.61002-10.537188 10.976238s4.61002 10.976239 10.537188 10.976239c3.073347 0 5.268595-1.097625 6.585743-3.073347v2.634297h4.61002zm-16.903406 0c0-3.731921 2.414772-6.805267 6.366218-6.805267 3.731921 0 6.366218 2.853822 6.366218 6.805267 0 3.731921-2.634297 6.805268-6.366218 6.805268-3.951446-.219525-6.366218-3.073347-6.366218-6.805268zm-55.100715-10.976238c-6.146693 0-10.537188 4.390496-10.537188 10.976238 0 6.585743 4.390495 10.976239 10.756713 10.976239 3.073347 0 6.146693-.8781 8.561465-2.853822l-2.195247-3.292872c-1.756198 1.317149-3.951446 2.195248-6.146693 2.195248-2.853822 0-5.707644-1.317148-6.366218-5.049069h15.586257v-1.756199c.219525-6.805267-3.731921-11.195763-9.659089-11.195763zm0 3.951446c2.853822 0 4.829545 1.756199 5.268594 5.04907h-10.976237c.439049-2.853822 2.414772-5.04907 5.707643-5.04907zm114.372399 7.024792v-18.879128h-4.61002v10.976238c-1.536673-1.975724-3.731921-3.073348-6.585742-3.073348-5.927169 0-10.537189 4.61002-10.537189 10.976238s4.61002 10.976239 10.537189 10.976239c3.073346 0 5.268594-1.097625 6.585742-3.073347v2.634297h4.61002zm-16.903406 0c0-3.731921 2.414772-6.805267 6.366218-6.805267 3.731921 0 6.366218 2.853822 6.366218 6.805267 0 3.731921-2.634297 6.805268-6.366218 6.805268-3.951446-.219525-6.366218-3.073347-6.366218-6.805268zm-154.10638 0v-10.537188h-4.61002v2.634298c-1.5366735-1.975724-3.731921-3.073348-6.585743-3.073348-5.9271685 0-10.5371885 4.61002-10.5371885 10.976238s4.61002 10.976239 10.5371885 10.976239c3.0733465 0 5.2685945-1.097625 6.585743-3.073347v2.634297h4.61002zm-17.1229315 0c0-3.731921 2.4147725-6.805267 6.366218-6.805267 3.731921 0 6.366218 2.853822 6.366218 6.805267 0 3.731921-2.634297 6.805268-6.366218 6.805268-3.9514455-.219525-6.366218-3.073347-6.366218-6.805268z"/><path d="m93.298046 16.903409h69.150299v124.251009h-69.150299z" fill="#ff5f00"/><path d="m97.688519 79.0288935c0-25.2453475 11.854337-47.6368726 30.074892-62.1255066-13.391011-10.5371884-30.294417-16.90340637-48.7344965-16.90340637-43.6854268 0-79.02891277 35.34348597-79.02891277 79.02891297 0 43.6854265 35.34348597 79.0289125 79.02891277 79.0289125 18.4400795 0 35.3434855-6.366218 48.7344965-16.903406-18.220555-14.26911-30.074892-36.880159-30.074892-62.1255065z" fill="#eb001b"/><path d="m255.746345 79.0288935c0 43.6854265-35.343486 79.0289125-79.028913 79.0289125-18.44008 0-35.343487-6.366218-48.734496-16.903406 18.440079-14.488634 30.074891-36.880159 30.074891-62.1255065s-11.854337-47.6368726-30.074891-62.1255066c13.391009-10.5371884 30.294416-16.90340637 48.734496-16.90340637 43.685427 0 79.028913 35.56301077 79.028913 79.02891297z" fill="#f79e1b"/></svg>