<svg height="274" preserveAspectRatio="xMidYMid" viewBox="0 0 256 274" width="256" xmlns="http://www.w3.org/2000/svg"><path d="m0 44.3 20.1 174 107.9 55.4 108.1-55.3 19.9-174.3s-67.4-44.1-127.9-44.1-128.1 44.3-128.1 44.3z" fill="#007d96"/><path d="m8.3 49.4 18.8 159.5 101 50.8 101.1-50.7 18.6-159.7s-63.1-40.4-119.7-40.4-119.8 40.5-119.8 40.5z" fill="#fff"/><path d="m14.9 54 17.8 149.6 95.4 47.6 95.5-47.5 17.5-149.8s-59.6-37.9-113.1-37.9-113.1 38-113.1 38z" fill="#007d96"/><path d="m57.5 200.7v-147.8l35.3-.2 35.2 92.9 38.1-92.4 34.8-.3v147.8h-28.7l1.5-103.8-45.7 103.8-44.1-103.6 2.3 103.6z" fill="#fff"/><path d="m128.1 0c-60.6 0-128.1 44.3-128.1 44.3l20.1 174 107.9 55.4v-273.7z" opacity=".1"/></svg>