<svg height="208" preserveAspectRatio="xMidYMid" viewBox="0 0 256 208" width="256" xmlns="http://www.w3.org/2000/svg"><path d="m177.735242 1.67620228c-3.897377-1.85785967-7.084638.01651431-7.084638 4.17811998v165.50639674l71.14364 33.961675c7.827782 3.798291 14.177533 1.156002 14.177533-5.780008v-159.3630741c0-.6605723-.412857-1.2385731-1.023887-1.5688593l-77.204391-36.82690731v-.08257154z" fill="#32fc8d"/><path d="m85.3211734 130.636435 81.1678246-125.89682854c2.295489-3.55057627 7.348867-4.95429247 11.22973-3.13771856l77.319991 36.9094789c.495429.2477146.677087.8257154.388086 1.2385731l-84.784458 131.6272931-85.3211736-40.724284z" fill="#0be370"/><path d="m11.8077304 3.9221482c-6.49012316-3.09643279-8.6947833-.79268679-4.88823526 5.11943555l78.40167826 121.59485125 85.3211736 40.724284-85.1312591-132.0566655c-.1238573-.1899145-.2972575-.3468004-.4954292-.4458863l-73.2079283-34.92776185z" fill="#14c767"/><path d="m85.3211734 199.476329c0 6.936009-5.3093501 10.073728-11.8077304 6.969038l-66.42880478-31.707472c-3.89737673-1.849602-7.08463822-6.770866-7.08463822-10.940729v-155.41615458c0-5.54880756 4.25243436-8.05898241 9.45444145-5.57357902l75.41258845 36.0011919c.2807432.1238573.4541435.3963434.4541435.6936009v159.9410748z" fill="#00ab6c"/></svg>