<svg height="254" viewBox="0 0 254 254" width="254" xmlns="http://www.w3.org/2000/svg" xmlns:xlink="http://www.w3.org/1999/xlink"><linearGradient id="a" x1="50.000006%" x2="50.000006%" y1="100%" y2="-.000004%"><stop offset="0" stop-color="#574c4a"/><stop offset="1" stop-color="#80716d"/></linearGradient><linearGradient id="b" x1="88.778214%" x2="30.149499%" y1="98.342126%" y2="-8.6799%"><stop offset="0" stop-color="#268d83"/><stop offset="1" stop-color="#2ea19e"/></linearGradient><linearGradient id="c"><stop offset="0" stop-color="#db7c7c"/><stop offset="1" stop-color="#c83737"/></linearGradient><radialGradient id="d" cx="41.406333%" cy="42.708333%" r="50%" xlink:href="#c"/><radialGradient id="e" cx="44.270833%" cy="42.708333%" r="50%" xlink:href="#c"/><path d="m0 171.18976v-89.0186689c0-71.8996849 10.2607175-82.17106471 82.0863208-82.17106471h89.1885002c71.825339 0 82.086004 10.27137981 82.086004 82.17106471v89.0186689c0 71.899711-10.260665 82.171091-82.086004 82.171091h-89.1885002c-71.8256033 0-82.0863208-10.27138-82.0863208-82.171091z" fill="url(#a)"/><g transform="translate(45.789223 47.097648)"><path d="m8.89120419.65492176c-12.45362412 78.92784324-5.93814435 152.82474324-5.93814435 152.82474324h38.92783516c-3.7039954-19.703418-16.9918997-109.7234139-5.9381443-110.0206194 5.9239482.9402986 32.9896908 76.3711344 32.9896908 76.3711344s5.9606539-.742268 11.9587629-.742268c5.9981091 0 11.958763.742268 11.958763.742268s27.0657456-75.4308437 32.9896906-76.3711344c11.053779.2971844-2.234162 90.3172254-5.938144 110.0206194h38.927835s6.515477-73.8969237-5.938144-152.82474324h-36.041238c-6.859997.08113617-32.9596777 45.85567024-35.9587626 45.85567024-2.9990848 0-29.0987653-45.77453407-35.958763-45.85567024z" fill="url(#b)"/><path d="m73.2135967 144.266563c0 5.088266-4.1248545 9.213121-9.2131203 9.213121-5.0882659 0-9.2131204-4.124855-9.2131204-9.213121s4.1248545-9.21312 9.2131204-9.21312c5.0882658 0 9.2131203 4.124854 9.2131203 9.21312z" fill="url(#d)"/><path d="m106.995038 144.266563c0 5.088266-4.124854 9.213121-9.2131202 9.213121-5.0882659 0-9.2131204-4.124855-9.2131204-9.213121s4.1248545-9.21312 9.2131204-9.21312c5.0882662 0 9.2131202 4.124854 9.2131202 9.21312z" fill="url(#e)"/><path d="m151.056318 3.26419253c5.617873 38.02593667 6.935966 74.52070827 6.832571 101.70527447-.105757 27.805804-1.698715 45.871022-1.698715 45.871022h-32.767061l-3.521599 2.639176h38.927835s6.515477-73.8969237-5.938144-152.82474324zm-103.1548044-.95978623c10.2264083 11.375397 27.9137598 41.5670105 30.3505156 41.5670105-6.484224-8.2928456-22.4115095-34.74870911-30.3505156-41.5670105zm-14.5979382 38.5154641c-11.0537475.297216 2.2341622 90.3171936 5.9381444 110.0206186h-33.98209203l-2.30656793 2.639176h38.92783516c-3.6852255-19.60357-16.8562435-108.8242654-6.1030928-110.0206194-1.0013427-1.503868-1.866203-2.5426659-2.4742268-2.6391752zm89.8969076 0c-5.923946.9402906-32.9896909 76.3711346-32.9896909 76.3711346s-5.9606539-.742268-11.9587629-.742268c-3.5489703 0-6.604296.218682-8.6703611.411209l-.6492266 2.970234s5.9606539-.742268 11.9587629-.742268c5.9981091 0 11.958763.742268 11.958763.742268s26.8619296-74.9360089 32.9072166-76.3711344c-.65142-1.6501575-1.456257-2.6095795-2.556701-2.6391752z" opacity=".1"/><path d="m8.89120419.65492176c-12.45362412 78.92784324-5.93814435 152.82474324-5.93814435 152.82474324l2.29215012-2.576398c-1.17292339-17.434323-4.30661412-80.4811955 6.28516954-147.60916997h36.0412372c.7635055.00897319 1.7872838.63452107 2.9690722 1.64948454-2.35994-2.62509263-4.3219979-4.2734476-5.6082475-4.28865981zm107.95876281 0c-6.859997.08112825-32.9596777 45.85567024-35.9587626 45.85567024 1.2230203 1.5641495 2.2162343 2.6391753 2.6391753 2.6391753 2.9990849 0 29.0987653-45.77459481 35.9587633-45.85567027h31.805669l1.596393-2.63917527zm-78.4329895 45.44329914c8.7546775 13.1482418 30.515464 73.7319591 30.515464 73.7319591l.636738-2.954195c-5.3726483-14.732101-25.8439655-69.9613854-30.9872536-70.7777641-.0560164.001507-.1101776-.0060939-.1649484 0zm90.0618555 0c5.872224 14.9772246-5.243735 89.6483891-8.577319 107.3814441l3.531311-2.756292c4.507638-26.446415 15.361861-104.347722 5.046008-104.6251521z" fill="#fff" opacity=".3"/></g></svg>