<svg height="235" preserveAspectRatio="xMidYMid" viewBox="0 0 256 235" width="256" xmlns="http://www.w3.org/2000/svg"><path d="m81.4007415 85.3744051c22.5347005-21.9763576 45.3429885-15.7424645 45.3429885-15.7424645 35.454743 7.5376227 33.567546 40.1727374 33.567546 40.1727374 9.670491-34.1314724-28.835594-49.466347-28.835594-49.466347 44.234678 13.9083097 39.097928 50.052606 39.097928 50.052606-1.395856 21.775355-20.725671 30.948921-20.725671 30.948921 35.284449-8.095965 28.642966-48.4529556 28.642966-48.4529556 7.233326 39.7818976-12.942377 51.8420936-24.109226 57.7046896-18.983642 9.770992-36.984602-2.244537-36.984602-2.244537 26.699935 26.191843 56.643839.17867 56.643839.17867-24.759695 23.648593-48.1347 15.186914-48.1347 15.186914-32.9422029-10.050164-30.3905781-38.832716-30.3905781-38.832716-9.9608287 33.891385 28.1711671 48.405496 28.1711671 48.405496-28.6541332-6.954155-36.3062161-31.906477-36.3062161-31.906477-9.7709924-38.246456 18.0149181-48.5115816 18.0149181-48.5115816-34.8070664 7.5124976-28.4447545 47.8694876-28.4447545 47.8694876-6.6777754-27.819411 7.9172955-44.5836424 7.9172955-44.5836424 24.846238-28.1962923 52.92807-10.8234679 52.92807-10.8234679-26.144384-25.9824645-56.5572958-.0642093-56.5572958-.0642093m73.7011998 125.9062156c28.475463-2.512541 81.797164-10.608506 101.059978-100.501635 0 0-25.40458 105.247546-108.876772 82.913849 0 0 54.438386-8.375136 76.21374-53.04253 0 0 42.434024-71.7470011-38.525627-139.58560519 0 0 78.167939 76.21374049 19.262814 137.35223519 0 0 30.429662-75.3762265-37.967285-121.4394762 0 0-42.434024-33.221374-108.8767719-6.4209378 0 0 101.3391499-32.3838605 127.0229009 51.6466739 0 0-51.925845-63.37186478-128.4187569-25.6837514 0 0-45.5049073 22.6128681-55.8342421 87.3805885 0 0 25.6837514-104.9683747 107.480916-82.0763355 0 0-73.4220283 3.3500546-85.7055616 91.8473285 0 0-5.8625954 59.463468 48.8549618 98.826608 0 0-78.16793888-74.538713-19.2628135-134.8396944 0 0-28.1962922 66.4427484 32.6630317 116.6935664 0 0 41.8756816 38.804798 114.4601966 10.050163 0 0-100.5016361 32.663032-127.0229011-52.484187-.2791712.279171 34.8964011 43.82988 83.4721921 39.36314" fill="#348dcc"/></svg>