<svg height="100" preserveAspectRatio="xMidYMid" viewBox="0 0 512 100" width="512" xmlns="http://www.w3.org/2000/svg"><path d="m122.28911 73.8327026h4.540542c1.134291 0 1.754429-.3147451 1.754429-2.7374697v-29.5744275c0-2.5260908-.413801-3.157904-1.754429-3.157904h-4.540542v-7.8941795h8.050528c5.055823 0 9.697843-.5261238 11.969806-1.0522475v10.1043638c3.095056-6.7362425 8.048273-10.4202704 15.683873-10.4202704 8.049402 0 13.208955 3.7885556 14.962258 11.6827351 2.683508-7.578273 8.0494-11.6827351 16.511475-11.6827351 10.938121 0 16.614082 6.2089573 16.614082 19.9973491v21.9961545c0 2.4227247.617883 2.7374698 1.753301 2.7374698h4.539416v7.8941794h-25.796645v-7.8941794h3.8178c1.136545 0 1.754429-.3147451 1.754429-2.7374698v-21.1529629c0-7.8953409-2.579777-11.3679899-8.254611-11.3679899-6.398705 0-9.596366 5.1578712-9.596366 14.9463284v17.5757859c0 2.4227246.619012 2.7374697 1.753302 2.7374697h4.334206v7.8941796h-25.590308v-7.8941796h3.8178c1.135418 0 1.754429-.3147451 1.754429-2.7374697v-22.101844c0-6.9464599-2.88872-10.4202703-8.255739-10.4202703-6.398704 0-9.596365 5.1578712-9.596365 14.9463284v17.5757859c0 2.4227246.620139 2.7374697 1.754429 2.7374697h4.024137v7.8941796h-26.00411v-7.8941796zm106.998743-15.0508564c.308941 9.5759173 4.953216 15.8928867 14.342117 15.8928867 7.120321 0 11.247062-3.6840277 13.621631-9.892985l7.843063 3.577177c-2.786114 8.2112472-9.596366 14.7372725-22.598984 14.7372725-18.264778 0-27.447342-11.263462-27.447342-27.0506595 0-15.998576 10.626924-26.9438087 26.106715-26.9438087 15.891337 0 24.6601 10.1043639 24.6601 27.0494981v2.6306189zm-.206339-7.156677h22.700462c-.205209-10.4202703-3.301393-14.4190434-10.626923-14.4190434-7.327785 0-11.455654 4.3146796-12.073539 14.4190434zm60.257193-11.9986416c3.198789-7.0521493 8.976227-10.5247984 17.026756-10.5247984 10.629178 0 16.304011 6.3146468 16.304011 19.1553186v22.8393465c0 2.4227247.61901 2.7374698 1.753302 2.7374698h4.539415v7.8941795h-26.002981v-7.8941795h4.024137c1.135417 0 1.754428-.3147451 1.754428-2.7374698v-22.5246014c0-7.1578384-2.579776-10.2088915-8.255738-10.2088915-6.912856 0-10.93812 5.2612375-10.93812 16.7337555v15.998576c0 2.4227246.617884 2.7374697 1.753302 2.7374697h4.025264v7.8941796h-26.001854v-7.8941796h4.539415c1.135418 0 1.755556-.3147451 1.755556-2.7374697v-29.5744275c0-2.5260908-.413801-3.157904-1.755556-3.157904h-4.539415v-7.8941795h8.047145c5.05695 0 9.698971-.5261238 11.970933-1.0522475zm47.460911 27.4699323v-28.7335585h-6.810251v-7.0509878s4.232728-.3159066 3.920406-.3159066c3.508855-.631813 5.778563-1.9999671 6.191239-5.7885228l1.032814-9.2611721h9.596365v14.5247327h10.007911v7.8930178h-10.31798v28.5210188c0 5.5794671 1.961892 7.4749064 6.397575 7.4749064 2.16823 0 3.507732-.4227571 4.74801-.8420303v8.1043966c-1.960766.6306516-5.365895 1.3681542-8.977355 1.3681542-11.350795-.0011615-15.788734-4.4226919-15.788734-15.8940484zm28.269308 6.7362427h4.643147c1.13542 0 1.651823-.5272854 1.651823-2.7374697v-28.5210184c0-3.2635934-.516403-4.2113131-2.271961-4.2113131h-4.023009v-7.893018h8.25461c5.056949 0 9.700099-.5261239 12.073537-1.053409v41.6787585c0 2.2090232.516407 2.7374697 1.651825 2.7374697h4.333081v7.893018h-26.311927v-7.893018zm4.539416-56.7296151c0-4.7362753 3.405125-8.63052038 8.669539-8.63052038 5.055822 0 8.667286 3.89424508 8.667286 8.63052038 0 4.7362754-3.611464 8.6316819-8.667286 8.6316819-5.263288-.0011614-8.669539-3.8954065-8.669539-8.6316819zm25.588054 38.9412889c0-15.9974145 10.834387-26.9438086 27.033538-26.9438086 15.78986 0 26.417912 10.8418664 26.417912 26.9438086 0 16.1031041-10.730655 27.0506596-26.829459 27.0506596-15.992813 0-26.621991-10.8407047-26.621991-27.0506596zm39.520878.7375025v-1.3681541c0-12.3157096-4.024136-17.8928538-12.691422-17.8928538-8.772144 0-12.796282 5.5771442-12.796282 17.8928538v1.3681541c0 12.3157097 3.921534 17.8916925 12.692551 17.8916925s12.795153-5.681672 12.795153-17.8916925zm37.555604-17.1553513c3.198787-7.0521493 8.976227-10.5247984 17.026756-10.5247984 10.628052 0 16.304011 6.3146468 16.304011 19.1553186v22.8393465c0 2.4227247.619011 2.7374698 1.753302 2.7374698h4.539416v7.8941795h-26.002984v-7.8941795h4.024138c1.134292 0 1.754429-.3147451 1.754429-2.7374698v-22.5246014c0-7.1578384-2.580903-10.2088915-8.255737-10.2088915-6.912857 0-10.93812 5.2612375-10.93812 16.7337555v15.998576c0 2.4227246.617881 2.7374697 1.753302 2.7374697h4.025262v7.8941796h-26.005237v-7.8941796h4.540542c1.135417 0 1.755558-.3147451 1.755558-2.7374697v-29.5744275c0-2.5260908-.414929-3.157904-1.755558-3.157904h-4.540542v-7.8941795h8.049401c5.05695 0 9.698969-.5261238 11.970934-1.0522475v10.2100532z" fill="#5a7281"/><path d="m48.9639018 0c-27.0436877 0-48.9639018 22.3573567-48.9639018 49.9411085 0 27.5802675 21.9202141 49.9411086 48.9639018 49.9411086 27.0436878 0 48.9627744-22.3608411 48.9627744-49.9411086 0-27.5837518-21.9190866-49.9411085-48.9627744-49.9411085zm21.9619324 82.3447579-21.9619324-16.1971791-21.9619324 16.1971791 8.3718734-26.1435895-22.0949806-16.6396803h27.3605223l8.3245173-26.2365035 8.3245173 26.2365035h27.3582674l-22.0938531 16.6396803z" fill="#00a0de"/></svg>