<svg height="76" preserveAspectRatio="xMidYMid" viewBox="0 0 512 76" width="512" xmlns="http://www.w3.org/2000/svg"><path d="m468.251001 0h8.271295v8.271295h-8.271295z" fill="#e2231a"/><path d="m484.861949 0h26.796262v8.27129506h-26.796262zm18.456609 16.6109479h-26.796262-8.271295v8.2712951 31.1711615 8.2712951h8.271295 24.267023l10.800534 10.800534v-10.800534-8.2712951-31.1711615-8.2712951zm0 39.4424566h-26.796262v-31.1711615h26.796262zm-430.5174899 8.4080107v-47.9188251h31.5813089v8.3396529h-22.2162889v11.2106809h18.9351139v8.3396529h-18.9351139v11.6208277h22.2162889v8.3396529h-31.5813089zm205.8253669 0-2.80267-8.4763685h-17.021095l-2.871028 8.4763685h-9.775167l17.431242-47.9188251h7.314286l17.499599 47.9188251zm-11.142323-33.8371161-6.083845 17.4312416h11.894259zm-233.4419224 33.8371161v-27.9583444l-9.1599466 18.1831775h-6.3572764l-9.15994657-18.1831775v27.8899866h-9.36502003v-47.8504673h9.22830441l12.50947929 25.9076102 12.4411215-25.9076102h9.2283044v47.9188251zm112.7903874.3417891c-7.245928 0-12.782911-1.5722297-17.4996-6.3572764l6.083845-6.0838451c3.007744 3.0077436 7.109213 4.0331108 11.55247 4.0331108 5.536983 0 8.476369-2.1190921 8.476369-5.9471295 0-1.7089453-.478505-3.0761015-1.503872-4.0331108-.957009-.8886516-2.050734-1.3671562-4.238184-1.7089453l-5.810414-.8202937c-4.101469-.6152203-7.109212-1.9140187-9.296662-3.964753-2.255808-2.2558078-3.417891-5.400267-3.417891-9.4333779 0-8.5447263 6.357277-14.5602136 16.679306-14.5602136 6.56235 0 11.347396 1.6405875 15.448865 5.6053405l-5.947129 5.8787717c-3.007744-2.8710281-6.630708-3.2811749-9.843525-3.2811749-4.99012 0-7.382644 2.7343124-7.382644 6.0838451 0 1.2304406.410147 2.4608812 1.435514 3.4178905.95701.8886516 2.460882 1.6405875 4.443258 1.9140187l5.673698.8202937c4.3749.6152203 7.109213 1.8456609 9.159947 3.6913218 2.529239 2.3925234 3.691322 5.9471295 3.691322 10.1853138.068357 9.36502-7.656075 14.5602136-17.704673 14.5602136zm59.129506 0c-7.245928 0-12.782911-1.5722297-17.4996-6.3572764l6.083845-6.0838451c3.007744 3.0077436 7.109213 4.0331108 11.55247 4.0331108 5.536983 0 8.476369-2.1190921 8.476369-5.9471295 0-1.7089453-.478505-3.0761015-1.503872-4.0331108-.957009-.8886516-2.050734-1.3671562-4.238184-1.7089453l-5.810414-.8202937c-4.101469-.6152203-7.109212-1.9140187-9.296662-3.964753-2.255808-2.2558078-3.417891-5.400267-3.417891-9.4333779 0-8.5447263 6.357277-14.5602136 16.679306-14.5602136 6.56235 0 11.347396 1.6405875 15.448865 5.6053405l-5.947129 5.8787717c-3.007744-2.8710281-6.630708-3.2811749-9.843525-3.2811749-4.99012 0-7.382644 2.7343124-7.382644 6.0838451 0 1.2304406.410147 2.4608812 1.435514 3.4178905.95701.8886516 2.460882 1.6405875 4.443258 1.9140187l5.673698.8202937c4.3749.6152203 7.109213 1.8456609 9.159947 3.6913218 2.529239 2.3925234 3.691322 5.9471295 3.691322 10.1853138.068357 9.36502-7.656075 14.5602136-17.704673 14.5602136zm227.221362-.3417891v-8.4080107h8.40801v8.4080107zm-58.787717-8.3396529h31.581308v8.2712951h-31.581308zm0-39.5791722h31.581308v8.2712951h-31.581308zm0 19.6186916h17.77303v8.2712951h-17.77303zm-37.596796-5.5369826c-1.230441-3.964753-3.896395-6.152203-8.408011-6.152203-2.529239 0-4.648331 1.0253672-6.015487 2.529239-1.845661 2.0507343-2.255808 4.2381843-2.255808 13.4664887s.478505 11.4841121 2.255808 13.5348464c1.367156 1.5722297 3.41789 2.4608812 6.015487 2.4608812 2.80267 0 5.126836-1.0253672 6.630708-2.6659546 1.572229-1.7773031 2.18745-3.8963952 2.18745-6.3572764v-2.871028h9.296662v.2734312c0 6.9041389-1.230441 11.0739653-4.579973 14.6285715-3.828038 3.964753-8.408011 5.4686248-13.534847 5.4686248-5.263551 0-9.570093-1.9140187-12.919626-5.2635514-4.853404-4.8534045-4.716689-10.8005341-4.716689-19.1401869 0-8.3396529-.136715-14.2867824 4.716689-19.1401869 3.349533-3.3495328 7.519359-5.2635514 12.919626-5.2635514 10.732176 0 16.337517 6.7674232 17.909747 14.4918558zm-8.066222 13.8766355v-8.3396529h8.408011v8.4080107h-8.408011z" fill="#5e0d8b"/></svg>