<svg height="256" preserveAspectRatio="xMidYMid" viewBox="0 0 256 256" width="256" xmlns="http://www.w3.org/2000/svg"><path d="m217.7675 59.0417c-.779.779-.267 3.279-1.056 4.053-20.387 29.006-49.424 61.332-69.812 81.341-19.983 20.388-55.072 51.777-83.69 72.16-.783.784-3.421.413-4.199 1.202-9.407-7.054-17.247-15.678-23.913-25.485-3.92-5.872-7.45-12.144-10.576-18.814-6.276-14.112-9.801-29.391-9.801-45.864 0-62.706 50.562-113.273 113.273-113.273 16.467 0 32.141 3.525 45.868 9.807 6.656 2.741 12.533 6.277 18.415 10.186 9.418 7.44 18.041 15.285 25.491 24.687" fill="#184ae8"/><path d="m241.2861 128.0339c0 62.715-50.567 113.267-113.283 113.267-18.425 0-36.062-4.319-51.346-12.148-6.277-3.125-12.148-7.056-17.631-11.375.779-.384 1.957-1.173 2.746-1.962 29.006-20.388 62.71-50.947 82.709-71.345 20.383-19.982 50.951-54.097 71.339-82.708.779-.774 1.174-1.963 1.968-2.737 4.309 5.478 8.219 11.37 11.364 17.626 7.43 15.715 12.134 32.952 12.134 51.382" fill="#184ae8"/><path d="m231.4892 73.1526c-.779 1.173-1.578 2.352-2.741 3.525-21.167 29.001-50.952 61.932-70.561 81.526-19.988 19.977-52.919 49.788-81.53 70.56-1.174.774-2.352 1.578-3.525 2.742-23.129 16.462-39.982 24.301-52.13 24.301-6.277 0-10.981-1.967-14.895-5.877-11.365-11.37-7.056-34.483 14.506-72.112l1.578-1.973 2.331-2.346c3.047 6.538 6.611 12.832 10.575 18.814-16.468 29.795-16.452 41.948-14.884 43.906h1.173c3.131 0 13.327-1.584 38.024-18.82.784-.384 1.957-1.173 2.736-1.968 29.011-20.387 62.716-50.946 82.719-71.339 20.388-19.982 50.952-54.092 71.334-82.713.789-.779 1.174-1.968 1.968-2.742 21.555-30.963 18.43-39.192 18.43-39.192-1.962-1.168-14.111-1.168-43.901 15.279-5.872-3.93-11.759-7.45-18.425-10.191l4.315-3.92c37.629-21.561 60.358-25.87 72.123-14.505 10.949 11.774 5.077 32.557-19.22 67.045" fill="#ff6464"/></svg>