<svg height="278" preserveAspectRatio="xMidYMid" viewBox="0 0 256 278" width="256" xmlns="http://www.w3.org/2000/svg"><path d="m51.8492788 73.4536688c-32.9927536 20.5375084-51.8492788 49.7223092-51.8492788 49.7223092s4.8863269-61.1954909 51.8492788-97.0033807c18.677729-14.241227 44.2134799-26.1725973 78.5592752-26.1725973 12.902633 0 39.959558 2.24482009 64.331082 17.270627 24.371524 15.0258068 34.218186 27.6122613 45.198099 46.0397107 4.737878 7.9515203 8.596664 18.1666225 11.003799 28.0201823 4.510033 18.461731 5.058466 40.541268 5.058466 40.541268v29.085553h-174.178303s-4.2539388 58.519314 75.849338 58.519314c27.858884 0 37.614171-4.376504 46.776984-7.089898 14.344158-4.247753 28.194916-13.715936 28.194916-13.715936l.026398 58.467774s-32.783236 20.19301-82.31007 20.19301c-13.947095 0-28.645335-1.16972-42.820344-5.768713-12.3864728-4.018714-38.327199-14.858533-55.6896402-40.263455-6.1417349-8.986657-12.7968383-20.945071-16.0930628-32.628616-3.5635186-12.630976-3.5198075-24.901638-3.5198075-31.661926 0-25.284231 8.638291-49.424397 23.627965-66.875714 19.4161383-22.6047063 43.9573678-32.5563334 43.9573678-32.5563334s-7.9937344 9.3193188-12.9107801 20.9221123c-4.9170451 11.6027941-6.2621146 23.2766131-6.2621146 23.2766131h98.3510744s5.752261-58.7694718-55.650781-58.7694718c-23.136344 0-51.552185 8.0304294-71.4998612 20.4475676z" fill="#3177bc"/></svg>