<svg height="256" preserveAspectRatio="xMidYMid" viewBox="0 0 256 256" width="256" xmlns="http://www.w3.org/2000/svg"><rect fill="#f1c761" height="256" rx="22" width="256"/><g fill-opacity=".35" transform="translate(19.561462 32.318937)"><path d="m98.5353355 156.877821v-120.9782861l-29.421289 4.1317209-22.4982325 43.6007974-21.3815283-38.4093555-24.73164118 3.9080398v95.3536215l23.27984048 3.963322v-60.3488106l22.7771961 42.9306046h.5026445l24.0061661-43.0981527v64.8709107z"/><path d="m0 21.6638937v12.5048771l108.863787-18.0322658v-15.96640533z"/><path d="m0 169.551096 108.863787 21.437661v-15.911122l-108.863787-18.088399z"/></g><g fill="#fff" transform="translate(128.425249 32.318937)"><path d="m0 .17009967v15.96640533l108.863787 18.0322658v-12.5048771z"/><path d="m108.361143 144.484359v-95.3536215l-24.7316413-3.9080398-21.3815283 38.4093555-22.499083-43.6007974-29.4204386-4.1317209v120.9782861l27.4668439-4.075588v-64.8709107l24.0061661 43.0981527h.501794l22.7780465-42.9306046v60.3488106z"/><path d="m0 190.988757 108.863787-21.437661v-12.56186l-108.863787 18.088399z"/></g></svg>