<svg height="370" preserveAspectRatio="xMidYMid" viewBox="0 0 256 370" width="256" xmlns="http://www.w3.org/2000/svg"><path d="m128 0c-91.532 150.218-128 178.702-128 241.794 0 70.692 57.308 128 128 128s128-57.308 128-128c0-63.644-37.027-91.852-128-241.794zm0 348.777c-59.203 0-107.196-47.994-107.196-107.197 0-52.837 30.541-76.692 107.196-202.495 76.188 125.572 107.196 149.195 107.196 202.495 0 59.203-47.993 107.197-107.196 107.197zm-13.27-44.9663c-12.333-2.766-21.681-7.743-30.53-16.095-6.361-6.029-9.845-10.619-13.385-17.477-5.586-10.896-7.522-19.635-7.08-32.079.166-6.14.554-9.237 1.66-13.33 1.659-6.25 4.424-13.108 5.918-14.767.608-.664 1.106-1.439 1.106-1.77 0-.332.442-1.217.94-1.991 1.438-2.268 1.494-5.476.166-8.131-2.986-5.807-7.854-8.241-13.827-6.913-4.148.94-6.305 3.705-10.509 13.44-5.033 11.725-7.079 20.353-7.577 32.079-1.881 42.698 27.489 80.253 69.357 88.77 4.259.83 6.195.996 7.909.609 8.573-1.936 11.726-11.781 5.863-18.197-1.77-1.991-3.429-2.655-10.011-4.148z" fill="#9b4dca"/></svg>