<svg height="168" preserveAspectRatio="xMidYMid" viewBox="0 0 512 168" width="512" xmlns="http://www.w3.org/2000/svg"><g fill="#33547d"><ellipse cx="23.445462" cy="145.351111" rx="22.238384" ry="22.238384"/><ellipse cx="103.720856" cy="145.594182" rx="15.729261" ry="15.729261"/><ellipse cx="169.892977" cy="145.594182" rx="7.141107" ry="7.141107"/><path d="m99.4841859 98.7580768c-3.9098182 0-6.8059798-3.0399354-6.8059798-6.8059798v-28.9616162c0-9.9917576-4.7786667-17.6665859-15.4944647-17.6665859s-17.2321616 8.2540607-17.2321616 17.8124283v28.8157738c0 3.7660444-2.6065455 6.8059798-6.8059798 6.8059798-4.0546263 0-6.8059798-3.0399354-6.8059798-6.8059798v-28.9616162c0-9.9917576-5.2130909-17.6665859-15.9288889-17.6665859-11.0054141 0-16.7977374 8.2540607-16.7977374 17.8124283v28.8157738c0 3.7660444-2.7513535 6.8059798-6.80597976 6.8059798-3.91085252 0-6.80701414-3.0399354-6.80701414-6.8059798v-51.4068687c0-4.0546263 2.60654545-6.9507879 6.8059798-6.9507879 4.6338586 0 6.8059798 3.1857778 6.8059798 6.9507879v4.6338586c3.9098182-7.6748283 11.8742626-12.1638788 20.4179394-12.1638788 10.4261818 0 18.2458182 5.2130909 22.1556364 12.8879192 5.6475151-8.6884849 13.9015757-12.8879192 24.1829494-12.8879192 17.5217778 0 25.9206462 12.0190707 25.9206462 28.9616161v29.9742384c-.001034 3.7670788-2.750319 6.8070142-6.8049451 6.8070142z"/><path d="m125.404832 7.81860202c4.344243 0 7.964445 3.62020198 7.964445 7.96444448 0 4.3442424-3.620202 7.9644444-7.964445 7.9644444-4.344242 0-7.964444-3.620202-7.964444-7.9644444 0-4.3442425 3.620202-7.96444448 7.964444-7.96444448zm0 90.93947478c-4.054626 0-6.805979-3.0399354-6.805979-6.8059798v-51.5516768c0-3.7650101 2.896161-6.8059798 6.805979-6.8059798 3.909819 0 6.80598 3.0409697 6.80598 6.8059798v51.5516768c-.002069 3.7660444-2.751353 6.8059798-6.80598 6.8059798z"/><path d="m170.581851 57.0533495 17.232161-21.431596c1.158465-1.3032727 2.606546-2.0273131 4.489051-2.0273131 3.76501 0 6.226747 2.4617374 6.226747 5.9371313 0 1.3032727-.434424 2.6065455-1.592889 3.9098182l-18.969858 22.5900606 19.259474 22.7338343c1.013657 1.1584647 1.592889 2.3169293 1.592889 4.0546263 0 3.3326546-2.896161 5.9371313-6.081939 5.9371313-2.027313 0-3.620202-.7240404-4.778667-2.1741899l-17.376969-21.5743353-17.37697 21.5743353c-1.158465 1.4470465-2.751354 2.1741899-4.778667 2.1741899-3.185778 0-6.081939-2.6075798-6.081939-5.9371313 0-1.737697.579232-2.8961616 1.592889-4.0546263l19.259474-22.7338343-18.969858-22.5890263c-1.158465-1.3053414-1.592889-2.6075798-1.592889-3.9098181 0-3.475394 2.461737-5.9371314 6.226747-5.9371314 1.882505 0 3.330586.7240405 4.489051 2.0273132z"/><path d="m244.868396 99.3383434c-9.702141 0-17.666586-5.0662141-22.300444-12.4524606v32.1473942c0 3.766044-2.751354 6.803911-6.80598 6.803911-4.054627 0-6.80598-3.038901-6.80598-6.803911v-78.6328568c0-3.7650101 2.316929-6.8059798 6.516364-6.8059798 4.199434 0 6.661171 3.1857778 6.661171 6.9507879v4.9255434c4.344243-7.5300202 13.032728-12.4534949 22.734869-12.4534949 16.652929 0 30.264889 13.899507 30.264889 33.1610505 0 19.9814464-13.61196 33.1600161-30.264889 33.1600161zm-2.750319-55.0270707c-11.729455 0-19.549091 10.2793051-19.549091 21.8660202 0 11.5867152 7.819636 21.8660202 19.549091 21.8660202 11.729454 0 19.403248-8.8322586 19.403248-21.8660202 0-13.0327272-7.674828-21.8660202-19.403248-21.8660202z"/><path d="m346.958093 91.952097c0 3.7660444-2.606546 6.8059798-6.80598 6.8059798-4.054626 0-6.659103-3.0399354-6.659103-6.8059798v-3.1857778c-4.054626 6.0819394-11.729454 10.5720242-21.139911 10.5720242-20.277269 0-32.00362-14.7693899-32.00362-33.1620848 0-18.1010101 13.034796-33.1610505 33.450666-33.1610505 20.852364 0 33.162085 13.6119596 33.162085 33.1610505v25.7758384zm-33.305859-47.3522425c-11.58568 0-19.694933 9.7042101-19.694933 21.5764041 0 12.4534949 6.80598 21.576404 19.694933 21.576404 12.018037 0 19.692865-10.2813737 19.692865-21.576404 0-13.3223434-8.108218-21.5764041-19.692865-21.5764041z"/><path d="m387.939814 33.0172768c17.520744 0 30.407628 13.3223434 30.407628 30.2648889v28.6709656c0 3.7670788-3.039935 6.8059798-6.805979 6.8059798-3.763976 0-6.80598-3.038901-6.80598-6.8059798v-30.2648889c0-9.1229091-7.240404-16.218505-16.795669-16.218505-9.557333 0-16.654998 7.0935272-16.654998 16.218505v30.2648889c0 3.7670788-3.039935 6.8059798-6.80598 6.8059798-3.763975 0-6.805979-3.038901-6.805979-6.8059798v-28.672c0-16.9425454 12.743111-30.2638545 30.266957-30.2638545z"/><path d="m489.15756 66.3210667c0 2.3169293-1.303273 4.6338586-5.212057 4.6338586h-43.296582c.723006 9.9917575 7.528986 17.5207434 19.547022 17.5207434 7.531055 0 12.020105-2.6075798 16.797738-7.095596 1.159499-1.1584646 2.751353-2.1741899 4.48905-2.1741899 3.039936 0 5.64855 2.1741899 5.64855 5.6485495 0 1.4460121-.725075 2.7492849-1.737697 3.9077495-5.502707 6.3715556-15.351725 10.5730586-25.775839 10.5730586-21.577438 0-33.018311-15.0621091-33.018311-33.1631192 0-18.9698586 13.757802-33.1610505 32.435976-33.1610505 18.249956.0062061 30.12215 14.7745616 30.12215 33.309996zm-30.119047-22.4431839c-9.991757 0-16.797737 7.0935273-18.10101 16.073697h35.621754c-1.157431-8.6905535-7.674829-16.073697-17.520744-16.073697z"/><path d="m505.086448 98.7580768c-4.056694 0-6.805979-3.0399354-6.805979-6.8059798v-85.14508286c0-3.76707879 2.751353-6.8059798 6.805979-6.8059798 4.054627 0 6.803912 3.03890101 6.803912 6.8059798v85.14508286c.002068 3.7660444-2.749285 6.8059798-6.803912 6.8059798z"/></g></svg>