<svg height="256" preserveAspectRatio="xMidYMid" viewBox="0 0 256 256" width="256" xmlns="http://www.w3.org/2000/svg"><path d="m256 236.393515v-216.7869626c0-8.893291-5.922878-16.39889949-14.037333-18.79940743l-9.214984 5.51382011-102.264551 109.03703692-3.206095 10.021249-1.87327 9.618963 31.889609 119.18019 4.934095 1.821461h74.16618c10.82819 0 19.606349-8.777821 19.606349-19.60635" fill="#ea6618"/><path d="m0 19.6064847v216.7869633c0 6.704084 3.36660317 12.619174 8.49913228 16.154751l6.28825392-3.011048 108.2460108-115.893502 4.24364-8.264466.158476-7.989503-29.4603172-112.08465566-4.4610371-5.30488889h-73.9078095c-10.82819047 0-19.6063492 8.77815873-19.6063492 19.60634925" fill="#d65813"/><path d="m127.276902 125.379183 114.685629-124.57176713c-1.765926-.52249735-3.633778-.80728042-5.569016-.80728042h-142.8791531z" fill="#e05e11"/><path d="m19.6064847 256h142.6211213l-34.950772-130.620952-118.77756628 127.169354c3.15767198 2.175323 6.98277248 3.451598 11.10721698 3.451598" fill="#de5c16"/><path d="m94.9181291 97.0292825h14.2252699c5.667555 21.3864975 12.118349 40.1530585 19.315132 57.0856295 8.152043-19.050666 14.127408-37.829756 19.185439-57.0856295h13.441693c-6.020063 23.9261795-15.867597 48.0399575-27.131597 72.9298625h-11.889778c-10.819725-23.58654-20.030984-47.836783-27.1461589-72.9298625zm-46.9198899-37.0547132h31.6305608v135.6373337h-31.7700741v-10.455704h19.4708995v-115.0046138h-19.3313862zm160.1684998 10.1771175h-19.331725v115.0046142h19.470899v10.455703h-31.769735v-135.6373331h31.630561z" fill="#fff"/></svg>