<svg height="329" preserveAspectRatio="xMidYMid" viewBox="0 0 256 329" width="256" xmlns="http://www.w3.org/2000/svg" xmlns:xlink="http://www.w3.org/1999/xlink"><linearGradient id="a" x1="85.106239%" x2="19.942385%" y1="55.780715%" y2="-16.8291%"><stop offset="0" stop-color="#80c3e6"/><stop offset="1" stop-color="#3380c2"/></linearGradient><linearGradient id="b" x1="123.372644%" x2="40.548484%" y1="66.096582%" y2="33.8333%"><stop offset="0" stop-color="#f38649"/><stop offset=".1849" stop-color="#f28147"/><stop offset=".4091" stop-color="#ef7242"/><stop offset=".6537" stop-color="#ea5a3a"/><stop offset=".911" stop-color="#e4382e"/><stop offset="1" stop-color="#e12a29"/></linearGradient><linearGradient id="c"><stop offset="0" stop-color="#42ab4a"/><stop offset="1" stop-color="#add155"/></linearGradient><linearGradient id="d" x1="-4.294961%" x2="71.981227%" xlink:href="#c" y1="79.692843%" y2="21.2866%"/><linearGradient id="e" x1="22.790023%" x2="77.211559%" xlink:href="#c" y1="124.295675%" y2="-24.295%"/><g transform="translate(14.769231)"><path d="m188.472615 101.984 49.001847-78.3975385h-117.868308l-16.285539 26.1267693z" fill="url(#a)"/><path d="m103.330462 49.7132308 8.339692-13.4104616 76.812308 65.6812308z" opacity=".15"/><path d="m214.392615 244.120615v-117.858461l-25.427692-15.894154-53.469538 84.457846z" fill="url(#b)"/><path d="m135.495385 194.820923 13.208615 8.246154 40.260923-92.699077z" opacity=".15"/><path d="m24.5538462 0v117.860923l27.2713846 15.891692 136.6301542-31.783384z" fill="url(#d)"/><path d="m51.2541538 142.739692-48.99938457 77.07077h117.86092277l68.861539-109.442462z" fill="url(#e)"/></g><path d="m.00492308 319.657846h6.85292307l3.42646155-41.851077h-7.01784616v-8.076307h18.84553846l12.8886154 32.716307c.9772308 2.855385 1.3858461 4.812308 1.3858461 4.812308h.1624616s.4086154-1.956923 1.4695384-4.812308l12.8073847-32.716307h18.8430769v8.076307h-6.9316923l3.3427692 41.851077h6.8529231v7.995077h-23.7415385v-7.995077h6.4443077l-2.1193846-29.201231c-.1624615-2.043077.2461538-5.385846.2461538-5.385846h-.2461538s-.6547692 3.177846-1.3858462 5.139693l-11.0966153 26.67323h-9.1372308l-11.0941539-26.67323c-.736-1.961847-1.3046153-5.139693-1.3046153-5.139693h-.3273847s.4086154 3.337846.2461539 5.385846l-2.1193846 29.201231h6.5255384v7.995077h-23.8227692v-7.995077zm106.96369192-50.907077c17.129847 0 30.018462 12.972308 30.018462 29.536 0 17.051077-12.888615 30.345846-30.018462 30.345846-17.1347688 0-30.0233842-13.294769-30.0233842-30.345846 0-16.566154 12.8886154-29.536 30.0233842-29.536zm0 50.498462c10.441847 0 19.010462-9.053539 19.010462-20.964923 0-11.424-8.566154-20.155077-19.010462-20.155077-10.4443073 0-19.0104612 8.733538-19.0104612 20.155077 0 11.913846 8.5686154 20.964923 19.0104612 20.964923zm35.332923.408615h6.929231v-41.851077h-6.929231v-8.076307h25.043693c4.657231 0 8.324923.246153 12.076307 1.383384 11.256616 3.345231 18.764308 13.299692 18.764308 27.574154 0 13.705846-6.936615 23.576615-17.947077 27.249231-3.921231 1.383384-7.995077 1.708307-12.812307 1.708307h-25.124924zm24.637539-.568615c3.667692 0 6.606769-.327385 9.462154-1.474462 6.609231-2.692923 10.769231-9.462154 10.769231-18.924307 0-9.792-4.403693-16.477539-11.177847-19.089231-2.934153-1.142154-5.629538-1.302154-9.053538-1.302154h-7.020308v40.790154zm37.388308.568615h5.142153l14.601847-21.373538-14.198154-20.477539h-5.142154v-8.076307h21.868308v8.076307h-5.71077l7.995077 11.995077c1.065846 1.299692 1.634462 2.446769 1.634462 2.446769h.16c0 .07877.566154-1.065846 1.550769-2.446769l7.746462-11.995077h-5.548308v-8.076307h21.048615v8.076307h-5.058461l-14.683077 21.289846 14.436923 20.561231h5.139692v7.995077h-21.947077v-7.995077h5.71077l-8.076308-12.155077c-1.058462-1.383384-1.629539-2.525538-1.629539-2.525538h-.162461c-.162462 0-.654769 1.144615-1.548308 2.525538l-7.748923 12.155077h5.624615v7.995077h-21.203692z"/></svg>