<svg height="146" viewBox="0 0 512 146" width="512" xmlns="http://www.w3.org/2000/svg"><g fill="none" fill-rule="evenodd"><path d="m476.713442 60.4626238c-.461058.0923844-.922118 1.1077504-.922118 1.661194-.092384 3.6910624-.184768 13.473457-.184768 20.1173692 0 .184769.27629.5534436.553444.5534436 1.38404.0923844 4.706428.184769 7.566894.184769 3.968216 0 6.275236-.5534436 7.567756-1.1068872 3.321524-1.6611938 4.890334-5.2607352 4.890334-9.228951 0-8.9509342-6.275238-12.3657066-15.59571-12.3657066-.645828-.091521-2.490928-.091521-3.875832.184769zm23.809296 41.2501042c0-9.1357028-6.73716-14.2116692-18.918098-14.2116692-.553444 0-4.429274-.0923844-5.352256.0923846-.277154.0923844-.645828.2771534-.645828.5543068 0 6.5515278-.092384 16.9797508.184768 21.0394878.183906 1.753578 1.476426 4.245369 3.045236 4.983581 1.66033.922982 5.44464 1.106887 8.027952 1.106887 7.290604 0 13.658226-4.059737 13.658226-13.564978zm-42.634146-46.325207c.92212 0 3.691064.27629 10.796898.27629 6.736296 0 12.088554-.1839056 18.640944-.1839056 8.027954 0 19.102004 2.8604654 19.102004 14.856634 0 5.9065634-4.152984 10.6129916-9.597626 12.9200136-.27629.0923844-.27629.27629 0 .3686744 7.751662 1.9383474 14.581208 6.7371602 14.581208 15.780479 0 8.8594136-5.537026 14.4879596-13.565842 17.9951166-4.891198 2.122253-10.981666 2.860465-17.16452 2.860465-4.706428 0-17.348424-.553443-24.361874-.368674-.738212-.277154.645828-3.599542 1.291656-4.152985 1.661194-.092385 2.95285-.184769 4.706428-.738213 2.49179-.645828 2.76808-1.38404 3.137618-5.167487.18477-3.230003.18477-14.6735918.18477-22.7939292 0-11.166435.092384-18.7333288 0-22.4243912-.092384-2.8604654-1.10775-3.7834468-3.13762-4.3377538-1.568808-.27629-4.152984-.645828-6.275236-.922118-.461924-.4619224 1.106886-3.5995414 1.661192-3.9682158zm-53.247136 57.399258c2.215502 1.752715 6.552392 2.490927 10.428222 2.490927 4.983582 0 9.966302-.922118 14.765114-5.259871 4.891198-4.429275 8.305106-11.2579566 8.305106-22.1472382 0-10.4282226-3.968216-18.9180978-12.088552-23.9008162-4.614044-2.8613288-10.520608-4.0606004-17.34929-4.0606004-2.029868 0-3.968216.0923846-5.167486.645828-.277154.184769-.922982 1.015366-.922982 1.476425-.18477 1.845963-.18477 16.056769-.18477 24.3627386 0 8.5822598 0 20.5784282.18477 21.9624692 0 1.384904.645828 3.507156 2.029868 4.430138zm-20.947966-57.399258c1.753578 0 8.489876.27629 11.719878.27629 5.81418 0 9.9663-.27629 20.947966-.27629 9.228088 0 16.979752 2.4917908 22.516776 7.1973558 6.736298 5.8141786 10.243454 13.8429948 10.243454 23.624526 0 13.9345162-6.367622 21.9633322-12.735244 26.5773762-6.36676 4.706428-14.672728 7.474509-26.484128 7.474509-6.275238 0-17.072136-.184769-26.023932-.277153h-.092386c-.461058-.829734.738214-4.059737 1.476426-4.152122 2.399406-.277153 3.045234-.369538 4.245368-.830597 1.937484-.738212 2.307022-1.753578 2.584176-5.167487.27629-6.367622.183906-14.0269004.183906-22.7015446 0-6.1828534.092384-18.2722698-.092384-22.1481012-.27629-3.22914-1.660332-4.059737-4.429276-4.614044-1.38404-.27629-3.230002-.6458278-5.813314-.922118-.369538-.6466914 1.291656-3.5071568 1.752714-4.0606002z" fill="#8e714e"/><path d="m272.033456 116.385457c-2.307022-.277154-3.968216-.645828-5.998948-1.56881-.27629-.184769-.738212-1.106887-.738212-1.476425-.184768-3.230003-.184768-12.458091-.184768-18.640944 0-4.9835818-.829734-9.320472-2.95285-12.3657064-2.491792-3.507157-6.09047-5.5370254-10.704514-5.5370254-4.0606 0-9.50524 2.7689444-14.0269 6.6447758-.092384.091521-.830596.7382124-.738212-.2771536 0-1.0153658.184768-3.0452344.277154-4.4292748.092384-1.2925194-.645828-1.9383474-.645828-1.9383474-2.953714 1.476425-11.25882 3.4147724-14.304055 3.6910624-2.214637.4619224-2.768081 2.5841754-.461059 3.3223878h.092385c2.490927.7382126 4.152121 1.5688096 5.443777 2.3994064.922982.7382126.830596 1.7535784.830596 2.5841754.092386 6.9210658.092386 17.5331938-.183904 23.3473728-.092386 2.307022-.738214 3.136755-2.399406 3.506293l.183904-.092384c-1.291656.277153-2.307022.553443-3.875831.738212-.553443.553444-.553443 3.507157 0 4.152985 1.015367 0 6.367623-.277153 10.797761-.277153 6.090468 0 9.228088.277153 10.796896.277153.645828-.738212.830598-3.507157.46106-4.152985-1.753578-.092384-3.045234-.27629-4.244506-.645828-1.661194-.369538-2.123116-1.199271-2.2155-3.137619-.183906-4.891197-.183906-15.2261716-.183906-22.2396218 0-1.9383474.553444-2.8613288 1.106886-3.4147724 2.122254-1.8450994 5.537026-3.1376188 8.58226-3.1376188 2.95285 0 4.891198.9229814 6.367622 2.1231164 2.02987 1.6603304 2.675698 4.0597368 2.95285 5.8133152.46106 3.968216.277154 11.8122634.277154 18.6409444 0 3.691062-.277154 4.614044-1.661194 5.075103-.645828.277153-2.307022.646691-4.24537.830597-.645828.645828-.461058 3.507157 0 4.152985 2.67656 0 5.81418-.277154 10.428224-.277154 5.72093 0 9.412856.277154 10.88928.277154.46106-.553444.645828-3.230004.27629-3.968216zm25.56201-35.251157c-4.891196 0-7.936432 3.7834468-7.936432 9.6891468 0 5.9980842 2.675698 12.9191502 10.243454 12.9191502 1.291656 0 3.691062-.553444 4.79795-1.8451 1.753578-1.661194 2.953714-4.9835814 2.953714-8.489875 0-7.6592782-3.784312-12.273322-10.058686-12.273322zm-.64669 40.788182c-1.8451 0-3.13762.553444-3.967354 1.015366-3.876694 2.490928-5.62941 4.890334-5.62941 7.751663 0 2.675696 1.014504 4.797949 3.230004 6.643912 2.675696 2.307022 6.36676 3.414772 11.073188 3.414772 9.412856 0 13.56584-5.075966 13.56584-10.058684 0-3.507157-1.753578-5.814179-5.352256-7.105835-2.584174-1.10775-7.290604-1.661194-12.920012-1.661194zm.64669 23.993201c-5.62941 0-9.69001-1.200135-13.196304-3.875832-3.414772-2.584175-4.891196-6.460006-4.891196-9.135703 0-.738212.184768-2.768944 1.845962-4.614044 1.014504-1.10775 3.22914-3.230003 8.489876-6.828681.183906-.092384.27629-.184769.27629-.369538s-.18477-.369538-.368674-.461059c-4.337754-1.661194-5.62941-4.337754-5.998948-5.814179v-.184769c-.091522-.553443-.27629-1.106887.554306-1.661194.645828-.461059 1.56881-1.014502 2.583312-1.66033 1.56881-.922981 3.230004-1.938347 4.24537-2.768944.184768-.184769.184768-.368675.184768-.553444s-.184768-.369538-.369538-.461059c-6.459142-2.123116-9.689146-6.921929-9.689146-14.119285 0-4.7064282 2.122254-8.9517976 5.9057-11.627494 2.584176-2.0307318 9.043318-4.5216594 13.288688-4.5216594h.277154c4.33689.0915212 6.736296 1.0145026 10.150206 2.2146374 1.845962.645828 3.59954.9221182 5.998946.9221182 3.598678 0 5.167488-1.106887 6.459144-2.398543.092384.1839054.277154.645828.369538 1.8450994.092384 1.200135-.277154 2.95285-1.200134 4.2453694-.738214 1.0145024-2.398544 1.7535784-4.059738 1.7535784h-.461922c-1.661194-.184769-2.399406-.369538-2.399406-.369538l-.368676.184769c-.092384.184769 0 .3686746.092386.645828l.092384.184769c.183906.8305968.553444 3.3215244.553444 3.9682158 0 7.5668938-3.045236 10.8884178-6.275238 13.3802088-3.13762 2.307022-6.736298 3.783447-10.796898 4.152985-.092384 0-.461058 0-1.291656.092385-.461922 0-1.10775.092384-1.200134.092384h-.092384c-.738214.183906-2.583312 1.106887-2.583312 2.675697 0 1.38404.830596 3.045234 4.797948 3.322387.830598.092385 1.661194.092385 2.584176.184769 5.259872.368675 11.812262.830597 14.857498 1.8451 4.244506 1.568809 6.921066 5.352256 6.921066 9.874779 0 6.828681-4.891198 13.196303-13.011536 17.163656-3.968216 1.753578-7.936432 2.67656-12.273322 2.67656zm52.600446-64.320324c-1.938348 0-3.691926.461059-4.983582 1.3840406-3.598678 2.2146374-5.44464 6.6447756-5.44464 13.103919 0 12.0894164 6.090468 20.5792914 14.765112 20.5792914 2.584176 0 4.614044-.738212 6.367622-2.214637 2.675696-2.215501 4.0606-6.644776 4.0606-12.827629 0-11.9961688-5.998948-20.024985-14.765112-20.024985zm1.661194 39.496526c-15.688094 0-21.317504-11.535109-21.317504-22.3320066 0-7.5668938 3.045234-13.3810724 9.135702-17.5340574 4.337754-2.6756964 9.505242-4.1521214 14.119286-4.1521214 11.996168 0 20.394522 8.5822598 20.394522 20.9479664 0 8.397491-3.322388 15.041403-9.69001 19.102003-3.045234 2.029869-8.305106 3.968216-12.64286 3.968216zm-164.446112-39.496526c-1.938347 0-3.691062.461059-4.983581 1.3840406-3.598678 2.2146374-5.444641 6.6447756-5.444641 13.103919 0 12.0894164 6.090469 20.5792914 14.765113 20.5792914 2.584175 0 4.614044-.738212 6.367622-2.214637 2.675696-2.215501 4.0606-6.644776 4.0606-12.827629 0-11.9961688-5.906563-20.024985-14.765113-20.024985zm1.661194 39.496526c-15.688094 0-21.317504-11.535109-21.317504-22.3320066 0-7.5668938 3.045234-13.3810724 9.135703-17.5340574 4.337754-2.6756964 9.505241-4.1521214 14.119285-4.1521214 11.997032 0 20.394523 8.5822598 20.394523 20.9479664 0 8.397491-3.322388 15.041403-9.69001 19.102003-2.95285 2.029869-8.212722 3.968216-12.641997 3.968216zm-105.4780436-.922981c-.184769-.27629-.369538-1.106887-.2771534-2.122253 0-.738213.184769-1.200135.2771534-1.384041 1.937484-.277153 2.95285-.554307 4.059737-.830597 1.8459628-.461922 2.5841754-1.476425 2.6765598-3.783447.2771534-5.537025.2771534-16.057632.184769-23.3473722v-.184769c0-.830597 0-1.845963-1.015366-2.5841754-1.476425-.922118-3.2300034-1.752715-5.5370252-2.3994064-.830597-.27629-1.3840406-.7382124-1.291656-1.291656 0-.5534434.5534434-1.1992714 1.7535784-1.3840404 3.0452344-.2771536 10.9808026-2.2146374 14.1184216-3.598678.184769.1839056.4619224.7382126.4619224 1.476425l-.0923844 1.0145026c-.0923846 1.0153658-.184769 2.2155008-.184769 3.4147722 0 .3686746.3695378.645828.7382124.645828.184769 0 .369538-.0923844.5543066-.184769 5.9057-4.6140438 11.257956-6.2752376 14.026037-6.2752376 4.522523 0 8.028817 2.1231162 10.705376 6.5523912.183906.2771534.368675.3686744.645828.3686744.184769 0 .461059-.091521.553444-.27629 5.444641-4.1529848 10.889282-6.6447756 14.48796-6.6447756 8.582259 0 13.658225 6.3676222 13.658225 17.1645194 0 3.0452344 0 7.0134498-.092384 10.6129918 0 3.22914-.092384 6.182853-.092384 8.305106 0 .461059.645828 1.937484 1.661193 2.214637 1.291656.645828 3.045235.922982 5.352257 1.291656h.092384c.184769.645828-.184769 3.045235-.553443 3.507157-.554307 0-1.384904 0-2.307022-.092384-1.753579-.092385-4.245369-.184769-7.01345-.184769-5.721795 0-8.674645.092384-11.535973.277153-.183906-.738212-.276291-2.95285 0-3.507157 1.661193-.27629 2.49179-.553443 3.507156-.830597 1.845963-.553443 2.307022-1.38404 2.399407-3.783447 0-1.752715.368674-16.7025964-.184769-20.3021378-.553444-3.6910624-3.322388-8.0279528-9.412857-8.0279528-2.307022 0-5.9057.9229814-9.412857 3.598678-.183905.184769-.368674.645828-.368674.9229814v.0923844c.368674 1.937484.368674 4.152985.368674 7.5668938v5.998084c0 4.152985-.092384 8.028817 0 10.981666 0 2.030732 1.200135 2.491791 2.215501 2.861329.553444.091521.922118.183906 1.384041.27629.830597.184769 1.661194.369538 2.95285.645828.184769.369538.184769 1.56881-.092385 2.584176-.092384.553443-.277153.830597-.368674.922981-3.137619-.092384-6.367623-.184769-11.074051-.184769-1.38404 0-3.783447.092385-5.814179.092385-1.661194 0-3.230003.092384-4.152121.092384-.092385-.184769-.277154-.830597-.277154-1.845963 0-.830597.184769-1.476425.369538-1.661194.461059-.092384.829734-.183905 1.291656-.183905 1.106887-.184769 2.029869-.369538 2.95285-.554307 1.56881-.461059 2.122253-1.291656 2.214638-3.321525.277153-4.614043.553443-17.810347-.092385-21.1327348-1.106887-5.3522564-4.152121-8.0288162-9.043318-8.0288162-2.860466 0-6.460007 1.3840404-9.412857 3.5995412-.4610592.3686746-.830597 1.291656-.830597 2.122253v5.4446408c0 6.643912 0 14.949882.0923844 18.54856.0923846 1.106887.461059 2.399406 2.5841756 2.860465.461059.092385 1.199271.277154 2.122253.369538l1.661194.27629c.184769.554307.092384 2.768945-.277154 3.507157-.922981 0-2.029868-.092384-3.322388-.092384-1.9374836-.092385-4.4292746-.184769-7.1973554-.184769-3.2300034 0-5.5370254.092384-7.3829882.184769-1.291656-.184769-2.307022-.184769-3.413909-.184769z" fill="#442d22"/><path d="m35.0534362 142.317005-3.7834469-1.292519s.4619224-19.286773-6.4591434-20.670813c-4.6140438-5.352257.7382125-227.012857 17.348425-.738213 0 0-5.7209309 2.860466-6.7362968 7.751663-1.1077504 4.798813-.3695379 14.949882-.3695379 14.949882z" fill="#fff"/><path d="m35.0534362 142.317005-3.7834469-1.292519s.4619224-19.286773-6.4591434-20.670813c-4.6140438-5.352257.7382125-227.012857 17.348425-.738213 0 0-5.7209309 2.860466-6.7362968 7.751663-1.1077504 4.798813-.3695379 14.949882-.3695379 14.949882z" fill="#a6a385"/><path d="m37.0841679 123.676061s33.1289039-21.778564 25.3772411-67.0892684c-7.4745092-32.944135-25.100951-43.7410321-27.038435-47.89401688-2.1222529-2.95284992-4.1529848-8.12033727-4.1529848-8.12033727l1.3849039 91.63504895c0 .0923844-2.8613289 28.0538006 4.4292748 31.4685736" fill="#fff"/><path d="m37.0841679 123.676061s33.1289039-21.778564 25.3772411-67.0892684c-7.4745092-32.944135-25.100951-43.7410321-27.038435-47.89401688-2.1222529-2.95284992-4.1529848-8.12033727-4.1529848-8.12033727l1.3849039 91.63504895c0 .0923844-2.8613289 28.0538006 4.4292748 31.4685736" fill="#499d4a"/><path d="m29.332506 124.875332s-31.09903551-21.22512-29.25307261-58.5985294c1.75271501-37.374273 23.71604721-55.738064 27.96055321-59.06045184 2.7689442-2.95284992 2.8613288-4.06060034 3.0460978-7.01345025 1.9374838 4.15298481 1.5688094 62.10568629 1.8450994 68.93436769.830597 26.3002226-1.476425 50.7553458-3.5986778 55.7380638z" fill="#fff"/><path d="m29.332506 124.875332s-31.09903551-21.22512-29.25307261-58.5985294c1.75271501-37.374273 23.71604721-55.738064 27.96055321-59.06045184 2.7689442-2.95284992 2.8613288-4.06060034 3.0460978-7.01345025 1.9374838 4.15298481 1.5688094 62.10568629 1.8450994 68.93436769.830597 26.3002226-1.476425 50.7553458-3.5986778 55.7380638z" fill="#58aa50"/></g></svg>