<svg height="133" preserveAspectRatio="xMidYMid" viewBox="0 0 512 133" width="512" xmlns="http://www.w3.org/2000/svg" xmlns:xlink="http://www.w3.org/1999/xlink"><linearGradient id="a" x1="-.039779%" x2="99.946777%" y1="49.481395%" y2="49.481395%"><stop offset="0" stop-color="#6c91b0"/><stop offset=".5" stop-color="#193a62"/><stop offset="1" stop-color="#6c91b0"/></linearGradient><linearGradient id="b" x1="0%" x2="100.072953%" y1="49.796025%" y2="49.796025%"><stop offset="0" stop-color="#92bcda"/><stop offset=".1533" stop-color="#739ec2"/><stop offset=".4872" stop-color="#245184"/><stop offset=".5" stop-color="#214e82"/><stop offset=".5128" stop-color="#245184"/><stop offset=".8467" stop-color="#739ec2"/><stop offset="1" stop-color="#92bcda"/></linearGradient><linearGradient id="c"><stop offset="0" stop-color="#5992ca"/><stop offset="1" stop-color="#b2d4eb"/></linearGradient><linearGradient id="d" x1=".06214%" x2="100.14856%" xlink:href="#c" y1="50.2375%" y2="50.2375%"/><linearGradient id="e" x1="100.026749%" x2="-.067078%" xlink:href="#c" y1="50.2375%" y2="50.2375%"/><g transform="translate(0 -1)"><g transform="translate(93.816764 31.937622)"><path d="m60.8810916 69.5641326v-24.1528266c0-5.2896686-.6986355-8.782846-1.9961013-10.6791423-1.2974659-1.8962963-3.3933724-2.7945419-5.9883041-2.7945419-1.9961014 0-3.7925926.4990254-5.3894737 1.6966862s-2.7945419 2.6947368-3.5929825 4.7906433c-.7984405 1.9961013-1.2974659 5.1898635-1.2974659 9.6810916v21.4580897h-11.776998v-23.0549708c0-4.1918129-.2994152-7.0861599-.8982456-8.9824561-.5988304-1.8962963-1.5968811-3.2935673-2.7945419-4.1918129-1.1976609-.8982456-2.5949318-1.2974659-4.391423-1.2974659-1.9961014 0-3.8923977.4990253-5.4892788 1.6966862-1.5968811 1.1976608-2.7945419 2.7945419-3.5929825 4.8904483-.7984405 2.0959064-1.1976608 5.5890838-1.1976608 10.0803119v20.8592593h-11.57738789v-47.2077973h11.77699809v5.3894737c1.9961013-2.1957115 4.1918128-3.6927876 6.6869395-4.7906433 2.4951267-1.0978558 5.0900585-1.5968811 8.0842106-1.5968811 2.8943469 0 5.5890838.6986355 7.8846004 2.1957115 2.3953216 1.397271 4.2916179 3.6927875 5.7886939 6.4873294 1.8962963-2.7945419 4.0920078-4.9902534 6.7867446-6.4873294 2.6947369-1.397271 5.788694-2.1957115 8.9824562-2.1957115 3.2935672 0 6.1879142.7984405 8.6830409 2.2955166 2.4951267 1.5968811 4.391423 3.5929824 5.4892788 6.0881091 1.0978557 2.4951267 1.6966861 6.3875244 1.6966861 11.9766082v27.8456141zm62.9769984-11.2779728c-2.195712 3.8923977-5.189864 6.8865498-8.982456 8.9824562-3.792593 2.1957115-7.984406 3.2935672-12.575439 3.2935672-6.6869396 0-12.4756336-2.3953216-17.1664718-7.1859649-4.7906433-4.7906433-7.0861598-10.5793372-7.0861598-17.4658869 0-7.28577 2.6947368-13.3738792 8.0842105-18.2643275 4.6908382-4.2916179 10.0803119-6.3875244 16.2682261-6.3875244 4.391423 0 8.583236 1.0978558 12.475634 3.2935673 3.892397 2.1957115 6.886549 5.1898635 9.082261 8.9824561 2.195711 3.7925926 3.293567 7.8846004 3.293567 12.2760234-.099805 4.4912281-1.197661 8.5832359-3.393372 12.4756335zm-12.076414-22.1567251c-2.395321-2.4951267-5.489278-3.7925926-9.182066-3.7925926-3.6927874 0-6.6869394 1.2974659-9.0822611 3.7925926-2.3953216 2.4951267-3.6927875 5.788694-3.6927875 9.7808967 0 4.0920078 1.1976608 7.385575 3.5929825 9.8807017 2.3953216 2.4951267 5.4892787 3.7925926 9.0822611 3.7925926 3.692788 0 6.786745-1.2974659 9.182066-3.7925926 2.395322-2.5949317 3.692788-5.888499 3.692788-9.8807017s-1.197661-7.28577-3.592983-9.7808967zm51.399611 33.4346979v-20.8592593c0-5.5890838-.299416-9.0822612-.798441-10.9785575-.499025-1.7964912-1.397271-3.1937622-2.594932-4.1918129s-2.794542-1.497076-4.690838-1.497076c-2.395322 0-4.391423.7984405-6.088109 2.3953216s-2.894347 3.7925926-3.592983 6.5871345c-.299415 1.4970761-.499025 4.8904484-.499025 9.7808967v18.7633529h-11.776998v-47.2077973h11.776998v4.7906433c2.694737-2.2955166 5.090059-3.6927876 7.28577-4.5910332 2.195712-.8982456 4.391423-1.2974659 6.68694-1.2974659 4.690838 0 8.583235 1.5968811 11.776998 4.7906433 2.694737 2.7945419 4.291618 6.8865497 4.291618 12.2760234v31.0393762h-11.776998zm61.080701 10.5793372c-4.291618 5.0900585-10.579337 7.6849902-19.262378 7.6849902-4.591033 0-8.583236-.5988304-11.677193-1.7964912s-5.788694-2.7945419-7.8846-5.0900585c-2.195712-2.1957115-3.992203-4.9902534-4.990254-8.1840156h13.373879c1.197661 1.2974659 2.395322 2.3953217 4.291618 2.9941521 1.796492.6986355 3.992203.9980507 6.387525.9980507 3.193762 0 5.688889-.4990254 7.585185-1.4970761 1.896296-.9980506 3.293567-2.1957115 4.092008-3.7925926.79844-1.596881 1.197661-4.0920077 1.197661-7.8846003-2.095907 2.0959064-4.291618 3.3933723-6.587135 4.2916179-2.295516.8982456-4.790643 1.497076-7.68499 1.497076-6.287719 0-11.577388-2.3953216-15.968811-6.9863548-4.291618-4.491228-6.287719-10.1801169-6.287719-17.0666666 0-7.3855751 1.996101-13.4736842 6.587134-18.0647174 4.191813-4.0920078 8.982456-6.0881091 14.77115-6.0881091 2.694737 0 5.389474.4990253 7.784796 1.497076 2.395321.9980507 4.790643 2.6947368 7.28577 4.9902534v-5.3894737h11.776998v40.2214425c.099805 7.9844055-1.596882 13.8729045-4.790644 17.6654971zm-9.980507-44.2136452c-2.395321-2.3953217-5.589083-3.8923977-9.281871-3.8923977-3.692787 0-6.686939 1.497076-9.082261 3.9922027s-3.792593 5.6888889-3.792593 9.4814815c0 3.8923977 1.397271 6.9863548 3.892398 9.4814815s5.589084 3.7925926 9.281871 3.7925926c3.692788 0 6.68694-1.1976608 8.982456-3.6927875 2.395322-2.3953217 3.592983-5.6888889 3.592983-9.5812866 0-3.9922027-1.197661-7.0861598-3.592983-9.5812865zm66.669786 22.3563352c-2.195711 3.8923977-5.189863 6.8865498-8.982456 8.9824562-3.792593 2.1957115-7.984406 3.2935672-12.575439 3.2935672-6.686939 0-12.475633-2.3953216-17.166471-7.1859649-4.790644-4.7906433-7.08616-10.5793372-7.08616-17.4658869 0-7.28577 2.694737-13.3738792 8.08421-18.2643275 4.690838-4.2916179 10.080312-6.3875244 16.268226-6.3875244 4.391423 0 8.583236 1.0978558 12.475634 3.2935673s6.88655 5.1898635 9.082261 8.9824561c2.195712 3.7925926 3.293567 7.8846004 3.293567 12.2760234-.099805 4.4912281-1.19766 8.5832359-3.393372 12.4756335zm-12.176218-22.1567251c-2.395322-2.4951267-5.489279-3.7925926-9.182067-3.7925926-3.692787 0-6.686939 1.2974659-9.082261 3.7925926-2.395321 2.4951267-3.692787 5.788694-3.692787 9.7808967 0 4.0920078 1.197661 7.385575 3.592982 9.8807017 2.395322 2.4951267 5.489279 3.7925926 9.082261 3.7925926 3.692788 0 6.786745-1.2974659 9.182067-3.7925926 2.395321-2.5949317 3.692787-5.888499 3.692787-9.8807017s-1.197661-7.28577-3.592982-9.7808967z" fill="#24292c"/><path d="m305.702924 70.6619883c-6.786745 0-14.97076-2.3953216-14.97076-16.5676413v-53.69512673h11.776998v51.49941523c0 5.3894737 2.195711 6.9863548 5.389473 6.9863548h1.596882v10.6791423s-1.696687 1.0978557-3.792593 1.0978557zm42.916179-1.0978557v-5.3894737c-2.295516 2.1957115-4.591033 3.9922027-6.886549 4.8904483-2.295517.9980507-4.890449 1.497076-7.585186 1.497076-6.088109 0-11.277972-2.3953216-15.669395-7.0861598s-6.88655-10.5793372-6.88655-17.565692c0-7.1859649 2.395322-13.074464 6.587135-17.7653022 4.291617-4.5910331 9.481481-6.8865497 15.56959-6.8865497 2.794542 0 5.489279.4990254 7.884601 1.5968811 2.495126 1.0978558 4.790643 2.6947369 6.886549 4.8904484v-5.3894737h11.776998v47.1079922h-11.677193zm-3.193762-33.634308c-2.395322-2.4951267-5.489279-3.7925926-9.182066-3.7925926-3.592983 0-6.68694 1.2974659-9.082261 3.8923976-2.395322 2.5949318-3.792593 5.9883041-3.792593 9.9805069 0 4.0920077 1.397271 7.2857699 3.792593 9.8807017 2.495126 2.5949318 5.489278 3.8923977 9.082261 3.8923977 3.692787 0 6.786744-1.2974659 9.182066-3.8923977s3.692788-5.888499 3.692788-10.0803119c0-3.9922027-1.197661-7.385575-3.692788-9.8807017zm65.17271 27.5461988c-4.391423 4.6908382-9.880702 7.0861598-15.869006 7.0861598-2.694737 0-4.990254-.4990253-7.385575-1.497076-2.295517-.9980507-4.790643-2.6947368-7.08616-4.8904483v5.3894737h-11.776998v-64.87329439h11.776998v23.05497079c2.095906-2.0959065 4.591033-3.7925926 7.08616-4.8904484 2.495126-1.0978557 5.090058-1.5968811 7.984405-1.5968811 6.088109 0 11.277973 2.2955166 15.569591 6.8865497 4.291618 4.5910332 6.387524 10.4795322 6.387524 17.7653022-.099805 7.0861598-2.295516 12.8748538-6.686939 17.565692zm-8.683041-27.4463938c-2.395322-2.5949317-5.489279-3.8923976-9.082261-3.8923976-3.692788 0-6.786745 1.2974659-9.182067 3.7925926-2.395321 2.4951267-3.692787 5.7886939-3.692787 9.8807017 0 4.1918129 1.197661 7.4853801 3.692787 10.0803119 2.395322 2.5949318 5.489279 3.8923977 9.182067 3.8923977 3.592982 0 6.587134-1.2974659 9.082261-3.8923977 2.495126-2.5949318 3.692787-5.9883041 3.692787-9.9805068-.099805-3.9922027-1.297466-7.28577-3.692787-9.8807018z" fill="#fc9e18"/></g><g transform="translate(12.974659 125.754386)"><path d="m35.7302144 4.69083821v-3.69278753h6.3875244v3.69278753c0 1.79649122-1.397271 3.19376218-3.1937622 3.19376218s-3.1937622-1.49707602-3.1937622-3.19376218z" fill="#6086a9"/><path d="m17.9649123 4.69083821v-3.69278753h6.3875243v3.69278753c0 1.79649122-1.3972709 3.19376218-3.1937621 3.19376218-1.6966862 0-3.1937622-1.49707602-3.1937622-3.19376218z" fill="#466e93"/><path d="m.19961014 4.69083821v-3.69278753h6.38752436v3.69278753c0 1.79649122-1.39727095 3.19376218-3.19376218 3.19376218-1.69668616 0-3.19376218-1.49707602-3.19376218-3.19376218z" fill="#6086a9"/></g><path d="m61.2803119 122.760234-2.894347 4.291618h-48.60506821l-2.69473685-4.291618z" fill="url(#a)"/><path d="m62.6775828 120.664327-2.8943469 4.291618h-51.2998051l-2.69473684-4.291618z" opacity=".1"/><path d="m1.79649123 91.8206628v-56.4896686c.09980507-15.5695907 12.67524367-28.34463942 28.74385967-30.04132558.8982456-.19961014 1.497076-.79844055 1.6966861-1.19766082.4990254-.89824562.9980507-1.8962963 1.2974659-2.69473684.1996102-.49902535 1.0978558-.59883041 1.2974659 0 .2994152.79844054.8982456 1.79649122 1.2974659 2.69473684.1996101.39922027.6986355.99805068 1.6966862 1.19766082 16.0686159 1.69668616 28.5442495 14.47173488 28.6440545 30.04132558v56.4896686z" fill="#faac18"/><path d="m50.2019493 35.4307992v48.9044835h.0998051v.8982456c0 2.4951267 1.9961014 4.491228 4.4912281 4.491228h5.7886939c2.4951267 0 4.4912281-1.9961013 4.4912281-4.491228v-.8982456-48.205848c-.0998051-15.8690059-13.174269-28.64405458-27.745809-29.8417154-1.5968811-.09980507-2.6947368-3.29356725-2.6947368-3.29356725s-1.1976608 4.49122807 1.7964912 6.68693957c8.1840156 5.98830408 13.7730994 15.17037038 13.7730994 25.74970758z" fill="#f7941d"/><path d="m34.1333333 13.7730994c13.6732944 0 24.851462 11.0783626 24.851462 24.851462 0 13.6732944-11.0783626 24.851462-24.851462 24.851462-13.6732943 0-24.85146195-11.0783626-24.85146195-24.851462.09980506-13.7730994 11.17816765-24.851462 24.85146195-24.851462z" fill="#fff" opacity=".35"/><path d="m42.9161793 41.9181287c-3.8923976 0-5.0900584 1.497076-5.0900584 4.391423 0 4.8904483 5.9883041 10.5793372 5.9883041 19.4619883 0 6.4873294-3.7925926 11.8768031-12.1762184 11.8768031h-3.8923976v-7.8846004h1.6966861c3.0939571 0 4.0920078-1.7964912 4.0920078-4.6908382 0-6.5871345-3.5929824-12.4756335-3.5929824-17.465887 0-4.9902534 1.6966861-7.385575 7.5851852-8.6830409-5.9883041-1.2974659-7.5851852-5.1898635-7.5851852-10.180117 0-4.8904483 3.5929824-8.882651 3.5929824-15.4697855 0-2.894347-1.497076-5.18986357-5.0900585-5.18986357h-3.4931773v-6.08810917c8.9824561-4.59103313 16.4678362 3.59298246 16.4678362 9.68109164 0 8.782846-3.6927875 15.5695906-3.6927875 20.460039 0 2.7945419 1.1976608 3.9922027 5.0900585 3.9922027h2.6947368v5.788694zm-21.5578947-33.83391817h-3.0939571c-3.5929825 0-5.0900585 2.29551657-5.0900585 5.18986357 0 6.5871345 3.5929825 10.6791423 3.5929825 15.4697855 0 4.9902535-1.9961014 8.8826511-7.9844055 10.180117 5.9883041 1.2974659 7.9844055 3.5929825 7.9844055 8.6830409 0 4.8904484-3.5929825 10.8787525-3.5929825 17.465887 0 2.894347.9980507 4.6908382 4.0920078 4.6908382h1.6966862v7.8846004h-3.8923977c-8.38362573 0-12.17621832-5.3894737-12.17621832-11.8768031 0-8.8826511 5.98830409-14.57154 5.98830409-19.4619883 0-2.794542-.99805068-4.391423-4.89044834-4.391423h-3.19376218v-5.8884991h3.19376218c3.89239766 0 4.89044834-1.1976608 4.89044834-3.9922027 0-4.8904483-3.69278752-11.677193-3.69278752-20.460039 0-5.98830408 7.28576995-14.07251461 16.16842105-9.78089667z" fill="#162331" transform="translate(10.978558 31.937622)"/><path d="m24.4522417 7.78479532c-9.7808967 5.68888888-16.36803117 15.76920078-16.46783624 27.34658868v52.7968811.4990253c0 .6986355-.49902534 1.1976609-1.19766082 1.1976609h-1.49707602c-.69863548 0-1.29746589-.5988304-1.29746589-1.2974659v-.2994152-52.1980507c0-12.7750487 8.48343077-23.6538012 20.46003897-28.04522418" fill="#fdecb2"/><path d="m65.6717349 95.5134503c-.2994152.9980507-.4990253 2.1957115-.4990253 3.1937622v.099805 22.4561405c0 1.796491-1.397271 3.193762-3.1937622 3.193762h-55.59142303c-1.79649123 0-3.19376219-1.397271-3.19376219-3.193762v-22.5559455s0 0 0-.0998051c-.09980506-.9980507-.19961013-2.0959064-.49902534-3.0939571-.79844054-2.2955166-2.69473684-3.6927875-2.69473684-3.6927875h68.2666667s-1.7964913 1.3972709-2.5949318 3.6927875z" fill="url(#b)"/><path d="m65.0729045 106.392203h-21.0588694c-1.7964912 0-3.1937622-1.397271-3.1937622-3.193762 0-1.796492 1.397271-3.193763 3.1937622-3.193763h21.0588694z" fill="url(#d)"/><path d="m3.19376218 100.004678h21.05886942c1.7964912 0 3.1937622 1.397271 3.1937622 3.193763 0 1.796491-1.397271 3.193762-3.1937622 3.193762h-21.05886942z" fill="url(#e)"/></g></svg>