<svg height="109" preserveAspectRatio="xMidYMid" viewBox="0 0 512 109" width="512" xmlns="http://www.w3.org/2000/svg"><path d="m154.17687 80.0806023c-1.609288 2.165508-3.48201 4.2343452-5.618209 6.2064978-8.06558 7.1427161-17.299841 10.7126694-27.701377 10.7098601-10.239304-.0027873-18.884279-3.5219457-25.9342412-10.558161l-.6658796 10.8489265h-17.6411742l2.7412017-46.437487c.3139424-5.107358-4.470343-9.2483073-9.4772675-9.2483073-5.0069246 0-10.1107709 4.1409493-10.424011 9.2483073l-2.7412016 46.437487h-18.5499918l2.7412016-46.437487c.3132401-5.107358-5.0139478-9.4793745-10.0208724-9.4793745-5.0062222 0-9.5664636 4.3713141-9.8797037 9.4793745l-2.7412016 46.437487h-17.78234297l4.44365432-70.8329877h13.59784915c3.6422935-1.882952 8.3099917-2.9526036 12.5661234-2.9526036 7.8984253 0 15.9085213 3.6661729 20.2306722 9.4203786 5.0279945-5.7542057 11.7184087-9.4203786 19.616834-9.4203786 10.0276449 0 19.5388239 5.9074586 23.8617499 14.497144 1.084998-1.2445653 2.2632678-2.4538492 3.5348152-3.6278545 8.0648781-7.1434184 17.2577011-10.7126694 27.5777671-10.7098601 10.402941.0028093 19.144164 3.5769767 26.224373 10.7239067 1.859379 1.9681423 3.443206 4.0351654 4.751536 6.201083 1.609597-2.1712715 3.482386-4.2429768 5.618395-6.2151296 8.064878-7.1434184 17.257701-10.7126694 27.577767-10.7098601 10.402941.0028093 19.144165 3.5769767 26.224373 10.7239067 6.903923 7.3077641 10.008933 15.9787545 9.317838 26.0136735-.686178 9.9548533-4.983747 18.5844061-12.894814 25.8879561-8.065581 7.1427161-17.299841 10.7126694-27.701378 10.7098601-10.320066-.0028093-19.020554-3.577679-26.100762-10.7253114-1.859139-1.9675204-3.443046-4.0312163-4.751723-6.1910465zm-15.085644-34.0111373c-3.808044-3.935166-8.582496-5.9038024-14.326167-5.9052071-5.742968-.002107-10.831364 1.9644225-15.264483 5.8974815-4.355863 4.0138271-6.723424 8.7903868-7.105492 14.329679-.382069 5.5406968 1.326705 10.3186612 5.129832 14.3345953 3.890919 3.9358683 8.708214 5.9023978 14.451183 5.9045048 5.742968.002107 10.788521-1.9637201 15.139468-5.8967791 4.438035-4.0145295 6.849141-8.7924939 7.231209-14.331786.381367-5.5385899-1.371654-10.3158519-5.25555-14.3324884zm64.172072 0c-3.808044-3.935166-8.582497-5.9038024-14.326168-5.9052071-5.742968-.002107-10.831363 1.9644225-15.264483 5.8974815-4.355862 4.0138271-6.723423 8.7903868-7.105492 14.329679-.382069 5.5406968 1.326705 10.3186612 5.129833 14.3345953 3.890919 3.9358683 8.708214 5.9023978 14.451182 5.9045048 5.742969.002107 10.788521-1.9637201 15.139468-5.8967791 4.438036-4.0145295 6.849141-8.7924939 7.23121-14.331786.381366-5.5385899-1.371655-10.3158519-5.25555-14.3324884z" fill="#414347"/><path d="m346.282488 80.0357591c-1.616733 2.1817945-3.500547 4.2655796-5.651487 6.251341-8.06558 7.1427161-17.299841 10.7126694-27.701377 10.7098601-10.320066-.0028093-19.020554-3.577679-26.100763-10.7253114-6.90322-7.305657-10.011742-15.9373168-9.325563-25.8928724.537443-7.7959331 3.252822-14.7674045 8.146795-20.9147435h-28.478603l-1.99673 29.0821619c-.59628 8.6752044 1.673657 11.5351001 8.583199 11.5351001 3.381026 0 6.441086.0098327 6.441086.0098327l-.941827 16.346074s-6.733256-.0351166-12.466392-.0351166c-6.61667 0-12.057635-2.1259588-15.187227-5.8026666-3.540455-4.1163676-4.860137-10.5855473-4.213289-19.9960933l1.253663-31.1406968h-9.407737l1.102661-16.0546064 88.114568.0014047-.017481.2545213c10.204213.1050372 18.794654 3.6784299 25.771994 10.7215226 1.872243 1.9817582 3.465107 4.0637702 4.778651 6.2460498 1.617047-2.1876395 3.500931-4.2743335 5.651681-6.2600964 8.064878-7.1434184 17.257701-10.7126694 27.577767-10.7098601 10.402941.0028093 19.144164 3.5769767 26.224373 10.7239067 6.903923 7.3077641 10.008933 15.9787545 9.317838 26.0136735-.686178 9.9548533-4.983748 18.5844061-12.894815 25.8879561-8.06558 7.1427161-17.299841 10.7126694-27.701377 10.7098601-10.320066-.0028093-19.020554-3.577679-26.100763-10.7253114-1.872001-1.981133-3.464949-4.0597769-4.778845-6.2358897zm-15.118921-33.9662941c-3.808044-3.935166-8.582497-5.9038024-14.326168-5.9052071-5.742968-.002107-10.831363 1.9644225-15.264483 5.8974815-4.355863 4.0138271-6.723424 8.7903868-7.105492 14.329679-.382069 5.5406968 1.326705 10.3186612 5.129833 14.3345953 3.890919 3.9358683 8.708214 5.9023978 14.451182 5.9045048s10.788521-1.9637201 15.139468-5.8967791c4.438035-4.0145295 6.849141-8.7924939 7.23121-14.331786.381366-5.5385899-1.371655-10.3158519-5.25555-14.3324884zm64.232471 0c-3.808043-3.935166-8.582496-5.9038024-14.326167-5.9052071-5.742968-.002107-10.831363 1.9644225-15.264483 5.8974815-4.355863 4.0138271-6.723424 8.7903868-7.105492 14.329679-.382069 5.5406968 1.326705 10.3186612 5.129832 14.3345953 3.890919 3.9358683 8.708214 5.9023978 14.451183 5.9045048 5.742968.002107 10.788521-1.9637201 15.139468-5.8967791 4.438035-4.0145295 6.849141-8.7924939 7.231209-14.331786.381367-5.5385899-1.371654-10.3158519-5.25555-14.3324884z" fill="#6e788c"/><path d="m463.675347 20.4975583c-.299896-10.08338-16.805399-20.0557915-16.805399-20.0557915l-2.883775.69320165 5.408658 15.90922355s-.149596 4.3123183-4.447868 5.5561482c-4.297569 1.2445322-7.311276-1.9742552-7.311276-1.9742552l-4.216801-15.97664741-2.98772 1.22978326s-8.208154 22.09466115-7.114623 24.85061175c1.564796 7.1300741 6.154535 13.3801262 6.671452 24.1468752.516916 10.7660467-6.982585 35.7311386-7.710201 42.1989136-.726211 6.4684776 4.964785 11.6074406 10.575715 11.7528226 5.61093.145383 11.066645-4.622749 11.23099-9.8186004.165048-5.1958518-.39471-30.2592702.940423-41.3224033 1.33724-11.0624307 18.949618-27.1072044 18.650425-37.189882zm-30.275424 83.1308207c-3.010195.168559-5.587051-2.135792-5.75561-5.1480937-.167858-3.0115994 2.135089-5.5898601 5.145284-5.7584197 3.010194-.1685597 5.586348 2.1364938 5.75561 5.1480932.167857 3.0123022-2.135089 5.5905622-5.145284 5.7584202z" fill="#414347"/><path d="m470.308872 83.0324938s-4.411347 5.0378272-10.138864 12.0021509c11.761954 8.3563453 28.044818 10.1936463 38.434414-1.2262716 3.028456-3.3262442 9.129614-11.9164664 2.628829-24.2978765-6.500082-12.3807078-23.782365-18.3336736-18.146151-26.2278848 4.270178-5.978952 15.056593-.5843402 19.279715 3.6387819 1.70175-1.5479397 7.103385-6.7704801 9.581212-9.711144-11.457843-14.3233581-36.012773-15.7813992-44.477278-.8189191-13.997476 24.7424527 26.179424 35.8954842 18.497317 47.5183758-5.081372 7.686321-15.659194-.8772126-15.659194-.8772126z" fill="#6e788c"/></svg>