<svg height="106" preserveAspectRatio="xMidYMid" viewBox="0 0 512 106" width="512" xmlns="http://www.w3.org/2000/svg"><path d="m159.240344 50.0718282v21.8243491c0 2.5950778-2.123439 4.0697336-4.246894 4.0697336-1.887496 0-3.539057-1.4746797-3.539057-4.0697336v-33.2083998c0-3.0669438 2.595309-4.0697455 3.539057-4.0697455 1.710603 0 2.713393 1.0027777 3.716182 2.1231957l12.976339 17.5184252 13.44868-18.1674281c1.946306-2.417917 6.724096-1.4741928 6.724096 2.5955647v33.2083878c0 2.5950778-1.651573 4.0697336-3.539057 4.0697336-2.123455 0-3.775017-1.4746797-3.775017-4.0697336v-21.8243491l-9.791295 12.3868363c-2.123687 2.5950658-4.777802 2.5950658-6.724352 0zm66.005636 26.484036c-10.912193.471894-22.23719-6.7833815-22.23719-21.234364 0-14.5105229 11.324997-21.6472123 22.23719-21.6472123 10.322195.5304448 21.11628 7.667601 21.11628 21.6472123.000024 13.9791125-10.794085 21.234364-21.11628 21.234364zm-.648991-35.2139673c-6.606245 0-13.802223 4.6601977-13.802223 13.9795993 0 9.2603641 7.195974 13.9791125 13.802223 13.9791125 6.783369 0 14.038409-4.7187484 14.038409-13.9791125.000004-9.3194136-7.25504-13.9795993-14.038409-13.9795993zm41.231464 30.789972c0 5.1315769-7.84497 5.3087137-7.84497.1180833v-33.503141c0-2.0646331 1.592751-3.5983424 3.539289-3.5983424h15.689739c14.982146 0 18.049106 20.0549242 5.544645 25.0684179l7.84475 9.555608c3.067175 4.5420905-3.067199 8.9065772-6.606269 4.4239953l-8.906565-12.7406232h-9.260619zm0-17.4593835h11.384062c7.667821 0 8.139711-12.3868484 0-12.3868484h-11.384062zm36.512715-15.9847039c0-1.9465378 1.533733-4.0697455 4.010935-4.0697455h13.625585c7.668088 0 14.569078 5.1315768 14.569078 14.9819021 0 9.3194057-6.90099 14.5100481-14.569078 14.5100481h-9.850568v7.7861712c0 2.5950778-1.65155 4.0697335-3.775017 4.0697335-1.946318 0-4.010935-1.4746677-4.010935-4.0697335zm7.785952 3.3621759v14.687173h9.850568c3.951651 0 7.078139-3.4802472 7.078139-7.1371803 0-4.1287871-3.126484-7.5499927-7.078139-7.5499927zm35.156613 30.2590364v-33.503129c0-2.1236707 1.53371-3.657408 4.187817-3.657408 2.064645 0 3.598354 1.5337094 3.598354 3.657408v12.8587064h19.228809v-12.8587064c0-2.1236707 1.887496-3.657408 4.010692-3.657408 2.064645 0 3.657396 1.5337094 3.657396 3.657408v33.503129c0 2.0641422-1.592751 3.6569091-3.657396 3.6569091-2.123196 0-4.010692-1.5927629-4.010692-3.6569091v-12.91776h-19.228809v12.917772c0 2.0641421-1.533709 3.6569091-3.598354 3.6569091-2.654107-.000016-4.187817-1.592755-4.187817-3.6569211zm50.905375 3.6569051c-2.064621 0-3.657372-1.5927629-3.657372-3.6569091v-33.503129c0-2.1236707 1.592751-3.657408 3.657372-3.657408h21.17537c5.426294 0 5.308215 7.6680999 0 7.6680999h-16.987506v8.8480145h14.863819c5.249661 0 5.249661 7.7266666 0 7.7266666h-14.863819v8.8475356h17.990284c5.367304 0 5.780105 7.7271415 0 7.7271415h-22.178148zm64.883573-36.9243465c0-5.2496721 7.727153-5.6624966 7.727153 0v21.3524711c0 22.0600408-35.56781 22.0600408-35.56781 0v-21.3524711c0-5.3082389 7.727154-5.5444013 7.727154 0v21.3524711c0 11.6197382 20.113503 12.3278067 20.113503 0zm19.643999 4.9549388c1.356585-11.4430882 18.638836-13.5077332 26.778789-7.2552475 4.010716 3.2440807-.235679 8.3756576-3.774988 5.7806037-4.364965-2.7722146-14.274356-4.0697455-15.51281 2.0641581-1.592751 9.6736634 24.065616 4.1292621 23.652768 19.8187459-.412852 14.982401-22.119058 15.3361997-30.259012 8.6118479-1.946562-1.5922761-1.88752-4.1878287-.825701-5.7805797 1.53327-1.5332225 3.244105-2.0641422 5.249221-.4128245 4.836808 3.3031343 17.282738 5.7805918 18.167428-2.5950658-.766615-8.7299671-25.304125-3.480299-23.475695-20.2316381z" fill="#78c5e1"/><path d="m104.665263 66.1155018c-5.7505863 23.1033475-26.790925 39.5404072-51.571733 39.5404072-24.893013 0-45.75223217-17.4099634-51.26715856-40.6086555 6.63140964 0 12.83081176.030301 15.70891426.030301 1.3576899 0 1.6213559.0235528 1.6999118.0179379 2.1655804-.1065981 4.8809922-.8213549 6.6874982-5.2142431l6.8838819-18.007439 15.2881404 36.8090408c1.3745304 2.934183 3.6691724 2.7263461 5.0380561 2.7263461h.1290615c2.6705169 0 3.831863-.9358067 4.847331-2.8713702l17.2685668-36.3880196 5.8908374 16.3992842.3590704.794015c1.2454769 2.7322204 2.141441 5.4309712 5.2237489 5.7836366.6353868.0726936 8.014041-.0562043 17.9611439-.0562043.000004 0 .000063.0638025-.147271 1.0449629z" fill="#78c5e1"/><path d="m106.352349 52.5083535c0 .2749037 0 .9663152-.005615.9663152h-.01123-15.8769842l-9.2628861-25.8752069c-.8246951-1.9243339-2.0645931-4.8091765-5.677649-4.8091765-2.2104672 0-4.2077421 1.8255813-5.3410419 4.8383202l-16.7917005 38.8947165-16.1633451-38.6587815c-1.5821159-3.4335167-2.6761039-5.048312-5.8403357-5.048312-2.1487639 0-3.725261.7915288-5.4420213 4.8590077l-9.5936469 26.1836281-15.93895506-.0166849c-.01122968-.3983464-.0168126-.796593-.0168126-1.1949394 0-29.1063779 23.59703046-52.62976097 52.70340036-52.62976097 29.10637 0 53.258823 23.38450857 53.258823 52.49087447z" fill="#f46e5d"/></svg>