<svg height="116" preserveAspectRatio="xMidYMid" viewBox="0 0 256 116" width="256" xmlns="http://www.w3.org/2000/svg"><path d="m175.813757 69.0793651c5.417989 5.4179894 5.417989 14.0867725 1.083597 20.0465608-5.417989 5.4179894-14.086772 5.4179894-19.504761 0-.541799-.5417989-.541799-.5417989-.541799-.5417989l-13.003175-13.0031746-33.049735 34.6751326c-2.708995 2.708994-5.959789 4.334391-9.752381 4.334391-3.7925929 0-7.0433866-1.625397-9.7523813-4.334391l-33.0497355-34.6751326-34.6751322 34.6751326c-2.7089947 2.708994-6.5015873 3.792592-9.752381 3.792592-3.7925926 0-7.04338623-1.083598-9.75238094-3.792592-5.41798941-5.41799-5.41798941-14.0867728 0-19.5047622l44.42751324-44.9693122c2.7089947-2.1671958 5.9597884-3.7925926 9.7523809-3.7925926 3.7925926 0 7.0433863 1.6253968 9.752381 4.3343915l33.0497358 34.6751323 33.049735-34.6751323c2.708995-2.7089947 5.959788-4.3343915 9.752381-4.3343915s7.043386 1.6253968 9.752381 4.3343915zm76.39365-21.1301588c2.708995 2.1671958 3.792593 5.9597884 3.792593 9.2105821 0 3.7925926-1.083598 7.0433862-3.792593 9.7523809l-44.969312 44.9693117c-2.708994 2.708995-6.501587 3.792593-9.752381 3.792593-.541799 0-1.083598 0-1.625397 0-3.250793 0-5.959788-1.625397-8.126984-3.792593-5.417989-5.417989-5.417989-14.086772 0-19.5047614l10.29418-10.2941799 24.922752-24.3809524-34.133334-34.1333333c-5.417989-5.4179894-5.417989-14.08677252 0-19.50476194 5.41799-5.41798941 14.086773-5.41798941 19.504762 0z" fill="#e62d56"/></svg>