<svg height="142" preserveAspectRatio="xMidYMid" viewBox="0 0 256 142" width="256" xmlns="http://www.w3.org/2000/svg" xmlns:xlink="http://www.w3.org/1999/xlink"><linearGradient id="a"><stop offset="0" stop-color="#d4202c"/><stop offset=".04166156" stop-color="#d82d2b" stop-opacity=".9583"/><stop offset=".176" stop-color="#e25226" stop-opacity=".824"/><stop offset=".3167" stop-color="#eb7123" stop-opacity=".6833"/><stop offset=".4635" stop-color="#f28920" stop-opacity=".5365"/><stop offset=".6188" stop-color="#f69a1e" stop-opacity=".3812"/><stop offset=".7886" stop-color="#f9a41d" stop-opacity=".2114"/><stop offset="1" stop-color="#faa71d" stop-opacity="0"/></linearGradient><linearGradient id="b" x1="13.322046%" x2="82.619546%" xlink:href="#a" y1="94.944907%" y2="1.131564%"/><linearGradient id="c" x1="86.624318%" x2="17.326136%" xlink:href="#a" y1="5.040459%" y2="98.854519%"/><path d="m232 0c-9 0-16.8 5-20.9 12.3l-.5 1-18.8 37-23.8 46.9 15.6 30.7.9 1.7c2.4 4.2 6 7.7 10.4 9.8 4.4-2.2 8-5.6 10.4-9.8l.9-1.7 46.7-92 1.1-2.2c1.3-3 2-6.2 2-9.7 0-13.3-10.7-24-24-24z" fill="#ff5000"/><path d="m87.9 44.6-15.5-30.6-.9-1.7c-2.4-4.2-6-7.7-10.4-9.8-4.4 2.2-8 5.6-10.4 9.8l-.8 1.7-46.7 92-1.1 2.2c-1.3 3-2 6.2-2 9.7 0 13.2 10.7 24 24 24 9 0 16.8-5 20.9-12.3l.5-1 18.8-37 23.7-46.9z" fill="#ff5000"/><path d="m232 0c-9 0-16.9 5-20.9 12.3l-.5 1-18.8 37-23.8 46.9 15.6 30.7.9 1.7c2.4 4.2 6 7.7 10.4 9.8 4.4-2.2 8-5.6 10.4-9.8l.9-1.7 46.7-92 1.1-2.2c1.3-3 2-6.2 2-9.7 0-13.3-10.8-24-24-24z" fill="url(#b)"/><path d="m24 141.9c9 0 16.9-5 20.9-12.3l.5-1 18.8-37 23.8-46.9-15.6-30.7-.9-1.7c-2.4-4.2-6-7.7-10.4-9.8-4.4 2.2-8 5.6-10.4 9.8l-.8 1.7-46.7 92-1.2 2.3c-1.3 3-2 6.2-2 9.7 0 13.2 10.7 23.9 24 23.9z" fill="url(#c)"/><path d="m87.9 44.6-15.5-30.6-.9-1.7c-2.4-4.2-6-7.7-10.4-9.8 1.4-.7 3-1.3 4.5-1.7 1.9-.5 4-.8 6-.8h32.4.2.2c9 .1 16.8 5 20.9 12.3l.7 1.7 42.1 83.3 15.5 30.6.9 1.7c2.4 4.2 6 7.7 10.4 9.8-1.4.7-3 1.3-4.5 1.7-1.9.5-4 .8-6.1.8h-32.2-.2-.2c-9-.1-16.8-5-20.9-12.3l-.9-1.7z" fill="#ff8c44"/></svg>