<svg height="256" preserveAspectRatio="xMidYMid" viewBox="0 0 256 256" width="256" xmlns="http://www.w3.org/2000/svg"><path d="m237.248313 18.7516875c12.040333 12.0403327 18.290896 27.122748 18.747421 45.247246v128.0021335c-.456525 18.120231-6.707088 33.206914-18.747421 45.247246-12.040332 12.040333-27.127015 18.290896-45.251513 18.751687h-127.9978665c-18.124498-.460791-33.2069133-6.711354-45.247246-18.751687-12.04033268-12.040332-18.29089518-27.127015-18.7516875-45.247246v-128.0021335c.46079232-18.124498 6.71135482-33.2069133 18.7516875-45.247246 12.0403327-12.04033268 27.122748-18.29089518 45.247246-18.7516875h127.9978665c18.124498.46079232 33.211181 6.71135482 45.251513 18.7516875zm-17.655173 102.9998835c-4.023399-4.002066-6.114031-9.023849-6.280428-15.065349v-42.6872885c-.127998-6.0414994-2.201564-11.0718155-6.220697-15.0909485-4.019132-4.0233997-9.053716-6.0926985-15.095215-6.2206964h-21.311645v106.6264894l-85.3703102-106.6264894h-21.3159113c-6.0414994.1279979-11.0718155 2.1972967-15.0909485 6.2206964-4.0233997 4.019133-6.0926985 9.0494491-6.2206964 15.0909485v42.6872885c-.1663972 6.0415-2.2570291 11.063283-6.2804286 15.065349-4.0191331 3.9978-9.0494493 6.079898-15.0909485 6.246296 6.0414992.170664 11.0718154 2.252762 15.0909485 6.250562 4.0233995 4.002067 6.1140314 9.02385 6.2804286 15.065349v42.687289c.1279979 6.037232 2.1972967 11.071816 6.2206964 15.090948 4.019133 4.019133 9.0494491 6.092699 15.0909485 6.220697h21.3159113v-106.62649l85.3703102 106.62649h21.311645c6.041499-.127998 11.076083-2.201564 15.095215-6.220697 4.019133-4.019132 6.092699-9.053716 6.220697-15.090948v-42.687289c.166397-6.041499 2.257029-11.063282 6.280428-15.065349 4.019134-3.9978 9.049449-6.079898 15.090949-6.250562-6.0415-.166398-11.071815-2.248496-15.090949-6.246296z" fill="#3c5afd"/></svg>