<svg height="296" preserveAspectRatio="xMidYMid" viewBox="0 0 256 296" width="256" xmlns="http://www.w3.org/2000/svg"><path d="m127.9998.3968-128 73.901v50.567h7.576v-46.194l120.424-69.527 120.424 69.527v46.194h7.576v-50.567zm120.4245 171.2979v46.031l-120.424 69.527-120.425-69.527v-46.031h-7.575v50.404l128 73.901 127.999-73.901v-50.404zm-233.0957-88.5473 112.671-65.051 112.672 65.051v130.102l-112.672 65.051-112.671-65.051z" fill="#404040"/><path d="m98.5593 219.7297h-37.877v-132.33c0-6.122 4.963-11.086 11.086-11.086h26.791s84.175 110.632 85.008 110.102c.832-.531-26.127-39.952-26.127-39.952v-57.74c0-6.854 5.556-12.41 12.409-12.41h26.329v143.416h-34.95s-83.659-109.706-84.706-108.81c-1.048.896 22.037 33.132 22.037 33.132z" fill="#fff"/></svg>