<svg height="148" preserveAspectRatio="xMidYMid" viewBox="0 0 512 148" width="512" xmlns="http://www.w3.org/2000/svg" xmlns:xlink="http://www.w3.org/1999/xlink"><linearGradient id="a" x1="50%" x2="50%" y1="0%" y2="100%"><stop offset="0" stop-color="#16b0ed" stop-opacity=".800236"/><stop offset="1" stop-color="#0f59b2" stop-opacity=".837"/></linearGradient><linearGradient id="b" x1="50%" x2="50%" y1="0%" y2="100%"><stop offset="0" stop-color="#7db643"/><stop offset="1" stop-color="#367533"/></linearGradient><linearGradient id="c" x1="50%" x2="50%" y1="0%" y2="100%"><stop offset="0" stop-color="#88c649" stop-opacity=".8"/><stop offset="1" stop-color="#439240" stop-opacity=".84"/></linearGradient><path d="m.01880379 32.1877871 31.31341181-31.61480174-.0000006 146.99825664-31.31341121-31.249665z" fill="url(#a)"/><path d="m89.4837594 32.4862691 31.7423626-31.89620956-.643427 146.98118246-31.313411-31.249665z" fill="url(#b)" transform="matrix(-1 0 0 1 210.495406 0)"/><path d="m31.3113362.59813369 81.4115898 124.23105531-22.7814192 22.780848-81.45419289-123.9560714z" fill="url(#c)"/><path d="m31.3393522 58.2198072-.0433018 4.8930988-25.13620602-37.1096076 2.32746953-2.3709828z" fill-opacity=".13"/><g fill="#444"><g transform="translate(156.579161 40.87686)"><path d="m0 65.8186739v-62.04957914h3.22492897c1.07414941 0 1.69432806.52009396 1.86053594 1.55903465l.55816078 9.35420789c2.81188997-3.5745546 6.08767361-6.45440342 9.82983161-8.63705195 3.7409176-2.18264851 7.9072777-3.27397277 12.4965997-3.27397277 3.3898965 0 6.3779172.54129684 8.9615815 1.62139604 2.5836642 1.08134643 4.7232805 2.64038111 6.418849 4.67710395 1.6955684 2.03797013 2.9768575 4.49001983 3.8451076 7.35864353.8682501 2.8686238 1.3023751 6.1114159 1.3023751 9.7283763v39.6618415h-5.8916971v-39.6618415c0-5.8208118-1.3234613-10.3831708-3.9691434-13.6883243-2.6469224-3.30515348-6.6979294-4.9577302-12.1555014-4.9577302-4.0534877 0-7.814251 1.05016577-11.2872514 3.14925-3.4730004 2.1003315-6.57389373 4.978933-9.30267975 8.637052v46.521594z"/><path d="m85.6500551 2.77131258c3.5103288 0 6.7586369.60129906 9.7474318 1.80514209 2.9875407 1.20384303 5.5789161 2.95669826 7.7728721 5.25981054 2.193955 2.30311239 3.906495 5.13531799 5.140125 8.49661709 1.232376 3.361299 1.849191 7.2205683 1.849191 11.5778078 0 .9125305-.135398 1.5349933-.407449 1.8673884-.27205.3323951-.699559.4979702-1.282524.4979702h-45.009943v1.1826793c0 4.6473072.5428474 8.7356428 1.6297957 12.2625169 1.0856948 3.5268742 2.632747 6.4835724 4.6386493 8.8700948 2.0059024 2.3865222 4.4292836 4.18046 7.2713963 5.384303 2.8408594 1.2038431 6.0177078 1.8051421 9.5280367 1.8051421 3.1342229 0 5.8509669-.3423545 8.1489788-1.0270636 2.2980119-.684709 4.2312006-1.4528281 5.7983122-2.3031123 1.567111-.8502842 2.81077-1.6184032 3.729724-2.3031123.918955-.684709 1.588425-1.0270636 2.005903-1.0270636.542847 0 .961579.2079026 1.253689.6224628l1.629796 1.9918809c-1.002951 1.2449256-2.329354 2.4076861-3.980463 3.4857916-1.651108 1.0793505-3.490271 2.0030853-5.5162317 2.7699594-2.0272152.7681191-4.1998584 1.3793776-6.5191831 1.8362652-2.3193247.4556428-4.6486787.6847091-6.9893162.6847091-4.2625427 0-8.1489788-.7369959-11.6593083-2.2097428-3.5103288-1.472747-6.5229438-3.6202436-9.0365902-6.4424899-2.5149002-2.8222463-4.4581182-6.2769148-5.829654-10.3640054-1.3727895-4.0870907-2.0585574-8.7667659-2.0585574-14.0365359 0-4.4394046.6368741-8.5376996 1.9118758-12.2936401 1.2750017-3.7559404 3.1129098-6.9927469 5.5162317-9.7104194 2.4020682-2.71767256 5.3482373-4.84400544 8.8385073-6.3802436 3.4877634-1.53499323 7.4481666-2.30311232 11.8787042-2.30311232zm.3968734 4.15696888c-3.2532244 0-6.168815.4861952-8.7455011 1.4585856-2.5779553.97239033-4.8055828 2.37020154-6.6854209 4.19343344-1.8798386 1.823232-3.4004641 4.0111104-4.5631461 6.5636351-1.162682 2.5525248-1.9318799 5.4089215-2.312671 8.5691902h41.5696886c0-3.2417064-.465834-6.1479381-1.394964-8.7211262-.9304-2.5719725-2.239052-4.750127-3.9284945-6.5332479-1.6894427-1.7819053-3.7177899-3.1493293-6.0837717-4.10227187-2.3647126-.95172708-4.9832856-1.42819837-7.8557193-1.42819837z"/><path d="m144.486369 2.77131258c4.521761 0 8.569284.75691475 12.141298 2.27198918 3.570746 1.51507442 6.582294 3.66257102 9.034647 6.44248984 2.451084 2.7799188 4.321414 6.1312585 5.610991 10.052774 1.289577 3.9215156 1.933732 8.3098783 1.933732 13.165088s-.645423 9.233613-1.933732 13.1339648c-1.289577 3.9015968-3.159907 7.2417321-5.610991 10.0216509-2.452353 2.7799188-5.463901 4.917456-9.034647 6.4113667-3.572014 1.4939107-7.619537 2.240866-12.141298 2.240866-4.52303 0-8.569283-.7469553-12.141298-2.240866-3.572014-1.4939107-6.593707-3.6314479-9.066347-6.4113667-2.472641-2.7799188-4.354383-6.1212991-5.642692-10.0216509-1.289577-3.9003518-1.933732-8.278755-1.933732-13.1339648s.644155-9.2435724 1.933732-13.165088c1.289577-3.9215155 3.170051-7.2716103 5.642692-10.052774 2.47264-2.77991882 5.494333-4.92741542 9.066347-6.44248984 3.572015-1.5138295 7.618268-2.27198918 12.141298-2.27198918zm-.346932 59.58322062c3.700696 0 6.932412-.6362604 9.697645-1.9100337 2.763984-1.2737733 5.071463-3.0998907 6.922434-5.4796048 1.849725-2.379714 3.231717-5.2491482 4.147225-8.6108075.913013-3.3604067 1.372014-7.1278698 1.372014-11.3036418 0-4.1331875-.457754-7.8906308-1.372014-11.2723298-.915508-3.3816989-2.2975-6.2724252-4.147225-8.6734315-1.849724-2.3997538-4.157202-4.2471634-6.922434-5.5422288-2.765233-1.29381299-5.998197-1.94134569-9.697645-1.94134569-3.699449 0-6.933661.6475327-9.697646 1.94134569-2.765232 1.2950654-5.07271 3.142475-6.922434 5.5422288-1.850972 2.4010063-3.242943 5.2917326-4.178407 8.6734315-.935465 3.381699-1.403196 7.1391423-1.403196 11.2723298 0 4.1745195.467731 7.9432351 1.403196 11.3036418.935464 3.3616593 2.327435 6.2310935 4.178407 8.6108075 1.849724 2.3797141 4.157202 4.2058315 6.922434 5.4796048 2.763985 1.2737733 5.996949 1.9100337 9.697646 1.9100337z"/><path d="m210.321687 64.4330176h-13.891237l-25.301898-63.74018945h12.712963c1.11626 0 2.0564.26962224 2.821658.80762423.764018.53924448 1.292381 1.22137634 1.581369 2.05012305l12.278861 34.04446767c.702004 1.9879981 1.292382 3.9349937 1.767412 5.8397444.475031 1.9059932.89921 3.8107439 1.271296 5.7154946.372087-1.9047507.795026-3.8095014 1.271296-5.7154946.475031-1.9047507 1.085253-3.8517463 1.829427-5.8397444l12.588934-34.04446767c.288988-.82874671.806188-1.51087857 1.550362-2.05012305.744173-.53800199 1.63222-.80762423 2.666621-.80762423h12.092819z"/><path d="m239.02571 1.385656h15.935047v63.740189h-15.935047z"/><path d="m265.35318 65.1258457v-64.12583271h9.439029c2.000058 0 3.311347.93751217 3.936366 2.81253652l1.00003 4.75006166c1.125033-1.2500162 2.302568-2.39628109 3.531354-3.43754461 1.228786-1.04126353 2.541325-1.93752517 3.937616-2.6875349 1.395041-.75000974 2.895085-1.34376745 4.500133-1.78127314 1.603797-.43750568 3.363849-.65625852 5.282656-.65625852 4.040119 0 7.363967 1.09376421 9.969044 3.28129261 2.603827 2.18752841 4.552634 5.09381612 5.843922 8.71886319 1.00003-2.12502758 2.250067-3.94755123 3.750111-5.46882098 1.500044-1.52001974 3.146343-2.76003585 4.937646-3.7187983 1.791303-.95751243 3.697609-1.66627163 5.718919-2.12502759 2.02006-.45875596 4.051369-.68750893 6.09393-.68750893 3.541354 0 6.687697.54250705 9.437778 1.6250211 2.750081 1.08376408 5.06265 2.66628463 6.937705 4.75006169 1.875056 2.08377708 3.302597 4.62506001 4.281377 7.62509901.978779 3.000039 1.470043 6.4375836 1.470043 10.3126339v40.81303h-15.439206v-40.81303c0-4.083803-.896276-7.1563429-2.686329-9.2188697-1.792553-2.0625268-4.41763-3.0937902-7.876483-3.0937902-1.583797 0-3.05134.2712535-4.40513.8125106-1.355039.542507-2.542575 1.3237672-3.563855 2.3437804-1.02003 1.0212633-1.822554 2.3025299-2.406321 3.8438-.583767 1.54127-.875026 3.312543-.875026 5.3125689v40.81303h-15.499207v-40.81303c0-4.2913057-.865026-7.4163463-2.593827-9.3751217-1.730051-1.9575254-4.281377-2.9375382-7.656476-2.9375382-2.210066 0-4.281376.5525072-6.218933 1.6562715-1.938808 1.1037644-3.740111 2.615034-5.40641 4.5313089v46.9381095z"/></g><path d="m395.604871 20.784844h15.935047v13.163735h-15.935047z"/></g></svg>