<svg height="138" preserveAspectRatio="xMidYMid" viewBox="0 0 512 138" width="512" xmlns="http://www.w3.org/2000/svg"><path d="m340.657183 0v100.203061c12.359223.575018 24.687024 1.270137 36.979912 2.090245v21.244247c-19.432609-1.29531-38.946913-2.284082-58.542216-2.958323v-120.57923zm171.342817.01187107-28.077082 65.09422613 28.070099 72.4376128-.031422.013775c-8.176638-1.166585-16.36375-2.267848-24.575301-3.323549l-15.763246-40.6562562-15.913372 36.8821552c-7.541221-.832712-15.092916-1.62056-22.662067-2.358936l27.371838-63.4300444-25.067576-64.65898353h23.325414l14.03505 36.18389283 15.606138-36.18389283zm-266.906839 119.51438093-.000699-119.51476506h60.190112v21.43522046h-38.627807v27.7810192h29.227117v21.2442468h-29.227117v49.0493556zm-80.513005-98.077764-.000698-21.43811844h66.690924v21.43661794h-22.565007v98.6608115c-7.196978.188355-14.386275.41159-21.560909.682305v-99.341616zm-73.7119392 105.517736v-126.95225821h59.8898602v21.43522041h-38.331047v29.0357945c8.806121-.1127691 21.326991-.240551 29.116792-.2216979v21.2459925c-9.750868-.1211483-20.757558.133717-29.116792.2171592v32.1633055c12.739775-1.002004 25.517954-1.878671 38.331047-2.618828v21.246341c-20.05406 1.155169-40.018046 2.643338-59.8898602 4.448971zm-42.2971702-49.1121986-.0013964-77.8435508h21.5623047v128.9583624c-7.8823211.810891-15.7496297 1.673628-23.6033221 2.584509l-24.9677245-71.7288778v74.8012278c-7.2011675.937869-14.38767135 1.915714-21.5609083 2.936642v-137.55046693h20.4911722zm346.8542514 46.9650456v.00014-124.80720088h21.562305v126.58776688c-7.178125-.638944-14.363232-1.229882-21.562305-1.780706z" fill="#db202c"/></svg>