<svg height="256" preserveAspectRatio="xMidYMid" viewBox="0 0 256 256" width="256" xmlns="http://www.w3.org/2000/svg"><path d="m153.094392 165.678589-62.7849809-13.120205c-.2680042.512008-.5560087 1.008015-.8760137 1.476023l57.1568926 83.377303 3.448054-3.444054 9.724152-60.468945c-3.308051-1.388022-5.79609-4.288067-6.668104-7.820122zm-22.904358-82.0732827c-2.352037 3.6080564-6.4121 5.9960937-11.036172 5.9960937-.712011 0-1.404022-.0720011-2.084033-.1800028l-28.6324472 44.8006998 76.4971952-32.920514c-.024-.308005-.092001-.596009-.092001-.912014 0-.6440105.088001-1.2680202.192003-1.8840299zm2.080033-8.1641275 37.064579 15.8482476c1.172018-.9160143 2.508039-1.5960249 3.976062-2.0080314l6.092095-37.8805919-23.208362-23.2083626-26.124409 40.8766387c1.25202 1.8480289 2.028032 4.0240629 2.200035 6.3720996zm77.665213 6.4921014-23.260363-23.2643635-5.056079 31.4084908c1.28802.6520101 2.436038 1.5200237 3.396053 2.5840403zm-55.728871 75.4731788c1.812029-3.276051 5.156081-5.540086 9.088142-5.844091l6.680105-41.548649c-.524008-.348005-.992016-.764012-1.452023-1.192019l-76.937202 33.112518c.1960031.804012.3320052 1.624025.3960062 2.476038zm62.06497-69.1330797-26.91242 11.5801809 66.401037 28.3884438.240004-.240004zm-48.092751 85.3493337-8.088127 50.284786 46.964734-46.964734-33.828528-7.064111c-1.292021 1.684027-3.024048 2.988047-5.048079 3.744059zm-91.2854265-12.928202c-1.7000266 0-3.328052-.292005-4.8520759-.808013l-15.6002437 24.412382-6.0280942-6.024094 14.7762309-23.120362c-.3680058-.452007-.704011-.928014-1.020016-1.416022l-26.7684182 11.52418-6.3440991-6.344099 29.3004578-12.612197-52.97282772-11.056173-7.24411319-7.248113 2.29203581-2.292036 61.0849545 12.752199c.708011-1.33602 1.6080251-2.56404 2.6680416-3.616056l-29.6484632-43.2446757 5.9880935-5.9880936 30.9764841 45.1847063c1.092017-.248004 2.2240347-.396006 3.392053-.396006 1.3080204 0 2.5760402.184002 3.7880591.496007l28.9844534-45.3527084c-2.272036-2.368037-3.676058-5.5760871-3.676058-9.1161424 0-1.0400162.132002-2.048032.360006-3.0160471l-36.1605653-15.4602416 6.3440991-6.3440991 34.2605352 14.6522289c2.276036-1.8720292 5.188081-2.9960468 8.364131-2.9960468 1.500023 0 2.940046.2640041 4.288067.7280114l26.724417-41.8246535-22.168346-22.1683464-128.002 128.002 128.002 128.002 12.596197-12.596197-57.5848999-84.009312c-1.8760293.828013-3.9440616 1.29602-6.1200956 1.29602zm101.2295815-48.888764-6.796106 42.23666c2.340037 1.888029 3.900061 4.652073 4.196066 7.812122l38.572602 8.052126 35.320552-35.320552-63.752996-27.256426c-1.788028 2.376037-4.46007 4.024063-7.540118 4.47607z" fill="#25c7b7"/></svg>