<svg height="290" preserveAspectRatio="xMidYMid" viewBox="0 0 256 290" width="256" xmlns="http://www.w3.org/2000/svg"><path d="m127.866211 286.234437c-2.73999 0-5.251648-.684998-7.078308-1.598328l-110.2846071-63.476441c-3.88165281-2.283325-7.07830809-7.991638-7.07830809-12.329956v-127.4095462c0-4.3383178 3.4249878-10.0466309 7.07830809-12.3299561l110.2846071-63.47644062c1.82666-1.14166261 4.338318-1.59832765 7.078308-1.59832765 2.739991 0 5.251648.68499756 7.078309 1.59832765l110.056274 63.70477322c3.881653 2.2833252 7.078309 7.9916382 7.078309 12.3299561v127.1812136c0 4.338318-3.424988 10.046631-7.078309 12.329956l-110.056274 63.704774c-1.826661.91333-4.338318 1.369995-7.078309 1.369995z" fill="#3d3b47"/><path d="m127.866211 7.44042924c2.054993 0 4.109986.45666504 5.479981 1.1416626l110.056275 63.47644066c2.73999 1.5983276 5.47998 6.1649781 5.47998 9.3616333v127.1812142c0 3.196655-2.73999 7.763305-5.47998 9.361633l-110.056275 63.704773c-1.369995.684998-3.424988 1.141663-5.479981 1.141663-2.054992 0-4.109985-.456665-5.47998-1.141663l-110.0562749-63.47644c-2.73999024-1.598328-5.47998049-6.164978-5.47998049-9.361634v-127.4095462c0-3.1966552 2.73999025-7.7633057 5.47998049-9.3616333l110.0562749-63.47644066c1.369995-.68499756 3.424988-1.1416626 5.47998-1.1416626zm0-6.84997561c-3.196655 0-6.39331.68499756-8.904968 2.05499268l-110.05627471 63.47644069c-4.79498292 2.9683227-8.90496829 9.8182984-8.90496829 15.2982788v127.1812142c0 5.708313 3.88165285 12.558288 8.90496829 15.298279l110.05627471 63.704773c2.511658 1.369995 5.708313 2.054992 8.904968 2.054992 3.196656 0 6.393311-.684997 8.904969-2.054992l110.056275-63.704773c4.794982-2.739991 8.904968-9.589966 8.904968-15.298279v-127.1812142c0-5.708313-3.881653-12.5582886-8.904968-15.2982788l-110.056275-63.47644069c-2.511658-1.36999512-5.708313-2.05499268-8.904969-2.05499268z" fill="#ccc"/><g fill="#eff3f3"><path d="m127.866211 135.306641h.684998c3.196655.228332 6.164978 2.054992 7.991638 4.794983.91333 1.598327 1.369995 3.65332 1.369995 5.708313-.456665 5.251648-4.56665 9.1333-9.818298 9.1333h-.684998c-3.196655-.228332-6.164978-2.054992-7.991638-4.794983-.91333-1.598327-1.369995-3.65332-1.369995-5.708313.228333-5.023315 4.56665-9.1333 9.818298-9.1333zm0-.684998c-5.47998 0-10.04663 4.338318-10.503296 9.818298-.228332 2.054993.228333 4.109986 1.369996 5.936646 1.82666 2.968323 4.794983 5.023315 8.448303 5.251648h.684997c5.479981 0 10.046631-4.338318 10.503296-9.818298.228333-2.054993-.456665-4.109986-1.369995-5.936646-1.82666-2.968323-4.794983-5.023315-8.448303-5.251648z"/><path d="m128.094544 141.699951c1.82666.228333 3.424988 1.82666 3.196655 3.653321-.228332 1.82666-1.82666 3.424987-3.65332 3.196655-1.82666-.228333-3.424988-1.82666-3.196655-3.65332 0-1.826661 1.82666-3.424988 3.65332-3.196656z"/><path d="m127.866211 159.053223h-.91333c-4.56665-.228333-8.904968-2.968323-11.188293-6.849976-1.369995-2.511658-2.054993-5.251648-1.82666-7.991638.228332-3.196655 1.598327-6.164978 3.65332-8.448303v-.228333l-90.1913456 68.728089 103.6629646-45.666504c-1.141663.228332-2.054993.456665-3.196656.456665z"/></g><path d="m124.441224 131.65332c1.369995-.228332 2.73999-.456665 4.338317-.456665 4.566651.228333 8.904969 2.968323 11.188294 6.849976 1.369995 2.511658 2.054993 5.251648 1.82666 7.991638-.228332 3.424988-1.598327 6.393311-3.881653 8.676636l91.104676-67.1297611z" fill="#0977f7"/></svg>