<svg height="292" preserveAspectRatio="xMidYMid" viewBox="0 0 256 292" width="256" xmlns="http://www.w3.org/2000/svg"><path d="m120.946627 289.190209c4.258388 2.461612 9.511164 2.461612 13.769552 0l114.081433-65.830209c4.26603-2.459701 6.89194-7.007522 6.89194-11.934567v-131.7616718c0-4.9232239-2.626865-9.4681791-6.885253-11.9336119l-114.079523-65.88370154c-4.266985-2.46161194-9.519761-2.46161194-13.785791 0l-114.04991037 65.88370154c-4.26220896 2.4644776-6.88907463 7.0113432-6.88907463 11.9336119v131.7693138c0 4.919403 2.62686567 9.466268 6.8919403 11.92597l114.0537317 65.830209" fill="#76d04b"/><path d="m201.701254 114.111045-5.087523-2.927761c7.823284-11.5391049 12.49815-28.887881 6.635941-54.825075 0 0-13.201194 36.9986865-39.739224 35.7731343l-31.073433-17.8817911c-1.17206-.6954029-2.485493-1.0536119-3.813254-1.1080597h-.716418c-1.324895.055403-2.636418.413612-3.824716 1.1080597l-31.0762986 17.8817911c-26.5351642 1.2293731-39.7411344-35.7731343-39.7411344-35.7731343-5.8650746 25.9362388-1.1825671 43.2850149 6.638806 54.825075l-5.0865672 2.928716c-2.5838806 1.489194-4.1905671 4.254567-4.1905671 7.271164l.1528358 107.331821c0 1.497791.7756418 2.884776 2.0900298 3.613612 1.2838209.775642 2.8733135.775642 4.1552239 0l41.1644179-23.571104c2.6048959-1.547463 4.1886569-4.276538 4.1886569-7.259702v-50.142567c0-2.989851 1.583761-5.761911 4.177194-7.243463l17.528358-10.093851c1.305791-.760358 2.734806-1.130029 4.193433-1.130029 1.426149 0 2.892418.369671 4.16191 1.129074l17.522627 10.093851c2.594388 1.480597 4.183881 4.253612 4.183881 7.242507v50.142568c0 2.983164 1.604776 5.733253 4.193433 7.259701l41.15391 23.571105c1.291463.773731 2.903881.773731 4.183881 0 1.275224-.728836 2.077612-2.116777 2.077612-3.614568l.133731-107.33182c-.002866-3.018508-1.585672-5.783881-4.185791-7.271165z" fill="#4f4d3f"/></svg>