<svg height="256" preserveAspectRatio="xMidYMid" viewBox="0 0 256 256" width="256" xmlns="http://www.w3.org/2000/svg"><path d="m118.922624.37140771c56.561067-3.92192001 94.064213 23.75680009 115.507627 57.48010799 10.752 16.9088 21.301333 42.5898663 21.349973 68.9762133.052053 28.66944-9.235627 53.496747-21.349973 71.71328-12.450987 18.723413-28.555094 34.187947-48.721067 44.342187-33.709227 16.97408-80.8192 17.438293-111.67616 1.094826-34.3645879-18.200746-60.7863479-44.1792-70.61845474-89.23136-3.93472-18.029226-4.38698667-41.3248 1.09482667-61.3119996 1.28640012-4.68864 3.62410679-9.62304 5.47456012-14.2331733 8.89258665-22.15424 24.02858665-41.4190946 42.69952125-54.743468 7.5025067-5.3538133 16.60416-10.6786133 24.6344534-14.2331733 9.99168-4.42240001 26.8142933-8.8281601 41.6046933-9.85344009z" fill="#fff"/><path d="m226.211797 130.015782c0 53.456214-43.334826 96.788054-96.790186 96.788054-53.4553603 0-96.7893349-43.33184-96.7893349-96.788054 0-53.4549329 43.3339746-96.7901875 96.7893349-96.7901875 53.454933 0 96.790186 43.3352546 96.790186 96.7901875z"/><path d="m118.922624.37140771c56.561067-3.92192001 94.064213 23.75680009 115.507627 57.48010799 10.752 16.9088 21.301333 42.5898663 21.349973 68.9762133.052053 28.66944-9.235627 53.496747-21.349973 71.71328-12.450987 18.723413-28.555094 34.187947-48.721067 44.342187-33.709227 16.97408-80.8192 17.438293-111.67616 1.094826-34.3645879-18.200746-60.7863479-44.1792-70.61845474-89.23136-3.93472-18.029226-4.38698667-41.3248 1.09482667-61.3119996 1.28640012-4.68864 3.62410679-9.62304 5.47456012-14.2331733 8.89258665-22.15424 24.02858665-41.4190946 42.69952125-54.743468 7.5025067-5.3538133 16.60416-10.6786133 24.6344534-14.2331733 9.99168-4.42240001 26.8142933-8.8281601 41.6046933-9.85344009zm-19.16032 9.30645341c-21.00864 5.44682668-36.4125867 15.20511998-49.8158933 25.72927998-19.3275746 15.1756813-31.6488546 36.3532813-38.867628 61.8594146-8.03114677 28.3767463-2.87231998 62.7157333 8.2116267 84.3042133 11.4939733 22.388053 26.9269346 39.766613 48.7210679 52.005973 21.2032 11.907414 51.0254937 19.55328 82.1149867 13.68576 27.6224-5.213013 48.601173-17.246293 65.691733-35.035733 22.86592-23.8016 41.243734-67.641173 29.014187-113.8653866-3.26912-12.3541333-7.54304-25.23008-14.2336-36.13056-3.61472-5.8888533-8.91904-11.6821333-14.233173-17.5176533-20.055894-22.0249613-52.47104-41.00437473-94.158507-38.32021465-7.93344.51072-14.9056 1.32992-22.4448 3.28490667z"/><g fill="#fff"><g transform="translate(7.68 12.373334)"><path d="m127.896362 234.025436 111.845547-111.842987-.603391-.603405-111.845547 111.842987z"/><path d="m118.118869 225.167835 112.333227-112.331093-.603392-.603404-112.333227 112.331094z"/><path d="m108.34095 216.311515 112.82176-112.820054-.603393-.603402-112.82176 112.820053z"/><path d="m98.5630294 207.453915 113.3098666-113.3077333-.603392-.6034034-113.3098667 113.3077337z"/><path d="m88.7855366 198.596741 113.7979734-113.7962665-.603393-.6034023-113.7979736 113.7962668z"/><path d="m79.00762 189.741698 114.285653-114.2865069-.6034-.6033955-114.285653 114.2865064z"/><path d="m69.2296967 180.882394 114.7741863-114.7724795-.603393-.6034023-114.7741867 114.7724798z"/><path d="m59.4517778 172.02522 115.2618662-115.2610133-.603395-.6034-115.2618668 115.2610133z"/><path d="m49.6738606 163.168044 115.7478404-115.7491201-.603402-.6033945-115.7478396 115.7491196z"/><path d="m39.8963639 154.310447 116.2380801-116.2367998-.603395-.6034011-116.2380796 116.2367999z"/><path d="m30.1184445 145.4537 116.7261865-116.7253333-.603395-.6034-116.7261871 116.7253333z"/><path d="m20.3405245 136.596527 117.2147195-117.213867-.603395-.6034-117.2147201 117.213867z"/><path d="m10.5626039 127.738927 117.7028271-117.7015465-.603395-.60340103-117.70282659 117.70154653z"/><path d="m.78468393 118.881754 118.19093307-118.18965347-.603394-.60340106-118.19093359 118.18965353z"/></g><g transform="translate(7.68 9.386667)"><path d="m.14330767 122.999079 114.08042633 114.085546.603412-.603384-114.080427-114.085546z"/><path d="m9.39472045 113.615398 114.30229355 114.30784.603412-.603383-114.30229312-114.30784z"/><path d="m18.6461344 104.231719 114.5241596 114.52928.603412-.603384-114.5241604-114.52928z"/><path d="m27.8975477 94.8480388 114.7464533 114.7515732.603411-.603384-114.746453-114.7515735z"/><path d="m37.1485349 85.4643594 114.9683201 114.9730136.60341-.603386-114.9683199-114.9730131z"/><path d="m46.3999494 76.0806805 115.1910396 115.1948805.603408-.603388-115.1910397-115.1948802z"/><path d="m55.6513628 66.6970005 115.4129062 115.4167465.603408-.603388-115.4129064-115.4167462z"/><path d="m64.9023505 57.3133217 115.6352005 115.6381863.603405-.60339-115.6351999-115.6381863z"/><path d="m74.1537644 47.9296422 115.8574936 115.8600538.603404-.603392-115.8574931-115.8600529z"/><path d="m83.4051783 38.5459628 116.0789337 116.0810662.603403-.603392-116.0789333-116.0810665z"/><path d="m92.6565911 29.1622822 116.3012269 116.3037868.603404-.603391-116.3012265-116.3037869z"/><path d="m101.907579 19.7786034 116.52352 116.5252266.603402-.603393-116.52352-116.525227z"/><path d="m111.158992 10.39535 116.745387 116.747093.603402-.603393-116.745387-116.74709335z"/><path d="m120.410833 1.01167058 116.967253 116.96853342.603401-.603395-116.967253-116.96853291z"/></g></g><path d="m209.796224 45.2605824c-10.066347-10.0663479-22.44224-19.1372813-37.225387-24.6344546-15.323306-5.6981333-32.657066-10.50112-53.1008-8.75904-32.5657597 2.7758933-55.4308263 17.3870933-72.808533 34.4883213-12.1719479 11.9778133-21.3277879 26.6555733-27.3715213 43.7943466-8.8738133 25.1652263-8.33536 54.8684803 1.64224 80.4723203 8.51072 21.839786 22.4405346 39.455146 42.152108 53.1008 18.53056 12.828586 45.1264003 22.778026 74.9977603 20.255146 36.38272-3.072853 63.003306-21.738666 80.47232-43.246933 4.46976-5.502293 8.91392-11.721813 11.49568-19.159893 2.529706-5.35936 3.767893-9.002667 4.927146-10.948694 4.852054-10.87232 7.42272-22.34368 8.2112-35.035306 2.4256-39.0365869-12.59392-69.5278936-33.392213-90.3266136zm-10.72256 118.9324796c-.069547.14848-.13184.28672-.204373.439894-1.8048 5.1648-4.91392 9.48352-8.038827 13.304746-12.217173 14.93504-30.832213 27.89632-56.2752 30.030507-20.890027 1.75104-39.4888533-5.15712-52.4471467-14.065067-11.2605866-7.741013-19.8203733-17.323093-25.82272-28.838826-.36608-.692907-3.8519466-8.724054-3.8621866-9.077334-4.7552-14.74944-5.1677867-38.466133-.2871467-52.698453 3.2571733-9.4988799 8.6856533-19.7764266 15.8754133-27.9189333 9.9268267-11.2430933 19.8609067-18.44736 35.5831467-23.5396266 7.178667-2.3253334 13.60512-4.6920534 22.444373-4.92672 21.5552-.5738667 43.505067 9.1042133 55.290454 19.7073066 10.830506 9.7437867 23.173973 28.7240534 26.27712 46.5314133 3.1936 18.32832-.214614 36.223147-8.532907 51.051093z"/><g transform="translate(83.626667 76.373333)"><path d="m77.9810133 105.400747c-5.3077333 0-9.9656533-3.36128-11.5912533-8.3643737l-5.9118933-18.0130133h-29.5744l-5.4929067 17.8487467c-1.6580267 5.1003733-6.35136 8.5145603-11.6864 8.5145603-1.2808533 0-2.5531733-.202667-3.78154667-.601174-6.37696-1.914453-9.99722666-8.7782397-8.04352-15.291733l24.96255997-79.0711467c1.6209067-5.0299733 6.3927467-8.5384533 11.6053334-8.5384533h13.2736c5.2420266 0 10.01344 3.44874667 11.6027733 8.3869867l26.2523733 79.0417066c2.0992 6.4622934-1.3768533 13.3994667-7.7444266 15.4722137-1.2590934.408746-2.5608534.61568-3.8702934.61568z" fill="#fff"/><path d="m77.9810133 103.69408c-4.7548292 0-8.9201668-3.005772-10.3739007-7.4799143l-5.9130718-18.0166222-.2890962-.8808502h-.9270779-29.5744-.9453257l-.2780525.9035085-5.4929067 17.8487467c-1.4799127 4.5519505-5.6804592 7.6110515-10.4630218 7.6110515-1.1454098 0-2.2844988-.181177-3.3865572-.538705-5.72585372-1.719307-8.96338974-7.8690503-7.21247414-13.7064553l24.95714274-79.053547c1.4485498-4.49504423 5.7291171-7.64379937 10.3847153-7.64379937h13.2736c4.6882677 0 8.9659271 3.09201532 10.3843236 7.49913507l26.2560718 79.0530175c1.8789485 5.7843487-1.2324049 11.9983001-6.9258735 13.8516151-1.130457.366986-2.2988505.552819-3.4740953.552819zm0 2.56c1.4443342 0 2.8794331-.228252 4.2655224-.678226 7.0457291-2.293497 10.8823854-9.9560134 8.5665791-17.0851194l-26.2550035-79.0497138c-1.7565012-5.45783026-7.0215063-9.26352747-12.8175246-9.26352747h-13.2736c-5.7718208 0-11.0333856 3.87036998-12.8236382 9.42585515l-24.96487323 79.07839882c-2.15943886 7.1989261 1.8329796 14.7825787 8.89609197 16.9030247 1.32955006.431657 2.73517256.655228 4.14959276.655228 5.8927248 0 11.0752528-3.774241 12.9036952-9.3988423l5.4989896-17.8679728-1.2233781.9035084h29.5744l-1.2161741-.8808501 5.9118933 18.0130133c1.7963103 5.5285045 6.9468639 9.2452235 12.8074274 9.2452235z"/></g><g fill="#fff"><g transform="translate(61.44 19.2)"><path d="m2.13376 33.8577067-.03114667-.04224c-3.11296-4.26624-2.19946666-10.2344534 2.38506667-13.5803734 4.58453333-3.3454933 10.4738133-2.4064 13.5867733 1.8594134l.0311467.04224c3.11296 4.26624 2.1994667 10.23488-2.3850667 13.5803733-4.5845333 3.3454933-10.4738133 2.4068267-13.5867733-1.8594133zm11.80032-8.6114134-.0311467-.04224c-1.56416-2.1435733-4.47658663-2.8808533-6.74730663-1.22368-2.24981334 1.6418134-2.42474667 4.5666134-.86058667 6.7106134l.03114667.04224c1.56458666 2.1435733 4.47658663 2.8808533 6.72640003 1.23904 2.2711466-1.6571734 2.44608-4.5819734.8814933-6.7259734z"/><path d="m32.1467733 5.89525333 4.6784-1.50101333 13.1153067 15.2465067-5.2040533 1.6695466-2.2792534-2.7178666-6.7554133 2.1674666-.2474667 3.52896-5.1037866 1.6375467zm7.6970667 9.36874667-3.5490133-4.3528533-.3793067 5.6132266z"/><path d="m58.3658667 10.48192.04096-10.32661333 5.17632.02048-.0405334 10.22165333c-.0106666 2.6538667 1.3243734 3.9202133 3.37408 3.9287467 2.0497067.0081066 3.39456-1.1950934 3.4043734-3.7700267l.0413866-10.35264 5.17632.02048-.0405333 10.1952c-.0234667 5.9383467-3.4231467 8.5265067-8.6523733 8.5056-5.2288-.0213333-8.5026134-2.6884267-8.48-8.44288z"/><path d="m94.2331733 8.67754667-5.2770133-1.61066667 1.3038933-4.27221333 15.4295467 4.70912-1.303893 4.27221333-5.2770137-1.61024-4.0648533 13.3188267-4.8750933-1.4877867z"/><path d="m119.471787 13.4651733 4.243626 2.8241067-3.813546 5.7309867 5.446826 3.62496 3.813974-5.7314134 4.243626 2.8241067-10.19008 15.31264-4.244053-2.8241067 3.872427-5.81888-5.447254-3.62496-3.872 5.81888-4.243626-2.8241066z"/></g><g transform="translate(65.28 196.266667)"><path d="m130.622293 3.79008.032427.04138667c3.27424 4.14421333 2.589013 10.14400003-1.864533 13.66229333-4.453547 3.5182933-10.374827 2.8049067-13.649067-1.3393067l-.032427-.0413866c-3.27424-4.14464-2.588586-10.14400003 1.864534-13.66229337 4.453546-3.51786666 10.374826-2.80490666 13.649066 1.33930667zm-11.464106 9.0568533.032426.0413867c1.645227 2.08256 4.58368 2.7080533 6.789974.96512 2.185386-1.72672 2.24896-4.65621333.603306-6.73877333l-.032426-.04138667c-1.6448-2.08256-4.58368-2.70805333-6.769067-.98133333-2.206293 1.74293333-2.26944 4.67242663-.624213 6.75498663z"/><path d="m101.84832 32.9309867-4.608 1.7053866-13.7736533-14.6542933 5.1255466-1.8973867 2.3970134 2.6154667 6.65344-2.46272.0917333-3.5362133 5.026987-1.8606934zm-8.1019733-9.0205867 3.7371733 4.192.13184-5.62432z"/><path d="m75.4722133 29.4336.4552534 10.3163733-5.1712.2282667-.4509867-10.2114133c-.1169067-2.6513067-1.5112533-3.8519467-3.5588267-3.7614934-2.0475733.0904534-3.33312 1.3572267-3.2196266 3.9296l.4565333 10.3424-5.1712.2282667-.4497067-10.18496c-.2619733-5.9323733 3.0097067-8.68096 8.2333867-8.91136 5.2241067-.2308267 8.6225067 2.2754133 8.8763733 8.02432z"/><path d="m39.5396267 32.8068267 5.3277866 1.4382933-1.1643733 4.3127467-15.5780267-4.2048 1.1643734-4.3131734 5.3277866 1.4382934 3.6296534-13.4468267 4.9220266 1.32864z"/><path d="m14.3573333 29.0594133-4.37290663-2.6205866 3.53920003-5.9054934-5.6119467-3.36384-3.5392 5.9054934-4.37248-2.6205867 9.45664-15.77770667 4.37248 2.62101334-3.5933867 5.99552003 5.6123734 3.36384 3.5933866-5.99552 4.37248 2.6210133z"/></g></g></svg>