<svg height="255" viewBox="0 0 256 255" width="256" xmlns="http://www.w3.org/2000/svg"><g fill="none" fill-rule="evenodd"><path d="m239.483871 107.679066h-6.422939v-12.8458782c0-1.8351254-1.835126-3.6702509-3.670251-3.6702509h-21.103943c-1.835125 0-3.670251 1.8351255-3.670251 3.6702509v12.8458782h-28.444444v-6.422939c0-9.1756273-7.340502-16.5161291-16.516129-16.5161291h-61.4767025c-9.1756273 0-16.5161291 7.3405018-16.5161291 16.5161291v6.422939h-25.6917562v-8.2580646c0-2.7526881-1.8351255-4.5878136-4.5878137-4.5878136h-1.8351254v-3.6702509c0-1.8351254-.9175627-2.7526881-2.7526882-2.7526881h-16.516129c-1.8351255 0-2.7526882.9175627-2.7526882 2.7526881v3.6702509h-2.7526882c-2.7526881 0-4.5878136 1.8351255-4.5878136 4.5878136v8.2580646h-3.6702509c-9.17562721 0-16.516129 7.340502-16.516129 16.516129v113.777778c0 9.175627 7.34050179 16.516129 16.516129 16.516129h222.967742c9.175627 0 16.516129-7.340502 16.516129-16.516129v-113.777778c0-9.175627-7.340502-16.516129-16.516129-16.516129zm-111.02509 124.78853c-28.444444 0-51.3835122-22.939068-51.3835122-51.383512 0-28.444445 22.9390682-51.383513 51.3835122-51.383513 28.444445 0 51.383513 22.939068 51.383513 51.383513 0 28.444444-22.939068 51.383512-51.383513 51.383512zm29.362008-51.383512c0 16.516129-13.763441 30.27957-30.27957 30.27957s-30.2795703-13.763441-30.2795703-30.27957 13.7634413-30.27957 30.2795703-30.27957c17.433691 0 30.27957 13.763441 30.27957 30.27957z" fill="#4f4c4d"/><path d="m72.8987764 0h-69.25383758c-1.82246941 0-3.64493882 1.82246941-3.64493882 4.55617353v53.76284757c0 2.7337042 1.82246941 4.5561736 4.55617353 4.5561736h44.65050057l16.4022247 16.4022247v-16.4022247h8.2011123c2.7337041 0 4.5561735-1.8224694 4.5561735-4.5561736v-53.76284757c-.9112347-2.73370412-2.7337041-4.55617353-5.4674082-4.55617353zm-48.2954394 49.2066741h-6.3786429v-10.0235818h6.3786429zm10.9348165 0h-5.4674082v-17.3134594h6.3786429v17.3134594zm11.8460512 0h-5.4674083v-21.8696329h6.378643v21.8696329zm11.8460511 0h-6.3786429v-36.4493882h6.3786429z" fill="#e9004c"/><path d="m251.443826 0h-69.253837c-2.733704 0-4.556174 1.82246941-4.556174 4.55617353v53.76284757c0 2.7337042 1.82247 4.5561736 4.556174 4.5561736h8.201112v16.4022247l16.402225-16.4022247h44.6505c2.733705 0 4.556174-1.8224694 4.556174-4.5561736v-53.76284757c0-1.82246941-1.822469-4.55617353-4.556174-4.55617353zm-17.313459 27.3370412h-7.289878v8.2011123h7.289878v5.4674082h-7.289878v8.2011124h-5.467408v-8.2011124h-8.201112v8.2011124h-5.467408v-8.2011124h-7.289878v-5.4674082h7.289878v-8.2011123h-7.289878v-5.4674083h7.289878v-8.2011123h5.467408v8.2011123h8.201112v-8.2011123h5.467408v8.2011123h7.289878zm-21.869633 0h8.201112v8.2011123h-8.201112z" fill="#00a8e1"/><path d="m162.626919 0h-69.2538378c-2.7337041 0-4.5561735 1.82246941-4.5561735 4.55617353v53.76284757c0 2.7337042 1.8224694 4.5561736 4.5561735 4.5561736h26.4258068l8.201112 16.4022247 7.289878-16.4022247h27.337041c2.733704 0 4.556173-1.8224694 4.556173-4.5561736v-53.76284757c0-1.82246941-2.733704-4.55617353-4.556173-4.55617353zm-8.201113 26.4258065c-3.644938 12.7572858-26.425806 25.5145717-26.425806 26.4258064-.911235 0-23.692102-13.6685206-26.425806-26.4258064-3.6449393-15.49099 14.579755-24.60333709 26.425806-10.9348165 11.846051-12.75728588 30.070745-3.6449388 26.425806 10.9348165z" fill="#6cc04a"/></g></svg>