<svg height="165" preserveAspectRatio="xMidYMid" viewBox="0 0 256 165" width="256" xmlns="http://www.w3.org/2000/svg"><path d="m244.596 14.611c1.262 1.376 2.372 2.879 3.329 4.494.955 1.613 1.757 3.338 2.402 5.164.646 1.822 1.136 3.744 1.467 5.753.332 2.007.506 4.101.517 6.272l-.835 36.193c.024 4.479-.661 8.648-1.975 12.424-1.316 3.785-3.269 7.186-5.787 10.122-2.529 2.95-5.635 5.436-9.248 7.367-3.641 1.945-7.808 3.331-12.434 4.057-.095.014-.19.028-.286.043-.094.013-.19.027-.283.04-.094.013-.186.025-.275.038-.091.012-.178.024-.263.035l-87.524 9.09-.632.066-52.078 38.786-1.392-31.829-13.788 1.788c-7.956 1.032-14.787.71-20.58-.653-5.861-1.382-10.638-3.82-14.439-6.982-3.832-3.189-6.656-7.102-8.592-11.386-1.946-4.304-2.986-8.971-3.253-13.641l-.937-45.912c-.331-5.873.466-11.273 2.284-16.084 1.817-4.803 4.646-8.999 8.371-12.484 3.704-3.467 8.281-6.218 13.61-8.162 5.279-1.927 11.279-3.054 17.876-3.303.137-.005.273-.01.408-.014.136-.004.272-.008.406-.011.136-.003.269-.005.401-.008.132-.002.263-.005.391-.007l159.303-.264c2.54-.049 4.959.113 7.247.479 2.275.366 4.421.935 6.424 1.699 1.993.761 3.847 1.716 5.547 2.86 1.694 1.138 3.237 2.463 4.618 3.97zm-4.106 61.796c.151-.275.22-.462.232-.496zm-74.13 19.823c.068-.009.129-.03.182-.059.052-.028.098-.067.135-.113.038-.046.066-.1.084-.16s.028-.125.026-.195c.002-.077-.008-.151-.029-.222-.02-.072-.049-.141-.087-.206-.037-.064-.084-.124-.136-.18-.054-.057-.114-.108-.179-.151l-2.43-2.491c-.066-.07-.142-.17-.224-.294-.082-.125-.169-.274-.257-.443-.086-.167-.174-.354-.256-.553-.083-.2-.159-.413-.225-.632l-8.083-26.737 6.166-18.059c.088-.232.171-.451.252-.658s.161-.402.243-.589c.083-.187.167-.365.261-.536.09-.17.19-.333.299-.49l1.579-1.764c.086-.104.158-.195.215-.276.058-.08.101-.153.134-.217.033-.065.055-.124.068-.178.014-.055.02-.104.02-.154.001-.077-.004-.141-.017-.193-.012-.054-.032-.095-.06-.125-.028-.031-.063-.052-.108-.064-.045-.013-.1-.017-.166-.014l-9.137.21c-.092.007-.166.019-.226.036-.06.016-.104.038-.137.065-.033.026-.055.059-.069.095-.013.037-.018.078-.018.125.001.026.007.051.018.078.01.027.025.055.041.086.018.032.037.066.058.106.022.039.044.083.068.133l1.709 2.53c.112.15.206.319.281.502.074.183.127.379.156.583.028.204.032.415.007.626-.027.213-.082.426-.169.634l-6.028 17.735-.184.009-.173-42.715c0-.104-.007-.194-.021-.271-.015-.078-.038-.142-.073-.194-.034-.052-.079-.091-.138-.117-.06-.025-.133-.038-.223-.038l-8.812.023c-.099.004-.183.015-.253.033-.071.018-.127.043-.171.076-.045.034-.076.075-.097.126s-.032.111-.033.183c.001.054.008.114.022.177.013.063.035.128.065.195.03.065.068.13.117.192.048.062.106.121.174.173l2.691 2.402c.068.051.126.11.174.174.047.063.084.131.114.202s.051.146.064.222c.013.077.018.154.018.232l.369 68.715c-.001.077-.006.156-.02.23-.013.078-.031.151-.059.223-.027.07-.063.139-.109.205-.046.064-.101.125-.169.18l-2.629 2.567c-.067.056-.123.117-.171.181-.046.064-.083.132-.111.198-.029.065-.05.13-.062.192-.013.06-.019.118-.019.167.002.077.015.141.038.192.024.053.059.092.105.121.045.028.102.047.17.054.068.01.147.01.238.002l11.439-.954c.072-.009.141-.025.205-.046s.121-.05.169-.084c.048-.036.088-.079.116-.132.026-.051.043-.112.043-.184 0-.051-.011-.107-.031-.165s-.048-.119-.08-.18c-.035-.06-.074-.119-.116-.175-.042-.058-.088-.11-.133-.157l-2.151-2.15c-.066-.045-.122-.096-.168-.154-.047-.059-.083-.123-.112-.189-.028-.067-.048-.14-.061-.214-.012-.074-.018-.15-.018-.228l-.065-16.023 1.51-4.474 6.009 19.711c.045.148.074.297.089.445.014.149.014.296.003.443-.01.145-.03.289-.06.428-.03.14-.069.274-.111.403l-.97 1.579c-.044.079-.088.159-.128.236-.041.079-.08.153-.112.225-.033.072-.06.14-.08.203-.018.062-.028.12-.028.171 0 .049 0 .098.006.145.005.046.017.089.038.125.023.034.056.064.105.083.049.017.115.024.203.017zm-51.736 4.295c.585-.079 1.155-.34 1.685-.736.53-.395 1.02-.923 1.449-1.536.427-.611.793-1.307 1.073-2.037.28-.729.475-1.495.56-2.245-.002-.076-.008-.147-.02-.208-.013-.063-.031-.116-.055-.16-.024-.043-.054-.075-.089-.098-.036-.022-.077-.031-.126-.027-.049.005-.093.023-.131.05-.039.027-.075.062-.109.103-.036.042-.071.09-.108.141s-.079.106-.125.162c-.179.311-.373.584-.581.818-.208.235-.426.431-.652.594-.226.162-.459.288-.692.382-.233.093-.468.155-.699.185-.011.001-.022.002-.033.004-.011.001-.022.002-.033.004-.011.001-.023.002-.033.003-.011.002-.023.002-.033.002-.218.017-.407-.049-.566-.175-.16-.127-.291-.318-.397-.552-.104-.236-.183-.515-.236-.821-.051-.304-.078-.636-.081-.976l-.425-38.391c-.031-2.745-.438-4.941-1.087-6.689-.651-1.752-1.545-3.057-2.549-4.016-1.005-.962-2.119-1.576-3.206-1.944-1.089-.37-2.149-.493-3.044-.472-.027.001-.053.002-.081.004-.026 0-.053.001-.08.002-.027.002-.054.003-.082.004-.027.003-.054.004-.081.007-1.363.102-2.724.645-3.999 1.424-1.278.78-2.469 1.796-3.489 2.841-1.022 1.047-1.872 2.12-2.465 3.013-.594.892-.931 1.603-.926 1.922 0 .082.008.158.021.225.014.067.033.125.06.171.026.047.058.084.097.108s.085.036.137.034c.086-.006.169-.019.247-.037.077-.019.149-.042.215-.072.069-.029.131-.064.187-.105.057-.04.109-.086.154-.136.432-.489 1.006-1.015 1.668-1.531.661-.517 1.411-1.023 2.198-1.476.784-.452 1.605-.849 2.409-1.148.803-.298 1.589-.499 2.308-.556.022-.002.045-.003.069-.005.024-.001.046-.003.069-.004s.046-.003.068-.003c.023-.001.046-.002.069-.004.795-.022 1.453.033 1.995.202.54.171.964.454 1.291.888.326.436.555 1.021.706 1.792.151.773.223 1.731.237 2.913.015 1.102.027 1.989.007 2.726-.021.737-.076 1.327-.192 1.834s-.296.934-.567 1.345c-.272.411-.638.809-1.125 1.258-2.692 2.479-4.822 4.553-6.5 6.456-1.682 1.91-2.905 3.645-3.784 5.446-.879 1.802-1.411 3.668-1.712 5.839-.301 2.17-.369 4.641-.321 7.655.055 3.685.401 6.59.948 8.87.548 2.276 1.296 3.927 2.159 5.108.861 1.179 1.834 1.889 2.832 2.283s2.021.475 2.984.392c.022-.001.044-.004.065-.005.022-.002.043-.004.065-.006.022-.003.043-.006.065-.008.022-.003.044-.005.065-.009.639-.085 1.269-.289 1.879-.578.607-.288 1.194-.661 1.748-1.085.553-.423 1.073-.896 1.546-1.388.474-.488.903-.997 1.273-1.486.3.453.622.915.983 1.352.363.435.765.844 1.224 1.189.459.344.973.624 1.56.801.587.178 1.246.254 1.993.19.013-.002.025-.003.036-.003.013-.003.025-.004.038-.005.012-.001.024-.003.035-.004.012-.001.024-.003.037-.005zm-42.801-29.635c-.107-5.447-.551-9.921-1.266-13.565-.717-3.655-1.706-6.479-2.9-8.616-1.198-2.143-2.602-3.596-4.146-4.503-1.549-.911-3.238-1.273-4.999-1.231-.043 0-.088.002-.131.003-.045.002-.088.004-.131.006-.045.002-.088.005-.132.008s-.087.005-.131.009c-1.68.122-3.286.64-4.74 1.691-1.459 1.054-2.766 2.642-3.846 4.9-1.083 2.261-1.937 5.189-2.486 8.918-.551 3.727-.796 8.247-.664 13.687.17 6.977.678 12.561 1.454 17.002.774 4.428 1.813 7.719 3.047 10.122 1.23 2.394 2.653 3.908 4.2 4.785 1.541.875 3.206 1.118 4.924.977.046-.004.093-.009.139-.013s.093-.009.138-.014c.045-.004.092-.009.138-.016.046-.005.091-.01.137-.016 1.672-.221 3.254-.815 4.676-1.995 1.42-1.178 2.682-2.938 3.72-5.495 1.037-2.553 1.851-5.903 2.373-10.264.523-4.365.755-9.749.626-16.38zm62.164-24.78c.49-.013.975.045 1.441.185.467.139.916.357 1.335.665.421.308.812.704 1.162 1.196.35.494.66 1.084.918 1.779.047.128.094.25.144.361.051.11.102.209.161.291.059.081.123.148.196.192.072.045.153.067.245.064.093-.008.17-.04.231-.091s.107-.122.141-.207c.035-.086.056-.187.069-.297.014-.11.018-.231.016-.357-.006-.832-.132-1.797-.368-2.776-.235-.979-.579-1.974-1.019-2.861-.439-.889-.974-1.672-1.591-2.228-.618-.558-1.318-.889-2.088-.872-.013 0-.028 0-.041.001-.014 0-.027.002-.041.003-.014 0-.027.001-.041.001-.014.002-.027.003-.041.004-.517.039-.999.198-1.457.448s-.889.59-1.301.991c-.412.402-.805.864-1.185 1.355-.382.494-.749 1.017-1.112 1.542l-.191.007-.024-3.585c0-.104-.013-.196-.035-.274-.024-.079-.057-.144-.099-.196-.041-.051-.092-.09-.15-.115-.057-.025-.122-.036-.191-.033l-9.148.216c-.106.006-.195.019-.268.039-.074.019-.134.046-.18.081-.045.034-.077.078-.098.129-.021.053-.03.115-.028.187-.001.054.003.115.018.18.013.065.035.135.066.208s.071.149.122.226c.051.076.112.154.186.233l2.805 2.896c.073.05.135.101.185.156.049.055.089.113.119.179s.05.138.064.222c.013.083.019.176.021.283l.449 47.546c.002.105.002.203 0 .294-.003.092-.008.175-.02.255-.011.08-.028.152-.054.219-.025.066-.059.126-.105.181l-2.905 3.879c-.073.058-.132.123-.181.187-.049.066-.087.134-.116.202s-.048.135-.061.199c-.012.063-.017.123-.017.175 0 .079.012.143.035.194s.06.09.107.117c.048.03.109.047.18.056.072.008.157.008.254 0l12.573-1.044c.099-.013.184-.03.254-.052.07-.025.126-.054.171-.089.044-.037.076-.08.098-.131.02-.052.03-.112.03-.183 0-.052-.006-.109-.02-.169-.012-.061-.033-.125-.063-.186-.029-.061-.068-.123-.117-.18-.047-.058-.107-.11-.177-.155l-3.191-3.356c-.024-.049-.042-.106-.055-.168-.014-.063-.023-.134-.028-.209-.006-.079-.009-.162-.011-.253s-.003-.188-.003-.294l-.308-37.674c-.011-1.313.082-2.569.268-3.715.187-1.149.467-2.187.83-3.068s.81-1.605 1.33-2.12c.52-.516 1.113-.825 1.769-.878.011-.002.023-.003.034-.004.011 0 .023-.001.034-.001.012-.001.023-.002.033-.002.013 0 .024 0 .035-.001zm-44.16 56.485c.11-.013.203-.033.28-.056.076-.025.138-.055.185-.095.047-.039.082-.084.103-.139.022-.056.032-.121.032-.196-.001-.051-.014-.11-.038-.172-.023-.061-.056-.125-.095-.189-.038-.064-.084-.128-.134-.187-.048-.059-.1-.114-.152-.162l-3.199-3.52c-.053-.048-.093-.104-.122-.169-.03-.064-.05-.136-.064-.217s-.021-.168-.025-.262c-.005-.095-.006-.196-.008-.303l-1.251-75.39c-.001-.11-.016-.208-.041-.291-.027-.082-.064-.152-.109-.207-.048-.055-.104-.097-.167-.124-.063-.028-.134-.04-.211-.039l-10.036.025c-.086.004-.171.014-.247.033-.076.018-.144.045-.201.08-.057.036-.103.082-.133.138-.031.058-.047.127-.043.207 0 .055.015.117.039.183s.057.136.098.206c.04.07.087.139.136.205.051.067.103.129.156.183l3.22 3.23c.053.056.102.112.142.172.042.059.076.122.105.191.027.069.048.146.064.233.014.086.023.183.024.294l1.28 71.23c.002.109.003.21.002.304-.002.094-.008.183-.02.265-.011.081-.03.158-.057.229-.027.069-.064.133-.113.192l-3.139 4.062c-.053.056-.104.121-.152.189s-.092.14-.129.211c-.039.071-.07.142-.091.207-.021.067-.033.127-.032.182.001.082.02.149.056.202.034.054.083.095.143.123.059.03.128.049.202.059.074.009.154.011.232.005z" fill="#c54d2d"/><path d="m104.019 96.848c-.01.002-.019.003-.027.004-.009.002-.019.002-.027.003-.009.001-.019.001-.028.003-.009 0-.018.001-.027.001-.538.043-1.013-.072-1.424-.458-.413-.385-.761-1.043-1.048-2.084-.287-1.043-.511-2.471-.674-4.399-.163-1.929-.265-4.36-.307-7.405-.036-2.727.032-5.016.239-6.997.206-1.981.554-3.654 1.072-5.152.52-1.496 1.211-2.815 2.109-4.092.896-1.273 1.997-2.502 3.337-3.82l.2-.009.343 27.881c.005.407-.023.822-.081 1.237-.057.414-.146.827-.26 1.229-.115.403-.255.795-.42 1.166-.164.373-.351.724-.557 1.046l-1.324 1.416c-.087.057-.175.109-.263.157-.089.047-.181.09-.271.126-.092.036-.184.068-.278.093-.094.024-.189.043-.284.054" fill="#c54d2d"/><path d="m58.627 47.83c.731-.02 1.378.222 1.944.904.565.68 1.051 1.798 1.457 3.528.406 1.727.734 4.065.985 7.185.252 3.116.428 7.013.529 11.862.129 6.145.142 11.003.043 14.84-.097 3.834-.303 6.654-.613 8.721s-.724 3.382-1.234 4.203c-.51.82-1.119 1.147-1.819 1.236-.012.003-.024.004-.038.005-.013.002-.026.003-.039.004s-.026.003-.039.004c-.014 0-.026.001-.038.003-.698.055-1.32-.131-1.871-.832-.55-.7-1.029-1.915-1.438-3.921-.41-2.008-.75-4.808-1.025-8.678-.274-3.878-.482-8.831-.624-15.139-.11-4.812-.106-8.703.004-11.834.111-3.133.328-5.505.646-7.278.317-1.774.733-2.95 1.243-3.695.508-.743 1.109-1.059 1.793-1.112.012-.001.023-.001.034-.001.011-.002.022-.002.033-.003.011 0 .022-.001.033-.001.011-.001.023-.001.034-.001" fill="#c54d2d"/><path d="m52.062 1.205c-5.402.795-10.805 1.589-16.208 2.384-.76.111-1.507.235-2.24.37-.042.008-.082.018-.123.025-.269.05-.528.109-.793.163-.417.083-.839.162-1.247.253-.081.019-.16.041-.242.059-.295.069-.582.142-.873.213-.323.08-.654.153-.971.238-.123.033-.24.071-.362.103-.294.081-.582.166-.873.251-.257.076-.521.144-.774.222-.161.05-.311.105-.471.156-.277.089-.551.18-.824.273-.395.135-.785.273-1.171.414-.269.1-.536.199-.799.301-.128.05-.261.095-.388.146-.266.106-.521.221-.781.331-.235.099-.472.196-.701.297-.428.188-.843.385-1.256.584-.18.087-.365.17-.543.259-.03.014-.062.027-.092.043-.549.275-1.087.56-1.611.853-.008.004-.017.009-.024.013-.076.042-.145.088-.219.129-.419.237-.836.478-1.239.726-.051.031-.098.065-.149.097-.186.115-.364.235-.547.352-.34.221-.679.443-1.009.67-.194.136-.383.273-.574.409-.179.129-.365.256-.542.386-.097.073-.184.151-.28.224-.377.288-.745.583-1.106.881-.131.109-.272.212-.401.321-.049.041-.093.085-.141.127-.481.413-.946.834-1.397 1.264-.039.039-.084.074-.123.112-.005.004-.009.009-.013.013-.496.479-.97.971-1.428 1.469-.031.032-.065.063-.093.094-.103.113-.194.23-.294.343-.315.353-.624.709-.92 1.071-.064.077-.135.152-.198.23-.088.11-.165.225-.253.336-.139.178-.287.352-.423.531-.154.204-.294.414-.442.621-.085.115-.177.227-.26.345-.049.069-.09.141-.138.21-.343.497-.671.998-.984 1.507-.038.061-.081.119-.118.18-.006.01-.011.02-.018.03-.354.586-.686 1.179-1.003 1.779-.027.05-.057.096-.083.146-.059.114-.11.233-.169.349-.226.444-.443.89-.65 1.341-.048.105-.104.208-.152.313-.039.088-.07.179-.109.267-.269.617-.525 1.239-.759 1.867-.022.057-.047.115-.068.172-.246.669-.465 1.345-.67 2.022-.027.089-.062.176-.088.265-.035.119-.06.239-.095.358-.058.206-.123.408-.178.615-.093.346-.173.695-.256 1.045-.036.152-.077.303-.111.455-.156.692-.291 1.387-.41 2.084-.009.057-.024.112-.033.168-.019.111-.028.221-.046.332-.09.575-.168 1.151-.233 1.727-.021.172-.042.343-.06.516-.071.705-.127 1.409-.163 2.114-.001.029-.005.058-.006.087-.005.093-.002.183-.007.275-.025.602-.037 1.203-.037 1.805 0 .186 0 .373.002.56.009.706.029 1.412.072 2.112l.996 41.733c.195 3.19.7 6.2 1.494 9.016.791 2.809 1.87 5.42 3.214 7.822 1.339 2.393 2.942 4.575 4.785 6.532 1.836 1.949 3.909 3.674 6.199 5.16 4.736 3.075 9.47 6.151 14.206 9.226-2.493-1.618-4.749-3.501-6.746-5.634-2.007-2.143-3.751-4.539-5.208-7.17-1.463-2.641-2.635-5.517-3.495-8.614-.859-3.106-1.405-6.428-1.61-9.952l-.993-46.164c-.045-.776-.065-1.559-.072-2.342-.003-.205-.003-.409-.003-.614.003-.662.017-1.326.046-1.992.006-.138.008-.275.014-.413.042-.781.105-1.563.184-2.343.02-.187.044-.375.065-.562.073-.637.16-1.275.261-1.911.028-.188.055-.375.088-.562.132-.781.285-1.559.459-2.335.03-.13.065-.261.095-.392.156-.664.33-1.324.518-1.982.056-.196.112-.391.169-.587.234-.77.482-1.538.759-2.298.013-.036.029-.07.041-.107.267-.721.56-1.436.868-2.144.091-.213.186-.423.281-.632.221-.486.454-.967.695-1.445.103-.204.202-.41.308-.613.347-.657.708-1.308 1.095-1.951.04-.068.084-.132.126-.2.353-.577.724-1.148 1.11-1.712.132-.192.269-.381.404-.571.32-.449.649-.892.991-1.329.152-.197.304-.393.461-.586.33-.406.673-.805 1.021-1.2.144-.162.28-.327.427-.487.501-.549 1.017-1.089 1.557-1.616.062-.06.129-.116.191-.176.484-.466.983-.923 1.498-1.369.184-.16.378-.316.567-.473.408-.34.822-.676 1.248-1.003.283-.217.569-.433.859-.644.219-.159.436-.318.66-.475.349-.243.708-.479 1.069-.717.212-.137.419-.277.635-.413.483-.303.98-.599 1.484-.888.097-.056.19-.115.289-.171.606-.341 1.228-.67 1.862-.99.198-.098.404-.192.605-.289.441-.214.885-.426 1.342-.63.264-.118.537-.231.808-.345.409-.174.82-.345 1.24-.511.292-.115.589-.225.886-.336.415-.154.835-.305 1.261-.45.306-.105.615-.209.927-.309.43-.139.868-.271 1.308-.4.33-.097.659-.195.995-.288.473-.129.956-.251 1.44-.37.314-.078.624-.159.944-.232.551-.127 1.114-.242 1.68-.356.27-.053.532-.113.805-.164.82-.155 1.654-.296 2.504-.422.027-.003.052-.008.078-.012z" fill="#102431"/><path d="m52.061 1.205h.001c.002 0 .004-.001.004-.001s-.002.001-.005.001" fill="#102431"/><path d="m65.774 130.085c-2.982.404-5.875.612-8.679.652l1.039 21.337 17.71 12.487-1.6-35.627z" fill="#102431"/><path d="m236.933 80.387c.003.013-.036.001-.109-.03-.075-.031-.185-.083-.329-.15-.143-.07-.319-.156-.524-.257-.205-.102-.439-.217-.697-.345-.402-.198-.863-.427-1.372-.677-.511-.251-1.07-.522-1.666-.809s-1.23-.588-1.89-.896c-.66-.307-1.345-.623-2.044-.937-1.155-.518-2.345-1.033-3.516-1.511-1.177-.479-2.336-.921-3.422-1.291-1.088-.37-2.105-.667-2.99-.855-.887-.188-1.646-.266-2.217-.198-.047.005-.092.011-.137.02-.045.007-.087.015-.13.025-.042.009-.083.02-.122.032-.038.012-.076.024-.112.037.015.071.103.459.228 1.046s.286 1.375.449 2.245c.164.872.328 1.826.459 2.749.131.922.229 1.812.257 2.556.009.197.011.384.008.555-.004.172-.013.33-.027.471-.017.142-.039.268-.068.375-.03.106-.066.193-.11.261l-1.159-1.046-8.215-7.404.151 3.136-3.221 4.106 2.573-.917c.129-.021.247-.019.353 0 .105.02.198.058.278.113.079.054.145.124.197.207s.089.179.11.286c.024.122.027.246.009.365s-.053.233-.105.336c-.053.103-.122.197-.202.273-.082.077-.177.136-.282.175l-4.523 1.633.499 4.127c.014.128.005.252-.021.371-.027.119-.073.23-.133.329-.061.1-.137.187-.225.255s-.188.119-.295.145c-.145-.008-.271-.031-.378-.068-.106-.036-.195-.086-.267-.149-.073-.061-.128-.133-.169-.217-.04-.081-.067-.172-.079-.27l-.264-2.218-.128-1.079-2.633 2.876c-.035.038-.073.071-.112.101-.038.03-.078.056-.12.078-.041.022-.084.039-.127.054-.042.014-.087.023-.13.028-.059.009-.117.009-.175.002s-.114-.021-.169-.043c-.054-.023-.107-.051-.155-.088-.05-.038-.095-.082-.135-.133-.068-.085-.117-.182-.151-.285-.032-.105-.046-.214-.044-.326.003-.111.022-.222.058-.329.036-.106.088-.208.157-.298l1.816-1.993-4.912 1.137c-.032.005-.058.009-.084.012-.025.002-.048.004-.068.004-.02.001-.039 0-.055-.002-.018-.002-.034-.003-.05-.006-.08-.012-.159-.039-.231-.079-.071-.04-.137-.092-.194-.156s-.106-.14-.143-.225c-.038-.084-.064-.178-.078-.28-.013-.125-.005-.251.024-.37s.078-.231.14-.332c.064-.099.144-.186.235-.256.091-.068.193-.119.305-.144l7.246-1.654 4.457-5.679-.135-2.843c-.368-.003-.81-.017-1.313-.051-.504-.035-1.071-.091-1.688-.18-.616-.088-1.282-.208-1.987-.37-.705-.163-1.449-.369-2.215-.627l-.11 2.282-3.238 4.094 2.618-.93c.131-.02.252-.018.36.002.107.02.203.059.285.114.081.054.15.126.204.21.053.083.092.18.116.288.025.124.026.249.008.371-.017.12-.055.237-.108.342-.053.106-.123.2-.206.276-.082.077-.178.136-.285.172l-4.606 1.637-.488 2.489c-.022.107-.058.205-.105.294s-.106.169-.172.237c-.066.066-.14.122-.221.164-.08.042-.166.07-.254.081-.017.002-.032.004-.047.006-.016 0-.032.001-.048.001s-.032-.001-.048-.003c-.016-.001-.032-.002-.048-.005-.115-.022-.218-.067-.307-.131s-.164-.147-.219-.245c-.057-.097-.096-.208-.115-.326-.018-.119-.015-.244.01-.373l.174-.876-1.929 1.628c-.032.028-.064.053-.097.073-.034.021-.068.04-.102.055-.033.016-.067.028-.103.038-.034.009-.068.017-.103.021-.101-.008-.187-.019-.263-.039-.077-.018-.142-.042-.2-.072-.056-.03-.106-.065-.147-.106-.041-.042-.076-.087-.107-.141-.019-.031-.036-.063-.051-.095-.015-.033-.028-.066-.038-.1-.011-.034-.02-.069-.028-.104-.007-.036-.012-.071-.016-.106-.009-.085-.008-.17.004-.254.011-.085.033-.167.063-.245.031-.08.07-.156.12-.225.049-.069.107-.132.173-.186l1.194-1.014-3.166.181-.957.055c-.131-.016-.248-.05-.348-.1-.101-.051-.185-.118-.254-.197-.067-.08-.119-.173-.153-.275s-.05-.214-.049-.331c.001-.069.01-.135.023-.201.013-.064.032-.126.055-.186.024-.061.053-.118.086-.17.033-.054.072-.102.113-.148.034-.037.069-.07.108-.101.038-.03.079-.058.121-.081.041-.022.086-.042.132-.057.045-.015.092-.025.14-.032l6.376-.35c.024-.059.053-.115.085-.166.032-.052.067-.101.106-.144.037-.043.079-.082.124-.116.044-.034.089-.064.139-.088l4.124-5.202.107-2.187c-.199-.084-.398-.172-.598-.264-.201-.09-.402-.187-.604-.286s-.405-.204-.608-.312c-.203-.107-.407-.22-.61-.337-1.681-.965-3.377-2.232-4.973-3.896-1.604-1.671-3.106-3.742-4.389-6.305-1.29-2.572-2.36-5.64-3.09-9.292-.733-3.664-1.125-7.913-1.056-12.835 0-.079-.002-.512.001-1.152.004-.641.012-1.489.031-2.398.019-.911.05-1.883.099-2.77.048-.886.114-1.687.204-2.257-.012-.043-.085-.285-.173-.66-.089-.375-.194-.885-.275-1.467-.08-.581-.134-1.233-.12-1.895s.096-1.331.289-1.944c.038.032.244.207.542.466.295.259.682.601 1.08.968.397.365.805.754 1.145 1.108.339.353.612.67.739.893.182-.015.767.07 1.573.379.804.307 1.83.836 2.897 1.712 1.063.872 2.168 2.087 3.135 3.768.964 1.676 1.794 3.814 2.311 6.541.235.147 1.521.955 3.414 2.234 1.882 1.273 4.362 3.009 6.997 5.019 2.618 1.997 5.386 4.263 7.883 6.619 2.48 2.34 4.696 4.772 6.236 7.126.647 1.061 2.318 2.25 4.466 3.44 2.137 1.185 4.742 2.366 7.282 3.419 2.524 1.046 4.985 1.968 6.868 2.646 1.877.675 3.186 1.11 3.423 1.189-.051.027-.335.177-.756.39-.423.214-.985.491-1.592.77-.608.28-1.262.563-1.868.789-.605.227-1.163.395-1.577.446-.33.045-.515.293-.59.667-.077.374-.043.874.064 1.424.108.549.289 1.146.509 1.717.219.572.476 1.114.738 1.553.066.11.132.214.198.312.065.096.131.185.196.264.064.08.128.151.19.211s.121.111.18.149zm-24.33-18.263c.278.56.564 1.06 0 0-1.097-2.213-2.306-4.029-3.51-5.51-1.206-1.487-2.407-2.637-3.483-3.514-1.079-.879-2.029-1.484-2.732-1.877-.704-.392-1.157-.573-1.239-.606-.094-.057-.185-.106-.276-.147-.09-.041-.179-.073-.264-.098-.084-.025-.166-.044-.242-.053s-.146-.011-.21-.005c-.117.01-.21.048-.269.108-.058.062-.082.148-.061.257.022.111.088.244.211.4.122.156.3.335.544.535 1.493.582 2.833 1.29 4.035 2.085 1.198.793 2.26 1.672 3.199 2.6.937.926 1.755 1.9 2.466 2.883s1.317 1.977 1.831 2.942zm-23.192-24.455c.177-.122.328-.279.446-.459.118-.181.204-.386.255-.6.052-.214.068-.44.047-.662-.02-.223-.08-.444-.18-.649-.071-.144-.158-.27-.256-.379-.099-.108-.209-.2-.327-.271-.119-.071-.245-.124-.375-.156-.132-.031-.267-.043-.402-.033-.057.004-.113.013-.169.024-.057.012-.113.028-.169.047-.055.02-.111.044-.166.07-.054.028-.109.059-.161.096-.179.121-.329.278-.447.458-.119.18-.205.383-.257.598-.05.215-.067.439-.044.661.023.223.083.443.185.649.07.146.157.274.255.383.099.109.209.2.326.273.119.071.247.124.377.156s.264.042.4.032c.057-.005.112-.012.169-.025.056-.011.112-.027.167-.048.056-.019.111-.043.165-.07s.108-.06.161-.095z" fill="#102431"/><g fill="#fff"><path d="m119.832 41.521 9.239-.218c.069-.003.134.008.191.033.058.025.109.064.15.115.042.052.075.117.099.196.022.078.035.17.035.274l.024 3.585.191-.007c.363-.525.73-1.048 1.112-1.54.38-.493.773-.955 1.185-1.357.412-.401.843-.741 1.301-.991s.94-.409 1.457-.448c.014-.001.027-.002.041-.004.014 0 .027-.001.041-.001.014-.001.027-.003.041-.003.013-.001.028-.001.041-.001.77-.017 1.47.314 2.088.872.617.556 1.152 1.339 1.591 2.228.44.889.784 1.882 1.019 2.861.236.979.362 1.944.368 2.776.002.126-.002.248-.016.358-.012.111-.034.211-.065.296-.033.085-.077.156-.134.207-.059.051-.13.083-.219.09-.098.003-.183-.02-.259-.063-.075-.044-.142-.111-.201-.192-.061-.082-.114-.181-.165-.291-.05-.111-.097-.232-.144-.361-.258-.695-.568-1.285-.918-1.779-.35-.492-.741-.888-1.162-1.196-.42-.308-.868-.526-1.335-.665-.466-.14-.951-.198-1.441-.185-.011.001-.022.001-.034.001-.011 0-.022.001-.034.002-.011 0-.023.001-.034.002-.011 0-.022.001-.034.003-.656.053-1.249.362-1.769.878-.52.515-.967 1.239-1.33 2.12-.364.881-.643 1.919-.83 3.068-.186 1.146-.279 2.402-.268 3.715l.308 37.674c0 .106.001.204.003.294.002.091.005.174.011.253.006.075.014.146.028.209.013.062.032.119.055.168l3.191 3.356c.07.045.13.098.177.155.049.057.088.119.117.18.03.061.051.125.063.186.014.06.02.117.02.171 0 .069-.01.129-.029.18-.02.052-.049.095-.088.131-.04.035-.088.064-.147.085-.058.022-.126.038-.205.048l-12.657 1.053c-.097.008-.182.008-.254 0-.071-.009-.132-.026-.18-.056-.047-.027-.083-.066-.107-.117-.023-.051-.035-.115-.034-.194-.001-.052.004-.112.016-.175.013-.064.032-.131.061-.199s.067-.136.116-.202c.049-.064.109-.129.182-.187l2.904-3.879c.046-.055.08-.115.105-.18.026-.068.043-.14.054-.22.012-.078.017-.163.02-.255.002-.091.002-.189 0-.292l-.449-47.548c-.001-.107-.008-.2-.021-.283-.014-.084-.034-.156-.064-.221-.03-.067-.07-.125-.119-.179-.05-.056-.112-.107-.185-.157l-2.805-2.896c-.074-.077-.135-.156-.186-.233s-.091-.153-.122-.226-.054-.143-.066-.208c-.015-.065-.019-.126-.018-.18-.002-.072.007-.134.026-.185.018-.053.048-.096.089-.131.04-.034.091-.061.153-.08.061-.019.132-.031.215-.038"/><path d="m119.088 93.478c.051-.004.096.005.133.027.038.023.069.055.094.098.025.044.042.097.056.16.012.061.019.132.021.208-.085.75-.281 1.516-.561 2.245-.28.73-.646 1.426-1.073 2.037-.429.613-.919 1.141-1.449 1.536-.53.396-1.1.657-1.685.736-.013.002-.025.004-.037.005-.011.001-.024.003-.035.004-.013.001-.025.002-.038.005-.011 0-.023.001-.036.003-.747.064-1.406-.012-1.993-.19-.587-.177-1.101-.457-1.56-.801-.459-.345-.861-.754-1.224-1.189-.361-.437-.683-.901-.982-1.352-.371.489-.8.998-1.273 1.486-.474.492-.994.965-1.547 1.388-.554.424-1.141.796-1.748 1.085-.61.289-1.24.493-1.879.578-.021.004-.043.006-.065.009-.022.002-.043.005-.065.008-.022.002-.043.004-.065.006-.021.001-.044.004-.065.005-.963.083-1.986.002-2.984-.392-.999-.394-1.972-1.104-2.832-2.283-.863-1.181-1.611-2.832-2.159-5.108-.547-2.28-.893-5.185-.948-8.869-.048-3.014.02-5.486.321-7.656.301-2.171.833-4.037 1.712-5.839.879-1.801 2.102-3.536 3.784-5.446 1.678-1.903 3.809-3.977 6.5-6.456.488-.449.853-.847 1.125-1.258.271-.411.451-.838.567-1.345s.171-1.097.192-1.834c.02-.737.008-1.624-.007-2.726-.014-1.182-.086-2.14-.237-2.913-.151-.771-.38-1.356-.706-1.792-.327-.434-.751-.717-1.292-.887s-1.199-.225-1.994-.203c-.023.002-.046.003-.069.004-.022 0-.045.002-.068.003s-.045.002-.069.004c-.024.001-.047.003-.069.005-.719.057-1.505.258-2.308.556-.804.299-1.625.696-2.409 1.148-.787.453-1.537.959-2.198 1.476-.662.516-1.236 1.042-1.668 1.531-.045.05-.097.096-.152.136-.056.041-.116.076-.178.105-.063.029-.128.053-.194.071-.068.018-.136.03-.205.035-.07.003-.129-.008-.179-.032s-.09-.06-.121-.107-.052-.104-.067-.171c-.014-.067-.022-.141-.022-.225-.005-.319.332-1.03.926-1.922.593-.893 1.443-1.966 2.465-3.013 1.02-1.045 2.211-2.062 3.489-2.841 1.275-.779 2.636-1.322 3.999-1.424.027-.003.054-.004.081-.007.028-.001.055-.002.082-.004.027-.001.054-.002.08-.002.028-.002.054-.003.081-.003.895-.022 1.955.101 3.044.471 1.087.368 2.201.982 3.206 1.944 1.004.959 1.898 2.264 2.549 4.016.649 1.748 1.057 3.944 1.087 6.689l.425 38.391c.003.339.03.672.081.976.053.306.131.585.236.821.106.234.237.425.397.552.159.126.347.192.566.175.01 0 .022 0 .033-.002.01-.001.021-.002.032-.003.012-.002.022-.003.034-.004.011-.002.022-.003.033-.004.231-.03.466-.092.699-.185.233-.094.466-.22.692-.382.226-.163.444-.359.652-.594.208-.234.402-.507.581-.818.046-.056.088-.111.125-.162s.071-.098.105-.141c.034-.041.069-.076.106-.103.037-.025.077-.044.124-.05zm-11.331-3.154-.343-27.881-.2.009c-1.34 1.318-2.44 2.547-3.337 3.82-.898 1.277-1.589 2.596-2.109 4.092-.518 1.498-.864 3.171-1.072 5.152-.207 1.981-.275 4.268-.239 6.997.042 3.045.144 5.476.307 7.405.163 1.928.387 3.356.674 4.399.287 1.041.635 1.699 1.048 2.084.411.386.886.501 1.425.458.008-.001.017-.001.026-.001.009-.002.018-.002.018-.002.018-.002.028-.002.037-.004.008-.001.017-.002.027-.004.527-.068 1.027-.329 1.48-.726.452-.399.857-.933 1.195-1.55.337-.617.608-1.316.792-2.042s.28-1.48.271-2.206z"/><path d="m188.619 34.46c.135-.01.27.002.402.033.13.032.256.085.375.156.118.071.228.163.327.271.098.109.185.235.256.379.1.205.16.426.18.649.021.222.005.448-.047.662-.051.214-.137.419-.255.6-.118.18-.269.337-.446.459-.053.035-.107.068-.16.095-.055.027-.11.051-.166.07-.055.021-.111.037-.167.048-.057.013-.112.02-.169.025-.136.01-.27 0-.4-.032s-.258-.085-.377-.156c-.117-.073-.227-.164-.326-.273-.098-.109-.185-.237-.255-.383-.102-.206-.162-.426-.185-.649-.023-.222-.006-.446.044-.661.052-.215.138-.418.257-.598.118-.18.268-.337.447-.458.052-.037.107-.068.161-.096.055-.026.111-.05.166-.07.056-.019.112-.035.169-.047.056-.011.112-.02.169-.024"/><path d="m255.399 28.923c-.388-2.338-.961-4.585-1.712-6.716-.752-2.138-1.682-4.161-2.783-6.045-1.105-1.889-2.381-3.64-3.823-5.225-1.552-1.707-3.276-3.209-5.16-4.502-1.893-1.3-3.947-2.388-6.15-3.258-2.214-.876-4.58-1.531-7.082-1.958-2.516-.431-5.172-.63-7.953-.593l-159.513-.626c-.148.002-.295.004-.443.007-.147.001-.293.003-.439.006-.147.003-.294.007-.439.009-.146.004-.292.008-.437.013-8.937.287-16.481 1.942-22.752 4.611-6.34 2.699-11.344 6.419-15.163 10.782-3.84 4.388-6.464 9.403-8.053 14.659-1.589 5.263-2.132 10.746-1.824 16.062l.993 46.163c.398 6.831 2.069 12.9 4.843 18.087 2.755 5.152 6.588 9.415 11.326 12.688 4.69 3.24 10.254 5.499 16.52 6.689 3.685.7 7.613 1.019 11.74.961 2.804-.04 5.697-.248 8.679-.652l8.47-1.151 1.6 35.627 58.242-43.7 86.856-9.479c.102-.014.204-.028.306-.044.103-.016.204-.032.308-.047.101-.016.203-.033.305-.049.102-.017.204-.033.306-.049 5.195-.843 9.87-2.444 13.95-4.685 4.046-2.223 7.521-5.08 10.348-8.465 2.814-3.369 4.996-7.27 6.466-11.603 1.469-4.327 2.236-9.1 2.212-14.227l.857-36.04c-.01-2.493-.213-4.917-.601-7.25zm-3.923 43.564c.024 4.479-.661 8.648-1.975 12.424-1.316 3.785-3.269 7.186-5.787 10.121-2.529 2.951-5.635 5.437-9.248 7.368-3.641 1.945-7.808 3.331-12.434 4.057-.095.014-.19.028-.286.043-.094.013-.19.027-.284.04-.093.013-.185.025-.274.038-.091.012-.178.024-.263.035l-87.524 9.09-.632.066-52.078 38.786-1.393-31.829-13.493 1.75-.294.038c-3.062.399-5.955.591-8.689.604-4.369.022-8.328-.42-11.891-1.257-5.861-1.382-10.638-3.82-14.439-6.982-3.832-3.189-6.657-7.102-8.592-11.386-1.946-4.304-2.986-8.971-3.253-13.641l-.938-45.912c-.331-5.873.467-11.273 2.285-16.084 1.817-4.803 4.646-8.998 8.371-12.484 3.704-3.467 8.281-6.218 13.61-8.162 5.279-1.927 11.279-3.054 17.876-3.303.137-.005.272-.009.408-.013.136-.005.272-.009.406-.012.136-.003.269-.006.401-.008.132-.004.263-.005.391-.007l159.303-.264c2.54-.049 4.959.113 7.247.479 2.275.366 4.421.935 6.424 1.699 1.993.761 3.847 1.716 5.547 2.86 1.694 1.138 3.237 2.463 4.618 3.97 1.262 1.376 2.372 2.879 3.329 4.494.954 1.613 1.757 3.338 2.402 5.164.645 1.822 1.136 3.744 1.467 5.753.332 2.007.506 4.101.517 6.272z"/><path d="m201.639 50.617c.082.033.535.214 1.239.606.703.393 1.653.998 2.732 1.877 1.076.877 2.277 2.027 3.483 3.514 1.204 1.481 2.413 3.297 3.51 5.51-.514-.965-1.12-1.959-1.831-2.942s-1.529-1.957-2.466-2.883c-.939-.928-2.001-1.807-3.199-2.6-1.202-.795-2.542-1.503-4.035-2.085-.244-.2-.422-.379-.544-.535-.123-.156-.189-.289-.211-.4-.021-.109.003-.195.061-.257.059-.06.152-.098.269-.108.064-.006.134-.004.21.005s.158.028.242.053c.085.025.174.057.264.098.091.041.182.09.276.147"/><path d="m140.613 20.719 8.896-.024c.09 0 .163.013.223.038.059.026.104.065.138.117.035.052.058.116.073.194.014.077.021.168.021.271l.173 42.715.184-.009 6.028-17.735c.087-.208.142-.421.169-.634.025-.211.021-.422-.007-.626-.029-.204-.082-.4-.156-.583-.075-.183-.169-.352-.281-.502l-1.709-2.53c-.024-.05-.046-.094-.068-.133-.021-.04-.04-.074-.058-.105-.016-.032-.031-.06-.041-.087-.011-.027-.017-.052-.018-.078 0-.047.005-.088.018-.125.012-.036.03-.067.059-.094.028-.027.066-.049.114-.065.049-.017.108-.027.182-.034l9.214-.212c.066-.004.121 0 .166.013.045.012.08.033.108.064.028.03.048.071.06.125.013.052.018.116.017.193 0 .05-.006.101-.02.154-.013.054-.035.113-.068.178-.033.064-.076.137-.134.217-.057.081-.129.172-.215.276l-1.579 1.764c-.109.157-.209.32-.299.49-.094.171-.178.349-.261.536-.082.187-.162.383-.243.589-.081.208-.164.426-.252.658l-6.166 18.059 8.083 26.737c.066.219.142.432.225.632.082.199.17.386.256.554.088.168.175.317.257.442.082.124.158.224.224.294l2.429 2.491c.066.043.126.094.18.151.052.056.099.116.136.18.038.065.067.134.087.206.021.071.031.145.029.222.002.07-.008.135-.026.195s-.045.113-.08.16c-.034.046-.076.083-.126.112-.047.029-.102.047-.162.056l-9.729.811c-.088.007-.154 0-.203-.017-.049-.019-.082-.049-.105-.083-.021-.036-.033-.079-.038-.125-.006-.047-.006-.096-.006-.145 0-.051.01-.109.028-.171.02-.063.047-.131.08-.203.032-.072.071-.146.112-.225.04-.077.084-.157.128-.236l.97-1.579c.043-.129.081-.263.111-.403.03-.139.05-.283.06-.428.011-.147.011-.294-.003-.443-.015-.148-.044-.297-.089-.445l-6.01-19.711-1.509 4.474.065 16.024c0 .077.005.153.018.227s.033.147.061.214c.029.067.065.13.112.189.046.058.102.11.168.154l2.151 2.15c.045.047.091.099.133.157.042.056.081.115.116.175.032.061.06.122.08.18s.031.115.031.165c0 .072-.017.133-.043.184-.027.053-.066.096-.112.131-.045.035-.099.063-.157.082-.058.021-.12.036-.181.043l-11.479.96c-.09.008-.17.008-.238-.002-.068-.007-.125-.026-.17-.054-.046-.029-.081-.068-.105-.121-.023-.051-.036-.115-.038-.192 0-.049.006-.107.019-.167.013-.062.033-.127.062-.192.028-.066.066-.134.111-.198.048-.064.104-.125.171-.181l2.631-2.567c.066-.055.121-.116.167-.18.046-.066.082-.135.109-.205.028-.072.046-.145.059-.223.014-.074.019-.153.02-.23l-.369-68.715c0-.078-.005-.155-.018-.232-.014-.076-.035-.151-.064-.222-.03-.071-.067-.139-.114-.202-.049-.064-.106-.123-.174-.173l-2.691-2.403c-.069-.052-.126-.111-.175-.173-.048-.062-.086-.127-.116-.192-.03-.066-.052-.132-.065-.195-.014-.063-.021-.123-.022-.177.001-.072.012-.132.031-.183.02-.051.05-.092.088-.126.04-.033.088-.058.146-.075.059-.018.126-.028.205-.033"/><path d="m74.73 20.904 10.082-.027c.077-.001.147.011.211.039.063.027.119.069.166.124.045.056.082.125.109.207.025.083.04.181.041.291l1.251 75.39c.002.107.004.208.008.303.004.094.011.182.025.262.014.081.034.153.064.218.03.064.069.12.122.168l3.199 3.52c.052.048.104.103.152.162.05.059.096.123.134.187.039.064.072.128.095.189.024.062.037.121.038.172 0 .075-.01.14-.031.196-.021.055-.05.1-.093.138-.041.038-.093.068-.157.092-.063.023-.138.039-.224.052l-13.605 1.13c-.078.006-.158.004-.231-.005-.075-.009-.144-.029-.203-.057-.06-.03-.109-.071-.143-.125-.036-.053-.055-.12-.055-.202-.002-.054.01-.115.031-.182.021-.065.052-.136.091-.207.037-.071.081-.143.13-.211.047-.068.099-.133.151-.189l3.139-4.062c.049-.059.086-.123.113-.192.027-.071.046-.148.057-.229.012-.082.018-.171.02-.265.001-.094 0-.195-.002-.304l-1.28-71.23c-.001-.111-.01-.208-.024-.294-.015-.087-.037-.164-.064-.233-.029-.069-.063-.132-.105-.191-.04-.06-.089-.116-.142-.172l-3.22-3.23c-.053-.054-.105-.116-.155-.183-.05-.066-.097-.135-.137-.205-.041-.069-.074-.14-.099-.206-.024-.066-.038-.128-.039-.182-.003-.081.013-.15.043-.208.03-.056.074-.102.128-.138.054-.035.118-.062.188-.079.069-.019.145-.03.221-.032"/><path d="m58.512 42.975c1.761-.042 3.449.32 4.999 1.229 1.544.909 2.948 2.362 4.146 4.505 1.194 2.137 2.183 4.961 2.9 8.616.715 3.644 1.159 8.118 1.266 13.565.129 6.631-.103 12.015-.626 16.38-.522 4.361-1.336 7.711-2.373 10.264-1.038 2.557-2.3 4.317-3.72 5.495-1.424 1.18-3.004 1.774-4.676 1.995-.046.006-.091.011-.138.016-.045.007-.092.012-.137.016-.045.005-.092.01-.138.014s-.093.009-.139.013c-1.718.141-3.383-.102-4.924-.977-1.547-.877-2.97-2.391-4.2-4.785-1.234-2.403-2.273-5.694-3.047-10.122-.776-4.441-1.284-10.025-1.454-17.002-.132-5.44.113-9.96.664-13.687.549-3.729 1.403-6.657 2.485-8.918 1.081-2.258 2.388-3.846 3.847-4.9 1.454-1.051 3.06-1.569 4.74-1.692.044-.003.087-.006.131-.008.044-.003.087-.006.132-.008.043-.002.086-.004.131-.006.043-.001.088-.003.131-.003zm5.03 28.334c-.102-4.849-.277-8.746-.529-11.862-.251-3.12-.579-5.458-.985-7.185-.406-1.73-.892-2.848-1.457-3.528-.566-.682-1.213-.924-1.944-.905-.011.001-.023.001-.034.001-.011.001-.022.001-.033.002-.012.001-.023.001-.033.003-.011 0-.022 0-.034.001-.685.053-1.285.369-1.793 1.112-.51.745-.926 1.921-1.244 3.695-.317 1.773-.534 4.145-.645 7.278-.11 3.131-.114 7.022-.004 11.833.142 6.309.35 11.262.624 15.139.274 3.871.615 6.67 1.025 8.679.409 2.006.888 3.221 1.438 3.921.551.701 1.173.887 1.871.832.012-.002.025-.003.038-.003.013-.001.026-.003.039-.004s.026-.002.039-.005c.014 0 .026-.001.038-.004.7-.089 1.309-.416 1.819-1.236.51-.821.924-2.136 1.234-4.203s.516-4.887.613-8.72c.099-3.838.086-8.696-.043-14.841z"/></g></svg>