<svg height="259" preserveAspectRatio="xMidYMid" viewBox="0 0 256 259" width="256" xmlns="http://www.w3.org/2000/svg"><path d="m94.0285884 57.2132548c18.6828266-15.5590584 49.2595566-15.5623797 67.9457056 0l80.015658 66.6320952c18.679506 15.560718 18.682826 41.014219-.003321 56.576582l-80.012337 66.630433c-18.68947 15.564025-49.2662 15.559059-67.9457056 0l-80.0156417-66.630433c-18.68282697-15.559058-18.68282697-41.015864-.0033214-56.576582z" fill="#015965"/><path d="m94.0285884 35.5614737c18.6828266-15.5590583 49.2595566-15.5623797 67.9457056 0l80.015658 66.6320953c18.679506 15.56238 18.682826 41.017524-.003321 56.578242l-80.012337 66.630418c-18.68947 15.564057-49.2662 15.559042-67.9457056 0l-80.0156417-66.630418c-18.68282697-15.560718-18.68282697-41.01588-.0033214-56.578242z" fill="#e5e5e5"/><path d="m161.974294 12.3187941 80.015658 66.6320948c18.679506 15.5623796 18.682826 41.0175241-.003321 56.5782421l-80.012337 66.630435c-18.68947 15.564023-49.2662 15.559058-67.9457056 0l-80.0156417-66.630435c-18.68282697-15.560718-18.68282697-41.0158625-.0033214-56.5782421l80.0189631-66.6320948c18.6828266-15.55905831 49.2595566-15.56237969 67.9457056 0z" fill="#35bbce"/><path d="m244.310409 81.0995505c-.735738-.7081263-1.4931-1.4046168-2.300238-2.0761731l-80.021254-66.6935316c-18.687836-15.57711687-49.267309-15.57379234-67.9518399 0l-80.0261871 66.6935316c-18.68119189 15.5787791-18.68119189 41.0580286.0033217 56.6334836l8.6114847 7.176012c22.5160846-27.041798 98.4482866-101.9801642 221.6847126-61.7333225z" fill="#fff" opacity=".15"/></svg>