<svg height="209" preserveAspectRatio="xMidYMid" viewBox="0 0 256 209" width="256" xmlns="http://www.w3.org/2000/svg"><path d="m231.941469 142.042393c-3.532931 0-6.955863.771985-9.979805 2.145959-1.325973-.805985-1.998961-1.587969-3.998922-2.349955v-89.124259l-90.212237-52.49997458-75.7625204 44.72112648c-1.2859749-.7529853-2.5799497-1.5389699-3.9069238-2.3429542-.1089979-13.1677429-10.8427881-23.8475342-24.0355305-23.8475342-13.260741 0-24.0455303 10.7887892-24.0455303 24.0495302s10.7907893 24.0495302 24.0515303 24.0495302c3.5329309 0 7.0308626-.7719849 10.0548035-2.1459581 1.2529756.7619851 2.8599441 1.5019708 3.8599246 2.2239566v89.9302426l90.0842406 52.142982 76.496506-44.746126c1.123977.661987 2.229956 1.344974 3.384934 2.04596.109997 13.167743 10.834788 23.847534 24.02753 23.847534 13.260741 0 24.040531-10.789788 24.040531-24.05053 0-13.260741-10.79779-24.04953-24.058531-24.04953" fill="#b8c6c9"/><g fill="#759bc5" transform="translate(13 15)"><path d="m114.875896 179.068631 77.148377-45.140429v-88.6491341l-77.152379-44.91906007-77.1063575 45.54811117v88.542956z"/><path d="m229.932656 151.290213c0 6.048107-4.897245 10.950298-10.937015 10.950298-6.040769 0-10.937015-4.902191-10.937015-10.950298 0-6.047105 4.896246-10.950298 10.937015-10.950298 6.03977 0 10.937015 4.903193 10.937015 10.950298"/><path d="m.07225188 27.7838332c0-6.0471047 4.89624522-10.950298 10.93701532-10.950298 6.0397695 0 10.9370152 4.9031933 10.9370152 10.950298 0 6.0471048-4.8972457 10.950298-10.9370152 10.950298-6.0407701 0-10.93701532-4.9031932-10.93701532-10.950298"/></g><path d="m232.0958 172.749399c-3.619979 0-6.564401-2.945424-6.564401-6.565403s2.944422-6.564402 6.564401-6.564402 6.564402 2.944423 6.564402 6.564402-2.944423 6.565403-6.564402 6.565403zm-89.159368 7.355052c7.144878-10.292469 15.612847-25.042608 20.822134-42.760187 11.066106 2.270869 21.394605 5.950897 32.598825 11.541498zm-53.9213725-102.0639879c-1.7264207 7.2029273-2.9093941 14.87424-3.1766141 22.9448819-10.0582768.003002-19.8583413.003002-30.8674006.003002v-35.4171448c11.0090593 5.9348837 22.5975955 9.9361764 34.0440147 12.4692609zm-64.9814731-28.6936119c-3.6199789 0-6.5654026-2.9444229-6.5654026-6.5644018s2.9454237-6.5644019 6.5654026-6.5644019c3.6199788 0 6.5644019 2.944423 6.5644019 6.5644019s-2.9444231 6.5644018-6.5644019 6.5644018zm87.4249416-19.1627691c-7.177907 10.024249-15.3936672 24.0828178-20.5248897 41.1348499-10.3455133-2.2508523-20.1035432-5.7687471-30.6091882-10.9650232zm19.385953 97.0808869c.006005-2.691214.014012-5.424463.022018-8.188738 5.672668-1.136935 10.175373-5.512536 11.523483-11.106139 6.931704.006005 13.555154.010008 20.052501.011009-.264218 7.480155-1.347109 14.677078-2.990461 21.49669-8.787231-1.429176-18.114907-2.103732-28.607541-2.212822zm-.01201 7.000761c9.866119.101083 18.591299.700578 26.780037 1.974625-6.9267 22.824783-19.52907 40.671469-26.634917 49.494729-.121101-16.324433-.16914-33.120254-.14512-51.469354zm-39.8818186 4.053337c5.1402298 17.120087 13.3659986 31.12161 20.5509116 41.065792l-52.4841895-30.33196c6.4242866-3.018483 17.4403517-7.492165 31.9332779-10.733832zm22.5365456-30.345973c1.327091 5.502528 5.708697 9.821082 11.25326 11.041086-.009007 2.791297-.017014 5.551569-.023019 8.268804-10.809896.18215-20.715047 1.321088-29.5453129 2.970445-1.7003992-6.985749-2.8123141-14.432876-3.0615193-22.268324 6.9647313-.002003 14.0165342-.006005 21.3765912-.012011zm11.225237-26.2756215c.007005 2.762273.015012 5.5175403.024019 8.2688043-5.530551 1.2180023-9.903149 5.5195421-11.240249 11.0040552-7.360057.006005-14.4108587.010008-21.3745891.01301.2672199-7.6522963 1.3511118-14.926282 2.9984674-21.7579038 9.0844757 1.5823021 18.7113977 2.3369231 29.5923517 2.4720343zm-.069057-53.7372203c.009007 15.3556361.019015 31.0845794.052043 46.7344577-10.243429-.1261038-19.26085-.7946539-27.7338223-2.2148226 7.1218603-23.3041769 20.2746843-40.6764726 27.6787773-49.14344zm38.968067 43.1505084c-5.194274-17.3482758-13.51312-31.7681419-20.568926-41.8814641l53.775251 31.2717334c-6.640464 3.0154815-18.1069 7.4861604-33.206325 10.6097307zm-32.841025-43.1545117-.003002-4.6988667c7.014771 8.5750564 19.692204 26.2175744 26.716985 49.0053264-8.060633 1.367125-16.996987 2.291886-26.66194 2.4269971-.033028-15.6488773-.043036-31.3778207-.052043-46.7334568zm-2.832331 84.4104621c-4.343574 0-7.877482-3.533909-7.877482-7.877483 0-4.343575 3.533908-7.8774827 7.877482-7.8774827 4.343575 0 7.877482 3.5339077 7.877482 7.8774827 0 4.343574-3.533907 7.877483-7.877482 7.877483zm-3.083537 73.845766c-7.312017-8.343866-20.581937-25.7632-27.8008776-49.143439 8.3118406-1.539267 17.5934776-2.602142 27.6517546-2.78329-.02402 18.518238.025021 35.457176.149123 51.926729zm17.524421-85.245147c-1.36112-5.5745878-5.85582-9.9321736-11.516477-11.0651059-.008007-2.7312476-.016014-5.4674991-.023019-8.2097558 10.398557-.1371128 19.957422-1.1309306 28.529476-2.6031421 1.694395 6.9256992 2.811314 14.2537293 3.075531 21.8900138-6.500348-.002002-13.129804-.006006-20.065511-.01201zm57.71149-.010008c-10.008235.014011-21.207451.022018-31.8382.022018-.257211-8.0666385-1.55628-15.7769834-3.291708-23.0429626 16.321431-3.3857861 29.124967-8.2928241 35.129908-11.4884538zm-145.1194182 7.032786c11.0090593 0 20.8521592 0 30.905432-.003002.2432002 8.296828 1.3310954 16.153292 3.0825366 23.505343-15.6198535 3.494876-26.9822036 8.377894-33.9879686 11.589536zm110.2457212 22.615611c1.678381-7.150884 2.616153-14.721115 2.872364-22.623617 10.628746-.001001 21.993098-.008007 32.001333-.023019v35.32707c-11.009059-6.128042-22.947884-10.183379-34.873697-12.680434zm66.879034 20.261673c-4.113384 0-8.042618 1.638348-10.796884 4.286527-4.159423-2.609147-8.197746-4.990106-12.20104-7.171901v-90.2362554l-81.375965-47.436035-76.5860222 45.2442314c-4.0873634-2.2878827-8.2778118-4.8169639-12.7454882-7.6192699.5794768-1.6133276.93577-3.3427507.93577-5.1522397 0-8.4459502-6.8596447-15.3166041-15.3055949-15.3166041s-15.31059905 6.8706539-15.31059905 15.3166041c0 8.4459501 6.87465715 15.3176048 15.32060735 15.3176048 4.1133848 0 7.6162674-1.6383482 10.3715347-4.2865274 4.0823593 2.5601067 8.5590431 4.9000323 11.5615139 7.0488005v91.0229027l81.7562774 47.11477 77.60486-45.284264c3.918225 2.206816 8.038615 4.638818 12.307128 7.31602-.579477 1.613328-.882726 3.342751-.882726 5.15224 0 8.44595 6.885665 15.317605 15.331616 15.317605 8.44595 0 15.324611-6.871655 15.324611-15.317605s-6.863648-15.316604-15.309599-15.316604z" fill="#343532"/></svg>