<svg height="294" preserveAspectRatio="xMidYMid" viewBox="0 0 512 294" width="512" xmlns="http://www.w3.org/2000/svg"><path d="m101.2137 56.8035c0-24.76-20.258-45.019-45.019-45.019-24.76 0-45.018 20.259-45.018 45.019v3.216h90.037zm9.4283.2029v3.247h90.911v-3.247c0-25.001-20.455-45.456-45.455-45.456-25.001 0-45.456 20.455-45.456 45.456zm190.8136.0011c0-25.975-21.754-46.754-47.728-45.456-24.352 1.299-43.183 22.404-43.183 46.755v1.948h90.911zm52.1741-45.4556c-24.351 1.299-43.183 22.403-43.183 46.754v1.948h90.911v-3.246c0-25.975-21.753-46.755-47.728-45.456zm99.9024 0c-24.351 1.299-43.183 22.403-43.183 46.754v1.948h90.911v-3.246c0-25.975-21.753-46.755-47.728-45.456z" fill="#e53a35"/><path d="m11.488 113.64h89.165v-54.323h-89.165zm99.902 0h89.415v-54.323h-89.415zm161.86-21.6404h-3.122c-10.302 0-19.378-6.771-19.378-17.073v-15.61h-40v43.707c0 3.435 1.316 7.248 2.252 10.057h86.829c-4.058-10.926-14.405-21.081-26.581-21.081zm-4.7622-9.5h26.262c3.434 0 6.244-4.139 6.244-7.573v-15.61h-40.244v15.61c0 3.434 4.304 7.573 7.738 7.573zm42.4572 31.5004h89.415v-54.683h-89.415zm99.903-.61h89.415v-54.073h-89.415z" fill="#f05323"/><path d="m56.1951 212.9479c24.76 0 45.019-20.258 45.019-45.019h-90.038c0 24.761 20.259 45.019 45.019 45.019zm95.6037 8.7102.201-8.659c2.186.313 2.114.625 4.299.625 24.039 0 45.451-21.586 45.451-45.625h-90.75v53.659zm102.2012-8.1585c24.976 1.249 47.5-20.774 47.5-45.75h-90.75c.624 23.102 20.148 44.501 43.25 45.75zm57.3333-45.625c.624 23.102 19.281 43.793 42.384 45.042 24.975 1.248 46.533-20.066 46.533-45.042zm100.2084.125c.624 23.102 17.958 45.125 46.833 45.25 21.625.125 41.5-20.274 41.5-45.25z" fill="#f88c1f"/><path d="m151.25 262.2435v-40.585l-40-.494v40.585c0 10.303 9.57 20.75 19.872 20.75s20.128-9.954 20.128-20.256" fill="#fcb316"/><path d="m11.863 168.585h88.79v-56.195h-88.79zm99.387 0h89.5v-56.195h-89.5zm139.125-18.7318c0-3.434-3.429-7.104-6.863-7.104h-24.975c-3.435 0-7.037 3.67-7.037 7.104v18.732h38.875zm50.5 18.7317v-46.829c0-3.434-.624-6.556-1.561-9.366h-86.314c3.746 10.927 14.949 19.61 27.125 19.61h3.122c10.302 0 18.253 7.551 18.253 17.853v18.732zm92.6006-21.5853h-24.976c-3.434 0-7.125 3.518-7.125 6.952v14.673l38.875-.04v-14.673c0-3.434-3.34-6.912-6.774-6.912zm-82.2256-34.6098s.125 55.883.125 56.195h39.125l.125-12.835c0-10.303 7.698-17.375 18-17.375l25.75-.5c3.434 0 6-3.441 6-6.875l.125-18.61zm100 56.1951h39.25l-.25-12.71c0-10.303 8.323-17.625 18.625-17.625l25.375-.375c3.434 0 6.125-3.316 6.125-6.75l-.125-18.75-89 .015zm82.8811-21.9603h-25.838c-3.435 0-7.168 3.853-7.168 7.287v14.673h39.25v-14.673c0-3.434-2.81-7.287-6.244-7.287z" fill="#ed6d23"/><path d="m455.8052-.0005c-21.854 0-40.586 12.488-49.952 30.595-9.365-18.107-28.097-30.595-49.951-30.595-21.853 0-40.585 12.488-49.951 30.595-9.366-18.107-28.098-30.595-49.951-30.595-21.854 0-40.586 12.488-49.951 30.595-9.366-18.107-28.098-30.595-49.952-30.595-21.853 0-40.585 12.488-49.951 30.595-9.366-18.107-28.097-30.595-49.951-30.595-30.907 0-56.195 25.288-56.195 56.195v112.39c0 30.908 25.288 56.196 56.195 56.196 17.795 0 33.405-8.118 43.707-20.918v58.381c0 17.171 14.049 31.219 31.22 31.219 17.17 0 31.219-14.048 31.219-31.219v-37.776c19.044-2.185 35.278-13.736 43.708-30.283 9.365 18.108 28.097 30.596 49.951 30.596 21.853 0 40.585-12.488 49.951-30.596 9.366 18.108 28.098 30.596 49.951 30.596 21.854 0 40.586-12.488 49.951-30.596 9.366 18.108 28.098 30.596 49.952 30.596 30.907 0 56.195-25.288 56.195-56.196v-112.39c0-30.907-25.288-56.195-56.195-56.195zm-399.61 212.293c-24.039 0-43.707-19.669-43.707-43.708v-112.39c0-24.039 19.668-43.707 43.707-43.707s43.707 19.668 43.707 43.707v112.39c0 24.039-19.668 43.708-43.707 43.708zm99.902 0c-2.185 0-4.058-.312-6.244-.625v50.576c0 10.302-8.429 18.732-18.731 18.732-10.303 0-18.732-8.43-18.732-18.732v-93.659-112.39c0-24.039 19.668-43.707 43.707-43.707s43.708 19.668 43.708 43.707v112.39c0 24.039-19.669 43.708-43.708 43.708zm97.717 0c-23.414-1.249-41.522-21.542-41.522-44.956v-17.483c0-3.434 2.81-6.244 6.244-6.244h24.976c3.434 0 6.244 2.81 6.244 6.244v18.419c0 3.122 2.185 5.932 5.307 6.556 4.059.625 7.181-2.497 7.181-6.244v-18.731c0-10.303-8.43-18.732-18.732-18.732h-3.122c-15.61 0-28.098-12.488-28.098-28.098v-45.58c0-23.415 18.108-43.707 41.522-44.956 24.976-1.249 45.893 18.732 45.893 43.707v18.732c0 3.434-2.81 6.244-6.244 6.244h-24.975c-3.435 0-6.244-2.81-6.244-6.244v-18.42c0-3.122-2.186-5.931-5.308-6.556-4.058-.624-7.18 2.498-7.18 6.244v18.732c0 10.302 8.429 18.732 18.732 18.732h3.122c15.609 0 28.097 12.487 28.097 28.097v46.829c0 24.976-20.917 44.957-45.893 43.708zm99.903 0c-23.415-1.249-41.522-21.542-41.522-44.956v-109.893c0-23.415 18.107-43.707 41.522-44.956 24.975-1.249 45.893 18.732 45.893 43.707v74.927c0 3.434-2.81 6.244-6.244 6.244h-24.976c-10.302 0-18.732 8.429-18.732 18.732v12.175c0 3.122 2.186 5.932 5.308 6.556 4.058.625 7.18-2.497 7.18-6.244v-14.673c0-3.434 2.81-6.244 6.244-6.244h24.976c3.434 0 6.244 2.81 6.244 6.244v14.673c0 24.976-20.918 44.957-45.893 43.708zm145.795-81.171c0 3.434-2.81 6.244-6.244 6.244h-24.976c-10.302 0-18.731 8.429-18.731 18.732v12.175c0 3.122 2.185 5.932 5.307 6.556 4.059.625 7.181-2.497 7.181-6.244v-14.673c0-3.434 2.809-6.244 6.243-6.244h24.976c3.434 0 6.244 2.81 6.244 6.244v14.673c0 24.976-20.917 44.957-45.893 43.708-23.414-1.249-41.522-21.542-41.522-44.956v-109.893c0-23.415 18.108-43.707 41.522-44.956 24.976-1.249 45.893 18.732 45.893 43.707zm-343.4146-81.1707c-3.434 0-6.244 2.81-6.244 6.244v112.39c0 3.434 2.81 6.244 6.244 6.244s6.244-2.81 6.244-6.244v-112.39c0-3.434-2.81-6.244-6.244-6.244zm299.7073 0c-3.434 0-6.244 2.81-6.244 6.244v37.463c0 3.434 2.81 6.244 6.244 6.244s6.244-2.81 6.244-6.244v-37.463c0-3.434-2.81-6.244-6.244-6.244m-99.9025 49.9512c3.434 0 6.244-2.81 6.244-6.244v-37.463c0-3.434-2.81-6.244-6.244-6.244s-6.244 2.81-6.244 6.244v37.463c0 3.434 2.81 6.244 6.244 6.244zm-299.7073-49.9512c-3.434 0-6.244 2.81-6.244 6.244v112.39c0 3.434 2.81 6.244 6.244 6.244s6.244-2.81 6.244-6.244v-112.39c0-3.434-2.81-6.244-6.244-6.244z" fill="#30302f"/></svg>