<svg height="256" preserveAspectRatio="xMidYMid" viewBox="0 0 256 256" width="256" xmlns="http://www.w3.org/2000/svg"><path d="m256 128c0 70.692-57.308 128-128 128s-128-57.308-128-128 57.308-128 128-128 128 57.308 128 128" fill="#fc8e2e"/><path d="m99.372 135.292c3.506-2.703 6.199-6.002 7.998-10.107-5.125 3.185-9.803 6.561-14.884 9.147-9.055 4.608-18.907 6.619-28.959 7.722-5.779.635-11.445 1.765-16.614 4.599-6.323 3.466-9.584 8.767-9.233 16.053.448 9.279 4.736 17.075 9.356 24.769-.125-7.078-.55-13.753-.287-20.4.366-9.267 5.14-15.308 14.294-17.728 6.616-1.749 13.203-3.612 19.772-5.533 6.594-1.928 13.026-4.258 18.557-8.522zm107.759 10.62c-4.581-1.878-9.573-3.129-14.494-3.736-16.104-1.988-31.255-6.132-43.732-17.32-.107.445-.303.775-.217.994.278.7.619 1.384 1.007 2.03 3.085 5.13 7.502 8.883 12.893 11.22 5.139 2.228 10.511 3.949 15.852 5.671 6.647 2.143 13.393 3.977 20.048 6.097 5.074 1.617 8.65 5.117 9.683 10.124 1.003 4.861 1.389 10.351 1.487 15.332.073 3.685-.229 8.467-1.497 10.912 4.972-6.913 8.836-14.273 9.786-22.743.986-8.787-2.598-15.212-10.816-18.581zm-89.239 27.78c10.077-1.752 20.378-1.647 30.425.272 8.441 1.613 15.229 3.161 24.154 7.738-10.906-6.873-27.548-14.798-40.583-14.617-16.334.227-33.636 6.781-47.751 14.96 7.581-2.206 22.72-6.434 33.755-8.353zm-19.26-87.42c-2.333-8.313-3.237-16.795-2.152-25.353 1.617-12.747 9.14-21.157 18.437-27.622-11.205 1.776-24.144 15.183-25.078 26.566-1.063 12.96 3.881 24.066 11.046 34.248-.752-2.613-1.518-5.222-2.253-7.839zm61.744 133.588c5.971 2.276 10.222-.706 15.869-3.237-16.652-3.633-31.206-11.053-44.209-20.301 6.674 10.895 16.466 19.013 28.34 23.538zm-66.461 1.569c14.756-3.53 26.343-12.608 34.504-24.852-13.297 9.332-28.54 16.498-45.525 20.1 4.265 1.839 7.551 3.255 11.021 4.752zm57.512-120.416c10.998-8.274 16.124-18.171 16.696-35.907-2.861 11.328-7.297 21.165-13.616 28.949-1.802-15.166-5.264-23.228-22.427-27.347 15.905 8.353 18.597 20.781 19.347 34.305zm-21.378009-54.6314895c-2.435-2.954-5.438991-3.4765105-7.887991-.5225105-3.189 3.849-3.485 12.23-.577 16.365 2.212 3.147 6.26442 3.3220002 8.15542.0000002 2.287-4.018 2.519571-13.1614897.309571-15.8424897zm-4.604991 73.0744895c-16.02-17.964-17.621-29.177-8.353-49.659-17.049 19.223-13.502 36.615 8.353 49.659zm-20.325 46.063c-7.273-2.526-14.621-3.219-22.084-2.417-9.525 1.022-16.036 6.691-17.535 15.432 10.807-12.29 24.736-14.125 39.619-13.015zm23.382-137.084c4.91541-7.3785776-.171-13.6511458-.171-13.6511458s.21593 5.3294005-4.121 11.8961458 4.121 11.819 4.121 11.819-2.978-5.337.171-10.064zm39.279 26.602c-1.072-14.01-17.473-25.073-31.233-22.182 12.323 4.855 23.989 10.102 31.233 22.182z" fill="#fff"/></svg>