<svg height="110" preserveAspectRatio="xMidYMid" viewBox="0 0 512 110" width="512" xmlns="http://www.w3.org/2000/svg"><path d="m89.2851845 49.9872346 1.0637903-10.6406309c-.2018474-4.8879802-1.3638338-9.2986185-3.4532271-13.3519324l-5.5889907 7.7302097c.7719299 2.5749181 1.082884 5.3544113.8510323 8.2566495-1.0637903 13.2946514-13.141902 24.0716657-26.9793593 24.0716657-3.248652 0-6.3063672-.5946315-9.0667667-1.6747879l33.4084715-34.9005056 14.1074963-14.3093437-10.0514547 5.3134963c-6.6636917-8.3875776-17.3725143-13.36829846-29.6524734-12.87731831-21.1230571.84557693-39.0711093 18.02988221-40.0858016 38.38646471-1.0146923 20.3538549 15.283121 36.1688711 36.4061781 35.3260218 18.6299691-.7446532 34.7886713-14.2029647 39.041105-31.3299889zm37.9445825 8.4121266c.57281-5.7062804.098196-9.8496074-1.418387-12.4245255-1.481123-2.5721904-4.086046-3.8596495-7.809312-3.8623772-1.636601 0-3.29775.2618561-4.983449.7828406-1.652966.5209845-3.314116 1.3038251-4.986176 2.3485217l-2.948608 29.4942687c.930134.4173331 1.961193.7146489 3.095902.8892196 1.164714.1745707 2.547642.2591284 4.15151.2591284 4.454281 0 7.904781-1.4429361 10.351498-4.331536 2.44399-2.9240595 3.960574-7.3101489 4.547022-13.1555403zm41.220511 30.9017451c-7.44926 0-12.724569-1.5274938-15.828654-4.5933921-3.071354-3.0631706-4.257889-8.0738958-3.559606-15.0349032l2.741306-27.4048754h-6.674603c1.159259 4.4160937 1.434753 9.6723089.826483 15.7659181-.93559 9.3613549-4.075135 16.9142662-9.415908 22.6560063-5.308041 5.7417401-11.442565 8.6112463-18.400845 8.6112463-2.924059 0-5.433513-.3300478-7.522907-.9901433-2.092121-.6628232-4.285165-1.6884262-6.581861-3.0795366l-2.44399 24.4289906h-18.2699174l3.3086607-33.0975179c-9.7568666 13.0627996-25.192737 21.6549523-41.9269771 21.6549523-26.7693289 0-46.70857831-21.9850001-44.54008264-49.1089257 2.17122333-27.1239256 25.62916384-49.1089257 52.39849264-49.1089257 13.5701459 0 25.3864015 5.64899939 33.4548419 14.7566812l15.3976829-5.89721716-9.0967709 15.16583126c.8974026 1.7675286 1.6802431 3.6059765 2.345794 5.5071607h14.9394349l-.610998 6.1072476c2.907694-2.2966961 5.826298-4.159693 8.753085-5.5862631 2.926788-1.4265701 6.213627-2.1384913 9.871429-2.141219 3.035894 0 5.709008.5400782 8.02207 1.6175069h17.437979l1.674787-16.7587892h18.272645l-1.677515 16.7587892h17.593455l-1.273821 12.7382072h-17.593455l-2.078483 20.7766433c-.204575 2.0539337-.368235 3.8460112-.485525 5.3762327-.120017 1.5329491.021822 2.9076935.422789 4.1242332.365507 1.2192674 1.121071 2.1930447 2.266692 2.9240596 1.183807.6982829 2.956791 1.0446967 5.324406 1.0446967.973778 0 2.263965-.2100304 3.873288-.6273636 1.642056-.4173331 2.793132-.7992065 3.455955-1.148348h1.565681l-1.287459 12.8936843c-2.037567.5209845-4.181514.9219516-6.437295 1.2001737-2.258509.3136817-5.00527.4691588-8.240284.4691588zm-136.405196-47.3195758c1.0637903-13.2946514 13.1446297-24.0743934 26.9820869-24.0743934 6.9364584 0 13.0000633 2.7113015 17.1870329 7.0864802l-41.0323022 30.3398456c-2.3512494-3.8187345-3.5296018-8.4121266-3.1368176-13.3519324zm173.288716 46.1712278h-18.269917l5.861758-58.6230299h18.269917zm7.220136-66.9751478h-19.314613l1.423842-14.24933505h19.314614zm67.024246 66.9751478 2.929515-29.2842383c.289133-2.8885999.480069-5.3216793.57281-7.3074212.092741-1.9830143-.057281-3.6032488-.45552-4.8552482-.395512-1.254727-1.123799-2.157585-2.182134-2.7140292-1.020148-.5891761-2.520365-.8864919-4.503379-.8864919-1.393839 0-2.798587.3136818-4.219702.9383176-1.41566.5919039-2.981341 1.4456638-4.691588 2.5585521l-4.156965 41.5532867h-18.373569l2.929515-29.2842382c.283678-2.8531402.455521-5.2698536.515529-7.2555956.098196-2.0184739-.051825-3.6523468-.450065-4.9070738-.395512-1.2547271-1.126527-2.157585-2.182134-2.7140292-1.020147-.5891762-2.503999-.8864919-4.451553-.8864919-1.49749 0-2.994979.3491414-4.489741 1.0446966-1.497489.6955552-2.97043 1.5138555-4.421549 2.4549008l-4.154238 41.5532867h-18.269916l5.861757-58.6230299h18.272645l-.649185 6.4727549c3.245924-2.5394584 6.262724-4.5252003 9.0504-5.9517704 2.787677-1.4265701 5.834481-2.1384914 9.140414-2.141219 3.584155 0 6.647326.8537599 9.19224 2.5585521 2.544914 1.7075198 4.358812 4.2469783 5.449879 7.621103 3.840556-3.2704734 7.397435-5.7771998 10.670636-7.5174517 3.30866-1.7757115 6.562768-2.6622034 9.767777-2.6622034 2.714029 0 5.106194.4364268 7.176493 1.303825 2.0703.870126 3.766909 2.1766787 5.089828 3.9142029 1.445664 1.8793629 2.441262 4.1242333 2.98134 6.7346111.578266 2.5749181.657368 5.9517704.240035 10.1278294l-3.816007 38.1600683h-18.373568zm47.58416-66.9751478h-19.314614l1.42657-14.24933505h19.314614zm47.428682 52.9849412c-2.160313-4.5252004-2.913149-10.0459994-2.261236-16.5623971.957411-9.5686576 4.470647-17.2088543 10.539707-22.9178623 6.06906-5.7062804 14.04476-8.5594206 23.929827-8.5621483 8.976754 0 15.487696 2.4194411 19.527371 7.2555955 4.039676 4.8388822 5.608085 11.76443 4.707955 20.7766434l-.657368 6.5764063h-40.039432c-.098196 2.7140292.248218 4.9970869 1.039242 6.8382625.793751 1.8111712 1.936644 3.2541073 3.431406 4.3315359 1.459302 1.0801564 3.207736 1.8629969 5.245304 2.3485218 2.043023.4555204 4.298804.6791892 6.770071.6791892 2.122125 0 4.23334-.2236688 6.330916-.6791892 2.100304-.4855249 4.042403-1.1128884 5.826298-1.8793629 1.562953-.6600956 3.005889-1.3720168 4.336991-2.141219 1.363834-.7637469 2.476722-1.4429361 3.335938-2.0375677h1.931188l-1.5084 15.086729c-1.55477.5919038-2.984068 1.148348-4.290621 1.6693325-1.268365.4882525-3.00589.992871-5.2153 1.5138555-2.03484.5209845-4.129689.9219516-6.279091 1.2001737-1.587502.237307-3.434133.3818734-5.534437.4418821l-85.817875.0436427h-1.882091-16.387826l5.864485-58.6230299h18.269917l-4.435187 44.3546012 29.161493-30.6262507-21.764059.0791023 1.582047-13.4392177 44.261861-.3682351-1.183808 11.8489876-31.310895 32.7838357h32.475609zm38.880173-24.4453562c.280949-3.8623772-.330048-6.8028027-1.832993-8.8212767-1.467485-2.0184739-3.944207-3.0249832-7.421983-3.0277109-3.548696 0-6.440023 1.0610627-8.671255 3.183188-2.195773 2.124853-3.581428 5.0107252-4.154238 8.6657996zm98.528805-21.7695143-37.611807 80.1306878h-19.628295l11.16707-22.9151343-12.451802-45.1265311-4.653401 46.5340075h-18.272644l8.122994-81.22721047h18.269917l-2.261237 22.60418057h14.666668l8.643979 36.7525919 15.212201-36.7525919z" fill="#707070"/></svg>