<svg height="344" preserveAspectRatio="xMidYMid" viewBox="0 0 256 344" width="256" xmlns="http://www.w3.org/2000/svg" xmlns:xlink="http://www.w3.org/1999/xlink"><linearGradient id="a" x1="50%" x2="50%" y1="0%" y2="100%"><stop offset="0" stop-color="#f90"/><stop offset="1" stop-color="#f05a22"/></linearGradient><path d="m127.615795 2.37396105c.700309 1.8018356-.51064 3.45047869-1.502744 4.84380094-7.024971 9.95751241-12.547765 21.09252131-14.750819 33.06342091-.861366 2.4569216-.67113 4.2873668 0 4.4916235 13.634132-1.1963604 29.012311-1.0587551 42.434891 1.8081331 24.423262 4.9167497 47.248944 17.274278 64.793133 34.9424797 17.493125 17.4858296 29.770409 40.1437298 34.738223 64.3846198 5.507635 26.246981 2.429196 54.186375-8.586075 78.631521-23.358209 49.91887-62.735975 92.141641-110.918664 118.906558-1.553809.722194-3.793338.751374-4.85839-.795141-1.254721-1.619464-.736785-3.924646.503345-5.398212 6.499739-9.067538 11.037155-19.491922 13.502825-30.361294.474168-2.254119 1.123412-4.537416.92645-6.857188-.795141-1.035873-2.10822-.722193-3.224337-.685719-23.387389 2.341657-47.4532007-1.83831-68.5864707-12.167862-22.6360155-10.905847-41.843437-28.734536-54.5438247-50.407627-11.76664284-19.93691-17.95270191-43.156516-17.5223039-66.317762.08024359-21.257284 5.87967404-42.339489 16.0925073-60.948731 23.7740169-45.6440696 61.1019226-84.1610409 106.169697-109.04387975 1.889374-1.05046286 4.683313-.26991059 5.332557 1.9112588zm-6.645636 120.06644495c-13.911338 1.86749-26.7430328 10.037756-34.5339659 21.680386-5.2741989 7.99519-8.4693567 17.493125-8.4037027 27.107778-.3939237 12.88276 4.7416725 25.787404 13.6414271 35.066493 7.7763426 8.374523 18.5800615 13.831094 29.9090115 15.29007 11.533207 1.52463 23.577056-1.174476 33.344901-7.513728 9.928333-6.302777 17.493125-16.252994 20.87795-27.523584 6.35384-19.564872-1.262015-42.485387-17.835984-54.573005-10.409795-7.922241-24.058517-11.438374-36.999637-9.53441z" fill="url(#a)"/></svg>