<svg height="269" preserveAspectRatio="xMidYMid" viewBox="0 0 256 269" width="256" xmlns="http://www.w3.org/2000/svg"><g fill="#0099b0"><path d="m226.306066 85.5748781-24.421315-4.541393c-.594229-.111418-1.24491-.6699929-1.445461-1.2434237l-7.485796-17.464382c-.279288-.5392626-.225807-1.3860385.118845-1.8881618l14.228807-20.7385823c.340196-.4991521.273345-1.2582794-.155985-1.6876097l-17.771896-17.7718954c-.42933-.4293302-1.186971-.4991521-1.686124-.155985l-21.102547 14.4813538c-.499152.3431671-1.354841.4040757-1.897075.1366727l-16.929577-6.9301924c-.574916-.1901532-1.134976-.8334058-1.24788-1.4291201l-4.701835-25.25917735c-.109932-.5957143-.696733-1.08298185-1.302846-1.08298185h-25.135875c-.604628 0-1.191429.48726755-1.301361 1.08298185l-4.700349 25.25917735c-.112903.5957143-.671478 1.2389669-1.247881 1.4291201l-16.9310611 6.9301924c-.5437193.267403-1.3994087.2064944-1.8970752-.1366727l-21.1010619-14.4813538c-.5006377-.3431671-1.2597649-.2733452-1.6876095.155985l-17.7733811 17.7718954c-.4278447.4293303-.4991521 1.1884576-.155985 1.6876097l14.2302923 20.7385823c.3416814.5021233.3951621 1.3488992.1173601 1.8881618l-7.4872818 17.464382c-.1990667.5734308-.8482615 1.1320057-1.4454614 1.2434237l-24.4198293 4.541393c-.5971998.1129034-1.0829818.6982187-1.0829818 1.304332l.0014855 25.1343889c0 .606114.4872676 1.195886 1.0829819 1.304332l23.8211439 4.432946c.5957143.108447 1.2330246.67445 1.4142643 1.252337l7.4367724 18.577076c.2659174.545205.2035233 1.397923-.1411293 1.897075l-13.5305879 19.717995c-.3416816.499152-.2718597 1.259765.155985 1.689095l17.7748666 17.771895c.4278446.42636 1.1869719.496182 1.6876096.155986l19.3688851-13.294382c.4991521-.341682 1.335529-.368423 1.8569648-.06388l8.5420378 4.560705c.5407481.276317 1.1721162.043082 1.4038653-.516979l17.6129387-42.557175c.233235-.560061 0-1.274621-.516978-1.591047l-2.137739-1.30879c-.395161-.240662-.931453-.655137-1.351869-1.035443-7.711604-4.938041-12.827913-13.57664-12.827913-23.414097 0-15.351899 12.44612-27.796534 27.796534-27.796534 15.350413 0 27.795048 12.444635 27.795048 27.796534 0 9.837457-5.114824 18.476056-12.827912 23.414097-.417445.380306-.955223.794781-1.348899 1.035443l-2.137738 1.30879c-.514008.316426-.748728 1.030986-.516979 1.591047l17.611454 42.558661c.231749.56006.861632.79181 1.403865.516979l8.542038-4.560705c.522921-.304543 1.357812-.279288 1.856965.063879l19.37037 13.294381c.499152.340197 1.259765.270375 1.686124-.155984l17.774867-17.771895c.42933-.42933.499152-1.189944.155985-1.689095l-13.532074-19.717995c-.341681-.499153-.405561-1.35187-.139643-1.897075l7.436772-18.577076c.182726-.577887.815579-1.14389 1.412779-1.252337l23.821144-4.432946c.594228-.108447 1.082981-.698218 1.082981-1.304332l.002972-25.1343894c.001485-.6075988-.485783-1.1929141-1.080011-1.3058175"/><path d="m67.7376174 268.563156h5.367371v-18.204197c0-6.57514-4.5250518-8.785671-11.1016782-8.785671-3.9991592 0-6.9450481 1.050298-8.9966227 3.893683l4.2086248 3.208835c.9463092-1.525682 2.2625259-2.054546 5.0509442-2.054546 3.8402031 0 5.4713609.897285 5.4713609 3.421272v2.788418h-7.4189456c-5.7343071 0-8.680196 3.632223-8.680196 7.892843 0 4.630527 3.4717813 8.15579 9.4170396 8.15579 3.6307376 0 5.4728465-.840834 6.5766265-2.684429h.1054755zm0-9.36653c0 4.158115-1.5256822 4.630527-5.9972533 4.630527-3.6307376 0-5.0524298-1.579163-5.0524298-3.366306 0-1.947585 1.4736872-3.211806 4.6320129-3.211806h6.4176702z"/><path d="m78.9997372 268.563156h5.3658854v-16.048632c0-3.890713 2.5789526-5.576837 5.2099003-5.576837 1.3682116 0 2.2625259.368421 3.5252618 1.317703l3.8921981-4.630528c-1.6311578-1.262736-3.4183006-2.051574-5.5768365-2.051574-2.8404132 0-5.2618953 1.05327-6.9450482 3.156839h-.1054755v-2.840413h-5.3658854z"/><path d="m113.044586 268.563156h5.365886v-37.461665h-5.365886v13.628636c-1.999579-1.894104-4.156629-3.156839-6.893053-3.156839-3.262316 0-5.628831 1.470716-7.1545138 3.473266-1.4736872 1.891133-1.894104 3.626281-1.894104 10.155369 0 6.575141.4204168 8.310289 1.894104 10.204392 1.5256828 1.99958 3.8921978 3.473268 7.1545138 3.473268 2.736424 0 5.209901-1.265707 6.893053-3.104845zm-5.261895-21.625469c4.998949 0 5.261895 4.422547 5.261895 8.264236 0 3.893683-.262946 8.310289-5.261895 8.310289-5.050944 0-5.31389-4.155144-5.31389-8.310289 0-4.10612.262946-8.264236 5.31389-8.264236z"/><path d="m145.798473 268.563156h4.737489l8.521239-26.673442h-5.683797l-5.099968 18.676609h-.108447l-6.049248-18.676609h-3.893684l-6.049248 18.676609h-.105476l-5.104424-18.676609h-5.680827l8.522725 26.673442h4.734517l5.576837-18.678094h.105476z"/><path d="m175.573789 268.563156h5.36737v-18.204197c0-6.57514-4.526536-8.785671-11.101678-8.785671-3.997673 0-6.946533 1.050298-8.998107 3.893683l4.210109 3.208835c.94631-1.525682 2.259556-2.054546 5.047974-2.054546 3.841689 0 5.472846.897285 5.472846 3.421272v2.788418h-7.418945c-5.732822 0-8.681682 3.632223-8.681682 7.892843 0 4.630527 3.473267 8.15579 9.418525 8.15579 3.629252 0 5.472847-.840834 6.578112-2.684429h.10399v2.368002zm0-9.36653c0 4.158115-1.525683 4.630527-5.997254 4.630527-3.629251 0-5.050944-1.579163-5.050944-3.366306 0-1.947585 1.473688-3.211806 4.630528-3.211806h6.41767z"/><path d="m186.837395 268.563156h5.364399v-16.048632c0-3.890713 2.575982-5.576837 5.208415-5.576837 1.369697 0 2.262526.368421 3.525261 1.317703l3.893684-4.630528c-1.631158-1.262736-3.421271-2.051574-5.576837-2.051574-2.840412 0-5.260409 1.05327-6.943562 3.156839h-.106961v-2.840413h-5.364399z"/><path d="m226.918122 257.252012v-4.422547c0-6.891568-5.101454-11.257663-10.993231-11.257663-5.156421 0-10.996203 3.366305-10.996203 13.729654 0 10.944208 6.365675 13.576641 11.838521 13.576641 3.577258 0 6.995558-1.262736 9.626505-4.314101l-3.893683-3.315796c-1.579163 1.634129-3.789694 2.578953-5.838297 2.578953-3.684219 0-6.365675-2.210531-6.365675-6.575141zm-16.622063-4.421062c.103989-4.051154 2.471991-6.20969 5.628832-6.20969 3.156839 0 5.472846 2.158536 5.62883 6.20969z"/><path d="m0 213.068135c0 5.786303.84083364 7.996834 2.8924083 10.259359 1.47368722 1.631159 3.94716427 3.418301 8.1037942 3.418301 4.1551442 0 6.6286214-1.787142 8.1023086-3.418301 2.0515746-2.262525 2.8938938-4.474542 2.8938938-10.259359 0-5.735792-.8423192-7.944837-2.8938938-10.207363-1.4736872-1.631158-3.9471644-3.421272-8.1023086-3.421272-4.15662993 0-6.63010698 1.790114-8.1037942 3.421272-2.05157466 2.264011-2.8924083 4.471571-2.8924083 10.207363m16.625034.051996c0 3.841688-.3149412 4.891988-1.314731 6.313679-.7903242 1.105266-2.473477 1.947585-4.3141005 1.947585-1.84210906 0-3.52526191-.840833-4.31410054-1.947585-.99978982-1.421691-1.31621661-2.471991-1.31621661-6.365675 0-3.841688.31642679-4.894959 1.31621661-6.313679.78883863-1.105266 2.47199148-1.947585 4.31410054-1.947585 1.8406235 0 3.5237763.840833 4.3141005 1.947585.9997898 1.41872 1.314731 2.471991 1.314731 6.365675"/><path d="m73.4897514 215.11971v-4.419576c0-6.894538-5.1029391-11.260634-10.9947169-11.260634-5.1579052 0-10.9962025 3.369277-10.9962025 13.732626 0 10.941236 6.3656752 13.573669 11.8370361 13.573669 3.5787425 0 6.9970432-1.262736 9.6279909-4.3141l-3.8936837-3.312826c-1.5776772 1.631159-3.7867225 2.578953-5.8382972 2.578953-3.6842181 0-6.3671607-2.210531-6.3671607-6.578112zm-16.625034-4.418091c.1054756-4.054125 2.473477-6.209689 5.6303171-6.209689s5.4713609 2.155564 5.6288316 6.209689z"/><path d="m78.0697692 226.429369h5.3658854v-15.88522c0-3.632223 2.2625259-5.735792 5.3138904-5.735792 2.9993694 0 5.2618953 2.103569 5.2618953 5.735792v15.88522h5.3658853v-17.728814c0-6.05222-4.7345173-9.261055-8.8911472-9.261055-2.8404133 0-5.2618953 1.05327-6.9435626 3.15684h-.1069612v-2.840413h-5.3658854z"/><path d="m113.886906 221.959282c3.419785 3.208836 7.418945 4.787999 11.733046 4.787999 6.208204 0 11.048197-2.997884 11.048197-8.207784 0-4.259135-2.207559-7.628412-7.733887-7.996834l-4.419576-.313455c-2.682943-.212437-3.523776-1.369698-3.523776-2.526958 0-1.839137 1.15726-3.208835 4.575561-3.208835 2.895379 0 5.053915 1.001276 7.157485 2.471992l3.312825-3.890712c-2.630947-2.210531-5.786302-3.632224-10.471796-3.632224-5.628831 0-9.942931 2.788418-9.942931 8.207784 0 4.575561 3.262315 7.207995 7.680405 7.576416l4.736003.420417c1.843595.155985 3.262316.736844 3.262316 2.630948 0 2.262526-2.212016 3.4183-5.261896 3.4183-3.577256 0-6.102728-1.154289-8.417249-3.4183z"/><path d="m139.719513 213.068135c0 5.786303.843805 7.996834 2.895379 10.259359 1.473688 1.631159 3.945679 3.418301 8.100824 3.418301 4.158115 0 6.630107-1.787142 8.103794-3.418301 2.051575-2.262525 2.892408-4.474542 2.892408-10.259359 0-5.735792-.840833-7.944837-2.892408-10.207363-1.473687-1.631158-3.945679-3.421272-8.103794-3.421272-4.155145 0-6.627136 1.790114-8.100824 3.421272-2.051574 2.264011-2.895379 4.471571-2.895379 10.207363m16.625035.051996c0 3.841688-.313457 4.891988-1.314732 6.313679-.788838 1.105266-2.471991 1.947585-4.3141 1.947585-1.839138 0-3.525262-.840833-4.311129-1.947585-1.001276-1.421691-1.317702-2.471991-1.317702-6.365675 0-3.841688.316426-4.894959 1.317702-6.313679.785867-1.105266 2.471991-1.947585 4.311129-1.947585 1.842109 0 3.525262.840833 4.3141 1.947585 1.001275 1.41872 1.314732 2.471991 1.314732 6.365675"/><path d="m166.293422 217.487711c0 6.049249 4.736003 9.258084 8.944628 9.258084 2.785446 0 5.208414-1.053271 6.891567-3.15684h.10399v2.843384h5.3644v-26.676412h-5.3644v15.88819c0 3.629252-2.262526 5.735793-5.263381 5.735793-3.049879 0-5.312405-2.106541-5.312405-5.735793v-15.88819h-5.364399z"/><path d="m193.483842 226.429369h5.367372v-16.045662c0-3.893683 2.575981-5.576836 5.208414-5.576836 1.369697 0 2.262526.368422 3.525262 1.314731l3.893684-4.630527c-1.634129-1.262736-3.418301-2.051575-5.576836-2.051575-2.840414 0-5.263381 1.05327-6.946534 3.15684h-.10399v-2.840413h-5.367372z"/><path d="m228.568592 218.592977c-1.314732 1.631158-3.208835 2.788418-5.416395 2.788418-4.366096 0-6.946534-2.474963-6.946534-8.264235 0-5.838298 2.578952-8.310289 6.946534-8.310289 2.20756 0 4.103149 1.15726 5.416395 2.788418l3.945679-3.525261c-2.313035-2.68443-5.524843-4.630528-9.574511-4.630528-6.154723 0-12.099982 3.893683-12.099982 13.67766 0 9.737923 5.945259 13.628635 12.099982 13.628635 4.051154 0 7.26296-1.947585 9.574511-4.627556z"/><path d="m255.871916 215.11971v-4.419576c0-6.894538-5.107396-11.260634-10.996202-11.260634-5.159391 0-10.996203 3.369277-10.996203 13.732626 0 10.941236 6.365675 13.573669 11.838522 13.573669 3.577257 0 6.998528-1.262736 9.626505-4.3141l-3.893684-3.312826c-1.579163 1.631159-3.786722 2.578953-5.838297 2.578953-3.684218 0-6.365675-2.210531-6.365675-6.578112zm-16.625034-4.418091c.10399-4.054125 2.471991-6.209689 5.628832-6.209689 3.156839 0 5.469874 2.155564 5.628831 6.209689z"/><path d="m37.2002035 221.381395c5.050944 0 5.3138903-4.158116 5.3138903-8.261264 0-4.158116-.2629463-8.31326-5.3138903-8.31326-4.9974635 0-5.2618954 4.419576-5.2618954 8.31326 0 3.841688.2629462 8.261264 5.2618954 8.261264zm-10.6485787 47.181761v-68.805744h5.3866833v2.788419c1.6846384-1.842109 4.15663-3.104846 6.8930532-3.104846 3.2608301 0 5.6303171 1.473688 7.1559993 3.473267 1.4722017 1.894105 1.8926186 3.629253 1.8926186 10.207364 0 6.523146-.4204169 8.261265-1.8926186 10.152398-1.5256822 1.999579-3.8951692 3.473267-7.1559993 3.473267-2.7364232 0-4.8934735-1.262736-6.8930532-3.156841l-.0193124 21.139687c1.7886285-2.103569 4.2086249-3.156839 7.0490382-3.156839 4.1566299 0 8.8911472 3.208834 8.8911472 9.258083v17.731785h-5.3658853v-15.88819c0-3.632224-2.2625259-5.735794-5.2618953-5.735794-3.0513645 0-5.3124048 2.10357-5.3124048 5.735794v15.88819z"/></g></svg>