<svg height="256" preserveAspectRatio="xMidYMid" viewBox="0 0 256 256" width="256" xmlns="http://www.w3.org/2000/svg"><path d="m253.532 128c0 69.329-56.203 125.532-125.532 125.532s-125.532-56.203-125.532-125.532 56.203-125.532 125.532-125.532 125.532 56.203 125.532 125.532" fill="#fff"/><path d="m211.963 203.225h-5.093c-2.078 0-3.763-1.684-3.763-3.762v-3.11c0-1.457-1.192-2.649-2.649-2.649h-55.167c-1.825 0-3.304-1.479-3.304-3.304v-16.521h46.923c2.172 0 3.932-1.76 3.932-3.932v-50.195s10.853.255 10.853-8.913-10.853-8.675-10.853-8.675v-22.928c0-2.172-1.76-3.933-3.932-3.933h-122.682c-2.172 0-3.932 1.761-3.932 3.933v22.287s-9.991 2.382-9.991 9.316c0 6.935 9.991 8.471 9.991 8.471v50.637c0 2.172 1.76 3.932 3.932 3.932h47.667v16.573c0 1.537-1.245 2.782-2.782 2.782h-54.406c-2.561 0-4.637 2.076-4.637 4.637l-.353 4.884-6.817.588c-1.483 0-2.443 1.843-2.563 3.321l-1.022 12.605s28.738 34.498 82.689 34.498c53.95 0 89.329-32.911 89.329-32.911v-16.261c0-.757-.613-1.37-1.37-1.37" fill="#ff6d38"/><path d="m128 0c-70.692 0-128 57.308-128 128s57.308 128 128 128c70.693 0 128-57.308 128-128s-57.307-128-128-128zm-78.164 223.367c-1.802-1.481-3.564-3.02-5.289-4.609v-11.812c0-.755.615-1.37 1.371-1.37h3.918zm78.164 27.931c-16.647 0-32.794-3.259-47.992-9.687-9.093-3.846-17.611-8.723-25.47-14.567v-21.468h54.666c3.883 0 7.042-3.16 7.042-7.042v-2.244h2.358c3.7 0 6.711-3.01 6.711-6.711v-12.8h4.566v21.931c0 3.786 3.079 6.866 6.865 6.866h63.893v22.067c-7.631 5.577-15.869 10.255-24.647 13.968-15.198 6.428-31.345 9.687-47.992 9.687zm-73.462-50.424v-2.165c0-1.334 1.085-2.419 2.419-2.419h54.588v2.244c0 1.29-1.05 2.34-2.341 2.34zm11.361-96.813c-.529-1.394-1.198-2.433-1.958-3.155v-21.5c0-1.074.874-1.948 1.948-1.948h123.634c1.074 0 1.948.874 1.948 1.948v22.197c-.503.648-.954 1.461-1.332 2.458-.976 2.571-1.264 5.907-.919 8.717.317 2.58.984 4.893 2.251 6.819v50.533c0 1.073-.874 1.947-1.948 1.947h-123.634c-1.074 0-1.948-.874-1.948-1.947v-49.673c1.683-2.08 2.512-4.702 2.877-7.679.345-2.81.057-6.146-.919-8.717zm58.986-31.304v-4.186c0-1.143.93-2.073 2.074-2.073h2.177v6.259zm86.92 145.673c-2.097 1.946-4.252 3.813-6.464 5.6v-18.454h4.409c1.133 0 2.055.922 2.055 2.055zm-11.166-17.556h-63.893c-1.193 0-2.164-.97-2.164-2.164v-21.931h4.232v13.231c0 3.592 2.922 6.515 6.515 6.515h53.769c.85 0 1.541.691 1.541 1.541zm-80.026-24.095v12.8c0 1.108-.901 2.01-2.009 2.01h-2.358v-14.81zm95.894 37.053v-6.201c0-3.726-3.031-6.757-6.757-6.757h-4.409v-2.808c0-3.442-2.801-6.242-6.243-6.242h-53.769c-1 0-1.814-.814-1.814-1.814v-13.231h46.008c3.667 0 6.65-2.983 6.65-6.649v-47.983c.031-.011.063-.02.094-.032 4.999-1.794 7.311-3.988 8.966-7.266.485-.961.807-1.946.961-2.945l1.419-1.065c1.706-1.279 2.312-3.644 2.312-5.28v-14.326c.837-.697 1.371-1.747 1.371-2.922 0-2.099-1.702-3.8-3.8-3.8-2.099 0-3.801 1.701-3.801 3.8 0 1.246.602 2.348 1.528 3.041v14.207c0 .188-.022.375-.057.552-1.886-3.654-5.835-6.424-8.993-6.604v-20.101c0-3.666-2.983-6.649-6.65-6.649h-55.686v-6.259h5.888c3.014 0 5.465-2.452 5.465-5.465v-2.683c0-3.495-2.843-6.339-6.339-6.339h-5.014v-12.405c.951-.715 1.568-1.849 1.568-3.13 0-2.164-1.754-3.918-3.918-3.918s-3.918 1.754-3.918 3.918c0 1.281.617 2.414 1.567 3.129v12.406h-5.49c-1.164 0-2.111-.947-2.111-2.111v-1.45c.973-.713 1.607-1.86 1.607-3.158 0-2.164-1.754-3.918-3.918-3.918s-3.918 1.754-3.918 3.918c0 1.263.6 2.383 1.528 3.099v1.509c0 3.756 3.056 6.813 6.812 6.813h5.49v5.083h-2.177c-3.736 0-6.775 3.039-6.775 6.775v4.186h-54.295c-3.666 0-6.649 2.983-6.649 6.649v20.168c-3.038.478-6.605 3.121-8.368 6.537-.034-.177-.057-.364-.057-.552v-14.207c.926-.693 1.528-1.795 1.528-3.041 0-2.099-1.701-3.8-3.8-3.8s-3.801 1.701-3.801 3.8c0 1.175.534 2.225 1.372 2.922v14.326c0 1.636.605 4.001 2.311 5.28l1.419 1.065c.155.999.476 1.984.961 2.945 1.595 3.158 3.806 5.308 8.435 7.066v48.215c0 3.666 2.983 6.649 6.649 6.649h45.656v14.81h-54.588c-3.926 0-7.121 3.194-7.121 7.12v2.165h-3.918c-3.348 0-6.072 2.724-6.072 6.072v7.247c-10.861-11.102-19.427-23.944-25.457-38.201-6.428-15.198-9.687-31.345-9.687-47.992s3.259-32.794 9.687-47.992c6.21-14.682 15.101-27.868 26.426-39.193s24.511-20.216 39.193-26.426c15.198-6.428 31.345-9.687 47.992-9.687s32.794 3.259 47.992 9.687c14.682 6.21 27.868 15.101 39.193 26.426s20.216 24.511 26.426 39.193c6.428 15.198 9.687 31.345 9.687 47.992s-3.259 32.794-9.687 47.992c-5.965 14.103-14.41 26.821-25.104 37.84zm-22.704-103.744c.122-3.053 1.193-5.232 1.717-5.803.129-.027.255-.065.379-.113.014-.001.028-.002.043-.002.065 0 .143.013.231.035 1.349.346 5.246 3.264 5.21 6.36-.039 3.409-1.692 4.377-4.733 6.105-.15.085-.314.124-.477.128-.346.01-.688-.15-.881-.46-1.387-2.231-1.549-4.746-1.489-6.25zm-59.966-48.292v-5.083h5.014c.903 0 1.637.734 1.637 1.637v2.683c0 .421-.342.763-.763.763zm-73.091 54.542c-.284.456-.89.597-1.358.332-.051-.029-.098-.057-.148-.085-2.944-1.674-4.547-2.669-4.585-6.02-.031-2.703 2.933-5.267 4.585-6.106.364-.185.666-.289.856-.289.015 0 .029.001.043.002.124.048.251.086.379.113.524.571 1.596 2.75 1.717 5.803.06 1.504-.102 4.019-1.489 6.25z" fill="#273335"/><g transform="translate(73 94)"><path d="m99.114 32.825h-88.463c-5.822 0-10.542-4.72-10.542-10.542v-11.71c0-5.822 4.72-10.542 10.542-10.542h88.463c5.822 0 10.542 4.72 10.542 10.542v11.71c0 5.822-4.72 10.542-10.542 10.542" fill="#273335"/><path d="m75.099 61.504h-37.329c-3.073 0-5.573-2.499-5.573-5.572v-3.713c0-1.299 1.053-2.351 2.351-2.351s2.351 1.052 2.351 2.351v3.713c0 .48.391.871.871.871h37.329c1.299 0 2.351 1.052 2.351 2.35 0 1.299-1.052 2.351-2.351 2.351" fill="#273335"/><path d="m104.008 10.834c0 1.6-1.297 2.897-2.897 2.897-1.601 0-2.898-1.297-2.898-2.897s1.297-2.897 2.898-2.897c1.6 0 2.897 1.297 2.897 2.897zm-23.178 0c0 1.6-1.297 2.897-2.898 2.897-1.6 0-2.897-1.297-2.897-2.897s1.297-2.897 2.897-2.897c1.601 0 2.898 1.297 2.898 2.897zm-11.59 0c0 1.6-1.297 2.897-2.897 2.897s-2.897-1.297-2.897-2.897 1.297-2.897 2.897-2.897 2.897 1.297 2.897 2.897zm-23.002 0c0 1.6-1.297 2.897-2.897 2.897s-2.898-1.297-2.898-2.897 1.298-2.897 2.898-2.897 2.897 1.297 2.897 2.897zm-11.589 0c0 1.6-1.297 2.897-2.897 2.897-1.601 0-2.898-1.297-2.898-2.897s1.297-2.897 2.898-2.897c1.6 0 2.897 1.297 2.897 2.897zm-23.178 0c0 1.6-1.297 2.897-2.897 2.897-1.601 0-2.898-1.297-2.898-2.897s1.297-2.897 2.898-2.897c1.6 0 2.897 1.297 2.897 2.897zm23.178 11.589c0 1.6-1.297 2.897-2.897 2.897-1.601 0-2.898-1.297-2.898-2.897s1.297-2.897 2.898-2.897c1.6 0 2.897 1.297 2.897 2.897zm34.679 0c0 1.6-1.297 2.897-2.897 2.897s-2.897-1.297-2.897-2.897 1.297-2.897 2.897-2.897 2.897 1.297 2.897 2.897zm34.592 0c0 1.6-1.297 2.897-2.897 2.897s-2.898-1.297-2.898-2.897 1.298-2.897 2.898-2.897 2.897 1.297 2.897 2.897zm-80.86 0c0 1.6-1.297 2.897-2.897 2.897-1.601 0-2.898-1.297-2.898-2.897s1.297-2.897 2.898-2.897c1.6 0 2.897 1.297 2.897 2.897z" fill="#fff"/></g><path d="m178.938 217.068c-3.118 0-5.766 2.023-6.718 4.824h-3.918v-4.911h-4.702v4.911h-5.993v-4.911h-4.701v4.911h-3.977c-.951-2.801-3.6-4.824-6.718-4.824-3.914 0-7.098 3.184-7.098 7.099 0 3.914 3.184 7.098 7.098 7.098 3.061 0 5.668-1.951 6.662-4.672h4.033v4.493h4.701v-4.493h5.993v4.493h4.702v-4.493h3.974c.995 2.721 3.601 4.672 6.662 4.672 3.914 0 7.098-3.184 7.098-7.098 0-3.915-3.184-7.099-7.098-7.099zm-36.727 9.495c-1.321 0-2.397-1.075-2.397-2.396 0-1.322 1.076-2.397 2.397-2.397 1.322 0 2.397 1.075 2.397 2.397 0 1.321-1.075 2.396-2.397 2.396zm36.727 0c-1.321 0-2.397-1.075-2.397-2.396 0-1.322 1.076-2.397 2.397-2.397 1.322 0 2.397 1.075 2.397 2.397 0 1.321-1.075 2.396-2.397 2.396z" fill="#273335"/></svg>