<svg height="256" preserveAspectRatio="xMidYMid" viewBox="0 0 256 256" width="256" xmlns="http://www.w3.org/2000/svg"><path d="m64.0457143 126.72c0-36.6994286 29.8587428-66.56 66.5599997-66.56 36.699429 0 66.56 29.8605714 66.56 66.56 0 36.701257-29.860571 66.56-66.56 66.56-36.7012569 0-66.5599997-29.858743-66.5599997-66.56z" fill="#21bbd1"/><path d="m256 20.48c0-11.264-9.879771-20.48-21.143771-20.48h-104.250515c-70.6907426 0-130.605714 56.0274286-130.605714 126.72v129.28h31.0857143v-129.28c0-53.6393143 44.7616-97.28 98.4009147-97.28 53.639314 0 97.837714 43.6388571 97.837714 97.28 0 53.639314-44.297143 97.28-97.936457 97.28-25.735315 0-52.587886-10.0608-67.2164574-26.432v58.432h68.4342854c70.692572 0 125.394286-58.587429 125.394286-129.28z" fill="#20222d"/></svg>