<svg height="256" preserveAspectRatio="xMidYMid" viewBox="0 0 256 256" width="256" xmlns="http://www.w3.org/2000/svg"><path d="m149.333333 159.146667h-62.933333c-9.1733333 0-14.5066667 5.653333-14.5066667 13.76 0 7.253333 4.9066667 12.373333 11.9466667 12.373333 8.2133333 0 12.9066667-5.653333 13.3333333-13.76h18.2399997c-.96 19.84-13.333333 30.4-31.7866663 30.4-17.28 0-30.1866667-11.733333-30.1866667-29.226667 0-18.24 13.5466667-30.933333 33.92-30.933333h62.293333c21.013334 0 37.013334-15.466667 37.013334-36.266667 0-21.013333-14.293334-35.8399997-34.666667-35.8399997-20.16 0-36.48 14.72-36.48 41.9199997v17.813334h-18.4533333v-17.813334c0-36.053333 23.1466663-59.413333 55.2533333-59.413333 30.613333 0 52.906667 21.9733333 52.906667 53.12.213333 31.146667-23.68 53.866667-55.893334 53.866667zm-21.333333 96.853333c71.573333 0 128-56.64 128-128s-56.426667-128-128-128c-71.5733333 0-128 56.8533333-128 128 0 71.36 56.4266667 128 128 128z" fill="#169cee"/></svg>