<svg height="236" preserveAspectRatio="xMidYMid" viewBox="0 0 256 236" width="256" xmlns="http://www.w3.org/2000/svg"><path d="m249.2421 102.85-89.628-95.06c-9.4-9.969-25.101-10.431-35.069-1.032l-66.375 62.582c12.508 8.279 22.009 20.714 26.566 35.332h94.898c13.242 0 13.242 31.837 0 31.837h-9.345v19.57c0 12.073-41.768 12.073-41.768 0v-19.57h-42.026c-2.777 14.613-10.334 27.522-21.049 36.999l51.229 54.334c9.399 9.968 25.1 10.43 35.069 1.031l96.466-90.954c9.969-9.399 10.431-25.1 1.032-35.069zm-222.37-6.0645c-14.841 0-26.872 12.031-26.872 26.872s12.031 26.872 26.872 26.872 26.872-12.031 26.872-26.872-12.031-26.872-26.872-26.872z" fill="#d40000"/></svg>