<svg height="99" preserveAspectRatio="xMidYMid" viewBox="0 0 512 99" width="512" xmlns="http://www.w3.org/2000/svg"><path d="m225.060788 32.8623876 11.969593-32.8623876h-33.64934l-9.09599 47.8877692h16.82467l-11.244619 50.5998502 43.532286-65.6252318zm-185.1559984-1.9306018c0 3.0715201-.569709 5.6599799-1.7091437 7.7654573-1.1394348 2.1054775-2.6751717 3.8022192-4.6072569 5.0902759-1.9320853 1.2880567-4.1613808 2.2293149-6.6879536 2.8238027-2.5265728.5944877-5.1521876.8917271-7.8769231.8917271h-6.3164005v19.8409293h-12.7071118v-52.6119023h19.3207547c2.8733574 0 5.5608971.2848544 8.0626996.8545718s4.6815582 1.4862056 6.5393323 2.7494921c1.8577742 1.2632864 3.3192012 2.9228732 4.3843252 4.97881 1.0651239 2.0559368 1.5976778 4.5948568 1.5976778 7.6168361zm-12.7071118.0743106c0-1.2385161-.2476995-2.2540842-.743106-3.0467345-.4954064-.7926502-1.164195-1.411899-2.006386-1.8577649s-1.795834-.7431052-2.8609579-.8917271-2.1673867-.2229318-3.3068215-.2229318h-5.5732946v12.4098696h5.3503628c1.1889755 0 2.3283932-.0990797 3.4182874-.2972424s2.0683072-.5449419 2.9352685-1.0403483c.8669613-.4954065 1.5481349-1.1518101 2.0435413-1.9692309.4954065-.8174207.743106-1.8453736.743106-3.0838897zm20.361103 36.3378817v-52.6119023h35.3718433v10.7750365h-23.1105951v9.8833093h21.847315v10.1805517h-21.847315v10.9236577h24.4481858v10.8493471zm73.2702472 0-11.369521-20.8812776h-4.310015v20.8812776h-12.48418v-52.6119023h20.063861c2.526572 0 4.991183.2600844 7.393904.7802612s4.557707 1.3995101 6.465022 2.6380262c1.907314 1.2385161 3.430667 2.8733329 4.570101 4.9044994 1.139435 2.0311663 1.709144 4.5577015 1.709144 7.5796808 0 3.5669265-.966028 6.5640905-2.898113 8.9915822s-4.60724 4.1613883-8.025544 5.2017417l13.74746 22.5161108zm-.520175-36.4865029c0-1.2385161-.260084-2.2416992-.780261-3.0095792-.520177-.7678799-1.188965-1.3623589-2.006386-1.7834543s-1.733909-.7059499-2.749492-.8545718-1.993996-.2229318-2.935268-.2229318h-6.762265v12.2612484h6.019159c1.040353 0 2.105461-.0866949 3.195355-.2600871s2.080692-.4830165 2.972424-.9288824 1.622445-1.0898845 2.192163-1.9320756c.569717-.842191.854571-1.9320687.854571-3.2696662zm34.182874-5.2760524v10.8493471h20.361103v10.4777941h-20.361103v20.4354141h-12.55849v-52.6119023h34.628737v10.849347zm132.718723 41.7625553-11.369521-20.8812776h-4.310015v20.8812776h-12.48418v-52.6119023h20.063861c2.526572 0 4.991183.2600844 7.393904.7802612 2.402722.5201768 4.557708 1.3995101 6.465022 2.6380262s3.430667 2.8733329 4.570102 4.9044994c1.139434 2.0311663 1.709143 4.5577015 1.709143 7.5796808 0 3.5669265-.966028 6.5640905-2.898113 8.9915822s-4.607241 4.1613883-8.025544 5.2017417l13.74746 22.5161108zm-.520174-36.4865029c0-1.2385161-.260085-2.2416992-.780261-3.0095792-.520177-.7678799-1.188965-1.3623589-2.006387-1.7834543-.817421-.4210954-1.733907-.7059499-2.749492-.8545718-1.015584-.1486219-1.993997-.2229318-2.935268-.2229318h-6.762264v12.2612484h6.019158c1.040353 0 2.105461-.0866949 3.195356-.2600871 1.089894-.1733922 2.080692-.4830165 2.972423-.9288824.891732-.4458659 1.622444-1.0898845 2.192163-1.9320756.569718-.842191.854572-1.9320687.854572-3.2696662zm76.465602 9.9576199c0 4.1614143-.718328 7.9636017-2.155007 11.4066766s-3.43066 6.390699-5.982003 8.842961-5.585663 4.3471631-9.103048 5.6847606-7.331957 2.0063861-11.443832 2.0063861c-4.111874 0-7.914059-.6687886-11.406676-2.0063861-3.492616-1.3375975-6.51455-3.2324986-9.065893-5.6847606-2.551342-2.452262-4.545323-5.3998861-5.982002-8.842961-1.43668-3.4430749-2.155008-7.2452623-2.155008-11.4066766 0-4.2109548.718328-8.0131424 2.155008-11.4066765 1.436679-3.3935341 3.43066-6.2792335 5.982002-8.6571845 2.551343-2.377951 5.573277-4.2109274 9.065893-5.4989842 3.492617-1.2880567 7.294802-1.9320755 11.406676-1.9320755 4.111875 0 7.926447.6440188 11.443832 1.9320755 3.517385 1.2880568 6.551705 3.1210332 9.103048 5.4989842s4.545324 5.2636504 5.982003 8.6571845 2.155007 7.1957217 2.155007 11.4066765zm-13.598839 0c0-2.2788696-.371548-4.4090855-1.114659-6.3907113-.74311-1.9816258-1.771063-3.6783675-3.083889-5.0902758-1.312827-1.4119083-2.898104-2.5265561-4.755879-3.3439769-1.857774-.8174207-3.901294-1.2261248-6.130624-1.2261248-2.229329 0-4.260465.4087041-6.093468 1.2261248-1.833004.8174208-3.418281 1.9320686-4.755878 3.3439769-1.337598 1.4119083-2.365551 3.10865-3.08389 5.0902758-.71834 1.9816258-1.077504 4.1118417-1.077504 6.3907113 0 2.377951.371549 4.5700917 1.114659 6.5764878.743111 2.0063961 1.771063 3.7279077 3.08389 5.1645865s2.885719 2.5637114 4.718723 3.3811321c1.833003.8174208 3.864139 1.2261249 6.093468 1.2261249 2.22933 0 4.260466-.4087041 6.093469-1.2261249 1.833003-.8174207 3.418281-1.9444533 4.755878-3.3811321 1.337598-1.4366788 2.377935-3.1581904 3.121045-5.1645865.743111-2.0063961 1.114659-4.1985368 1.114659-6.5764878zm68.291437 19.2464445c-2.328411 2.675195-5.201725 4.7930256-8.620029 6.353556s-7.356726 2.3407838-11.815385 2.3407838c-4.062332 0-7.81498-.6687886-11.258055-2.0063861-3.443074-1.3375975-6.427855-3.2324986-8.954426-5.6847606-2.526572-2.452262-4.508169-5.3875011-5.944848-8.8058057s-2.155007-7.1833372-2.155007-11.2952107c0-4.2109548.730714-8.0255272 2.192162-11.4438318 1.461448-3.4183047 3.4802-6.3287738 6.056314-8.7314951s5.598047-4.2480827 9.065892-5.5361395c3.467846-1.2880567 7.208107-1.9320755 11.2209-1.9320755 3.715549 0 7.369117.6564037 10.960813 1.9692308s6.502165 3.2324983 8.731495 5.7590713l-8.620029 8.6200292c-1.188977-1.6348413-2.749483-2.848569-4.681568-3.6412193-1.932084-.7926502-3.913681-1.1889695-5.944847-1.1889695-2.22933 0-4.27285.4087041-6.130624 1.2261248-1.857774.8174208-3.455436 1.9444534-4.793034 3.3811322-1.337597 1.4366788-2.377934 3.1334203-3.121045 5.0902758-.74311 1.9568556-1.114659 4.0994562-1.114659 6.4278666 0 2.377951.371549 4.5577067 1.114659 6.5393325.743111 1.9816258 1.771063 3.6783676 3.08389 5.0902759s2.88572 2.5141713 4.718723 3.3068215c1.833003.7926503 3.83937 1.1889696 6.019158 1.1889696 2.526572 0 4.731098-.4953991 6.613643-1.486212s3.393512-2.2788503 4.532946-3.864151zm37.601161 7.2824385-19.543686-24.2252545h-.148622v24.2252545h-12.48418v-52.6119023h12.48418v21.4014518h.222932l18.800581-21.4014518h15.902467l-22.664731 24.2252544 24.002322 28.3866479zm48.450508-38.9387526c-1.089895-1.387138-2.514166-2.4894008-4.272859-3.3068215-1.758693-.8174208-3.455433-1.2261249-5.090276-1.2261249-.84219 0-1.696755.0743099-2.563715.2229318-.866961.1486219-1.647215.4334765-2.340784.8545719s-1.275662.9660345-1.746299 1.6348331-.705951 1.5233621-.705951 2.5637156c0 .8917315.185774 1.6348301.55733 2.2293179.371555.5944878.916493 1.1146566 1.634833 1.5605225.718339.4458659 1.572902.85457 2.563715 1.2261248.990814.3715549 2.105461.7554892 3.343977 1.1518143 1.783464.5944878 3.64121 1.2508914 5.573295 1.9692308s3.690752 1.6719824 5.276052 2.860958c1.5853 1.1889755 2.898109 2.6627876 3.938462 4.4214805 1.040353 1.7586928 1.560522 3.9508336 1.560522 6.5764877 0 3.0219793-.557325 5.6352092-1.671988 7.839768-1.114664 2.2045587-2.613246 4.02515-4.495791 5.4618288-1.882546 1.4366788-4.03753 2.5017865-6.465022 3.1953557-2.427493.6935691-4.929256 1.0403483-7.50537 1.0403483-3.765088 0-7.406273-.6564036-10.923658-1.9692308s-6.440239-3.1829583-8.76865-5.61045l8.322787-8.471408c1.288055 1.5853007 2.984799 2.9104929 5.090275 3.9756169 2.105477 1.065124 4.19854 1.5976778 6.279246 1.5976778.941271 0 1.85776-.0990797 2.749492-.2972424.891732-.1981626 1.671986-.5201718 2.340784-.9660377.668797-.4458659 1.201351-1.0403447 1.597677-1.7834543.396327-.7431097.594485-1.6348281.594485-2.6751815 0-.9908129-.2477-1.8329912-.743106-2.5265603-.495405-.6935691-1.201349-1.3252027-2.117852-1.8949202s-2.055919-1.0898864-3.418287-1.5605225c-1.362369-.4706362-2.910491-.9784203-4.644412-1.5233673-1.684382-.544947-3.331584-1.1889658-4.941655-1.9320755s-3.046727-1.6967529-4.310014-2.8609579c-1.263288-1.1642051-2.278856-2.5760925-3.046735-4.235704-.767879-1.6596116-1.151814-3.6783627-1.151814-6.0563137 0-2.9228981.594478-5.4246631 1.783454-7.5053702 1.188977-2.0807071 2.749483-3.7898337 4.681568-5.1274312 1.932084-1.3375974 4.111839-2.3160105 6.539332-2.9352685 2.427493-.6192581 4.879717-.9288825 7.356749-.9288825 2.972438 0 6.006758.5449389 9.103048 1.6348331s5.808599 2.6999411 8.13701 4.8301888z" fill="#3b4c60"/></svg>