<svg height="256" preserveAspectRatio="xMidYMid" viewBox="0 0 256 256" width="256" xmlns="http://www.w3.org/2000/svg"><path d="m76.8483556 31.2888889-13.6391112-13.6391111c2.0366223-1.2003556 4.1102223-2.3381334 6.2208-3.4275556h24.4849778zm17.0666666-17.0666667 17.0666668 17.0666667 17.066667-17.0666667zm12.3363558-12.33635553c-6.7498669 1.15768889-13.3148447 2.84444444-19.6608002 5.01475555l7.3244444 7.32159998zm4.730311 29.40302223h-34.1333334l17.0666666 17.0666667zm16.918755 17.0894222.022756-.0227555h-.042667-34.0906663.0426666l-.0199111.0199111 13.2295108 13.2295111c3.245511-1.0382222 6.593423-1.8403556 10.023823-2.3950222zm-68.1841773 0 .0199111-.0227555h-.0426667-31.8151111c-.3384889.4238222-.6712889.8476444-1.0040889 1.2771555l15.7952 15.7895111zm170.7349333 34.1105778 17.066667 17.0666667 4.289422-4.2894223c-1.149156-4.3548444-2.5344-8.6158222-4.115911-12.7772444zm0 0h-34.133333l17.066666 17.0666667zm-204.8056889 68.2666671h-23.54062221c.84764444 4.724622 1.94275555 9.361066 3.29386667 13.889422l3.18008888 3.177244zm221.8751999 17.066666h-34.133333l17.066666 17.066667zm-17.069511 17.066667 7.947378 7.947378c1.527466-2.594134 2.963911-5.242311 4.312178-7.947378zm-34.133333 0 17.066666 17.066667 17.066667-17.066667zm0 34.133333h-34.133334l17.066667 17.066667z" fill="#eebb1c"/><path d="m128.0512 14.2222222h34.133333l-17.066666 17.0666667zm34.130489 0 17.066667 17.0666667 13.639111-13.6391111c-2.036623-1.2003556-4.113067-2.3381334-6.2208-3.4275556zm-20.622222-13.50826664c-4.440178-.46648889-8.945778-.71395556-13.511111-.71395556-4.565334 0-9.068089.24746667-13.508267.71395556l13.511111 13.50826664zm27.943822 6.18951111c-6.343111-2.17031111-12.908089-3.85706667-19.657956-5.0176l12.3392 12.33635553zm26.814578 41.45208893 16.352711-16.3527112c-.273067-.2389333-.548978-.4750222-.824889-.7139555h-32.594489zm-119.4695114-17.0666667h-32.5973334c-.2730666.2389333-.5489778.4750222-.8220444.7139555l16.3527111 16.3527112zm-34.1333334 34.1333333h-26.3168c-.9415111 1.6782222-1.8432 3.3820445-2.7107555 5.1057778l11.9608889 11.9608889zm85.1854218-17.0439111 10.715023 10.7150222c3.527111.5319111 6.968889 1.3198223 10.302577 2.3608889l13.075912-13.0759111.019911-.0227555h-.042667-34.093511.042667zm-34.1105773-.0227555h-34.0935111.0426666l-.0199111.0199111 17.0439111 17.0467555 17.0467556-17.0439111.0199111-.0227555zm98.0138663 51.2c2.335289 5.2053334 4.050489 10.7434664 5.051734 16.5290664l16.529066-16.5290664zm38.650311 17.0666664 17.066667-17.0666664h-34.133333zm-221.87519956-17.0666664 17.06666666 17.0666664 17.0666667-17.0666664zm34.13617776 0 16.7964445 16.7992884c.9955555-5.882311 2.7278222-11.511466 5.1029333-16.7992884zm153.6028448 51.2000004h-2.2528c-.423823 1.223111-.876089 2.429155-1.362489 3.618133zm-170.6723559 0 17.0666667 17.066666 17.0666666-17.066666zm204.8085329 0 17.066667-17.066667h-34.133333zm24.880356-9.250134c.270222-2.582755.455111-5.188266.568889-7.816533h-8.385422zm-59.016533 9.250134 17.066666-17.066667h-15.738311c-.432355 5.316267-1.450666 10.467555-3.012266 15.382755zm-170.6723559-34.133334 17.0666667 17.066667 16.6826666-16.682667c.0199112-.128.0483556-.256.0682667-.384zm223.5022219 52.827022c.184889-.540444.372623-1.080888.551823-1.627022h-2.178845zm-104.029866 32.506312 17.066666 17.066666 17.066667-17.066666zm-102.4028448 0 17.0666667 17.066666 17.0666667-17.066666zm102.4028448 34.133333h-34.133334l17.066667 17.066667zm-68.2695114 0 14.5607111 14.560711c1.2942222.386844 2.5941333.762311 3.9054222 1.109333l15.6672001-15.670044zm87.8108444-48.722489 14.592 14.589156 17.066667-17.066667h-27.932445c-1.217422.861867-2.454755 1.695289-3.726222 2.477511zm-19.544178 14.589156 9.463467-9.463467c-4.676267 1.92-9.605689 3.339378-14.722845 4.204089zm-131.7290664-17.066667c1.3454222 2.707911 2.7847111 5.356089 4.3121777 7.947378l7.9473778-7.947378zm148.7957334 34.133333h-34.133333l17.066666 17.066667zm44.2624 10.126222c4.056178-3.1488 7.930311-6.519466 11.576889-10.126222h-21.703111zm-112.5290668-10.126222 17.0666668 17.066667 17.066667-17.066667z" fill="#eb4326"/><g fill="#a2509e"><path d="m128.0512 48.3555556-17.066667-17.0666667h34.133334zm51.2-17.0666667h-34.133333l17.066666 17.0666667zm51.202844 51.2 11.960889-11.9608889c-.8704-1.7237333-1.772089-3.4275556-2.7136-5.1057778h-26.313955zm-51.202844-17.0666667h-20.408889c4.457245 2.1930667 8.644267 4.8526222 12.504178 7.9047111zm0 0 17.066667 17.0666667 17.066666-17.0666667zm-102.4028444 0 8.0469333 8.0469334c3.9111111-3.1118223 8.1550222-5.8197334 12.6805333-8.0440889zm-34.1333334 0 17.0666667 17.0666667 17.0666667-17.0666667zm153.3525338-17.0666666h.039822l-.019911.0199111 17.046755 17.0467555 15.954489-15.9544889c-.290133-.3726222-.580267-.7424-.873244-1.1121777zm-34.0736.0227555 17.046755 17.0439111 17.046756-17.0439111.019911-.0227555h-.039822-34.093512.042667zm92.168533 57.8190219c-.384-2.235733-.827733-4.445866-1.325511-6.6417774h-5.316267zm-245.58364456-6.6417774h-5.31911111c-.49777777 2.1930664-.94151111 4.4088884-1.32551111 6.6446224zm187.73902256-17.0666667h-15.399823c2.400712 2.7761778 4.588089 5.7372444 6.530845 8.8661333zm-170.6723559 0h-17.23733332c-1.58435556 4.1614222-2.96675556 8.4224-4.11875556 12.7800889l4.28942222 4.2865778zm49.8545778 0h-15.7184l9.0624 9.0624c1.9712-3.2028445 4.2040889-6.2264889 6.656-9.0624zm-15.7212445 0h-34.1333333-.0028444l17.0666666 17.0666667zm187.7390226 85.3333331 3.177244-3.177244c1.351111-4.528356 2.446222-9.1648 3.293867-13.889422h-23.537778zm-51.2-17.066666 17.066666 17.066666 17.066667-17.066666zm-136.5390226 0 4.1472 4.1472c-.5717333-1.359645-1.0865777-2.747734-1.5729777-4.1472zm-17.0638222-17.066667 17.0666667 17.066667 1.9228444-1.922845c-1.5189333-4.841244-2.5059555-9.912889-2.9326222-15.143822zm0 0h-34.13333331l17.06666671 17.066667zm-42.52444442 0c.11662222 2.625422.29866666 5.233778.57173333 7.819378l7.81653333-7.819378zm213.19395522 0 17.066667-17.066667h-33.496178c.042667.258845.099556.514845.136534.776534zm34.133334 0 8.459377-8.459378c-.059733-2.8928-.210488-5.762844-.4608-8.607289h-25.065244zm-221.8723559-17.066667h-25.06524443c-.25031111 2.844445-.40106667 5.714489-.4608 8.607289l8.45937777 8.459378zm170.6723559 68.266667 17.066666-17.066667h-28.034844c-.833422 1.191822-1.703822 2.3552-2.608356 3.492978zm-122.7832892-13.752889c-.8533334-1.080889-1.6753778-2.184533-2.4661334-3.313778h-28.3534222l17.0666667 17.066667zm-30.8224-3.313778h-34.13333336l17.06666666 17.066667zm-34.13333336 0h-2.17884444c.17635556.546134.36408889 1.086578.55182222 1.629867zm215.46951156 44.797156c2.998044-3.396267 5.8112-6.957511 8.439466-10.663822h-19.103289zm-113.066667-10.663822 17.066667 17.066666 17.066666-17.066666zm68.269511 0 17.066667 17.066666 17.066666-17.066666zm-102.4028444 0 17.0666666 17.066666 17.0666668-17.066666zm-34.1361778 0h-19.1032889c2.6282667 3.706311 5.4442667 7.264711 8.4394667 10.666666zm102.4056892 34.133333 15.670044 15.670044c1.311289-.347022 2.608356-.722489 3.905422-1.109333l14.557867-14.560711zm40.405333 6.274844c3.797333-1.911466 7.480889-4.007822 11.050667-6.274844h-17.322667zm-126.0003556-6.274844c3.5669334 2.267022 7.2533334 4.363378 11.0506667 6.274844l6.2748445-6.274844zm51.4588446-34.133333 5.307733-5.307734c-5.213866-.901689-10.231466-2.369422-14.981689-4.366222zm-51.2000001-17.066667 17.0666667 17.066667 14.7143111-14.714312c-1.2032-.745244-2.3779556-1.536-3.5299556-2.352355zm-34.1333333 0 17.0666666 17.066667 17.0666667-17.066667zm51.2 51.2 17.0666666-17.066667h-34.1333333zm-38.7726223-17.066667c3.6465778 3.606756 7.5207111 6.977422 11.5768889 10.126222l10.1262222-10.126222zm92.7459557 36.906667c8.240355-.176356 16.290133-1.112178 24.075378-2.773333h-26.851556zm-29.624889-2.773333c7.788089 1.661155 15.837867 2.599822 24.078222 2.773333l2.773334-2.773333z"/><path d="m71.1594667 128c0 31.419733 25.4691555 56.888889 56.8888893 56.888889 31.416888 0 56.888888-25.469156 56.888888-56.888889z" opacity=".4"/></g></svg>