<svg height="256" preserveAspectRatio="xMidYMid" viewBox="0 0 256 256" width="256" xmlns="http://www.w3.org/2000/svg"><path d="m255.759398 127.759398c0 70.559279-57.20012 127.759399-127.759398 127.759399-70.5597594 0-127.7593985-57.20012-127.7593985-127.759399 0-70.5597589 57.1996391-127.759398 127.7593985-127.759398 70.559278 0 127.759398 57.1996391 127.759398 127.759398" fill="#3a3c5b"/><g fill="#fff"><path d="m217.000902 137.208782c-4.304842-27.162466-32.802646-44.7576542-54.023699-58.0277895-9.270376-5.7965714-24.299789-13.3480902-26.24385-25.5398496-.802646-5.0381955-.773293-10.2433685-.941714-15.3306467-.066406-1.9974736-.097203-4.0064962-.275729-5.9991579-.230978-2.5705864-2.847278.5976542-4.281263-1.6457142-3.552722-5.5540452-2.185143 1.6832481-1.83579 4.6036691.821895 6.869173 1.787188 13.7181354 1.73185 20.6517895-.106346 13.2513684-2.241444 25.9363609-5.545384 38.7036391-7.738225 29.8990672-13.842285 60.5329322-6.187308 91.1292632 1.586045 6.339368 3.650887 12.593564 6.363429 18.54412.81997 1.799218 2.389654 6.821053 4.646015 7.422557 8.125594 2.1683 14.270075 2.79627 20.759579 8.840661 4.029112 3.752903 7.051067 1.702978 11.816902-.20403 14.43609-5.777323 26.946887-13.047819 37.176301-24.945082 14.379308-16.72373 20.311579-36.301474 16.840661-58.203429m-15.268571 27.349654c-1.280963 11.17209-8.288722 21.179669-15.444692 29.477053-5.187368 6.014556-12.205714 13.82015-19.896782 16.558676-2.768842.985985.506707-4.553142.912842-5.163789 2.380993-3.58015 5.314887-6.738767 8.038978-10.051368 4.030556-4.898166 7.521203-10.03982 9.88006-15.972091 7.83206-19.68794 6.052571-43.55224-5.538647-61.288421-6.310496-9.656782-14.971669-17.818947-23.702616-25.2650825-4.218226-3.5979549-8.486497-6.9995789-12.036331-11.3049022-.820932-.9941654-8.070737-10.4849324-5.815338-11.8881203.728541-.4537745 16.573593 16.2136541 18.296781 17.514827 6.552061 4.9472482 13.290828 9.521564 19.357354 15.092451 8.210286 7.542857 16.642406 15.968241 21.346165 26.226526 5.155128 11.23994 5.993865 23.910978 4.602226 36.064241"/><path d="m123.294316 3.44348872c2.378586 1.58604511 2.906466 10.83572928 2.906466 19.29239098 0 8.4585865.793023 44.9299248-1.849744 54.7089323-2.642286 9.7790075-8.721324 20.6152181-15.328722 30.129564-6.606918 9.514346-14.271519 29.600241-14.0073386 42.021534.2636993 12.422737 7.4004206 32.772331 12.9506166 41.229955 5.570887 8.489383 15.02797 20.321203 12.949654 22.993804-3.700451 4.757173-18.76403-11.629233-26.6928119-21.143098-7.9292632-9.514827-15.8580451-28.809142-16.1217444-43.872721-.2646616-15.065023 8.1924812-29.072842 14.2715188-37.529023 6.0790376-8.457624 17.9714885-22.9938044 21.1430975-29.6007217 3.171128-6.6073985 6.607399-13.7426767 7.664602-22.9938045 1.057203-9.2501655 0-42.2871579 0-42.2871579s-.264662-14.53569929 2.114406-12.94965418"/><path d="m116.951098 19.036391c2.378105 1.057203 2.642767 3.9641504 2.642767 6.8720601 0 2.9069474-.793023 14.8003609-1.585564 26.4291128-.793504 11.6287519-10.042707 21.4077594-16.914767 28.2788572-6.8710979 6.8710977-26.6932934 28.2793379-34.0937145 38.8513679-7.3999398 10.571549-11.0878797 24.496602-10.3068872 36.20764.7925414 11.892932 3.6994888 23.521684 14.8003609 35.943939 11.100391 12.421294 18.7645113 18.23567 24.578406 21.143579 5.8148568 2.905504 11.6297148 5.020391 10.3078498 7.664121-1.321865 2.642285-6.8720603.79206-12.9506167-1.321384-6.0785564-2.115368-26.6932932-10.571067-38.5867067-24.050526-11.8924512-13.47994-17.9710076-31.451429-17.4426467-48.630857.5278797-17.178466 5.2860151-24.314226 13.214797-35.414617 7.9283008-11.0999096 29.8644211-27.4853532 36.736-31.7141652 6.8720602-4.228812 16.1212631-11.3645714 20.6152181-17.1789474 4.492511-5.8148571 6.871098-10.5729925 6.606436-18.5012932-.26418-7.9283008.529323-15.0645414.264662-17.7068271-.264662-2.6427669-.264662-7.9283007 2.114406-6.8720601"/><path d="m117.613233 226.202947c1.074526-.043308.395549 4.613775-1.502316 6.924993-1.897864 2.310255-5.157052 3.699489-5.553082 2.770286-.397955-.930166 2.353563-1.464782 4.373173-3.712963 1.854556-2.064361 1.36421-5.928902 2.682225-5.982316"/><path d="m139.002707 226.080722c-1.074045-.044752-.395068 4.612331 1.502797 6.922586 1.897864 2.310256 5.157052 3.700933 5.552601 2.771248.397474-.930165-2.353564-1.4643-4.373173-3.712962-1.854556-2.062917-1.363729-5.929383-2.682225-5.980872"/><path d="m129.494617 231.132872c0 4.067609.207398 7.36385-.680422 7.36385-1.093293 0-.680902-3.296241-.680902-7.36385 0-4.067128-.371007-7.364812.680902-7.364812.969143 0 .680422 3.297684.680422 7.364812"/></g></svg>