<svg height="292" preserveAspectRatio="xMidYMid" viewBox="0 0 256 292" width="256" xmlns="http://www.w3.org/2000/svg"><path d="m203.573531 139.85597-17.748494-35.75419 5.658944 23.921868z" fill="#73b08f"/><path d="m182.744685 91.5718826 13.700648 57.8754764-44.056985-46.557603-64.2049862-59.9332831-16.3870463-42.9564729z" fill="#c5e4d3"/><path d="m155.917143 104.324072-57.6939046-27.6598874-31.4961519-33.8363638-4.1210137-22.2890362z" fill="#76c39b"/><path d="m200.050714 151.984676-54.464072-13.883937-104.7385812-60.2510714-40.8480608-56.0596923 157.107886 83.3036557z"/><path d="m143.090857 136.501153v1.608734l-7.034666 13.138067-36.7365861-12.06557-68.2623428-51.2115647-26.57540288-38.0735228 30.48355038 18.2323915 4.6897913 7.2393311z" fill="#73b08f"/><path d="m44.121314 98.0093387-5.0816143-.5905534-17.7856358-6.4960815 36.4181882 33.3662452 9.5985984 7.381911 38.1120645 12.696887z" stroke="#000" stroke-width="1.122449"/><path d="m193.432742 149.497171-.771676 29.57016-2.829458-4.833566-16.462373-1.137327-38.069203-21.893306 8.745633-15.353722z" fill="#76c39b"/><path d="m38.4981481 116.924238 47.3866154 36.213182 49.2192575 16.382169 37.961661 3.448864-37.699857-21.842878z" fill="#c5e4d3"/><path d="m61.4766266 145.772128 32.9247321 18.26294 38.3264293 3.858363-46.300386-14.404562-7.4595111-4.630053z" fill="#76c39b"/><path d="m134.641623 167.151704-53.8731653-4.699159 27.7528453 10.651402 18.229806 2.506211z" fill="#73b08f"/><path d="m122.438812 175.456973-4.630039.682605-21.6068476 3.071728 10.5461986-7.167357z" fill="#76c39b"/><path d="m156.946049 180.124768-1.054906 1.870388-78.854579 45.691166-15.5599374 20.574377 5.5382811-22.177581 17.1423035-23.513586 49.0533458-33.132764z" fill="#76c39b"/><path d="m70.7367044 202.618716-13.8901167 18.26294v-7.973957z"/><path d="m185.20157 183.326885-52.731006 35.75419-4.372815-7.459497-18.262937 38.583648 4.115593 5.658944 3.086695 35.75419-22.1212958-40.898674 18.0057098-44.242607 43.985362-27.265773z" fill="#c5e4d3"/><path d="m112.921514 205.705418-35.2397442 19.034601-1.0289054 26.236882 10.8034288 35.239745v-18.00571z"/><path d="m69.1933676 256.121386.5144456 1.800581 4.6300389 19.549047-6.17339-3.858364z" fill="#73b08f"/><path d="m133.384043 216.570559-4.726984-5.833911-19.742116 37.390058 31.420547 41.102545-7.785619-18.297278z" fill="#73b08f"/><path d="m137.100603 214.337781-4.115591 2.158395-.257224 44.786842 7.716732 16.187996 14.40456-5.395994-.514446-10.792002-15.690685-15.378621z" fill="#76c39b"/><path d="m208.129058 182.777915-23.92187 6.687836-25.979652 22.121289-14.147347-.514446 40.898675-27.523003z"/><path d="m198.296885 185.732856-7.496552-13.791793-67.469004-5.281966 30.253955 12.618025z" fill="#73b08f"/><path d="m158.964673 210.730612 3.343918 7.886188 7.202281 5.166838h1.286121l-.514446 8.43008-22.121288 9.24589-7.459514-17.132106-2.057796-10.061716 6.687837-5.438755z" fill="#73b08f"/><path d="m170.796993 255.092495-13.375657-5.91616-5.144498 10.546199 1.800581 2.572242-.25723 11.317874 9.774523 11.060645-1.543337-20.835168 2.315012-1.028906 7.716727 7.459511-3.601133-8.488402-8.231187-4.372809 1.800581-3.086702 8.745618 3.858364z"/><path d="m174.140911 211.107118-5.144485 12.34678 1.028906 10.546199 10.546199 13.118441-1.286121-21.092398 1.543336-1.028891 8.231187 7.202281-3.343918-7.973956-9.260078-4.887269 1.543337-2.572242 9.517308 4.115593-.25723-3.601148z"/><path d="m221.727421 156.575557-28.551895-6.687835v26.751342l3.343904 5.91616 25.207991.257215 23.92187 8.231187-.771676-3.343918-14.661778-8.488402-29.323584-11.575104 16.719589-.257216-16.205143-7.459511z" fill="#c5e4d3"/><path d="m255.030218 181.029135-10.803429-17.491265-24.693546-7.459511-19.549046 3.601148 15.433453 7.716727-14.404562.514445 27.008558 11.575105 15.433467 7.459511z" fill="#73b08f"/><path d="m240.95192 201.84704 4.115593-6.173375-3.086688-7.973957 12.861211-7.202281.25723 14.661792-7.716727 6.945051z"/><path d="m251.264829 178.835515-8.828195-4.119812-4.708369 4.119812" stroke="#000" stroke-width=".3"/></svg>