<svg height="279" preserveAspectRatio="xMidYMid" viewBox="0 0 256 279" width="256" xmlns="http://www.w3.org/2000/svg"><g><path d="m242.562388 40.6566784c-.824294-21.5057366-19.727485-26.016199-19.727485-26.016199s-65.517477-9.87300399-94.219577-13.45729342c-28.7113617-3.60281289-26.923848 24.21942342-26.923848 24.21942342s6.520257 202.7855736 7.196364 227.9033846c.768724 29.924649 28.702101 25.10855 28.702101 25.10855l98.711516-17.069368c17.949232-3.593552 18.838358-26.006937 18.838358-26.006937s-11.660518-171.2030756-12.577429-194.6815606c-.824294-21.5057366.916911 23.478485 0 0zm-22.079964 172.2589116-73.399208 7.603881s-21.376073 3.260129-21.857683-22.709762c-.351946-19.134734-4.584556-128.7380437-4.584556-128.7380437s-1.472615-20.0979536 20.523993-18.4493657c22.450433 1.6671113 76.24256 5.7607959 76.24256 5.7607959s14.401989 3.42684 15.031787 19.8386253c.676106 17.8380915 6.890727 116.9015532 6.890727 116.9015532s1.620803 16.282121-18.84762 19.792316z"/><path d="m40.7956042 183.370672-13.5591724.96322s-13.6795748 1.852347-13.9944736-13.114609c-.2222816-11.03072-1.5930175-73.6400138-1.5930175-73.6400138s-.9446965-11.5864236 13.1238711-10.6417271c3.5657659.2315433 8.6226704.5557038 14.2074934.8891261-.1944963-10.3823991-.3612074-19.4588943-.4908716-26.3681447-7.7428061-.5834891-14.9854788-1.2132866-20.1627858-1.7597287-18.58829167-2.0468423-17.44909891 13.5591724-17.44909891 13.5591724s2.24133866 114.8269258 2.65811642 128.9047558c.5093952 16.782254 18.57902999 14.059306 18.57902999 14.059306l19.2921831-2.065366c-.1667111-8.326296-.3889926-18.940238-.6112742-30.785991z"/><path d="m94.7266568 79.0002396c-.0648321-1.4633533-.305637-2.7970423-.6761062-3.9918054-5.9367688-.48161-20.838892-4.3622748-25.6179446.685368-3.0285856 3.1767732-1.7782522 9.8730039-1.7041583 13.6795748 6.3905936.3612076 10.8084386.6112742 10.8084386.6112742s9.2154212 1.9727485 9.6136756 11.4197128c.4260396 10.299043.3704692 67.990359.3704692 67.990359s1.0373137 9.409916-12.0402487 11.401188l-6.8629418.509396c.037047 2.046842.0740938 3.695431.0926173 4.917979.2871136 16.448832 17.7825212 11.178908 28.7576706 10.113808.9446967-17.449098-.7316763-35.426116-1.1206689-52.884477-.4723483-21.477952-.6483211-42.992949-1.6208028-64.4523774-.0648321-1.4633533.5927507 13.1331329 0 0z"/><path d="m100.404097 203.079634-19.7737929 1.907916s-18.440104 2.648854-18.8383583-18.597553c-.2871137-15.680109-2.1394596-104.555668-2.1394596-104.555668s-1.2781187-16.4303086 17.6435952-15.1151431c4.8624081.3334223 11.5493771.8798644 18.8290966 1.4633534-.5464419-17.0508445-.9817433-30.4988762-1.2040248-37.4266501-9.9656212-.9724817-19.3570152-1.954225-26.3033126-2.7507337-25.0066704-2.8340894-23.4321764 19.2736597-23.4321764 19.2736597s2.9730153 163.0249678 3.5565042 182.9469488c.6761063 23.811907 25.0066705 19.986813 25.0066705 19.986813l27.9982091-3.58429c-.277851-9.270992-.7502-24.839959-1.342951-43.548653z"/><path d="m140.637052 57.5500735c-3.500934-.2778519-7.752068-.0463086-10.345353 2.6859016-2.741472 2.8711362-2.787781 6.9462973-2.630331 10.6324659 9.919312.8613408 17.115677 1.5004001 17.115677 1.5004001s12.392194 2.7877807 12.95716 16.2172889c.574227 14.605748 4.12147 93.969511 4.12147 93.969511s1.389259 13.346153-16.226551 16.22655l-13.336892 1.278119c1.768991 20.848153 28.729887 12.04951 42.520603 10.623204-1.417045-31.350955-5.807105-128.3120047-6.798111-151.0773365-10.456492-.8150323-20.440637-1.5652323-27.377672-2.056104-.685369-.0555704 6.937035.4908717 0 0z"/></g></svg>