<svg height="256" preserveAspectRatio="xMidYMid" viewBox="0 0 256 256" width="256" xmlns="http://www.w3.org/2000/svg" xmlns:xlink="http://www.w3.org/1999/xlink"><linearGradient id="a" x1="1.353591%" x2="75.580111%" y1="144.124579%" y2="24.62963%"><stop offset=".02" stop-color="#765af8"/><stop offset=".38" stop-color="#b345f1"/><stop offset=".76" stop-color="#fa3293"/><stop offset=".94" stop-color="#ff318c"/></linearGradient><linearGradient id="b" x1="60.022831%" x2="25.410959%" y1="98.520408%" y2="6.721939%"><stop offset=".18" stop-color="#765af8"/><stop offset=".24" stop-color="#8655f6"/><stop offset=".34" stop-color="#9f4cf3"/><stop offset=".44" stop-color="#ae47f2"/><stop offset=".52" stop-color="#b345f1"/></linearGradient><linearGradient id="c" x1="87.772277%" x2="17.940594%" y1="80.797342%" y2="35.498339%"><stop offset=".02" stop-color="#765af8"/><stop offset=".38" stop-color="#b345f1"/></linearGradient><path d="m0 49.2 43.6-49.2 89.2 19.2 12 36.4-8.8 63.2-35.462308-18.148358 1.862308 50.548358v44l-78 .8z" fill="url(#a)"/><path d="m80.8 150 4.8-60.4 72.4-74.4 64.8 12 33.2 82.8-34.8 34.4-56.4-9.2-35.6 36.8z" fill="url(#b)"/><path d="m158 15.2-104 92.4 20 118.4 86.4 30 95.6-57.2z" fill="url(#c)"/><path d="m48 48h160v160h-160z"/><path d="m63.2 178h60v10h-60zm-.8-109.2h27.2c16 0 25.6 9.2 25.6 22.8 0 15.2-12 23.2-26.8 23.2h-11.2v20h-14.8zm26.4 34c6.98 0 11.6-4.8 11.6-10.4 0-6.4-4.4-10-12-10h-11.2v20.4zm30 22.8 8.8-10.4c6 4.8 12.4 8 20 8 6 0 9.6-2.4 9.6-6.4 0-3.6-2.4-5.6-13.6-8.4-13.6-3.6-22-7.2-22-20.4v-.4c0-12 9.6-20 23.2-20 8.971202-.0384465 17.698743 2.9176559 24.8 8.4l-7.6 11.2c-6-4-11.6-6.4-17.2-6.4s-8.4 2.4-8.4 6c0 4.4 2.8 6 14.4 8.8 13.6 3.6 21.2 8.4 21.2 20 0 13.2-10 20.8-24.4 20.8-10.615458.14349-20.896401-3.711864-28.8-10.8z" fill="#fff"/></svg>