<svg height="257" preserveAspectRatio="xMidYMid" viewBox="0 0 256 257" width="256" xmlns="http://www.w3.org/2000/svg"><path d="m127.961388.23167421c-70.6696142 0-127.961388 57.29177379-127.961388 127.96138779s57.2917738 127.961387 127.961388 127.961387c70.669613 0 127.961387-57.291773 127.961387-127.961387s-57.291774-127.96138779-127.961387-127.96138779zm.695022 78.15143289 23.707994 17.3755656 23.707994 17.4527903-9.189743 28.032579-9.266969 27.87813-29.422624-.077225-29.4226246-.154449-9.0352941-28.032579-8.8808447-28.03258 23.8624434-17.2983405z" fill="#e9eaeb"/><path d="m113.752036 177.925792c-6.378558 0-9.7268 4.419728-7.33635 11.352036l16.448869 47.802112c1.682931.077126 3.394846.154449 5.096833.154449 42.309839 0 78.985573-24.09474 97.071493-59.308597z" fill="#0dab62"/><path d="m170.57698 157.576637c-2.0444 6.042055 1.069017 10.63023 8.401777 10.58777l50.552342-.260001c.612456-1.569427 1.234388-3.166246 1.779893-4.778444 13.56077-40.077775 2.492133-82.5413025-25.067272-110.9595259z" fill="#ffd34e"/><path d="m76.2299851 129.781428c-1.9461054-6.074429-7.1766517-7.914562-13.0490998-3.523035l-40.5043356 30.249065c.4400157 1.62622.8886862 3.280102 1.4079642 4.900936 12.9087788 40.292504 47.0444895 67.868207 86.0973841 74.348003z" fill="#448afd"/><path d="m109.522387 79.7680419c5.105126-3.8240923 5.135185-9.3688036-.934108-13.4839974l-41.8234518-28.39729c-1.3931837.9472275-2.8096855 1.9116743-4.1718829 2.932054-33.8629899 25.3657335-48.7713255 66.6380925-42.1349975 105.6646885z" fill="#9b479f"/><path d="m168.738665 96.2116495c5.162104 3.7468207 10.467992 2.1367652 12.605524-4.8776576l14.767475-48.3479954c-1.316676-1.0509879-2.656692-2.119158-4.034092-3.1189205-34.240944-24.8531748-78.075726-26.897187-113.3974153-9.0227825z" fill="#e04a3f"/></svg>