<svg height="383" preserveAspectRatio="xMidYMid" viewBox="0 0 256 383" width="256" xmlns="http://www.w3.org/2000/svg"><path d="m256.0005 129.3793c0 44.045-20.434 68.692-40.193 92.529-15.366 18.534-29.927 36.101-34.198 62.258 6.116 2.723 10.346 8.877 10.346 15.964 0 9.654-7.795 17.508-17.376 17.508h-93.158c-9.581 0-17.376-7.854-17.376-17.508 0-7.087 4.23-13.241 10.344-15.964-4.27-26.156-18.832-43.724-34.197-62.258-19.76-23.837-40.192-48.484-40.192-92.529 0-71.34 57.42-129.379 127.999-129.379 70.58 0 128.001 58.039 128.001 129.379zm-81.4209 194.8066c5.485 0 10.71 2.655 13.976 7.104 3.358 4.576 4.281 10.393 2.531 15.96-2.204 7.035-9.196 11.95-17.002 11.95h-.174c-4.572 0-8.689 2.582-10.748 6.739l-.12.245c-5.053 10.219-15.223 16.568-26.541 16.568h-17.001c-11.315 0-21.486-6.347-26.546-16.564l-.124-.251c-2.055-4.155-6.172-6.737-10.745-6.737h-.175c-7.806 0-14.798-4.916-17.002-11.954-1.747-5.566-.822-11.383 2.538-15.958 3.265-4.448 8.489-7.102 13.975-7.102z" fill="#fff"/><path d="m186.2241 300.1303c0 6.501-5.217 11.776-11.646 11.776h-93.157c-6.427 0-11.644-5.275-11.644-11.776 0-6.271 4.861-11.352 10.974-11.705-7.248-66.264-75.02-81.024-75.02-159.046 0-68.288 54.742-123.647 122.269-123.647s122.269 55.359 122.269 123.647c0 78.021-67.772 92.782-75.021 159.047 6.114.352 10.976 5.433 10.976 11.704m-11.646 29.787h-93.157c-7.662 0-13.594 7.484-11.044 15.615 1.536 4.905 6.445 7.937 11.534 7.937h.174c6.726 0 12.874 3.844 15.884 9.927l.122.248c4.059 8.195 12.344 13.377 21.409 13.377h17.001c9.066 0 17.351-5.182 21.404-13.377l.122-.248c3.01-6.082 9.158-9.927 15.883-9.927h.174c5.089 0 9.997-3.032 11.535-7.937 2.555-8.131-3.378-15.615-11.041-15.615" fill="#333"/><path d="m70.0112 143.0033 52.178-105.344c.754-1.35 1.746-1.968 2.878-1.968 1.709 0 3.09 1.387 3.09 3.105 0 .03-.079.679-.079.679l-8.786 71.224c-.096.857-.115 1.162-.115 1.474 0 5.14 4.161 9.303 9.297 9.303l48.685.048c7.173.563 12.831 6.571 12.831 13.906 0 2.163-.493 4.211-1.38 6.039l-52.537 106.083-.329.684c-.578.837-1.533 1.381-2.586 1.381-1.709 0-3.109-1.381-3.109-3.104.067-.624 8.816-71.483 8.816-71.483.104-.482.165-.977.183-1.485.018-5.556-4.143-9.725-9.278-9.725l-48.735-.048c-7.172-.556-12.831-6.565-12.831-13.9 0-1.919.377-3.746 1.083-5.409 0-.006.724-1.46.724-1.46" fill="#fc0"/></svg>