<svg height="140" preserveAspectRatio="xMidYMid" viewBox="0 0 256 140" width="256" xmlns="http://www.w3.org/2000/svg"><path d="m151.704857 35.4559568c-9.194734 9.2340282-14.255768 21.5015329-14.255768 34.5470535 0 13.0612382 5.061034 25.3287428 14.255768 34.5549127 9.194734 9.226169 21.422945 14.30292 34.421314 14.30292 13.014085 0 25.242296-5.076751 34.437031-14.30292 9.194734-9.2261699 14.263626-21.5015333 14.263626-34.5549127 0-13.0455206-5.061033-25.3051666-14.255768-34.5470535-9.202593-9.2261694-21.430804-14.3029202-34.444889-14.3029202-12.998369 0-25.22658 5.0767508-34.421314 14.3029202z" fill="#029aff"/><path d="m69.7606032 0c-38.4693685 0-69.7606032 31.4017987-69.7606032 70.0037697 0 38.5868923 31.2912347 69.9962303 69.7606032 69.9962303h116.4712538c18.63902 0 36.162111-7.268027 49.33459-20.492218 13.180019-13.216652 20.433553-30.7986431 20.433553-49.5040123 0-18.6978297-7.253534-36.2647423-20.433553-49.4889331-13.180019-13.21665145-30.68803-20.5148366-49.33459-20.5148366zm83.4382658 103.139641c-8.821866-8.8437715-13.677663-20.612849-13.677663-33.1434107 0-12.5154828 4.855797-24.2770209 13.677663-33.1434111 8.821866-8.8513113 20.554194-13.7217944 33.025448-13.7217944 12.486333 0 24.226201 4.8704831 33.048068 13.7217944 8.821866 8.8588508 13.677662 20.6279283 13.677662 33.1434111s-4.863336 24.2996392-13.685203 33.1509507c-8.821866 8.851311-20.569274 13.721794-33.048067 13.721794-12.471254 0-24.203582-4.870483-33.025448-13.721794zm-130.1564562-33.1283318c0-25.8452259 20.9613572-46.8802844 46.7181904-46.8802844h64.7917058c-23.9623 26.5614734-23.9623 67.176477 0 93.7454902h-64.7917058c-25.7568332 0-46.7181904-21.0350588-46.7181904-46.8727453z" fill="#303030"/></svg>