<svg height="256" preserveAspectRatio="xMidYMid" viewBox="0 0 256 256" width="256" xmlns="http://www.w3.org/2000/svg"><path d="m94.0114747 58.8463838 28.5530503 49.4519592c4.53301-1.212767 9.482344-.858505 13.981738 1.246384l15.010909-25.9982219-25.090586-43.4450102-32.7498991 18.9129697h.0025858zm-43.044202 63.9715552h57.1190303c.455111-1.698909 1.111919-3.374545 2.032485-4.964848 1.551515-2.691879 3.633131-4.876929 6.022465-6.544808l-15.008324-25.9904648h-50.1811714v37.8233538h.0155151zm94.6656973 15.54101c-1.556687 2.691879-3.625374 4.869172-6.009536 6.534465l15.018667 26.011152h50.168242v-37.49495h-57.142303c-.460282 1.698909-1.122262 3.35903-2.03507 4.949333zm-3.278869-24.74408c3.465051 3.449535 5.52598 7.979959 5.939717 12.730182h30.011475l25.090586-43.4475965-32.470626-18.7526464zm-57.5224242 78.467878 28.5711512-49.490747c-3.449535-3.454707-5.510464-7.972202-5.934545-12.706909h-30.0269901l-25.0905858 43.426909 32.7421414 18.925899zm76.9215352 5.285495-28.547879-49.454545c-4.530424 1.223111-9.484929.879192-13.989495-1.238626l-15.01608 26.00598 25.07507 43.434666 32.752485-18.905212z" fill="#ed7d1a"/><path d="m127.888808.23272727c-70.5163636 0-127.888808 57.35692933-127.888808 127.86294973 0 70.526707 57.3724444 127.904323 127.888808 127.904323 70.511192 0 127.870707-57.377616 127.870707-127.904323 0-70.5060204-57.359515-127.86294973-127.870707-127.86294973zm0 25.88961613c56.32 0 101.975919 45.6507475 101.975919 101.9733336 0 56.338101-45.655919 102.012121-101.975919 102.012121-56.3277575 0-101.9914343-45.67402-101.9914343-102.012121 0-56.3225861 45.6636768-101.9733336 101.9914343-101.9733336z" fill="#5282b0"/></svg>