<svg height="260" preserveAspectRatio="xMidYMid" viewBox="0 0 256 260" width="256" xmlns="http://www.w3.org/2000/svg"><path d="m148.576164 67.064132-14.173978 53.711918h14.919977c50.727922 0 67.139897-26.8559589 85.04387-69.3778941l20.887968-49.98192369c-70.869892-5.22199203-91.75786 8.95198639-106.677837 65.64789979" fill="#3ec4fc"/><path d="m.8683893 2.16223108 20.8879681 49.98192372c17.9039727 42.5219351 34.3159477 69.3778942 85.0438706 69.3778942h14.919977l-14.173978-53.7119181c-14.9199777-57.4419123-35.8079458-71.61589072-106.6778377-65.64789982" fill="#ffbd00"/><path d="m107.546227 193.13794 14.173978-53.711918h-14.919977c-50.7279229 0-67.1398979 26.855959-85.0438706 69.377894l-20.8879681 49.981923c70.8698919 5.221993 91.75786-8.951986 106.6778377-65.647899" fill="#f18b37"/><path d="m255.254001 258.039841-20.887968-49.981924c-17.903973-42.521935-34.315948-69.377894-85.04387-69.377894h-14.919977l14.173978 53.711918c14.919977 57.441912 35.807945 71.615891 106.677837 65.6479" fill="#0090db"/></svg>