<svg height="256" preserveAspectRatio="xMidYMid" viewBox="0 0 256 256" width="256" xmlns="http://www.w3.org/2000/svg" xmlns:xlink="http://www.w3.org/1999/xlink"><linearGradient id="a" x1="29.629299%" x2="81.636052%" y1="10.454505%" y2="111.467622%"><stop offset="0" stop-color="#3023ae"/><stop offset="1" stop-color="#c86dd7"/></linearGradient><path d="m92.2095353 8h72.0175827c46.499541 0 84.209536 37.709994 84.209536 84.2095353v72.0175827c0 46.499541-37.709995 84.209536-84.209536 84.209536h-72.0175827c-46.4995413 0-84.2095353-37.709995-84.2095353-84.209536v-72.0175827c0-46.4995413 37.709994-84.2095353 84.2095353-84.2095353z"/><path d="m97.1340054 15.0460601c-45.344516 0-82.0878997 36.7432724-82.0878997 82.0876511v61.7318028c0 45.344379 36.7433837 82.087651 82.0878997 82.087651h61.7319896c45.344516 0 82.087899-36.743272 82.087899-82.087651v-61.7318028c0-45.3443787-36.743383-82.0876511-82.087899-82.0876511zm0-15.0460601h61.7319896c53.654251 0 97.134005 43.479623 97.134005 97.1337112v61.7318028c0 53.654088-43.479754 97.133711-97.134005 97.133711h-61.7319896c-53.6542507 0-97.1340054-43.479623-97.1340054-97.133711v-61.7318028c0-53.6540882 43.4797547-97.1337112 97.1340054-97.1337112z" fill="url(#a)"/><path d="m125.450687 191.027164-66.450687-26.187462 67.105373-99.839702zm-6.535879-102.6567087-49.1434799 73.1159097 48.6640319 19.177944zm17.593623 92.2796027 48.938281-19.431376-49.418069-72.9276367zm-7.669528-115.570648 67.397852 99.460908-66.743503 26.501097z" fill="#fff"/></svg>