<svg height="285" preserveAspectRatio="xMidYMid" viewBox="0 0 256 285" width="256" xmlns="http://www.w3.org/2000/svg"><path d="m97.3253 120.7566 26.762-15.323c2.424-1.388 5.402-1.388 7.825 0l26.763 15.323c1.966 1.126 3.328 3.027 3.789 5.194l-.854 1.236-33.612 16.849-33.877-18.084-.284-1.052c.627-1.723 1.847-3.203 3.488-4.143zm144.0336-59.5709-98.899-56.626c-8.958-5.129-19.962-5.129-28.919 0l-98.9 56.626c-5.583 3.197-9.841 8.089-12.291 13.815l-.022.584 21.838 12.132.568-.227c1.986-4.84 5.538-8.98 10.226-11.665l81.172-46.476c7.352-4.209 16.384-4.209 23.736 0l81.172 46.476c5.525 3.164 9.473 8.349 11.137 14.319l1.444.941 20.794-10.593.463-2.023c-2.054-7.205-6.838-13.458-13.519-17.283zm-165.0309 44.4431 45.081-25.812c4.083-2.337 9.099-2.337 13.182 0l45.081 25.812c3.19 1.826 5.429 4.866 6.285 8.348l.361.392 22.203-11.254.24-.708c-1.226-4.777-4.327-8.94-8.718-11.454l-62.854-35.987c-5.692-3.26-12.686-3.26-18.378 0l-62.853 35.987c-3.649 2.089-6.485 5.511-8.018 9.283l.281.669 21.627 12.203.525-.275c1.03-2.999 3.119-5.58 5.955-7.204z" fill="#ff4300"/><path d="m232.1764 90.1439c.574 2.06.88 4.212.88 6.408v92.609c0 8.564-4.585 16.472-12.017 20.727l-81.172 46.476c-3.676 2.105-7.811 3.156-11.906 3.156l-.516.58-.048 24.046.601.854c4.991 0 9.982-1.282 14.461-3.846l98.899-56.626c9.055-5.185 14.642-14.82 14.642-25.255v-112.833c0-2.735-.393-5.412-1.123-7.972zm-23.4154 12.2632-22.804 11.569c.251 1.024.389 2.084.389 3.164v51.433c0 4.756-2.547 9.148-6.674 11.511l-45.081 25.812c-2.079 1.19-4.4 1.771-6.716 1.749l-.673.996.234 23.538.439 1.009c3.213.022 6.431-.789 9.314-2.44l62.854-35.987c5.754-3.295 9.304-9.419 9.304-16.05v-71.709c0-1.571-.205-3.112-.586-4.595zm-46.2969 23.5431c.088.471.172 1.151.172 1.64v30.533c0 2.823-1.511 5.43-3.961 6.833l-26.762 15.323c-1.213.695-2.565 1.042-3.916 1.041l-.653-1.053.118-36.803.537-.508z" fill="#ff5b00"/><path d="m127.9986 142.9564.001 38.364c-1.35 0-2.7-.347-3.912-1.041l-26.762-15.323c-2.451-1.403-3.962-4.01-3.962-6.833v-30.533c0-.93.164-1.837.472-2.686zm-.1234 64.6924c-2.233-.021-4.462-.605-6.466-1.753l-27.859-15.951v50.657l-24.063-12.916.167-110.545c0-1.452.272-2.972.719-4.308l-22.433-12.597c-.795 2.076-1.288 4.473-1.288 6.766l-.344 108.652-11.501-6.547c-7.431-4.255-11.864-11.382-11.864-19.946v-92.609c0-3.161.629-6.231 1.791-9.062l-22.384-12.489c-1.523 3.559-2.35 7.439-2.35 11.439v112.834c0 10.434 5.586 20.069 14.641 25.254l98.899 56.626c4.478 2.564 9.468 3.846 14.458 3.846z" fill="#dc2f03"/></svg>