<svg height="266" preserveAspectRatio="xMidYMid" viewBox="0 0 512 266" width="512" xmlns="http://www.w3.org/2000/svg"><path d="m7.5326226 14.6285714 6.7684435-6.76844347c10.3710021-10.26183369 27.2921109-9.60682303 36.7897655 1.41918977l93.6665244 109.1684433c8.187633 9.497655 8.078465 23.580384-.218337 32.96887l-93.339019 105.784222c-9.606823 10.807676-26.3095949 11.353518-36.5714286 1.091684l-6.76844347-6.768443c-9.17014925-9.170149-9.82515991-23.798721-1.52835821-33.842218l55.89424308-67.029424c7.641791-9.170149 7.7509595-22.379531.3275053-31.768017l-56.76759059-70.9594883c-8.07846482-9.8251599-7.31428572-24.2353945 1.74669509-33.2963753z" fill="#92d13d"/><g fill="#49691f"><path d="m62.1168443 150.870789-55.89424302 67.029424c-8.29680171 9.934329-7.64179105 24.672068 1.52835821 33.842218l6.76844351 6.768443c10.2618337 10.261834 26.9646055 9.715992 36.5714286-1.091684l20.196162-22.925373c7.641791-15.065246 11.8993603-32.095523 11.8993603-50.108316 0-22.270362-6.5501066-42.903198-17.6852878-60.260981 4.1484009 8.515139 3.0567164 19.104478-3.3842218 26.746269z"/><path d="m192.791471 214.515991h-21.72452v-126.3078887h21.72452v13.2093817c3.056717-8.8426439 14.082729-15.1744136 29.147975-15.1744136 12.881876 0 23.689552 4.5850746 32.423027 13.7552238 8.842644 9.0609808 13.209382 20.3053308 13.209382 33.8422178s-4.366738 24.781236-13.209382 34.060554c-8.733475 9.060981-19.541151 13.536887-32.423027 13.536887-15.065246 0-26.091258-6.33177-29.147975-15.174414zm6.33177-100.544136c-5.240085 5.240085-7.969296 12.008529-7.969296 19.977825 0 7.969297 2.729211 14.628572 7.969296 19.977825 5.458422 5.240086 12.117697 7.969297 19.977825 7.969297s14.082729-2.729211 19.213646-7.969297c5.240085-5.240085 7.75096-12.008528 7.75096-19.977825 0-7.969296-2.510875-14.628571-7.75096-19.977825-5.021748-5.240085-11.462686-7.969296-19.213646-7.969296-7.750959 0-14.519403 2.729211-19.977825 7.969296zm75.981237-60.6976546h21.72452v96.3957356c0 8.842644 2.947548 12.663539 10.916844 12.663539 2.510874 0 4.694243-.218336 6.550107-.764179v19.431983c-2.510874.764179-6.004265 1.091685-10.371002 1.091685-19.213646 0-28.820469-9.82516-28.820469-29.584648zm112.771002 48.1432836v-13.2093817h21.72452v63.7543707c0 7.75096 1.855864 10.698508 6.659275 10.698508 1.310021 0 2.947548-.218337 4.585075-.327506v17.57612c-2.401706.873347-6.004265 1.41919-10.698508 1.41919-5.240085 0-9.388486-.873348-12.663539-2.947548-4.039233-2.729211-6.550107-6.33177-7.423454-11.026013-6.33177 9.606823-16.811941 14.301066-31.331344 14.301066-12.881876 0-23.689552-4.475906-32.641364-13.755224-8.733476-9.279318-13.100213-20.523667-13.100213-34.060554s4.366737-24.781237 13.100213-33.8422178c8.842644-9.2793177 19.759488-13.7552238 32.641364-13.7552238 14.628572 0 25.654585 6.5501066 29.147975 15.1744136zm-6.550107 52.400853c5.458422-5.240085 8.187633-12.008529 8.187633-19.977825 0-7.969297-2.729211-14.628572-8.187633-19.977825-5.240085-5.240086-12.008529-7.969297-19.759488-7.969297-7.75096 0-14.082729 2.729211-19.431983 7.969297-5.021748 5.240085-7.641791 12.008528-7.641791 19.977825 0 7.969296 2.510874 14.628571 7.641791 19.977825 5.240085 5.240085 11.571855 7.969296 19.431983 7.969296s14.519403-2.729211 19.759488-7.969296zm47.051599 43.994883c2.729211.873347 6.113433 1.419189 10.152666 1.419189 3.49339 0 6.004264-.764179 7.969296-1.965032 1.965032-1.200852 3.820895-4.039232 5.240085-7.750959l2.401706-6.550107-38.208955-94.7582087h21.833688l26.855438 68.8852877 25.21791-68.8852877h21.942857l-40.938166 106.2208957c-2.729211 7.095949-6.004265 12.554371-9.82516 16.266098-5.458422 5.021748-12.66354 7.641791-21.942857 7.641791-4.039233 0-7.641791-.545842-10.698508-1.41919z"/></g></svg>