<svg height="88" preserveAspectRatio="xMidYMid" viewBox="0 0 512 88" width="512" xmlns="http://www.w3.org/2000/svg"><path d="m260.758341 1.13228747h19.023901c16.045471 23.12831213 32.633429 47.54240653 49.372781 71.67264063 16.686784-24.070308 32.717536-48.2625708 48.953297-71.68210264h19.033364v86.13795484h-12.544526v-73.7690021l-50.711129 73.7690021-9.68805-.01577-50.675384-73.7532321-.120903 73.7690021h-12.643351z" fill="#1fd3ef"/><path d="m428.068797 32.504115s-7.795647.0872608-10.864493.0872608c-1.839836-21.7279343 4.275778-29.35641892 22.174751-30.83564685 19.528543-.70439425 33.721561-.39740451 51.405011-.003154 13.118554 1.02084599 19.024952 6.15241068 20.723909 19.22575765.537232 4.1370021.59085 8.402267.299631 12.5687064-.853684 12.2028419-6.436271 18.149191-18.668551 19.3287885-14.632476 1.4119425-29.316468 2.2792936-43.972073 3.4673019-4.005586.3248624-8.038506.6949322-11.967343 1.4939466-7.309931 1.4865872-10.026579 3.1844928-10.35775 10.4996796-.117749 2.6073101.14929 6.2470308.14929 9.464115h84.833248l.088312 9.4599097h-95.0743c.104083-7.2573635-.574028-15.3747187.489922-22.6352362 1.458202-9.9414209 8.075302-14.7828172 17.308124-16.421848 15.199145-2.6977248 30.667433-2.5936427 45.991687-4.0308172 3.65444-.3427352 7.305725-.7769364 10.931779-1.3383491 2.263523-.3511458 3.675466-.0599261 5.984197-2.5337167 4.292599-2.4527638 3.692287-14.2802792 2.628337-21.9897166-1.327836-5.6645914-6.801085-8.0427105-12.16184-8.2445667-15.752148-.5929528-31.520066-.62133883-47.270111.0273347-7.795647.3217084-11.838029 4.8708337-12.503524 13.4360575-.227088 2.9164024-.168213 8.974193-.168213 8.974193" fill="#5d5d5d"/><path d="m151.56777 11.1704312.043105-10.29466939s50.559737-.01787269 73.156074.00105133c15.041445.01261602 21.779449 6.64653799 22.053848 21.72898566.086209 4.7194414-.057824 9.4199589-.660238 14.1341437-1.237421 9.6954086-6.292239 14.9731088-16.071754 16.5417002-6.45099 1.033462-12.928263.5961068-19.393971.6265955-15.566062.0714908-31.133175.0231294-47.380501.0231294v33.3294127h-11.677175v-43.6303902s44.332682.2712444 63.597339.0252321c14.728148-.1871376 20.68501-1.3183737 18.483515-21.47246-.85894-7.8597782-3.749059-10.5753758-12.036731-10.7509486-13.831359-.2943738-70.113511-.2617824-70.113511-.2617824" fill="#1fd3ef"/><path d="m64.3406324 87.7128542c-18.193347.0010513-36.3877453.0452074-54.58109236-.022078-6.39632033-.0231294-9.77531006-3.7522136-8.79126078-9.4630637.8967885-5.2062094 4.49235318-6.4646571 9.22441064-6.4562464 33.0634251.0588748 66.1279015.0304887 99.1913261.0304887 3.498842 0 6.999787-.0799014 10.495475.0199754 5.346037.1524435 8.427499 3.081462 8.485322 7.8965749.058875 4.7993429-2.988944 7.921807-8.393856 7.9522957-18.54239.1040822-37.0868831.0399507-55.6303246.0420534" fill="#1fd3ef"/><path d="m64.3406324 53.8073101c-18.193347.0010513-36.3877453.0452074-54.58109236-.0220781-6.39632033-.0231293-9.77531006-3.7522135-8.79126078-9.4630636.8967885-5.2062095 4.49235318-6.4646571 9.22441064-6.4562464 33.0634251.059926 66.1279015.0304887 99.1913261.0304887 3.498842 0 6.999787-.0799015 10.495475.0199753 5.346037.1524436 8.427499 3.081462 8.485322 7.896575.058875 4.7993429-2.988944 7.921807-8.393856 7.9522957-18.54239.1040821-37.0868831.0399507-55.6303246.0420534" fill="#5d5d5d"/><path d="m64.3406324 18.0619302c-18.193347.0010513-36.3877453.0452074-54.58109236-.022078-6.39632033-.0231294-9.77531006-3.7522136-8.79126078-9.4630637.8967885-5.20620944 4.49235318-6.46465708 9.22441064-6.45624641 33.0634251.05887475 66.1279015.03048871 99.1913261.03048871 3.498842 0 6.999787-.0788501 10.495475.01997536 5.346037.15244353 8.427499 3.08146201 8.485322 7.89657494.058875 4.7993429-2.988944 7.921807-8.393856 7.9522957-18.54239.1040821-37.0868831.0399507-55.6303246.0420534" fill="#1fd3ef"/></svg>