<svg height="256" preserveAspectRatio="xMidYMid" viewBox="0 0 256 256" width="256" xmlns="http://www.w3.org/2000/svg"><path d="m82.979 196.416c2.044-.91 4.115-1.747 6.205-2.532 2.36-.887 4.739-1.721 7.15-2.447 3.001-.904 6.027-1.722 9.094-2.373 4.135-.878 8.319-1.528 12.534-1.937-2.364 7.433-4.977 14.824-7.808 22.168.121 1.422.186 2.853.224 4.288 5.702-1.125 11.59-1.727 17.622-1.727 6.031 0 11.92.602 17.622 1.727.038-1.435.103-2.866.224-4.288-2.832-7.344-5.444-14.735-7.808-22.168 4.215.409 8.399 1.059 12.534 1.937 3.066.651 6.092 1.469 9.093 2.373 2.412.726 4.791 1.56 7.151 2.447 2.091.786 4.163 1.623 6.207 2.533 14.504 6.459 27.726 16.039 38.57 28.471 27.18-23.471 44.407-58.157 44.407-96.888 0-70.692-57.308-128-128-128s-128 57.308-128 128c0 38.731 17.227 73.416 44.407 96.888 10.844-12.432 24.068-22.013 38.572-28.472" fill="#a5dbe8"/><path d="m173.023 196.417 7.946 27.323 2.254.106c1.463 0 2.492.385 2.492 1.848 0 2.432.126 5.165.359 7.551 1.98 1.681 4.391 3.577 6.219 5.419 6.867-3.998 13.322-8.614 19.3-13.776-10.844-12.432-24.066-22.012-38.57-28.471" fill="#525353"/><path d="m157.486 196.144 9.33-2.26c-2.36-.887-4.739-1.721-7.151-2.447-3.001-.904-6.027-1.722-9.093-2.373-4.135-.878-8.319-1.528-12.534-1.937 2.364 7.433 4.976 14.824 7.808 22.168-.121 1.422-.186 2.853-.224 4.288 6.611 1.304 13.111 3.57 19.121 6.228z" fill="#525353"/><path d="m63.707 238.664c1.486.866 2.987 1.711 4.513 2.518.534-2.565 1.388-6.119 1.646-8.758-1.98 1.681-4.331 4.398-6.159 6.24"/><path d="m164.587 219.575c-6.009-2.658-12.354-4.688-18.965-5.992-5.702-1.125-11.591-1.727-17.622-1.727-6.032 0-11.92.602-17.622 1.727-6.61 1.303-13.507 3.28-19.515 5.937l-.639 3.981h75.554z"/><path d="m69.632 233.182c.234-2.386.403-4.513.403-6.946 0-1.462 1.003-2.399 2.466-2.399l2.399-.084 8.079-27.337c-14.504 6.459-27.728 16.04-38.572 28.472 5.978 5.162 12.433 9.778 19.3 13.776 1.828-1.842 3.732-3.609 5.712-5.29" fill="#525353"/><path d="m187.051 238.045c.518 2.6.635 3.118.729 3.137 1.526-.807 3.026-1.652 4.513-2.518-1.828-1.842-3.791-3.668-5.772-5.349z"/><path d="m164.587 219.575 1.191 3.926h15.454l-8.209-27.084c-2.044-.91-4.116-1.747-6.207-2.533l-9.33 2.26z" fill="#aa9678"/><path d="m75.039 228.971c.081-.057.163-.114.243-.172h-.232c-.002.057-.008.115-.011.172" fill="#c4b6a1"/><path d="m180.95 228.799h-.233c.081.058.163.115.243.172-.002-.057-.008-.115-.01-.172" fill="#aa9678"/><path d="m180.684 228.404-52.794.06.11 27.536c19.648 0 38.256-4.439 54.893-12.351-1.086-4.772-1.195-9.912-1.372-14.914-.08-.058-.837-.331-.837-.331" fill="#aa9678"/><path d="m127.915 228.578s-53.085-.067-53.166-.01c-.176 5.003-1.208 10.939-1.642 15.081 16.637 7.912 35.245 12.351 54.893 12.351l.03-27.333z" fill="#c4b6a1"/><path d="m128 226.15h.001v2.649h-.001z" fill="#786453"/><path d="m164.649 205.236c-.386-.444-.784-.919-1.197-1.46.414.541.811 1.016 1.197 1.46" fill="#525353"/><path d="m167.594 208.16s.009.029.027.083c-.018-.054-.027-.083-.027-.083s-1.298-1.029-2.945-2.924c1.647 1.895 2.945 2.924 2.945 2.924" fill="#aa9678"/><path d="m206.706 92.348v.006z" fill="#fff"/><path d="m211.857 129.201c0-.013.001-.025.001-.038 0 .013-.001.025-.001.038" fill="#fff"/><path d="m211.858 129.163c0-.012-.001-.022-.001-.035 0 .012.001.023.001.035" fill="#bbbcbd"/><path d="m211.714 127.169c.004.034.014.064.018.098.003.021.009.04.012.06v.008c.061.489.084 1 .095 1.515.002.095.018.184.018.278 0 .013.001.023.001.035 0 .013-.001.025-.001.038-.001.102-.018.197-.019.298-.012.505-.034 1.006-.093 1.486v.007c-.004.025-.01.048-.014.073-.004.039-.016.074-.021.112-.072.524-.164 1.032-.287 1.515-.001.003-.001.005-.002.007v.001l.018-.02c.002-.008.005-.015.007-.023v.001l3.35-3.507-3.377-3.535c0 .002 0 .005.001.007.126.493.222 1.011.294 1.546" fill="#676a6a"/><path d="m211.71 131.177c.009-.066.026-.125.035-.192.059-.48.081-.981.093-1.486.001-.114.019-.221.019-.336 0-.107-.016-.207-.018-.313-.011-.515-.034-1.026-.095-1.515-.008-.058-.023-.109-.03-.166-.072-.535-.168-1.053-.294-1.546-.044-.172-.105-.325-.156-.491-.303-1.002-.716-1.887-1.206-2.622-.066-.098-.133-.193-.201-.285-.135-.181-.27-.357-.413-.515-.212-.229-.431-.44-.662-.615-.088-.067-.181-.114-.271-.172-.2-.129-.404-.242-.615-.328-.09-.036-.181-.072-.273-.101-.298-.092-.603-.158-.917-.158s-.618.066-.917.158c-.092.029-.183.065-.273.102-.211.085-.415.198-.616.327-.088.058-.182.104-.269.171-.231.176-.451.387-.663.616-.143.158-.278.334-.411.513-.07.094-.137.189-.203.288-.49.735-.904 1.62-1.206 2.622-.012.04-.026.079-.038.12-.134.46-.238.944-.325 1.441-.026.152-.061.298-.082.454-.08.556-.121 1.136-.131 1.73-.001.082-.014.16-.014.242h.02c0 4.876 2.307 8.828 5.152 8.828.49 0 .961-.128 1.41-.347.072-.036.143-.073.214-.114.186-.107.369-.224.544-.365.097-.078.188-.172.281-.26.227-.212.443-.452.648-.719.142-.187.282-.374.412-.583.083-.133.159-.277.236-.419.144-.266.28-.543.403-.837.046-.106.093-.209.135-.318.157-.409.294-.841.41-1.294.123-.483.215-.991.287-1.515zm-4.819-3.189c-1.067 0-1.932-1.483-1.932-3.311 0-1.827.865-3.31 1.932-3.31s1.931 1.483 1.931 3.31c0 1.828-.864 3.311-1.931 3.311z"/><path d="m206.891 121.367c-1.067 0-1.932 1.483-1.932 3.31 0 1.828.865 3.311 1.932 3.311s1.931-1.483 1.931-3.311c0-1.827-.864-3.31-1.931-3.31" fill="#fff"/><path d="m202.148 125.133c.302-1.002.716-1.887 1.206-2.622.066-.1.133-.193.203-.288.133-.179.268-.355.411-.513.212-.231.432-.439.663-.616.087-.067.181-.113.269-.171.2-.131.405-.24.616-.327.09-.037.181-.073.273-.102.298-.094.603-.158.917-.158s.619.064.917.158c.092.029.183.065.273.101.211.088.415.197.615.328.09.058.183.105.271.172.23.176.45.384.662.615.143.158.278.334.413.515.068.093.135.186.201.285.49.735.903 1.62 1.206 2.622v.002l-4.558-20.877-4.559 20.876z" fill="#909393"/><path d="m146.299 128.968c-.006-.42-.033-.835-.08-1.243-.001-.005-.003-.011-.003-.017-.048-.402-.115-.799-.201-1.188-.003-.01-.006-.019-.008-.03-.086-.385-.191-.763-.313-1.134-.003-.008-.007-.016-.01-.025-.123-.371-.263-.734-.422-1.088-.002-.007-.007-.014-.01-.022-.159-.355-.335-.702-.527-1.038-.586-1.027-1.317-1.958-2.167-2.768-1.079-1.027-2.348-1.858-3.747-2.434-.011-.004-.024-.008-.035-.013-.69-.281-1.411-.501-2.158-.651-.019-.003-.037-.004-.056-.008-.749-.147-1.521-.227-2.313-.227-.779 0-1.536.08-2.273.221-.026.005-.052.007-.078.012-.733.146-1.44.36-2.119.632-.017.007-.036.013-.054.021-.688.28-1.345.621-1.962 1.018-.003.002-.005.003-.007.003-.623.402-1.208.859-1.746 1.364l-.013.041-.045.01c-.859.817-1.598 1.759-2.189 2.794-.006.012-.014.024-.022.037-.18.317-.343.647-.493.983-.016.036-.036.07-.051.106-.137.311-.255.633-.365.957-.021.064-.049.124-.069.187-.096.303-.174.614-.248.925-.019.09-.048.176-.067.265-.064.308-.108.623-.149.939-.012.097-.033.19-.043.287-.043.413-.067.832-.067 1.258 0 .798.082 1.576.231 2.33.002.015.003.032.007.048.151.753.373 1.479.658 2.174.004.01.006.02.011.029.58 1.406 1.419 2.679 2.456 3.76.82.855 1.764 1.588 2.802 2.174.005.003.01.006.015.009.324.182.659.346 1 .498.028.012.055.028.084.04.316.138.643.257.972.368.056.019.11.043.166.061.304.097.618.175.932.247.085.02.167.048.253.066.305.063.619.106.935.147.095.011.189.033.286.043.411.043.829.066 1.252.066 1.665 0 3.251-.338 4.694-.949.721-.304 1.407-.677 2.048-1.111 1.284-.867 2.391-1.975 3.258-3.257.433-.642.807-1.327 1.112-2.049.61-1.443.948-3.029.948-4.694 0-.029-.004-.056-.004-.083-.001-.031-.005-.06-.006-.091zm-12.05-1.413c-2.502 0-4.53-2.029-4.53-4.531s2.028-4.53 4.53-4.53 4.53 2.028 4.53 4.53-2.028 4.531-4.53 4.531z"/><path d="m134.249 118.494c-2.502 0-4.53 2.028-4.53 4.53s2.028 4.531 4.53 4.531 4.53-2.029 4.53-4.531-2.028-4.53-4.53-4.53" fill="#fff"/><path d="m125.952 120.404.045-.01.013-.041 8.306-25.402v-5.945c0-.044-.001-.067-.001-.067-4.626-.949-9.382-1.47-14.25-1.47-1.625 0-3.237.069-4.839.178-.233.016-.467.03-.701.048-8.337.633-16.547 2.806-24.149 6.276-6.519 2.977-12.576 6.898-18.021 11.547v.001c-.002.003-.006.005-.009.008-1.462 1.242-2.863 2.553-4.231 3.897-.256.25-.516.498-.769.752-1.288 1.298-2.533 2.639-3.737 4.019-.261.301-.518.608-.776.912-1.209 1.427-2.385 2.881-3.502 4.383-.093.126-.18.258-.272.384-1.065 1.449-2.079 2.936-3.056 4.448-.191.295-.387.586-.574.884-.79 1.253-1.525 2.54-2.255 3.83h37.837z" fill="#bbbcbd"/><path d="m157.895 117.546c.077-.991.14-1.981.191-2.973.069-1.342.116-2.686.142-4.029.02-1.043.017-2.087.012-3.13 0-.301.007-.602.004-.904-.028-2.688-.133-5.379-.297-8.073-.008-.005-.015-.01-.023-.015-.003-.007-.007-.013-.01-.019-.01-.007-.049-.029-.085-.049-.032-.019-.06-.035-.12-.069-.494-.284-1.708-.979-2.798-1.598-.024-.013-.047-.027-.07-.04-.276-.156-.542-.307-.783-.443-.005-.003-.01-.005-.014-.008-.208-.117-.382-.214-.543-.304-.032-.018-.077-.043-.107-.06-.177-.098-.314-.172-.395-.215-1.739-.902-3.514-1.737-5.319-2.499-4.303-1.817-10.099-3.41-13.364-4.179v6.012l8.233 25.443.009.021c.85.81 1.581 1.741 2.167 2.767v.001c.192.336.368.683.527 1.038.004.008.008.015.01.022.159.354.299.717.422 1.088.003.009.007.017.01.025.122.371.227.749.313 1.134.002.011.005.02.008.03.086.389.153.786.201 1.188 0 .006.002.012.003.017.047.408.074.823.08 1.243l.031.068h10.081c.681-3.689 1.156-7.427 1.457-11.181.007-.103.019-.206.027-.309" fill="#e3dddb"/><path d="m171.079 108.55c-.007.011-.012.024-.018.035.006-.011.012-.023.018-.034" fill="#fcb03f"/><path d="m126.01 120.353c.538-.505 1.123-.962 1.746-1.364.002 0 .004-.001.007-.003.617-.397 1.274-.738 1.962-1.018.018-.008.037-.013.054-.021.679-.272 1.386-.486 2.119-.632.026-.005.051-.007.078-.012.737-.141 1.494-.221 2.273-.221.792 0 1.564.08 2.313.227.019.004.037.005.056.008.747.15 1.468.37 2.158.651.011.005.023.009.035.013 1.399.576 2.668 1.407 3.747 2.434l-.009-.021-8.233-25.443z" fill="#909393"/><path d="m123.085 133.694c-.285-.695-.507-1.421-.658-2.174-.004-.016-.005-.033-.007-.048-.149-.754-.231-1.532-.231-2.33 0-.426.024-.845.067-1.258.01-.097.031-.19.043-.287.041-.316.085-.631.149-.939.019-.089.048-.175.067-.265.074-.311.152-.622.248-.925.021-.063.047-.123.069-.187.11-.324.228-.646.365-.957.015-.036.035-.07.051-.106.15-.336.313-.666.493-.983.008-.013.016-.025.022-.037.591-1.035 1.33-1.977 2.189-2.794l-34.941 8.632h-.067l34.608 8.447c-1.037-1.081-1.876-2.354-2.456-3.76-.005-.009-.007-.019-.011-.029" fill="#676a6a"/><path d="m201.703 127.148c.022-.156.055-.302.082-.454.087-.497.191-.981.325-1.441.015-.052.021-.111.037-.162l4.559-20.876-.001-11.903c-3.725-3.077-7.714-4.759-11.867-4.759-5.248 0-10.141 2.898-13.8 6.477-4.004 3.917-7.098 8.845-9.6 13.818-.115.229-.233.449-.347.679.771.668 1.534 1.345 2.287 2.034 1.704 1.559 3.371 3.159 5.016 4.781.766.756 1.518 1.528 2.272 2.297.8.815 1.601 1.628 2.389 2.456 1.013 1.065 2.017 2.139 3.011 3.224.419.456.837.914 1.251 1.374 1.199 1.327 2.392 2.66 3.565 4.011l.002.002c.197.206.335.354.388.414h10.282c0-.083.017-.159.018-.242.01-.594.051-1.174.131-1.73" fill="#e3dddb"/><path d="m171.09 108.582c-.004-.011-.008-.022-.011-.031-.006.011-.012.023-.018.034.006.006.036.036.045.044-.005-.016-.01-.031-.016-.047" fill="#e3dddb"/><path d="m46.975 142.173c.03-.077.062-.153.092-.23.662-1.731 1.387-3.439 2.148-5.131.213-.471.432-.938.652-1.406.624-1.328 1.284-2.638 1.968-3.936.278-.528.55-1.058.838-1.581.159-.289.339-.565.501-.853.73-1.29 1.465-2.577 2.255-3.83.187-.299.383-.589.574-.884.977-1.512 1.991-2.999 3.056-4.448.092-.126.179-.258.272-.384 1.117-1.502 2.293-2.956 3.502-4.383.258-.304.514-.61.776-.912 1.204-1.38 2.449-2.721 3.737-4.019.254-.254.513-.502.769-.752 1.368-1.344 2.769-2.655 4.231-3.897.003-.003.007-.006.009-.009 5.751-19.264 24.321-31.102 45.142-31.102 8.38 0 16.714 2.415 23.856 6.784 7.326 4.481 12.321 8.859 16.199 16.512.019.039.039.077.058.115.098.194.208.38.304.576.003.006.007.012.01.019.008.005.015.01.023.015 3.244 1.998 6.339 4.263 9.281 6.745.981.828 1.945 1.679 2.892 2.554.312.286.633.558.941.849.006-.012.011-.024.018-.035.003-.008.007-.017.011-.024.106-.217.21-.438.317-.652 2.934-18.517 12.256-28.614 21.89-28.614 7.262 0 12.541 4.33 16.528 15.986l.041.125c.003.004.007.009.01.014 1.126 1.223 2.223 2.571 3.287 4.048l-.002-.001c.021.028.043.054.064.083l-.001-.001.001.001c.057.169.106.343.161.512v-.001l-.15-.607c-11.985-35.482-45.545-61.028-85.073-61.028-49.58 0-89.772 40.192-89.772 89.772 0 9.774 1.562 19.184 4.462 27.94.003-.016.008-.033.012-.051.57-2.641 1.253-5.266 2.048-7.863.62-2.024 1.309-4.032 2.062-6.016" fill="#525353"/><path d="m214.577 129.155-3.131 3.503v-.001c-.002.008-.005.015-.007.023-.119.461-.265.891-.426 1.306-.042.109-.089.212-.135.318-.124.294-.258.572-.403.837-.077.142-.153.286-.236.419-.13.208-.27.397-.412.583-.205.267-.421.507-.648.719-.093.087-.183.182-.281.26-.175.141-.358.258-.544.365-.072.04-.142.078-.214.114-.449.219-.92.347-1.41.347-2.845 0-5.152-3.952-5.152-8.828h-10.337c.003.003.004.006.006.008 1.92 2.216 3.806 4.462 5.667 6.73.022.028.044.055.067.082 1.809 2.208 3.591 4.436 5.354 6.679.087.11.173.219.26.329 1.672 2.132 3.325 4.278 4.964 6.43.159.207.319.415.478.624 1.733 2.28 3.45 4.566 5.155 6.855.012.017.023.032.036.048 2.953-8.738 4.605-18.073 4.708-27.785l-2.906-.11z" fill="#fff"/><path d="m114.525 87.695c.234-.018.468-.032.701-.048 1.602-.109 3.214-.178 4.839-.178 4.868 0 9.624.521 14.25 1.47h.001c3.265.769 9.061 2.362 13.364 4.179 1.805.762 3.58 1.597 5.319 2.499.081.043.218.118.395.215.03.017.075.042.107.06.161.09.337.187.543.304.004.003.009.005.014.008.242.137.506.287.783.443.023.013.046.027.07.04 1.106.627 2.33 1.33 2.798 1.598.06.034.088.05.12.069.024.014.076.043.085.049-.096-.196-.206-.382-.304-.576-.019-.038-.039-.076-.058-.115-3.878-7.653-9.848-14.217-17.174-18.698-7.142-4.369-15.476-6.784-23.857-6.784-20.82 0-38.415 14.024-44.166 33.288 5.445-4.649 11.502-8.57 18.021-11.547 7.602-3.47 15.812-5.643 24.149-6.276"/><path d="m213.225 99.515-.001-.001.001.001c-.021-.029-.043-.055-.064-.083l.002.001c-1.064-1.477-2.161-2.825-3.287-4.048-.002-.004-.006-.009-.009-.012.003.003.007.008.009.012-.009-.011-.019-.024-.029-.035-.512-.554-1.027-1.083-1.551-1.585-.197-.189-.401-.354-.6-.535-.329-.299-.656-.608-.99-.882v11.909l4.559 20.878v-.001c.05.162.11.314.154.482l3.158 3.539.031-.035h3.305c.004-.306.023-.608.023-.915v-.005c-.001-9.847-1.619-19.309-4.55-28.174v.001c-.055-.169-.104-.343-.161-.512" fill="#bbbcbd"/><path d="m181.038 94.03c3.659-3.579 8.552-6.477 13.8-6.477 4.153 0 8.142 1.682 11.867 4.759 0 0 .001.027.001.036v.006-.006c.334.274.661.583.99.882.199.181.403.346.6.535.524.502 1.039 1.031 1.551 1.585.01.011.02.024.029.035-.002-.004-.006-.009-.009-.012l-.001-.001-.041-.126c-3.987-11.656-10.42-19.229-17.68-19.229-9.635 0-17.804 13.34-20.738 31.857l.031-.026c2.502-4.973 5.596-9.901 9.6-13.818"/><path d="m168.019 207.836s-1.297-1.028-2.944-2.923c-.386-.444-.784-.919-1.198-1.46-.311-.405-.626-.838-.941-1.297-.21-.306-.418-.624-.625-.952-.623-.985-1.12-2.184-1.668-3.369-.634-1.372-.636-2.285-1-3.563-.26-.914-.476-1.869-.637-2.863-.241-1.49-.356-3.068-.303-4.728.028-.913.122-1.858.259-2.82.132-.925.314-1.872.557-2.839.726-2.903 1.981-5.995 3.939-9.259.005-.009.493-1.109.498-1.118.64-1.066.782-1.019 1.39-2.046 8.564-14.453 13.184-25.382 10.924-42.21-.162-1.201-.603-3.892-.844-5.156-.128.874-.611 3.659-.625 3.719-.085.384-.318.801-.406 1.062-3.72 11.01-9.576 19.109-18.002 28.254-1.142 1.239-2.338 2.496-3.562 3.765-2.06 2.135-4.22 4.316-6.505 6.59-.912.907-1.842 1.827-2.788 2.765-.869.86-1.95 2.699-3.24 4.054-.796 2.229-1.701 4.743-2.466 7.387-.345-.131-.674-.248-1.025-.384-16.368-6.331-27.327-14.79-27.327-14.79s8.432 10.979 22.638 21.285c1.375.998 2.731 1.862 4.059 2.628-.586 9.276 3.506 18.181 21.977 20.837 3.123.449 6.321.428 9.542.065-.032-.096.18-.094.163-.147-.018-.054.172-.196.172-.196"/><path d="m158.139 183.959c16.398 2.646 40.667 2.212 65.861-9.584.607-.284 1.276.464 1.883.166 0 0-17.219 17.587-37.783 27.53-.601.29-1.194.599-1.801.875-1.987.908-4.008 1.699-6.037 2.429-3.979 1.43-8.011 2.515-12.014 3.016-.184.024-.368.059-.552.079-.032-.096-.058-.174-.075-.227-.018-.054-.027-.083-.027-.083s-1.298-1.029-2.945-2.924c-.386-.444-.784-.919-1.197-1.46-.311-.405-.626-.838-.941-1.297-.21-.306-.419-.624-.626-.952-.622-.985-1.227-2.074-1.775-3.258-.547-1.184-1.037-2.465-1.427-3.837-.261-.914-.477-1.869-.638-2.863-.241-1.491-.355-3.068-.303-4.728.028-.914.122-1.858.259-2.82z" fill="#9f2254"/><path d="m146.386 165.29c2.286-2.274 4.446-4.455 6.506-6.59 1.223-1.269 2.42-2.526 3.562-3.765 8.425-9.145 14.61-17.703 18.331-28.713.087-.261.175-.605.26-.992.014-.06.027-.117.04-.179.087-.411.172-.868.257-1.383.034-.355 1.147-1.071 1.178-1.404-.933-4.794-3.083-9.834-5.43-13.682.006.016.011.031.016.047-.009-.008-.039-.038-.045-.044-.308-.291-.629-.563-.941-.849-.947-.875-1.911-1.726-2.892-2.554-2.943-2.482-6.037-4.747-9.281-6.745.164 2.694.269 5.385.297 8.073.004.302-.004.603-.004.904.005 1.043.008 2.087-.012 3.13-.026 1.343-.073 2.687-.142 4.029-.051.992-.114 1.982-.191 2.973-.008.103-.02.206-.027.309-.301 3.754-.776 7.492-1.457 11.181l-1.184 5.599c-2.473 10.026-7.496 19.12-11.626 28.51-1.095 2.49-2.134 5.008-3.045 7.573-.083.235-.172.482-.258.724 1.29-1.355 2.432-2.527 3.3-3.387.947-.937 1.877-1.858 2.788-2.765" fill="#fcb03f"/><path d="m92.198 219.213c6.009-2.658 11.57-4.327 18.18-5.63-.038-1.435-.103-2.866-.224-4.288 2.831-7.344 5.444-14.735 7.808-22.168-4.215.409-8.399 1.059-12.534 1.937-3.067.651-6.093 1.469-9.094 2.373-2.411.726-4.79 1.56-7.15 2.447l9.331 2.26-7.508 23.566z" fill="#525353"/><path d="m207.559 149.378c-1.639-2.152-3.292-4.298-4.964-6.43-.086-.11-.174-.219-.26-.329-1.763-2.243-3.545-4.471-5.354-6.679-.023-.027-.045-.054-.067-.082-1.861-2.268-3.747-4.514-5.667-6.73-.121-.141-.242-.284-.365-.424-1.173-1.351-2.366-2.684-3.565-4.011-.415-.459-.832-.918-1.251-1.374-.994-1.085-1.998-2.159-3.011-3.224-.789-.827-1.588-1.642-2.389-2.456-.754-.769-1.506-1.541-2.272-2.297-1.646-1.621-3.312-3.222-5.016-4.781-.754-.689-1.517-1.367-2.288-2.035-.004.007-.008.016-.011.024 1.622 4.662 3.473 9.382 4.4 14.244.241 1.265.44 2.495.602 3.697 2.26 16.827-3.132 27.814-11.695 42.267-.615 1.036-1.244 2.09-1.889 3.164-1.958 3.266-3.212 6.357-3.939 9.26-.242.967-.425 1.914-.557 2.839 16.793 2.71 42.045 3.215 67.882-9.48 0 0-5.067-7.447-12.691-17.684-1.705-2.289-3.422-4.575-5.155-6.855-.158-.209-.319-.417-.478-.624" fill="#df0067"/><path d="m90.115 223.922 8.4-27.778-9.331-2.26c-2.09.785-4.161 1.622-6.205 2.532l-8.319 27.506 9.287.145z" fill="#aa9678"/><path d="m96.02 211.904c.82.315 1.654.599 2.486.89 9.285 3.255 19.259 5.047 29.658 5.047 11.857 0 23.166-2.322 33.528-6.498.548-.22 1.085-.462 1.627-.693.88-.375 1.754-.76 2.619-1.161.774-.36 1.548-.717 2.31-1.098-.184.024-.368.059-.552.079-3.221.363-6.419.384-9.542-.065-18.471-2.656-22.563-11.561-21.977-20.837-1.328-.766-2.684-1.63-4.059-2.628-14.206-10.306-22.638-21.285-22.638-21.285s10.959 8.459 27.327 14.79c.351.136.68.253 1.025.384.765-2.644 1.67-5.158 2.466-7.387.086-.242.175-.489.258-.724.911-2.565 1.95-5.083 3.045-7.573 4.13-9.39 9.153-18.484 11.626-28.51l1.184-5.599h-10.102l-.001.001c0 .006.001.013.001.02l-.004.002c0 .027.004.054.004.083 0 1.665-.338 3.251-.948 4.694-.305.722-.679 1.407-1.112 2.049-.867 1.282-1.974 2.39-3.258 3.257-.641.434-1.327.807-2.048 1.111-1.443.611-3.029.949-4.694.949-.423 0-.841-.023-1.252-.066-.097-.01-.19-.031-.286-.043-.316-.041-.63-.084-.935-.147-.086-.019-.168-.046-.253-.066-.314-.072-.628-.15-.932-.247-.056-.019-.11-.042-.166-.061-.329-.111-.656-.23-.972-.368-.029-.012-.056-.027-.084-.04-.341-.152-.676-.316-1-.498l-.015-.009c-1.038-.586-1.982-1.319-2.802-2.174l-34.608-8.447h-37.77c-.162.288-.342.564-.501.853-.288.523-.56 1.054-.838 1.581-.684 1.298-1.344 2.608-1.968 3.936-.22.467-.439.935-.652 1.406-.761 1.692-1.486 3.4-2.148 5.131-.03.077-.062.153-.092.23-.753 1.984-1.442 3.992-2.062 6.016-.795 2.597-1.478 5.222-2.048 7.863 5.946 18.136 17.515 33.72 32.638 44.704.44.319.904.603 1.35.915 2.558 1.788 5.201 3.461 7.943 4.979 3.6 1.995 7.342 3.764 11.224 5.254" fill="#fff"/><path d="m186.58 233.374c-.232-2.386-.376-4.792-.376-7.224 0-1.462-1.185-2.649-2.648-2.649h-111.112c-1.463 0-2.649 1.187-2.649 2.649 0 2.432-.143 4.838-.376 7.224-.258 2.639-.665 5.243-1.199 7.808 1.611.852 3.235 1.681 4.887 2.467 1.086-4.772 1.756-9.675 1.932-14.678.003-.057.009-.115.011-.172h105.9c.002.057.008.115.01.172.177 5.003.847 9.906 1.933 14.678 1.652-.786 3.276-1.615 4.887-2.467-.534-2.565-.941-5.169-1.2-7.808" fill="#8b7460"/></svg>