<svg height="256" preserveAspectRatio="xMidYMid" viewBox="0 0 256 256" width="256" xmlns="http://www.w3.org/2000/svg"><path d="m128.134247 106.805839c11.703986 0 21.193317 9.488486 21.193317 21.194161 0 11.703986-9.489331 21.193317-21.193317 21.193317-11.705675 0-21.194161-9.489331-21.194161-21.193317 0-11.705675 9.488486-21.194161 21.194161-21.194161zm-.134247-106.805839c-70.6587424 0-127.9451191 57.2551368-127.99915568 127.902059h-.00084432v64.853187l32.8407332 29.170467v-95.157578c0-52.5564873 42.6044683-95.1601113 95.1592668-95.1601113 52.554798 0 95.157578 42.603624 95.157578 95.1601113 0 52.551421-42.60278 95.157578-95.157578 95.157578h-17.4116v-46.671566h17.4116c26.77766 0 48.491079-21.707508 48.491079-48.486012 0-26.7818816-21.713419-48.4910788-48.491079-48.4910788-26.778504 0-48.4885456 21.7091972-48.4885456 48.4910788v129.231021h48.4885456c70.691671 0 128-57.306641 128-127.998312 0-70.6925149-57.308329-128.000844-128-128.000844z" fill="#368fb8"/></svg>