<svg height="193" preserveAspectRatio="xMidYMid" viewBox="0 0 256 193" width="256" xmlns="http://www.w3.org/2000/svg"><path d="m69.7418544 31.636948c-10.1514439-14.9760701-25.9884138-25.80905966-44.3901478-29.3871746l-.6546426-.15245101c-1.0940602-.17935414-2.1881204-.37664368-3.2911483-.51115928l-1.1388987-.16141872c-.9864478-.09864477-1.9997986-.17038643-2.995214-.27799891l-1.192705-.08967706c-1.3092852-.07174165-2.6634089-.11658019-4.0265003-.11658019h-.0717417c-5.80210614 0-10.63570001 4.11617734-11.75666333 9.55957527-.15245102.7712228-.22419267 1.5603809-.22419267 2.4033454 0 .8160613.07174165 1.6231549.22419267 2.3943776 1.12096332 5.4792688 5.95455719 9.5954461 11.75666333 9.5954461 25.2440942 0 45.7711747 20.5450159 45.7711747 45.8070455v26.2036387c0 6.2863622 4.8425615 11.3620842 11.003376 11.8732432l.9864477.107613c.8788353 0 1.7397351-.107613 2.5468287-.286967 5.3895917-1.147866 9.4429951-5.954557 9.4429951-11.6938892v-26.2036387c0-14.5007817-4.4210794-27.9523416-11.953953-39.1081686z" fill="#1d4c5d"/><path d="m127.493885 115.610553c-10.160412-14.97607-25.997381-25.8000921-44.3901477-29.3961425l-.6636103-.1345156c-1.0850925-.1793541-2.170185-.3497405-3.2911483-.5111593l-1.1209634-.152451c-.9954154-.1255479-1.9908308-.1972895-3.0041817-.2690312l-1.1658019-.1076125c-1.3451559-.0627739-2.6813442-.1165801-4.0623711-.1165801h-.0627739c-5.7841708 0-10.6177646 4.0982419-11.738728 9.5416398-.1614187.7712228-.242128 1.5783164-.242128 2.4212808 0 .825029.0807093 1.6231549.242128 2.4123131 1.1209634 5.4703015 5.9545572 9.5685425 11.738728 9.5685425 25.2440941 0 45.7801423 20.562952 45.7801423 45.816014v26.203638c0 6.286363 4.833594 11.371052 10.994408 11.891179l.986448.089677c.869868 0 1.730767-.107612 2.564764-.277999 5.389592-1.174769 9.416092-5.972492 9.416092-11.702857v-26.203638c0-14.500782-4.394176-27.970277-11.944985-39.090234z" fill="#207d9d"/><path d="m127.493885 115.610553c10.169379-14.97607 26.024285-25.8000921 44.399116-29.3961425l.66361-.1345156c1.067157-.1793541 2.170185-.3497405 3.273213-.5111593l1.147866-.152451c.995416-.1255479 1.990831-.1972895 3.004182-.2690312l1.165802-.1076125c1.345156-.0627739 2.690312-.1165801 4.053403-.1165801h.071742c5.802106 0 10.626732 4.0982419 11.738728 9.5416398.143483.7712228.242128 1.5783164.242128 2.4212808 0 .825029-.098645 1.6231549-.242128 2.4123131-1.111996 5.4703015-5.936622 9.5685425-11.738728 9.5685425-25.253062 0-45.798078 20.562952-45.798078 45.816014v26.203638c0 6.286363-4.833594 11.371052-10.985441 11.891179l-.995415.089677h-.008968c-.869867 0-1.712832-.107612-2.519925-.277999-5.39856-1.174769-9.460931-5.972492-9.460931-11.702857v-26.203638c0-14.500782 4.42108-27.970277 11.971889-39.090234z" fill="#51a5cd"/><path d="m69.7328867 31.636948c10.1693793-14.9760701 26.0063492-25.80905966 44.4170513-29.3871746l.645674-.15245101c1.085093-.17935414 2.170185-.37664368 3.282181-.51115928l1.147867-.16141872c.97748-.09864477 1.99083-.17038643 2.986246-.27799891l1.183737-.08967706c1.336188-.07174165 2.681344-.11658019 4.035468-.11658019h.062774c5.811074 0 10.644668 4.11617734 11.747696 9.55957527.161418.7712228.23316 1.5603809.23316 2.4033454 0 .8160613-.071742 1.6231549-.23316 2.3943776-1.103028 5.4792688-5.936622 9.5954461-11.747696 9.5954461-25.226159 0-45.7622068 20.5450159-45.7622068 45.8070455v26.2036387c0 6.2863622-4.8515293 11.3620842-11.0033761 11.8732432l-.9954154.107613c-.8698675 0-1.7217997-.107613-2.5647641-.269031-5.3716563-1.165802-9.4160919-5.972493-9.4160919-11.7118252v-26.2036387c0-14.5007817 4.4031439-27.9523416 11.9539529-39.0902332z" fill="#1c5470"/><path d="m185.272819 31.636948c-10.160412-14.9760701-25.997382-25.80905966-44.38118-29.3871746l-.654643-.15245101c-1.111995-.17935414-2.18812-.35870827-3.291148-.51115928l-1.156834-.16141872c-.986448-.09864477-1.981863-.17038643-2.977279-.27799891l-1.165802-.08967706c-1.363091-.07174165-2.699279-.11658019-4.062371-.11658019h-.089677c-5.784171 0-10.617765 4.11617734-11.72976 9.55957527-.152451.7712228-.233161 1.5603809-.233161 2.4033454 0 .8160613.08071 1.6231549.233161 2.3943776 1.111995 5.4792688 5.945589 9.5954461 11.72976 9.5954461 25.253062 0 45.798078 20.5450159 45.798078 45.8070455v26.2036387c0 6.2863622 4.833594 11.3620842 10.994408 11.8911792l.986448.089677c.887803 0 1.739735-.107613 2.555796-.286967 5.39856-1.147866 9.434028-5.954557 9.434028-11.6938892v-26.2036387c0-14.5007817-4.394177-27.9523416-11.971889-39.0902332z" fill="#247ea2"/><path d="m185.272819 31.636948c10.178347-14.9760701 26.015317-25.80905966 44.399115-29.3871746l.663611-.15245101c1.09406-.17935414 2.18812-.37664368 3.291148-.51115928l1.147866-.16141872c.986448-.09864477 1.981864-.17038643 2.995214-.27799891l1.17477-.08967706c1.336188-.07174165 2.672377-.11658019 4.044436-.11658019h.071741c5.775203 0 10.626733 4.11617734 11.729761 9.55957527.170386.7712228.251095 1.5603809.251095 2.4033454 0 .8160613-.080709 1.6231549-.251095 2.3943776-1.103028 5.4792688-5.954558 9.5954461-11.729761 9.5954461-25.244094 0-45.78911 20.5450159-45.78911 45.8070455v26.2036387c0 6.2863622-4.842561 11.3620842-10.994408 11.8732432l-1.004383.107613c-.869868 0-1.712832-.107613-2.528893-.269031-5.407528-1.165802-9.451963-5.972493-9.451963-11.7118252v-26.2036387c0-14.5007817 4.412111-27.9523416 11.96292-39.0902332z" fill="#3298b5"/><path d="m185.219013 108.884773c-.170387 0-.349741-.008968-.520127-.017936h.017935c.170386.008968.340773.017936.502192.017936m.107612 0h.026903zm.035871 0c.851932-.008968 1.676961-.11658 2.466119-.286967 1.282382-.269031 2.493023-.753287 3.587083-1.398962-1.775606 1.058189-3.838179 1.667993-6.053202 1.685929" fill="#3398b5"/><path d="m184.698886 108.866837c-.555998-.026903-1.103028-.089677-1.641091-.188321.538063.089677 1.094061.161418 1.659026.188321zm-11.209634-9.8017029c-.134515-.6994811-.197289-1.4258654-.197289-2.1612173v.0717417.0179354.0448385.0358708.0358709c0 .0089677.008967.0269031.008967.0358708v.0358708.0358708.0358709.0358708.0269031.0448385.0269032c0 .0179354 0 .0269031.008968.0448385v.0179354.0538062.0089678c.017936.4394176.071742.8698675.134516 1.3003174 0 .0179354.008967.0358708.008967.062774 0 0 0 .0089677.008968.0089677v.0538062s.008968.0089677.008968.0179354c0 .0179354 0 .0269031.008968.0448386v.0358708c.008967.0089677.008967.0179354.008967.0269031" fill="#007fa5"/><path d="m185.272819 108.884773 1.004383-.107613c3.703663-.304902 6.923069-2.259862 8.904933-5.138496-.97748 1.443801-2.26883 2.663409-3.766437 3.56018-1.09406.645675-2.304701 1.129931-3.587083 1.398962-.789158.170387-1.614187.277999-2.466119.286967h-.008968-.026903zm-11.783567-9.8196389c0-.0089677 0-.0179354-.008967-.0269031.008967.0089677.008967.0179354.008967.0269031m-.008967-.0627739c-.008968-.0179355-.008968-.0269032-.008968-.0448386 0 .0179354 0 .0269031.008968.0448386m-.017936-.062774v-.0538062zm-.008968-.0627739c0-.0269032-.008967-.0448386-.008967-.062774 0 .0179354.008967.0358708.008967.062774m-.008967-.062774c-.062774-.4304499-.11658-.8608998-.134516-1.3003174.017936.4394176.071742.8698675.134516 1.3003174m-.134516-1.3092852v-.0538062zm0-.0717416c-.008968-.0179354-.008968-.0269031-.008968-.0448385 0 .0179354 0 .0269031.008968.0448385m-.008968-.0717417v-.0448385zm0-.0717416v-.0358708zm0-.0717417v-.0358708zm0-.0717416c0-.0089677-.008967-.0269031-.008967-.0358708 0 .0089677.008967.0269031.008967.0358708m-.008967-.0717417v-.0358708zm0-.0807093v-.0179354z" fill="#00698b"/><path d="m185.272819 108.884773h-.053806c-.161419 0-.331806-.008968-.502192-.017936-.564965-.026903-1.120963-.098644-1.659026-.188321-4.761852-.896771-8.546224-4.609402-9.514736-9.3802215-.017936-.0717417-.035871-.152451-.053807-.2331604 0-.0089677 0-.0179354-.008967-.0269031v-.0358708c-.008968-.0179355-.008968-.0269032-.008968-.0448386 0-.0089677-.008968-.0179354-.008968-.0179354v-.0538062c-.008968 0-.008968-.0089677-.008968-.0089677 0-.0269032-.008967-.0448386-.008967-.062774-.062774-.4304499-.11658-.8608998-.134516-1.3003174v-.0089678-.0538062-.0179354c-.008968-.0179354-.008968-.0269031-.008968-.0448385v-.0269032-.0448385-.0269031-.0358708-.0358709-.0358708-.0358708c0-.0089677-.008967-.0269031-.008967-.0358708v-.0358709-.0358708-.0448385-.0179354-.0717417-10.9316344c.8609-.1255479 1.685929-.2779989 2.537861-.4035468l1.147866-.152451c.995416-.1255479 1.990831-.1972895 3.004182-.2690312l1.165802-.1076125c1.345156-.0627739 2.690312-.1165801 4.053403-.1165801h.071742l1.416897.1345156.493224.0358708-.493224-.0358708.618772.0538062.260064.0538062 1.650058.4394177.295934.089677c.502192.1972896.995415.4304499 1.470704.6905134l.277999.1345156-.277999-.1345156c.134516.0807094.277999.1614188.412514.2421281l-.134515-.0896771.134515.0896771c.484257.2869666.94161.6008364 1.37206.9416092l.322837.2959343 1.031286.9954155.31387.3497405 1.067157 1.4348331c.699481 1.1747695 1.228576 2.475087 1.506575 3.820243.152451.7891582.242128 1.6141872.242128 2.4392162s-.089677 1.6231549-.242128 2.3943777c-.322838 1.5872845-.950577 3.0490205-1.829412 4.3403695-1.981864 2.878634-5.20127 4.833594-8.904933 5.138496zm8.806288-20.0786953-.932642-.9057383z" fill="#007a97"/><path d="m69.7328867 108.884773h.0089677s0 0-.0089677 0m-.0538062 0h-.0269032zm-.0269032 0c-.6367071-.008968-1.2554789-.062774-1.8652829-.161419.609804.098645 1.2285758.152451 1.8652829.161419m.2690312-.008968c.1255479 0 .2510958 0 .3766437-.008968h.0179354c-.1345156.008968-.2600635.008968-.3945791.008968m-10.9136989-6.627135c-.4573531-.923674-.8070936-1.910122-1.0133509-2.9503755-.152451-.7443197-.2331603-1.5334779-.242128-2.3316038v.0089678.0179354c.0089677.0179354.0089677.0358708.0089677.0448385v.0358708.0358709.0358708.0358708.0269031.0448386.0269031.0538062.0179354c0 .0179354.0089677.0358709.0089677.0538063v.0179354.0627739c0 .0896771.0089677.1793542.0179354.2690312v.0179354c.0358708.5111593.1076125 1.0223186.2062572 1.5245102.1076125.5290947.2510958 1.0402535.4214822 1.5334775.1703865.484256.367676.959545.5918687 1.416898m-1.2554789-5.2819793v-.0627739.0179354z" fill="#217c9c"/><path d="m69.7418544 108.884773.152451-.017936h.4035468c-.1255479.008968-.2510958.008968-.3766437.008968-.0538062.008968-.1165801.008968-.1793541.008968m-11.9718883-11.4607292v-.0179354zm-.0089677-.0717417v-.0179354zm0-.0717416v-.0269031zm0-.0717417v-.0269031zm0-.0627739v-.0358708zm0-.0717417v-.0358708zm-.0089677-.0807093v-.0179354z" fill="#1c3c4c"/><path d="m70.3157876 108.866837h-.0179354-.4035468l.8339967-.089677c3.883017-.322837 7.245907-2.457151 9.200867-5.568945-2.0267017 3.255277-5.5599781 5.470301-9.6133815 5.658622m-11.9001467-8.035065c-.1703864-.493224-.3138697-1.0043828-.4214822-1.5334775-.0986447-.5021916-.1703864-1.0133509-.2062572-1.5245102.0717416 1.0671571.2869666 2.0894757.6277394 3.0579877m-.6277394-3.0669554v-.0089677z" fill="#075c79"/><path d="m69.7328867 108.884773h-.0538062-.0269032c-.6367071-.008968-1.2554789-.062774-1.8652829-.161419-3.8561139-.627739-7.0844883-3.093859-8.7793848-6.474684-.2241927-.457353-.4214822-.932642-.5918687-1.416898-.3407728-.968512-.5559978-1.9908306-.6277394-3.0579877v-.0179354c-.0089677-.089677-.0179354-.1793541-.0179354-.2690312v-.0627739-.0179354c0-.0179354-.0089677-.0358709-.0089677-.0538063v-.0179354-.0538062-.0269031-.0448386-.0269031-.0358708-.0358708-.0358709-.0358708c0-.0089677 0-.0269031-.0089677-.0448385v-.0179354s0 0 0-.0089678v-.0448385-.0179354-.0896771l.242128-2.3495391c1.1209634-5.4433979 5.9545572-9.5416398 11.738728-9.5416398h.0627739c1.3810269 0 2.7172152.0538062 4.0623711.1165801l1.1658019.1076125c1.0133509.0717417 2.0087663.1434833 3.0041817.2690312l1.1209634.152451c.8788352.1255479 1.7217996.2779989 2.5826995.4035468v10.9316344l-.215225 2.2419267-.0358708.1345156v.0179354c-.2869666 1.4079295-.825029 2.7261825-1.5514133 3.9099205-1.95496 3.111794-5.31785 5.246108-9.200867 5.568945l-.8339967.089677-.152451.017936z" fill="#1e445b"/><path d="m243.06072 24.8932326c-5.802106 0-10.6357-4.1161773-11.747695-9.5954461-.161419-.7712227-.233161-1.5783163-.233161-2.3943776 0-.8429645.071742-1.6321226.233161-2.4033454 1.111995-5.44339793 5.945589-9.55957527 11.747695-9.55957527 5.775203 0 10.626733 4.11617734 11.729761 9.55957527.170386.7712228.251095 1.5603809.251095 2.4033454 0 .8160613-.080709 1.6231549-.251095 2.3943776-1.103028 5.4792688-5.954558 9.5954461-11.729761 9.5954461" fill="#007a97"/><path d="m127.493885 24.8932326c-5.784171 0-10.617765-4.1161773-11.72976-9.5954461-.152451-.7712227-.233161-1.5783163-.233161-2.3943776 0-.8429645.08071-1.6321226.233161-2.4033454 1.111995-5.44339793 5.945589-9.55957527 11.72976-9.55957527 5.811074 0 10.644668 4.11617734 11.747696 9.55957527.161418.7712228.23316 1.5603809.23316 2.4033454 0 .8160613-.071742 1.6231549-.23316 2.3943776-1.103028 5.4792688-5.936622 9.5954461-11.747696 9.5954461" fill="#1e455e"/><path d="m127.547691 192.867345c.851932-.008967 1.694897-.107612 2.510958-.277999 4.367273-.959544 7.846743-4.295531 9.003578-8.573127v-.017935c0-.008968.008967-.017936.008967-.026904.215225-.825029.349741-1.667993.385612-2.546828.008967-.026903.008967-.044839.008967-.062774v-.008968-.053806-.017936-.044838-.026903-.044839-.026903-.044838c0-.008968.008968-.017936.008968-.035871v-.026903-.044839-.026903-.071742c0 .842965-.071742 1.632123-.23316 2.412313-1.09406 5.452366-5.900751 9.54164-11.69389 9.568543m-.188322 0h-.008967zm-.044838 0c-4.313467-.062774-8.079904-2.412313-10.133509-5.891783 1.676962 2.81586 4.474886 4.896368 7.78397 5.613784.762255.161419 1.542445.260064 2.349539.277999" fill="#52a5cd"/><path d="m127.493885 192.867345.995415-.089677c5.093658-.43045 9.281577-3.990629 10.572927-8.761449-1.156835 4.277596-4.636305 7.613583-9.003578 8.573127-.816061.170387-1.659026.269032-2.510958.277999zm11.568342-8.869061c0-.008968.008967-.017936.008967-.026904 0 .008968-.008967.017936-.008967.026904m.403546-2.636506v-.008968zm0-.062774v-.017936zm0-.062774v-.026903zm0-.071742v-.026903zm0-.071741c0-.008968.008968-.017936.008968-.035871 0 .017935-.008968.026903-.008968.035871m.008968-.062774v-.044839zm0-.071742v-.071742z" fill="#006d93"/><path d="m127.493885 192.867345h-.134516-.008967-.035871c-.807094-.017935-1.587284-.11658-2.349539-.277999-3.309084-.717416-6.107008-2.797924-7.78397-5.613784-.66361-1.120963-1.147866-2.358507-1.416897-3.67676-.152451-.78019-.233161-1.569348-.233161-2.412313 0-.842964.08071-1.632122.233161-2.403345 1.111995-5.461333 5.945589-9.559575 11.72976-9.559575 5.811074 0 10.644668 4.098242 11.747696 9.559575.161418.771223.23316 1.560381.23316 2.403345v.071742.026903.044839.026903c0 .017935-.008968.026903-.008968.035871v.044838.026903.044839.026903.044838.017936.053806.008968c0 .017935 0 .035871-.008967.062774-.035871.878835-.170387 1.721799-.385612 2.546828 0 .008968-.008967.017936-.008967.026904v.017935c-1.29135 4.77082-5.479269 8.330999-10.572927 8.761449z" fill="#0086b8"/><path d="m11.980856 24.8932326c-5.80210614 0-10.63570001-4.1161773-11.75666333-9.5954461-.15245102-.7712227-.22419267-1.5783163-.22419267-2.3943776 0-.8429645.07174165-1.6321226.22419267-2.4033454 1.12096332-5.44339793 5.95455719-9.55957527 11.75666333-9.55957527 5.7841708 0 10.6267324 4.11617734 11.738728 9.55957527.1434833.7712228.2421281 1.5603809.2421281 2.4033454 0 .8160613-.0986448 1.6231549-.2421281 2.3943776-1.1119956 5.4792688-5.9545572 9.5954461-11.738728 9.5954461" fill="#1d3c4b"/></svg>