<svg height="171" preserveAspectRatio="xMidYMid" viewBox="0 0 256 171" width="256" xmlns="http://www.w3.org/2000/svg"><path d="m0 171h85.489l1.34-2.672v-78.408l-1.34-3.941z" fill="#fedd77"/><path d="m85.4892 171h85.49l-2.406-5.73-78.35-77.921-4.734-1.37z" fill="#fbae42"/><path d="m0 .9576 85.489 85.021 2.175-4.4v-76.739l-2.175-3.882z" fill="#51bbe5"/><path d="m85.4892.9576v85.021l5.233-2.453 77.573-76.462 2.684-6.106z" fill="#139cd4"/><path d="m87.5835 84.6054-2.562 1.373 85.489 85.022 1.678-3.784v-79.242l-1.678-1.996-1.842-1.373z" fill="#d13729"/><path d="m174.1347 83.5254-3.624 2.453v85.022l85.489-85.022-3.735-2.453z" fill="#8f2319"/><path d="m170.5104.9576-85.489 85.021h85.489l1.678-4.955v-77.019z" fill="#eb5246"/><path d="m170.5104.9576v85.021h85.489z" fill="#ae291d"/></svg>