<svg height="256" preserveAspectRatio="xMidYMid" viewBox="0 0 256 256" width="256" xmlns="http://www.w3.org/2000/svg"><path d="m236.2183 256h-216.437c-10.925 0-19.781-8.857-19.781-19.782v-216.436c0-10.925 8.856-19.782 19.781-19.782h216.437c10.925 0 19.782 8.857 19.782 19.782v216.436c0 10.925-8.857 19.782-19.782 19.782" fill="#906eca"/><path d="m155.3156 88.2493c-13.568-13.469-36.242-10.284-45.575 6.402l-14.22 24.748c-.477.829-.461 1.852.041 2.667l14.974 24.288-22.388-13.417-31.83 56.437c-4.44 7.872 4.299 16.595 12.163 12.14l24.24-13.732-8.043-15.694 15.9 9.07c1.087.621 2.421.624 3.511.01l49.464-27.848-13.18-24.246s22.129 12.68 27.316 15.604c12.536-10.769 13.764-30.483 1.472-42.685zm44.368.6731c-3.072-1.884-7.088-3.05-11.572-3.857l8.168-19.457c1.083-2.581-1.467-5.196-4.074-4.178l-19.137 7.473c-.153-3.281-1.853-7.228-4.208-11.458-1.279-3.484-6.236-3.404-7.401.121-1.317 6.808-3.855 14.084-7.163 21.655 7.905 6.701 15.928 14.533 24.118 23.994 7.897-3.165 15.232-5.676 21.191-6.587 3.754-1.168 3.808-6.463.078-7.706z" fill="#fff"/></svg>