<svg height="197" preserveAspectRatio="xMidYMid" viewBox="0 0 512 197" width="512" xmlns="http://www.w3.org/2000/svg"><path d="m0 180.242943v-37.531213c0-8.760958 7.73169931-15.806485 17.2768558-15.806485h35.3256563c23.679095 0 29.9159174-22.631456 29.9159174-34.5843441 0-9.1775639-2.8978556-17.7669794-7.9032426-23.6484622-5.2994611-6.0959119-12.4613917-9.0672861-22.0188013-9.0672861h-35.3195298c-9.54515649.0061266-17.2768558-7.0577794-17.2768558-15.7881055 0-8.7119464 7.73169931-15.8064851 17.2768558-15.8064851h35.3256563c19.9235231 0 37.3596691 7.4866375 49.0920019 21.1120728 9.87599 11.4566384 15.328615 26.8158858 15.328615 43.1921395 0 32.0724607-22.5579375 66.1911877-64.4267434 66.1911877h-18.0794332v21.730854c0 8.711947-7.7194462 15.806485-17.2400966 15.806485-9.54515649.006127-17.2768558-7.088412-17.2768558-15.800358zm194.027668-152.2446341c-11.02778 0-20.327875 3.3695996-26.221611 9.3491071-.367593-5.9427483-7.137424-9.0550329-13.815358-9.0550329-7.229323 0-15.010034 3.5840286-15.010034 11.4443853l-1.102778 103.1097456c0 3.737193 1.66642 6.886237 4.82159 9.110172 2.71406 1.911482 6.328721 2.965248 10.170064 2.965248 6.959755 0 14.458646-3.663674 14.458646-11.7017l1.090525-61.2531935c0-16.3211149 10.37224-27.7103613 25.222984-27.7103613 1.776698 0 3.602408.1592901 5.550649.5023766 8.001268.7780712 12.583923-6.0468995 12.90863-12.7432128.294074-6.2674551-3.185803-12.9270091-11.57917-13.6193087-2.174923-.2695679-4.349846-.4043519-6.494137-.4043519zm149.732751 63.1279158c0 17.3013623-6.18781 33.1874923-17.399387 44.7421553-11.395373 11.72008-27.293756 18.177458-44.766662 18.177458-17.472905 0-33.371288-6.457378-44.766661-18.177458-11.229956-11.554663-17.41164-27.44692-17.41164-44.7421553.012253-35.9873231 26.748494-63.1279158 62.196681-63.1279158 35.435934 0 62.159922 25.5231849 62.159922 63.1217892zm-95.083973.0918982c0 19.5314241 14.458645 34.8171531 32.911798 34.8171531 18.459279 0 32.917924-15.279602 32.917924-34.8110266 0-19.7274737-14.458645-35.1969988-32.917924-35.1969988-18.453153 0-32.911798 15.4633986-32.911798 35.1969988zm262.975801 43.2656581c-1.176296-5.103412-5.023766-8.405619-9.790218-8.405619-.704552 0-1.409105.061265-2.205556.220555-2.793704.67392-5.268828 1.017007-7.333474 1.017007-5.593535 0-8.197317-2.389353-8.197317-7.53565v-60.677298h14.489278c7.021021 0 10.219077-6.6656806 10.219077-12.8534907 0-6.2000631-3.198056-12.8657437-10.219077-12.8657437h-14.489278v-21.9575359c.006127-7.8419771-7.743952-11.4260057-14.954895-11.4260057-7.204816 0-14.948769 3.57790206-14.948769 11.4260057v21.9514094h-54.771309v-21.9514094c.012253-7.8419771-7.737826-11.4260057-14.948769-11.4260057-7.204816 0-14.948768 3.57790206-14.948768 11.4260057v21.9514094h-8.834478c-3.124538 0-5.685433 1.4091053-7.413119 4.0618991-1.427485 2.1810499-2.217809 5.1462975-2.217809 8.3321007 0 6.6166682 3.308334 13.3313611 9.630928 13.3313611h8.822224v67.955633c0 16.645822 10.56829 26.987429 27.569451 26.987429 7.106792 0 14.875251-1.776698 23.097073-5.256575 6.291962-2.756945 7.927749-9.349107 6.788212-14.305482-1.18855-5.103412-5.03602-8.405619-9.802472-8.405619-.692299 0-1.409105.061265-2.193302.220555-2.805958.67392-5.268829 1.017007-7.351854 1.017007-5.587409 0-8.185064-2.389353-8.185064-7.53565v-60.677298h54.75293v67.955633c0 16.645822 10.556036 26.987429 27.56945 26.987429 7.106792 0 14.862998-1.776698 23.078694-5.256575 6.298088-2.756945 7.940002-9.349107 6.800465-14.305482z" fill="#3e3e3e"/></svg>