<svg height="256" preserveAspectRatio="xMidYMid" viewBox="0 0 256 256" width="256" xmlns="http://www.w3.org/2000/svg"><g fill="#35a7c1"><path d="m127.792005 0c-70.5795243 0-127.792005 57.2224201-127.792005 127.790585 0 70.568165 57.2124807 127.793425 127.792005 127.793425 70.578105 0 127.793425-57.21532 127.793425-127.793425 0-70.5781043-57.21532-127.790585-127.793425-127.790585m0 234.288183c-58.8169801 0-106.4961773-47.679197-106.4961773-106.497598 0-58.8155601 47.6791972-106.4947573 106.4961773-106.4947573 58.815561 0 106.493338 47.7090153 106.493338 106.4947573.00142 58.785743-47.709015 106.494758-106.493338 106.494758"/><path d="m158.848302 127.792005c0-30.1347745-11.82502-57.4865234-31.054877-77.7358766-19.232697 20.2294745-31.0974744 47.63376-31.0974744 77.7358766 0 13.773139 2.5558401 26.978312 7.0995554 39.215107-6.5827077 9.601439-11.4430637 23.052258-13.5757702 38.52077 6.7914351-8.038117 15.1376732-13.927909 24.3926542-16.833047 3.873517 5.963627 8.235485 11.643272 13.205174 16.833047 4.911472-5.172736 9.327396-10.809784 13.199494-16.833047 9.257821 2.839822 17.606898 8.803449 24.422472 16.896943-2.134127-15.468512-6.993063-28.919331-13.575771-38.52077 4.48124-12.300691 7.024301-25.505864 7.024301-39.279003m-31.094635.283982c-7.744195 0-14.021623-6.277427-14.021623-14.020202 0-7.741356 6.277428-14.017364 14.021623-14.017364 7.742776 0 14.057121 6.24761 14.057121 14.057121-.038338 7.590845-6.249029 13.980445-14.058541 13.980445"/></g></svg>