<svg height="120" preserveAspectRatio="xMidYMid" viewBox="0 0 512 120" width="512" xmlns="http://www.w3.org/2000/svg"><path d="m1.11703258 90.8191372c-.61401504-.354807-1.11703258-1.2241804-1.11703258-1.9299448v-57.8008221c0-.7070476.50301754-1.5751378 1.11703258-1.9305865l50.69954892-28.89142854c.6146566-.35480701 1.6200501-.35480701 2.2347067 0l50.6963408 28.89463664c.614657.354807 1.117033 1.2228972 1.117033 1.9299448v57.8008221c0 .7051228-.502376 1.5738546-1.117033 1.9299448l-50.6963408 28.8920704c-.6146566.354807-1.6200501.354807-2.2347067 0zm152.36940342-53.9781453v23.4442105h10.025063c7.275789 0 10.509473-2.9642105 10.509473-7.8147369v-7.8147368c0-4.8498847-3.233684-7.8147368-10.509473-7.8147368zm0 30.8996491v20.9291228c0 1.2569022-.323368 1.7958496-1.455158 1.7958496h-4.93201c-1.050947 0-1.455158-.5389474-1.455158-1.7958496v-57.4870777c0-1.2575439.404211-1.7971328 1.455158-1.7971328h16.412231c13.905483 0 18.351799 6.4673684 18.351799 13.8329824v10.6897644c0 7.3649725-4.446316 13.8323409-18.351799 13.8323409zm46.621514-30.8996491v22.0070175h10.024421c7.276431 0 10.510757-2.874386 10.510757-7.8147368v-6.3775439c0-4.8498847-3.234326-7.8147368-10.510757-7.8147368zm0 29.4624561v22.3663158c0 1.2569022-.32401 1.7958496-1.4558 1.7958496h-4.931368c-1.050947 0-1.455158-.5389474-1.455158-1.7958496v-57.4870777c0-1.2575439.404211-1.7971328 1.455158-1.7971328h16.411589c13.906125 0 18.352441 6.4673684 18.352441 13.8329824v9.3417544c0 5.4792982-2.506105 10.4196491-9.459168 12.5760802l9.701694 23.5333935c.404211 1.0778947-.323368 1.7958496-1.455158 1.7958496h-4.851167c-1.13179 0-1.293474-.7179549-1.777885-1.7958496l-9.136441-22.3663158zm70.877353-22.3663158c0-4.8505263-3.412691-7.8147368-11.092691-7.8147368-7.594667 0-11.007359 2.9642105-11.007359 7.8147368v31.9769023c0 4.8511679 3.412692 7.8147368 11.007359 7.8147368 7.68 0 11.092691-2.9635689 11.092691-7.8147368zm-30.462717-1.437193c0-7.365614 4.778667-13.8323408 19.370026-13.8323408 14.676691 0 19.456 6.4667268 19.456 13.8323408v34.8519298c0 7.3656141-4.779309 13.8329825-19.456 13.8329825-14.591359 0-19.370026-6.4673684-19.370026-13.8329825zm83.880742-13.1143859c1.109334 0 1.621334.4497644 1.621334 1.7066666v4.0421053c0 1.2575438-.512 1.7066667-1.621334 1.7066667h-13.652691v51.8287719c0 1.2569022-.426667 1.7958496-1.536642 1.7958496h-5.290025c-1.109333 0-1.536-.5389474-1.536-1.7958496v-51.8287719h-13.653333c-1.194025 0-1.620692-.4491229-1.620692-1.7066667v-4.0421053c0-1.2569022.426667-1.7066666 1.620692-1.7066666zm39.766617 14.5515789c0-4.8505263-3.413333-7.8147368-11.092692-7.8147368-7.594667 0-11.008 2.9642105-11.008 7.8147368v31.9769023c0 4.8511679 3.413333 7.8147368 11.008 7.8147368 7.679359 0 11.092692-2.9635689 11.092692-7.8147368zm-30.463359-1.437193c0-7.365614 4.778667-13.8323408 19.370667-13.8323408 14.676692 0 19.455359 6.4667268 19.455359 13.8323408v34.8519298c0 7.3656141-4.778667 13.8329825-19.455359 13.8329825-14.592 0-19.370667-6.4673684-19.370667-13.8329825zm88.218627 46.2590075c0 1.1677193-.323368 1.7066667-1.455158 1.7066667h-4.446957c-.808421 0-1.13179-.2694737-1.454517-.808421l-18.999177-37.0064361c-1.778527-3.3241504-2.748632-6.1087118-2.910958-6.4680101v42.5762005c0 1.1677193-.40421 1.7066667-1.455158 1.7066667h-4.527158c-1.050947 0-1.455158-.5389474-1.455158-1.7066667v-57.6667268c0-1.1670777.404211-1.7066666 1.455158-1.7066666h4.527158c.646737 0 1.050948.2694736 1.293474.7185964l19.48423 37.8161404c1.13179 2.1557895 2.506747 5.7481303 2.506747 5.7481303v-42.5762005c0-1.1670777.484411-1.7066666 1.535359-1.7066666h4.446957c1.13179 0 1.455158.5395889 1.455158 1.7066666zm13.902276 1.7066667c-1.050306 0-1.454517-.5389474-1.454517-1.7958496v-57.4870777c0-1.2575439.404211-1.7971328 1.454517-1.7971328h27.649925c1.050947 0 1.536.4497644 1.536 1.7066666v4.0421053c0 1.2575438-.485053 1.7066667-1.536 1.7066667h-21.262757v18.1445614h19.806957c1.132431 0 1.617484.4491228 1.617484 1.7066666v3.8624562c0 1.1677193-.485053 1.7066666-1.617484 1.7066666h-19.806957v20.7494737h22.15202c1.050947 0 1.536.3592983 1.536 1.6162005v4.1319298c0 1.2581855-.485053 1.7066667-1.536 1.7066667zm74.635869-61.0800601c1.051589 0 1.536642.4497644 1.536642 1.7066666v4.0421053c0 1.2575438-.485053 1.7066667-1.536642 1.7066667h-12.935378v51.8287719c0 1.2569022-.404211 1.7958496-1.454516 1.7958496h-5.012852c-1.050948 0-1.455158-.5389474-1.455158-1.7958496v-51.8287719h-12.935379c-1.131789 0-1.536641-.4491229-1.536641-1.7066667v-4.0421053c0-1.2569022.404852-1.7066666 1.536641-1.7066666z" fill="#e15b29"/></svg>