<svg height="256" preserveAspectRatio="xMidYMid" viewBox="0 0 256 256" width="256" xmlns="http://www.w3.org/2000/svg"><path d="m256 128c0 70.692-57.308 128-128 128s-128-57.308-128-128 57.308-128 128-128 128 57.308 128 128" fill="#e23237"/><path d="m255.9999 127.9999c0-.416-.027-.825-.031-1.24-25.578-24.658-51.444-49.633-52.17-50.492-18.032-21.338-44.991-34.888-75.115-34.888-54.288 0-98.298 44.01-98.298 98.298 0 7.511.87 14.814 2.466 21.841 35.629 37.535 68.765 71.671 93.565 94.441.529.007 1.052.04 1.583.04 70.692 0 128-57.307 128-128" fill="#b52e31"/><path d="m191.8717 138.2551h-125.865c-.001-.171-.012-.339-.012-.51 0-34.764 28.181-62.945 62.945-62.945 34.763 0 62.945 28.181 62.945 62.945 0 .171-.012.339-.013.51zm14.894-2.849h20.109c-1.082-25.292-11.712-48.106-28.389-64.928l-13.886 13.887-3.358-3.357 13.821-13.821c-17.031-15.603-39.58-25.26-64.38-25.757v17.893h-4.748v-17.874c-24.815.684-47.326 10.549-64.26 26.34l12.642 12.642-3.357 3.357-12.678-12.678c-16.326 16.76-26.718 39.315-27.788 64.296h18.409v4.748h-18.503c.036 7.342.89 14.487 2.452 21.365h191.666c1.561-6.878 2.416-14.023 2.452-21.365h-20.204z" fill="#fff"/></svg>