<svg height="256" preserveAspectRatio="xMidYMid" viewBox="0 0 256 256" width="256" xmlns="http://www.w3.org/2000/svg"><circle cx="128" cy="128" fill="#f2f2f2" r="128"/><path d="m166.493091 203.682909c-25.274182 9.309091-53.015273 9.309091-78.2894546 0-2.3272728-.837818-4.1890909-3.584-4.1890909-5.957818v-6.097455c0-2.373818 1.8618181-3.537454 4.1890909-2.699636 25.2741816 9.309091 53.0152726 9.309091 78.2894546 0 2.327273-.837818 4.189091.325818 4.189091 2.699636v6.097455c-.046546 2.373818-1.908364 5.12-4.189091 5.957818z" fill="#ed1c24"/><path d="m166.493091 196.235636c-25.274182 12.939637-53.015273 12.939637-78.2894546 0-2.3272728-1.163636-4.1890909-4.980363-4.1890909-8.285091v-8.424727c0-3.304727 1.8618181-4.933818 4.1890909-3.723636 25.2741816 12.939636 53.0152726 12.939636 78.2894546 0 2.327273-1.163637 4.189091.418909 4.189091 3.723636v8.424727c-.046546 3.304728-1.908364 7.121455-4.189091 8.285091z" fill="#c1272d"/><g transform="translate(117.76 202.938182)"><ellipse cx="9.588364" cy="3.909818" fill="#c1272d" rx="3.584" ry="3.584"/><ellipse cx="9.588364" cy="3.397818" fill="#ff931e" rx="3.072" ry="3.072"/><ellipse cx="10.472727" cy="4.468364" fill="#ffb81e" rx="1.070545" ry="1.070545"/><ellipse cx="9.588364" cy="15.546182" fill="#ff931e" rx="9.588364" ry="9.588364"/><circle cx="9.588364" cy="15.639273" fill="#ffb81e" r="8.610909"/><path d="m12.1018182 12.8930909c.512.4654546.7912727 1.1170909.7912727 2.048s-.2792727 1.5825455-.7912727 2.048c-.5585455.4189091-1.3498182.6516364-2.46690911.6516364h-.97745454v2.0945454h-1.67563637v-7.4938182h2.65309091c1.11709091 0 1.95490911.1861819 2.46690911.6516364zm-1.2101818 2.9323636c.1861818-.2327272.2792727-.5585454.2792727-.9774545s-.1396364-.7447273-.3723636-.9309091c-.2792728-.1861818-.6516364-.2792727-1.21018186-.2792727h-.93090909v2.5134545h1.1170909c.55854545 0 .93090905-.0930909 1.11709095-.3258182z" fill="#ff931e"/></g><path d="m205.032727 140.474182c2.327273 31.883636-32.162909 60.509091-77.218909 60.462545-45.0094544.046546-79.5461816-28.578909-77.2189089-60.462545 2.3272727-31.976727 37.0036364-58.3680002 77.3119999-58.4145456 40.354909.0465454 74.752 26.4378186 77.125818 58.4145456z" fill="#f7bd89"/><path d="m127.674182 77.5912727c-42.3563638 0-81.6872729 29.8356363-74.2400002 75.2640003 1.4894546 4.189091 3.9563637 15.080727 15.7323637 24.715636 3.5374545 2.885818 9.634909 5.306182 12.5207272 3.351273 7.4007273-5.026909-5.7250909-19.456 9.2625455-32.768h-.3258182c8.1454545-6.190546 19.688727-11.124364 36.957091-11.124364s28.811636 4.933818 36.957091 11.124364h-.325818c14.987636 13.312 1.908363 27.741091 9.262545 32.768 2.885818 1.954909 9.029818-.465455 12.520727-3.351273 11.776-9.634909 14.289455-20.526545 15.778909-24.715636 7.447273-45.474909-31.744-75.2640003-74.100363-75.2640003z" fill="#fbd5a0"/><path d="m164.119273 153.041455c-7.121455-8.750546-20.619637-17.221819-36.305455-17.221819h-.139636-.046546c-15.732363 0-29.2305451 8.471273-36.3054542 17.221819-7.3541818 8.936727-4.7010909 12.753454-4.7010909 21.317818 0 30.999272 10.8450909 21.969454 18.1527271 25.693091 7.447273 3.630545 14.987637 2.327272 22.900364 2.327272h.139636c7.912727 0 15.453091 1.303273 22.900364-2.373818 7.261091-3.723636 18.152727 5.399273 18.152727-25.6-.046545-8.517818 2.606546-12.427636-4.747636-21.364363z"/><circle cx="75.403636" cy="139.264" fill="#f7bd89" r="12.986182"/><circle cx="76.567273" cy="137.076364" r="12.986182"/><circle cx="79.872" cy="131.258182" fill="#fff" r="3.351273"/><circle cx="179.665454" cy="139.264" fill="#f7bd89" r="12.986182"/><circle cx="178.920727" cy="137.076364" r="12.986182"/><circle cx="182.225454" cy="131.258182" fill="#fff" r="3.351273"/><path d="m100.352 89.2276364s-43.9854545 7.5869091-45.7541818 60.1367276c-.0465455.791272-.8843637 1.303272-1.5825455.884363l-1.3963636-.837818-1.0705455-13.777454 2.0014546-28.113455 18.3389091-13.5447273 16.4770909-6.656z" fill="#f7bd89"/><path d="m154.949818 89.2276364s43.985455 7.5869091 45.754182 60.1367276c.046545.791272.884364 1.303272 1.582545.884363l1.396364-.837818 1.070546-13.777454-2.001455-28.113455-18.338909-13.5447273-16.477091-6.656z" fill="#f7bd89"/><path d="m126.752745 182.809821v-26.510185h1.935965v26.447561c2.853107.334378 6.560067 1.99305 10.109835 3.062258 3.677091 1.303272 7.214546 1.815272 5.818182 2.001454-4.840727.186182-10.146909-1.629091-16.663272-1.536-6.56291-.093091-11.869091 1.722182-16.663273 1.536-1.396364-.232727 2.141091-.744727 5.818182-2.001454 3.36521-1.013618 6.836374-2.557 9.644381-2.999634zm13.116346-35.446912c1.536 3.397818-3.770182 8.936727-12.194909 8.936727s-13.730909-5.538909-12.194909-8.936727c1.489454-3.490909 6.842182-4.608 12.194909-4.654545 5.352727.046545 10.705454 1.163636 12.194909 4.654545z" fill="#4d4d4d"/><path d="m100.352 89.2276364s-51.8050909 7.168-47.3367273 58.6007276c.2327273 2.606545-10.3330909-11.124364-18.5250909-15.313455s-7.9127273-17.733818-7.9127273-17.733818-.1396363-23.5985455 32.9541819-30.5803637c33.0472727-6.9352728 40.8203636 5.0269091 40.8203636 5.0269091zm54.597818 0s51.805091 7.168 47.336727 58.6007276c-.232727 2.606545 10.333091-11.124364 18.525091-15.313455s7.912728-17.733818 7.912728-17.733818.139636-23.5985455-32.954182-30.5803637c-33.047273-6.9352728-40.820364 5.0269091-40.820364 5.0269091z"/><g fill="#f7bd89"><path d="m127.720727 126.277818c-16.104727 0-32.3956361 15.825455-28.9978179 14.056727 6.2836359-3.304727 9.9141819-9.122909 28.9978179-9.122909 19.083637 0 22.667637 5.818182 28.997818 9.122909 3.397819 1.768728-12.89309-14.056727-28.997818-14.056727z"/><path d="m127.720727 119.342545c-12.241454 0-24.576 12.008728-22.016 10.65891 4.794182-2.513455 10.938182-6.935273 22.016-6.935273s17.221818 4.421818 22.016 6.935273c2.56 1.349818-9.774545-10.65891-22.016-10.65891z"/><path d="m127.627636 80.384c-13.498181 0-27.182545 7.7265455-24.343272 6.8421818 5.306181-1.6290909 12.101818-4.4683636 24.343272-4.4683636 12.241455 0 19.037091 2.8392727 24.343273 4.4683636 2.839273.8843637-10.798545-6.8421818-24.343273-6.8421818z"/></g><path d="m130.746182 145.501091c.372363.837818-.930909 2.187636-3.025455 2.187636-2.094545 0-3.397818-1.349818-3.025454-2.187636.372363-.837818 1.675636-1.117091 3.025454-1.163636 1.303273 0 2.653091.279272 3.025455 1.163636z" fill="#808080"/></svg>