<svg height="243" preserveAspectRatio="xMidYMid" viewBox="0 0 256 243" width="256" xmlns="http://www.w3.org/2000/svg"><path d="m104.897561 193.24878s-23.102439 17.170732-39.3365854 12.487805c0 0 79.9219514 79.921952 162.9658534 3.121952 0 0 27.785366-32.156098 26.536586-55.882927l-10.92683-3.121951s-15.297561 75.551219-95.219512 66.185365c.312195.312196-19.980488-4.370731-44.019512-22.790244z" fill="#eba546"/><path d="m80.6895845 86.7902439s-2.497561-28.7219512 9.9902439-39.9609756c0 0-109.8926829 26.5365854-87.72682925 137.6780487 0 0 13.11219515 40.585366 33.71707315 51.82439l8.1170732-7.804878s-56.5073171-52.44878-6.8682927-115.82439c-.3121951 0 14.3609756-14.9853658 42.7707317-25.9121951z" fill="#322d6b"/><path d="m185.756098 116.755024s26.536585 11.239025 30.595122 27.473171c0 0 28.409756-109.2682928-79.921952-142.0487806 0 0-42.1463412-7.49268293-61.5024387 5.30731707l3.1219512 10.92682923s73.0536585-25.28780484 105.5219515 48.3902439c-.312195 0 5.931707 19.6682927 2.185366 49.9512194z" fill="#7c64a5"/><path d="m144.748134 77.0017921c-9.365854 10.6146342-25.6 11.5512195-36.214635 2.1853659-10.6146337-9.3658537-11.5512191-25.6-2.185365-36.2146342 9.365853-10.6146341 25.6-11.5512195 36.214634-2.1853658 10.614634 9.3658536 11.551219 25.6 2.185366 36.2146341z" fill="#7c64a5"/><path d="m79.1388731 183.099849c-9.3658537 10.614634-25.6 11.551219-36.2146342 2.185366-10.6146341-9.365854-11.5512195-25.6-1.8731707-36.214635 9.3658536-10.614634 25.6-11.551219 36.2146341-1.87317 10.3024391 9.053658 11.2390244 25.287805 1.8731708 35.902439z" fill="#322d6b"/><path d="m200.943256 186.270085c-9.365854 10.614634-25.6 11.551219-36.214635 2.185366-10.614634-9.365854-11.551219-25.6-2.185365-36.214634 9.365853-10.614635 25.6-11.55122 36.214634-2.185366 10.614634 9.365853 11.551219 25.6 2.185366 36.214634z" fill="#eba546"/></svg>