<svg height="256" preserveAspectRatio="xMidYMid" viewBox="0 0 256 256" width="256" xmlns="http://www.w3.org/2000/svg" xmlns:xlink="http://www.w3.org/1999/xlink"><radialGradient id="a" cx="31.072456%" cy="36.946375%" r="128.1444%"><stop offset="0" stop-opacity=".23"/><stop offset="1" stop-color="#fff" stop-opacity="0"/></radialGradient><linearGradient id="b" x1="45.005488%" x2="56.615814%" y1="-24.349978%" y2="92.49618%"><stop offset="0" stop-color="#fffdff"/><stop offset="1" stop-color="#fff" stop-opacity="0"/></linearGradient><linearGradient id="c" x1="39.302585%" x2="56.25175%" y1="18.500023%" y2="80.216571%"><stop offset="0" stop-color="#fff"/><stop offset="1" stop-color="#fff" stop-opacity="0"/></linearGradient><linearGradient id="d" x1="53.11478%" x2="46.471962%" y1="73.736496%" y2="23.560755%"><stop offset="0" stop-color="#fff" stop-opacity=".00885"/><stop offset="1" stop-color="#fff" stop-opacity=".7843"/></linearGradient><radialGradient id="e" cx="52.023688%" cy="38.118393%" fx="22.023688%" fy="32.118393%" r="87.154289%"><stop offset="0" stop-opacity="0"/><stop offset=".6326" stop-color="#fff" stop-opacity="0"/><stop offset=".6975" stop-opacity=".3922"/><stop offset=".996991481" stop-opacity=".993955"/><stop offset="1"/></radialGradient><filter id="f" height="200%" width="200%" x="-50%" y="-50%"><feGaussianBlur in="SourceGraphic" result="blur" stdDeviation="8"/></filter><g transform="translate(-1)"><path d="m205.4 6.6c14.2 1 27.3 3.4 33.1 7.4 3 2.8 5.2 8.3 6.2 14.7 1 5.9.9 12.6-.2 18.7-1.1 6-3.3 11.5-6.6 15.2-2.3 2.6-5.1 4.3-8.6 4.9-7.7 1.2-12.1-6.3-18.3-16.7-5.5-9.3-12.2-20.6-23.5-30.6-4.5-3.3-8.5.1-6.1 2.7 12 10 18.8 21.5 24.4 30.9 7.4 12.5 12.7 21.5 24.4 19.6 2.4-.4 4.6-1.2 6.6-2.3 9 17 14.1 36.4 14.1 57.1 0 33.7-13.6 64.1-35.7 86.2-22 22-52.5 35.7-86.1 35.7s-64.1-13.6-86.1-35.7c-22-22-35.7-52.5-35.7-86.2 0-8.3.8-16.3 2.4-24.1-.8-4.5-1.2-9.4-1.5-13.1-1-10.8-1.7-25.8-.5-38.6.9-10.5 3-19.3 7-22 .3-.2.5-.4.7-.7 1.3-1.7 8.9-6.7 20.6-10 5.9-1.7 12.7-2.8 20.2-2.8 1.7 0 3.5.1 5.3.2 10.5.8 21.8 9.8 29.6 20.7 3.2 4.5 5.8 9.3 7.5 14 1.7 4.6 2.5 9 2.2 12.9-.3 4.1-1.9 7.6-5.2 9.9-5.7 4.1-13.8 1.6-23-1.3-14.3-4.5-31.1-9.8-49.1 3.8-4.5 3.2-1.3681316 7.3251312 1.3318684 6.3251312 16.8-14 32.8769199-8.8147461 46.1769199-4.6147461 10.7 3.4 19.3912132 6.326207 27.5912132.526207 4.8000005-3.5 7.8013685-9.3916092 7.8013685-14.1168671 0-4.7252578-.501855-9.9150039-2.401855-15.2150039-1.9-5.2-4.499515-10.6047211-7.999515-15.5047211-4.8-6.7-10.9-12.7-17.4-17 15.4-7 32.5-10.9 50.5-10.9 9.1 0 17.9 1 26.4 2.9 3.6-1.5 8.4-2.1 12.6-2.7 4.8-.4 10.5-.7 16.7-.7.9-.2 1.7-.2 2.6-.2 5.9 0 12 .2 18 .7z" fill="url(#a)"/><path d="m184.6 7c27.6 0 49.9 8.5 49.9 19 0 8.1-13.2 15-31.9 17.7-2.7-15.1-21.5-27.8-47.1-33.2 8.2-2.2 18.3-3.5 29.1-3.5z" fill="url(#b)"/><path d="m127.8 7.7c41.5 0 75.2 17.8 75.2 39.8s-33.7 39.8-75.2 39.8c-12.9 0-25-1.7-35.6-4.7.4-.1.7-.2 1.1-.2 2.7-.7 5.4-2.2 8-4.8 2.4-2.8 4.1-5.8 5-9.2.9-3.3.9-7 0-11-.9-3.9-2.2-7.6-3.7-11.1-1.6-3.5-3.4-6.9-5.5-10.2-2.5-3.7-5.2-7.2-8.2-10.3s-6.4-5.9-10.3-8.3c13.2-6.1 30.4-9.8 49.2-9.8z" fill="url(#c)"/><path d="m186.8 0c-13.6 0-25.8 1.1-31.3 2.7-.3.1-.6.2-.9.4-8.2-1.7-16.8-2.5-25.5-2.5-20.5 0-39.9 4.8-57.1 13.4-3.3-1.4-6.7-2.4-10.1-2.6-10.3-.8-19.7.6-27.6 2.8-12.3 3.5-21 9.2-23.4 11.7-5.5 4.1-8.2 14.3-9.3 26.2-1.6 18.1.3 40.6 1.8 49.7 0 .4.2.7.3 1-1.7 8.2-2.6 16.8-2.6 25.5 0 35.3 14.3 67.2 37.5 90.3s55.1 37.4 90.4 37.4 67.3-14.3 90.4-37.4 37.5-55 37.5-90.3c0-22-5.6-42.7-15.4-60.7l.8-.8c4.1-4.6 6.7-11.1 8-18.1 1.3-6.8 1.3-14.2.2-20.7-1.3-7.8-4.1-14.6-8.2-18.3-.1-.1-.2-.2-.3-.2-6.7-4.8-21-7.5-36.3-8.6-6.2-.7-12.7-.9-18.9-.9zm.6 6c5.9 0 12 .2 18 .7 14.2 1 27.4 3.4 33.1 7.4 3 2.8 5.2 8.3 6.2 14.7 1 5.9.9 12.6-.2 18.7-1.1 6-3.3 11.5-6.6 15.2-2.3 2.6-5.1 4.3-8.6 4.9-7.7 1.2-12.1-6.3-18.3-16.7-5.5-9.3-12.2-20.5-23.5-30.6-4.5-3.3-8.5.1-6.1 2.7 12 9.9 18.8 21.5 24.4 30.9 7.4 12.5 12.7 21.5 24.4 19.6 2.4-.4 4.6-1.2 6.6-2.3 9 17 14.2 36.4 14.2 57 0 33.6-13.6 64.1-35.7 86.1-22 22-52.5 35.6-86.2 35.6s-64.1-13.6-86.2-35.6-35.7-52.5-35.7-86.1c0-8.3.8-16.3 2.4-24.1-.8-4.5-1.2-9.4-1.5-13.1v-.1c-1-10.7-1.7-25.7-.6-38.5.9-10.5 3-19.3 7-22 .3-.2.5-.4.7-.7 1.3-1.7 9-6.7 20.7-10 5.9-1.7 12.7-2.8 20.2-2.8 1.7 0 3.5.1 5.3.2 10.6.8 21.8 9.8 29.6 20.6 3.2 4.5 5.8 9.3 7.5 13.9s2.5 9 2.2 12.9c-.3 4.1-1.9 7.6-5.2 9.9-5.7 4.1-13.8 1.6-23-1.3-14.3-4.5-31.2-9.8-49.1 3.8-4.5 3.2-1.3 7.8 1.4 6.8 16.8-13.9 32.6-9 45.9-4.8 10.7 3.4 20.1 6.3 28.3.5 4.9-3.5 7.2-8.5 7.7-14.3.4-4.8-.6-10-2.5-15.4-1.9-5.2-4.8-10.5-8.3-15.4-4.8-6.7-10.9-12.7-17.4-16.9 15.4-7 32.5-10.9 50.5-10.9 9.1 0 17.9 1 26.4 2.9 3.6-1.5 8.4-2.1 12.7-2.7 4.8-.4 10.5-.7 16.7-.7zm13 64.8c-11.8 0-21.3 9.5-21.3 21.3s9.6 21.3 21.3 21.3 21.3-9.5 21.3-21.3-9.5-21.3-21.3-21.3zm-133 15.6c-23 0-41.7 18.7-41.7 41.6 0 23 18.7 41.6 41.7 41.6s41.7-18.6 41.7-41.6-18.7-41.6-41.7-41.6zm11.5 21.8c10.6 0 19.1 8.6 19.1 19.1s-8.6 19.1-19.1 19.1-19.1-8.6-19.1-19.1c0-10.6 8.5-19.1 19.1-19.1zm106 16.6c-.5 0-1 .1-1.5.3l-59.4 17.2c-.1 0-.2.1-.3.1-1.7.6-2.9 2.2-2.9 4.2 0 1.8 1.1 3.4 2.7 4.1l36.6 20.6v.2c0 6.3-2.8 12.1-7.4 16.3-4.6 4.3-11.1 6.9-18.3 6.9-4.5 0-8.8-1-12.6-3-3.7-1.9-6.9-4.6-9.2-8 0-.1-.1-.1-.1-.1-.7-1.1-1.9-1.8-3.3-1.8-2.2 0-4 1.8-4 4 0 .9.3 1.7.8 2.4 3.1 4.5 7.3 8.1 12.2 10.6s10.5 3.9 16.2 3.9c9.2 0 17.6-3.5 23.7-9 4.4-4 7.6-9.2 9.1-15 6 4.9 13.8 7.9 22.4 7.9 9.2 0 17.6-3.4 23.7-9 6.2-5.7 10-13.5 10-22.1v-1.3s0 0 0-.1c0-2.2-1.8-4-4-4s-4 1.8-4 4v.1.2 1.1c0 6.3-2.8 12.1-7.4 16.3-4.6 4.3-11.1 6.9-18.3 6.9-6.9 0-13.1-2.4-17.7-6.4-1-.8-1.8-1.7-2.6-2.7l19.6-38c.4-.7.6-1.4.6-2.2-.2-2.6-2.2-4.6-4.6-4.6z"/><ellipse cx="50" cy="39" fill="url(#d)" rx="36.1" ry="19"/><path d="m97.4 85.8c10.1 0 13.8-7 13.8-15.5 0-4.8-3.2-14.4-5.5-17.5l-.506641.7222982c1.1 4 1.688998 7.9405278 1.388998 11.5405278-.5 5.9-2.829167 10.6652666-7.7291666 14.0652666-4.9 3.6-10.2195315 4.124414-16.0195315 3.024414 4.9 1.8 10.7663411 3.6474934 14.5663411 3.6474934z" fill="#141414" fill-opacity=".3922"/><path d="m229.9 76c3.8 1.2 6.933875 1.1644775 9.633875.4644775-.8-1.8-1.783838-3.6896484-2.683838-5.3896484-2 1.1-4.10586 1.9455811-6.50586 2.3455811-1.7.2-3.244177.3795898-4.644177.2795898 1.4 1 2.8 1.9 4.2 2.3z" fill="#141414" fill-opacity=".3922"/><path d="m238.8 85.4c0 68.2-55.3 123.5-123.5 123.5-46.4 0-86.9-25.6-108-63.5 8.6 59.7 60.1 105.7 122.2 105.7 68.2 0 123.5-55.3 123.5-123.5.1-21.8-5.6-42.3-15.5-60 .8 5.8 1.3 11.7 1.3 17.8z" fill="url(#e)" filter="url(#f)"/></g></svg>