<svg height="350" preserveAspectRatio="xMidYMid" viewBox="0 0 256 350" width="256" xmlns="http://www.w3.org/2000/svg"><g fill="#3b454a"><path d="m253.598 99.563c-5.969 21.618-11.915 29.455-22.889 41.206-16.786 17.976-37.4 30.166-60.075 39.149-.648.256-1.347.384-2.243.633-.567-4.902-1.917-8.903-1.434-16.151 11.744-5.553 24.336-12.895 33.906-21.688 9.774-8.982 18.357-18.897 22.107-32.026 4.015-14.059 3.138-27.594-5.09-40.127-2.664-4.059-6.205-7.234-10.598-9.313-7.093-3.357-13.911-1.845-20.337 1.813-8.996 5.12-14.567 13.289-18.867 22.399-5.012 10.618-7.536 21.932-8.576 33.559-.839 9.386-1.919 18.815-1.777 28.207.17 11.253 1.073 22.545 2.476 33.717 1.802 14.343 5.966 28.089 11.186 41.608l.886 2.497s38.6-10.858 39.757-11.033c-14.467 34.998-29.338 70.03-43.773 104.952-3.932-2.82-7.775-5.588-11.454-8.227 8.473-21.473 16.741-42.611 25.328-64.369-1.083.131-38.6 11.133-45.859 12.101-6.135-21.401-11.65-45.508-15.445-67.436-3.123-18.043-6.13-47.107-6.13-56.302 0-9.196.685-23.79 2.42-36.46 1.916-13.998 3.614-27.48 12.099-39.04 16.501-22.482 38.682-36.828 67.636-35.492 15.12.698 28.966 7.916 40.291 17.665 9.624 8.286 15.539 18.385 17.786 31.096 1.08 6.593 2.218 15.285-1.331 27.062"/><path d="m0 270.665c4.13-.999 8.599-2.174 12.702-3.273 8.558-2.292 17.081-4.72 25.644-6.995 1.694-.45 2.251-.889 1.548-2.78-5.603-15.068-9.68-30.591-12.49-46.384-3.02-16.969-5.575-34.03-7.896-51.11-1.616-11.894-2.565-23.88-2.155-35.928.706-20.714 2.829-41.179 10.692-60.615 5.522-13.651 13.443-25.505 26.025-33.732 7.802-5.103 17.928-7.92 27.232-8.367-5.323 4.034-12.906 13.875-12.906 13.875-10.97 6.291-13.418 14.74-15.872 21.717-3.986 11.335-5.672 23.121-6.713 35.038-1.287 14.726-1.072 29.448-.421 44.194.838 19.028 2.757 37.92 6.159 56.667 4.914 27.084 11.863 53.63 20.794 79.663.231.673.424 1.359.745 2.392-12.475 3.512-24.8 6.982-37.749 10.627 2 1.513 3.429 2.622 4.887 3.694 9.875 7.259 21.629 15.87 31.543 23.076l-5.154 11.8c-3.538-2.739-6.899-5.473-10.188-8.029-18.273-14.2-38.15-29.393-56.427-43.589z"/><path d="m175.92 18.174c-7.139 1.331-10.043 2.904-10.043 2.904-7.736-1.161-14.378-3.002-27.466 5.566-7.971 5.953-13.576 14.435-17.786 23.231-7.527 15.729-11.448 32.567-13.309 49.849-1.324 12.297-1.95 24.287-1.135 36.596.889 13.416 1.926 27.032 3.601 40.373 2.39 19.043 6.85 38.011 11.457 56.632 2.786 11.257 6.696 23.751 9.637 34.97 0 0 26.959-7.482 39.947-11.033-13.184 30.629-26.345 61.335-39.464 91.814-26.543-19.795-52.855-39.672-79.573-59.599 4.954-1.326 12.747-3.409 17.155-4.591 5.133-1.376 14.014-4.429 14.014-4.429-6.664-19.625-12.508-40.428-16.658-60.724-3.224-15.773-5.926-31.67-8.286-47.598-2.71-18.288-3.56-36.74-2.882-55.225.83-22.619 4.141-44.76 13.56-65.614 10.119-22.404 25.898-38.965 49.539-47.034 22.048-7.525 43.193-4.971 63.236 6.759 2.579 1.509 4.824 3.591 7.224 5.408-.161.241-5.63.414-12.768 1.745"/><path d="m167.45 115.756c9.838-8.684 15.959-20.136 16.455-33.031.075-1.93-.147-7.646-.544-9.498 0 0 4.779-3.267 7.925-4.78 3.146-1.512 8.772-3.206 8.772-3.206 3.63 15.971.147 31.103-7.993 42.884-6.421 9.295-16.517 17.32-26.125 23.175z"/></g></svg>