<svg height="255" preserveAspectRatio="xMidYMid" viewBox="0 0 256 255" width="256" xmlns="http://www.w3.org/2000/svg" xmlns:xlink="http://www.w3.org/1999/xlink"><linearGradient id="a" x1="12.959359%" x2="79.638833%" y1="12.039393%" y2="78.200854%"><stop offset="0" stop-color="#387eb8"/><stop offset="1" stop-color="#366994"/></linearGradient><linearGradient id="b" x1="19.127525%" x2="90.741533%" y1="20.579181%" y2="88.429037%"><stop offset="0" stop-color="#ffe052"/><stop offset="1" stop-color="#ffc331"/></linearGradient><path d="m126.915866.07227555c-64.8322829.00000462-60.7837372 28.11518925-60.7837372 28.11518925l.0722755 29.1270467h61.8678717v8.7453417h-86.4415589s-41.486166-4.7049094-41.486166 60.7114618c-.00000463 65.416358 36.2100508 63.096556 36.2100508 63.096556h21.6103896v-30.355731s-1.1648552-36.210051 35.6318464-36.210051h61.3619421s34.475438.557297 34.475438-33.3190286v-56.0135516c0-.0000047 5.234323-33.89723325-62.518352-33.89723325zm-34.1140591 19.58667415c6.1553999-.0000045 11.1304351 4.9750349 11.1304351 11.1304348.000004 6.1553999-4.9750352 11.1304348-11.1304351 11.1304348-6.1553999.0000046-11.1304348-4.9750349-11.1304348-11.1304348-.0000047-6.1553999 4.9750349-11.1304348 11.1304348-11.1304348z" fill="url(#a)"/><path d="m128.757101 254.126271c64.832302 0 60.783738-28.11519 60.783738-28.11519l-.072275-29.127046h-61.867872v-8.745342h86.441559s41.486166 4.704896 41.486166-60.711485c.000023-65.4163514-36.210051-63.0965491-36.210051-63.0965491h-21.61039v30.3557243s1.164874 36.2100508-35.631846 36.2100508h-61.361948s-34.475437-.557296-34.475437 33.319052v56.013552s-5.2343225 33.897233 62.518356 33.897233zm34.114059-19.586674c-6.155401 0-11.130434-4.975033-11.130434-11.130435 0-6.155403 4.975033-11.130435 11.130434-11.130435 6.155403 0 11.130435 4.975032 11.130435 11.130435.000023 6.155402-4.975032 11.130435-11.130435 11.130435z" fill="url(#b)"/></svg>