<svg height="296" preserveAspectRatio="xMidYMid" viewBox="0 0 256 296" width="256" xmlns="http://www.w3.org/2000/svg"><path d="m91.2648 126.1592v.008l.331.304 36.632 21.266 36.782-21.64.238-.268v-.005l-37.195-20.605zm113.4879-23.257.503-.014 50.414-29.258.33-.469-51.247-29.328zm-76.5954-102.9024-128.157 74.038.425.744 50.71 28.965.68-.113 76.443-43.791 36.966 22.094v-60.725z" fill="#4f859a"/><path d="m0 220.7347 51.81 30.389v-147.487l.005-.003-51.815-29.595zm91.6488 53.7561 36.608 21.472.486-1.21v-59.355l-.486-1.062-36.608-19.094zm-.384-148.3238v42.882l36.976 21.067.016-.009.148-.338-.011-42.233-.137-.24z" fill="#2e6371"/><path d="m204.7527 102.9022v89.008l-76.495 42.425v61.628l127.742-75.229v-147.573zm-39.5052 22.9265-36.991 21.467v42.811l36.991-21.169z" fill="#1bafce"/></svg>