<svg height="257" preserveAspectRatio="xMidYMid" viewBox="0 0 256 257" width="256" xmlns="http://www.w3.org/2000/svg"><path d="m159.532741 163.549979c-3.804722 4.212031-8.512514 7.509339-13.771288 9.645322-5.813079 2.316384-12.027369 3.458529-18.284199 3.360514-6.272029.095296-12.501333-1.046641-18.33172-3.360514-5.288041-2.13344-10.0279099-5.430057-13.8680244-9.645322-3.9612517-4.454147-6.9523576-9.683814-8.7831349-15.356484-2.1359904-6.616629-3.1737247-13.538462-3.0719856-20.490576-.1017287-6.952675.936003-13.875071 3.0719856-20.492292 1.8383897-5.683536 4.8282791-10.9272571 8.7831349-15.4040169 3.8293264-4.2395132 8.5711694-7.5543393 13.8680244-9.6945606 5.830736-2.3124704 12.059869-3.4537893 18.331709-3.358786 6.256648-.0977324 12.470776 1.0437948 18.28421 3.358786 5.267597 2.1428305 9.977356 5.458351 13.771288 9.694549 3.923602 4.4832179 6.881146 9.7269555 8.68808 15.4040055 2.102235 6.623949 3.122918 13.543475 3.02277 20.492292.100165 6.948256-.920521 13.86722-3.02277 20.490576-1.799352 5.66612-4.758096 10.895811-8.68808 15.356507zm-31.561599-163.54964039c-48.9049487.0177641-93.5267686 27.89671349-114.9867194 71.84173449-21.45995073 43.9450209-16.00795999 96.2768319 14.0493269 134.8547249 30.0572868 38.577894 79.4674345 56.66048 127.3258425 46.597322l-18.572739-20.573581c-2.581472.191605-5.185024.298383-7.815722.298383-51.3901932.088328-95.3203776-36.970757-103.8908479-87.641328-8.5704703-50.6705708 20.7283105-100.1156743 69.2889233-116.9331242 48.5606126-16.8174498 102.1639246 3.9171061 126.7669046 49.0353188 24.602979 45.1182124 13.001578 101.4089254-27.436248 133.1223604l-22.600286-25.034055c4.231316-3.04249 8.065164-6.602651 11.412141-10.597463 3.471923-4.15097 6.421654-8.712081 8.783135-13.581189 2.446182-5.063627 4.29829-10.393274 5.51938-15.882632 1.298092-5.845048 1.941345-11.816458 1.917872-17.803867.093831-9.658178-1.631759-19.247665-5.086582-28.2672768-3.204164-8.3734537-8.068597-16.0124512-14.300811-22.4576741-6.298295-6.4064407-13.843417-11.4532786-22.169146-14.8286647-9.115838-3.6742428-18.870676-5.501291-28.698323-5.375099-9.838385-.1236618-19.605249 1.6864693-28.7458922 5.3275889-8.3687374 3.3486413-15.9512278 8.3980527-22.267587 14.8286647-6.252463 6.4566772-11.1333459 14.1121078-14.3486596 22.5051842-3.4554138 9.0194428-5.1809699 18.6090528-5.0864189 28.2672768-.0945542 9.657658 1.6310056 19.246699 5.0864189 28.265536 3.2144961 8.393498 8.0954824 16.049093 14.3486713 22.505208 6.3167326 6.430574 13.8990909 11.48047 22.267587 14.830346 9.1409895 3.639747 18.9076895 5.449273 28.7458915 5.325896 3.577782.007561 7.152287-.216939 10.701007-.672089 3.385337-.439982 6.736266-1.113118 10.028895-2.014608l.035717.037363 24.467192 27.004517 7.430457 8.200648 8.601548 9.528386c.007936-.003004.015405-.00712.022184-.012225 51.594246-27.845546 77.682424-87.178043 63.325648-144.0218963-14.356775-56.8438535-65.489723-96.67298628-124.118561-96.6800247z" fill="#274e85"/></svg>