<svg height="330" preserveAspectRatio="xMidYMid" viewBox="0 0 256 330" width="256" xmlns="http://www.w3.org/2000/svg" xmlns:xlink="http://www.w3.org/1999/xlink"><linearGradient id="a" x1="35.204309%" x2="101.159369%" y1="65.07936%" y2="49.999995%"><stop offset="0" stop-color="#fff"/><stop offset="1" stop-color="#c0815e"/></linearGradient><radialGradient id="b" cx="50.000005%" cy="49.999968%" r="50.520521%"><stop offset="0" stop-color="#fff"/><stop offset="1" stop-color="#a94436"/></radialGradient><path d="m4.09607835 325.462814s.49664441-77.983599.49664441-157.259028c0-153.5511514-12.93847588-164.98797219 55.95761014-164.98797219h191.7684071v221.48334719c0 72.910299 13.628918 101.472064-62.993291 101.472064s-185.22937065-.708411-185.22937065-.708411z" fill="#a62c39"/><path d="m1.88695204 29.9171997s12.28825596 2.457647 22.93808056 20.4804126c10.6498037 18.0227657 67.1757686 158.1088337 67.1757686 158.1088337v-113.8711247l-52.4298656-85.1985343 14.7458821 18.0227657 27.8533746-22.93808062-36.0455313-2.45764701z" fill="url(#a)" transform="translate(160.317939 2.266048)"/><g transform="translate(50.147107 4.260545)"><path d="m3.10197465.88854405s81.10245585 54.06831785 120.42485035 64.71812155c39.322394 10.6498246 79.464023 22.1507705 79.464023 22.1507705l-92.571495 229.3487539 40.14163 1.638431 52.429865-128.603509-1.63843-190.07178363z" fill="url(#b)" opacity=".668224"/><path d="m78.4699 242.55748 82.418737 79.21979-155.32901534-1.394217s-4.91529402-49.972219-3.27686268-76.187141c1.63843134-26.214944 9.83060892-26.214944 9.83060892-26.214944z" fill="#fff" fill-opacity=".439614"/></g><g transform="translate(2.089463 4.260545)"><path d="m204.353137 322.021484-76.187162-78.644788-69.6334154-26.214943-54.06829701-120.4248501 57.34518051-95.84835885-36.7358899-.00000002-17.33242793 13.10747167-5.73450969 11.4690403.00000007 296.556426z" fill-opacity=".362319"/><path d="m251.048493 196.68134s-77.006378 24.576491-122.882518 47.514572c-45.8761192 22.938059-70.4526311 78.644788-70.4526311 78.644788s98.3060061-4.915294 135.1707531-3.276863 54.068318 1.638431 57.34518-49.972219c3.276863-51.61065.819216-72.910278.819216-72.910278z" fill="#83222d" opacity=".5"/></g><g fill="#fff" transform="translate(26.592321 248.822656)"><path d="m1.24061852 1.04473139v48.38412241h12.34088958v-12.6020724l11.2308624 11.2308625h18.9357564l-15.0180137-15.0180137s10.8043404-.1744702 11.6226367-15.8015623c0-14.33628468-10.817504-16.19333651-23.3105691-16.19333651zm12.92855098 13.12443811h10.643201v8.6190339h-10.643201z"/><path d="m67.5810617 1.24061852c-6.7567167-.03802822-16.1280408.58835093-16.1280408 13.32032518v33.6272916h12.6673681v-8.2272597h12.2755938v8.0313726h12.7326638v-35.2596844c0-11.05942201-12.2871068-11.49204528-18.8704607-11.49204528-.822914 0-1.711876.00626839-2.6771242 0zm-3.2647856 12.14500238h11.8838195v13.2550295h-11.8838195z"/><path d="m101.819855 1.272253h13.107467v46.285744h-13.107467z"/><path d="m128.649226 1.88663863v46.28573767h31.539856v-12.2882351h-18.637172v-34.20231172z"/><path d="m201.969123 1.47702034v12.49306506h-21.094819v4.5056967h9.011372c4.710506 0 14.541094-.2047674 14.541094 14.5410938 0 14.745903-6.758535 15.5651187-20.480413 15.5651187h-16.589123v-11.2642312h19.04677c5.734531 0 6.050792-1.8667469 6.050792-3.4934146 0-1.6266886-2.931914-2.3833248-8.894634-2.3833248-5.962721 0-17.022164-2.9298447-17.022164-14.398885 0-11.46901941 5.734531-15.7699069 17.203571-15.7699069 11.469019 0 18.227554.20476735 18.227554.20476735z"/></g><g fill="#fff" transform="translate(14.055544 16.892288)"><path d="m25.2668495 219.275913h108.9558305s-24.166894-54.887513-18.022787-105.269349c6.144128-50.3818165 45.876141-73.3198971 68.404603-75.7775441s34.816718 11.4690403 34.816718 11.4690403l4.915294-7.372941s-32.359071-32.76866866-73.319896-29.0822086c-40.960826 3.686481-69.2238185 30.7206399-86.8369659 63.4893085-17.6131682 32.7686689-27.8533746 55.7067279-34.8167182 90.1138279-6.9633437 34.4071-4.0960784 52.429866-4.0960784 52.429866z"/><path d="m3.5576029 164.3884 21.2996492 1.638432-3.6864809 21.299628-20.07081531-2.457647z"/><path d="m37.1454872 119.331476 5.7345306-15.974716-18.8419813-7.3729622-6.144128 17.2035502z"/><path d="m63.7700279 64.4439632 11.0594429-13.1074717-14.3363056-9.4209906-11.4690194 12.6978533z"/><path d="m92.8522364 13.6525289 9.8305876 11.8786377 13.517069-7.7825594-9.830588-11.05942196z"/><path d="m140.776405.13545987 2.457647 11.87863763 16.793953-.4096182-1.638452-10.64980376z"/><path d="m197.711968 12.8333132-.409619 7.3729411 11.469041 6.1441279 2.457647-3.6864809z"/><path d="m195.254321 44.3731479v6.144128l11.059422 1.2288339v-4.9153149z"/><path d="m160.028005 49.6980602 5.324891 9.8306089 7.78256-6.1441279-1.638432-6.5537463z"/><path d="m143.234052 62.3959135 8.192178 12.288256-4.915315 8.601775-11.878638-13.1074716z"/><path d="m126.849718 96.3934161-5.324912 10.6498039 13.926687 11.878658 3.276863-13.517089z"/><path d="m121.115208 133.667761-.819215 14.336305 17.20355 7.372941-.819216-13.517069z"/><path d="m126.030502 184.459195 4.096079 14.745903 21.709246 1.228834-7.782559-15.974737z"/></g><path d="m7.23020896 325.482774c.00097204-.152632.00097204-.152632.00558165-.895801.00630714-1.029076.00630714-1.029076.01576686-2.611243.01697815-2.859504.03589624-6.178474.05626926-9.919464.05820724-10.688285.11641396-22.615286.17074006-35.481447.15521862-36.760746.24835014-73.683122.24835014-108.371033 0-17.873823-.15344507-33.48251-.48264767-55.322315-1.00587323-66.7311697-.52208999-79.4406452 5.04785524-91.4336347 5.5953986-12.04779466 16.1006362-15.09782833 48.2582084-15.09782833h191.7684071l-3.134194-3.13419416v221.48334719c0 6.797315.073624 12.662249.251346 22.541271.684986 38.076311-.157918 48.90308-6.303794 58.937877-7.188257 11.736763-22.663109 16.858722-53.806649 16.858722-17.583874 0-38.269166-.040537-61.422995-.115657-18.624344-.060424-38.3664331-.141639-58.6812416-.238513-16.2473479-.077478-31.9363373-.16049-46.4793415-.243501-5.0900135-.029054-9.6731858-.056033-13.67606574-.080244-1.40097341-.008473-2.21989869-.013489-3.67589005-.022481-1.05567508-.00657-1.05567508-.00657-1.27399251-.007953zm-6.2882219 3.094326 3.13424705.019845c.21872962.001385.21872962.001385 1.27484119.007958 1.45644077.008995 2.27553078.014011 3.67681658.022487 4.00357492.024215 8.58745682.051198 13.67819952.080256 14.5448707.083022 30.2357977.166044 46.4852297.243532 20.3178058.096888 40.0630159.178116 58.6907959.238552 23.160088.07514 43.851852.115689 61.443332.115689 33.10772 0 50.523303-5.764313 59.152148-19.853224 7.069554-11.542948 7.938444-22.703503 7.225669-62.324512-.177092-9.84401-.250332-15.678337-.250332-22.428522v-221.48334719-3.13419417h-3.134194-191.7684071c-34.4814468 0-46.9242714 3.6125822-53.94337199 18.72583666-3.50853568 7.5544426-5.20394241 18.0133903-5.81900492 34.1717049-.47403051 12.4532611-.42456179 19.3162436.18863694 59.9967858.32876857 21.811011.48193567 37.391422.48193567 55.227839 0 34.678089-.09311014 71.591991-.24829427 108.344566-.05431487 12.863501-.11250918 24.78796-.17070298 35.473778-.02036733 3.739945-.03927958 7.057889-.05625173 9.916382-.00945545 1.581455-.00945545 1.581455-.01575842 2.609849-.00460547.742501-.02553414 4.028739-.02553414 4.028739z" fill="#5e000e"/></svg>