<svg height="147" preserveAspectRatio="xMidYMid" viewBox="0 0 512 147" width="512" xmlns="http://www.w3.org/2000/svg"><path d="m78.2204706 2.3303813h-78.2204706l7.79948923 12.5192444h69.97909837c8.5469345 0 16.5944902 3.4295774 22.6602964 9.6569741 6.041462 6.2025901 9.368799 14.3822934 9.368799 23.0321639 0 8.4996396-3.183365 16.1537664-9.205122 22.1344877-5.734973 5.6960243-13.727815 9.4411331-22.5191066 10.5546503h-8.564786l-23.6210321-.188716 6.8178878 11.8063429h10.3552698l.5617431.9016175h.0823024l30.6380685 51.7274309.1965985.196599c1.3291265 1.327735 2.994186 1.973404 5.0909276 1.973404 3.587923 0 6.618971-3.132594 6.618971-6.840145 0-1.470779-.479673-2.136849-1.059499-2.797123-.235779-.268469-.529054-.602547-.972328-1.357411l-25.2100489-42.9094782c11.7214903-.2033218 22.6825529-4.8741592 30.9399219-13.2047889 8.440057-8.514709 13.088174-19.8784735 13.088174-31.9968702 0-24.9281339-20.108457-45.2083824-44.8251544-45.2083824zm105.2835994 1.27232617c-1.002235-1.93909185-3.174788-3.14070747-5.690924-3.14070747-2.279894 0-4.548195 1.22897249-5.644325 3.05817319l-.681835 1.18376411c-.895821 1.55540019-.394588 3.81257358.499379 5.3591639l10.710214 18.5305682 40.998206 71.2453968h-1.784687l.055177.0969082h-52.752386l7.624915 13.3188536h54.574632l16.487149 28.53553.039413.065611c1.017768 1.627038 2.721776 4.349741 6.285124 4.349741 3.651446 0 6.621289-2.970074 6.621289-6.620593 0-1.25517-.315299-2.326493-.989947-3.363736zm320.847599 129.36343853h-70.385974v-125.88656617c0-3.64889605-2.967524-6.61757983-6.618971-6.61757983-3.649128 0-6.61897 2.96868378-6.61897 6.61757983v132.50553717c0 3.650519 2.969842 6.620593 6.61897 6.620593h84.653276zm-138.15218-126.04815716c-.08578-3.57424426-3.018529-6.45598884-6.614334-6.45598884-.166923 0-.331528.00811433-.491496.02086541-.164605-.01251925-.32921-.02086541-.496133-.02086541-2.517759 0-4.692398 1.203934-5.693938 3.14673525l-43.703755 76.81622865-43.706073-76.81646049c-.999221-1.94280125-3.17386-3.14650341-5.693938-3.14650341-2.278966 0-4.54634 1.22897249-5.642933 3.05817319l-.681603 1.18399594c-.892576 1.55029976-.403398 3.80631396.479904 5.35429537l48.732318 85.5015703.046367.0769702c1.01545 1.6270381 2.719459 4.3497419 6.282806 4.3497419.062597 0 .122875-.0027821.183152-.0046368.060278.0018547.120556.0046368.183152.0046368 3.563348 0 5.265038-2.7227038 6.282806-4.3497419l37.300393-65.439945v109.388057c0 3.650519 2.969843 6.620593 6.618971 6.620593s6.618971-2.970074 6.618971-6.620593v-132.50553717c0-.03477568-.002318-.06931952-.002318-.1040952l.016228-.0275887z" fill="#75c9e1"/></svg>