<svg height="256" preserveAspectRatio="xMidYMid" viewBox="0 0 256 256" width="256" xmlns="http://www.w3.org/2000/svg"><path d="m127.997302 247.451826c-14.063474 0-27.287779-5.474825-37.2336656-15.426108l-66.7826087-66.782609c-9.9566798-9.943188-15.44229779-23.170192-15.44229779-37.24176 0-14.074266 5.48561799-27.303968 15.44499599-37.2525534l66.7826087-66.7799104c9.9458874-9.9485849 23.1647964-15.42071145 37.2309674-15.42071145 14.063473 0 27.287778 5.47212655 37.236363 15.41801315l66.77991 66.7880053c9.95668 9.9377918 15.447695 23.1674938 15.447695 37.2444578 0 14.076965-5.488316 27.303969-15.450392 37.249856l-66.779911 66.777212c-9.945887 9.951283-23.170192 15.426108-37.233665 15.426108z" fill="#f89938"/><path d="m82.239747 58.3084267c0-25.2721581 20.488095-45.760253 45.760253-45.760253 25.274857 0 45.760253 20.4880949 45.760253 45.760253 0 25.2748564-20.485396 45.7602523-45.760253 45.7602523-25.274857.002699-45.760253-20.4853959-45.760253-45.7602523" fill="#39f"/><path d="m246.712571 159.026898c6.038183-9.127868 9.287429-19.820822 9.287429-31.017421 0-15.084945-5.881136-29.2600825-16.549494-39.9070051l-71.556529-71.5661656-.027077.0270775c-10.210757-10.2272193-24.312487-16.5633838-39.870962-16.5633838-15.558474 0-29.6574959 6.33887226-39.8655449 16.5660916l-.0243694-.0270776-71.5565287 71.5553346c-10.67106672 10.6604613-16.549495 24.8355984-16.549495 39.9151284 0 15.076822 5.87572057 29.25196 16.5440796 39.904298l64.5219103 64.523275c2.5858585 2.902721 5.3043947 5.618607 8.1691469 8.115165 10.5194352 9.967274 24.2150092 15.447785 38.7608012 15.447785 15.06838 0 29.240511-5.867722 39.895331-16.528183l69.615104-69.613869c.176-.173296.352002-.352009.528002-.528014l1.410715-1.408036c2.688751-2.683393 5.071532-5.594238 7.134803-8.683794.048739-.067695.100186-.132681.151632-.200375zm-11.591686-31.017421c0 7.018521-2.036195 13.717525-5.805321 19.452566-2.260933 3.08685-4.619345 5.783781-7.050865 8.115165l-.173292.173297c-11.445471 10.887914-24.377471 13.972055-35.351801 13.972055-6.038183 0-11.488794-.936886-15.772384-2.017283-25.081474-6.336165-52.34536-27.919741-64.822466-59.397481 6.723233 2.840444 14.107146 4.410945 21.851182 4.410945 29.09971 0 53.114349-22.1684517 56.054917-50.4997719l40.639949 40.6381009c6.72594 6.723375 10.430081 15.653576 10.430081 25.152407zm-107.122239-107.1326273c19.568587 0 35.481771 15.9189364 35.481771 35.4825211 0 19.5662927-15.915892 35.485229-35.481771 35.485229-19.563171 0-35.4790626-15.9189363-35.4790626-35.485229 0-19.5635847 15.9158916-35.4825211 35.4790626-35.4825211zm-96.6948647 132.2796183c-6.7232324-6.717959-10.4273732-15.648159-10.4273732-25.144283 0-9.498831 3.7014332-18.429033 10.4246655-25.144284l27.4940399-27.4973289c-7.1754191 24.4294343-10.2567878 50.1369329-8.6050875 74.7802799.5929875 8.857091 1.8168703 17.354051 3.5768787 25.4638zm47.0030568-70.2393615c6.0381829 47.2477505 43.4370089 93.8835455 87.5482369 105.0314035 7.186249 1.814201 14.231699 2.707763 21.046993 2.707763.097478 0 .197662-.008123.29514-.008123l-34.062933 34.066361c-6.717817 6.712543-15.645121 10.411347-25.138337 10.411347-6.609508 0-12.923877-1.830447-18.425934-5.182657l.01083-.018955c-2.166164-1.435114-4.229435-3.057064-6.235845-4.773785-.157047-.154342-.324924-.281608-.479264-.43595l-6.8829865-6.883132c-14.1531757-16.249284-23.0534032-40.426897-24.9677508-69.075025-1.4486224-21.678347 1.1534824-44.28275 7.2918504-65.8392475z" fill="#333"/></svg>