<svg height="244" preserveAspectRatio="xMidYMid" viewBox="0 0 256 244" width="256" xmlns="http://www.w3.org/2000/svg"><path d="m177.380953 169.732752c9.447352-.977347 16.614309-9.121913 16.288538-18.895392s-8.47004-17.592263-18.243163-17.592263h-.651541c-10.098894.325783-17.917392 8.796132-17.591621 18.895393.325771 4.88674 2.280395 9.121914 5.212332 12.053958-11.076206 21.827436-28.016285 37.790785-53.426405 51.147873-17.2658501 9.121914-35.1832419 12.37974-53.1006338 10.099262-14.6596842-1.954696-26.0616608-8.470349-33.2286175-19.221175-10.4246644-15.96335-11.4019767-33.229829-2.6061661-50.496309 6.1896444-12.37974 15.9627672-21.501654 22.1524117-26.062611-1.303083-4.235174-3.2577076-11.402392-4.2350199-16.614914-47.23676028 34.207177-42.35019887 80.468311-28.0162854 102.295747 10.7504351 16.289132 32.5770761 26.388394 56.6841123 26.388394 6.5154153 0 13.0308305-.651566 19.5462457-2.280479 41.698657-8.144566 73.298421-32.904046 91.215813-69.717484zm57.335654-40.397046c-24.758578-28.994655-61.244903-44.9580037-102.943561-44.9580037h-5.212332c-2.931937-5.8640874-9.121581-9.773479-15.962767-9.773479h-.651541c-10.0988941.3257826-17.9173923 8.7961311-17.5916216 18.8953927.3257708 9.773479 8.4700396 17.592262 18.2431626 17.592262h.651542c7.166956-.325782 13.356601-4.886739 15.962767-11.076609h5.863874c24.758577 0 48.214072 7.167218 69.389172 21.175871 16.288538 10.750827 28.016285 24.75948 34.5317 41.700177 5.538103 13.682871 5.212332 27.039959-.651541 38.442351-9.121582 17.26648-24.432807 26.714176-44.630595 26.714176-13.03083 0-25.410119-3.909392-31.925534-6.841435-3.583478 3.257826-10.098894 8.470348-14.659684 11.728175 14.008142 6.515652 28.342056 10.099261 42.024428 10.099261 31.273993 0 54.403717-17.266479 63.199527-34.532959 9.447352-18.895393 8.795811-51.473656-15.636996-79.16518zm-165.4915466 45.935351c.3257708 9.773479 8.4700398 17.592263 18.2431626 17.592263h.6515415c10.0988936-.325783 17.9173915-8.796132 17.5916215-18.895393-.325771-9.773479-8.4700402-17.592263-18.243163-17.592263h-.6515415c-.6515415 0-1.6288538 0-2.2803953.325783-13.3566012-22.153219-18.8947041-46.261134-16.9400796-72.3237447 1.3030831-19.5469581 7.8184983-36.4876551 19.2204749-50.4963083 9.4473521-12.0539575 27.6905145-17.9180449 40.0698035-18.2438276 34.531701-.6515652 49.191385 42.3517425 50.168697 59.6182221 4.23502.9773479 11.401977 3.2578264 16.288538 4.8867395-3.909249-52.7767867-36.486325-80.142528-67.760318-80.142528-29.3193684 0-56.3583416 21.1758712-67.1087767 52.4510041-14.985455 41.7001772-5.2123321 81.7714409 13.0308305 113.3723569-1.6288538 2.280478-2.6061661 5.864087-2.2803954 9.447696z" fill="#764abc"/></svg>