<svg height="157" preserveAspectRatio="xMidYMid" viewBox="0 0 256 157" width="256" xmlns="http://www.w3.org/2000/svg"><path d="m130.005279 96.2274864c0 5.2709156-3.92086 9.6232426-9.004522 10.3067826-6.026476 14.048573-18.301708 27.755049-35.119468 37.464716-14.1150281 8.149115-29.073023 12.125627-42.4901074 12.125627-17.0636113 0-31.6362967-6.429136-38.82623019-18.882455-11.67680819-20.224655-.29921228-48.4442358 26.66753959-67.5132895.0009821 4.3559284.3417699 8.3501177 1.1048594 11.894179-2.176 1.8345576-4.1536164 3.4055857-6.0834374 5.4290333-4.9658107 5.2057698-8.9357749 10.5994476-11.6519283 16.3587932-5.06631207 10.741851-5.40873662 20.896081-.9647468 28.593432 5.006404 8.671263 15.8513759 13.644603 29.7539437 13.644603 12.0464041 0 25.2762353-3.807918 37.2522557-10.722209 6.9735448-4.025944 13.1741791-8.861136 18.4303632-14.371683 4.9658105-5.206097 8.8608085-10.766077 11.5772895-16.525422.236685-.501852.459948-1.001739.675028-1.500317-1.333688-1.749115-2.12755-3.9323174-2.12755-6.3017906 0-5.7455959 4.657759-10.4030281 10.403355-10.4030281s10.403356 4.6574322 10.403356 10.4030281zm-46.4274335-96.22761735c23.2272535 0 42.4776675 24.54359075 45.9510175 56.62052175-3.622956-2.1773095-7.416143-3.9918977-11.388071-5.4254322-.473371-2.4791407-1.060338-4.914087-1.759918-7.2982916-2.025739-6.9034885-4.893136-13.0566547-8.522967-18.2889412-6.769269-9.7581176-15.3924093-15.1321534-24.2800615-15.1321534-8.8876521 0-17.5107928 5.3740358-24.2800614 15.1321534-3.6298312 5.2322865-6.4972276 11.3854527-8.5229667 18.2889412-2.1439182 7.3071304-3.2310998 15.0948338-3.2310998 23.1470486s1.0871816 15.8399182 3.2310998 23.1467212c2.0257391 6.9034885 4.8931355 13.0566552 8.5229667 18.2892682.3761433.541791.7581791 1.069504 1.1454527 1.584123.6200307-.115233 1.2583939-.178087 1.9114885-.178087 5.7459233 0 10.4033555 4.65776 10.4033555 10.403028 0 5.745596-4.6574322 10.403356-10.4033555 10.403356-5.7452685 0-10.4030281-4.65776-10.4030281-10.403356 0-1.176225.1980563-2.305964.5581586-3.360409-9.4778926-12.273596-15.4418415-30.0734526-15.4418415-49.8846444 0-37.0273555 20.8230793-67.04384655 46.5098312-67.04384655zm40.0871125 145.64707495c12.757115 0 22.939826-4.187662 28.398977-11.577616 3.174138 1.677422 6.702158 2.697821 10.426271 3.215386-7.231182 12.314844-21.85952 18.837934-38.825248 18.837934-10.491417 0-21.921719-2.430364-33.1569109-7.386026 4.3719693-2.414322 8.2453606-4.747458 11.1143939-6.91691 7.425964 2.503365 14.939662 3.827232 22.042517 3.827232zm17.211809-58.7634248c-5.256184-5.5105473-11.456818-10.3457391-18.430036-14.3716829-11.97602-6.9146189-25.2048691-10.7225371-37.2489816-10.7225371h-.0016369c-2.6320204.0003274-5.1547007.1787417-7.5487263.5264041-.06089.0088389-.1198159.0202967-.1803785.0294629-1.087509 4.5831202-5.204133 7.9936164-10.1198568 7.9936164-5.7455959 0-10.4030281-4.6577596-10.4030281-10.4030281 0-5.7455959 4.6574322-10.4033555 10.4030281-10.4033555 2.697821 0 5.1553555 1.0269463 7.0039898 2.7112429.0140767-.0026189.0278261-.0058925.0422301-.0085115 3.4465064-.6125012 7.0642251-.9212071 10.8007775-.9215345 13.4183939-.0006547 28.3731147 3.9752021 42.4901077 12.125954 23.225943 13.409555 37.804849 34.4405115 39.19779 53.4706091-4.218435-.474681-7.787703-1.874497-11.069217-3.684502-.659642-3.177411-1.779888-6.468419-3.358773-9.816716-2.716481-5.7596725-6.611478-11.319652-11.577289-16.5254218z" fill="#999"/><path d="m247.009097 71.0820338c4.608654 6.9401534-4.775612 12.3688593-8.978333 5.3904041-2.561964-4.3729515-6.491662-8.4630589-11.642762-12.0365832-5.232286-3.6298312-11.38578-6.4972276-18.288941-8.5226394-7.307131-2.1442455-15.094834-3.2314271-23.146721-3.2314271-8.052215 0-15.839919 1.0871816-23.147049 3.2314271-1.257412.3689412-2.486997.7689821-3.693667 1.1935755-.149279 5.614977-4.744839 10.121821-10.396154 10.121821-5.745268 0-10.403355-4.6574323-10.403355-10.4030282s4.658087-10.4033555 10.403355-10.4033555c1.911816 0 3.701524.51822 5.240798 1.417821 9.509974-3.5898926 20.407652-5.6339642 31.996072-5.6339642 28.030035 0 52.042312 11.9334629 62.056757 28.8759489zm8.746492 25.1454526c0 5.2165726-3.839673 9.5351816-8.846077 10.2868136-10.072716 16.855079-34.01821 28.711611-61.957238 28.711611-21.817944 0-41.201596-7.229872-53.444419-18.424143-5.922046-5.953146 1.206342-12.870056 6.729657-8.037811 1.582159 1.475437 3.344041 2.890312 5.278772 4.232184 5.232287 3.629831 11.385453 6.497228 18.288942 8.522967 7.30713 2.143918 15.094833 3.2311 23.147048 3.2311 8.051888 0 15.839918-1.087182 23.146721-3.2311 6.903489-2.025739 13.056982-4.893136 18.288942-8.522967 4.53958-3.149258 8.126854-6.700194 10.669176-10.491744-1.32223-1.744859-2.108235-3.9185678-2.108235-6.2769106 0-5.7455959 4.657759-10.4030281 10.403683-10.4030281 5.745268 0 10.403028 4.6574322 10.403028 10.4030281z" fill="#89d96d"/></svg>