<svg height="151" preserveAspectRatio="xMidYMid" viewBox="0 0 256 151" width="256" xmlns="http://www.w3.org/2000/svg"><path d="m208.615113 119.908171h-111.9322321c-10.5363832 0-19.1090251-8.572136-19.1090251-19.107507 0-10.5384074 8.5716297-19.1110493 19.1090251-19.1110493h61.1290401c17.840186 0 32.352639-14.5129594 32.352639-32.3526384 0-17.8396789-14.511947-32.3541567-32.352639-32.3541567h-110.5885463c-3.0538733-9.83937831-12.2285567-16.9828196-23.0713809-16.9828196-13.3412941 0-24.1519938 10.8106997-24.1519938 24.1519938 0 13.3412942 10.8117119 24.1519939 24.1530061 24.1519939 11.2390156 0 20.6867868-7.6767622 23.3812888-18.0755304h110.2786391c10.534865 0 19.107506 8.5726419 19.107506 19.1090252 0 10.5363832-8.572135 19.1090251-19.107506 19.1090251h-61.1290408c-17.839679 0-32.3541567 14.5139716-32.3541567 32.3541564 0 17.840185 14.5134655 32.352639 32.3541567 32.352639h111.9306438c2.877781 10.120834 12.188396 17.53044 23.233469 17.53044 13.341294 0 24.151994-10.8107 24.151994-24.151994s-10.8107-24.151994-24.151994-24.151994c-11.044337 0-20.354446 7.408618-23.232893 17.528416z" fill="#f26b00"/></svg>