<svg height="165" preserveAspectRatio="xMidYMid" viewBox="0 0 256 165" width="256" xmlns="http://www.w3.org/2000/svg"><path d="m254.126298 76.9621939-48.725939-55.4848227h-39.681815l40.621087 46.2470354h-21.080359c-34.143017 0-44.261976-12.8980425-55.978667-27.9844917-10.264208-13.2175887-23.046052-29.5241229-50.9337114-29.5241229h-33.9009362c-4.5414278-5.93581091-11.6004917-10.215792-19.6375602-10.215792-13.7017494 0-24.8083972 10.8839338-24.8083972 24.5856832s11.1066478 24.9923783 24.8083972 24.9923783c8.0370685 0 15.0961324-3.6602554 19.627877-9.6154327h33.9009362c12.6656454 0 17.507253 5.2386194 27.2388846 17.7590166 6.129475 7.8821371 13.362836 16.9649929 24.343602 24.5566336-10.980766 7.5916406-18.214127 16.9165768-24.343602 24.798714-9.7316316 12.520397-14.563556 18.156028-27.2388846 18.156028h-33.9009362c-4.5317446-5.945494-11.6004917-9.964028-19.627877-9.964028-13.7017494 0-24.8083972 11.019499-24.8083972 24.721248 0 13.70175 11.1066478 24.798714 24.8083972 24.798714 8.0370685 0 15.1058156-3.863603 19.6375602-9.809097h33.9009362c27.8876594 0 40.6695034-16.306534 50.9337114-29.524123 11.726374-15.086449 21.845334-27.9844915 55.978667-27.9844915h20.20887l-39.749598 45.2593475h39.681815l48.725939-55.4848227c2.498269-2.837182 2.498269-7.4367092 0-10.2835744zm-229.3179008-37.7645391c-8.192 0-14.8250024-6.6426855-14.8250024-14.8250023 0-8.192 6.6426856-14.82500238 14.8250024-14.82500238 8.1823167 0 14.8250023 6.64268558 14.8250023 14.82500238 0 8.192-6.6330023 14.8250023-14.8250023 14.8250023zm0 115.5304402c-8.192 0-14.8250024-6.642686-14.8250024-14.825003 0-8.192 6.6426856-14.825002 14.8250024-14.825002 8.1823167 0 14.8250023 6.642685 14.8250023 14.825002 0 8.192-6.6330023 14.825003-14.8250023 14.825003z" fill="#2f569c"/></svg>