<svg height="256" preserveAspectRatio="xMidYMid" viewBox="0 0 256 256" width="256" xmlns="http://www.w3.org/2000/svg"><path d="m125.371.06525843c2.83-.088 5.662-.087 8.492.003l53.434 1.692c36.479 1.155 65.779 30.46399997 66.922 66.94299997l1.714 54.7289996c.089 2.83.089 5.661.001 8.49l-1.726 55.364c-1.137 36.484-30.438 65.799-66.921 66.954l-53.424 1.692c-2.83.09-5.662.091-8.492.003l-56.603-1.746c-36.506-1.126-65.84-30.451-66.978-66.956l-1.724-55.311c-.088-2.829-.088-5.66.001-8.49l1.713-54.6759996c1.143-36.501 30.476-65.81899997 66.977-66.94499997z" fill="#444f5c"/><path d="m128 21.5822584c58.773 0 106.418 47.645 106.418 106.4179996 0 58.773-47.645 106.418-106.418 106.418s-106.418-47.645-106.418-106.418c0-58.7729996 47.645-106.4179996 106.418-106.4179996" fill="#313942"/><g transform="translate(59.5 61.000258)"><path d="m3.437 108.604 23.521-7.856c3.835-1.28 7.485 2.366 6.209 6.202l-7.841 23.569c-1.043 3.138-5.026 4.077-7.361 1.737l-16.266-16.298c-2.331-2.336-1.392-6.308 1.738-7.354" fill="#eeb545"/><path d="m25.826 3.442 7.474 23.568c1.222 3.853-2.479 7.447-6.295 6.114l-23.528-8.222c-3.133-1.095-4.004-5.112-1.606-7.406l16.648-15.922c2.377-2.273 6.313-1.267 7.307 1.868" fill="#42aadf"/><path d="m111.584 130.519-7.841-23.569c-1.276-3.836 2.375-7.482 6.209-6.202l23.522 7.856c3.13 1.046 4.068 5.018 1.737 7.354l-16.265 16.298c-2.336 2.34-6.318 1.401-7.362-1.737" fill="#ed042b"/><path d="m103.743 27.05 7.841-23.569c1.044-3.138 5.026-4.077 7.362-1.737l16.265 16.298c2.331 2.336 1.393 6.308-1.737 7.354l-23.522 7.856c-3.834 1.28-7.485-2.366-6.209-6.202" fill="#2ea757"/></g><g transform="translate(101 101.000258)"><path d="m46.178 45.723c10.341-10.341 10.341-27.106 0-37.446-10.34-10.34-27.105-10.34-37.446 0-10.34 10.34-10.34 27.105 0 37.446 10.341 10.34 27.106 10.34 37.446 0zm-32.17-13.346c-2.97-2.97-2.97-7.784 0-10.754l8.07-8.07c2.97-2.97 7.784-2.97 10.754 0l8.07 8.07c2.97 2.97 2.97 7.784 0 10.754l-8.07 8.07c-2.97 2.97-7.784 2.97-10.754 0z" fill="#596778"/><path d="m46.051 13.741c0 2.143-1.738 3.88-3.881 3.88s-3.881-1.737-3.881-3.88c0-2.144 1.738-3.881 3.881-3.881s3.881 1.737 3.881 3.881" fill="#2ea757"/><path d="m46.051 40.542c0 2.144-1.738 3.881-3.881 3.881s-3.881-1.737-3.881-3.881c0-2.143 1.738-3.88 3.881-3.88s3.881 1.737 3.881 3.88" fill="#ed042b"/><path d="m16.824 13.741c0 2.143-1.738 3.88-3.881 3.88-2.144 0-3.881-1.737-3.881-3.88 0-2.144 1.737-3.881 3.881-3.881 2.143 0 3.881 1.737 3.881 3.881" fill="#42aadf"/><path d="m16.824 40.542c0 2.144-1.738 3.881-3.881 3.881-2.144 0-3.881-1.737-3.881-3.881 0-2.143 1.737-3.88 3.881-3.88 2.143 0 3.881 1.737 3.881 3.88" fill="#eeb545"/></g></svg>