<svg height="335" preserveAspectRatio="xMidYMid" viewBox="0 0 256 335" width="256" xmlns="http://www.w3.org/2000/svg" xmlns:xlink="http://www.w3.org/1999/xlink"><linearGradient id="a"><stop offset="0" stop-color="#ff6533"/><stop offset=".157" stop-color="#ff5633"/><stop offset=".434" stop-color="#ff4333"/><stop offset=".714" stop-color="#ff3733"/><stop offset="1" stop-color="#f33"/></linearGradient><linearGradient id="b" x1="26.824292%" x2="67.575814%" xlink:href="#a" y1="48.223645%" y2="55.339338%"/><linearGradient id="c" x1="20.450384%" x2="93.485843%" y1="38.133394%" y2="80.432238%"><stop offset="0" stop-color="#bf3338"/><stop offset="1" stop-color="#f33"/></linearGradient><linearGradient id="d" x1="32.292611%" x2="45.556371%" xlink:href="#a" y1="39.496861%" y2="48.913901%"/><linearGradient id="e" x1="51.564103%" x2="48.517644%" xlink:href="#a" y1="78.344423%" y2="41.662828%"/><linearGradient id="f" x1="40.201226%" x2="53.975004%" y1="47.214864%" y2="54.534988%"><stop offset="0" stop-color="#fbb040"/><stop offset="1" stop-color="#fb8840"/></linearGradient><linearGradient id="g" x1="55.222279%" x2="40.926299%" y1="5.887825%" y2="128.016462%"><stop offset="0" stop-color="#fff"/><stop offset="1" stop-color="#fff" stop-opacity="0"/></linearGradient><path d="m256 110.132723c0-19.6832951-5.155149-38.1363843-14.23524-54.1290617-24.076888-24.7798627-76.448513-30.5208238-89.453547-.1171624-13.356522 31.1652173 22.436613 65.8453091 38.077803 63.0919911 19.91762-3.514874-3.514874-49.2082383-3.514874-49.2082383 30.462242 57.4096113 23.432494 39.8352403-31.633867 92.5583523-55.066362 52.723112-111.3043482 163.968879-119.5057212 168.655378-.3514874.234325-.7029749.410068-1.1130435.585812h215.9890157c3.807781 0 6.268193-4.042105 4.569337-7.439817l-56.472312-111.772998c-1.230205-2.40183-.351487-5.389473 1.991763-6.736842 33.039816-18.98032 55.300686-54.597711 55.300686-95.487414z" fill="url(#b)"/><path d="m256 110.132723c0-19.6832951-5.155149-38.1363843-14.23524-54.1290617-24.076888-24.7798627-76.448513-30.5208238-89.453547-.1171624-13.356522 31.1652173 22.436613 65.8453091 38.077803 63.0919911 19.91762-3.514874-3.514874-49.2082383-3.514874-49.2082383 30.462242 57.4096113 23.432494 39.8352403-31.633867 92.5583523-55.066362 52.723112-111.3043482 163.968879-119.5057212 168.655378-.3514874.234325-.7029749.410068-1.1130435.585812h215.9890157c3.807781 0 6.268193-4.042105 4.569337-7.439817l-56.472312-111.772998c-1.230205-2.40183-.351487-5.389473 1.991763-6.736842 33.039816-18.98032 55.300686-54.597711 55.300686-95.487414z" fill="url(#c)"/><path d="m35.7345538 330.983982c8.201373-4.686499 64.4393592-115.990847 119.5057212-168.713959 55.066361-52.723112 62.096109-35.148742 31.633867-92.5583525 0 0-116.5766592 163.4416475-158.7551489 244.2837525" fill="url(#d)"/><path d="m52.1372998 184.530892c78.7331812-144.754233 89.0434782-159.3409606 130.0503432-159.3409606 21.557895 0 43.291533 9.7244851 57.35103 27.0059496-19.156064-30.8723112-53.0746-51.55148741-91.913959-52.13729976h-133.7409611c-2.8118994 0-5.09656755 2.28466819-5.09656755 5.0965675v269.59084626c7.96704805-20.562013 21.49931355-49.969794 43.35011445-90.215103z" fill="url(#e)"/><path d="m155.240275 162.270023c-55.066362 52.723112-111.3043482 164.02746-119.5057212 168.713959s-21.9679634 5.272311-29.29061787-2.929062c-7.79130435-8.728604-19.91762013-22.846682 45.69336387-143.524028 78.7331812-144.754233 89.0434782-159.3409606 130.0503432-159.3409606 21.557895 0 43.291533 9.7244851 57.35103 27.0059496.761556 1.230206 1.523112 2.5189931 2.284668 3.8077803-24.076888-24.7798627-76.448513-30.5208238-89.453547-.1171624-13.356522 31.1652173 22.436613 65.8453091 38.077803 63.0919911 19.91762-3.514874-3.514874-49.2082383-3.514874-49.2082383 30.403661 57.3510293 23.373913 39.7766593-31.692448 92.4997713z" fill="url(#f)"/><path d="m58.5812357 190.974828c78.7331803-144.754233 89.0434783-159.3409607 130.0503433-159.3409607 17.750114 0 35.617391 6.6196796 49.208238 18.5702517-14.059497-16.0512586-34.914417-25.0141876-55.652174-25.0141876-41.006865 0-51.317162 14.5867276-130.0503432 159.3409606-65.610984 120.677346-53.48466822 134.795424-45.69336387 143.524028 1.11304348 1.230206 2.40183066 2.284668 3.74919907 3.163387-6.85400457-9.95881-9.90022882-33.098399 48.3881007-140.243479z" fill="url(#g)" opacity=".3"/></svg>