<svg height="295" preserveAspectRatio="xMidYMid" viewBox="0 0 256 295" width="256" xmlns="http://www.w3.org/2000/svg"><path d="m67.2905 146.2787c-.525-6.559-1.334-13.162-2.117-19.548-.77-6.282-1.566-12.777-2.077-19.144-1.01-12.573-3.874-25.197-8.757-38.592-1.357-3.727-2.96-7.363-4.51-10.879l-.143-.323c-1.215-2.757-2.847-6.377-4.696-9.929-.561-1.078-1.246-1.958-1.85-2.734-.473-.608-.962-1.236-1.102-1.621-.592-1.631-1.416-2.966-2.467-4.002.131-.088.262-.176.393-.263 1.751-1.174 3.405-2.282 5.117-3.249 2.043-1.155 4.135-2.195 6.349-3.297 1.515-.754 3.03-1.508 4.526-2.298 1.256-.663 2.46-1.376 3.625-2.066 1.93-1.142 3.753-2.22 5.607-2.965 2.782-1.118 5.553-2.328 8.232-3.499 6.965-3.044 13.544-5.919 20.603-7.437 5.87-1.263 12.402-2.273 20.558-3.181 2.928-.326 5.992-.174 9.235-.013.685.035 1.37.068 2.052.098l1.002.041c2.464.098 4.792.191 6.807.75 5.509 1.53 10.453 3.969 15.118 7.458 5.365 4.009 8.71 9.496 10.223 16.775.809 3.883.824 8.028.84 12.416.004 1.445.009 2.888.043 4.317.032 1.466-.186 3.057-.417 4.741-.074.54-.148 1.08-.214 1.616-.14 1.123-.252 2.255-.363 3.387-.262 2.653-.509 5.158-1.124 7.461-2.96 11.022-9.714 20.594-16.245 29.849-2.73 3.865-5.958 7.37-9.375 11.082-1.698 1.845-3.455 3.752-5.138 5.702-6.319 7.32-13.628 13.588-21.189 19.895-.81.676-1.552 1.369-2.269 2.04-.851.795-1.654 1.545-2.469 2.172-2.094 1.609-4.304 3.196-6.442 4.731-.973.699-1.946 1.397-2.916 2.103-.881.641-1.752 1.296-2.623 1.951-1.854 1.393-3.604 2.709-5.432 3.888-4.425 2.852-8.999 5.677-13.422 8.407-.962.594-1.924 1.188-2.885 1.782.014-.475.027-.947.04-1.416.152-5.291.308-10.761-.128-16.206m188.432 67.996c-.169-1.809-.235-3.642-.305-5.581-.187-5.194-.381-10.565-2.602-15.905-.249-.601-.496-1.204-.743-1.809-1.34-3.282-2.727-6.675-4.737-9.825-1.866-2.919-4.191-5.375-6.44-7.752-.549-.58-1.097-1.159-1.635-1.741-1.94-2.108-3.946-4.287-6.421-6.102-1.394-1.018-2.825-1.76-4.211-2.476-1.21-.626-2.354-1.219-3.251-1.897-2.978-2.261-6.19-3.02-9.023-3.689l-.626-.149c-2.212-.527-5.149-1.119-8.21-1.04-9.099.242-15.647 5.486-19.832 9.46-1.4 1.327-3.142 2.979-4.032 5.277l-.636 1.628c-2.295 5.85-4.669 11.9-4.753 18.809-.016 1.409-.085 2.818-.158 4.31-.28 5.715-.596 12.191 2.417 18.382.036.103.096.407.139.629l.038.193c1.376 6.93 4.566 16.655 16.352 21.062 6.568 2.457 12.749 2.539 18.893.247.243-.091.625-.186 1.027-.286 1.343-.334 3.181-.792 4.621-2.259.755-.765 1.564-1.504 2.421-2.288 2.281-2.083 4.865-4.445 6.725-7.722 2.707-4.772 5.878-12.081 2.162-20.439-1.795-4.036-4.246-7.687-6.405-10.724-1.286-1.812-3.284-3.434-5.936-4.822-1.913-1.001-3.946-1.583-5.739-2.096l-.974-.281c-4.628-1.364-10.162.705-12.33 4.61-1.586 2.854-2.806 5.929-3.529 8.886-.661 2.691.636 6.315 2.888 8.077 3.49 2.739 7.909 3.682 12.44 2.658 1.447-.327 2.364-1.177 2.971-1.739.128-.118.263-.25.424-.376 1.263-.99 1.832-2.626 1.458-4.186-.374-1.561-1.624-2.761-3.198-3.071-.932-.183-1.813-.35-2.656-.509-1.402-.266-2.648-.501-3.857-.762.086-.341.166-.683.245-1.026l.029-.127c.152-.65.92-1.621 1.445-1.972 1.695.179 3.54.6 5.62 1.282 1.116.367 1.96 1.412 3.245 3.087.651.848 1.325 1.725 2.142 2.582 3.395 3.566 3.892 11.488.951 15.139-.32.395-.639.799-.96 1.203-1.774 2.238-3.608 4.552-5.6 5.763-2.02 1.232-5.031 2.058-8.709 2.392-.956.086-2.311-.282-3.744-.673-1.132-.31-2.303-.63-3.573-.822-2.359-.358-4.088-1.802-6.167-5.15-3.094-4.978-4.272-11.236-5.31-16.756-.647-3.439-.552-7.58.3-13.031.442-2.818 1.374-5.645 2.362-8.637.501-1.521 1.02-3.093 1.478-4.688 1.384-4.809 4.897-7.727 12.124-10.072 4.859-1.574 10.137-.522 16.134 3.219.348.217.692.445 1.037.673 1.116.738 2.382 1.575 3.869 2.179 3.023 1.232 5.473 3.305 7.708 6.52.145.209.281.427.418.645.477.756 1.07 1.697 1.967 2.548 4.664 4.424 7.651 10.36 9.398 18.674.287 1.379.418 2.869.558 4.446l.078.857c.064.694.133 1.387.203 2.081.247 2.48.48 4.823.515 7.148.017 1.177-.123 2.446-.272 3.79-.126 1.146-.257 2.332-.305 3.574-.226 5.942-1.102 10.793-2.756 15.267-2.023 5.458-4.3 9.79-7.167 13.63-6.423 8.602-13.584 12.265-22.532 11.536l-.901-.077c-1.982-.17-4.025-.346-6.164-.254-3.541.148-6.714.176-9.645-.981-7.548-2.979-12.579-6.311-16.312-10.803-1.867-2.25-3.703-4.864-5.614-7.991l-.541-.882c-1.896-3.093-3.687-6.015-4.864-9.072-2.227-5.786-4.156-11.785-5.736-17.832-1.205-4.613-3.324-8.586-5.371-12.428-.753-1.411-1.463-2.743-2.13-4.106-2.118-4.323-4.829-8.32-7.839-11.557-4.668-5.016-10.295-9.765-17.71-14.944-9.653-6.74-19.862-10.017-31.212-10.017h-.078c-.406 0-.905-.053-1.433-.109-.304-.032-.608-.064-.912-.09-1.16-.098-2.324-.244-3.556-.399-1.382-.174-2.78-.35-4.205-.462 2.669-1.759 5.343-3.562 7.956-5.425 12.811-9.131 23.218-18.084 31.816-27.372 7.335-7.923 14.4-16.276 21.232-24.355l2.62-3.097c1.195-1.41 2.045-2.964 2.795-4.335.568-1.038 1.103-2.017 1.698-2.778 5.203-6.669 7.794-14.312 10.299-21.704l.145-.428c1.734-5.118 2.203-10.626 2.453-15.819.298-6.334.21-13.031-.262-19.903-.564-8.243-4.093-15.955-10.206-22.306-4.5-4.671-9.65-8.202-15.307-10.495-3.289-1.332-6.808-2.672-10.496-3.151-3.054-.395-6.063-.363-8.978-.334-1.348.014-2.619.027-3.892.001-.809-.017-1.658-.083-2.556-.153-1.879-.148-4.01-.314-6.178-.016l-.904.123c-8.879 1.213-18.061 2.466-26.88 5.732-1.418.525-2.735 1.144-4.009 1.742-.975.458-1.896.89-2.813 1.259-1.606.647-3.285 1.271-4.909 1.874-2.997 1.115-6.097 2.267-9.107 3.684-3.024 1.424-5.979 3.002-8.838 4.528-3.277 1.749-6.373 3.402-9.597 4.863-5.644 2.559-10.611 5.983-15.415 9.294-1.503 1.036-3.007 2.072-4.529 3.08-7.015 4.645-14.27 9.447-21.394 14.409-1.783 1.242-2.508 3.108-3.038 4.47-.102.262-.201.523-.318.782-.563 1.26-.604 3.17.97 4.751 1.764 1.774 3.824 2.328 5.649 1.526 1.504-.662 3.094-1.434 4.522-2.595 1.297-1.055 2.532-2.156 3.726-3.221.996-.888 1.942-1.731 2.91-2.54.047-.015.095-.03.143-.045.614-.2 1.542-.501 2.442-1.199 1.709-1.325 3.397-2.677 5.084-4.03 1.292-1.036 2.613-2.094 3.94-3.136 1.486 1.845 2.892 3.593 4.289 5.346.193.244.395.484.597.724.352.419.751.893.87 1.148 2.891 6.196 5.295 11.42 7.626 16.775 4.24 9.736 8.111 19.335 8.892 29.717.237 3.145.696 6.251 1.14 9.254.287 1.948.585 3.962.809 5.916.296 2.584.545 5.24.785 7.808.256 2.727.52 5.548.845 8.338.206 1.761.499 3.49.783 5.162.418 2.464.813 4.791.917 7.076.376 8.238.4 16.67.423 24.888.001.35.021.719.045 1.094.002.037.005.076.007.117-2.504 1.567-1.805 4.816-1.489 6.282.128.592.292 1.123.437 1.593.109.351.273.882.284 1.054.003.623-.136 1.408-.282 2.24-.113.636-.223 1.273-.298 1.913-.479 4.05-.931 8.1-1.379 12.154-.082.739-.147 1.481-.211 2.222-.052.59-.103 1.179-.165 1.77-.077.742-.158 1.325-.255 1.832-.077.406-.171.81-.264 1.214-.172.747-.367 1.592-.49 2.495-.144 1.072-.262 2.148-.378 3.224-.157 1.451-.306 2.822-.514 4.119-.03.113-.166.423-.266.65-.284.644-.637 1.446-.822 2.44-.357 1.917-.675 3.853-.983 5.726-.497 3.028-.966 5.888-1.598 8.74-.892 4.04-2.059 8.151-3.187 12.128l-.638 2.252c-2.012 7.155-4.115 14.476-6.427 22.379-.926 3.166-1.869 6.326-2.812 9.487-1.215 4.066-2.428 8.133-3.604 12.207-.424 1.464-.144 2.782.023 3.57.027.127.059.253.075.375.176 1.518 1.176 2.814 2.602 3.362.479.184.979.274 1.474.274.98 0 1.946-.352 2.707-1.021.104-.087.225-.165.343-.247.797-.558 2.131-1.491 2.735-3.237 1.407-4.065 2.634-8.152 3.648-11.614.428-1.46.861-2.919 1.293-4.379 1.5-5.058 3.05-10.29 4.388-15.522 2.726-10.662 5.546-21.687 7.906-32.725 1.779-8.329 3.359-17.319 4.972-28.293.691-4.704 1.104-9.467 1.504-14.072.177-2.04.355-4.081.555-6.116.548-.131 1.119-.328 1.686-.643 6.179-3.39 12.729-4.825 20.016-4.394 3.174.188 6.533.491 10.571.952.859.098 1.723.184 2.587.27 2.811.282 5.466.547 7.925 1.2 6.468 1.718 12.609 4.783 18.252 9.11 3.929 3.014 6.969 5.579 9.565 8.072 3.001 2.883 5.14 5.34 6.734 7.731 1.394 2.092 2.521 4.449 3.714 6.944.521 1.091 1.043 2.181 1.588 3.252.362.716.744 1.425 1.127 2.133.858 1.589 1.668 3.091 2.184 4.569.498 1.428.874 2.956 1.272 4.574.554 2.253 1.127 4.582 2.093 6.88.743 1.773 1.404 3.575 2.103 5.483 2.085 5.686 4.241 11.566 8.681 16.668 1.011 1.159 1.898 2.578 2.837 4.079.834 1.333 1.696 2.71 2.729 4.047 4.715 6.108 11.354 9.353 17.209 12.215 4.505 2.203 10.569 4.581 17.567 3.378.532-.09 1.434.02 2.392.139 13.321 1.667 24.25-2.691 32.484-12.942 5.091-6.341 8.609-12.923 10.757-20.122 2.833-9.494 3.812-18.356 2.996-27.094" fill="#e94c43"/></svg>