<svg height="176" preserveAspectRatio="xMidYMid" viewBox="0 0 256 176" width="256" xmlns="http://www.w3.org/2000/svg"><path d="m31.433 5.591 3.858-4.719 20.623 16.285 34.804-15.65 21.518 32.871 33.638-2.763 19.25-30.108 34.962 15.95 20.624-16.268 4.136 1.96.707 171.117-5.277.158-19.333-14.488-35.741 14.488-19.071-29.717-35.662.386-19.513 29.128-35.62-15.12-19.648 15.358-4.77-.258z" fill="#b2271b"/><g fill="#d82a1f"><path d="m2.332 0h31.32c1.288 0 2.332 1.044 2.332 2.332v171.143c0 1.288-1.044 2.332-2.332 2.332h-31.32c-1.288 0-2.332-1.044-2.332-2.332v-171.143c0-1.288 1.044-2.332 2.332-2.332"/><path d="m57.507 0h31.32c1.288 0 2.332 1.044 2.332 2.332v171.143c0 1.288-1.044 2.332-2.332 2.332h-31.32c-1.288 0-2.332-1.044-2.332-2.332v-171.143c0-1.288 1.044-2.332 2.332-2.332"/><path d="m112.34 0h31.32c1.288 0 2.332 1.044 2.332 2.332v171.143c0 1.288-1.044 2.332-2.332 2.332h-31.32c-1.288 0-2.332-1.044-2.332-2.332v-171.143c0-1.288 1.044-2.332 2.332-2.332"/><path d="m167.173 0h31.32c1.288 0 2.332 1.044 2.332 2.332v171.143c0 1.288-1.044 2.332-2.332 2.332h-31.32c-1.288 0-2.332-1.044-2.332-2.332v-171.143c0-1.288 1.044-2.332 2.332-2.332"/><path d="m222.348 0h31.32c1.288 0 2.332 1.044 2.332 2.332v171.143c0 1.288-1.044 2.332-2.332 2.332h-31.32c-1.288 0-2.332-1.044-2.332-2.332v-171.143c0-1.288 1.044-2.332 2.332-2.332"/></g></svg>