<svg height="255" preserveAspectRatio="xMidYMid" viewBox="0 0 256 255" width="256" xmlns="http://www.w3.org/2000/svg" xmlns:xlink="http://www.w3.org/1999/xlink"><linearGradient id="a" x1="84.750365%" x2="58.254396%" y1="111.399353%" y2="64.583709%"><stop offset="0" stop-color="#fb7655"/><stop offset=".41" stop-color="#e42b1e"/><stop offset=".99" stop-color="#900"/><stop offset="1" stop-color="#900"/></linearGradient><linearGradient id="b"><stop offset="0" stop-color="#871101"/><stop offset=".99" stop-color="#911209"/><stop offset="1" stop-color="#911209"/></linearGradient><linearGradient id="c" x1="116.651024%" x2="1.74616%" xlink:href="#b" y1="60.890321%" y2="19.28795%"/><linearGradient id="d" x1="75.774402%" x2="38.978136%" xlink:href="#b" y1="219.327131%" y2="7.828682%"/><linearGradient id="e" x1="50.012428%" x2="66.483041%" y1="7.234499%" y2="79.135413%"><stop offset="0" stop-color="#fff"/><stop offset=".23" stop-color="#e57252"/><stop offset=".46" stop-color="#de3b20"/><stop offset=".99" stop-color="#a60003"/><stop offset="1" stop-color="#a60003"/></linearGradient><linearGradient id="f" x1="46.174175%" x2="49.932334%" y1="16.347907%" y2="83.046845%"><stop offset="0" stop-color="#fff"/><stop offset=".23" stop-color="#e4714e"/><stop offset=".56" stop-color="#be1a0d"/><stop offset=".99" stop-color="#a80d00"/><stop offset="1" stop-color="#a80d00"/></linearGradient><linearGradient id="g" x1="36.965357%" x2="49.528232%" y1="15.593647%" y2="92.477633%"><stop offset="0" stop-color="#fff"/><stop offset=".18" stop-color="#e46342"/><stop offset=".4" stop-color="#c82410"/><stop offset=".99" stop-color="#a80d00"/><stop offset="1" stop-color="#a80d00"/></linearGradient><linearGradient id="h" x1="13.608617%" x2="85.763661%" y1="58.345686%" y2="-46.716781%"><stop offset="0" stop-color="#fff"/><stop offset=".54" stop-color="#c81f11"/><stop offset=".99" stop-color="#bf0905"/><stop offset="1" stop-color="#bf0905"/></linearGradient><linearGradient id="i" x1="27.624204%" x2="50.744515%" y1="21.134585%" y2="79.055782%"><stop offset="0" stop-color="#fff"/><stop offset=".31" stop-color="#de4024"/><stop offset=".99" stop-color="#bf190b"/><stop offset="1" stop-color="#bf190b"/></linearGradient><linearGradient id="j" x1="-20.66713%" x2="104.241521%" y1="122.281897%" y2="-6.34211%"><stop offset="0" stop-color="#bd0012"/><stop offset=".07" stop-color="#fff"/><stop offset=".17" stop-color="#fff"/><stop offset=".27" stop-color="#c82f1c"/><stop offset=".33" stop-color="#820c01"/><stop offset=".46" stop-color="#a31601"/><stop offset=".72" stop-color="#b31301"/><stop offset=".99" stop-color="#e82609"/><stop offset="1" stop-color="#e82609"/></linearGradient><linearGradient id="k" x1="58.791961%" x2="11.963656%" y1="65.204966%" y2="50.127562%"><stop offset="0" stop-color="#8c0c01"/><stop offset=".54" stop-color="#990c00"/><stop offset=".99" stop-color="#a80d0e"/><stop offset="1" stop-color="#a80d0e"/></linearGradient><linearGradient id="l" x1="79.31949%" x2="23.088288%" y1="62.753807%" y2="17.887682%"><stop offset="0" stop-color="#7e110b"/><stop offset=".99" stop-color="#9e0c00"/><stop offset="1" stop-color="#9e0c00"/></linearGradient><linearGradient id="m" x1="92.880028%" x2="59.841454%" y1="74.122366%" y2="39.703997%"><stop offset="0" stop-color="#79130d"/><stop offset=".99" stop-color="#9e120b"/><stop offset="1" stop-color="#9e120b"/></linearGradient><radialGradient id="n" cx="32.000801%" cy="40.210047%" r="69.572956%"><stop offset="0" stop-color="#a80d00"/><stop offset=".99" stop-color="#7e0e08"/><stop offset="1" stop-color="#7e0e08"/></radialGradient><radialGradient id="o" cx="13.54938%" cy="40.859922%" r="88.386194%"><stop offset="0" stop-color="#a30c00"/><stop offset=".99" stop-color="#800e08"/><stop offset="1" stop-color="#800e08"/></radialGradient><linearGradient id="p" x1="56.570196%" x2="3.104807%" y1="101.716594%" y2="11.99326%"><stop offset="0" stop-color="#8b2114"/><stop offset=".43" stop-color="#9e100a"/><stop offset=".99" stop-color="#b3100c"/><stop offset="1" stop-color="#b3100c"/></linearGradient><linearGradient id="q" x1="30.869873%" x2="92.470763%" y1="35.598976%" y2="100.693616%"><stop offset="0" stop-color="#b31000"/><stop offset=".44" stop-color="#910f08"/><stop offset=".99" stop-color="#791c12"/><stop offset="1" stop-color="#791c12"/></linearGradient><path d="m197.467337 167.763618-145.5212063 86.409648 188.4224323-12.785849 14.512241-189.9944522z" fill="url(#a)"/><path d="m240.677307 241.257487-16.194895-111.77809-44.113045 58.249648z" fill="url(#c)"/><path d="m240.896 241.257487-118.646352-9.313768-69.6731656 21.986412z" fill="url(#d)"/><path d="m52.7437186 253.954573 29.639397-97.0999-65.2221106 13.946211z" fill="url(#e)"/><path d="m180.357789 188.050653-27.272362-106.8253264-78.0478391 73.1593974z" fill="url(#f)"/><path d="m248.693065 82.7304523-73.776884-60.2564825-20.544322 66.4184925z" fill="url(#g)"/><path d="m214.190955.99055276-43.391357 23.97909544-27.375276-24.30070348z" fill="url(#h)"/><path d="m0 203.37206 18.1772864-33.151356-14.70391957-39.493468z" fill="url(#i)"/><path d="m2.49567839 129.479397 14.79396981 41.963417 64.2830151-14.422191 73.3909547-68.2066331 20.711558-65.7868542-32.612342-23.0271357-55.445226 20.7501508c-17.4684623 16.2476381-51.3659497 48.3955778-52.5880603 49.000201-1.2092462.6174874-22.3839196 40.6383922-32.53386931 59.7290452z" fill="#fff"/><path d="m54.441809 54.0944724c37.8596985-37.5380905 86.666935-59.71618094 105.397387-40.8184925 18.718874 18.8976884-1.13206 64.8233166-38.991759 102.3485431-37.8596983 37.525226-86.0623114 60.925427-104.7798993 42.027738-18.73045227-18.884824.5145729-66.0325625 38.3742713-103.5577886z" fill="url(#j)"/><path d="m52.7437186 253.91598 29.4078392-97.408643 97.6659292 31.37608c-35.312562 33.112764-74.587336 61.105528-127.0737684 66.032563z" fill="url(#k)"/><path d="m155.092261 88.6223116 25.072563 99.3125624c29.49789-31.015879 55.972663-64.360201 68.938613-105.6032157z" fill="url(#l)"/><path d="m248.847437 82.8333668c10.034171-30.282613 12.349749-73.7254271-34.966512-81.79135675l-38.824523 21.44482415z" fill="url(#m)"/><path d="m0 202.934673c1.38934673 49.979176 37.4480402 50.72402 52.8080402 51.162694l-35.479799-82.860382z" fill="#9e1209"/><path d="m155.232482 88.7766834c22.666935 13.9320606 68.349428 41.9119596 69.275659 42.4265326 1.439517.810452 19.695276-30.784322 23.837588-48.6399999z" fill="url(#n)"/><path d="m82.1129648 156.507337 39.3133672 75.84804c23.245829-12.607035 41.448844-27.967035 58.121005-44.420503z" fill="url(#o)"/><path d="m17.1738693 171.339899-5.5702512 66.328443c10.5101507 14.356583 24.9696482 15.604422 40.1366834 14.485226-10.9732663-27.310955-32.8940703-81.92-34.5664322-80.813669z" fill="url(#p)"/><path d="m174.826131 22.6540704 78.099296 10.960402c-4.16804-17.6627136-16.96804-29.06050255-38.78593-32.62391964z" fill="url(#q)"/></svg>