<svg height="256" preserveAspectRatio="xMidYMid" viewBox="0 0 256 256" width="256" xmlns="http://www.w3.org/2000/svg"><path d="m2.20638132 157.636233c2.72236576 11.651487 9.05164198 22.692358 14.71153308 32.881557 5.8272374 10.490023 13.0828949 18.731829 21.5059922 27.151938 5.6828016 5.681805 11.2241557 12.851797 17.8881245 17.39007 7.5803891 5.163828 15.743502 10.207128 24.3698055 13.667611 5.6489338 2.266147 12.1684669 2.122708 18.1809805 3.574038 9.6821789 2.337868 19.1193149 2.903658 29.5196889 2.903658 8.359346 0 18.550537 1.218241 26.463626-.30979 10.084607-1.946397 19.075487-7.767657 28.167969-11.928404 9.423191-4.313152 18.905152-7.041495 26.934786-13.404639 8.053541-6.381074 13.976405-16.40193 20.292732-24.50926 10.802801-13.867829 19.489867-27.995642 23.873743-45.578958 2.483299-9.961089 1.109665-20.382381 1.109665-31.11147 0-9.265806-.983159-18.975876-2.850864-27.68386-2.483299-11.5807629-4.513369-22.580794-9.893354-32.7680003-4.14979-7.8583035-10.438225-13.8867548-16.067237-20.6712529-3.565074-4.2982101-6.733697-9.7050895-10.82372-13.5032529-5.068202-4.7066148-10.51891-7.66207-16.298334-11.5080467-6.021479-4.004358-12.399565-9.5327626-19.078475-12.489214-9.641339-4.26733074-19.907238-6.70680156-30.622382-8.49083269-6.898054-1.14851362-13.983377-.40043579-21.208155-.40043579-3.678631 0-9.340514-.51797666-12.941448-.21416343-11.106614.93733852-21.3784899 3.29014786-31.2778206 6.8781323-.6504592.23607782-1.9792685 1.15050583-2.6396888 1.39754085-6.4786926 2.41855256-10.6902412 3.32899616-16.6240622 6.71775876-3.7732607 2.1555798-8.0993619 6.5155486-11.620607 9.0307237-9.645323 6.8900856-17.0404358 12.4832374-24.3568561 21.6424592-.5448715.6823346-3.1038754 4.0641245-3.6407782 4.7643891-8.94207 11.6504903-13.2352996 24.2094319-17.77357195 38.528498-1.85475486 5.8521401-5.31922179 12.5589418-6.32329961 18.7407938-1.09372763 6.738677-.31676264 12.981292-.31676264 20.028763 0 10.071657-.85764981 19.871377 1.33877042 29.273649"/><path d="m188.185899 199.353276c3.558101 3.951564-2.28109 5.743564-4.317136 9.299673-2.035051 3.556109 4.783315 15.946709 13.399657 14.881868 10.426273-1.287969 9.45407-6.455782 11.799907-8.567533 2.345836-2.111751 5.109043 1.032965 10.735066-5.838195 5.626023-6.871159.236078-12.703377-4.090023-16.565291-4.327098-3.862911-9.394304-.090646-13.658646 1.456311-25.87393-22.222195-122.182724-125.7487938-129.2122649-138.2658989-1.2670505-3.4724358-1.3915642-2.1994085 1.7870195-6.2226926 3.1795798-4.023284 1.1186303-9.0307237-2.3926537-12.2122957-4.2822724-3.8818366-9.8555019-3.455502-13.0729338-.5588171-3.2164358 2.8966848-2.0599534 1.8557509-5.8282335 5.248498-3.7682802 3.3927471-5.9228638.1374631-12.2650895 5.8471596-6.3412296 5.7106926-1.9822568 12.9145525-.0876576 15.0193307 1.8955953 2.1047782 6.6081868 8.9082023 14.0700389 4.2832685 2.6347082-1.6326226 5.7535253-3.4345837 9.4600467.6823346 0 0 92.5873309 92.5703969 123.6729029 131.5122799" fill="#820202"/><path d="m186.706677 68.9237665c-1.213261-4.6129805-.160373-5.6479377-5.347113-11.9533074-3.885821-4.7225525 6.019487-19.5287159 16.501541-14.4973696 10.481058 5.0323424 4.89986 8.6203268 9.307642 12.589821 4.408778 3.9694942 5.113027.4791284 7.665058 4.8390973 2.552032 4.3599689 1.558911 8.4649338-2.758225 12.3178833-4.317136 3.8529494-7.277572 3.5680622-11.531954 2.0240933-25.815159 22.171393-124.0056027 125.6043576-129.421447 139.6445136 0 0 .7660078 4.770366-2.2940389 8.170086-3.0600467 3.398723-6.783502 3.379797-10.1812296.320747-3.3977276-3.059051.0169339-3.576031-1.8338366-7.170989-1.8517665-3.594957-9.508856 2.787113-14.3509416-1.572856-4.8420856-4.359968-7.4369494-9.561649-4.0541634-14.999408 3.382786-5.436763 11.9722334-7.538553 16.6360155-3.338957 2.1705214 1.954365 1.5758444 4.538272 3.8011518 6.542443 2.2253074 2.003175 3.9714864-1.14951 4.4725292-1.706334 0 0 92.3741636-92.35723 123.3890116-131.2094635"/><path d="m186.706677 62.1950506c-1.214257-4.6129806-.160373-5.6479378-5.347113-11.9533074-3.885821-4.7235486 6.019487-19.5297121 16.501541-14.4973697 10.481058 5.0313463 4.89986 8.6203269 9.307642 12.5898211 4.408778 3.968498 5.113027.4791284 7.665058 4.8390972 2.552032 4.3599689 1.558911 8.4639378-2.758225 12.3168872-4.317136 3.8539455-7.277572 3.5680622-11.531954 2.0250895-25.815159 22.1703969-124.0056027 125.6043575-129.421447 139.6445135 0 0 .7660078 4.770366-2.2940389 8.16909-3.0600467 3.398723-6.783502 3.380793-10.1812296.321743-3.3977276-3.059051.0169339-3.576031-1.8338366-7.170989-1.8517665-3.594957-9.508856 2.787113-14.3509416-1.572856-4.8420856-4.359968-7.4369494-9.561649-4.0541634-14.999408s11.9722334-7.538553 16.6360155-3.338957c2.1705214 1.954365 1.5758444 4.538272 3.8011518 6.542443 2.2253074 2.003175 3.9714864-1.150506 4.4725292-1.70733 0 0 92.3741636-92.35723 123.3890116-131.2084674" fill="#820202"/><path d="m72.740856 99.2254008c1.2919533 0 2.5032218.5010428 3.6328094 1.5021322 1.1305836 1.00109 2.148607 1.92249 3.0530739 2.76221.5159844 1.549946 1.3238288 2.712405 2.422537 3.488374.3874863.452233.7749727.936342 1.1624591 1.453323.3874864.51698.6454786 1.130583.7749728 1.840809.2589883 0 .5169805.274926.7749727.823782.2589884.548856.4851051 1.195331.6783502 1.937432.1942413.743097.3556109 1.437385.4851051 2.08386.128498.645479.1932451 1.065837.1932451 1.259082 0 .904467-.1613696 1.906552-.4841089 3.004264s-.7271596 2.19642-1.2112685 3.294133c-.484109 1.098708-1.0010895 2.148607-1.5509416 3.149696-.5488561 1.00109-1.0170273 1.824872-1.4045137 2.47035-.2579922.452234-.5976653.807845-1.0170272 1.066833-.420358.257992-.8237821.500047-1.2112685.726163-.3884825.226117-.7271595.532919-1.0180233.920405s-.4362957.904467-.4362957 1.550942c0 .710225.1942412 1.646568.5817276 2.810023.3874864 1.162459.8725914 2.324918 1.4533229 3.488374.5817277 1.162459 1.179393 2.195424 1.7929961 3.100887.6136032.903471 1.114646 1.453323 1.5021323 1.646568.7749728.51698 1.4692607 1.162459 2.0828639 1.938428.6136031.774973 1.2600778 1.549945 1.938428 2.324918.6773541.775969 1.4045136 1.470257 2.1794864 2.08386.7749727.613603 1.6794396 1.017027 2.7134007 1.211269.3874864.128498 1.0010895.371548 1.8408094.726163.8397198.355611 1.4861945.759035 1.938428 1.211268.3874864.387487.5976654.662413.6295408.823783.0328716.161369-.0159377.501042-.1454319 1.018023-.1932451.710226-.6614163 1.227206-1.4045136 1.549945-.7430973.32274-1.5509416.532919-2.422537.629541-.8725914.097619-1.6635019.129494-2.3747237.097619-.7102257-.032872-1.1295875-.080685-1.2590817-.145432-.4522335-.387486-1.0498988-.581728-1.7929961-.581728-.7421012 0-1.3397665-.064747-1.792-.194241-1.7441868-1.032965-2.971393-1.872685-3.6826148-2.519159-.7102257-.645479-1.5499455-1.259082-2.5191595-1.84081-.3874864-.194241-.8715954-.532918-1.453323-1.017027-.5817276-.485105-1.2112685-1.049899-1.8896187-1.696374-.6783502-.645478-1.3567004-1.323828-2.0350505-2.03505-.6783502-.710226-1.3078911-1.355704-1.8896187-1.937432-.7749728-.969214-1.4373852-1.905556-1.9862413-2.810023-.548856-.904467-1.0329649-1.760125-1.4533229-2.567969-.420358-.807845-.8237821-1.549946-1.2112685-2.228296s-.8078444-1.211268-1.2600778-1.598755c-.9034708-.51698-1.5658833-1.002085-1.9862413-1.454319-.4193618-.451237-1.0817743-.677354-1.9862412-.677354-.7749728 0-1.3726382.242055-1.7929961.726163-.4193619.484109-.7421012 1.049899-.9682179 1.695378-.2261168.646475-.3715487 1.324825-.4362957 2.03505-.0647471.711222-.0966226 1.291954-.0966226 1.744187l1.0658366 4.55421v1.938428c0 1.549946.5000467 2.713401 1.5021323 3.488374 1.0010895.774973 2.0828638 1.420451 3.2453229 1.937432 1.1634553.51698 2.2452296 1.018023 3.2463191 1.502132s1.5021323 1.211269 1.5021323 2.180483c0 .452233-.2261168.839719-.6783502 1.162459-.4522335.322739-.8725915.484109-1.2600778.484109h-3.4883736l-5.4258054-.774973h-12.1126849c-.1932451 0-.8237821-.047813-1.8896186-.145432-1.0658366-.096623-2.1964203-.257992-3.3907549-.484109-1.1953307-.226117-2.2771051-.548856-3.2463191-.969214-.969214-.419362-1.4533229-.985152-1.4533229-1.695377 0-.194242.0966226-.387487.2908638-.581728.1932451-.193245.4193619-.387486.6783502-.580731.2579922-.258989.5807315-.485106.9682179-.678351.1942412 0 .485105.031876.8725914.096623s.7749728.128498 1.1624592.193245c.4522334.064747.9363424.129494 1.4533229.194241h1.938428c1.2919534 0 2.3737277-.371548 3.2463191-1.114646.8715953-.742101 1.3078911-1.534007 1.3078911-2.373727v-25.871938l.7749727-6.976747c-.1942412-.645479-.3227393-1.421448-.3874864-2.324918-.064747-.904467-.1773073-1.761121-.3396731-2.567969-.1613697-.807845-.4522335-1.534008-.8715953-2.180483-.420358-.646474-1.0498989-1.065836-1.8896187-1.260078h-3.7792374c-.7102256 0-1.4204513-.063751-2.1316731-.193245-.7102257-.129494-1.3726382-.355611-1.9862413-.67835s-1.1146459-.774973-1.5021323-1.3567c-.3874863-.581728-.5807315-1.356701-.5807315-2.325915 0-.193245.1444358-.403424.4352996-.629541.2908638-.226116.5976654-.436295.9204047-.62954.3884825-.258989.840716-.484109 1.3567004-.678351l16.3760311-.774972h9.9810117c.1932451 0 .548856-.0328719 1.0658366-.097619.5159844-.063751 1.0329649-.1613697 1.5499455-.2898677.6464747-.1294942 1.3238288-.2589884 2.0350506-.3884825zm-9.2060389 9.8843892c-.2579922.064747-.548856.128498-.8715953.193245-.3227393.129494-.6783502.242054-1.0658366.339673-.3874864.096623-.8078443.306802-1.2600778.629541-.4522335 0-.8875331.210179-1.3078911.629541-.4203579.420358-.6295408 1.08277-.6295408 1.986241v7.074366c0 .515984-.1294942.985152-.3874864 1.404514-.2589883.420357-.3884825.823782-.3884825 1.211268l.3884825.194241c.1284981.128498.2261167.242055.2898677.338677.0647471.096623.0976187.306802.0976187.630537-.1942413.645479-.1294942 1.243144.1932451 1.792s.7749728 1.033961 1.3567004 1.453323c.5817276.420358 1.2112685.743097 1.8896187.969214s1.243144.338677 1.6953774.338677c.5817276-.257992 1.1634553-.515984 1.7441868-.774973.5169805-.193245.9851517-.387486 1.4055097-.580731.4193619-.194241.7909105-.290864 1.1146459-.290864l1.9374319.774973c.8397199 0 1.5499456-.338677 2.1316732-1.017027.5817276-.678351 1.0498988-1.454319 1.4055097-2.325915.3546148-.872591.6295409-1.712311.822786-2.519159.1942413-.807845.3556109-1.340763.4851051-1.598755l-.5817277-2.713401c0-.452233-.0488093-.888529-.1454319-1.307891-.0966225-.420358-.4034241-.888529-.9204046-1.40551 0-.387486-.0478133-.969214-.1454319-1.744186-.0966226-.774973-.4034242-1.356701-.9204047-1.744187-.1942413 0-.6624125-.096623-1.4045136-.290864-.7430973-.193245-1.5509417-.419362-2.422537-.677354-.8725914-.258988-1.7441868-.485105-2.6167782-.67835-.8715953-.194242-1.5021323-.290864-1.8896187-.290864z" fill="#820202"/><path d="m143.958661 131.412669c-.128498-.194241-.257992-.420358-.387486-.67835-.257992-.51698-.387486-.937338-.387486-1.260078v-4.55421l-.871596-5.425805v-1.841806c0-.710225-.226116-1.178397-.67835-1.404513-.452233-.226117-.936342-.404421-1.453323-.532919-.711222-.129494-1.340762-.258988-1.889618-.387486-.548856-.129494-.823783-.516981-.823783-1.163455 0-.580732.129495-1.146522.387487-1.695378s.56579-1.065836.920405-1.549945c.35561-.485105.759035-.872592 1.211268-1.163456.452233-.290863.872591-.436295 1.260078-.436295.904467.452233 1.808934.807844 2.712404 1.065836.775969.323736 1.647565.581728 2.616779.775969.969214.193245 1.905556.290864 2.810023.290864h3.779237c.645479 0 1.388576-.080685 2.228296-.243051.83972-.161369 1.631627-.226116 2.373728-.193245.743097.031876 1.373634.257993 1.889618.67835.516981.419362.775969 1.243144.775969 2.470351.193245.646474.32274 1.260078.387487 1.840809.063751.516981.080684 1.002086.047813 1.454319-.031876.452234-.177307.774973-.4353.968218h-4.651829c-.774972 0-1.404513.40442-1.889618 1.211268-.484109.807845-.726164 1.663502-.726164 2.567969-.322739.969214-.51698 1.744187-.581727 2.325915-.064747.581727-.031876 1.033961.096622 1.3567.064747.387487.226117.67835.485105.871595l-1.163455 3.488374c.323736.516981.532918 1.049899.630537 1.598755.096623.548856.210179 1.049899.338677 1.502132.064747.581728.129494 1.098708.194241 1.549946 0 .194241-.064747.485105-.194241.872591-.128498.387487-.257992.807844-.387486 1.260078-.129494.452233-.257992.904467-.387487 1.355704-.129494.452234-.194241.807845-.194241 1.066833v1.840809c0 .257992-.031875.580732-.096622.968218-.064748.388483-.16137.807845-.290864 1.260078-.128498.516981-.257992 1.033961-.387487 1.550942 0 .452233.064747.855657.194242 1.211268.129494.354615.257992.694288.387486 1.017027.129494.257993.193245.564794.193245.920405v1.211268c0 .904467-.063751 1.518071-.193245 1.84081-.387486.387486-.581728 1.033961-.581728 1.938428s-.371548 1.824871-1.113649 2.761214c-.743098.937338-1.535004 2.147611-2.374724 3.633805 0 .83972-.403424 1.56688-1.211269 2.180483-.806848.613603-1.663502 1.339766-2.567969 2.179486-.451237.516981-.806848.921401-1.065836 1.211269-.257992.290863-.500047.532918-.726164.727159-.226116.194241-.484108.355611-.774972.484109-.290864.129494-.694288.290864-1.211269.485105-2.131673.968218-4.231471 1.534008-6.298397 1.695378-2.066926.161369-3.55312.242054-4.457587.242054-1.098708 0-2.308981-.064747-3.633806-.193245-1.323828-.129494-2.648653-.355611-3.972482-.67835-1.324825-.32274-2.599844-.711222-3.828047-1.163455-1.227206-.451238-2.260171-1.032965-3.099891-1.743191l-1.938428-2.713401c-.51698-.711222-.969214-1.486194-1.3567-2.325914-.387487-.83972-.743098-1.614693-1.065837-2.324919-.387486-.840716-.743097-1.712311-1.065836-2.616778v-6.492638c0-.903471-.177308-1.824872-.532919-2.761214s-.532918-2.147611-.532918-3.633805v-5.425806c.129494-.646475.290864-1.291953.484109-1.938428.129494-.51698.258988-1.032965.388482-1.549945.128498-.516981.193246-.872592.193246-1.065837-.193246-.904467-.387487-1.712311-.581728-2.422537-.322739-1.421447-.484109-2.422537-.484109-3.004265.129494-.51698.290864-1.032965.484109-1.549945.129494-.452234.258988-.872591.388482-1.260078.128498-.387486.193246-.710226.193246-.969214v-5.329183c0-.452233-.387487-.83972-1.16246-1.162459-.775968-.322739-1.631626-.597665-2.567968-.823782-.936343-.226117-1.776063-.452233-2.51916-.67835s-1.08277-.500047-1.018023-.823782c0-.83972.355611-1.67944 1.065836-2.51916.711222-.83972 1.51807-1.260078 2.422537-1.260078l4.651829-1.065836h1.840809c.387487 0 1.146522.178303 2.277105.533914 1.130584.354615 2.180483.531922 3.148701.531922h8.042583c.904467 0 1.437386.194242 1.598755.581728.16137.387486.243051.710226.243051.969214 0 1.421447-.194241 2.406599-.581728 2.955455-.387486.548856-.888529.904467-1.502132 1.065837-.613603.161369-1.260078.242054-1.938428.242054-.677354 0-1.323829.145432-1.937432.436296s-1.114646.83972-1.502132 1.647564c-.387487.806848-.580732 2.114739-.580732 3.923673 0 .194242.031876.501043.096623.920405.064747.420358.145432.872591.242054 1.3567.096623.485105.194242.937339.290864 1.356701.096623.420358.145432.727159.145432.920404v23.740265c-.387486.83972-.485105 1.372638-.290864 1.598755.193245.226117.290864.597665.290864 1.114646l1.065837 2.615782c.645478.969214 1.259081 1.744187 1.840809 2.325914.581728.581728 1.227206 1.049899 1.938428 1.404514.710226.355611 1.549945.597665 2.519159.727159.969214.129495 2.196421.193246 3.681619.193246.452234 0 1.227206-.193246 2.325915-.580732 1.097712-.387486 2.131673-.83972 3.100887-1.3567.193245-.452234.500046-.888529.920404-1.307891.419362-.420358.920405-1.00109 1.502133-1.744187.580731-.743097 1.211268-1.712311 1.889618-2.907642.678351-1.194335 1.404514-2.79309 2.179487-4.796265v-3.778241c0-.452233.032871-1.292949.097618-2.520156.063751-1.227206.144436-2.519159.242055-3.87586.096622-1.3567.193245-2.631719.290864-3.82705.096622-1.195331.144435-1.986241.144435-2.373728"/><g fill="#820202"><path d="m143.958661 121.991471c-.128498-.193245-.257992-.419362-.387486-.67835-.257992-.516981-.387486-.936343-.387486-1.260078v-4.553214l-.871596-5.426802v-1.840809c0-.711222-.226116-1.179393-.67835-1.40551-.452233-.226117-.936342-.403424-1.453323-.532918-.711222-.128498-1.340762-.257992-1.889618-.387486-.548856-.129495-.823783-.516981-.823783-1.16246 0-.581727.129495-1.146521.387487-1.695377.257992-.549852.56579-1.066833.920405-1.550942.35561-.484109.759035-.871595 1.211268-1.162459s.872591-.4362956 1.260078-.4362956c.904467.4522336 1.808934.8078446 2.712404 1.0658366.775969.322739 1.647565.581728 2.616779.774973.969214.194241 1.905556.290864 2.810023.290864h3.779237c.645479 0 1.388576-.080685 2.228296-.242055s1.631627-.226117 2.373728-.194241c.743097.032871 1.373634.258988 1.889618.67835.516981.420358.775969 1.24414.775969 2.471346.193245.645479.32274 1.259082.387487 1.84081.063751.51698.080684 1.001089.047813 1.453323-.031876.452233-.177307.774972-.4353.969214h-4.651829c-.774972 0-1.404513.403424-1.889618 1.211268-.484109.807845-.726164 1.663502-.726164 2.567969-.322739.969214-.51698 1.744187-.581727 2.324918-.064747.581728-.031876 1.033961.096622 1.356701.064747.387486.226117.67835.485105.872591l-1.163455 3.488374c.323736.51698.532918 1.049899.630537 1.598755.096623.548856.210179 1.049898.338677 1.502132.064747.580731.129494 1.097712.194241 1.549945 0 .194242-.064747.484109-.194241.871596-.128498.388482-.257992.807844-.387486 1.260078-.129494.452233-.257992.904466-.387487 1.3567-.129494.452233-.194241.807844-.194241 1.065836v1.84081c0 .258988-.031875.581727-.096622.969214-.064748.387486-.16137.807844-.290864 1.260078-.128498.51698-.257992 1.032965-.387487 1.549945 0 .452234.064747.855658.194242 1.211269.129494.355611.257992.694288.387486 1.017027.129494.258988.193245.56579.193245.921401v1.211268c0 .903471-.063751 1.51807-.193245 1.840809-.387486.387487-.581728 1.032965-.581728 1.937432s-.371548 1.824872-1.113649 2.762211c-.743098.936342-1.535004 2.14761-2.374724 3.633805 0 .83972-.403424 1.565883-1.211269 2.179486-.806848.613603-1.663502 1.340763-2.567969 2.180483-.451237.51698-.806848.920404-1.065836 1.211268-.257992.290864-.500047.532919-.726164.72716-.226116.193245-.484108.354615-.774972.484109s-.694288.290864-1.211269.484109c-2.131673.969214-4.231471 1.535004-6.298397 1.696373-2.066926.16137-3.55312.242055-4.457587.242055-1.098708 0-2.308981-.064747-3.633806-.194241-1.323828-.128499-2.648653-.354615-3.972482-.678351-1.324825-.322739-2.599844-.710225-3.828047-1.162459-1.227206-.452233-2.260171-1.033961-3.099891-1.744187l-1.938428-2.7134c-.51698-.710226-.969214-1.485199-1.3567-2.324919-.387487-.83972-.743098-1.615688-1.065837-2.325914-.387486-.83972-.743097-1.711315-1.065836-2.615782v-6.492638c0-.904467-.177308-1.824872-.532919-2.761214-.355611-.937339-.532918-2.148607-.532918-3.633806v-5.426801c.129494-.645479.290864-1.291954.484109-1.937432.129494-.516981.258988-1.033961.388482-1.550942.128498-.515984.193246-.871595.193246-1.065836-.193246-.904467-.387487-1.711316-.581728-2.422537-.322739-1.420452-.484109-2.421541-.484109-3.003269.129494-.51698.290864-1.033961.484109-1.550942.129494-.452233.258988-.871595.388482-1.259081.128498-.387487.193246-.711222.193246-.969214v-5.329183c0-.452234-.387487-.83972-1.16246-1.162459-.775968-.323736-1.631626-.597666-2.567968-.823782-.936343-.226117-1.776063-.452234-2.51916-.678351-.743097-.226116-1.08277-.501042-1.018023-.823782 0-.839719.355611-1.679439 1.065836-2.519159.711222-.83972 1.51807-1.260078 2.422537-1.260078l4.651829-1.0658366h1.840809c.387487 0 1.146522.1773076 2.277105.5329186 1.130584.355611 2.180483.532918 3.148701.532918h8.042583c.904467 0 1.437386.194241 1.598755.581728.16137.387486.243051.710225.243051.969214 0 1.420451-.194241 2.405603-.581728 2.954459-.387486.549852-.888529.904467-1.502132 1.065836-.613603.162366-1.260078.243051-1.938428.243051-.677354 0-1.323829.145432-1.937432.4353-.613603.290863-1.114646.839719-1.502132 1.647564-.387487.807844-.580732 2.115735-.580732 3.924669 0 .193245.031876.500047.096623.920405s.145432.871595.242054 1.3567c.096623.484109.194242.936342.290864 1.3567.096623.419362.145432.726164.145432.920405v23.740265c-.387486.83972-.485105 1.372638-.290864 1.598755.193245.226116.290864.596669.290864 1.113649l1.065837 2.616779c.645478.969214 1.259081 1.744186 1.840809 2.324918.581728.581728 1.227206 1.049899 1.938428 1.40551.710226.355611 1.549945.597665 2.519159.727159.969214.128498 2.196421.193245 3.681619.193245.452234 0 1.227206-.193245 2.325915-.581727 1.097712-.387487 2.131673-.83972 3.100887-1.355705.193245-.452233.500046-.888529.920404-1.308887.419362-.419362.920405-1.001089 1.502133-1.744187.580731-.742101 1.211268-1.711315 1.889618-2.906645.678351-1.195331 1.404514-2.794086 2.179487-4.796265v-3.779237c0-.452234.032871-1.291954.097618-2.51916.063751-1.227206.144436-2.519159.242055-3.87586.096622-1.3567.193245-2.632716.290864-3.828047.096622-1.194334.144435-1.986241.144435-2.373727"/><path d="m234.64442 98.9594397c2.197417 0 3.65074.6136031 4.360965 1.8408093.710226 1.227206 1.065837 2.51916 1.065837 3.87586 0 .194241-.145432.485105-.436296.872591-.289868.387487-.645479.774973-1.065837 1.16246-.419361.387486-.839719.727159-1.259081 1.018023-.420358.289868-.759035.435299-1.018024.435299h-1.647564c-.451237 0-.838724.032872-1.162459.097619-.83972.128498-1.421447.354615-1.744187.67835-.968218 0-1.695377.209183-2.180482.629541-.484109.419362-.855658.95228-1.11365 1.598755-.257992.645479-.403424 1.3567-.436296 2.131673-.031875.774973-.047813 1.485199-.047813 2.131673v13.468389c0 .711222.096623 1.260078.289868 1.647565.194241.387486.355611.743097.485105 1.065836.322739.387487.500047.774973.532918 1.163456.031876.387486.047813.806848.047813 1.259081l-.289867 3.19751c0 .904467.128498 1.792996.387486 2.664591.257992.872592.387486 1.502133.387486 1.889619l1.16246 2.713401v2.713401c0 1.162459.565789 1.970303 1.695377 2.422537 1.130584.452233 2.35779.822786 3.682615 1.113649 1.323829.290864 2.552031.613604 3.681618.969214 1.130584.355611 1.696374 1.018024 1.696374 1.986242 0 1.938428-.904467 2.907642-2.713401 2.907642h-3.488373c-.452234 0-.936343.015937-1.453323.047813-.516981.032872-1.033961.210179-1.549946.532918l-8.042583-.580731h-4.554211c-.194241 0-.646474.031875-1.3567.096622-.711222.064747-1.470257.129494-2.277105.193245-.807844.064747-1.566879.129495-2.277105.194242-.711222.064747-1.163455.096622-1.3567.096622-.969214 0-1.663502-.064747-2.08386-.193245-.419362-.129494-.629541-.613603-.629541-1.454319 0-.903471.242054-1.888623.727159-2.954459.484109-1.065837 1.404514-1.598755 2.761214-1.598755h5.620047c.452233 0 .823782-.145432 1.114646-.436296s.484109-.646474.580731-1.065836c.097619-.420358.16137-.83972.194242-1.260078.031875-.419362.048809-.759035.048809-1.017027 0-.83972-.178304-1.841806-.532918-3.004265-.355611-1.162459-.532919-1.970303-.532919-2.422537v-9.10842c0-.257992-.048809-.694288-.145431-1.307891-.097619-.613603-.243051-1.227206-.436296-1.84081-.194241-.613603-.403424-1.146521-.629541-1.598754-.226117-.452234-.469167-.678351-.72716-.678351-.129494 0-.403424.27393-.823782.823782-.419362.548857-.904467 1.259082-1.453323 2.131674-.548856.871595-1.162459 1.840809-1.840809 2.906646-.67835 1.065836-1.324825 2.115735-1.938428 3.1487-.613603 1.033961-1.178397 1.970303-1.695377 2.811019-.516981.838724-.904467 1.485199-1.16246 1.937432-.51698.387487-.953276.904467-1.308887 1.549946-.354615.646475-.661416 1.308887-.920404 1.987237-.257993.67835-.484109 1.356701-.678351 2.034055-.193245.67835-.387486 1.24414-.580731 1.696373-.516981.904467-1.018023 1.695378-1.502132 2.373728-.485105.67835-.88853 1.243144-1.211269 1.695377-.51698 1.098708-.872591 1.728249-1.065836 1.889619-.194242.16137-.548857.243051-1.065837.243051-.774973 0-1.276016-.258989-1.502132-.775969-.226117-.516981-.629541-1.259082-1.211269-2.228296l-.774973-5.910911c-.452233-1.162459-.969214-2.357789-1.550941-3.584996-.580732-1.227206-1.11365-2.471346-1.598755-3.730428-.484109-1.260078-.887533-2.503221-1.211269-3.730428-.322739-1.228202-.484109-2.390661-.484109-3.488373v-1.065837c0-.258988-.096622-.695284-.290863-1.308887-.193245-.613603-.419362-1.227206-.678351-1.840809-.257992-.613603-.548856-1.146522-.871595-1.598755-.323735-.452234-.613603-.67835-.872591-.67835-.193245 0-.452234.290863-.774973.872591-.322739.580732-.629541 1.259082-.920405 2.034055-.290864.775968-.532918 1.566879-.727159 2.374723-.193245.806849-.289868 1.404514-.289868 1.792v6.685884c-.258988 1.679439-.516981 3.197509-.775969 4.55421-.193245 1.163455-.371548 2.294039-.532918 3.391751s-.242055 1.776062-.242055 2.03505c0 1.808934.32274 3.03614.969214 3.681619.645479.646475 1.356701 1.065836 2.131674 1.260078.774972.193245 1.485198.387486 2.131673.581727.646474.193245.969214.774973.969214 1.743191 0 .711222-.145432 1.24414-.436296 1.599751-.290864.354615-.629541.613603-1.017027.774973-.387487.161369-.775969.257992-1.163456.290864-.387486.031875-.67835.047813-.871595.047813h-3.779237l-9.205043-1.646568h-3.488374c-.194241.128498-.420358.226116-.67835.289867-.387486.194242-.807844.290864-1.260078.290864h-1.840809c-.194241 0-.484109-.031875-.871595-.096622-.388483-.064747-.775969-.177308-1.163455-.339674-.387487-.161369-.726164-.338677-1.017028-.532918-.290864-.193245-.436295-.419362-.436295-.67835 0-.645479.242054-1.210272.727159-1.695377.484109-.484109 1.032965-.88853 1.646568-1.211269s1.211269-.548856 1.792996-.67835c.581728-.128498.969214-.193245 1.162459-.193245h1.938428c.193246 0 .580732-.032872 1.16246-.097619.581727-.063751 1.19533-.16137 1.840809-.289868.711222-.129494 1.51807-.258988 2.422537-.387486.452233-.452233.904467-1.24414 1.3567-2.374724.452234-1.130583.83972-2.293043 1.162459-3.488373.323736-1.194335.597666-2.293043.823783-3.294133.226116-1.001089.339673-1.631626.339673-1.889618v-4.55421c.193245-.194242.355611-.501043.484109-.920405.129494-.420358.226116-.855658.290863-1.307891.064748-.516981.096623-1.033961.096623-1.550942v-4.359969c0-.258988.048809-.646474.145432-1.163455.096623-.515984.210179-1.032965.339673-1.549945.193245-.581728.387486-1.195331.580732-1.84081v-2.7134c.129494-.387487.258988-.774973.387486-1.16246.129494-.323735.226117-.67835.290864-1.065836.064747-.387487.096622-.807845.096622-1.260078v-2.131673c0-.194241-.096622-.629541-.289867-1.307891-.194242-.67835-.420358-1.372638-.678351-2.08386-.258988-.83972-.548856-1.776062-.872591-2.810024-.322739-.452233-.774973-.871595-1.3567-1.259081-.580732-.387487-1.129588-.775969-1.646568-1.163455-.387487-.32274-.856654-.629541-1.40551-.920405s-.985152-.726164-1.307891-1.307891v-1.065837c0-.387486.161369-.67835.484109-.872591.323735-.193245.711222-.354615 1.163455-.484109s1.001089-.193245 1.646568-.193245h2.422537c.646475 0 1.114646-.04881 1.40551-.145432.290864-.097619.500046-.226117.629541-.387487.129494-.162365.226116-.290863.290863-.3884821.064748-.0966225.193246-.1444358.387487-.1444358h6.395019l2.713401 1.0658369c.645479 1.679439 1.340763 3.730428 2.08386 6.152965.742101 2.422537 1.501136 4.989509 2.276109 7.70291.775969 2.713401 1.535004 5.409868 2.277105 8.091393.743097 2.680529 1.454319 5.087129 2.131673 7.218802.67835 2.131673 1.276016 3.859922 1.792996 5.183751.516981 1.323829.937339 1.986241 1.260078 1.986241.128498-.322739.290864-.613603.484109-.871595.129494-.258989.306802-.532919.532918-.823782.226117-.290864.436296-.532919.629541-.72716.969214-3.294132 2.277105-6.717759 3.924669-10.270879 1.647565-3.553121 3.116825-6.943876 4.408779-10.174257 0-1.356701.40442-2.536094 1.211268-3.537183.807844-1.00109 1.663502-2.179486 2.567969-3.536187.194241-.452233.322739-1.049899.387486-1.792996s.178304-1.485198.339674-2.228296c.161369-.743097.435299-1.437385.823782-2.08386.387486-.645478 1.032965-1.097712 1.937432-1.3557039h3.779237l1.3567.7749729c.904467 0 1.744187-.080685 2.51916-.242055.774973-.162365 1.51807-.339673 2.228296-.5329179.711221-.2589883 1.453322-.5498521 2.228295-.8725914"/></g></svg>