<svg height="217" preserveAspectRatio="xMidYMid" viewBox="0 0 256 217" width="256" xmlns="http://www.w3.org/2000/svg"><path d="m233.979964 10.4111612-206.4888456-10.38553362c-15.2728435-.61091375-27.4911184 9.77461989-27.4911184 23.21472222v9.7746199l255.972858 7.9418787v-7.9418787c.610914-12.2182749-9.163706-21.9928947-21.992894-22.6038085zm-201.6015356 9.7746199c0 1.8327412-1.8327412 4.2763962-4.2763962 4.2763962h-7.9418787c-1.8327412 0-4.2763962-1.8327412-4.2763962-4.2763962v-7.3309649c0-1.8327412 1.8327413-4.27639622 4.2763962-4.27639622h7.9418787c1.8327412 0 4.2763962 1.83274122 4.2763962 4.27639622zm27.4911184.6109137c0 1.8327413-1.8327412 4.2763962-4.2763962 3.0545688h-7.3309649c-1.8327412 0-4.2763962-1.8327413-4.2763962-4.2763962v-7.330965c0-1.8327412 1.8327412-4.27639616 4.2763962-3.05456868h7.9418787c1.8327412 0 4.2763962 1.83274128 4.2763962 4.27639618v7.3309649zm26.269291.6109138c0 1.8327412-1.8327412 4.2763962-4.2763962 3.0545687h-7.9418787c-1.8327412 0-4.2763962-1.8327412-4.2763962-4.2763962v-7.3309649c0-1.8327412 1.8327413-4.27639622 4.2763962-3.05456873h7.9418787c1.8327412 0 4.2763962 1.83274123 4.2763962 4.27639623zm-86.1388378 172.2776754c0 13.440103 12.8291886 23.214722 27.4911184 23.214722l206.4888456-10.385533c12.218275-.610914 21.992894-10.385534 21.992894-22.603809v-133.7901095l-255.972858-7.9418786zm114.851784-96.5243712c-4.88731-4.88731-4.88731-12.2182749 0-17.1055849 4.88731-4.8873099 12.829188-4.2763962 17.716498 0l34.822084 32.3784281c4.88731 4.276397 4.88731 12.218275 0 15.272844l-34.822084 32.989342c-4.88731 4.88731-12.829188 4.88731-17.716498 0-4.88731-4.276396-4.88731-12.218275 0-17.105585l26.269291-24.436549c0 2.443654-26.269291-21.9928952-26.269291-21.9928952z" fill="#ccadd2"/></svg>