<svg height="256" preserveAspectRatio="xMidYMid" viewBox="0 0 256 256" width="256" xmlns="http://www.w3.org/2000/svg" xmlns:xlink="http://www.w3.org/1999/xlink"><linearGradient id="a" x1="50%" x2="50%" y1="100%" y2="0%"><stop offset=".25" stop-color="#dbdbda"/><stop offset="1" stop-color="#fff"/></linearGradient><filter id="b" height="200%" width="200%" x="-50%" y="-50%"><feOffset dx="0" dy="2" in="SourceAlpha" result="shadowOffsetOuter1"/><feGaussianBlur in="shadowOffsetOuter1" result="shadowBlurOuter1" stdDeviation="2"/><feColorMatrix in="shadowBlurOuter1" result="shadowMatrixOuter1" type="matrix" values="0 0 0 0 0   0 0 0 0 0   0 0 0 0 0  0 0 0 0.266007133 0"/><feMerge><feMergeNode in="shadowMatrixOuter1"/><feMergeNode in="SourceGraphic"/></feMerge></filter><radialGradient id="c" cx="57.025421%" cy="39.016741%" r="61.031569%"><stop offset="0" stop-color="#2abce1"/><stop offset=".113629426" stop-color="#2abbe1"/><stop offset="1" stop-color="#3375f8"/></radialGradient><linearGradient id="d" x1="49.050252%" x2="25.712896%" y1="35.703449%" y2="77.571889%"><stop offset="0" stop-opacity="0"/><stop offset="1"/></linearGradient><filter id="e" height="200%" width="200%" x="-50%" y="-50%"><feOffset dx="0" dy="1" in="SourceAlpha" result="shadowOffsetOuter1"/><feGaussianBlur in="shadowOffsetOuter1" result="shadowBlurOuter1" stdDeviation="2"/><feColorMatrix in="shadowBlurOuter1" result="shadowMatrixOuter1" type="matrix" values="0 0 0 0 0   0 0 0 0 0   0 0 0 0 0  0 0 0 13 0"/><feMerge><feMergeNode in="shadowMatrixOuter1"/><feMergeNode in="SourceGraphic"/></feMerge></filter><g transform="translate(4 2)"><circle cx="124" cy="124" fill="url(#a)" filter="url(#b)" r="124"/><circle cx="124" cy="124" fill="url(#c)" r="114.7"/><g transform="translate(9.6875 8.71875)"><path d="m114.50625 28.48125c-.775 0-1.453125-.58125-1.453125-1.35625v-20.246875c0-.775.678125-1.35625 1.453125-1.35625s1.453125.58125 1.453125 1.35625v20.246875c-.096875.775-.678125 1.35625-1.453125 1.35625z" fill="#f3f3f3"/><path d="m114.50625 28.578125c-.871875 0-1.55-.678125-1.55-1.453125v-20.246875c0-.775.678125-1.453125 1.55-1.453125s1.55.678125 1.55 1.453125v20.246875c0 .775-.775 1.453125-1.55 1.453125zm0-22.959375c-.678125 0-1.35625.58125-1.35625 1.259375v20.246875c0 .678125.58125 1.259375 1.35625 1.259375.678125 0 1.35625-.58125 1.35625-1.259375v-20.246875c-.096875-.678125-.678125-1.259375-1.35625-1.259375z" fill="#fff"/><path d="m124.19375 17.63125c-.775-.096875-1.35625-.678125-1.35625-1.453125l.678125-9.009375c.096875-.775.775-1.35625 1.55-1.259375s1.35625.678125 1.35625 1.453125l-.678125 9.009375c-.096875.775-.775 1.35625-1.55 1.259375z" fill="#f3f3f3"/><path d="m124.19375 17.728125c-.871875-.096875-1.453125-.775-1.453125-1.55l.678125-9.009375c.096875-.775.775-1.453125 1.646875-1.35625s1.453125.775 1.453125 1.55l-.678125 9.009375c-.096875.871875-.775 1.453125-1.646875 1.35625zm.871875-11.721875c-.678125 0-1.35625.484375-1.35625 1.1625l-.678125 9.009375c0 .678125.484375 1.259375 1.259375 1.35625.678125 0 1.35625-.484375 1.35625-1.1625l.678125-9.009375c0-.678125-.58125-1.259375-1.259375-1.35625z" fill="#fff"/><path d="m131.459375 30.225c-.775-.19375-1.259375-.871875-1.1625-1.646875l3.971875-19.859375c.19375-.775.871875-1.259375 1.646875-1.065625s1.259375.871875 1.1625 1.646875l-3.971875 19.859375c-.096875.678125-.871875 1.1625-1.646875 1.065625z" fill="#f3f3f3"/><path d="m131.459375 30.321875c-.871875-.19375-1.35625-.96875-1.259375-1.74375l3.971875-19.859375c.19375-.775.96875-1.35625 1.840625-1.1625s1.35625.96875 1.259375 1.74375l-3.971875 19.859375c-.19375.775-.96875 1.259375-1.840625 1.1625zm4.553125-22.571875c-.678125-.096875-1.35625.290625-1.55.96875l-3.971875 19.859375c-.096875.678125.290625 1.35625 1.065625 1.55.678125.096875 1.35625-.290625 1.55-.96875l3.971875-19.859375c.096875-.775-.3875-1.35625-1.065625-1.55z" fill="#fff"/><path d="m143.084375 21.50625c-.775-.19375-1.259375-.96875-1.065625-1.74375l2.421875-8.71875c.19375-.775.96875-1.1625 1.74375-.96875s1.259375.96875 1.065625 1.74375l-2.421875 8.71875c-.19375.775-.96875 1.1625-1.74375.96875z" fill="#f3f3f3"/><path d="m143.084375 21.603125c-.775-.19375-1.35625-1.065625-1.065625-1.840625l2.421875-8.71875c.19375-.775 1.065625-1.259375 1.840625-1.065625s1.35625 1.065625 1.065625 1.840625l-2.421875 8.71875c-.19375.775-.96875 1.259375-1.840625 1.065625zm3.196875-11.334375c-.678125-.19375-1.453125.19375-1.646875.871875l-2.421875 8.71875c-.19375.678125.19375 1.35625.96875 1.55.678125.19375 1.453125-.19375 1.646875-.871875l2.421875-8.71875c.096875-.678125-.290625-1.35625-.96875-1.55z" fill="#fff"/><path d="m147.83125 35.165625c-.775-.290625-1.065625-1.1625-.775-1.840625l7.75-18.696875c.290625-.678125 1.1625-1.065625 1.840625-.678125.775.290625 1.065625 1.1625.775 1.840625l-7.75 18.696875c-.290625.678125-1.1625 1.065625-1.840625.678125z" fill="#f3f3f3"/><path d="m147.83125 35.2625c-.775-.290625-1.1625-1.1625-.871875-1.9375l7.75-18.696875c.290625-.775 1.1625-1.065625 2.034375-.775.775.290625 1.1625 1.1625.871875 1.9375l-7.75 18.696875c-.3875.775-1.259375 1.1625-2.034375.775zm8.815625-21.215625c-.678125-.290625-1.453125 0-1.74375.678125l-7.75 18.696875c-.290625.678125.096875 1.35625.775 1.646875s1.453125 0 1.74375-.678125l7.75-18.696875c.19375-.58125-.096875-1.35625-.775-1.646875z" fill="#fff"/><path d="m160.909375 28.965625c-.678125-.3875-.96875-1.1625-.678125-1.840625l4.06875-8.040625c.3875-.678125 1.1625-.96875 1.9375-.58125.678125.3875.96875 1.1625.678125 1.840625l-4.06875 8.040625c-.3875.678125-1.1625.96875-1.9375.58125z" fill="#f3f3f3"/><path d="m160.909375 29.0625c-.775-.3875-1.065625-1.259375-.678125-2.034375l4.06875-8.040625c.3875-.775 1.259375-1.065625 2.034375-.678125s1.065625 1.259375.678125 2.034375l-4.06875 8.040625c-.3875.775-1.259375 1.065625-2.034375.678125zm5.328125-10.559375c-.678125-.290625-1.453125-.096875-1.74375.58125l-4.06875 8.040625c-.290625.58125 0 1.35625.58125 1.74375.678125.290625 1.453125.096875 1.74375-.58125l4.06875-8.040625c.290625-.58125 0-1.35625-.58125-1.74375z" fill="#fff"/><path d="m162.846875 43.303125c-.678125-.484375-.871875-1.35625-.3875-1.9375l11.2375-16.759375c.3875-.678125 1.259375-.775 1.9375-.3875.678125.484375.871875 1.35625.3875 1.9375l-11.2375 16.759375c-.3875.678125-1.259375.871875-1.9375.3875z" fill="#f3f3f3"/><path d="m162.846875 43.4c-.678125-.484375-.871875-1.453125-.484375-2.13125l11.2375-16.759375c.484375-.678125 1.35625-.871875 2.13125-.3875.678125.484375.871875 1.453125.484375 2.13125l-11.2375 16.759375c-.484375.678125-1.453125.871875-2.13125.3875zm12.7875-19.084375c-.58125-.3875-1.453125-.290625-1.840625.290625l-11.2375 16.759375c-.3875.58125-.19375 1.35625.3875 1.74375s1.453125.290625 1.840625-.290625l11.2375-16.6625c.3875-.58125.19375-1.453125-.3875-1.840625z" fill="#fff"/><path d="m176.990625 39.71875c-.58125-.484375-.775-1.35625-.290625-1.9375l5.61875-7.071875c.484375-.58125 1.35625-.678125 1.9375-.19375s.775 1.35625.290625 1.9375l-5.61875 7.071875c-.484375.58125-1.35625.678125-1.9375.19375z" fill="#f3f3f3"/><path d="m176.89375 39.815625c-.678125-.484375-.775-1.453125-.290625-2.13125l5.61875-7.071875c.484375-.678125 1.453125-.775 2.13125-.19375.678125.484375.775 1.453125.290625 2.13125l-5.61875 7.071875c-.484375.678125-1.453125.775-2.13125.19375zm7.265625-9.203125c-.58125-.484375-1.35625-.3875-1.840625.19375l-5.61875 7.071875c-.3875.58125-.290625 1.35625.290625 1.840625s1.35625.3875 1.840625-.19375l5.61875-7.071875c.3875-.58125.290625-1.453125-.290625-1.840625z" fill="#fff"/><path d="m176.021875 54.25c-.58125-.58125-.58125-1.453125 0-1.9375l14.3375-14.240625c.58125-.58125 1.453125-.484375 1.9375 0s.58125 1.453125 0 1.9375l-14.240625 14.240625c-.58125.58125-1.453125.58125-2.034375 0z" fill="#f3f3f3"/><path d="m175.925 54.346875c-.58125-.58125-.58125-1.55 0-2.13125l14.3375-14.240625c.58125-.58125 1.55-.58125 2.13125 0s.58125 1.55 0 2.13125l-14.3375 14.240625c-.58125.58125-1.55.58125-2.13125 0zm16.371875-16.275c-.484375-.484375-1.35625-.484375-1.840625 0l-14.3375 14.240625c-.484375.484375-.484375 1.35625 0 1.840625s1.35625.484375 1.840625 0l14.3375-14.240625c.484375-.484375.484375-1.259375 0-1.840625z" fill="#fff"/><path d="m190.553125 53.475c-.484375-.58125-.484375-1.453125.096875-1.9375l6.878125-5.8125c.58125-.484375 1.453125-.3875 1.9375.19375s.484375 1.453125-.096875 1.9375l-6.878125 5.8125c-.58125.484375-1.453125.3875-1.9375-.19375z" fill="#f3f3f3"/><path d="m190.45625 53.571875c-.58125-.678125-.484375-1.646875.096875-2.13125l6.878125-5.8125c.58125-.58125 1.55-.484375 2.13125.19375s.484375 1.646875-.096875 2.13125l-6.878125 5.8125c-.58125.58125-1.55.484375-2.13125-.19375zm8.9125-7.653125c-.484375-.58125-1.259375-.58125-1.840625-.19375l-6.878125 5.8125c-.484375.484375-.58125 1.259375-.096875 1.840625s1.259375.58125 1.840625.19375l6.878125-5.8125c.58125-.484375.58125-1.259375.096875-1.840625z" fill="#fff"/><path d="m186.678125 67.425c-.484375-.678125-.290625-1.55.3875-1.9375l16.85625-11.2375c.678125-.3875 1.55-.19375 1.9375.3875.484375.678125.290625 1.55-.3875 1.9375l-16.85625 11.2375c-.58125.3875-1.453125.19375-1.9375-.3875z" fill="#f3f3f3"/><path d="m186.58125 67.425c-.484375-.678125-.290625-1.646875.3875-2.13125l16.85625-11.2375c.678125-.484375 1.646875-.290625 2.13125.484375.484375.678125.290625 1.646875-.3875 2.13125l-16.85625 11.2375c-.678125.484375-1.646875.290625-2.13125-.484375zm19.18125-12.690625c-.3875-.58125-1.1625-.775-1.74375-.3875l-16.85625 11.2375c-.58125.3875-.775 1.1625-.290625 1.840625.3875.58125 1.1625.775 1.74375.3875l16.85625-11.2375c.58125-.484375.678125-1.259375.290625-1.840625z" fill="#fff"/><path d="m201.1125 69.459375c-.3875-.678125-.19375-1.55.484375-1.9375l7.846875-4.45625c.678125-.3875 1.55-.096875 1.9375.58125s.19375 1.55-.484375 1.9375l-7.846875 4.45625c-.678125.3875-1.55.096875-1.9375-.58125z" fill="#f3f3f3"/><path d="m201.015625 69.55625c-.3875-.775-.19375-1.646875.484375-2.034375l7.846875-4.45625c.678125-.3875 1.646875-.096875 2.034375.58125.3875.775.19375 1.646875-.484375 2.034375l-7.846875 4.45625c-.678125.3875-1.646875.096875-2.034375-.58125zm10.26875-5.8125c-.3875-.678125-1.1625-.871875-1.74375-.484375l-7.846875 4.45625c-.58125.3875-.775 1.1625-.484375 1.74375.3875.678125 1.1625.871875 1.74375.484375l7.846875-4.45625c.58125-.290625.775-1.065625.484375-1.74375z" fill="#fff"/><path d="m194.621875 82.34375c-.290625-.775 0-1.55.775-1.840625l18.696875-7.75c.678125-.290625 1.55.096875 1.840625.775.290625.775 0 1.55-.775 1.840625l-18.696875 7.75c-.678125.290625-1.55 0-1.840625-.775z" fill="#f3f3f3"/><path d="m194.525 82.440625c-.290625-.775 0-1.646875.775-2.034375l18.696875-7.75c.775-.290625 1.646875.096875 1.9375.871875s0 1.646875-.775 2.034375l-18.696875 7.75c-.775.290625-1.646875-.096875-1.9375-.871875zm21.215625-8.815625c-.290625-.678125-1.065625-.96875-1.646875-.775l-18.696875 7.75c-.678125.290625-.96875 1.065625-.678125 1.74375s1.065625.96875 1.646875.775l18.696875-7.75c.678125-.290625.96875-1.065625.678125-1.74375z" fill="#fff"/><path d="m208.28125 87.1875c-.290625-.775.096875-1.55.871875-1.840625l8.525-2.809375c.678125-.290625 1.55.19375 1.74375.871875.290625.775-.096875 1.55-.871875 1.840625l-8.525 2.809375c-.678125.290625-1.453125-.096875-1.74375-.871875z" fill="#f3f3f3"/><path d="m208.184375 87.284375c-.290625-.775.096875-1.646875.96875-1.9375l8.525-2.809375c.775-.290625 1.646875.19375 1.9375.96875s-.096875 1.646875-.96875 1.9375l-8.525 2.809375c-.775.19375-1.646875-.19375-1.9375-.96875zm11.2375-3.68125c-.19375-.678125-.96875-1.065625-1.646875-.871875l-8.525 2.809375c-.678125.19375-.96875.96875-.775 1.646875s.96875 1.065625 1.646875.871875l8.525-2.809375c.678125-.290625.96875-.96875.775-1.646875z" fill="#fff"/><path d="m199.5625 98.715625c-.19375-.775.290625-1.55 1.065625-1.646875l19.859375-3.875c.775-.19375 1.453125.3875 1.646875 1.1625s-.290625 1.55-1.065625 1.646875l-19.859375 3.875c-.775.096875-1.55-.3875-1.646875-1.1625z" fill="#f3f3f3"/><path d="m199.36875 98.715625c-.19375-.871875.3875-1.646875 1.1625-1.840625l19.859375-3.875c.775-.19375 1.55.3875 1.74375 1.259375s-.3875 1.646875-1.1625 1.840625l-19.859375 3.875c-.775.19375-1.55-.3875-1.74375-1.259375zm22.571875-4.359375c-.096875-.678125-.775-1.1625-1.453125-1.065625l-19.859375 3.875c-.678125.096875-1.1625.871875-.96875 1.55.096875.678125.775 1.1625 1.453125 1.065625l19.859375-3.875c.678125-.19375 1.1625-.871875.96875-1.55z" fill="#fff"/><path d="m211.9625 106.175c-.096875-.775.3875-1.453125 1.1625-1.55l8.9125-1.065625c.775-.096875 1.453125.484375 1.55 1.259375s-.3875 1.453125-1.1625 1.55l-8.9125 1.065625c-.678125.096875-1.453125-.484375-1.55-1.259375z" fill="#f3f3f3"/><path d="m211.865625 106.175c-.096875-.871875.484375-1.646875 1.259375-1.74375l8.9125-1.065625c.775-.096875 1.55.484375 1.646875 1.35625s-.484375 1.646875-1.259375 1.74375l-8.9125 1.065625c-.775.096875-1.55-.484375-1.646875-1.35625zm11.721875-1.35625c-.096875-.678125-.775-1.259375-1.453125-1.1625l-8.9125 1.065625c-.678125.096875-1.1625.775-1.065625 1.453125s.775 1.259375 1.453125 1.1625l8.9125-1.065625c.678125-.096875 1.1625-.775 1.065625-1.453125z" fill="#fff"/><path d="m201.1125 115.571875c0-.775.58125-1.453125 1.35625-1.453125h20.246875c.775 0 1.35625.678125 1.35625 1.453125s-.58125 1.453125-1.35625 1.453125h-20.246875c-.775 0-1.35625-.678125-1.35625-1.453125z" fill="#f3f3f3"/><path d="m201.015625 115.571875c0-.871875.678125-1.55 1.453125-1.55h20.246875c.775 0 1.453125.678125 1.453125 1.55s-.678125 1.55-1.453125 1.55h-20.246875c-.775 0-1.453125-.678125-1.453125-1.55zm22.959375.096875c0-.678125-.58125-1.35625-1.259375-1.35625h-20.246875c-.678125 0-1.259375.58125-1.259375 1.35625 0 .678125.58125 1.35625 1.259375 1.35625h20.246875c.678125-.096875 1.259375-.678125 1.259375-1.35625z" fill="#fff"/><path d="m211.865625 125.35625c.096875-.775.678125-1.35625 1.453125-1.35625l9.009375.678125c.775.096875 1.35625.775 1.259375 1.55s-.678125 1.35625-1.453125 1.35625l-9.009375-.678125c-.678125-.096875-1.259375-.775-1.259375-1.55z" fill="#f3f3f3"/><path d="m211.76875 125.35625c.096875-.871875.775-1.453125 1.55-1.453125l9.009375.678125c.775.096875 1.453125.775 1.35625 1.646875s-.775 1.453125-1.55 1.453125l-9.009375-.678125c-.775-.096875-1.35625-.871875-1.35625-1.646875zm11.81875.871875c.096875-.678125-.484375-1.35625-1.1625-1.35625l-9.009375-.678125c-.678125 0-1.259375.484375-1.35625 1.259375-.096875.678125.484375 1.35625 1.1625 1.35625l9.009375.678125c.678125 0 1.259375-.58125 1.35625-1.259375z" fill="#fff"/><path d="m199.36875 132.428125c.19375-.775.871875-1.259375 1.646875-1.1625l19.859375 3.971875c.775.19375 1.259375.871875 1.065625 1.646875s-.871875 1.259375-1.646875 1.1625l-19.859375-3.971875c-.678125-.096875-1.1625-.871875-1.065625-1.646875z" fill="#f3f3f3"/><path d="m199.271875 132.428125c.19375-.871875.96875-1.35625 1.74375-1.259375l19.859375 3.971875c.775.19375 1.35625.96875 1.1625 1.840625s-.96875 1.35625-1.74375 1.259375l-19.859375-3.971875c-.775-.19375-1.259375-.96875-1.1625-1.840625zm22.571875 4.553125c.096875-.678125-.290625-1.35625-.96875-1.55l-19.859375-3.971875c-.678125-.096875-1.35625.290625-1.55 1.065625-.096875.678125.290625 1.35625.96875 1.55l19.859375 3.971875c.775.096875 1.35625-.3875 1.55-1.065625z" fill="#fff"/><path d="m208.0875 144.053125c.19375-.775.96875-1.259375 1.74375-1.065625l8.71875 2.421875c.775.19375 1.1625.96875.96875 1.74375s-.96875 1.259375-1.74375 1.065625l-8.71875-2.421875c-.775-.19375-1.1625-.96875-.96875-1.74375z" fill="#f3f3f3"/><path d="m207.990625 144.053125c.19375-.775 1.065625-1.35625 1.840625-1.065625l8.71875 2.421875c.775.19375 1.259375 1.065625 1.065625 1.840625s-1.065625 1.35625-1.840625 1.065625l-8.71875-2.421875c-.775-.19375-1.259375-.96875-1.065625-1.840625zm11.334375 3.196875c.19375-.678125-.19375-1.453125-.871875-1.646875l-8.71875-2.421875c-.678125-.19375-1.35625.19375-1.55.96875-.19375.678125.19375 1.453125.871875 1.646875l8.71875 2.421875c.678125.096875 1.35625-.290625 1.55-.96875z" fill="#fff"/><path d="m194.428125 148.703125c.290625-.775 1.1625-1.065625 1.840625-.775l18.696875 7.75c.678125.290625 1.065625 1.1625.775 1.840625-.290625.775-1.1625 1.065625-1.840625.775l-18.696875-7.75c-.775-.290625-1.065625-1.1625-.775-1.840625z" fill="#f3f3f3"/><path d="m194.33125 148.60625c.290625-.775 1.1625-1.1625 1.9375-.871875l18.696875 7.75c.775.290625 1.065625 1.1625.775 2.034375-.290625.775-1.1625 1.1625-1.9375.871875l-18.696875-7.75c-.775-.3875-1.065625-1.259375-.775-2.034375zm21.215625 8.815625c.290625-.678125 0-1.453125-.678125-1.74375l-18.696875-7.75c-.678125-.290625-1.35625.096875-1.646875.775s0 1.453125.678125 1.74375l18.696875 7.75c.678125.19375 1.453125-.096875 1.646875-.775z" fill="#fff"/><path d="m200.725 161.78125c.3875-.678125 1.1625-.96875 1.840625-.678125l8.040625 4.06875c.678125.290625.96875 1.1625.58125 1.9375-.3875.678125-1.1625.96875-1.840625.678125l-8.040625-4.06875c-.678125-.3875-.96875-1.259375-.58125-1.9375z" fill="#f3f3f3"/><path d="m200.628125 161.684375c.3875-.775 1.259375-1.065625 2.034375-.678125l8.040625 4.06875c.775.3875 1.065625 1.259375.678125 2.034375s-1.259375 1.065625-2.034375.678125l-8.040625-4.06875c-.775-.290625-1.065625-1.259375-.678125-2.034375zm10.4625 5.328125c.290625-.678125.096875-1.453125-.58125-1.74375l-8.040625-4.06875c-.58125-.290625-1.35625 0-1.74375.58125-.290625.678125-.096875 1.453125.58125 1.74375l8.040625 4.06875c.678125.290625 1.453125.096875 1.74375-.58125z" fill="#fff"/><path d="m186.484375 163.621875c.484375-.678125 1.259375-.871875 1.9375-.3875l16.85625 11.2375c.678125.3875.775 1.259375.3875 1.9375-.484375.678125-1.259375.871875-1.9375.3875l-16.85625-11.2375c-.678125-.484375-.871875-1.35625-.3875-1.9375z" fill="#f3f3f3"/><path d="m186.3875 163.525c.484375-.678125 1.453125-.871875 2.13125-.484375l16.85625 11.2375c.678125.484375.871875 1.35625.3875 2.13125-.484375.678125-1.453125.871875-2.13125.484375l-16.85625-11.2375c-.775-.484375-.871875-1.453125-.3875-2.13125zm19.084375 12.7875c.3875-.58125.290625-1.453125-.290625-1.840625l-16.85625-11.2375c-.58125-.3875-1.35625-.19375-1.74375.3875s-.290625 1.453125.290625 1.840625l16.85625 11.2375c.58125.3875 1.35625.19375 1.74375-.3875z" fill="#fff"/><path d="m190.06875 177.66875c.484375-.58125 1.35625-.775 1.9375-.290625l7.071875 5.521875c.58125.484375.678125 1.35625.19375 1.9375s-1.35625.775-1.9375.290625l-7.071875-5.521875c-.58125-.484375-.678125-1.35625-.19375-1.9375z" fill="#f3f3f3"/><path d="m189.971875 177.571875c.484375-.678125 1.453125-.775 2.13125-.290625l7.071875 5.521875c.678125.484375.775 1.453125.290625 2.13125s-1.453125.775-2.13125.290625l-7.071875-5.521875c-.678125-.484375-.775-1.453125-.290625-2.13125zm9.3 7.265625c.484375-.58125.3875-1.35625-.19375-1.840625l-7.071875-5.521875c-.58125-.3875-1.35625-.290625-1.840625.290625s-.3875 1.35625.19375 1.840625l7.071875 5.521875c.58125.3875 1.35625.290625 1.840625-.290625z" fill="#fff"/><path d="m175.634375 176.7c.58125-.58125 1.453125-.58125 1.9375 0l14.3375 14.240625c.58125.58125.484375 1.453125 0 1.9375-.58125.58125-1.453125.58125-1.9375 0l-14.3375-14.240625c-.484375-.484375-.484375-1.453125 0-1.9375z" fill="#f3f3f3"/><path d="m175.634375 176.603125c.58125-.58125 1.55-.58125 2.13125 0l14.3375 14.240625c.58125.58125.58125 1.55 0 2.13125s-1.55.58125-2.13125 0l-14.3375-14.240625c-.678125-.58125-.678125-1.55 0-2.13125zm16.275 16.178125c.484375-.484375.484375-1.35625 0-1.840625l-14.3375-14.240625c-.484375-.484375-1.35625-.484375-1.840625 0s-.484375 1.35625 0 1.840625l14.3375 14.240625c.484375.58125 1.259375.58125 1.840625 0z" fill="#fff"/><path d="m176.50625 191.134375c.58125-.484375 1.453125-.484375 1.9375.096875l5.909375 6.78125c.484375.58125.3875 1.453125-.19375 1.9375s-1.453125.484375-1.9375-.096875l-5.909375-6.78125c-.484375-.484375-.3875-1.35625.19375-1.9375z" fill="#f3f3f3"/><path d="m176.409375 191.134375c.678125-.58125 1.55-.484375 2.13125.096875l5.909375 6.78125c.58125.58125.484375 1.55-.19375 2.13125s-1.55.484375-2.13125-.096875l-5.909375-6.78125c-.484375-.678125-.484375-1.646875.19375-2.13125zm7.75 8.815625c.58125-.484375.58125-1.259375.19375-1.840625l-5.909375-6.78125c-.484375-.484375-1.259375-.58125-1.840625-.096875s-.58125 1.259375-.19375 1.840625l5.909375 6.78125c.484375.58125 1.259375.58125 1.840625.096875z" fill="#fff"/><path d="m162.55625 187.453125c.678125-.484375 1.55-.290625 1.9375.3875l11.2375 16.759375c.3875.678125.19375 1.55-.3875 1.9375-.678125.484375-1.55.290625-1.9375-.3875l-11.2375-16.759375c-.3875-.678125-.19375-1.55.3875-1.9375z" fill="#f3f3f3"/><path d="m162.55625 187.35625c.678125-.484375 1.646875-.290625 2.13125.3875l11.2375 16.759375c.484375.678125.290625 1.646875-.484375 2.13125-.678125.484375-1.646875.290625-2.13125-.3875l-11.2375-16.759375c-.484375-.775-.290625-1.646875.484375-2.13125zm12.7875 19.084375c.58125-.3875.775-1.1625.3875-1.74375l-11.2375-16.759375c-.3875-.58125-1.1625-.678125-1.840625-.290625-.58125.3875-.775 1.1625-.3875 1.74375l11.2375 16.759375c.3875.484375 1.259375.678125 1.840625.290625z" fill="#fff"/><path d="m160.521875 201.790625c.678125-.3875 1.55-.19375 1.9375.484375l4.45625 7.846875c.3875.678125.096875 1.55-.58125 1.9375s-1.55.19375-1.9375-.484375l-4.45625-7.846875c-.290625-.678125-.096875-1.55.58125-1.9375z" fill="#f3f3f3"/><path d="m160.521875 201.69375c.775-.3875 1.646875-.19375 2.034375.484375l4.45625 7.846875c.3875.678125.19375 1.646875-.58125 2.034375s-1.646875.19375-2.034375-.484375l-4.45625-7.846875c-.3875-.678125-.19375-1.55.58125-2.034375zm5.8125 10.26875c.58125-.3875.871875-1.1625.484375-1.74375l-4.45625-7.846875c-.3875-.58125-1.1625-.775-1.74375-.484375-.58125.3875-.871875 1.1625-.484375 1.74375l4.45625 7.846875c.290625.58125 1.1625.871875 1.74375.484375z" fill="#fff"/><path d="m147.6375 195.396875c.775-.290625 1.55 0 1.840625.678125l7.846875 18.696875c.290625.678125-.096875 1.55-.775 1.840625s-1.55 0-1.840625-.678125l-7.846875-18.696875c-.290625-.678125.096875-1.55.775-1.840625z" fill="#f3f3f3"/><path d="m147.6375 195.3c.775-.290625 1.646875 0 2.034375.775l7.846875 18.696875c.290625.775-.096875 1.646875-.871875 1.9375s-1.646875 0-2.034375-.775l-7.846875-18.696875c-.290625-.678125.096875-1.55.871875-1.9375zm8.815625 21.215625c.678125-.290625.96875-1.065625.678125-1.646875l-7.846875-18.696875c-.290625-.678125-1.065625-.96875-1.74375-.678125s-.96875 1.065625-.678125 1.646875l7.846875 18.696875c.3875.678125 1.065625.96875 1.74375.678125z" fill="#fff"/><path d="m142.890625 209.153125c.775-.290625 1.55.096875 1.840625.871875l2.809375 8.525c.290625.678125-.19375 1.55-.871875 1.74375-.775.290625-1.55-.096875-1.840625-.871875l-2.809375-8.525c-.290625-.678125.096875-1.453125.871875-1.74375z" fill="#f3f3f3"/><path d="m142.79375 209.05625c.775-.290625 1.646875.096875 1.9375.871875l2.809375 8.525c.290625.775-.19375 1.646875-.96875 1.9375s-1.646875-.096875-1.9375-.871875l-2.809375-8.525c-.19375-.775.19375-1.646875.96875-1.9375zm3.778125 11.140625c.678125-.19375 1.065625-.96875.871875-1.646875l-2.809375-8.525c-.19375-.678125-.96875-.96875-1.646875-.775s-1.065625.96875-.871875 1.646875l2.809375 8.525c.19375.678125.96875 1.065625 1.646875.775z" fill="#fff"/><path d="m131.459375 200.3375c.775-.19375 1.55.290625 1.646875 1.065625l4.06875 19.859375c.19375.775-.3875 1.453125-1.1625 1.646875s-1.55-.290625-1.646875-1.065625l-4.06875-19.859375c-.096875-.678125.3875-1.453125 1.1625-1.646875z" fill="#f3f3f3"/><path d="m131.459375 200.240625c.871875-.19375 1.646875.3875 1.840625 1.1625l4.06875 19.859375c.19375.775-.3875 1.646875-1.1625 1.74375-.871875.19375-1.646875-.3875-1.840625-1.1625l-4.06875-19.859375c-.19375-.775.290625-1.55 1.1625-1.74375zm4.553125 22.571875c.678125-.096875 1.1625-.775 1.065625-1.55l-4.06875-19.859375c-.096875-.678125-.871875-1.1625-1.55-.96875-.678125.096875-1.1625.775-1.065625 1.55l4.06875 19.859375c.19375.678125.871875 1.065625 1.55.96875z" fill="#fff"/><path d="m124.096875 212.93125c.775-.096875 1.453125.3875 1.646875 1.1625l1.1625 8.9125c.096875.775-.484375 1.453125-1.259375 1.55s-1.453125-.3875-1.646875-1.1625l-1.1625-8.9125c-.096875-.775.484375-1.453125 1.259375-1.55z" fill="#f3f3f3"/><path d="m124.096875 212.834375c.871875-.096875 1.646875.484375 1.74375 1.259375l1.1625 8.9125c.096875.775-.484375 1.55-1.35625 1.646875s-1.646875-.484375-1.74375-1.259375l-1.1625-8.9125c-.096875-.775.484375-1.55 1.35625-1.646875zm1.453125 11.625c.678125-.096875 1.259375-.775 1.1625-1.453125l-1.1625-8.9125c-.096875-.678125-.775-1.1625-1.453125-1.065625s-1.259375.775-1.1625 1.453125l1.1625 8.9125c.096875.678125.775 1.1625 1.453125 1.065625z" fill="#fff"/><path d="m114.11875 202.08125c.775 0 1.453125.58125 1.453125 1.35625v20.246875c0 .775-.678125 1.35625-1.453125 1.35625s-1.453125-.58125-1.453125-1.35625v-20.246875c.096875-.775.678125-1.35625 1.453125-1.35625z" fill="#f3f3f3"/><path d="m114.11875 201.984375c.871875 0 1.55.678125 1.55 1.453125v20.246875c0 .775-.678125 1.453125-1.55 1.453125s-1.55-.678125-1.55-1.453125v-20.246875c0-.775.775-1.453125 1.55-1.453125zm0 22.959375c.678125 0 1.35625-.58125 1.35625-1.259375v-20.246875c0-.678125-.58125-1.259375-1.35625-1.259375-.678125 0-1.35625.58125-1.35625 1.259375v20.246875c.096875.678125.678125 1.259375 1.35625 1.259375z" fill="#fff"/><path d="m104.43125 212.93125c.775.096875 1.35625.678125 1.35625 1.453125l-.678125 9.009375c-.096875.775-.775 1.35625-1.55 1.259375s-1.35625-.678125-1.35625-1.453125l.678125-9.009375c.096875-.775.775-1.35625 1.55-1.259375z" fill="#f3f3f3"/><path d="m104.43125 212.834375c.871875.096875 1.453125.775 1.453125 1.55l-.678125 9.009375c-.096875.775-.775 1.453125-1.646875 1.35625s-1.453125-.775-1.453125-1.55l.678125-9.009375c.096875-.871875.775-1.453125 1.646875-1.35625zm-.871875 11.721875c.678125 0 1.35625-.484375 1.35625-1.1625l.678125-9.009375c0-.678125-.484375-1.259375-1.259375-1.35625-.678125 0-1.35625.484375-1.35625 1.1625l-.678125 9.009375c0 .678125.58125 1.259375 1.259375 1.35625z" fill="#fff"/><path d="m97.165625 200.3375c.775.19375 1.259375.871875 1.1625 1.646875l-3.971875 19.859375c-.19375.775-.871875 1.259375-1.646875 1.065625s-1.259375-.871875-1.1625-1.646875l3.971875-19.859375c.096875-.678125.871875-1.1625 1.646875-1.065625z" fill="#f3f3f3"/><path d="m97.165625 200.240625c.871875.19375 1.35625.96875 1.259375 1.74375l-3.971875 19.859375c-.19375.775-.96875 1.35625-1.840625 1.1625s-1.35625-.96875-1.259375-1.74375l3.971875-19.859375c.19375-.775.96875-1.259375 1.840625-1.1625zm-4.553125 22.571875c.678125.096875 1.35625-.290625 1.55-.96875l3.971875-19.859375c.096875-.678125-.290625-1.35625-1.065625-1.55-.678125-.096875-1.35625.290625-1.55.96875l-3.971875 19.859375c-.096875.775.3875 1.35625 1.065625 1.55z" fill="#fff"/><path d="m85.540625 209.05625c.775.19375 1.259375.96875 1.065625 1.74375l-2.421875 8.71875c-.19375.775-.96875 1.1625-1.74375.96875s-1.259375-.96875-1.065625-1.74375l2.421875-8.71875c.19375-.775.96875-1.1625 1.74375-.96875z" fill="#f3f3f3"/><path d="m85.540625 208.959375c.775.19375 1.35625 1.065625 1.065625 1.840625l-2.421875 8.71875c-.19375.775-1.065625 1.259375-1.840625 1.065625s-1.35625-1.065625-1.065625-1.840625l2.421875-8.71875c.19375-.775.96875-1.259375 1.840625-1.065625zm-3.196875 11.334375c.678125.19375 1.453125-.19375 1.646875-.871875l2.421875-8.71875c.19375-.678125-.19375-1.35625-.96875-1.55-.678125-.19375-1.453125.19375-1.646875.871875l-2.421875 8.71875c-.096875.678125.290625 1.35625.96875 1.55z" fill="#fff"/><path d="m80.79375 195.396875c.775.290625 1.065625 1.1625.775 1.840625l-7.75 18.696875c-.290625.678125-1.1625 1.065625-1.840625.678125s-1.065625-1.1625-.775-1.840625l7.75-18.696875c.290625-.678125 1.1625-1.065625 1.840625-.678125z" fill="#f3f3f3"/><path d="m80.79375 195.3c.775.290625 1.1625 1.1625.871875 1.9375l-7.75 18.696875c-.290625.775-1.1625 1.065625-2.034375.775-.775-.290625-1.1625-1.1625-.871875-1.9375l7.75-18.696875c.3875-.775 1.259375-1.1625 2.034375-.775zm-8.815625 21.215625c.678125.290625 1.453125 0 1.74375-.678125l7.75-18.696875c.290625-.678125-.096875-1.35625-.775-1.646875s-1.453125 0-1.74375.678125l-7.75 18.696875c-.19375.58125.096875 1.35625.775 1.646875z" fill="#fff"/><path d="m67.715625 201.596875c.678125.3875.96875 1.1625.678125 1.840625l-4.06875 8.040625c-.3875.678125-1.1625.96875-1.9375.58125-.678125-.3875-.96875-1.1625-.678125-1.840625l4.06875-8.040625c.3875-.678125 1.1625-.96875 1.9375-.58125z" fill="#f3f3f3"/><path d="m67.715625 201.5c.775.3875 1.065625 1.259375.678125 2.034375l-4.06875 8.040625c-.3875.775-1.259375 1.065625-2.034375.678125s-1.065625-1.259375-.678125-2.034375l4.06875-8.040625c.3875-.775 1.259375-1.065625 2.034375-.678125zm-5.328125 10.559375c.678125.290625 1.453125.096875 1.74375-.58125l4.06875-8.040625c.290625-.58125 0-1.35625-.58125-1.74375-.678125-.290625-1.453125-.096875-1.74375.58125l-4.06875 8.040625c-.290625.58125 0 1.35625.58125 1.74375z" fill="#fff"/><path d="m65.778125 187.259375c.678125.484375.871875 1.35625.3875 1.9375l-11.2375 16.759375c-.3875.678125-1.259375.775-1.9375.3875-.678125-.484375-.871875-1.35625-.3875-1.9375l11.2375-16.759375c.3875-.678125 1.259375-.871875 1.9375-.3875z" fill="#f3f3f3"/><path d="m65.778125 187.1625c.678125.484375.871875 1.453125.484375 2.13125l-11.2375 16.759375c-.484375.678125-1.35625.871875-2.13125.3875-.678125-.484375-.871875-1.453125-.484375-2.13125l11.2375-16.759375c.484375-.678125 1.453125-.871875 2.13125-.3875zm-12.7875 19.084375c.58125.3875 1.453125.290625 1.840625-.290625l11.2375-16.759375c.3875-.58125.19375-1.35625-.3875-1.74375s-1.453125-.290625-1.840625.290625l-11.2375 16.6625c-.3875.58125-.19375 1.453125.3875 1.840625z" fill="#fff"/><path d="m51.634375 190.84375c.58125.484375.775 1.35625.290625 1.9375l-5.61875 7.071875c-.484375.58125-1.35625.678125-1.9375.19375s-.775-1.35625-.290625-1.9375l5.61875-7.071875c.484375-.58125 1.35625-.678125 1.9375-.19375z" fill="#f3f3f3"/><path d="m51.73125 190.746875c.678125.484375.775 1.453125.290625 2.13125l-5.61875 7.071875c-.484375.678125-1.453125.775-2.13125.19375-.678125-.484375-.775-1.453125-.290625-2.13125l5.61875-7.071875c.484375-.678125 1.453125-.775 2.13125-.19375zm-7.265625 9.203125c.58125.484375 1.35625.3875 1.840625-.19375l5.61875-7.071875c.3875-.58125.290625-1.35625-.290625-1.840625s-1.35625-.3875-1.840625.19375l-5.61875 7.071875c-.3875.58125-.290625 1.453125.290625 1.840625z" fill="#fff"/><path d="m52.603125 176.3125c.58125.58125.58125 1.453125 0 1.9375l-14.3375 14.240625c-.58125.58125-1.453125.484375-1.9375 0s-.58125-1.453125 0-1.9375l14.240625-14.240625c.58125-.58125 1.453125-.58125 2.034375 0z" fill="#f3f3f3"/><path d="m52.7 176.215625c.58125.58125.58125 1.55 0 2.13125l-14.3375 14.240625c-.58125.58125-1.55.58125-2.13125 0s-.58125-1.55 0-2.13125l14.3375-14.240625c.58125-.58125 1.55-.58125 2.13125 0zm-16.371875 16.275c.484375.484375 1.35625.484375 1.840625 0l14.3375-14.240625c.484375-.484375.484375-1.35625 0-1.840625s-1.35625-.484375-1.840625 0l-14.3375 14.240625c-.484375.484375-.484375 1.259375 0 1.840625z" fill="#fff"/><path d="m38.071875 177.0875c.484375.58125.484375 1.453125-.096875 1.9375l-6.878125 5.8125c-.58125.484375-1.453125.3875-1.9375-.19375s-.484375-1.453125.096875-1.9375l6.878125-5.8125c.58125-.484375 1.453125-.3875 1.9375.19375z" fill="#f3f3f3"/><path d="m38.16875 176.990625c.58125.678125.484375 1.646875-.096875 2.13125l-6.878125 5.8125c-.58125.58125-1.55.484375-2.13125-.19375s-.484375-1.646875.096875-2.13125l6.878125-5.8125c.58125-.58125 1.55-.484375 2.13125.19375zm-8.9125 7.653125c.484375.58125 1.259375.58125 1.840625.19375l6.878125-5.8125c.484375-.484375.58125-1.259375.096875-1.840625s-1.259375-.58125-1.840625-.19375l-6.878125 5.8125c-.58125.484375-.58125 1.259375-.096875 1.840625z" fill="#fff"/><path d="m41.946875 163.1375c.484375.678125.290625 1.55-.3875 1.9375l-16.85625 11.2375c-.678125.3875-1.55.19375-1.9375-.3875-.484375-.678125-.290625-1.55.3875-1.9375l16.85625-11.2375c.58125-.3875 1.453125-.19375 1.9375.3875z" fill="#f3f3f3"/><path d="m42.04375 163.1375c.484375.678125.290625 1.646875-.3875 2.13125l-16.85625 11.2375c-.678125.484375-1.646875.290625-2.13125-.484375-.484375-.678125-.290625-1.646875.3875-2.13125l16.85625-11.2375c.678125-.484375 1.646875-.290625 2.13125.484375zm-19.18125 12.690625c.3875.58125 1.1625.775 1.74375.3875l16.85625-11.2375c.58125-.3875.775-1.1625.290625-1.840625-.3875-.58125-1.1625-.775-1.74375-.3875l-16.85625 11.2375c-.58125.484375-.678125 1.259375-.290625 1.840625z" fill="#fff"/><path d="m27.5125 161.103125c.3875.678125.19375 1.55-.484375 1.9375l-7.846875 4.45625c-.678125.3875-1.55.096875-1.9375-.58125s-.19375-1.55.484375-1.9375l7.846875-4.45625c.678125-.3875 1.55-.096875 1.9375.58125z" fill="#f3f3f3"/><path d="m27.609375 161.00625c.3875.775.19375 1.646875-.484375 2.034375l-7.846875 4.45625c-.678125.3875-1.646875.096875-2.034375-.58125-.3875-.775-.19375-1.646875.484375-2.034375l7.846875-4.45625c.678125-.3875 1.646875-.096875 2.034375.58125zm-10.26875 5.8125c.3875.678125 1.1625.871875 1.74375.484375l7.846875-4.45625c.58125-.3875.775-1.1625.484375-1.74375-.3875-.678125-1.1625-.871875-1.74375-.484375l-7.846875 4.45625c-.58125.290625-.775 1.065625-.484375 1.74375z" fill="#fff"/><path d="m34.003125 148.21875c.290625.775 0 1.55-.775 1.840625l-18.696875 7.75c-.678125.290625-1.55-.096875-1.840625-.775-.290625-.775 0-1.55.775-1.840625l18.696875-7.75c.678125-.290625 1.55 0 1.840625.775z" fill="#f3f3f3"/><path d="m34.1 148.121875c.290625.775 0 1.646875-.775 2.034375l-18.696875 7.75c-.775.290625-1.646875-.096875-1.9375-.871875s0-1.646875.775-2.034375l18.696875-7.75c.775-.290625 1.646875.096875 1.9375.871875zm-21.215625 8.815625c.290625.678125 1.065625.96875 1.646875.775l18.696875-7.75c.678125-.290625.96875-1.065625.678125-1.74375s-1.065625-.96875-1.646875-.775l-18.696875 7.75c-.678125.290625-.96875 1.065625-.678125 1.74375z" fill="#fff"/><path d="m20.34375 143.375c.290625.775-.096875 1.55-.871875 1.840625l-8.525 2.809375c-.678125.290625-1.55-.19375-1.74375-.871875-.290625-.775.096875-1.55.871875-1.840625l8.525-2.809375c.678125-.290625 1.453125.096875 1.74375.871875z" fill="#f3f3f3"/><path d="m20.440625 143.278125c.290625.775-.096875 1.646875-.96875 1.9375l-8.525 2.809375c-.775.290625-1.646875-.19375-1.9375-.96875s.096875-1.646875.96875-1.9375l8.525-2.809375c.775-.19375 1.646875.19375 1.9375.96875zm-11.2375 3.68125c.19375.678125.96875 1.065625 1.646875.871875l8.525-2.809375c.678125-.19375.96875-.96875.775-1.646875s-.96875-1.065625-1.646875-.871875l-8.525 2.809375c-.678125.290625-.96875.96875-.775 1.646875z" fill="#fff"/><path d="m29.0625 131.846875c.19375.775-.290625 1.55-1.065625 1.646875l-19.859375 3.875c-.775.19375-1.453125-.3875-1.646875-1.1625s.290625-1.55 1.065625-1.646875l19.859375-3.875c.775-.096875 1.55.3875 1.646875 1.1625z" fill="#f3f3f3"/><path d="m29.25625 131.846875c.19375.871875-.3875 1.646875-1.1625 1.840625l-19.859375 3.875c-.775.19375-1.55-.3875-1.74375-1.259375s.3875-1.646875 1.1625-1.840625l19.859375-3.875c.775-.19375 1.55.3875 1.74375 1.259375zm-22.571875 4.359375c.096875.678125.775 1.1625 1.453125 1.065625l19.859375-3.875c.678125-.096875 1.1625-.871875.96875-1.55-.096875-.678125-.775-1.1625-1.453125-1.065625l-19.859375 3.875c-.678125.19375-1.1625.871875-.96875 1.55z" fill="#fff"/><path d="m16.6625 124.3875c.096875.775-.3875 1.453125-1.1625 1.55l-8.9125 1.065625c-.775.096875-1.453125-.484375-1.55-1.259375s.3875-1.453125 1.1625-1.55l8.9125-1.065625c.678125-.096875 1.453125.484375 1.55 1.259375z" fill="#f3f3f3"/><path d="m16.759375 124.3875c.096875.871875-.484375 1.646875-1.259375 1.74375l-8.9125 1.065625c-.775.096875-1.55-.484375-1.646875-1.35625s.484375-1.646875 1.259375-1.74375l8.9125-1.065625c.775-.096875 1.55.484375 1.646875 1.35625zm-11.721875 1.35625c.096875.678125.775 1.259375 1.453125 1.1625l8.9125-1.065625c.678125-.096875 1.1625-.775 1.065625-1.453125s-.775-1.259375-1.453125-1.1625l-8.9125 1.065625c-.678125.096875-1.1625.775-1.065625 1.453125z" fill="#fff"/><path d="m27.5125 114.990625c0 .775-.58125 1.453125-1.35625 1.453125h-20.246875c-.775 0-1.35625-.678125-1.35625-1.453125s.58125-1.453125 1.35625-1.453125h20.246875c.775 0 1.35625.678125 1.35625 1.453125z" fill="#f3f3f3"/><path d="m27.609375 114.990625c0 .871875-.678125 1.55-1.453125 1.55h-20.246875c-.775 0-1.453125-.678125-1.453125-1.55s.678125-1.55 1.453125-1.55h20.246875c.775 0 1.453125.678125 1.453125 1.55zm-22.959375-.096875c0 .678125.58125 1.35625 1.259375 1.35625h20.246875c.678125 0 1.259375-.58125 1.259375-1.35625 0-.678125-.58125-1.35625-1.259375-1.35625h-20.246875c-.678125.096875-1.259375.678125-1.259375 1.35625z" fill="#fff"/><path d="m16.759375 105.20625c-.096875.775-.678125 1.35625-1.453125 1.35625l-9.009375-.678125c-.775-.096875-1.35625-.775-1.259375-1.55s.678125-1.35625 1.453125-1.35625l9.009375.678125c.678125.096875 1.259375.775 1.259375 1.55z" fill="#e2e2e2"/><path d="m16.85625 105.20625c-.096875.871875-.775 1.453125-1.55 1.453125l-9.009375-.678125c-.775-.096875-1.453125-.775-1.35625-1.646875s.775-1.453125 1.55-1.453125l9.009375.678125c.775.096875 1.35625.871875 1.35625 1.646875zm-11.81875-.871875c-.096875.678125.484375 1.35625 1.1625 1.35625l9.009375.678125c.678125 0 1.259375-.484375 1.35625-1.259375.096875-.678125-.484375-1.35625-1.1625-1.35625l-9.009375-.678125c-.678125 0-1.259375.58125-1.35625 1.259375z" fill="#fff"/><path d="m29.25625 98.134375c-.19375.775-.871875 1.259375-1.646875 1.1625l-19.859375-4.06875c-.775-.19375-1.259375-.871875-1.065625-1.646875s.871875-1.259375 1.646875-1.1625l19.859375 3.971875c.678125.19375 1.1625.96875 1.065625 1.74375z" fill="#f3f3f3"/><path d="m29.353125 98.134375c-.19375.871875-.96875 1.35625-1.74375 1.259375l-19.859375-3.971875c-.775-.19375-1.35625-.96875-1.1625-1.840625s.96875-1.35625 1.74375-1.259375l19.859375 3.971875c.775.19375 1.259375.96875 1.1625 1.840625zm-22.571875-4.553125c-.096875.678125.290625 1.35625.96875 1.55l19.859375 3.971875c.678125.096875 1.35625-.290625 1.55-1.065625.096875-.678125-.290625-1.35625-.96875-1.55l-19.859375-3.971875c-.775-.096875-1.35625.3875-1.55 1.065625z" fill="#fff"/><path d="m20.5375 86.509375c-.19375.775-.96875 1.259375-1.74375 1.065625l-8.71875-2.421875c-.775-.19375-1.1625-.96875-.96875-1.74375s.96875-1.259375 1.74375-1.065625l8.71875 2.421875c.775.19375 1.1625.96875.96875 1.74375z" fill="#f3f3f3"/><path d="m20.634375 86.509375c-.19375.775-1.065625 1.35625-1.840625 1.065625l-8.71875-2.421875c-.775-.19375-1.259375-1.065625-1.065625-1.840625s1.065625-1.35625 1.840625-1.065625l8.71875 2.421875c.775.19375 1.259375.96875 1.065625 1.840625zm-11.334375-3.196875c-.19375.678125.19375 1.453125.871875 1.646875l8.71875 2.421875c.678125.19375 1.35625-.19375 1.55-.96875.19375-.678125-.19375-1.453125-.871875-1.646875l-8.71875-2.421875c-.678125-.096875-1.35625.290625-1.55.96875z" fill="#fff"/><path d="m34.196875 81.859375c-.290625.775-1.1625 1.065625-1.840625.775l-18.696875-7.75c-.678125-.290625-1.065625-1.1625-.775-1.840625.290625-.775 1.1625-1.065625 1.840625-.775l18.696875 7.75c.775.290625 1.065625 1.1625.775 1.840625z" fill="#f3f3f3"/><path d="m34.29375 81.95625c-.290625.775-1.1625 1.1625-1.9375.871875l-18.696875-7.75c-.775-.290625-1.065625-1.1625-.775-2.034375.290625-.775 1.1625-1.1625 1.9375-.871875l18.696875 7.75c.775.3875 1.065625 1.259375.775 2.034375zm-21.215625-8.815625c-.290625.678125 0 1.453125.678125 1.74375l18.696875 7.75c.678125.290625 1.35625-.096875 1.646875-.775s0-1.453125-.678125-1.74375l-18.696875-7.75c-.678125-.19375-1.453125.096875-1.646875.775z" fill="#fff"/><path d="m27.9 68.78125c-.3875.678125-1.1625.96875-1.840625.678125l-8.040625-4.06875c-.678125-.290625-.96875-1.1625-.58125-1.9375.3875-.678125 1.1625-.96875 1.840625-.678125l8.040625 4.06875c.678125.3875.96875 1.259375.58125 1.9375z" fill="#f3f3f3"/><path d="m27.996875 68.878125c-.3875.775-1.259375 1.065625-2.034375.678125l-8.040625-4.06875c-.775-.3875-1.065625-1.259375-.678125-2.034375s1.259375-1.065625 2.034375-.678125l8.040625 4.06875c.775.290625 1.065625 1.259375.678125 2.034375zm-10.4625-5.328125c-.290625.678125-.096875 1.453125.58125 1.74375l8.040625 4.06875c.58125.290625 1.35625 0 1.74375-.58125.290625-.678125.096875-1.453125-.58125-1.74375l-8.1375-4.06875c-.58125-.290625-1.35625-.096875-1.646875.58125z" fill="#fff"/><path d="m42.140625 66.940625c-.484375.678125-1.259375.871875-1.9375.3875l-16.759375-11.140625c-.678125-.3875-.775-1.259375-.3875-1.9375s1.259375-.871875 1.9375-.3875l16.85625 11.2375c.58125.3875.775 1.259375.290625 1.840625z" fill="#f3f3f3"/><path d="m42.2375 67.0375c-.484375.678125-1.453125.871875-2.13125.484375l-16.759375-11.2375c-.678125-.484375-.871875-1.35625-.3875-2.13125.484375-.678125 1.453125-.871875 2.13125-.484375l16.759375 11.2375c.775.484375.871875 1.453125.3875 2.13125zm-19.084375-12.7875c-.3875.58125-.290625 1.453125.290625 1.840625l16.85625 11.2375c.58125.3875 1.35625.19375 1.74375-.3875s.290625-1.453125-.290625-1.840625l-16.85625-11.2375c-.58125-.3875-1.35625-.19375-1.74375.3875z" fill="#fff"/><path d="m38.55625 52.89375c-.484375.58125-1.35625.775-1.9375.290625l-7.071875-5.521875c-.58125-.484375-.678125-1.35625-.19375-1.9375s1.35625-.775 1.9375-.290625l7.071875 5.521875c.58125.484375.678125 1.35625.19375 1.9375z" fill="#f3f3f3"/><path d="m38.653125 52.990625c-.484375.678125-1.453125.775-2.13125.290625l-7.071875-5.521875c-.678125-.484375-.775-1.453125-.290625-2.13125s1.453125-.775 2.13125-.290625l7.071875 5.521875c.678125.484375.775 1.453125.290625 2.13125zm-9.3-7.265625c-.484375.58125-.3875 1.35625.19375 1.840625l7.071875 5.521875c.58125.3875 1.35625.290625 1.840625-.290625s.3875-1.35625-.19375-1.840625l-7.071875-5.521875c-.58125-.3875-1.35625-.290625-1.840625.290625z" fill="#fff"/><path d="m52.990625 53.8625c-.58125.58125-1.453125.58125-1.9375 0l-14.434375-14.240625c-.58125-.58125-.484375-1.453125 0-1.9375.58125-.58125 1.453125-.58125 1.9375 0l14.3375 14.240625c.58125.484375.58125 1.453125.096875 1.9375z" fill="#f3f3f3"/><path d="m52.990625 53.959375c-.58125.58125-1.55.58125-2.13125 0l-14.3375-14.240625c-.58125-.58125-.58125-1.55 0-2.13125s1.55-.58125 2.13125 0l14.3375 14.240625c.678125.58125.678125 1.55 0 2.13125zm-16.275-16.178125c-.484375.484375-.484375 1.35625 0 1.840625l14.3375 14.240625c.484375.484375 1.35625.484375 1.840625 0s.484375-1.35625 0-1.840625l-14.3375-14.3375c-.484375-.484375-1.259375-.484375-1.840625.096875z" fill="#fff"/><path d="m52.11875 39.428125c-.58125.484375-1.453125.484375-1.9375-.096875l-5.909375-6.78125c-.484375-.58125-.3875-1.453125.19375-1.9375s1.453125-.484375 1.9375.096875l5.909375 6.78125c.484375.484375.3875 1.35625-.19375 1.9375z" fill="#f3f3f3"/><path d="m52.215625 39.428125c-.678125.58125-1.55.484375-2.13125-.096875l-5.909375-6.78125c-.58125-.58125-.484375-1.55.19375-2.13125s1.55-.484375 2.13125.096875l5.909375 6.78125c.484375.678125.484375 1.646875-.19375 2.13125zm-7.75-8.815625c-.58125.484375-.58125 1.259375-.19375 1.840625l5.909375 6.78125c.484375.484375 1.259375.58125 1.840625.096875s.58125-1.259375.19375-1.840625l-5.909375-6.78125c-.484375-.58125-1.259375-.58125-1.840625-.096875z" fill="#fff"/><path d="m66.06875 43.109375c-.678125.484375-1.55.290625-1.9375-.3875l-11.334375-16.759375c-.3875-.678125-.19375-1.55.3875-1.9375.678125-.484375 1.55-.290625 1.9375.3875l11.2375 16.759375c.484375.678125.290625 1.55-.290625 1.9375z" fill="#f3f3f3"/><path d="m66.06875 43.20625c-.678125.484375-1.646875.290625-2.13125-.3875l-11.2375-16.759375c-.484375-.678125-.290625-1.646875.484375-2.13125.678125-.484375 1.646875-.290625 2.13125.3875l11.2375 16.759375c.484375.775.290625 1.646875-.484375 2.13125zm-12.7875-19.084375c-.58125.3875-.775 1.1625-.3875 1.74375l11.2375 16.759375c.3875.58125 1.1625.678125 1.840625.290625.58125-.3875.775-1.1625.3875-1.74375l-11.2375-16.6625c-.3875-.58125-1.259375-.775-1.840625-.3875z" fill="#fff"/><path d="m68.103125 28.771875c-.678125.3875-1.55.19375-1.9375-.484375l-4.45625-7.846875c-.3875-.678125-.096875-1.55.58125-1.9375s1.55-.19375 1.9375.484375l4.45625 7.846875c.290625.678125.096875 1.55-.58125 1.9375z" fill="#f3f3f3"/><path d="m68.103125 28.86875c-.775.3875-1.646875.19375-2.034375-.484375l-4.45625-7.846875c-.3875-.678125-.19375-1.646875.58125-2.034375s1.646875-.19375 2.034375.484375l4.45625 7.846875c.3875.678125.19375 1.55-.58125 2.034375zm-5.8125-10.26875c-.58125.3875-.871875 1.1625-.484375 1.74375l4.45625 7.846875c.3875.58125 1.1625.775 1.74375.484375.58125-.3875.871875-1.1625.484375-1.74375l-4.45625-7.846875c-.290625-.58125-1.1625-.871875-1.74375-.484375z" fill="#fff"/><path d="m80.9875 35.165625c-.775.290625-1.55 0-1.840625-.678125l-7.846875-18.696875c-.290625-.678125.096875-1.55.775-1.840625.775-.290625 1.55 0 1.840625.678125l7.846875 18.696875c.290625.678125-.096875 1.55-.775 1.840625z" fill="#f3f3f3"/><path d="m80.9875 35.2625c-.775.290625-1.646875 0-2.034375-.775l-7.846875-18.696875c-.290625-.775.096875-1.646875.871875-1.9375s1.646875 0 2.034375.775l7.846875 18.696875c.290625.678125-.096875 1.55-.871875 1.9375zm-8.815625-21.215625c-.678125.290625-.96875 1.065625-.678125 1.646875l7.846875 18.696875c.290625.678125 1.065625.96875 1.74375.678125s.96875-1.065625.678125-1.646875l-7.846875-18.696875c-.3875-.678125-1.065625-.96875-1.74375-.678125z" fill="#fff"/><path d="m85.734375 21.409375c-.775.290625-1.55-.096875-1.840625-.871875l-2.809375-8.525c-.290625-.678125.19375-1.55.871875-1.74375s1.55.096875 1.840625.871875l2.809375 8.525c.290625.678125-.096875 1.453125-.871875 1.74375z" fill="#f3f3f3"/><path d="m85.83125 21.50625c-.775.290625-1.646875-.096875-1.9375-.871875l-2.809375-8.525c-.290625-.775.19375-1.646875.96875-1.9375s1.646875.096875 1.9375.871875l2.809375 8.525c.19375.775-.19375 1.646875-.96875 1.9375zm-3.778125-11.140625c-.678125.19375-1.065625.96875-.871875 1.646875l2.809375 8.525c.19375.678125.96875.96875 1.646875.775s1.065625-.96875.871875-1.646875l-2.809375-8.525c-.19375-.678125-.96875-1.065625-1.646875-.775z" fill="#fff"/><path d="m97.165625 30.225c-.775.19375-1.55-.290625-1.646875-1.065625l-4.06875-19.859375c-.19375-.775.3875-1.453125 1.1625-1.646875s1.55.290625 1.646875 1.065625l4.06875 19.859375c.096875.678125-.3875 1.453125-1.1625 1.646875z" fill="#f3f3f3"/><path d="m97.165625 30.321875c-.871875.19375-1.646875-.3875-1.840625-1.1625l-4.06875-19.859375c-.19375-.775.3875-1.646875 1.1625-1.74375.871875-.19375 1.646875.3875 1.840625 1.1625l4.06875 19.859375c.19375.775-.290625 1.55-1.1625 1.74375zm-4.553125-22.571875c-.678125.096875-1.1625.775-1.065625 1.55l4.06875 19.859375c.096875.678125.871875 1.1625 1.55.96875.678125-.096875 1.1625-.775 1.065625-1.55l-4.06875-19.859375c-.19375-.678125-.871875-1.065625-1.55-.96875z" fill="#fff"/><path d="m104.528125 17.63125c-.775.096875-1.453125-.3875-1.646875-1.1625l-1.1625-8.9125c-.096875-.775.484375-1.453125 1.259375-1.55s1.453125.3875 1.646875 1.1625l1.1625 8.9125c.096875.775-.484375 1.453125-1.259375 1.55z" fill="#f3f3f3"/><path d="m104.528125 17.728125c-.871875.096875-1.646875-.484375-1.74375-1.259375l-1.1625-8.9125c-.096875-.775.484375-1.55 1.35625-1.646875s1.646875.484375 1.74375 1.259375l1.1625 8.9125c.096875.775-.484375 1.55-1.35625 1.646875zm-1.453125-11.625c-.678125.096875-1.259375.775-1.1625 1.453125l1.1625 8.9125c.096875.678125.775 1.1625 1.453125 1.065625s1.259375-.775 1.1625-1.453125l-1.1625-8.9125c-.096875-.678125-.775-1.1625-1.453125-1.065625z" fill="#fff"/><circle cx="114.990625" cy="115.184375" fill="url(#d)" fill-opacity=".2" r="114.7"/></g><path d="m204.115625 51.15-92.515625 59.2875h-.096875v.096875l-.096875.096875-57.7375 95.228125 84.8625-68.296875.096875-.096875v-.096875z" fill-opacity=".05" filter="url(#e)"/><path d="m202.371875 45.628125-91.45 65.003125 27.125 26.93125z" fill="#cd151e"/><path d="m111.01875 110.4375 13.659375 13.465625 77.69375-78.275z" fill="#fa5153"/><path d="m111.01875 110.4375 27.125 26.93125-91.45 65.003125z" fill="#acacac"/><path d="m46.69375 202.371875 77.984375-78.46875-13.659375-13.465625z" fill="#eee"/></g></svg>