<svg height="221" preserveAspectRatio="xMidYMid" viewBox="0 0 256 221" width="256" xmlns="http://www.w3.org/2000/svg"><path d="m229.751119 133.348846c16.21029-6.822663 27.13608-20.833259 26.192163-39.0270647-.262095-5.0522205-1.389801-10.0510659-3.266291-14.7402264-1.732484-4.3292409-4.525162-7.9528966-6.512781-12.1145781-4.089809-8.5632557-5.966561-18.0644127-9.357505-26.9042592-14.587413-38.02807731-62.419477-49.5619049-96.985103-33.56715149-15.510927 7.17746879-27.486275 20.02225969-35.1406 35.26618679 11.859229-4.1168504 25.286164-1.7196228 35.037125 6.2287835-.383281.5292552-.756846 1.061729-1.112987 1.6012515-16.273446-12.0497423-40.0256985-6.4377303-49.4579103 11.5004696-9.1173898 17.3394461-1.1447219 39.5481585 16.8129673 47.0616875 10.879088 4.551832 23.626367 2.916905 33.021172-4.243355.404485.495381.824438.980043 1.253777 1.453498-10.939116 9.250214-26.694884 11.270287-39.562418 5.001985 4.662039 7.525425 11.196655 13.711842 18.647864 18.374745-5.516857 10.081708-9.25982 21.438584-9.524723 33.023138-.240812 10.530708.323251 21.90364 4.101139 31.836017-9.589519-.234833-20.5790258-2.061141-27.3181357-9.642989-6.3654399-7.161465-7.5873776-17.638598-7.5730008-26.865443.0177249-11.376615 2.5122145-22.271084 4.0250793-33.468322 1.5063257-11.148869.5332086-22.820436-4.1903424-33.1148537-9.5037026-20.7121723-35.1036394-32.883756-56.4223242-23.1388898-20.84044715 9.5262484-30.92158285 38.0261555-13.54956023 55.8158205 7.07190033 7.241906 17.83633273 11.076045 27.69455653 8.100399 9.237105-2.788188 16.606465-11.197079 17.545242-20.993493.9370829-9.778741-5.7200128-20.0284463-15.5168747-22.0387288-4.9662656-1.0190572-9.7529366 2.7467481-9.4110341 8.0129372.1490613 2.2960001 1.3578028 4.4613756 3.2315622 5.7808436 2.0797042 1.464481 4.724069 1.372832 5.9842537 3.934957 2.4076697 4.895113-3.0115101 10.121637-7.4510398 10.828891-5.3482529.852055-10.8170229-2.975301-13.5072759-7.397728-6.2431309-10.2629139 1.0093026-23.0457179 10.7654495-27.7748216 9.3697214-4.5417911 20.627645-1.853665 28.4650111 4.582515 6.7859896 5.5727592 10.497106 13.9111576 11.4771822 22.5655336 1.2268218 10.833197-2.0416877 21.522509-3.3398294 32.203395-1.2963897 10.666472-1.8036863 21.699939.3987801 32.283452 2.0358256 9.782756 6.6762128 18.894821 14.4830259 25.234887 7.7972685 6.332356 17.658833 9.188241 27.4882827 10.138913 6.162902.596051 12.379307.478992 18.543746-.031318 2.864011 1.784868 6.216287 3.158468 10.119641 4.100581 1.396944 4.565637 5.592354 7.749276 10.409966 7.749276h97.739021c12.078625 0 12.156668-14.761358 10.652902-23.418568-1.561299-8.988594-6.146542-17.30263-13.758223-22.44026-.056484-16.001629-4.592937-29.064759-11.13195-41.758113zm-97.443763-42.8007936c-2.86061 3.0083689-6.874135 4.892093-11.322646 4.892093-8.661738 0-15.708134-7.1098638-15.708134-15.8496482 0-8.7397852 7.046396-15.849649 15.708134-15.849649 4.286438 0 8.173486 1.7451109 11.010554 4.5632918-.497115 3.5116977-.743217 7.4053729-.743217 11.8173605 0 3.8958218.368117 7.3402594 1.055309 10.4265519zm36.101494 1.082476c1.555825-8.0487589 7.113555-15.0584417 10.584654-22.3681382 3.040565-6.4030605 4.982389-13.4395309 9.032362-19.3021412 7.335222-10.6182103 19.809759-16.9774861 32.640031-16.4026447 6.414519 8.872476 8.681957 19.6173892 12.19905 29.8196012 1.54565 4.4835529 3.224118 8.9279848 5.758746 12.9463497 2.992379 4.7440338 5.258006 9.7071621 6.096124 15.3157039l-2.663666-.8616861c-3.967177-1.6139304-6.502172 4.5383864-3.890001 7.1741169l5.12952 5.1757181c.285281.287851.605618.512603.938613.708288-4.507778 17.813206-25.499705 23.019195-41.254686 24.604814-18.31101-1.194407-38.540813-16.271198-34.570747-36.8099816zm52.441466 116.6867626h-73.164485-.009571-.019695c-.250304-2.539021-.560111-4.866631 1.027789-6.98813 1.753847-2.343215 4.681326-3.871073 7.243053-5.107133 7.820613-3.77357 16.588438-5.788051 25.097832-7.205104 8.745689-1.456398 18.843259-2.97917 27.455709-.159691 8.205429 2.686232 13.689502 10.589211 12.369368 19.460058zm3.349086-3.429945c-.80175-11.936075-9.600456-19.248514-20.996733-20.504498 7.359224-.548146 15.442705-.548862 21.501778 4.355737 5.526534 4.473538 8.006989 12.60976 7.019638 19.578706h-7.581561c.134658-1.142105.133923-2.283892.056878-3.429945zm9.572017-8.257705c-2.35785-7.418078-8.163074-12.667441-15.567358-14.680041 7.222464-.199382 14.637646 1.241332 19.463792 7.134147 4.153068 5.070993 5.818721 12.763913 4.941687 19.233544h-7.594796c.45426-3.864345-.068878-7.992827-1.243325-11.68765zm-1.510174-22.866473c0 2.322761-.19059 4.67692-.626127 6.958957-4.197681-1.72732-8.728751-2.217944-13.229149-2.066732-3.567196-12.674303-1.702024-26.821618 5.421522-37.911309 4.740593 10.208278 8.433754 21.63701 8.433754 33.019084zm-23.878376-94.6586188c-.213226-6.9821941 3.599049-12.7662446 8.515001-12.9191652 4.915952-.1528544 9.073956 5.3834197 9.287208 12.365613.213278 6.9821806-3.59897 12.7662311-8.514922 12.9191517-4.915952.1528552-9.073983-5.3834189-9.287287-12.3655995z" fill="#753f8c"/></svg>