<svg height="233" preserveAspectRatio="xMidYMid" viewBox="0 0 256 233" width="256" xmlns="http://www.w3.org/2000/svg"><path d="m138.927118 78.2442835v39.9685035l58.362205-29.5226453.004031-57.7824252-23.212598 11.1997481v18.15937z" fill="#4396b9" transform="matrix(1 0 0 -1 0 149.120504)"/><path d="m216.112126 143.256189 15.124157-7.733165-57.011905-28.509985-.143622 38.03641 23.212598-11.199748z" fill="#b8dde8" transform="matrix(1 0 0 -1 0 252.062488)"/><path d="m138.927118 70.8762205-23.792378-11.8208504 23.792378-12.168315z" fill="#75bed5" transform="matrix(1 0 0 -1 0 117.763276)"/><path d="m116.284472 117.128063-.487307 57.574047-57.8945508 28.816882-57.9026142 28.594394v-58.410331l.0187008-.009827.55905542-56.569952 55.98715718-27.995213 1.680126-.8385512.1171653-.055937 57.9320943-28.895748v57.7854492z" fill="#4396b9" transform="matrix(1 0 0 -1 0 291.451212)"/><path d="m231.236283 204.427591-57.155527-28.583811v56.269606l-58.283591-27.895433.497134-58.78652v-56.5777637l57.786457 28.8957477v.316977l57.155527 28.572724z" fill="#75bed5" transform="matrix(1 0 0 -1 0 320.967056)"/><path d="m255.082835 60.4222992-57.789481-28.8897008v57.7824252l57.789481 28.8977634z" fill="#75bed5" transform="matrix(1 0 0 -1 0 149.745386)"/><path d="m138.927118 85.8514646 58.362205-29.5226457 57.793512 28.8977638-58.945008 30.1495433-39.822866-20.5513071-42.861103 21.9242831-58.10948-30.2548658-55.344378-29.0728819 57.9026142-28.5943937 57.8945508-28.81688186 58.283591 27.89543306-58.946016 30.1457638-.759685-.391811-.146646.0738267.906331.3179843 23.792378 11.8208504z" fill="#b8dde8" transform="matrix(1 0 0 -1 0 116.759182)"/></svg>