<svg height="104" preserveAspectRatio="xMidYMid" viewBox="0 0 512 104" width="512" xmlns="http://www.w3.org/2000/svg"><path d="m381.461756 36.9858357v64.8339943h-20.886119v-74.9869688z" fill="#f37368"/><path d="m85.8651558 89.7813031 15.6645892 13.6339939 65.994334-34.3750704-6.816997-16.3898017zm274.7104812-41.7722379 53.085553-27.5580737-8.992635-15.51954674-44.092918 21.90141644z" fill="#f7a199"/><path d="m211.18187 31.9093484v69.9104816h-20.015864v-99.64419261zm-125.3167142 57.8719547 15.6645892 13.6339939 30.168839-75.4220959-9.717847-25.81756371z" fill="#f37368"/><path d="m121.980737 2.17563739h20.596034l38.146175 99.64419261h-21.176204zm92.247025 0 43.947875 68.02492921v31.6192634l-67.009631-99.64419261zm81.658924 0h20.741076v99.64419261h-20.741076zm64.688951 18.27535411h-31.909348v-18.27535411h74.406799l10.588102 18.27535411h-32.199434z" fill="#f04939"/><path d="m475.014164 63.9637394v37.8560906h-20.596034v-37.8560906" fill="#f7a199"/><path d="m489.228329 2.17563739-34.810199 61.78810201h20.596034l36.115581-61.78810201z" fill="#f04939"/><path d="m454.41813 63.9637394-35.970538-61.78810201h22.626629l24.222096 42.35240791z" fill="#f37368"/><path d="m8.55750708 13.7790368c0 13.7790369 8.55750712 22.046459 25.67252122 26.3977337l18.1303116 4.2062323c16.2447593 3.7711048 26.1076488 13.0538244 26.1076488 28.1382437.1450425 6.5269121-2.0305949 12.9087818-5.9467422 18.1303116 0-15.0844193-7.8322947-23.2067989-26.5427762-28.1382437l-17.8402267-4.0611898c-14.3592068-3.1909348-25.38243623-10.8781869-25.38243623-27.2679886 0-6.2368272 2.0305949-12.4736544 5.80169971-17.4050992" fill="#f04939"/><g fill="#f37368"><path d="m258.175637 65.1240793v-62.94844191h20.015864v99.64419261h-20.015864z"/><path d="m61.3529745 68.7501416c7.6872521 4.9314448 11.168272 11.8934845 11.168272 21.9014165-6.5269122 8.2674221-17.6951842 12.7637389-30.894051 12.7637389-22.1915014 0-38.00113318-11.023229-41.33711051-30.0237956h21.32124641c2.7558074 8.7025496 10.0079321 12.7637394 19.8708216 12.7637394 11.7484419.1450425 19.725779-6.2368272 19.8708215-17.4050992m-52.79546742-55.1161473c6.23682722-8.12237957 16.96997172-13.05382433 30.02379602-13.05382433 22.7716714 0 35.8254958 12.03852693 39.1614731 28.86345613h-20.596034c-2.3206799-6.6719547-7.9773371-11.8934845-18.2753541-11.8934845-11.168272.1450425-18.7104816 6.5269122-19.1456091 16.6798867-7.4740085-4.1218484-11.4583569-12.1835694-11.16827192-20.596034z"/></g></svg>