<svg height="216" preserveAspectRatio="xMidYMid" viewBox="0 0 256 216" width="256" xmlns="http://www.w3.org/2000/svg"><path d="m51.437037 123.553185c14.9143704 0 22.309926-7.887802 22.309926-17.502815 0-22.9262219-37.4708149-13.8050367-37.4708149-28.719407 0-6.162963 5.5466667-10.8468149 14.7911112-10.8468149 7.8885926 0 14.298074 3.2047408 17.7493333 7.8885926l3.5745185-4.5605926c-4.3140741-4.8071111-11.0933333-8.7514074-21.3238518-8.7514074-13.4352593 0-21.2005926 7.3955556-21.2005926 16.5167408 0 21.4471111 37.594074 12.2026666 37.594074 28.4728885 0 6.902519-5.9164444 12.079408-15.9004444 12.079408-8.3816296 0-15.4074074-3.944297-19.2284444-8.751408l-3.8210371 4.683852c5.9164445 6.656 13.312 9.490963 22.9262222 9.490963zm83.076741-1.479111v-41.9081481c0-13.312-9.614222-19.1051852-21.69363-19.1051852-9.860741 0-16.7632591 3.328-22.9262221 9.984l3.5745185 4.4373334c5.4234075-6.162963 11.2165926-8.7514074 18.7354076-8.7514074 8.751407 0 15.900444 4.8071111 15.900444 13.6817777v12.0794075c-5.176889-5.7931852-11.956148-8.5048889-20.214518-8.5048889-10.353778 0-20.830815 6.7792592-20.830815 19.721481 0 12.819754 10.6002963 19.844741 20.830815 19.844741 8.25837 0 14.91437-2.712494 20.214518-8.505679v7.026568zm-24.405334-3.573728c-9.737481 0-16.2702218-6.287013-16.2702218-14.667852 0-8.5048891 6.5327408-14.7911113 16.2702218-14.7911113 7.149037 0 13.805037 2.7117037 17.995852 8.2583704v13.0654819c-4.190815 5.422617-10.846815 8.135111-17.995852 8.135111zm62.122667 5.052839c14.91437 0 22.309136-7.887802 22.309136-17.502815 0-22.9262219-37.470815-13.8050367-37.470815-28.719407 0-6.162963 5.546667-10.8468149 14.791111-10.8468149 7.888593 0 14.298864 3.2047408 17.749334 7.8885926l3.574518-4.5605926c-4.314074-4.8071111-11.093333-8.7514074-21.323852-8.7514074-13.435259 0-21.200592 7.3955556-21.200592 16.5167408 0 21.4471111 37.594074 12.2026666 37.594074 28.4728885 0 6.902519-5.916445 12.079408-15.900445 12.079408-8.380839 0-15.407407-3.944297-19.228444-8.751408l-3.821037 4.683852c5.917234 6.656 13.31279 9.490963 22.927012 9.490963zm56.576 0c14.91437 0 22.309926-7.887802 22.309926-17.502815 0-22.9262219-37.470815-13.8050367-37.470815-28.719407 0-6.162963 5.546667-10.8468149 14.791111-10.8468149 7.887803 0 14.298074 3.2047408 17.749334 7.8885926l3.573728-4.5605926c-4.314074-4.8071111-11.092543-8.7514074-21.323062-8.7514074-13.435259 0-21.200592 7.3955556-21.200592 16.5167408 0 21.4471111 37.594074 12.2026666 37.594074 28.4728885 0 6.902519-5.916445 12.079408-15.900445 12.079408-8.381629 0-15.407407-3.944297-19.228444-8.751408l-3.821037 4.683852c5.916444 6.656 13.312 9.490963 22.926222 9.490963zm-168.8525431 90.965334c22.3510123 0 37.9322469-14.184297 37.9322469-35.890568 0-21.491358-15.5812346-35.783111-38.0397037-35.783111h-28.2611358v71.673679zm-.1074568-13.432099h-13.0022716v-44.809482h13.1097284c14.6141235 0 22.3510123 9.778568 22.3510123 22.351013 0 12.250074-8.2741728 22.458469-22.4584691 22.458469zm82.9566419 14.72158c21.598815 0 37.394963-15.473778 37.394963-37.072593 0-21.598814-15.796148-37.072592-37.394963-37.072592-21.706272 0-37.50242 15.473778-37.50242 37.072592 0 21.598815 15.796148 37.072593 37.50242 37.072593zm0-13.539556c-13.324642 0-21.813728-10.208395-21.813728-23.533037 0-13.432098 8.489086-23.533037 21.813728-23.533037 13.217185 0 21.706272 10.100939 21.706272 23.533037 0 13.324642-8.489087 23.533037-21.706272 23.533037zm82.957432 13.539556c15.687901 0 24.822519-8.704 29.872988-17.622914l-13.109729-6.33995c-3.00958 5.803457-9.456987 10.423308-16.763259 10.423308-13.110518 0-22.566716-9.993481-22.566716-23.533037 0-13.539555 9.456198-23.533037 22.566716-23.533037 7.306272 0 13.753679 4.620642 16.763259 10.423309l13.109729-6.447407c-5.051259-9.026371-14.184296-17.515457-29.872988-17.515457-21.599605 0-38.254617 14.935704-38.254617 37.072592-.00079 22.028642 16.655012 37.072593 38.254617 37.072593z" fill="#5c4863"/><path d="m8.30814815 61.0804938c-.30577778.9165432-.64948148 1.8330864-1.03111111 2.7496297-.38162963.9165432-.8217284 1.7185185-1.31792593 2.4059259s-1.0508642 1.2025679-1.66083951 1.5462716c-.61076543.3444938-1.26024691.4013827-1.94765432.1722469-.91654321-.1524938-1.4317037-.8217284-1.54706172-2.0053333-.11456791-1.183605.01975308-2.3482469.40138271-3.493926.53491358-1.8330864 1.3171358-4.2587654 2.34824692-7.2754567 1.03190123-3.0166914 2.21550617-6.3209877 3.55160493-9.9097284 1.33688889-3.5895309 2.74962963-7.3133828 4.23901238-11.1707655 1.4901728-3.8558024 2.9218765-7.5417284 4.2966913-11.0554074s2.6350618-6.7018271 3.7807408-9.5668148c1.145679-2.8641975 2.0242963-5.09787654 2.6350617-6.70182716.2291358-.4582716.5728395-.83990123 1.0311111-1.14567901s.9355062-.45827161 1.4324938-.45827161c.4961976 0 .9923951.15249383 1.4893828.45827161.4961975.30577778.8967901.80197531 1.2025679 1.48938272.6107654 1.60395061.6494814 3.16997535.1145679 4.69728395-.5349136 1.222321-1.2981729 3.1130864-2.2913581 5.670716-.9931852 2.56-2.1191111 5.4423704-3.379358 8.6502717-1.261037 3.2079012-2.5781728 6.6070123-3.9529877 10.1965432-1.3748148 3.5895308-2.6729876 7.008395-3.8953086 10.2534321-1.222321 3.2474074-2.3292839 6.1677037-3.3224691 8.7648395-.99318521 2.5971358-1.71851855 4.506074-2.17679015 5.728395zm61.06469135-28.7565432c-1.5273086-1.145679-3.1889383-2.368-4.9840988-3.6661728-1.7935802-1.2981729-3.6851358-2.6350618-5.670716-4.0098766 1.2981728 4.6593581 2.6729876 9.0887902 4.1244444 13.2898766.2291358.9165432.134321 1.7185185-.2868148 2.4059259-.4187654.6874074-.9355062 1.0311111-1.5462716 1.0311111-.9931852-.1524938-2.0045432-.6107654-3.0364444-1.3748148-1.0311111-.7640494-1.7382716-1.6805926-2.1191111-2.7496296-.3057778-.6874074-.6874074-1.7951605-1.1456791-3.3224692-.4582716-1.5273086-.9931851-3.3224691-1.6039506-5.3846913-1.2981728 1.9097284-2.5015308 3.7807407-3.6092839 5.6138271-1.1061729 1.8330865-2.1570371 3.5895309-3.1502222 5.2701235-.6107655.8399012-1.2981729 1.3171358-2.0622223 1.4317037-.7640493.115358-1.3368889-.0568889-1.7185185-.5151605-.5349136-.8399012-.8588642-1.9279012-.9742222-3.2655802-.1145679-1.3353087.0948148-2.4628149.6305185-3.3793581.3816296-.6107654 1.0690371-1.7185185 2.0622222-3.3224691.9931852-1.6039506 2.2147161-3.474963 3.6661729-5.6138272-1.6039506.3816297-3.1699753.7822223-4.697284 1.2025679-1.5273086.4203457-3.0554074.8217284-4.582716 1.2033581-.9165432.1524938-1.7185185 0-2.405926-.4582716-.6874074-.4582716-.9931851-.9931852-.9165432-1.6039507.2291358-.9931851.7442963-1.8899753 1.5462716-2.6919506.8027655-.8027654 1.7382716-1.3558518 2.8073087-1.6616296.7640494-.2291358 2.0045432-.5530864 3.7230617-.9734321 1.7193087-.4203457 3.6859259-.8975803 5.900642-1.4324938-1.5273087-.9165432-3.0356543-1.8520494-4.5258272-2.8065186-1.4893827-.9560493-2.9977284-1.8528395-4.525037-2.6927407-.8399012-.5349136-1.3171358-1.222321-1.4324938-2.0622222-.1145679-.83990125.057679-1.4514568.5159506-1.83308643.8399012-.53491358 1.8520494-.78222223 3.0356543-.7442963 1.1851852.03792593 2.2344691.36345679 3.1510123.9734321.7640494.38162963 1.8330865 1.03111113 3.2079013 1.94765433-.2291358-1.29817285-.4203457-2.5394568-.5728395-3.72306174-.1524938-1.18518518-.2670618-2.31111111-.3437037-3.38014815-.076642-.83990123.1145679-1.56602469.5728395-2.17679012s.9931852-.95446914 1.6039506-1.03111111c.5349136-.15249383 1.1836049.01896296 1.9476543.51595062.7640494.49619753 1.3368889 1.4317037 1.7185185 2.80651851.3057778 1.45145679.6494815 2.94083951 1.0311111 4.46814815.3816297 1.52730864.7640494 3.16997534 1.1456791 4.92641974 1.5273086-2.0622222 3.0166913-4.00987653 4.4681481-5.84296295s2.8262716-3.39911111 4.1244445-4.69728395c.6107654-.61076543 1.2981728-.95446913 2.0622222-1.03111111s1.3748148.1145679 1.8330864.57283951c.3816296.30577777.6684444.91654321.8588642 1.83308642.1912099.91654321-.134321 1.94765432-.9734321 3.09333333-.8399012 1.14567901-1.7951605 2.42567901-2.8641975 3.83841975-1.0690371 1.4127407-2.1767902 2.9210864-3.3224692 4.525037 1.9855803-.3816296 3.9332346-.6684444 5.842963-.8588642 1.9097284-.1912098 3.7040988-.3239506 5.3846913-.4013827.8399013 0 1.5660247.1524939 2.1767902.4582716.6107654.3057778.9544691.7640494 1.0311111 1.3748148.076642.5349136-.1524938 1.183605-.6874074 1.9476544-.5349136.7640493-1.4893827 1.2602469-2.8641976 1.4893827-1.2981728.2291358-2.6919506.4582716-4.1821234.6874074-1.4893827.2291358-2.9977284.4961975-4.525037.8019753 1.7564444 1.2981728 3.3991111 2.5773827 4.9264197 3.8384198 1.5273086 1.2602469 2.9408395 2.4628148 4.2390123 3.6084938.6107655.6107654 1.0113581 1.2404938 1.202568 1.8907654.1912098.6479012.0948148 1.2404938-.2860247 1.7754074-.3816297.3816296-1.0311112.6494815-1.9476544.8019753-.9165432.1524939-1.9097284-.1524938-2.9787654-.9165432zm46.5145675 0c-1.527308-1.145679-3.188938-2.368-4.984098-3.6661728-1.793581-1.2981729-3.685136-2.6350618-5.670716-4.0098766 1.298172 4.6593581 2.672987 9.0887902 4.124444 13.2898766.229136.9165432.134321 1.7185185-.286815 2.4059259-.418765.6874074-.935506 1.0311111-1.546271 1.0311111-.993186-.1524938-2.004544-.6107654-3.036445-1.3748148-1.031111-.7640494-1.738271-1.6805926-2.119111-2.7496296-.305778-.6874074-.687407-1.7951605-1.145679-3.3224692-.458272-1.5273086-.993185-3.3224691-1.6039506-5.3846913-1.2981728 1.9097284-2.5015308 3.7807407-3.6092839 5.6138271-1.1061729 1.8330865-2.1570371 3.5895309-3.1502222 5.2701235-.6107655.8399012-1.2981729 1.3171358-2.0622223 1.4317037-.7640493.115358-1.3368889-.0568889-1.7185185-.5151605-.5349136-.8399012-.8588642-1.9279012-.9742222-3.2655802-.1145679-1.3353087.0948148-2.4628149.6305185-3.3793581.3816296-.6107654 1.0690371-1.7185185 2.0622222-3.3224691.9931852-1.6039506 2.2147161-3.474963 3.6661729-5.6138272-1.6039506.3816297-3.1699753.7822223-4.697284 1.2025679-1.5273086.4203457-3.0554074.8217284-4.582716 1.2033581-.9165432.1524938-1.7185185 0-2.4059259-.4582716-.6874075-.4582716-.9931852-.9931852-.9165433-1.6039507.2291358-.9931851.7442963-1.8899753 1.5462716-2.6919506.8027655-.8027654 1.7382717-1.3558518 2.8073087-1.6616296.7640494-.2291358 2.0045432-.5530864 3.7230617-.9734321 1.7193087-.4203457 3.6859259-.8975803 5.900642-1.4324938-1.5273087-.9165432-3.0356543-1.8520494-4.5258272-2.8065186-1.4893827-.9560493-2.9977284-1.8528395-4.525037-2.6927407-.8399012-.5349136-1.3171358-1.222321-1.4324938-2.0622222-.1145679-.83990125.057679-1.4514568.5159506-1.83308643.8399012-.53491358 1.8520494-.78222223 3.0356543-.7442963 1.1851852.03792593 2.2344691.36345679 3.1510124.9734321.7640493.38162963 1.8330864 1.03111113 3.2079012 1.94765433-.2291358-1.29817285-.4203457-2.5394568-.5728395-3.72306174-.1524938-1.18518518-.2670617-2.31111111-.3437037-3.38014815-.076642-.83990123.1145679-1.56602469.5728395-2.17679012s.9931852-.95446914 1.6039506-1.03111111c.5349136-.15249383 1.1836049.01896296 1.9476543.51595062.7640494.49619753 1.3368889 1.4317037 1.7185186 2.80651851.305778 1.45145679.649481 2.94083951 1.031111 4.46814815s.764049 3.16997534 1.145679 4.92641974c1.527309-2.0622222 3.016691-4.00987653 4.468148-5.84296295s2.826272-3.39911111 4.124445-4.69728395c.610765-.61076543 1.298172-.95446913 2.062222-1.03111111.764049-.07664198 1.374815.1145679 1.833086.57283951.38163.30577777.668445.91654321.858864 1.83308642.19121.91654321-.13432 1.94765432-.973432 3.09333333-.839901 1.14567901-1.79516 2.42567901-2.864197 3.83841975-1.069037 1.4127407-2.17679 2.9210864-3.322469 4.525037 1.98558-.3816296 3.933234-.6684444 5.842963-.8588642 1.909728-.1912098 3.704098-.3239506 5.384691-.4013827.839901 0 1.566025.1524939 2.17679.4582716.610766.3057778.954469.7640494 1.031111 1.3748148.076642.5349136-.152494 1.183605-.687407 1.9476544-.534914.7640493-1.489383 1.2602469-2.864198 1.4893827-1.298172.2291358-2.69195.4582716-4.182123.6874074-1.489383.2291358-2.997729.4961975-4.525037.8019753 1.756444 1.2981728 3.399111 2.5773827 4.92642 3.8384198 1.527308 1.2602469 2.940839 2.4628148 4.239012 3.6084938.610765.6107654 1.011358 1.2404938 1.202568 1.8907654.19121.6479012.094815 1.2404938-.286025 1.7754074-.381629.3816296-1.031111.6494815-1.947654.8019753-.916543.1524939-1.909729-.1524938-2.978766-.9165432z" fill="#dd5a6f"/></svg>