<svg height="284" preserveAspectRatio="xMidYMid" viewBox="0 0 256 284" width="256" xmlns="http://www.w3.org/2000/svg"><path d="m255.663.035-255.574-.035-.089 162.68h44.179c36.381.709 32.997 25.413 36.186 47.936 3.243 22.896 25.129 34.113 43.506 34.113 24.048 0 43.062-20.627 43.062-45.189 0-18.961-8.683-32.607-46.075-48.556-42.406-17.898-53.11-43.168-53.11-67.765 0-40.227 30.746-67.164 66.454-67.164 18.732 0 39.129 5.99 52.951 21.567 11.165 12.582 15.187 25.288 14.744 40.971-.177 6.876-.992 15.684 12.937 15.879l40.829.088zm.337 117.279-38.526-.142s-40.759 3.19-38.455-28.07c1.064-15.063-3.367-26.546-6.486-31.366-8.116-12.582-21.673-18.856-38.029-18.856-24.048 0-41.716 20.025-41.716 40.989 0 18.253 8.861 38.686 46.607 53.306 32.731 12.635 53.092 34.627 53.092 65.214 0 32.217-24.49 69.821-68.581 69.821-22.683 0-43.239-5.405-58.976-27.929-8.01-11.465-11.093-26.227-11.625-41.006-.443-11.342-3.438-13.823-11.217-13.823l-41.999.124v97.963h255.769v-164.807l.124-1.418z" fill="#2e383f"/></svg>