<svg height="131" preserveAspectRatio="xMidYMid" viewBox="0 0 512 131" width="512" xmlns="http://www.w3.org/2000/svg"><path d="m512 114.85432c0 8.093754-6.556653 14.657713-14.629595 14.657713-8.072941 0-14.629594-6.563959-14.629594-14.657713 0-8.099738 6.556653-14.665691 14.629594-14.665691 8.072942 0 14.629595 6.565953 14.629595 14.665691zm-234.728187-73.4999835v66.7485395h-8.683834v21.409157h34.20603v-88.1576965zm-226.4224297 10.6587042c-11.8039658-4.3001809-20.8300597-8.2612936-20.8300597-16.7539513 0-7.86239 6.4233314-12.740981 16.758766-12.740981 6.2661308 0 10.4826857 1.1987053 13.1929017 2.4652242-.4099152 1.1947163-.6685995 2.6168077-.6685995 4.7389748 0 7.0645828 5.4224219 14.5819212 15.4673341 14.5819212 8.7017437 0 14.5519896-6.3824576 14.5519896-15.8763634 0-15.944177-18.6013949-28.4278652-42.3665267-28.4278652-24.9292115 0-42.35458717 15.1044849-42.35458717 36.7370273 0 23.7267862 16.48814237 31.5133844 39.80555147 39.9362341 12.8347234 4.4916543 20.7962316 8.8895671 20.7962316 16.9214909 0 9.0431447-7.1197892 14.2308857-19.5266885 14.2308857-6.3178677 0-12.1681137-1.380206-16.3846685-3.813518.7501846-2.018452 1.0824945-4.094746 1.0824945-6.5420191 0-6.8272356-5.9119323-14.2069521-15.4573847-14.2069521-8.7912881 0-14.9161375 6.8312243-14.9161375 16.6123406 0 16.5086256 20.8280697 30.4602796 45.4886476 30.4602796 27.2931883 0 44.9374511-15.076562 44.9374511-38.396467 0-23.9023035-17.1547524-31.9262496-39.5767154-39.9262613zm71.4804547 33.097032c0-16.941436 11.021943-23.0845516 18.424295-23.0845516 5.838307 0 9.658876 2.0663207 11.491555 3.5462529-1.176019 1.98654-1.914264 4.4397974-1.914264 6.6098331 0 7.8045485 6.582521 14.3964309 14.3729 14.3964309 8.890782 0 15.095227-6.5300519 15.095227-15.874369 0-14.169056-15.614585-29.3493325-38.868318-29.3493325-26.61663 0-43.0948231 22.5161138-43.0948231 43.3787719 0 26.4153966 19.2461161 44.8666826 46.7800791 44.8666826h31.778378v-21.415139h-30.114838c-14.104267 0-23.950191-9.4879227-23.950191-23.0745793zm125.993207-43.7557362c-8.228152 0-15.917048 4.8586458-23.389045 14.8232578v-13.3473145h-35.724309v21.4131454h11.959177v43.9172918h-11.959177v21.389212h50.463347v-21.389212h-14.000793v-30.0653643c3.040536-5.5507434 8.172435-10.726518 12.856612-13.0620984 2.278412 3.454505 6.516856 6.591882 12.741199 6.591882 7.816247 0 14.175903-6.6257888 14.175903-14.7694059 0-7.7128011-5.287111-15.5013939-17.122914-15.5013939zm107.57886 0h-15.19671v-33.62358468h-24.825738v121.82914918s28.42941.03989 38.733006.03989c22.931373 0 40.890036-19.544281 40.890036-44.4897183 0-25.3503241-16.659272-43.7557362-39.600594-43.7557362zm-15.19671 21.7761476h10.598098c11.451758 0 19.152592 8.9115063 19.152592 22.1590951 0 15.5552458-9.92154 22.6457578-19.152592 22.6457578h-10.598098zm133.218459 51.7238359c0-7.76067 3.766842-14.62979 9.575301-18.9140148v-88.20955338h-36.679451v21.32139758h12.156175v12.3021871h-13.917219c-22.923413 0-40.878096 19.5363039-40.878096 44.4857299 0 25.3622906 16.645343 43.7377856 39.598604 43.7377856h35.328323c-3.237535-4.038899-5.183637-9.156832-5.183637-14.723532zm-14.947975-6.739477h-10.598099c-11.459717 0-19.160551-9.0231992-19.160551-22.4502944 0-15.4834431 9.939449-22.5340645 19.160551-22.5340645h10.598099zm-181.703866-100.38409118h25.522196v22.47223438h-25.522196z" fill="#444"/></svg>