<svg height="290" preserveAspectRatio="xMidYMid" viewBox="0 0 256 290" width="256" xmlns="http://www.w3.org/2000/svg"><path d="m246.13 93.885c-6.003 0-10.87 4.867-10.87 10.87v110.78l-78.734 44.509v-44.176l16.568-9.404c3.166 1.827 6.836 2.878 10.754 2.878 11.898 0 21.544-9.645 21.544-21.544 0-11.898-9.646-21.544-21.544-21.544-11.828 0-21.426 9.533-21.539 21.334l-22.019 12.497c-3.402 1.93-5.504 5.541-5.504 9.453v69.137c0 3.866 2.053 7.441 5.392 9.39 1.692.986 3.584 1.48 5.478 1.48 1.844 0 3.689-.468 5.349-1.407l100.474-56.799c3.412-1.928 5.521-5.543 5.521-9.462v-117.122c0-6.003-4.867-10.87-10.87-10.87" fill="#5fc0c9"/><path d="m122.447 284.992c2.973-5.215 1.156-11.854-4.059-14.827l-95.625-53.993.334-92.027 40.727 23.465-.037 22.779c-3.156 1.845-5.887 4.512-7.828 7.916-5.893 10.336-2.292 23.493 8.045 29.387 10.336 5.893 23.493 2.292 29.387-8.045 5.858-10.275 2.331-23.334-7.864-29.278l.05-29.045c.008-3.912-2.087-7.527-5.486-9.465l-62.411-35.829c-3.358-1.914-7.481-1.902-10.827.034-1.695.981-3.062 2.38-4 4.025-.913 1.602-1.846 3.437-1.853 5.344v117c-.014 3.919 2.081 7.542 5.486 9.483l101.134 57.134c5.215 2.974 11.853 1.157 14.827-4.058" fill="#17a8dd"/><path d="m241.336 63.195-106.399-60.764c-3.339-1.907-7.437-1.908-10.776-.003l-106.693 60.863c-5.215 2.974-7.031 9.613-4.056 14.828 2.975 5.214 9.614 7.031 14.828 4.055l101.304-57.788 84.375 48.187-73.997 41.711c-3.141-1.763-6.762-2.772-10.62-2.772-12.007 0-21.74 9.733-21.74 21.74s9.733 21.74 21.74 21.74c12.006 0 21.74-9.733 21.74-21.74 0-.093-.006-.184-.007-.276l90.248-50.872c3.408-1.921 5.522-5.526 5.533-9.439.011-3.912-2.082-7.529-5.48-9.47" fill="#ec3e53"/></svg>