<svg height="125" preserveAspectRatio="xMidYMid" viewBox="0 0 512 125" width="512" xmlns="http://www.w3.org/2000/svg"><g fill="#232520"><path d="m22.6525219 95.6783561c-2.4452497 0-5.0191968-.1269099-7.5931439-.3860921-5.66447108-.7721841-8.36711553-1.4138834-15.059378-4.1183153l1.54436826-5.0191969 1.54436826-6.4384427 1.02957884-5.4017139 2.31655239-.3860921c2.70085699 3.9878305 3.98961795 5.5357738 6.56177765 7.4662341 3.7322233 2.7008569 7.979236 4.1165279 12.4872184 4.1165279 9.1375122 0 15.4436826-5.1478943 15.4436826-12.7410382 0-3.2174339-1.2851861-6.4348678-3.4730412-8.6227228-2.4452497-2.4434623-5.2765915-4.2488001-12.9984328-8.3671155-10.0419687-5.0191968-13.3880999-7.076567-16.98983834-10.5549706-4.11831537-4.1183154-6.43486775-9.9096964-6.43486775-16.3445641-.00178747-16.9898384 13.64013219-28.5761752 33.84919189-28.5761752 2.0591576 0 4.1165279.13048482 6.0469882.38609206 5.4070763.51478942 8.3671155 1.41567091 15.3185602 4.12010283l-1.801763 4.88871201-1.9304603 6.4366552-1.0295789 3.9878306-2.0609451.1304848c-2.8313419-3.8627081-4.2470127-5.4070764-6.8191724-6.9496572-2.8313418-1.8017629-6.5635651-2.7044319-10.2975759-2.7044319-7.8505386 0-12.9984328 4.37571-12.9984328 11.0679726 0 3.3479187 1.5443682 6.563565 4.2470127 8.8819049 2.700857 2.1896425 5.791381 3.9914055 13.257615 7.7236288 10.1670911 5.0174094 13.3863125 7.0783545 16.8593535 11.1966699 3.7340108 4.2470127 5.6626837 9.5236042 5.6626837 15.5741673-.0017875 17.76381-15.3167727 30.6335455-36.6823212 30.6335455"/><path d="m98.582174 35.444419c-4.1165279 0-7.2070519 1.6748531-9.2662096 5.1461068-1.8017629 2.9618266-2.187855 5.0227718-2.5757346 11.5845493h5.9218659l8.4940263-.2591821c5.27659-.1286973 7.333961-1.7999755 7.333961-5.791381.001787-6.0487757-4.245226-10.680093-9.907909-10.680093zm26.901322 22.9099167-1.415671 1.6730656h-6.050563l-13.257615-.1286973-11.8419441.1286973-6.0469882.2573947c.3843046 15.059378 8.3671155 23.6838882 22.1359453 23.6838882 1.93046 0 3.734011-.1286973 5.535774-.5147893 3.088736-.5147895 4.761802-1.415671 8.234842-3.989618l1.801763 1.0295788-2.443462 6.0469882-1.93046 5.6644711c-2.059157.6434867-3.732223 1.1582762-4.890499 1.4156709-4.506195 1.0313663-9.782787 1.6748531-14.158496 1.6748531-19.6924837 0-32.6927041-13.2558276-32.6927041-33.4666747 0-20.0767874 12.7410383-33.9778893 31.1465474-33.9778893 15.8315627 0 26.1291377 9.9096964 26.1291377 25.0977718.001788 1.285186-.128697 3.0887365-.255607 5.4052889z"/><path d="m162.287365 35.5731163c-.386093 0-.643487.12691-.900882.12691-5.79138.5147894-8.494025 4.2488002-8.494025 11.8419441 0 9.3966943 3.473041 14.8001958 9.780999 14.8001958 6.050563 0 9.26621-4.1165279 9.26621-11.8419441-.001788-9.5236042-3.603526-14.9271058-9.652302-14.9271058zm14.287193 61.0079087c-3.21922-1.9304603-6.692262-2.3183398-17.633325-2.3183398-5.662683 0-7.078354.2573947-9.525391 1.6730656-3.732224 2.0609452-5.662684 4.8922872-5.662684 8.3689032 0 7.078354 6.82096 11.452277 17.633325 11.452277 11.325368 0 19.177693-4.888713 19.177693-12.097551 0-2.961827-1.415671-5.662684-3.989618-7.078355zm21.494246-61.522698-1.932248 3.9878305c-3.86092-.2556072-5.403501-.3860921-7.462658-.3860921-.386092 0-.900882 0-1.286974.1304849h-1.288761c2.189643 3.4748286 2.704432 5.1478942 2.704432 9.1375122 0 13.3827375-10.426274 21.4924583-27.929114 21.4924583-3.217434 0-4.37571-.1269099-7.464446-.7721842-2.573947 2.3165524-3.346131 3.6035259-3.346131 5.4035015 0 4.5079823 4.633105 6.177473 17.116748 6.177473h6.565353c14.671498 0 22.009034 5.9218658 22.009034 17.6333252 0 15.7046517-14.415891 26.2578357-36.040622 26.2578357-17.118535 0-28.701297-7.33575-28.701297-18.148115 0-3.217434 1.029579-5.920078 2.960039-8.1097207 1.801763-1.9304604 3.088737-2.8313419 7.594931-5.1461068l3.474829-1.8035505-2.573947-1.0295788c-4.506194-1.801763-7.207052-5.278379-7.207052-8.8801175 0-3.0923114 1.671279-5.791381 5.403501-8.8836924l6.438443-5.2748041c-7.594932-3.989618-11.069759-9.6523016-11.069759-17.5046278 0-12.8715229 10.424485-20.7238491 27.544808-20.7238491 5.791381 0 9.010603.5147895 13.51501 2.1896426l11.713247-.1286974c3.603525 0 5.662683-.1304848 10.553183-.6452743l.900881 1.1600638z"/><path d="m305.532883 92.7201045h-10.167091l-5.405289.2573946c.386092-2.5739471.772184-4.5061949.900882-5.7913809.386092-3.0923115.772184-11.4540646.772184-18.6646915v-11.582762c0-4.6348922-.257395-6.9514445-.900882-9.1375122-1.156488-3.862708-4.76359-6.3079578-9.266209-6.3079578-3.605313 0-7.080142 1.5461557-9.782787 4.2470127-3.088736 3.2174339-3.860921 5.6626837-3.860921 13.7724045v9.1392997c0 11.7114592.772185 18.7898138 2.57216 24.3255875l-5.662683-.2573946h-10.167091l-5.40529.2573946c.384305-2.5739471.643487-4.5061949.643487-5.7913809.386092-3.0923115.772184-11.4540646.900882-18.6646915l.128697-10.8087903v-.6452743c0-4.6331047-.257395-7.2052644-.900881-9.2662096-1.288761-3.862708-4.890499-6.3079578-9.267997-6.3079578-3.732224 0-7.078355 1.5461557-9.782786 4.2470127-3.090524 3.2174339-3.860921 5.7931684-3.860921 13.7724045v9.1392997c0 11.7114592.770397 18.7898138 2.57216 24.3255875l-5.662684-.2573946h-10.165304l-5.407076.2573946c.38788-2.5739471.645274-4.5061949.773972-5.7913809.386092-3.0923115.772184-11.8419442.772184-18.6646915l.257395-14.4123162c0-6.3061705-.38788-10.8123653-1.029579-13.384525-.643487-2.7026445-2.573947-3.9914055-5.662684-3.9914055h-1.029579l2.57216-5.7895935 5.149682-.2591821 10.295788-.2556073 6.179261-.386092-.259183 10.9392751 5.147894-4.3739226c6.177473-5.1478942 11.325368-7.4662341 17.76381-7.4662341 8.881905 0 14.801984 3.9914055 17.633325 12.1011263l5.405289-4.6331047c6.046989-5.1478943 11.32358-7.4662341 17.633325-7.4662341 6.692263 0 12.097552 2.4452498 15.443683 6.9514447 2.706219 3.8609206 3.476616 7.2070518 3.346131 16.4750489l-.125122 16.0871693c-.128698 11.7114594.772184 18.7898139 2.572159 24.3255877z"/><path d="m352.88636 35.444419c-4.120103 0-7.207052 1.6748531-9.269785 5.1461068-1.801762 2.9618266-2.186067 5.0227718-2.572159 11.5845493h5.918291l8.495813-.2591821c5.276592-.1286973 7.337536-1.7999755 7.337536-5.791381 0-6.0487757-4.247012-10.680093-9.909696-10.680093zm26.899534 22.9099167-1.41567 1.6730656h-6.048776l-13.257614-.1286973-11.840158.1286973-6.050562.2591821c.386092 15.0593781 8.367115 23.6838883 22.137731 23.6838883 1.930461 0 3.734011-.1286973 5.535775-.5147894 3.090524-.5147894 4.761802-1.4156709 8.236631-3.9914054l1.801762 1.0313663-2.445249 6.0487757-1.930461 5.6626836c-2.059157.6434867-3.732223 1.1582762-4.890499 1.4156709-4.504408 1.0313663-9.780999 1.6748531-14.158497 1.6748531-19.692482 0-32.690915-13.2558276-32.690915-33.4666747 0-20.0767875 12.742825-33.9778893 31.148335-33.9778893 15.827987 0 26.12735 9.9114839 26.12735 25.0977717-.001788 1.2833986-.130485 3.0869491-.259183 5.4035015z"/><path d="m450.69635 92.7201045h-10.167091l-5.405289.2573946c.384304-2.5739471.772184-4.5061949.900881-5.7913809.259182-2.0609452.386092-5.1478943.514789-9.2697846.128698-4.1165279.259183-7.2052643.259183-9.3966944v-10.8087903c0-5.2801665-.259183-7.7254162-1.029579-9.9114838-1.28876-3.8609206-5.147894-6.3079579-9.911484-6.3079579-3.732223 0-7.335749 1.5461557-10.038393 4.2470128-3.217434 3.2174338-3.991406 5.7931684-3.991406 13.7724044v9.1392997c0 11.5809745.77576 18.7898138 2.575735 24.3238001l-5.662684-.2556072h-10.168879l-5.403501.2556072c.51479-2.5721597.772185-4.5044075.900882-5.7895935.386092-3.0923115.772184-11.8419442.772184-18.6646915l.259182-14.4123162c0-6.3061705-.514789-10.8123653-1.158276-13.384525-.641699-2.7026444-2.447037-3.9914054-5.533986-3.9914054h-1.029579l2.573947-5.7895935 5.147894-.2591822 10.297576-.2556072 6.048776-.3878796-.257395 10.8123653 5.276591-4.2470128c6.563565-5.2783789 11.452278-7.466234 18.146327-7.466234 6.951445 0 12.356734 2.4452497 15.831563 6.9514447 2.831341 3.8609206 3.603525 7.3339617 3.47304 16.4750489l-.12691 16.0871694c-.128697 11.7114592.772185 18.7898138 2.57216 24.3255875z"/><path d="m509.763074 35.9592084-1.671278 4.7635896c-5.022772-.3860921-6.82096-.5147893-10.812366-.5147893h-5.147895l-.387878 11.8419441v14.5410136c0 6.5653525.128697 8.4958129.77397 11.0715475 1.029579 4.2470126 4.247013 6.6922624 8.620936 6.6922624 2.83313 0 5.022772-.6452742 8.238419-2.3165524l1.544367.9008815-1.286972 4.1183154-1.288761 5.4052889c-7.464447 2.0573702-11.198458 2.7026444-15.314987 2.7026444-12.869735 0-18.407296-6.4366552-18.407296-21.4942457v-5.9182909l.130485-12.4854309c.126909-6.8191723-.387879-11.3271547-1.031366-13.8993143-.641699-2.704432-2.443462-3.989618-5.533986-3.989618h-2.187856l2.57216-6.4366552 6.69405-.1286974c0-4.1183153-.130485-5.278379-.51479-11.0715475l4.8905-1.6712781 7.979236-3.6053134 4.375711-2.4434623 1.41567 1.4156709c-.900881 6.0487757-1.029578 7.7200538-1.288761 17.5046278l8.881905.1269099h.773972c4.247013 0 5.276591-.1269099 9.008815-.9008816l.90088 1.2869737z"/></g></svg>