<svg height="249" preserveAspectRatio="xMidYMid" viewBox="0 0 256 249" width="256" xmlns="http://www.w3.org/2000/svg" xmlns:xlink="http://www.w3.org/1999/xlink"><radialGradient id="a" cx="3.684695%" cy="93.523026%" r="105.029056%"><stop offset="0" stop-color="#212121"/><stop offset="1" stop-color="#b8b8b8"/></radialGradient><linearGradient id="b" x1="50.877945%" x2="50.877945%" y1="134.661915%" y2="-.000001%"><stop offset="0" stop-color="#4b4b4b"/><stop offset="1" stop-color="#fff"/></linearGradient><linearGradient id="c" x1="31.39467%" x2="56.461995%" y1="83.962295%" y2="29.27916%"><stop offset="0" stop-color="#26761e"/><stop offset="1" stop-color="#2cb134" stop-opacity=".996078"/></linearGradient><radialGradient id="d" cx="30.637579%" cy="48.59125%" gradientTransform="matrix(.806967 0 0 1 .059141 0)" r="51.841565%"><stop offset="0" stop-color="#fff"/><stop offset="1" stop-color="#fff" stop-opacity="0"/></radialGradient><path d="m45.5013451 18.7741272h142.0121869c23.295892 0 42.180943 18.8850512 42.180943 42.1809425v142.0121873c0 23.295891-18.885051 42.180942-42.180943 42.180942h-142.0121869c-23.2958913 0-42.18094254-18.885051-42.18094254-42.180942v-142.0121873c0-23.2958913 18.88505124-42.1809425 42.18094254-42.1809425z" fill="url(#a)"/><path d="m45.5013451 21.9243852c-21.5560518 0-39.03068452 17.4746327-39.03068452 39.0306845v142.0121873c0 21.556052 17.47463272 39.030684 39.03068452 39.030684h142.0121869c21.556052 0 39.030685-17.474632 39.030685-39.030684v-142.0121873c0-21.5560518-17.474633-39.0306845-39.030685-39.0306845zm0-6.3005161h142.0121869c25.035731 0 45.331201 20.2954699 45.331201 45.3312006v142.0121873c0 25.035731-20.29547 45.3312-45.331201 45.3312h-142.0121869c-25.0357307 0-45.33120057-20.295469-45.33120057-45.3312v-142.0121873c0-25.0357307 20.29546987-45.3312006 45.33120057-45.3312006z" fill="#2b2b2b"/><path d="m46.5611562 27.0960173h139.0630528c19.997863 0 36.209335 16.2114716 36.209335 36.2093352v84.2722565c0 19.997863-16.211472 36.209335-36.209335 36.209335h-139.0630528c-19.9978637 0-36.2093353-16.211472-36.2093353-36.209335v-84.2722565c0-19.9978636 16.2114716-36.2093352 36.2093353-36.2093352z" fill="url(#b)" opacity=".81"/><path d="m99.5180603 140.180955-20.7830649 6.953159c-2.8016973-8.252017-8.7360743-12.378063-17.8031416-12.37815-9.6784222.000087-14.5176116 3.132824-14.5175826 9.398223-.000029 2.496084.9041326 4.610043 2.7124956 6.341895 1.8082978 1.73199 5.8961362 3.234685 12.263537 4.508091 10.6461709 2.139498 18.4398139 4.304396 23.3809507 6.494706 4.9409991 2.190433 9.1052465 5.717946 12.4927602 10.582555 3.3873543 4.864709 5.0810713 10.302428 5.0811543 16.313178-.000083 9.423718-3.629475 17.573933-10.8881866 24.450668-7.2588601 6.876751-18.019688 10.315124-32.2825198 10.315124-10.6971971 0-19.8025161-2.432329-27.3159785-7.296996-7.513495-4.864652-12.4672977-12.085231-14.8614228-21.66176l22.6168686-5.119359c2.5469176 9.72935 9.6274177 14.594009 21.2415149 14.593991 5.6032281.000018 9.7802139-1.082431 12.5309683-3.247354 2.7506385-2.16488 4.1259886-4.750024 4.1260501-7.755446-.0000615-3.0563-1.2480634-5.424959-3.744009-7.105974-2.4960616-1.680946-7.3097813-3.260049-14.4411737-4.737318-13.2950794-2.750656-22.7697045-6.507396-28.4239009-11.270228-5.6542252-4.762729-8.4813306-11.728616-8.481327-20.897678-.0000036-9.270795 3.3746955-17.089908 10.1241048-23.45736 6.7493802-6.367259 15.9056384-9.550936 27.4687963-9.551041 20.4773712.000105 33.6450589 8.175789 39.5031066 24.527074zm81.8833777 46.609084h-49.665416c-.050968 1.375382-.076438 2.572445-.076409 3.591191-.000029 5.501425 1.464465 9.652941 4.393482 12.454559 2.928948 2.801654 6.430991 4.202474 10.506146 4.202459 7.589842.000015 12.148865-4.049623 13.677091-12.148927l20.630247 1.528168c-5.756165 17.828618-17.446628 26.742915-35.071424 26.742915-7.691808 0-14.224714-1.540899-19.598737-4.622705-5.37407-3.081794-9.805749-7.577147-13.295051-13.486069-3.48932-5.908889-5.233976-12.989385-5.233969-21.241518-.000007-12.276221 3.502041-22.183823 10.506146-29.722839 7.004073-7.538881 16.007514-11.308356 27.010347-11.308432 9.933028.000076 18.452548 3.502123 25.558583 10.506142 7.105901 7.00416 10.658884 18.172499 10.658964 33.505056zm-49.741825-13.218642h27.430592c-.7132-10.595232-5.06847-15.892871-13.065823-15.892932-8.557769.000061-13.346019 5.2977-14.364769 15.892932z" fill="#eee"/><path d="m60.0149702 117.464348c-11.1259588.000101-19.8356055 3.028489-26.2264249 9.057488-6.3869284 6.025484-9.5560294 13.368231-9.556026 22.140447-.0000034 8.66415 2.6191411 15.117627 7.8372477 19.513 5.3804561 4.532246 14.5973823 8.186806 27.6247552 10.882076 7.347288 1.521991 12.3402862 3.159907 15.0852891 5.008499 2.9978492 2.019046 4.543045 4.951765 4.5431187 8.607659-.0000735 3.586855-1.6477742 6.68392-4.8168154 9.178103-3.1175278 2.453585-7.6769673 3.635146-13.650667 3.635127-11.7237399.000018-19.3596724-4.80727-22.4956248-14.264322l-19.1201499 4.327872c2.4314433 8.250921 6.9571467 14.490626 13.6027793 18.793376 7.205376 4.665192 15.9690756 7.006264 26.3320104 7.006264 13.8352673 0 24.1526885-3.296691 31.0373751-9.818964 6.9036868-6.540394 10.3227863-14.218372 10.3228653-23.136336-.000079-5.642198-1.5812688-10.718649-4.7564175-15.278602-3.2027013-4.599211-7.1101752-7.909212-11.7407222-9.962016-4.7946352-2.125369-12.4765731-4.259239-23.0023015-6.374533-6.6882933-1.337581-11.0275673-2.932703-13.1607287-4.975849-2.1646397-2.073055-3.2707634-4.659206-3.2707287-7.649441-.0000345-7.471914 5.7720886-11.208604 16.3280667-11.208699 9.1976499.000088 15.5934538 4.034051 18.8811924 11.918838l17.3400657-5.801274c-5.8738418-14.432636-18.1313767-21.598616-37.138159-21.598713zm17.5851381 31.958555-.5794659-1.706737c-2.5489648-7.507628-7.7871896-11.149656-16.0887724-11.149735-8.8009004.000079-12.7071554 2.528864-12.7071321 7.587777-.0000232 2.001904.7021776 3.643671 2.154338 5.034391 1.4833591 1.420764 5.3197628 2.83103 11.3679348 4.040596 10.7649644 2.16337 18.670304 4.359296 23.7579866 6.614567 5.2513992 2.328039 9.6724201 6.073064 13.2447794 11.203118 3.5995283 5.169421 5.4057713 10.968408 5.4058593 17.347748-.000088 9.929431-3.839772 18.551882-11.453521 25.764972-7.6330248 7.231218-18.8372623 10.811271-33.5276524 10.811271-11.0314608 0-20.4783986-2.523588-28.2999415-7.587724-7.9095585-5.121085-13.1313485-12.732278-15.6338708-22.742398l-.4490391-1.796162 26.1303572-5.914642.4434117 1.693855c2.3272378 8.890163 8.6613696 13.24203 19.4900706 13.242013 5.2327521.000017 9.027282-.983321 11.4112456-2.859569 2.3322544-1.835593 3.4352505-3.908816 3.4353001-6.332728-.0000494-2.456781-.9508593-4.261379-2.9448386-5.604321-2.2471792-1.513338-6.8816171-3.033631-13.7966817-4.466087-13.5632194-2.806133-23.2955457-6.665052-29.2234658-11.658455-6.0903607-5.130101-9.1254283-12.608396-9.1254245-22.28237-.0000038-9.769376 3.5802927-18.064855 10.6922006-24.77429 7.1079227-6.705503 16.7107915-10.04447 28.7111766-10.044579 21.2038257.000109 35.0763654 8.613427 41.207485 25.726923l.623678 1.740845zm91.8714617 5.151496c-6.767719-6.670561-14.830893-9.985019-24.287667-9.985091-10.508801.000072-19.029178 3.567302-25.683976 10.730239-6.676505 7.186395-10.022069 16.651297-10.022062 28.490566-.000007 7.94241 1.66645 14.705549 4.982451 20.320936 3.33391 5.645776 7.54236 9.914691 12.636753 12.836104 5.082827 2.914815 11.306532 4.382784 18.698086 4.382784 16.088425 0 26.857315-7.676275 32.59463-23.300487l-16.722541-1.238708c-1.992921 7.899307-7.13801 12.037988-15.107997 12.037973-4.5407.000016-8.491212-1.58019-11.757576-4.704596-3.32076-3.176322-4.952556-7.802104-4.952524-13.762838-.00003-1.043004.025905-2.261925.07765-3.658288l.064607-1.743421h49.582383c-.267832-13.950919-3.665064-24.060187-10.102217-30.405173zm-36.00149 35.80684c-.000026 5.042054 1.297164 8.719305 3.834463 11.146243 2.59151 2.478881 5.645086 3.700312 9.254701 3.700299 6.692332.000013 10.526584-3.405832 11.898014-10.674146l.299881-1.589311 24.539933 1.817775-.707597 2.191646c-5.992703 18.561246-18.367185 27.997126-36.79432 27.997126-7.992065 0-14.834172-1.61383-20.49938-4.86262-5.653753-3.242181-10.308662-7.96397-13.953352-14.136032-3.662646-6.202404-5.485499-13.60026-5.485491-22.162106-.000008-12.713171 3.65852-23.063475 10.990237-30.955122 7.353342-7.914819 16.839846-11.886537 28.336736-11.886617 10.40925.00008 19.385119 3.689712 26.829499 11.027218 7.499404 7.39203 11.198419 19.019398 11.198501 34.794437l.000009 1.810476h-49.719689c-.014787.646747-.02216 1.240402-.022145 1.780734zm-3.803363-14.999375.190741-1.983747c1.101592-11.456814 6.590864-17.53005 16.166938-17.530119 9.068137.00007 14.100765 6.121629 14.872188 17.581806l.130054 1.93206zm27.439145-3.620934c-.997929-8.392055-4.63099-12.271949-11.081467-12.271999-7.007245.000051-11.032444 3.90617-12.317197 12.271999z" fill="#232323"/><path d="m107.916027 89.7196983 42.589486 45.4287827 103.244981-106.897953-14.196493-24.98583061-86.209188 90.43001461-29.528709-27.8251252z" fill="url(#c)"/><path d="m109.578481 86.1958963 42.021625 30.5017157 98.632372-95.4245359-9.879435-18.07853393-86.777048 92.13359473-28.960849-26.689405z" fill="url(#d)"/><path d="m239.924611.25212812 16.069196 28.28178968-105.507815 109.2408502-44.872942-47.8644696 17.885224-26.8278312 29.778147 28.0601721zm-89.399578 132.27006588 100.982147-104.5550557-12.323789-21.68987163-85.770185 89.96951813-29.279272-27.5900783-13.91493 20.8723916z"/></svg>