<svg height="296" preserveAspectRatio="xMidYMid" viewBox="0 0 256 296" width="256" xmlns="http://www.w3.org/2000/svg"><path d="m219.013 94.362v106.594l-90.576 53.588-.819.745v39.839l.819.772 127.563-73.684v-148.532l-1.205-.295-35.963 20.106z" fill="#2f406a"/><path d="m37.57 201.829 90.867 52.715v41.356l-128.437-73.975v-147.95l1.318-.199 35.859 20.848.393 1.194z" fill="#2379bd"/><path d="m37.57 95.818-37.57-21.843 128.146-73.975 127.854 73.684-36.987 20.678-90.867-51.841z" fill="#03afef"/><path d="m126.878 189.638-.984-1.004v-40.026l.984-.508.239-.987 34.315-20.017 1.05.235v41.242z" fill="#2f406a"/><path d="m90.68 169.858v-42.823l.995-.049 34.906 20.314.297.8v41.538z" fill="#2379bd"/><path d="m126.284 105.969-35.604 21.066 36.198 21.065 35.604-20.769z" fill="#03afef"/><path d="m82.57 215.748-.983-1.004v-40.027l.983-.507.24-.987 34.314-20.017 1.05.235v41.241z" fill="#2f406a"/><path d="m46.373 195.968v-42.824l.994-.049 34.906 20.315.297.8v41.538z" fill="#2379bd"/><path d="m81.977 132.079-35.604 21.065 36.197 21.066 35.604-20.769z" fill="#03afef"/><path d="m174.35 216.737-.984-1.004v-40.027l.984-.507.239-.987 34.315-20.017 1.05.235v41.241z" fill="#2f406a"/><path d="m138.152 196.957v-42.824l.995-.049 34.906 20.315.297.8v41.538z" fill="#2379bd"/><path d="m173.756 133.068-35.604 21.065 36.198 21.066 35.604-20.769z" fill="#03afef"/><path d="m130.042 242.847-.983-1.004v-40.027l.983-.507.24-.988 34.315-20.016 1.049.235v41.241z" fill="#2f406a"/><path d="m93.845 223.067v-42.824l.994-.049 34.907 20.314.296.801v41.538z" fill="#2379bd"/><path d="m129.449 159.177-35.604 21.066 36.197 21.066 35.604-20.769z" fill="#03afef"/><path d="m126.878 132.87-.984-1.005v-40.026l.984-.507.239-.988 34.315-20.016 1.05.235v41.241z" fill="#2f406a"/><path d="m90.68 113.09v-42.824l.995-.049 34.906 20.314.297.801v41.538z" fill="#2379bd"/><path d="m126.284 49.2-35.604 21.066 36.198 21.066 35.604-20.769z" fill="#03afef"/><path d="m82.57 158.979-.983-1.004v-40.026l.983-.508.24-.987 34.314-20.017 1.05.235v41.242z" fill="#2f406a"/><path d="m46.373 139.199v-42.823l.994-.049 34.906 20.314.297.8v41.538z" fill="#2379bd"/><path d="m81.977 75.31-35.604 21.066 36.197 21.065 35.604-20.769z" fill="#03afef"/><path d="m174.35 159.968-.984-1.004v-40.026l.984-.508.239-.987 34.315-20.017 1.05.235v41.242z" fill="#2f406a"/><path d="m138.152 140.188v-42.823l.995-.049 34.906 20.314.297.8v41.538z" fill="#2379bd"/><path d="m173.756 76.299-35.604 21.066 36.198 21.065 35.604-20.769z" fill="#03afef"/><path d="m130.042 186.078-.983-1.004v-40.027l.983-.507.24-.987 34.315-20.017 1.049.235v41.241z" fill="#2f406a"/><path d="m93.845 166.298v-42.824l.994-.049 34.907 20.315.296.8v41.538z" fill="#2379bd"/><path d="m129.449 102.408-35.604 21.066 36.197 21.066 35.604-20.769z" fill="#03afef"/></svg>