<svg height="121" preserveAspectRatio="xMidYMid" viewBox="0 0 256 121" width="256" xmlns="http://www.w3.org/2000/svg"><path d="m128.162 0-45.315 34.012-7.888-9.783-63.132-12.2 46.942 40.055-58.769 44.111 127.805 24.743.355.07 127.84-24.813-58.678-44.154 47.379-40.428-63.13 12.199-8.218 10.193zm-42.961 36.931 41.086-30.838v51.487l-17.274 8.883zm44.833 20.861v-51.694l40.965 30.825-23.884 29.622zm20.815 10.092 32.778-40.653 47.83-9.243-66.716 56.927zm-125.776-49.479 47.829 9.243 32.708 40.566-13.83 7.112zm142.789 58.773 26.539-22.646 39.435 29.674-43.063 4.713zm-145.935 7.244 39.764-29.846 26.487 22.602-23.061 11.858zm49.974 5.339 20.27-10.423 19.333-9.785-.09-.111 14.873-7.649v33.778zm58.133-27.758 53.968 27.657-53.968 5.906zm0 37.333 108.176-11.839 8.802 6.624-116.978 22.705zm-121.029-5.215 8.528-6.401 108.754 11.619v17.488z" fill="#26a6ff"/></svg>