<svg height="292" preserveAspectRatio="xMidYMid" viewBox="0 0 256 292" width="256" xmlns="http://www.w3.org/2000/svg"><path d="m223.773626 57.3402078c-.200694-1.4608673-1.479536-2.2683115-2.536681-2.3569903-1.054812-.0886789-23.383211-1.7432394-23.383211-1.7432394s-15.50713-15.3951142-17.208364-17.0986815c-1.703567-1.7035673-5.029024-1.1854962-6.319534-.8051106-.19136.0560077-3.388465 1.0431433-8.678859 2.6790346-5.180711-14.9050469-14.321633-28.60359478-30.405175-28.60359478-.443394 0-.900791.01866923-1.358187.04433943-4.573961-6.04883068-10.240073-8.67652488-15.133745-8.67652488-37.464478 0-55.3636027 46.83409833-60.9760401 70.63503363-14.5573325 4.5109528-24.9000862 7.7173931-26.2209343 8.1327835-8.1257825 2.5483499-8.3824845 2.8050519-9.4489643 10.46177-.8051105 5.7967961-22.0670304 170.2260435-22.0670304 170.2260435l165.6777521 31.042263 89.770995-19.420667s-31.513661-213.0555919-31.712022-214.5164592zm-67.283906-16.4919315c-4.160905 1.2881769-8.891221 2.7513779-14.018259 4.3382625.004668-.9871356.009335-1.9602692.009335-3.0220817 0-9.2646057-1.285843-16.7229632-3.348793-22.636442 8.286804 1.0408096 13.805896 10.468771 17.357717 21.3202612zm-27.637462-19.4836757c2.303316 5.7734596 3.801522 14.0579306 3.801522 25.238466 0 .5717452-.004668 1.0944837-.009335 1.6242231-9.117585 2.8237211-19.023946 5.8901422-28.953643 8.9658979 5.575099-21.5162881 16.025201-31.9080485 25.161456-35.828587zm-11.131529-10.5364469c1.617222 0 3.246112.5484086 4.804993 1.6218894-12.006649 5.6497759-24.8767495 19.8803968-30.3118292 48.2972993-7.9437576 2.4596711-15.7078238 4.8633345-22.8861429 7.0873066 6.3662076-21.6749766 21.483617-57.0064953 48.3929791-57.0064953z" fill="#95bf46"/><path d="m221.236945 54.9832175c-1.054812-.0886789-23.383211-1.7432394-23.383211-1.7432394s-15.50713-15.3951142-17.208364-17.0986815c-.637087-.6347539-1.495872-.9591317-2.394328-1.099151l-12.527054 256.2328554 89.76166-19.418334s-31.513661-213.0555919-31.712022-214.5164592c-.200694-1.4608673-1.479536-2.2683115-2.536681-2.3569903" fill="#5e8e3e"/><path d="m135.241802 104.585029-11.06852 32.925522s-9.698665-5.176044-21.586298-5.176044c-17.4277267 0-18.3051805 10.937835-18.3051805 13.69388 0 15.038065 39.2007165 20.799857 39.2007165 56.024027 0 27.712139-17.57708 45.55759-41.2776684 45.55759-28.440239 0-42.9835695-17.700764-42.9835695-17.700764l7.6147123-25.159122s14.9493864 12.835096 27.5651189 12.835096c8.2424652 0 11.5959258-6.489891 11.5959258-11.231876 0-19.616694-32.1600832-20.491814-32.1600832-52.72424 0-27.128726 19.4720074-53.382331 58.7777381-53.382331 15.145414 0 22.627108 4.338262 22.627108 4.338262" fill="#fff"/></svg>