<svg height="278" preserveAspectRatio="xMidYMid" viewBox="0 0 256 278" width="256" xmlns="http://www.w3.org/2000/svg"><path d="m70.8820097 128.929s-3.211-.663-4.154-.38c-.944.284-6.331-.657-8.694-2.36-2.364-1.697-4.724-.469-6.897-1.792-2.17-1.324-5.48-1.136-7.933-1.228-2.456-.093-5.575.092-6.709 1.604-1.134 1.509-5.572 6.14-7.178 8.025-1.605 1.888-8.124 8.685-10.675 9.722 0 0 .659 1.043.283 1.796-.379.758-.095 2.925-.095 3.683 0 .759.188 1.981-.469 2.74-.665.756-1.041 1.981-1.041 2.453s-.758 2.172 0 4.44c.755 2.267 1.414 4.813-1.701 3.776-3.119-1.037-2.457-3.869-5.006-3.967-2.54800004-.093-5.85500004 0-6.80100004-3.49-.949-3.496-2.74-9.444-3.119-10.388-.376-.942-1.698-5.286.758-9.062 2.456-3.777 2.928-6.516 3.307-7.368.376-.848 2.173-6.232 3.492-6.991 1.322-.756.848-3.116 1.606-4.153.75500004-1.039.47100004-2.739.94300004-3.683.471-.945.662-3.681 1.322-5.758.662-2.076 2.835-5.291 4.157-6.988s2.08-4.246 2.08-5.097c0-.852-.471-2.642 1.699-4.153 2.17-1.512 6.043-6.421 6.422-7.177 0-.188 0-3.681-.191-4.909-.188-1.228-.471-2.36.755-2.832 1.233-.475 2.931-1.514 2.931-1.514s-1.179-1.509-3.731-2.785c-2.551-1.273-10.203-9.913-10.911-15.011-.71-5.099-.993-13.172 5.951-16.005 6.945-2.835 14.594-4.391 15.731-4.532 1.134-.14 5.101-.992 6.662.141 0 0-1.702-.281-2.409 0-.71.283 3.397.143 4.39 1.275 0 0-1.981-.564-3.116-.424-1.131.14 1.985 1.416 2.552 2.408.564.992 2.692 1.7 2.409 3.259-.281 1.557-.424 3.965-.143 4.673.286.708.993 1.984 1.136 3.965.143 1.984.711 4.676 1.275 5.949.567 1.275 1.984 5.24 1.417 8.072 0 0 .567 1.417 3.4-1.84 2.835-3.26 5.67-3.824 7.085-3.824 1.417 0 3.545-1.419 4.96-.852 1.42.568 2.981-.14 4.68.284 1.698.424 8.783 0 10.344-.568 1.555-.567 6.942-1.275 8.073-1.275 1.134 0-1.415-1.841.71-3.257 2.128-1.416-2.268-2.124.994-6.229 3.256-4.108.137-5.241-.427-6.089-.564-.852-.707-3.544-.707-5.1 0-1.56-.424-5.525-.424-5.525l.567-.708s-.458-.753-.907-1.02c-.446-.267-.892-1.874-1.246-2.944-.362-1.071-4.289-6.873-5.449-7.764-1.162-.897-1.339-2.231-1.162-3.482.18-1.253 1.07-2.321.893-3.661-.18-1.337-.09-3.122-.18-3.745-.087-.627.18-4.373.985-4.73 0 0 .624-.269.893.621 0 0-.449-3.121.533-3.121 0 0 1.163-.357 1.609 1.25.443 1.607.893 2.498.982 2.945.09.447.447 1.158.447 1.158s.979-.442 1.785-.088c.803.357 1.342.714 1.342 1.161s0-.357.982-.357c.98 0 1.875-.27 2.145.714.264.98.446 1.697.533 2.678.093.98.27 1.784.626 2.498.36.713.89 1.961.89 3.658s.629 4.819.896 6.249c.266 1.428 3.3040003 6.96 3.3040003 6.96s4.642.894 6.784.447c2.145-.447 5.892.357 5.449 2.321-.446 1.961-.713 7.764-.893 12.316-.179 4.552-.895 13.386-1.608 16.511-.716 3.121-5.09 11.245-6.875 12.582-1.782 1.341-3.7500003 2.231-8.6600003 4.552-4.912 2.321-10.627 4.909-10.627 4.909s3.037 4.282 3.75 4.552c.713.267.626-.624 1.516-.27.443.178 1.984.782 1.005.38-.002.037 5.379 1.414 5.379 1.414.515-.01.835-.103.77-.408-.269-1.246.983-2.852 1.517-3.212.536-.356-.803 1.606 0 2.496.806.896 12.3480003-2.521 12.1320003-1.909-.214.612.626.66 1.362.084.73-.573 3.788-2.563 5.967-2.555 2.185.011 7.128.447 8.453-.036 1.326-.481 7.353-4.198 9.366-5.181 2.008-.988 8.947-.893 11.877-2.864 2.929-1.974 9.379-6.593 12.103-8.274 2.722-1.68 22.916-14.023 27.224-14.694s14.634-4.742 16.403-6.003c1.77-1.258 7.336-4.321 8.451-5.281 1.117-.961 6.7 1.479 9.61 5.615 0 0 5.675-2.777 6.9-2.883 1.221-.107 3.485-1.682 5.22-3.01 1.739-1.331 6.973-4.855 9.262-5.97 0 0 1.157-.508 1.379-1.32.222-.811 1.146-2.361 1.977-2.041 0 0 1.823-2.325 2.561-1.625 0 0 1.601-1.514 2.519-.691 0 0 .907.129 1.213.617 0 0 1.152-.929 1.685-.224 0 0 .832-.938 2.233.163 0 0 .933 1.148-.783 3.26 0 0-1.076.556-1.829 2.105-.747 1.55-2.839 4.496-5.13 5.65-2.298 1.154-4.949 3.181-4.85 7.325.101 4.148-1.666 8.969-6.021 7.885-4.356-1.084-8.175.379-11.989 2.454 0 0-.334 2.19-.702 2.712-.371.52-2.076.351-4.42 1.82-2.343 1.465-3.772 2.016-5.62 3.397-1.851 1.382-2.247 2.314-3.802 3.035-1.556.728-3.303 2.699-4.334 3.791-1.036 1.089-4.847 3.771-9.351 5.961-4.508 2.193-23.034 8.8-27.317 12.273-4.288 3.473-12.171 9.695-24.134 15.547-.497.241-.958.477-1.427.71-.724.66-11.011 10.066-14.533 12.526-3.651 2.549-5.111 2.914-6.206 8.746-.719 3.844-3.654 10.049-5.681 14.991-.447 4.81-.703 9.482-.812 12.329-.141 3.681-4.856 40.287-5.99 44.246-1.138 3.965-1.418 6.938-.851 10.052.567 3.108-.851 6.789-2.55 9.903-1.705 3.114-4.538 10.473-4.114 14.719.424 4.245.851 5.803-.424 6.368-1.278.564-5.3890003.427-5.9540003 1.842-.567 1.415-2.693 1.415-2.693 1.415s-.638 6.315.474 7.427c1.115 1.106 5.047 5.758.264 9.223-4.788 3.471-9.834 6.548-11.011 8.971-1.182 2.418-3.805 3.796-4.788 4.58-.983.783-2.752 1.898-2.884 2.353-.129.46-1.57 1.311-2.949.921 0 0-1.179.519-2.426-.857 0 0-2.028.197-2.424-1.109 0 0-1.705.127-1.901-1.179 0 0-.854-1.898 1.704-2.681 2.553-.789 6.62-6.484 6.752-7.399.129-.915 2.033-6.613 3.474-8.965 1.44-2.359 3.341-8.511 3.605-14.138 0 0-.587-.39-.587-.977 0-.592.034-3.296.318-4.332.286-1.042.851-4.058.475-8.494-.38-4.431.567-11.697 0-16.698-.568-5.001.511-39.717 2.021-44.246 1.514-4.529 2.079-5.565 1.986-7.359-.096-1.794 0-7.267.567-7.548.565-.283.66-7.171.472-7.929-.191-.752-4.255-3.583-4.819-5.565 0 0 .093 2.075 0 2.83-.096.756-.188-.188-1.702-1.794-1.516-1.606-4.35-5.001-4.538-7.455-.338-.182-4.526-2.646-4.526-2.646-.52.023-.779-.222-.905-.435z"/><path d="m90.2010031 87.094c-.429 7.664-18.42 42.569-18.42 42.569-.629 3.089-.498 5.972-.181 7.686.762 4.111-3.05 10.277-3.05 10.277l4.152 2.176c5.607-3.238 3.202-12.948 3.202-12.948-.464-1.737-.506-3.41-.269-4.981l.044.045s20.404-40.285 19.416-43.458c-.003.005-2.435-.344-4.894-1.366" fill="#991b21"/></svg>