<svg height="174" preserveAspectRatio="xMidYMid" viewBox="0 0 256 174" width="256" xmlns="http://www.w3.org/2000/svg" xmlns:xlink="http://www.w3.org/1999/xlink"><radialGradient id="a" cx="125.9704" cy="125.7092" gradientTransform="matrix(1 0 0 .3673 0 79.541)" gradientUnits="userSpaceOnUse" r="129.9059"><stop offset=".6938" stop-color="#afadae"/><stop offset=".968" stop-color="#afadae" stop-opacity="0"/></radialGradient><radialGradient id="b" cx="178.6103" cy="90.8516" gradientTransform="matrix(-.9856 .1689 -.09165681 -.535 362.9829 109.296)" gradientUnits="userSpaceOnUse" r="177.3905"><stop offset=".476" stop-color="#f3efe9"/><stop offset=".5676" stop-color="#eeeae3"/><stop offset=".6878" stop-color="#e1dbd2"/><stop offset=".8239" stop-color="#cdc5b7"/><stop offset=".9626" stop-color="#b4aa98"/></radialGradient><linearGradient id="c" gradientUnits="userSpaceOnUse" x1="53.662" x2="197.0659" y1="47.5795" y2="58.4252"><stop offset=".0938963" stop-color="#d7d0c6"/><stop offset=".2485" stop-color="#cdc7bb"/><stop offset=".4006" stop-color="#c7c2b5"/><stop offset=".5248" stop-color="#cbc6ba"/><stop offset=".6688" stop-color="#d7d1c7"/><stop offset=".7801" stop-color="#e6dfd6"/><stop offset=".8921" stop-color="#e7e3d9"/><stop offset=".9337" stop-color="#e5dfd3"/><stop offset=".9795" stop-color="#dfd5c6"/></linearGradient><radialGradient id="d" cx="110.123" cy="23.7713" gradientTransform="matrix(.08815892 .9961 -2.6842 .2376 164.222 -91.5701)" gradientUnits="userSpaceOnUse" r="53.7674"><stop offset=".0671074" stop-color="#b2a797"/><stop offset=".2897" stop-color="#c7bdae"/><stop offset=".4806" stop-color="#d6cebf"/><stop offset=".6881" stop-color="#e2dcd0"/><stop offset=".9423" stop-color="#f7f5ee"/></radialGradient><linearGradient id="e" gradientUnits="userSpaceOnUse" x1="69.277" x2="177.0614" y1="15.553" y2="15.553"><stop offset=".0559668" stop-color="#f7f5ee"/><stop offset=".2258" stop-color="#e6e1d6"/><stop offset=".4305" stop-color="#d8d1c3"/><stop offset=".6393" stop-color="#d0c8b9"/><stop offset=".8566" stop-color="#cec5b5"/></linearGradient><linearGradient id="f" gradientUnits="userSpaceOnUse" x1="42.4698" x2="196.3752" y1="94.5299" y2="94.5299"><stop offset=".0184049" stop-color="#262222"/><stop offset=".09587801" stop-color="#2f2c2c"/><stop offset=".2998" stop-color="#424143"/><stop offset=".4017" stop-color="#4a4a4c"/><stop offset=".514" stop-color="#4a4a4c"/><stop offset=".7797" stop-color="#383536"/><stop offset="1" stop-color="#262222"/></linearGradient><path d="m5 123c0-27.8 56.2-50.3 125.5-50.3s125.5 22.5 125.5 50.3-56.2 50.3-125.5 50.3c-69.3.1-125.5-22.5-125.5-50.3z" fill="url(#a)"/><path d="m2.9 127.8s-20.6-40 47.4-62.4c31.8-10.5 69.1-17.4 102.4-18.6 38-1.3 71.7 5.3 86.4 27.7 10.6 16.2 4.2 36-16.3 51.4-12.3 9.2-39.3 18.4-57.3 23.6-18 5.1-53.3 12-82.2 10.4s-64.8-5.8-80.4-32.1z" fill="url(#b)"/><path d="m2.9 127.8s-20.6-40 47.4-62.4c31.8-10.5 69.1-17.4 102.4-18.6 38-1.3 71.7 5.3 86.4 27.7 10.6 16.2 4.2 36-16.3 51.4-12.3 9.2-39.3 18.4-57.3 23.6-18 5.1-53.3 12-82.2 10.4s-64.8-5.8-80.4-32.1zm81 30.9c28.2 1.6 62.6-5.2 80.1-10.2s44.2-13.6 56.2-22.6c20-15 28.1-33.7 16.9-50.9-14.2-22-48.7-28.8-85.7-27.5-32.4 1.1-68.8 8.8-99.8 19-66.3 21.9-46.2 60.9-46.2 60.9 15.3 25.6 50.3 29.7 78.5 31.3z" fill="#cec7bc"/><path d="m57.3 95.9c-5.9-4.3-14.2-25.4-11-30s8-14.2 10.7-23.6c2.7-9.3 6.5-29.1 14-36.1 7.5-7 18.7-7 33.5-5.4 14.7 1.6 57.8 9.4 68.3 13.1 10.4 3.7 24 10.7 23.2 27s.7 24.4-1.2 33.5-21.7 26.8-46.6 28.1c-25 1.5-85-2.3-90.9-6.6z" fill="url(#c)"/><path d="m127.8 75.8s25.7-3.4 41.2-17.9 1.8-24.9-2.4-27.5-18.3-9.4-40.6-8.4-44.3 1.2-42.8 17.7c1.5 16.4 19.5 36.1 44.6 36.1z" fill="url(#d)"/><path d="m71 26.2c-2.8-1.8-3.2-11.6 7.2-18.3 10.4-6.6 37.2-2.6 54.6 1.6 17.5 4.2 45.7 10.1 44.2 11.7-1.5 1.5-43.5-3.6-62.7-2.6-26.1 1.4-38.9 10.4-43.3 7.6z" fill="url(#e)"/><path d="m195.6 71.7c-.3 0-.4.9-.8 1.4-3.3 5.4-13.1 14.6-35.4 14.6-19.8 0-51.1 0-60.6 0-38.2 0-49.3-10.3-52.1-17.7-.2-.7-.5-1.6-.8-1.6s-.5 1.6-.5 1.6l-2.9 27.7c0 12.7 32.9 23 75.2 23s78.6-6 78.6-23c0 0 .2-16.9.1-24.4 0-.8-.1-1.6-.8-1.6z" fill="url(#f)"/></svg>