<svg height="256" preserveAspectRatio="xMidYMid" viewBox="0 0 256 256" width="256" xmlns="http://www.w3.org/2000/svg"><circle cx="128" cy="128" r="128"/><path d="m188.717949 69.3333335-29.842234-13.1282052h-61.872866l-29.6598974 13.3714416-24.6762849 27.410963 85.3333333 113.4740051 85.333333-113.4740051zm17.504273 28.3901082-26.985755 20.1933673-19.190883-28.7544157 27.152775-12.778849zm-36.892809 23.2719313h-84.2393161l16.7654471-29.7816977 50.212832.121436zm-66.79959-60.3467119h51.40057l25.306074 11.1600684-25.414382 11.0699943h-51.400569l-25.1580174-11.0608775zm-33.7861649 15.7348832 25.4632479 12.7635328-18.2336183 28.2015729-26.2534928-19.6252083zm-9.240433 36.2079547 16.5911339 13.988467 39.472137 64.955806zm27.887225 17.642119h79.9846839l-39.375134 72.569801zm52.9850709 61.302154 39.472137-64.955806 16.591134-13.988467z" fill="#36cef9"/></svg>