<svg height="256" preserveAspectRatio="xMidYMid" viewBox="0 0 256 256" width="256" xmlns="http://www.w3.org/2000/svg"><path d="m165.963541 15.8384262c-3.890361-11.97534423-16.751213-18.52852456-28.724459-14.63606554-11.975344 3.89036065-18.528525 16.75121314-14.636066 28.72445904l58.947148 181.3655083c4.047738 11.186361 16.132197 17.473049 27.731934 14.134557 12.099148-3.483278 19.474886-16.333639 15.613902-28.216655-.146885-.453246-58.932459-181.3718038-58.932459-181.3718038" fill="#dfa22f"/><path d="m74.6260984 45.515541c-3.8924591-11.9732459-16.7533115-18.5264262-28.7265574-14.6360656-11.9753443 3.8903607-18.5285246 16.7512131-14.6360656 28.7265574l58.9471476 181.3655082c4.0477377 11.186361 16.132197 17.473049 27.731934 14.132459 12.099148-3.48118 19.474886-16.331541 15.613902-28.216656-.146885-.451147-58.9303606-181.371803-58.9303606-181.371803" fill="#3cb187"/><path d="m240.161574 166.045377c11.975344-3.890361 18.526426-16.751213 14.636065-28.726557-3.89036-11.973246-16.751213-18.526427-28.724459-14.636066l-181.3655079 58.949246c-11.1863606 4.045639-17.4730491 16.130098-14.1345573 27.729836 3.4832786 12.099148 16.3336393 19.474885 28.2166557 15.613902.4532459-.146886 181.3718035-58.930361 181.3718035-58.930361" fill="#ce1e5b"/><path d="m82.507541 217.270557c11.805377-3.835803 27.02059-8.779541 43.347934-14.084196-3.835803-11.805377-8.779541-27.022689-14.086295-43.352131l-43.3500325 14.090491z" fill="#392538"/><path d="m173.847082 187.591344c16.388197-5.323541 31.620197-10.273574 43.347934-14.084196-3.835803-11.805378-8.781639-27.026886-14.088393-43.360525l-43.350033 14.090492z" fill="#bb242a"/><path d="m210.484459 74.7058361c11.973246-3.8903607 18.526426-16.7512131 14.636066-28.7265574-3.890361-11.9732459-16.751214-18.5264262-28.726558-14.6360656l-181.365508 58.9492459c-11.18636064 4.0456394-17.47304916 16.130098-14.132459 27.729836 3.48118033 12.099148 16.331541 19.474885 28.2166557 15.613902.4511476-.146886 181.3718033-58.9303609 181.3718033-58.9303609" fill="#72c5cd"/><path d="m52.8220328 125.933115c11.805377-3.835804 27.0247869-8.78164 43.3542295-14.086295-5.323541-16.3902954-10.2735738-31.6222954-14.0841967-43.3521315l-43.3605246 14.0925902z" fill="#248c73"/><path d="m144.159475 96.256c16.392394-5.3256393 31.626492-10.2756721 43.356328-14.0883934-5.325639-16.3923935-10.275672-31.6285902-14.088393-43.3605246l-43.358426 14.0925901z" fill="#62803a"/></svg>