<svg height="256" preserveAspectRatio="xMidYMid" viewBox="0 0 256 256" width="256" xmlns="http://www.w3.org/2000/svg" xmlns:xlink="http://www.w3.org/1999/xlink"><radialGradient id="a" cx="49.281635%" cy="43.274304%" r="65.683194%"><stop offset="0" stop-color="#f8953e"/><stop offset="1" stop-color="#f36e3e"/></radialGradient><path d="m255.4766 190.5682-42.095-176.038c-2.431-10.168-12.644-16.438-22.811-14.007l-36.259 8.67c9.242 1.458 27.552 5.462 47.719 16.042l-15.788 43.757s-13.141-14.677-48.375-16.462c-33.494-1.696-52.125 34.539 13.202 55.902 50.013 16.355 66.012 47.881 65.183 77.036-.432 15.16-5.736 27.489-11.882 36.784l37.1-8.869c10.167-2.431 16.437-12.646 14.006-22.815m-141.858-44.684c-34.009-12.848-62.576-35.793-64.473-65.658-1.209-19.05 3.589-35.695 15.984-49.708l-50.599 12.1c-10.167 2.431-16.439 12.644-14.007 22.812l42.095 176.04c2.431 10.166 12.644 16.438 22.811 14.006l21.664-5.18c-8.409-2.787-22.946-8.094-36.881-15.525l20.198-45.819s23.771 21.168 57.904 21.168 49.302-40.059-14.696-64.236" fill="#ef4d37"/><path d="m49.1458 80.2263c-1.041-16.394 2.352-31.014 11.219-43.703l-44.735 10.698c-7.611 1.819-12.325 9.495-10.505 17.108l24.189 101.152c7.625-9.419 25.928-28.796 52.371-36.061-18.399-12.771-31.286-29.472-32.539-49.194zm159.634-64.598c-1.82-7.61-9.495-12.324-17.11-10.504l-26.316 6.293c9.776 2.365 22.784 6.53 36.677 13.818l-15.788 43.757s-13.141-14.677-48.375-16.462c-33.494-1.696-52.125 34.539 13.202 55.902 17.111 5.596 30.239 12.969 40.075 21.416.382-.132.763-.246 1.145-.386 12.719-4.654 24.923-21.288 33.875-41.133z" fill="url(#a)"/></svg>