<svg height="425" preserveAspectRatio="xMidYMid" viewBox="0 0 256 425" width="256" xmlns="http://www.w3.org/2000/svg" xmlns:xlink="http://www.w3.org/1999/xlink"><linearGradient id="a"><stop offset="0" stop-color="#002e3b"/><stop offset="1" stop-color="#002639"/></linearGradient><linearGradient id="b" x1="50%" x2="50%" xlink:href="#a" y1="-352.925786%" y2="96.717527%"/><linearGradient id="c" x1="50%" x2="50%" xlink:href="#a" y1="-2.807862%" y2="428.758892%"/><linearGradient id="d"><stop offset="0" stop-color="#00bc85"/><stop offset="1" stop-color="#149d91"/></linearGradient><radialGradient id="e" cx="16.423404%" cy="142.999709%" r="295.57111%" xlink:href="#d"/><radialGradient id="f" cx="16.423338%" cy="-42.999755%" r="357.003966%" xlink:href="#d"/><radialGradient id="g" cx="11.467033%" cy="-40.45805%" r="343.189366%"><stop offset="0" stop-color="#004473"/><stop offset="1" stop-color="#00345f"/></radialGradient><path d="m65.6992339 330.300644-65.59150044 32.083792 127.29255554 62.000406 127.639047-62.195032-65.758816-32.538545-61.928475 30.753445z" fill="url(#b)"/><path d="m57.6019991 98.1748765v-.020697l69.9292679-34.1065382 69.934443 34.1065382 57.538181-35.9555422-127.519193-62.1986373-127.484698 62.1796642v.0551942l57.5537042 35.9641653z" fill="url(#c)"/><path d="m.15618046 298.428426 62.91498154-30.803781 64.713631 32.042618-127.62861254 62.794708z" fill="url(#e)"/><path d="m196.677541 99.4103235c-.000001 33.5891715-.000002 100.7675155-.000002 100.7675155l-70.341277 34.423802 64.686172 32.338973 62.978483-30.796888-.000007-173.9529429-57.323369 35.9758022z" fill="url(#f)"/><path d="m255.003891 298.216498-197.4149146-98.250588.000001-101.7843682-57.5889774-35.951301v.9072835 172.7942727l255.003891 126.321691z" fill="url(#g)"/></svg>