<svg height="419" preserveAspectRatio="xMidYMid" viewBox="0 0 256 419" width="256" xmlns="http://www.w3.org/2000/svg"><path d="m217.618939 99.4087738c-8.528652-26.4552795-27.921374-63.6319797-30.684339-68.8643738l-2.406-4.574c-2.37-4.72-4.139-8.101-4.806-9.363l-8.738-16.607-12.517 88.948-.435916 3.2350868c-9.358195-.5330903-19.320777-.8395868-29.858684-.8395868-10.59769 0-20.619455.309984-30.0341765.8486816l-.3862235-3.2461816-4.393-31.179c.006-.052-8.143-57.767-8.143-57.767l-8.922 16.607c-.808 1.527-3.243 6.154-6.412 12.505l-.77 1.432c-2.7686887 5.2373454-22.3466438 42.479481-30.9299253 68.9394462-24.7596386 4.7829908-38.1826747 9.8990538-38.1826747 9.8990538v216.216l127.999 92.721 128.001-92.721v-216.216s-13.464753-5.169757-38.381061-9.9741262z" fill="#fff"/><path d="m183.0735 267.2773h-55.173v-94.47l-55.983 91.708-8.704 94.172 63.825 46.618.862.631 65.272-47.585z" fill="#3b3b63"/><path d="m126.9544 404.9673-118.775-86.109v-200.797s43.918-16.753 118.936-16.753c75.019 0 118.616 16.753 118.616 16.753v200.797z" fill="#dbdbdb"/><path d="m128.675 101.3083c-.055 0-.108.002-.163.002v303.652h.002l118.777-86.109v-200.792s-43.598-16.753-118.616-16.753" fill="#c6c6c6"/><path d="m192.8474 358.1572-10.08-90.88h-55.176v138.448z" fill="#3b3b63"/><path d="m63.2132 358.687 64.687 47.249v-233.129l-55.983 91.708z" fill="#53537a"/><path d="m155.7396 331.842c0 15.582-14.315 23.306-27.447 23.306s-27.736-7.724-27.736-23.306" fill="#bc9375"/><path d="m147.6916 323.0116c0 18.274-9.677 23.173-19.544 23.173-9.866 0-19.546-4.899-19.546-23.173" fill="#073251"/><path d="m128.1472 339.9002c-10.543 0-15.669-7.864-15.669-24.03h5.027c0 18.926 7.186 18.926 10.642 18.926 3.455 0 10.642 0 10.642-18.926h5.026c0 16.166-5.127 24.03-15.668 24.03" fill="#fff"/><path d="m211.8322 129.6231c0-19.714-32.77-81.741-32.77-81.741l-11.085 78.664-9.949 16.607-29.819 1.233-.118.244v-.244l-29.823-1.233-9.946-16.607-11.085-78.664s-32.773 62.027-32.773 81.741l13.845 37.879s-6.987 63.627-3.797 71.957c3.18 8.332 25.27 36.195 25.27 36.195s-.066 23.424 5.982 40.264c4.315 12.026 13.822 16.904 22.925 16.904 13.944 0 19.399-13.006 19.399-13.006s5.586 13.006 19.53 13.006c9.101 0 18.599-4.87 22.924-16.904 6.041-16.833 5.98-40.264 5.98-40.264s22.085-27.863 25.271-36.195c3.188-8.332-3.8-71.957-3.8-71.957z" fill="#c49a7e"/><path d="m128.1472 144.512-.057.118v-.243l-29.824-1.232-9.945-16.608-11.089-78.663s-32.77 62.027-32.77 81.741l13.842 37.879s-6.985 63.626-3.8 71.957c3.187 8.332 25.268 36.195 25.268 36.195s-.057 23.424 5.984 40.264c4.321 12.026 13.829 16.904 22.924 16.904 13.951 0 19.406-13.006 19.406-13.006s.025.046.063.131v-175.437z" fill="#d8b7a0"/><path d="m198.2912 171.2307c-2.54-5.404 1.071-18.191 1.071-18.191-20.694-21.565-25.869-66.534-25.869-66.534-3.864 14.17-12.262 55.949-12.262 55.949s-15.445-5.848-33.015-5.876h-.062-.069c-.965.005-1.916.03-2.866.061v176.291l1.312 1.953v-.965h.811v.965l.008-.965h1.602v.965-.965h.819v.965l14.305-21.236 3.11-59.633 17.81 20.654 22.944 6.814s8.584-6.221 8.584-6.198c3.645-5.188 4.854-9.608 5.735-11.901 3.187-8.344-3.968-72.153-3.968-72.153" fill="#3b3b63"/><path d="m128.3075 136.5768c-.023 0-.041-.002-.061-.002v.002c-17.576.03-33.023 5.874-33.023 5.874s-8.401-41.777-12.262-55.948c0 0-5.172 44.969-25.869 66.534 0 0 3.611 12.788 1.071 18.191 0 0-7.155 63.812-3.968 72.143.88 2.295 2.098 6.712 5.738 11.901 0-.024 8.589 6.199 8.589 6.199l22.939-6.815 17.807-20.651 3.118 59.633 14.297 21.236v-.965h.819v.965-.965h.803v-177.332z" fill="#53537a"/><path d="m169.7795 211.1444h-20.104-6.7v.287c0 9.507 8.094 17.208 17.588 17.208 9.497 0 17.591-7.703 17.591-17.208v-.287z" fill="#333152"/><path d="m149.6758 211.1444v.287c0 5.655 4.482 10.237 10.054 10.237 5.571 0 10.051-4.582 10.051-10.237v-.287z" fill="#fff"/><path d="m162.8307 211.1444h-4.711c-.046 0-.085.023-.126.032.584.124.908 1.469.782 2.365-.188 1.368-1.337 2.318-2.652 2.341.383 1.789 1.819 3.227 3.727 3.5 2.437.35 4.689-1.347 5.035-3.82.248-1.821-.614-4.418-2.055-4.418" fill="#333152"/><path d="m105.0761 211.1444h-20.1-6.702v.287c0 9.507 8.095 17.208 17.588 17.208 9.497 0 17.592-7.703 17.592-17.208v-.287z" fill="#333152"/><path d="m84.9756 211.1444v.287c0 5.655 4.485 10.237 10.049 10.237 5.573 0 10.053-4.582 10.053-10.237v-.287z" fill="#fff"/><path d="m98.1306 211.1444h-4.716c-.041 0-.085.023-.123.032.583.124.905 1.469.782 2.365-.189 1.368-1.331 2.318-2.655 2.341.388 1.789 1.824 3.227 3.728 3.5 2.436.35 4.693-1.347 5.034-3.82.252-1.821-.609-4.418-2.05-4.418" fill="#333152"/><path d="m167.7577 203.0298c1.125-1.252 10.68-12.26-2.099-12.26-11.547 0-19.855 9.46-22.057 12.26z" fill="#c49a7e"/><path d="m112.6384 203.0298c-2.2-2.8-10.508-12.26-22.059-12.26-12.772 0-3.217 11.008-2.098 12.26z" fill="#d8b7a0"/><path d="m72.109 211.043h48.882v-4.667h-48.882z" fill="#53537a"/><path d="m199.1762 144.8641c-14.213-20.288-18.672-53.27-19.059-56.284l2.593-18.385c10.554 21.806 21.627 47.685 22.386 58.485zm-3.63 92.293c-1.941 5.064-15.345 23.157-24.249 34.39l-1.485 1.883.007 2.404c0 .217-.007 22.394-5.577 37.914-4.027 11.217-12.972 12.429-16.626 12.429-9.252 0-13.245-8.611-13.385-8.922l-.529-8.066h-11.247l-.508 8.02c-.16.365-4.055 8.946-13.261 8.946-3.662 0-12.604-1.199-16.634-12.416-5.552-15.465-5.578-37.688-5.578-37.914l.008-2.403-1.485-1.875c-8.899-11.225-22.304-29.318-24.197-34.259-1.513-5.344.985-39.905 4.165-68.866l.175-1.607-2.509-6.858c8.62-9.176 14.669-21.804 18.842-33.825l.406 2.926 13.691 22.843 5.349-2.332c.135-.058 13.852-5.984 27.172-5.984 13.236 0 27.179 5.931 27.31 5.989l5.341 2.312 13.675-22.833.536-3.813c4.129 12.139 10.172 24.993 18.833 34.373l-2.627 7.197.175 1.606c3.178 28.967 5.676 63.528 4.212 68.741zm-75.74 100.245c1.79-.809 3.406-1.772 4.831-2.831 1.302.388 2.551.388 3.51.388.954 0 2.19.009 3.483-.38 1.428 1.051 3.047 2.014 4.837 2.823-2.245 1.704-5.009 2.662-8.313 2.662-3.323 0-6.1-.951-8.348-2.662zm8.487 14.509c-7.356 0-17.816-3.33-20.418-12.157.266.008.528.031.8.031 1.421 0 2.754-.132 4.042-.318 3.731 5.274 9.543 6.892 15.432 6.892 5.898 0 11.722-1.603 15.459-6.886 1.28.178 2.598.312 4.008.312.277 0 .543-.023.82-.031-2.577 8.827-12.897 12.157-20.143 12.157zm-77.087-223.233c.759-10.8 11.825-36.677 22.381-58.485l2.814 19.94c-1.073 7.455-5.977 36.693-19.132 55.123zm167.158 1.108c0-20.822-30.05-78.451-33.483-84.954l-9.607-18.259-13.762 97.794-6.352 10.622c-6.132-2.091-16.568-5.009-27.077-5.009-10.497 0-20.863 2.908-26.969 5.002l-6.355-10.617-4.83-34.28c.006-.057.014-.133.014-.168l-.037-.005-8.93-63.339-9.81 18.259c-3.438 6.503-33.728 64.132-33.728 84.954v1.222l13.87 37.511c-2.218 20.452-6.452 64.878-3.126 73.561 2.072 5.429 10.048 16.639 16.794 25.624l-9.086 85.987 12.51 8.962 6.612-62.55c.95 6.083 2.352 12.507 4.433 18.31 2.869 7.997 7.94 14.05 14.431 17.642.386 19.144 17.908 29.468 34.417 29.468 16.372 0 33.749-10.332 34.129-29.483 6.477-3.585 11.542-9.639 14.408-17.627 2.167-6.035 3.588-12.757 4.534-19.051l6.651 62.776 12.511-9.28-9.064-85.413c6.693-8.945 14.519-19.991 16.572-25.36 3.325-8.681-1.08-53.114-3.295-73.563l13.623-37.516v-1.22z" fill="#333152"/><path d="m143.9211 285.8216h-31.443s-4.229 7.483-4.229 9.912c0 7.211 19.353 18.692 19.353 18.692s20.443-11.823 20.443-18.692c0-3.277-4.124-9.912-4.124-9.912" fill="#333152"/><path d="m137.8605 307.8038c-1.754-3.157-4.017-3.733-5.056-1.299-1.036 2.437-.444 6.971 1.31 10.121 1.754 3.159 4.019 3.735 5.053 1.299 1.039-2.435.45-6.971-1.307-10.121" fill="#c49a7e"/><path d="m118.4339 307.8038c-1.757 3.15-2.341 7.686-1.307 10.121 1.035 2.436 3.296 1.86 5.058-1.299 1.753-3.149 2.341-7.684 1.302-10.121-1.034-2.434-3.296-1.858-5.053 1.299" fill="#d8b7a0"/></svg>