<svg height="130" preserveAspectRatio="xMidYMid" viewBox="0 0 256 130" width="256" xmlns="http://www.w3.org/2000/svg"><g fill="#201f26"><path d="m51.5525769 89.6597173c-2.9514484-1.5707496-6.2867739-2.6770707-9.9115805-3.2887569-3.5606173-.5990999-7.1829067-.9024258-10.7661791-.9024258-2.9287934 0-5.8915693-.2529813-8.8077766-.7513922-2.8394318-.4833075-5.410779-1.3744058-7.647335-2.6481226-2.1761426-1.2384756-3.9759598-2.9715862-5.35162424-5.1540219-1.35678525-2.1471944-2.04398817-4.994178-2.04398817-8.4289339.0654479-3.0332583.7702714-5.6285192 2.09684993-7.7140416 1.34419908-2.119505 3.10122348-3.8412881 5.21946978-5.1187807 2.1723668-1.3102166 4.6795247-2.2730558 7.45225-2.8620869 4.7210589-1.0018563 9.7076852-1.1893897 14.7874489-.4807903 1.9823161.2794122 3.9432358.7740472 5.82738 1.4700604 1.8501618.6859443 3.5895655 1.6261286 5.1678667 2.790346 1.5556462 1.1516312 2.930052 2.5965194 4.0854591 4.2931303l.6469273.9502531 4.7676276-2.0062298-1.0119252-1.4285262c-1.2976304-1.8325411-2.7349669-3.4825833-4.2729925-4.9073336-1.5694909-1.4486641-3.4133596-2.6808466-5.48252-3.6575306-2.0427296-.9628393-4.3799747-1.7041626-6.9500632-2.2038321-2.5436577-.4933764-5.5089509-.7425819-8.8140697-.7425819-3.1704472 0-6.4441006.3624807-9.7290816 1.0798903-3.3340669.7299958-6.4264801 1.9357474-9.1891365 3.5857896-2.82181126 1.686542-5.14772883 3.9331669-6.91356344 6.6782027-1.7935241 2.7928632-2.7047602 6.2389467-2.7047602 10.2438545 0 4.2037688.84452959 7.7820067 2.50841651 10.6340247 1.65381802 2.8343974 3.87149484 5.1313668 6.59135843 6.8254605 2.6632259 1.6613697 5.7707424 2.8557938 9.2357051 3.5492898 3.3856701.677134 6.9286668 1.0207355 10.532077 1.0207355 2.8646041 0 5.8978624.2164815 9.0167064.6481859 3.034517.4191182 5.8588454 1.2649064 8.3936928 2.5134509 2.4693995 1.2195964 4.5272325 2.9149487 6.1130854 5.0407467 1.5342497 2.0578328 2.3133314 4.8368518 2.3133314 8.2590208 0 3.073534-.7501336 5.693967-2.2264871 7.794593-1.5254395 2.16985-3.506497 3.960857-5.8890521 5.322676-2.4341584 1.390768-5.1892631 2.415279-8.1935733 3.043328-3.0521375.639375-6.0728097.962839-8.9764308.962839-4.8746097 0-9.6913232-.931374-14.3154689-2.76895-4.6040078-1.826248-8.6869497-4.571284-12.13303321-8.158332l-.92508085-.962839-3.8022711 3.29505 1.06730417 1.067304c3.40203204 3.404549 7.62719724 6.368584 12.55466869 8.812811 4.987885 2.475693 10.8945577 3.73053 17.5538812 3.73053 3.1666713 0 6.5271691-.36248 9.9908732-1.076114 3.5115314-.72622 6.8065813-1.965954 9.7920123-3.688996 3.0332583-1.749473 5.5567782-4.038891 7.5038531-6.804064 1.9999367-2.840691 3.0143791-6.395015 3.0143791-10.569836 0-4.230199-.9502531-7.812213-2.8255871-10.6466104-1.8514203-2.7941218-4.323337-5.0294192-7.3490437-6.6404443"/><path d="m96.3959657 124.621229c-3.4385318 0-6.5825481-.709858-9.3464632-2.109436-2.8004148-1.41594-5.2723315-3.344136-7.3490436-5.734243-2.0880397-2.400176-3.7468921-5.206884-4.9299887-8.343348-1.1919069-3.15031-1.8677823-6.452911-2.0049712-9.7592886 0-3.057172.566376-6.1810505 1.6815075-9.2860497 1.1138729-3.0949304 2.7362255-5.9180003 4.8242652-8.389917 2.0817466-2.4631064 4.6153353-4.5033188 7.5315426-6.0665166 2.8671213-1.5355084 6.0942061-2.3145901 9.5931514-2.3145901 3.2900154 0 6.3975323.7287372 9.2357053 2.1635565 2.87719 1.4562157 5.408262 3.4070665 7.523991 5.7984319 2.120763 2.4014344 3.814857 5.2094009 5.036971 8.3471241 1.217079 3.1339474 1.833799 6.413894 1.833799 9.7479609 0 3.0533956-.566376 6.1785336-1.680249 9.2847906-1.11639 3.101224-2.738742 5.923035-4.825523 8.392435-2.077971 2.458072-4.607784 4.478146-7.520215 6.003586-2.86838 1.504043-6.099241 2.265504-9.6044793 2.265504m20.8640343-47.0431935c-2.494572-2.9149487-5.526571-5.326452-9.014189-7.1665448-3.535445-1.865265-7.522732-2.8092251-11.8498453-2.8092251-3.9419772 0-7.7077485.8445296-11.192849 2.5084165-3.4599283 1.6538181-6.5196175 3.9344255-9.0934819 6.7763746-2.5637955 2.8306216-4.6191112 6.1646885-6.1093095 9.9090634-1.4927155 3.7494093-2.2504007 7.7467655-2.2504007 11.8787933 0 3.9054776.6985304 7.7278866 2.0767121 11.3615036 1.3756644 3.631099 3.3340669 6.926149 5.821087 9.797046 2.4983476 2.883484 5.5366404 5.240867 9.0305512 7.005443 3.5203417 1.779679 7.4547672 2.721122 11.6925185 2.797897h.0264309.0264309c4.0099418-.076775 7.8071788-.979201 11.2859868-2.678329 3.453635-1.686542 6.509548-3.98477 9.083413-6.826719 2.563795-2.83188 4.60149-6.129448 6.05393-9.800823 1.456216-3.680185 2.195022-7.602025 2.195022-11.6560186 0-3.6713753-.678393-7.413233-2.013782-11.1198495-1.337906-3.7066164-3.278688-7.0633384-5.768225-9.9770284"/><path d="m151.011481 123.230083c-.843271.210189-1.585853.370033-2.205091.473239-.651962.108241-1.359303.21774-2.120764.325981-.701047.09943-1.394543.151033-2.061608.151033-1.682767 0-2.921242-.557565-3.788427-1.705421-.957805-1.263648-1.423492-2.518485-1.423492-3.837512v-73.4237302h-5.015574v73.4237302c0 2.755105.869702 5.193039 2.586451 7.242062 1.77842 2.128315 4.312009 3.205688 7.530284 3.205688 1.009408 0 2.011264-.059155 2.979138-.174947.933891-.112017 1.773386-.224034 2.524778-.33605.767754-.115793 1.656335-.289481 2.643088-.516032l1.700387-.392687-2.23278-4.714766z"/><path d="m172.652961 72.6554726c-2.609106 1.8337997-4.913627 4.1622345-6.885874 6.9500632v-11.121108h-5.015575v60.0497042h5.015575v-37.3858527c.694754-2.4492616 1.6513-4.7462311 2.845724-6.8292363 1.204494-2.0981085 2.703502-3.945753 4.452975-5.4900717 1.749472-1.54306 3.785909-2.7953803 6.055189-3.7229784 2.262987-.9263395 4.816713-1.4675432 7.590697-1.6072493l1.33413-.0667065v-4.9476093h-1.404612c-5.345331 0-10.051287 1.4033539-13.988229 4.1710448"/></g><path d="m244.310353 13.7926409-41.534243 44.9035504 52.198474-24.0823089c-1.544319-7.9670228-5.325193-15.1310503-10.664231-20.8212415zm-30.816772-13.35665722c-5.75438 0-11.2369 1.1541485-16.236113 3.23715368l-5.57314 46.96390064 27.849339-49.76431546c-1.973506-.28318802-3.988546-.43673886-6.040086-.43673886zm41.894835 36.76510442-49.460989 27.679426 46.405076-5.5064336c2.200056-5.1162635 3.423428-10.7523343 3.423428-16.675369 0-1.8652651-.133413-3.6965476-.367515-5.4976234zm-18.235546 40.5210586c5.526571-3.740599 10.115476-8.7574321 13.356405-14.6238291l-43.49642 8.6378638zm-15.072525-76.4114267-24.211946 52.4778859 44.913619-41.541794c-5.632295-5.41833073-12.756046-9.29611863-20.701673-10.9360919zm-5.05434 83.492134c4.679525-.3876529 9.142568-1.5317325 13.265786-3.3202222l-24.364239-2.8910349zm-42.056315-59.4781678c-1.900506 4.2075446-3.132689 8.7775699-3.560617 13.5829559l6.563669 11.7302769zm18.625465-19.91403303c-5.96331 3.18932637-11.068246 7.76564473-14.891914 13.29976783l6.125671 30.8410629z" fill="#c7402b"/></svg>