<svg height="256" preserveAspectRatio="xMidYMid" viewBox="0 0 256 256" width="256" xmlns="http://www.w3.org/2000/svg"><path d="m134.743976 243.115544v-22.228017l55.517296-28.122168c1.333378-.674295 2.168645-2.039827 2.168645-3.532425v-12.725201c5.18611-1.795861 8.657635-6.966586 8.071423-12.659126-.686172-6.642992-6.626225-11.474875-13.271087-10.788721-6.643168.684461-11.475179 6.624356-10.787312 13.269042.496417 4.828494 3.769714 8.686207 8.071424 10.178805v10.294012l-49.770389 25.208129v-20.677816l21.940582-10.150003c1.396065-.642105 2.292325-2.046604 2.295713-3.58664l.042357-34.444955 40.602783-22.80913c1.248665-.699708 2.01955-2.021191 2.01955-3.451103v-9.607857c5.187804-1.790778 8.655941-6.963197 8.069729-12.6591263-.686172-6.6480744-6.627919-11.4782631-13.269393-10.7887202-6.644862.6844602-11.473484 6.6260498-10.789005 13.2707358.499804 4.8251057 3.771408 8.6845137 8.069729 10.1771107v7.293568l-40.596007 22.805742c-1.24697.703097-2.021244 2.017802-2.021244 3.449409l-.042357 34.22979-16.322437 7.544311v-74.431666l34.157843-16.7048966c1.357097-.6556588 2.219472-2.0398272 2.219472-3.549367v-12.7268949c5.18611-1.7958611 8.657635-6.9631973 8.071424-12.662515-.686173-6.6412977-6.62792-11.4714863-13.269393-10.7836377-6.646556.6827661-11.476873 6.6226614-10.789006 13.2724301.494722 4.8251061 3.769714 8.6760422 8.069729 10.1703342v10.2584329l-28.460069 13.9094525v-42.9769892c5.18611-1.7924727 8.661023-6.9665857 8.071423-12.6608207-.682784-6.6429919-6.624531-11.4731806-13.271087-10.7904145-6.641473.6895429-11.47179 6.627744-10.785617 13.27243.494722 4.8234119 3.769714 8.6811248 8.068034 10.1737226v70.0877153l-20.117565-10.570168v-31.8358732c0-1.2283012-.572657-2.3922225-1.550242-3.1376743l-13.7607261-10.5379774c.74886-1.8009437 1.0724624-3.8051925.8572922-5.8822922-.6844784-6.6429919-6.6279194-11.4680979-13.2710871-10.7853319-6.644862.6861545-11.4734843 6.6243556-10.7890059 13.2690417.6844784 6.6463802 6.6262252 11.4765689 13.2727814 10.7921087 1.6891707-.1778919 3.2546608-.6946256 4.6490314-1.4722673l12.6764042 9.7112036v32.2712853c0 1.472267.8166302 2.822551 2.1178169 3.507012l25.9153 13.612966v25.743499l-43.2373472-19.996744.5929887-15.662958c.0576046-1.54173-.7810508-2.971642-2.1500076-3.673044l-19.8193767-10.165252c.2981886-1.274045.4049266-2.614164.2626093-3.986473-.6861727-6.642992-6.6262252-11.4748745-13.2693929-10.7870258-6.644862.6844602-11.4734843 6.6260498-10.7890059 13.2690418.6861726 6.641297 6.6245309 11.469792 13.2710871 10.785332 2.3821204-.242272 4.525351-1.174087 6.2721263-2.565032l18.2132244 9.341866-.5963772 15.781553c-.0609931 1.59425.8471267 3.074989 2.2957134 3.742507l48.9537583 22.641403v18.377081c-.047439.343924-.042356.694625 0 1.043632v54.002899c-4.166169-.044049-8.276428-.311734-12.327388-.786113v-46.417927c0-1.546812-.901342-2.949617-2.305878-3.59511l-30.715121-14.134782c.0762414-.789502.0779357-1.597639-.0084713-2.41933-.6844783-6.642992-6.6245309-11.476569-13.2693929-10.785332-6.6448619.68446-11.4734842 6.622661-10.7890059 13.267347.6861727 6.641298 6.6262252 11.473181 13.2727815 10.788721 2.9649435-.308346 5.562234-1.662019 7.4767404-3.662879l28.4194072 13.07929v42.670337c-53.3910086-10.070376-93.9124681-57.028755-93.9124681-113.300199 0-63.5921192 51.7391115-115.3315552 115.3329141-115.3315552 63.595497 0 115.33122 51.739436 115.33122 115.3315552 0 61.326963-48.12188 111.611073-108.588091 115.114697zm-6.743129-243.115544c-70.5809038 0-128.000847 57.4235058-128.000847 128.000847 0 70.577341 57.4199432 127.995765 128.000847 127.999153 70.580904 0 127.999153-57.421812 127.999153-127.999153 0-70.5773412-57.418249-128.000847-127.999153-128.000847z" fill="#264970"/></svg>