<svg height="134" preserveAspectRatio="xMidYMid" viewBox="0 0 512 134" width="512" xmlns="http://www.w3.org/2000/svg"><path d="m.64321608 118.994975 7.9758794-9.648241c5.53165832 4.631155 11.32060302 7.461306 18.39597992 7.461306 5.5316583 0 8.8763819-2.186934 8.8763819-5.788945v-.128643c0-3.473367-2.0582915-5.145728-12.478392-7.847236-12.2211055-3.2160803-20.32562811-6.6894472-20.32562811-18.9105527v-.1286432c0-11.1919598 9.00502511-18.6532663 21.61206031-18.6532663 9.0050251 0 16.5949749 2.8301507 22.8984924 7.8472361l-7.0753768 10.1628141c-5.4030151-3.7306532-10.8060302-6.0462311-16.080402-6.0462311-5.1457287 0-7.9758794 2.4442211-7.9758794 5.403015v.1286433c0 4.1165829 2.7015075 5.403015 13.2502512 8.1045226 12.478392 3.2160804 19.5537689 7.7185929 19.5537689 18.5246232v.128643c0 12.221106-9.3909548 19.167839-22.6412061 19.167839-9.1336683 0-18.52462309-3.21608-25.98592962-9.776884zm57.11758792-52.7437187h25.2140704c14.6653266 0 23.6703516 8.7477387 23.6703516 21.3547739v.1286432c0 14.2793966-11.0633165 21.7407036-24.9567838 21.7407036h-10.2914573v18.524623h-13.6361809zm24.3135679 31.1316583c6.8180904 0 10.8060301-4.1165829 10.8060301-9.3909548v-.1286432c0-6.0462312-4.2452261-9.3909548-11.0633166-9.3909548h-10.5487437v18.9105528zm43.7386931-31.517588h12.478392l26.500503 62.1346734h-14.150754l-5.660301-13.893467h-26.114573l-5.660302 13.893467h-13.764824zm14.279397 36.2773874-8.233166-20.0683421-8.233165 20.0683421zm31.131659-35.8914577h28.172864c7.847236 0 13.893467 2.1869347 18.01005 6.3035176 3.473367 3.4733668 5.274372 8.2331658 5.274372 14.1507537v.1286433c0 9.9055276-5.403015 16.2090451-13.250251 19.1678391l15.051256 21.99799h-15.823116l-13.250251-19.682412h-10.677387v19.682412h-13.636181v-61.7487437zm27.272361 29.9738693c6.560804 0 10.420101-3.4733668 10.420101-8.7477387v-.1286432c0-5.7889447-4.116583-8.8763819-10.677387-8.8763819h-13.507538v17.7527638zm96.353769-29.9738693h22.38392c13.636181 0 22.898492 6.9467336 22.898492 18.9105527v.1286433c0 12.9929648-11.191959 19.6824117-24.056281 19.6824117h-16.594975v23.027136h-4.631156zm21.483417 34.4763817c11.449247 0 19.16784-6.046231 19.16784-15.1798993v-.1286432c0-9.7768844-7.58995-14.9226131-18.653267-14.9226131h-17.495477v30.2311556zm97.254272 18.267337 2.958794-3.473367c6.81809 6.303518 12.992964 9.133668 22.126633 9.133668 9.262311 0 15.565829-5.145728 15.565829-12.221105v-.128643c0-6.560804-3.473367-10.291458-17.495477-13.1216084-14.79397-2.958794-20.840201-7.9758794-20.840201-17.3668342v-.1286432c0-9.1336683 8.361809-16.2090452 19.811055-16.2090452 9.005025 0 14.922613 2.4442211 21.097487 7.4613065l-2.958794 3.6020101c-5.788944-5.0170855-11.577889-6.9467337-18.39598-6.9467337-9.133668 0-15.051256 5.1457286-15.051256 11.5778894v.1286433c0 6.560804 3.344724 10.5487437 18.01005 13.5075377 14.279397 2.9587939 20.325629 7.9758797 20.325629 16.9809047v.128643c0 9.905528-8.490453 16.852261-20.454272 16.852261-9.776884 0-17.366834-3.21608-24.699497-9.776884zm71.654271-48.4984926h-21.483417v-4.2452261h47.59799v4.2452261h-21.483417v57.5035176h-4.631156zm-239.662312 21.7407035 21.354774-25.9859296h16.594975l-25.085427 29.3306532 26.886432 32.4180905h-17.495477l-22.255277-27.658291v27.529648h-13.507537v-61.7487439h13.507537z" fill="#55555a"/><path d="m399.437186 52.2291457c-6.818091 5.1457287-8.233166 14.279397-8.361809 20.4542714-10.80603-12.6070352 20.068342-49.5276382-15.051256-72.29748745 21.740703 28.17286435-31.003015 55.95979895-31.003015 97.51155775 0 16.3376886 10.162814 30.6170856 32.546733 35.6341706 21.869347-4.631155 32.80402-19.296482 32.80402-35.6341706-.128643-24.3135678-15.308542-32.4180904-10.934673-45.6683417zm-21.869347 67.9236183c-11.963819 0-21.61206-9.648241-21.61206-21.6120605 0-11.9638191 9.648241-21.6120603 21.61206-21.6120603s21.61206 9.6482412 21.61206 21.6120603c0 11.9638195-9.776884 21.6120605-21.61206 21.6120605z" fill="#fa6423"/></svg>