<svg height="292" preserveAspectRatio="xMidYMid" viewBox="0 0 256 292" width="256" xmlns="http://www.w3.org/2000/svg"><path d="m11.4572851 176.169124c1.2172852-.723791 2.3523213-1.455807 3.5696065-2.179598 34.6432771-21.014618 73.8020241-31.476691 113.0594694-31.476691 39.166972 0 78.342169 10.470298 112.960772 31.476691 1.217285.723791 2.352321 1.455807 3.577831 2.179598 6.727968 5.033639 11.185863 12.978892 11.185863 22.067406 0 15.240739-12.329124 27.569864-27.578088 27.569864-5.75743 0-11.111839-1.784804-15.56151-4.786892-17.765783-10.791068-37.143647-17.765783-57.023229-21.162667v63.816996c0 15.257189-12.403149 27.578089-27.569863 27.578089-15.240739 0-27.652113-12.329125-27.652113-27.578089v-63.816996c-19.8713573 3.396884-39.2574457 10.371599-57.0232288 21.162667-4.3756466 3.002088-9.7300562 4.786892-15.5615101 4.786892-15.2407389 0-27.57808831-12.329125-27.57808831-27.569864 0-9.088514 4.46612048-17.025542 11.19408831-22.067406z" fill="#253351"/><path d="m11.4572851 115.674988c1.2172852.723791 2.3523213 1.464032 3.5696065 2.187823 12.2386506 7.427085 25.0694939 13.472386 38.254008 18.267502 24.1071807-8.784193 49.4234214-13.217413 74.8054614-13.217413 25.316241 0 50.624257 4.441445 74.706763 13.217413 13.184515-4.795116 26.007133-10.832193 38.254009-18.267502 1.217285-.723791 2.352321-1.464032 3.569606-2.187823 6.727968-5.017189 11.194088-12.978892 11.194088-22.0591808 0-15.2407389-12.329124-27.5780883-27.578088-27.5780883-5.831454 0-11.194088 1.7848032-15.56151 4.7951164-17.765783 10.7910683-37.143647 17.7657832-57.023229 21.1626667v-63.8252209c0-15.2407389-12.411373-27.56986343-27.652112-27.56986343-15.166715 0-27.569864 12.32912453-27.569864 27.56986343v63.8252209c-19.8713573-3.3968835-39.2574457-10.3715984-57.0232288-21.1626667-4.4414458-3.0103132-9.7958554-4.7868915-15.5532852-4.7868915-15.2407389 0-27.57808831 12.3373494-27.57808831 27.5780883-.0082249 9.0720639 4.45789558 17.0255419 11.18586341 22.0509559z" fill="#4690dc"/></svg>