<svg height="207" preserveAspectRatio="xMidYMid" viewBox="0 0 256 207" width="256" xmlns="http://www.w3.org/2000/svg" xmlns:xlink="http://www.w3.org/1999/xlink"><linearGradient id="a" x1="0%" x2="0%" y1="0%" y2="100%"><stop offset="0" stop-color="#3cb579"/><stop offset="1" stop-color="#004a4a"/></linearGradient><path d="m0 10.8935197c0-6.01632481 4.87719489-10.8935197 10.8935197-10.8935197h234.2129603c6.016325 0 10.89352 4.87719489 10.89352 10.8935197v185.1916323c0 6.016324-4.877195 10.893519-10.89352 10.893519h-234.2129603c-6.01632481 0-10.8935197-4.877195-10.8935197-10.893519z" fill="#e6e6e6"/><path d="m4 13.5480999c0-5.82555472 4.72254518-10.5480999 10.5480999-10.5480999h226.7863631c5.825554 0 10.5481 4.72254518 10.5481 10.5480999v179.3194391c0 5.825554-4.722546 10.548099-10.5481 10.548099h-226.7863631c-5.82555472 0-10.5480999-4.722545-10.5480999-10.548099z" fill="url(#a)"/><g transform="translate(72 70)"><rect fill-opacity=".5" height="63.289232" rx=".5" width="110.756156" x=".988894" y=".988894"/><g fill="#fff"><path d="m16.8112023 32.6335104 31.6446161-15.8223081v31.6446161z"/><path d="m95.9227426 32.6335104-31.6446161-15.8223081v31.6446161z"/></g></g></svg>