<svg height="256" preserveAspectRatio="xMidYMid" viewBox="0 0 256 256" width="256" xmlns="http://www.w3.org/2000/svg"><path d="m60.0411234 162.473435c11.4107991.061413 20.8947784-4.332146 29.0993289-12.125573 21.0141917-19.959943 42.1094137-39.833737 63.2293717-59.6827957 22.604096-21.2453419 55.503328-23.61655 80.199716-5.8683135 27.733752 19.9317952 31.658187 58.6609582 7.417275 82.6417192-24.652034 24.387619-50.279846 47.786666-75.490564 71.608777-3.098777 2.929039-6.106288 5.978345-9.407214 8.664292-20.397507 16.597604-51.904721 6.950711-57.9530075-17.867649-3.0117754-12.362695.6772443-23.022043 9.8806025-31.7341 17.654411-16.710193 35.352324-33.37518 53.032324-50.057226 8.064666-7.609189 15.968978-15.402617 24.305736-22.701332 2.360119-2.066704 9.369683-7.691926 15.752327-1.310988 6.380938 6.382644 2.840332 11.710186-.376152 14.742432-12.723493 11.994219-25.424809 24.009761-38.14489 36.006539-12.719229 11.99763-25.466605 23.96626-38.172186 35.978391-7.221096 6.827032-8.132902 14.480575-2.535827 20.557009 5.730135 6.21973 15.277232 6.26579 22.101706-.151825 26.718738-25.124571 53.446859-50.238052 80.007801-75.528948 11.381799-10.837615 15.034995-24.100174 9.170093-38.872459-5.91352-14.893405-17.778943-22.433505-33.544065-23.6881982-12.331135-.9808955-22.746538 3.4604284-31.680363 11.9456002-21.119105 20.058885-42.309858 40.045269-63.5552 59.971093-24.2084989 22.705597-60.7216913 23.381135-84.8141888 1.68117-23.43060637-21.104605-25.0998345-56.537959-2.6185643-78.6132242 27.2782752-26.7869746 55.2525598-52.8745281 83.2788744-78.88446293 10.1859597-9.45242008 22.7482447-11.39203416 35.8359477-6.81082605 12.338812 4.31935167 20.231182 13.04846798 22.322621 26.16346628 1.82276 11.4278582-2.410443 20.8615133-10.718201 28.6788233-19.567585 18.4109807-39.09508 36.8646089-58.6430464 55.2960606-5.481073 5.168892-10.8939099 10.415403-16.4935433 15.452941-4.420853 3.976465-10.6695834 3.968788-14.7330493.294269-4.6033848-4.164968-4.3261753-10.347168.8469819-15.240556 16.1071558-15.2422623 32.2654888-30.4316412 48.4007921-45.6440498 8.274493-7.8019569 16.559221-15.5919725 24.808978-23.4195179 6.780119-6.4338211 7.643307-13.7248594 2.362678-19.4012586-5.461455-5.8700194-14.471193-5.8393131-20.953632.2737978-26.0645238 24.5752687-52.0991943 49.1795377-78.0988937 73.8221896-12.4624896 11.8133929-16.0474491 26.2564379-10.2524895 40.5664229 5.6763991 14.014863 20.057179 23.274516 36.1319226 23.25831" fill="#4295c2"/></svg>