<svg height="140" preserveAspectRatio="xMidYMid" viewBox="0 0 512 140" width="512" xmlns="http://www.w3.org/2000/svg"><path d="m71.887605 60.1582711c-5.8995086-5.088065-14.6791196-9.3751341-26.3423158-12.8612073-7.5711521-2.7303511-12.735834-5.0079654-15.483598-6.8189125-2.7512467-1.8109472-4.12687-4.2313477-4.12687-7.2472712 0-3.1169186 1.3651756-5.7288616 4.0920441-7.8497594 2.7268684-2.1174151 6.4880664-3.1796052 11.2905589-3.1796052 4.8895573 0 8.720407 1.2885585 11.4960318 3.8482627 2.7721421 2.5736345 4.1616958 6.3626931 4.1616958 10.4617023h23.1383324l.1427862-.4283586c.2333336-9.2323479-3.2806004-17.245789-10.541802-23.1069891-7.2681667-5.87164785-16.5945445-9.26369115-27.9721682-9.26369115-11.4751362 0-20.9408176 3.12388382-28.3935616 8.45224755-7.46319182 5.3248811-11.18956383 12.293545-11.18956383 20.9199221 0 8.856228 3.12736642 15.6368321 9.38558183 20.3209165 6.2512502 4.6910496 15.8736482 9.086079 28.8497811 13.1850883 6.2094591 2.2149276 10.5139412 4.3079646 12.9134461 6.2895587 2.3960224 1.9781115 3.5940336 4.781597 3.5940336 8.4104564 0 3.2039835-1.2154241 5.7950309-3.6323421 7.7696598-2.4238831 1.9781115-6.1014988 2.977615-11.0363298 2.977615-6.4880664 0-11.3358326-1.2781107-14.5293682-3.8238845-3.2005008-2.5492564-4.79901-5.2970204-4.79901-11.2348375h-22.74828216l-.14626881.4179109c-.23333357 11.0328472 3.44428217 17.9840982 11.95921637 23.8487811 8.5149341 5.871648 18.6005167 8.807472 30.2602302 8.807472 11.6109573 0 20.9373351-2.559705 27.9686856-7.67563 7.0313506-5.115926 10.5452846-12.1925502 10.5452846-21.2403207-.0034826-8.8945366-2.9497543-15.8945438-8.8562281-20.9791262zm158.645935-52.78214408h-21.849774v102.64587698h69.401067v-18.3358396h-47.551293zm-126.689683 18.39504388h73.691618c4.990553 0 7.198515-2.6746296 7.198515-7.6756298v-.9124388c0-9.09304419-8.556725-12.65573444-13.540312-12.65573444 0 0-13.272153-4.52736786-30.197544-4.52736786-16.928873 0-30.806997 4.52736786-30.806997 4.52736786-4.927866 0-13.3069788 4.39154683-13.5054865 13.26867044.1776122 4.6631889 2.3855746 7.9751326 7.1602065 7.9751326zm-7.198515-8.5880686v.9159214c0-.1079603.0313434-.1950251.0348259-.3029854-.0104477-.2089555-.0348259-.4004979-.0348259-.612936zm5.519906 52.510502h77.090627c4.983587 0 7.309958-4.0502529 7.309958-9.0477705v-11.2278723c0-4.994035-2.322888-9.0442879-7.309958-9.0442879h-77.090627c-4.9870696 0-7.1985147 4.0467703-7.1985147 9.0442879v11.2278723c-.0034826 4.9975176 2.2114451 9.0477705 7.1985147 9.0477705zm82.67322 27.0423165c.299503-1.1318419.508458-2.3507487.508458-3.7403023v-1.149255c0-4.9905524-4.039805-7.4388136-9.026875-7.4388136h-70.644351c-4.79901 0-8.6820989 3.3363218-8.9746365 8.0343366.306468 8.5427945 6.7875695 12.9830985 11.6562305 12.9830985 0 0 15.709967 4.509954 32.63884 4.509954 11.558719 0 22.400023-2.100002 28.118437-3.433834.055722.062687.073135.139304.128856.198508l16.510962 16.545788c1.758709 1.758708 4.621398 1.758708 6.383589 0l6.387071-6.397519c1.762191-1.769156 1.762191-4.638811 0-6.397519zm-88.193126-3.7403023c0-.1950251.0417911-.3656721.0626867-.5502494-.0069652-.212438-.0626867-.3796023-.0626867-.5990056zm258.355988-45.0473103c-2.556221-4.61095-6.216424-8.2432921-10.517423-10.8970261-4.297517-2.6572167-9.399513-3.9806012-15.302504-3.9806012-8.92588 0-15.898026 3.5243818-20.916439 10.5835931-5.021896 7.052246-7.532844 16.5632011-7.532844 28.5293827v1.4592055c0 11.6423005 2.497018 20.860718 7.494535 27.6587348 4.994035 6.798017 11.931356 10.200508 20.808479 10.200508 5.857718 0 10.984091-1.187563 15.379121-3.555725 4.388064-2.382092 8.06568-5.59304 10.583593-9.646776l.135821 11.732848h3.402491v-106.42797066h-3.538312v44.34382686zm0 43.3687016c-1.957216 4.9870698-5.331846 8.9641882-9.678119 11.9452862-4.346273 2.981097-9.796528 4.468164-16.350763 4.468164-7.996028 0-14.045288-3.071645-18.161711-9.2184179-4.112939-6.14329-6.167668-14.4353383-6.167668-24.8656974v-1.4592054c0-10.4791153 2.079107-18.9905669 6.230355-25.5308722 4.161696-6.5437878 10.242299-9.8139405 18.234845-9.8139405 7.208962 0 12.829864 1.8248775 16.873152 5.4850803 4.039805 3.6567202 7.198514 8.1806055 9.016427 13.5855862v35.4040167zm52.890105-58.2463289c-8.877124 0-16.336833 3.5522425-22.375645 10.6497623-6.042295 7.1044849-9.065184 16.0791211-9.065184 26.927391v4.4646812c0 10.3363291 3.120401 18.9905669 9.371652 25.9487826 6.258215 6.958217 13.679616 10.440807 22.27465 10.440807 5.763687 0 10.775135-.853234 15.023896-2.545774 4.259208-1.696021 7.870655-4.206969 10.841304-7.508465l-2.026867-2.9393065c-2.685078 3.0751275-5.930852 5.3840855-9.719911 6.9199075-3.789059 1.528857-8.494038 2.29851-14.11494 2.29851-7.898515 0-14.529368-3.148262-19.875145-9.4621989-5.338811-6.3139368-8.009958-14.0278752-8.009958-23.1522627v-5.37712h56.539859v-5.7950308c0-9.4064774-2.685077-16.9010125-8.055232-22.4905705-5.359707-5.5825929-12.297028-8.3791132-20.808479-8.3791132zm25.105996 32.8965514h-52.015974l-.208956-.4179108c.651245-8.1980185 3.458213-15.0273788 8.438317-20.4985287 4.97314-5.4781151 11.196529-8.2049836 18.684099-8.2049836 7.431849 0 13.481109 2.5492564 18.126885 7.6442865 4.645776 5.0985127 6.972146 11.4960318 6.972146 19.1786268v2.2985098zm71.420969-22.3129583c-5.035826-7.0557287-11.99056-10.5835931-20.874648-10.5835931-5.951748 0-11.085086 1.3233845-15.406981 3.9806012-4.325378 2.653734-8.198019 6.3104542-10.708967 10.9631954l.038309-14.922901h-3.496521v106.2329455h3.531347v-41.0214354c2.469157 4.0537354 6.348762 7.2646844 10.747275 9.6467764 4.388064 2.371644 9.535333 3.559207 15.448772 3.559207 8.821402 0 15.751757-3.405973 20.773653-10.200508 5.021896-6.794534 7.529361-16.0164341 7.529361-27.6552521v-1.4661706c-.01393-11.9731467-2.535326-21.4841018-7.5816-28.5328653zm3.73682 29.9920707c0 10.4303591-2.082589 18.7224074-6.244285 24.8656974-4.154731 6.1502549-10.210956 9.2184179-18.158228 9.2184179-6.602992 0-12.088072-1.490549-16.455241-4.468164-4.370651-2.977615-7.940306-6.9860771-9.80001-12.014938v-35.3343649c1.7204-5.359707 5.060204-9.8731445 9.10001-13.5507603 4.039805-3.6845809 9.712945-5.5164236 17.008972-5.5164236 7.947272 0 14.024393 3.2701526 18.231362 9.8069753 4.203487 6.5437879 6.313937 15.0517569 6.313937 25.5308722z" fill="#00cbdc"/></svg>