<svg height="228" preserveAspectRatio="xMidYMid" viewBox="0 0 256 228" width="256" xmlns="http://www.w3.org/2000/svg"><path d="m231.347179 0c13.613241 0 24.647795 10.8933637 24.652821 24.3360823-.005026 0-.005026 178.4218697-.005026 178.4218697 0 13.439056-11.034554 24.336082-24.647795 24.336082h-206.6956737c-13.613241 0-24.6515053-10.897026-24.6515053-24.336082v-178.4218697c0-13.4427186 11.0382643-24.3360823 24.6515053-24.3360823z" fill="#0090f9"/><path d="m195.958986 136.498536c-9.505138 0-17.702632 5.695757-21.369161 13.85296h-29.768113l-11.699193-36.961982 11.856696-36.7495358h29.566655c3.640889 8.2121458 11.867687 13.9591826 21.413116 13.9591826 12.915265 0 23.420365-10.5050999 23.420365-23.4203657s-10.5051-23.4203658-23.420365-23.4203658c-9.094897 0-16.988373 5.2159213-20.867348 12.8090427h-37.313617c-4.307531 0-8.131563 2.7434867-9.512464 6.8239196l-13.530627 40.0680924h-33.159926c-3.582283-8.3549979-11.8823376-14.2192465-21.5339897-14.2192465-12.911603 0-23.4203658 10.5051-23.4203658 23.4203665 0 12.911603 10.5087628 23.416702 23.4203658 23.416702 8.9923362 0 16.8088924-5.095046 20.731822-12.545316h33.8045907l13.53429 40.068092c1.377238 4.080433 5.20127 6.82392 9.5088 6.82392h37.41984c3.856998 7.651727 11.783441 12.911603 20.918629 12.911603 12.915265 0 23.420365-10.5051 23.420365-23.420366 0-12.911603-10.5051-23.416703-23.420365-23.416703zm0-80.1947903c5.996111 0 10.875049 4.8789376 10.875049 10.8750494s-4.878938 10.8750494-10.875049 10.8750494c-5.996112 0-10.871387-4.8789376-10.871387-10.8750494s4.875275-10.8750494 10.871387-10.8750494zm-135.9179717 67.2282443c-5.9961118 0-10.8713866-4.878938-10.8713866-10.871386 0-5.996112 4.8752748-10.87505 10.8713866-10.87505s10.8750494 4.878938 10.8750494 10.87505c0 5.992448-4.8789376 10.871386-10.8750494 10.871386zm135.9179717 47.258298c-5.996112 0-10.871387-4.878937-10.871387-10.875049s4.875275-10.871387 10.871387-10.871387c5.996111 0 10.875049 4.875275 10.875049 10.871387s-4.878938 10.875049-10.875049 10.875049z" fill="#fff"/></svg>