<svg height="253" preserveAspectRatio="xMidYMid" viewBox="0 0 256 253" width="256" xmlns="http://www.w3.org/2000/svg"><g fill="#264970"><path d="m156.487223 127.659327c0-16.479937-13.353641-29.8388596-29.833578-29.8388596-16.481697 0-29.8335786 13.3589226-29.8370992 29.8388596 0 16.472894 13.3518812 29.831818 29.8370992 29.831818 16.478176-.00176 29.833578-13.358924 29.833578-29.831818"/><path d="m223.534028 200.710772-15.513531-8.95641c-1.953934-1.130113-4.428917-.727004-5.928694.957604-19.092222 21.480951-46.447298 33.803056-75.050426 33.808338-28.6084085 0-55.9634835-12.322106-75.0557063-33.806578-1.4997763-1.684608-3.9765196-2.087717-5.9304535-.957604l-15.5135312 8.958171c-1.216368.7006-2.0595521 1.906406-2.3042339 3.288242-.2446817 1.381837.1355432 2.80416 1.0385776 3.879703 24.3608032 29.073129 59.9945729 45.746698 97.7671083 45.746698 37.765494-.005281 73.397503-16.68237 97.756547-45.750219.903033-1.075543 1.283258-2.496106 1.038577-3.879703-.244682-1.381836-1.087866-2.587642-2.304234-3.288242"/><path d="m142.487551 201.877218c.376704 0 .755169-.040487 1.130114-.126742 34.394517-7.680192 59.359103-38.823434 59.359103-74.052335 0-7.740043-1.1706-15.38679-3.480114-22.729004-.471761-1.498017-1.600114-2.705583-3.064684-3.27592-1.46281-.570338-3.108691-.441836-4.472925.341498l-9.252141 5.338993c-2.038428 1.179401-3.027717 3.583971-2.409852 5.85476 1.288541 4.729928 1.939852 9.597161 1.939852 14.469673 0 24.998032-16.890086 46.924339-41.07486 53.319512-2.274309.603784-3.858579 2.661575-3.858579 5.015097v10.658622c0 1.571948.716442 3.061162 1.941612 4.045171.929439.744607 2.075394 1.140675 3.242474 1.140675"/><path d="m127.613367 50.2923449c-21.12537 0-41.4726876 8.95289-55.8332217 24.570279-1.0649821 1.1617986-1.5473045 2.7390281-1.3079036 4.2968944.2376407 1.5561059 1.1688398 2.9185788 2.5313126 3.7054332l9.2327779 5.3319513c.8097384.4647194 1.7039712.6935585 2.5911628.6935585 1.3466302 0 2.6809382-.52633 3.6790288-1.5332221 10.4491457-10.5177974 24.3361592-16.3127078 39.1068432-16.3127078 14.770685 0 28.659458 5.79315 39.108604 16.3091873 1.658203 1.6687651 4.233523 2.0137841 6.268431.8396634l9.236298-5.330191c1.360713-.7886147 2.293673-2.1510875 2.531313-3.7071935.23764-1.5578662-.244682-3.1350958-1.311424-4.2968943-14.357014-15.6156287-34.707851-24.5667584-55.833222-24.5667584"/><path d="m32.2663143 158.405326c-3.4220249-10.251992-5.1576815-20.915895-5.1576815-31.692457.0088015-47.4964367 33.7608097-88.896952 80.2521152-98.4184192 2.212698-.4523973 3.80049-2.39929 3.80049-4.6559957v-17.87937556c0-1.40295977-.621387-2.7355075-1.69517-3.63678153-1.073784-.90479462-2.492587-1.2920608-3.874423-1.04561869-61.1722138 10.66390238-105.57932289 63.49229068-105.591645 125.63266968 0 15.047052 2.60876583 29.786051 7.75588547 43.810368.48232243 1.316705 1.52266022 2.353522 2.84288593 2.830564.5245696.190112 1.0720231.285168 1.6177164.285168.8255811 0 1.6458813-.214756 2.3781664-.637229l15.5399357-8.974013c1.953934-1.128353 2.8464065-3.476594 2.1317244-5.61888"/><path d="m71.3203485 107.375997-9.2503809-5.340752c-1.3624727-.785094-3.0101143-.911836-4.4729243-.341499-1.4645703.570338-2.5929232 1.779665-3.0646838 3.277681-2.3095147 7.342214-3.481875 14.987201-3.4836353 22.725483 0 35.234182 24.9645864 66.379185 59.3573448 74.055857.374943.086254.753408.126741 1.128352.126741 1.16884 0 2.314796-.396067 3.244234-1.140675 1.22693-.984008 1.941613-2.473223 1.941613-4.046931v-10.656862c0-2.353522-1.584271-4.413074-3.85858-5.015097-24.1830129-6.395173-41.0730994-28.32148-41.0730994-53.321272 0-4.872513.6548319-9.741505 1.9416118-14.467913.6196259-2.274308-.3714235-4.677119-2.4098519-5.854761"/><path d="m149.9125 1.07466415c-1.380076-.24116121-2.800639.14082407-3.874423 1.04561869-1.073783.90127404-1.693409 2.23382176-1.693409 3.63678152v17.87937554c0 2.2567057 1.587792 4.2018381 3.798729 4.6559957 46.501868 9.5197069 80.252115 50.9184619 80.252115 98.4148994 0 10.776561-1.735656 21.440463-5.157681 31.695976-.714682 2.142286.17603 4.492288 2.131724 5.618881l15.539936 8.972253c.730525.422472 1.550825.637229 2.376407.637229.547453 0 1.094907-.095057 1.619476-.285169 1.320226-.477042 2.358803-1.512098 2.842886-2.828803 5.14712-14.026078 7.755885-28.765076 7.755885-43.810367 0-62.1403801-44.407109-114.972289-105.591645-125.63267085"/></g></svg>