<svg height="259" preserveAspectRatio="xMidYMid" viewBox="0 0 256 259" width="256" xmlns="http://www.w3.org/2000/svg"><path d="m127.778579 0c-67.3582244 0-122.53827339 52.412282-127.778579 119.013983l68.7236558 28.674067c5.8215366-4.022489 12.8608908-6.365865 20.4261208-6.365865.6827158 0 1.3562058.018452 2.0204699.055356l30.5653745-44.708664v-.6273605c0-26.9026957 21.690067-48.795733 48.35289-48.795733 26.662822 0 48.35289 21.8930373 48.35289 48.795733 0 26.9026955-21.690068 48.8049585-48.35289 48.8049585-.369036 0-.728845-.009225-1.097881-.018451l-43.592331 31.377252c.027678.581231.046129 1.162462.046129 1.734467 0 20.2047-16.283696 36.63601-36.2946514 36.63601-17.5660949 0-32.2629379-12.657921-35.5842584-29.412138l-49.15554271-20.509153c15.22271871 54.312815 64.67349001 94.131757 123.36860351 94.131757 70.817932 0 128.221421-57.93859 128.221421-129.39311 0-71.4637447-57.403489-129.393109-128.221421-129.393109zm-47.4266113 196.332478-15.7485945-6.568834c2.7862188 5.867666 7.6205853 10.77584 14.0325789 13.4698 13.8572871 5.830762 29.8365289-.802653 35.6119359-14.798328 2.795445-6.771803 2.813897-14.244774.04613-21.03503-2.767767-6.790255-7.998847-12.085916-14.7060693-14.909038-6.6703186-2.795445-13.8111576-2.69396-20.0847629-.304454l16.2744702 6.790255c10.222286 4.299265 15.056653 16.145308 10.794292 26.459853-4.253136 10.314545-15.997694 15.195041-26.2199803 10.895776zm121.9570423-100.2900389c0-17.9259046-14.45697-32.5212628-32.216809-32.5212628-17.769064 0-32.226034 14.5953582-32.226034 32.5212628 0 17.9259049 14.45697 32.5120369 32.226034 32.5120369 17.759839 0 32.216809-14.586132 32.216809-32.5120369zm-56.370189-.0553553c0-13.4882515 10.840421-24.4209313 24.19951-24.4209313 13.368315 0 24.208735 10.9326798 24.208735 24.4209313 0 13.4882512-10.84042 24.4209312-24.208735 24.4209312-13.359089 0-24.19951-10.93268-24.19951-24.4209312z" fill="#1a1918"/></svg>