<svg height="270" preserveAspectRatio="xMidYMid" viewBox="0 0 256 270" width="256" xmlns="http://www.w3.org/2000/svg"><path d="m36.578546 29.0684181c-2.6729096-1.3339838-36.57850457 26.6912741-36.57850457 47.3100224-.04679054 28.1818565 39.54970387 92.0274765 46.21735587 116.7235755 5.7376899 21.181341-9.7324323 46.60243-5.4803421 47.756617 3.8836149 2.493969 40.8247462-34.915574 42.2635552-50.865379 1.8540752-25.39789-43.135029-99.4571863-46.7203541-118.5795528-4.1585092-22.3181277 3.2928843-41.8464892.2982897-42.3452831z" fill="#1a5099"/><path d="m121.251663.05841328c-3.404013-1.6978211-46.6560175 33.97380592-46.6560175 60.27554652-.0467906 35.9034111 50.4460515 117.2539592 58.9443825 148.6897262 7.311022 26.985504-12.405342 59.377381-7.012732 60.826034 4.983193 3.163857 52.066173-44.456258 53.920249-64.806933 2.374619-32.34552-55.019827-126.6875861-59.587753-151.0886942-5.299028-28.3646223 4.181905-53.26406688.391871-53.89567952z" fill="#4ba2f2"/><path d="m208.637007 29.0684181c-2.649514-1.3339838-36.578505 26.6912741-36.578505 47.3100224-.040941 28.1818565 39.549704 92.0274765 46.223205 116.7235755 5.731841 21.181341-9.732432 46.60243-5.486191 47.756617 3.907011 2.493969 40.85399-34.915574 42.269404-50.865379 1.848226-25.39789-43.135029-99.4571863-46.726203-118.5795528-4.15266-22.3181277 3.292885-41.8464892.29829-42.3452831z" fill="#1a5099"/></svg>