<svg height="272" preserveAspectRatio="xMidYMid" viewBox="0 0 256 272" width="256" xmlns="http://www.w3.org/2000/svg"><g fill="#36373a"><path d="m233.255 139.773h-98.27v48.163h97.622c2.159 0 5.831-38.228 5.831-40.388 0 0-1.728-4.103-2.376-5.831-.647-1.728-1.943-1.944-2.807-1.944"/><path d="m135.633 244.738-32.828-32.829-41.468-41.683-2.159-2.16-32.829-32.613-10.367-9.287-5.399 11.879-3.456 7.343-7.127 17.279v7.127c0 6.263 2.808 9.935 5.615 12.958.432.432 2.16 2.16 4.968 4.968 3.887 3.887 9.719 9.719 15.982 16.198 0 0 2.16 2.16 5.4 5.399 16.846 16.847 35.204 35.205 35.204 35.205h.216c.648.648 1.296 1.295 1.943 1.943 9.935 9.935 18.142 18.142 19.222 19.006 2.808 2.808 6.696 5.616 12.959 5.616h6.911l17.494-7.127 19.222-8.856-7.775-8.639z"/><path d="m255.068 79.299-53.562-53.562c-.216-.216-.432-.432-.648-.432-8.423-8.423-17.494-17.278-18.79-18.79-2.807-2.807-6.695-5.615-12.958-5.615h-6.912l-17.494 7.127-19.222 8.855 8.207 9.287.864 1.08 59.178 59.394v-.216l26.349 26.349c.648.648 5.4-2.592 11.015-6.911 9.071-6.912 20.734-16.415 21.598-17.278 0 0 1.727-4.104 2.375-5.832 1.08-1.728.432-2.808 0-3.456"/></g><path d="m231.527 51.439c0-13.823-11.231-24.838-24.837-24.838h-168.03c-13.823 0-24.837 11.231-24.837 24.838v167.813c0 13.823 11.23 24.838 24.837 24.838h167.814c13.822 0 24.837-11.231 24.837-24.838v-167.813z" fill="#bedfeb"/><path d="m142.329 117.743-35.637-35.852-41.899 99.349-18.358 2.16 60.905 60.906h86.175l3.672-1.728 1.727 1.728h7.776c13.822 0 24.837-11.231 24.837-24.838v-68.896l-83.151-82.935z" fill="#8aa3a8"/><path d="m180.772 141.717-46.866-8.639-.648-.216 19.653-20.518c11.231-11.663 10.799-30.237-.863-41.468l-1.296-.864-1.08-1.079c-11.663-11.231-30.021-10.799-41.036.864l-66.305 69.328c-11.23 11.663-10.798 30.237.864 41.467l2.16 2.16c9.935 9.719 24.837 10.799 35.852 3.456l19.87 3.24 21.598 4.535 46.867 8.639c15.766 3.024 30.884-7.559 33.908-23.541l.432-3.024c3.024-16.198-7.343-31.317-23.11-34.34" fill="#fff"/><path d="m133.042 132.862-13.391 14.038-33.044 34.556c-1.512 1.728-3.449 3.459-5.393 4.755l41.349 7.755 11.343-61.104z" fill="#f8632f"/><path d="m119.651 147.116 13.391-14.038 19.653-20.518c11.231-11.663 10.799-30.237-.864-41.468l-2.159-2.159c-11.663-11.231-30.021-10.799-41.036.864l-33.044 34.556z" fill="#d823a5"/><path d="m180.772 141.717-46.866-8.639-5.616 30.236 75.592 14.039.216-1.512c2.808-15.982-7.559-31.101-23.326-34.124" fill="#e4e4e4"/><path d="m86.337 181.807 33.044-34.556-22.03-21.382-53.13 55.722 1.08 1.08c9.481 9.559 24.65 11.058 35.83 3.562 1.944-1.08 3.694-2.698 5.206-4.426" fill="#e4e4e4"/><path d="m107.772 159.643 20.518 3.671 5.399-30.236-.647-.216-13.391 14.254z" fill="#e2522b"/><path d="m119.651 147.116 13.607-14.254 19.653-20.518c11.231-11.663 10.799-30.237-.863-41.468l-1.296-.864-53.131 55.722z" fill="#b20d7b"/><path d="m134.297 87.158v40.603c0 2.16 1.728 3.888 3.888 3.888h52.266 22.462 18.79 1.295c1.296 0 2.376-.864 2.808-1.728.432-1.296 19.654-47.947 19.654-47.947-.432.864-1.512 1.728-2.808 1.728h-64.793-49.674c-2.16-.432-3.888 1.296-3.888 3.456" fill="#00b6ff"/><path d="m168.894.9h-68.033c-3.24 0-6.047.864-8.423 2.16 0 0 0 0-.216 0-.216.216-.432.216-.648.432-1.296.648-2.376 1.512-3.672 2.591-1.727 1.728-19.006 19.006-37.363 37.364-.648.432-1.296 1.08-1.728 1.512-3.672 3.672-43.628 43.411-43.628 43.411-2.591 2.808-5.183 7.344-5.183 12.743v68.465c0-3.888 1.296-8.855 5.183-12.743.648-.648 6.264-6.263 14.471-14.47 0 0 132.826-132.61 136.497-136.498 3.888-3.671 8.855-4.967 12.743-4.967" fill="#00b6ff"/><path d="m255.716 189.664c-.432-1.296-19.654-47.947-19.654-47.947 0 .216.216.432.216.648-.216-.432-.216-.648-.216-.648.432.864.216 2.159-.647 3.023-1.944 1.944-45.788 45.572-45.788 45.572-29.588 29.372-73.216 73-75.591 75.591-3.888 3.672-8.639 5.184-12.743 5.184h68.249c5.615 0 10.151-2.592 12.742-5.184 0 0 30.237-30.236 42.98-43.195 0 0 29.156-29.157 30.02-30.021s.864-2.16.432-3.023" fill="#00b6ff"/></svg>