<svg height="149" preserveAspectRatio="xMidYMid" viewBox="0 0 256 149" width="256" xmlns="http://www.w3.org/2000/svg"><path d="m12.0435706 148.42287c-4.30788698 0-8.19633896-.473672-11.66318642-3.94052l4.46625989-4.46409c2.25844068 2.258441 5.20099433 2.57374 7.30106213 2.57374 2.3640226 0 4.8336271-.788249 4.8336271-2.836249 0-1.366056-.7354576-2.311231-2.8890395-2.522395l-4.30861018-.420158c-4.93703955-.472949-7.98372882-2.625808-7.98372882-7.669153 0-5.673943 4.99127684-8.720633 10.5581921-8.720633 4.255096 0 7.8282486.735458 10.4540565 3.203616l-4.2023051 4.255819c-1.575774-1.417401-3.9925876-1.839005-6.3566102-1.839005-2.73138979 0-3.88628245 1.261198-3.88628245 2.625808 0 .999412.41871186 2.155028 2.83552545 2.365469l4.307887.420881c5.4107118.523571 8.143548 3.414056 8.143548 8.035797 0 6.042034-5.1482034 8.931073-11.6103955 8.931073zm23.5310283-.315299c-5.5676384 0-7.931661-3.939797-7.931661-7.827526v-13.552813h-2.8890396v-5.200272h2.8890396v-8.090033h6.8288361v8.090033h4.832904v5.200272h-4.832904v13.134101c0 1.574328.7354576 2.468159 2.3640226 2.468159h2.4688814v5.778079zm6.8700565 0h6.8295593v-27.368859h-6.8295593zm-.105582-32.044837h6.9879322v-5.566915h-6.9879322zm22.3674577 32.360136c-5.4635029 0-12.239548-2.94183-12.239548-14.026486 0-11.083209 6.7760451-13.972972 12.239548-13.972972 3.7814237 0 6.6183955 1.155616 9.035209 3.678012l-4.6224633 4.622463c-1.4181243-1.522983-2.6258079-2.154305-4.4127457-2.154305-1.6292882 0-2.8890396.577085-3.8877288 1.785491-1.0500339 1.313989-1.5229831 3.152995-1.5229831 6.041311 0 2.890486.4729492 4.780836 1.5229831 6.094825.9986892 1.208407 2.2584406 1.785492 3.8877288 1.785492 1.7869378 0 2.9946214-.629876 4.4127457-2.153582l4.6224633 4.570395c-2.4168135 2.520949-5.2537853 3.729356-9.035209 3.729356zm27.8757966-.315299-6.7239774-11.399232-2.8883164 3.25713v8.142102h-6.8295593v-37.402034h6.8295593v21.221966l9.088-11.188791h8.2476841l-9.7721135 11.031864 10.5075705 16.336995zm14.1602713-11.556159c0 3.519639 2.152859 6.092656 5.989243 6.092656 2.993175 0 4.46409-.840317 6.198237-2.573017l4.149514 4.045378c-2.782734 2.782735-5.462056 4.306441-10.400542 4.306441-6.462192 0-12.659706-2.94183-12.659706-14.026486 0-8.929627 4.83218-13.972972 11.924248-13.972972 7.616362 0 11.924249 5.568362 11.924249 13.079865v3.048135zm9.770667-7.617807c-.734735-1.628565-2.256995-2.837695-4.569673-2.837695s-3.834938 1.20913-4.571118 2.837695c-.419435.998689-.577085 1.734146-.629876 2.941107h10.401989c-.052791-1.206961-.210441-1.942418-.631322-2.941107zm25.465491-.735458c-1.050034-1.05148-1.943141-1.628565-3.624497-1.628565-2.102237 0-4.414915 1.57722-4.414915 5.044068v16.493921h-6.828113v-27.368859h6.671186v2.627254c1.313989-1.57722 3.941966-2.942554 6.88235-2.942554 2.680769 0 4.570396.682667 6.461469 2.575187z" fill="#4c2418"/><path d="m177.818757 120.423412c-3.415503 0-5.883661 1.050757-8.194893 3.467571-1.734146-2.364023-4.203028-3.467571-7.248271-3.467571-2.522395 0-5.044068.997967-6.830282 2.836972v-2.521672h-6.671187v27.368859h6.828113v-16.546712c0-3.730803 2.416814-4.991277 4.571119-4.991277 2.153582 0 4.517604 1.260474 4.517604 4.991277v16.546712h6.82956v-16.704362c0-3.573153 2.468158-4.833627 4.568226-4.833627 2.155751 0 4.519051 1.260474 4.519051 4.991277v16.546712h6.829559v-17.492611c0-2.995344-.787525-5.569084-2.995345-7.774734-1.522983-1.522983-3.991864-2.416814-6.723254-2.416814zm29.680814 16.863458c0 3.728633-2.416814 4.989831-4.570396 4.989831s-4.517604-1.261198-4.517604-4.989831v-16.548158h-6.828837v17.494056c0 2.992452.578532 5.566916 2.784181 7.774012 1.52226 1.523706 3.730803 2.41609 6.461469 2.41609 2.521672 0 5.042622-.945175 6.828113-2.836249v2.52095h6.672633v-27.368859h-6.829559zm18.006056 2.574463v-29.155796h-6.829559v29.574508c0 3.887729 2.365469 7.827526 7.985175 7.827526h3.887729v-5.778079h-2.626531c-1.732701 0-2.416814-.840317-2.416814-2.468159zm30.114712-6.358056c0-7.511503-4.307164-13.079865-11.924972-13.079865-7.092068 0-11.924248 5.043345-11.924248 13.972972 0 11.084656 6.19896 14.026486 12.661152 14.026486 4.93704 0 7.616362-1.523706 10.399819-4.306441l-4.148791-4.045378c-1.734146 1.7327-3.205062 2.573017-6.19896 2.573017-3.835661 0-5.98852-2.573017-5.98852-6.092656h17.12452zm-17.12452-1.628565c.052068-1.206961.208995-1.942418.629153-2.941107.735457-1.628565 2.259164-2.837695 4.570395-2.837695 2.312678 0 3.834215 1.20913 4.571119 2.837695.420158.998689.577085 1.734146.629876 2.941107z" fill="#e26029"/><path d="m140.685017 102.705175c-.961808.462102-2.275797.358689-3.634622.399187-1.170079.031819-2.807322.056406-3.487819-.545266-.368813-.326147-.476565-1.035571-.499706-1.447774-.02965-.491751.095458-1.09487.198147-1.6451977.123661-.6515706.25383-1.4839322 0-1.8433446-.292881-.4143729-1.338576-.2400904-1.893243-.5488814-.589379-.3268701-.75426-1.1143955-.943006-1.9923164-.062192-.2776949-.224904-.5286327-.25383-.7477514-.164158-1.3458079.288542-3.151548.597333-4.5349604.329763-1.4615142.757153-2.8311865.997966-4.1878419.366644-2.0472768.488859-4.3606779.349288-6.4766553-.071593-1.1028249-.219841-1.9691752-.049175-2.8912091.159819-.8612881.519232-1.5786666.696407-2.4392316.054961-.2748023.01374-.5995028.050622-.8988927.036158-.2632316.187299-.4801807.201039-.6956836.028927-.5770847-.154757-1.275661-.201039-1.9944858-.121492-1.9214464.026033-4.6311413.151864-6.2799548.04122-.5712995.309514-1.2264859-.101243-1.4926102-1.996655-.0296497-3.819751.3594124-5.681898.5966102-5.010079.6407231-11.313175.723887-16.146803-.2487684-.457039-.092565-.914802-.1026893-1.343638-.2003164-3.42852-.7875254-6.580791-2.2613333-9.020023-4.1856723-.376045-.2964972-.8222369-.6190283-1.2445646-.9451751-.4143728-.3210848-.8569491-.7665537-1.2467344-.9466215-1.9525424-.9061243-4.5392995.1374011-5.3311639 1.3942599-.3167457.5025988-.5423728 1.1491073-.847548 1.743548-.2907118.5698531-.5459887 1.1729717-.7962034 1.7471638-1.2879548 2.9454464-2.7415141 5.7571074-4.0367005 8.7191865-.7477514 1.7088361-1.5830057 3.6122034-2.1434577 5.530757-1.187435 4.0721356-.0802711 9.5255142.8489944 13.3553899.0831638.3500113.2704633.7007457.3984633 1.09487.2928813.9278192.9213107 2.1571978 1.6444745 2.7928588.3767684.3290395 1.0182147.5279096 1.4441582.8974463.5358644.4570396.9321582 1.3675028 1.3450848 2.1412881.1728361.3239774.4136497.6891752.6472316 1.0955933.4960904.8598418.6660339 1.6314576-.2986667 2.1427344-.7253333.3847232-1.8252655.4837966-2.8405875.5467119-.463548.1178757-.3167458.7412425-.5973334 1.0464185-.1583728.174282-.8424858.448361-1.1961129.549604-1.33713.387616-3.5948475.362305-4.6354803 0-.5214011-.18296-1.1136723-.582147-1.2445649-.99652-.2581695-.8142822.3825536-1.8447906-.2003164-2.4927454-.2538305-.2784181-.8084972-.229243-1.2966328-.4461921-.6942373-.308791-1.3602712-.9589153-1.6936497-1.7970622-.7962034-2.0067796-.3022825-5.1590508-.3977401-7.62287-.0267571-.7188249-.123661-1.4904407-.1482486-2.2931526-.048452-1.4600678-.3919548-2.8933785-.5481582-4.3353672-.0788249-.7021921-.3095141-1.3016949-.4483616-1.9416949-.2285198-1.0312317-.4013559-2.144904-.6978531-3.1905989-.3290395-1.147661-.3384407-2.2663955.0491751-3.2376045.1077515-.2726328.3934012-.5242938.5481582-.8996158.2299661-.5640678.3124068-1.2243164.2972204-1.7428249-.1684972-.2936045-.8670735-.0629153-1.0464181-.3471186-.4165424-3.1501017-.8894915-6.3218983-1.1454915-9.617356-.0831639-1.1013785-.0875029-2.251209-.2010396-3.3894689-.2155028-2.2526554-.0347118-4.5450847-.2458757-6.7261469-.1055819-1.063774-.3651977-2.0624633-.498983-3.0915254-.3803842-2.8904859-1.1867119-6.6003164-.5980565-9.6166328.3767683-1.9359096 1.0724519-3.5030056 2.1933559-4.9327005.7788475-.9979662 1.6206102-1.9539888 2.5390282-2.8427571.8800904-.8461017 1.8968588-1.6871413 2.9425537-2.440678.6732656-.4852429 1.3870283-1.050757 2.1427345-1.3942599 1.6697853-.7643841 3.844339-1.443435 6.1280904-1.5468474 2.295322-.0990735 4.8958192-.1120904 7.1766779.3008361 2.176.3934012 4.3389831.7752317 6.477379 1.1953899 2.093559.4100339 4.146621.979887 6.128813 1.4947796.256.0665311.475842.2241808.747752.2986667.631322.1728362 1.346531.2097175 2.044384.3977401 1.844791.503322 4.276068.7491977 6.528.7491977 2.447909 0 4.656452-.066531 6.677695-.5488813.300113-.0708701.528632-.2277966.845378-.3478418.320362-.1229379.702192-.0983503.997243-.2010396.20104-.0687005.415819-.287096.647955-.3977401 1.16574-.5539435 2.150689-1.1158418 3.188429-1.8426214.821514-.5770848 1.496226-1.0695594 2.58965-1.4955029.485243-.1894689.974825-.4490847 1.447051-.5980565 1.032678-.3275932 2.151412-.6363841 2.94183-1.1462147 1.240226-.7962033 2.155752-1.9388022 3.187707-2.8398644 1.078237-.9408361 2.160813-1.8418983 3.290395-2.7407909 2.287367-1.8245424 4.613785-3.4921582 6.774599-5.2320904 1.093424-.8815367 2.30183-1.70738985 3.589062-2.44212431 2.512994-1.43475707 5.057808-3.1240678 8.668565-3.38874577 1.413062-.10341243 2.905672-.14607909 4.33826.04917514.393401.05496046.934328.27480226 1.29374.19887006.397017-.08316384.685559-.68266667.945898-1.14476836.538757-.95457627.920588-1.58879096 1.397153-2.74223729.292158-.71231638.170667-1.42101695.896-1.39498305.741243.02820339.615412 1.92361582.647955 2.64244068.040497.86924294-.106305 2.03715254.050621 2.63954802.105582.41871186.661695 1.03557062 1.245288 1.04786441.399187.00650847.668204-.3239774 1.045695-.54960452.389786-.22779661.751367-.36230509.99652-.54671187.591548-.44329943 1.298079-1.18020339 1.893243-1.79489265.493198-.50766102 1.265537-1.69581921 2.096452-1.59312995 1.415232.16922034.009401 2.25699435-.303006 2.93749153-.739796 1.63290395-1.453559 2.85071186-2.288813 4.38671186-.347119.63421467-1.145492 1.48827117-1.149831 2.14418077 0 .4613786.39774.768.599503 1.2452882.096904.2270734.152588.4715028.251661.6956836.485243 1.1288587.855503 2.7133107 1.245288 4.0367005.32687 1.1143955.594441 2.2909831.99652 3.389469.392678 1.0731751.960362 2.0827118 1.395706 3.1378079.113537.2762486.135955.6154124.249492.8981695.911909 2.3278644 1.791277 4.9825988 2.8847 7.2272994.448362.909017 1.055819 2.0429379 1.05148 3.3887458-.008677 1.4824858-.77957 2.1911864-1.448497 3.2875028-.348565.5792542-.864904 1.4629604-1.392813 1.6451977-.391955.1337853-.846825-.0072316-1.244565.0477288-.560452.0781017-.948791.4404068-1.447051.4989831-1.355932.1569265-2.568678-.8981695-2.941831-1.8932429-.122937-.3362712-.067254-.7940339-.146079-1.196113-.323254-1.6169944-1.107164-2.3987345-2.241084-3.4386441-.724611-.6602486-1.279277-1.1686328-2.194803-1.6451977-1.271322-.6602486-2.689446-1.068113-4.035977-1.7941695-.496814-.2654012-1.120904-.5308023-1.546848-.4469153-.720994.1417401-1.439096 1.3103729-1.99087 2.0443842-3.518915 4.6347571-6.62635 9.3982373-10.069333 13.9534463-2.272904 3.0098079-4.703458 6.068791-6.527277 9.516113-.457762.8663503-.731118 1.8780565-1.096316 2.8904859-.35435.988565-.525017 2.0856045-.896723 3.1392542-1.324113 3.7908249-1.736317 8.4017175-2.936769 12.3581469-.128.4158192-.175728.8931074-.301559 1.3443616-.552497 2.0205198-1.105718 4.3353672-1.742825 6.4788249-.475842 1.598192-.619751 3.7553898-.700746 5.8814915-.073039 1.968452-.16705 4.7750508.550328 6.0261243.378215.6660339 1.729808.9075706 2.243977 1.5974689.352181.4772881.590825 1.4137853.945176 2.0429379.245152.4353446.950237 1.3646101.896723 2.0414918-.040497.507661-.47078.864904-.848271 1.047864-.418712.206102-1.038464.079548-1.442712.29939-.449808.245152-.235752.794034-.700746 1.095593" fill="#4c2418"/></svg>