<svg height="256" preserveAspectRatio="xMidYMid" viewBox="0 0 256 256" width="256" xmlns="http://www.w3.org/2000/svg"><path d="m20.64 58.4320102 101.216 55.2319998 3.072-58.3679998-31.296-50.49599996c-30.395351 8.46939136-56.22016 27.79743236-72.992 53.63199996zm144.864-52.83199996-33.408 49.69599996 1.024 62.4639998 103.36-57.4719998c-16.169298-25.8533888-41.219604-45.5755776-70.976-54.68799996z" fill="#006eaf"/><path d="m60.032 236.32001 62.848-102.176-102.272-75.6799998c-12.99265536 20.0283034-20.608 43.8844728-20.608 69.5359998 0 45.690307 24.0119501 85.67123 60.032 108.32zm176.448-176.0319998-103.36 73.8559998 63.904 101.504c35.430922-22.764462 58.976-62.405878 58.976-107.648 0-24.885678-7.200625-48.0598218-19.488-67.7119998-.003072-.00512-.029082.00512-.031949 0z" fill="#00a7e1"/><path d="m129.024 255.93601-6.144-100.288-62.816 80.672c19.7056102 12.384676 42.943642 19.68 67.936 19.68.345887 0 .678769-.061235 1.024-.064zm68-20.288-64.928-82.048-3.072 102.336c25.057556-.198779 48.339702-7.656212 68-20.288z" fill="#5bc9ec"/><path d="m165.504 5.60001024-36.48 43.55199996-35.36-44.38399996c-.0124928.003072-.019456.0285696-.0319488.0319488l31.2959488 50.49605116-3.072 58.3679998-101.216-55.2319998c-.008192.012288-.024064.0197632-.0319488.0319488l102.2719488 75.680051-62.848 102.176c.008192.00512.0242688-.00512.0319488 0l62.8160512-80.672 6.144 100.288 3.072-102.336 64.928 82.048-63.904-101.504 103.36-73.8559998-103.36 57.4719998-1.024-62.4639998z" fill="#fff"/><path d="m128 .00001024c-11.915776 0-23.39115 1.72192768-34.336 4.768l35.36 44.38399996 36.48-43.55199996c-11.869143-3.6347392-24.444303-5.6-37.504-5.6z" fill="#013a78"/></svg>