<svg height="214" preserveAspectRatio="xMidYMid" viewBox="0 0 512 214" width="512" xmlns="http://www.w3.org/2000/svg"><path d="m35.9822222 83.4844444c0-5.5466666 4.5511111-7.68 12.0888889-7.68 10.8088889 0 24.4622222 3.2711112 35.2711111 9.1022223v-33.4222223c-11.8044444-4.6933333-23.4666666-6.5422222-35.2711111-6.5422222-28.8711111 0-48.0711111 15.0755556-48.0711111 40.2488889 0 39.2533329 54.0444444 32.9955559 54.0444444 49.9199999 0 6.542222-5.6888888 8.675556-13.6533333 8.675556-11.8044444 0-26.88-4.835556-38.82666666-11.377778v33.848889c13.22666666 5.688889 26.59555556 8.106666 38.82666666 8.106666 29.5822222 0 49.92-14.648888 49.92-40.106666-.1422222-42.3822224-54.3288889-34.8444447-54.3288889-50.7733336zm96.1422218-66.9866666-34.7022218 7.3955555-.1422222 113.9199997c0 21.048889 15.786667 36.551111 36.835556 36.551111 11.662222 0 20.195555-2.133333 24.888888-4.693333v-28.871111c-4.551111 1.848889-27.022222 8.391111-27.022222-12.657778v-50.4888887h27.022222v-30.2933333h-27.022222zm71.111112 41.3866666-2.275556-10.5244444h-30.72v124.444444h35.555556v-84.3377773c8.391111-10.9511111 22.613333-8.96 27.022222-7.3955556v-32.7111111c-4.551111-1.7066667-21.191111-4.8355556-29.582222 10.5244444zm38.257777-10.5244444h35.697778v124.444444h-35.697778zm0-10.8088889 35.697778-7.68v-28.8711111l-35.697778 7.53777778zm109.937778 8.3911111c-13.937778 0-22.897778 6.5422222-27.875555 11.0933334l-1.848889-8.8177778h-31.288889v165.8311112l35.555555-7.537778.142223-40.248889c5.12 3.697778 12.657777 8.96 25.173333 8.96 25.457778 0 48.64-20.48 48.64-65.564444-.142222-41.2444447-23.608889-63.7155558-48.497778-63.7155558zm-8.533333 97.9911108c-8.391111 0-13.368889-2.986666-16.782222-6.684444l-.142223-52.7644446c3.697778-4.1244444 8.817778-6.9688888 16.924445-6.9688888 12.942222 0 21.902222 14.5066666 21.902222 33.1377774 0 19.057778-8.817778 33.28-21.902222 33.28zm169.102222-32.853333c0-36.4088889-17.635556-65.1377778-51.342222-65.1377778-33.848889 0-54.328889 28.7288889-54.328889 64.8533338 0 42.808888 24.177778 64.426666 58.88 64.426666 16.924444 0 29.724444-3.84 39.395555-9.244444v-28.444445c-9.671111 4.835556-20.764444 7.822223-34.844444 7.822223-13.795556 0-26.026667-4.835556-27.591111-21.617778h69.546667c0-1.848889.284444-9.244445.284444-12.657778zm-70.257778-13.5111111c0-16.0711111 9.813334-22.7555556 18.773334-22.7555556 8.675555 0 17.92 6.6844445 17.92 22.7555556z" fill="#6772e5"/></svg>