<svg height="210" preserveAspectRatio="xMidYMid" viewBox="0 0 256 210" width="256" xmlns="http://www.w3.org/2000/svg"><path d="m140.95127 59.232061 23.482-13.5579768 23.481999 13.5579768v27.1194209l-23.481999 13.5545092-23.482-13.5545092z" fill="#07592b"/><path d="m154.849063 61.7806832 32.774935-18.9222197 32.771468 18.9222197v37.8444393l-32.771468 18.9222195-32.774935-18.9222195z" fill="#7dbd33"/><path d="m218.439788 61.1149206-30.82966-17.9894586v-6.5015873l20.766937-11.9525181 46.981337 27.1228885v104.9963009l-90.9286 52.49815-39.123951-22.476421v-45.837057l39.713429-22.753822 21.401491 12.462243v-50.7123814z" fill="#07592b"/><path d="m179.485745 143.718021 24.608941-14.209869 24.608942 14.209869v28.416271l-24.608942 14.209869-24.608941-14.209869z" fill="#7dbd33"/><path d="m74.284861 130.912494 22.6393938-13.069057 22.6393942 13.069057v26.141583l-22.6393942 13.069057-22.6393938-13.069057z" fill="#7dbd33"/><path d="m74.2952635 101.979564 15.6939649-9.060612 15.6939646 9.060612v18.124692l-15.6939646 9.060612-15.6939649-9.060612z" fill="#07592b"/><path d="m73.9103695 52.1895416 21.6060749-12.4726451 21.6060746 12.4726451v24.9487577l-21.6060746 12.4761126-21.6060749-12.4761126z" fill="#7dbd33"/><path d="m116.657873 84.1842861 23.721258-13.6932097 23.71779 13.6932097v27.3864199l-23.71779 13.693209-23.721258-13.693209z" fill="#07592b"/><path d="m39.6235987 52.5328254 9.8754777-5.7005917 9.8754777 5.7005917v11.404651l-9.8754777 5.7005917-9.8754777-5.7005917z" fill="#07592b"/><path d="m44.3914294 106.71272 9.8754777-5.700592 9.8754777 5.700592v11.404651l-9.8754777 5.700591-9.8754777-5.700591z" fill="#7dbd33"/><path d="m112.996179 165.497471 12.316607-7.111869 12.316607 7.111869v14.220272l-12.316607 7.11187-12.316607-7.11187z" fill="#7dbd33"/><path d="m24.1688923 65.1753786 5.2463475-3.0306065 5.249815 3.0306065v6.0577456l-5.249815 3.0306066-5.2463475-3.0306066z" fill="#7dbd33"/><path d="m35.7295814 101.729903 5.2463475-3.0306065 5.2463475 3.0306065v6.057746l-5.2463475 3.027139-5.2463475-3.027139z" fill="#7dbd33"/><g fill="#07592b"><path d="m28.3611158 122.389347 5.2463475-3.030607 5.2463475 3.030607v6.057745l-5.2463475 3.030607-5.2463475-3.030607z"/><path d="m.04193524 42.6365426 5.24634751-3.0306065 5.24634755 3.0306065v6.0577457l-5.24634755 3.0306065-5.24634751-3.0306065z"/><path d="m145.015196 11.6439094 19.636527-11.33530072 19.63306 11.33530072v22.674069l-19.63306 11.3387683-19.636527-11.3387683z"/><path d="m104.334331 35.2854146 16.540038-9.5495314 16.53657 9.5495314v19.0990629l-16.53657 9.5495314-16.540038-9.5495314z"/></g></svg>