<svg height="154" preserveAspectRatio="xMidYMid" viewBox="0 0 256 154" width="256" xmlns="http://www.w3.org/2000/svg"><path d="m178.903752 2.85667802-2.108674-1.41695569c-1.930121-1.26427134-4.279327-1.72054484-6.542374-1.27068929h-.073133c-2.232161.47577847-4.189128 1.80704115-5.45147 3.70846251l-89.8928877 134.55289245c-1.2605408 1.917971-1.716899 4.254481-1.2706893 6.505808v.118841c.476927 2.222005 1.8090518 4.167104 3.7084625 5.414904l2.1086739 1.380389c1.9263925 1.277563 4.2823769 1.735049 6.5469018 1.271279 2.264525-.463771 4.2509931-1.810582 5.5200756-3.742572l89.8928872-134.5163259c1.261202-1.9313667 1.717232-4.2793214 1.27069-6.54237385-.452735-2.24514068-1.789097-4.21399547-3.708463-5.46365923zm-1.453522 9.44637118-10.686589 15.9917924-8.794266-5.8140892 10.686588-15.95522569c.586348-.88623029 1.502312-1.50162665 2.544426-1.70948847 1.04298-.21281291 2.12779-.00352126 3.016744.58201836l2.108674 1.41695568c.88623.5863477 1.501627 1.50231198 1.709488 2.5444258.205543 1.02093962-.005071 2.08168882-.585065 2.94665842zm-126.3375973 105.8785858c-1.1757135.004145-2.3175326-.393664-3.236144-1.127471l-45.86975032-36.2374984c-1.2664981-.9892307-2.00673838-2.506697-2.00673838-4.1137423 0-1.6070454.74024028-3.1245117 2.00673838-4.1137423l45.83318372-36.2953961c2.2719572-1.8066266 5.5783026-1.4294017 7.3849293.8425554 1.8066266 2.2719571 1.4294017 5.5783026-.8425554 7.3849293l-40.6346324 32.1877481 40.5980658 32.0841423c1.7627342 1.381289 2.4560298 3.728175 1.7268545 5.845601-.7291754 2.117426-2.7204911 3.539815-4.9599512 3.542874zm153.8143483 0c-2.238901-.004354-4.229027-1.4272-4.957406-3.544311-.72838-2.117111-.034941-4.463221 1.727357-5.844164l40.595018-32.0841423-40.634632-32.2121259c-1.469699-1.1621505-2.207756-3.0200968-1.936154-4.8739684.271603-1.8538716 1.511603-3.4220214 3.252904-4.1137424s3.719359-.4019244 5.189057.7602262l45.830137 36.3350098c1.266498.9892307 2.006738 2.506697 2.006738 4.1137423 0 1.6070454-.74024 3.1245117-2.006738 4.1137424l-45.830137 36.1887433c-.915698.743042-2.056932 1.152468-3.236144 1.16099z"/><path d="m114.102423 45.0371496c2.864038-7.8685035 5.223373-10.1913539 13.091876-13.0918764-7.868503-2.864038-10.176152-5.223373-13.091876-13.0888361-2.864038 7.8685035-5.223373 10.1913539-13.091877 13.0918764 7.871544 2.8974822 10.191354 5.2203326 13.091877 13.0888361z" fill="#1c96d4"/><path d="m81.7193349 89.5331116c5.0044656-13.6361045 9.0299288-17.6615677 22.6660331-22.6660332-13.6361043-5.0044656-17.6615675-9.0299288-22.6660331-22.6660333-5.0044655 13.6361045-9.0299287 17.6615677-22.6660332 22.6660333 13.6361045 4.967981 17.6980522 9.0299287 22.6660332 22.6660332z" fill="#c61a41"/><path d="m170.24 110.493492c3.627173-9.899478 6.564181-12.8000003 16.418052-16.4180526-9.899477-3.6271734-12.8-6.5641805-16.418052-16.4180522-3.627173 9.8994774-6.564181 12.8-16.418052 16.4180522 9.853871 3.6180523 12.790879 6.5672206 16.418052 16.4180526z" fill="#eeb034"/></svg>