<svg height="192" preserveAspectRatio="xMidYMid" viewBox="0 0 256 192" width="256" xmlns="http://www.w3.org/2000/svg" xmlns:xlink="http://www.w3.org/1999/xlink"><radialGradient id="a" cx="59.170258%" cy="15.555993%" r="47.540391%"><stop offset="0" stop-color="#ec3f3a"/><stop offset="1" stop-color="#92268e"/></radialGradient><path d="m154.414782 78.2873052c1.433786-47.2654059-40.448469-83.93070134-87.3649763-77.56795131-31.2645965 4.23942479-56.3192151 26.08170101-64.41303778 56.15715291-7.97924364 29.6450062 2.48461054 61.3761772 26.87343198 80.1795282 22.5813627 17.407757 45.4135606 34.489325 68.1642113 51.677215 5.2107658 3.938009 9.6896718 4.316843 13.6369708 1.185016 4.470648-3.544725 4.51297-8.007115 2.644609-12.990787-3.426017-9.137421-6.655907-18.349164-10.096376-27.88916 2.099584-.930051 3.985493-1.683589 5.799145-2.581641 28.227736-13.981741 43.804293-36.807745 44.756022-68.1693728zm67.97944-37.0596126c-20.071979-10.9892662-40.594015-10.941783-61.563014-1.2149508 14.391542 34.697839 8.542849 72.7876312-19.178055 101.8473552 6.154237 4.8629 12.243442 9.674187 18.49471 14.613473-3.839946 7.410478-7.737698 14.846761-11.550807 22.325367-1.873522 3.677884-2.024229 7.383639 1.103469 10.456628 3.257761 3.200988 7.03887 3.16073 10.880881.955858 21.597634-12.395182 43.489458-24.311403 64.725807-37.299093 42.23425-25.831898 40.521758-87.9048398-2.912991-111.6846374z" fill="url(#a)"/></svg>