<svg height="228" preserveAspectRatio="xMidYMid" viewBox="0 0 256 228" width="256" xmlns="http://www.w3.org/2000/svg"><path d="m0 110.557792v-3.218924c12.545937-10.6462694 28.0432579-25.500961 39.6048077-38.1280044l5.9036567 3.9613252c-6.6411694 11.8848643-16.2348336 24.7587822-25.5827344 34.4148872 14.7598083 18.56892 15.4973209 19.560196 25.0909852 35.406163l-5.4119075 3.961325c-5.4119075-5.693891-7.8715422-8.418621-15.4973209-15.349774-8.8559294-8.419732-7.8726532-7.182249-20.66346488-18.075837l-3.44402192-2.970939zm50.2044135 57.552209 10.5098332-5.253695c19.7046317 29.879373 50.9050393 50.565281 75.8646983 50.565281 23.974828 0 41.053835-17.074562 41.053835-41.371593 0-23.968384-13.794309-36.117011-53.533109-46.951936-47.2923603-12.805922-65.3559764-30.2080212-65.3559764-64.0264988 0-33.8193664 26.273583-61.0715592 58.4588224-61.0715592 8.867706 0 8.210189 0 28.901652 6.23852606 2.955162.98505382 6.897155 1.64234892 8.538393 1.64234892 2.298755 0 5.58323-.98505382 8.539503-2.29875519l11.165351-5.58123095 20.362149 56.80291856-10.509834 6.8949323c-19.048225-31.5208334-43.351478-49.5802275-66.996992-49.5802275-20.6905743 0-36.1261211 15.4322136-36.1261211 36.4467692 0 20.6847969 14.122512 34.1480139 43.3514791 41.6993525 14.122512 3.6122344 24.303253 6.5673958 29.229855 7.8799861 29.558059 8.864818 47.293472 32.178129 47.293472 61.400207 0 37.102953-28.572338 65.997495-64.699348 65.997495-11.166462 0-16.749471-1.313702-30.542891-7.552228-5.9114337-2.627402-9.5241124-3.611345-11.8228676-3.611345-3.2844757 0-5.5832309.985054-9.5241128 3.283587l-12.4792742 7.879986-21.6782947-59.432321zm161.0246345-25.115873c9.593887-16.094397 10.085636-16.836576 24.845666-35.406607-9.3479-9.6561056-18.941787-22.5304679-25.583178-34.4153322l6.148753-3.9613252c11.316898 12.6272656 26.321803 26.9868749 39.359711 38.1284494v3.219146l-12.546159 10.398506c-4.673506 3.962436-18.203164 16.836577-27.058426 25.997599l-5.166144-3.960214z" fill="#ff0080"/></svg>