<svg height="257" preserveAspectRatio="xMidYMid" viewBox="0 0 256 257" width="256" xmlns="http://www.w3.org/2000/svg"><circle cx="128" cy="128.827077" fill="#1a171b" r="128"/><path d="m183.7056 48.1240615c-12.985108.4529231-24.32 7.6091077-32.756185 17.5104-9.34203 10.8544-15.556923 23.7292308-20.034953 36.8718765-8.010831-6.5654149-14.190277-15.0646149-27.041477-18.7707072-9.9328004-2.8514462-20.365785-1.6738462-29.9598773 5.4744615-4.5449846 3.3949539-7.6760615 8.5267692-9.1648 13.3513847-3.8557539 12.536123 4.0526769 23.693785 7.6445538 27.6992l7.8532923 8.416492c1.6187077 1.650216 5.5177847 5.954954 3.6115693 12.126523-2.0598154 6.711139-10.1494154 11.055262-18.4477539 8.495262-3.7060923-1.130339-9.0308923-3.8912-7.8375384-7.778462.4923077-1.591138 1.630523-2.780554 2.2409846-4.155077.5592615-1.181538.8270769-2.067692.9964308-2.587569 1.5163076-4.950646-.5553231-11.390031-5.8564924-13.024492-4.9467076-1.516308-10.0076307-.315077-11.9689846 6.053415-2.2252307 7.234954 1.236677 20.365785 19.7828923 26.084431 21.7284923 6.675692 40.1092925-5.155446 42.7165535-20.586338 1.642339-9.664985-2.721477-16.8448-10.7165535-26.080493l-6.5142153-7.203446c-3.9463385-3.9424-5.3011693-10.6614153-1.2169847-15.8247384 3.4461539-4.3559384 8.353477-6.2148923 16.3918765-4.0290461 11.732677 3.1862153 16.962954 11.3270155 25.690585 17.8924305-3.603692 11.819323-5.958892 23.681969-8.0896 34.319754l-1.299692 7.932062c-6.238523 32.720738-11.000123 50.688-23.3747695 61.00283-2.4930461 1.772308-6.0573538 4.426831-11.4294153 4.611939-2.816.086646-3.7257847-1.851077-3.7651693-2.693908-.0669538-1.977108 1.5990154-2.882954 2.7057231-3.773046 1.6541538-.901908 4.1550769-2.398523 3.9857231-7.191631-.1811693-5.663507-4.8718769-10.574769-11.6539077-10.350277-5.0806154.173293-12.8236308 4.954585-12.5321846 13.705846.3032615 9.03877 8.7276307 15.812924 21.4291692 15.383631 6.7899077-.232369 21.952985-2.997169 36.895508-20.759631 17.392246-20.361846 22.256246-43.705107 25.915077-60.790153l4.084184-22.55557c2.268554.271754 4.694646.452923 7.333416.515939 21.661538.456861 32.496246-10.763816 32.657723-18.9243078.106338-4.9388308-3.241354-9.7988924-7.928123-9.6886154-3.35557.094523-7.569723 2.3276307-8.581908 6.9671384-.988554 4.5528618 6.892308 8.6606768.732554 12.6503388-4.375631 2.831754-12.221046 4.828554-23.268431 3.205907l2.008615-11.102523c4.099939-21.0550151 9.156923-46.9543382 28.34117-47.584492 1.398153-.0708923 6.514215.0630154 6.632369 3.4461538.035446 1.1303385-.244185 1.4178462-1.567508 4.0054154-1.346954 2.0164923-1.855015 3.7336616-1.792 5.7068308.185108 5.376 4.273231 8.9088 10.184862 8.6961231 7.916307-.256 10.192738-7.9635693 10.062769-11.9217231-.319015-9.2987077-10.121846-15.1748923-23.099077-14.7495385z" fill="#fff"/></svg>