<svg height="256" preserveAspectRatio="xMidYMid" viewBox="0 0 256 256" width="256" xmlns="http://www.w3.org/2000/svg"><path d="m129.05802.00453586c-70.6853667-.58893955-128.46875036 56.24793414-129.0534832 126.93750714-.24819596 29.737241 9.7006758 57.160791 26.5317269 79.027275 6.5835029-6.478335 11.1267509-10.945862 11.8797522-11.682037 3.3864024-3.323301 12.3340769-3.247581 12.3340769-3.247581s8.7836128-8.632171 17.8070081-17.520951c9.027602-8.884574-6.2637928-24.424165-6.2637928-24.424165l-21.3490589-21.702423c83.4863888-82.148654 144.4668728-56.7148786 144.4668728-56.7148786s24.428371 61.3927416-59.053811 143.5371896l-21.353265-21.706629s-15.2871883-15.535385-24.3105836-6.663431c-9.0360154 8.892987-17.8154215 17.525159-17.8154215 17.525159s-.0588939 8.951881-3.4537098 12.283596c-.757208.744588-5.3341097 5.249975-11.9680931 11.778791 21.7276629 17.62612 49.3278944 28.319579 79.485806 28.567775 70.69378.58894 128.468751-56.243727 129.053483-126.937507.584733-70.6937803-56.23952-128.47295729-126.937507-129.05769014z" fill="#ee5a4c"/></svg>