<svg height="257" preserveAspectRatio="xMidYMid" viewBox="0 0 256 257" width="256" xmlns="http://www.w3.org/2000/svg"><g transform="translate(42 43)"><path d="m168.377 83.784c0 46.231-37.477 83.708-83.708 83.708s-83.708-37.477-83.708-83.708 37.477-83.708 83.708-83.708 83.708 37.477 83.708 83.708" fill="#4d37b9"/><path d="m37.509 44.972 37.24-21.501c6.189-3.573 13.815-3.573 20.005 0l37.24 21.501c6.19 3.573 10.002 10.177 10.002 17.324v43.002c0 7.147-3.812 13.751-10.002 17.324l-37.24 21.501c-6.19 3.574-13.816 3.574-20.005 0l-37.24-21.501c-6.19-3.573-10.003-10.177-10.003-17.324v-43.002c0-7.147 3.813-13.751 10.003-17.324" fill="#fff"/></g><g fill="#4d37b9" transform="translate(90 99)"><path d="m36.537.521c9.416.001 18.832-.029 28.248.011 5.789.025 7.561 1.879 7.57 7.71.002 1.457.015 2.914-.003 4.371-.056 4.656-2.06 6.712-6.804 6.796-4.258.076-8.519-.026-12.778.029-5.013.065-6.869 1.929-6.886 6.95-.034 9.864.009 17.64 0 27.504 0 9.462-1.694 10.341-8.073 10.359-9.474.027-10.353-.846-10.353-10.359 0-9.08.025-18.159 0-27.239-.015-5.416-1.806-7.177-7.296-7.22-4.147-.033-8.297.058-12.443-.025-4.711-.094-6.684-2.164-6.733-6.866-.016-1.569-.008-3.139-.002-4.708.023-5.328 1.892-7.255 7.305-7.298 7.173-.057 14.348-.015 21.522-.015 2.242-.001 4.484 0 6.726 0"/><path d="m54.132 33.591c0-2.272 1.809-2.441 1.809-2.441h6.354c3.745 0 6.733 3.577 6.733 7.07 0 2.606-1.219 4.321-1.837 5.024-.19.216-.194.53-.014.755.632.791 1.935 2.699 1.935 4.993 0 3.029-2.104 7.027-6.691 7.027h-6.48s-1.725.463-1.725-1.936c0-2.398 1.725-2.146 1.725-2.146h6.354c1.809 0 2.062-1.304 2.062-2.987 0-1.684-.757-3.03-2.062-3.03h-6.354s-1.767.126-1.767-2.188c0-2.315 1.767-2.399 1.767-2.399h6.354c1.473 0 2.062-1.599 2.062-2.861s-.589-2.567-2.062-2.567h-6.354s-1.809-.042-1.809-2.314"/></g><path d="m220.841 42.795c0 4.416-3.579 7.995-7.995 7.995-4.415 0-7.995-3.579-7.995-7.995 0-4.415 3.58-7.995 7.995-7.995 4.416 0 7.995 3.58 7.995 7.995" fill="#b300e3"/><path d="m256 127.476c0 4.415-3.579 7.995-7.995 7.995-4.415 0-7.995-3.58-7.995-7.995 0-4.416 3.58-7.995 7.995-7.995 4.416 0 7.995 3.579 7.995 7.995" fill="#4e00bf"/><path d="m221.114 212.52c0 4.416-3.579 7.995-7.995 7.995-4.415 0-7.995-3.579-7.995-7.995 0-4.415 3.58-7.995 7.995-7.995 4.416 0 7.995 3.58 7.995 7.995" fill="#0ebbf0"/><path d="m136.369 248.305c0 4.415-3.579 7.994-7.995 7.994-4.415 0-7.995-3.579-7.995-7.994 0-4.416 3.58-7.995 7.995-7.995 4.416 0 7.995 3.579 7.995 7.995" fill="#93e477"/><path d="m51.175 212.52c0 4.416-3.579 7.995-7.995 7.995-4.415 0-7.994-3.579-7.994-7.995 0-4.415 3.579-7.995 7.994-7.995 4.416 0 7.995 3.58 7.995 7.995" fill="#dde6ec"/><path d="m15.99 127.626c0 4.415-3.58 7.995-7.995 7.995-4.416 0-7.995-3.58-7.995-7.995 0-4.416 3.579-7.995 7.995-7.995 4.415 0 7.995 3.579 7.995 7.995" fill="#fe4545"/><path d="m51.026 42.881c0 4.415-3.58 7.995-7.995 7.995-4.416 0-7.995-3.58-7.995-7.995s3.579-7.995 7.995-7.995c4.415 0 7.995 3.58 7.995 7.995" fill="#feb900"/><path d="m136.369 7.995c0 4.415-3.579 7.995-7.995 7.995-4.415 0-7.995-3.58-7.995-7.995 0-4.416 3.58-7.995 7.995-7.995 4.416 0 7.995 3.579 7.995 7.995" fill="#47e8e2"/></svg>