<svg height="256" preserveAspectRatio="xMidYMid" viewBox="0 0 256 256" width="256" xmlns="http://www.w3.org/2000/svg"><path d="m224.287568 43.9155813-11.962904 84.1998847-84.199885-11.962903 11.962904-84.1998855z" fill="#a295ae" opacity=".8"/><path d="m31.8853252 212.290983 11.9629038-84.199885 84.199885 11.962904-11.962904 84.199885z" fill="#5d6f6d" opacity=".8"/><path d="m43.8482612 32.0645356 84.1998848 11.9629039-11.962903 84.1998855-84.1998856-11.962904z" fill="#8cd592" opacity=".8"/><path d="m212.226084 224.263692-84.199885-11.962904 11.962904-84.199885 84.199885 11.962904z" fill="#665e74" opacity=".8"/><path d="m119.642193 255.595097-51.079259-67.99736 67.99736-51.079259 51.079259 67.99736z" fill="#3c3647" opacity=".8"/><path d="m255.463211 136.38964-67.99736 51.07926-51.079259-67.99736 67.997361-51.0792593z" fill="#837193" opacity=".8"/><path d="m136.436624.55385053 51.079259 67.99736017-67.99736 51.0792593-51.0792588-67.9973603z" fill="#a2f4ac" opacity=".8"/><path d="m.46331109 119.700163 67.99736011-51.0792588 51.0792588 67.9973598-67.9973601 51.079259z" fill="#7ea685" opacity=".8"/><path d="m127.963225 95.7423436 32.332175 32.3321754-32.332175 32.332175-32.3321751-32.332175z" fill="#3c3647"/></svg>