<svg height="405" preserveAspectRatio="xMidYMid" viewBox="0 0 256 405" width="256" xmlns="http://www.w3.org/2000/svg"><path d="m255.961067 209.712903c0-24.770426-21.674122-45.412447-46.444548-44.380346-24.770426 0-44.380346 20.642022-44.380346 45.412447 0 24.770426 21.674122 45.412448 46.444548 44.380347 25.802527 0 45.412447-20.642022 44.380346-45.412448zm-136.237342 37.155639c14.449415-8.256808 35.091437 0 47.47665 20.642022 12.385213 19.60992 11.353112 43.348245-3.096304 51.605054-14.449415 8.256808-35.091436 0-48.50875-20.642022-11.353112-19.60992-10.321011-43.348245 4.128404-51.605054zm-43.3482452 50.572953c12.3852129-5.160505 27.8667292 6.192606 36.1235382 25.802527 8.256808 19.60992 5.160505 39.219841-7.224708 44.380346-12.385213 5.160506-27.8667291-6.192606-36.1235378-25.802527-8.2568086-19.60992-5.1605053-39.219841 7.2247076-44.380346zm-40.2519421 39.219841c8.2568087-3.096303 20.6420216 9.28891 27.8667292 27.866729 7.2247075 18.57782 5.1605053 36.123538-3.0963033 39.219841s-20.6420215-9.28891-27.8667291-27.866729c-6.1926065-18.577819-5.1605054-36.123538 3.0963032-39.219841zm117.6595233-244.607956c15.481516 5.1605054 23.738324 26.834628 16.513617 49.540852-6.192607 22.706224-24.770426 37.155639-41.284043 31.995134-16.513617-5.160506-23.738325-26.834628-17.545719-49.540852 8.256809-22.706224 26.834628-37.1556393 42.316145-31.995134zm-57.7976607-51.6050539c12.3852127 3.0963033 18.5778197 21.6741227 13.4173137 42.3161442-5.160505 20.6420217-19.6099202 34.0593357-33.0272342 29.9309317-12.3852129-3.096303-18.5778194-22.7062241-12.3852129-42.3161446 5.1605053-20.6420216 19.6099204-34.0593356 31.9951334-29.9309313zm-43.3482453-40.25194203c9.2889097 2.06420216 12.3852129 18.57781943 8.2568086 38.18773993s-14.4494151 33.0272345-23.7383248 30.9630323c-8.2568086-1.0321011-12.3852129-18.5778194-8.2568086-37.1556388 4.1284043-19.6099205 14.4494151-34.05933558 23.7383248-31.99513343z" fill="#1d7dc0"/><path d="m113.531119 203.499006c1.032101 19.60992-10.321011 36.123538-24.7704263 36.123538-14.4494151 0-25.8025269-15.481517-25.8025269-35.091437 0-19.609921 11.3531118-36.123538 24.7704259-36.123538 14.4494153 0 25.8025273 15.481516 25.8025273 35.091437zm-82.5680867 58.829761c-3.0963032-17.545718 3.0963033-34.059335 13.4173141-36.123537 11.3531118-2.064203 21.6741226 11.353111 25.8025269 28.89883 3.0963033 18.577819-3.0963032 34.059335-13.417314 36.123538-11.3531119 3.096303-22.7062237-10.321011-25.802527-28.898831zm3.0963033 36.123538c4.1284043 16.513617 2.0642021 30.963032-6.1926065 33.027235-7.2247075 2.064202-17.5457183-9.28891-21.67412263-24.770426-5.16050539-15.481516-2.06420216-30.963033 5.16050543-33.027235 8.2568086-2.064202 17.5457183 8.256809 22.7062237 24.770426zm33.0272345-153.783061c1.0321011 17.545719-7.2247076 31.995134-17.5457183 31.995134-10.3210108 0-19.6099205-14.449415-19.6099205-31.995134-1.0321011-17.545718 7.2247075-31.995133 17.5457183-31.995133s19.6099205 14.449415 19.6099205 31.995133zm-37.1556388-47.4766496c1.032101 16.5136176-6.1926065 28.8988306-14.4494151 28.8988306-8.25680865 1.032101-15.4815162-12.385213-15.4815162-27.8667295 0-15.4815162 6.19260647-28.8988302 14.4494151-28.8988302 8.2568086-1.0321011 15.4815162 12.385213 15.4815162 27.8667291z" fill="#969aa2"/></svg>