<svg height="210" preserveAspectRatio="xMidYMid" viewBox="0 0 256 210" width="256" xmlns="http://www.w3.org/2000/svg"><rect height="209.342334" rx="5" width="256"/><path d="m28.2414658 21.7735776c-.855802-.855802-1.8885246-1.283703-3.0981678-1.283703s-2.2464803.4320155-3.1105111 1.2960463c-.8516876.8516876-1.283703 1.8885246-1.283703 3.0981678s.4320154 2.2464802 1.283703 3.0981678l13.4418515 13.4418515-13.4295082 13.4295082c-.8640309.8640309-1.2960463 1.9008679-1.3083896 3.1105111.0123433 1.2096432.4443587 2.2464802 1.2960463 3.0981678.8640308.8516875 1.9008679 1.283703 3.0981678 1.2960463 1.2219865 0 2.2588235-.4320155 3.1228544-1.2960463l14.9353905-14.9477339c3.1351977-3.1228544 3.1351977-6.258052 0-9.3932497zm58.5442623 33.1047252c-.8640309-.8640309-1.9132112-1.2960463-3.1351977-1.2960463v-.0061716h-28.8339441v.0061716c-1.2219865 0-2.2588235.4320154-3.1228544 1.2960463-.8640308.8640309-1.2960463 1.9008679-1.2960463 3.1228544s.4320155 2.2711668 1.2960463 3.1351977c.8640309.8640308 1.9008679 1.2960463 3.1228544 1.2960463v-.0061717h28.8339441v.0061717c1.2219865 0 2.2711668-.4320155 3.1351977-1.2960463.8640308-.8640309 1.2960462-1.9132112 1.2960462-3.1351977s-.4320154-2.2588235-1.2960462-3.1228544z" fill="#fff"/></svg>