<svg height="258" preserveAspectRatio="xMidYMid" viewBox="0 0 256 258" width="256" xmlns="http://www.w3.org/2000/svg"><g transform="translate(0 -1)"><path d="m237.132 193.477c1.639-67.31-3.433-133.74-3.433-138.719 9.656-9.681 38.756-29.044 9.79-48.41-28.965-19.363-38.891 19.363-38.891 29.045-18.365-7.778-57.666-9.145-76.605-9.145s-57.164 1.527-76.771 9.145c0-9.682-9.707-48.411-38.673-29.045s-.026 38.729 9.629 48.41c0 4.972-5.062 71.162-3.464 138.347 2.01 9.755 1.572 66.814 110.565 65.104 116.592.477 107.818-63.784 107.853-64.732" fill="#ccae8f"/><path d="m44.784 37.546s-5.287-14.332-15.837-7.884-.09 18.798-.09 18.798c1.632-2.17 12.014-9.3 15.927-10.914" fill="#af9079"/><path d="m210.911 37.546s5.287-14.332 15.837-7.884.09 18.798.09 18.798c-1.629-2.17-12.011-9.3-15.927-10.914" fill="#af9079"/><path d="m70.865 157.523c7.566-.733 13.113-6.202 12.39-12.215s-7.442-10.294-15.008-9.561-13.114 6.202-12.391 12.215 7.443 10.294 15.009 9.561" fill="#4c5b68"/><path d="m70.388 145.096c1.274.862 2.977.716 3.804-.326.828-1.042.466-2.586-.808-3.448-1.274-.863-2.978-.717-3.805.325-.827 1.043-.465 2.587.809 3.449" fill="#e8e7df"/><path d="m188.897 136.497c-7.566-.715-14.286 3.459-15.009 9.321-.723 5.863 4.824 11.195 12.39 11.91s14.286-3.459 15.009-9.322c.723-5.862-4.825-11.194-12.39-11.909" fill="#4c5b68"/><path d="m188.878 145.609c1.303.841 3.046.699 3.893-.317.846-1.017.476-2.522-.828-3.363-1.304-.84-3.046-.698-3.893.318-.847 1.017-.476 2.522.828 3.362" fill="#e8e7df"/><path d="m184.142 215.263c-25.45 8.874-41.574-6.283-55.777-26.545-14.206 20.262-30.327 35.419-55.777 26.545-3.694-1.288-3.021 1.909 0 3.706 20.004 11.892 37.203 10.908 55.777 7.107 18.576 3.801 35.773 4.783 55.777-7.107 3.021-1.797 3.694-4.994 0-3.706" fill="#af9079"/><path d="m109.042 209.439c.022 18.926.633 40.746 19.311 40.746l.009-62.085c-4.879 7.422-11.457 14.458-19.32 21.339" fill="#e8e7df"/><path d="m147.685 209.439c-.022 18.926-.632 40.746-19.311 40.746l-.009-62.085c4.88 7.422 11.457 14.458 19.32 21.339" fill="#fff"/><path d="m79.234 72.813c3.194 10.399 7.472 22.037 13.152 34.305 2.806 6.15 6.073 12.397 9.662 18.725 3.609 6.308 7.679 12.65 12.317 18.681 2.33 2.99 4.825 5.914 7.496 8.479 1.338 1.262 2.739 2.432 4.086 3.297 1.121.864 2.544 1.125 2.544 1.125-.017-.005 1.168-.258 1.803-.622.646-.37 1.007-.878 1.703-1.422 1.397-1.089 2.886-2.423 4.247-3.833 2.725-2.829 5.32-6.059 7.783-9.406 4.941-6.706 9.485-14.022 13.668-21.631 4.193-7.609 8.093-15.527 11.642-23.652 6.956-16.288 12.733-33.474 15.705-50.86.911-5.358 1.541-10.682 1.79-15.969-19.534-3.687-44.839-3.749-58.841-3.749-13.574 0-37.859.055-57.167 3.416.201 3.903.738 9.283 1.865 15.977 1.236 7.547 3.384 16.722 6.545 27.139" fill="#af9079"/><path d="m194.197 31.68c-2.33-.618-4.794-1.165-7.361-1.65-.248 5.287-.88 10.609-1.79 15.967-2.971 17.383-8.748 34.567-15.704 50.855-3.547 8.127-7.449 16.036-11.642 23.645-4.184 7.609-8.727 14.906-13.668 21.612-2.463 3.349-5.058 6.544-7.783 9.373-1.361 1.407-2.763 2.726-4.162 3.815-.696.547-1.395 1.017-2.039 1.39-.634.364-1.247.604-1.539.659-.068.019-.109.021-.128.021.064-.009.235 1.11-.023 1.106l.007 1.093h-.01l-.191-1.105c0-.005.03-.557.044-.554.017 0 .034-.271.05-.266l-.045-.148c-.035-.005-.071-.078-.12-.095-.088-.019-.204-.09-.32-.128-.497-.174-1.155-.53-1.821-.953-1.349-.866-2.751-2.045-4.086-3.307-2.671-2.565-5.167-5.491-7.496-8.484-4.639-6.03-8.711-12.372-12.317-18.683-3.589-6.326-6.857-12.575-9.662-18.725-5.68-12.268-9.959-23.906-13.153-34.305-3.16-10.419-5.308-19.592-6.541-27.139-1.127-6.694-1.665-12.074-1.866-15.977-2.912.507-5.701 1.094-8.332 1.762-3.002.763-5.784 1.638-8.27 2.641.511 4.072 1.321 9.056 2.666 14.802 1.941 8.201 4.858 17.916 9.123 28.605 4.233 10.699 9.721 22.392 16.488 34.675 3.421 6.118 7.06 12.446 11.177 18.795 4.115 6.349 8.517 12.827 13.636 19.173 2.564 3.179 5.282 6.331 8.471 9.335 1.601 1.507 3.31 2.983 5.394 4.336 1.06.668 2.209 1.317 3.648 1.835.367.126.741.245 1.153.345.199.052.415.097.633.138l.333.059.434.052.428.036.192.009.384.01.374-.01c.497-.018.963-.078 1.394-.159 1.74-.335 3.042-.951 4.222-1.583 1.162-.646 2.194-1.345 3.153-2.07 1.916-1.455 3.59-3.01 5.186-4.612 3.17-3.209 5.99-6.622 8.715-10.121 10.702-14.106 19.867-29.704 27.884-46.272 4.046-8.263 7.763-16.787 11.045-25.568 3.253-8.786 6.177-17.795 8.339-27.118 1.082-4.659 1.986-9.391 2.632-14.207.026-.188.045-.376.069-.564-2.195-.877-4.614-1.652-7.205-2.341" fill="#efd8c2"/><path d="m118.71 162.419c0-10.771 19.31-10.771 19.31 0 0 6.353-3.487 15.272-9.667 24.624-6.156-9.352-9.643-18.28-9.643-24.624" fill="#4c5b68"/><path d="m128.204 24.962c-132.388 0-127.668 55.181-127.668 103.143 0 27.879 1.106 43.718 15.563 61.68.767.952 1.939 1.178 4.08 1.079 0 0 6.412-.08 6.108-8.885l2.145-38.948c0-10.005 10.755-25.657 25.775-25.657h148.054c15.02 0 25.721 15.652 25.721 25.657l2.145 38.168c0 13.283 8.007 7.153 8.007 7.153 16.751-19.192 17.744-31.085 17.744-60.442 0-50.607-3.609-102.948-127.674-102.948" fill="#ededed"/><path d="m234.51 75.282c1.515-9.275-1.955-24.105-1.955-24.105-17.879-15.898-45.04-26.126-104.351-26.217-27.665-.043-49.5669565 2.1929947-67.153 6.876 0 0-7.411 12.625-7.821 24.826 18.085-6.401 42.367-10.159 74.974-10.159 57.295 0 88.889 11.598 106.306 28.779z" fill="#fff"/><path d="m99.895 117.477h59.191v-91.433c-14.206-.707-19.519-1.082-29.596-1.082s-20.125.375-29.595 1.082z" fill="#e53838"/><path d="m122.229 25.009c-1.035.015-2.06.036-3.076.057-.523.012-1.049.024-1.57.036-1.314.036-2.614.076-3.899.124-.687.026-1.362.059-2.041.088-.649.028-1.298.057-1.939.088-.801.04-1.594.08-2.382.126-.448.026-1.101.054-1.549.08-1.922.119-3.513.248-5.881.397v21.539c9.471-.685 19.524-1.043 29.596-1.043 10.079 0 15.39.366 29.595 1.05v-21.543c-4.735-.152-5.317-.285-7.28-.404-.436-.026-1.617-.053-2.058-.079-.797-.045-1.974-.088-2.786-.128-.628-.031-1.452-.06-2.086-.086-.898-.04-1.894-.076-2.808-.109-1.061-.038-2.176-.074-3.258-.102-.538-.014-1.106-.026-1.65-.038-.988-.022-1.992-.041-2.996-.055-.483-.007-.97-.014-1.46-.019-1.482-.017-2.979-.028-4.499-.028-1.536 0-3.047.011-4.543.028-.476.007-.955.014-1.43.021" fill="#ff4040"/><path d="m34.138 169.802.003-.053c0-.029.001-.056.001-.085z" fill="#979797"/><path d="m224.088 169.303c0 .037.003.072.003.109l.001.015z" fill="#979797"/><path d="m22.669 195.987c-1.985 0-4.841-2.265-6.23-5.31 0 0 4.796 1.401 7.427-1.416 1.126-1.206 2.309-3.987 2.404-6.652.036-1 .003-2.063.08-2.965l2.122-38.159c.924-12.731 13.348-24.772 27.611-24.405l143.958-.04h.007c13.871 0 26.733 10.477 27.778 23.896l2.244 36.624c.063.905.053 1.835.08 2.885.068 2.639 0 7.293 2.284 8.595 2.284 1.303 3.687.662 6.291-1.382 0 0 1.363 9.296-9.284 5.711-5.376-3.342-5.132-7.65-5.264-12.795-.025-.985-.049-1.914-.104-2.693l-2.299-36.491c-.811-10.409-10.85-18.58-21.726-18.58h-.006l-144.032.04-.038-.001c-.187-.005-.374-.007-.559-.007-10.948 0-20.033 8.422-20.803 19.408l-3.202 37.76c-.064.763-.096 1.639-.129 2.566-.155 4.337-.349 9.735-4.316 12.244-1.229.778-2.654 1.167-4.294 1.167" fill="#4c5a68"/></g></svg>