<svg height="279" preserveAspectRatio="xMidYMid" viewBox="0 0 256 279" width="256" xmlns="http://www.w3.org/2000/svg"><path d="m251.895709 223.299253c-2.311302-2.299509-13.761676-8.567144-13.761676-8.567144s-18.077677-168.2002224-21.385432-173.6482893c-3.313651-5.4362746-39.014998-40.30626144-91.272809-40.30626144-42.9595412-.00589618-84.114852 31.32048874-87.2044484 40.30626144-3.1957276 9.3336471-21.4031201 173.6247043-21.4031201 173.6247043s-11.468063 5.707499-13.24870825 8.590729c-1.7688529 2.88323-4.99995754 15.43619-2.92450346 23.443197 2.07545407 8.007008 66.45580351 32.022134 126.98595021 32.022134 57.346211 0 123.359801-25.265116 127.080288-32.022134 2.323094-4.227558-.571929-21.125999-2.865541-23.443197" fill="#a3b5be"/><path d="m166.613414 164.361075c-3.354924 0-6.114335-2.747619-6.114335-6.120231 0-3.390302 2.759411-6.126128 6.114335-6.126128 3.384405 0 6.143816 2.735826 6.143816 6.126128 0 3.372612-2.759411 6.120231-6.143816 6.120231m0-29.339374c-3.354924 0-6.114335-2.741722-6.114335-6.143816 0-3.372612 2.759411-6.120231 6.114335-6.120231 3.384405 0 6.143816 2.747619 6.143816 6.120231 0 3.402094-2.759411 6.143816-6.143816 6.143816m3.16035-42.3522345c-5.630848 0-10.235762-4.581329-10.235762-10.2593468 0-5.648537 4.604914-10.2357622 10.235762-10.2357622 5.672122 0 10.277036 4.581329 10.277036 10.2357622 0 5.6780178-4.604914 10.2593468-10.277036 10.2593468m-44.303869-91.89190824-.607306 61.24358364c5.05892.6190985 8.997565 4.9409958 8.997565 10.1591118 0 5.3183511-4.03888 9.663833-9.198035 10.1944889l-.206366 20.9255294c5.265286.442214 9.404401 4.85845 9.404401 10.218074 0 5.436275-4.257039 9.881992-9.604871 10.212177l-.259432 26.072892c5.477548.206366 9.864303 4.705149 9.864303 10.229866 0 5.583679-4.498782 10.135527-10.064773 10.241658l-.182781 18.761634s-53.3662921 2.093142-106.7502727 25.671951-11.46806297 5.707499-13.24870823 8.590729c-1.7688529 2.88323-4.78769518 16.055288-2.92450346 23.443197.01179235.041274.02358471.070754.03537706.106132 2.44691318 7.505832 67.59966173 31.916002 126.95057233 31.916002 57.346211 0 123.359802-25.265116 127.080289-32.022134 1.438667-4.587225.247639-15.153173-1.450459-20.501005-.459902-1.397394-.931596-2.435121-1.391498-2.912711v-.005896c-.005896 0-.005896-.011792-.005896-.011792-.005896 0-.005896-.005897-.011792-.011793-2.311302-2.299509-13.761676-8.567144-13.761676-8.567144s-18.077677-168.2002224-21.385432-173.6482893c-3.313651-5.4362746-39.014998-40.30626144-91.278706-40.30626144" fill="#b5c4cb"/><path d="m160.49908 128.880833c-.000001.000983-.000001.001966-.000001.002949 0 3.402093 2.759411 6.143815 6.114335 6.143815 3.384405 0 6.143816-2.747618 6.143816-6.143815 0-.000983-.000001-.001966-.000001-.002949 0-.000982.000001-.001965.000001-.002948 0-3.366716-2.759411-6.120231-6.143816-6.120231-3.354924 0-6.114335 2.747619-6.114335 6.120231 0 .000983 0 .001966.000001.002949zm-72.8236749-46.458921c0 5.6780178-4.6108099 10.2534507-10.265243 10.2534507-5.6485369 0-10.2534506-4.5754329-10.2534506-10.2534507 0-5.6544331 4.6049137-10.2357621 10.2534506-10.2357621 5.6544331 0 10.265243 4.581329 10.265243 10.2357621zm46.1906459-10.2416583c0 5.6780178-4.604914 10.2475545-10.265243 10.2475545-5.630849 0-10.241659-4.5695367-10.241659-10.2475545 0-5.6485369 4.61081-10.2357621 10.241659-10.2357621 5.654433 0 10.265243 4.581329 10.265243 10.2357621zm0 41.3380923c0 5.654433-4.604914 10.235762-10.265243 10.235762-5.630849 0-10.241659-4.581329-10.241659-10.235762 0-5.648537 4.61081-10.253451 10.241659-10.253451 5.654433 0 10.265243 4.604914 10.265243 10.253451zm0 46.520831c0 5.654433-4.604914 10.241659-10.265243 10.241659-5.630849 0-10.241659-4.587226-10.241659-10.241659 0-5.666225 4.61081-10.247554 10.241659-10.247554 5.654433-.005896 10.265243 4.581329 10.265243 10.247554zm46.184749-77.6231612c0 5.6721217-4.604914 10.2593469-10.277036 10.2593469-5.630848 0-10.235762-4.5813291-10.235762-10.2593469 0-5.6485369 4.604914-10.2357621 10.235762-10.2357621 5.672122 0 10.277036 4.581329 10.277036 10.2357621zm-7.29357 75.8248282c0 3.372612-2.759411 6.120231-6.143816 6.120231-3.354924 0-6.114335-2.747619-6.114335-6.120231 0-3.390302 2.759411-6.126128 6.114335-6.126128 3.384405 0 6.143816 2.735826 6.143816 6.126128zm-90.2468753-29.357062c0 3.396197-2.7299297 6.143815-6.1202311 6.143815s-6.1438157-2.741722-6.1438157-6.143815c0-3.372613 2.7594105-6.120231 6.1438157-6.120231s6.1202311 2.747618 6.1202311 6.120231zm-6.1320234 35.489085c3.386623 0 6.1320234-2.7454 6.1320234-6.132023s-2.7454004-6.132024-6.1320234-6.132024-6.1320234 2.745401-6.1320234 6.132024 2.7454004 6.132023 6.1320234 6.132023z" fill="#fff"/><path d="m224.767401 239.177656s-40.093999 21.232131-97.092336 21.232131c-53.6257234 0-96.9744118-21.232131-96.9744118-21.232131s42.6411472-24.457339 96.9744118-24.457339c56.591501-.005896 97.092336 24.457339 97.092336 24.457339z" fill="#647882"/></svg>