<svg height="257" preserveAspectRatio="xMidYMid" viewBox="0 0 256 257" width="256" xmlns="http://www.w3.org/2000/svg" xmlns:xlink="http://www.w3.org/1999/xlink"><linearGradient id="a" x1="74.474524%" x2="18.025739%" y1="2.14132%" y2="100%"><stop offset="0" stop-color="#f8f8f8"/><stop offset="1" stop-color="#dddad9"/></linearGradient><filter id="b" height="200%" width="200%" x="-50%" y="-50%"><feOffset dx="1" dy="2" in="SourceAlpha" result="shadowOffsetOuter1"/><feGaussianBlur in="shadowOffsetOuter1" result="shadowBlurOuter1" stdDeviation=".5"/><feColorMatrix in="shadowBlurOuter1" result="shadowMatrixOuter1" type="matrix" values="0 0 0 0 0   0 0 0 0 0   0 0 0 0 0  0 0 0 0.35 0"/><feMerge><feMergeNode in="shadowMatrixOuter1"/><feMergeNode in="SourceGraphic"/></feMerge></filter><g filter="url(#b)"><path d="m20.0648515 154.368238-16.85536672-29.194611c-4.27931304-7.412647-4.27931304-16.544759 0-23.957406l51.52142092-89.2375179c4.2793131-7.41264731 12.1880551-11.9787031 20.7476734-11.9787031h103.0428419c8.559618 0 16.46836 4.56605579 20.747673 11.9787031l51.521421 89.2375179c4.279313 7.412647 4.279313 16.544759 0 23.957406l-51.521421 89.238511c-4.279313 7.411655-12.188055 11.97771-20.747673 11.97771h-38.089898l-11.355863 19.669164c-2.65113 4.592845-7.551554 7.421577-12.853814 7.421577h-63.8364761c-5.3022604 0-10.2016918-2.828732-12.852822-7.421577l-31.9187342-55.283803c-2.65113018-4.591853-2.65113018-10.249317 0-14.84117zm142.9049035 28.389406c3.663972-1.039857 6.845194-3.468426 8.801801-6.85734l31.918734-55.284795c2.651131-4.591853 2.651131-10.249317 0-14.84117l-31.918734-55.2838029c-2.65113-4.5928449-7.550561-7.421577-12.852822-7.421577h-63.8374682c-5.3022604 0-10.2016918 2.8287321-12.852822 7.421577l-31.9187342 55.2838029c-1.4285789 2.47435-2.0873587 5.258118-1.9763394 8.01784 1.3008703-.369288 2.6626051-.56352 4.0519997-.56352h63.8364761c5.30226 0 10.202684 2.828732 12.853814 7.420584l31.917742 55.284796c1.222599 2.117585 1.881383 4.461794 1.976351 6.823606z" fill="url(#a)"/></g></svg>