<svg height="230" preserveAspectRatio="xMidYMid" viewBox="0 0 256 230" width="256" xmlns="http://www.w3.org/2000/svg"><path d="m34.404 15.29h23.547v-15.29h-23.547c-6.522 0-12.871 1.835-18.363 5.306l8.17 12.925c3.043-1.924 6.568-2.941 10.193-2.941zm-19.114 19.114c0-2.794.587-5.482 1.744-7.991l-13.886-6.401c-2.089 4.53-3.148 9.372-3.148 14.392v27.064h15.29zm-15.29 42.507h15.29v38.532h-15.29zm205.901-58.194c4.61-2.919 9.204-5.677 13.753-8.257-2.6-2.678-5.633-4.938-8.941-6.645-4.837-2.496-10.286-3.815-15.759-3.815h-13.532v15.29h13.532c4.006 0 7.788 1.211 10.947 3.427zm-205.901 112.17h15.29v38.609h-15.29zm73.395-130.887h38.532v15.291h-38.532zm53.975 0h38.609v15.291h-38.609zm17.049 214.067h38.532v15.291h-38.532zm69.649-127.217h15.291v38.609h-15.291zm0 54.052h15.291v38.532h-15.291zm-198.778 54.052v-10.015h-15.29v10.015c0 12.523 6.814 24.067 17.783 30.129l7.395-13.384c-6.099-3.37-9.888-9.786-9.888-16.745zm198.778-133.687v10.14h15.29v-22.709c-5.026 3.742-10.128 7.936-15.29 12.569zm0 133.687c0 9.585-7.153 17.734-16.639 18.956l1.952 15.165c8.231-1.06 15.806-5.078 21.331-11.313 5.575-6.293 8.646-14.393 8.646-22.808v-.076h-15.29zm-177.753 19.113h38.609v15.291h-38.609zm54.052 0h38.609v15.291h-38.609z" fill="#383838"/><path d="m35.015 121.738 71.72 71.72s71.72-137.979 149.265-168.924l-2.912-21.844c-42.231 16.747-106.306 60.799-153.634 128.149l-49.876-29.488z" fill="#af2f2f"/></svg>