<svg height="185" preserveAspectRatio="xMidYMid" viewBox="0 0 256 185" width="256" xmlns="http://www.w3.org/2000/svg"><g fill="#dd4b39"><path d="m149.745147 26.2177201c3.138402-2.7731877 4.709351-6.4253378 4.709351-10.9713037 0-4.5477133-1.540368-8.22694882-4.64557-11.02634814-3.099959-2.81512628-7.834648-4.22006826-14.198826-4.22006826h-3.474785-36.6962453-76.8349488c-6.0435222 0-10.6550171 1.36300341-13.81002051 4.07939932-3.2065529 2.73649146-4.79410239 6.44892828-4.79410239 11.16701708 0 4.5459659 1.53250512 8.198116 4.59838908 10.9713037 3.06064164 2.766198 7.71844372 4.1510444 14.00573382 4.1510444h40.1509351v70.1955495 61.817447c0 7.51312 1.710744 13.132014 5.1514539 16.854935 3.4188669 3.716806 7.870471 5.578703 13.3224847 5.578703 5.3655153 0 9.7524642-1.841802 13.1486143-5.517542 3.3839181-3.671372 5.0614608-9.313857 5.0614608-16.916096v-7.313911-86.8346759-37.8644096h.0078635 40.1631668c6.27069 0 10.987905-1.3848464 14.135045-4.1510444"/><path d="m227.115686 16.7666894c-7.398662-6.4751399-15.63959-10.88218428-24.71929-13.23511261-9.071836-2.34593856-19.953147-3.53157679-32.645679-3.53157679h-7.770867c2.962785 4.33190444 4.53985 9.50345392 4.53985 15.2437952 0 5.9430444-1.691523 11.2718635-4.904191 15.7024983 10.804423 0 20.07372.0332014 27.790416 2.4027304 8.074921 2.4769966 14.880328 8.2531604 20.376901 17.3284915.337256.555686.665775 1.1305938.977693 1.7282184 4.84303 9.053488 7.267604 22.131331 7.267604 39.2457611 0 21.0758771-4.143181 37.0754401-12.442649 48.0100481-1.901215 2.497966-4.011249 4.734689-6.339713 6.704054-2.762703 2.439427-6.049638 4.338894-9.839836 5.678307-3.760492 1.340287-7.422253 2.184301-10.960819 2.518936-3.531577.337256-8.405188.501515-14.615591.501515h-56.322621v7.307795c0 9.226485-2.080327 16.748341-6.155358 22.449365h21.081993 3.023072 45.051631c8.496055 0 16.101788-.547822 22.88273-1.637351 6.766089-1.100888 13.079591-2.987249 18.964096-5.678307 4.511891-2.064601 8.761666-4.65256 12.740587-7.767372 1.205734-.931386 2.377393-1.916069 3.530703-2.951427 6.298649-5.78927 11.476314-12.374498 15.507659-19.731222 4.041829-7.34187 7.022089-15.600273 8.942525-24.761228 1.943154-9.160082 2.904246-19.298731 2.904246-30.390608 0-33.6111399-9.619659-58.6572014-28.865092-75.1373106"/></g></svg>