<svg height="130" preserveAspectRatio="xMidYMid" viewBox="0 0 256 130" width="256" xmlns="http://www.w3.org/2000/svg" xmlns:xlink="http://www.w3.org/1999/xlink"><linearGradient id="a" x1="-.011669%" x2="100.00728%" y1="50.012995%" y2="50.012995%"><stop offset="0" stop-color="#a34cb4"/><stop offset=".09192359" stop-color="#954db2"/><stop offset=".7169" stop-color="#3c52a1"/><stop offset="1" stop-color="#19549b"/></linearGradient><linearGradient id="b" x1="-3.884422%" x2="83.236655%" y1="172.00528%" y2="-50.934455%"><stop offset="0" stop-color="#ff0264"/><stop offset=".4943" stop-color="#fe744a"/><stop offset=".819" stop-color="#fdbc39"/><stop offset="1" stop-color="#fddf31"/></linearGradient><path d="m128 0c-46.4 0-87 12.5-109.5 31.3.1.5-.4 1.5-.2 2 2.6 12.4 13.7 23.7 30.5 32.1.4.2 1.5-.4 2-.2 1.9-1.3 25.6-16.9 77.2-16.9 51.3 0 75.2 15.4 77.3 16.9.4-.2 1.4.2 1.8.1 17.1-8.5 28.4-19.8 30.8-32.2.1-.4-.5-1.2-.4-1.6-22.5-19-63.1-31.5-109.5-31.5" fill="url(#a)"/><path d="m237.5 31.3c-4.3 27.6-51.7 49.3-109.5 49.3s-105.2-21.7-109.5-49.3c-11.7 9.8-18.5 21.3-18.5 33.6 0 35.8 57.3 64.9 128 64.9s128-29.1 128-64.9c0-12.3-6.8-23.8-18.5-33.6" fill="url(#b)"/></svg>