<svg height="256" preserveAspectRatio="xMidYMid" viewBox="0 0 256 256" width="256" xmlns="http://www.w3.org/2000/svg"><path d="m128 256c70.692419 0 128-57.307733 128-128 0-70.6922667-57.307581-128-128-128s-128 57.3077333-128 128c0 70.692267 57.307581 128 128 128" fill="#f04c3c"/><g fill="#fff"><path d="m76.5892571 136.990019c-3.3726476 0-6.1549714-1.123809-8.3471238-3.372648-2.1921523-2.247466-3.2882285-5.114209-3.2882285-8.600076 0-3.315809 1.2080762-6.182552 3.6254476-8.600076 2.4161524-2.416152 5.2828952-3.625448 8.6000762-3.625448 3.6531809 0 6.5621333 1.321296 8.7265524 3.962819 2.1632 2.642743 3.2461714 6.183924 3.2461714 10.623543v38.953296h31.5335616v-41.229715c0-13.770971-3.920609-24.633143-11.761828-32.5875807-7.841219-7.953219-18.5636574-11.9305143-32.1659431-11.9305143-12.1979429 0-22.5542096 4.2447239-31.0700191 12.7314286-8.5156571 8.4880764-12.7736381 18.8312384-12.7736381 31.0278094 0 12.535162 4.2157714 22.962591 12.6471619 31.28061 8.4315429 8.319543 18.9708191 12.478628 31.617981 12.478628 2.135619 0 4.4963047-.225219 7.0825143-.67459v-32.629638c-2.3608381 1.462247-4.9193143 2.192152-7.6726858 2.192152"/><path d="m178.989257 136.863543c-3.3728 0-6.155124-1.12381-8.347124-3.372648-2.192152-2.247466-3.288228-5.114209-3.288228-8.600076 0-3.315809 1.208076-6.182552 3.625447-8.600076 2.416-2.416153 5.282896-3.625448 8.600077-3.625448 3.653333 0 6.562133 1.321295 8.726704 3.962819 2.163048 2.642743 3.246172 6.183924 3.246172 10.623543v38.953295h31.533409v-41.229714c0-13.770971-3.920609-24.633143-11.761981-32.5875809-7.841219-7.953219-18.563657-11.9305142-32.16579-11.9305142-12.197943 0-22.55421 4.2447238-31.070019 12.7314285-8.51581 8.4880766-12.773638 18.8312386-12.773638 31.0278096 0 12.535162 4.215771 22.96259 12.647162 31.280609 8.43139 8.319543 18.970666 12.478629 31.617828 12.478629 2.135772 0 4.496305-.225219 7.082514-.67459v-32.629639c-2.360685 1.462248-4.919161 2.192153-7.672533 2.192153"/></g></svg>