<svg height="256" preserveAspectRatio="xMidYMid" viewBox="0 0 256 256" width="256" xmlns="http://www.w3.org/2000/svg"><path d="m128 0c-70.6049822 0-128 57.3714286-128 128 0 70.628571 57.3950178 128 128 128 70.83274 0 128-57.371429 128-128 0-70.6285714-57.16726-128-128-128zm83.928826 157.380783c-8.882563 0-16.170819-7.288256-16.170819-16.170819 0-2.960854.911032-5.921708 2.505338-8.427046l-5.466192-5.466192c-2.505338 1.822064-5.69395 2.733096-9.11032 2.733096-2.960854 0-5.466192-.911032-7.971531-2.049822l-6.149466 6.149466c1.594306 2.505338 2.505338 5.238434 2.505338 8.427046 0 2.960855-.911032 5.693951-2.27758 8.199289l5.238434 5.238434c2.505339-1.594306 5.238435-2.27758 8.427047-2.27758 8.882562 0 16.170818 7.288256 16.170818 16.170818 0 8.882563-7.288256 16.170819-16.170818 16.170819-8.882563 0-16.170819-7.288256-16.170819-16.170819 0-2.960854.911032-5.69395 2.27758-7.97153l-5.69395-5.466192c-2.505338 1.366548-5.238434 2.27758-8.199288 2.27758-3.188612 0-5.921708-.911032-8.427046-2.505338l-32.341637 32.569395c1.13879 2.27758 2.049822 4.782918 2.049822 7.516014 0 8.882562-7.288257 16.170819-16.170819 16.170819-8.8825621 0-16.1708184-7.288257-16.1708184-16.170819s7.2882563-16.170818 16.1708184-16.170818c3.188612 0 6.377224.911032 8.882562 2.733096l32.341637-32.113879c-1.366548-2.27758-2.27758-5.010676-2.27758-7.971531 0-8.882562 7.288257-16.170818 16.170819-16.170818 2.960854 0 5.69395.911032 7.97153 2.27758l6.149466-6.149466c-1.594306-2.505338-2.505338-5.466192-2.505338-8.427046 0-3.416371 1.13879-6.377225 2.733096-9.110321l-32.569395-32.3416367c-2.505338 1.594306-5.466192 2.5053381-8.427046 2.5053381-3.188612 0-5.921708-.9110321-8.427046-2.5053381l-3.871886 3.8718861-25.7366551 25.5088966-3.1886121 3.188612c1.594306 2.505338 2.733096 5.466192 2.733096 8.882563 0 3.188612-.911032 5.921708-2.505338 8.427046l6.1494662 6.149466c2.505338-1.822064 5.69395-2.733096 9.11032-2.733096 8.882563 0 16.170819 7.288256 16.170819 16.170818 0 8.882563-7.288256 16.170819-16.170819 16.170819-8.882562 0-16.1708183-7.288256-16.1708183-16.170819 0-2.733096.6832741-5.010676 1.8220641-7.288256l-6.6049822-6.604982c-2.2775801 1.366548-5.0106762 2.27758-7.9715303 2.27758-3.1886121 0-6.3772242-.911032-8.8825622-2.733096l-7.2882563 7.288256c1.1387901 2.049822 1.8220641 4.55516 1.8220641 7.060498 0 8.882563-7.2882562 16.170819-16.1708185 16.170819s-16.1708185-7.288256-16.1708185-16.170819c0-8.882562 7.2882562-16.170818 16.1708185-16.170818 3.4163701 0 6.6049822 1.13879 9.3380783 2.960854l7.0604982-7.060498c-1.13879-2.27758-2.0498221-4.782918-2.0498221-7.516014 0-8.882563 7.2882563-16.1708189 16.1708185-16.1708189 2.7330961 0 5.2384342.683274 7.5160143 2.0498219l3.4163701-3.41637 25.5088963-25.2811388 4.099645-4.0996441c-1.366548-2.2775801-2.049822-5.0106761-2.049822-7.9715302 0-8.8825623 7.288256-16.1708185 16.170818-16.1708185s16.170819 7.2882562 16.170819 16.1708185c0 2.9608541-.911032 5.4661921-2.049823 7.7437722l33.024912 32.7971529c2.27758-1.1387899 4.782918-1.8220639 7.288256-1.8220639 8.882562 0 16.170818 7.2882559 16.170818 16.1708189 0 2.733096-.683274 5.010676-1.822064 7.288256l5.921708 5.921708c2.27758-1.366548 5.010677-2.27758 7.971531-2.27758 8.882562 0 16.170818 7.288256 16.170818 16.170818-.227758 8.427047-7.288256 15.715303-16.170818 15.715303zm-108.185054-8.654804c3.644128 0 6.83274-2.960854 6.83274-6.832741 0-3.644128-2.960854-6.83274-6.83274-6.83274-.683274 0-1.366548.227758-2.049822.455516-2.7330959.911032-4.55516 3.41637-4.55516 6.377224v.227758c-.227758 3.644129 2.7330961 6.604983 6.604982 6.604983zm25.508897-96.1138794c-3.644128 0-6.83274 2.9608541-6.83274 6.8327403v.683274c.227758 2.9608541 2.505338 5.4661921 5.238434 5.9217082.455516 0 .911032.227758 1.366548.227758s.911032 0 1.366548-.227758c2.960854-.6832741 5.010676-2.9608541 5.238434-6.1494662v-.455516c.455516-3.8718862-2.733096-6.8327403-6.377224-6.8327403zm-54.4341637 54.8896794c-3.8718861 0-6.8327402 2.960854-6.8327402 6.832741v.227758c0 2.960854 2.0498221 5.466192 5.0106762 6.377224.683274.227758 1.13879.227758 1.822064.227758h.6832741c2.9608541-.227758 5.2384341-2.505338 5.9217081-5.238434 0-.455516.2277581-.911032.2277581-1.366548 0-.683274 0-1.13879-.2277581-1.822064-1.13879-3.188613-3.6441281-5.238435-6.6049822-5.238435zm-28.4697509 28.241993c-.683274-.227758-1.594306-.455516-2.27758-.455516-3.6441281 0-6.8327402 2.960854-6.8327402 6.83274 0 3.644129 2.9608541 6.832741 6.8327402 6.832741 3.4163701 0 6.3772242-2.733096 6.6049822-6.149467v-.683274c.227758-2.960854-1.8220641-5.466192-4.3274022-6.377224zm56.0284696 54.206406c-.683274-.227758-1.13879-.227758-1.822064-.227758-3.644128 0-6.8327401 2.960854-6.8327401 6.83274 0 3.644128 2.9608541 6.83274 6.8327401 6.83274 3.644128 0 6.83274-2.960854 6.83274-6.83274 0-3.41637-2.27758-5.921708-5.010676-6.604982zm109.551602-55.345196h-.683274c-2.960854.227758-5.238435 2.505338-5.921709 5.466192 0 .455516-.227758.911032-.227758 1.13879 0 3.644129 2.960855 6.832741 6.832741 6.832741 3.644128 0 6.83274-2.960854 6.83274-6.832741 0-3.871886-3.188612-6.604982-6.83274-6.604982zm-28.014235-27.103203h-.227758c-2.960854 0-5.466192 2.049822-6.377224 4.782919-.227758.683274-.455516 1.366548-.455516 2.049822 0 .455516 0 .911032.227758 1.366548.683274 2.960854 2.960854 5.010676 6.149466 5.238434h.455516c.683274 0 1.366548-.227758 2.049822-.455516 2.733096-.911032 4.782918-3.41637 4.782918-6.377224v-.227758c-.227758-3.416371-3.188612-6.377225-6.604982-6.377225zm-27.558719 28.469751h-.683274c-3.644128 0-6.83274 2.960854-6.83274 6.83274v.683274c.227758 2.960855 2.505338 5.238435 5.466192 5.921709.455516 0 .911032.227758 1.366548.227758h.911032c2.960854-.455516 5.238434-2.733096 5.69395-5.693951v-.911032c0-.455516 0-.911032-.227758-1.366548-.227758-2.960854-2.733096-5.238434-5.69395-5.69395zm26.875445 40.540926c3.644128 0 6.83274-2.960855 6.83274-6.832741 0-3.644128-2.960854-6.83274-6.83274-6.83274-.455516 0-.911032 0-1.13879.227758-2.960854.455516-5.010676 2.960854-5.466192 5.921708v.683274c-.227758 3.871886 2.733096 6.832741 6.604982 6.832741z" fill="#40aa94"/></svg>