<svg height="253" preserveAspectRatio="xMidYMid" viewBox="0 0 256 253" width="256" xmlns="http://www.w3.org/2000/svg"><g fill="#403e42"><path d="m168.485346 152.202541c.308405 8.564656 4.889499 8.500405 10.337983 8.301227 7.337462-.134927 11.365998-2.383712 15.047579-.610384-.057826-.205604-1.207918-3.643031-6.290171-3.045497.591109-1.272169.841688-2.994096.661785-5.358532-.66821-8.55823-5.647661-15.355984-11.108994-15.163231-5.448483.186328-8.950162 7.292486-8.648182 15.876417zm8.134174-10.440784c1.535598-.032126 2.814193 1.195068 2.833468 2.737092.032126 1.535598-1.201493 2.814193-2.730666 2.839893-1.542024.0257-2.814193-1.207918-2.839894-2.749942-.032125-1.535598 1.201494-2.801343 2.737092-2.827043z"/><path d="m93.6843545 162.045791c.5654086.012851 1.1565177 0 1.7604769-.01285.526858 0 1.0537161-.01285 1.6062745-.032125 5.4677581-.051401 9.9974521.462607 9.9267761-8.108474-.089951-8.571081-3.893609-15.510187-9.3613675-15.452361-5.4549082.051401-10.7363388 7.080458-10.421509 15.645114.0963765 2.235934.4240565 3.842209.9509145 5.005151-4.7545725 1.201494-6.0717176 4.137763-6.1488188 4.324091 2.9940957-1.612699 6.3801223-1.381396 11.6872533-1.368546zm4.6967467-18.215153c1.5420235-.0514 2.8206178 1.169368 2.8720188 2.711392.038551 1.535598-1.182218 2.820618-2.7178165 2.859168-1.5420235.051401-2.8270431-1.175793-2.8655937-2.711391-.0449757-1.535598 1.1693678-2.827043 2.7113914-2.859169z"/><path d="m111.212022 52.4978698h15.330284v-6.3222965h3.450278v29.2084957h-5.210755v16.3390243h26.837635v-16.3390243h-5.21718v-29.2084957h3.456703v6.3222965h15.343134v-21.6461553h-53.990099z"/><path d="m255.005716 94.2353067c-.096376-1.8568534-.276279-3.7072816-.526858-5.5320094-.128502-.9252142-.263429-1.8504283-.456182-2.7563671-.179903-.9380643-.359805-1.8054526-.661785-2.8270431l-.192753-.719611-.507583-.4047812c-2.923419-2.2873349-6.065292-4.0221114-9.258566-5.5512847-2.640715-1.246469-5.319981-2.3323106-8.024947-3.3282008-7.562341-20.97152-20.541039-39.5657537-37.625375-52.5123263-17.649744-13.38990428-38.409236-20.47678741-60.023265-20.47678741-21.62688 0-42.3799471 7.08688313-60.0361165 20.47678741-13.4477302 10.1902055-24.3382714 23.8885145-32.0548141 39.4822275h-.0385506c-2.0881569 4.2212894-3.9642855 8.5646557-5.57056 13.0300988-2.7113914.9958902-5.3906573 2.0817318-8.0313726 3.3282008-3.1996988 1.5291733-6.3351466 3.2639498-9.2585662 5.5512847l-.5140079.4047812-.1927529.719611c-.2955545 1.0215905-.4883075 1.8889788-.6682102 2.8270431-.1799028.9059388-.32768 1.8311529-.4497569 2.7563671-.1863278 1.3171451-.3084047 2.6535654-.4176314 3.9899858h.0449757c-.0449757.5140079-.0835262 1.0280157-.1092266 1.5484487-.1863279 3.7072815-.0835263 7.4145632.3212549 11.1025692.3919309 3.681581 1.0729913 7.324612 2.0560313 10.941942.5140079 1.799028 1.0986918 3.56593 1.7926024 5.332832.3405302.880238.7131859 1.754051 1.1308172 2.63429.2056032.436906.4304816.867388.65536 1.31072l.3662306.648935c.1413522.244153.2377287.417631.4497569.732461l.3662306.578259.591109.301979c.6232345.321255 1.1436675.558984 1.7090761.828838l1.6448251.745311c.3019796.122077.5975341.250579.9123639.379081-7.4980894 6.926256-15.6451137 15.927818-22.69344627 27.056088l-8.89876078 14.025989 12.49681565-10.967642c.2184534-.186328 10.6913632-9.252142 28.1676298-19.538724l.2441538 2.011056.6360847 5.069402 3.1996988 26.002372c.0706761.494733.32768.938065.7388863 1.220769l6.5600251 4.606795c.1156517.366231.2248784.732461.3341051 1.111542.1542023.520433.2955545 1.034441.4561819 1.554874l1.4970479 4.516844c3.2832251 10.209481 7.934996 19.416646 13.5955074 27.505844-.2698541.083527-.5461333.160628-.8159874.237729-3.4117271-1.580574-15.330284-7.106158-19.33312-8.911611l-8.3719028-3.758682 4.9537506 7.729393c.3598055.558983 8.9051859 13.884637 15.8764173 22.866924 6.5343247 8.384753 15.471636 16.942983 32.3310933 16.942983 2.0239059 0 4.1570384-.128502 6.3415718-.359805 5.030852-.584684 8.808809-1.034441 11.680828-1.407097 17.69472 6.51505 37.214168 6.900555 55.737726-.109227 5.075827-1.927529 9.695473-4.25984 13.929612-6.88128.089952-.01285.173478-.03855.250579-.057825 6.887705-1.657676 14.707049-3.527379 18.568533-4.606796.61681-.167052 1.394247-.35338 2.197384-.546133 5.377807-1.227194 14.366519-3.321776 19.153217-12.908022 4.825249-9.676198 12.702419-24.492474 12.77952-24.640251l3.688006-6.89413-7.163984 3.116172c-.391931.167053-9.477019 4.131338-14.199467 6.605001-.160627.096377-.36623.179903-.552558.269854 3.842209-7.832194 5.756888-14.070964 6.444373-16.467526l2.589315-10.684938 7.459539-16.68598s2.094582-18.240853 2.139557-18.228003l.732462-6.977656c.65536-.276279 4.63892-.552559 5.416357-.860963 1.111542-.436907 2.223084-.867389 3.334626-1.349271l1.6384-.745311c.578259-.269854 1.092267-.507583 1.715501-.828838l.591109-.30198.372656-.578258c.205603-.31483.321255-.494733.443332-.732462l.359805-.648934c.250579-.443332.462607-.873814.661785-1.31072.417632-.873814.783862-1.747627 1.143668-2.634291.687485-1.766902 1.259319-3.533804 1.779752-5.332831.976615-3.61733 1.683376-7.260361 2.056031-10.941942.411207-3.675156.501158-7.3888628.31483-11.0961443zm-170.2265474 45.0206623c.1606275-.109227 6.8620047-4.503994 17.8039464-9.856101 10.909817-.828837 22.944025-1.355695 35.839197-1.355695 3.135448 0 6.21307.044975 9.252141.096376-2.120282 1.709076-4.356216 3.321776-6.682102 4.716022l-7.729393 4.677471c-4.876649.591109-9.104363 1.805453-9.335667 1.869704-.147777.03855-.282704.102801-.404781.173478-.379081.218453-.66821.578258-.796712 1.002315l-7.902871 26.028072-42.1807686 9.374218-13.2935278-9.309967-3.867909-31.309503c7.5430651-1.394246 17.6433192-2.994095 29.7610541-4.349791-1.2978698 1.542023-2.5636141 3.173998-3.7522573 4.895925l-7.2153851 10.357258zm56.9263684 108.931112c-6.958381.462607-14.025989-.353381-20.945819-2.248785.578258-.115651.99589-.179902 1.509898-.237728.565408-.077101 12.985123-1.709076 18.568533-10.010303l.526858.01285 1.387821-.01285c.918789 0 1.754052-.077101 2.647141-.115652 2.120282-.173477 4.169888-.481882 6.206644-.893088.218454.212028.424057.424056.648935.65536 4.195589 4.157038 9.406344 6.54075 15.131106 6.958381-9.631222 3.912885-18.697035 5.429208-25.681117 5.891815zm.62966-15.227483c1.047291-2.33231 1.837578-4.150613 2.435112-5.519159 1.233619 1.374971 2.794918 3.077622 4.548969 4.895925-1.368545.205603-2.717816.379081-4.047811.488307-.873814.038551-1.786178.134927-2.62144.134927zm-20.695241-53.726669 3.771533-.848113c.623234-.134927 1.111542-.60396 1.297869-1.207919l7.877171-25.91242c1.36212-.179903 2.557189-.276279 3.591629-.276279 1.002316 0 2.216659.096376 3.572355.276279l8.108474 26.683432c.205603.68106.790287 1.175793 1.484197 1.252894l3.006946.34053.771012.083527 51.79914 5.891815c.430482.0514.854538-.070677 1.207919-.31483l5.204329-3.636606 4.812399-3.366751 1.779752-1.252894c-.28913 1.240044-.610385 2.473662-.94449 3.688006-.494732 1.593424-1.02159 3.135448-1.548448 4.664621-2.126708 6.052443-4.510419 11.545901-7.106159 16.506077-.70676.044976-1.471347.077101-2.274484.077101-2.518639 0-5.075828-.205603-7.909296-.469032-4.921625-.456182-12.715269-1.349271-15.169657-1.62555-2.139557-1.702651-9.406343-7.465964-15.43951-12.226961-.231304-.179903-.436907-.372656-.648935-.539709-1.060141-.899513-2.26806-1.914679-4.716022-1.914679-2.235934 0-5.487034.809563-13.344929 3.180424 4.092788-3.058347 4.124913-6.996932 4.124913-6.996932s-5.821139 5.422783-15.214632 6.617851c-9.367793 1.207918-16.73738-4.555395-16.73738-4.555395.308404 1.002316.745311 3.270375 2.872019 5.19148-2.499364-.28913-5.197905-.494733-8.031373-.494733-1.015165 0-2.056031.025701-3.051922.077101-5.769738.308405-13.891061 9.020838-19.5901235 17.816797-2.8013427.886664-11.5587513 3.668731-21.6847058 6.643552-5.9817663-8.275527-10.0360032-16.67313-12.3297632-22.076637-1.3364204-3.148298-2.0817317-5.287856-2.2487843-5.795439v-.01285c-.1863278-.514008-.3855059-1.060141-.5589835-1.606274l2.428687 1.696225v.012851l6.0074667 4.214864 2.0046306 1.394246c.3019796.212028.6682102.321255 1.0151655.321255.128502 0 .2570039-.01285.391931-.03855zm31.958438-38.65339c-.179903-.578259-.62966-1.008741-1.207919-1.182218-.263429-.083526-5.474183-1.567724-11.006193-2.036756l1.015166-.077101c.873813-.064251 15.40096-1.837579 32.75515-7.82577 19.217468 1.471348 34.907557 3.829359 45.637471 5.782588l-3.797233 26.638457-13.402754 9.374218-42.129368-4.786698zm92.489286-35.884173c-.469032 3.431003-2.023906 10.113105-2.023906 10.113105l-1.214343.199178c-.636085-.173478-6.560026-1.709076-16.763081-3.598055.32768-.070676.64251-.141352.950914-.212029 2.113858-.526858 4.195589-1.175792 6.219495-1.99178 1.002316-.430481 2.004631-.886663 2.94912-1.426372.938065-.546133 1.856854-1.150092 2.576465-1.96608-10.215906 3.341051-31.328779 1.824728-50.09649-.115651-17.148587-1.773327-34.361424-2.916995-51.657788-2.955546-17.289939.038551-34.483501 1.188644-51.6513633 2.955546-18.7677113 1.940379-39.8741584 3.456702-50.0900643.115651.719611.809563 1.6448251 1.419947 2.5893145 1.96608.9380644.539709 1.9339546.989465 2.9362698 1.426372 2.0174808.809562 4.1120628 1.464922 6.22592 1.99178.7453114.173478 1.503473.340531 2.2616346.475458-9.3099671 1.766902-14.7006244 3.167573-15.3045836 3.334626 0 0-2.1459827.346955-2.6150149-1.29787-.9316392-3.28965-1.5548737-5.589835-2.0239059-9.014413-.4433317-3.411727-.6682102-6.8620044-.6425098-10.305857.0064251-.5654086-.0064251-1.6962259-.0064251-1.6962259.0321255-1.1565176.0835263-2.3130353.192753-3.4695529.064251-.854538 3.2061239-3.5916298 5.9046651-5.1465035 2.9169945-1.6962259 5.9817663-3.2253992 9.1043639-4.6453459 3.0904722-1.4649224 13.1072-3.5916298 19.1467922-4.6838965 6.0395921-1.1051168 27.6407717-3.9707106 29.2598964-4.5746698 1.6126996-.6168094 10.9483674-7.8129192 12.5803424-8.4104533-3.431003.5654086-50.8353761 7.8064941-52.9685086 8.4811294 15.3881098-40.240389 45.5924956-59.8369381 85.7943336-59.8369381 40.188989 0 70.3998 18.5042824 85.80076 58.7510965-20.329011-5.4035074-48.48379-7.9221459-51.914792-8.4939796 1.631974.5975341 10.86484 7.0933082 12.580341 7.3117616 14.058115 1.8247278 36.224703 6.7399278 37.830978 7.3760125 3.186848 1.2914447 6.380122 2.62144 9.477019 4.0799373 3.129023 1.4199467 6.18737 2.94912 9.104364 4.6453459 2.698541 1.5612988 5.833989 4.2919655 5.91109 5.1465035.147778 1.7219263.212029 3.4374274.231304 5.1593537.0257 3.4438526-.212028 6.9005551-.65536 10.3122821z"/></g></svg>