<svg height="254" preserveAspectRatio="xMidYMid" viewBox="0 0 256 254" width="256" xmlns="http://www.w3.org/2000/svg"><path d="m254.646069 89.4168276c-.119172-.9302069-.262621-1.8593104-.454621-2.7707586-.178758-.9412414-.364138-1.8162759-.660965-2.8358621l-.710621-1.1277241c-2.928552-2.2995862-6.088828-4.0386207-9.296552-5.5746207-2.648276-1.2502069-5.338482-2.3393104-8.059586-3.3434483-7.586207-21.0515862-20.624552-39.7175172-37.768827-52.7238621-17.720276-13.44220687-38.562207-20.5583448-60.268138-20.5583448-21.707035 0-42.5489659 7.11613793-60.2703452 20.5594483-17.1431724 13.0052414-30.1837241 31.6722758-37.7677241 52.7282758-2.7144828.9997242-5.4091035 2.0932414-8.054069 3.3379311-3.2132414 1.536-6.3713104 3.273931-9.3009655 5.5746207l-.7128276 1.1277241c-.2835862 1.0195862-.4689655 1.8946207-.6609655 2.8358621-.1842759.9114482-.3222069 1.8405517-.4535173 2.7707586-.2626207 1.8361379-.4369655 3.6932414-.5340689 5.5514483-.1864828 3.7208275-.0816552 7.4482761.3266207 11.1481381.393931 3.694345 1.0824827 7.355586 2.0645517 10.985931.5153103 1.801931 1.1001379 3.585103 1.7942069 5.353931.3442758.886069.7205517 1.765517 1.1376551 2.644965.2052414.436966.4303449.864.6598621 1.310897.5086897.891586.6013793 1.065931.8154483 1.382621l.9622069.886069c.6267586.322206 1.1464827.567172 1.7136552.836413l1.6562758.742621c.3067586.125793.5947586.250483.908138.376276-7.5244138 6.957241-15.6965518 15.994483-22.77406901 27.16469l-8.93682759 14.099862 12.5473103-11.012414c.2129656-.186483 10.7332414-9.294345 28.2791725-19.61269l.2460689 2.017104c-1.1475862.596965-6.6648276 3.492413-8.3045517 4.864-2.7177931 2.257655-2.8491034 5.76-2.121931 12.295724.3729655 3.348965 1.6286896 9.851586 3.3224827 15.813517 2.9186207 10.258759 5.0571035 12.072828 6.9351724 12.497655.8474483.203035 1.9409656.296828 3.1702069.296828 3.3611035 0 7.6656552-.654345 10.4750345-1.502897 3.2948966 10.246621 7.9624828 19.496828 13.6518621 27.614897-.2747586.073931-.5462069.162207-.8209655.240552-3.4217931-1.586759-15.3875862-7.130483-19.4107587-8.937932l-8.403862-3.783724 4.9710345 7.761656c.361931.560551 8.9423448 13.939862 15.9481379 22.958344 6.5522759 8.40938 15.5244138 17.018483 32.4546207 17.018483 2.0380689 0 4.169931-.13131 6.3668965-.374069 5.048276-.57931 8.841931-1.035034 11.726345-1.40469 17.772138 6.530207 37.368276 6.931863 55.965793-.114758 5.089103-1.933242 9.726897-4.278069 13.985103-6.907586 7.170207-1.72138 15.012414-3.590621 18.886621-4.678621.621241-.167724 1.399173-.353103 2.208-.544 5.398069-1.241379 14.419862-3.334621 19.230897-12.957793 4.847448-9.709242 12.752551-24.585931 12.83531-24.738207l3.696552-6.94069-7.202207 3.131587c-.385104.175448-9.511724 4.148965-14.252138 6.633931 3.293793-7.584 5.234759-13.861518 5.911172-16.272552 2.654897.638896 6.590897.557241 9.485242.557241 1.423448 0 2.887724-.247172 3.837793-.489931 1.881379-.477793 3.33462-1.728 6.066758-12.313379 1.591173-6.152828 2.732138-12.852966 3.044414-16.296828.605793-6.702345.40938-10.294069-2.326069-12.561655-1.362758-1.125517-5.362758-3.279448-7.396414-4.339862 1.137656-.486621 1.696-.344276 1.739035-.332138l1.847172-7.002483c.649931-.278069 1.33738-.557241 2.119724-.857379 1.114483-.443586 2.230069-.884965 3.345656-1.366069l1.647448-.742621c.573793-.269241 1.089103-.513103 1.718069-.836413l.962207-.886069c.207448-.31669.318896-.491035.446896-.73269.609104-1.096828.824276-1.523862 1.027311-1.960828.417103-.879448.787862-1.76 1.137655-2.644965.694069-1.768828 1.277793-3.552 1.792-5.353931.978758-3.630345 1.677241-7.290483 2.066758-10.985931.414897-3.699862.507587-7.4273106.322207-11.1481381-.088275-1.8582069-.271448-3.7153104-.535172-5.5514483z" fill="#0e0f0d"/><g transform="translate(22 5)"><path d="m127.065931 228.629793c-1.359448.204138-2.72.370759-4.064.477793-.875034.043035-1.793103.130207-2.629517.130207l-.312276.007724c1.049379-2.340414 1.848276-4.16 2.448552-5.537103 1.230344 1.377103 2.793931 3.080827 4.557241 4.921379" fill="#e1c5a2"/><path d="m125.416276 124.004138c-2.126345 1.725793-4.366345 3.332414-6.699035 4.742621l-7.781517 4.694069c-4.880552.595862-9.115586 1.801931-9.357241 1.875862-.142345.030896-.276966.097103-.402759.173241-.378483.218483-.666483.584828-.804414 1.018483l-7.9249652 26.108689-42.3569655 9.420138-13.3451034-9.344-3.8808276-31.439448c7.5795862-1.392552 17.7114483-2.999172 29.8802758-4.365241-1.3009655 1.558069-2.5666207 3.195586-3.7704827 4.918069l-7.244138 10.398896 10.5511725-7.032276c.1588965-.110344 6.8733793-4.530758 17.8637241-9.907862 10.9528276-.819862 23.044414-1.349517 35.979034-1.349517 3.160276 0 6.254345.037517 9.293242.088276zm-65.9310346 35.419586c3.0113103-1.626483 6.409931-1.388138 11.7340689-1.376.5671725.011035 1.1575173.004414 1.7688276-.012138.5263449 0 1.0504828-.008827 1.6077242-.025379 5.4863448-.055173 10.0435862.463448 9.9608276-8.142345-.0816552-8.606896-3.9073104-15.567448-9.3892414-15.513379-5.4808276.048551-10.7862069 7.102896-10.4584828 15.705379.0871724 2.24.4193104 3.858759.9456552 5.021793-4.7768276 1.201655-6.0987586 4.15669-6.1693793 4.342069z" fill="#a89983"/><path d="m198.830897 131.150069-3.814621 26.733241-13.453242 9.421242-42.301793-4.807724-7.892965-25.990621c-.179862-.57931-.627862-1.022897-1.208276-1.190621-.260414-.078345-5.497379-1.575724-11.048828-2.055724l1.016276-.06731c.875035-.065104 15.462621-1.851586 32.887173-7.855449 19.290482 1.479725 35.048827 3.846621 45.816276 5.812966zm-27.027863 24.744828c-.055172-.207449-1.216-3.665656-6.308413-3.058759.584827-1.28.848551-3.006897.663172-5.377104-.672-8.590344-5.673931-15.417379-11.150345-15.224275-5.481931.189793-8.987586 7.311448-8.684138 15.929379.301242 8.599172 4.896 8.539586 10.377931 8.344276 7.362207-.140138 11.404138-2.401104 15.101793-.613517z" fill="#a89983"/><path d="m157.330207 140.430069c.026483 1.547034-1.200552 2.81931-2.74869 2.85131-1.544827.027587-2.825931-1.207172-2.846896-2.749793-.032-1.545931 1.198345-2.823724 2.744276-2.85131 1.551448-.033104 2.829241 1.202758 2.85131 2.749793" fill="#fff"/><path d="m78.8132414 142.490207c.0386207 1.540414-1.1806897 2.829241-2.7222069 2.868965-1.5525517.044138-2.8413793-1.172965-2.8844138-2.72662-.0386207-1.541518 1.1784827-2.836966 2.7321379-2.870069 1.5393104-.043035 2.8314483 1.175172 2.8744828 2.727724" fill="#fff"/><path d="m217.294897 142.910621c-.660966-.546207-2.870069-1.808552-5.022897-2.97269l-3.545379 24.849655c-.071724.47338-.340966.916966-.743724 1.200552l-5.072552 3.547586c-.120276.600276-.214069 1.101242-.304552 1.570207 4.984276 1.227035 9.825104-2.366897 12.542897-4.96 1.256827-4.896 2.352551-10.707862 2.731034-14.867862.578207-6.448552.066207-7.832276-.584827-8.367448" fill="#e1c5a2"/><path d="m138.952276 237.317241c-3.291586-1.170758-6.308414-3.079724-8.934621-5.676138-.218483-.222896-.427034-.438069-.646621-.656551-2.032551.416-4.108137.715034-6.223448.894896-.891586.039724-1.742345.115862-2.672552.115862l-1.376.012138-.529655-.012138c-3.145931 4.672-8.434758 7.239724-12.578207 8.606897 12.310069 2.112 25.854897-1.12 32.961104-3.284966" fill="#e1c5a2"/><path d="m30.5848276 176.458759c-.1103448-.375173-.2262069-.745931-.3332414-1.122207l-6.5897931-4.612414c-.4137931-.293517-.6764138-.736-.7426207-1.239172l-3.2132414-26.094345c-2.377931 1.268965-5.1266207 2.835862-5.8582069 3.448276-.6355862.525241-1.1211034 1.86262-.4336551 8.080551.521931 4.674207 2.163862 11.855449 3.8411034 17.236966 3.3368276 2.552276 8.2515862 5.242483 13.3296552 4.302345" fill="#e1c5a2"/><path d="m129.101793 175.268138c-.70069-.078345-1.291034-.570483-1.497379-1.253517l-8.132414-26.798345c-1.363862-.178759-2.574345-.278069-3.596138-.278069-1.026207 0-2.228965.09931-3.591724.278069l-7.905104 26.028138c-.186482.605793-.688551 1.074758-1.313103 1.211586l-3.7793103.841931c-.32 1.335172-1.4091035 3.293793-4.9136552 4.368552-5.6562758 1.724689-41.4609655 12.397241-45.5437241 11.816827-2.3845517-.334344-6.9197242-2.836965-10.2753104-4.860689-1.3428965-3.16138-2.0855172-5.310897-2.2554482-5.82069v-.009931l-.0099311.009931c.4744828 1.388138 5.1464828 14.836966 14.6394483 27.992276 10.1771034-2.999173 18.9671724-5.79531 21.7776552-6.68469 5.7246896-8.827586 13.8802758-17.586758 19.6722758-17.885793 1.0052414-.049655 2.0391724-.080552 3.0642759-.080552 2.838069 0 5.5470341.201931 8.0617931.499862-2.136276-1.938758-2.574345-4.206344-2.884414-5.212689 0 0 7.397517 5.785379 16.806621 4.568276 9.423448-1.206069 15.269517-6.632828 15.269517-6.632828l.185379-1.668414z" fill="#e1c5a2"/><path d="m136.749793 178.660138c-1.952-.505379-3.181241-1.310897-3.959172-2.150621l-.097104.856276s-.032 3.954759-4.130207 7.019035c7.891862-2.390069 11.154759-3.198897 13.389242-3.198897 2.459586 0 3.676689 1.026207 4.743724 1.927724.201931.168828.403862.345379.645517.534069 6.070069 4.776828 13.366069 10.575448 15.496828 12.280276 2.47062.28469 10.311724 1.181793 15.246345 1.632 2.841379.264828 5.41462.478897 7.934896.478897.807724 0 1.572414-.027587 2.295172-.077242 2.601932-4.983172 4.997518-10.496 7.12938-16.573793-2.917517 2.046897-9.566897 6.526897-12.681931 7.104-4.052966.759172-40.297931-8.349793-46.01269-9.831724" fill="#e1c5a2"/><path d="m227.954207 84.9409655c-.068414-.8584827-.162207-1.7158621-.267035-2.5633103-.07062-.6068966-.16662-1.2358621-.271448-1.8184828-2.288552-1.9255172-4.891586-3.6402758-7.599448-5.1917241-2.932966-1.7224828-6.003862-3.2529655-9.139862-4.6786207-3.108414-1.4697931-6.308414-2.7983448-9.519448-4.0937931-1.605518-.6543448-3.224276-1.2844138-4.850759-1.8846897-1.618759-.6333793-3.251862-1.2237241-4.89269-1.8195862 3.437242.5704828 6.846897 1.356138 10.230069 2.2256552 2.20138.5616552 4.388414 1.2005517 6.561104 1.8846896-15.465931-40.4071724-52.422621-66.71779305-92.779035-66.71779305-40.3608274 0-77.3153102 26.31172415-92.7691033 66.71779305 2.1693793-.6841379 4.3619311-1.3230344 6.5522759-1.8846896 3.3809655-.8695172 6.7917241-1.6551724 10.2355862-2.2256552-1.6507586.5958621-3.2805517 1.1862069-4.9081379 1.8195862-1.6176552.6013793-3.2353104 1.2303449-4.8419311 1.8846897-3.2132414 1.2954483-6.4066207 2.624-9.5249655 4.0937931-3.1249655 1.4256552-6.1958621 2.9561379-9.1321379 4.6786207-2.70896554 1.5514483-5.30648278 3.2662069-7.60055174 5.1917241-.09379311.5837242-.19310345 1.2126897-.26924138 1.8184828-.10151725.8474482-.19531035 1.7048276-.27144828 2.5633103-.14896552 1.7224828-.20744828 3.4482759-.21958621 5.1817931-.03751724 3.4637242.19751724 6.9274483.63337931 10.3503444.47668966 3.437242 1.10565518 6.851311 2.03586207 10.153931.45682759 1.648552.98096552 3.277242 1.58455173 4.856276.30455172.786759.63337931 1.568.97765517 2.318345.16882759.376276.34427586.748138.52634483 1.103448l.2217931.420414c.25268966.126897.52082759.261517.7702069.382897l1.536.732689c.8573793.393931 2.0457931.95669 3.0267586 1.394759.0551724-.049655.1103448-.09931.1544828-.147862l-2.8524138-10.864552c.6057931-.16331 6.0215172-1.563586 15.3555862-3.344551-.7492414-.141242-1.5084138-.299035-2.2565517-.48-2.1252414-.531863-4.2228966-1.176276-6.2576552-1.996138-1.0063448-.427035-1.9994483-.890483-2.9451035-1.425656-.9456551-.546206-1.8747586-1.15862-2.5975172-1.978482 10.2532414 3.350069 31.446069 1.836138 50.2863448-.113655 17.2248276-1.7765522 34.5015173-2.9241384 51.8609651-2.9627591 17.355035.0386207 34.638345 1.1862069 51.854345 2.9627591 18.848 1.949793 40.039724 3.463724 50.291862.113655-.715034.819862-1.650758 1.432276-2.587586 1.978482-.953379.535173-1.94869.999725-2.955034 1.425656-2.032552.819862-4.122483 1.464275-6.251035 1.996138-.315586.075034-.634483.141241-.950069.211862 10.24 1.897931 16.198621 3.442758 16.829793 3.611586l-2.725517 10.349241c.553931-.239448 1.110069-.478896 1.644138-.731586l1.540414-.73269c.252689-.121379.51531-.256.776827-.382896l.206345-.420414c.186483-.35531.367448-.727172.534069-1.103448.345379-.750345.674207-1.531586.974345-2.318345.600276-1.579035 1.126621-3.207724 1.585655-4.856276.933517-3.302621 1.562483-6.717793 2.031448-10.153931.44469-3.4228966.680828-6.8866207.647725-10.3503448-.014345-1.7324138-.073931-3.4593104-.230621-5.1806897" fill="#e0d896"/><g fill="#d7c184"><path d="m157.887448 64.8416552c.157793 4.6223448.044138 13.0107586-2.109793 20.8584827-.087172.300138-.076138.6124138 0 .9026207-2.742069-.2902069-5.486345-.5362758-8.228414-.7591724 3.075311-6.4507586 3.747311-13.3186207 3.89738-15.7395862 2.364689-1.6772414 4.715034-3.6943448 6.440827-5.2623448"/><path d="m79.4135172 70.104c.1434483 2.4198621.8154483 9.2722759 3.8907587 15.7230345-2.7431725.2173793-5.4863449.4689655-8.2228966.7602758.073931-.2780689.0794483-.585931 0-.8860689-2.1495172-7.8366897-2.2642759-16.224-2.1164138-20.8584828 1.7335173 1.5668966 4.0783448 3.584 6.4485517 5.2612414"/><path d="m191.573517 93.006069c-.012138.0761379-.033103.1544827-.056276.2295172.301242.0871724.595862.1754483.897104.2736552 2.535724.8308965 5.074758 1.6993103 7.499034 2.8193103-4.047448-2.6295172-6.614069-10.2168276-8.045241-16.0165517.393931 7.5917241-.257104 12.4071724-.294621 12.694069"/><path d="m69.5895172 63.3828966-26.1837241 7.4471724c-1.568 10.1848276-1.0902069 17.9630344-.8375172 20.6620689l.1324138-.0794482s.8529655-11.0951725 2.592-15.3522759c.896-2.185931 6.3768275-3.5806897 10.5555862-4.5793104 4.1875862-.9942068 10.8645517-2.9881379 12.1611034 2.8910345.8 3.6325518 1.9012414 6.6537931 2.9572414 8.8816552-1.6816552-8.0772414-1.5746207-15.9746207-1.3771035-19.8708965"/><path d="m161.259586 63.3828966c.214069 4.0485517.31338 12.4148965-1.584552 20.8154482 1.189518-2.281931 2.511449-5.6485517 3.431725-9.8262069 1.294344-5.8791724 7.97131-3.8852413 12.157793-2.8910345 4.187586.9997242 9.661793 2.3933794 10.557793 4.5793104 1.47531 3.6038621 2.309517 12.1004138 2.530207 14.6273103.248276-3.2485517.524138-10.5511724-.902621-19.8587586z"/><path d="m79.206069 65.6504828c.9302069.7437241 1.9034482 1.4697931 2.8491034 2.1097931.457931.3177931.7382069.8353103.7481379 1.3936551.0055173.0871724.2019311 8.7139311 4.0154483 16.0595862.0551724.1103449.0937931.2306207.1313104.3442759 9.481931-.6444138 18.991448-.905931 28.477793-.9114483 9.491862.0055173 18.995862.2846897 28.473379.9335173.037518-.1246897.072828-.246069.140138-.3663449 3.808-7.3456551 4.012138-15.9724138 4.012138-16.0595862.009931-.5583448.295724-1.0769655.753655-1.3936551.914759-.6179311 1.838345-1.3186207 2.742069-2.0369656l.119173-.3365517c1.982896-19.2971034-1.652966-37.0791724-3.96469-45.865931-.121379 6.0082758-1.545931 57.4863448-14.320552 57.4863448h-16.273655-2.708965-16.2736554c-13.5646897 0-14.656-58.0402758-14.656-58.0402758l-.6984828 2.0612413c-2.313931 9.2546207-5.4918621 26.2653793-3.5663448 44.6223449"/><path d="m39.3373793 93.2311724c-.0121379-.0750345-.0331034-.1478621-.0507586-.2251034-.041931-.2868966-.6951724-5.1078621-.3012414-12.7073104-1.4322759 5.804138-4.0066207 13.4046897-8.0595862 16.0331035 2.4242759-1.1244138 4.9743448-1.996138 7.5144828-2.828138.2957241-.0926896.6002758-.1809655.8971034-.2725517"/></g><path d="m202.606897 171.105931c-.216276 1.112276-.396138 2.006069-.749242 3.406345 2.907586.677517 7.661242 1.203862 9.934345.760276.973241-1.057104 2.230069-4.723862 3.357793-9.127724-2.717793 2.594206-7.559724 6.188138-12.542896 4.961103" fill="#9f8f78"/><path d="m98.4038621 242.280552c6.9451039 1.901241 14.0391719 2.72662 21.0284139 2.263172 7.01131-.47669 16.114758-1.989517 25.777655-5.912276-2.169379-.161103-4.263724-.603586-6.257655-1.313103-7.106207 2.166069-20.651035 5.398069-32.961104 3.286069-3.258482 1.072552-5.812965 1.405793-6.0623444 1.436689-.5142069.058483-.9390345.130207-1.5249655.239449" fill="#9f8f78"/><path d="m31.0438621 178.015724c-.16-.516414-.3067587-1.037241-.4590345-1.556965-5.0791724.940138-9.993931-1.750069-13.3274483-4.301242 1.0791724 3.454897 2.1682759 6.16938 2.9837241 6.994759 2.5147587.439172 8.0783449-.332138 10.8027587-1.136552" fill="#9f8f78"/><path d="m38.5528276 186.622621c3.3544827 2.023724 7.8896552 4.527448 10.2753103 4.860689 4.0827587.580414 39.8874483-10.092138 45.5437242-11.816827 3.5045517-1.074759 4.5936551-3.03338 4.9136551-4.368552l-51.6546206 11.503448c-.1313104.022069-.2626207.038621-.3873104.038621h-.0033103-.0022069c-.3564138 0-.7128276-.109241-1.0173793-.321103l-2.0115863-1.403587-6.0336551-4.226207v-.008827l-2.4353104-1.700414c.0419311.137931.0915862.274759.1368276.411586.1379311.400552.2736552.806621.4193104 1.200552v.009931c.1710344.509793.9136551 2.65931 2.2565517 5.82069" fill="#9f8f78"/><path d="m197.006897 176.69931c.331034-1.21931.654344-2.454069.948965-3.700965l-1.793103 1.259034-4.826483 3.379862-5.221517 3.661242c-.268138.184276-.579311.295724-.899311.32-.108138.00662-.212965.004414-.318896-.007724l-52.015449-5.91338-.088275.811035c.777931.840827 2.007172 1.645241 3.958069 2.15062 5.714758 1.481932 41.95862 10.590897 46.011586 9.830621 3.115034-.577103 9.76662-5.057103 12.681931-7.104.024276-.070621.049655-.139034.072827-.209655.226207-.649931.449104-1.302069.669793-1.959724.278069-.830897.549518-1.66731.819863-2.516966" fill="#9f8f78"/><path d="m141.970207 106.61931c-.409379.530759-.858483 1.110069-1.339586 1.715862-2.470621 3.121656-5.892414 7.104-9.94538 11.011311-4.721655-.147862-9.569103-.229517-14.558896-.229517-8.247173 0-16.1544829.217379-23.662345.578206 10.612966-4.398344 23.35669-8.698482 37.160828-11.278344 4.028689-.76469 8.152275-1.376 12.345379-1.797518" fill="#6e6a67"/><path d="m79.8835862 111.368552c-3.7925517 2.66262-8.0651034 6.05462-12.2129655 10.174896-10.6173793 1.065931-19.8852414 2.349242-27.5244138 3.584 11.7473103-5.396965 25.1575172-10.37131 39.7373793-13.758896" fill="#6e6a67"/><path d="m209.640276 133.294069-4.324414 30.216828-20.694069 14.500413-53.969655-6.137379-8.120276-26.756414c-.193103-.647724-.742621-1.125517-1.414621-1.239172-1.998344-.323311-3.764965-.481104-5.241379-.481104-1.479724 0-3.246345.157793-5.256828.481104-.663172.114758-1.209379.591448-1.41131 1.239172l-7.921655 26.10538-53.6651035 11.940413-21.2678621-14.897655-4.1975172-33.912276c.918069-.512 1.8482759-1.02731 2.7806897-1.541517 1.3186207-.283586 2.7994482-.583724 4.4380689-.894896l3.9503449 32.001103c.0540689.496552.3343448.939034.7448275 1.225931l14.6350345 10.253241c.2946207.203035.6554483.317793 1.0085517.317793.1313104 0 .2571035-.017655.3950345-.044137l44.1213793-9.816276c.1533794-.037518.2990345-.091587.4413794-.161104.4049655-.219586.7315862-.592551.864-1.056l7.9514484-26.159448c2.130758-.545103 7.591724-1.825103 12.388414-1.825103 4.787862 0 10.247724 1.28 12.384 1.825103l7.945931 26.159448c.203034.676414.797793 1.169655 1.496276 1.251311l44.129103 5.012965c.423724.049655.859586-.06731 1.210483-.313379l14.640551-10.234483c.393931-.28469.66538-.727172.73269-1.208276l3.908414-27.344552c2.934069.561656 5.387034 1.076966 7.318069 1.492966" fill="#6e6a67"/><path d="m215.088 114.341241-3.799172 14.411035c-7.76938-1.714759-24.830897-5.076966-48.056276-7.340138 7.585103-3.23531 15.312551-7.288276 22.373517-12.366345 13.819586 1.952 23.966897 4.048552 29.481931 5.295448" fill="#6e6a67"/><path d="m17.1757241 114.341241 1.056 3.988966c2.956138-2.354759 5.6617931-4.304552 7.9448276-5.861517-3.7208276.713931-6.7553103 1.363862-9.0008276 1.872551" fill="#6e6a67"/><path d="m166.184276 106.303724c-5.816276-.328827-11.629242-.608-17.448828-.848552-.334345.497656-1.021793 1.49738-2.004965 2.842483-3.118345 4.218483-9.264552 11.908414-17.143173 18.505931 5.927724-1.878069 29.443311-9.76662 41.355035-20.206345-1.586759-.10262-3.171311-.201931-4.758069-.293517" fill="#93232c"/><path d="m123.565793 104.767724c.008828-.002207.018759-.00331.024276-.005517-2.949517-.038621-5.902345-.069517-8.847448-.081655h-.005518c-4.338758.012138-8.667586.06731-13.006344.142345l-8.0000004 3.792551c-.0121379 0-.0606896.027586-.1180689.066207-1.2038621.584828-11.7053794 5.88469-21.5933794 15.339035.8651035-.455724 1.782069-.928 2.7266207-1.406897 5.408-3.633655 19.8311724-12.238345 42.258759-17.910069 2.187034.013242 4.375172.026483 6.561103.064" fill="#93232c"/><path d="m74.4049655 105.734345c-3.7042758.171034-7.4096552.360827-11.1106207.570483-4.2913103.239448-8.5693793.528551-12.8441379.850758-2.1318621.164414-4.2670345.346483-6.3812414.568276-.6135172.059586-1.2137931.125793-1.8151724.203035-5.5856552 3.339034-26.9638621 16.759172-41.65186207 34.323862.25268966-.304552.5142069-.605793.77351725-.907035 27.19227582-23.198896 57.00524142-32.229517 73.02951722-35.609379" fill="#93232c"/><path d="m197.428414 201.139586c-.162207.083862-.335448.172138-.489931.25269-2.727724 1.433379-6.30069 2.135172-10.918621 2.135172-2.74869 0-5.444414-.23062-8.432552-.500965-5.966344-.545104-16.066207-1.733517-16.168827-1.752276l-.772414-.081655-.61131-.492138c-.09269-.061793-8.935725-7.115035-16.086069-12.736-.291311-.236138-.553931-.461242-.79338-.651035-.754758-.644413-.754758-.644413-1.203862-.644413-2.295172 0-8.962207 2.070068-23.563034 6.593103l-.896.286897-.887173-.336552c-.09931-.02538-9.678344-3.57738-21.1597238-3.57738-.9412413 0-1.8780689.023173-2.7906206.068414-1.1486897.058483-7.6016552 3.124966-15.8598621 16.178759l-.5285517.843034-.9511725.303449c-.1368275.045241-14.3437241 4.628965-29.4113103 8.937931l-.9721379.275862-.9291035-.429242c-.0982069-.033103-5.9817931-2.769655-11.5895172-5.340689.4126896.192.8286896.380689 1.2424827.572689 5.536 4.777931 16.1368276 13.967449 17.3142069 15.240828.1633104.183172.3906207.407172.6609656.660965-.2736552-.308965-.5384828-.627862-.7988966-.948965-.0033103-.002207-.0066207-.006621-.009931-.009931l.0011034.001103-.0011034-.001103c2.4430344 2.316138 5.1685517 4.31669 8.1467586 5.72469 1.4863448.698482 3.0444138 1.239172 4.6278621 1.501793.7988965.13131 1.5746206.196413 2.3834482.196413.8187587 0 1.6562759-.024275 2.4915862-.065103 3.3125518-.169931 6.6548966-.423724 9.9906207-.747034 3.3291035-.300138 6.6626207-.63338 9.9895173-1.037242 3.3235862-.357517 6.6460689-.775724 9.939862-1.286621 1.6507589-.240551 3.2904829-.513103 4.8926899-.868413.786758-.18538 1.60662-.390621 2.230069-.670897.568276-.271448 1.257931-.818758 1.863724-1.339586 1.239172-1.067035 2.436414-2.251035 3.621517-3.430621 1.18731-1.179586 2.344828-2.392276 3.504552-3.623724 1.950896-2.042483 3.622621-4.212965 5.511724-6.316138.241655-.261517.488828-.539586.73931-.808827 0 .004413 0 .004413.004414.004413l.022069.024276c.393931.283586.786759.570483 1.171862.872828 2.273104 1.694896 4.621242 3.528827 6.884414 5.113379 2.918621 2.05131 5.873655 4.105931 8.93131 5.816276.762483.424828 1.551449.822069 2.305104 1.071448.097103.035311.178758.052966.254896.064.055173.033104.257104.065104.280276.065104.147862.022069.347586.032.539586.045241.411587.005517.837518-.013241 1.264552-.033103 1.72469-.119173 3.473655-.370759 5.223724-.644414 3.495724-.545104 7.000276-1.174069 10.484966-1.872552 3.49131-.667586 6.97931-1.383724 10.445241-2.155034 3.483586-.737104 6.951724-1.551449 10.392276-2.417656 1.711448-.461241 3.424-.886068 4.951172-1.618758 1.559173-.726069 3.006897-1.722483 4.339862-2.864552 2.689104-2.290758 4.951173-5.131034 6.829242-8.224-.002207.004414-.002207.006621-.004414.011035 1.153104-2.142897 1.908966-4.056276 2.352552-5.335173" fill="#93232c"/><path d="m132.242207 36.8173793h6.148414v-12.489931h-44.9588969v12.489931h6.1484138v-6.3437241h12.7139311v38.5754482h-5.233655v7.1591725h17.69931v-7.1591725h-5.234758v-38.5754482h12.717241z" fill="#93232c"/><path d="m178.762483 107.150069c-.009931-.005517-.020966-.011035-.036414-.011035-2.546759-.193103-5.092414-.367448-7.640276-.532965-.047448-.00331-.097103-.005517-.145655-.008828-11.911724 10.439725-35.426207 18.328276-41.355035 20.206345-.114758.098207-.228413.196414-.343172.292414 7.632552-1.373793 19.032276-4.098207 30.864552-9.337379 5.818483-2.575449 11.741793-5.75669 17.376-9.690483.434758-.301241.856276-.616828 1.28-.918069" fill="#731b2a"/><path d="m117.00469 104.702621c-22.4275866 5.67062-36.850759 14.27531-42.258759 17.908965 4.3354483-2.206896 9.4731035-4.641103 15.2474483-7.058758.0275862-.011035.0584828-.024276.0871724-.036414.5870345-.243862 1.1851035-.491035 1.7853793-.736.1964138-.080552.3895173-.161104.5870345-.239448.5186207-.210759 1.0438621-.417104 1.5713104-.627863.2935172-.113655.5837241-.229517.8794482-.344275.4744828-.18538.9533793-.370759 1.4355862-.555035.3608276-.136827.7216552-.274759 1.0868966-.410483.4413793-.168827.8871724-.335448 1.3362759-.499862.4182069-.154482.8430344-.307862 1.2645512-.460138.416-.151172.82869-.300138 1.248-.449103.47669-.167724.957794-.334345 1.442207-.503173.381793-.13131.76138-.263724 1.14538-.395034.566069-.190897 1.136551-.379586 1.709241-.568276.315586-.103724.626759-.207448.943448-.311172.896-.290207 1.801931-.577104 2.71338-.856276 1.989517-.61131 4.023172-1.193931 6.089931-1.755586 2.69462-.731587 5.441103-1.419035 8.247172-2.038069-2.185931-.036414-4.374069-.049655-6.561103-.064" fill="#731b2a"/><path d="m74.4049655 105.734345c-16.0242758 3.379862-45.8372414 12.410483-73.02951722 35.609379-.25931035.301242-.52082759.601379-.77351725.907035 13.82289657-9.608828 37.58344827-23.894069 66.95724137-32.583725.9467586-.279172 1.9023448-.552827 2.8612414-.823172 4.873931-1.368276 9.9023448-2.562207 15.0477241-3.561931-3.6855172.13131-7.3743448.283586-11.0631724.452414" fill="#731b2a"/><path d="m202.721655 198.578483c-.092689.041931-.185379.084965-.278069.128-.189793.088276-.378483.176551-.563862.264827-.152276.069518-.300138.140138-.453517.209656-.120276.057379-.240552.114758-.364138.173241-.185379.088276-.371862.176552-.556138.264827-.076138.038621-.15669.075035-.236138.115863-.210759.100413-.41931.197517-.622345.297931-.045241.023172-.091586.045241-.137931.068413-.222896.109242-.444689.216276-.659862.323311-.023172.012138-.045241.022069-.068414.033103-.477793.236138-.930207.464552-1.352827.680828-.443586 1.275586-1.201655 3.192276-2.354759 5.330758-.002207.002207-.004414.006621-.004414.008828.004414-.006621.008828-.013241.008828-.013241-.004414.00662-.008828.011034-.012138.018758-1.875862 3.079724-4.134621 5.912276-6.818207 8.199724-1.332965 1.143173-2.781793 2.138483-4.338758 2.864552-1.530483.73269-3.241932 1.157517-4.952276 1.618759-3.440552.866207-6.907587 1.680551-10.392276 2.417655-3.464828.77131-6.952828 1.487448-10.444138 2.155034-3.485793.70069-6.989242 1.328552-10.487173 1.872552-1.748965.273655-3.496827.525241-5.22262.644414-.428138.022069-.851862.037517-1.263449.033103-.193103-.011034-.392827-.023172-.541793-.045241-.022069 0-.224-.030897-.278069-.065104-.077241-.009931-.16-.027586-.256-.065103-.754758-.246069-1.541517-.646621-2.305103-1.070345-3.056552-1.711448-6.01269-3.764965-8.932414-5.815172-2.259862-1.585655-4.61131-3.419586-6.88331-5.115586l-.198621.281379.014345.014345c.141241.128.283586.246069.424828.370758-.003311-.002207-.005518-.004413-.009931-.00662-.103725-.077242-.203035-.15338-.299035-.224l1.904552 2.272c.005517.007724.077241.094896.217379.258207.972138 1.142069 5.039448 5.861517 9.870345 10.652689 3.67669 3.645793 8.112552 5.486345 13.201655 5.486345 1.736828 0 3.563035-.228414 5.408-.666483 1.705931-.41931 3.563035-.861793 5.465379-1.321931 5.640828-1.341793 11.889656-2.838069 16.037518-3.915034.275862-.073931.545103-.142345.80331-.211862.587034-.154483 1.118897-.296828 1.594483-.428138.748138-.214069 1.573517-.408276 2.450758-.605793 5.030621-1.166345 11.909518-2.763035 15.553104-10.065656 1.008552-2.013793 2.142896-4.242758 3.310345-6.515862 1.624275-3.159172 3.312551-6.405517 4.813241-9.272275.238345-.454621.475586-.907035.704-1.34069 0-.002207.002207-.002207.002207-.002207.121379-.232828.244965-.467862.361931-.691862-.282483.130207-.571586.264828-.858483.398345" fill="#731b2a"/><path d="m120.342621 214.332414-.326621-.310069c-1.889103 2.103172-3.563034 4.273655-5.511724 6.317241-1.159724 1.231448-2.317242 2.444138-3.504552 3.623724-1.185103 1.179587-2.382345 2.366897-3.621517 3.430621-.606897.520828-1.296552 1.068138-1.863724 1.338483-.622345.281379-1.443311.48662-2.230069.672-1.601104.35531-3.241931.627862-4.8926899.868414-3.2926896.510896-6.6162758.93131-9.939862 1.28662-3.3268966.403862-6.6604138.737104-9.9895173 1.036138-3.3346207.323311-6.6780689.577104-9.9906207.749242-.8353103.03862-1.6728275.064-2.4915862.064-.8088276 0-1.5856551-.064-2.3834482-.196414-1.5845518-.262621-3.1426207-.804414-4.6278621-1.501793-2.9771035-1.408-5.7026207-3.409655-8.1456552-5.723587.0022069.001104.0055173.005518.0088276.007725.329931.406069.6929655.786758 1.0394483 1.174069-.0838621-.077242-.1633104-.15338-.2416552-.226207-.2692414-.25269-.4965517-.47669-.6609655-.659862-1.1773793-1.274483-11.7793104-10.462897-17.3142069-15.240828-.4137931-.193103-.8297931-.38069-1.2424828-.57269.9809655 1.452138 2.0546207 3.025656 3.1702069 4.631173 1.6209655 2.334896 3.328 4.734896 4.9986207 6.991448.7558621 1.019586 1.5062069 2.01269 2.2322759 2.946207 6.0171034 7.742897 13.5911724 14.897655 28.1257931 14.897655 1.8195862 0 3.7572414-.111448 5.7445517-.336552.4634483-.050758.9136552-.10262 1.3561379-.155586.4259311-.047448.8452414-.094896 1.2513104-.142345 12.6388965-1.453241 16.105931-2.073379 18.0303448-2.405517.4976552-.086069.9224828-.161103 1.3826207-.228414.1787586-.025379.361931-.054069.5561379-.079448.0706207-.006621 4.3442761-.556138 8.5219311-2.58869 2.88-1.398069 5.711448-3.500138 7.097379-6.607448 3.497931-7.824552 4.208552-9.694896 4.236138-9.764414z" fill="#731b2a"/><path d="m154.581517 143.282483c1.545931-.033104 2.775173-1.30538 2.74869-2.851311-.023173-1.547034-1.300966-2.782896-2.853517-2.748689-1.544828.027586-2.776276 1.305379-2.744276 2.85131.023172 1.541517 1.303172 2.776276 2.849103 2.74869zm17.221517 12.612414c-3.697655-1.786483-7.739586.475586-15.101793.613517-5.481931.19531-10.076689.254896-10.377931-8.344276-.303448-8.617931 3.202207-15.739586 8.684138-15.929379 5.476414-.193104 10.477242 6.633931 11.150345 15.224275.185379 2.370207-.077241 4.097104-.663172 5.377104 5.092413-.608 6.253241 2.850207 6.308413 3.058759z" fill="#0e0f0d"/><path d="m76.0921379 145.359172c1.5404138-.03862 2.7608276-1.328551 2.7222069-2.868965-.0430345-1.552552-1.3351724-2.770759-2.8744827-2.727724-1.5525518.033103-2.7707587 1.328551-2.732138 2.870069.0419311 1.551448 1.3307587 2.770758 2.8844138 2.72662zm8.4634483 4.507587c.0816552 8.605793-4.4755862 8.088275-9.9608276 8.142344-.5572414.017656-1.0813793.02538-1.6077241.02538-.6113104.016551-1.2016552.023172-1.7688276.012138-5.3241379-.012138-8.7227586-.250483-11.734069 1.376.0706207-.18538 1.3936552-3.140414 6.1704828-4.344276-.5274483-1.163035-.8584828-2.781793-.9456552-5.02069-.3288276-8.601379 4.9776552-15.655724 10.4584828-15.705379 5.4808276-.054069 9.3064827 6.907586 9.3881379 15.514483z" fill="#0e0f0d"/><path d="m188.353655 90.6877241c-.058483.7569656-.114758 1.2954483-.148965 1.5867587-2.162759-.588138-4.346483-1.1255173-6.545656-1.6397242-7.240827-1.5900689-14.568827-2.7696552-21.934344-3.6115862-.253793-.032-.513104-.0496552-.772414-.0816552.049655-.1092413.094896-.2184827.128-.3277241.219586-.8033103.411586-1.6088276.594758-2.4143448 1.897932-8.4005517 1.798621-16.7668966 1.584552-20.8154483l26.190345 7.4471724c1.426759 9.3064828 1.150897 16.608.903724 19.8565517zm-32.576-4.9875862c-.087172.300138-.076138.6124138 0 .9026207-2.742069-.2902069-5.486345-.5362758-8.228414-.7591724 3.075311-6.4507586 3.747311-13.3186207 3.89738-15.7395862 2.364689-1.6772414 4.713931-3.6943448 6.440827-5.2623448.157793 4.6223448.044138 13.0107586-2.109793 20.8584827zm-80.6962757.886069c.073931-.278069.0794483-.585931 0-.886069-2.1495172-7.8366896-2.2642759-16.224-2.1164138-20.8584827 1.7324138 1.568 4.0772414 3.5851034 6.4485517 5.2623448.1434483 2.4198621.8154483 9.2722759 3.8907587 15.7230345-2.7431725.2162758-5.4852414.4689655-8.2228966.7591724zm-3.9558621.4314483c-3.6733793.448-7.3511724.9114482-11.0113103 1.5183448-3.6502069.6245517-7.3015172 1.2888276-10.9197241 2.0932414-2.1958621.5097931-4.3707587 1.0504827-6.5478621 1.6386207-.0198621-.172138-.0463448-.4369655-.0772414-.7779311-.2526896-2.6990344-.7304827-10.4761379.8375173-20.6620689l26.1837241-7.4471724c-.1975173 3.8973793-.3045517 11.7947586 1.3782069 19.8708965.233931 1.1211035.4998621 2.2433104.8066207 3.36.0331034.1092414.0772414.2184828.1257931.3177931-.2637242.0331035-.5153104.0551724-.7757242.0882759zm131.2651038 10.5743448c-.222897-.1070345-.442483-.2162759-.653242-.32-.324413-.1555862-.683034-.3343448-1.09462-.534069-.02538-.0121379-.041931-.0209655-.041931-.0209655-.232828-.1136552-.462345-.2449655-.687449-.3895172-2.423172-1.12-4.96331-1.9873104-7.499034-2.8193104-.300138-.0982069-.595862-.1864827-.896-.2736551.022069-.0750345.044138-.1533794.056276-.2295173.037517-.2868965.688551-5.1034483.295724-12.6940689-.166621-3.2419311-.525242-6.9892414-1.203862-11.1084138-.109242-.6576552-.589242-1.1906207-1.222621-1.3726897l-3.732965-1.056c-.803311-28.886069-12.696276-42.4606897-13.068138-42.8811034 10.624 17.1001379 10.53131 37.3793103 10.345931 42.1053793l-23.143724-6.5787587c-.016552 0-.032 0-.054069-.009931-.093794-.0231724-.198621-.0342069-.296828-.0441379-.022069 0-.047448-.0044138-.084966-.0044138-.120275-.0066207-.252689.0044138-.378482.032-.017655 0-.037518.0176552-.061793.0176552-.102621.0209655-.196414.0540689-.299035.1026206-.036414.0165518-.069517.0397242-.102621.0496552-.078344.0529655-.154482.0971035-.23062.1522759-.016552.0121379-.038621.0220689-.055173.0375172-.023172.0165517-.030896.0331035-.044138.044138-.022069.0231724-.048551.0386206-.066207.0551724-.022068.0231724-.645517.6333793-1.613241 1.5470345.068414-2.1649656.084966-5.4775173-.161103-9.5227587-.024276-.384-.048552-.7735172-.075035-1.1674482-.727172-10.1627587-3.129379-24.438069-10.308414-36.9346207.061793.179862.771311 2.2532413 1.68938 5.7456551 2.31062 8.7867587 5.948689 26.5688276 3.965793 45.8659311-.009931.0882758-.016552.1754482-.02538.2648276-.029793.0242758-.062896.0474482-.093793.0717241-.904827.7183448-1.828413 1.4190345-2.743172 2.0369655-.457931.3177931-.743724.8353104-.754759 1.3936552 0 .0871724-.203034 8.713931-4.009931 16.0595862-.068413.1202759-.103724.2416552-.142345.3663448-9.476413-.6488276-18.97931-.9268965-28.472275-.9335172-9.486345.0055172-18.9958624.2670345-28.4777935.9114483-.0375172-.1147587-.0761379-.2350345-.1313103-.3442759-3.8135173-7.3456552-4.0099311-15.9724138-4.0154483-16.0595862-.009931-.5583448-.2902069-1.0769655-.7481379-1.3936552-.9456552-.64-1.9188966-1.3649655-2.8491035-2.1097931-1.9255172-18.3569655 1.2524138-35.3677241 3.5652414-44.6234483 1.097931-4.393931 2.0038621-7.049931 2.0755862-7.2529655-10.4165517 18.1263448-10.7773793 39.9966897-10.5467586 47.6248276-.9853793-.9136552-1.5955862-1.5227586-1.6121379-1.5470345-.0176552-.0165517-.0496552-.032-.0717242-.0551724-.0110345-.0110345-.022069-.0275862-.0375172-.0441379-.0176552-.0154483-.0386207-.0253793-.0606897-.0375173-.0761379-.0551724-.1544827-.0993103-.2306207-.1412413-.0375172-.0209656-.0651034-.044138-.1092414-.0606897-.0993103-.0485517-.1842758-.0816552-.2835862-.0926897-.0275862-.009931-.0485517-.0275862-.0662069-.0275862-.1313103-.0264827-.2626206-.0386207-.384-.032-.032 0-.0662069.0044138-.0982069.0044138-.0937931.0099311-.1853793.0209655-.2835862.044138-.0220689.009931-.0331034.009931-.0551724.009931l-23.1371034 6.5787586c-.1864828-4.7271724-.2857931-25.0063448 10.3382069-42.1053793-.3685517.4237241-12.2593104 13.9983448-13.068138 42.8844138l-3.7153103 1.0548966c-.649931.1820689-1.1266207.7150344-1.2336552 1.3737931-.6786207 4.1136551-1.0350345 7.8565517-1.2049655 11.0951724-.3928276 7.5994482.2593104 12.4204138.3012414 12.7073103.0176552.0761379.0386207.1489655.0507586.2251035-.2968276.0915862-.6013793.179862-.8971034.2725517-2.540138.832-5.0891035 1.7037241-7.5144828 2.8281379-.2228965.1423448-.4513103.2736552-.6841379.3862069 0 0-.0154483.0077242-.0375173.0209655-.4126896.1997242-.7724138.3773793-1.0957241.534069-.1842759.0904828-.3784828.1842759-.5693793.278069-.1202759.0695172-.2438621.1302069-.3619311.2008275 1.7169656-.6742068 3.4924138-1.1663448 5.2667587-1.6022068 1.7820689-.4435863 3.5751724-.8364138 5.3660689-1.1762759 3.6027587-.6697931 7.2143449-1.2513104 10.848-1.6937931 3.6237242-.4755862 7.2628966-.8684138 10.9075862-1.174069 3.6468966-.3111724 7.286069-.617931 10.9406897-.8286896 14.6129655-.8651035 29.2634481-1.1376552 43.9205521-1.1431724 14.660413.0110344 29.309793.2394482 43.920551 1.1376551 3.655724.2118621 7.294897.5164138 10.946207.8253793 3.651311.310069 7.277242.7084138 10.900966 1.184 3.634758.4369656 7.252965 1.0162759 10.849103 1.6893793 1.796414.3453794 3.586207.726069 5.359448 1.1795863 1.787587.4369655 3.554207.9291034 5.274483 1.6033103-.096-.0584828-.193103-.1081379-.286896-.1622069z" fill="#0e0f0d"/><path d="m119.524966 30.4736552v38.5754482h5.234758v7.1591725h-17.69931v-7.1591725h5.233655v-38.5754482h-12.7139311v6.3448276h-6.1473103v-12.4910345h44.9577934v12.489931h-6.147311v-6.3448276h-12.718344zm23.49462 10.9627586v-21.7335172h-54.2046894v21.7335172h15.3931034v-6.3448276h3.458207v29.3296552h-5.222621v16.3994483h26.939586v-16.3994483h-5.239172v-29.3296552h3.471448v6.3448276z" fill="#0e0f0d"/></g></svg>