<svg height="108" preserveAspectRatio="xMidYMid" viewBox="0 0 512 108" width="512" xmlns="http://www.w3.org/2000/svg"><path d="m46.7969671 88.1498256c-8.4004871.2176008-10.0260929-5.7764778-10.0974075-10.1303219v-30.1898221h19.5785843v-17.4976625h-19.4999554v-26.00603575h-15.3746835c-.2523437 0-.693031.21760078-.7552027.76800275-.9014889 8.0091715-4.7323597 22.0672788-20.6483023 27.6828417v15.0528538h12.1161576v31.7806849c0 11.4907839 7.166197 27.8144995 30.0234215 27.4304975 7.7129418-.128 16.2816581-3.289611 18.1778935-6.016021l-5.0487038-14.6469095c-1.9529212.9069747-5.6832203 1.7005775-8.4718017 1.7718921zm93.7292489-1.8614924v-55.9544855h-34.382751v16.4297729l6.624938.0018286c2.179665 0 3.095782.927089 3.125039 2.9586391l-.034743 25.5232912c0 2.5014946-1.804806 11.8967282-14.330565 12.1344433-8.5358019.1627435-10.3314654-4.8713316-10.3314654-11.4724981v-45.575477h-25.3184905v46.8774245c0 11.8619853 5.416248 30.5226238 30.6926811 29.8387348 8.2980868-.226743 17.8048638-4.399558 22.7456808-10.5198086l.20663 9.4244906h28.213129v-16.0732001s-2.282065-.1773721-3.989957-.2907439c-1.994979-.129829-3.220126-1.2032043-3.220126-3.3024118zm146.734239-.1572577s.001828-18.6697809.001828-22.9395105c0-8.1774006-.098743-16.6254308-5.509505-23.5209983-4.955447-6.3122511-13.18039-10.9422105-25.665921-10.3406083-8.290772.4004585-17.135604 4.2532723-22.017907 10.8526102l-.769831.9709749-.468116-.5632021c-5.019447-7.248483-13.034104-11.8619852-25.517805-11.260383-8.29443.4004585-17.139262 4.2532723-22.021565 10.8526102l-.73326-9.8523781h-30.593937v16.4334301l7.040025.104229c2.177836 0 3.097611.927089 3.126868 2.9586391l.001829 32.1592006v4.1453862c0 2.0992075-1.234291 3.2475545-3.22744 3.3773835-1.707892.1133718-5.167562.3602299-5.167562.3602299v16.0732001l41.373405.0128v-16.0860001s-3.260354-.2304009-5.167561-.3602299c-1.994979-.1353148-3.225612-1.278176-3.225612-3.3773835 0 0 .032915-20.5276162.032915-24.6364308 0-4.1069861 3.397498-12.5312448 14.18245-12.5312448 8.700374 0 10.483238 5.3028761 10.483238 11.4724981 0 6.1696221.009143 25.6970061.009143 25.6970061 0 2.1010361-1.232462 3.2457259-3.225612 3.3773835-1.707892.1152004-5.167561.3620584-5.167561.3620584v16.069543h41.329519v-16.0732001s-3.260355-.2304009-5.16939-.3602299c-1.99315-.1353148-3.207326-1.278176-3.207326-3.3773835h-.062171s.034743-20.5276162.034743-24.6364308c0-4.1069861 3.029953-12.5312448 13.816735-12.5312448 8.698545 0 10.876381 5.3028761 10.876381 11.4724981v21.5497913l-.003657 4.1472148c0 2.1010361-1.23429 3.2457259-3.22744 3.3773835-1.70972.1152004-5.167561.3620584-5.167561.3620584v16.069543h41.380719v-16.0732001s-3.258526-.2304009-5.165733-.3602299c-1.996807-.1353148-3.207325-1.278176-3.207325-3.3773835zm54.575737 2.2070936c-3.439555.2541723-9.808492-.3254869-13.904507-7.5136268v-10.5289519l.003658-.0054857h-.003658v-12.1765007c0-5.2644759 4.862189-9.8834638 12.386788-10.1632363 7.619684-.281601 14.363479 4.9188747 14.363479 19.6096701 0 19.8162993-8.691231 20.4709302-12.84576 20.7781313zm3.746757-59.0886682c-6.255566.2742867-12.856732 2.6678953-17.651264 6.8352244v-35.0977253h-8.857631s-14.482338 5.14561838-25.695178 6.520709l-.365715 16.0713717 7.089397.0091429c2.176007 0 3.112239.927089 3.139668 2.9604677v79.3383407l20.256986-.021943 2.892811-6.5097377c.619888.3474298 9.912721 9.0825467 24.75346 7.3344267 18.684409-2.203437 28.496559-16.9966326 28.496559-39.4405985 0-11.7742135-3.61327-39.3308833-34.059093-37.9996786zm155.679641 14.5902236c-.824688-17.9292069-25.102718-18.7538956-37.794878-6.6432238l-2.314979-6.9431105h-29.346848v16.4316016l6.153165-.0091429c2.179665 0 2.987896.9252604 3.017153 2.9568105v36.4344159c0 2.0992075-1.237947 3.2475544-3.231097 3.3755549-1.70972.1133718-5.149275.3602299-5.149275.3602299v16.0731999h41.320376v-16.0731999s-3.417612-.2468581-5.123676-.3602299c-1.996807-.1280005-3.232925-1.2763474-3.232925-3.3755549l-.009143-24.7040882c0-4.6299594 1.060575-12.3575299 9.23249-14.3342227 1.009375 7.7275705 8.47363 10.0352359 12.116157 10.0352359 9.195919 0 14.36348-6.8864246 14.36348-13.2242758zm-85.209904 42.2273508.021943-85.0800753h-8.949061s-14.868167 5.37784778-25.578148 6.520709v16.0713717h6.760253c2.176007 0 3.086639.927089 3.115896 2.9586391v59.5293555c0 2.0992075-1.230633 3.2475544-3.225611 3.3755549-1.707892.1133718-5.535106.3620584-5.535106.3620584v16.0713714h42.154208v-16.0713714s-3.830871-.2486866-5.536934-.3620584c-1.996807-.1280005-3.22744-1.2763474-3.22744-3.3755549zm81.130347-8.2542009c-8.184715 0-14.815139 6.4969375-14.815139 14.5079375 0 8.0055141 6.630424 14.5042801 14.815139 14.5042801 8.186543 0 14.816967-6.498766 14.816967-14.5042801 0-8.011-6.630424-14.5079375-14.816967-14.5079375z" fill="#303d4d"/></svg>