<svg height="173" preserveAspectRatio="xMidYMid" viewBox="0 0 512 173" width="512" xmlns="http://www.w3.org/2000/svg"><g fill="#2a3743"><path d="m16.4234876 169.414155v-96.30916h-16.38705959v-34.2733087h16.38705959v-38.56894568h37.6327171v38.56894568h16.3748213v34.2733087h-16.3748213v61.803324h12.544239v34.505836z"/><path d="m213.86981 38.8378054v96.2969216h15.922005v34.279428h-50.874538v-17.078523c-4.258923 6.431218-9.515265 11.234743-15.738431 14.404458s-13.615089 4.754573-22.126814 4.754573c-14.477887 0-25.626962-4.27116-33.459463-12.837958-7.8263811-8.554559-11.7303931-20.841794-11.7303931-36.880063v-48.4391197h-16.3809404v-34.505836h54.2461845v71.7897617c0 9.76003 1.603215 16.693017 4.815764 20.780603 3.212549 4.112063 8.499487 6.168094 15.860814 6.168094 6.884033 0 12.379022-2.42318 16.491085-7.269539 4.099824-4.840241 6.155856-11.39996 6.155856-19.691396v-37.2900451h-14.985777v-34.505836h51.810767v.0244765z"/><path d="m252.187871 169.414155v-96.30916h-16.38706v-34.2733087h16.38706v-38.56894568h37.632717v38.56894568h16.374821v34.2733087h-16.374821v61.803324h12.544239v34.505836z"/><path d="m320.000191 129.211399h35.197299c.232528 4.650547 1.615453 8.18741 4.124301 10.628948 2.514967 2.429299 6.143618 3.659246 10.861475 3.659246 4.479212 0 7.91205-.985182 10.280157-2.961664 2.368108-1.970364 3.542983-4.815764 3.542983-8.536202 0-5.354248-5.849899-9.411239-17.537458-12.201567-4.564879-1.089207-8.175172-2.007078-10.806403-2.784209-12.32395-3.481792-21.37416-8.499487-27.175105-15.040849-5.807065-6.5413616-8.719776-15.0041336-8.719776-25.3821967 0-12.3178308 4.142658-22.2491966 12.427975-29.7940975 8.285317-7.5510199 19.207984-11.3265299 32.761881-11.3265299 5.41544 0 10.280157.6547481 14.569675 1.9703634 4.301756 1.3217344 8.389342 3.4450763 12.262758 6.3883832v-5.4582738h27.175105v37.0575178h-34.505836c-.691463-4.2589221-1.970363-7.3001352-3.830582-9.11752-1.860219-1.8235041-4.607713-2.7291369-8.254721-2.7291369-3.708199 0-6.724936.9056328-9.007376 2.7291369-2.282439 1.8173848-3.426719 4.1610158-3.426719 7.0247738 0 3.6408889 1.278901 6.467932 3.824464 8.4811294 2.56392 2.0131974 8.762609 4.2589222 18.596069 6.7371743 16.252439 4.1854924 27.450467 9.33169 33.557369 15.450831 6.119141 6.119141 9.178712 14.741011 9.178712 25.902324 0 12.691098-4.436377 23.020208-13.303013 30.956734-8.866635 7.942645-20.340024 11.901729-34.438525 11.901729-5.733635 0-10.941024-.813845-15.628286-2.429299-4.687262-1.63381-9.080806-4.148777-13.18063-7.544901v6.620911h-28.576388v-40.202756z"/><path d="m511.70064 82.1123705h-23.730029v-23.742267h-33.171863v23.742267h-23.736148v33.1657445h23.736148v23.730028h33.171863v-23.730028h23.730029z"/></g></svg>