<svg height="256" preserveAspectRatio="xMidYMid" viewBox="0 0 256 256" width="256" xmlns="http://www.w3.org/2000/svg"><g fill="#cf272d"><path d="m127.859784 222.303602c-52.0051782 0-94.1633857-42.158208-94.1633857-94.162324 0-52.0051784 42.1582075-94.1633859 94.1633857-94.1633859 52.004116 0 94.162324 42.1582075 94.162324 94.1633859 0 52.004116-42.158208 94.162324-94.162324 94.162324zm0-222.02210822c-70.6145724 0-127.859784 57.24521162-127.859784 127.85978422 0 70.614573 57.2452116 127.858722 127.859784 127.858722 70.614573 0 127.858722-57.244149 127.858722-127.858722 0-70.6145726-57.244149-127.85978422-127.858722-127.85978422z"/><path d="m133.115751 96.2974274c0-14.6822905 11.903469-26.5857594 26.585759-26.5857594 14.683353 0 26.58576 11.9034689 26.58576 26.5857594 0 14.6833526-11.902407 26.5857596-26.58576 26.5857596-14.68229 0-26.585759-11.902407-26.585759-26.5857596"/><path d="m133.115751 159.983004c0-14.68229 11.903469-26.585759 26.585759-26.585759 14.683353 0 26.58576 11.903469 26.58576 26.585759 0 14.683353-11.902407 26.585759-26.58576 26.585759-14.68229 0-26.585759-11.902406-26.585759-26.585759"/><path d="m69.4312365 159.983004c0-14.68229 11.9034689-26.585759 26.5857594-26.585759 14.6833531 0 26.5857591 11.903469 26.5857591 26.585759 0 14.683353-11.902406 26.585759-26.5857591 26.585759-14.6822905 0-26.5857594-11.902406-26.5857594-26.585759"/><path d="m69.4312365 96.2984896c0-14.6833527 11.9034689-26.5857593 26.5857594-26.5857593 14.6833531 0 26.5857591 11.9024066 26.5857591 26.5857593 0 14.6833524-11.902406 26.5857594-26.5857591 26.5857594-14.6822905 0-26.5857594-11.902407-26.5857594-26.5857594"/></g></svg>