<svg height="209" preserveAspectRatio="xMidYMid" viewBox="0 0 256 209" width="256" xmlns="http://www.w3.org/2000/svg"><path d="m256 25.4500259c-9.419159 4.1772413-19.541549 7.0004609-30.165844 8.2702074 10.844347-6.500428 19.171674-16.7932404 23.093281-29.05715645-10.147672 6.01818645-21.388112 10.38926075-33.351447 12.74522115-9.581155-10.2076009-23.23093-16.586298-38.336793-16.586298-29.006592 0-52.523121 23.5155931-52.523121 52.5203116 0 4.1163759.465386 8.1250668 1.360576 11.9689528-43.6508135-2.1902191-82.3509268-23.0998354-108.255254-54.8753356-4.5208969 7.757065-7.110955 16.7791946-7.110955 26.4043601 0 18.2212371 9.2730824 34.2972018 23.3657705 43.7154248-8.6101174-.2724898-16.7080289-2.6350049-23.7899558-6.5687845-.0037455.2191156-.0037455.4391675-.0037455.6601558 0 25.447368 18.1041881 46.675358 42.1310508 51.499645-4.4075935 1.200454-9.0474121 1.841882-13.8379896 1.841882-3.384118 0-6.6745968-.328674-9.8808004-.94201 6.6830243 20.866543 26.0794323 36.051063 49.0622188 36.475248-17.9749661 14.086133-40.6215882 22.482754-65.2280771 22.482754-4.23904309 0-8.42002996-.248144-12.5289147-.733195 23.2431033 14.90173 50.8507261 23.596123 80.5109185 23.596123 96.6056105 0 149.4330585-80.03055 149.4330585-149.4349318 0-2.2773034-.050565-4.5424338-.151695-6.7944548 10.260975-7.4049819 19.166056-16.6555909 26.207718-27.1881195" fill="#55acee"/></svg>