<svg height="125" preserveAspectRatio="xMidYMid" viewBox="0 0 512 125" width="512" xmlns="http://www.w3.org/2000/svg"><path d="m63.8177792 11.3381841h-26.5637457v82.2828219h-10.8522619v-82.2828219h-26.4017716v-9.71844351h63.8177792zm50.0499838 16.521354-30.2891486 76.2897819c-5.345144 13.605821-12.9579247 20.408731-22.6763683 20.408731-2.753559 0-5.0211958-.323948-6.8029104-.80987v-9.394495c2.2676368.80987 4.3732995 1.133818 6.1550142 1.133818 5.3451439 0 9.2325213-3.239481 11.9860803-9.55647l5.1831699-12.472002-25.5919013-65.5994939h11.6621323l17.8171464 50.5359064c.1619741.6478962.6478963 2.2676368 1.2957925 5.0211958h.3239481c.1619741-.9718443.6478963-2.5915849 1.2957925-4.8592218l18.6270164-50.6978804zm17.169251 56.2049984h-.323949v39.6836445h-10.528313v-95.8886429h10.528313v11.5001582h.323949c5.183169-8.7465992 12.79595-13.1198988 22.676368-13.1198988 8.422651 0 15.063587 2.9155331 19.760835 8.7465992s7.126859 13.767795 7.126859 23.6482126c0 11.014236-2.753559 19.7608352-8.098703 26.4017716s-12.633977 9.8804176-21.866498 9.8804176c-8.260677.3239481-14.901614-3.4014553-19.598861-10.852262zm-.161974-26.4017716v9.2325214c0 5.507118 1.781714 10.0423917 5.345143 13.767795 3.56343 3.7254034 7.936729 5.6690921 13.443847 5.6690921 6.316989 0 11.338184-2.4296109 15.063588-7.2888327 3.563429-4.8592218 5.345144-11.6621322 5.345144-20.4087314 0-7.2888326-1.619741-13.1198988-5.021196-17.1692502-3.401455-4.2113256-7.936729-6.1550143-13.767795-6.1550143-6.155014 0-11.014236 2.1056628-14.739639 6.3169883-3.887378 4.2113256-5.669092 9.5564695-5.669092 16.0354318zm114.191711 5.6690921h-46.324581c.161974 7.2888327 2.105663 12.9579247 5.831066 17.0072762 3.725404 4.0493515 8.908574 5.9930402 15.54951 5.9930402 7.450807 0 14.253717-2.4296109 20.408731-7.2888327v9.8804176c-5.831066 4.2113255-13.443847 6.3169883-22.838342 6.3169883-9.232521 0-16.521354-2.9155331-21.866498-8.9085732-5.345144-5.9930402-7.936729-14.4156913-7.936729-25.1059792 0-10.2043657 2.915533-18.6270167 8.746599-24.944005 5.831067-6.4789624 12.957925-9.7184435 21.54255-9.7184435s15.225562 2.753559 19.922809 8.422651c4.697248 5.507118 7.126859 13.2818728 7.126859 23.1622904zm-10.852262-8.9085732c0-6.1550143-1.457766-10.852262-4.3733-14.2537172-2.915533-3.4014552-6.964884-5.0211958-11.98608-5.0211958s-9.232521 1.7817146-12.633976 5.3451439c-3.401456 3.5634293-5.669093 8.260677-6.478963 13.9297691zm16.035432 35.958241v-7.2888326c6.640936 4.2113255 13.281873 6.3169883 20.084783 6.3169883 7.126859 0 12.633977-1.4577665 16.35938-4.5352737 3.725404-3.0775071 5.507118-7.1268586 5.507118-12.4720025 0-4.6972477-1.295792-8.4226511-3.725403-11.3381841-2.429611-2.753559-7.936729-6.6409364-16.197406-11.5001582-9.394495-5.507118-15.225562-10.0423916-17.655173-13.6058209-2.42961-3.7254034-3.725403-7.9367289-3.725403-12.6339766 0-6.4789624 2.591585-11.9860804 7.612781-16.52135403 5.021196-4.53527365 11.824106-6.80291047 20.246757-6.80291047 5.507118 0 11.014236.97184435 16.35938 2.753559v6.64093641c-5.345144-2.42961088-11.17621-3.72540335-17.331224-3.72540335-6.316988 0-11.17621 1.61974059-14.901613 4.69724774-3.725404 3.2394811-5.507118 7.1268586-5.507118 11.9860803 0 4.6972477 1.295792 8.4226511 3.725403 11.1762101s7.936729 6.6409364 16.197406 11.3381841c8.584625 4.8592218 14.253717 9.2325214 17.16925 12.9579247 2.915533 3.7254034 4.211326 8.0987029 4.211326 13.1198988 0 7.1268586-2.429611 12.7959506-7.288833 17.3312243-4.859222 4.5352736-11.824106 6.6409364-20.73268 6.6409364-3.239481 0-6.80291-.4859222-11.014236-1.4577665-4.211325-.9718444-7.288832-1.7817147-9.394495-3.0775072zm103.177475.3239482c-4.859221 2.915533-10.690287 4.5352736-17.493198 4.5352736-8.908573 0-16.197406-3.0775071-21.704524-9.2325214-5.507118-6.1550142-8.260677-14.0917431-8.260677-24.1341347 0-10.3663398 3.077507-18.9509649 9.232522-25.5919013 6.155014-6.6409364 14.091743-10.0423917 23.810186-10.0423917 5.021196 0 9.880418.9718444 14.577665 3.0775072v6.6409364c-4.697247-2.9155331-9.880417-4.3732996-15.387535-4.3732996-7.774755 0-13.929769 2.753559-18.788991 8.260677s-7.126859 12.7959506-7.126859 21.5425498c0 8.5846251 2.267637 15.3875356 6.640937 20.5707055 4.373299 5.1831699 10.204366 7.7747548 17.331224 7.7747548 6.640937 0 12.310029-1.7817146 17.16925-5.1831699zm39.197723-56.6909206c-1.943689-1.4577666-4.211326-2.1056628-6.964885-2.1056628-5.18317 0-9.556469 2.753559-12.957925 8.0987029-3.563429 5.345144-5.183169 12.9579247-5.183169 22.8383423v30.9370453h-5.831067v-65.923442h5.831067v14.5776653h.323948c1.457766-5.0211958 3.887377-8.9085732 7.126858-11.6621322s6.964885-4.2113255 11.338184-4.2113255c2.429611 0 4.697248.3239481 6.478963 1.1338184v6.3169883zm9.394495-22.6763683c-1.295792 0-2.429611-.4859222-3.401455-1.45776651-.971845-.97184435-1.457767-2.10566277-1.457767-3.5634293 0-1.45776652.485922-2.59158494 1.457767-3.40145523.971844-.8098703 2.105663-1.29579247 3.401455-1.29579247 1.295793 0 2.429611.48592217 3.563429 1.29579247.971845.80987029 1.457767 1.94368871 1.457767 3.40145523 0 1.29579248-.485922 2.59158495-1.457767 3.5634293-1.133818.97184431-2.267636 1.45776651-3.563429 1.45776651zm-2.915533 82.2828219v-65.7614679h5.831066v65.7614679zm26.077823-11.6621322h-.323948v41.9512812h-5.831066v-96.0506169h5.831066v13.605821h.323948c2.429611-4.8592218 5.669093-8.5846252 10.042392-11.1762101 4.3733-2.5915849 9.232521-3.8873774 14.415691-3.8873774 8.422651 0 14.901614 2.9155331 19.598861 8.5846251 4.697248 5.8310661 6.964885 13.605821 6.964885 23.4862385 0 11.014236-2.753559 19.9228093-8.098703 26.7257198-5.345144 6.8029104-12.472002 10.2043657-21.218602 10.2043657-9.718443-.1619741-17.007276-4.5352737-21.704524-13.4438469zm-.323948-24.4580829v8.260677c0 6.6409364 2.105663 12.3100285 6.155015 17.0072762 4.211325 4.6972477 9.556469 7.1268586 16.35938 7.1268586 6.640936 0 12.148054-2.9155331 16.359379-8.5846252 4.211326-5.8310661 6.316989-13.2818728 6.316989-22.6763682 0-8.260677-1.943689-14.7396394-5.831066-19.5988611-3.887378-4.8592218-8.908574-7.2888327-15.387536-7.2888327-7.612781 0-13.605821 2.591585-17.817146 7.7747549-4.211326 5.1831698-6.155015 11.014236-6.155015 17.9791205zm87.142044 35.1483708c-3.077507 1.4577665-5.99304 2.1056627-8.584625 2.1056627-9.718444 0-14.577665-5.8310661-14.577665-17.4931983v-43.89497h-11.824107v-5.3451439h11.824107v-17.1692503l2.915533-.97184431 2.915533-.97184435v19.11293896h17.331224v5.3451439h-17.331224v43.4090478c0 4.5352736.647896 7.7747548 2.105662 9.8804176 1.457767 2.1056627 3.887378 3.0775071 7.288833 3.0775071 2.429611 0 5.021196-.8098703 7.936729-2.4296109z" fill="#007acc"/></svg>