<svg height="407" preserveAspectRatio="xMidYMid" viewBox="0 0 256 407" width="256" xmlns="http://www.w3.org/2000/svg"><path d="m215.946858 1.30253648h39.731316v405.02617852h-39.731316z" fill="#89c6be"/><path d="m.40801883 93.5502721h49.78909557v-92.69200565h65.9864406v92.69200565h59.62474v50.8318959h-59.62474v165.058658c0 7.170024.290009 13.358953.870029 18.535932.573848 5.189321 1.92517 9.570317 4.047793 13.1615 2.122624 3.585013 5.300389 6.275314 9.557976 8.070906 4.239077 1.795591 10.026928 2.690302 17.363554 2.690302 4.627813 0 9.261796-.092557 13.889609-.302351 4.633983-.191283 9.261796-.89471 13.895779-2.085601v52.627488c-7.336626.789813-14.475798 1.585797-21.417517 2.394121-6.94789.783643-14.093233 1.190891-21.417518 1.190891-17.369724 0-31.35806-1.703035-41.9711773-5.078253-10.6192879-3.387559-18.906158-8.379427-24.8852922-14.957091-5.991475-6.577665-10.0392686-14.852194-12.1618921-24.823588-2.1287939-9.952883-3.3813886-21.318791-3.757784-34.079214v-182.4037h-49.78909557z" fill="#33393f"/></svg>