<svg height="256" preserveAspectRatio="xMidYMid" viewBox="0 0 256 256" width="256" xmlns="http://www.w3.org/2000/svg"><path d="m0 128v-128h128 128v128 128h-128-128z" fill="#007acc" transform="matrix(1 0 0 -1 0 256)"/><g fill="#fff"><path d="m146.658132 223.436863.081269-10.483809h-16.660317-16.660317v-47.339683-47.339682h-11.784127-11.7841274v47.339682 47.339683h-16.6603175-16.6603175v10.280635c0 5.688888.1219048 10.443174.2844445 10.565079.1219048.16254 20.3987301.243809 44.9828569.203175l44.739048-.121905z" transform="matrix(-1 0 0 -1 203.26928 352.285986)"/><path d="m206.566631 234.272145c6.501588-1.625397 11.459048-4.510477 16.010159-9.224127 2.356826-2.519365 5.851429-7.111111 6.135873-8.208254.08127-.32508-11.052698-7.801905-17.798095-11.987302-.24381-.16254-1.219048.893968-2.316191 2.519365-3.291428 4.794921-6.745396 6.867302-12.027936 7.233016-7.76127.528254-12.759365-3.535238-12.71873-10.32127 0-1.991111.284444-3.169524 1.097143-4.79492 1.706666-3.535239 4.87619-5.648254 14.831746-9.955556 18.326349-7.883175 26.168889-13.084444 31.045079-20.48 5.445079-8.248889 6.664127-21.414603 2.966349-31.207619-4.063492-10.646349-14.140952-17.879365-28.322539-20.276825-4.388572-.772064-14.791112-.650159-19.504762.203174-10.280635 1.828572-20.033016 6.907937-26.046984 13.572064-2.356826 2.600635-6.948572 9.386666-6.664127 9.874285.121904.16254 1.178412.812699 2.356825 1.503492 1.137778.650159 5.445079 3.128889 9.508571 5.485715l7.354921 4.266666 1.544127-2.275555c2.153651-3.291429 6.867302-7.801905 9.711746-9.305397 8.167619-4.307302 19.382857-3.697778 24.909206 1.259683 2.356826 2.15365 3.332064 4.388571 3.332064 7.68 0 2.966349-.365714 4.266666-1.909841 6.501587-1.991112 2.844444-6.054604 5.241905-17.594921 10.24-13.206349 5.688889-18.895238 9.224127-24.096508 14.831746-3.006984 3.250794-5.851429 8.452063-7.029841 12.8-.975238 3.616508-1.219048 12.678095-.446984 16.335238 2.722539 12.759365 12.353015 21.658413 26.250158 24.299683 4.510477.853333 14.994286.528253 19.423492-.568889z" transform="matrix(1 0 0 -1 0 352.38048)"/></g></svg>