<svg height="256" preserveAspectRatio="xMidYMid" viewBox="0 0 256 256" width="256" xmlns="http://www.w3.org/2000/svg"><path d="m255.637396 127.683191c0 70.51336-57.165326 127.680187-127.683191 127.680187-70.5193663 0-127.68394107-57.166827-127.68394107-127.680187 0-70.5178655 57.16532547-127.683191 127.68394107-127.683191 70.518616 0 127.683191 57.1653255 127.683191 127.683191z" fill="#dd4814"/><path d="m41.1334194 110.63254c-9.4194487 0-17.0506511 7.631953-17.0506511 17.050651 0 9.414193 7.6312024 17.045396 17.0506511 17.045396 9.4141935 0 17.0453958-7.631203 17.0453958-17.045396 0-9.418698-7.6312023-17.050651-17.0453958-17.050651zm121.7148626 77.478662c-8.153713 4.709349-10.949443 15.129525-6.239344 23.278733 4.704094 8.153713 15.12427 10.948693 23.277983 6.239344 8.152962-4.704094 10.948692-15.12427 6.239343-23.278734-4.704094-8.148457-15.130276-10.943436-23.277982-6.239343zm-84.6864521-60.428011c0-16.846452 8.3676716-31.7297365 21.1714252-40.7422878l-12.4629208-20.8741349c-14.9148152 9.9697361-26.0121525 25.2043637-30.6239061 43.0470377 5.3812551 4.391039 8.8256187 11.075566 8.8256187 18.568634 0 7.488563-3.4443636 14.173091-8.8256187 18.564129 4.6057478 17.84793 15.703085 33.083308 30.6239061 43.053044l12.4629208-20.87939c-12.8037536-9.007296-21.1714252-23.88983-21.1714252-40.737032zm49.7923751-49.7976309c26.012904 0 47.354745 19.9447273 49.594933 45.3803169l24.290721-.3581c-1.195167-18.778088-9.398428-35.6358005-22.003237-48.031906-6.48183 2.4488915-13.968892 2.0742756-20.440211-1.6561173-6.482581-3.7409033-10.54705-10.051566-11.658135-16.9020059-6.300153-1.7386979-12.930628-2.6906276-19.785572-2.6906276-11.784258 0-22.925889 2.7679531-32.8182993 7.6642346l11.8450673 21.2262288c6.372223-2.9653959 13.480915-4.6320235 20.974733-4.6320235zm0 99.5900059c-7.493818 0-14.60251-1.667378-20.973982-4.632023l-11.8450676 21.225478c9.8924106 4.902287 21.0340406 7.670991 32.8190496 7.670991 6.854945 0 13.48542-.952681 19.784821-2.696634 1.111085-6.85044 5.177056-13.155096 11.658135-16.902756 6.475824-3.736399 13.958382-4.104258 20.440211-1.655367 12.60481-12.396105 20.808071-29.253818 22.003238-48.031906l-24.296727-.3581c-2.234933 25.442346-23.576024 45.380317-49.589678 45.380317zm34.888071-110.2308974c8.153712 4.7085983 18.574639 1.9196247 23.278733-6.234088 4.709349-8.1537126 1.920375-18.5746393-6.234088-23.284739-8.153713-4.7040938-18.573889-1.9091143-23.284739 6.2445983-4.703343 8.1492082-1.908364 18.5701349 6.240094 23.2742287z" fill="#fff"/></svg>