<svg height="256" preserveAspectRatio="xMidYMid" viewBox="0 0 256 256" width="256" xmlns="http://www.w3.org/2000/svg"><path d="m78.1568 0h148.60032c16.15104 0 29.24288 13.09184 29.24288 29.24288v146.31424c0 44.42624-36.01664 80.44288-80.44288 80.44288h-95.45216c-44.23936 0-80.10496-35.8656-80.10496-80.10496v-97.73824c0-43.16672 34.99008-78.1568 78.1568-78.1568" fill="#4fb74c"/><path d="m204.8 48.64v99.22048c0 32.86016-26.63936 59.49952-59.49952 59.49952h-32.73984c-33.88928 0-61.36064-27.47136-61.36064-61.35808v-70.6176c0-14.7712 11.97312-26.74432 26.74432-26.74432h9.09568v96.46592c0 16.00256 12.97152 28.97408 28.97408 28.97408h24.26624c15.83872 0 28.67968-12.84096 28.67968-28.67968v-70.45376c0-14.528 11.77856-26.30656 26.30656-26.30656z" fill="#fff"/></svg>