<svg height="146" preserveAspectRatio="xMidYMid" viewBox="0 0 256 146" width="256" xmlns="http://www.w3.org/2000/svg"><path d="m146.8822 122.2175c-42.006 0-65.441-22.838-65.982-64.309-.111-8.535.867-38.233 2.733-49.954 0 0 18.647-7.954 19.056-7.954.129 0 16.746 11.69 16.746 11.69-.893 10.003-1.32 40.609-1.254 45.73.326 24.898 10.184 37.523 29.292 37.521l.56-.003c24.466-.321 29.333-20.866 29.106-38.047-.043-3.478-1.024-37.417-1.754-44.879l18.251-11.778 18.655 8.169c.723 7.05 1.822 43.034 1.887 48.002.551 41.871-22.814 65.238-65.785 65.798-.509.012-1.011.014-1.511.014" fill="#8f9495"/><path d="m234.6783 72.0283s4.493 14.502 11.293-1.281 3.355-38.289 3.355-38.289 21.395 45.506-12.431 79.161c0 0-7.505 8.594-23.788 13.445 0 .003 25.506-21.495 21.571-53.036" fill="#496b8c"/><path d="m50.3265 90.2505c40.062 15.927 60.312 49.929 120.226 37.146 59.914-12.782 51.127-73.493 51.127-73.493s13.18 30.554-7.191 62.308c-17.862 27.846-72.493 50.329-142.592-2.795 0 0-40.742-34.351-71.897-16.375-.001-.001 17.673-19.773 50.327-6.791" fill="#4a5d75"/><path d="m82.8168 97.5017c-2.3-3.717-5.5-9.425-6.683-14.153 0 0-14.794-14.002-33.544-8.994-9.538 1.75-15.698 7.965-15.698 7.965 15.869-4.717 21.921-3.515 37.2 5.194 12.757 7.273 28.503 21.389 18.725 9.988" fill="#4b73a2"/></svg>