<svg height="160" preserveAspectRatio="xMidYMid" viewBox="0 0 256 160" width="256" xmlns="http://www.w3.org/2000/svg"><path d="m50.041631.00066756h63.77858c8.902916 0 14.440227 7.25664589 12.363347 16.18909814l-29.6934865 127.4856503c-2.095535 8.901361-11.0093325 16.164225-19.9184665 16.164225h-63.7723617c-8.8904793 0-14.44022774-7.262864-12.36334709-16.164225l29.70592239-127.4856503c2.0768807-8.93245225 10.9860147-16.18909814 19.8998124-16.18909814" fill="#e21836"/><path d="m108.513283.00066756h73.343735c8.90136 0 4.887509 7.25664589 2.793528 16.18909814l-29.688822 127.4856503c-2.083099 8.901361-1.433297 16.164225-10.353313 16.164225h-73.3437335c-8.920016 0-14.440228-7.262864-12.3446925-16.164225l29.6872675-127.4856503c2.1079715-8.93245225 10.998451-16.18909814 19.9060305-16.18909814" fill="#00447c"/><path d="m178.94783.00066756h63.778579c8.915353 0 14.452665 7.25664589 12.358684 16.18909814l-29.688822 127.4856503c-2.095535 8.901361-11.015552 16.164225-19.929349 16.164225h-63.749043c-8.920016 0-14.452664-7.262864-12.363347-16.164225l29.693485-127.4856503c2.076882-8.93245225 10.979797-16.18909814 19.899813-16.18909814" fill="#007b84"/><path d="m66.698338 40.8561434c-6.558652.0668457-8.495623 0-9.1143345-.1461278-.2378465 1.1301588-4.6636545 21.5460824-4.676091 21.5631824-.95294 4.130443-1.6462695 7.074763-4.001415 8.9759795-1.3369142 1.105286-2.8976838 1.638497-4.7071816 1.638497-2.9085656 0-4.6030267-1.444178-4.8875096-4.1832975l-.0544092-.9405035s.8860942-5.5326485.8860942-5.5637395c0 0 4.6449996-18.6048711 5.4766846-21.0641713.0435274-.1399096.0559638-.2129736.0668456-.2798193-9.0412708.0792821-10.6440133 0-10.7543864-.1461278-.0606276.2005371-.2844829 1.3540142-.2844829 1.3540142l-4.7429363 20.9693437-.4072925 1.778407-.7881575 5.817131c0 1.725552.3388922 3.1339755 1.0135675 4.324762 2.1608264 3.7760055 8.3246227 4.341862 11.8114814 4.341862 4.4926535 0 8.7070422-.9544945 11.5549802-2.6971465 4.9434735-2.921002 6.2368605-7.4867195 7.3903375-11.5440985l.5347655-2.0815445s4.7849095-19.3230737 5.5979395-21.8367833c.0310915-.1399096.0435275-.2129736.0855005-.2798193zm16.2803505 15.5881086c-1.1534775 0-3.261449.279819-5.1548925 1.2078865-.6871115.352883-1.336914.7601755-2.0224715 1.1659135l.6187115-2.2338905-.338892-.3762015c-4.0154065.8130305-4.913937.921849-8.6230965 1.4441785l-.3109105.206755c-.4306105 3.570805-.8130305 6.255515-2.4095545 13.2743145-.6078295 2.5867735-1.2389775 5.19842-1.87168 7.778975l.1710005.3280105c3.8008785-.200537 4.9543555-.200537 8.257777-.146128l.267383-.290701c.419729-2.1499445.474138-2.653619 1.40376-7.0079175.436829-2.0644445 1.347796-6.6006255 1.7970615-8.215804.8254665-.38242 1.6400515-.7586215 2.417327-.7586215 1.851471 0 1.626061 1.615179 1.5545515 2.2587635-.079282 1.080413-.7539575 4.609245-1.4457325 7.6390655l-.461702 1.9556255c-.321792 1.4441785-.6746755 2.847938-.9964675 4.27968l.1399095.2860375c3.746469-.200537 4.8890645-.200537 8.088331-.146128l.3762015-.290701c.578293-3.357831.747739-4.2563615 1.773743-9.145426l.516111-2.2463265c1.002686-4.3962715 1.5063605-6.625498.7477395-8.441214-.8021485-2.034908-2.726683-2.526146-4.494208-2.526146zm18.1870075 4.602871c-1.9913805.38242-3.261449.637366-4.5237445.8021485-1.251414.2005375-2.471737.38242-4.3962715.6498025l-.152346.138355-.1399095.1103735c-.200537 1.4332965-.340447 2.6722735-.606275 4.1288885-.22541 1.50636-.572075 3.217921-1.136377 5.6772215-.436829 1.8825615-.662239 2.5385825-.9109675 3.2008215-.24251.6622385-.5098925 1.305823-1.001131 3.1572935l.115037.171001.096382.1570095c1.798616-.0855005 2.9754115-.146128 4.1848525-.1570095 1.2078865-.0435275 2.4593 0 4.396271.0108815l.1694465-.138355.1818825-.152346c.279819-1.669588.321792-2.1188535.4927925-2.9334385.169446-.873658.461702-2.0830985 1.17835-5.3134565.3388925-1.517242.7166485-3.0298205 1.067977-4.578154.36532-1.542115.747739-3.0609115 1.111504-4.5781535l-.054409-.183437zm.042439-6.20608c-1.8094975-1.0679765-4.985446-.7290845-7.1229545.746185-2.1312895 1.4457325-2.3737995 3.4977405-.57052 4.579708 1.7784065 1.0384405 4.9667915.729085 7.0856445-.758621 2.126627-1.4768235 2.392455-3.510177.60783-4.567272zm10.943264 24.73369c3.660969 0 7.413656-1.008904 10.238276-4.00297 2.173263-2.428209 3.16973-6.0409865 3.514841-7.528692 1.123941-4.931037.248728-7.233328-.85034-8.635533-1.669588-2.1375085-4.620126-2.8230655-7.681038-2.8230655-1.840589 0-6.224424.1818825-9.6491 3.3391765-2.459301 2.2774175-3.595678 5.367866-4.281235 8.3308405-.691775 3.018939-1.487706 8.4536505 3.510177 10.476122 1.542115.662239 3.765124.8441215 5.198419.8441215zm-.286037-11.0948335c.844122-3.734032 1.840589-6.868008 4.383835-6.868008 1.992935 0 2.137508 2.3318275 1.251414 6.078296-.158564.831685-.886094 3.923688-1.870125 5.240393-.687112.9715945-1.500142 1.5607695-2.398673 1.5607695-.267383 0-1.857689 0-1.882562-2.3613635-.012436-1.1659135.22541-2.3567.516111-3.650087zm23.190798 10.6146325.286037-.290701c.405738-2.1499445.472584-2.655174 1.371115-7.0079175.449265-2.0644445 1.378886-6.6006255 1.815716-8.2158045.827021-.383974 1.627615-.7601755 2.429763-.7601755 1.839034 0 1.615179 1.615179 1.542116 2.258763-.066847 1.081968-.741521 4.609245-1.445734 7.6390655l-.436828 1.955626c-.334229 1.4457325-.697994 2.847938-1.019786 4.2812345l.13991.2860375c3.758905-.2005375 4.857972-.2005375 8.075894-.146128l.388638-.290701c.564302-3.3593855.716648-4.2579165 1.773743-9.145426l.503675-2.247881c1.007349-4.3962715 1.517241-6.6239435.771057-8.4396595-.825467-2.034908-2.762438-2.526146-4.50509-2.526146-1.155032 0-3.273885.2782645-5.156447 1.2078865-.67312.352883-1.347796.758621-2.010035 1.1659135l.576739-2.2338905-.309356-.377756c-4.013851.814585-4.931037.9234035-8.635533 1.445733l-.284483.206755c-.449265 3.5708045-.814585 6.2539605-2.411109 13.2743145-.607829 2.5867735-1.238977 5.1984195-1.870125 7.778975l.169446.3280105c3.807096-.2005375 4.943474-.2005375 8.240677-.146128zm27.617382.1453505c.236292-1.153477 1.640052-7.990394 1.652488-7.990394 0 0 1.19545-5.0165375 1.268515-5.19842 0 0 .376201-.522329.752402-.7290845h.55342c5.221739 0 11.118152 0 15.739833-3.399804 3.144858-2.331827 5.294802-5.7751585 6.25396-9.9600105.248729-1.026004.432166-2.2463269.432166-3.4666496 0-1.6027425-.321792-3.188385-1.251414-4.4273624-2.3567-3.2972035-7.04989-3.357831-12.467502-3.3827039-.0171 0-2.67072.0248729-2.67072.0248729-6.934853.0855003-9.715946.0606275-10.858541-.0792821-.096382.5052291-.278265 1.4037599-.278265 1.4037599s-2.484173 11.5130077-2.484173 11.5316622c0 0-5.944604 24.477966-6.224424 25.631443 6.054978-.0730635 8.537597-.0730635 9.582255.041973zm4.603027-20.451678s2.641183-11.4896892 2.628747-11.4461618l.085499-.5891749.03731-.4492654 1.05554.1088185s5.447148.46792 5.574622.4803565c2.149944.831685 3.036038 2.9754113 2.417327 5.7736036-.564302 2.557237-2.223008 4.707182-4.354298 5.745622-1.755089.879876-3.905034.95294-6.120269.95294h-1.433296zm16.444667 9.9045135c-.697994 2.975411-1.500143 8.410123 3.472867 10.347094 1.585642.674675 3.006502.875212 4.450681.8021485 1.525015-.0823915 2.938102-.8472305 4.247034-1.947853-.118145.4523745-.236291.904749-.354437 1.358678l.225409.290701c3.577023-.1507915 4.686973-.1507915 8.562469-.121255l.351329-.267383c.565857-3.32674 1.099068-6.5570975 2.569674-12.921431.716647-3.0484755 1.431741-6.067414 2.167044-9.103453l-.115036-.3342285c-4.001416.741521-5.070947.9000855-8.920017 1.445733l-.292255.237846c-.038864.309356-.079282.606275-.116592.9031945-.598502-.966931-1.465941-1.7923975-2.80441-2.306954-1.711562-.673121-5.731631.1943185-9.187399 3.3407305-2.428209 2.246327-3.594122 5.3243385-4.256361 8.276432zm8.403904.1818825c.856558-3.667187 1.840589-6.7700715 4.390054-6.7700715 1.612069 0 2.460854 1.4877055 2.288299 4.0247335-.1368.6327025-.284483 1.299605-.460148 2.0535625-.254945 1.0897405-.531656 2.1701535-.800593 3.2521215-.273602.7399665-.592284 1.43796-.942058 1.902771-.656021.9296215-2.21679 1.50636-3.115321 1.50636-.254947 0-1.828153 0-1.882562-2.3193905-.012437-1.1550315.22541-2.3442635.522329-3.6500865zm43.885763-12.1085565-.309355-.352883c-3.959443.8021485-4.676092.9296215-8.313741 1.42086l-.267384.2673825c-.012435.0435275-.023318.1103735-.041972.171001l-.012437-.0606275c-2.708028 6.247742-2.628746 4.899946-4.8331 9.8185465-.012437-.2238555-.012437-.363765-.024872-.6016115l-.551867-10.662668-.346665-.352883c-4.147542.8021485-4.245479.9296215-8.075894 1.42086l-.298473.2673825c-.041974.1274735-.041974.267383-.066846.419729l.024872.0544095c.478802 2.446864.363765 1.9012165.844122 5.762722.223855 1.894998.522329 3.800878.746184 5.672558.377757 3.132421.589176 4.674536 1.050877 9.4547815-2.586774 4.268798-3.199267 5.883977-5.689658 9.630446l.0171.037309-1.753534 2.7733195c-.200537.292256-.382419.492793-.637366.5782935-.279819.138355-.643584.1632275-1.148814.1632275h-.971594l-1.444178 4.803564 4.954355.0855005c2.908565-.0124365 4.736718-1.372669 5.720749-3.2008215l3.115321-5.3383295h-.049746l.328011-.3762015c2.095535-4.511308 18.035905-31.855867 18.035905-31.855867zm-52.289823 63.087581h-2.101754l7.778976-25.7293795h2.580555l.819248-2.65051.079282 2.9474295c-.096382 1.821934 1.336915 3.437113 5.102038 3.1697305h4.354298l1.498588-4.9543555h-1.638497c-.942058 0-1.378887-.2378465-1.324477-.747739l-.079283-2.99873h-8.063458v.0155455c-2.606982.0544095-10.392176.250283-11.968491.670012-1.907434.491238-3.91747 1.936971-3.91747 1.936971l.789712-2.6536195h-7.542683l-1.571651 5.2652655-7.88313 26.1226815h-1.529679l-1.500142 4.918601h15.023185l-.503675 1.640051h7.402773l.491239-1.640051h2.076881zm-6.163796-20.501423c-1.207886.3342285-3.455768 1.347796-3.455768 1.347796l1.999153-6.5757525h5.992796l-1.445733 4.7911275s-1.851471.1088185-3.090448.436829zm.115037 9.394154s-1.882562.236292-3.12154.516111c-1.220323.369984-3.508622 1.535897-3.508622 1.535897l2.064444-6.843135h6.023887zm-3.357831 11.167897h-6.01145l1.742652-5.775158h5.992795zm14.476914-15.959024h8.66507l-1.245196 4.032506h-8.780105l-1.318261 4.408708h7.682593l-5.81713 8.190931c-.407293.601612-.772613.814585-1.17835.984031-.407293.206755-.942058.449265-1.56077.449265h-2.13129l-1.464388 4.828437h5.574621c2.897684 0 4.609245-1.31826 5.873096-3.048476l3.988979-5.459584.856558 5.543531c.181882 1.038439.928067 1.646269 1.433296 1.882561.558084.279819 1.134823.760176 1.949408.831685.873657.037309 1.504805.066846 1.924534.066846h2.73912l1.644715-5.403621h-1.080413c-.620267 0-1.688243-.104155-1.870125-.298474-.181883-.236292-.181883-.600057-.27982-1.153477l-.868994-5.555967h-3.558369l1.560771-1.857688h8.763005l1.347796-4.408708h-8.113203l1.26385-4.032506h8.088331l1.500142-4.97301h-24.114201zm-73.18548 17.081877 2.022471-6.728098h8.312187l1.518796-5.004101h-8.319959l1.270069-4.141325h8.130303l1.506361-4.845537h-20.34286l-1.475269 4.845537h4.621681l-1.232759 4.141325h-4.634118l-1.535896 5.089601h4.620126l-2.695592 8.901361c-.363765 1.17835.171001 1.627615.509893 2.174817.346665.533211.697994.886094 1.487706 1.086631.814585.181883 1.372669.290701 2.13129.290701h9.370836l1.669588-5.54353-4.153762.570521c-.802148 0-3.023602-.096382-2.781092-.837903zm.953406-32.2084395-2.106417 3.8070965c-.45082.8316845-.856558 1.347796-1.221877 1.585642-.321792.2005375-.959158.284483-1.882562.284483h-1.099068l-1.469051 4.8704095h3.650087c1.755088 0 3.102884-.643584 3.746469-.9653765.691775-.369983.873657-.158564 1.408423-.674675l1.23276-1.067977h11.39797l1.512579-5.0709465h-8.343278l1.456615-2.768656zm16.827086 32.3062205c-.194319-.27982-.054409-.772612.24251-1.798616l3.115321-10.311339h11.082397c1.615179-.023318 2.781092-.041973 3.539713-.096382.814585-.085501 1.70068-.376202 2.666056-.898531.996468-.547202 1.50636-1.123941 1.936971-1.78618.480356-.660684 1.251414-2.106417 1.913653-4.335643l3.915915-13.048905-11.500571.066846s-3.541268.522329-5.100483 1.0990675c-1.573206.6435845-3.821088 2.440646-3.821088 2.440646l1.038441-3.577023h-7.104301l-9.946019 32.9860265c-.352883 1.280949-.589175 2.210571-.643584 2.768655-.018655.601612.758621 1.197005 1.262296 1.64627.595393.449266 1.475268.376202 2.31939.449266.887649.066846 2.149945.108818 3.892596.108818h5.459585l1.675806-5.658567-4.887509.461702c-.522329 0-.900085-.27982-1.057095-.516111zm5.367866-19.074346h11.640481l-.739966 2.319391c-.104155.054409-.352884-.115037-1.537452.024873h-10.079711zm2.331827-7.7789745h11.738417l-.844121 2.7935285s-5.532648-.054409-6.418742.1088185c-3.898816.6746755-6.176233 2.7577745-6.176233 2.7577745zm8.82923 17.8653705c-.096382.346665-.248728.558084-.461701.716648-.236293.152346-.618712.206755-1.189232.206755h-1.658707l.097937-2.824619h-6.899099l-.279819 13.80908c-.010882.996467.0855 1.573206.814585 2.034908.729084.576738 2.975411.649802 5.999013.649802h4.323208l1.56077-5.168883-3.76357.206755-1.251413.073064c-.171001-.073064-.334229-.13991-.516111-.321792-.158565-.15701-.425947-.060627-.38242-1.057095l.029536-3.539713 3.947007-.163228c2.13129 0 3.042257-.693331 3.819532-1.354015.741521-.632702.984031-1.360232 1.263851-2.344264l.662239-3.133975h-5.423831z" fill="#fefefe"/></svg>