<svg height="256" preserveAspectRatio="xMidYMid" viewBox="0 0 256 256" width="256" xmlns="http://www.w3.org/2000/svg"><path d="m128 0c-70.542 0-128 56.889-128 128s57.458 128 128 128 128-57.458 128-128-57.458-128-128-128" fill="#ad0"/><path d="m211.6176 124.4325c-.084-22.828-18.675-41.376-41.52-41.376-21.192 0-39.519 17.883-40.933 39.896-.39 3.764-.723 7.723-1.164 12.443 0 16.906-13.244 30.15-30.153 30.15-16.905 0-30.15-13.244-30.15-30.15 0-.182-.087-.335-.103-.513.009-.131.075-.242.075-.376v-28.444c0-3.142-2.547-5.689-5.688-5.689-3.142 0-5.689 2.547-5.689 5.689v28.444c0 .183.086.336.103.513-.009.131-.076.243-.076.376 0 22.9 18.631 41.528 41.528 41.528 22.642 0 41.079-18.218 41.492-40.763.558-4.364 1.02-8.592 1.164-12.368.983-16.188 14.258-29.358 29.594-29.358 16.906 0 30.15 13.245 30.15 30.153 0 .05-.535 29.436-.535 29.436-.059 3.144 2.439 5.739 5.58 5.8h.111c3.089 0 5.625-2.478 5.687-5.578 0 0 .529-29.733.527-29.813" fill="#fff"/></svg>