<svg height="269" preserveAspectRatio="xMidYMid" viewBox="0 0 256 269" width="256" xmlns="http://www.w3.org/2000/svg" xmlns:xlink="http://www.w3.org/1999/xlink"><defs><path id="a" d="m139.789 0-2.48 1.431v20.399l-95.893 55.364v14.061l-8.219-14.061-33.197 56.795h23.577v67.295l116.212 67.095 116.211-67.095v-134.189z"/><mask id="b" fill="#fff"><use fill="#fff" xlink:href="#a"/></mask></defs><use fill="#a4d43a" xlink:href="#a"/><path d="m35.577 73.823 104.212-60.167 104.211 60.167v120.333l-104.211 60.166-104.212-60.166z" fill="#62655d" mask="url(#b)"/><path d="m139.789 20.398-98.373 56.796v113.591l98.373 56.795z" fill="#3f4238" mask="url(#b)"/><path d="m139.789 0-2.48 1.431v20.63l2.88-1.663 98.372 56.796v113.591l-98.372 56.795-98.373-56.795v-56.796h24.579l-33.198-56.795-33.197 56.795h23.577v67.295l116.212 67.095 116.211-67.095v-134.189z" fill="#a4d43a" mask="url(#b)"/><path d="m78.327 139.189 47.729-19.998s10.092 34.155 15.199 40.263c42.93-65.728 83.46-81.06 83.46-81.06v51.196s-40.216 20.477-87.46 72.527c-25.664-45.129-58.928-62.928-58.928-62.928" fill="#f7f7f7" mask="url(#b)"/></svg>