<svg height="214" preserveAspectRatio="xMidYMid" viewBox="0 0 256 214" width="256" xmlns="http://www.w3.org/2000/svg" xmlns:xlink="http://www.w3.org/1999/xlink"><radialGradient id="a" cx="12.742981%" cy="35.526012%" gradientTransform="matrix(1 0 0 .71368 0 .101718)" r="90.674946%"><stop offset="0" stop-color="#231f20" stop-opacity=".1"/><stop offset="1" stop-color="#231f20" stop-opacity="0"/></radialGradient><radialGradient id="b" cx="49.972973%" cy="49.932432%" r="50%"><stop offset=".4" stop-color="#231f20" stop-opacity="0"/><stop offset="1" stop-color="#231f20" stop-opacity=".04"/></radialGradient><radialGradient id="c" cx=".621806%" cy="5.277281%" gradientTransform="matrix(.833262 0 0 1 .001037 0)" r="99.699745%"><stop offset="0" stop-color="#fff" stop-opacity=".1"/><stop offset="1" stop-color="#fff" stop-opacity="0"/></radialGradient><path d="m102.18259 50.7651805v162.2963905h52.123992v-162.2963905zm50.819533 160.9375795h-49.406369v-159.5787685h49.406369z" fill="#424242"/><path d="m.48917198 10.218259 23.42590232 40.5469215h78.2675157v162.2963905h52.178344v-162.2963905h78.050106l23.425903-40.5469215z" fill="#424242"/><path d="m255.021656 11.6314225.815287-1.4131635h-255.34777102l.86963906 1.4131635z" fill="#fff" opacity=".2"/><path d="m45.2755839 50.7651805h-21.3605096l6.6853503 11.57707h9.6203822c1.4675159-4.0220806 3.0980892-7.881104 5.0547771-11.57707zm165.2314221 0c1.902336 3.695966 3.587262 7.6093418 5.000425 11.57707h10.218259l6.68535-11.57707z" fill="#afafaf"/><circle cx="127.891295" cy="93.323142" fill="#4285f4" r="92.942675"/><path d="m40.7643312 60.929087h-10.9791932l.8152866 1.4131635h9.6203822c.2174098-.4891719.3804671-.9783439.5435244-1.4131635zm174.2539278 0c.163057.489172.326115.9239916.489172 1.4131635h10.218259l.815287-1.4131635zm-87.126964 123.977919c-51.091295 0-92.562208-41.253503-92.942675-92.2904455v.6522293c0 51.3087052 41.6339702 92.9426752 92.942675 92.9426752 51.308705 0 92.942675-41.63397 92.942675-92.9426752v-.6522293c-.380467 51.0369425-41.85138 92.2904455-92.942675 92.2904455z" fill="#263238" opacity=".3"/><path d="m127.891295 1.73927813c51.091295 0 92.562208 41.25350317 92.942675 92.29044587v-.6522293c0-51.3087049-41.63397-92.94267517-92.942675-92.94267517-51.3087048 0-92.942675 41.63397027-92.942675 92.94267517v.6522293c.380467-51.0369427 41.85138-92.29044587 92.942675-92.29044587z" fill="#fff" opacity=".2"/><circle cx="127.891295" cy="94.355839" fill="#263238" opacity=".3" r="60.874735"/><path d="m220.236093 103.921868-40.275159-40.2751589-6.68535 3.8590234-26.197877-26.1978769-18.534183 48.3736731-8.968152 38.4815283 8.098513 27.067516 27.121869 27.121869c34.94862-10.598727 61.200849-41.144799 65.440339-78.430574z" fill="url(#a)"/><path d="m127.673885 34.5138004v60.3312102l26.741402-35.7095541c-1.467516-15.2730361-12.2293-24.6216561-26.741402-24.6216561zm-52.7762205 29.8938429 52.7762205 30.4373673-17.555838-40.9273885c-13.9685778-6.3592357-27.9371553-2.0653928-35.2203825 10.4900212zm.489172 60.6573247 52.2870485-30.2199574-44.1885347-5.2178344c-12.555414 8.9138004-15.381741 22.8823778-8.0985138 35.4377918z" fill="#e8e8e8"/><path d="m127.673885 155.230573v-60.3312099l-26.632696 34.6225049c1.413163 15.273036 12.066242 25.708705 26.632696 25.708705zm17.555839-19.458174c13.968577 6.413588 27.991507 1.087049 35.220382-11.468365l-52.721868-30.8721869z" fill="#d6d6d6"/><path d="m179.960934 64.6794055-52.287049 30.2199576 44.188535 5.2178339c12.501062-8.9681524 15.381741-22.9367299 8.098514-35.4377915z" fill="#d6d6d6"/><path d="m127.673885 93.8123142v-60.3312102c14.512102 0 25.165181 9.4029724 26.632697 24.730361zm0 0-52.2870485-30.2199575c7.3375796-12.555414 20.8169852-17.1210191 34.7312105-10.707431z" fill="#fff"/><path d="m127.673885 93.8123142-52.2870485 30.2199578c-7.2832272-12.555414-4.4025478-26.5239917 8.0985138-35.4377922z" fill="#fff"/><path d="m127.673885 93.8123142v60.3312098c-14.512102 0-25.16518-9.402972-26.632696-24.730361zm0 0 52.287049 30.2199578c-7.283227 12.555414-20.762633 17.121019-34.73121 10.707431z" fill="#e8e8e8"/><path d="m127.673885 93.8123142 52.287049-30.2199575c7.283227 12.555414 4.402548 26.5239915-8.098514 35.4377919z" fill="#e8e8e8"/><circle cx="127.619533" cy="93.05138" fill="#fff" r="20.110403"/><circle cx="127.619533" cy="93.05138" fill="url(#b)" r="20.110403"/><path d="m169.470913 10.218259c-12.501062-6.25053076-26.632696-9.83779191-41.579618-9.83779191-14.946921 0-29.0785561 3.53290871-41.5796177 9.83779191h-85.82250532l.38046709.7065818.43481953.7609341 22.6106157 39.133758 5.8700637 10.1639066.8152866 1.4131635h9.6203822c-3.4242038 9.6747346-5.3265393 20.1104034-5.3265393 30.9808917 0 42.3949043 28.426327 78.2131633 67.2339705 89.3554143v30.328662h52.123991v-30.600425c38.427177-11.414012 66.473036-46.960509 66.473036-89.1380037 0-10.8704884-1.847983-21.3061572-5.326539-30.9808918h10.218259l6.68535-11.57707 23.425903-40.5469215zm-125.5541402 43.2645435c-.0543524.0543525-.0543524.1087049-.1087049.2174098 0-.0543524.0543525-.1087049.1087049-.2174098zm-1.3044586 2.8806795c0 .0543524-.0543524.1087048-.0543524.1630573 0-.1087049 0-.1087049.0543524-.1630573zm169.2535028-2.8806795c.054353.0543525.054353.1087049.108705.2174098 0-.0543524-.054352-.1087049-.108705-.2174098zm1.304459 2.8806795c0 .0543524.054352.1087048.054352.1630573 0-.1087049 0-.1087049-.054352-.1630573z" fill="url(#c)"/></svg>