<svg height="224" preserveAspectRatio="xMidYMid" viewBox="0 0 256 224" width="256" xmlns="http://www.w3.org/2000/svg"><path d="m0 24.7283265 31.4667955 58.853417 18.7935281-.1236416v-42.038155z" fill="#9a9a9a"/><path d="m205.059647 41.4199469-1.916445 42.038155h20.46269l32.146825-58.1115672z" fill="#9a9a9a"/><path d="m189.233518 25.3465347-40.801738 70.4757305-43.274572.6182081-40.1835301-71.7121468h-64.91185708l20.40086938 38.3289061h17.3098285l34.0014489 59.9661914 54.4023184 100.767931 53.165902-95.822265 36.474281-64.9118574h19.164453l21.019078-37.7106979zm-62.748128 128.5872973c-12.803462 0-23.182806-10.379282-23.182806-23.182806 0-12.803462 10.379344-23.182806 23.182806-23.182806 12.803524 0 23.182806 10.379344 23.182806 23.182806 0 12.803524-10.379282 23.182806-23.182806 23.182806z" fill="#4d4d4d"/><path d="m168.973972 83.593675c6.44958-8.711604 10.26411-19.4910524 10.26411-31.161648 0-28.9573648-23.479794-52.432027-52.443588-52.432027-28.963856 0-52.4435875 23.4746622-52.4435875 52.432027 0 11.6705956 3.8145299 22.450044 10.2641102 31.1617098-12.8179281 11.5394735-20.8777552 28.2594692-20.8777552 46.8621572 0 34.817854 28.2317122 63.043261 63.0572325 63.043261 34.82552 0 63.057233-28.225407 63.057233-63.043261 0-18.602688-8.059766-35.3226837-20.877755-46.862219zm-41.870374-44.0283526c6.999291 0 12.673267 5.6739763 12.673267 12.6732673s-5.673976 12.6732673-12.673267 12.6732673-12.673267-5.6739763-12.673267-12.6732673 5.673976-12.6732673 12.673267-12.6732673zm-.309104 108.8046366c-9.901345 0-17.928037-8.026691-17.928037-17.928037 0-9.901345 8.026692-17.928036 17.928037-17.928036 9.901346 0 17.928037 8.026691 17.928037 17.928036 0 9.901346-8.026691 17.928037-17.928037 17.928037z" fill="#3f89ec"/></svg>