<svg height="124" preserveAspectRatio="xMidYMid" viewBox="0 0 512 124" width="512" xmlns="http://www.w3.org/2000/svg"><path d="m290.780729 25.6796444c0 5.3111467-4.146062 7.9917512-7.992889 7.9917512h-.882916c-3.847964 0-7.992888-2.6806045-7.992888-7.9917512v-1.1946666c0-5.3111467 4.146062-7.9928889 7.992888-7.9928889h.882916c3.847964 0 7.992889 2.6806044 7.992889 7.9928889zm-164.124445 53.3230934c4.507876.5791289 6.784569 4.3758933 6.784569 7.9177955 0 3.8479645-2.680604 7.9928889-7.992889 7.9928889h-6.785706c-2.804622 0-5.333902-1.5621689-6.764089-3.8263466-4.471467 2.6532977-9.714347 4.1733688-15.3713779 4.1733688-15.9448178 0-29.4456889-13.3131377-29.4456889-29.4491022 0-16.5455644 12.8944356-30.4651378 29.7858845-30.4651378 16.1063823 0 29.5401243 12.8785067 29.7870223 29.0030934zm-16.411306-13.9946667c0-7.2578844-6.040462-13.17888-13.3757158-13.17888-7.50592 0-13.3757155 6.1872356-13.3757155 13.7671111 0 7.1907556 6.0689066 13.1811556 13.17888 13.1811556 7.6424533-.0011378 13.5725513-6.1292089 13.5725513-13.7693867zm119.864889-13.3563733c-7.256747 0-13.17888 6.0416-13.17888 13.3768533 0 7.5070578 6.186097 13.3757156 13.767111 13.3757156 7.190755 0 13.181155-6.0689067 13.181155-13.17888.001138-7.6435911-6.129209-13.5736889-13.769386-13.5736889zm30.252373 27.2190578c4.511289.5779911 6.785707 4.3747555 6.785707 7.9189333 0 3.8479644-2.680605 7.9928889-7.991751 7.9928889h-6.786845c-2.851271 0-5.422649-1.6167822-6.84032-3.9480889-4.312178 2.5179022-9.309298 3.9799467-14.615893 3.9799467-16.545565 0-30.465138-12.8944356-30.465138-29.7858845 0-16.2542933 13.111751-29.7892978 29.445689-29.7892978 5.229227 0 10.166044 1.2754489 14.481635 3.55328v-15.5352177c0-5.3111467 4.146063-7.1998578 7.992889-7.1998578 3.846827 0 7.992889 1.8875733 7.992889 7.1998578v41.1693511 1.6839111 12.7601778zm-234.9806933 11.78624-16.35555559-38.8767289h-1.024c-5.31797333 0-8.00199111-4.1494756-8.00199111-8.0019911 0-3.8513778 2.68401778-8.0019912 8.00199111-8.0019912h6.33855999c3.3917156 0 6.2816711 2.2004623 7.3875911 4.9277156l12.5292089 32.8328533 12.55424-32.8863289c1.1355022-2.5406577 3.9094045-4.87424 7.3648356-4.87424h6.33856c5.3179733 0 8.0019911 4.1494756 8.0019911 8.0019912 0 3.8525155-2.6840178 8.0019911-8.0019911 8.0019911h-1.024l-16.3544178 38.8767289c-1.1298133 2.6237155-3.1550578 4.8901688-8.8587378 4.8901688-5.7332622 0-7.7630578-2.2596266-8.8962844-4.8901688zm167.4057953-11.6542578c4.507876.5791289 6.784569 4.3758933 6.784569 7.9177955 0 3.8479645-2.680604 7.9928889-7.992889 7.9928889h-6.784569c-2.80576 0-5.333902-1.5621689-6.764089-3.8263466-4.472604 2.6532977-9.714346 4.1733688-15.37024 4.1733688-15.944817 0-29.445688-13.3131377-29.445688-29.4491022 0-16.5455644 12.894435-30.4651378 29.785884-30.4651378 16.106382 0 29.540124 12.8785067 29.785884 29.0030934zm-16.411306-13.9946667c0-7.2578844-6.040463-13.17888-13.376854-13.17888-7.50592 0-13.374578 6.1872356-13.374578 13.7671111 0 7.1907556 6.067769 13.1811556 13.17888 13.1811556 7.642454-.0011378 13.572552-6.1292089 13.572552-13.7693867zm146.648177-2.8239644-.038684 26.0334933c0 5.3111467-3.865031 6.6958222-8.922453 6.6958222-3.847965 0-7.991752-1.3846755-7.991752-6.6958222-.036408-.5154133-.055751-35.1095467-.055751-35.1095467-4.511289-.5768533-6.785706-4.3747555-6.785706-7.9189333 0-3.8479644 2.680604-7.9928889 7.992889-7.9928889h6.785706c2.770489 0 5.286116 1.5291733 6.72768 3.76832 4.619378-3.7637689 11.088782-5.7571555 17.195236-5.7571555 17.07008 0 27.567218 12.5474133 27.616142 28.12928l.012516 15.6398933c4.512426.5779911 6.786844 4.3758933 6.786844 7.9200711 0 3.8479644-2.680604 7.9928889-7.992889 7.9928889h-.882915-5.902792-.884053c-4.301938 0-7.991751-3.6909511-7.991751-7.9928889v-2.1435733l.007964-22.3391289c0-7.0747022-4.627342-12.5212445-12.972942-12.5212445-6.66624 0-12.703289 5.5478045-12.703289 12.2914134zm-33.831822 32.7293155h-5.901653-.884054c-4.301937 0-7.992888-3.6909511-7.992888-7.9928889v-41.8133333c0-5.3122844 4.146062-7.9928889 7.992888-7.9928889h.884054c3.846826 0 7.991751 2.6806045 7.991751 7.9928889v33.8932622c4.512427.5779911 6.785707 4.3758934 6.785707 7.9200711 0 3.8479645-2.679467 7.9928889-7.992889 7.9928889z"/><path d="m507.457991 69.8026667-43.25376 14.60224v.9147733c0 4.7479467-3.704604 7.1429689-7.142969 7.1429689-3.438364 0-7.144106-2.3950222-7.144106-7.1429689v-5.6593067c0-3.0287644 1.964942-5.6092444 4.399786-6.5956977l37.85728-11.1866312-37.905066-11.2082488c-2.268729-1.0148978-4.352-3.4895645-4.352-6.5752178v-5.6581689c0-4.7479467 3.705742-7.1441067 7.144106-7.1441067 3.438365 0 7.142969 2.3950222 7.142969 7.1441067v.9136355l43.25376 14.6011023c2.341547 1.0092089 4.364516 2.8171377 4.364516 7.9086933 0 5.1177244-2.01728 6.9313422-4.364516 7.9428267zm-97.072924 33.6076803v-27.429547c0-12.4814222 9.599431-13.4417067 14.399715-13.8524444-4.801422-.6872178-14.399715-1.6463645-14.399715-14.1255112v-27.4318222c0-5.7594311-2.605511-8.2284089-6.445511-8.2284089h-3.4304c-3.566934 0-6.171307-1.9194311-6.171307-6.17130663 0-3.97653334 2.604373-6.17130667 6.171307-6.17130667h10.150115c11.9296 0 17.830116 5.62289778 17.830116 18.2408533v27.9790934c0 8.3649422 3.56352 9.1898311 6.992782 9.1898311 4.527218 0 6.58432 3.2893155 6.58432 6.5820444 0 3.2915911-2.05824 6.58432-6.58432 6.58432-3.4304 0-6.992782.8226134-6.992782 9.1886934v27.9779554c0 12.619093-5.900516 18.241991-17.830116 18.241991h-10.150115c-3.566934 0-6.171307-2.195911-6.171307-6.172444 0-4.251876 2.604373-6.173582 6.171307-6.173582h3.4304c3.84 0 6.445511-2.46784 6.445511-8.228409z" fill="#00b4f0"/></svg>