<svg height="313" preserveAspectRatio="xMidYMid" viewBox="0 0 256 313" width="256" xmlns="http://www.w3.org/2000/svg"><path d="m255.28 19.1658667c-1.842133-1.5104-16.318933-9.27360003-16.318933-9.27360003l-15.447467 8.97493333-.008533-.0053333 15.447466-8.9738667-15.442133-9.2032-.005333 18.1770667-16.110934-9.01760003s-13.178666 7.70346663-19.5776 11.39626663c-8.0544 4.6474667-27.809066 16.4096-27.809066 16.4096v17.3696l-16.274134 42.4v23.0229337l-11.421866 6.666666-4.545067 11.889067-32.0277333-83.0848.0053333-18.2208-63.8293333-37.02826667-31.88373337 18.45653337-.03093333-.0074667v18.7765333l19.8837333 47.8912 12.0832 7.1168.0106667 21.8399997 47.9008 116.343467 47.872 27.396267v.157866l47.809067-27.666133 79.893333-193.4613333z" fill="#3185b8"/><path d="m127.7856 258.498133-47.9072-27.416533-47.9008-116.343467-.0106667-21.8399997-12.0832-7.1168-19.8837333-47.8912v-18.7765333l15.7333333 9.1733333v18.4842667l16.2613334 9.4368.0021333-18.592 31.7717333 18.3829333 1.5317334 18.1984 46.1888003 119.8911997 32.0992 18.698667v36.667733l-15.847467-9.3216z" fill="#3185b8"/><path d="m95.7386667 55.9136 32.0277333 83.0848-.066133 45.7664-16.2336 9.233067-46.1664003-119.933867-1.5317334-18.0650667 31.9754667-18.3061333z" fill="#61a5ce"/><path d="m15.7333333 28.2869333v18.4842667l16.2634667-9.1552z" fill="#61a5ce"/><path d="m31.9946667 56.208.0021333-18.592-16.2634667 9.1552z" fill="#eae9e6"/><path d="m127.700267 184.7648 16.010666 9.1616 17.826134-44.757333 13.728 8.168533v-42.894933l4.379733-10.356267 11.688533 6.8448v-18.1333333l-15.911466-9.2448 16-9.2885334-15.733334-9.0666666-.0416-18.4298667-15.639466-9.1178667v17.3696l-16.274134 42.4v23.0229337l-11.421866 6.666666-4.545067 11.889067z" fill="#3185b8"/><path d="m127.480533 203.5008 16.107734 9.2864-.08 36.676267 32.0512-18.493867 79.893333-193.4613333-.1728-18.3424-47.885867 27.6021333v36.8245333l-16.0608 9.2053334v18.1333333l-11.688533-6.8448-4.379733 10.356267v42.805333l-22.244267 13.080533-9.309867 23.597867z" fill="#61a5ce"/><path d="m63.6672 74.3978667 16.0661333-9.3333334v18.4661334z" fill="#eae9e6"/><path d="m79.7333333 83.5306667 15.9328 9.0005333v-18.1333333l-15.9328-9.3333334z" fill="#3185b8"/><path d="m47.8453333 120.196267v18.599466l16.0864-9.256533z" fill="#61a5ce"/><path d="m79.9882667 138.882133-16.1429334 9.399467-16-9.485867 16.0864-9.256533z" fill="#eae9e6"/><path d="m79.7706667 194.133333v18.757334l16.1696-9.349334z" fill="#61a5ce"/><path d="m111.522133 230.8832 16.286934 9.466667.058666-19.051734z" fill="#eae9e6"/><path d="m127.7504 258.635733.058667-18.285866 15.6992 9.1136z" fill="#61a5ce"/><path d="m127.700267 184.7648-16.2336 9.233067 16.013866 9.502933 16.2304-9.5744z" fill="#eae9e6"/><path d="m207.394133 83.5925333v-36.8245333l-15.853866-9.0250667v18.3466667l-15.851734 9.1082667z" fill="#3185b8"/><path d="m175.421867 83.5530667 16-9.2885334 15.972266 9.328-16.0608 9.2053334z" fill="#eae9e6"/><path d="m175.688533 65.1978667 15.851734-9.1082667v-18.3466667l-15.893334 9.0250667z" fill="#61a5ce"/><path d="m223.505067 18.8629333.005333-18.1781333 15.442133 9.2032z" fill="#3185b8"/><path d="m255.28 19.1658667-47.885867 27.6021333-15.853866-9.0250667-15.893334 9.0250667-15.639466-9.1178667s19.754666-11.7621333 27.809066-16.4096c6.398934-3.6928 19.5776-11.39626663 19.5776-11.39626663l16.119467 9.02293333 15.447467-8.97493333s14.4768 7.76320003 16.318933 9.27360003c-4.356267 2.5450666 0 0 0 0" fill="#eae9e6"/><path d="m95.744 37.6928-31.9754667 18.3061333-63.73759997-36.8778666 31.88373337-18.45653337z" fill="#eae9e6"/><path d="m239.204267 46.3477333v-17.9157333l-15.579734 8.9898667z" fill="#3185b8"/><path d="m191.979733 129.6384 15.502934-8.893867v17.837867z" fill="#3185b8"/><path d="m159.582933 203.378133v18.484267l16.148267-9.341867z" fill="#eae9e6"/><path d="m175.831467 212.520533-.199467-18.334933-16.049067 9.192533z" fill="#3185b8"/><path d="m17.4165333 311.466667h6.9290667l13.1413333-39.7824h-4.9578666l-11.648 35.3024-11.64800003-35.3024h-4.95786667zm39.9018667-39.7824h-6.9290667l-13.44 39.7824h5.1968l3.2256-9.557334h16.9045334l3.2853333 9.557334h5.1968zm3.6437333 25.745066h-14.2165333l7.1082667-22.0416zm20.3690667-14.336c0-5.376 1.9712-7.3472 8.5418667-7.3472 3.2853333 0 6.8693333.3584 10.6922663 1.015467l.597334-4.420267c-3.703467-.836266-7.645867-1.2544-11.050667-1.2544-9.9157333 0-13.9178667 3.703467-13.9178667 11.767467v17.501867c0 7.3472 3.1061334 11.707733 13.2608 11.707733 4.1216 0 8.7210667-.597333 12.6037337-1.732267v-17.143466h-4.957867v13.499733c-2.7477333.5376-5.376.7168-7.4666667.7168-6.8096 0-8.3029333-2.269867-8.3029333-7.3472zm55.074133 28.373334h5.9136l-10.333866-14.993067c4.599466-1.314133 6.331733-4.539733 6.331733-9.258667v-5.7344c0-6.0928-2.986667-9.796266-11.528533-9.796266h-15.172267v39.7824h5.137067v-14.395734h9.736533zm-3.2256-29.9264v5.7344c0 3.882666-1.672533 5.256533-6.570666 5.256533h-9.856v-16.247467h9.856c4.898133 0 6.570666 1.314134 6.570666 5.256534zm33.629867-9.856h-6.929067l-13.44 39.7824h5.1968l3.2256-9.557334h16.904534l3.285333 9.557334h5.1968zm3.643733 25.745066h-14.216533l7.108267-22.0416zm38.766934 14.037334h7.048533v-39.7824h-4.898133v34.048l-17.322667-34.048h-7.048533v39.7824h4.898133v-33.8688zm25.207466 0h5.137067v-35.182934h11.886933v-4.599466h-28.910933v4.599466h11.886933z" fill="#3285b7"/></svg>