<svg height="198" preserveAspectRatio="xMidYMid" viewBox="0 0 512 198" width="512" xmlns="http://www.w3.org/2000/svg"><g fill="#00aa7f"><path d="m470.24121 105.032137c8.674089 0 12.777127 4.622076 12.777127 10.33677 0 7.572674-7.051877 20.407863-40.440962 20.789663 1.319587-18.322914 13.350707-31.126433 27.663835-31.126433zm-24.570722 50.341389c38.086818 1.011684 66.317196-13.458035 66.317196-41.778145 0-20.8899514-16.123602-36.1496628-41.547657-36.1496628-34.092865 0-51.828123 26.2070108-58.920467 54.1893058-4.136467 16.355849-10.442337 37.835217-23.054075 37.835217-7.884097 0-10.051739-7.882337-10.051739-17.735258v-32.908756c0-26.9970036-13.202914-41.3805088-33.894048-41.3805088-18.326433 0-32.502323 11.033512-40.579959 24.4317248l-.788234-22.6599585h-26.601127s-2.948838 90.2527565-32.713457 90.2527565c-10.247038 0-13.597031-11.638763-13.597031-24.829361v-65.4233955h-26.009952c-13.794089 15.5676152-32.301746 20.2970172-46.097594 20.2970172-24.829361 0-43.944028-17.3411409-43.944028-47.4928385 0-14.777622 5.714694-22.4629003 13.794089-22.4629003 7.685279 0 12.808798 6.8970447 12.808798 20.8881924 0 7.9544743-2.130694 16.6725499-3.701883 21.8312578 0 0 7.651848 13.347189 28.571711 9.251189 4.442612-9.8634777 6.858337-22.6353265 6.858337-33.8412646 0-30.1499382-15.372316-47.6881375-43.55167-47.6881375-28.967588 0-45.9146121 22.2676014-45.9146121 51.6310653 0 29.0872302 13.5987904 54.0555877 36.0194641 65.4321927-9.427134 18.861306-21.4265844 35.474034-33.9362751 47.992522-22.7004261-27.442144-43.2244124-64.052783-51.6451409-135.4970171h-33.491134c15.4726048 118.9880961 61.5860344 156.8743371 73.7772646 164.1496631 6.8970447 4.138227 12.8369485 3.941169 19.1428179.392358 9.9004265-5.628482 39.6228175-35.349114 56.1000685-70.161595 14.78466-.038708 35.931492-3.529457 49.495093-13.788811v33.899326c0 38.229334 14.582323 53.008715 37.242282 53.008715 18.178639 0 32.212014-14.170611 39.015807-30.069003v27.901361h31.334048v-32.910516c0-37.636398 12.597664-55.962831 28.364097-55.962831 8.865869 0 12.611738 5.911752 12.611738 20.888192v29.95288c0 25.420536 13.398214 40.199917 33.498172 40.199917 16.515959 0 31.341086-12.882694 37.175423-29.175203 9.958488 20.589086 32.885883 29.175203 52.880275 29.175203 15.106639 0 27.419271-3.13534 37.013553-8.850034v-28.571711c-8.116343 5.526433-18.131134 10.227683-32.676508 10.227683-13.873265 0-24.327918-4.395106-29.303643-14.490831z"/><path d="m216.185402 62.8616357c12.018804 0 20.295258-9.0646872 20.295258-20.691134 0-11.6264467-8.276454-20.4940756-20.295258-20.4940756-12.020564 0-20.099959 8.0793952-20.099959 20.4940756s8.079395 20.691134 20.099959 20.691134"/></g></svg>