<svg height="83" preserveAspectRatio="xMidYMid" viewBox="0 0 256 83" width="256" xmlns="http://www.w3.org/2000/svg" xmlns:xlink="http://www.w3.org/1999/xlink"><linearGradient id="a" x1="45.974197%" x2="54.876873%" y1="-2.006175%" y2="100%"><stop offset="0" stop-color="#222357"/><stop offset="1" stop-color="#254aa5"/></linearGradient><path d="m132.397094 56.2397455c-.146058-11.5154647 10.262446-17.9419856 18.103417-21.7625369 8.056213-3.9204853 10.762116-6.4342082 10.731367-9.9395833-.061498-5.3656837-6.426521-7.7333493-12.384121-7.825596-10.393129-.1614318-16.43529 2.8058375-21.239805 5.0505075l-3.743679-17.51918805c4.81989-2.22160832 13.74476-4.15878926 23.00018-4.24334875 21.7241 0 35.937781 10.7236802 36.014654 27.3511501.084559 21.1014353-29.188397 22.2698937-28.98853 31.7021199.069185 2.859648 2.798151 5.911477 8.778812 6.6878865 2.959582.3920485 11.131104.6918505 20.394211-3.57456l3.636058 16.9503335c-4.981323 1.814185-11.384782 3.5514985-19.356435 3.5514985-20.448021 0-34.830821-10.8697375-34.946129-26.428683m89.241006 24.96811c-3.966609 0-7.310552-2.313855-8.801874-5.8653535l-31.033332-74.09717139h21.708727l4.320221 11.93826199h26.528617l2.506035-11.93826199h19.133506l-16.696655 79.96252489zm3.036454-21.601105 6.265089-30.0263049h-17.157888zm-118.598523 21.601105-17.1117645-79.96252489h20.6863245l17.104078 79.96252489zm-30.602846 0-21.53192-54.4255602-8.7096273 46.2771007c-1.022401 5.1658155-5.0581946 8.1484595-9.5398474 8.1484595h-35.19980784l-.49198246-2.3215425c7.22599245-1.568194 15.4359498-4.0972915 20.409585-6.803195 3.0441415-1.6527535 3.912798-3.097952 4.9121374-7.0261245l16.496787-63.81166289h21.8624706l33.5163055 79.96252489z" fill="url(#a)" transform="matrix(1 0 0 -1 0 82.668428)"/></svg>