<svg height="89" preserveAspectRatio="xMidYMid" viewBox="0 0 256 89" width="256" xmlns="http://www.w3.org/2000/svg"><path d="m210.82353 0c24.950276 0 45.17647 19.7187264 45.17647 44.0430108 0 24.3242843-20.226194 44.0430107-45.17647 44.0430107-21.014752 0-38.678188-13.9886771-43.727611-32.9357309l4.00474 2.5354579 2.077109-3.1182187c4.686597 15.9627542 19.766671 27.6460903 37.645762 27.6460903 21.623573 0 39.15294-17.0895627 39.15294-38.1706093 0-21.0810467-17.529367-38.17060937-39.15294-38.17060937-1.850676 0-3.671362.12518049-5.453635.36733008l3.786296-5.68410186-.777482-.49223439c.809468-.04208452 1.624591-.06339526 2.444821-.06339526z" fill="#bf3078"/><path d="m165.647059 0h45.176471l-60.235295 88.0860215-22.588235-33.0322581-22.588235 33.0322581-22.8428234-33.4045587 3.5722218-5.3627278 19.2706016 28.1806642 17.576356-25.703058 5.011879-7.3292 5.011879 7.3292 17.576356 25.703058 48.980227-71.62699777h-33.921403-50.565412l3.911726-5.87240143z" fill="#802050"/><path d="m60.2352941 88.0860215-60.2352941-88.0860215h120.470589zm0-10.5866223 48.9802269-71.62699777h-97.9604534z" fill="#26134d"/></svg>