<svg height="147" preserveAspectRatio="xMidYMid" viewBox="0 0 512 147" width="512" xmlns="http://www.w3.org/2000/svg"><path d="m47.2713464 62.5974989c-5.954905 17.5202162 4.6261245 37.3042806 26.4279666 54.9229251-48.4758792-20.7683463-79.82525486-51.1826542-72.68921173-77.1184799 9.89203223-35.92628614 89.71728703-49.6570174 170.67446573-34.00693661 71.606502 13.82915941 123.576582 54.18471371 134.256039 82.53202981-23.622763-21.3589153-59.79512-42.963901-104.087801-54.0862855-73.771922-18.6029262-143.0161473-6.1517613-154.5814586 27.7567471zm90.2586416 81.6461761h-24.902329l-32.4813001-100.3967446h22.6384821l22.343197 70.6222196h.295284l22.638482-70.6222196h22.786124zm100.249103 0h-18.996639v-10.138103h-.442927c-2.509918 4.232412-5.807263 7.283686-9.842818 9.153821-4.035555 1.870136-8.169539 2.805203-12.352737 2.805203-5.364336 0-9.74439-.688997-13.140162-2.116205-3.444986-1.427209-6.102547-3.395773-8.071111-5.954905-1.968563-2.559133-3.346558-5.708835-4.133983-9.399892-.787426-3.691056-1.181139-7.82504-1.181139-12.303522v-44.7356086h19.980921v41.0445516c0 6.004119.935068 10.482601 2.805203 13.435447 1.870136 2.952845 5.216694 4.429268 9.990461 4.429268 5.41355 0 9.399891-1.624065 11.811382-4.872195 2.460704-3.24813 3.641842-8.563252 3.641842-15.945366v-38.0917056h19.980921v72.6892116zm13.23859-85.2880188c6.889973 3.3957722 13.533875 7.086829 19.980921 11.0239563v74.2148485h-19.980921zm54.972139 85.2880188h-19.98092v-63.8306753c6.397831 3.5434145 14.813441 10.0888885 19.98092 16.3882921zm24.65626-46.0151745 30.512736 46.0151745h-24.213333l-27.658319-43.751326-.049214-2.8052035 25.197615-26.1818962h23.622763zm-24.607046-21.6541999c-4.724552-7.4805418-11.466883-15.207154-19.98092-22.835338v-9.9412463h19.98092zm58.761625 17.3233599c.295284-4.6753386 1.476422-8.5632518 3.543414-11.6637395s4.675339-5.5611922 7.874255-7.4313276c3.198915-1.8701355 6.791544-3.1989159 10.777885-3.9863414 3.986342-.7874254 7.972683-1.1811382 12.008239-1.1811382 3.641842 0 7.382113.2460705 11.122384.7874255s7.185257 1.5256368 10.285745 3.0020595c3.100488 1.5256368 5.610406 3.5926286 7.57897 6.2501895 1.968563 2.6575609 2.952845 6.2009754 2.952845 10.6302436v37.8456361c0 3.297344.196857 6.447045.541355 9.399891.393713 3.002059 1.033496 5.265907 1.968564 6.74233h-20.276205c-.393713-1.131924-.688998-2.263848-.935068-3.444986-.246071-1.181138-.393713-2.362276-.492141-3.592629-3.198916 3.297344-6.939187 5.561192-11.270027 6.889973-4.33084 1.32878-8.710894 1.968564-13.23859 1.968564-3.444986 0-6.693116-.442927-9.695176-1.279567-3.002059-.836639-5.610406-2.16542-7.874254-3.937127-2.263849-1.771707-4.035556-4.035555-5.265908-6.74233-1.279566-2.706775-1.91935-5.954905-1.91935-9.695176 0-4.133984.738212-7.529756 2.16542-10.187317 1.476423-2.657561 3.346558-4.822981 5.610407-6.397832 2.313062-1.574851 4.921409-2.805203 7.874254-3.592628 2.952846-.787426 5.905691-1.427209 8.907751-1.91935 3.002059-.442927 5.954904-.836639 8.858536-1.131924 2.903631-.295285 5.462764-.688997 7.726612-1.2795664 2.263848-.541355 4.035555-1.3779945 5.364336-2.4607045 1.32878-1.08271 1.919349-2.6575609 1.820921-4.7245527 0-2.16542-.344498-3.8879131-1.08271-5.1182654-.688997-1.2795664-1.624065-2.2638482-2.805203-2.9528454-1.181138-.6889973-2.509919-1.1811382-4.084769-1.4272087-1.525637-.2460704-3.198916-.3444986-4.970624-.3444986-3.937127 0-7.037614.8366395-9.301463 2.5099186-2.263848 1.6732791-3.543414 4.4784823-3.937127 8.4156095h-19.833278zm46.162817 14.7642275c-.83664.738211-1.91935 1.32878-3.149702 1.771707-1.279567.442927-2.608347.787425-4.08477 1.08271-1.427208.295284-2.952845.492141-4.57691.688997-1.574851.196857-3.198916.442927-4.773767.688997-1.476423.295285-2.952845.639784-4.429268 1.131925-1.476423.49214-2.706775 1.08271-3.789485 1.919349-1.08271.787426-1.968564 1.820921-2.608347 3.00206-.639783 1.230352-.984282 2.755989-.984282 4.626124 0 1.771707.344499 3.297344.984282 4.478482.639783 1.230353 1.525637 2.16542 2.657561 2.903632 1.131924.688997 2.460705 1.181138 3.937127 1.476422 1.525637.295285 3.051274.442927 4.626125.442927 3.937127 0 6.988401-.639783 9.153821-1.968563 2.16542-1.328781 3.74027-2.903632 4.773766-4.724553s1.673279-3.691057 1.91935-5.561192c.24607-1.870136.344499-3.395773.344499-4.478483zm32.875012-37.1566387h18.996639v10.1381026h.442927c2.509918-4.2324117 5.807262-7.2836854 9.842818-9.2030349 4.035555-1.9193495 8.169539-2.9036313 12.352737-2.9036313 5.364336 0 9.74439.7382113 13.140162 2.1654199 3.444986 1.4764228 6.102547 3.4942005 8.071111 6.0533332 1.968563 2.5591327 3.346558 5.7088345 4.133983 9.3998913.787426 3.6910568 1.181138 7.8250404 1.181138 12.3035226v44.7356083h-19.98092v-41.044551c0-6.0041195-.935068-10.4826018-2.805203-13.4354472-1.870136-2.9528454-5.216694-4.4292682-9.990461-4.4292682-5.41355 0-9.350677 1.624065-11.811382 4.872195-2.460704 3.24813-3.641842 8.5632518-3.641842 15.9453654v38.091706h-19.980921v-72.6892117z" fill="#a41e22"/></svg>