<svg height="102" preserveAspectRatio="xMidYMid" viewBox="0 0 512 102" width="512" xmlns="http://www.w3.org/2000/svg"><path d="m31.7584486 5.18500086c-1.1312128-2.9088256-3.8784409-4.8480461-7.1104716-4.8480461 0 0 0 0-.1615975 0h-17.6145715c-3.55523584 0-6.302464 2.90882562-6.302464 6.30246402 0 3.39362772 2.9088256 6.30246362 6.302464 6.30246362h14.2209331l7.2720691 17.4529638 7.7568717 19.2305459h13.7361408z" fill="#1e88e5"/><path d="m104.297349.33697524c-2.424032 0-4.161248 1.43421442-5.4540584 4.34304002l-33.6333209 83.88133844-10.5040999-26.6642432h-4.9995469-8.433582l13.5846297 33.1282432c1.9392205 4.363264 5.0096435 6.6155523 8.8880845 6.6155523h3.0805299c3.878441 0 6.948864-2.2522883 8.8880845-6.6155523l35.2493355-85.64879316c.323205-.64641024.454512-1.626112.454512-3.08052992s-.636313-2.74722816-1.767526-4.0400384c-1.131203-1.29281024-2.929019-1.91901698-5.353042-1.91901698zm36.865352 0c-1.777623 0-3.252234.62620674-4.545045 1.91901698-1.29281 1.29281024-1.919017 2.91892224-1.919017 4.69654528v55.6010594c0 12.4433408 4.34304 22.2808064 13.231125 29.3912576 7.595274 6.1408256 16.998461 9.3930495 27.825766 9.3930495 10.665708 0 19.86689-3.0906367 27.623772-9.3930495 8.888085-7.1104512 13.433129-16.9479168 13.433129-29.3912576v-55.6010594c0-1.77762304-.67671-3.40373504-1.96952-4.69654528-1.292811-1.29281024-2.918933-1.91901698-4.696546-1.91901698-1.93922 0-3.383531.62620674-4.191539 1.91901698-1.29281 1.29281024-1.919017 2.91892224-1.919017 4.69654528v56.1059938c0 8.5649408-2.918932 15.1501824-8.736583 19.998208-5.332859 4.363264-11.796921 6.6661376-19.392195 6.6661376s-14.059336-2.3028736-19.392184-6.6661376c-5.817651-4.8480256-8.736584-11.4332672-8.736584-19.998208v-56.1059938c0-1.77762304-.626207-3.40373504-1.919017-4.69654528s-2.918932-1.91901698-4.696545-1.91901698zm192.002847 0c-1.777613 0-3.262331.63630338-4.393544 1.76751618-1.131203 1.1312128-1.767516 2.61592064-1.767516 4.39354368 0 1.7776128.636313 3.2118272 1.767516 4.3430396 1.29282 1.1312128 2.615931 1.7675161 4.393544 1.7675161h29.239787v82.9217997c0 1.7775616.626207 3.2017408 1.919017 4.4945405 1.131213 1.2928 2.767421 1.969565 4.545044 1.969565 1.777613 0 3.403736-.676765 4.696546-1.969565 1.29281-1.1312125 1.919017-2.7169789 1.919017-4.4945405v-82.9217997h29.088276c1.777623 0 3.211838-.6363033 4.34305-1.7675161 1.131203-1.29280984 1.81801-2.5654268 1.81801-4.3430396 0-1.77762304-.686807-3.26233088-1.81801-4.39354368-1.131212-1.1312128-2.565427-1.76751618-4.34305-1.76751618zm-76.306238.15141888c-1.777613 0-3.20173.67671042-4.494541 1.96952066-1.29281 1.29281024-1.96952 2.8684288-1.96952 4.6460416v85.64883412c0 2.4240128.797911 4.5348864 2.575523 6.3125504 1.777624 1.7776641 3.888538 2.5755651 6.312561 2.5755651h50.752993c1.777623 0 3.403735-.474727 4.696546-1.7675267 1.29281-1.1312128 1.919017-2.7169792 1.919017-4.4945408 0-1.777664-.626207-3.403776-1.919017-4.696576-1.292811-1.2928-2.918923-1.9695616-4.696546-1.9695616v.2020352h-46.561443v-81.81077972c0-1.7776128-.626207-3.35323136-1.919028-4.6460416-1.29281-1.29281024-2.918922-1.96952066-4.696545-1.96952066zm180.993751 0c-1.777623 0-3.403735.67671042-4.696545 1.96952066s-1.919017 2.8684288-1.919017 4.6460416v87.61829332c0 4.0400896 3.232031 7.1205893 7.272069 7.1205893s7.272069-3.2320517 7.272069-7.2720389v-31.2092672h28.583271c5.494456 0 10.019297-.1818624 12.928133 1.918976 3.070423 2.1008384 5.342945 5.1813376 7.120568 8.7365632 1.777613 3.7168128 2.575524 9.4031872 2.575524 17.3216768v3.8380544c0 1.9392512.686807 3.5653632 1.818009 4.696576 1.131213 1.1312127 2.706832 1.7675267 4.646052 1.7675267 1.939221 0 3.555236-.626279 4.848046-1.9190787 1.292811-1.2928 1.969521-2.7573248 1.969521-4.696576v-6.1105152c0-6.4641024-.979712-12.4836864-3.08053-17.9781632-2.908836-8.241664-8.10028-13.2210688-15.049144-14.9986304 6.464061-2.2624256 11.160606-5.807616 14.392637-10.6556211 3.070423-4.8480461 4.696545-10.0495974 4.696545-15.7056512 0-8.7264768-3.090626-15.675351-9.39309-21.00819926-6.787267-5.65605376-16.796467-8.08007682-30.047795-8.08007682zm8.080077 14.08963548h24.24023c9.534495 0 16.483359 1.4241075 21.00821 4.4945408 3.716834 2.7472281 5.504553 6.6357657 5.504553 11.9686144 0 5.6560537-2.43413 10.0192972-7.120568 12.9281228-4.686449 3.0704333-10.978806 4.5450445-18.735688 4.5450445h-24.896737z" fill="#2b2a29"/></svg>