<svg height="137" preserveAspectRatio="xMidYMid" viewBox="0 0 256 137" width="256" xmlns="http://www.w3.org/2000/svg"><path d="m67.6542745 1.6102902 24.2186039 82.3536941 24.2286436-82.3536941h17.530478l-40.0926118 135.3005178h-1.6685176l-25.0578824-83.8455217-25.0558745 83.8455217h-1.6705255l-40.0865882-135.3005178h17.5405176l24.2165961 82.3536941 16.371953-55.4526118-8.0173177-26.89907446h17.5425255z" fill="#005a9c"/><path d="m183.42651 93.4791529c0 12.2558741-3.260737 22.5561101-9.762134 30.9087371-6.521474 8.348612-14.958431 12.522918-25.312878 12.522918-7.794447 0-14.582965-2.48571-20.375592-7.433035-5.792628-4.959373-10.079373-11.669585-12.862243-20.122604l13.69349-5.680189c2.009851 5.124016 4.652172 9.159781 7.937004 12.103279 3.284831 2.949521 7.147921 4.43131 11.607341 4.43131 4.676267 0 8.633726-2.622244 11.864345-7.852675 3.23062-5.232439 4.84091-11.521004 4.84091-18.8757332 0-8.1297569-1.728753-14.4143059-5.184251-18.8717177-4.005647-5.2284235-10.298227-7.8546823-18.867702-7.8546823h-6.680094v-8.013302l23.383341-40.4239059h-28.23429l-7.852675 13.3621961h-5.005553v-30.0694588h65.13644v8.18196078l-24.716549 42.60040782c8.681913 2.7808628 15.251576 7.8526745 19.70698 15.2013804 4.457412 7.3466981 6.68411 15.9683765 6.68411 25.8851137z" fill="#005a9c"/><g fill="#221b0a"><path d="m251.404047.85333333 2.83909 17.26745097-10.055278 19.2411608s-3.86309-8.1598745-10.274134-12.6775216c-5.407121-3.8128941-8.928878-4.6361098-14.42836-3.5056941-7.081663 1.4657255-15.090949 9.9147294-18.588612 20.339451-4.184345 12.4687059-4.224502 18.508298-4.373082 24.0499451-.230902 8.8907294 1.164549 14.1412392 1.164549 14.1412392s-6.103844-11.2961255-6.045616-27.8407529c.036141-11.8101334 1.901427-22.5239843 7.360753-33.0872471 4.810792-9.29029019 11.946667-14.86607058 18.289443-15.51661176 6.5536-.68869019 11.741867 2.46763922 15.743498 5.89904314 4.194384 3.59002352 8.459043 11.44069022 8.459043 11.44069022z"/><path d="m252.632847 98.5830902s-4.433318 7.9450348-7.206149 11.0029808c-2.768816 3.059953-7.728188 8.451011-13.846086 11.153568-6.121914 2.696534-9.328439 3.208534-15.382087 2.622243-6.043607-.582274-11.659545-4.079937-13.625223-5.549678-1.965678-1.449663-6.999341-5.750463-9.832408-9.746071-2.851137-4.015686-7.296502-12.0370193-7.296502-12.0370193s2.475671 8.0333803 4.029741 11.4426983c.887467 1.961663 3.634196 7.961098 7.527404 13.195545 3.624157 4.869019 10.671687 13.259796 21.387545 15.149176 10.713851 1.897412 18.074604-2.909364 19.891702-4.077929 1.821114-1.160533 5.66011-4.373082 8.095624-6.977255 2.537914-2.712596 4.937286-6.182149 6.256439-8.24822.97782-1.521945 2.562008-4.589929 2.562008-4.589929z"/></g></svg>