<svg height="261" preserveAspectRatio="xMidYMid" viewBox="0 0 256 261" width="256" xmlns="http://www.w3.org/2000/svg"><path d="m64.653 244.896c-10.596-5.665-20.27-12.791-28.859-21.048v-37.887l38.05-34.36v34.273l152.821-138.023c8.356 10.224 15.112 21.773 20.071 34.241z" fill="#ff4b19"/><path d="m144.814 210.882 109.836-98.518c.795 5.817 1.35 11.711 1.35 17.747 0 13.002-1.963 25.536-5.513 37.384l-103.161 90.815c-6.989 1.161-14.118 1.913-21.437 1.913-6.516 0-12.867-.635-19.125-1.56v-257.103c6.258-.925 12.609-1.56 19.125-1.56 6.445 0 12.73.624 18.925 1.529z" fill="#00d2ff"/><path d="m106.764 116.824 99.078-89.214c-10.484-8.191-22.25-14.76-34.956-19.452l-170.886 154.317c3.349 13.056 8.639 25.3 15.6 36.436z" fill="#556991"/><path d="m35.794 180.727v9.177l38.05-34.361v-144.644c-14.196 6.207-27.036 14.888-38.05 25.475z" fill="#ff4b19"/></svg>