<svg height="281" preserveAspectRatio="xMidYMid" viewBox="0 0 256 281" width="256" xmlns="http://www.w3.org/2000/svg"><path d="m233.858448 123.628491c-8.92705-7.385506-16.016827-13.417057-25.420575-21.142431-2.176037-12.2904184-4.300211-24.3656602-6.414455-36.1749664-3.580751-20.1890363-21.054154-41.4329872-39.504126-47.3001224-8.450352-2.6979774-16.31697-1.8582388-23.831582 2.6174242-9.112432-9.6509243-18.639768-16.14482886-29.023394-19.46516173-24.6437339-7.88537675-44.8504256 6.38797174-42.5850074 33.03118783 1.2932636 14.8372202 2.5688717 30.9390139 3.6293037 43.7149574-13.9478257 5.788789-28.3149689 11.8832385-40.1220682 16.881945-14.6970799 6.2687971-24.84677137 18.8383921-28.7574592 33.7683041-3.9824132 15.239986-1.59340667 32.88553 8.4635936 48.509522 8.9402914 13.995275 21.7294765 23.486197 38.0949988 28.630561-1.3550577 18.449972 1.955344 34.387349 10.2247273 47.450194 9.3463674 14.851565 23.1683978 23.751028 37.2740192 26.166518 13.8672722 2.380179 27.8658582-1.513957 38.5672832-11.685718 11.473852-11.07219 22.325348-21.517611 32.66925-31.424539 12.250693 7.363436 24.065517 14.467558 35.557024 21.389608 18.78984 11.204606 37.975825-.979879 42.505558-24.758494 1.89355-9.911342 1.059328-20.987946-2.471767-33.512299 6.688115-4.119244 10.842669-10.551354 12.533181-19.557853 3.571923-19.125294-5.893619-44.281036-21.389609-57.140843zm3.130536 42.933703c-1.019603 4.600355-3.991241 7.351299-7.707718 6.913222-3.055501-.366351-5.611131-1.606648-10.8206-5.43899-8.591596-6.436524-17.36747-13.031948-26.449006-19.721166-.803324-.560561-1.694925-1.182917-2.511491-1.778789-7.548819-5.566992-14.145346-4.50325-16.665665 3.112881-2.614114 7.795996 1.059328 16.956981 8.834358 22.409212.829807.569389 1.783203 1.244711 2.595355 1.840584 9.47437 6.639562 18.798668 13.115811 27.870272 19.42985 3.845583 2.683633 6.710184 5.196228 8.600423 7.46937 4.181037 4.785737 6.167278 12.661183 4.728357 19.235641-1.553682 6.935291-6.026034 10.551353-11.456197 9.31547-2.746529-.582631-4.81222-1.69934-9.743615-4.89167-9.562647-6.198176-19.39454-12.625872-29.539818-19.159502-.931326-.595872-1.862652-1.213814-2.768599-1.862652-3.201158-1.95093-6.282039-2.839221-9.002085-2.733289h-.013242c-3.037845-.199727-6.220245.90043-9.271332 3.346816-.847462.697392-1.703753 1.363886-2.493836 2.114244-9.465541 7.788271-19.279779 16.096276-29.681061 24.833529-5.619958 4.69746-8.150209 6.529216-11.901997 7.850066-7.557647 2.886671-15.9108941-.353109-21.1380183-8.666631-4.9225673-8.092829-4.7107016-18.59563.3884204-25.217537 2.1672096-2.945154 5.8318243-6.312936 10.8823937-9.893687 11.0059822-7.872135 21.4337472-15.284124 31.3362622-22.391557.900429-.613527 1.765548-1.218227 2.66708-1.854928 7.509095-5.333057 8.949119-14.763288 3.651373-23.552404-5.160916-8.768151-13.695131-11.429714-21.795684-6.538044-.913671.551734-1.822928 1.103468-2.733289 1.708168-10.480731 6.423282-21.4734717 13.209606-33.0620844 20.356763-7.4737835 4.507664-11.4208858 5.96424-17.0011195 6.220245-6.8955667.357523-14.1144492-3.889722-18.3164524-10.577837-4.7592541-7.451714-4.9181534-16.709804-.3486956-22.453351 2.5688717-3.377713 5.3198154-5.425748 13.2140199-9.47437 12.2286238-6.330591 23.9551699-12.28159 35.0803264-17.866237.9489818-.578217 1.9067914-.975465 2.8921876-1.456577.6797358-.335454 1.3065052-.732702 1.8582388-1.134365 4.9799472-2.198106 7.4031612-7.6944764 6.6263202-15.1384663-.132416-1.2491249-.220693-2.4541111-.428145-3.6469592-1.355058-13.2140199-2.702391-26.1621043-4.1104152-38.8188733-.8165657-7.7342018-.7371161-10.4542485.2427628-13.5229908 1.5625094-4.8740147 7.0809494-6.9970857 13.2714004-5.3286432 5.452231 1.4698183 10.670528 5.7435469 13.514163 10.9221185 2.321695 4.3090395 3.390955 7.8588936 4.331109 15.200261 1.54044 12.052069 3.126122 24.2862101 4.723943 36.8061491.158899 1.1431921.317798 2.2687286.459042 3.417438 1.34623 10.4101102 7.535578 17.8971352 15.557785 18.9575672 7.729788 1.028431 11.831375-5.0285 10.423351-14.758874-.128002-1.0681567-.291315-2.1936932-.436973-3.2408836-1.747892-11.9770332-3.474818-23.7124071-5.160916-35.1995009-.737116-4.966706-.993121-8.7725644-.591459-11.2266755.600287-5.4478177 4.940223-8.2870388 10.48956-6.7896338 5.602303 1.5360264 10.851496 6.7013564 13.275814 12.8553931 1.240297 3.112881 1.805272 5.5228534 2.764185 11.2840558 1.83617 11.0192237 3.435094 22.0781722 5.315402 33.5167129l.657666 3.183503c.582631 2.817152.816566 3.377714 1.324161 4.904912l-.123588-.503181-.030897-.07945-.039725-.079449-.017656-.150072v-.023172l.052967-.013242c.971051 4.335523 3.827928 8.613665 8.234072 12.069724.768013.613528 1.624304 1.2094 2.396731 1.871481 8.547457 6.714598 16.886359 13.342022 25.076293 19.747649 4.926981 3.872067 6.701356 5.668511 8.648976 8.397386 3.157019 4.441455 4.48118 10.922118 3.382127 15.893238z" fill="#97beef" fill-opacity=".94"/></svg>