<svg height="249" preserveAspectRatio="xMidYMid" viewBox="0 0 256 249" width="256" xmlns="http://www.w3.org/2000/svg"><path d="m142.076578 191.086817c0-31.806161-25.781819-57.592202-57.5879811-57.592202-31.8103833 0-57.5922029 25.786041-57.5922029 57.592202 0 31.806162 25.7818196 57.592203 57.5922029 57.592203 31.8061621 0 57.5879811-25.786041 57.5879811-57.592203" fill="#f60" transform="matrix(1 0 0 -1 0 382.173634)"/><path d="m255.979703 110.454356c0-31.80194-25.781819-57.592203-57.587981-57.592203-31.810383 0-57.592203 25.790263-57.592203 57.592203 0 31.806162 25.78182 57.596425 57.592203 57.596425 31.806162 0 57.587981-25.790263 57.587981-57.596425" fill="#fc0" transform="matrix(1 0 0 -1 0 220.912934)"/><path d="m115.200498 109.176452c0-31.8019395-25.7818194-57.5922025-57.5922027-57.5922025-31.80194 0-57.58798127 25.790263-57.58798127 57.5922025 0 31.806162 25.78604127 57.596425 57.58798127 57.596425 31.8103833 0 57.5922027-25.790263 57.5922027-57.596425" fill="#0089cc" transform="matrix(1 0 0 -1 0 218.357126)"/><path d="m230.385749 191.086817c0-31.806161-25.78182-57.592202-57.596425-57.592202-31.80194 0-57.587981 25.786041-57.587981 57.592202 0 31.806162 25.786041 57.592203 57.587981 57.592203 31.814605 0 57.596425-25.786041 57.596425-57.592203" fill="#009939" transform="matrix(1 0 0 -1 0 382.173634)"/><path d="m185.592001 57.9843213c0-31.8061616-25.786042-57.59220295-57.592203-57.59220295-31.8061621 0-57.5922034 25.78604135-57.5922034 57.59220295 0 31.8061617 25.7860413 57.5922027 57.5922034 57.5922027 31.806161 0 57.592203-25.786041 57.592203-57.5922027" fill="#bf0000" transform="matrix(1 0 0 -1 0 115.968642)"/><path d="m140.798675 57.9788331c0-1.2116231.105542-2.3979161.181532-3.5926524 25.545405 5.8934698 44.610527 28.7327762 44.610527 56.0681753 0 1.211623-.105542 2.402138-.181532 3.596874-25.545406-5.897691-44.610527-28.7369978-44.610527-56.0723969" fill="#fc0007" transform="matrix(1 0 0 -1 0 168.43741)"/><path d="m148.39686 162.570614c9.925178-17.351119 28.576574-29.074733 49.997395-29.074733 8.730441 0 16.975388 2.001078 24.392886 5.479745-9.920956 17.351118-28.572352 29.074732-49.997395 29.074732-8.730441 0-16.975388-2.001077-24.392886-5.479744" fill="#1cd306" transform="matrix(1 0 0 -1 0 301.54624)"/><path d="m115.200498 191.086817c0-14.07087 5.057577-26.947004 13.44184-36.948171 8.375819 10.001167 13.433396 22.877301 13.433396 36.948171 0 14.070871-5.057577 26.947005-13.433396 36.948172-8.384263-10.001167-13.44184-22.877301-13.44184-36.948172" fill="#0f7504" transform="matrix(1 0 0 -1 0 382.173634)"/><path d="m34.806984 138.212768c6.9953292-3.022725 14.6956795-4.71562 22.8013113-4.71562 21.2097367 0 39.6880443 11.495643 49.6849907 28.563908-6.99533 3.022726-14.6999016 4.711399-22.8013117 4.711399-21.2097367 0-39.692266-11.495644-49.6849903-28.559687" fill="#0c5e87" transform="matrix(1 0 0 -1 0 300.269602)"/><path d="m70.6545631 114.036032c-.1350939-1.60424-.2490793-3.216923-.2490793-4.859157 0-27.314291 19.0355698-50.132489 44.5514232-56.0512889.130872 1.6042396.244858 3.2169226.244858 4.8549357 0 27.3142907-19.0313483 50.1409322-44.5472019 56.0555102" fill="#6b0001" transform="matrix(1 0 0 -1 0 167.161618)"/><path d="m76.0304545 111.503866h-9.009072c-7.9536513 0-14.42127 6.446511-14.42127 14.379054v81.546033c0 7.932543 6.4676187 14.383275 14.42127 14.383275h112.9680225c7.953651 0 14.417048-6.450732 14.417048-14.383275v-81.546033c0-7.932543-6.463397-14.379054-14.417048-14.379054h-38.484865l-77.2145866-37.8516116z" fill="#fff" transform="matrix(1 0 0 -1 0 295.464482)"/></svg>