<svg height="256" preserveAspectRatio="xMidYMid" viewBox="0 0 256 256" width="256" xmlns="http://www.w3.org/2000/svg" xmlns:xlink="http://www.w3.org/1999/xlink"><linearGradient id="a"><stop offset=".28" stop-color="#00cdd7"/><stop offset=".94" stop-color="#2086d7"/></linearGradient><linearGradient id="b" x1="41.703097%" x2="71.876138%" xlink:href="#a" y1="1.924883%" y2="95.234742%"/><linearGradient id="c" x1="22.489224%" x2="82.877155%" y1="15.127119%" y2="84.762712%"><stop offset=".14" stop-color="#fff045"/><stop offset=".37" stop-color="#00cdd7"/></linearGradient><linearGradient id="d" x1="11171%" x2="11907%" xlink:href="#a" y1="-27691.7984%" y2="-28759.6256%"/><path d="m34.4 231.2-34.4-204.4 64-26.4 40.4 24 37.6-20 77.6 30-43.6 221.6z" fill="url(#b)"/><path d="m256 86.8-33.2-81.6-59.6-5.2-92.8 88.8 24.8 114.8 46.8 32.4 114-67.6-28-52.4z" fill="url(#c)"/><path d="m204.8 74.4 23.2 41.6 28-29.2-20.4-50.8z" fill="url(#d)"/><path d="m48 48h160v160h-160z"/><path d="m63.2 178h60v10h-60zm78.4-52.4 8.4-10.4c6 4.8 12 8 19.6 8 6 0 9.6-2.4 9.6-6.4 0-3.6-2.4-5.6-13.2-8.4-13.2-3.6-21.6-7.2-21.6-20.4v-.4c0-12 9.6-20 22.8-20 8.84879-.0372189 17.449333 2.9236236 24.4 8.4l-7.6 11.2c-4.829185-3.7738755-10.683911-6.0042472-16.8-6.4-5.2 0-8.4 2.4-8.4 6 0 4.4 2.8 6 14 8.8 13.2 3.6 20.8 8.4 20.8 20 0 13.2-10 20.8-24 20.8-10.276359-.37777-20.131699-4.179116-28-10.8zm-12.8-56.8-10 38.4-11.2-38.4h-11.2l-11.2 38.4-10-38.4h-15.6l19.2 66.4h12.4l10.8-38.4 10.8 38.4h12.4l19.2-66.4z" fill="#fff"/></svg>