<svg height="295" preserveAspectRatio="xMidYMid" viewBox="0 0 256 295" width="256" xmlns="http://www.w3.org/2000/svg"><path d="m125.331226 293.510178c-3.118136-1.657931-121.47547819-70.036925-122.63304569-70.849214-2.46348119-1.728673-2.29755433 3.704404-2.29755433-75.230604 0-78.934992-.16593648-73.5015823 2.29755433-75.2308843.60927158-.4276923 28.66912709-16.6875423 62.35523369-36.1329994 42.266954-24.3987907 61.696973-35.40849428 62.697966-35.52677862 1.810917-.21399096-4.430844-3.71081647 67.329566 37.72008322 42.380475 24.4683839 59.226313 34.3914967 59.850308 35.2550861l.868433 1.2018779v72.7136151 72.713615l-.868297 1.201878c-.623979.863697-17.464977 10.783713-59.851802 35.255086-67.060222 38.716174-65.521189 37.845614-66.919762 37.853374-.573128.003205-1.846001-.421683-2.8286-.944135z" fill="#eb324b"/><path d="m126.397496 275.238148c-.440688-.187958-24.952168-14.300485-54.4699572-31.36117-34.3518308-19.854667-53.9625577-31.413019-54.4851314-32.112953-.8134222-1.08949-.8164293-1.326452-.8164293-64.333665 0-63.0474677.0024839-63.243486.8180209-64.3357967.5247159-.7028022 20.0606059-12.2166926 54.4851343-32.111963 29.5169117-17.0589722 54.1159397-31.1939269 54.6645057-31.4110117.548569-.2170844 1.553042-.290459 2.232167-.1630548.967508.1815052 104.484598 59.604476 108.80504 62.4584674.583664.3855544 1.247317 1.1879962 1.474785 1.7832022.276007.7222125.456064 22.0277466.541297 64.0498856l.12772 62.967695-.838675 1.132462c-.553164.746943-12.009384 7.574343-33.652582 20.055453-81.042601 46.735319-75.862663 43.807777-77.409628 43.749578-.371256-.013966-1.035578-.179176-1.476267-.367129zm2.768802-69.648222c1.108793-2.144162 5.304104-7.486974 8.676109-11.049192 1.858039-1.962847 8.966983-8.559118 15.797656-14.658372 15.763879-14.075913 20.858191-19.385153 26.140969-27.243864 6.775286-10.078973 10.003182-22.102315 8.4969-31.649453-1.649994-10.458-8.018024-19.168567-17.410952-23.8157277-4.050521-2.0039992-6.982703-2.6919702-12.419406-2.913941-3.993395-.1630388-5.418097-.0514124-8.413145.6591819-8.679005 2.0591535-16.207641 7.7523128-20.303793 15.3537418-.682731 1.26698-1.393457 2.3036-1.579392 2.3036-.185934 0-.785363-.882711-1.332065-1.961577-1.428921-2.819834-5.44665-7.664252-7.915821-9.544574-6.925392-5.2738239-12.884536-7.1806913-21.3039269-6.8170552-5.4478603.2352957-8.7484414 1.0811293-13.1137703 3.360647-7.4686858 3.9000502-13.5733563 11.5152762-15.8484712 19.7700712-.892779 3.239257-.9928633 13.339891-.1687196 17.026604 1.9204607 8.590915 6.3593885 17.046062 13.2506361 25.239436 3.8701351 4.601406 11.215328 11.69507 22.2433349 21.481633 13.55379 12.028014 18.432753 17.104851 22.403462 23.312065.802125 1.25392 1.628516 2.279855 1.836433 2.279855.207913 0 .641699-.509885.963962-1.133079z" fill="#333943"/><path d="m151.605211 228.561527c-12.321833-11.156676-22.46291-20.550979-22.535724-20.876231-.146313-.653549 1.672874-3.68261 4.06673-6.771368 3.655913-4.717167 8.412621-9.417238 20.100431-19.861105 19.502132-17.426505 24.870605-23.371406 30.362377-33.622463 3.733246-6.968548 5.500888-13.982588 5.490515-21.786437-.007852-5.913632-.76804-9.263206-3.27597-14.434899-.631695-1.302639-1.098172-2.488276-1.036608-2.634741.112612-.267926 52.386566 48.130336 53.695651 49.714551.651526.78846.700948 2.650982.698989 26.343967-.002004 23.550674-.055431 25.581803-.701096 26.626592-.511996.828478-9.058726 5.95998-31.947814 19.181623-17.186855 9.927808-31.533523 18.130393-31.881487 18.227965-.40982.114924-8.523758-6.967498-23.035994-20.107454z" fill="#252a32"/></svg>