<svg height="197" preserveAspectRatio="xMidYMid" viewBox="0 0 256 197" width="256" xmlns="http://www.w3.org/2000/svg"><path d="m212.310219 0c-19.972194 0-36.616769 13.2780923-41.722357 33.1498909-9.202366-29.85951486-32.756406-33.12722099-42.583814-33.12722099-9.824169 0-33.3701127 3.26770613-42.5902904 33.12074389-5.1072077-19.8539866-21.7534015-33.12074389-41.7207376-33.12074389-24.5013188 0-43.69302 17.51574689-43.69302 39.87475889 0 9.8873209 2.44349284 17.7813087 5.39543945 26.3440589l33.26647905 94.0752843c11.139024 31.200278 33.8316075 35.858945 46.3664505 35.858945 19.661292 0 34.982915-10.070299 42.972441-27.916379 7.997621 17.927044 23.320864 28.047541 42.97244 28.047541 12.51865 0 35.188564-4.666764 46.384263-35.982011l33.451077-94.3959012.260704-.7788735c.38215-1.2096018.767538-2.3447168 1.131876-3.423157 1.781208-5.2691356 3.79883-11.2426579 3.79883-18.5634207 0-25.0097726-18.373965-43.1635156-43.689781-43.1635156zm15.768544 57.8746703-33.449458 94.3959007c-4.083823 11.420779-10.876701 19.921997-23.656055 19.921997-11.972953 0-19.042727-6.671432-22.574376-18.103546l-20.127645-62.8248074h-.547316l-20.11631 62.8248074c-3.538126 11.433733-10.6095196 17.972384-22.579234 17.972384-12.7825927 0-19.5803283-8.431588-23.6576742-19.852367l-33.1774186-93.8242956c-2.7203896-7.88913-4.0789652-12.7712578-4.0789652-18.4889339 0-8.7052469 8.1627882-15.7588286 19.578709-15.7588286 9.5197445 0 16.31748 6.2763276 18.4937917 15.5224138l22.5727569 74.8366233h.5408394l22.844796-73.1881968c2.997286-10.6046617 8.433208-17.1708403 19.858844-17.1708403 11.41916 0 16.8567 6.5548436 19.84751 17.1595054l22.846415 73.1995317h.53922l22.580853-74.8366233c2.173073-9.2460862 8.96919-15.5450837 18.492173-15.5450837 11.41592 0 19.57547 7.0794902 19.57547 19.0492046 0 4.3493849-1.909131 8.7182011-3.806926 14.7111547z" fill="#3192e7"/></svg>