<svg height="342" preserveAspectRatio="xMidYMid" viewBox="0 0 256 342" width="256" xmlns="http://www.w3.org/2000/svg"><g><path d="m0 74.7333333v101.3333337h23.7047071v-87.466667l104.2895459-61.8666667 104.305966 61.8666667v110.933333c0 17.066667-6.166886 30.933334-16.833552 45.866667-25.787962 35.2-72.533334 60.8-87.466667 68.266667-14.696196-7.466667-57.6-30.933334-85.3333333-64h137.4723593c9.960016-9.6 12.927641-12.8 21.460974-24.533334h-198.30462373c19.26982353 68.266667 124.70462373 116.266667 124.70462373 116.266667-.027092 0 105.6-46.933333 124.8-116.266667 2.009593-7.466666 3.2-17.066666 3.2-25.6v-124.7999997l-128.005747-74.66666663z"/><path d="m66.0841989 108.866667h121.9451941v20.266666h-121.9451941z"/><path d="m55.8919546 145.133333h142.2677634v20.266667h-142.2677634z"/><path d="m53.3333333 180.333333h142.2677637v20.266667h-142.2677637z"/><path d="m99.0806737 73.6666667h55.8919543v20.2666666h-55.8919543z"/></g></svg>