<svg height="252" preserveAspectRatio="xMidYMid" viewBox="0 0 256 252" width="256" xmlns="http://www.w3.org/2000/svg"><path d="m256 128c0-70.692-57.308-128-128-128s-128 57.308-128 128c0 59.228 40.228 109.059 94.851 123.664 9.495-41.063 19.259-83.105 22.795-102.497 1.593-9.335-.962-12.313-7.468-15.815-26.03-10.379-52.005-2.087-71.335-40.307 50.412 7.413 77.155-4.307 89.951 17.133v.002c12.796-21.44 39.539-9.72 89.95-17.133-19.33 38.22-45.304 29.928-71.334 40.307-6.506 3.502-9.061 6.48-7.468 15.816 3.524 19.326 13.235 61.153 22.7 102.085 53.861-15.107 93.358-64.568 93.358-123.255" fill="#03cacf"/></svg>