<svg height="256" preserveAspectRatio="xMidYMid" viewBox="0 0 256 256" width="256" xmlns="http://www.w3.org/2000/svg" xmlns:xlink="http://www.w3.org/1999/xlink"><linearGradient id="a" x1="0%" x2="0%" y1="0%" y2="100%"><stop offset="0" stop-color="#ff5000"/><stop offset="1" stop-color="#e13200"/></linearGradient><linearGradient id="b" x1="0%" x2="10%" y1="0%" y2="0%"><stop offset="0" stop-color="#808080"/><stop offset="1" stop-color="#808080" stop-opacity="0"/></linearGradient><linearGradient id="c" x1="0%" x2="80%" y1="0%" y2="80%"><stop offset="0" stop-color="#fff" stop-opacity="0"/><stop offset=".3"/><stop offset="1" stop-color="#fff" stop-opacity="0"/></linearGradient><linearGradient id="d" x1="0%" x2="90%" y1="0%" y2="100%"><stop offset="0" stop-color="#fff" stop-opacity="0"/><stop offset=".4"/><stop offset=".65" stop-color="#fff" stop-opacity="0"/></linearGradient><circle cx="128" cy="128" fill="url(#a)" r="124.8"/><g fill="#fff"><path d="m128 256c70.692448 0 128-57.307552 128-128s-57.307552-128-128-128-128 57.307552-128 128 57.307552 128 128 128zm0-6.4c-67.1578256 0-121.6-54.442174-121.6-121.6 0-67.1578256 54.4421744-121.6 121.6-121.6 67.157826 0 121.6 54.4421744 121.6 121.6 0 67.157826-54.442174 121.6-121.6 121.6z"/><path d="m80 176h32v-32l-32-64z"/><path d="m112 176h32v-32l-16-32-16 32z"/><path d="m144 176h32v-96l-32 64z"/></g><path d="m80 176h32v-32l-32-64z" fill="url(#b)"/><path d="m128 112 3.2 6.4-12.8 25.6-3.2-6.4z" fill="url(#c)"/><path d="m147.2 137.6 3.2 6.4 25.6-52v-12z" fill="url(#d)"/></svg>