<svg height="152" preserveAspectRatio="xMidYMid" viewBox="0 0 256 152" width="256" xmlns="http://www.w3.org/2000/svg"><path d="m182.776422 67.0342543c-5.582007-7.2418648-11.105185-14.4085185-16.614215-21.5558109 15.65881-17.0930349 36.589103-23.8046984 56.794836-16.4600699 20.364348 7.4019678 33.909055 26.8079315 32.999819 48.244596-.816152 19.2406481-9.854893 33.9760745-27.023884 42.8107775-17.810147 9.163844-35.270302 7.188993-51.670054-4.070338-12.040484-8.265779-20.949654-19.6144697-29.910205-30.9058215-9.097569-11.4626247-17.988122-23.1173729-27.606956-34.1302201-8.901723-10.1914819-19.408943-18.5086427-33.011734-21.8134649-25.271688-6.1390163-51.5025043 9.8325535-57.6400313 35.0491364-6.2231634 25.5688093 9.1348027 51.5933531 34.3469175 58.0704471 18.521302 4.758408 34.3670235-.882427 47.9392838-13.378647 7.728875-7.116016 14.646066-15.1137157 22.208882-23.0071622 5.467328 6.8345332 11.231778 14.0384201 17.355901 21.6928292-3.108231 3.590029-6.226887 7.391542-9.554793 11.000188-13.147801 14.26033-27.988225 25.944865-47.2445116 30.915502-43.4511889 11.218375-88.16383991-19.295753-93.56191477-63.8907472-5.18510075-42.8353511 24.72957207-80.74697884 67.51503067-85.18294683 20.5654068-2.13271988 38.9392647 3.88715006 55.3553997 16.28358433 14.736171 11.1282702 25.979864 25.4846622 37.205686 39.8864787 6.862085 8.8034268 13.651194 17.6902561 21.002525 26.0751814 3.87449 4.4188407 8.552474 8.3417346 13.457581 11.599643 8.046848 5.3437143 16.962719 4.6980899 24.302879-.8384926 7.028891-5.3027577 10.26297-14.4226671 8.101208-22.8500382-2.232505-8.7058757-9.67394-15.369136-18.615874-16.5635783-5.447223-.7282822-10.382116.9278523-14.74883 3.9809778-3.838747 2.6830271-7.362501 5.8165765-11.382946 9.0379962"/></svg>