<svg height="255" preserveAspectRatio="xMidYMid" viewBox="0 0 256 255" width="256" xmlns="http://www.w3.org/2000/svg"><path d="m18.1239675 127.500488c0 43.295219 25.1608455 80.710764 61.6460488 98.441366l-52.1761301-142.956228c-6.0690732 13.6033821-9.4699187 28.657431-9.4699187 44.514862zm183.2210735-5.51961c0-13.518049-4.855675-22.8797398-9.020358-30.1663739-5.544585-9.0099513-10.741594-16.64-10.741594-25.6499513 0-10.0547642 7.625887-19.4143739 18.36748-19.4143739.484943 0 .944911.0603577 1.417366.0874146-19.460163-17.8284228-45.386927-28.713626-73.863285-28.713626-38.2126825 0-71.8319346 19.6058536-91.3899183 49.3018536 2.5662439.0770082 4.9847155.131122 7.0389594.131122 11.4409105 0 29.1506991-1.3882277 29.1506991-1.3882277 5.8963252-.3475772 6.5914797 8.3127155.7013984 9.0099513 0 0-5.9254634.6972357-12.5190244 1.0427317l39.8319348 118.4780486 23.937041-71.790309-17.041691-46.6919022c-5.890082-.345496-11.470049-1.0427317-11.470049-1.0427317-5.8942439-.345496-5.203252-9.3575285.6909919-9.0099513 0 0 18.0636101 1.3882277 28.8114471 1.3882277 11.438829 0 29.150699-1.3882277 29.150699-1.3882277 5.900488-.3475772 6.593561 8.3127155.701399 9.0099513 0 0-5.937952.6972357-12.519025 1.0427317l39.528065 117.5810082 10.910179-36.458146c4.728716-15.128976 8.327285-25.995448 8.327285-35.35922zm-71.921431 15.08735-32.8179515 95.363122c9.7987645 2.88052 20.1615615 4.456065 30.8989915 4.456065 12.737561 0 24.952716-2.202017 36.322862-6.200195-.293463-.468293-.55987-.965724-.778406-1.506862zm94.058146-62.0456589c.470374 3.4840976.736781 7.2241951.736781 11.2473496 0 11.0995772-2.072976 23.5769753-8.316878 39.1784063l-33.411122 96.599415c32.518243-18.962732 54.390634-54.192911 54.390634-94.545171.002081-19.016845-4.855675-36.899382-13.399415-52.4799999zm-95.977106-75.0225691c-70.3042598 0-127.50465 57.1962276-127.50465 127.500488 0 70.312585 57.2003902 127.506732 127.50465 127.506732 70.302179 0 127.510895-57.194147 127.510895-127.506732-.002082-70.3042604-57.208716-127.500488-127.510895-127.500488zm0 249.162927c-67.0803248 0-121.65827602-54.577951-121.65827602-121.662439 0-67.0803254 54.57586992-121.65411402 121.65827602-121.65411402 67.078244 0 121.652033 54.57378862 121.652033 121.65411402 0 67.084488-54.573789 121.662439-121.652033 121.662439z" fill="#464342"/></svg>