<svg height="228" preserveAspectRatio="xMidYMid" viewBox="0 0 256 228" width="256" xmlns="http://www.w3.org/2000/svg"><path d="m73.8663206 0c-6.9140116.01466174-13.6820496 3.93931348-17.1626081 9.9265042l-54.13394399 94.0367188c-3.42635802 6.003221-3.42635802 13.849862 0 19.853082l54.13394399 94.036718c3.4809241 5.987239 10.2485965 9.912942 17.1626081 9.926504h108.2675054c6.914012-.014662 13.68168-3.939265 17.162605-9.926504l54.133935-94.036718c3.426355-6.00322 3.426002-13.849861 0-19.853082l-54.133935-94.0367188c-3.480925-5.98719072-10.248593-9.91294205-17.162605-9.9265042zm.982533 55.0126186c.1487283-.0146617.3047222-.0146617.4539138 0h18.6745162c.8266367.0171053 1.6284771.4948333 2.0412834 1.2123783l31.679073 56.4523771c.159455.27911.2622.590084.301187.909272.03901-.319261.141656-.63026.301187-.909272l31.603248-56.4523771c.425905-.7392931 1.265307-1.2196604 2.116759-1.2123783h18.674525c1.653649.0146618 2.892026 2.0974826 2.11711 3.5614319l-30.922591 55.3157255 30.922591 55.239948c.848263 1.472357-.420586 3.651749-2.11711 3.637185h-18.674525c-.866332-.007331-1.710697-.520931-2.116759-1.288155l-31.603248-56.452377c-.159458-.27911-.262201-.59011-.301187-.909271-.039011.319234-.141659.630284-.301187.909271l-31.679073 56.452377c-.394008.745524-1.2001151 1.254212-2.0412834 1.288155h-18.6745162c-1.6965263.014661-2.9650321-2.164828-2.1167689-3.637185l30.9225815-55.239948-30.9225815-55.3157255c-.741252-1.3356836.1631134-3.2763345 1.6628551-3.5614319z" fill="#3498db"/></svg>