<svg height="258" viewBox="0 0 256 258" width="256" xmlns="http://www.w3.org/2000/svg"><g fill="none" fill-rule="evenodd"><path d="m127.928916.00180989c33.226712 0 66.455237 0 99.681949-.00180989 4.169428 0 8.300787.36197726 12.301625 1.58184061 8.674222 2.64424386 13.267843 8.86482299 15.067948 17.43825429.714242 3.3989665.917275 6.8648987.924526 10.329021.052571 23.2715178.092452 46.5430356.094265 69.8145534.001813 42.3839167.007251 84.7678337-.079763 127.1517507-.01269 5.932807-.328116 11.93077-3.257592 17.335091-3.248528 5.994343-7.697126 10.738055-14.449786 12.824854-1.22001.376456-2.494405.805399-3.745233.805399-2.882344.00181-5.686737.716715-8.560016.716715-65.066637-.005429-130.1332742.032578-195.1999111-.070585-5.2915475-.00905-10.6701091-.394555-15.6969885-2.54832-1.0006627-.428943-2.0103893-.78911-2.8895946-1.458768-6.40097781-4.877644-10.74624649-10.960672-11.67802292-19.192034-.335367-2.968214-.44232188-5.920138-.44232188-8.888352.01087677-65.952256.01631515-131.9045121.05075825-197.8567682.00181279-3.8260996.04169428-7.7173551 1.21819798-11.3787551 3.13432187-9.75890679 9.99212387-15.08540211 20.15827607-16.16771411 2.3620713-.25157419 4.7458963-.41446395 7.1188444-.41627384 33.1270087-.0271483 66.2558301-.01809886 99.3828393-.01809886z" fill="#fb7a24"/><path d="m128.775254 164.113293c-.727575 4.454131-1.237963 8.479319-2.837903 12.189587-7.491121 17.383963-20.256253 27.97723-39.3939952 30.085748-22.6217748 2.492214-43.5151077-11.469252-49.7972247-33.153506-2.2768375-7.858528-2.0487918-15.869087-1.2234834-23.866977.8814148-8.546285 3.3989673-16.650958 7.3300414-24.29592.5628748-1.093171.5520155-1.91848-.1520305-2.977263-6.0359724-9.078392-8.3779659-19.106975-7.5273191-29.9319078.4542816-5.786208 1.8587537-11.3208418 4.4830896-16.5043575 7.688399-15.18495 24.5692129-28.0713438 47.1783184-25.9320577 19.8797965 1.8804724 38.2935845 19.0291496 41.1676845 38.315303.144791.9682894.416274 1.91848.734814 3.3464806.476-2.5863282.819879-4.7201847 1.265111-6.8341324 3.703028-17.5215138 20.853515-35.8556668 45.163914-36.0819027 24.639799-.2280457 42.887077 19.0961153 46.329482 37.0447625 1.455149 7.5852354 1.201765 15.163231.00181 22.737607-1.199955 7.567137-3.422496 14.841072-6.671243 21.774748-.716715 1.529355-.64251 2.629766.275103 4.050527 5.306588 8.224125 7.648582 17.251841 7.34814 27.055997-.62803 20.45715-15.096265 38.802163-35.0014 43.600172-27.790811 6.696582-49.093179-9.923609-56.26214-30.031451-1.169187-3.272275-1.723012-6.689341-2.410769-10.591457zm50.488601-35.940732c.296821-1.156517 1.192715-1.849704 1.837035-2.70578 6.968064-9.259381 10.633085-19.602884 9.815016-31.2495053-.595453-8.5010382-7.587045-14.4881436-16.050076-14.1714135-8.46846.3167302-14.850121 6.8486116-14.969573 15.3225015-.00905.6931866.032578 1.3881831-.01086 2.07775-.582783 9.0313353-5.565401 13.9777553-13.116249 14.5297713-1.379134.101353-2.761887.224426-4.142831.228045-9.800537.021719-19.599264.018099-29.399801.00905-4.280382-.00362-8.524566.461521-12.600431 1.719392-19.0273399 5.871273-30.1219458 18.882549-33.796016 38.275486-.7275744 3.83696-1.3827535 7.818711-.1248821 11.760644 1.8044571 5.652276 5.1690366 9.856643 11.1253739 11.262925 6.1735238 1.456959 11.5506974-.15565 15.8220302-5.004337 2.7618872-3.134723 3.6324427-6.85947 3.8387698-10.948005.5339166-10.515442 6.2603982-15.771353 15.8093612-15.691718 14.649223.121262 29.300257.025338 43.95129.036198 2.600807.00181 2.624336.036197 2.637005 2.608047.025339 4.750952-.121262 9.507335.061536 14.252858.298632 7.746315 7.114665 14.185892 15.016631 14.412128 8.14811.233476 15.411186-5.793447 15.941483-13.661025.457901-6.808794.428943-13.661025-.018099-20.475249-.345689-5.27582-3.19988-9.034955-8.035898-11.217678-1.160137-.521248-2.380001-.912183-3.590815-1.370085zm-91.8318448-15.98311c3.1510128 0 5.7228619-.028958 8.2929012.01267 1.2741602.019908 1.7465407-.528487 1.7356814-1.777309-.0416274-4.942801.2135666-9.901891-.1013537-14.8265927-.416274-6.4974935-3.8713478-11.1941497-9.9199894-13.5632915-6.202482-2.428868-11.8782869-1.0424948-16.6781066 3.5383286-4.8215383 4.6025421-5.4640482 10.23129-3.7772337 16.3921446 1.5492631 5.661326 5.210664 8.877495 10.9679139 9.849404 3.3446707.562875 6.7074403.293201 9.4801869.374646z" fill="#fff"/></g></svg>