<svg height="256" preserveAspectRatio="xMidYMid" viewBox="0 0 256 256" width="256" xmlns="http://www.w3.org/2000/svg"><path d="m128 249.018182c-66.9090909 0-121.01818182-54.109091-121.01818182-121.018182 0-66.9090909 54.10909092-121.01818182 121.01818182-121.01818182 66.909091 0 121.018182 54.10909092 121.018182 121.01818182 0 66.909091-54.109091 121.018182-121.018182 121.018182z" fill="#fff"/><path d="m128 14.5454545c62.836364 0 113.454545 51.2 113.454545 113.4545455 0 62.254545-50.618181 113.454545-113.454545 113.454545-62.8363636 0-113.4545455-50.618181-113.4545455-113.454545 0-62.8363636 50.6181819-113.4545455 113.4545455-113.4545455zm0-14.5454545c-70.9818182 0-128 57.0181818-128 128 0 70.981818 57.0181818 128 128 128 70.981818 0 128-57.018182 128-128 0-70.9818182-58.181818-128-128-128z" fill="#3f3f3f"/><path d="m74.4727273 119.272727 23.2727272 18.618182 32.0000005-52.3636363 40.727272 65.1636363 22.109091-17.454545 24.436364 36.072727c5.818182-12.8 10.472727-27.927273 10.472727-42.472727 0-55.2727276-43.636364-98.9090913-98.909091-98.9090913-55.2727271 0-100.6545453 44.8-100.6545453 98.9090913 0 17.454545 4.6545455 32 11.6363637 46.545454z" fill="#0ab3e5"/></svg>