<svg height="212" preserveAspectRatio="xMidYMid" viewBox="0 0 256 212" width="256" xmlns="http://www.w3.org/2000/svg"><path d="m44.9395214 8.2808 80.1039996 95.604-84.7909996 99.926c-2.452 2.89-.398 7.326 3.392 7.326h31.121c1.498 0 2.92-.657 3.889-1.799l91.6119996-107.826-81.8809996-98.922c-1.24-1.498-3.084-2.365-5.029-2.365h-34.657c-4.165 0-6.435 4.863-3.76 8.056zm-40.26139999 25.5478 59.08999999 70.319-63.05799999 74.52c-1.637 1.934-.262 4.898 2.271 4.898h26.12899999l69.316-80.968-64.103-75.938h-26.30499999c-3.707 0-5.725 4.331-3.34 7.169zm203.28989959-31.6916-50.22 61.379 24.167 26.177 68.199-80.683c3.009-3.559.479-9.01-4.181-9.01h-33.456c-1.747 0-3.402.785-4.509 2.137zm-52.2302 134.0414 61.004 73.243c.906 1.087 2.247 1.716 3.662 1.716h30.794c4.087 0 6.299-4.787 3.65-7.9l-77.368-90.902z"/></svg>