<svg height="184" preserveAspectRatio="xMidYMid" viewBox="0 0 512 184" width="512" xmlns="http://www.w3.org/2000/svg"><path d="m91.631 51.1103c-6.829 0-12.364-5.535-12.364-12.364v-25.644c0-6.829 5.535-12.364 12.364-12.364s12.364 5.535 12.364 12.364v25.644c0 6.829-5.535 12.364-12.364 12.364" fill="#70b700"/><path d="m170.8979 104.7331h-25.644c-6.829 0-12.364-5.535-12.364-12.364s5.535-12.364 12.364-12.364h25.644c6.829 0 12.364 5.535 12.364 12.364s-5.535 12.364-12.364 12.364" fill="#f70"/><path d="m91.631 184c-6.829 0-12.364-5.535-12.364-12.364v-25.644c0-6.829 5.535-12.364 12.364-12.364s12.364 5.535 12.364 12.364v25.644c0 6.829-5.535 12.364-12.364 12.364" fill="#f00"/><path d="m38.0083 104.7331h-25.644c-6.829 0-12.364-5.535-12.364-12.364s5.535-12.364 12.364-12.364h25.644c6.829 0 12.364 5.535 12.364 12.364s-5.535 12.364-12.364 12.364" fill="#0087cb"/><path d="m120.1074 92.369 45.351-51.829c7.795-8.908 6.892-22.447-2.016-30.241-8.904-7.793-22.447-6.895-30.24 2.016l-41.571 47.51-41.571-47.51c-7.796-8.909-21.332-9.808-30.241-2.016-8.907 7.794-9.811 21.333-2.015 30.241l45.35 51.829-45.35 51.829c-7.796 8.908-6.892 22.447 2.015 30.241 4.065 3.558 9.094 5.303 14.104 5.303 5.965 0 11.901-2.476 16.137-7.319l41.571-47.51 41.571 47.51c4.237 4.843 10.171 7.319 16.136 7.319 5.008 0 10.039-1.745 14.104-5.303 8.908-7.794 9.811-21.333 2.016-30.241z" fill="#505052"/><path d="m478.1308 165.631c-1.265 0-2.531-.483-3.497-1.449l-68.363-68.366c-1.932-1.932-1.932-5.063 0-6.994l68.363-68.364c1.932-1.932 5.062-1.932 6.994 0 1.932 1.93 1.932 5.063 0 6.993l-64.867 64.868 64.867 64.87c1.932 1.932 1.932 5.063 0 6.993-.966.966-2.232 1.449-3.497 1.449m-113.064 0c-2.732 0-4.945-2.214-4.945-4.946v-136.731c0-2.732 2.213-4.945 4.945-4.945s4.946 2.213 4.946 4.945v136.731c0 2.732-2.214 4.946-4.946 4.946m34.182 0c-2.732 0-4.946-2.214-4.946-4.946v-136.731c0-2.732 2.214-4.945 4.946-4.945s4.945 2.213 4.945 4.945v136.731c0 2.732-2.213 4.946-4.945 4.946m107.806 0c-2.731 0-4.946-2.214-4.946-4.946v-136.731c0-2.732 2.215-4.945 4.946-4.945 2.73 0 4.945 2.213 4.945 4.945v136.731c0 2.732-2.215 4.946-4.945 4.946m-197.207 0c-2.095 0-3.979-1.325-4.672-3.328l-42.656-123.23-42.657 123.23c-.732 2.116-2.769 3.475-5.027 3.315-2.233-.159-4.08-1.8-4.503-3.999l-26.295-136.731c-.515-2.682 1.241-5.274 3.924-5.791 2.678-.516 5.274 1.242 5.79 3.924l22.806 118.592 41.288-119.276c.689-1.992 2.566-3.328 4.674-3.328 2.107 0 3.984 1.336 4.673 3.328l41.288 119.276 22.806-118.592c.515-2.682 3.102-4.44 5.79-3.924 2.683.517 4.439 3.109 3.924 5.791l-26.295 136.731c-.423 2.199-2.27 3.84-4.503 3.999-.119.008-.238.013-.355.013" fill="#f70"/></svg>