<svg height="201" preserveAspectRatio="xMidYMid" viewBox="0 0 512 201" width="512" xmlns="http://www.w3.org/2000/svg"><path d="m83.1452991 0h-26.8815628c-26.8815629 0-50.01221005 20.004884-50.01221005 58.7643468 0 23.1306471 11.25274725 40.6349206 30.63247865 49.3870572l-36.25885227 65.015873c-1.25030526 1.875458 0 3.750916 1.87545787 3.750916h16.8791209c1.2503052 0 2.5006105-.625153 3.1257631-1.875458l33.1330891-63.765568h11.8778999v63.765568c0 .625153.6251526 1.875458 1.8754579 1.875458h15.003663c1.2503052 0 1.8754579-.625153 1.8754579-1.875458v-172.5421245c-.6251527-1.87545787-1.2503053-2.5006105-3.1257632-2.5006105zm-15.6288156 96.2735043h-10.002442c-43.1355311 0-40.009768-81.2698413-1.8754579-81.2698413h12.5030525v81.2698413z" fill="#f00"/><path d="m173.167277 58.7643468h-15.003663c-1.250305 0-1.875458.6251526-1.875458 1.8754578v45.0109894h-27.506715v-45.0109894c0-1.2503052-.625153-1.8754578-1.875458-1.8754578h-14.37851c-1.250306 0-1.875458.6251526-1.875458 1.8754578v114.4029304c0 1.250305.625152 1.875458 1.875458 1.875458h15.003663c1.250305 0 1.875457-.625153 1.875457-1.875458v-55.013431h27.506716v55.013431c0 1.250305.625153 1.875458 1.875458 1.875458h15.003663c1.250305 0 1.875458-.625153 1.875458-1.875458v-114.4029304c-.625153-1.2503052-1.250306-1.8754578-2.500611-1.8754578zm337.582418 102.5250302c0-.625152-.625153-.625152-1.250306-.625152-6.251526 0-44.385836 18.129426-44.385836-41.885226 0-26.2564105 10.002442-63.1404154 33.758242-41.2600735.625152.6251526 1.250305.6251526 1.875458.6251526.625152 0 1.250305-.6251526 1.875458-1.8754578l6.251526-10.6275947c.625152-.6251526.625152-1.2503052.625152-1.8754578 0-1.2503053-1.250305-1.8754579-2.50061-2.5006105-41.260073-20.6300367-62.515263 17.5042735-62.515263 61.8901097 0 57.514042 41.885226 65.641026 65.641026 48.136752 1.250305-.625152 1.250305-1.875458 1.250305-2.50061zm-102.525031-49.387057 28.757021-51.887668c.625153-.6251526 0-1.8754579-.625153-1.8754579h-14.37851c-4.376068 0-5.626374 1.2503053-6.876679 4.3760684s-22.505494 47.5115995-25.006105 49.3870575v-51.887668c0-.6251526-.625153-1.8754579-1.250305-1.8754579h-15.628816c-.625152 0-1.250305.6251527-1.250305 1.8754579v115.028083c0 .625153.625153 1.875458 1.250305 1.875458h15.628816c1.250305 0 1.250305-.625153 1.250305-1.875458v-59.389499c1.875458 1.250305 28.131868 55.638583 28.757021 57.514041 1.250305 2.500611 3.750916 3.750916 6.876679 3.750916h15.628815c1.250306 0 1.250306-.625153.625153-1.875458zm-136.908425 50.01221h-3.125763c-3.750916 0-4.376068-1.250305-4.376068-4.376068v-97.52381c0-1.2503052-.625153-1.8754579-1.250305-1.8754579h-48.136753c-1.250305 0-1.875457.6251527-1.875457 1.8754579 0 26.2564103.625152 70.017094-16.879121 101.899878h-5.001221c-1.250306 0-1.875458.625153-1.875458 1.875458v34.383394c0 1.250305 1.250305 1.875458 1.875458 1.875458h11.252747c2.50061 0 3.750916-1.875458 3.750916-3.750916v-19.379731h50.637362v21.255189c0 .625153.625153 1.875458 1.875458 1.875458h12.503053c1.250305 0 3.125763-1.250305 3.125763-3.750916v-32.507936c-.625153-1.250305-1.250305-1.875458-2.500611-1.875458zm-26.25641 0h-35.008547c10.002442-16.253968 19.379731-42.510379 19.379731-88.7716729h15.628816zm75.018315-106.2759464c-25.631258 0-37.509157 31.8827839-37.509157 66.8913314 0 57.514041 40.009768 66.266178 67.516483 49.387057 1.250305-.625153 1.250305-1.250305 1.250305-1.875458l-1.875458-8.126984c0-.625153-.625152-1.250305-1.875457-1.250305-10.002442 0-45.010989 17.504273-45.010989-39.384616 12.503052 1.250306 12.503052 1.250306 50.01221 1.250306-.625153-28.7570212-3.750916-66.8913314-32.507937-66.8913314zm-16.879121 52.5128204c0-45.6361415 30.007326-54.3882782 30.007326-1.250305-13.128205 0-18.754579 0-30.007326 1.250305z"/></svg>