<svg height="278" preserveAspectRatio="xMidYMid" viewBox="0 0 256 278" width="256" xmlns="http://www.w3.org/2000/svg" xmlns:xlink="http://www.w3.org/1999/xlink"><clipPath id="a"><path d="m203 63.6v-.3l6.6-33.2s-14.7-33.9-64.1-29.8c-49.3 4.1-55.5 15.5-63.6 29.1l4.8 21.7-9.2 5.9s-3.3-9.9-8.5-10.3c0 0 7.7-11.1 2.2-18.8s-35-7-46.4 32c0 0-1.5-11.8-6.3-11.8s-22.5 6.4-17.7 24.8 21.4 23.9 26.9 26.2c0 0 2.6 3.3 1.5 7.7-.6 2.3-13.9 43.6-2.8 81.8 8.3 28.5 35 53.3 35 53.3 20.4 19.4 47.8 31.3 78 31.3 62.7 0 113.6-51.3 113.6-114.6.1-39.5-19.8-74.4-50-95z"/></clipPath><path d="m139.4 276.2c-64.3 0-116.6-52.7-116.6-117.6 0-64.8 52.3-117.6 116.6-117.6s116.6 52.8 116.6 117.6c0 64.9-52.3 117.6-116.6 117.6zm0-229.3c-61 0-110.7 50.1-110.7 111.7s49.7 111.7 110.7 111.7 110.7-50.1 110.7-111.7-49.6-111.7-110.7-111.7z" fill="#020202"/><g clip-path="url(#a)"><path d="m271.2 329.2s1.9 25.7-5.1 30.9c0 0-1.5 10.3-11.4 10.6 0 0-2.2 5.9-12.5 2.9-10.3-2.9-19.1-33.1-19.1-33.1s31.1-26.4 48.1-11.3z" fill="#f4cf8c"/><path d="m179.5 200.4s82.6 13.3 91.7 128.8c0 0-15.4 9.8-31.5 10.5 0 0 1.4-88.9-60.2-139.3z" fill="#050505"/><path d="m260.8 278.3c-4.5 2.2-14.1 6-28.9 7.5.5 1.9 1 3.8 1.5 5.7 5.9-.9 16.5-3.1 29.2-8.1-.6-1.7-1.2-3.4-1.8-5.1zm-33-5.7c.6 1.9 1.3 3.7 1.8 5.6 5.4-.6 17.6-2.3 28.4-7.1-.8-1.8-1.5-3.6-2.3-5.3-4 1.8-12.8 5-27.9 6.8zm43.4 56.6c-.8-10.6-2.3-20.3-4.2-29.2-6.3 3.9-16.3 8.6-29.8 10.4 2.8 17.5 2.6 29.3 2.6 29.3 16-.7 31.4-10.5 31.4-10.5z" fill="#dd002a"/><g fill="#f4cf8c"><circle cx="94.3" cy="112.9" r="17.7"/><circle cx="94.3" cy="112.9" r="17.7"/><path d="m76.6 112.9c0 .5 0 1.1.1 1.6 1.3-.5 2.6-1.2 4-2.2 8.4-5.4 8.6-11.8 6.8-15.8-6.4 2.8-10.9 9.1-10.9 16.4z"/><circle cx="85.2" cy="112.9" r="8.6"/></g><path d="m85.2 104.4c-.3 0-.7 0-1 .1 3.3.5 5.9 4.1 5.9 8.5s-2.6 8-5.9 8.5c.3 0 .7.1 1 .1 4.7 0 8.6-3.8 8.6-8.6-.1-4.8-3.9-8.6-8.6-8.6z" fill="#d8af6f"/><path d="m84.1 104.5c-.3 0-.5-.1-.8-.1-3.7 0-6.7 3.8-6.7 8.6 0-4.4 3.3-8 7.5-8.5zm-7.5 8.4c0 4.7 3 8.6 6.7 8.6.3 0 .5 0 .8-.1-4.2-.5-7.5-4.1-7.5-8.5z" fill="#f4cf8c"/><circle cx="198" cy="112.9" fill="#f4cf8c" r="17.7"/><circle cx="198" cy="112.9" fill="#f4cf8c" r="17.7"/><circle cx="207.1" cy="112.9" fill="#f4cf8c" r="8.6"/><path d="m202.2 112.9c0-4.4 2.6-8 5.9-8.5-.3 0-.7-.1-1-.1-4.7 0-8.6 3.8-8.6 8.6 0 4.7 3.8 8.6 8.6 8.6.3 0 .7 0 1-.1-3.3-.5-5.9-4.1-5.9-8.5z" fill="#d8af6f"/><path d="m215.7 112.9c0-4.7-3-8.6-6.7-8.6-.3 0-.5 0-.8.1 4.2.6 7.5 4.2 7.5 8.5zm-7.5 8.5c.3 0 .5.1.8.1 3.7 0 6.7-3.8 6.7-8.6 0 4.4-3.3 8-7.5 8.5zm-163.4 2.9s16.9 2.2 14.7-14.7c0 0 5.9 9.2 19.1.7 13.2-8.4 6.2-19.5 2.6-19.8-3.7-.4-8.8-4.4-21.7 8.8l-7.3-16.9 8.4-11s1.2 15.9 13.4 11.4c12.3-4.5 3.1-31.6-7.9-31.6l-19.8 11.4s3.7-10.3 19.8-18.7c0 0 6.2-3.7 2.6-12.9-3.7-9.2-38.6-2.6-44.1 42.2 0 0-6.2-5.9-4.8-15.1s-18-6.6-14.3 13.2 22.8 23.9 22.8 23.9 6.5 10.5 1.8 22.4c0 .1 7.4 9.2 14.7 6.7zm33.8-14c13.2-8.4 6.2-19.5 2.6-19.8-2.3-.2-5.1-1.8-9.9 0l4.3 8.9s-.9 12.7-15.1 9.5c0 0-.1.5-.5 1.3 1.6 1.9 7.5 7.2 18.6.1zm-19 .5c-2.2 3.9-9.8 11.5-28.2 2.1-.3 1.7-.7 3.1-1.3 4.8 0 0 7.3 9.2 14.7 6.6 0 0 16.1 2.1 14.8-13.5zm1-39.4s1.2 15.9 13.4 11.4c5-1.8 6.4-7.5 5.6-13.5-3.1 3.2-12.5 11.2-16.2-5.8l-16.8 19.6-13.3 7.7 16.6-4.2 9.7 12.6-7.3-16.9zm-11.5-13.6c2.7-3.8 7.9-9.2 17.1-14 0 0 6.2-3.7 2.6-12.9-.1-.2-.1-.3-.2-.5-.9 2.8-2.6 6.1-5.9 8.4-6.8 4.7-31.1 21.6-23.4 47.1-.1.2-3.3-15.6 9.8-28.1zm-24.8 15.1c-1.3-1.4-5.7-6.8-4.4-14.7.6-3.6-2.1-5.4-5.3-5-.7 9.8.7 29.8 20.1 35.5 0 0-7.3-3.4-10.4-15.8z" fill="#f4cf8c"/><path d="m30.1 117.7 14.7 6.6s-13.2 72.7 55.8 75.7c0 0 .5 46.8-42.1 46 0 0-56.3-44.8-28.4-128.3z" fill="#050505"/><path d="m47.7 163.8c-.2-.7-.4-1.3-.6-2-3.3 1.7-12 5.5-24.6 5.4.1 1.6.2 3.2.3 4.8 6.3 0 16.8-.8 25.9-5.7v-.1c-.3-.7-.5-1.4-.7-2.1zm4.7 10.4c-.3-.6-.7-1.2-1-1.8-3.8 1.8-14.2 6-28 6.1.2 1.8.5 3.6.8 5.3 7.5 0 18.5-1.3 29.3-7.6v-.1c-.4-.6-.7-1.2-1.1-1.8zm-22.3-56.5c-4 10.9-5.7 21-7 30.4 7 1.3 14 1.5 20.9-3-.9-11.8.8-20.8.8-20.8z" fill="#dd002a"/><path d="m51.5 304.2 90 116s3.5 1.3 5-.5v-115.5zm189.3 0-90 116s-3.5 1.3-5-.5v-115.5zm-53.2-106.1h-82.8c-88.2 38.7-67.7 184.8-67.7 184.8h109.6v-66.8l6.1 66.8h102.4c0-.1 20.6-146.1-67.6-184.8z" fill="#050505"/><path d="m223.1 340.6s8.8 30.1 19.1 33.1c10.3 2.9 12.5-2.9 12.5-2.9 2.9-.1 5.1-1.1 6.7-2.4.7-10.6 1.2-26.1 0-43.6-17-2.3-38.3 15.8-38.3 15.8z" fill="#f4cf8c"/><path d="m261.9 334c-1.2-31.4-7.5-71.7-28.7-102-25.3-27-53.7-31.6-53.7-31.6 61.6 50.4 60.2 139.3 60.2 139.3 8.2-.4 16.3-3.1 22.2-5.7z" fill="#930023"/><path d="m40.6 289.1c-.3 1.3-.6 2.7-.8 4 24.4-9 62.9-14.8 106.3-14.8s82 5.8 106.3 14.8c-.3-1.3-.5-2.7-.8-4-24.4-8.8-62.6-14.5-105.5-14.5s-81.1 5.7-105.5 14.5zm4.9-18.5c-.4 1.2-.7 2.4-1.1 3.6 24.5-8.1 61-13.2 101.8-13.2s77.3 5.1 101.8 13.2c-.4-1.2-.7-2.4-1.1-3.6-24.5-7.9-60.5-12.8-100.7-12.8s-76.3 5-100.7 12.8zm34.2-56.5c-18.9 24.3-16.8 54-16.8 54l5.1-2.3c-1.6-25.8 10.2-46.3 17.6-56.5-2 1.5-4 3.1-5.9 4.8zm127-4.8c7.4 10.2 19.2 30.6 17.6 56.5l5.1 2.3s2-29.6-16.8-54c-1.9-1.7-3.9-3.3-5.9-4.8zm-60 106.8 6.1 66.8h102.4s6.3-44.8-3.1-91.4l-5.2-1.7c8.6 23.5 4.6 86.9 4.6 86.9h-93.2l-8.8-98.5h-7.1l-.9 98.5h-99.6c-4.6-44.7 2.5-86.7 2.5-86.7l-4.2 1.2c-9.5 46.7-3.1 91.7-3.1 91.7h109.6z" fill="#dd002a"/><path d="m192 195s-17.6 16-46.6 16c-34.4 0-45.1-16-45.1-16l-6.1-112.2h103.8zm0 0s-17.6 16-46.6 16c-34.4 0-45.1-16-45.1-16l-6.1-112.2h103.8zm0 0s-17.6 16-46.6 16c-34.4 0-45.1-16-45.1-16l-6.1-112.2h103.8z" fill="#f4cf8c"/><path d="m159.3 102 2.6-3.3s9.3-.5 23.7 7.2c0 0-10.4-12.8-26-8.5l.5-2.8-4.4 7.2s1.6 9.7-.1 16.7h-18.7c-1.7-7-.1-16.7-.1-16.7l-4.4-7.2.5 2.8c-15.6-4.3-26 8.5-26 8.5 14.3-7.7 23.7-7.2 23.7-7.2l2.6 3.3c-5 10-16.8 10.8-16.8 10.8 12.4 1.3 16.9-6.4 16.9-6.4-.7 6.1.6 14.1.6 14.1l12.4 8.8.1-.1.1.1 12.4-8.8s1.3-8 .6-14.1c0 0 4.5 7.7 16.9 6.4-.3 0-12.1-.8-17.1-10.8z" fill="#b27d30"/><ellipse cx="146.1" cy="138.3" fill="#050505" rx="17" ry="10.2"/><path d="m146.1 149c3.9 0 7.4-1.3 10.3-2.6-2-2.2-5.8-3.6-10.3-3.6-4.4 0-8.3 1.5-10.3 3.6 2.9 1.3 6.5 2.6 10.3 2.6z" fill="#dd002a"/><path d="m146.1 128.1c-9.4 0-17 4.6-17 10.2 0 .3 0 .6.1.9h33.9c0-.3.1-.6.1-.9 0-5.6-7.6-10.2-17.1-10.2z" fill="#fff"/><path d="m146.1 155.1c-3.5 0-6.7-.6-9.4-1.7 2.2 2.8 5.5 4.6 9.4 4.6 3.8 0 7.2-1.8 9.4-4.6-2.7 1.1-5.9 1.7-9.4 1.7zm0 30.4c-5.9 0-11.4-1.1-16-2.9 3.7 4.8 9.5 7.8 16 7.8s12.3-3.1 16-7.8c-4.6 1.8-10 2.9-16 2.9z" fill="#c98c28"/><path d="m95.2 101.3h101.8l1-18.4h-103.8z" fill="#cea063"/><path d="m198.3 82.8 9.1-52.7s-13.7-27-61-27c-57.4 0-61.6 27-61.6 27l9.2 52.7z" fill="#050505"/><path d="m90.1 60.2 3.9 22.6h104.3l3.9-22.6z" fill="#dd002a"/><path d="m214 95.4h-135.7l-4.2-12.6h144.2z" fill="#050505"/><circle cx="146.1" cy="67.5" fill="#050505" r="16.8"/><path d="m146.1 82.2c-8.1 0-14.7-6.6-14.7-14.7s6.6-14.7 14.7-14.7 14.7 6.6 14.7 14.7c.1 8.1-6.5 14.7-14.7 14.7zm0-27.5c-7.1 0-12.8 5.7-12.8 12.8s5.7 12.8 12.8 12.8 12.8-5.7 12.8-12.8c.1-7.1-5.7-12.8-12.8-12.8zm0 23.4c-5.9 0-10.6-4.8-10.6-10.6 0-5.9 4.8-10.6 10.6-10.6 5.9 0 10.6 4.8 10.6 10.6.1 5.8-4.7 10.6-10.6 10.6zm0-19.9c-5.1 0-9.2 4.1-9.2 9.2s4.1 9.2 9.2 9.2 9.2-4.1 9.2-9.2c.1-5-4.1-9.2-9.2-9.2zm2.7 5.5 4.8-3.5-3.7 4.7 5.8-1.5-5.1 3.1 5.9.7-5.9 1 5.4 2.8-5.8-1.2 3.9 4.5-5-3.2 2 5.6-3.5-4.8-.1 6-1.5-5.8-2.3 5.5.6-5.9-4.1 4.3 2.7-5.3-5.4 2.5 4.5-4-6 .4 5.6-2.1-5.7-1.8 6 .1-4.7-3.7 5.5 2.2-3-5.1 4.3 4.1-1-5.9 2.6 5.4 1.2-5.8.5 6 3.3-5z" fill="#dd002a"/><path d="m149.3 67.5c0 1.8-1.4 3.2-3.2 3.2s-3.2-1.4-3.2-3.2 1.4-3.2 3.2-3.2 3.2 1.4 3.2 3.2z" fill="#050505"/><path d="m145.4 211.1c-34.4 0-45.1-16-45.1-16l1.2 22.8s10.3 15.6 43.9 15.6c28.2 0 45.3-15.6 45.3-15.6l1.3-22.9c-.1 0-17.7 16.1-46.6 16.1z" fill="#dd002a"/><path d="m146.1 233.1c.8-3 1.3-6.8 1.3-10.9 0-4.2-.5-8-1.3-10.9-.8 3-1.3 6.8-1.3 10.9s.5 8 1.3 10.9z" fill="#050505"/><circle cx="154.3" cy="222.9" fill="#930023" r="3.1"/><circle cx="153.6" cy="222.2" fill="#fff" r="3.1"/><path d="m157.3 253.6h-22.3c-3.5 0-6.4 2.9-6.4 6.4v15.9c0 3.5 2.9 6.4 6.4 6.4h22.3c3.5 0 6.4-2.9 6.4-6.4v-15.9c0-3.6-2.9-6.4-6.4-6.4zm-1.7 8.9v10.9c0 .6-.5 1.2-1.2 1.2h-16.5c-.6 0-1.2-.5-1.2-1.2v-10.9c0-.6.5-1.2 1.2-1.2h16.5c.6 0 1.2.5 1.2 1.2z" fill="#ffb000"/><path d="m133.8 120.5 12.3 8.7.1-.1.1.1 12.3-8.7z" fill="#c98c28"/><path d="m146.1 127.3s-10.4-12.4-34.8-6.3l-36.9 36.3s13.3 9.9 34.1 7.2 37.8-24.9 37.6-37.2zm0 0s10.4-12.4 34.8-6.3 36.9 36.3 36.9 36.3-13.3 9.9-34.1 7.2-37.7-24.9-37.6-37.2z" fill="#4f1907"/><path d="m196.7 233.3h2.2l-3.9 4.7-3.8-4.7h2.2v-2.1h-8.2v2.1h3.2l5.4 6.7v4.2h-3.2v2.1h8.6v-2.1h-3.2v-4.2l5.4-6.7h3.2v-2.1h-8.2z" fill="#dd002a"/></g></svg>