<svg height="274" preserveAspectRatio="xMidYMid" viewBox="0 0 256 274" width="256" xmlns="http://www.w3.org/2000/svg" xmlns:xlink="http://www.w3.org/1999/xlink"><linearGradient id="a" x1="50%" x2="50%" y1="0%" y2="100%"><stop offset="0" stop-color="#73b723"/><stop offset="1" stop-color="#d8ee61"/></linearGradient><linearGradient id="b" x1="84.857945%" x2="13.584415%" y1="26.251033%" y2="100%"><stop offset="0" stop-color="#98c9ea"/><stop offset=".688649011" stop-color="#026fb2"/><stop offset="1" stop-color="#086eb6"/></linearGradient><linearGradient id="c" x1="0%" x2="85.884205%" y1="6.320324%" y2="69.934521%"><stop offset="0" stop-color="#d73721"/><stop offset="1" stop-color="#f7d768"/></linearGradient><linearGradient id="d" x1="30.960746%" x2="86.77032%" y1="30.992904%" y2="81.746314%"><stop offset="0" stop-color="#d4c883"/><stop offset="1" stop-color="#a1d1a7"/></linearGradient><path d="m221.82887.00412799c18.600731 9.47786949 34.57606 34.34902091 33.77523 68.09948301-2.431387 41.585391-32.582241 77.424617-65.387393 110.444424-1.836956-40.268561-10.592427-65.932287-24.264336-102.0191925-12.908231-36.3676089 24.829871-75.36062078 55.876499-76.52471451z" fill="url(#a)"/><path d="m121.217322 177.132134c9.98758-12.423933 17.066333-23.487912 22.006702-33.484296 33.840792 17.693432 25.855339 14.389199 42.176337 33.240624.055092.586198.107045 1.171058.155844 1.754517 1.353981 26.138445-17.713214 86.563991-92.7931312 94.844743-5.1971418-40.602929 11.6987292-75.236781 28.4542482-96.355588z" fill="url(#b)"/><path d="m.39099824 25.2467987c53.49464756-21.16834267 111.06775076.515999 144.30634176 45.6968707 3.21525 4.3697771 6.264676 8.9095425 9.140612 13.5822653 5.193798 33.1546213 1.233481 51.5679783-8.875684 61.3286363-6.646984-3.35352-13.738895-6.327747-21.309431-9.077686-17.601757-6.39426-33.8454054-10.625451-57.0447201-17.49443-55.0880524-15.034147-68.67327387-62.2707584-66.21711866-94.0356563z" fill="url(#c)"/><path d="m151.793359 81.2801612c.350879.544895.69763 1.0856619 1.040253 1.6346849l.421056.6769906c.858622 1.3787493 1.700732 2.7657546 2.530459 4.1692719l.140351.2352955.222912.3797753.202272.3508793.59443 1.019614.04128.0743039.804959 1.4117732.024768.0412799c.582047 1.02787 1.155838 2.059868 1.721372 3.100122l.070176.1320957.627455 1.1640937.016512.028896.689375 1.2961895.198143.3797752.383904.7389106.470591.9122862.454079.8833903c.462335.9164141.920542 1.8328281 1.370493 2.7492421l.115584.22704c.813214 1.663581 1.601661 3.33129 2.373595 5.011382l.586175 1.283806.057792.127968.375647.833854.437567.98659.24768.569663.396287.912286.284832.656351.598558 1.411773.04128.099072.639839 1.535613.078432.185759c.681119 1.659453 1.341597 3.318906 1.981436 4.990743l.06192.152735.528383 1.39939.033024.078432.305471.825598c.338496.916414.672863 1.832828 1.003102 2.753371l.127968.359135c.363263 1.02787.722399 2.059868 1.06915 3.087738l.111456.326111c.326111.96595.639838 1.9319.953566 2.897851l.152736.474719.037151.111455.495359 1.564509.02064.070176.458208 1.494333.458207 1.539741.012384.033024.379775 1.300318.119712.421055.231167.804958c.260064.928798.515999 1.853469.763679 2.782267l.185759.693502.359136 1.370494.016512.066048c.437567 1.68422.850366 3.368441 1.242525 5.048534l.037152.173375.04128.177504c.511871 2.216732.982462 4.425207 1.415901 6.625427l.04128.218784c.668735 3.422105 1.242526 6.82357 1.717245 10.19614l.008256.045408c.148608 1.040254.284831 2.07638.412799 3.112506l.053664.445823.173376 1.481949v.004128l.148607 1.370493.049536.454079.107328 1.085662.04128.437567.016512.177504.132096 1.490205c-11.818441-15.219906-25.936174-25.709134-42.877453-33.915582 13.67191-27.030091 11.752393-46.2913013 9.114607-63.4472358" fill="url(#d)"/></svg>