<svg height="256" preserveAspectRatio="xMidYMid" viewBox="0 0 256 256" width="256" xmlns="http://www.w3.org/2000/svg" xmlns:xlink="http://www.w3.org/1999/xlink"><linearGradient id="a" x1="65.797046%" x2="2.104705%" y1="66.686613%" y2="5.573974%"><stop offset="0" stop-color="#905cfb"/><stop offset=".07" stop-color="#a554e6"/><stop offset=".25" stop-color="#d641b5"/><stop offset=".39" stop-color="#f43597"/><stop offset=".47" stop-color="#ff318c"/></linearGradient><path d="m83.6107669 98.1951254c42.3454921-38.6289059 89.3886561-81.6916266 90.7514941-83.0544642 2.12053-2.1592568 4.392728-4.1641377 6.799217-5.99930864 17.868337-13.16935553 42.523938-12.00034231 59.066103 2.80054244 16.542165 14.8008848 20.435067 39.1752677 9.326015 58.392406-2.010243 3.5266553-4.500399 6.7571277-7.399147 9.5988938-9.398917 9.3989169-45.394769 47.5945152-45.394769 47.5945152s47.194562 45.394769 47.994469 45.9947c11.696054 9.368153 14.68416 25.930801 6.999194 38.795529-4.60451 7.594231-12.254308 12.839806-20.99758 14.398341-2.598177.458502-36.914616-32.570846-74.811811-59.294274-23.957774 26.878458-71.6215991 80.33185-71.7712979 80.33185-20.2376679 14.158368-44.994815 6.359267-56.1935245.199977-15.5393748-9.073012-25.82040123-25.01262-27.6773824-42.910758-1.85698116-17.898137 4.93272836-35.608881 18.2784655-47.678803 6.5992395-5.999309 34.5960133-31.396382 64.9925105-59.1931788z" fill="#0cb0f2"/><path d="m167.802009 111.987903c-1.369496-9.376341-6.345739-17.8474608-13.868777-23.6089886l-73.7129561-74.5947854c-12.4777096-12.49535987-30.9086598-16.93789987-47.7090343-11.4996401-16.8003746 5.43825977-29.13191537 19.8385788-31.92054114 37.2756319s4.43677441 34.9650216 18.70315214 45.3716407l88.9846444 62.1289185c12.027593 9.355257 28.547797 10.419036 41.675903 2.68362 13.128105-7.735416 20.202845-22.70194 17.847609-37.756397z" fill="url(#a)"/><path d="m47.854529 48.763194h159.382277v159.382277h-159.382277z"/><path d="m63.9919842 175.87056h58.3737588v10.559076h-58.3737588zm21.3173795-63.952138-26.8957592-42.2363037h17.9305062l16.735139 28.0911263 16.9343673-28.0911263h17.492205l-26.89576 42.0370757v27.891898h-15.3405438v-27.69267zm65.7451893-28.0911267h-21.31738v-14.145177h57.776076v14.145177h-21.118152v55.5845687h-15.340544z" fill="#fff"/></svg>