<svg height="256" preserveAspectRatio="xMidYMid" viewBox="0 0 256 256" width="256" xmlns="http://www.w3.org/2000/svg"><path d="m159.998995 128.056308c-.004022 9.512019-1.745546 18.613794-4.914879 27.023786-8.40597 3.169333-17.515789 4.910857-27.03183 4.922922h-.108594c-9.507997-.012065-18.617816-1.749567-27.023786-4.9189-3.1693326-8.40597-4.9148785-17.515789-4.9189005-27.027808v-.112616c.004022-9.507997 1.745546-18.617816 4.9108565-27.019764 8.40597-3.1733546 17.519811-4.9189005 27.03183-4.9229225h.108594c9.516041.004022 18.62586 1.7495679 27.03183 4.9229225 3.169333 8.401948 4.910857 17.511767 4.914879 27.019764zm94.223283-21.388971h-74.716606l52.828908-52.8329301c-4.150699-5.8318932-8.780016-11.3018067-13.82762-16.3494108v-.004022c-5.047604-5.0435821-10.517518-9.6648547-16.345389-13.8155538l-52.83293 52.8329301v-74.71660649c-6.91381-1.16235664-14.016654-1.77772191-21.264289-1.78174391h-.132726c-7.247635.004022-14.346457.61938727-21.264289 1.78174391v74.71660649l-52.8329301-52.8329301c-5.8318932 4.1506991-11.2977847 8.7759937-16.3373448 13.8235978l-.028154.0201099c-5.0395601 5.0395601-9.6568107 10.5014297-13.8075098 16.3252789l52.8369521 52.8329301h-74.71660649s-1.78174391 14.032742-1.78174391 21.288421v.088484c0 7.255679.61536528 14.366567 1.78174391 21.288421h74.71660649l-52.8369521 52.83293c8.3094422 11.659764 18.5132443 21.867588 30.1730086 30.173009l52.8329301-52.836952v74.720628c6.91381 1.158335 14.004588 1.769678 21.240157 1.777722h.18099c7.239591-.008044 14.338413-.619387 21.240157-1.777722v-74.720628l52.836952 52.836952c5.827871-4.150699 11.293763-8.775994 16.341367-13.819576l.012066-.012066c5.03956-5.047604 9.668877-10.517518 13.815554-16.341367l-52.836952-52.83293h74.72465c1.162357-6.909788 1.769678-14.000566 1.777722-21.240157v-.185012c-.008044-7.239591-.615365-14.330369-1.777722-21.240157z" fill="#ff4a00"/></svg>