<svg height="257" preserveAspectRatio="xMidYMid" viewBox="0 0 256 257" width="256" xmlns="http://www.w3.org/2000/svg"><path d="m0 .56h256v256h-256z" fill="#3f4d9c"/><path d="m190.464 71.728c-5.12 5.12-11.264 12.288-17.92 20.48-7.168 8.192-14.336 17.408-21.504 27.136-7.68 9.728-14.848 19.968-22.016 30.72-7.168 10.24-13.824 20.48-19.456 30.208h83.968v31.232h-130.56v-22.016c4.608-8.192 9.728-16.896 16.384-27.136 6.656-9.728 13.312-19.968 19.968-30.208s14.336-19.968 21.504-29.184 13.824-17.92 19.968-25.088h-73.728v-31.232h123.392z" fill="#fff"/></svg>