<svg height="256" preserveAspectRatio="xMidYMid" viewBox="0 0 256 256" width="256" xmlns="http://www.w3.org/2000/svg" xmlns:xlink="http://www.w3.org/1999/xlink"><radialGradient id="a" cx="50%" cy="50%" r="50%"><stop offset="0" stop-color="#dc001f"/><stop offset=".64214681" stop-color="#d5001d"/><stop offset=".823819839" stop-color="#ae0017"/><stop offset="1" stop-color="#590e0a"/></radialGradient><linearGradient id="b" x1="49.895367%" x2="49.994314%" y1="100%" y2="-1.92436%"><stop offset="0" stop-color="#d4001c"/><stop offset=".531343169" stop-color="#ec8a6c"/><stop offset=".887566854" stop-color="#fcefe7"/><stop offset="1" stop-color="#fdf7f1"/></linearGradient><path d="m0 128c0 70.7 57.3 128 128 128s128-57.3 128-128-57.3-128-128-128-128 57.3-128 128z" fill="url(#a)"/><path d="m41.8635294 60.3356863c0 28.6117647 38.3498039 20.7811764 85.6345096 20.7811764 47.284706 0 85.63451 7.8305883 85.63451-20.7811764 0-28.5113726-38.349804-51.70196081-85.63451-51.70196081-47.2847057-.10039216-85.6345096 23.09019611-85.6345096 51.70196081z" fill="url(#b)"/><path d="m89.5498039 201.687843c-.2007843-.301176 29.2141181-32.727843 63.6486271-66.56 34.133334-33.832157 63.146667-63.7490195 63.247059-63.7490195-1.104314-23.4917647-18.371765-34.8360784-33.932549-36.7435294-9.838431-2.0078431-82.6227449-4.6180392-123.9843135 1.8070588-7.7233777.9305275-15.4467554 1.9473048-23.2500775 3.2102208-.3038855.0491819-3.3641207 3.2334867-6.0896665 6.5236147-2.7946589 3.3735575-5.2493463 6.853957-4.9953961 6.8181897 23.6735362-3.3342665 47.3470725-5.5436027 71.0206088-6.6163255 24.3142558-1.1017559 48.6285108-1.0045416 72.9427668.3043003.501961.4015687-27.206275 31.1215687-61.339608 64.5521571-33.9325491 33.330196-64.6525491 64.150588-67.6643138 67.764706-.2007843 24.495686 20.5803921 33.932549 31.7239215 36.141176 51.7019613 5.019608 103.9008353 3.223249 155.6027963-5.1093 0 0 4.589508-5.169281 5.144196-6.117844.554687-.948563 4.530522-6.897894 4.403-6.879715-49.594005 7.069928-99.157854 9.263186-148.1837177 6.561761 1.0743432-.900476 1.1043137-1.204706 1.7066666-1.907451z" fill="#fff"/></svg>