<svg height="330" preserveAspectRatio="xMidYMid" viewBox="0 0 256 330" width="256" xmlns="http://www.w3.org/2000/svg"><path d="m251.546573 273.498817h.000659c-2.321769-2.315187-4.29343-3.682056-6.028175-4.179578-1.759095-.505419-3.329975-.128987-4.543507 1.087836l-1.141799 1.139825c-11.958293 11.958951-25.882982 21.348031-41.387764 27.905974-16.045079 6.786303-33.094416 10.227496-50.67418 10.227496-17.580421 0-34.6291-3.441193-50.6735215-10.227496-15.5034653-6.557285-29.4274961-15.945707-41.3857892-27.905316-12.4591054-12.458447-21.847527-26.38182-27.904-41.383815-5.9057686-14.627537-7.8346529-25.629614-8.468401-29.244545-.0592288-.33892-.1059537-.606766-.1428072-.800247-.8127506-4.257234-4.7310643-4.554694-10.36240617-3.693244-2.34151157.358005-9.46805141 1.448473-8.7895527 6.575712l.01645245.117141c1.88676606 11.868792 5.21937275 23.506592 9.90700257 34.588957 7.53390235 17.812072 18.31617485 33.805162 32.04804115 47.535712 13.7318663 13.732524 29.7256144 24.514797 47.5370283 32.047383 18.4398973 7.802406 38.0275163 11.758231 58.2179533 11.758231 20.179908 0 39.768185-3.957799 58.218612-11.764154 17.805491-7.529954 33.799239-18.314201 47.537687-32.053306.031588-.031589.78182-.775897 1.192473-1.223404 1.51165-1.645902 2.827187-4.525737-3.174006-10.509162zm-103.961007-238.2438658c-19.292792 0-39.815568 3.8946221-54.8939026 10.4170282-1.6116812.6311157-2.5751362 1.9255939-2.7870437 3.7445759-.1980874 1.7156606.2652134 3.9795167 1.4182005 6.9251619.9351568 2.3895527 3.4188175 8.7369049 8.2275373 6.9027867 15.4317325-5.8866838 32.4909405-9.1284731 48.0352085-9.1284731 17.613984 0 34.696226 3.4477738 50.773552 10.2472391 12.774335 5.4042982 24.828052 13.210653 37.932751 24.5661286.955558.8285449 1.969686 1.2484113 3.014087 1.2484113 2.554736 0 5.005491-2.5099846 7.101533-4.8620257 3.499105-3.9255527 5.902478-7.1884011 2.454704-10.4538818-12.514386-11.8549717-26.227825-20.7109923-43.15673-27.8697789-18.410941-7.787928-37.965656-11.7371722-58.119897-11.7371722zm-26.301532 163.1259638c.023033 2.180278 2.018385 4.092052 3.2102 5.234509l.374458.361296c2.044051 2.010488 3.991362 3.029882 5.786653 3.029882 1.486642 0 2.402714-.702849 2.727156-1.004916.900278-.836442 11.085656-11.15673 12.057666-12.141244l11.358766 11.321913c1.05164 1.184576 2.194756 1.77818 3.526746 1.815033 1.813717 0 3.790643-1.078622 5.874838-3.205594 4.901511-5.004833 2.448781-7.703691 1.262889-9.008041l-11.508812-11.512761 12.002386-12.08728c2.631732-2.848247.307989-5.874838-2.010489-8.193316-3.366169-3.366828-6.613882-4.235517-8.696103-2.317162l-11.933943 11.955003-12.068854-12.072144c-.639671-.612689-1.446498-.936473-2.332956-.936473-1.608391 0-3.510951 1.087177-5.656349 3.232575-3.711671 3.711013-4.507312 6.276278-2.575795 8.322962l12.072144 12.03529-12.001069 12.022129c-.987147.98583-1.481378 2.044709-1.469532 3.148339zm-76.5314965 17.823918c.0723907.199404 1.7768637 4.913357 2.7646683 7.249604 5.4220669 12.820401 13.1869615 24.336452 23.0788278 34.228977 9.8852854 9.883969 21.402653 17.648206 34.2335834 23.074879 13.282386 5.618838 27.38871 8.467743 41.927404 8.467743 14.536061 0 28.642385-2.849563 41.927403-8.469059 12.825666-5.424699 24.343692-13.189594 34.232926-23.078828 9.888576-9.88726 17.652812-21.405285 23.078828-34.232267 5.618838-13.28436 8.467742-27.391342 8.467742-41.928062 0-14.537378-2.848904-28.64436-8.467742-41.927404-5.4247-12.826323-13.189594-24.344349-23.078828-34.233583-9.885944-9.8866016-21.403969-17.6514962-34.232926-23.0788279-13.283701-5.618838-27.390025-8.4677429-41.927403-8.4677429-14.7098 0-29.407753 2.9278766-42.505872 8.4677429-10.4696758 4.4289975-28.1909303 15.831198-38.563866 26.5292339l-.0612031.062519v-88.6418094l148.9011821-.0013162c5.418777-.0592288 5.418777-7.626036 5.418777-10.1129872 0-2.48563492 0-10.05046782-5.435229-10.112329l-161.0016247-.0013162c-4.3829306 0-7.0962674 3.64586118-7.0962674 7.02387661v124.76808239c0 4.024925 5.0140463 6.931743 9.6727198 7.928103 9.0982005 1.943362 11.2001645-.964772 13.4284833-4.042036l.2954859-.408021c3.4017069-5.053532 14.0319588-15.752226 14.1385707-15.858838 16.5893264-16.589326 38.7711674-25.7250385 62.4580774-25.7250385 23.573717 0 45.69238 9.1357125 62.281707 25.7250385 16.645264 16.646581 25.812565 38.702725 25.812565 62.106653 0 23.488823-9.119918 45.544309-25.680946 62.105337-16.349121 16.349121-39.189059 25.725696-62.662087 25.725696-15.898982 0-31.24582-4.236174-44.39198-12.25312l.055939-75.864185c0-10.11562 4.390169-21.111774 11.742437-29.415651 8.406539-9.493059 19.991691-14.720987 32.62256-14.720987 12.232062 0 23.655979 4.643537 32.168473 13.075743 8.451291 8.372319 13.105357 19.526416 13.105357 31.40837 0 25.351897-19.935095 45.210653-45.383732 45.210653-4.906119 0-13.824658-2.167774-14.191219-2.257275-5.138427-1.530077-7.324627 5.603702-8.043928 7.955085-2.765984 9.04292 1.390561 10.835578 2.25201 11.103424 8.189368 2.541573 13.559445 3.023301 20.603723 3.023301 35.926211 0 65.153645-29.242571 65.153645-65.185234 0-35.654417-29.209666-64.662046-65.113501-64.662046-17.582396 0-34.09999 6.721151-46.50908 18.924915-11.81746 11.622663-18.5958662 27.119547-18.5958662 42.513768l-.006581.382355c-.0572545 1.919671-.094766 47.398828-.1059537 62.323825l-.067126-.074365c-6.7527403-7.477306-13.4271671-18.922941-17.8522159-30.616678-1.7347455-4.582993-5.6530591-3.771558-11.0001028-2.124998-2.3349306.719301-9.4410694 2.908134-7.8695322 8.045244z" fill="#0a0a08"/></svg>