<svg height="265" preserveAspectRatio="xMidYMid" viewBox="0 0 256 265" width="256" xmlns="http://www.w3.org/2000/svg"><path d="m192.133677 57.9540208c-9.01507 0-18.03014 1.9318007-23.181608 3.8636014 0 0 7.727203-6.4393357 21.893741-8.3711364-4.507535-30.2648775-31.552745-53.4464858-64.473848-53.4464858-36.0602796 0-65.1177817 29.0575021-65.1177817 65.1177817 0 7.0832692 1.9318007 18.0301398 4.5075349 25.113409 0 0-6.4393356-6.4393357-9.6590034-21.8937412-32.1966782 1.9318007-56.1027118 28.3330768-56.1027118 60.6102465 0 33.565037 27.0452097 60.610247 59.9663132 60.610247h1.2878671c0-4.507535 0-9.01507 1.2878671-13.522605 1.2878672-5.795402 3.2196678-11.590804 6.4393357-16.742273 2.5757342-4.507535 5.1514685-8.371136 8.3711363-12.234737l46.4437086-65.117782c3.863601-4.5075349 9.01507-7.0832692 14.166538-7.7272027 4.507535-.6439336 9.01507.6439335 12.878671 3.2196678l.643934.6439336.643934.6439335c4.507534 3.8636014 7.083269 9.0150699 7.727202 14.1665384.643934 4.507535-.643933 9.0150704-3.219668 12.8786714v.643933l-16.66178 23.181609c5.151468 1.287867 9.659003 3.219668 14.166538 5.795402 10.302937 5.795402 19.318007 14.166538 25.757343 25.113409 3.863601 7.083269 6.439335 15.534897 7.083269 23.825542v7.083269h3.863601c36.06028 0 65.117782-29.057502 65.117782-65.117782 1.207375-39.2799471-27.769635-68.3374492-63.829915-68.3374492z" fill="#009bdf"/><path d="m167.403135 215.232602h-19.260188v-31.458307c0-12.198119-10.272101-22.47022-22.47022-22.47022s-22.470219 10.272101-22.470219 22.47022v31.458307h-19.2601883c-2.568025 0-4.4940438 1.284012-4.4940438 3.210031s1.2840125 3.210032 5.1360501 7.704075c12.1981191 12.19812 29.532288 30.174295 30.816301 32.100314 2.568025 2.568025 5.13605 5.778056 9.630094 5.778056 4.494044 0 7.062069-3.210031 9.630094-5.778056 1.926019-1.926019 19.260188-19.982445 30.816301-32.100314 3.852038-3.852037 5.13605-5.778056 5.13605-7.704075.642006-2.648276-1.284012-3.210031-3.210031-3.210031z" fill="#3b3a3c"/></svg>