<svg height="276" preserveAspectRatio="xMidYMid" viewBox="0 0 256 276" width="256" xmlns="http://www.w3.org/2000/svg"><path d="m238.04054 223.122821c-1.93143 14.343827-11.583067 26.756223-25.097564 32.272232-6.620863 2.755249-13.790021 3.584579-20.961934 2.755249-6.893633-.826575-13.790022-3.033529-20.95918-7.166403-9.929917-5.521519-19.859834-14.068301-31.442901-26.756223 18.20393-22.339559 29.233192-42.750444 33.371576-60.948864 1.931429-8.552293 2.206954-16.275256 1.38038-23.447169-1.1021-6.893633-3.584579-13.238971-7.447439-18.75498-8.549537-12.409642-22.890608-19.581555-38.887584-19.581555s-30.3380473 7.447438-38.887585 19.581555c-3.8628591 5.516009-6.3425832 11.861347-7.4474381 18.75498-1.1020996 7.171913-.8265747 15.170401 1.3803798 23.447169 4.1356287 18.19842 15.4431707 38.88483 33.3715763 61.221634-11.307542 12.690677-21.5129845 21.240214-31.442902 26.756223-7.169158 4.138384-14.0655463 6.345338-20.9591793 7.169158-7.4474381.82933-14.6193514-.275525-20.9619346-2.755249-13.5144965-5.516009-23.1661338-17.931161-25.0975634-32.272232-.8265747-6.893633-.2755249-13.787266 2.4824794-21.510229.8265747-2.76076 2.2069545-5.513253 3.584579-8.825063 1.9314296-4.411153 4.138384-9.103342 6.3425832-13.792776l.2782802-.548295c19.0277497-41.097294 39.4386345-83.0184082 60.676094-123.8346672l.8265747-1.6586599c2.2069545-4.1328736 4.4111537-8.5440272 6.6208634-12.6824113 2.2041994-4.4139089 4.6866784-8.5522929 7.7202074-12.1396272 5.791534-6.6208634 13.514497-10.2054424 22.064035-10.2054424 8.549537 0 16.2725 3.584579 22.064034 10.2054424 3.033529 3.5873343 5.516008 7.7257183 7.722963 12.1396272 2.206954 4.1383841 4.411153 8.5495377 6.618108 12.6824113l.82933 1.6586599c20.959179 41.0917839 41.370064 83.0128982 60.400569 124.1101922v.27277c2.206954 4.413909 4.135629 9.381623 6.342583 13.792776 1.38038 3.31181 2.758004 6.064303 3.584579 8.825063 2.206955 7.169158 3.033529 14.068301 1.93143 21.234704zm-110.044646-12.963447c-14.892121-18.752224-24.546514-36.405105-27.855568-51.294471-1.3776244-6.345338-1.6559046-11.861347-.8265746-16.826305.5510498-4.413909 2.2069546-8.276768 4.4111536-11.588578 5.240484-7.439172 14.065546-12.136872 24.270989-12.136872 10.205442 0 19.30603 4.416664 24.270988 12.136872 2.2042 3.31181 3.860104 7.174669 4.411154 11.588578.826575 4.964958.55105 10.756492-.826575 16.826305-3.309054 14.616596-12.963446 32.266722-27.855567 51.294471zm124.385717-14.341071c-1.377625-3.309054-2.758004-6.893633-4.135629-9.927162-2.206954-4.962203-4.413909-9.654392-6.345338-14.068301l-.275525-.27277c-19.02775-41.372819-39.438635-83.2939333-60.951619-124.6584869l-.826575-1.6586599c-2.206954-4.138384-4.413909-8.552293-6.618108-12.9634466-2.76076-4.967714-5.518764-10.2026872-9.929918-15.1704012-8.827817-11.03201705-21.512984-17.0990754-35.02748-17.0990754-13.790022 0-26.199663 6.06705835-35.3030061 16.5507809-4.1356288 4.9622035-7.169158 10.2026871-9.9271622 15.1704011-2.2069545 4.4111537-4.413909 8.8250626-6.6208634 12.9634467l-.8265747 1.6503941c-21.2347043 41.3700641-41.9211139 83.2939332-60.9516189 124.6639972l-.2755249.55105c-1.9314296 4.411154-4.1383841 9.097832-6.34533853 14.065546-1.37762451 3.036285-2.75800427 6.345339-4.13562879 9.929918-3.58733422 10.202687-4.68943383 19.857079-3.31180932 29.784242 3.03628442 20.686409 16.82630574 38.063765 35.85681074 45.783973 7.169158 3.036284 14.6165961 4.413909 22.3395591 4.413909 2.2069545 0 4.9649588-.275525 7.1719132-.553806 9.1005876-1.104854 18.4767-4.132873 27.5772875-9.376112 11.3102973-6.342583 22.0667893-15.443171 34.2009063-28.682142 12.134117 13.238971 23.166134 22.339559 34.198151 28.682142 9.103342 5.243239 18.479455 8.271258 27.580042 9.376112 2.206955.278281 4.964959.553806 7.171914.553806 7.722963 0 15.44317-1.377625 22.339559-4.413909 19.30603-7.720208 32.820526-25.373089 35.854055-45.783973 2.206955-9.654393 1.1021-19.303275-2.482479-29.511473z" fill="#e0565b"/></svg>