<svg height="215" preserveAspectRatio="xMidYMid" viewBox="0 0 256 215" width="256" xmlns="http://www.w3.org/2000/svg"><path d="m114.25873 2.70101695-95.3983277 39.47462145c-5.30513 2.1955254-5.2501695 9.7308927.0882259 11.8468701l95.7975138 37.9892429c8.417627 3.3381243 17.791277 3.3381243 26.207458 0l95.79896-37.9892429c5.33695-2.1159774 5.393356-9.6513447.08678-11.8468701l-95.396881-39.47462145c-8.704-3.60135593-18.481175-3.60135593-27.183729 0" fill="#ffbf00"/><path d="m136.349071 112.756863v94.902238c0 4.513988 4.551593 7.604791 8.74739 5.941514l106.747661-41.434396c2.437062-.966147 4.035254-3.320768 4.035254-5.941514v-94.9022372c0-4.5139887-4.551593-7.604791-8.74739-5.9415141l-106.747661 41.4343953c-2.435615.966147-4.035254 3.320769-4.035254 5.941514" fill="#26b5f8"/><path d="m111.422771 117.65355-31.680362 15.296362-3.2166327 1.554802-66.87529946 32.04339c-4.23918644 2.045107-9.64989831-1.044249-9.64989831-5.753492v-89.0735363c0-1.703774.87358192-3.1746893 2.04510735-4.2825763.48885875-.490305 1.04280226-.8938305 1.61844067-1.2134689 1.59819209-.9589152 3.87760452-1.2149152 5.81568362-.4483616l101.41071183 40.1804291c5.154712 2.045108 5.559684 9.268068.532249 11.696452" fill="#ed3049"/><path d="m111.422771 117.65355-31.680362 15.296362-77.69672312-65.5114126c.48885875-.490305 1.04280226-.8938305 1.61844067-1.2134689 1.59819209-.9589152 3.87760452-1.2149152 5.81568362-.4483616l101.41071183 40.1804291c5.154712 2.045108 5.559684 9.268068.532249 11.696452" fill-opacity=".25"/></svg>