<svg height="162" preserveAspectRatio="xMidYMid" viewBox="0 0 512 162" width="512" xmlns="http://www.w3.org/2000/svg"><path d="m265.937496 43.17597c-3.21971-3.2328307-8.441571-3.2302067-11.65997 0l-1.456349 1.4642204c-3.21971 3.2302067-3.217086 8.4756845 0 11.7085153l1.550814 1.5573741c3.303681-5.3241993 7.510034-10.0225625 12.397329-13.8917255zm50.362098-8.1030693c.011808-.1784354.051169-.3476868.051169-.5300583v-4.1394403c-.001312-4.5710968-3.690728-8.2775687-8.242144-8.2801928h-14.428345c-4.550104.0026241-8.240831 3.707784-8.240831 8.2801928v4.0672789c4.5934-1.292345 9.426903-1.9982148 14.425719-1.9982148 5.730928 0 11.251931.9197299 16.434432 2.6004345zm-61.770159 51.6006495c0 25.3588288 20.555502 45.9208908 45.920891 45.9208908 25.364076 0 45.920891-20.562062 45.920891-45.9208908 0-25.3588282-20.556815-45.9208912-45.920891-45.9208912-25.365389 0-45.920891 20.562063-45.920891 45.9208912zm45.920891-32.8006366c18.084959 0 32.800637 14.7143656 32.800637 32.8006366 0 18.0849588-14.715678 32.8006368-32.800637 32.8006368-18.086271 0-32.800637-14.715678-32.800637-32.8006368 0-18.086271 14.714366-32.8006366 32.800637-32.8006366zm7.664852 7.1702192-7.471984 26.4779859 24.065171-13.18848c-3.495236-6.4092444-9.459704-11.2545545-16.593187-13.2895059z" fill="#42afda"/><path d="m90.3196717 130.129456c-1.8935794-5.032485-3.6729929-9.978363-5.3421774-14.841568-1.6691843-4.863206-3.3974201-9.810395-5.1755213-14.841569h-52.4218378l-10.5176986 29.683137h-16.8624366c4.45115834-12.297112 8.62411929-23.670399 12.5215073-34.1251092 3.8960758-10.4533984 7.7042308-20.3766471 11.4375873-29.764497 3.7254831-9.3930988 7.4273456-18.3636526 11.1003386-26.915598s7.512642-17.0199067 11.5202592-25.403884h14.8573157c4.0076171 8.3839773 7.8472661 16.8519386 11.5202591 25.403884s7.372231 17.5224992 11.102963 26.915598c3.7267954 9.3878499 7.5375748 19.3110986 11.4349629 29.764497 3.8947638 10.4547102 8.0690369 21.8279972 12.5215069 34.1251092zm-15.1919399-43.095663c-3.5640761-9.7290354-7.0966581-19.1444425-10.6003706-28.2580317-3.5076492-9.1109647-7.1543972-17.8571235-10.9363071-26.2437252-3.897388 8.3866017-7.5966261 17.1327605-11.1016509 26.2437252-3.5050246 9.1135892-6.9864288 18.5289963-10.4350268 28.2580317zm73.6212672 44.771409c-9.571566-.224395-16.358532-2.289879-20.364837-6.204326-4.008929-3.911823-6.008802-10.004608-6.008802-18.278357v-104.64027618l15.522628-2.68224282v104.806932c0 2.574639.224395 4.69655.667936 6.373608.447477 1.675745 1.170529 3.019491 2.170464 4.024677 1.001248 1.003872 2.338433 1.759729 4.00893 2.263634 1.670497.502592 3.728108.922513 6.174145 1.258449zm73.958515-10.396971c-1.333248.898892-3.922321 2.040552-7.76197 3.4381s-8.320989 2.096978-13.440084 2.096978c-5.231948 0-10.15683-.839841-14.774644-2.514275-4.619126-1.679682-8.6543-4.277941-12.10421-7.798713-3.44991-3.523396-6.17677-7.908942-8.180579-13.163198-2.001184-5.2542563-3.005056-11.51501-3.005056-18.7809486 0-6.3722951.943508-12.2144404 2.8384-17.5251237 1.892267-5.3080588 4.645372-9.8943791 8.264562-13.7510874 3.615255-3.8567082 8.038855-6.8748875 13.270804-9.0545378 5.231947-2.1809627 11.13052-3.2714439 17.697029-3.2714439 7.234444 0 13.549.5340865 18.950229 1.594386 5.397292 1.0642362 9.932434 2.0405516 13.604115 2.9328829v77.8112865c0 13.415151-3.447286 23.138938-10.348419 29.176609-6.903756 6.036358-17.365029 9.053225-31.387752 9.053225-5.453719 0-10.600371-.443541-15.44258-1.338497-4.840898-.89758-9.04404-1.955255-12.602867-3.186148l2.838401-13.581806c3.113973 1.225644 6.927377 2.318749 11.434962 3.268819 4.507586.947447 9.208072 1.426418 14.105396 1.426418 9.238253 0 15.887434-1.845026 19.951477-5.536391 4.062733-3.687427 6.092786-9.558442 6.092786-17.607795zm-6.426097-65.9852733c-2.617943-.3897388-6.150525-.5878889-10.600372-.5878889-8.347233 0-14.775955 2.7426065-19.28354 8.2186336-4.507585 5.4773393-6.760722 12.7419656-6.760722 21.7978158 0 5.0324859.636442 9.336672 1.918512 12.9138706 1.280758 3.5798232 3.005057 6.5376392 5.175521 8.8878822 2.170465 2.344994 4.675554 4.081103 7.512643 5.196517 2.8384 1.119351 5.760785 1.677059 8.765842 1.677059 4.116534 0 7.901068-.586577 11.350979-1.75973 3.448598-1.175778 6.176769-2.543144 8.180578-4.107349v-50.9783607c-1.560267-.4474779-3.644124-.8660863-6.259441-1.2584496zm172.512567 76.3835573c-9.574189-.225708-16.361156-2.28988-20.367461-6.204328-4.006305-3.91051-6.010114-10.005919-6.010114-18.278356v-104.63896367l15.527877-2.68355508v104.80561975c0 2.574639.220458 4.69655.666624 6.373608.444853 1.677057 1.167904 3.019491 2.171776 4.024677.999936 1.006497 2.333184 1.762353 4.004993 2.264946 1.669185.503904 3.726796.921201 6.17677 1.257137zm27.210855-104.6389646c-2.780662 0-5.149276-.9238253-7.092722-2.7662269-1.950006-1.8463383-2.922385-4.3304311-2.922385-7.4627764 0-3.1297206.972379-5.6190625 2.922385-7.46146406 1.943446-1.84633841 4.31206-2.76753923 7.092722-2.76753923 2.781974 0 5.147964.92120082 7.09797 2.76753923 1.943446 1.84240156 2.921073 4.33174346 2.921073 7.46146406 0 3.1323453-.977627 5.6164381-2.921073 7.4627764-1.950006 1.8424016-4.315996 2.7662269-7.09797 2.7662269zm-7.677986 102.9619056h15.526564v-87.1991361h-15.526564zm70.282898-89.3787864c6.233197 0 11.49139.8135961 15.778516 2.4329149 4.281879 1.6206311 7.733101 3.9118229 10.348419 6.8722631 2.615318 2.9656892 4.481339 6.486461 5.594129 10.5675643 1.110166 4.0797911 1.669185 8.5781904 1.669185 13.4978227v54.5017574c-1.335872.223083-3.200582.530149-5.591506.9212-2.394859.391052-5.092849.753233-8.097905 1.089169-3.005057.334625-6.262066.641691-9.765779.921201-3.50765.276886-6.987741.419921-10.435027.419921-4.899948 0-9.404909-.502593-13.522756-1.50909-4.119158-1.006497-7.680609-2.599571-10.685666-4.777909-3.005057-2.179651-5.342178-5.057419-7.011363-8.637242-1.669183-3.577198-2.503776-7.881385-2.503776-12.912558 0-4.8054664.972379-8.9429966 2.922385-12.4086538 1.943446-3.4643449 4.587632-6.2581291 7.928626-8.3852894 3.339681-2.1219113 7.234444-3.6887401 11.686915-4.6952372 4.449846-1.0051849 9.124087-1.5090897 14.022723-1.5090897 1.556331 0 3.173026.0826719 4.84221.2506401 1.669184.1679683 3.257009.3949879 4.756913.6731852 1.502529.2795097 2.810843.5301498 3.926258.7532326 1.111477.2257073 1.889642.3936756 2.335808.5025924v-4.3593007c0-2.5720136-.278197-5.1138455-.834592-7.6307445-.55902-2.5155869-1.560268-4.7490396-3.006369-6.7056071s-3.422354-3.522084-5.927442-4.6978617c-2.503777-1.171841-5.760785-1.7597297-9.764466-1.7597297-5.123031 0-9.599123.3648059-13.441396 1.0904812-3.837024.7269876-6.704295 1.4828446-8.596562 2.2636345l-1.835841-12.9125584c2.002497-.8923313 5.34349-1.7597298 10.016419-2.5982587 4.674242-.8398412 9.738221-1.2584495 15.19194-1.2584495zm1.335872 78.1445984c3.672993 0 6.930003-.085296 9.767091-.253264 2.838401-.167968 5.203079-.472411 7.095346-.921201v-25.9917728c-1.115414-.557707-2.923698-1.0327422-5.424849-1.4251055-2.506401-.3910511-5.539015-.5892012-9.100467-.5892012-2.337121 0-4.814652.1692806-7.427345.5052171-2.616631.3346242-5.01149 1.0353667-7.179331 2.094354-2.171776 1.0642362-3.981372 2.5155868-5.426161 4.3619251-1.447414 1.8424016-2.170465 4.2753163-2.170465 7.2934963 0 5.590193 1.778101 9.474458 5.342178 11.654108 3.561451 2.182275 8.402349 3.271444 14.524003 3.271444z" fill="#091522"/></svg>