<svg height="288" preserveAspectRatio="xMidYMid" viewBox="0 0 256 288" width="256" xmlns="http://www.w3.org/2000/svg"><path d="m128.0418 254.7929-96.192-55.538v-110.931l96.112-55.492 96.189 55.536v110.935zm108.302-173.464-108.382-62.577-108.306 62.532v125.01l108.386 62.578 108.302-62.529z" fill="#33363b"/><g fill="#7ebc59"><path d="m47.8621 97.5463c-7.051 12.267-22.771 16.454-35.037 9.402-12.267-7.051-16.454-22.77-9.402-35.037 7.051-12.267 22.771-16.453 35.037-9.402 12.267 7.125 16.454 22.77 9.402 35.037"/><path d="m208.138 97.5463c-7.052-12.267-2.865-27.912 9.401-35.037 12.268-7.051 27.913-2.865 35.038 9.402 7.051 12.267 2.865 27.912-9.402 35.037-12.266 7.052-27.986 2.865-35.037-9.402"/><path d="m127.9998 287.6445c-14.176 0-25.635-11.459-25.635-25.636s11.459-25.635 25.635-25.635c14.177 0 25.635 11.458 25.635 25.635 0 14.104-11.458 25.636-25.635 25.636"/></g><path d="m120.8626 50.2597c2.266.654 4.659 1.011 7.137 1.011 2.487 0 4.887-.359 7.159-1.017l77.422 134.094c-1.733 1.651-3.263 3.57-4.517 5.75-1.245 2.167-2.133 4.442-2.694 6.758h-154.737c-.562-2.314-1.45-4.589-2.697-6.758-1.258-2.165-2.785-4.073-4.509-5.718zm122.239 130.437c-6.285-3.614-13.473-4.27-19.94-2.408l-77.44-134.126c4.876-4.665 7.913-11.234 7.913-18.527 0-14.177-11.458-25.635-25.635-25.635-14.176 0-25.635 11.458-25.635 25.635 0 7.302 3.045 13.877 7.93 18.542l-77.439 134.125c-6.47-1.879-13.658-1.228-19.957 2.394-12.267 7.125-16.453 22.77-9.402 35.037 7.052 12.266 22.697 16.453 35.037 9.401 6.292-3.654 10.452-9.553 12.066-16.086h154.794c1.61 6.554 5.772 12.464 12.073 16.086 12.266 7.052 27.986 2.865 35.037-9.401 7.125-12.267 2.938-27.912-9.402-35.037z" fill="#368cbf"/></svg>