<svg height="235" preserveAspectRatio="xMidYMid" viewBox="0 0 256 235" width="256" xmlns="http://www.w3.org/2000/svg"><path d="m246.7735 71.523c-5.923-14.036-14.406-26.621-25.21-37.404-22.053-22.009-51.405-34.119-82.682-34.119h-.241c-20.888.041-41.867 6.078-60.668 17.457-17.747 10.741-32.547 25.841-41.672 42.52-.774 1.415-.254 3.19 1.161 3.964 1.416.774 3.189.254 3.963-1.161 8.638-15.789 22.692-30.111 39.572-40.327 17.893-10.829 37.83-16.574 57.656-16.613h.228c29.718 0 57.608 11.506 78.558 32.413 21.101 21.059 32.721 49.151 32.721 79.101 0 29.786-11.599 57.789-32.661 78.851s-49.065 32.662-78.852 32.662c-19.752 0-39.158-5.232-56.119-15.129-16.464-9.607-30.29-23.363-39.981-39.78-.82-1.39-2.611-1.85-4-1.031-1.388.82-1.849 2.611-1.029 3.999 10.196 17.274 24.743 31.748 42.067 41.857 17.853 10.417 38.276 15.924 59.062 15.924 31.346 0 60.816-12.207 82.981-34.372 22.166-22.166 34.373-51.635 34.373-82.981 0-15.905-3.104-31.324-9.227-45.831m-233.146 12.6138h36.867c1.612 0 2.92-1.308 2.92-2.92 0-1.613-1.308-2.92-2.92-2.92h-36.867c-1.613 0-2.92 1.307-2.92 2.92 0 1.612 1.307 2.92 2.92 2.92m24.3345 34.9199c0-1.613-1.307-2.92-2.92-2.92h-32.122c-1.613 0-2.92 1.307-2.92 2.92s1.307 2.92 2.92 2.92h32.122c1.613 0 2.92-1.307 2.92-2.92m12.4107 37.8403c0-1.613-1.307-2.92-2.92-2.92h-39.422c-1.613 0-2.92 1.307-2.92 2.92 0 1.612 1.307 2.92 2.92 2.92h39.422c1.613 0 2.92-1.308 2.92-2.92m26.021-61.2397c.766-.125 1.45-.549 1.902-1.179.453-.63.636-1.414.509-2.179-2.161-13.068.027-24.691 6.33-33.615 5.541-7.845 14.139-13.399 24.211-15.637 19.882-4.418 43.787 4.577 51.006 30.319.231.824.812 1.505 1.589 1.863.777.359 1.672.358 2.448-.001 8.068-3.729 16.286-3.993 23.144-.742 6.988 3.313 12.065 9.894 14.294 18.532.285 1.104 1.186 1.941 2.307 2.144 19.031 3.444 27.039 17.99 26.533 30.877-.269 6.857-2.888 13.34-7.374 18.253-4.982 5.458-12.066 8.804-20.491 9.684h-32.125c-.738 0-1.449.28-1.99.784l-48.96 45.587v-43.815c0-1.613-1.308-2.92-2.92-2.92h-39.284c-7.846-.594-14.553-3.8-19.4-9.276-4.427-5.004-7.038-11.609-7.349-18.6-.311-6.978 1.727-13.707 5.738-18.946 4.517-5.9 11.392-9.749 19.882-11.133m-31.455 30.339c.67 15.03 11.053 31.908 32.265 33.448.07.005.14.008.211.008h36.471v47.604c0 1.163.69 2.214 1.755 2.678.375.163.772.243 1.165.243.725 0 1.439-.27 1.99-.783l53.03-49.377h31.125c.098 0 .196-.005.294-.015 22.152-2.235 32.666-18.453 33.258-33.534.328-8.371-2.286-16.561-7.362-23.063-5.283-6.766-12.917-11.384-22.161-13.427-2.897-9.475-8.863-16.738-16.946-20.57-7.561-3.583-16.345-3.757-25.035-.552-4.094-11.903-11.807-21.127-22.454-26.797-10.401-5.538-22.641-7.141-34.466-4.513-11.492 2.554-21.335 8.936-27.714 17.969-6.742 9.545-9.392 21.642-7.728 35.126-19.996 4.538-28.353 20.845-27.698 35.555m48.1859-15.4543c4.629 0 8.396 3.766 8.396 8.395s-3.767 8.396-8.396 8.396-8.396-3.767-8.396-8.396 3.767-8.395 8.396-8.395m34.044-25.077c4.629 0 8.395 3.766 8.395 8.395 0 4.63-3.766 8.396-8.395 8.396s-8.396-3.766-8.396-8.396c0-4.629 3.767-8.395 8.396-8.395m28.354 48.569c0 4.63-3.766 8.396-8.396 8.396-4.629 0-8.395-3.766-8.395-8.396 0-4.629 3.766-8.395 8.395-8.395 4.63 0 8.396 3.766 8.396 8.395m23.824-34.201c4.629 0 8.395 3.766 8.395 8.395s-3.766 8.395-8.395 8.395c-4.63 0-8.396-3.766-8.396-8.395s3.766-8.395 8.396-8.395m-86.222 33.34c7.85 0 14.236-6.386 14.236-14.236 0-2-.417-3.905-1.165-5.634l11.23-9.077c2.549 2.397 5.976 3.87 9.743 3.87.765 0 1.515-.062 2.248-.179l7.643 16.063c-2.574 2.577-4.168 6.133-4.168 10.054 0 7.85 6.386 14.236 14.235 14.236 7.85 0 14.236-6.386 14.236-14.236 0-2.388-.594-4.64-1.638-6.619l10.568-8.209c2.462 2.034 5.618 3.257 9.054 3.257 7.849 0 14.235-6.385 14.235-14.235s-6.386-14.236-14.235-14.236c-7.85 0-14.236 6.386-14.236 14.236 0 2.308.555 4.487 1.534 6.417l-10.646 8.268c-2.435-1.946-5.519-3.114-8.872-3.114-1.809 0-3.539.343-5.132.961l-7.111-14.945c3.92-2.539 6.52-6.947 6.52-11.955 0-7.849-6.385-14.235-14.235-14.235s-14.236 6.386-14.236 14.235c0 1.976.405 3.859 1.136 5.57l-11.252 9.094c-2.543-2.369-5.95-3.822-9.692-3.822-7.85 0-14.236 6.385-14.236 14.235s6.386 14.236 14.236 14.236" fill="#26bf95"/></svg>