<svg height="256" preserveAspectRatio="xMidYMid" viewBox="0 0 256 256" width="256" xmlns="http://www.w3.org/2000/svg" xmlns:xlink="http://www.w3.org/1999/xlink"><radialGradient id="a" cx="16.608969%" cy="17.371835%" r="118.520308%"><stop offset="0" stop-color="#88cde7"/><stop offset="1" stop-color="#2274ad"/></radialGradient><mask id="b" fill="#fff"><path d="m0 0h254.693878v160.344259c.632822.854723 1.068544 1.813367 1.306122 3.052081v4.96785c-.237578 1.243859-.6733 2.326818-1.306122 3.240488v84.395322h-254.693878v-64-128z" fill="#fff" fill-rule="evenodd"/></mask><g fill="none" fill-rule="evenodd"><path d="m0 256h256v-256h-256z" fill="url(#a)" mask="url(#b)"/><path d="m22.9367474 110.957581-4.898573-11.8947072-4.8687297 11.8947072zm107.7941856-4.719513c-.967777.549971-2.131668.609657-3.534306.609657h-8.688678v-6.642277h8.803789c1.257684 0 2.562264.046897 3.410668.507337.912354.456177 1.492168 1.381321 1.492168 2.651795 0 1.317371-.56276 2.344835-1.483641 2.873488zm61.946271 4.719513-4.928416-11.8947072-4.898573 11.8947072zm-115.4724535 12.900855h-7.3286745l-.0426333-23.392925-10.355643 23.392925h-6.2756305l-10.4110664-23.444085v23.444085h-14.5422389l-2.7370616-6.667858h-14.8918325l-2.76264167 6.667858h-7.77206141l12.78574448-29.907302h10.6370232l12.1547707 28.334131v-28.334131h11.6858038l9.3452324 20.306269 8.6034119-20.306269h11.9074973zm29.1995875 0h-23.8832076v-29.907302h23.8832076v6.254314h-16.7165399v5.36754h16.3072599v6.14773l-16.3072599-.02558v5.972934h16.7165399zm33.684617-21.82828c0 4.728039-3.180448 7.226354-5.022209 7.963911 1.560381.601131 2.886278 1.632858 3.508725 2.528158 1.010411 1.458061 1.210787 2.822329 1.210787 5.452807v5.883404h-7.213564l-.021317-3.760263c0-1.777811.170534-4.369919-1.159627-5.8024-1.044517-1.070097-2.617688-1.291791-5.20127-1.291791h-7.682531v10.854454h-7.145351v-29.907302h16.46074c3.632362 0 6.335317.1193734 8.654572 1.4495342 2.263831 1.3216342 3.611045 3.2785054 3.611045 6.6294878zm4.156753 21.82828h7.294568v-29.9115653h-7.294568zm91.921786 0h-10.142476l-13.557408-22.425147.02558 22.425147h-14.563556l-2.788222-6.667858h-14.870515l-2.673112 6.667858h-8.368929c-3.487408 0-7.895698-.775928-10.364169-3.295559-2.540948-2.553738-3.824213-5.977197-3.824213-11.430004 0-4.433869.780191-8.484038 3.849793-11.6858035 2.314991-2.3874681 5.926037-3.4959355 10.858716-3.4959355h6.910868v6.403531h-6.757387c-2.613425 0-4.10133.400753-5.525284 1.786337-1.202261 1.261948-2.054928 3.640889-2.054928 6.782968 0 3.210292.639501 5.49544 1.986715 7.025977 1.07436 1.172418 3.082392 1.526275 4.971049 1.526275h3.214556l10.074263-23.525088h10.709499l12.112138 28.291497v-28.291497h10.90135l12.564051 20.826396v-20.826396h7.311621zm-236.167494 5.89193h12.2187208l2.754115-6.667858h6.1647838l2.7455883 6.667858h24.0452147v-5.090423l2.1487213 5.107476h12.461731l2.1401946-5.171426v5.154373h59.7463895l-.029843-10.909877h1.155364c.814297.017054 1.057307.110847 1.057307 1.453798v9.456079h30.879342v-2.536685c2.494052 1.338687 6.377951 2.536685 11.459847 2.536685h13.007438l2.775432-6.667858h6.17331l2.749852 6.667858h25.025782v-6.322527l3.798632 6.322527h20.041943v-41.7252689h-19.841566v4.9412063l-2.771168-4.9412063h-20.395799v4.9412063l-2.549475-4.9412063h-27.532624c-4.612929 0-8.675888.635237-11.941604 2.4343648v-2.4343648h-18.976108v2.4343648c-2.110351-1.8502878-4.94547-2.4343648-8.087548-2.4343648h-69.4113724l-4.6768795 10.7905032-4.7578829-10.7905032h-21.8581234v4.9412063l-2.4258381-4.9412063h-18.63930475l-8.65457195 19.8202489z" fill="#fff"/><path d="m254.705373 151.820026h-13.054335c-1.300317 0-2.165774.05116-2.864961.532917-.750347.477494-1.065834 1.223578-1.065834 2.174302 0 1.108467.6395 1.875867 1.590224 2.208408.71624.264326 1.547591.33254 2.766905.349593l3.828476.098057c3.905215.110847 6.535694.775927 8.134445 2.400258.26859.238747.46044.52439.66508.754611zm0 19.726456c-1.756494 2.549475-5.13732 3.832739-9.724669 3.832739h-13.813209v-6.429111h13.770575c1.342951 0 2.306465-.183323 2.899069-.74182.481757-.439124.848404-1.116994.848404-1.939818 0-.882511-.366647-1.581698-.865457-1.982451-.558497-.473231-1.296055-.665081-2.532422-.682134-6.710491-.208904-15.087946.208903-15.087946-9.251439 0-4.335813 2.766905-8.901846 10.244796-8.901846h14.260859v-5.951617h-13.246185c-3.999009 0-6.893814.946461-8.961532 2.455682v-2.455682h-19.581502c-3.099445 0-6.770177.780191-8.535198 2.455682l.02558-2.455682h-34.963618v2.455682c-2.783959-2.008031-7.465101-2.455682-9.66072-2.455682h-23.026277v2.455682c-2.212671-2.140195-7.081401-2.455682-10.078526-2.455682h-25.810236l-5.8961939 6.412058-5.5295467-6.412058h-38.5533469v41.750849h37.8328431l6.0880437-6.488797 5.7341877 6.488797 23.286341.017054v-9.818463h2.306464c3.073866.042633 6.748861-.068213 9.963416-1.458061v11.25947h19.223382v-10.884296h.925144c1.185207 0 1.304581.068213 1.304581 1.24063v9.643666h58.416229c3.683522 0 7.554631-.950724 9.720406-2.656058v2.656058h18.532721c3.858319 0 7.605791-.532917 10.483543-1.909974zm-28.534507-11.962921c1.398374 1.449534 2.140194 3.278505 2.140194 6.343844 0 6.454691-4.028852 9.451816-11.225363 9.451816h-13.945372v-6.429111h13.881422c1.372794 0 2.323518-.183323 2.945965-.74182.47323-.439124.822824-1.116994.822824-1.939818 0-.882511-.383701-1.581698-.873984-1.982451-.54997-.473231-1.296054-.665081-2.536685-.682134-6.706227-.208904-15.058103.208903-15.058103-9.251439 0-4.335813 2.724272-8.901846 10.193637-8.901846h14.354652v6.369424h-13.096968c-1.317371 0-2.174302.05116-2.890542.532917-.775927.477494-1.065834 1.223578-1.065834 2.174302 0 1.108467.66508 1.875867 1.573171 2.208408.733294.264326 1.526274.33254 2.758378.349593l3.854056.098057c3.905216.110847 6.544221.775927 8.168552 2.400258zm-64.52559-1.833234c-.937934.54997-2.135931.605393-3.512989.605393h-8.692941v-6.701964h8.808052c1.261947 0 2.558001.02558 3.397878.515864.929408.503074 1.483641 1.423954 1.483641 2.715745 0 1.266211-.554233 2.297938-1.483641 2.864962zm4.323023 3.721892c1.590224.57555 2.890542 1.632858 3.500199 2.506841 1.006147 1.466588 1.172417 2.830855 1.180944 5.461334v5.938827h-7.162405v-3.738946c0-1.816181.174797-4.472239-1.16389-5.85356-1.031728-1.099941-2.630479-1.342951-5.231113-1.342951h-7.652688v10.935457h-7.175195v-29.928619h16.494847c3.632362 0 6.271367.149217 8.611938 1.415428 2.255305 1.351477 3.653679 3.248662 3.653679 6.655067 0 4.75362-3.171922 7.192248-5.056316 7.951122zm9.034009-16.021617h23.874681v6.203154h-16.750647v5.414437h16.33284v6.10936h-16.33284v5.947354l16.750647.034107v6.220207h-23.874681zm-48.226856 13.800419h-9.259966v-7.597265h9.336706c2.579318 0 4.365656 1.027464 4.365656 3.666469 0 2.579318-1.701071 3.930796-4.442396 3.930796zm-16.379737 13.412455-10.9567738-12.188878 10.9567738-11.80944zm-28.3426578-3.538569h-17.577734v-5.947354h15.6933395v-6.10936h-15.6933395v-5.414437h17.9230642l7.8061681 8.701469zm56.8345318-13.804682c0 8.283662-6.181837 10.014576-12.448941 10.014576h-8.923162v10.04442h-13.877158l-8.808053-9.899466-9.1491189 9.899466h-28.3128139v-29.928619h28.7519375l8.795262 9.80141 9.0894323-9.80141h22.847218c5.678763 0 12.035397 1.564645 12.035397 9.869623z" fill="#fff"/><path d="m140.088955 102.034419c0 4.732303-3.176185 7.222091-5.013683 7.959648 1.560381.601131 2.886279 1.641384 3.508726 2.528158 1.01041 1.466588 1.206524 2.822329 1.206524 5.461334v5.874877h-7.209301l-.029844-3.755999c0-1.782075.179061-4.374183-1.155364-5.806664-1.04878-1.070097-2.613425-1.291791-5.205533-1.291791h-7.674005v10.854454h-7.153877v-29.907302h16.469267c3.623835 0 6.331053.1193734 8.646045 1.4495342 2.272358 1.3216342 3.611045 3.2785054 3.611045 6.6337508" fill="#2f9bca"/><path d="m106.412865 123.858436h-23.8917346v-29.9115653h23.8917346v6.2585773h-16.7250669v5.36754h16.3072599v6.14773l-16.3072599-.017053v5.972933h16.7250669" fill="#2ea3d0"/><path d="m77.2047505 123.858436h-7.3286745l-.0426333-23.392925-10.3471164 23.392925h-6.2756305l-10.419593-23.435558v23.435558h-14.5379755l-2.741325-6.663594h-14.8918325l-2.754115 6.663594h-7.77632474l12.78574454-29.9115653h10.6327598l12.1547707 28.3426573v-28.3426573h11.6900672l9.3494957 20.3190593 8.5948852-20.3190593h11.9074973" fill="#55b2d8"/><g fill="#fff"><path d="m130.73946 106.238068c-.972041.558497-2.135932.609657-3.530043.609657h-8.692942v-6.642277h8.803789c1.257684 0 2.558002.046897 3.402142.515863.920881.447651 1.496431 1.372795 1.496431 2.647532 0 1.313108-.558497 2.349098-1.479377 2.869225"/><path d="m22.9410107 110.957581-4.9028363-11.8947072-4.8687297 11.8947072"/></g></g></svg>