<svg height="298" preserveAspectRatio="xMidYMid" viewBox="0 0 256 298" width="256" xmlns="http://www.w3.org/2000/svg"><path d="m124.444298 131.966382 51.598855 62.420098 1.715563-1.715563c5.542588-5.938487 10.821243-11.876974 15.703999-17.815461 4.882756-5.938488 17.815462-19.531025 22.302319-25.733445l20.190856 36.950587c-3.431126 4.882756-8.049949 10.821243-13.592537 17.419562s-12.140907 14.25237-20.190856 22.698218l53.314418 65.851224h-53.97425l-28.636705-35.235024c-26.129344 27.185075-53.710317 40.777612-81.9511231 40.777612-25.4695117 0-46.9800319-8.049949-64.7954934-24.41378-17.41956232-16.363832-26.1293435-36.554688-26.1293435-60.572569 0-28.636705 13.5925373-52.654587 41.4374438-71.393813l18.8711926-12.932705c.3958991 0 .6598319-.395899 1.4516302-1.055731.6598319-.395899 1.4516302-1.055731 2.3753948-2.111462-18.8711925-20.190857-28.6367048-40.1177803-28.6367048-59.6488048 0-19.5310244 6.3343863-35.2350238 18.8711926-47.3759309 12.9327054-12.14090713 29.5604695-18.0793943 50.1472248-18.0793943 19.926924 0 35.894856 5.93848717 48.827561 17.8154615 12.932706 11.8769743 19.531025 26.7891755 19.531025 44.604637 0 12.5368062-3.431126 23.7539486-10.425344 33.7833936-7.390118 9.6335459-19.926924 21.9064189-38.006318 35.7628899zm-34.4432258 24.41378-2.3753949 1.715563c-17.8154615 12.140907-29.9563686 22.302319-36.2907549 29.56047s-9.3696131 15.3081-9.3696131 23.753948c0 11.876975 4.8827561 22.962151 14.2523692 32.727663 9.7655123 9.369613 20.8506883 14.252369 32.7276627 14.252369 16.7597308 0 35.8948558-10.821243 57.8012748-32.727663zm9.3696131-54.634082 3.4311257-2.7712939c5.938487-4.4868569 11.217143-8.7097811 15.044168-11.8769743 3.827025-3.4311259 6.994218-6.3343863 8.709781-8.7097812 3.827025-4.4868569 5.542588-10.1614113 5.542588-17.0236632 0-7.6540501-2.375395-13.5925373-7.65405-18.4752934s-11.876975-6.9942182-20.586756-6.9942182c-7.6540499 0-14.2523689 2.3753948-19.9269233 7.258151-5.2786553 4.4868569-8.0499493 10.4253441-8.0499493 17.8154615 0 8.313882 3.4311259 16.7597304 10.1614114 25.0736125l10.8212432 12.9327053c.3958992.2639328 1.0557311 1.3196639 2.5073613 2.7712939z" fill="#e7168e"/><path d="m87.5260299 2.10763815c-11.4810752 5.93848716-10.029445 5.54258802-17.9474279 15.83596575-41.8333429 55.0299811-.9237647 92.6404001 16.0998986 112.8312561-5.4106217 3.695059-10.8212433 7.390118-16.231865 11.085176-10.029445 6.862252-20.1908563 13.724504-28.6367048 22.434285-8.5778148 8.709781-15.4400666 19.267092-17.8154615 31.144066-1.9794957 9.897479-1.1876974 20.322823 1.4516302 29.956369 15.0441675 55.953745 62.8159976 53.182451 78.2560645 64.399594-4.75079 8.313882-15.7039996 2.507361-25.2055791 4.222924s-11.7450079-1.055731-20.9826547-3.827025c-27.5809737-8.313882-47.50789731-27.976873-53.84228362-56.085712-9.63354585-42.097276 11.34910882-65.851225 11.34910882-65.851225s4.6188233-9.501579 21.7744529-23.621982c1.0557311-.923764 27.7129402-17.947428 28.1088393-19.267092.6598319-1.715562-13.0646718-14.516301-15.572033-20.190856-3.2991595-7.3901172-13.0646718-20.9826545-13.0646718-38.0063178.1319664-24.8096797 9.6335459-56.3496449 51.5988552-65.98319073zm3.0352268 155.45639785c3.827025-3.563093 5.4106216-4.882757 10.1614113-7.258151 19.399058 21.774453 35.894856 42.361208 54.106216 66.247123-4.486856 3.167193-8.181915 9.10568-8.181915 9.10568zm33.2555283 128.271322c18.21136-10.293377 33.91536-25.205578 45.264469-42.757107.659832-1.055731 1.583596-2.375395 2.90326-2.507361 1.319664-.131967 2.507361 1.055731 3.431126 1.979495 13.064672 15.044168 20.982655 25.601478 31.935864 42.361209-5.410621 3.035227-2.639327 2.771294-8.841747 2.375395-3.035227-.131967-24.545747-31.276033-26.129344-29.956369-8.709781 7.917983-29.428503 32.331764-48.827561 28.636705zm106.760802-109.532096c-10.821243 12.800739-21.114621 25.469511-31.539965 38.66615-.395899.527865-.923764 1.187697-1.055731 1.979495-.131966 1.187698 2.903261 6.994218 4.486857 8.841748 8.181916-8.841748 16.759731-17.947428 23.490016-26.657209 3.167193-3.958992 9.369613-12.800739 10.029445-13.196638-.395899-.263933-5.146689-9.369613-5.410622-9.633546zm-132.4942466-75.088871c4.0909576 4.486857 8.1819156 8.841747 12.2728736 13.328604 15.176134-8.841747 26.26131-24.5457468 29.560469-41.8333427.791799-3.9589915 1.055731-8.1819157.527866-12.1409071-1.583597-11.3491088-11.349109-20.4547892-22.566251-22.1703521 6.730285 3.6950586 10.953209 8.1819156 13.196638 14.5163019 2.375395 6.3343863 1.583596 13.9884365-1.45163 20.05889-1.715563 3.5630923-4.354891 6.4663527-6.994219 9.5015795-6.730285 7.3901174-13.85647 11.8769743-22.8301836 19.3990585z" fill-opacity=".1"/></svg>