<svg height="301" preserveAspectRatio="xMidYMid" viewBox="0 0 256 301" width="256" xmlns="http://www.w3.org/2000/svg"><path d="m78.3890161.85847624c-1.4043568.01340134-2.8620955.35219759-4.1901806 1.08836081-4.2175201 2.33781261-5.7643563 7.75765047-3.4283296 11.97195165l9.5231373 17.1960698c-22.9434597 14.196102-38.1469672 38.4434771-38.1469672 66.1177815 0 .1161707-.0003222.2906803 0 .4625525.0001134.0606496-.0005661.0952182 0 .1632472.0000352.0904419 0 .2225139 0 .2448838v4.2718065c-4.4064765-5.0699681-10.8839423-8.271523-18.1211696-8.271523-13.2589324 0-24.0255064 10.766578-24.0255064 24.025514v74.00838c0 13.258936 10.766574 24.025514 24.0255064 24.025514 7.2372273 0 13.7146931-3.201555 18.1211696-8.271523v10.366617c0 13.976492 11.4366806 25.413172 25.4131724 25.413172h6.448524v32.922854c0 13.258996 10.7665826 24.025514 24.0255132 24.025514 13.2589354 0 24.0255144-10.766518 24.0255144-24.025514v-32.922854h11.155681v32.922854c0 13.258996 10.766578 24.025514 24.025514 24.025514 13.258927 0 24.025523-10.766518 24.025523-24.025514v-32.922854h6.448519c13.976492 0 25.413172-11.43668 25.413172-25.413172v-10.366617c4.40649 5.069968 10.883943 8.271523 18.121175 8.271523 13.258935 0 24.025514-10.766578 24.025514-24.025514v-74.00838c0-13.258936-10.766579-24.025514-24.025514-24.025514-7.237232 0-13.714685 3.2015549-18.121175 8.271523v-4.1901786-.0816107c.000558-.1309638.000146-.2612145 0-.2448752.001718-.2608107 0-.468626 0-.6258083 0-27.6694593-15.237412-51.8934422-38.174179-66.0905751l9.550355-17.2233191c2.336026-4.21430126.789193-9.63413911-3.42833-11.97195172-1.32809-.73616323-2.785821-1.07494229-4.190178-1.08836081-3.114498-.0298094-6.171439 1.61158013-7.781773 4.51669047l-9.985693 18.03955546c-9.764097-3.6031914-20.387943-5.5778449-31.480766-5.5778449-11.081519 0-21.724882 1.9544398-31.4807757 5.5506298l-9.9856924-18.01234036c-1.6103242-2.90511893-4.6672709-4.54643114-7.7817608-4.51669047z" fill="#fff"/><g fill="#a4c639"><path d="m24.0260725 100.361664c-9.8943725 0-17.76745357 7.873083-17.76745357 17.767457v74.00838c0 9.894374 7.87308107 17.767457 17.76745357 17.767457 9.8943716 0 17.7674532-7.873083 17.7674532-17.767457v-74.00838c0-9.894374-7.8730816-17.767457-17.7674532-17.767457zm207.2234785 0c-9.894375 0-17.767457 7.873083-17.767457 17.767457v74.00838c0 9.894374 7.873082 17.767457 17.767457 17.767457 9.894374 0 17.767448-7.873083 17.767448-17.767457v-74.00838c0-9.894374-7.873074-17.767457-17.767448-17.767457z"/><path d="m98.0338856 184.818075c-9.8943742 0-17.7674515 7.873082-17.7674515 17.767456v74.008432c0 9.8944 7.8730773 17.767345 17.7674515 17.767345 9.8943744 0 17.7674564-7.872945 17.7674564-17.767345v-74.008432c0-9.894374-7.873082-17.767456-17.7674564-17.767456zm59.2067094 0c-9.894374 0-17.767457 7.873082-17.767457 17.767456v74.008432c0 9.8944 7.873083 17.767345 17.767457 17.767345s17.767448-7.872945 17.767448-17.767345v-74.008432c0-9.894374-7.873074-17.767456-17.767448-17.767456z"/><path d="m78.4434341 7.11654228c-.420011.0042953-.8113843.11265718-1.1971943.32650309-1.2669543.70229047-1.6835866 2.1581745-.979523 3.42833823l12.5161192 22.6106502c-24.0804424 12.5297224-40.3454995 36.3412188-40.3780983 63.6689783h158.4650133c-.032558-27.3277595-16.297655-51.1392559-40.378106-63.6689783l12.516132-22.6106502c.70406-1.27016373.287424-2.72604776-.979527-3.42833823-.385812-.21384591-.777183-.32249987-1.197195-.32650309-.899136-.00867651-1.751409.44057772-2.231143 1.30602953l-12.679379 22.85553399c-10.372236-4.6007839-22.006302-7.1831624-34.283288-7.1831624-12.276996 0-23.911071 2.5823785-34.2832971 7.1831624l-12.6793793-22.85553399c-.4797311-.86545181-1.332011-1.31465449-2.2311345-1.30602953zm-30.0386964 96.29252772v114.849039c0 10.61193 8.5431796 19.155105 19.1551107 19.155105h120.1547886c10.611939 0 19.155114-8.543175 19.155114-19.155105v-114.849039z"/></g><path d="m91.0681772 54.9226953c-3.6174604 0-6.6117799 2.9943152-6.6117799 6.6117842 0 3.6174604 2.9943195 6.6117755 6.6117799 6.6117755s6.6117756-2.9943151 6.6117756-6.6117755c0-3.617469-2.9943152-6.6117842-6.6117756-6.6117842zm73.1376968 0c-3.617461 0-6.611784 2.9943152-6.611784 6.6117842 0 3.6174604 2.994323 6.6117755 6.611784 6.6117755 3.617452 0 6.611775-2.9943151 6.611775-6.6117755 0-3.617469-2.994323-6.6117842-6.611775-6.6117842z" fill="#fff"/></svg>