<svg height="139" viewBox="0 0 512 139" width="512" xmlns="http://www.w3.org/2000/svg"><g fill="none" fill-rule="evenodd"><g fill="#b52e31" transform="translate(150 31)"><path d="m.6 71.8v-63h8.1l38.5 50.7v-50.7h7.7v63h-8.1l-38.5-51.2v51.2z"/><path d="m117.6 69.3c-5.1 1.9-10.6 2.9-16.4 2.9-22.8 0-34.2-10.9-34.2-32.8 0-20.7 11-31.1 33-31.1 6.3 0 12.2.9 17.6 2.6v7c-5.4-2.1-11-3.1-16.7-3.1-17.2 0-25.8 8.2-25.8 24.4 0 17.5 8.5 26.2 25.4 26.2 2.7 0 5.7-.4 9-1.1v-21.1h8.1z"/><path d="m130.6 47.5v-38.7h8.1v38.7c0 12.1 6 18.2 18.1 18.2 12 0 18.1-6.1 18.1-18.2v-38.7h8.1v38.7c0 16.5-8.7 24.8-26.2 24.8s-26.2-8.3-26.2-24.8z"/><path d="m205.6 8.8v56.4h33v6.6h-41.1v-63z"/><path d="m250.3 71.8h-8.5l31.3-71.3 31.3 71.3h-9l-8.1-19.8h-20.8l2.2-6.6h15.9l-11.8-28.5z"/><path d="m313.1 71.8v-63h26.9c12 0 18 5 18 15.1 0 8.2-5.9 14.3-17.6 18.2l21.6 29.7h-10.7l-20-28.3v-5.3c12-1.9 18.1-6.5 18.1-13.9 0-5.8-3.3-8.7-10-8.7h-18v56.2z"/></g><path d="m0 23 64.5-23 66.2 22.6-10.7 85.3-55.5 30.7-54.6-30.3z" fill="#e23237"/><path d="m130.7 22.6-66.2-22.6v138.6l55.5-30.7z" fill="#b52e31"/><path d="m64.6 16.2-40.2 89.4 15-.3 8.1-20.2h17.1 18.8l8.8 20.4 14.3.3zm.1 28.7 13.6 28.4h-13-.7-11.8z" fill="#fff"/></g></svg>