<svg height="174" preserveAspectRatio="xMidYMid" viewBox="0 0 512 174" width="512" xmlns="http://www.w3.org/2000/svg"><path d="m91.3472 118.6208c0 6.5504 0 16.7936-12.26624 16.7936-7.50336 0-10.48064-4.04992-12.26688-10.8384-6.5504 7.86048-14.6496 11.9104-24.41472 11.9104-24.05888 0-42.39936-20.4864-42.39936-49.4272 0-28.10688 18.93632-49.664 42.39872-49.664 9.408 0 18.69824 3.6928 24.41472 11.79136.71488-6.19328 6.0736-10.71872 12.26688-10.71872 12.26688 0 12.26688 10.12352 12.26688 16.7936v63.35808zm-45.376-5.71648c13.33952 0 19.77088-13.57696 19.77088-25.8432s-6.19328-26.2016-19.7696-26.2016c-14.0544 0-20.36608 13.93408-20.36608 26.2016s6.43072 25.8432 20.3648 25.8432zm52.64128-60.144c0-8.57472 5.35936-14.2912 12.86272-14.2912 7.1456 0 11.19488 3.9296 12.86272 10.71808 4.76416-7.86048 14.768-11.79072 24.41472-11.79072 27.63072 0 41.32672 25.8432 41.32672 50.73536 0 24.17664-16.4352 48.23424-42.28032 48.23424-7.97952 0-16.7936-2.97728-23.4624-8.93248v31.32288c0 8.57472-5.35936 14.2912-12.86272 14.2912s-12.864-5.7152-12.864-14.2912v-105.9968zm45.8528 60.144c13.33888 0 20.00832-13.93408 20.00832-25.8432 0-12.14848-6.5504-26.2016-20.00832-26.2016-13.696 0-20.128 12.86208-20.128 25.248 0 12.624 5.9552 26.7968 20.128 26.7968zm78.84224-98.84992c0 7.97888-6.432 14.76736-14.41088 14.76736-7.6224 0-14.41024-6.90752-14.41024-14.768-.00064-7.26592 6.78848-14.05376 14.4096-14.05376 7.6224 0 14.41152 6.5504 14.41152 14.0544zm-27.27296 38.70592c0-8.57472 5.35936-14.2912 12.86272-14.2912s12.86272 5.7152 12.86272 14.2912v68.36224c0 8.57472-5.35936 14.2912-12.86272 14.2912s-12.86272-5.7152-12.86272-14.2912z" fill="#fc4c02"/><path d="m319.1808 126.83904c0 30.84608-20.12672 46.3296-49.3056 46.3296-10.48064 0-40.4928-5.12192-40.4928-19.29472 0-4.76416 5.35872-11.19488 10.3616-11.19488 8.2176 0 17.26848 7.97952 32.03648 7.97952 12.5056 0 21.67552-7.264 21.67552-20.2464v-6.07488h-.35712c-5.35936 7.86048-14.0544 12.1472-25.8432 12.1472-26.91648 0-39.54112-23.6992-39.54112-49.18656 0-25.8432 16.4352-49.90208 42.27968-49.90208 8.6944 0 18.69824 3.9296 23.4624 11.79072 1.5488-6.78848 5.71648-10.71872 12.86272-10.71872 7.50336 0 12.86272 5.71648 12.86272 14.2912v74.08zm-45.73248-65.86112c-13.33888 0-20.00832 13.93472-20.00832 25.8432 0 13.696 6.54976 26.2016 20.00768 26.2016 13.696 0 20.128-12.86208 20.128-25.248 0-12.624-6.0736-26.7968-20.128-26.7968zm76.5792 34.53824c1.7856 12.62464 12.26688 18.5792 24.17664 18.5792 13.21984 0 22.272-10.3616 29.05984-10.3616 5.4784 0 10.48064 5.4784 10.48064 11.07584 0 11.07584-22.74752 21.79456-41.92256 21.79456-28.82176 0-48.1152-21.08032-48.1152-49.3056 0-25.9648 18.93632-49.664 45.9712-49.664 27.7504 0 46.09152 25.248 46.09152 46.68608 0 7.6224-3.3344 11.43424-11.19488 11.43424h-54.5472v-.23808zm40.25472-17.15008c-1.42912-11.19488-8.57472-19.6512-20.48512-19.6512-11.4336 0-19.05536 8.6944-20.3648 19.6512zm55.97568 17.5072c1.7856 12.62464 12.26688 18.46016 24.17664 18.46016 13.21984 0 22.272-10.3616 29.05984-10.3616 5.4784 0 10.48064 5.4784 10.48064 11.07584 0 11.07584-22.74752 21.79456-41.92256 21.79456-28.82176 0-48.1152-21.08032-48.1152-49.3056 0-25.9648 18.93632-49.664 45.9712-49.664 27.7504 0 46.09152 25.248 46.09152 46.68608 0 7.6224-3.3344 11.4336-11.19488 11.4336h-54.5472zm40.256-17.15008c-1.42976-11.19488-8.576-19.6512-20.4864-19.6512-11.43296 0-19.05472 8.6944-20.24576 19.6512h40.73152z" fill="#54585a"/></svg>