<svg height="256" preserveAspectRatio="xMidYMid" viewBox="0 0 256 256" width="256" xmlns="http://www.w3.org/2000/svg"><path d="m127.997452 0c-70.6867571 0-127.997452 57.2750254-127.997452 127.936304 0 70.651088 57.3106949 127.936305 127.997452 127.936305 70.686757 0 128.002548-57.285217 128.002548-127.936305.005096-70.6612786-57.310695-127.936304-128.002548-127.936304zm0 248.743805c-66.7631121 0-120.86355204-54.105536-120.86355204-120.807501 0-66.7223467 54.10043994-120.81259533 120.86355204-120.81259533 66.737634 0 120.868648 54.09024863 120.868648 120.81259533 0 66.701965-54.131014 120.807501-120.868648 120.807501zm54.671152-144.227075c-4.234479 0-7.984872 2.160553-10.191286 5.447242l-40.449212-11.1237881c.101913-.8305898.188538-1.6662752.188538-2.4917693 0-9.9517905-8.066402-18.0130974-17.99781-18.0130974-9.946695 0-18.0080018 8.0613069-18.0080018 18.0130974 0 7.8778634 5.1058338 14.5939214 12.2091598 17.0092554l-3.470132 21.738013c-1.763093-.382174-3.577142-.585999-5.4676251-.585999-14.1709827 0-25.6412747 11.475387-25.6412747 25.620892 0 14.165887 11.470292 25.641275 25.6412747 25.641275 14.1506001 0 25.6514661-11.475388 25.6514661-25.641275 0-3.663767-.784729-7.1339-2.180935-10.298294l49.687613-26.018353c2.211509 3.159299 5.890563 5.238321 10.028225 5.238321 6.807779 0 12.305978-5.498198 12.305978-12.270308-.005096-6.7823-5.493103-12.265212-12.305978-12.265212zm-61.805052 41.488724c-2.838273-4.275244-6.904596-7.643464-11.714883-9.600191l3.541472-22.145664c.504469.040765.99365.061148 1.528693.061148 7.572125 0 14.038496-4.667609 16.678039-11.271562l39.827544 10.950536c-.183443.886642-.31593 1.808954-.31593 2.77203 0 1.059894.15287 2.084118.402556 3.077768z" fill="#3bc7f6"/></svg>