<svg height="256" preserveAspectRatio="xMidYMid" viewBox="0 0 256 256" width="256" xmlns="http://www.w3.org/2000/svg" xmlns:xlink="http://www.w3.org/1999/xlink"><linearGradient id="a"><stop offset=".19" stop-color="#00daf0"/><stop offset=".9" stop-color="#247ce6"/></linearGradient><linearGradient id="b" x1=".110619%" x2="100%" xlink:href="#a" y1="50%" y2="50%"/><linearGradient id="c" x1="233%" x2="7023%" xlink:href="#a" y1="-68066%" y2="-68066%"/><linearGradient id="d" x1="65.72884%" x2="16.026646%" y1="103.171875%" y2="34.03125%"><stop offset=".09" stop-color="#1ddf93"/><stop offset=".48" stop-color="#00daf0"/><stop offset=".9" stop-color="#247ce6"/></linearGradient><path d="m216.4 201.2 39.6-104.8-119.6-27.2-15.6 44.8z" fill="#247ce6"/><path d="m256 205.2-60.4 50.8-120.4-31.2 32.4-58.4z" fill="url(#b)"/><path d="m35.2 127.2-30.4-87.6 135.6-39.6-10.8 113.6z" fill="url(#c)"/><path d="m223.2 148-38-64.8.8-.4-45.6-82.8-140.4 151.6v104.4l255.2-50.8z" fill="url(#d)"/><path d="m48 48h160v160h-160z"/><path d="m62.8 178h60v10h-60zm26.4-109.2h13.2l28 66h-15.2l-6-14.8h-27.6l-6 14.8h-14.8zm15.2 38.8-8.8-21.2-8.8 21.2zm22.4-5.2c-.22142-9.2956451 3.37385-18.2763938 9.948728-24.8512719s15.555627-10.1701479 24.851272-9.9487281c12.4 0 20 4 26.4 10.4l-9.2 10.8c-5.2-4.8-10.4-7.6-17.2-7.6-11.2 0-19.2 9.2-19.2 20.8s8 20.8 19.2 20.8c7.6 0 12.4-3.2 17.6-8l9.2 9.6c-6.8 7.2-14.4 12-27.2 12-9.122154.22922-17.944355-3.26601-24.43435-9.68054-6.489995-6.414529-10.088166-15.19525-9.96565-24.31946z" fill="#fff"/></svg>