<svg height="224" preserveAspectRatio="xMidYMid" viewBox="0 0 256 224" width="256" xmlns="http://www.w3.org/2000/svg"><path d="m254.808984 210.372492-118.700492-205.58990376c-1.570225-2.73249198-4.488898-4.41634225-7.641668-4.41634225-3.152771 0-6.057754 1.68248128-7.636193 4.41634225l-118.7059679 205.58990376c-1.58254545 2.728385-1.58254545 6.097455 0 8.831315 1.5784385 2.729754 4.4888984 4.408129 7.63893048 4.408129h237.40919742c3.151402 0 6.057754-1.678375 7.636193-4.408129 1.582545-2.73386 1.582545-6.10293 0-8.831315" fill="#b01c33"/><path d="m143.793968 163.421818c-7.151572 9.165348-15.201198 11.176385-22.580021 11.176385-7.822375 0-16.315551-2.460064-16.315551-14.081369 0-12.068962 7.822374-15.424342 23.027679-15.424342h15.867893zm58.581561 9.326888-28.606288-12.524834 3.145925 8.337112-11.661006 2.16984v-57.6c0-25.0291342-20.340363-29.5029737-37.328085-29.5029737-18.559316 0-36.4341392 2.2341818-36.4341392 2.2341818v16.9863529l1.5647487 1.564749s16.9863525-2.235551 31.0677215-2.235551c12.51799 0 19.669562 5.811337 19.669562 15.870631v10.059294h-21.681968c-19.896813 0-38.8859893 8.491808-38.8859893 33.752299 0 25.025027 14.5249198 31.289498 29.9478933 31.289498 20.786652 0 30.171037-15.644749 30.171037-15.644749h.892578l-.443551 11.852663 1.559273 1.557904 34.250609-6.048171-.317604 8.907978z" fill="#fff"/></svg>