<svg height="159" preserveAspectRatio="xMidYMid" viewBox="0 0 256 159" width="256" xmlns="http://www.w3.org/2000/svg"><path d="m202.469417 51.5277383c-5.462305 0-10.014225 4.5519203-10.014225 10.0142247s4.55192 10.0142248 10.014225 10.0142248c18.571835 0 33.502133 15.1123755 33.502133 33.5021332 0 18.571835-15.112375 33.502134-33.502133 33.502134h-158.4068281c-13.2916074.182077-24.0341394-10.560455-24.0341394-23.852062 0-13.291608 10.742532-23.852063 23.8520626-23.852063 5.4623044 0 10.0142247-4.5519203 10.0142247-10.0142247s-4.5519203-10.0142248-10.0142247-10.0142248c-24.2162162 0-43.8805121 19.6642959-43.8805121 43.8805125 0 24.216216 19.6642959 43.880512 43.8805121 43.880512h158.4068279c29.496444 0 53.71266-24.03414 53.71266-53.71266 0-29.678521-24.034139-53.3485067-53.530583-53.3485067zm-160.9559035 2.0028449c5.6443812-5.6443812 13.2916074-8.739687 21.3029872-8.739687 16.5689901 0 30.0426743 13.4736842 30.0426743 30.0426742v32.2275956h20.028449c.728308-19.3001418 16.751067-34.776671 36.233286-34.776671 5.462305 0 10.014225-4.5519203 10.014225-10.0142247s-4.55192-10.0142248-10.014225-10.0142248c-13.837837 0-26.401138 4.916074-36.233286 13.2916074v-14.0199146c2.366999-17.661451 17.661451-31.4992888 36.05121-31.4992888 9.650071 0 18.753911 3.8236131 25.67283 10.5604552 4.00569 4.0056899 10.196302 4.0056899 14.201992 0s4.00569-10.1963016 0-14.2019915c-10.742532-10.56045516-24.944524-16.3869132-39.874822-16.3869132-24.398293 0-45.15505 15.4765292-52.9843532 37.14367-8.9217639-7.829303-20.3926031-12.5633002-33.1379801-12.5633002-13.4736842 0-26.0369843 5.2802276-35.5049787 14.7482219-4.0056899 4.00569-4.0056899 10.1963016 0 14.2019915s10.3783784 4.0056899 14.2019915 0z" fill="#007f3e"/></svg>