<svg height="286" preserveAspectRatio="xMidYMid" viewBox="0 0 256 286" width="256" xmlns="http://www.w3.org/2000/svg"><path d="m126.99868 240.930377-38.5573144-203.0829882c-.8697426-4.5389095-4.5656708-9.2756616-8.3772462-10.7207724l-70.08118343-26.42775047c-5.35512951-2.00136377-9.77265736.42818098-9.77265736 5.5959813l-.21026745 257.28420077c-.01051337 13.600481 7.40714861 23.311014 16.27661174 21.280977l104.8555961-24.125322c5.148685-1.169852 7.685275-10.173121 5.869329-19.804326zm-20.704653-23.657955-80.0908692 8.509141c-6.3261828.668077-11.7396137-5.598848-11.9221641-13.860447l-4.1183746-179.8035151c-.0984434-4.1575608 3.5162451-6.2745717 7.9758264-4.8399742l59.8516723 19.4583404c3.328916 1.0800101 6.4991756 4.8648241 7.1586508 8.5397256l26.5663354 149.4150903c1.144046 6.45521-1.229108 12.103759-5.4249 12.582595zm-26.0464014-137.9526471-2.660839-16.2660983c-.3545873-2.1619317-2.0262135-4.2942347-3.7265125-4.7902747l-12.8960847-3.6605651c-1.8465305-.5237571-3.1253388.8611408-2.85677 3.1004891l2.1131879 16.907414c.3010647 2.4276333 2.1217896 4.7788056 4.0619847 5.2108096l13.4207975 3.0106475c1.7939636.4138446 2.9150714-1.1727189 2.5423246-3.5124221zm56.1605224 16.8290417-1.673537-17.3604448c-.228427-2.316765-2.030993-4.5962552-4.040002-5.1859598l-15.191823-4.2999693c-2.177224-.6374926-3.863187.8076182-3.745628 3.1826845l.896504 18.0925579c.129983 2.580555 2.112232 5.1324371 4.415616 5.6647961l15.95452 3.5869714c2.118923.4769244 3.621379-1.1669843 3.382439-3.680636zm40.511847 32.6774724-1.965045-20.473359c-.267613-2.71914-2.215454-5.233748-4.390767-5.650459l-16.376966-3.1291624c-2.366465-.4778805-4.189101 1.4345974-4.040003 4.2665174l1.063763 21.542856c.160567 3.115781 2.322499 5.906603 4.826593 6.208624l17.27825 2.118922c2.294782.258056 3.891859-1.92108 3.60513-4.883939zm-96.8291142-4.097348-3.0861527-18.949875c-.40811-2.502183-2.1992063-4.807479-4.0275773-5.157287l-13.7218623-2.6627509c-1.9765139-.3708353-3.3184025 1.4221726-2.9991783 4.0562499l2.4649079 19.841601c.3727468 2.867283 2.3416147 5.419165 4.3965011 5.656194l14.3526646 1.739485c1.892407.242764 3.0622586-1.812123 2.6226085-4.523617zm-22.813062 72.467719-2.3559511-24.504759c-.3173127-3.26488-2.4572619-5.994534-4.7988766-6.200978l-17.7742894-1.475695c-2.5709974-.206445-4.5389095 2.357862-4.3697398 5.780443l1.284543 26.082721c.195931 3.775256 2.5901126 6.871922 5.3140317 6.860453l18.8609898-.032496c2.4830674-.005735 4.1843222-2.939921 3.8402482-6.509689zm198.6912662-119.8973641-1.500545-16.9685827c-.212179-2.2345695-1.566493-4.1231535-3.065126-4.2837213l-11.33915-1.0178856c-1.63244-.1404969-2.877797 1.6286169-2.780309 4.0132409l.830556 18.0447698c.110869 2.628343 1.653467 4.7596903 3.392952 4.7577788l12.015829-.0248498c1.572227-.0172037 2.668485-2.0338596 2.44866-4.5207501zm-38.83353 93.1828851-3.642406-22.344739c-.475969-2.95139-2.413296-5.458351-4.359226-5.606494l-14.649906-1.228153c-2.117011-.165347-3.543007 2.184869-3.147322 5.301606l2.925585 23.6073c.434871 3.402509 2.590113 6.193332 4.817036 6.176128l15.35717-.041098c2.027169 0 3.228561-2.647458 2.702892-5.86455zm.888858-60.727149-1.673538-17.3537547c-.218869-2.3291899-2.013789-4.6086801-4.032356-5.1945617l-15.184177-4.2999692c-2.182958-.6308023-3.870832.796149-3.753274 3.1826845l.880256 18.0925581c.146232 2.580555 2.131348 5.141994 4.415617 5.679132l15.966945 3.562122c2.133259.474057 3.613733-1.160294 3.38435-3.668211zm-41.688388 78.875141-3.651008-22.319889c-.479792-2.959992-2.418075-5.483202-4.359226-5.656194l-14.657553-1.219551c-2.125612-.172993-3.53536 2.193471-3.147321 5.317854l2.940877 23.597742c.427225 3.392952 2.59967 6.183775 4.797921 6.183775l15.359081-.032496c2.037683-.004779 3.235251-2.652237 2.71914-5.871241z" fill="#15637a"/></svg>