<svg height="169" preserveAspectRatio="xMidYMid" viewBox="0 0 256 169" width="256" xmlns="http://www.w3.org/2000/svg"><path d="m.62683883 33.4314044v134.9792956h168.41070017z" fill="#4988a2"/><path d="m120.353056 168.4107 135.188242-155.2470845v155.2470845z" fill="#7a4198"/><path d="m.83578511 168.4107 67.07175519-168.4107 100.5031597 168.4107z" fill="#478b60"/><path d="m14.4172932 168.4107 57.2512801-77.9369618 68.5343787 55.1618178-19.849896 22.775144z" fill="#135f66"/><path d="m14.4172932 168.4107h-13.58150809l40.74452419-102.17473 30.088264 24.2377682z" fill="#2b7b82"/><path d="m140.202952 145.635556-19.849896 22.775144h48.26659z" fill="#194a7f"/><path d="m148.76975 135.815081-8.566798 9.820475 28.416694 22.775144z" fill="#5e2b7c"/><path d="m255.541298 168.4107h-86.921652l-19.849896-32.595619 50.564999-58.0870657z" fill="#7a2980"/><path d="m71.6685733 90.4737382 28.2077474-36.9834911 48.8934293 82.3248339-8.566798 9.820475z" fill="#456630"/><path d="m99.8763207 53.4902471 14.4172933-20.0588427 33.640351 47.2218588 33.013511-32.3866731 18.387273 29.4614252-50.564999 58.0870657z" fill="#e77a45"/></svg>