<svg height="256" preserveAspectRatio="xMidYMid" viewBox="0 0 256 256" width="256" xmlns="http://www.w3.org/2000/svg"><path d="m192.898581 238.351187c-19.028741 11.215147-41.212329 17.648813-64.898581 17.648813-70.692448 0-128-57.307552-128-128s57.307552-128 128-128 128 57.307552 128 128c0 32.645689-12.221303 62.43694-32.338301 85.048146l16.728545 39.829903z" fill="#df2637"/><path d="m194.809756 136.117073-64.312195 71.804878-68.6829269-61.814634c-6.2439024-6.868293-9.9902439-14.985366-9.9902439-24.97561-.6243902-10.614634 3.1219513-20.604878 11.2390244-29.3463411 8.1170732-8.7414635 17.4829269-13.1121952 28.097561-14.3609757 10.6146344-1.2487804 19.9804874 1.2487805 28.0975614 7.492683 25.6 19.9804878 31.219512 38.7121948 16.858536 56.8195118-3.746341-17.482926-11.863414-29.970731-23.726829-38.087805-11.863415-8.7414629-21.8536586-7.4926824-31.2195123 2.497561-9.3658537 10.614635-9.9902439 19.356098-2.497561 27.473171l48.7024393 44.331708 49.326829-54.946342c3.746341-4.995122 4.995122-10.614634 4.370732-16.858537-.624391-7.4926825-4.370732-13.7365849-9.990244-18.7317069-6.243903-5.6195121-12.487805-8.7414634-19.980488-8.1170731-6.243902 0-11.239024 1.8731707-13.736585 5.6195122l-17.482927-14.9853659c8.117073-8.1170732 18.731707-12.4878049 31.843902-12.4878049 12.487805-.6243902 24.35122 3.7463415 34.341464 13.1121952 8.741463 8.1170731 14.360975 19.3560975 16.234146 33.7170734 2.497561 14.360975-1.24878 24.351219-7.492683 31.843902z" fill="#fff"/></svg>