<svg height="256" preserveAspectRatio="xMidYMid" viewBox="0 0 256 256" width="256" xmlns="http://www.w3.org/2000/svg"><path d="m127.585761 0c71.24919 0 128.414239 57.1650485 128.414239 127.585761 0 71.24919-57.165049 128.414239-128.414239 128.414239-70.4207125 0-127.585761-57.165049-127.585761-128.414239 0-70.4207125 57.1650485-127.585761 127.585761-127.585761zm31.4822 152.440129c-14.084142 18.226538-39.76699 21.540454-57.165048 7.456311-17.3980586-13.255663-19.8834955-38.938511-5.7993531-57.165048 14.9126211-17.3980587 40.5954691-20.7119745 57.9935271-7.4563111 17.398059 14.0841421 19.883496 39.7669901 4.970874 57.1650481zm-67.9352749 83.676376 48.8802589-47.223301c-18.226537 4.142395-37.281553.828479-52.1941748-11.598706-17.3980582-13.255663-24.8543689-35.624595-22.368932-56.336569l-43.9093851 48.05178s-5.7993528-10.770227-7.4563107-30.653722l77.0485437-60.4789643c23.1974109-16.5695793 54.6796119-17.3980583 77.0485439 0 24.854369 19.8834951 29.825242 56.3365693 11.598705 83.6763753l-56.336569 80.36246c-8.28479 0-24.8543692-2.485437-32.3106799-5.799353z" fill="#00b3e0" fill-rule="evenodd"/></svg>