<svg height="271" preserveAspectRatio="xMidYMid" viewBox="0 0 256 271" width="256" xmlns="http://www.w3.org/2000/svg" xmlns:xlink="http://www.w3.org/1999/xlink"><linearGradient id="a" x1=".012%" x2="100%" y1="50.028%" y2="50.028%"><stop offset="0" stop-color="#f4362c"/><stop offset=".787" stop-color="#ff9a09"/></linearGradient><path d="m192 28.2216867c3.315663 2.6987952 8.713253 2.6987952 12.028916.0771085l8.790361-7.0168675c3.315663-2.6216867 3.778313-2.1590361 1.079518 1.0795181l-7.248193 8.5590361c-2.698795 3.2385542-2.775903 8.6361446-.077108 11.8746988l7.016867 8.5590362c2.698796 3.3156626 2.159037 3.7783132-1.079518 1.079518l-8.559036-6.939759c-3.315662-2.6987952-8.713253-2.7759036-12.106024-.1542169l-10.718072 8.173494c-3.392771 2.5445783-3.778313 2.1590362-.925301-1.0024096l8.713253-9.5614458c2.853012-3.1614458 3.007229-8.4048193.385542-11.7204819l-7.093976-8.8674699c-2.621687-3.3156627-2.159036-3.8554217 1.156626-1.1566265z" fill="#f48e06"/><path d="m186.60241 34.5445783c4.240963-.2313253 8.019277-3.9325301 8.404819-8.0963855l2.159036-22.97831328c.385542-4.24096386 1.079518-4.24096386 1.542169 0l2.544578 22.97831328c.462651 4.2409638 4.318072 8.0192771 8.481928 8.4819277l18.968674 1.9277108c4.240964.4626506 4.240964 1.0795181 0 1.3879518l-18.968674 1.4650603c-4.240964.3084337-8.019277 4.0096385-8.40482 8.2506024l-2.698795 27.5277108c-.385542 4.2409639-1.079518 4.2409639-1.46506 0l-2.544578-27.1421686c-.385542-4.2409639-4.163856-7.9421687-8.40482-8.2506025l-32.154216-2.5445783c-4.240964-.3084337-4.240964-.8481927 0-1.079518z" fill="#f48e06"/><circle cx="101.628916" cy="16.809639" fill="#302c43" r="10.255422"/><path d="m37.860241 81.8120482c-3.007229-.0771084-10.486747-.6939759-14.1108434-4.3180723-3.7012048-3.7012048-4.3951807-11.1807229-4.4722892-14.2650602-.1542168 3.0843373-.8481927 10.6409638-4.4722891 14.2650602-3.7012048 3.7012048-11.10361448 4.2409639-14.1108434 4.3180723 3.00722892.0771084 10.4096386.6939759 14.1108434 4.3180723 3.7012048 3.7012048 4.3951807 11.1807229 4.4722891 14.2650605.1542169-3.0843376.8481928-10.6409641 4.4722892-14.2650605 3.6240964-3.546988 11.1036144-4.1638554 14.1108434-4.3180723 0 .0771084 0 .0771084 0 0" fill="#00ac6b"/><path d="m187.450602 242.120482c-4.626506-.154217-15.961445-1.079518-21.513253-6.631325-5.628915-5.628916-6.631325-17.118073-6.86265-21.744579h-.154217c-.154217 4.703615-1.233735 16.192771-6.862651 21.744579-5.551807 5.551807-16.886747 6.477108-21.513253 6.631325 4.626506.154217 15.884338 1.00241 21.513253 6.631325 5.628916 5.628916 6.631326 17.118073 6.862651 21.744579h.154217c.154217-4.703615 1.233735-16.192772 6.86265-21.744579 5.551808-5.551807 16.886747-6.4 21.513253-6.631325-.077108.077108 0 .077108 0 0" fill="#09a6d1"/><circle cx="250.139759" cy="184.289157" fill="#f4362c" r="5.39759"/><circle cx="29.686747" cy="216.366265" fill="#a39a8b" r="5.39759"/><path d="m65.5421687 180.587952c.6939759 1.310843 2.0048193 2.159036 3.4698795 2.159036h19.4313253c2.4674699 0 4.2409638-2.236145 4.8578313-3.392771l10.8722892-20.896386c.154217-.385542.848193-.771084 1.156626-.771084h51.431326c.308434 0 .925301.385542 1.156626.771084l10.872289 20.896386c.616868 1.156626 2.390362 3.392771 4.857832 3.392771h19.431325c1.46506 0 2.775904-.848193 3.46988-2.159036.693975-1.310844.693975-2.930121-.077109-4.163856l-52.896385-95.9999996c-.693976-1.3108434-2.00482-2.0819277-3.392771-2.0819277h-18.274699c-1.387952 0-2.698795.7710843-3.392771 2.0819277l-52.8963859 95.9999996c-.6939759 1.233735-.7710843 2.853012-.0771084 4.163856zm52.2795183-48.346988 13.26265-25.445783 13.262651 25.445783c.154217.231325.231325.616867.231325.771084-.077108 0-.154217.077109-.385542.077109h-26.139759c-.231325 0-.385542 0-.385542-.077109-.077109-.154217.077108-.539759.154217-.771084z" fill="#302c43"/><path d="m208.655422 118.978313c.231325-.616867.925301-1.156626 1.696385-1.310843l16.501205-2.544578c.693976-.077109 1.310843.154216 1.542169.616867.231325.462651.077108 1.079518-.462651 1.542169l-12.260241 11.257831c-.616867.539759-1.46506.771084-2.081928.539759-.616867-.231325-.925301-.771084-.693975-1.46506.077108-.154217.077108-.308434.154216-.462651.385543-1.387952.308434-2.775903-.308433-4.009638-.616868-1.233735-1.696386-2.236145-3.161446-2.775904-.077109 0-.154217-.077108-.231325-.077108-.308434-.077109-.539759-.308434-.693976-.539759-.077109-.154217-.077109-.462651 0-.771085z" fill="#a39a8b"/><path d="m38.939759 142.110843c6.3228916-18.506024 50.660241-34.621686 50.660241-34.621686.1542169-.077109.3084337-.077109.3855422-.077109.6939759 0 1.3108433.616868 1.3108433 1.310844 0 .539759-.3084337.925301-.7710843 1.156626-7.2481928 3.546988-39.6337349 19.893976-43.026506 32.385542-.5397591 1.46506-.6168675 2.853012.0771084 4.163856 2.7759036 5.166265 17.0409639 7.325301 38.2457831 5.706024 19.8939763-1.542169 44.2602413-4.318073 74.1783133-13.493976 13.879518-4.240964 27.142169-9.021687 39.479518-14.26506l.385542-.154217 1.619277-.616868c.539759-.231325 1.079518-.308433 1.696386-.308433 2.544578 0 4.626506 2.004819 4.703614 4.549397 0 .231325.077109.539759.077109.771084-.077109 1.619278-1.233735 3.007229-2.930121 3.701205l-1.310843.539759c-12.414458 5.166265-25.368675 9.792771-39.479518 14.187952-26.679518 8.173494-51.354217 12.645783-80.1927712 14.419277-3.8554217.231326-7.4795181.385542-10.8722892.385542-2.4674699 0-4.8578313-.077108-7.0939759-.154216-.9253012-.077109-1.773494-.077109-2.6987952-.154217-7.8650602-.771085-29.686747-4.163856-24.4433735-19.431326z" fill="url(#a)"/></svg>