<svg height="256" preserveAspectRatio="xMidYMid" viewBox="0 0 256 256" width="256" xmlns="http://www.w3.org/2000/svg" xmlns:xlink="http://www.w3.org/1999/xlink"><linearGradient id="a" x1="50%" x2="50%" y1="3.961114%" y2="100%"><stop offset="0" stop-color="#fdfdfd"/><stop offset="1" stop-color="#cbcbcb"/></linearGradient><linearGradient id="b" x1="50%" x2="50%" y1="3.961114%" y2="100%"><stop offset="0" stop-color="#b2e198"/><stop offset="1" stop-color="#04a171"/></linearGradient><circle cx="128" cy="128" fill="url(#a)" r="127.857778"/><circle cx="127.857778" cy="128.142222" fill="url(#b)" r="116.906667"/><g transform="translate(45.511111 52.622222)"><path d="m54.9418451 57.4745163c-1.3755733 2.1202489-2.7047822 4.2496-3.9876266 6.38208-1.4031645-3.8624711-2.6350934-7.6663467-3.6844089-11.3772089 3.7302044-.5344711 7.6950755-.9563022 11.8741333-1.2481422-1.4190933 2.0343466-2.8214044 4.1156266-4.2020978 6.2432711zm103.1378489 7.4749155c-4.132124-3.9665777-10.039467-7.6012089-17.557902-10.8032-14.925654-6.35648-34.918116-10.4746666-56.2949691-11.5959466-2.57792-.1351111-5.0946844-.2275556-7.5286755-.2767645 16.3208533-19.4807466 32.0830576-29.8459022 41.2626486-30.1946311 1.943894-.07424 3.575751.3103289 4.854329 1.1411911 4.296249 2.7921067 5.488071 11.4523022 3.188622 23.1660089-.453689 2.3122489 1.052445 4.5548089 3.364694 5.0087822 2.312533.4522667 4.554524-1.0524444 5.008782-3.3649777 3.952924-20.13696-1.576676-28.49706671-6.911431-31.96472893-2.784427-1.80992-6.093369-2.65528889-9.828978-2.51335111-14.120107.53646222-33.90464 15.59239114-51.9571911 38.80334224-7.1472355.2466133-14.0376178.8635733-20.4831289 1.8261333-.7074133-3.2850489-1.2541155-6.46912-1.6244622-9.5212089-1.6190578-13.3438578.3666489-22.8158578 5.3114311-25.3377422.7944533-.40504889 1.6625778-.63829333 2.6541511-.71253333 4.4182756-.33251556 10.6524445 2.63651553 17.5425422 8.35868443 1.8121956 1.50528 4.5024712 1.2563911 6.00832-.5566578 1.50528-1.8127644 1.2561067-4.5027555-.5566577-6.0080355-8.8496356-7.34947558-16.8004267-10.81685336-23.6327823-10.30343113-2.1125688.15843555-4.0948622.70371555-5.8922666 1.62019555-4.5932089 2.3424-7.7320534 6.82780445-9.3294934 13.33162668-1.3681777 5.5694222-1.5621688 12.5124267-.5762844 20.6355911.3896889 3.2125156.9597156 6.5558756 1.6944356 9.9982222-5.0395023 1.0621156-9.71008 2.3560534-13.8965334 3.8684445-18.31594664 6.6164622-22.54449775 15.3375289-22.86648887 21.48864-.30776889 5.8757689 2.69994667 14.6204444 18.77560887 22.9105777 2.0943645 1.08032 4.6677334.2574223 5.7477689-1.8366577 1.0800356-2.0943645.2577067-4.6677334-1.8366578-5.7474845-9.2475733-4.76928-14.41052441-10.1924978-14.16504886-14.8801422.34588445-6.6048 11.41646226-13.5953067 30.27399116-17.5342933 1.7467733 6.3086933 3.9904711 12.8608711 6.6807466 19.50464-6.7777422 12.7229155-11.7230933 25.26208-14.28736 36.4159998-1.8326755 7.970134-2.3682844 14.889814-1.5920355 20.56704.9065244 6.630685 3.5586844 11.4176 7.8819555 14.227911 2.2044445 1.432747 5.1754667 2.553458 9.0780445 2.553458 5.6587377-.000284 13.2750222-2.357475 23.3435022-9.538844 1.9182933-1.368178 2.3645867-4.032569.9961244-5.951147-1.3678933-1.918293-4.0325689-2.364302-5.9511466-.996124-9.9248356 7.078968-18.4541867 9.6128-22.8161423 6.778026-4.6518044-3.023644-5.6328533-12.641849-2.624-25.728569 1.9950934-8.677546 5.5552-18.2960353 10.3830756-28.2092086 1.0481778 2.2439822 2.1421511 4.4893867 3.2830578 6.7305244 9.7169066 19.0873602 21.6120889 35.6940802 33.4944711 46.7615292 5.9838578 5.57312 11.7071644 9.497315 17.0109153 11.663644 3.217636 1.313849 6.239289 1.970916 9.04448 1.970916 2.596409-.000285 5.008214-.5632 7.216356-1.689316 4.430222-2.259342 7.51104-6.520889 9.15712-12.666026 1.409422-5.262507 1.726009-11.8272.941511-19.512036-1.542827-15.109973-7.25248-33.5385601-16.077085-51.8912001-1.020871-2.1239466-3.570631-3.0171022-5.694293-1.9965155-2.123662 1.0211555-3.017387 3.5706311-1.996231 5.6942933 8.407324 17.4848 13.833671 34.9081603 15.278364 49.0601243 1.270614 12.446151-.780231 21.30944-5.48608 23.709298-4.941653 2.519893-13.755733-1.438151-23.5790218-10.587591-11.1704177-10.404125-22.4304355-26.16832-31.7061688-44.3884091-2.1205334-4.1656888-4.0740978-8.3399111-5.8515912-12.4828444 2.2061512-3.9446756 4.5917867-7.90272 7.1435378-11.8354489 2.6018134-4.0098133 5.2357689-7.7886578 7.8768356-11.3334044.7005866-.0096711 1.4048711-.0167823 2.1151289-.0190578 3.6642133-.0116622 7.5915377.0904533 11.6878222.3052089 20.4043373 1.0703644 39.3682493 4.9504711 53.3984713 10.9252266 12.340622 5.25568 19.534791 11.7040356 19.244658 17.2495645-.246614 4.7084089-5.967645 9.5752533-15.695929 13.3523911-2.196765.8530489-3.286187 3.3251556-2.433423 5.5216356.655929 1.6893155 2.269298 2.7235559 3.978809 2.7235559.513138 0 1.035663-.093298 1.542827-.290418 16.904533-6.5635557 20.820764-14.9668979 21.129387-20.8611557.269653-5.1512889-2.040036-10.1114311-6.865067-14.7433245z" fill="#f2f8f6"/><path d="m73.6829762 76.5104793c0 5.15328 4.1739378 9.3309155 9.3226666 9.3309155 5.1490134 0 9.3229512-4.1776355 9.3229512-9.3309155s-4.1739378-9.3309156-9.3229512-9.3309156c-5.1487288 0-9.3226666 4.1776356-9.3226666 9.3309156" fill="#f1f8f3"/></g></svg>