<svg height="249" preserveAspectRatio="xMidYMid" viewBox="0 0 256 249" width="256" xmlns="http://www.w3.org/2000/svg" xmlns:xlink="http://www.w3.org/1999/xlink"><linearGradient id="a"><stop offset="0" stop-color="#c06fbb"/><stop offset="1" stop-color="#6e4d9b"/></linearGradient><linearGradient id="b" x1="-388.147851%" x2="237.683809%" xlink:href="#a" y1="-113.677693%" y2="370.654866%"/><linearGradient id="c"><stop offset="0" stop-color="#6e4d9b"/><stop offset=".14" stop-color="#77327a"/><stop offset=".29" stop-color="#b31777"/><stop offset=".84" stop-color="#cd0f7e"/><stop offset="1" stop-color="#ed2c89"/></linearGradient><linearGradient id="d" x1="72.945485%" x2="-97.05179%" xlink:href="#c" y1="79.514687%" y2="-119.502084%"/><linearGradient id="e" x1="-232.211989%" x2="250.775991%" xlink:href="#a" y1="-693.599872%" y2="101.70976%"/><linearGradient id="f" x1="-821.186214%" x2="101.985142%" xlink:href="#a" y1="-466.930382%" y2="287.264085%"/><linearGradient id="g" x1="-140.094614%" x2="418.49908%" xlink:href="#a" y1="-230.925718%" y2="261.976742%"/><linearGradient id="h" x1="191.083716%" x2="20.357702%" xlink:href="#c" y1="225.066658%" y2="24.594771%"/><linearGradient id="i" x1="-388.094004%" x2="237.674802%" xlink:href="#a" y1="-138.727507%" y2="445.404664%"/><linearGradient id="j" x1="11.503492%" x2="89.819264%" y1="89.652599%" y2="11.577398%"><stop offset="0" stop-color="#6e4d9b"/><stop offset=".14" stop-color="#77327a"/><stop offset=".53" stop-color="#b31777"/><stop offset=".79" stop-color="#cd0f7e"/><stop offset="1" stop-color="#ed2c89"/></linearGradient><path d="m167.876207 46.3687469-23.680492 15.8047001-24.395155-36.5589319 23.680491-15.80470006z" fill="url(#b)"/><path d="m187.128711 156.199437 40.460612 60.630557-48.198299 32.164713-40.460612-60.631523-7.058757-10.576062 48.199265-32.164714z" fill="url(#d)"/><path d="m126.421861 196.710267 8.908192 13.348767-36.6864127 24.482074-15.9669481-23.925795 8.0148613-5.348392 28.6725165-19.133683z" fill="url(#e)"/><path d="m207.172143 127.536576 10.290197-6.86657 15.965983 23.925795-23.683389 15.8047-8.908192-13.348766 13.393192-8.938131zm-6.335401 19.515159-7.05779-10.577029 13.393191-8.93813 7.057791 10.577028z" fill="url(#f)"/><path d="m41.1093181 130.966968-8.0138956 5.348391-24.39708719-36.5589316 36.68641249-24.4820743 17.100753 25.6265029-28.6715511 19.133682 28.6715511-19.133682 7.2963342 10.933395z" fill="url(#g)"/><path d="m130.488688 71.3224496-48.1992646 32.1647134-7.2953684-10.9333952-40.0820327-60.0626887 48.1992648-32.1647134 40.0820329 60.062689z" fill="url(#h)"/><path d="m157.589904 53.2375841-13.393191 8.9371643-7.296334-10.9324293-17.100753-25.6265026 23.683388-15.80470003 24.397088 36.55893183z" fill="url(#i)"/><path d="m97.7503053 215.84395-7.0587566-10.577029 28.6725173-19.133683 7.057791 10.577029z" fill="#714896"/><path d="m200.836744 147.051736-7.057791-10.577028 13.393192-8.938131 7.057791 10.577029z" fill="#6f4795"/><path d="m41.1093172 130.966965-7.2953684-10.932429 28.6715511-19.133683 7.2963342 10.933395z" fill="#88519f"/><path d="m144.196718 62.1747499-7.296334-10.9324293 13.394158-8.9381301 7.295368 10.933395z" fill="#85509e"/><path d="m187.128711 156.199434-48.198299 32.163748-7.058757-10.576063 48.199265-32.164714z" fill="#8d166a"/><path d="m123.19332 60.3890532 7.295368 10.933395-48.1992647 32.1647138-7.2953685-10.9333954z" fill="#a70d6f"/><path d="m27.4386316 51.6530056 9.0974901 13.6327921-13.632792 9.0974901-9.0974902-13.632792z" fill="#9e61ad"/><path d="m76.5679915 215.084186 9.0974902 13.632792-13.6327921 9.09749-9.0974901-13.632792z" fill="#8053a3"/><path d="m40.7042434 228.813811-39.91255914-60.295817 213.29688574-142.6624354 41.852541 59.3337222z" fill="url(#j)"/></svg>