<svg height="226" preserveAspectRatio="xMidYMid" viewBox="0 0 256 226" width="256" xmlns="http://www.w3.org/2000/svg"><path d="m155.893921 58.3659843h-55.832189l27.961449 48.1471497z" fill="#63c4b1"/><path d="m94.6131654 61.480315-27.8888819 48.231811h55.8442835z" fill="#63c4b1"/><path d="m122.567559 115.980094h-55.8452913l27.8888819 48.266079z" fill="#63c4b1"/><path d="m61.3634016 119.100472-28.0491339 48.219717h55.9259213z" fill="#63c4b1"/><path d="m161.259843 61.480315-27.864693 48.231811h55.835212z" fill="#63c4b1"/><path d="m189.232378 115.980094h-55.839244l27.867716 48.266079z" fill="#63c4b1"/><path d="m128.022173 3.79464567-27.958425 48.30236223h55.829165z" fill="#63c4b1"/><path d="m89.2411969 173.600252h-55.9269292l28.0501417 48.581543z" fill="#63c4b1"/><path d="m194.598299 119.100472-27.949354 48.219717h55.907779z" fill="#63c4b1"/><path d="m222.55874 173.600252h-55.908787l27.949354 48.581543z" fill="#63c4b1"/><g fill="#fff"><path d="m128.022173 119.100472-27.958425 48.219717h55.829165z"/><path d="m89.2411969 58.3659843h-55.9269292l28.0501417 48.1471497z"/><path d="m.06551181 109.711118h55.82614169l-27.9493543-48.2318109z"/><path d="m27.9422992 164.247181 27.9493543-48.266079h-55.82614169z"/><path d="m227.918614 61.480315-27.858645 48.231811h55.81707z"/><path d="m255.879055 115.980094h-55.820094l27.861669 48.266079z"/><path d="m189.232378.66922835h-55.839244l27.867716 48.17738585z"/><path d="m155.893921 173.600252h-55.9208816l28.0501416 48.581543z"/><path d="m161.259843 176.708535-27.864693 48.652095h55.835212z"/><path d="m122.567559.66922835h-55.8452913l27.8888819 48.17738585z"/><path d="m61.3634016 3.79464567-28.0491339 48.30236223h55.9259213z"/><path d="m194.598299 3.79464567-27.949354 48.30236223h55.907779z"/><path d="m222.55874 58.3659843h-55.908787l27.949354 48.1471497z"/><path d="m94.6131654 176.708535-27.8888819 48.652095h55.8442835z"/></g></svg>