<svg height="241" viewBox="0 0 256 241" width="256" xmlns="http://www.w3.org/2000/svg"><g fill="none" fill-rule="evenodd"><path d="m159.725153 182.576687c-8.166871-.863804-11.700613 1.334969-10.522699 6.517792 4.633129 4.633128 5.496933 9.973006 2.512883 16.098159-1.570552 2.669939-2.669938 6.360736-3.298159 11.229448 1.099386-.392638 1.96319-1.099387 2.591411-2.198773 0 0-.078528 1.806135-.235583 5.339877 1.884663-.942331 3.141104-2.512883 3.690798-4.711656 0 0 .078527 1.413497.157055 4.161963 2.355828-2.198773 3.062577-5.496933 2.198773-9.894479 10.679755-8.166871 11.622086-17.04049 2.905521-26.542331" fill="#18112e"/><path d="m173.310429 139.857669c-6.517791 3.61227-12.093251 10.679754-16.883435 21.280981 6.831902-3.298159 10.208589 1.413497 10.130061 14.056442 8.323927 2.826994 10.365644 10.365644 6.125154 22.694479 10.208589 5.496932 17.276073 14.527607 21.123926 27.013496 16.41227-3.769325 27.484663 1.492025 33.217178 15.705522 27.955828-27.092025 32.588957-57.953374 13.820859-92.505522-27.406135 20.731289-49.943559 17.982823-67.533743-8.245398" fill="#18112e"/><path d="m134.517791 128c1.413497 8.716564-1.099386 19.160736-7.460122 31.332515-1.96319-8.795092-8.795092-8.638036-20.652761.392638-8.795092-5.88957-17.3546013-2.355828-25.6785276 10.444172-12.7214724-5.732515-26.3067485-5.968098-40.8343559-.785276-8.5595092-18.296932-21.6736196-25.128834-39.18527603-20.33865 4.79018405-46.017178 30.23312883-72.4024542 76.40736193-79.3128837.7067485 40.8343557 19.8674847 60.3092027 57.4036806 58.2674847" fill="#18112e"/><path d="m71.6171779 70.7533742c1.0993865 3.5337424 1.6490798 5.3398773 1.6490798 5.3398773.2355828-.4711656.392638-.8638036.6282208-1.3349693l.0785276 1.7276074c-.2355828.0785276-.392638.1570552-.6282208.2355828-.8638037 3.6122699-1.3349693 5.4184049-1.3349693 5.4184049 4.5546012-3.1411043 9.7374233-4.1619632 15.4699386-2.9055215 3.2981595 1.3349694 4.6331288.4711657 3.8478528-2.6699386-1.0993865-3.7693252-5.6539878-4.2404908-13.6638037-1.4920246 2.9055215-2.1202454 6.3607362-3.3766871 10.4441718-3.6907975 3.5337423.392638 4.5546012-.8638037 2.984049-3.6122699-2.198773-3.3766872-6.988957-2.4343559-14.2920245 2.9055214 2.1202454-2.2773006 4.8687117-4.0049079 8.1668712-5.1042945 3.5337423-.5496932 4.1619632-1.9631901 1.9631901-4.2404908-3.2981595-3.0625766-8.4024539.0785277-15.3128834 9.4233129" fill="#18112e"/><path d="m134.517791 128c23.087117 6.910429 37.614724 13.11411 43.582822 18.611043-9.50184 6.282209-12.8 13.585276-9.894478 22.066258 7.695705 19.788957 2.355828 32.510429-16.176687 38.164417-25.678528 2.669938-39.892025-4.947239-42.640491-22.773006-2.041718-15.626994 6.360736-34.316565 25.128834-56.068712" fill="#18112e"/><path d="m134.753374 108.446626c27.092025-24.1865033 40.677301-36.2012272 40.677301-36.2012272-6.674847-6.7533743-10.5227-20.9668712-11.307976-42.5619632 1.963191-28.11288345-1.806135-35.96564419-11.229447-23.47975462-27.484663 28.34846622-35.808589 50.02208592-24.97178 65.02085892 9.501841 14.4490797 11.779141 26.8564417 6.831902 37.2220861" fill="#18112e"/><path d="m209.982822 73.5018405c-11.622086 19.1607362-5.653988 28.2699385 17.904295 27.3276075 2.041717-3.5337425 4.24049-5.4969327 6.596319-5.8110431 13.035582.7067485 20.181595-9.1092024 21.359509-29.2907975.785276-24.0294479-2.512884-40.5202454-9.894479-49.5509203-5.811043-7.6957055-9.580368-5.5754601-11.229448 6.4392638-6.439263 33.8453988-14.684662 50.807362-24.736196 50.8858896" fill="#18112e"/><path d="m137.423313 131.062577c8.245399 2.512883 16.569325 5.339877 24.422086 8.716564 3.062576 1.334969 6.203681 2.748466 9.109202 4.397546 1.256442.706749 2.512884 1.492025 3.690798 2.277301-4.476074 3.376687-8.245399 7.85276-9.266258 13.506748-.549693 3.141104-.157055 6.282209.863804 9.344785v.078528.078528c6.674846 17.119018 3.769325 29.604908-14.606135 35.415951-1.64908.157055-3.376687.31411-5.104295.392638-15.0773-1.64908-22.066257-10.993865-20.888343-27.877301 1.64908-18.296932 6.988957-31.253988 15.941104-38.792638-1.492024-2.748466-2.826994-5.182822-4.161963-7.53865" fill="#ccc9e4"/><path d="m137.266258 98.9447853c-.471166 5.8895707-.628221 8.8736197-.628221 8.8736197s-2.120246 1.492024-6.439264 4.476074c.863804-4.240491 3.219632-8.716565 7.067485-13.3496937" fill="#18112e"/><path d="m197.57546 220.819632c12.564417-2.905522 22.694479 2.041718 30.468712 14.841718 17.119018-18.925154 23.95092-50.807362 11.46503-76.564417-8.638036 19.160736-23.872392 45.703067-41.933742 61.722699zm-17.197546-24.422086c9.501841 2.277301 15.155828 9.18773 17.119019 20.652761 16.255214-21.752147 27.170552-40.441718 32.746012-56.068712-16.41227 15.784049-32.981595 27.56319-49.865031 35.415951zm-1.727607-5.653988c1.099386-8.245398-1.64908-14.449079-8.245399-18.453987 17.433129.235582 35.337423-3.141105 53.555828-10.130062-19.474846 16.176687-34.552147 25.678528-45.310429 28.584049zm-4.790184-42.561963c-2.984049 7.774233-4.319019 14.841718-4.083436 21.045399 16.176687-2.748466 24.265031-4.161963 24.265031-4.161963-8.795092-4.476074-15.548466-10.130062-20.181595-16.883436zm-132.9472396 14.684663c-6.5177914-13.977914-18.6895705-20.103068-36.35828217-18.37546 5.10429448-29.840491 29.84049077-59.1312888 63.21472397-65.7276078-11.5435583 22.0662578-25.1288344 55.4404908-26.8564418 84.1030678zm35.4944786-1.099387c-9.1092025-7.381595-19.7104295-7.852761-31.8822086-1.492024 8.402454-31.096933 17.8257668-54.81227 28.3484662-71.2245403-2.7484662 26.8564413-1.5705521 51.1214723 3.5337424 72.7165643zm6.5177914-2.355828c6.9104294-6.988957 14.6846626-8.795092 23.3226996-5.339877-13.0355831-16.41227-23.0085892-35.887117-29.9190186-58.267485-.7852761 30.076074 1.4134969 51.278528 6.596319 63.607362zm43.3472396-25.91411c-5.104295 8.402454-10.679755 14.76319-16.726381 18.925153-9.344785-17.354601-13.9779138-26.071166-13.9779138-26.071166 10.8368098 5.182822 21.0453988 7.538651 30.7042948 7.146013z" fill="#2b1f51"/><g fill="#ccc9e4"><path d="m232.677301 154.699387c-23.3227 16.098159-43.504295 11.386503-60.466258-14.213497 16.961963 24.186503 37.065031 28.976687 60.466258 14.213497"/><path d="m225.923926 240.765644c26.856442-25.992638 32.117792-55.519018 15.862577-88.500613v2.748466c14.606135 28.348466 11.15092 57.403681-15.862577 85.752147"/><path d="m237.231902 159.646626c1.256442-3.29816 0-2.591411-.235583-2.512884-.942331.235583-1.334969 2.984049-1.334969 2.984049-4.161963 14.527608-18.218405 35.651534-40.834356 62.822086 21.752147-24.657668 35.965644-45.781595 42.404908-63.293251"/><path d="m227.965644 161.295706c-19.867484 18.768098-36.515337 27.798773-53.241718 34.944785 17.276074-5.339878 35.258896-17.040491 54.105522-35.101841-.628221.078528-.863804.157056-.863804.157056"/><path d="m207.391411 166.871166c-13.820859 2.041717-26.699386 3.533742-38.635583 4.319018 8.716565.31411 21.595092-1.099386 38.635583-4.319018"/><path d="m1.33496933 150.144785c4.55460122-44.211043 28.26993867-70.3607359 71.06748467-78.4490795l-2.5914111 1.9631902c-37.2220858 6.5177914-61.87975456 30.5472393-68.47607357 76.4858893"/><path d="m68.8687117 81.4331288c2.198773-3.6122699 2.4343558-1.8061349 2.5128834-1.5705521.4711656 1.0208589-1.7276074 3.4552147-1.7276074 3.4552147-10.5226994 14.2920246-19.9460122 42.7975456-28.6625767 83.8674846 6.9889571-38.557055 16.3337424-67.141104 27.8773007-85.7521472"/><path d="m74.208589 91.406135c-2.9055215 32.353374.8638036 54.655215 6.596319 75.700613-7.6957055-20.181595-10.0515338-45.781595-7.0674847-76.6429443.3141104.6282208.4711657.9423313.4711657.9423313"/><path d="m76.8785276 82.2184049c2.0417178 33.7668711 21.3595092 49.5509201 57.8748464 47.4306751-35.1018403 1.099386-54.4196317-14.684663-57.8748464-47.4306751"/><path d="m84.1815951 114.964417c8.2453988 14.684663 16.4122699 27.955828 24.5006139 39.892025-6.831902-8.088344-14.9987734-21.438037-24.5006139-39.892025"/></g><path d="m237.153374 22.7730061v-.0785276c.314111-2.2773006.785276-5.1042945 1.727608-7.2245398.235582-.4711657.863803-1.7276074 1.413497-1.8846626.392638-.0785276 1.020858.3141104 1.256441.4711656 1.099387.7852761 2.198773 2.0417178 3.062577 3.1411043 9.423313 11.4650307 9.894478 34.0809816 9.423313 48.1374233-.471166 8.3239264-2.355828 20.8883436-10.444172 25.5214724-2.669939 1.4920246-5.732515 1.9631902-8.795092 1.806135h-.157055-.157055c-3.29816.4711656-5.811043 3.0625767-7.538651 5.8110429-5.88957.1570552-16.333742-.2355828-19.396319-5.5754601-1.256441-2.1202454-1.177914-4.8687116-.471165-7.6957055 4.790184 3.7693251 12.328834 7.0674847 22.615951 9.8944785-1.963191-6.8319018-1.806135-15.1558282.471165-25.1288343 4.397546-14.9202454 3.926381-31.2539878 6.988957-47.1950921" fill="#fff"/><path d="m226.709202 98.5521472c-5.968098.1570553-16.098159-.3141104-19.082208-5.5754601-1.099387-1.9631902-1.177914-4.397546-.628221-6.988957 4.790184 3.6122699 12.171779 6.8319018 22.30184 9.5803681-.078527-.2355829-.078527-.3926381-.157055-.6282209.235583.0785276.471166.1570552.628221.1570552-1.256442 1.0208589-2.198773 2.198773-3.062577 3.4552147zm10.444172-75.7791411v-.0785276c.314111-2.2773006.785276-5.1042945 1.727608-7.2245398.157055-.3141105.471165-1.0208589.863803-1.4920246.392638-.0785276 1.020859.3141104 1.256442.4711657 1.099386.785276 2.198773 2.1202454 3.062577 3.1411042 9.423313 11.4650307 9.894478 34.0809816 9.423313 48.1374234-.471166 7.6957055-2.041718 19.0822086-8.795092 24.3435582-.392638.2355829-.706749.4711657-1.099387.7067485-2.669939 1.4920246-5.732515 1.9631902-8.795092 1.806135h-.235583-.157055c-1.570552.2355828-2.984049.9423313-4.161963 1.8846626-.235583.1570552-.392638.3141104-.628221.4711656-1.96319-6.8319018-1.806135-15.1558282.471166-25.0503067 4.476073-14.8417178 4.004908-31.1754602 7.067484-47.1165645z" fill="#ccc9e2"/><path d="m191.921472 75.9361963c-1.649079-2.2773006-3.690797-4.0834356-6.203681-5.2613497-3.92638-1.7276073-8.245398-1.3349693-12.250306-.0785276-5.26135 1.6490798-10.365645 4.9472393-14.763191 8.1668712-15.784049 10.8368098-34.709202 28.5055218-24.186503 49.2368098 1.727608 3.847853 4.083436 7.381595 6.988957 10.444172 17.433129 18.532515 53.555829 20.02454 75.857669 10.365644 11.15092-5.182822 15.077301-13.663804 10.444172-25.050307.785276-3.61227 1.492024-7.146012 2.277301-10.758282v-.078528-.078527c.863803-8.402454 1.570552-23.1656444-6.753375-28.4269941-3.769325-2.3558282-8.245398-2.1202454-12.407362-1.0993865-5.653987-3.3766871-12.407362-6.596319-19.003681-7.3815951" fill="#18112e"/><path d="m136.402454 127.136196c1.64908 3.847853 3.92638 7.146013 6.674847 10.051534 4.868711 7.774233 9.737423 15.548466 14.606135 23.401227 0 0-.942332-4.161963-2.826994-12.48589 0 0 4.319018.785277 12.878527 2.355829 16.490798 4.004908 35.494479 2.2773 48.765644-3.455215 10.601227-4.947239 13.663804-12.564417 9.187731-22.930061 0 0 .785276-3.769326 2.355828-11.386503 2.2773-21.9877305-3.533743-31.0184053-17.433129-27.0134974-1.177914 1.5705522-1.806135 2.3558283-1.806135 2.3558283.157055-.9423313.549693-1.8846626 1.020859-2.8269939-6.439264-3.9263804-12.171779-6.2822086-17.197546-6.9889571.549693 2.5914111.471166 5.4969325-.235583 8.7165644-.157055-3.0625766-.706748-6.0466257-1.570552-8.9521472-4.004908-6.203681-9.973006-7.8527607-17.904295-4.8687116-1.177914.4711656-2.355828.9423312-3.533742 1.5705521-2.905521 1.4134969-6.046626 3.4552147-9.423313 5.8895706-1.099386.785276-2.198773 1.4920245-3.219632 2.2773006-5.57546 4.7116564-10.679754 10.601227-15.312883 17.7472392h7.695705c-11.386503 3.141104-15.626993 12.014724-12.721472 26.542331" fill="#ccc9e4"/><path d="m242.88589 152.265031c-2.905522 1.099386-4.397546 1.649079-4.397546 1.649079.235582-.392638.392638-.785276.549693-1.099386l-1.177914.863804c.078527.157055.078527.392638.157055.549693-1.96319 2.512883-2.905522 3.769325-2.905522 3.769325-.235582-4.711656-2.198773-8.716564-5.88957-11.857669-2.591411-1.492024-2.669939-2.826994-.235583-4.004908 3.062577-1.177914 5.653988 1.570552 7.931288 8.402454-.078527-3.062576-1.020858-6.046625-2.826993-8.873619-2.041718-2.198773-1.727608-3.455215.863803-3.926381 3.29816-.31411 5.104295 3.376687 5.339878 11.072393.392638-2.591411.157055-5.339877-.706749-8.166871-1.413497-2.669939-.785276-3.847853 1.806135-3.533743 3.690798.706749 4.161963 5.732516 1.492025 15.155829" fill="#18112e"/><path d="m127.293252 191.921472c-7.146013 4.083436-8.716565 7.931289-4.711657 11.465031 6.439264 1.020859 10.287117 4.868712 11.543558 11.543558.235583 3.062577 1.570553 6.753375 3.926381 10.993865.706748-.942331.942331-2.041717.785276-3.298159 0 0 .942331 1.492024 2.905521 4.476073.942332-1.884662 1.020859-3.847852.235583-5.968098 0 0 .863804 1.099387 2.591411 3.219632.628221-3.141104-.785276-6.282208-4.083435-9.344785 1.806135-6.125153 1.806135-10.993865-.078528-14.841718l1.256442.628221c-.863804-2.512883-2.669939-4.319018-5.418405-5.418405-2.277301-1.492024-5.26135-2.748466-8.952147-3.455215" fill="#18112e"/><path d="m117.712883 187.366871c-3.376687-5.339877-6.203681-6.439264-8.323926-3.298159.235583 10.287116 3.847853 17.119018 10.83681 20.495705-3.141104-5.496932-4.004908-11.229448-2.512884-17.197546zm-6.046625-11.857669c-.235583-6.360736-.392638-9.580368-.392638-9.580368-2.277301 5.968099-3.376687 11.386503-3.29816 16.176687 2.434356-4.397546 3.690798-6.596319 3.690798-6.596319z" fill="#18112e"/><path d="m155.170552 176.922699c1.099387-17.511656 4.711657-25.757055 10.83681-24.736196 1.334969 1.099387 2.355828 3.61227 2.984049 7.695706-1.334969-.314111-1.96319-.471166-1.96319-.471166.628221 2.984049.628221 5.339877.157055 6.988957-1.020859-.706748-1.492024-1.020859-1.492024-1.020859-.628221 5.57546-4.083436 9.423313-10.5227 11.543558" fill="#bebcd7"/><path d="m155.170552 176.922699v-.235582c6.046626-3.376688 9.18773-8.323927 9.344785-13.271166.785276.628221 1.33497 1.177914 1.64908 1.570552 0-3.141104-.235583-5.57546-.628221-7.146012.785276.31411 1.492025.628221 1.963191.942331-.392639-2.826994-1.177915-5.104294-2.434356-6.753374.31411 0 .549693 0 .863803.078527 1.33497 1.020859 2.355829 3.61227 2.984049 7.695706-1.334969-.31411-1.96319-.471166-1.96319-.471166.628221 2.984049.628221 5.339878.157055 6.988957-1.020858-.706748-1.492024-1.020859-1.492024-1.020859-.235583 2.355829-1.020859 4.319019-2.277301 6.046626-1.649079 2.120246-4.397546 4.633129-8.166871 5.57546" fill="#fff"/><path d="m164.358282 151.322699c1.96319.157056 2.905522.628221 2.748466 1.413497 1.963191 2.355829 2.826994 5.496933 2.591412 9.501841-.942332-1.020859-1.413497-1.570552-1.413497-1.570552.471165 2.355828.235582 4.790184-.549694 7.381595-.785276-1.020859-1.177914-1.492025-1.177914-1.492025-.31411 4.319019-3.92638 8.87362-11.307975 10.365644 6.517791-3.376687 9.815951-7.695705 10.051533-12.721472.785277.628221 1.33497 1.099386 1.64908 1.570552-.078527-3.141104-.235583-5.57546-.628221-7.146012.785276.31411 1.492025.628221 1.963191.942331-.628221-3.847853-1.884663-6.596319-3.926381-8.245399" fill="#18112e"/><path d="m134.596319 78.9202454c-1.492025-3.1411043-3.219632-6.1251534-5.104294-8.9521472-1.256442-1.806135-2.277301-3.6907976-2.98405-5.7325154-6.596319-19.0822086 15.862577-44.2895705 27.798773-56.61840489l.078528-.0785276.078528-.07852761c1.099386-1.41349693 2.512883-3.1411043 3.92638-4.2404908.31411-.23558282 1.177914-.78527607 1.570552-.70674846.392638.0785276.785276.94233128.942331 1.25644171.628221 1.49202454.942332 3.45521473 1.177915 5.02576687.31411 2.82699388.392638 5.81104298.392638 8.63803678-2.355829 16.3337424-3.61227 29.4478528-1.727608 39.0282209 2.591411 13.4282209.628221 16.804908-6.046625 15.0773006-1.806135-.7067485-4.161964 1.0208589-3.690798 5.4969325 1.413497 9.8159509-7.381595 17.1190184-16.41227 1.8846626z" fill="#ccc9e4"/><path d="m161.374233 24.5791411c-1.64908 13.0355828-2.355828 23.7153374-.785276 31.8822086 2.591411 13.4282209.628221 16.804908-6.046626 15.0773006-1.806135-.7067485-4.161963 1.0208589-3.690797 5.4969325 1.413497 9.2662577-6.203681 16.2552147-14.684663 4.397546 5.968098 3.61227 9.580368 2.5914111 10.915338-2.8269938-.314111-8.9521473 1.884662-13.3496933 6.439263-13.1141105 3.847853.7852761 5.418405-.785276 4.711657-4.790184-.785276-12.0932515.31411-24.1079755 3.141104-36.1226994z" fill="#bebadd"/><path d="m188.70184 75.3079755c-3.847852-3.9263804-9.109202-4.7116565-15.862576-2.2773007-1.177914.4711657-2.355828.9423313-3.533743 1.5705522-2.905521 1.4134969-6.046625 3.4552147-9.423312 5.8895705-1.099387.7852761-2.198773 1.4920246-3.219632 2.2773007-5.57546 4.7116564-10.679755 10.601227-15.312884 17.7472388h2.277301c8.245399-16.6478523 32.903067-32.7460118 45.074846-25.2073615" fill="#fff"/><path d="m149.123926 100.515337c-12.721472 6.360737-16.647852 22.458896-5.968098 36.750921-12.093251-10.601227-11.15092-33.609816 5.968098-36.750921" fill="#fff"/><path d="m225.923926 110.174233c-13.977914 1.020859-20.966871 1.570552-20.966871 1.570552 5.26135-14.3705519 10.208589-20.2601224 15.077301-20.1030672 5.653988.1570552 7.617178 5.4969325 5.88957 18.5325152" fill="#bebadd"/><path d="m184.147239 112.922699c-19.474846-11.700613-31.096932-16.6478524-31.096932-16.6478524 9.973006-15.1558282 21.595092-20.9668711 31.882208-18.1398773 8.245399 2.2773006 8.166872 12.9570552-.785276 34.7877297" fill="#bebadd"/><path d="m167.028221 131.533742c-18.453988-1.806135-23.63681-8.795092-16.41227-18.768098-.706749-.549693-1.64908-.235583-2.748466.863804 2.434355-5.104295 6.831902-2.826994 3.141104-1.334969-5.496933 9.423312 1.177914 16.098159 16.569325 17.354601 17.668712 1.413497 29.21227 4.083435 35.887117 7.146012 10.993865 5.025767 19.317791 1.64908 18.061349-5.339877.942332 5.261349-1.177914 8.323926-6.439263 9.109202-3.141105.549693-7.146013-.31411-11.857669-2.669938-9.18773-3.690798-21.516565-4.94724-36.201227-6.360737" fill="#fff"/><path d="m166.871166 130.434356c-18.453988-1.806135-23.63681-8.795092-16.41227-18.768098-.706749-.549694-1.64908-.235583-2.748467.863803 2.434356-5.104294 6.831902-2.826994 3.141105-1.334969-5.496933 9.423313 1.177914 16.09816 16.569325 17.354601 17.668712 1.413497 29.21227 4.083436 35.887116 7.146013 10.993865 5.025766 19.317792 1.649079 18.06135-5.339878.942331 5.26135-1.177914 8.323927-6.439264 9.109203-3.141104.549693-7.146012-.314111-11.857668-2.669939-9.18773-3.690798-21.438037-4.947239-36.201227-6.360736" fill="#381f59"/><path d="m199.53865 141.428221c-4.397546 6.046626-12.328834 4.240491-23.872392-5.496933 11.307975 7.146013 19.239263 8.952148 23.872392 5.496933" fill="#381f59"/><path d="m162.159509 114.88589c6.988957 3.533742 16.41227 1.334969 21.516565-1.727608l.392638-.235583.157055-.471165c.549693-1.570552.31411-4.004908.549693-5.57546v-.078528-.078528c.549693-5.88957.157055-13.0355824-4.554601-17.1975456-2.748466-2.4343558-6.360736-3.2981595-9.973006-3.2981595-8.088344 0-13.585276 4.790184-17.040491 11.7791411l-.078528.0785276v.0785276c-.706748 2.3558278-1.413497 4.5546008-.706748 6.9889568 1.413497 4.790184 5.653988 7.695706 9.737423 9.737424" fill="#381f59"/><path d="m162.866258 113.943558c-7.617178-3.847852-10.5227-8.873619-8.55951-15.3128832 3.29816-6.6748466 8.638037-10.9153374 16.09816-10.9153374 9.973006-.0785276 14.370552 6.8319019 13.11411 19.0036806-.392638 2.198773-.785276 3.769326-1.099386 4.711657-7.695706 4.554601-14.134969 5.26135-19.553374 2.512883" fill="#fff"/><path d="m167.970552 92.7411043c-5.104294.4711656-8.795092 4.9472393-8.323926 9.9730057.471165 5.104295 4.947239 8.795092 9.973006 8.323927 5.104294-.471166 8.795092-4.947239 8.323926-9.973006-.392638-5.0257672-4.868711-8.7165647-9.973006-8.3239267" fill="#0f143c"/><path d="m168.04908 93.8404908c-4.476074.392638-7.774233 4.397546-7.381595 8.8736192.392638 4.476074 4.397546 7.774234 8.873619 7.381596 4.476074-.392639 7.774233-4.397546 7.381595-8.87362-.392638-4.4760737-4.397546-7.7742332-8.873619-7.3815952" fill="#196097"/><path d="m171.896933 108.132515c-.785277.078528-1.413497.785276-1.33497 1.570552.078528.785277.785276 1.413497 1.570552 1.33497.785276-.078528 1.413497-.785276 1.33497-1.570552 0-.785276-.706749-1.413497-1.570552-1.33497" fill="#fff"/><path d="m164.044172 90.7779141c-2.198773.6282209-3.690798 2.2773006-3.29816 3.7693252.392638 1.4134969 2.512884 2.1202454 4.790184 1.4920245 2.198773-.6282209 3.690798-2.2773006 3.29816-3.7693251-.392638-1.413497-2.591411-2.1202454-4.790184-1.4920246" fill="#fff"/><path d="m161.217178 90.5423313c-1.256442-.1570552-1.884663-.3141104-1.884663-.3141104 7.774233-4.5546013 15.391411-5.2613497 22.851534-1.9631902-7.774233-2.198773-14.76319-1.4920246-20.966871 2.2773006" fill="#381f59"/><path d="m168.36319 96.9815951c-2.748466.2355828-4.790184 2.6699386-4.554601 5.4184049.235583 2.748466 2.669939 4.790184 5.418405 4.554601s4.790184-2.669938 4.554601-5.418405c-.235583-2.8269935-2.669939-4.8687113-5.418405-4.5546009" fill="#030204"/><path d="m148.574233 102.71411c4.319019 6.753375 8.009816 10.5227 10.915338 11.386503.078527-8.245398-3.61227-12.014723-10.915338-11.386503" fill="#ccc9e4"/><path d="m148.574233 102.71411c8.323927-4.2404904 11.465031 2.669939 10.915338 11.386503-.471166-8.088343-4.083436-11.857668-10.915338-11.386503" fill="#381f59"/><path d="m148.574233 102.71411c6.674847-.62822 10.365644 3.219632 10.915338 11.386503-1.256442-7.460122-4.94724-11.307975-10.915338-11.386503" fill="#fff"/><path d="m203.229448 97.6883436c-1.177914-6.6748467-3.690798-10.0515338-7.695706-10.1300614 4.868712-1.6490797 7.852761 1.806135 8.87362 10.208589-4.397546 9.7374228-4.161963 15.7840488.863804 18.1398768-2.277301-.471165-3.455215-.706748-3.533743-.706748-2.2773-3.533742-1.806135-9.423313 1.492025-17.5116564" fill="#381f59"/><path d="m221.290798 122.42454c4.633128-2.669939 4.711656-9.815951 4.554601-14.134969-.078528-2.669939-.628221-5.26135-2.984049-6.674847-3.219632-2.0417179-7.381595-.942331-10.365644 1.020859-4.397546 2.826994-7.303068 7.774233-8.952148 12.642945l-.078527.235582v.235583c.31411 8.245399 14.527607 8.559509 17.825767 6.674847" fill="#381f59"/><path d="m204.721472 115.671166c5.496933-15.862577 19.788957-17.668712 20.260123-7.381595.314111 7.53865-1.020859 11.857668-4.004908 12.8-5.88957 1.884662-14.44908 1.570552-16.255215-5.418405" fill="#fff"/><path d="m223.882209 103.813497c.471165-.392638.706748-.628221.706748-.628221-1.64908-2.826994-4.633129-4.3190183-8.716564-4.4760735 3.219632.785276 5.88957 2.4343555 8.009816 5.1042945" fill="#381f59"/><path d="m214.223313 106.090798c-3.847853 0-6.988957 3.141104-6.988957 6.988957 0 3.847852 3.141104 6.988957 6.988957 6.988957s6.988957-3.141105 6.988957-6.988957c0-3.926381-3.141104-6.988957-6.988957-6.988957" fill="#0f143c"/><path d="m214.223313 106.876074c-3.376687 0-6.203681 2.748466-6.203681 6.203681 0 3.376687 2.748466 6.203681 6.203681 6.203681s6.203681-2.748467 6.203681-6.203681c0-3.455215-2.826994-6.203681-6.203681-6.203681" fill="#196097"/><path d="m214.223313 109.231902c-2.120246 0-3.769325 1.727607-3.769325 3.769325s1.727607 3.769325 3.769325 3.769325c2.120245 0 3.769325-1.727607 3.769325-3.769325s-1.64908-3.769325-3.769325-3.769325" fill="#030204"/><path d="m217.678528 117.634356c-.628221 0-1.099387.471165-1.099387 1.099386s.471166 1.099387 1.099387 1.099387c.62822 0 1.099386-.471166 1.099386-1.099387s-.471166-1.099386-1.099386-1.099386" fill="#fff"/><path d="m211.396319 105.776687c-1.570552.785276-2.355828 2.277301-1.806135 3.29816s2.198773 1.177914 3.769325.31411c1.570552-.785276 2.355828-2.277301 1.806135-3.298159-.549693-.942332-2.198773-1.099387-3.769325-.314111" fill="#fff"/><path d="m218.620859 121.717791c-.157055 1.020859-.314111 1.570553-.314111 1.570553 2.355829-.235583 4.397546 0 6.125154.785276-1.64908-1.806135-3.61227-2.512884-5.811043-2.355829" fill="#381f59"/><path d="m199.774233 132.554601c5.889571-2.041718 8.795092-5.182822 8.795092-9.423313-1.492024-9.344785-8.795092-11.307975-21.830675-5.811043-2.826994 1.806135-1.492024 4.476074 3.847853 8.088344 2.277301 1.413497 3.376687 2.905521 3.376687 4.554601v.157055c0 .471166.157055.785276.471166 1.020859 1.96319 1.413497 3.769325 1.884663 5.339877 1.413497" fill="#18112e"/><path d="m199.460123 131.61227c5.261349-1.884663 7.931288-4.711657 7.931288-8.480982-1.334969-8.402454-7.852761-10.130061-19.631902-5.261349-2.512883 1.570552-1.334969 4.004908 3.455215 7.303067 2.041718 1.256442 3.062577 2.591411 2.984049 4.083436v.157055c0 .392638.157055.706748.392638.942331 1.884663 1.256442 3.455215 1.727608 4.868712 1.256442" fill="#18112e"/><path d="m200.480982 116.299387c2.826993.31411 5.104294 1.884662 5.104294 3.690797 0 1.727607-2.277301 2.905522-5.104294 2.669939-2.826994-.235583-5.104295-1.884663-5.104295-3.690798-.078527-1.806135 2.277301-2.984049 5.104295-2.669938" fill="#2b1f51"/><path d="m192.078528 83.7889571c-.078528-5.2613497-4.319019-12.014724-4.319019-12.014724 21.438037-7.0674846 30.86135 1.6490798 33.609816 5.0257669-2.984049-.392638-5.339877-.3141104-7.146012.1570552 2.826994 1.1779141 4.868712 3.0625767 6.125153 5.4969325-2.198773-.8638037-4.633129-1.1779141-7.303067-.9423313 6.282208 4.3190184 7.22454 10.0515338 2.826994 17.1190184.392638-2.198773-.706749-4.0049079-3.141105-5.4969325-2.041717 6.2822086-6.046625 10.4441717-11.936196 12.4858897.785276-5.496933.078528-10.4441719-2.198773-14.8417179-.863804 2.3558282-1.256442 3.4552147-1.256442 3.4552147-3.533742-6.9104294-5.261349-10.4441717-5.261349-10.4441717" fill="#18112e"/><path d="m212.652761 93.2122699c5.496932-15.7055214-9.580368-25.992638-23.872393-19.4748466 15.705522-.7067485 27.24908 17.3546012 11.936196 31.9607367 6.046626-2.198773 10.051534-6.3607367 11.936197-12.4858901" fill="#2b1f51"/><path d="m188.780368 73.7374233c-.628221-1.1779141-1.099386-1.9631902-1.099386-1.9631902 21.438036-7.0674846 30.861349 1.6490798 33.609816 5.0257669-9.266258-6.1251534-20.103068-7.1460123-32.51043-3.0625767z" fill="#2b1f51"/><path d="m199.22454 151.715337c23.715337-3.61227 32.588957-12.8 26.542331-27.484662 4.083436 14.44908-4.790184 23.558282-26.542331 27.484662" fill="#fff"/><path d="m165.222086 56.3828221c-.078528 1.806135-.628221 1.9631902-1.570552.4711656-1.806135-9.4233129-1.884663-21.595092-.314111-36.6723926-.471165 15.391411.078528 27.4846626 1.884663 36.201227" fill="#2b1f51"/></g></svg>