<svg height="256" preserveAspectRatio="xMidYMid" viewBox="0 0 256 256" width="256" xmlns="http://www.w3.org/2000/svg"><circle cx="128" cy="128" fill="#5d83ac" r="114.75"/><g fill="#f0f0f0"><path d="m0 128c0-70.6925 57.3075-128 128-128s128 57.3075 128 128-57.3075 128-128 128-128-57.3075-128-128zm128-102.5c-56.60925 0-102.5 45.89075-102.5 102.5s45.89075 102.5 102.5 102.5 102.5-45.89075 102.5-102.5-45.89075-102.5-102.5-102.5z"/><path d="m206.4105 166-58.52-84.7c-2.05425-2.986-4.55-5.48175-7.49-7.49-2.94-2.006-6.60425-3.01-10.99-3.01-4.57425 0-8.35425 1.074-11.34 3.22-2.98825 2.148-5.46 4.574-7.42 7.28l-60.06 84.7h34.3l43.96-62.16 16.8 24.78c1.58575 2.24 3.24175 4.644 4.97 7.21 1.72575 2.56825 3.24175 4.69 4.55 6.37-2.24-.186-4.87825-.28-7.91-.28h-8.75-23.52l-17.5 24.08z"/></g></svg>