<svg height="280" preserveAspectRatio="xMidYMid" viewBox="0 0 512 280" width="512" xmlns="http://www.w3.org/2000/svg"><path d="m116.548203 6.28104089c6.217596 3.87013631 10.595291 8.62850061 13.196531 14.14820321 3.870136 8.8822801 8.184386 18.5258984 12.879306 28.9942999 4.694919 10.4684015 9.453283 21.0636927 14.148203 31.7858736 4.694919 10.7221809 9.262949 21.1905824 13.577199 31.3417594 4.314251 10.151177 8.247832 19.477571 11.673854 27.915737 3.426022 8.438167 6.154151 15.607435 8.184387 21.507807 2.030235 5.900372 3.045353 9.833953 3.045353 11.673854 0 3.172243-.444114 6.217596-1.268897 9.262949s-2.34746 5.836927-4.56803 8.311276c-2.22057 2.47435-5.329368 4.504585-9.262949 5.963817-3.997026 1.459232-9.13606 2.22057-15.417101 2.22057-6.66171 0-12.054522-.888228-16.241883-2.664684s-7.613383-3.997026-10.404957-6.7886c-2.791573-2.791573-5.075588-5.710037-6.915489-8.75539s-3.743247-5.963817-5.710037-8.75539c-1.966791-2.791574-4.187361-5.012144-6.66171-6.7886-2.47435-1.776456-5.900372-2.664684-10.151178-2.664684h-17.7645596c-5.2024784 0-9.2629492.888228-12.3717473 2.664684-3.0453531 1.776456-5.5197026 3.997026-7.4864931 6.7886-1.9667906 2.791573-3.7432466 5.710037-5.3928129 8.75539s-3.8066915 5.963817-6.4079306 8.75539c-2.6012392 2.791574-5.9638166 5.012144-10.1511772 6.7886s-9.7705081 2.664684-16.8128873 2.664684c-10.3415117 0-17.9548946-2.284015-22.77670382-6.915489-4.82180917-4.631475-7.23271375-10.087733-7.23271375-16.368774 0-2.410904.95167286-6.598265 2.91846344-12.625526 1.96679059-6.027262 4.56802974-13.196531 7.93060723-21.507807 3.4894671-8.374721 7.2961586-17.574225 11.546964-27.788848 4.2508055-10.151177 8.7553904-20.683023 13.5771995-31.4686488 4.8218092-10.8490707 9.6436184-21.6346964 14.4019827-32.4837671 4.8218092-10.8490706 9.4532837-21.2540272 13.8944238-31.2148699 2.6012391-5.7100371 6.9154894-10.27806687 12.879306-13.57719946 6.0272615-3.29913259 12.6889715-5.01214374 20.1120199-5.01214374 6.471375 0 12.815861 1.96679058 19.033457 5.83692689zm224.404461.95167286c4.821809 4.37769515 7.232714 9.96084265 7.232714 16.81288725 0 3.8701363-.951673 8.9457249-2.918464 15.2902106-1.96679 6.2810409-4.44114 13.386865-7.486493 21.380917-3.045353 7.9306072-6.598265 16.5591078-10.531846 25.822057-3.997026 9.2629492-7.994052 18.6527884-12.054523 28.2964064-5.519703 13.133086-10.341512 24.933829-14.275093 35.402231-3.997026 10.468401-8.057497 19.350681-12.181413 26.64684-4.18736 7.296158-8.691945 12.942751-13.577199 16.939777s-10.97596 5.963816-18.145229 5.963816c-7.423049 0-13.5772-1.586121-18.462454-4.885254-4.885254-3.235688-9.326394-8.120942-13.32342-14.719207-3.997026-6.53482-7.867162-14.846096-11.673854-24.806939-3.806691-9.960843-8.247831-21.825031-13.450309-35.52912-3.870137-10.341512-7.867163-20.4926892-11.927634-30.3900869-4.060471-9.8973978-7.740272-19.0334573-11.10285-27.3447336-3.299132-8.3112763-6.027261-15.7977695-8.184386-22.3325898-2.093681-6.5348204-3.172243-11.6738538-3.172243-15.4171004 0-8.5016109 2.855018-14.59231725 8.6285-18.33556384 5.710038-3.67980173 12.879306-5.5197026 21.380917-5.5197026 7.740273 0 13.830979.95167286 18.14523 2.91846344 4.31425 1.96679059 8.120941 4.50458489 11.229739 7.6133829 2.22057 2.22057 4.44114 5.4562577 6.66171 9.7070632s4.314251 8.9457249 6.217596 14.0213135c1.966791 5.0755886 3.870137 10.2146221 5.836927 15.4171004 1.966791 5.2024783 3.743247 9.9608426 5.392813 14.2750929 1.649567 4.3776952 3.299133 7.8671623 4.885254 10.5318464 1.586122 2.664684 2.981909 3.997026 4.314251 3.997026 1.459231 0 2.981908-1.332342 4.568029-3.997026 1.586122-2.6646841 3.172243-6.1541512 4.885254-10.4049567 1.649567-4.2508054 3.362578-8.9457249 5.139034-14.0213135s3.616357-10.1511772 5.519702-15.0998761c1.903346-4.9486988 3.997026-9.5801734 6.090707-13.7040892 2.09368-4.1873606 4.31425-7.3596034 6.53482-9.5801735 2.030235-2.0302354 3.997026-3.74324655 5.963817-5.13903342 1.96679-1.39578686 4.060471-2.5377943 6.40793-3.48946716 2.284015-.95167286 4.948699-1.58612144 7.930607-2.0936803 2.981909-.444114 6.534821-.69789343 10.849071-.69789343 7.549938 0 13.830979 2.15712515 18.652788 6.47137546zm94.215614-.95167286c6.217596 3.87013631 10.595291 8.62850061 13.19653 14.14820321 3.870136 8.8822801 8.184387 18.5258984 12.879306 28.9942999s9.453284 21.0636927 14.148203 31.7858736c4.69492 10.7221809 9.262949 21.1905824 13.5772 31.3417594 4.31425 10.151177 8.247831 19.477571 11.673854 27.915737 3.426022 8.438167 6.154151 15.607435 8.184386 21.507807 2.030236 5.900372 3.045353 9.833953 3.045353 11.673854 0 3.172243-.444114 6.217596-1.268897 9.262949s-2.34746 5.836927-4.56803 8.311276c-2.22057 2.47435-5.329368 4.504585-9.262949 5.963817-3.997026 1.459232-9.136059 2.22057-15.4171 2.22057-6.66171 0-12.054523-.888228-16.241884-2.664684-4.18736-1.776456-7.613383-3.997026-10.404956-6.7886-2.791574-2.791573-5.075589-5.710037-6.91549-8.75539s-3.743246-5.963817-5.710037-8.75539c-1.966791-2.791574-4.187361-5.012144-6.66171-6.7886s-5.900372-2.664684-10.151177-2.664684h-17.76456c-5.202479 0-9.262949.888228-12.371748 2.664684-3.045353 1.776456-5.519702 3.997026-7.486493 6.7886-1.96679 2.791573-3.743246 5.710037-5.392813 8.75539-1.649566 3.045353-3.806691 5.963817-6.40793 8.75539-2.601239 2.791574-5.963817 5.012144-10.151177 6.7886-4.187361 1.776456-9.770508 2.664684-16.812888 2.664684-10.341511 0-17.954894-2.284015-22.776703-6.915489-4.82181-4.631475-7.232714-10.087733-7.232714-16.368774 0-2.410904.951673-6.598265 2.918463-12.625526 1.966791-6.027262 4.56803-13.196531 7.930607-21.507807 3.299133-8.311276 7.105824-17.574225 11.35663-27.725403 4.250805-10.151177 8.75539-20.6830232 13.577199-31.468649 4.82181-10.8490706 9.643619-21.6346964 14.401983-32.483767 4.821809-10.8490706 9.453284-21.2540273 13.894424-31.2148699 2.601239-5.7100372 6.915489-10.27806691 12.879306-13.5771995 6.027261-3.29913259 12.688971-5.01214374 20.11202-5.01214374 6.66171-.06344486 13.006196 1.90334572 19.223792 5.77348203z" fill="#4b4b77"/><path d="m96.8802974 279.538042c1.5226766 0 2.9819083-.824783 3.6798016-2.22057 0-.063445 6.027262-11.166295 11.991078-24.29938 2.981909-6.598265 6.027262-13.640645 8.311277-20.175465 1.142007-3.299133 2.09368-6.407931 2.791573-9.262949.697894-2.918464 1.142008-5.583148 1.142008-7.994052 0-9.453284-3.489467-17.89145-9.326394-23.728377-4.885254-4.885254-11.48352-7.867162-18.6527885-7.867162-7.1692689 0-13.767534 2.981908-18.6527881 7.867162-5.773482 5.773482-9.326394 14.211648-9.326394 23.728377 0 2.474349.444114 5.139033 1.1420074 7.994052 1.2054523 5.075588 3.2991326 10.84907 5.6465923 16.812887 7.1692689 17.828005 17.4473358 36.861462 17.4473358 36.988352.8247832 1.268897 2.2205701 2.157125 3.8066915 2.157125zm318.6200746 0c1.522676 0 2.981908-.824783 3.679801-2.22057 0-.063445 6.027262-11.166295 11.991079-24.29938 2.981908-6.598265 6.027261-13.640645 8.311276-20.175465 1.142007-3.299133 2.09368-6.407931 2.791574-9.262949.697893-2.918464 1.142007-5.583148 1.142007-7.994052 0-9.453284-3.489467-17.89145-9.326394-23.728377-4.885254-4.885254-11.483519-7.867162-18.652788-7.867162s-13.767534 2.981908-18.652788 7.867162c-5.773482 5.773482-9.326394 14.211648-9.326394 23.728377 0 2.474349.444114 5.139033 1.142007 7.994052 1.205452 5.075588 3.299133 10.84907 5.646592 16.812887 7.169269 17.828005 17.447336 36.861462 17.447336 36.988352.824783 1.268897 2.22057 2.157125 3.806692 2.157125z" fill="#e0c7c1"/></svg>