<svg height="190" preserveAspectRatio="xMidYMid" viewBox="0 0 256 190" width="256" xmlns="http://www.w3.org/2000/svg"><path d="m22.1828747 162c1.7501282 0 3.193984.612545 4.4190737 1.837635 1.2250897 1.225089 1.8376346 2.712698 1.8376346 4.419073v21.70159h-22.18287475c-1.75012818 0-3.19398393-.612545-4.41907366-1.837635s-1.83763459-2.712699-1.83763459-4.419074v-10.325756h23.2329516v-5.119125c0-.306272-.0875064-.525038-.3062724-.743804s-.437532-.306273-.7438045-.306273h-22.1828747v-5.206631zm1.0500769 22.751666v-6.169201h-18.02632025v5.119124c0 .306273.0875064.525039.30627243.743805.21876602.218766.43753204.306272.74380447.306272zm50.1849257-22.751666h5.556657l-10.5007691 27.958298h-4.2440609l-9.406939-20.782772-8.8819005 20.782772-.0875064-.043753.0437532.043753h-4.2003076l-10.9820544-27.958298h5.5129038l7.5693044 18.551359 8.0505896-18.551359h5.9504359l8.5318748 18.551359zm29.4021537 0c1.750128 0 3.193984.612545 4.419073 1.837635 1.22509 1.225089 1.837635 2.712698 1.837635 4.419073v10.325757h-23.2329516v5.119124c0 .306273.0875064.525039.3062724.743805s.4375321.306272.7438045.306272h22.1828747v5.206632h-22.1828747c-1.7501282 0-3.1939839-.612545-4.4190737-1.837635-1.2250897-1.22509-1.8376346-2.712699-1.8376346-4.419074v-15.444881c0-1.750128.6125449-3.193984 1.8376346-4.419073 1.2250898-1.22509 2.7126987-1.837635 4.4190737-1.837635zm-16.9762436 11.375833h18.0263206v-5.119125c0-.306272-.087507-.525038-.306273-.743804s-.437532-.306273-.743804-.306273h-15.9261667c-.3062724 0-.5250385.087507-.7438045.306273s-.3062724.437532-.3062724.743804zm56.4416336-5.075372v1.050077h-5.206631v-1.050077c0-.306272-.087506-.525038-.306272-.743804-.218767-.218766-.437533-.306272-.743805-.306272h-15.926166c-.306273 0-.525039.087506-.743805.306272s-.306272.437532-.306272.743804v4.069048c0 .306273.087506.525039.306272.743805s.437532.306272.743805.306272h15.926166c1.750128 0 3.193984.612545 4.419074 1.837635 1.225089 1.22509 1.837634 2.712699 1.837634 4.419074v4.069048c0 1.750128-.612545 3.193984-1.837634 4.419073-1.22509 1.22509-2.712699 1.837635-4.419074 1.837635h-15.926166c-1.750129 0-3.193984-.612545-4.419074-1.837635-1.22509-1.225089-1.837635-2.712698-1.837635-4.419073v-1.050077h5.206632v1.050077c0 .306272.087506.525038.306272.743804s.437532.306273.743805.306273h15.926166c.306272 0 .525038-.087507.743805-.306273.218766-.218766.306272-.437532.306272-.743804v-4.069048c0-.306273-.087506-.525039-.306272-.743805-.218767-.218766-.437533-.306272-.743805-.306272h-15.926166c-1.750129 0-3.193984-.612545-4.419074-1.837635s-1.837635-2.712699-1.837635-4.419074v-4.069048c0-1.750128.612545-3.193983 1.837635-4.419073s2.712699-1.837635 4.419074-1.837635h15.926166c1.750128 0 3.193984.612545 4.419074 1.837635 1.225089 1.181336 1.837634 2.668945 1.837634 4.419073zm11.025808-6.300461h15.926166c1.750129 0 3.193984.612545 4.419074 1.837635 1.22509 1.225089 1.837635 2.712698 1.837635 4.419073v15.444881c0 1.750129-.612545 3.193984-1.837635 4.419074s-2.712699 1.837635-4.419074 1.837635h-15.926166c-1.750128 0-3.193984-.612545-4.419074-1.837635s-1.837634-2.712699-1.837634-4.419074v-15.444881c0-1.750128.612544-3.193984 1.837634-4.419073 1.22509-1.22509 2.712699-1.837635 4.419074-1.837635zm15.926166 5.206631h-15.926166c-.306273 0-.525039.087507-.743805.306273s-.306272.437532-.306272.743804v15.444881c0 .306273.087506.525039.306272.743805s.437532.306272.743805.306272h15.926166c.306273 0 .525039-.087506.743805-.306272s.306272-.437532.306272-.743805v-15.444881c0-.306272-.087506-.525038-.306272-.743804-.218766-.175013-.437532-.306273-.743805-.306273zm47.034695-5.206631c1.750128 0 3.193984.612545 4.419074 1.837635 1.22509 1.225089 1.837634 2.712698 1.837634 4.419073v21.70159h-5.162878v-21.70159c0-.306272-.087506-.525038-.306272-.743804s-.481285-.306273-.787558-.306273h-11.025807c-.306273 0-.525039.087507-.743805.306273s-.306272.437532-.306272.743804v21.70159h-5.206632v-21.70159c0-.306272-.087506-.525038-.306272-.743804s-.437532-.306273-.743804-.306273h-11.069561c-.306273 0-.525039.087507-.743805.306273s-.306272.437532-.306272.743804v21.70159h-5.206631v-27.958298zm33.471202 0c1.750128 0 3.193984.612545 4.419073 1.837635 1.22509 1.225089 1.837635 2.712698 1.837635 4.419073v10.325757h-23.232952v5.119124c0 .306273.087507.525039.306273.743805s.437532.306272.743804.306272h22.182875v5.206632h-22.182875c-1.750128 0-3.193984-.612545-4.419073-1.837635-1.22509-1.22509-1.837635-2.712699-1.837635-4.419074v-15.444881c0-1.750128.612545-3.193984 1.837635-4.419073 1.225089-1.22509 2.712698-1.837635 4.419073-1.837635zm-16.976244 11.375833h18.026321v-5.119125c0-.306272-.087507-.525038-.306273-.743804s-.437532-.306273-.743804-.306273h-15.926167c-.306272 0-.525038.087507-.743804.306273s-.306273.437532-.306273.743804z" fill="#494368"/><path d="m256 60.2584615-65.641026-60.21470082-9.233504 10.06495722 54.700855 50.1497436h-215.6088891l54.7008547-50.1935042-9.2335043-10.0649573-65.64102562 60.2584615h-.04376068v39.6909402c0 17.9418803 17.2854701 32.5579483 38.5094017 32.5579483h40.4786325c21.2239318 0 38.5094018-14.616068 38.5094018-32.5579483v-26.0813675h21.005128v26.0813675c0 17.9418803 17.28547 32.5579483 38.509402 32.5579483h40.478632c21.223932 0 38.509402-14.616068 38.509402-32.5579483z" fill="#fc60a8"/></svg>