<svg height="310" preserveAspectRatio="xMidYMid" viewBox="0 0 256 310" width="256" xmlns="http://www.w3.org/2000/svg"><path d="m0 173.3665.985.521 15.49 1.761 19.455-1.081.856-.45-17.267-1.502z" fill="#b6c99c"/><path d="m127.9998.6979-54.052 27.026v173.507l54.052 9.917 1.85-2.5v-203.499z" fill="#4c612c"/><path d="m127.9998.6979v217.7l54.053-16.141v-174.533z" fill="#769b3f"/><path d="m219.2139 174.1171.922.623 19.339 1.074 15.656-1.779.869-.669-19.519-.75z" fill="#b6c99c"/><path d="m219.2141 210.1525 20.27 2.628.543-.998v-35.397l-.543-1.142-20.27-1.126z" fill="#4c612c"/><path d="m36.7859 210.1525-20.27 2.628-.342-.926v-36.001l.342-.61 20.27-1.126z" fill="#769b3f"/><path d="m125.7478 208.651-89.713-15.765-19.519 1.876.888.891 85.223 17.265.974-.513z" fill="#b6c99c"/><path d="m0 191.3845v54.428l89.713 44.988v.056l38.287 19.144 1.6-3.003v-118.849l-1.6-3.747-38.287-3.753v28.889l-73.197-14.811v-19.483l-16.516-1.877z" fill="#4c612c"/><path d="m128 209.0264 21.771 3.754 2.804.118 85.285-17.129 1.624-1.007-19.144-1.877z" fill="#b6c99c"/><path d="m239.4837 175.243v19.483l-73.196 14.811v-30.165l-38.288 3.754v123.871 3.003l128-64.188v-72.446z" fill="#769b3f"/><path d="m166.2874 182.3754-38.287-3.003-38.288 3.003 38.288 3.754z" fill="#b6c99c"/></svg>