<svg height="310" preserveAspectRatio="xMidYMid" viewBox="0 0 256 310" width="256" xmlns="http://www.w3.org/2000/svg"><path d="m36.08 262.013-36.08-17.181v-180.832l36.08-18.04.131.187.24 215.501z" fill="#4b612c"/><path d="m168.376 226.362-132.296 35.651v-216.053l132.296 36.08z" fill="#759c3e"/><path d="m59.705 124.134 68.295-8.59 1.667 1.456v73.333l-1.667 2.526-68.295-8.161z" fill="#4b612c"/><path d="m256 109.53-62.282 6.443-134.013-21.476 67.462-21.997z" fill="#3c4929"/><path d="m256 199.731-62.282-6.442-134.013 21.476 72.462 18.402z" fill="#b7ca9d"/><path d="m59.705 274.899 68.295 34.363 2.887-76.568-71.182-17.929z" fill="#4b612c"/><path d="m256 245.262-128 64v-77.316l128-32.215z" fill="#759c3e"/><path d="m59.705 33.933 68.295-33.933.495.698-.21 76.146-.285.471-68.295 17.182z" fill="#4b612c"/><g fill="#759c3e"><path d="m256 176.966-128 15.893v-77.315l128 16.322z"/><path d="m256 109.53-128-32.215v-77.315l128 64z"/></g></svg>