<svg height="310" preserveAspectRatio="xMidYMid" viewBox="0 0 256 310" width="256" xmlns="http://www.w3.org/2000/svg"><path d="m73.871 282.05 54.097 27.051 5.284-3.942-2.224-301.561-3.06-3.598-54.097 27.051z" fill="#9d5025"/><path d="m182.065 282.05-54.097 27.051v-309.101l54.097 27.051z" fill="#f68536"/><path d="m107.571 112.513-18.984 2.764-88.587-9.981.375-.983 14.375-4.313 1.529.866.346-.866 90.375 10.563z" fill="#6b3a19"/><path d="m0 63.988 16.279-8.144v45.022l-16.279 4.43z" fill="#9d5025"/><path d="m256 131.063-90.661 4.869-16.975-1.164 3.198-1.33 88.375-5.063z" fill="#6b3a19"/><path d="m107.571 112.513-91.292-11.647v-45.022l91.292 21.414z" fill="#f68536"/><path d="m239.656 82.225-91.292 15.691v36.852l91.292-5.478.531-1.04-.187-45.187z" fill="#9d5025"/><path d="m256 131.063-16.344-2.125v-46.713l16.344 5.985z" fill="#f68536"/></svg>