<svg height="309" preserveAspectRatio="xMidYMid" viewBox="0 0 256 309" width="256" xmlns="http://www.w3.org/2000/svg"><path d="m0 172.0865 127.754 58.81 127.752-58.81-127.752-5.293z" fill="#fcbf92"/><path d="m128.1465.0002-128.088 63.881v90.136h153.589v-141.266z" fill="#9d5025"/><path d="m.0585 217.559 128.163 90.675 127.778-90.675-128.055-18.633z" fill="#fcbf92"/><path d="m128.1464 154.017h67.577v-96.181l-19.733-7.893-47.844 13.955z" fill="#9d5025"/><path d="m175.9901 154.017h52.233v-62.385l-14.941-4.481-37.292 6.33z" fill="#9d5025"/><path d="m213.282 82.2602v71.757h42.224l.494-72.076-12.826-5.124z" fill="#9d5025"/><g fill="#f68534"><path d="m128.1465.0002v154.017h25.501v-141.266z"/><path d="m195.7235 57.8363-19.733-7.894v104.075h19.733z"/><path d="m228.2235 91.6322-14.941-4.481v66.866h14.941z"/><path d="m243.1737 154.0172h12.826v-72.076l-12.826-5.124z"/><path d="m127.7541 184.8629v46.033l127.752-31.844v-26.965z"/><path d="m127.7541 262.7813v45.453l128.245-64.12v-26.555z"/></g><path d="m.0585 244.3907 127.696 63.843v-45.786l-127.696-44.889z" fill="#9d5025"/><path d="m0 199.0514 127.754 31.845v-46.034l-127.754-12.776z" fill="#9d5025"/></svg>