<svg height="309" preserveAspectRatio="xMidYMid" viewBox="0 0 256 309" width="256" xmlns="http://www.w3.org/2000/svg"><path d="m255.991 100.211-4.112-.069-123.792-36.65-.074-1.696v-61.796l127.987 64.006z" fill="#d9a741"/><path d="m128 65.5.013-65.5-127.996 63.981-.017 181.015.064.032v.002l127.923 63.973.425-.591-.165-60.871-.251-.339-7.996-5.702-99-29.5.5-114.5z" fill="#876929"/><path d="m147.141 195.298-130.79 18.399.009-118.417 130.79 18.424z" fill="#d9a741"/><path d="m80.864 187.813 47.132 6 .008-78.658-47.131 5.995z" fill="#876929"/><path d="m33.385 181.771 30.587 3.888.009-62.363-30.596 3.897z" fill="#876929"/><path d="m16.36 95.28 111.653-33.484 127.978 38.415-108.76 13.502z" fill="#624a1e"/><path d="m255.927 177.376-127.931 16.145.008-78.366 127.923 16.296z" fill="#d9a741"/><path d="m255.918 208.834-2.753.119-124.776 37.77-.393.479-.009 61.801 127.931-63.951z" fill="#d9a741"/><path d="m16.351 213.697 111.645 33.505 127.922-38.368-108.777-13.536z" fill="#fad791"/></svg>