<svg height="100" preserveAspectRatio="xMidYMid" viewBox="0 0 256 100" width="256" xmlns="http://www.w3.org/2000/svg"><g fill-rule="evenodd"><g fill="#f90"><path d="m33.326132 94.9993909-14.986396-5.3766498v-21.9659695l14.986396 5.1063553z"/><path d="m36.0745584 94.9993909 14.9863959-5.3766498v-21.9659695l-14.9863959 5.1063553z"/><path d="m19.8796345 66.0142132 15.1676751-4.2694822 14.0637564 4.5345786-14.0637564 4.7743351z"/><path d="m15.4841015 64.3125279-14.98639592-5.376v-21.9666193l14.98639592 5.1057056z"/><path d="m18.2325279 64.3125279 14.9870457-5.376v-21.9666193l-14.9870457 5.1057056z"/><path d="m2.03760406 35.3260508 15.16832484-4.2688325 14.0637564 4.5345787-14.0637564 4.7749847z"/><path d="m50.4534416 64.3125279-14.9870457-5.376v-21.9666193l14.9870457 5.1057056z"/><path d="m53.201868 64.3125279 14.9870457-5.376v-21.9666193l-14.9870457 5.1057056z"/><path d="m37.0075939 35.3260508 15.1670254-4.2688325 14.0637563 4.5345787-14.0637563 4.7749847z"/><path d="m68.2954721 33.6243655-14.9870457-5.3747005v-21.96661931l14.9870457 5.10505581z"/><path d="m71.0438985 33.6243655 14.9870457-5.3747005v-21.96661931l-14.9870457 5.10505581z"/><path d="m54.8489746 4.63918782 15.1676751-4.26948224 14.0637564 4.53457868-14.0637564 4.77498478z"/><path d="m103.264812 33.6243655-14.9870455-5.3747005v-21.96661931l14.9870455 5.10505581z"/><path d="m106.013239 33.6243655 14.987045-5.3747005v-21.96661931l-14.987045 5.10505581z"/><path d="m89.8183147 4.63918782 15.1676753-4.26948224 14.063106 4.53457868-14.063106 4.77498478z"/></g><path d="m95.6413401 80.6900305-5.0342335 17.4885685h-2.1883452l-3.919269-12.9897259-3.5937462 12.9897259h-2.2305787l-5.2324061-17.4885685h2.7055432l3.8107614 13.0326091 3.6281827-13.0326091h1.9960203l3.9433097 13.0748426 3.9173198-13.0748426z"/><path d="m95.6413401 80.6900305-5.0342335 17.4885685h-2.1883452l-3.919269-12.9897259-3.5937462 12.9897259h-2.2305787l-5.2324061-17.4885685h2.7055432l3.8107614 13.0326091 3.6281827-13.0326091h1.9960203l3.9433097 13.0748426 3.9173198-13.0748426z" stroke="#000"/><path d="m109.566701 92.9617868 2.534659.519797c-.461319 1.4957157-1.359918 2.7341319-2.695797 3.7132994-1.337827.9804671-2.910213 1.4703757-4.719756 1.4703757-2.385218 0-4.314964-.8401218-5.790538-2.5223147-1.4749238-1.6808934-2.2123858-3.8854823-2.2123858-6.612467 0-2.785462.7667006-5.035533 2.2988021-6.7515127 1.5327517-1.7159797 3.4572997-2.5742944 5.7742947-2.5742944 2.282558 0 4.117441.7900913 5.505949 2.3702741 1.388508 1.5808324 2.100629 3.9439594 2.135066 7.0919797h-12.6934417c0 2.6451167.5522847 4.4280203 1.6581527 5.3526091 1.105218.9239391 2.274761 1.3852589 3.50603 1.3852589 2.223432 0 3.78932-1.1481015 4.698965-3.4430051zm-.147493-5.3220711c-.023391-.980467-.183878-1.8517766-.484061-2.6132792-.299533-.7615025-.806335-1.4105989-1.520406-1.9472893-.714071-.5360406-1.572386-.8043858-2.574294-.8043858-1.347574 0-2.491127.4847107-3.429361 1.454132-.938883.9694213-1.4651774 2.2721624-1.5808322 3.9108223z"/><path d="m109.566701 92.9617868 2.534659.519797c-.461319 1.4957157-1.359918 2.7341319-2.695797 3.7132994-1.337827.9804671-2.910213 1.4703757-4.719756 1.4703757-2.385218 0-4.314964-.8401218-5.790538-2.5223147-1.4749238-1.6808934-2.2123858-3.8854823-2.2123858-6.612467 0-2.785462.7667006-5.035533 2.2988021-6.7515127 1.5327517-1.7159797 3.4572997-2.5742944 5.7742947-2.5742944 2.282558 0 4.117441.7900913 5.505949 2.3702741 1.388508 1.5808324 2.100629 3.9439594 2.135066 7.0919797h-12.6934417c0 2.6451167.5522847 4.4280203 1.6581527 5.3526091 1.105218.9239391 2.274761 1.3852589 3.50603 1.3852589 2.223432 0 3.78932-1.1481015 4.698965-3.4430051zm-.147493-5.3220711c-.023391-.980467-.183878-1.8517766-.484061-2.6132792-.299533-.7615025-.806335-1.4105989-1.520406-1.9472893-.714071-.5360406-1.572386-.8043858-2.574294-.8043858-1.347574 0-2.491127.4847107-3.429361 1.454132-.938883.9694213-1.4651774 2.2721624-1.5808322 3.9108223z" stroke="#000"/><path d="m117.286335 98.178599h-1.309888v-23.6130762h2.725035v9.0399188c1.243614-2.2669644 2.958295-3.4007715 5.14534-3.4007715 2.002518 0 3.680813.7913908 5.033584 2.375472 1.352772 1.5827818 2.029157 3.8822335 2.029157 6.8977056 0 2.6002843-.66534 4.7808325-1.99602 6.5429442-1.33133 1.7627614-3.062903 2.644467-5.194721 2.644467-2.373523 0-4.193462-1.1273097-5.461116-3.3799797zm1.415147-6.8561218c.126701 1.7958984.677036 3.0979898 1.651655 3.9088731.97397.8108832 2.003817 1.2163248 3.086944 1.2163248 1.38396 0 2.499574-.6010152 3.346843-1.8023959.847919-1.2013807 1.270903-2.8471878 1.270903-4.9380711 0-2.2513705-.40869-4.0219289-1.22737-5.3103756-.81933-1.287797-1.955086-1.9323452-3.407269-1.9323452-1.141604 0-2.170802.4587208-3.087594 1.374863-.916792.9174416-1.461279 2.1025786-1.634112 3.5554111z"/><path d="m117.286335 98.178599h-1.309888v-23.6130762h2.725035v9.0399188c1.243614-2.2669644 2.958295-3.4007715 5.14534-3.4007715 2.002518 0 3.680813.7913908 5.033584 2.375472 1.352772 1.5827818 2.029157 3.8822335 2.029157 6.8977056 0 2.6002843-.66534 4.7808325-1.99602 6.5429442-1.33133 1.7627614-3.062903 2.644467-5.194721 2.644467-2.373523 0-4.193462-1.1273097-5.461116-3.3799797zm1.415147-6.8561218c.126701 1.7958984.677036 3.0979898 1.651655 3.9088731.97397.8108832 2.003817 1.2163248 3.086944 1.2163248 1.38396 0 2.499574-.6010152 3.346843-1.8023959.847919-1.2013807 1.270903-2.8471878 1.270903-4.9380711 0-2.2513705-.40869-4.0219289-1.22737-5.3103756-.81933-1.287797-1.955086-1.9323452-3.407269-1.9323452-1.141604 0-2.170802.4587208-3.087594 1.374863-.916792.9174416-1.461279 2.1025786-1.634112 3.5554111z" stroke="#000"/><path d="m137.852751 93.6466193 2.597686-.5366904c.577624 2.1967919 2.402111 3.294863 5.473461 3.294863 1.130559 0 2.089584-.2527513 2.874478-.7595533.785543-.5061523 1.177989-1.2202234 1.177989-2.1415635 0-1.3690152-.999309-2.2383756-2.997928-2.6067817l-3.683412-.7010761c-1.443086-.2767919-2.590538-.81933-3.444304-1.6276143-.853117-.8082842-1.28-1.8758172-1.28-3.2038984 0-1.4651777.582172-2.6918985 1.747167-3.678863 1.164346-.9869644 2.732833-1.4807715 4.704813-1.4807715 3.793868 0 6.136203 1.4833705 7.023756 4.4481624l-2.492427.5360406c-.71537-1.8160406-2.183796-2.7243858-4.407878-2.7243858-1.107167 0-2.014863.2274112-2.724386.680934-.708223.4535229-1.062984 1.0876751-1.062984 1.9037564 0 1.2851979.906396 2.0941319 2.717238 2.4281015l3.40467.6263553c3.565158.6464975 5.346762 2.3761218 5.346762 5.1849746 0 1.6068224-.663391 2.9050153-1.990823 3.8926295-1.326781.9895634-3.092791 1.4840203-5.29803 1.4840203-4.142782 0-6.705381-1.6737462-7.685848-5.0186396z"/><path d="m137.852751 93.6466193 2.597686-.5366904c.577624 2.1967919 2.402111 3.294863 5.473461 3.294863 1.130559 0 2.089584-.2527513 2.874478-.7595533.785543-.5061523 1.177989-1.2202234 1.177989-2.1415635 0-1.3690152-.999309-2.2383756-2.997928-2.6067817l-3.683412-.7010761c-1.443086-.2767919-2.590538-.81933-3.444304-1.6276143-.853117-.8082842-1.28-1.8758172-1.28-3.2038984 0-1.4651777.582172-2.6918985 1.747167-3.678863 1.164346-.9869644 2.732833-1.4807715 4.704813-1.4807715 3.793868 0 6.136203 1.4833705 7.023756 4.4481624l-2.492427.5360406c-.71537-1.8160406-2.183796-2.7243858-4.407878-2.7243858-1.107167 0-2.014863.2274112-2.724386.680934-.708223.4535229-1.062984 1.0876751-1.062984 1.9037564 0 1.2851979.906396 2.0941319 2.717238 2.4281015l3.40467.6263553c3.565158.6464975 5.346762 2.3761218 5.346762 5.1849746 0 1.6068224-.663391 2.9050153-1.990823 3.8926295-1.326781.9895634-3.092791 1.4840203-5.29803 1.4840203-4.142782 0-6.705381-1.6737462-7.685848-5.0186396z" stroke="#000"/><path d="m167.317442 92.9617868 2.53401.519797c-.460021 1.4957157-1.359269 2.7341319-2.696447 3.7132994-1.335878.9804671-2.909563 1.4703757-4.718457 1.4703757-2.385868 0-4.316264-.8401218-5.790538-2.5223147-1.475573-1.6808934-2.212386-3.8854823-2.212386-6.612467 0-2.785462.765401-5.035533 2.300102-6.7515127 1.532101-1.7159797 3.45665-2.5742944 5.773645-2.5742944 2.280609 0 4.116791.7900913 5.505299 2.3702741 1.389157 1.5808324 2.100629 3.9439594 2.134416 7.0919797h-12.693441c0 2.6451167.553583 4.4280203 1.658152 5.3526091 1.106518.9239391 2.274761 1.3852589 3.50733 1.3852589 2.222132 0 3.78867-1.1481015 4.698315-3.4430051zm-.148143-5.3220711c-.022741-.980467-.184527-1.8517766-.483411-2.6132792-.300182-.7615025-.806335-1.4105989-1.520406-1.9472893-.713421-.5360406-1.573035-.8043858-2.574294-.8043858-1.347574 0-2.491127.4847107-3.43001 1.454132-.938234.9694213-1.465828 2.2721624-1.580833 3.9108223z"/><path d="m167.317442 92.9617868 2.53401.519797c-.460021 1.4957157-1.359269 2.7341319-2.696447 3.7132994-1.335878.9804671-2.909563 1.4703757-4.718457 1.4703757-2.385868 0-4.316264-.8401218-5.790538-2.5223147-1.475573-1.6808934-2.212386-3.8854823-2.212386-6.612467 0-2.785462.765401-5.035533 2.300102-6.7515127 1.532101-1.7159797 3.45665-2.5742944 5.773645-2.5742944 2.280609 0 4.116791.7900913 5.505299 2.3702741 1.389157 1.5808324 2.100629 3.9439594 2.134416 7.0919797h-12.693441c0 2.6451167.553583 4.4280203 1.658152 5.3526091 1.106518.9239391 2.274761 1.3852589 3.50733 1.3852589 2.222132 0 3.78867-1.1481015 4.698315-3.4430051zm-.148143-5.3220711c-.022741-.980467-.184527-1.8517766-.483411-2.6132792-.300182-.7615025-.806335-1.4105989-1.520406-1.9472893-.713421-.5360406-1.573035-.8043858-2.574294-.8043858-1.347574 0-2.491127.4847107-3.43001 1.454132-.938234.9694213-1.465828 2.2721624-1.580833 3.9108223z" stroke="#000"/><path d="m175.801827 98.178599h-2.724385v-17.4885685h2.387167v4.0771573c.841421-1.9102538 1.686741-3.1473705 2.533361-3.7126497.847269-.5665787 1.715329-.849868 2.603533-.849868.276791 0 .634802.0214416 1.072081.0636751v2.5976853h-.551635c-1.497665 0-2.741279.5568324-3.730842 1.6685482-.990214 1.1123655-1.519757 2.5736447-1.58928 4.3857868z"/><path d="m175.801827 98.178599h-2.724385v-17.4885685h2.387167v4.0771573c.841421-1.9102538 1.686741-3.1473705 2.533361-3.7126497.847269-.5665787 1.715329-.849868 2.603533-.849868.276791 0 .634802.0214416 1.072081.0636751v2.5976853h-.551635c-1.497665 0-2.741279.5568324-3.730842 1.6685482-.990214 1.1123655-1.519757 2.5736447-1.58928 4.3857868z" stroke="#000"/><path d="m198.596223 80.6900305-6.038091 17.4885685h-2.823147l-6.240163-17.4885685h3.014173l4.854254 14.2151472 4.816568-14.2151472z"/><path d="m198.596223 80.6900305-6.038091 17.4885685h-2.823147l-6.240163-17.4885685h3.014173l4.854254 14.2151472 4.816568-14.2151472z" stroke="#000"/><path d="m200.774173 74.5655228h2.914761v3.0206701h-2.914761zm.1267 6.1245077h2.724386v17.4885685h-2.724386z"/><path d="m200.774173 74.5655228h2.914761v3.0206701h-2.914761zm.1267 6.1245077h2.724386v17.4885685h-2.724386z" stroke="#000"/><path d="m217.859249 92.0540914 2.449543.4320812c-.345665 1.9323452-1.113015 3.445604-2.300751 4.5384771-1.187736 1.0935229-2.669807 1.6406092-4.446214 1.6406092-2.409908 0-4.24739-.890802-5.509847-2.6698071s-1.89466-3.9517564-1.89466-6.5176041c0-2.6574619.666639-4.8672487 1.998619-6.6293604 1.33133-1.7627614 3.145421-2.6438172 5.440325-2.6438172 1.903756 0 3.428711.5691776 4.576162 1.7088324 1.148102 1.1383554 1.859574 2.6100305 2.136366 4.4137259l-2.449543.4671675c-.46132-2.8855228-1.855675-4.3299086-4.183716-4.3299086-1.497665 0-2.650315.6367513-3.456 1.9109036-.806985 1.274802-1.210477 2.9264568-1.210477 4.9556142 0 2.2377259.400243 3.9744974 1.201381 5.2148629.801137 1.239066 1.927147 1.8589239 3.379979 1.8589239 2.245523 0 3.669117-1.4502335 4.268833-4.3507005z"/><path d="m217.859249 92.0540914 2.449543.4320812c-.345665 1.9323452-1.113015 3.445604-2.300751 4.5384771-1.187736 1.0935229-2.669807 1.6406092-4.446214 1.6406092-2.409908 0-4.24739-.890802-5.509847-2.6698071s-1.89466-3.9517564-1.89466-6.5176041c0-2.6574619.666639-4.8672487 1.998619-6.6293604 1.33133-1.7627614 3.145421-2.6438172 5.440325-2.6438172 1.903756 0 3.428711.5691776 4.576162 1.7088324 1.148102 1.1383554 1.859574 2.6100305 2.136366 4.4137259l-2.449543.4671675c-.46132-2.8855228-1.855675-4.3299086-4.183716-4.3299086-1.497665 0-2.650315.6367513-3.456 1.9109036-.806985 1.274802-1.210477 2.9264568-1.210477 4.9556142 0 2.2377259.400243 3.9744974 1.201381 5.2148629.801137 1.239066 1.927147 1.8589239 3.379979 1.8589239 2.245523 0 3.669117-1.4502335 4.268833-4.3507005z" stroke="#000"/><path d="m235.67399 92.9617868 2.53401.519797c-.46067 1.4957157-1.359269 2.7341319-2.696447 3.7132994-1.335878.9804671-2.909563 1.4703757-4.718457 1.4703757-2.385868 0-4.316264-.8401218-5.791187-2.5223147-1.474924-1.6808934-2.212386-3.8854823-2.212386-6.612467 0-2.785462.766051-5.035533 2.300101-6.7515127 1.532102-1.7159797 3.4573-2.5742944 5.774295-2.5742944 2.280609 0 4.116792.7900913 5.505299 2.3702741 1.389158 1.5808324 2.10063 3.9439594 2.134417 7.0919797h-12.693442c0 2.6451167.552934 4.4280203 1.658152 5.3526091 1.106518.9239391 2.274112 1.3852589 3.50733 1.3852589 2.221482 0 3.78802-1.1481015 4.698315-3.4430051zm-.148142-5.3220711c-.022741-.980467-.184528-1.8517766-.484061-2.6132792-.299533-.7615025-.805685-1.4105989-1.519757-1.9472893-.714071-.5360406-1.573035-.8043858-2.574944-.8043858-1.348223 0-2.491127.4847107-3.42936 1.454132-.938883.9694213-1.466477 2.2721624-1.580833 3.9108223z"/><path d="m235.67399 92.9617868 2.53401.519797c-.46067 1.4957157-1.359269 2.7341319-2.696447 3.7132994-1.335878.9804671-2.909563 1.4703757-4.718457 1.4703757-2.385868 0-4.316264-.8401218-5.791187-2.5223147-1.474924-1.6808934-2.212386-3.8854823-2.212386-6.612467 0-2.785462.766051-5.035533 2.300101-6.7515127 1.532102-1.7159797 3.4573-2.5742944 5.774295-2.5742944 2.280609 0 4.116792.7900913 5.505299 2.3702741 1.389158 1.5808324 2.10063 3.9439594 2.134417 7.0919797h-12.693442c0 2.6451167.552934 4.4280203 1.658152 5.3526091 1.106518.9239391 2.274112 1.3852589 3.50733 1.3852589 2.221482 0 3.78802-1.1481015 4.698315-3.4430051zm-.148142-5.3220711c-.022741-.980467-.184528-1.8517766-.484061-2.6132792-.299533-.7615025-.805685-1.4105989-1.519757-1.9472893-.714071-.5360406-1.573035-.8043858-2.574944-.8043858-1.348223 0-2.491127.4847107-3.42936 1.454132-.938883.9694213-1.466477 2.2721624-1.580833 3.9108223z" stroke="#000"/><path d="m240.042234 93.6466193 2.598984-.5366904c.576975 2.1967919 2.401462 3.294863 5.472163 3.294863 1.131858 0 2.089583-.2527513 2.874477-.7595533.785543-.5061523 1.178639-1.2202234 1.178639-2.1415635 0-1.3690152-.999309-2.2383756-2.998578-2.6067817l-3.683411-.7010761c-1.442437-.2767919-2.589889-.81933-3.443655-1.6276143-.853117-.8082842-1.28-1.8758172-1.28-3.2038984 0-1.4651777.581523-2.6918985 1.747167-3.678863 1.163696-.9869644 2.732183-1.4807715 4.705462-1.4807715 3.793219 0 6.134904 1.4833705 7.022457 4.4481624l-2.492426.5360406c-.714071-1.8160406-2.183797-2.7243858-4.407878-2.7243858-1.106518 0-2.014214.2274112-2.723087.680934-.708873.4535229-1.063634 1.0876751-1.063634 1.9037564 0 1.2851979.905746 2.0941319 2.717888 2.4281015l3.40467.6263553c3.563858.6464975 5.346112 2.3761218 5.346112 5.1849746 0 1.6068224-.662741 2.9050153-1.990823 3.8926295-1.326781.9895634-3.093441 1.4840203-5.29738 1.4840203-4.143432 0-6.706031-1.6737462-7.687147-5.0186396z"/><path d="m240.042234 93.6466193 2.598984-.5366904c.576975 2.1967919 2.401462 3.294863 5.472163 3.294863 1.131858 0 2.089583-.2527513 2.874477-.7595533.785543-.5061523 1.178639-1.2202234 1.178639-2.1415635 0-1.3690152-.999309-2.2383756-2.998578-2.6067817l-3.683411-.7010761c-1.442437-.2767919-2.589889-.81933-3.443655-1.6276143-.853117-.8082842-1.28-1.8758172-1.28-3.2038984 0-1.4651777.581523-2.6918985 1.747167-3.678863 1.163696-.9869644 2.732183-1.4807715 4.705462-1.4807715 3.793219 0 6.134904 1.4833705 7.022457 4.4481624l-2.492426.5360406c-.714071-1.8160406-2.183797-2.7243858-4.407878-2.7243858-1.106518 0-2.014214.2274112-2.723087.680934-.708873.4535229-1.063634 1.0876751-1.063634 1.9037564 0 1.2851979.905746 2.0941319 2.717888 2.4281015l3.40467.6263553c3.563858.6464975 5.346112 2.3761218 5.346112 5.1849746 0 1.6068224-.662741 2.9050153-1.990823 3.8926295-1.326781.9895634-3.093441 1.4840203-5.29738 1.4840203-4.143432 0-6.706031-1.6737462-7.687147-5.0186396z" stroke="#000"/><path d="m178.630822 43.312731v-4.2006092c.002599-.6393502.484061-1.0655837 1.064285-1.0642842l18.828345-.0019493c.602314 0 1.085076.437929 1.086375 1.0610356l-.001299 3.6028426c-.004548.604264-.5133 1.3930558-1.417746 2.644467l-9.752041 13.9247107c3.620386-.0851168 7.44934.4567715 10.739005 2.3059492.74201.4164873.940183 1.0343959.99866 1.6399594v4.4819492c0 .6179087-.675736 1.3326295-1.385909.9609746-5.795736-3.0356142-13.486132-3.3682842-19.893928.0363858-.654945.3489137-1.339777-.3554111-1.339777-.9733198v-4.2610355c0-.6815837.012345-1.8478782.700426-2.8874721l11.299087-16.209868-9.837808-.0019492c-.601665 0-1.083776-.4288325-1.087675-1.0577868"/><path d="m111.249543 69.5507817h-5.728162c-.545137-.035736-.980467-.4457259-1.02465-.9681218l.003898-29.399066c0-.5880203.495107-1.0584365 1.105219-1.0584365l5.334416-.0012995c.558782.0285888 1.006457.4509238 1.042193.9869644v3.8387005h.107208c1.389807-3.712 4.010233-5.4442233 7.538355-5.4442233 3.582701 0 5.828224 1.7322233 7.433097 5.4442233 1.389157-3.712 4.544325-5.4442233 7.912609-5.4442233 2.40666 0 5.026436.9895634 6.63066 3.2168934 1.81734 2.4742335 1.443736 6.0627817 1.443736 9.2179492l-.004548 18.5522031c0 .5873705-.494457 1.0584365-1.104569 1.0584365h-5.721015c-.575026-.0370355-1.028548-.4925076-1.028548-1.0558375l-.0013-15.585462c0-1.2371167.107208-4.3305583-.161137-5.5059492-.427533-1.9797767-1.710132-2.5366091-3.367634-2.5366091-1.390457 0-2.834193.9278375-3.422863 2.4131573-.588021 1.4846701-.534092 3.9589036-.534092 5.629401v15.582863c0 .5873705-.495106 1.0584365-1.104568 1.0584365h-5.721665c-.575026-.0370355-1.028548-.4925076-1.028548-1.0558375l-.005848-15.585462c0-3.2786193.535391-8.1042842-3.528122-8.1042842-4.117442 0-3.956954 4.7015634-3.956954 8.1042842l-.002599 15.582863c.000649.5873705-.494457 1.0584365-1.104569 1.0584365"/><path d="m213.440975 37.5052995c8.433705 0 12.995573 7.2998985 12.995573 16.5795736 0 8.9697462-5.038132 16.0851167-12.995573 16.0851167-8.274518 0-12.783757-7.3005482-12.783757-16.3943959 0-9.1562233 4.562518-16.2702944 12.783757-16.2702944zm.053279 6.7573604c-4.191513 0-4.45596 5.7535025-4.45596 9.341401s-.053279 10.5031472 4.402681 10.5031472c4.40333 0 4.615147-5.4299289 4.615147-9.2036548 0-2.4748832-.105259-5.4442234-.848569-7.7950051-.637401-2.0415025-1.910254-2.8458883-3.713299-2.8458883z"/><path d="m238.64333 69.5507817h-5.706721c-.573726-.0370355-1.027898-.4925076-1.027898-1.0558375l-.009097-29.4101117c.048081-.5373401.523046-.9596751 1.10067-.9596751l5.312975-.0012995c.500304.0253401.912893.3671066 1.018152.8232284v4.4968934h.107858c1.604223-4.0212792 3.848447-5.9386802 7.805401-5.9386802 2.566498 0 5.080366.9278376 6.683939 3.4644467 1.497665 2.3507817 1.497665 6.310335 1.497665 9.1562233v18.4982742c-.064325.5217461-.531492.926538-1.097421.926538h-5.742457c-.530843-.0344365-.958376-.4236345-1.020102-.926538v-15.9623148c0-3.2168934.374254-7.9184568-3.5827-7.9184568-1.391107 0-2.673706.9278375-3.315005 2.3507817-.801787 1.7939492-.909645 3.5878985-.909645 5.5676751v15.8304163c-.010396.5873705-.504853 1.0584365-1.115614 1.0584365"/><path d="m164.270782 55.511066c0 2.2325279.053279 4.0921015-1.071432 6.0764264-.910944 1.6120203-2.357929 2.603533-3.966051 2.603533-2.196142 0-3.482639-1.674396-3.482639-4.1538274 0-4.8782944 4.376041-5.7658477 8.520122-5.7658477zm5.774944 13.9662944c-.379452.3398173-.925888.3625584-1.353421.133198-1.902457-1.5814823-2.242924-2.3124467-3.283168-3.8172589-3.144772 3.2032487-5.371452 4.1635736-9.444061 4.1635736-4.822416 0-8.573401-2.9758376-8.573401-8.9275127 0-4.6502335 2.518416-7.8118985 6.108264-9.3621929 3.107736-1.364467 7.44869-1.6120203 10.770843-1.9843249v-.7439594c0-1.3638172.107208-2.9758375-.696528-4.1538274-.696528-1.0538883-2.036305-1.4879187-3.214944-1.4879187-2.185097 0-4.127188 1.1195126-4.604102 3.4397563-.098761.5158985-.476264 1.026599-.994761 1.0525888l-5.552082-.6003654c-.469116-.1059087-.990213-.4821117-.855066-1.1974823 1.276102-6.7359188 7.358376-8.7709238 12.809747-8.7709238 2.786111 0 6.430538.7439594 8.62668 2.8523857 2.786761 2.6041828 2.518416 6.0757767 2.518416 9.8579493v8.9242639c0 2.6841016 1.115614 3.8620914 2.163005 5.3084264.365158.5210965.447675 1.1409544-.019492 1.5217056-1.170193.980467-3.248731 2.7867614-4.392934 3.804264z"/><path d="m89.8300102 55.511066c0 2.2325279.0539289 4.0921015-1.0714315 6.0764264-.9109442 1.6120203-2.3572792 2.603533-3.965401 2.603533-2.1967919 0-3.4826396-1.674396-3.4826396-4.1538274 0-4.8782944 4.3760406-5.7658477 8.5194721-5.7658477zm5.7755939 13.9662944c-.3794518.3398173-.9265381.3625584-1.3534214.133198-1.9031066-1.5814823-2.2442233-2.3124467-3.2838172-3.8172589-3.1441218 3.2032487-5.3714518 4.1635736-9.4434112 4.1635736-4.823066 0-8.5740507-2.9758376-8.5740507-8.9275127 0-4.6502335 2.5184162-7.8118985 6.1089137-9.3621929 3.107736-1.364467 7.4486903-1.6120203 10.7701929-1.9843249v-.7439594c0-1.3638172.1072081-2.9758375-.6958782-4.1538274-.6971777-1.0538883-2.0369543-1.4879187-3.2155939-1.4879187-2.1844467 0-4.1271878 1.1195126-4.6041016 3.4397563-.0994111.5158985-.4756142 1.026599-.9954111 1.0525888l-5.5514315-.6003654c-.468467-.1059087-.9902132-.4821117-.8544162-1.1974823 1.2754517-6.7359188 7.3577259-8.7709238 12.8090964-8.7709238 2.7867614 0 6.4298883.7439594 8.62733 2.8523857 2.7861116 2.6041828 2.5184162 6.0757767 2.5184162 9.8579493v8.9242639c0 2.6841016 1.1149645 3.8620914 2.1617057 5.3084264.365807.5210965.448325 1.1409544-.018193 1.5217056-1.1701929.980467-3.2493807 2.7867614-4.392934 3.804264z"/></g></svg>