<svg height="122" preserveAspectRatio="xMidYMid" viewBox="0 0 509 122" width="509" xmlns="http://www.w3.org/2000/svg"><g fill="#136ac9"><path d="m196.709647 43.2903529c-4.318118 0-7.838118.666353-10.450823 1.9764706-1.426824.7190589-2.703059 1.6752941-3.824942 2.8837647v-24.9524706h-10.096941v73.6h9.814588v-4.3482352c1.03153 1.1595294 2.243765 2.1044705 3.629177 2.8348235 2.725647 1.4494117 6.407529 2.1835294 10.925176 2.1835294 7.491765 0 12.905412-1.6301177 16.094118-4.8338824s4.803765-8.677647 4.803765-16.2748235v-11.9077647c0-7.6385882-1.615059-13.1350588-4.803765-16.3350588-3.184941-3.2037647-8.598588-4.826353-16.090353-4.826353m10.465882 22.8291765v8.5684706c0 7.3938824-1.118117 10.1571765-2.048 11.1736471-1.310117 1.4268235-4.321882 2.1835294-8.700235 2.1835294-4.976941 0-8.594823-1.0616471-10.752-3.162353-2.149647-2.085647-3.241412-5.5792941-3.241412-10.3830588v-8.1995294c0-4.8301177 1.091765-8.3388235 3.241412-10.432 2.157177-2.1007059 5.775059-3.1623529 10.752-3.1623529 4.382118 0 7.390118.7567058 8.700235 2.1835294.929883 1.0202353 2.048 3.7948235 2.048 11.2301176"/><path d="m266.669176 46.3661176c-1.520941-1.125647-3.727058-1.9124705-6.738823-2.3905882-2.812235-.4555294-6.964706-.6889412-12.318118-.6889412-7.137882 0-12.080941.9712942-15.115294 2.9665883-3.169882 2.0818823-4.781176 5.5454117-4.781176 10.2889411v2.4997648h10.070588l.033882-1.3251765c.048941-2.1985883.624941-3.6178824 1.754353-4.3331765.888471-.5684706 3.087059-1.2423529 8.512-1.2423529 7.939765 0 10.383059.9637647 11.136 1.5322353.854588.64 1.852236 2.3529411 1.852236 6.8705882v5.4061176c-1.042824-.7491764-2.266353-1.3327058-3.651765-1.7694117-2.556235-.794353-6.095059-1.178353-10.816-1.178353-4.517647 0-7.890824.218353-10.326588.666353-2.56.4705882-4.555295 1.3025882-5.944471 2.4621176-1.622588 1.3665883-2.800941 3.2075294-3.493647 5.4437647-.666353 2.1458824-.990118 4.9882353-.990118 8.6814118 0 6.4903529 1.509647 11.0418824 4.48753 13.5378824 2.947764 2.469647 8.391529 3.6818823 16.643764 3.6818823 4.555295 0 8.207059-.5007059 10.838589-1.4908235 1.475764-.5496471 2.752-1.2988236 3.821176-2.2287059l.161882 3.0569412h9.411765v-36.442353c0-4.2917647-.323765-7.2809411-.990117-9.125647-.673883-1.9350589-1.867295-3.5614118-3.557648-4.8790589m-5.586823 31.0324706v5.2856471c0 .9788235-.301177 2.4131765-2.925177 3.5990588-2.281411 1.0352941-5.707294 1.5698824-10.157176 1.5698824-6.083765 0-8.572235-.9261177-9.588706-1.6978824-1.374118-1.0390588-2.070588-3.3355294-2.070588-6.8028235 0-2.9929412.647529-4.992 1.916235-5.9369412.952471-.7115294 3.279059-1.5623529 8.926118-1.5623529 5.089882 0 8.805647.5195294 11.041882 1.5397647 1.950118.8922353 2.857412 2.1684706 2.857412 4.005647"/><path d="m321.163294 66.8423529c-1.170823-.549647-2.977882-.9487058-5.530353-1.2385882-2.413176-.2710588-5.756235-.4931765-9.961412-.6512941-.704-.0338824-1.712941-.0677647-3.030588-.0941177-6.064941-.1505882-8.410353-.7491764-9.276235-1.2009411-.451765-.2522353-.737882-.5985883-.922353-1.088-.124235-.3651765-.346353-1.3214118-.346353-3.6856471 0-1.8823529.293647-4.3181176 1.682824-5.2517647.726588-.4856471 2.974117-1.2988235 9.829647-1.2988235 6.851764 0 9.72047.6211764 10.906353 1.152 1.434352.6287059 2.078117 1.6564706 2.078117 3.3505882v1.8334118h10.145883v-1.3552941c0-5.1425883-1.536-8.8282353-4.555295-10.9628236-2.906353-2.0592941-8.135529-3.0569412-15.962353-3.0569412-10.002823 0-16.372705 1.0428236-19.459764 3.1962353-3.2 2.2287059-4.815059 6.3962353-4.815059 12.3934118 0 3.6254118.429176 6.3623529 1.332706 8.3614118.929882 2.0818823 2.499765 3.7308235 4.630588 4.9091764 1.020235.5872942 3.384471 1.3025883 12.641882 1.562353 3.068236.0903529 5.504.192 7.311059.2823529 5.970824.3087059 7.785412 1.1821177 8.338824 1.6752941.63247.5647059 1.381647 1.984 1.381647 5.5378824 0 2.9101176-.579765 4.8414118-1.728 5.7449412-.700235.549647-3.060706 1.472-11.068235 1.472-6.814118 0-9.630118-.8395294-10.782118-1.5397647-1.487059-.8997647-2.209882-2.6014118-2.209882-5.2028236v-2.4884706h-10.232471v2.688c0 5.8352942 1.648941 9.9614118 4.882823 12.2691765 3.136 2.2362353 9.174589 3.328 18.443295 3.328 4.382117 0 7.872-.1581176 10.36047-.4668235 2.688-.3275294 4.600471-.8847059 5.842824-1.690353 2.590117-1.5849411 4.434823-3.4785882 5.462588-5.605647 1.024-2.112 1.517176-5.0409412 1.517176-8.9712941 0-3.8588236-.50447-6.7651765-1.551058-8.8771765-1.057883-2.2061176-2.872471-3.8927059-5.357177-5.0296471"/><path d="m374.381176 79.3788235-.105411 1.2348236c-.244706 2.7821176-1.088 4.7247058-2.50353 5.7562353-1.027764.7604705-3.354353 1.664-8.538353 1.664h-3.478588c-5.737412 0-8.075294-1.2047059-9.020235-2.2136471-.963765-1.0277647-2.115765-3.5087059-2.115765-9.4795294 0-1.0992941.015059-1.9501177.030118-2.5675294 0-.128.007529-.2447059.007529-.3689412l36.144941-.0564706v-8.9148235c0-7.7101177-1.645176-13.2291765-4.890353-16.3952941-3.275294-3.2075295-8.734117-4.7698824-16.681411-4.7698824h-3.471059c-7.913412 0-13.345883 1.5623529-16.609883 4.7698824-3.271529 3.2188235-4.860235 8.5797647-4.860235 16.3915294v11.9002353c0 7.7778823 1.6 13.1275294 4.890353 16.3463529 3.279059 3.2112941 8.734118 4.7698824 16.677647 4.7698824h3.478588c7.009883 0 12.265412-1.3138824 15.604706-3.9002353 3.418353-2.6465883 5.364706-6.9345883 5.763765-12.7397647l.105412-1.4531765zm.030118-15.2395294h-25.694118v-.5910588c0-4.2428235.715295-7.2282353 2.093177-8.6249412.948706-.96 3.264-2.1157647 8.948706-2.1157647h3.478588c5.718588 0 8.079059 1.1595294 9.050353 2.1270588 1.381647 1.3929412 2.123294 4.3670589 2.123294 8.6098824z"/><path d="m438.226824 42.1534118h-16.801883l-14.034823 16.7115294v-37.4738824h-13.722353v77.2178824h13.722353v-20.8414118l16.816941 20.8414118h17.566117l-25.234823-30.9270588z"/><path d="m442.703059 21.391059h13.726118v14.708706h-13.726118z"/><path d="m442.703059 42.153412h13.726118v56.455529h-13.726118z"/><path d="m494.366118 74.6164706v4.6418823c0 4.5816471-.865883 5.76-1.042824 5.952-.154353.1694118-1.133176 1.024-4.939294 1.024-2.970353 0-4.544-.5609411-5.022118-1.088-.256-.2823529-1.103058-1.5435294-1.103058-5.888v-24.4517647h24.587294v-12.6569411h-24.587294v-11.2865883h-13.771295v11.2828236h-6.147764v12.6569411h6.155294v23.4014118c0 7.6122353 1.344 12.8790588 4.133647 16.0903529 2.857412 3.2978824 7.698823 4.9731765 14.381176 4.9731765 8.357647 0 13.869177-1.5209412 16.850824-4.6456471 2.944-3.0795294 4.382118-8.4517647 4.382118-16.421647v-3.584z"/><path d="m63.7025882 54.4489412c2.3717647-.410353 3.9868236-1.4908236 4.8489412-3.226353.8696471-1.7355294 1.3025882-4.005647 1.3025882-6.8178823 0-2.7331765-.4555294-4.7811765-1.3590588-6.1402353-.6851764-.8621177-1.6715294-1.4494118-2.9703529-1.7656471-1.2912941-.3124706-3.3656471-.4743529-6.2117647-.4743529h-19.418353v18.6164706h19.2338824c2.2061176-.0075294 3.7345882-.0677647 4.5741176-.192z"/><path d="m138.296471 0h-126.4037651c-6.56941178 0-11.8927059 5.31952941-11.8927059 11.8814118v97.4155292c0 6.554353 5.32329412 11.877647 11.8889412 11.877647h126.4075298c6.565647 0 11.888941-5.323294 11.888941-11.877647v-97.4155292c.003764-6.56188239-5.31953-11.8814118-11.888941-11.8814118zm-57.7882357 92.9694118c-3.1774118 2.7971764-8.7190588 4.1863529-16.6174118 4.1863529h-38.0574117v-73.1331765h36.6983529c8.4668235 0 14.1327059 1.5322353 16.9938824 4.5967059 2.9289411 2.6315294 4.3821176 7.4465883 4.3821176 14.4301177 0 5.5190588-1.0089412 9.5811764-3.0230588 12.1825882-1.6037647 1.9049412-4.0734118 3.2414118-7.4089412 3.9981176v.384c3.6668235.410353 6.4037647 1.5472942 8.1957647 3.392 1.7957647 1.8447059 2.906353 3.8851765 3.3505882 6.1138824.4329412 2.2362353.6550589 4.7849412.6550589 7.6536471 0 7.8945882-1.728 13.285647-5.1689412 16.1957647zm37.1501177 4.1863529-31.9397648-37.4249412 29.4136468-35.7007059h17.15953l-29.571765 35.7835295 32.602353 37.349647z"/><path d="m61.6508235 65.3741176h-21.7562353v19.7835295h20.9957647c2.56 0 4.5665883-.192 6.0272942-.5647059 3.0682353-1.114353 4.6004705-4.1072941 4.6004705-8.9788236 0-4.0282352-.6174117-6.7614117-1.8597647-8.192-1.4305882-1.3628235-4.096-2.048-8.0075294-2.048z"/></g></svg>