<svg height="213" preserveAspectRatio="xMidYMid" viewBox="0 0 256 213" width="256" xmlns="http://www.w3.org/2000/svg"><path d="m128.300525 0c-68.6408849 0-122.41721901 87.3292379-127.50520205 161.089363 21.53970705 37.383652 73.48228345 51.435515 127.50520205 51.435515 54.019446 0 105.965496-14.051863 127.494784-51.435515-5.087984-73.7601251-58.857372-161.089363-127.494784-161.089363" fill="#b6deff"/><path d="m237.860602 143.519325s-15.159758-32.774946-30.569574-51.897427c-15.420235-19.129427-34.250982-39.9606367-45.385503-39.9606367-11.127576 0-42.235469 55.0787187-56.506133 55.0787187-14.2741367 0-21.6925201-24.9675836-39.2417204-24.9675836-17.5561462 0-45.4480178 60.2083786-45.4480178 60.2083786l-1.8893261 10.207223s9.6897425 42.961331 111.0638973 42.961331c101.377628 0 109.480198-42.256307 109.480198-42.256307z" fill="#6c6"/><path d="m106.986565 130.24542c-15.7432268 0-23.8145391-15.534845-28.1905519-25.12387-3.9349384-8.6374156-4.6156515-22.2759886-15.78143-22.6580214 1.0974763-.4341283 2.1532761-.6911322 3.1430885-.6911322 17.5492003 0 24.9675837 24.9675836 39.2417204 24.9675836 14.270664 0 45.378557-55.0787187 56.506133-55.0787187 2.097707 0 4.459365.7397545 7.022458 2.0560313-1.896272-.2500578-4.32739-.0764065-6.199351 1.8025005-3.598055 3.5980549-36.251445 74.7256269-55.742067 74.7256269" fill="#17ad49"/></svg>