<svg height="174" preserveAspectRatio="xMidYMid" viewBox="0 0 256 174" width="256" xmlns="http://www.w3.org/2000/svg"><path d="m233.19048 173.952855h-91.977907c-9.995254 0-18.399434-6.460605-21.498752-15.402206-.208034-.570167-.381396-1.149965-.539347-1.735541.019262.069344.034672.130984.034672.130984-.001926 0-.013484-.048156-.048156-.175288-.028894-.109795-.038525-.150246-.038525-.150246.001926 0 .017336.063566.036599.130984-.882218-3.446041-1.011276-6.884378-.28701-10.376649.85525-4.513178 2.864317-9.163118 6.092694-13.695558l48.955361-68.857262-26.245005-36.7507117c-2.469438-3.46723-5.422362-5.378059-8.313647-5.378059-2.891284 0-5.844209 1.910829-8.313647 5.3799853l-104.406 146.8795674h-26.64181l.09823818-.171435 113.23973182-159.3115135c6.293022-8.83373152 15.259664-14.04420771 24.761801-14.4699065h2.521446c9.504063.42569879 18.468779 5.63424874 24.757949 14.4622016l21.82236 30.625272 32.102698-45.0874736h26.643736c-.33324 1.0305378-45.414934 63.822073-45.414934 63.822073l48.905279 68.857262c3.228376 4.53244 5.237443 9.18238 6.092693 13.695558.724266 3.492271.595208 6.930608-.287009 10.376649.019262-.067418.034672-.130984.036598-.130984 0 0-.009631.040451-.038525.150246-.034672.127132-.046229.175288-.046229.175288-.001927 0 .01541-.06164.032746-.130984-.157952.585576-.331313 1.165374-.539347 1.735541-3.099319 8.941601-11.503499 15.402206-21.498752 15.402206m-4.942729-22.01691.042377.009631c2.398167 0 4.341742-1.943575 4.341742-4.341743 0-.899553-.273526-1.735541-.741602-2.427061-.059713-.088607-44.216813-61.9728833-44.688742-62.6355095-.471928.6626262-44.629029 62.5469025-44.688742 62.6355095-.468076.69152-.741602 1.527508-.741602 2.427061 0 2.398168 1.943575 4.341743 4.341743 4.341743l.042377-.009631.040451.009631h82.011547z" fill="#32dac4"/></svg>