<svg height="256" preserveAspectRatio="xMidYMid" viewBox="0 0 256 256" width="256" xmlns="http://www.w3.org/2000/svg"><rect fill="#1a293b" height="256" rx="13" width="256"/><path d="m88.96 163.847429v-104.967429h16.040868v38.8991045c6.817369-8.7723496 15.539591-13.1334606 26.266921-13.1334606s19.449552 3.9099616 25.765644 11.6797569c6.316092 7.7697952 9.724776 17.4945712 9.724776 29.1743282s-3.408684 21.404533-9.724776 29.174329c-6.316092 7.769795-15.088441 11.679756-25.765644 11.679756s-19.449552-4.361111-26.266921-13.13346v11.17848h-16.040868zm16.040868-38.397828c0 7.769796 1.954981 13.634738 5.814814 18.446998 4.361111 4.862389 9.724777 7.268519 16.993295 7.268519 6.817369 0 12.632183-2.40613 16.040868-7.268519 3.909961-4.862388 5.814814-11.178479 5.814814-18.446998 0-7.268518-1.954981-13.634737-5.363665-18.446998-3.909962-4.862388-9.223499-7.2685178-16.040868-7.2685178-7.268518 0-12.632183 2.4061298-16.542145 7.2685178-4.762132 4.862389-6.717113 10.677203-6.717113 18.446998z" fill="#fff"/><path d="m88.96 182.4h78.08v15.36h-78.08z" fill="#53b6e4"/></svg>