<svg height="212" preserveAspectRatio="xMidYMid" viewBox="0 0 256 212" width="256" xmlns="http://www.w3.org/2000/svg"><path d="m0 32.6915521h59.8506876v17.6031434h-59.8506876zm0-32.6915521h59.8506876v17.6031434h-59.8506876zm107.379175 65.1316306h-107.379175v17.6031435h103.355599c11.316307 0 37.721022.2514734 47.528487 16.0943025v-9.8074656c-4.777996-15.5913556-18.86051-23.8899804-43.504911-23.8899804zm.251473 32.6915521h-107.630648v17.6031433h103.355599c25.147348 0 40.990177 1.005894 47.528487 4.526523v-7.795678c-5.029469-12.3222005-26.153241-14.3339883-43.253438-14.3339883zm-.251473 82.9862473h-107.379175v-17.603143h103.355599c11.316307 0 37.721022-.251474 47.528487-16.094303v9.807466c-4.777996 15.591356-18.86051 23.88998-43.504911 23.88998zm.251473-32.691552h-107.630648v-17.603143h103.355599c25.147348 0 40.990177-1.005894 47.528487-4.526523v7.795678c-5.029469 12.3222-26.153241 14.333988-43.253438 14.333988zm69.40668 63.119843h78.962672v-10.81336h-76.699411c-6.789783 0-22.884086-.251473-28.667976-9.555992v6.035364c2.766208 9.304518 11.316306 14.333988 26.404715 14.333988zm-.251473-19.866405h78.962672v-10.813359h-76.447938c-15.339882 0-24.895874-.502947-28.667976-2.766208v4.777996c3.017682 7.544204 15.842829 8.801571 26.153242 8.801571z" fill="#010101"/></svg>