<svg height="222" preserveAspectRatio="xMidYMid" viewBox="0 0 256 222" width="256" xmlns="http://www.w3.org/2000/svg"><path d="m181.243333 159.987112c-20.789533-2.458903-31.180827-15.496642-33.056261-18.087519-4.125955-5.695763-8.793702-15.871729-12.794628-25.068302-1.208613-2.778421-5.508219-3.292428-7.084973-3.382727l-.590414-.013892c-.736282.006946-6.279231.145867-7.696226 3.396619-4.007872 9.189627-8.661726 19.358647-12.794627 25.068302-1.875434 2.590877-12.2736741 15.635562-33.0562614 18.087519-3.6188931.437601-7.4461677.645983-11.4123634.645983-8.6756188 0-17.253993-1.014124-24.1722607-2.750637l7.084973 28.603842 58.9303045 24.283398 21.914794 2.646445 21.761981-2.646445 58.930304-24.283398 6.93216-27.985643c-6.397314 1.340588-13.912942 2.132438-21.504977 2.132438-3.945357 0-7.786524-.208382-11.391525-.645983zm-27.971751 36.952996h-53.9360933v-5.695762h24.1166923v-12.058347c-1.694837-.26395-3.375781-.548738-5.063672-.875202-2.333873-.444548-4.653855-.930771-6.939106-1.569808-2.062977-.56263-4.230145-1.194721-6.084741-2.299143-3.354943-2.021301-5.8902522-5.918036-3.834221-9.759203.979393-1.819866 2.722852-3.507756 4.667747-4.250984 2.201898-.847418 4.737207-.958555 7.078027-1.041908-1.326696.048623.896041 0 .236166-.006946h-.118083.118083c2.438064 0 4.85529.062515 7.3003.222274 2.174115.145867 4.403797.632091 6.564019.382033 4.709424-.534846 9.543876-.854365 14.281083-.444548 2.132438.187544 4.48715.444548 6.272285 1.736513 1.660106 1.208614 3.146562 2.840936 3.674462 4.869183 1.034961 3.966196-2.326928 7.418383-5.654087 8.946515-4.167631 1.91711-8.974299 2.74369-13.461448 3.528594-1.111369.19449-2.229683.382033-3.347997.56263v12.058347h24.130584zm71.856907-102.2945067c-2.945126-.9029868-6.814077-1.597592-12.030562-2.007409-6.223662-.4723316-14.371381-.5209539-25.200276.0138921 0 0-17.052558 1.4934011-27.047926 4.952535-5.424867 1.8823801-12.183375 4.7788836-13.774021 9.7939336-1.590646 5.015049-.347303 16.066218 2.160222 21.977308 2.507525 5.924982 9.009029 13.836535 14.475572 17.531835 5.056726 3.43135 14.774253 7.661495 28.124564 7.578143 8.238018-.048623 16.920583-.840473 24.123639-3.271591 3.077101-1.034962 5.897198-2.368603 8.279694-4.077332 2.313035-1.653161 4.174577-3.618893 5.68187-5.730493 3.6953-5.181755 5.251215-11.342903 5.980551-16.594118 1.021069-7.397545 2.174114-20.046306-2.167168-24.9432727-1.764298-1.9935169-4.125955-3.8411667-8.606159-5.223431zm-133.4128193 52.2690407c5.4595969-3.6953 11.9611013-11.613799 14.4547343-17.531835 2.514471-5.918036 3.76476-16.962259 2.167168-21.977308-1.590646-5.01505-8.3422084-7.9184995-13.774021-9.7939336-9.9884226-3.4591338-27.0479262-4.952535-27.0479262-4.952535-12.3639724-.6181986-21.2549189-.4584394-27.7564235.2153276-5.5221113.5834684-9.3424399 1.5489696-12.1000225 2.7506366-2.8478813 1.2225051-4.5913403 2.6950681-5.9736047 4.2579298-4.3343364 4.8969666-3.1951839 17.5387816-2.1741142 24.9432726.5695762 4.084278 1.6392682 8.717295 3.8203285 13.009955 1.7712433 3.486918 4.2857141 6.765455 7.8629308 9.314656 1.6323222 1.173883 3.4938642 2.167168 5.473489 3.021532 7.6823334 3.257699 17.5804574 4.271822 26.9228973 4.327391 13.3364197.06946 23.0608924-4.153739 28.1245642-7.585089zm-44.2116205-62.7645252c10.5024305.0833526 21.0743215.8196341 31.6184284 2.2296827 5.8694139.7849038 11.7179896 1.7642972 17.5318351 2.952072 4.7372073 1.0210697 8.5297513 1.9657327 11.8777483 2.799259 7.404492 1.8545958 12.294512 3.0632089 19.198888 3.077101 6.883537-.0138921 11.759666-1.2363973 19.157211-3.077101 3.347997-.8335263 7.140542-1.7781893 11.849965-2.7923129 5.167862-1.062746 10.349617-1.9310024 15.55221-2.67423 10.342671-1.465617 20.720073-2.3060892 31.041906-2.4797405 1.430887-.0277842 2.875666-.0555685 4.313498-.0555685.784904 0 1.569808.0069461 2.34082.0138921l-.569576-4.285714-.277842-.8682565-13.176661-39.4466289-32.95207-6.4528823-38.481128-7.5156282v-.0138921h-.027784s-.013892 0-.048623.0069461c-.03473-.0069461-.055568-.0069461-.055568-.0069461h-.027784v.0208382c-1.444779.1597592-20.490853 3.8897891-38.5575344 7.4531137-16.8650141 3.3202128-32.8756639 6.5153967-32.8756639 6.5153967l-13.1766605 39.446629-.2917342.8682565-.5626302 4.3273903c1.5836999-.0347302 3.209076-.0555684 4.8691824-.0555684.5765224-.0069461 1.1530447.0138921 1.729567.0138921z" fill="#fff"/><path d="m252.919643 88.5122374c-.131975-.0416763-10.773327-2.8478813-28.805277-3.9384114l-1.007178-9.6966885-2.14633-6.4320441 12.801574-13.7184526c11.627691-12.4612172 10.946978-31.9796231-1.51424-43.600368l-2.438064-2.27830502c-12.454271-11.62074489-31.979623-10.9400318-43.600368 1.51423932l-11.03033 11.8221804-48.650148-10.1759661v-.0138921h-.03473s-.020838 0-.055569.0069461c-.041676-.0069461-.062514-.0069461-.062514-.0069461h-.027784v.0208382c-1.785136.2014355-26.8951134 5.4804349-48.7335007 10.0995595l-10.9608699-11.7457738c-11.6068528-12.46121722-31.1322048-13.13498425-43.5864759-1.51423937l-2.4380643 2.27830507c-12.45427107 11.6276909-13.13498416 31.1391508-1.5142393 43.600368l12.8085198 13.7184525-2.1532761 6.4320441-1.0141236 9.8564477c-16.4829812 1.201667-26.15188552 3.736976-26.26302236 3.7786523-1.70178272.4792775-2.40333396 2.2018984-2.3408195 3.7022456l2.03519322 14.5728169.87520254.465386c2.79925893 1.486455 3.51470228 3.730029 7.3141927 17.010881l.673767 2.340819c4.139847 14.413058 7.5989808 20.733965 14.440842 25.644824l11.6485291 40.169018 64.4663083 26.353321 24.92938 2.528363 24.748783-2.528363 67.029401-26.353321 9.175735-38.56448c.104191-.062514.215328-.125029.319518-.187543 8.300532-5.167863 12.01667-11.238712 16.552442-27.061819l.680713-2.375549c3.792544-13.253068 4.501042-15.489696 7.307247-16.976151l.875202-.465386 2.014355-14.3783274.013892-.1875434c.055569-1.5072933-.639036-3.2299142-2.333873-3.7161378zm-211.458659-8.6547807.2917342-.8682565 13.1766605-39.4466289s16.0175958-3.1951839 32.8756638-6.5153967c18.0666815-3.5702707 37.1127555-7.2933546 38.5575345-7.4531138v-.0138921h.027784s.020838 0 .055568.0069461c.034731-.0069461.048623-.0069461.048623-.0069461h.027784v.0208382l38.481128 7.5156282 32.95207 6.4528822 13.176661 39.446629.277842.8682565.569576 4.285714c-.771012-.0069461-1.555916-.0138921-2.34082-.0138921-1.437832 0-2.882611.0277842-4.313498.0555684-10.314887.1736513-20.692289 1.0141236-31.041906 2.4797406-5.202593.7362815-10.384348 1.6045379-15.55221 2.6742299-4.709423 1.0141236-8.501968 1.9587867-11.849965 2.7923129-7.390599 1.8476498-12.273674 3.0632089-19.157211 3.077101-6.904376-.0138921-11.78745-1.2294512-19.198888-3.077101-3.347997-.8335262-7.140541-1.7781893-11.8777484-2.7992589-5.8207915-1.1877749-11.6693672-2.1671682-17.5318351-2.9520721-10.5441068-1.4100485-21.1159978-2.1532761-31.6184284-2.2296826-.5765223 0-1.1530446-.0208382-1.736513-.0208382-1.6601064 0-3.2924286.0208382-4.8691824.0555684zm-4.7997219 70.3009913c-1.9796248-.854364-3.8411667-1.847649-5.4734889-3.021532-3.5772168-2.549201-6.0916876-5.827738-7.8629308-9.314656-2.1741143-4.29266-3.2507523-8.925677-3.8203286-13.009955-1.0210696-7.397545-2.1671682-20.046306 2.1741143-24.9432727 1.3822643-1.5698077 3.1257234-3.0423707 5.9736047-4.2579298 2.7575826-1.201667 6.5779111-2.1671682 12.1000224-2.7506366 6.5084507-.6807131 15.3924511-.8335262 27.7564235-.2153276 0 0 17.0525575 1.4934012 27.0479263 4.952535 5.4318126 1.8823801 12.190321 4.7788837 13.774021 9.7939337 1.597592 5.015049.354249 16.066218-2.167168 21.977308-2.493633 5.924982-8.9951375 13.836535-14.4547343 17.531835-5.0636719 3.43135-14.7881446 7.661495-28.1315103 7.578143-9.3285478-.041677-19.2266718-1.062746-26.9159513-4.320445zm170.5533589 36.334798-58.930304 24.283398-21.761981 2.646445-21.914794-2.646445-58.9303045-24.283398-7.084973-28.603842c6.9182678 1.729567 15.4966419 2.750637 24.1722608 2.750637 3.9592496 0 7.7934702-.208382 11.4123633-.645983 20.7825874-2.458903 31.1808274-15.496642 33.0562614-18.087519 4.132901-5.709655 8.786755-15.878675 12.794627-25.068302 1.416995-3.250752 6.959944-3.389673 7.696226-3.396619l.590414.013892c1.576754.097245 5.87636.604306 7.084973 3.382727 4.000926 9.196573 8.668673 19.372539 12.794628 25.068302 1.875434 2.590877 12.266728 15.635563 33.056261 18.087519 3.611947.437601 7.446168.645983 11.405417.645983 7.592035 0 15.107663-.784904 21.504977-2.132438zm28.687195-61.673995c-.729336 5.251215-2.285251 11.412363-5.980551 16.594118-1.514239 2.118546-3.368835 4.077332-5.68187 5.730493-2.389442 1.708729-5.202593 3.042371-8.279694 4.077332-7.203056 2.431118-15.885621 3.222968-24.123639 3.271591-13.350311.083352-23.067838-4.146793-28.124564-7.578143-5.466543-3.6953-11.968047-11.613799-14.475572-17.531835-2.500579-5.918036-3.750868-16.962259-2.160222-21.977308 1.590646-5.01505 8.349154-7.9184995 13.774021-9.7939336 9.988422-3.4591338 27.047926-4.952535 27.047926-4.952535 10.828895-.534846 18.969668-.4862236 25.200276-.0138921 5.216485.4098171 9.092382 1.1044223 12.030562 2.007409 4.480204 1.3822644 6.834915 3.2299142 8.606159 5.2303771 4.334336 4.8900206 3.188237 17.5318356 2.167168 24.9363266zm-106.753872 54.359802c1.118314-.180597 2.236628-.36814 3.347997-.56263 4.487149-.784904 9.293817-1.604538 13.461448-3.528594 3.327159-1.528132 6.695994-4.98032 5.654087-8.946515-.5279-2.028247-2.014355-3.66057-3.674462-4.869183-1.785135-1.291965-4.146793-1.548969-6.272285-1.736513-4.737207-.409817-9.571659-.090298-14.281083.444548-2.167168.250058-4.389904-.22922-6.564019-.382033-2.44501-.159759-4.862236-.222274-7.3003-.222274.659875.006946-1.569808.055569-.236166.006946-2.34082.090299-4.869182.19449-7.078027 1.041908-1.944894.743228-3.688354 2.438064-4.667747 4.250984-2.0560312 3.848113.472332 7.737902 3.834221 9.759203 1.854596 1.104422 4.021764 1.736513 6.084741 2.299143 2.285251.639037 4.605233 1.118314 6.939106 1.569808 1.680945.326464 3.361889.611252 5.063672.875202v12.065293h-24.1166922v5.688816h53.9360932v-5.688816h-24.130584z" fill="#454545"/></svg>