<svg height="254" preserveAspectRatio="xMidYMid" viewBox="0 0 256 254" width="256" xmlns="http://www.w3.org/2000/svg"><path d="m32.869 74.486h191.135v171.414h-191.135z" fill="#fff"/><g fill="#1b1a19"><path d="m99.014 147.625h-10.902c0-3.922-3.193-7.11-7.119-7.11-3.927 0-7.12 3.188-7.12 7.11h-10.902c0-9.936 8.086-18.016 18.022-18.016 9.935 0 18.021 8.08 18.021 18.016"/><path d="m201.781 147.625h-10.902c0-3.922-3.192-7.11-7.115-7.11-3.926 0-7.114 3.188-7.114 7.11h-10.907c0-9.936 8.086-18.016 18.021-18.016 9.936 0 18.017 8.08 18.017 18.016"/><path d="m231.588 110.267v-43.364h-95.56v-23.209h14.017v-43.206h-43.206v43.206h14.017v23.209h-95.57v43.162c-14.431 3.093-25.286 15.939-25.286 31.281 0 15.333 10.855 28.182 25.286 31.276v80.862h206.302v-81.064c13.991-3.415 24.412-16.051 24.412-31.074 0-15.031-10.421-27.665-24.412-31.079zm-109.582-94.612h12.868v12.868h-12.868zm-106.834 125.691c0-6.894 4.166-12.827 10.114-15.424v30.843c-5.948-2.596-10.114-8.529-10.114-15.419zm25.286 63.135h175.964v33.836h-175.964zm0-122.406h175.964v107.235h-175.964zm191.13 74.277v-30.017c5.477 2.777 9.24 8.46 9.24 15.011 0 6.548-3.763 12.229-9.24 15.006z"/></g></svg>