<svg height="283" preserveAspectRatio="xMidYMid" viewBox="0 0 256 283" width="256" xmlns="http://www.w3.org/2000/svg"><path d="m128.337681.0776965c-6.700825 0-13.402646 1.73322957-19.407191 5.20068482l-88.6865678 51.20298828c-12.01008562 6.9339144-19.40818679 19.74786-19.40818679 33.6146927v102.4069727c0 13.867829 7.39810117 26.681774 19.40818679 33.614693l88.6865678 51.203984c6.004545 3.466459 12.706366 5.199689 19.407191 5.199689 6.701821 0 13.402646-1.73323 19.408187-5.199689l88.686568-51.203984c12.010085-6.932919 19.408187-19.746864 19.408187-33.614693v-102.4069727c0-13.8668327-7.398102-26.6807783-19.408187-33.6146927l-88.686568-51.20298828c-6.005541-3.46745525-12.706366-5.20068482-19.408187-5.20068482" fill="#fff"/><path d="m236.432436 56.4823658-88.686568-51.20398448c-12.010086-6.93391439-26.805292-6.93391439-38.815378 0l-88.6865678 51.20398448c-12.01008562 6.9329182-19.40818679 19.7468638-19.40818679 33.6136965v102.4069727c0 13.867829 7.39810117 26.681774 19.40818679 33.614693l88.6865678 51.203984c12.010086 6.933914 26.805292 6.933914 38.815378 0l88.686568-51.203984c12.010085-6.932919 19.408187-19.746864 19.408187-33.614693v-102.4069727c0-13.8668327-7.398102-26.6807783-19.408187-33.6136965zm7.209836 131.1228012c0 12.540016-6.689867 24.127751-17.550443 30.398257l-80.202708 46.305121c-10.860576 6.270506-24.241308 6.270506-35.101884 0l-80.2027078-46.305121c-10.8605759-6.270506-17.5504436-17.858241-17.5504436-30.398257v-92.6102409c0-12.5410117 6.6898677-24.1287471 17.5504436-30.3982568l80.2027078-46.3051207c10.860576-6.2705058 24.241308-6.2705058 35.101884 0l80.202708 46.3051207c10.860576 6.2695097 17.550443 17.8572451 17.550443 30.3982568z" fill="#298aec"/><g fill="#44546c"><path d="m73.6801868 109.915642h112.9856502v9.905307h-112.9856502z"/><path d="m73.6801868 143.223533h112.9856502v9.905307h-112.9856502z"/><path d="m73.6801868 176.422848h112.9856502v9.905308h-112.9856502z"/></g></svg>