<svg height="256" preserveAspectRatio="xMidYMid" viewBox="0 0 256 256" width="256" xmlns="http://www.w3.org/2000/svg" xmlns:xlink="http://www.w3.org/1999/xlink"><linearGradient id="a" x1="10.231872%" x2="25.642465%" y1="-19.753012%" y2="31.75006%"><stop offset="0" stop-color="#fff"/><stop offset="1" stop-color="#fff" stop-opacity="0"/></linearGradient><rect fill="#f57d00" height="254.903919" rx="35.487503" transform="matrix(-1 0 0 1 255.999892 0)" width="254.923759" x=".538066" y=".548024"/><path d="m188.110807 11.4453478h-120.2217656c-31.8230563 0-57.4423322 25.8275146-57.4423322 57.9092285v117.2906957c1.0300745 25.042495 4.9923145 9.211162 12.5342589-18.521719 8.7653533-32.231214 37.311436-60.401758 72.0755092-81.5139801 26.5343237-16.1141695 56.2344027-26.4040678 110.2964607-27.3829641 30.660144-.5551295 27.953356-39.7916312-17.242131-47.781261z" fill="url(#a)"/><g stroke="#fff" stroke-width="30"><path d="m98.3283851 70.0696732 36.9924559-.5690251c16.93965.4682522 26.354115 12.4757261 26.179286 26.1751214 1.642056 16.1878675-2.91623 34.5181075-28.455745 34.1414505h-36.4233434c-16.0594657.155293-28.8826467-9.282104-27.8866223-27.882185-.7956394-15.4098228 4.2927295-32.0875611 29.5939688-31.8653618z" fill="#fff"/><path d="m158.085435 195.255007h-56.91148c-23.7145272.304261-35.1375726-10.507129-33.5777733-35.279501.1120542-22.268311 13.0287837-28.62657 32.4395503-29.020235h56.342345c38.310194-1.022677 34.125994-1.393487 34.716008 29.58925-.240835 22.524702-12.628675 34.538099-33.00865 34.710486z" fill="#fff"/><path d="m67.5961925 164.527696 1.1382238-68.2829123"/></g><path d="m101.033806 99.3208949 31.773093.504461" stroke="#f57d00" stroke-width="25"/><path d="m97.4243471 161.456575h63.5461859" stroke="#f57d00" stroke-width="25"/></svg>