<svg height="253" preserveAspectRatio="xMidYMid" viewBox="0 0 256 253" width="256" xmlns="http://www.w3.org/2000/svg"><path d="m217.7773 126.4132 35.911-62.2-35.911-62.199h-71.822l-35.911 62.199 35.911 62.2z" fill="#00b198"/><path d="m110.0446 188.6128 35.911 62.2h71.822l35.911-62.2-35.911-62.2h-71.822z" fill="#00aed1"/><path d="m110.0445 64.2137h-71.822l-35.911 62.2 35.911 62.199h71.822l35.911-62.199z" fill="#3b4b54"/><path d="m216.6102 248.8085h-69.488l-33.706-58.361c9.769 4.974 20.826 7.779 32.539 7.779 38.367 0 69.705-30.083 71.717-67.948l33.704 58.334zm-211.987-122.404 34.767-60.173h67.347c-19.629 12.82-32.604 34.98-32.604 60.173 0 25.209 12.99 47.38 32.638 60.196h-67.381zm142.499-122.364h69.488l34.766 60.173-33.701 58.353c-1.996-37.882-33.342-67.983-71.72-67.983-11.707 0-22.76 2.803-32.525 7.771 2.017-3.491 33.692-58.314 33.692-58.314zm66.535 126.078c-1.929 35.717-31.504 64.091-67.702 64.091-11.027 0-21.438-2.636-30.642-7.307zm-104.78 53.057c-18.5-12.109-30.726-33.012-30.726-56.771s12.226-44.653 30.726-56.754zm6.452-117.259c9.2-4.663 19.606-7.294 30.626-7.294 36.198 0 65.773 28.353 67.702 64.069zm7.38 104.778 24.413-42.255h61.408l-92.138 53.202zm2.547-76.115 18.37 31.834-14.946 25.9-15.785 27.331v-106.459zm21.861 29.82-8.184-14.17-22.522-39.028 92.169 53.198zm108.883-60.186-37.056-64.213h-74.156l-35.889 62.191h-71.844l-37.055 64.213 37.055 64.214h71.835l35.898 62.208h74.156l37.056-64.214-35.894-62.199z" fill="#fff"/></svg>