<svg height="301" preserveAspectRatio="xMidYMid" viewBox="0 0 256 301" width="256" xmlns="http://www.w3.org/2000/svg" xmlns:xlink="http://www.w3.org/1999/xlink"><linearGradient id="a" x1="0%" x2="100.096998%" y1="50.017894%" y2="50.017894%"><stop offset="0" stop-color="#fff"/><stop offset=".1413" stop-color="#fff" stop-opacity=".9576"/><stop offset="1" stop-color="#fff" stop-opacity=".7"/></linearGradient><linearGradient id="b" x1="-.039059%" x2="100%" y1="49.982454%" y2="49.982454%"><stop offset="0" stop-color="#f1f1f2"/><stop offset=".09191442" stop-color="#e4e5e6"/><stop offset=".2357" stop-color="#d9dadb"/><stop offset=".438" stop-color="#d2d4d5"/><stop offset="1" stop-color="#d0d2d3"/></linearGradient><path d="m256 97.1-9.3-25.1 6.4-14.4c.8-1.9.4-4-1-5.5l-17.5-17.7c-7.7-7.7-19.1-10.4-29.4-6.8l-4.9 1.7-26.8-29-45.3-.3h-.3l-45.6.4-26.7 29.2-4.8-1.7c-10.4-3.7-21.9-1-29.6 6.9l-17.8 18c-1.2 1.2-1.5 2.9-.9 4.4l6.7 15-9.2 25.1 6 22.7 27.2 103.3c3.1 11.9 10.3 22.3 20.4 29.5 0 0 33 23.3 65.5 44.4 2.9 1.9 5.9 3.2 9.1 3.2s6.2-1.3 9.1-3.2c36.6-24 65.5-44.5 65.5-44.5 10-7.2 17.2-17.6 20.3-29.5l27-103.3z" fill="#f15a22"/><path d="m34.5 227.7-34.5-128.2 10.1-25.1-7-18.6 16.7-17c5.5-4.9 16.3-6.6 21.3-3.7l26.1 15 34 7.9 26.5-11 2.2 227.7c-.4 32.8 1.7 29.3-22.4 13.8l-59.5-39.9c-6.4-6.1-11.3-13-13.5-20.9z" fill="url(#a)" opacity=".15"/><path d="m202.2 252.245742-50.6 34.6c-14.1 7.7-20.9 15.3-22 11.6-.9-2.9-.2-11.4-.5-24.6l-.6-222.6999997c.1-2.2 1.6-5.9 4.2-5.5l25.8 7.8 37.2-5.8 24.6-18.1c2.6-2 6.4-1.8 8.8.5l22 21c2 2.1 2.1 6.2.9 8.8l-6.1 11.3 10.1 26.1-34.8 129.3999997c-5.4 16.1-13 20.3-19 25.6z" fill="url(#b)" opacity=".4"/><g fill="#fff"><path d="m134 184.801367c-1.2-.5-2.5-.9-2.9-.9h-1.6-1.6c-.4 0-1.7.4-2.9.9l-13 5.4c-1.2.5-3.2 1.4-4.4 2l-19.6 10.2c-1.2.6-1.3 1.7-.2 2.5l17.3 12.2c1.1.8 2.8 2.1 3.8 3l7.7 6.6c1 .9 2.6 2.3 3.6 3.2l7.4 6.6c1 .9 2.6.9 3.6 0l7.6-6.6c1-.9 2.6-2.3 3.6-3.2l7.7-6.7c1-.9 2.7-2.2 3.8-3l17.3-12.3c1.1-.8 1-1.9-.2-2.5l-19.6-10c-1.2-.6-3.2-1.5-4.4-2z"/><path d="m227.813299 101.557129c.4-1.3.4-1.8000001.4-1.8000001 0-1.3-.1-3.5-.3-4.8l-1-2.9c-.6-1.2-1.6-3.1-2.4-4.2l-11.3-16.7c-.7-1.1-2-2.8-2.9-3.9l-14.6-18.3c-.8-1-1.6-1.9-1.7-1.8h-.2s-1.1.2-2.4.4l-22.3 4.4c-1.3.3-3.4.7-4.7.9l-.4.1c-1.3.2-3.4.1-4.7-.3l-18.7-6c-1.3-.4-3.4-1-4.6-1.3 0 0-3.8-.9-6.9-.8-3.1 0-6.9.8-6.9.8-1.3.3-3.4.9-4.6 1.3l-18.6999997 6c-1.3.4-3.4.5-4.7.3l-.4-.1c-1.3-.2-3.4-.7-4.7-.9l-22.5-4.2c-1.3-.3-2.4-.4-2.4-.4h-.2c-.1 0-.9.8-1.7 1.8l-14.6 18.3c-.8 1-2.1 2.8-2.9 3.9l-11.3 16.7c-.7 1.1-1.8 3-2.4 4.2l-1 2.9c-.2 1.3-.4 3.5-.3 4.8 0 0 0 .4000001.4 1.8000001.7 2.4 2.4 4.6 2.4 4.6.8 1 2.3 2.7 3.2 3.6l33.1 35.2c.9 1 1.2 2.8.7 4l-6.9 16.3c-.5 1.2-.6 3.2-.1 4.5l1.9 5.1c1.6 4.3 4.3 8.1 7.9 11l6.7 5.4c1 .8 2.8 1.1 4 .5l21.1999997-10.1c1.2-.6 3-1.8 4-2.7l15.2-13.7c2.2-2 2.3-5.4.3-7.6l-31.8999997-21.5c-1.1-.7-1.5-2.3-.9-3.5l13.9999997-26.4c.6-1.2.7-3.1.2-4.3l-1.7-3.9000001c-.5-1.2-2-2.6-3.2-3.1l-41.0999997-15.4c-1.2-.5-1.2-1 .1-1.1l26.5-2.5c1.3-.1 3.4.1 4.7.4l23.5999997 6.6c1.3.4 2.1 1.7 1.9 3l-8.2 44.9000001c-.2 1.3-.2 3.1.1 4.1s1.6 1.9 2.9 2.2l16.4 3.5c1.3.3 3.4.3 4.7 0l15.3-3.5c1.3-.3 2.6-1.3 2.9-2.2s.4-2.8.1-4.1l-8.1-44.9000001c-.2-1.3.6-2.7 1.9-3l23.6-6.6c1.3-.4 3.4-.5 4.7-.4l26.5 2.5c1.3.1 1.4.6.1 1.1l-41.1 15.6c-1.2.5-2.7 1.8-3.2 3.1l-1.7 3.9000001c-.5 1.2-.5 3.2.2 4.3l14.1 26.4c.6 1.2.2 2.7-.9 3.5l-31.9 21.6c-2.1 2.1-1.9 5.6.3 7.6l15.2 13.7c1 .9 2.8 2.1 4 2.6l21.3 10.1c1.2.6 3 .3 4-.5l6.7-5.5c3.6-2.9 6.3-6.7 7.8-11l1.9-5.1c.5-1.2.4-3.3-.1-4.5l-6.9-16.3c-.5-1.2-.2-3 .7-4l33.1-35.2c.9-1 2.3-2.6 3.2-3.6-.2-.3 1.6-2.5 2.2-4.9z"/></g></svg>