<svg height="223" preserveAspectRatio="xMidYMid" viewBox="0 0 256 223" width="256" xmlns="http://www.w3.org/2000/svg"><g fill="#4a69a5"><path d="m72.4263785 0h-18.5608382v52.5075627l22.634771 22.634771h-27.1595524l-29.6500834-29.6500834v-45.4922503h-19.6906755v53.8655403l40.2857641 40.2884801h54.3191049l19.465251 19.4625356h-52.0567139l43.9088479 45.266826-64.2785123 63.824948h25.3507263l64.275797-64.729361-24.443597-24.443598h129.915003v8.147866l-56.130647 33.495876-47.075653 47.529217h26.705988l32.137899-32.591463 63.374099-38.023373v-38.476938h-59.751015l-20.369664-20.3696647 23.085619-23.0856195v-51.6031496h-19.239827v43.0044353l-18.783546 18.5581222-16.749296-17.539639v-44.0229185h-18.107274v52.5102786l42.336311 42.5481552h-25.831451l-69.9168355-69.256859z"/><path d="m170.651616 145.303605h-25.348011l12.221799 13.126212z"/></g></svg>