<svg height="262" preserveAspectRatio="xMidYMid" viewBox="0 0 256 262" width="256" xmlns="http://www.w3.org/2000/svg"><path d="m136.442163 1.51457611c38.039 17.64499999 76.703 35.86699999 114.69 53.62199999 2.027.948 4.685 1.593 4.688 4.463.004 2.875-2.651 3.515-4.682 4.464-38.139 17.837-76.283 35.663-114.451 53.4369999-5.813 2.707-11.783 2.672-17.604-.041-38.2389996-17.8249999-76.4629996-35.6819999-114.67999962-53.5529999-1.967-.919-4.442-1.616-4.365-4.413.072-2.617 2.439-3.297 4.332-4.182 38.37700002-17.931 77.14300002-36.146 115.56999962-53.96799999 4.062-1.881 12.269-1.753 16.502.171zm-8.562 260.04699989c-2.767 0-4.841-1.05-8.794-2.529-38.1849996-17.713-76.3229996-35.527-114.45799962-53.347-2.027-.947-4.652-1.616-4.628-4.504.025-2.873 2.652-3.507 4.679-4.471 6.32600002-3.008 12.68400002-5.948 19.03900002-8.893 6.349-2.943 12.657-2.902 19.025.083 25.279 11.85 50.586 23.641 75.8759996 35.465 6.279 2.936 12.506 2.875 18.778-.063 25.36-11.876 50.733-23.727 76.108-35.573 5.992-2.797 12.063-2.875 18.083-.147 6.769 3.067 13.489 6.244 20.214 9.405.997.469 2.008.998 2.843 1.701 1.797 1.514 1.821 3.565-.013 5.034-1.115.893-2.449 1.551-3.757 2.161-37.827 17.673-75.649 35.357-113.527 52.921-2.944 1.364-6.701 2.757-9.468 2.757zm-.134-70.823c-1.265 0-6.181-1.342-8.978-2.641-38.0279996-17.66-76.0049996-35.429-113.98499962-53.191-2.04-.954-4.7-1.57-4.753-4.412-.056-3.015 2.728-3.618 4.828-4.617 6.39600002-3.045 12.81000002-6.056 19.24700002-9.014 6.104-2.804 12.218-2.738 18.317.111 25.535 11.927 51.069 23.857 76.6229996 35.745 5.915 2.752 11.922 2.731 17.842-.025 25.627-11.933 51.236-23.903 76.859-35.844 5.925-2.761 11.91-2.759 17.839-.054 6.756 3.082 13.47 6.257 20.191 9.414.923.434 1.869.892 2.66 1.52 2.039 1.62 2.023 3.759-.04 5.381-.794.624-1.737 1.085-2.661 1.517-38.369 17.937-76.731 35.89-115.147 53.725-2.641 1.227-7.578 2.385-8.842 2.385z"/></svg>