<svg height="256" preserveAspectRatio="xMidYMid" viewBox="0 0 256 256" width="256" xmlns="http://www.w3.org/2000/svg"><path d="m134.395314 255.707094h-12.594966c-.463085-.09373-.922362-.217337-1.38984-.277089-5.750627-.734316-11.575066-1.100742-17.241629-2.246884-27.9189385-5.647524-51.6888607-18.928476-70.3730529-40.421638-28.97574372-33.33243-38.7265904-72.005126-28.65559727-114.9390208 13.13332727-55.989016 62.49621967-95.71968874 119.76816517-97.54976655 1.251588-.03983524 2.500247-.17955149 3.75037-.27269565h1.171625c.415927.07732723.831854.22143707 1.248073.22202288 8.030316.009373 15.978032.89980778 23.817666 2.55472769 28.244064 5.96151945 52.076375 19.70614183 70.839067 41.61113043 24.117308 28.156778 34.105116 60.941181 30.355624 97.842673-1.493235 14.69481-5.605931 28.678151-12.18021 41.893785-13.026417 26.184933-32.705904 45.76659-58.920714 58.713629-13.955808 6.892375-28.741126 10.942096-44.255195 12.30616-1.782627.156705-3.559689.373748-5.339386.562966zm-77.0390119-129.848824c2.7061601-2.750975 3.7846407-4.684156 3.8490801-7.251185.0688329-2.731643.0946086-5.469144-.003222-8.199323-.1754508-4.882453-3.1007048-8.45708-7.9389291-9.030883-3.852302-.456934-7.7874965-.331277-11.68227-.259515-1.7779405.032805-3.0154691 1.657849-3.0178124 3.556467-.0181601 14.693052-.021675 29.386105.0041007 44.079158.0038078 2.105116 1.520476 3.536842 3.6604485 3.559981 3.2213822.034563 6.4448147.071176 9.6650252-.005858 6.2550115-.149675 10.7317895-4.762361 10.752-10.990133.0064439-2.099258-.0041007-4.198224.0020504-6.29719.0114233-4.024238-1.43319-7.221601-5.2904714-9.161519zm72.3648149-3.470645c0-.623305-.000293-1.150243-.000293-1.677181 0-5.321227.002343-10.64216-.000586-15.963387-.001757-2.751268-1.37373-4.277016-3.84908-4.291954-2.51665-.015524-3.944861 1.480055-3.946325 4.203789-.008201 14.694225-.008494 29.388156.000293 44.082087.001757 2.703232 1.456329 4.195589 3.983817 4.167762 2.409446-.026654 3.808073-1.554746 3.810416-4.185043.004687-5.760293.001172-11.520586.001465-17.281172v-1.5814h8.602068v1.818069c.000293 5.71167-.011423 11.42334.006151 17.135011.007909 2.61038 1.450179 4.091313 3.909126 4.094828 2.475643.003515 3.878957-1.463359 3.883058-4.089556.007322-4.881867.002343-9.763441.002343-14.645016-.000293-9.909894.002929-19.820082-.002929-29.729977-.001172-2.035991-.966884-3.413236-2.675112-3.880128-2.737794-.7480824-5.089538.954581-5.109749 3.790499-.038663 5.418471-.012302 10.837528-.012888 16.256293v1.776476c-2.926718 0-5.646059 0-8.601775 0zm-28.19017 18.530416c.396888.067662.728458.130929 1.061785.181016 6.71546 1.009062 11.809684-2.465684 12.66087-8.816476.282947-2.111267.069712-4.286975.12097-6.432219.050966-2.126206-.108082-4.184458-1.707057-5.948046.628869-.081721 1.103377-.119506 1.56822-.207964 2.390407-.45459 3.343231-1.789363 2.987935-4.162489-.301986-2.016659-1.354691-2.704403-3.83502-2.500247-.291149.024018-.579954.077034-.87081.108375-3.386581.362325-6.766133.846792-10.16238 1.054462-4.6958719.286755-8.2866087 3.17979-9.0780412 7.828504-.3242472 1.904475-.2152861 3.881592-.3166316 5.825318-.2053272 3.943688.140595 7.729208 3.2084943 10.735011-1.9551488 1.413858-3.1765675 3.096018-3.3540687 5.40822-.1807231 2.352036.5978215 4.286975 2.7020595 5.656604-.4478535.309016-.6842288.471872-.920897.63502-2.7342792 1.882216-3.7787826 4.523351-3.3285858 7.742682.4387734 3.139076 2.394508 5.087488 5.3212265 5.984366 4.405895 1.350298 8.900833 1.526627 13.174334-.316924 1.847066-.796998 3.712-2.11654 4.93752-3.690032 4.704073-6.040311 1.292302-14.631835-6.06433-15.519634-2.021638-.244284-4.093657-.054188-6.14195-.099002-2.353794-.052137-3.02162-1.168989-1.963643-3.466545zm107.836339-23.9401c-.738709-.615689-1.218783-1.116266-1.788778-1.473611-2.643478-1.657557-5.443368-1.797859-8.227442-.488275-2.582553 1.214975-3.572283 3.555295-3.592494 6.242416-.06151 8.195515-.091972 16.39308.005858 24.58801.054481 4.558498 3.318334 7.481702 7.880348 7.351945 2.470957-.070005 4.301034-1.336238 5.833812-3.371643.510536 1.620942 1.330673 2.770013 2.955717 3.045345 2.670425.453126 4.425226-1.041281 4.432256-3.838242.020796-8.391177.008201-16.782939.008201-25.174115 0-6.48875-.008494-12.977501.005566-19.465959.003221-1.46043-.368184-2.712311-1.708522-3.482068-2.705867-1.5544534-5.784897.188338-5.799543 3.293437-.019624 4.186215-.004979 8.372723-.004979 12.77276zm-128.1446956 32.812814c.1370801.417099.1877528.604851.2595149.784403.758627 1.891002 2.2307734 2.668082 4.3446773 2.297556 1.6557986-.290563 2.5676156-1.529849 2.5933913-3.531863.006151-.487981.0011716-.975963.0011716-1.463945 0-9.856586.006444-19.713757-.0046865-29.570343-.002929-2.467735-1.3754874-3.808366-3.8039725-3.791963-2.366389.016109-3.6876888 1.385446-3.6923753 3.924357-.0152311 8.392933-.0002929 16.78616-.0199176 25.178508-.0014645.558865-.0067368 1.294645-.3347918 1.642324-.9701052 1.029273-2.2577208 1.295232-3.6302791.900101-1.2038444-.346801-1.6604852-1.267991-1.7310756-2.434929-.0442288-.729336-.0913867-1.46043-.0919725-2.190645-.0067368-7.660961.0038078-15.321922-.0090801-22.982884-.0043936-2.65578-1.2990389-4.029803-3.7286956-4.036832-2.466563-.00703-3.7699955 1.352347-3.77146 3.973565-.0058581 8.929538-.0228467 17.859368.0058581 26.788613.0172815 5.332357 3.0359726 8.200201 8.2687414 7.916375 2.3098582-.125071 4.0599726-1.237821 5.344952-3.402398zm78.6989106-13.870279c3.424952 0 6.686462.009373 9.947973-.003515 2.0934-.007908 3.132631-1.034252 3.151377-3.152256.025483-2.927597.066783-5.856952-.007322-8.782792-.142939-5.635808-3.905611-9.572467-9.233868-9.758462-6.726004-.234911-10.904018 2.844119-11.205418 8.975817-.347094 7.056402-.291442 14.146197-.074984 21.211386.139423 4.544733 2.788173 7.513044 6.82032 8.419296 1.26887.284997 2.608622.355295 3.915863.355295 5.996668-.000586 9.774865-3.928458 9.594727-9.903744-.066782-2.203826-1.290544-3.411185-3.491441-3.443112-2.331241-.03427-3.533035 1.106892-3.61417 3.432568-.009958.29232-.0041.586398-.032805.876961-.184531 1.860833-1.170453 2.833574-2.881904 2.85437-1.674252.020504-2.798133-.982114-2.863744-2.843533-.095194-2.673355-.024604-5.35286-.024604-8.238279zm25.558115-17.823927c-.296421-1.581693-.783817-2.827716-2.360531-3.217281-2.748339-.678957-4.647836.771222-4.660723 3.602746-.021968 4.777592-.006737 9.555478-.006737 14.333071 0 5.362819-.007909 10.725345.004686 16.088164.005273 2.164284.893071 3.470939 2.592513 3.914106 2.74043.714398 4.902078-.921483 4.906178-3.755643.012009-8.434234.003515-16.868467.005566-25.302408.000292-1.642325.461327-2.042434 2.107752-1.843551.770929.093144 1.542151.279139 2.311909.27211 1.924101-.017575 3.116522-1.4039 3.193556-3.603332.088458-2.510206-.909181-3.873099-2.974169-4.062902-2.691222-.247213-3.743634.457813-5.12 3.57492zm-139.1784718 27.412211v-15.868485c1.7422059 0 3.4457482-.158756 5.1062334.041592 1.9185354.231103 3.1827185 1.477126 3.2908009 3.378673.168421 2.958938.1736934 5.940723.006151 8.899368-.1086682 1.9159-1.4159084 3.028357-3.3256567 3.344989-.671341.111597-1.3555698.172815-2.0359909.195661-.9662975.032513-1.9343524.008202-3.0415377.008202zm.0108375-22.793666v-14.9347c1.6147918.112183 3.1607506.128878 4.6759542.35383 1.2032586.178673 2.1680916 1.025758 2.2219863 2.225208.1408879 3.146399.1982975 6.308907.0289977 9.451204-.0825995 1.532192-1.2858581 2.502005-2.8587643 2.687414-1.2931808.152312-2.6048146.145282-4.0681739.217044zm54.9995793 5.016311c-.001172-1.3667-.070591-2.737208.014938-4.098343.127707-2.035405 1.358499-3.211424 3.243057-3.245401 1.988833-.035734 3.336787 1.111579 3.420851 3.201758.110133 2.728421.103396 5.467094.006151 8.196393-.074398 2.083149-1.423817 3.275863-3.382187 3.254774-1.884266-.019918-3.148742-1.197694-3.284064-3.211424-.091387-1.359963-.017575-2.73135-.018746-4.097757zm3.27059 31.239909c-.675442-.084357-1.362307-.116284-2.024275-.262152-2.8534916-.627697-3.8985808-3.478846-2.357894-6.373345.606901-1.139991 1.345904-1.947533 2.849684-1.744842 1.293474.174572 2.625611.044229 3.929043.169007 1.567048.150261 2.765035.867295 3.203222 2.517821.44141 1.663707-.036906 3.517218-1.504659 4.387149-1.21351.718792-2.654023 1.054755-3.993775 1.559725-.033685-.08465-.067369-.169007-.101346-.253363zm104.784842-25.260815c0 3.412943.001465 6.826764-.000586 10.239707-.001171 1.68714-.707661 2.445181-2.518114 2.714069-1.666929.247798-2.910609-.418856-3.348796-1.869035-.166078-.549785-.246335-1.146435-.248092-1.721995-.016989-6.29016-.029291-12.580613-.002343-18.870774.012009-2.853785 2.028961-4.215798 4.58984-3.166901 1.021071.41827 1.601903 1.00789 1.56324 2.289647-.103396 3.458929-.035149 6.923131-.035149 10.385282zm-43.859185-3.806023h-5.526847c0-2.393629-.113062-4.715497.039542-7.020082.102811-1.556211 1.311927-2.416476 2.810728-2.386893 1.478883.029291 2.533931.804321 2.63762 2.369025.152019 2.302243.038957 4.62206.038957 7.03795z" fill="#222"/><path d="m227.038316 143.769483c2.699423-.018746 4.525986 1.754801 4.554105 4.422297.029291 2.751854-1.818362 4.661895-4.504018 4.657501-2.627954-.004393-4.465355-1.864347-4.480293-4.535652-.015231-2.699716 1.764467-4.5254 4.430206-4.544146z" fill="#6db6d1"/></svg>