<svg height="102" preserveAspectRatio="xMidYMid" viewBox="0 0 256 102" width="256" xmlns="http://www.w3.org/2000/svg"><g fill="#1a1918"><path d="m185.537803 100.278986-5.51031-11.0206198 1.373746-.7472676c1.49724-.8148732 2.82231-1.6162254 3.979719-2.4085634 1.117746-.7661972 2.057014-1.5098591 2.820507-2.2381972.722028-.6868732 1.33769-1.4260281 1.847887-2.2273803.498479-.7824225.881578-1.6 1.149296-2.4626478h-.000902l.003606-.0117184c.067606-.2307605.136113-.4939718.206423-.7896338.075718-.3218028.137915-.6102535.184788-.8653521.28755-1.5477183.430874-3.3802817.403831-5.4742535v-45.5184225h16.736451v45.3390422c.005409.4002254.00631.8022536.002704 1.2051831-.004507.4263662-.012619.827493-.025239 1.2051831-.066704 2.0407888-.254197 4.0626479-.548958 6.0340282v.0018028c-.062197.423662-.131606.8238873-.206422 1.1997747-.073916.3722817-.163155.7643943-.267719 1.1745352-.507493 2.0047324-1.270986 3.9193239-2.274253 5.744676l-.00631.0063099c-.741859 1.3304789-1.652282 2.5888451-2.735775 3.7723944-1.066366 1.1655211-2.328338 2.288676-3.790422 3.3694647l-.01262.0126198h-.000901l-.000902-.0018029c-.433577.3190986-.852732.6120564-1.259267.8770705-.419155.2740281-.878874.556169-1.380057.8473239-2.426591 1.408-5.334535 2.6771831-8.739155 3.7931268l-1.324169.433577zm45.206535-13.859155c-1.59369 0-3.047662-.0495775-4.374535-.1379155-1.285409-.0865352-2.560902-.2217465-3.812057-.3939155l-.031549-.0063099c-1.178141-.1829859-2.296789-.3867042-3.346929-.6210704-1.092507-.2433803-2.097578-.5156056-3.001691-.8229859-.902309-.3082817-1.768563-.6535211-2.600563-1.024-.810366-.3614648-1.578366-.7454648-2.309408-1.1420845l-1.255662-.6823662 4.891943-12.4322254 1.481916.5489578h.000901l-.000901.0027042c.235267.0856338.452507.1631549.65262.2325634.05769.0207324.276732.0937465.645408.2154366 1.137577.3758873 2.204845.6814648 3.180169.9194366l.032451.0063099c.686873.1802817 1.402591.3380282 2.15076.4714366.771606.1370141 1.518874.2415775 2.245409.3127887h.037859c.74276.0901409 1.563944.1550423 2.460845.1992113.907718.044169 1.837972.064 2.795268.064h.000901c1.570253 0 2.914253-.1171831 4.042817-.3434366.252394-.0504789.426366-.0874366.521915-.1108732.812169-.1992113 1.48462-.4570141 2.023662-.7707043v-.0009014c.005409-.0027042.009916-.0063098.015324-.0099155l.002704-.0027042h.000902l.000901.0009014c.137916-.083831.282141-.1847887.431775-.3010704l.003606.0036056c.125295-.0982535.244281-.2046197.355155-.3190986.502985-.5147042.758084-1.1646197.765295-1.9371267-.013521-.4894648-.127098-.9293521-.338028-1.3250704-.229859-.4317747-.576-.8310986-1.033915-1.2033803h.000901c-.557972-.4344789-1.200676-.8545352-1.931718-1.2619719-.752676-.4200563-1.594592-.8229859-2.530254-1.2096901l-.000901.0027042c-1.068169-.4191549-2.110197-.8356056-3.126986-1.2493521-.837409-.3416338-1.938028-.7995493-3.303662-1.3746479-1.190761-.5011831-2.332845-1.0456338-3.424451-1.6369577-1.111436-.6021409-2.191324-1.2592676-3.23876-1.9776902l-.001803.0036057c-1.099718-.7337465-2.100282-1.5837747-3.005296-2.5446761-.897803-.9509859-1.687437-1.9984225-2.37431-3.1378028l-.008112-.0117183c-.203719-.339831-.392113-.6850704-.563381-1.0375211-.158648-.3263099-.317296-.6931831-.475042-1.1015212-.738254-1.9100845-1.130366-4.0941972-1.161014-6.5180845v-.0378591c.021634-1.4557747.18569-2.8205071.504789-4.1059155.322704-1.3043381.804056-2.511324 1.45307-3.6299719l.00631-.0135211c.634591-1.072676 1.381859-2.0498028 2.235493-2.9358873.856338-.8896901 1.802817-1.6757183 2.835831-2.363493l.018929-.0063098c1.047437-.684169 2.145353-1.2709859 3.300057-1.7658592 1.152901-.4939718 2.358084-.8969014 3.619155-1.2114929v.0009014c1.259267-.3344226 2.530253-.5741972 3.80845-.7301409 1.289014-.1559436 2.58524-.2289577 3.884169-.2289577h.002705c1.541408 0 2.93138.0495774 4.178028.1433239.284845.0207324.492169.0378592.620169.0486761.983436.0874366 1.972282.2172394 2.962028.3858028h.008113c.32.0549859.61476.1090704.885183.1622535.29476.0576902.578704.1162817.851831.1766761 1.426028.3127887 2.748394.6967887 3.966197 1.1510986.859944.3010704 1.647775.6030422 2.384225.9032112.763493.3118874 1.508958.6336902 2.234592.9563944l1.447662.6427042-5.026254 12.1032113-1.383662-.3948169-.001802-.0009014-.01262-.0063099c-1.334986-.3930141-2.670873-.7851267-3.907606-1.0852957l-.044169-.0063099c-.670648-.1829859-1.305239-.3335211-1.916394-.4597183-.675155-.1388169-1.359324-.2605071-2.057916-.3713803v.0009014c-.622873-.083831-1.359324-.1559437-2.229183-.2127324-.827493-.0540845-1.67662-.083831-2.548282-.083831-1.274591.0180282-2.335549.1216902-3.17476.315493-.719324.1658591-1.249352.3849014-1.585578.6589296l-.018929.0189295-.00631.0054085c-.118084.0928451-.217239.1784789-.295662.256-.077521.0766197-.153239.1604507-.226253.2523944-.304677.3849014-.445296.8274929-.429972 1.3196619l.000901.0072113c.003606.1135775.010817.2019155.022535.2632113.015324.0811267.036958.1631549.065803.2451831.167662.4813521.576902.9482817 1.226817 1.4016901l.044169.0378592c.562479.4218591 1.233127.832 1.99662 1.2385352.752676.4011267 1.64507.816676 2.646535 1.2484507l-.001803.004507c.747268.3163944.675155.2848451.864451.3650704.778817.3326198.718422.3055775.888789.3785916 1.367436.5886197 2.960225 1.2908169 4.778366 2.1056901 1.211493.5435493 2.370704 1.1267606 3.476732 1.7505352 1.11324.6273803 2.211155 1.315155 3.293747 2.0651268l.031549.0189296c1.079887.7833239 2.080451 1.6468732 2.988169 2.6032676.909521.9572958 1.71538 1.9966197 2.401352 3.1278873v-.0009014c.738254 1.1637183 1.297127 2.4473239 1.675718 3.8580282.372282 1.3827605.568789 2.8772957.589522 4.4881126v.0558874c-.007212.5074929-.02524.9572957-.054986 1.3503098-.026141.3605634-.075719.7941409-.14693 1.2989296-.314592 2.2237747-.996056 4.2095775-2.044394 5.9556056-.727437 1.2123944-1.566648 2.2940845-2.523944 3.2513803-.969014.9690141-2.056113 1.8181409-3.268507 2.5536902h-.01262c-1.214197.7247324-2.466253 1.3476056-3.770591 1.8668169-1.300733.5183098-2.680789.9455774-4.155493 1.2827042-1.444958.3308169-2.897127.5778028-4.366423.7418591-1.486422.1667606-2.975549.2496902-4.478197.2496902z"/><path d="m54.3035493 80.2208451c-9.9163944 2.7601126-21.1172958 4.5196619-31.512338 2.5473803-3.968-.7526761-7.6268169-2.4265916-11.0936338-4.8531831-3.39740849-2.6348169-6.17104229-6.3792677-8.32000004-11.3712677-2.21836619-5.0614084-3.328-11.8562253-3.328-20.3844507 0-8.5282253 1.31695775-15.3230422 3.8823662-20.5223662 2.35808451-5.2002253 5.40845071-9.0834929 9.15200004-11.648 3.6750422-2.5663098 7.488-4.29971826 11.5100845-5.20022531 3.9517746-.832 7.5574084-1.17904225 10.816-1.17904225 4.8612957.064 15.3753239 1.35121127 20.4114929 4.64946476v16.6409014c-5.1867042-2.6537464-12.4051831-3.9634929-18.1931267-4.0950986-1.7334085 0-3.4668169.207324-5.1299155.5543662-1.6649014.4849578-3.1900845 1.4557747-4.5764507 2.9115493-1.2484507 1.4566761-2.2877747 3.6750423-3.0512676 6.5180845-.9708169 2.9115493-1.3863662 6.656-1.3863662 11.3703662 0 4.16.3470422 7.5574085 1.1096338 10.1228169.5543662 2.6348169 1.2836056 4.795493 2.496 6.2404507 4.5115493 5.3778029 14.5198873 3.5416339 21.336338 1.7649578.6030423 5.4688451 1.979493 11.4019155 5.8771831 15.9332958"/><path d="m92.5124507 47.6854085-4.1545915.1379154c-4.5070423 0-7.7656338.7625916-9.7072677 2.3571831-2.0110422 1.595493-2.9809577 4.5070423-2.9115492 8.7364507 0 3.5362254.6237746 5.8934085 1.9407323 7.2112677 1.2484508 1.3169577 2.9818592 1.8632112 4.992 1.8028169 2.4545353-.0748169 4.2492395-.6517184 6.1106479-1.6108169.0009014 2.3887323.0018029 4.7765633.0018029 7.1643943 0 2.3860282.4389859 4.2050704 1.2060845 5.5914366-2.6898029 1.2169014-4.4286198 2.1417465-7.3455775 2.9665352-3.5939155 1.0167888-7.128338 1.7649578-9.540507 1.8352677-16.6228733.4795493-20.8009015-11.9184226-20.8009015-23.7124507 0-5.0614085.9708169-9.152 2.9124507-12.3420846 1.8028169-3.1891831 4.0211831-5.5463662 6.7948169-7.2103662 2.9115493-1.7334084 5.8934085-2.9124507 9.0131831-3.6056338 3.1206761-.4849577 6.0322254-.6931831 8.7364508-.6931831h12.7576338v-4.2988169c0-2.8430422-.6931831-4.7837746-2.2192677-5.6851831-1.4557746-.832-3.8823661-1.2484507-7.2103661-1.2484507-4.0581409.0558874-19.6696339 1.7099719-23.2969015 3.9526761v-17.1258592c8.1000564-3.13239432 22.1827606-4.25194362 27.0404507-4.29881686 8.3209015-.06940845 15.1842254 1.3863662 20.6620844 4.43763376 2.704226 1.8028169 4.783775 4.2988169 6.378366 7.488 1.387268 3.328 2.080451 7.5574085 2.080451 12.6188169 0 16.7752113.059493 33.5332958.059493 50.3058029l-.064901-.0009014v.2776338h-6.691155c-7.743099 0-16.7436623.8094647-16.7436623-9.9975212 0-6.0962253-.0081127-12.1915493 0-18.288676z"/><path d="m119.965746 8.99605634h19.968l3.051268 7.48890136c.069409-.2082253 2.370704-1.756845 6.933634-4.4376338 2.165183-1.2727887 4.800901-2.1588732 7.764732-3.05126756 2.792564-.84101409 5.755493-1.36292958 8.944676-1.3863662 6.23955-.04597183 11.352338 1.39357747 15.184226 4.57645066 3.934648 3.2667043 5.962817 9.0825916 5.962817 17.3331831v42.9746479c0 10.8060845-9.000564 9.9966197-16.743662 9.9966197h-6.691155v-50.1976338c0-2.4265915-.381296-4.124845-1.248451-4.992-.867155-.8680563-2.634817-1.2078873-5.130817-1.1790422-3.536225.0405634-6.720901.7743099-9.706366 2.1489577-3.184676 1.467493-4.784676 2.2886761-4.854085 2.3580845v51.8616338l-23.285183-.0261408c0-24.6508169-.149634-48.8869859-.149634-73.46839436"/><path d="m199.842254.63278873c6.025915 0 10.940394 4.91538028 10.940394 10.94039437 0 6.0259155-4.914479 10.9403944-10.940394 10.9403944-6.025015 0-10.940395-4.9144789-10.940395-10.9403944 0-6.02501409 4.91538-10.94039437 10.940395-10.94039437"/></g></svg>