<svg height="269" preserveAspectRatio="xMidYMid" viewBox="0 0 256 269" width="256" xmlns="http://www.w3.org/2000/svg"><path d="m219.368083 74.566425c-3.498076-4.9413623-7.416028-9.5688466-11.702478-13.8230466-4.28202-4.2524266-8.933425-8.1333422-13.897522-11.5957538l-8.535695 12.2031166c-4.221786-2.9437148-8.715516-5.5309918-13.429814-7.7192714l-6.297245 13.5144885c3.926809 1.8185418 7.668485 3.968695 11.184276 6.4167663 3.545024 2.4631445 6.86771 5.2224338 9.928195 8.2494948l-10.519917 10.5317605-10.528776 10.5317601c1.843377 1.806129 3.52465 3.77363 5.028762 5.875904 1.50411 2.094293 2.838145 4.314492 3.9649 6.657938l26.97301-12.589701 13.494478-6.2970673 13.486505-6.2970671c-2.602519-5.5008455-5.663005-10.7374659-9.148679-15.6593216zm24.383779-17.084186c-4.500817-6.368-9.534007-12.325476-15.042879-17.8023816-5.507986-5.4777922-11.483683-10.4767874-17.871281-14.9349195-6.344193-4.4297589-13.087888-8.3239744-20.16465-11.6196937-6.98818-3.24783958-14.301454-5.91491616-21.875156-7.93207016-7.403627-1.97104761-15.05971-3.32497911-22.913329-3.99884154l-1.295058 14.8382735c6.974893.5984962 13.777937 1.799922 20.354215 3.5484176l-3.849745 14.3931697c5.885343 1.5667301 11.566062 3.6353104 16.992554 6.1560879 5.508872 2.5553573 10.752 5.5797584 15.68155 9.0173434 4.964097 3.4624116 9.615502 7.3433272 13.897522 11.5957538 4.28645 4.2542 8.204402 8.8816843 11.702478 13.8230466 3.485674 4.9218557 6.54616 10.1584761 9.148679 15.6593216l13.485619-6.2961805 13.490934-6.2952937c-3.339515-7.0773289-7.269869-13.8203866-11.741453-20.1520334zm-65.665329-17.3519578c-5.426492-2.5207775-11.107211-4.5893578-16.992554-6.1560879-5.753356-1.5339237-11.703363-2.5784105-17.803072-3.1042006-2.979876-.2571316-5.988097-.3945641-9.032638-.3945641-3.042767 0-6.060733.1374325-9.036179.3945641-6.096166.5257901-12.045287 1.5702769-17.798644 3.1042006l3.849744 14.3896229c-5.041162 1.3370849-9.911363 3.1095205-14.5583388 5.2676536l6.2928168 13.5162618c3.875432-1.7937155 7.921827-3.2735528 12.11881-4.3898591 4.103086-1.0852732 8.347017-1.8229752 12.693702-2.1971462 2.121522-.1844255 4.264304-.2961448 6.438089-.2961448 2.169357 0 4.313026.1117193 6.438976.2961448 4.346686.374171 8.586188 1.111873 12.688388 2.1971462 4.201412 1.1163063 8.248693 2.5917103 12.119696 4.3880858l6.297245-13.5144885c4.714298 2.1882796 9.208028 4.7755566 13.429814 7.7192714l8.535695-12.2031166c-4.92955-3.437585-10.172678-6.4619861-15.68155-9.0173434zm-33.497024-24.0976752 1.295058-14.8382735c-3.832913-.32983793-7.708346-.50805681-11.626298-.50805681-3.917065 0-7.792497.17821888-11.625411.50805681-7.853619.67386243-15.509702 2.02779393-22.9168718 3.99884154-7.5790174 2.017154-14.8834326 4.68423058-21.8716124 7.93650356-7.0811904 3.2948326-13.8284292 7.1872747-20.1690797 11.6179202-6.3831696 4.4599054-12.3677232 9.4544674-17.8712803 14.9322596l10.5234602 10.5317605c4.8914603-4.863336 10.207225-9.3028482 15.8826298-13.2635634l8.5356955 12.2040035c4.9330934-3.4420184 10.1717924-6.4646462 15.6762353-9.0200035 5.4273771-2.5225508 11.1107544-4.5911311 17.0014114-6.1578612 5.753357-1.5339237 11.702478-2.5784105 17.798644-3.1042006 2.975446-.2571316 5.993412-.3945641 9.036179-.3945641 3.044541 0 6.052762.1374325 9.032638.3945641 6.099709.5257901 12.049716 1.5702769 17.803072 3.1042006l3.849745-14.3931697c-6.576278-1.7484956-13.379322-2.9499214-20.354215-3.5484176zm-33.316319 32.3312102-3.849744-14.3896229c-5.890657 1.5667301-11.5740343 3.6353104-17.0014114 6.1578612-5.5044429 2.5553573-10.7431419 5.5779851-15.6762353 9.0200035-4.9605536 3.4579782-9.6163876 7.3388938-13.8984083 11.5913204-4.2829065 4.2568599-8.1999724 8.8816843-11.7033634 13.8274798l12.1923322 8.5412064c-2.9878477 4.2151869-5.6204843 8.699032-7.8491903 13.4107491l13.4944776 6.2970673c1.8610934-3.9199289 4.0685398-7.6439054 6.5585605-11.1524235 2.5041938-3.5200445 5.2945052-6.8246305 8.3549896-9.8552381 3.0569412-3.027061 6.3831695-5.7845769 9.9246506-8.2494948 3.5237646-2.4480713 7.2610103-4.5982245 11.1878202-6.414993l-6.2928168-13.5162618c4.6469758-2.1581331 9.5171768-3.9305687 14.5583388-5.2676536zm-45.0630862-11.4157617c-5.6754048 3.9607152-10.9911695 8.4002274-15.8826298 13.2635634l-10.5234602-10.5317605c-5.5044429 5.4813389-10.5464914 11.4370415-15.0384498 17.8050415-4.475128 6.3289869-8.4063668 13.0720446-11.7458823 20.1520335-3.29611077 6.9895494-6.00581318 14.3124834-8.06710039 21.9049624-2.01522491 7.4293332-3.41303805 15.1149112-4.12877508 22.9946692l14.82408307 1.299845c.6386712-7.004623 1.8814671-13.83546 3.6823252-20.439312l14.3732041 3.856976c1.6077509-5.901616 3.7257302-11.5930939 6.2972457-17.0283264 2.59809-5.5008455 5.6630035-10.7374659 9.1433633-15.6548884 3.503391-4.9457955 7.4204569-9.5706199 11.7033634-13.8274798 4.2820207-4.2524266 8.9378547-8.1333422 13.8984083-11.5913204zm-26.6638616 141.4818515c-2.5201384-5.482226-4.5867405-11.21449-6.1377993-17.157779-1.5182837-5.803196-2.5467129-11.804119-3.0401107-17.950454-.2276541-2.808055-.3472388-5.644484-.3472388-8.509286 0-3.264687.1585606-6.493906.4544221-9.677906.5616057-6.131262 1.6511557-12.106471 3.2279031-17.880408l-14.3732041-3.856976c-1.8008581 6.603852-3.043654 13.434689-3.6823252 20.439312l-14.82408307-1.299845c-.36406921 4.044061-.56160554 8.136002-.56160554 12.275823 0 3.739936.15944637 7.442633.45442215 11.102769.65195847 7.903698 1.9806782 15.610557 3.93566782 23.068263 2.00636677 7.633265 4.66823529 15.000532 7.91739794 22.037961 3.2969966 7.135849 7.1972318 13.932106 11.6475571 20.327593l12.1914464-8.544754c-3.9524983-5.686157-7.4204568-11.731413-10.3480693-18.079905zm20.4906297-37.70881c-.1541314-1.949768-.2524567-3.919042-.2524567-5.908709 0-2.391326.1240139-4.751618.3383807-7.081763.4119031-4.376559 1.2135639-8.637852 2.3491765-12.763486 1.1577576-4.20632 2.6662976-8.272548 4.5096747-12.147257l-13.4944776-6.2970673c2.228706-4.7117171 4.8613426-9.1955622 7.8491903-13.4107491l-12.1923322-8.5412064c-3.4803598 4.9174225-6.5452733 10.1540429-9.1433633 15.6548884-2.5715155 5.4352325-4.6894948 11.1267104-6.2972457 17.0283264-1.5767474 5.773937-2.6662974 11.749146-3.2279031 17.880408-.2958615 3.184-.4544221 6.413219-.4544221 9.677906 0 2.864802.1195847 5.701231.3472388 8.509286.4933978 6.146335 1.521827 12.147258 3.0401107 17.950454l14.3767474-3.856976c1.3251764 5.097415 3.0870588 10.017497 5.2475571 14.715028l13.5033357-6.298841c-1.792-3.923475-3.2748512-8.021623-4.3723738-12.274049-1.0762629-4.146915-1.7831419-8.440127-2.1268374-12.836193zm29.9351696 88.557938c-5.5434187-2.606784-10.8237508-5.685271-15.7798754-9.19113-4.9853564-3.525364-9.6456194-7.474552-13.9320692-11.797912-4.2784776-4.32336-8.1875709-9.017344-11.6599585-14.028752-3.4591003-4.982149-6.494782-10.277289-9.0538962-15.831334l-13.4856194 6.294408c2.9276125 6.348492 6.395571 12.393748 10.3480693 18.079905l-12.1914464 8.544754c4.4751281 6.4345 9.4950312 12.459361 14.999474 18.002766 5.5079862 5.550498 11.5013979 10.615993 17.9049412 15.137965 6.3707682 4.497145 13.1525536 8.44722 20.2682907 11.794366l6.2937024-13.499415c6.2494117 2.939281 12.8 5.350999 19.589758 7.176635l3.849744-14.392283c-5.941149-1.598651-11.6767893-3.711563-17.1511145-6.289973zm12.5812045-27.006811c-3.9649-1.870855-7.7331491-4.089282-11.2781734-6.603852-3.5662837-2.526985-6.9057993-5.346566-9.9671695-8.446333-3.0604845-3.096222-5.8428235-6.461987-8.3239862-10.053851-2.4652179-3.567925-4.6212871-7.3584-6.4478338-11.336849l-13.5033357 6.298841c-2.1604983-4.697531-3.9223807-9.617613-5.2475571-14.715028l-14.3767474 3.856976c1.5510588 5.943289 3.6176609 11.675553 6.1377993 17.157779 2.5591142 5.554045 5.5947959 10.849185 9.0538962 15.831334 3.4723876 5.011408 7.3814809 9.705392 11.6599585 14.028752 4.2864498 4.32336 8.9467128 8.272548 13.9320692 11.797912l8.5312665-12.201343c4.2519031 3.010215 8.7792941 5.655125 13.5369965 7.891283 4.6983529 2.213993 9.6199309 4.028989 14.7204429 5.402426l3.855059-14.401149c-4.257218-1.14734-8.364734-2.659984-12.282685-4.506898zm100.306823 30.018798c-5.663003 3.998841-11.698048 7.515339-18.026297 10.493634-6.253841 2.939281-12.808858 5.350999-19.594187 7.176635l-3.854173-14.392283c-5.812707 1.564071-11.822948 2.635157-17.991751 3.17336-3.012651.264225-6.05719.403431-9.135392.403431-3.081743 0-6.129826-.139206-9.138933-.403431-6.168803-.538203-12.179045-1.609289-17.99618-3.17336l-3.849744 14.392283c-6.789758-1.825636-13.3403463-4.237354-19.589758-7.176635l-6.2937024 13.499415c7.035128 3.3037 14.3997784 6.01511 22.0337162 8.066843 7.4638612 2.002967 15.1846092 3.379066 23.1064362 4.067115 3.866574.33693 7.775668.517809 11.728165.517809 3.9525 0 7.862479-.180879 11.729053-.517809 7.921826-.688049 15.638145-2.064148 23.106435-4.067115 7.62951-2.051733 14.99416-4.763143 22.024859-8.066843 7.124596-3.345372 13.906381-7.297221 20.277148-11.794366zm29.248664-29.486802-12.191445-8.542979c-3.475931 5.011408-7.381481 9.709826-11.660845 14.028752-4.285564 4.32336-8.950257 8.275207-13.931183 11.797912-4.956125 3.505859-10.237343 6.584346-15.783419 9.19113-5.470782 2.57841-11.210851 4.691322-17.156429 6.289973l3.854173 14.392283c6.785329-1.825636 13.340346-4.237354 19.594187-7.176635 6.328249-2.978295 12.363294-6.494793 18.026297-10.493634l8.535695 12.198683c6.403544-4.518425 12.392527-9.587467 17.900512-15.133531 5.504443-5.546066 10.528776-11.5727 14.999474-18.0072zm-24.378464-17.085959-12.19676-8.550073c-2.485592 3.593637-5.263502 6.960289-8.323987 10.053851-3.069342 3.099767-6.405315 5.921122-9.967169 8.446333l8.542782 12.21819c-4.251904 3.010215-8.778409 5.655125-13.532568 7.893058l6.289274 13.499415c5.546076-2.606784 10.827294-5.685271 15.783419-9.19113 4.980926-3.522705 9.645619-7.474552 13.931183-11.797912 4.279364-4.318926 8.184914-9.017344 11.660845-14.028752zm-21.945134 22.168301-8.542782-12.21819c-3.545024 2.516345-7.317703 4.732997-11.287031 6.603852-3.913522 1.846914-8.01661 3.359558-12.27737 4.506898-4.158007 1.122514-8.462173 1.890361-12.877952 2.274286-2.159612.188859-4.337827.303238-6.541731.303238-2.203017 0-4.384774-.114379-6.540843-.303238-4.415779-.383925-8.719059-1.151772-12.881495-2.274286l-3.855059 14.401149c-5.100512-1.373437-10.02209-3.188433-14.7204429-5.402426-4.7577024-2.236158-9.2850934-4.881068-13.5369965-7.891283l-8.5312665 12.201343c4.9561246 3.505859 10.2364567 6.584346 15.7798754 9.19113 5.4743252 2.57841 11.2099655 4.691322 17.1511145 6.289973 5.817135 1.564071 11.827377 2.635157 17.99618 3.17336 3.009107.264225 6.05719.403431 9.138933.403431 3.078202 0 6.122741-.139206 9.135392-.403431 6.168803-.538203 12.179044-1.609289 17.991751-3.17336 5.945578-1.598651 11.685647-3.711563 17.156429-6.289973l-6.289274-13.499415c4.754159-2.237933 9.280664-4.882843 13.532568-7.893058z" fill="#52c1db"/><path d="m219.368083 74.566425c-3.498076-4.9413623-7.416028-9.5688466-11.702478-13.8230466-4.28202-4.2524266-8.933425-8.1333422-13.897522-11.5957538l-8.535695 12.2031166c-4.221786-2.9437148-8.715516-5.5309918-13.429814-7.7192714l-6.297245 13.5144885c3.926809 1.8185418 7.668485 3.968695 11.184276 6.4167663 3.545024 2.4631445 6.86771 5.2224338 9.928195 8.2494948l-10.519917 10.5317605-10.528776 10.5317601c1.843377 1.806129 3.52465 3.77363 5.028762 5.875904 1.50411 2.094293 2.838145 4.314492 3.9649 6.657938l26.97301-12.589701 13.494478-6.2970673 13.486505-6.2970671c-2.602519-5.5008455-5.663005-10.7374659-9.148679-15.6593216" fill="#52c1db"/><path d="m243.751862 57.482239c-4.500817-6.368-9.534007-12.325476-15.042879-17.8023816-5.507986-5.4777922-11.483683-10.4767874-17.871281-14.9349195-6.344193-4.4297589-13.087888-8.3239744-20.16465-11.6196937-6.98818-3.24783958-14.301454-5.91491616-21.875156-7.93207016-7.403627-1.97104761-15.05971-3.32497911-22.913329-3.99884154l-1.295058 14.8382735c6.974893.5984962 13.777937 1.799922 20.354215 3.5484176l-3.849745 14.3931697c5.885343 1.5667301 11.566062 3.6353104 16.992554 6.1560879 5.508872 2.5553573 10.752 5.5797584 15.68155 9.0173434 4.964097 3.4624116 9.615502 7.3433272 13.897522 11.5957538 4.28645 4.2542 8.204402 8.8816843 11.702478 13.8230466 3.485674 4.9218557 6.54616 10.1584761 9.148679 15.6593216l13.485619-6.2961805 13.490934-6.2952937c-3.339515-7.0773289-7.269869-13.8203866-11.741453-20.1520334" fill="#3b528a"/><path d="m178.086533 40.1302812c-5.426492-2.5207775-11.107211-4.5893578-16.992554-6.1560879-5.753356-1.5339237-11.703363-2.5784105-17.803072-3.1042006-2.979876-.2571316-5.988097-.3945641-9.032638-.3945641-3.042767 0-6.060733.1374325-9.036179.3945641-6.096166.5257901-12.045287 1.5702769-17.798644 3.1042006l3.849744 14.3896229c-5.041162 1.3370849-9.911363 3.1095205-14.5583388 5.2676536l6.2928168 13.5162618c3.875432-1.7937155 7.921827-3.2735528 12.11881-4.3898591 4.103086-1.0852732 8.347017-1.8229752 12.693702-2.1971462 2.121522-.1844255 4.264304-.2961448 6.438089-.2961448 2.169357 0 4.313026.1117193 6.438976.2961448 4.346686.374171 8.586188 1.111873 12.688388 2.1971462 4.201412 1.1163063 8.248693 2.5917103 12.119696 4.3880858l6.297245-13.5144885c4.714298 2.1882796 9.208028 4.7755566 13.429814 7.7192714l8.535695-12.2031166c-4.92955-3.437585-10.172678-6.4619861-15.68155-9.0173434" fill="#00aee8"/><path d="m144.589509 16.032606 1.295058-14.8382735c-3.832913-.32983793-7.708346-.50805681-11.626298-.50805681-3.917065 0-7.792497.17821888-11.625411.50805681-7.853619.67386243-15.509702 2.02779393-22.9168718 3.99884154-7.5790174 2.017154-14.8834326 4.68423058-21.8716124 7.93650356-7.0811904 3.2948326-13.8284292 7.1872747-20.1690797 11.6179202-6.3831696 4.4599054-12.3677232 9.4544674-17.8712803 14.9322596l10.5234602 10.5317605c4.8914603-4.863336 10.207225-9.3028482 15.8826298-13.2635634l8.5356955 12.2040035c4.9330934-3.4420184 10.1717924-6.4646462 15.6762353-9.0200035 5.4273771-2.5225508 11.1107544-4.5911311 17.0014114-6.1578612 5.753357-1.5339237 11.702478-2.5784105 17.798644-3.1042006 2.975446-.2571316 5.993412-.3945641 9.036179-.3945641 3.044541 0 6.052762.1374325 9.032638.3945641 6.099709.5257901 12.049716 1.5702769 17.803072 3.1042006l3.849745-14.3931697c-6.576278-1.7484956-13.379322-2.9499214-20.354215-3.5484176" fill="#3f8abd"/><path d="m111.27319 48.3638162-3.849744-14.3896229c-5.890657 1.5667301-11.5740343 3.6353104-17.0014114 6.1578612-5.5044429 2.5553573-10.7431419 5.5779851-15.6762353 9.0200035-4.9605536 3.4579782-9.6163876 7.3388938-13.8984083 11.5913204-4.2829065 4.2568599-8.1999724 8.8816843-11.7033634 13.8274798l12.1923322 8.5412064c-2.9878477 4.2151869-5.6204843 8.699032-7.8491903 13.4107491l13.4944776 6.2970673c1.8610934-3.9199289 4.0685398-7.6439054 6.5585605-11.1524235 2.5041938-3.5200445 5.2945052-6.8246305 8.3549896-9.8552381 3.0569412-3.027061 6.3831695-5.7845769 9.9246506-8.2494948 3.5237646-2.4480713 7.2610103-4.5982245 11.1878202-6.414993l-6.2928168-13.5162618c4.6469758-2.1581331 9.5171768-3.9305687 14.5583388-5.2676536" fill="#52c1db"/><path d="m66.2101038 36.9480545c-5.6754048 3.9607152-10.9911695 8.4002274-15.8826298 13.2635634l-10.5234602-10.5317605c-5.5044429 5.4813389-10.5464914 11.4370415-15.0384498 17.8050415-4.475128 6.3289869-8.4063668 13.0720446-11.7458823 20.1520335-3.29611077 6.9895494-6.00581318 14.3124834-8.06710039 21.9049624-2.01522491 7.4293332-3.41303805 15.1149112-4.12877508 22.9946692l14.82408307 1.299845c.6386712-7.004623 1.8814671-13.83546 3.6823252-20.439312l14.3732041 3.856976c1.6077509-5.901616 3.7257302-11.5930939 6.2972457-17.0283264 2.59809-5.5008455 5.6630035-10.7374659 9.1433633-15.6548884 3.503391-4.9457955 7.4204569-9.5706199 11.7033634-13.8274798 4.2820207-4.2524266 8.9378547-8.1333422 13.8984083-11.5913204z" fill="#00aee8"/><path d="m39.5462422 178.429906c-2.5201384-5.482226-4.5867405-11.21449-6.1377993-17.157779-1.5182837-5.803196-2.5467129-11.804119-3.0401107-17.950454-.2276541-2.808055-.3472388-5.644484-.3472388-8.509286 0-3.264687.1585606-6.493906.4544221-9.677906.5616057-6.131262 1.6511557-12.106471 3.2279031-17.880408l-14.3732041-3.856976c-1.8008581 6.603852-3.043654 13.434689-3.6823252 20.439312l-14.82408307-1.299845c-.36406921 4.044061-.56160554 8.136002-.56160554 12.275823 0 3.739936.15944637 7.442633.45442215 11.102769.65195847 7.903698 1.9806782 15.610557 3.93566782 23.068263 2.00636677 7.633265 4.66823529 15.000532 7.91739794 22.037961 3.2969966 7.135849 7.1972318 13.932106 11.6475571 20.327593l12.1914464-8.544754c-3.9524983-5.686157-7.4204568-11.731413-10.3480693-18.079905z" fill="#3f8abd"/><path d="m60.0368719 140.721096c-.1541314-1.949768-.2524567-3.919042-.2524567-5.908709 0-2.391326.1240139-4.751618.3383807-7.081763.4119031-4.376559 1.2135639-8.637852 2.3491765-12.763486 1.1577576-4.20632 2.6662976-8.272548 4.5096747-12.147257l-13.4944776-6.2970673c2.228706-4.7117171 4.8613426-9.1955622 7.8491903-13.4107491l-12.1923322-8.5412064c-3.4803598 4.9174225-6.5452733 10.1540429-9.1433633 15.6548884-2.5715155 5.4352325-4.6894948 11.1267104-6.2972457 17.0283264-1.5767474 5.773937-2.6662974 11.749146-3.2279031 17.880408-.2958615 3.184-.4544221 6.413219-.4544221 9.677906 0 2.864802.1195847 5.701231.3472388 8.509286.4933978 6.146335 1.521827 12.147258 3.0401107 17.950454l14.3767474-3.856976c1.3251764 5.097415 3.0870588 10.017497 5.2475571 14.715028l13.5033357-6.298841c-1.792-3.923475-3.2748512-8.021623-4.3723738-12.274049-1.0762629-4.146915-1.7831419-8.440127-2.1268374-12.836193" fill="#3b528a"/><path d="m89.9720415 229.279034c-5.5434187-2.606784-10.8237508-5.685271-15.7798754-9.19113-4.9853564-3.525364-9.6456194-7.474552-13.9320692-11.797912-4.2784776-4.32336-8.1875709-9.017344-11.6599585-14.028752-3.4591003-4.982149-6.494782-10.277289-9.0538962-15.831334l-13.4856194 6.294408c2.9276125 6.348492 6.395571 12.393748 10.3480693 18.079905l-12.1914464 8.544754c4.4751281 6.4345 9.4950312 12.459361 14.999474 18.002766 5.5079862 5.550498 11.5013979 10.615993 17.9049412 15.137965 6.3707682 4.497145 13.1525536 8.44722 20.2682907 11.794366l6.2937024-13.499415c6.2494117 2.939281 12.8 5.350999 19.589758 7.176635l3.849744-14.392283c-5.941149-1.598651-11.6767893-3.711563-17.1511145-6.289973" fill="#52c1db"/><path d="m102.553246 202.272223c-3.9649-1.870855-7.7331491-4.089282-11.2781734-6.603852-3.5662837-2.526985-6.9057993-5.346566-9.9671695-8.446333-3.0604845-3.096222-5.8428235-6.461987-8.3239862-10.053851-2.4652179-3.567925-4.6212871-7.3584-6.4478338-11.336849l-13.5033357 6.298841c-2.1604983-4.697531-3.9223807-9.617613-5.2475571-14.715028l-14.3767474 3.856976c1.5510588 5.943289 3.6176609 11.675553 6.1377993 17.157779 2.5591142 5.554045 5.5947959 10.849185 9.0538962 15.831334 3.4723876 5.011408 7.3814809 9.705392 11.6599585 14.028752 4.2864498 4.32336 8.9467128 8.272548 13.9320692 11.797912l8.5312665-12.201343c4.2519031 3.010215 8.7792941 5.655125 13.5369965 7.891283 4.6983529 2.213993 9.6199309 4.028989 14.7204429 5.402426l3.855059-14.401149c-4.257218-1.14734-8.364734-2.659984-12.282685-4.506898" fill="#00aee8"/><path d="m202.860069 232.291021c-5.663003 3.998841-11.698048 7.515339-18.026297 10.493634-6.253841 2.939281-12.808858 5.350999-19.594187 7.176635l-3.854173-14.392283c-5.812707 1.564071-11.822948 2.635157-17.991751 3.17336-3.012651.264225-6.05719.403431-9.135392.403431-3.081743 0-6.129826-.139206-9.138933-.403431-6.168803-.538203-12.179045-1.609289-17.99618-3.17336l-3.849744 14.392283c-6.789758-1.825636-13.3403463-4.237354-19.589758-7.176635l-6.2937024 13.499415c7.035128 3.3037 14.3997784 6.01511 22.0337162 8.066843 7.4638612 2.002967 15.1846092 3.379066 23.1064362 4.067115 3.866574.33693 7.775668.517809 11.728165.517809 3.9525 0 7.862479-.180879 11.729053-.517809 7.921826-.688049 15.638145-2.064148 23.106435-4.067115 7.62951-2.051733 14.99416-4.763143 22.024859-8.066843 7.124596-3.345372 13.906381-7.297221 20.277148-11.794366z" fill="#3b528a"/><path d="m232.108733 202.804219-12.191445-8.542979c-3.475931 5.011408-7.381481 9.709826-11.660845 14.028752-4.285564 4.32336-8.950257 8.275207-13.931183 11.797912-4.956125 3.505859-10.237343 6.584346-15.783419 9.19113-5.470782 2.57841-11.210851 4.691322-17.156429 6.289973l3.854173 14.392283c6.785329-1.825636 13.340346-4.237354 19.594187-7.176635 6.328249-2.978295 12.363294-6.494793 18.026297-10.493634l8.535695 12.198683c6.403544-4.518425 12.392527-9.587467 17.900512-15.133531 5.504443-5.546066 10.528776-11.5727 14.999474-18.0072z" fill="#00aee8"/><path d="m207.730269 185.71826-12.19676-8.550073c-2.485592 3.593637-5.263502 6.960289-8.323987 10.053851-3.069342 3.099767-6.405315 5.921122-9.967169 8.446333l8.542782 12.21819c-4.251904 3.010215-8.778409 5.655125-13.532568 7.893058l6.289274 13.499415c5.546076-2.606784 10.827294-5.685271 15.783419-9.19113 4.980926-3.522705 9.645619-7.474552 13.931183-11.797912 4.279364-4.318926 8.184914-9.017344 11.660845-14.028752z" fill="#52c1db"/><path d="m185.785135 207.886561-8.542782-12.21819c-3.545024 2.516345-7.317703 4.732997-11.287031 6.603852-3.913522 1.846914-8.01661 3.359558-12.27737 4.506898-4.158007 1.122514-8.462173 1.890361-12.877952 2.274286-2.159612.188859-4.337827.303238-6.541731.303238-2.203017 0-4.384774-.114379-6.540843-.303238-4.415779-.383925-8.719059-1.151772-12.881495-2.274286l-3.855059 14.401149c-5.100512-1.373437-10.02209-3.188433-14.7204429-5.402426-4.7577024-2.236158-9.2850934-4.881068-13.5369965-7.891283l-8.5312665 12.201343c4.9561246 3.505859 10.2364567 6.584346 15.7798754 9.19113 5.4743252 2.57841 11.2099655 4.691322 17.1511145 6.289973 5.817135 1.564071 11.827377 2.635157 17.99618 3.17336 3.009107.264225 6.05719.403431 9.138933.403431 3.078202 0 6.122741-.139206 9.135392-.403431 6.168803-.538203 12.179044-1.609289 17.991751-3.17336 5.945578-1.598651 11.685647-3.711563 17.156429-6.289973l-6.289274-13.499415c4.754159-2.237933 9.280664-4.882843 13.532568-7.893058" fill="#3f8abd"/></svg>