<svg height="256" preserveAspectRatio="xMidYMid" viewBox="0 0 256 256" width="256" xmlns="http://www.w3.org/2000/svg"><path d="m157.335864 243.653424c7.962034-7.962034 12.348746-18.546983 12.348746-29.804475 0-.177898-.002169-.355796-.004339-.535864 11.472271.164881 22.254644-4.252204 30.342509-12.342238 7.962034-7.959864 12.346576-18.549152 12.346576-29.808813 0-.177898 0-.357966-.00217-.535865 11.415865.132339 22.256814-4.254372 30.342509-12.344406 7.962034-7.962034 12.346576-18.549153 12.346576-29.806644 0-11.259661-4.384542-21.84678-12.346576-29.8088139-8.085695-8.0878644-18.926644-12.4854237-30.342509-12.3444068.00217-.1778983.00217-.3557966.00217-.5336949 0-11.2618305-4.384542-21.8467797-12.344407-29.8088136-8.087864-8.0878644-18.904949-12.4919322-30.344678-12.3444067.00217-.1778984.004339-.3557967.004339-.533695 0-11.2618305-4.386712-21.8467796-12.348746-29.8088135-7.962033-7.96203392-18.546983-12.34657629-29.808813-12.34657629-11.257492 0-21.84461 4.38454237-29.8066442 12.34657629-7.9620339 7.9598644-12.3465763 18.546983-12.3465763 29.8088135 0 .1778983 0 .3557966.0021695.533695-11.4332203-.1475255-22.2546441 4.2565423-30.3425085 12.3444067-7.9620339 7.9620339-12.3465762 18.5469831-12.3465762 29.8088136 0 .1778983 0 .3557966.0021694.5336949-11.4418983-.1410169-22.254644 4.2543729-30.3446779 12.3444068-7.95986443 7.9620339-12.3444068 18.5491529-12.3444068 29.8088139s4.38454237 21.84461 12.3444068 29.804474c8.0878644 8.092204 18.9223051 12.478915 30.3446779 12.346576-.0021694.177899-.0021694.357967-.0021694.535865 0 11.259661 4.3845423 21.84461 12.3465762 29.806644 8.0878644 8.087864 18.8593899 12.450712 30.3425085 12.344407-.0021695.180068-.0021695.357966-.0021695.535864 0 11.259661 4.3845424 21.84461 12.3465763 29.804475 7.9598642 7.962034 18.5469832 12.346576 29.8066442 12.346576 11.264 0 21.851118-4.384542 29.808813-12.346576" fill="#0a0b09"/><g fill="#fff"><path d="m190.086508 191.032407c-5.308745 5.304407-12.363932 8.228881-19.872542 8.228881-7.504271 0-14.563797-2.924474-19.870373-8.228881-10.955932-10.958102-10.955932-28.784814 0-39.745085 5.306576-5.306576 12.366102-8.228881 19.870373-8.228881 7.50861 0 14.563797 2.922305 19.872542 8.228881 5.306577 5.310915 8.228882 12.366102 8.228882 19.874712 0 7.504271-2.922305 14.561627-8.228882 19.870373"/><path d="m127.527051 156.574373c-7.506441 0-14.563797-2.920136-19.870373-8.228881-5.306576-5.308746-8.2310509-12.363933-8.2310509-19.870373 0-7.508611 2.9244749-14.563797 8.2310509-19.872543 5.306576-5.308745 12.363932-8.228881 19.870373-8.228881 7.50861 0 14.563796 2.920136 19.872542 8.228881 5.308746 5.308746 8.228882 12.363932 8.228882 19.872543 0 7.50644-2.920136 14.561627-8.228882 19.870373-5.308746 5.308745-12.363932 8.228881-19.872542 8.228881"/><path d="m212.900881 100.373695c7.506441 0 14.563797 2.920136 19.870373 8.228881 5.308746 5.308746 8.233221 12.363932 8.233221 19.872543 0 7.50644-2.924475 14.561627-8.233221 19.870373-5.306576 5.308745-12.363932 8.228881-19.870373 8.228881-7.50644 0-14.563796-2.920136-19.870373-8.228881-5.308745-5.308746-8.23105-12.363933-8.23105-19.870373 0-7.508611 2.922305-14.563797 8.23105-19.872543 5.306577-5.308745 12.363933-8.228881 19.870373-8.228881"/><path d="m170.213966 57.6846102c7.50861 0 14.563797 2.9244745 19.872542 8.2310508 5.306577 5.3087458 8.228882 12.3661017 8.228882 19.8725424s-2.922305 14.5616276-8.228882 19.8703726c-5.308745 5.308746-12.363932 8.231051-19.872542 8.231051-7.504271 0-14.563797-2.922305-19.870373-8.231051-10.955932-10.9559319-10.955932-28.7848133 0-39.742915 5.306576-5.3065763 12.366102-8.2310508 19.870373-8.2310508"/><path d="m107.656678 23.2287458c5.306576-5.3065763 12.363932-8.2288814 19.870373-8.2288814 7.50861 0 14.563796 2.9223051 19.872542 8.2288814 5.308746 5.3109152 8.228882 12.3661017 8.228882 19.8725423 0 7.5064407-2.920136 14.5637966-8.228882 19.8703729-5.308746 5.3087458-12.363932 8.2332204-19.872542 8.2332204-7.506441 0-14.563797-2.9244746-19.870373-8.2332204-5.306576-5.3065763-8.2310509-12.3639322-8.2310509-19.8703729 0-7.5064406 2.9244749-14.5616271 8.2310509-19.8725423"/><path d="m64.9697627 65.915661c5.3087458-5.3065763 12.3639322-8.2310508 19.8703729-8.2310508s14.5637966 2.9244745 19.8747114 8.2310508c10.953763 10.9581017 10.953763 28.7869831 0 39.742915-5.3109148 5.308746-12.3682707 8.231051-19.8747114 8.231051s-14.5616271-2.922305-19.8703729-8.231051c-5.3065763-5.308745-8.2310508-12.3639319-8.2310508-19.8703726s2.9244745-14.5637966 8.2310508-19.8725424"/><path d="m42.1575593 156.574373c-7.5086101 0-14.5637966-2.920136-19.8747118-8.228881-5.3065763-5.308746-8.2288814-12.363933-8.2288814-19.870373 0-7.508611 2.9223051-14.563797 8.2288814-19.872543 5.3109152-5.308745 12.3661017-8.228881 19.8747118-8.228881 7.5042712 0 14.5616271 2.920136 19.8682034 8.228881 5.3087458 5.308746 8.2310509 12.363932 8.2310509 19.872543 0 7.50644-2.9223051 14.561627-8.2310509 19.870373-5.3065763 5.308745-12.3639322 8.228881-19.8682034 8.228881"/><path d="m84.8401356 199.261288c-7.5064407 0-14.5616271-2.924474-19.8703729-8.228881-5.3065763-5.308746-8.2310508-12.366102-8.2310508-19.870373 0-7.50861 2.9244745-14.563797 8.2310508-19.874712 5.3087458-5.306576 12.3639322-8.228881 19.8703729-8.228881s14.5637966 2.922305 19.8747114 8.228881c10.953763 10.960271 10.953763 28.786983 0 39.745085-5.3109148 5.304407-12.3682707 8.228881-19.8747114 8.228881"/><path d="m99.4256271 213.848949c0-7.506441 2.9244749-14.565966 8.2310509-19.872542 5.306576-5.308746 12.363932-8.231051 19.870373-8.231051 7.50861 0 14.563796 2.922305 19.872542 8.231051 5.308746 5.306576 8.228882 12.366101 8.228882 19.872542 0 7.504271-2.920136 14.559458-8.228882 19.870373-5.308746 5.306576-12.363932 8.226712-19.872542 8.226712-7.506441 0-14.563797-2.920136-19.870373-8.226712-5.306576-5.310915-8.2310509-12.366102-8.2310509-19.870373"/></g></svg>