<svg height="256" preserveAspectRatio="xMidYMid" viewBox="0 0 256 256" width="256" xmlns="http://www.w3.org/2000/svg"><path d="m107.860446 118.641168 9.228199 9.176743-9.228199 9.174969h-64.9593484v30.571402l-39.61507118-39.746371 39.61507118-39.0792287v29.9024857zm28.554008-78.067968h78.92851v78.930284h-78.92851z" fill="#932279"/><path d="m137.274996 107.860446-9.174969 9.228199-9.174969-9.228199v-64.9593484h-30.5731759l39.7481449-39.61507118 39.077454 39.61507118h-29.902485zm-.860542 28.554008h78.92851v78.930284h-78.92851z" fill="#efa724"/><path d="m148.057492 137.274996-9.229973-9.174969 9.229973-9.174969h64.957575v-30.5731759l39.616844 39.7481449-39.616844 39.077454v-29.902485zm-107.484292-.860542h78.928509v78.930284h-78.928509z" fill="#262577"/><path d="m118.641168 148.057492 9.174969-9.229973 9.176743 9.229973v64.959349h30.571402l-39.748145 39.61507-39.0756805-39.61507h29.9007115zm-78.067968-107.484292h78.928509v78.930284h-78.928509z" fill="#9ccd2a"/><g fill="#fff"><path d="m37.7538176 37.7538176h84.5672744v84.5672744h-84.5672744zm5.6369902 78.9302834h73.2915192v-73.2915188h-73.2915192zm90.2060382-78.9302834h84.567275v84.5672744h-84.567275zm5.636991 78.9302834h73.291519v-73.2915188h-73.291519zm-5.636991 16.912745h84.567275v84.569049h-84.567275zm5.636991 78.92851h73.291519v-73.291519h-73.291519zm-101.4800194-78.92851h84.5672744v84.569049h-84.5672744zm5.6369902 78.92851h73.2915192v-73.291519h-73.2915192z"/><path d="m60.1882226 187.75773-59.7996482-59.799648 59.797874-59.797874 59.7996486 59.797874zm-51.82588861-59.799648 51.82588861 51.825888 51.8241144-51.825888-51.8258886-51.8241145zm119.59574801-7.971985-59.797874-59.7978744 59.797874-59.7996482 59.797874 59.7996482zm-51.8241145-59.7978744 51.8241145 51.8241144 51.825888-51.8241144-51.825888-51.82588861zm119.5957485 127.5695074-59.797875-59.799648 59.797875-59.797874 59.797873 59.797874zm-51.825889-59.799648 51.825889 51.825888 51.824113-51.825888-51.824113-51.8241145zm-15.945745 127.569507-59.797874-59.797873 59.797874-59.797875 59.797874 59.797875zm-51.8241145-59.797873 51.8241145 51.824113 51.825888-51.824113-51.825888-51.824115z"/></g></svg>