<svg height="296" preserveAspectRatio="xMidYMid" viewBox="0 0 256 296" width="256" xmlns="http://www.w3.org/2000/svg" xmlns:xlink="http://www.w3.org/1999/xlink"><linearGradient id="a" x1="50%" x2="50%" y1="45.226802%" y2="100%"><stop offset="0" stop-color="#f7f6f3"/><stop offset="1" stop-color="#fef6d5"/></linearGradient><path d="m11.071 215.711 116.926 67.509 116.932-67.509v-135.015l-116.932-67.507-116.926 67.507zm116.926 80.289-127.997-73.9v-147.794l127.997-73.902 128.003 73.902v147.794z" fill="#a1070c"/><path d="m9.579 79.833 118.421-68.37 118.421 68.37v136.741l-118.421 68.37-118.421-68.37z" fill="url(#a)"/><path d="m182.332279 98.173325c0 5.371413-1.060132 10.707408-3.180426 16.008145-2.120295 5.300736-4.964981 10.212678-8.534144 14.735974-3.569162 4.523295-7.686006 8.481119-12.350654 11.87359-4.664649 3.392472-9.505915 5.830774-14.523946 7.31498l-2.226298-3.710497c2.968412-1.484206 5.689416-3.392443 8.163093-5.724767s4.59394-4.964984 6.360852-7.898058c1.766913-2.933074 3.127415-6.042793 4.081547-9.32925.954133-3.286456 1.431192-6.62587 1.431192-10.018342 0-3.887207-.565403-7.562329-1.696227-11.025477-1.130824-3.4631477-2.791697-6.4845222-4.982668-9.064214s-4.894306-4.6116104-8.110086-6.0958166c-3.21578-1.4842063-6.908572-2.2262983-11.078484-2.2262983-5.088707 0-9.753286.989456-13.993875 2.9683977-4.240589 1.9789416-8.057062 4.6469391-11.449534 8.0040722-3.392471 3.3571332-6.34317 7.208944-8.852186 11.555548-2.5090151 4.346604-4.5939402 8.905169-6.2548376 13.675832-1.6608975 4.770663-2.9153864 9.594261-3.7635042 14.470939-.8481179 4.876677-1.2721704 9.47058-1.2721704 13.781846 0 4.381942.4593902 8.90517 1.3781846 13.569818.9187943 4.664648 2.2616275 9.258551 4.0285397 13.781846s3.9578504 8.799159 6.5728809 12.827719c2.61503 4.028559 5.636404 7.562331 9.064214 10.60142s7.244283 5.459722 11.449534 7.261973c4.205251 1.80225 8.781485 2.703362 13.728839 2.703362 3.392471 0 6.696548-.45939 9.912328-1.378185 3.21578-.918794 6.30783-2.155614 9.276242-3.710497 2.968413-1.554883 5.777761-3.392444 8.42813-5.512738 2.650368-2.120295 5.106339-4.417246 7.367987-6.890924l3.498468 3.392455c-3.109765 4.099236-6.802556 8.039391-11.078484 11.820583-4.275927 3.781193-8.887499 7.138275-13.834853 10.07135-4.947354 2.933074-10.12433 5.265363-15.531081 6.996937s-10.760415 2.597348-16.061151 2.597348c-5.159384 0-10.01832-.901112-14.576953-2.703362-4.5586338-1.802251-8.7461529-4.240553-12.5626832-7.31498-3.8165304-3.074427-7.2266198-6.678874-10.2303705-10.813449-3.0037508-4.134574-5.5480662-8.53412-7.6330226-13.198768s-3.6751535-9.470577-4.7706391-14.417931c-1.0954855-4.947355-1.6432201-9.788621-1.6432201-14.523946 0-6.855619 1.1484757-13.905493 3.4454616-21.149833 2.2969858-7.24434 5.4597112-14.276546 9.4882711-21.096827 4.0285598-6.820281 8.7814823-13.269414 14.2589101-19.347592 5.4774279-6.0781775 11.3788257-11.3788346 17.7043717-15.9021298 6.325546-4.5232953 12.933698-8.1100732 19.824656-10.7604415 6.890957-2.6503683 13.764143-3.9755326 20.619762-3.9755326 4.240589 0 8.198413.61841 11.873591 1.8552485 3.675177 1.2368386 6.855571 3.0213931 9.541278 5.3537172s4.805969 5.2300167 6.360852 8.6931646 2.332313 7.4209719 2.332313 11.8735906z" fill="#a1070c"/></svg>