<svg height="263" preserveAspectRatio="xMidYMid" viewBox="0 0 256 263" width="256" xmlns="http://www.w3.org/2000/svg"><path d="m115.128219 0c-34.7669465 1.4012771-29.558573 9.12763949-36.0409624 34.6026928-6.4332538 30.5949828-20.142086 94.9019002-20.1912216 94.9720942-.0456259.066684-1.9864821-.249188-3.8817123-.56155-10.3851599-1.709217-26.8659418-2.477838-35.6127804-1.656572-12.28425076 1.154687-19.4015423 5.24698-19.4015423 11.153781 0 2.620051 1.35494924 4.467479 4.42009812 6.032448 2.22310509 1.134857 2.5523136 1.200523 8.88371638 1.656151 18.0990979 1.302339 32.8443403 5.240311 46.1628954 12.32777 16.7794562 8.928992 31.9279614 21.144804 49.9709041 40.294701 4.730355 5.021308 11.140795 12.169134 25.489092 28.439334 12.287059 13.93275 18.495342 19.830777 26.454256 25.116013 7.248554 4.813885 15.337677 8.22916 22.681344 9.574773 4.701925.861628 13.548088.566183 18.008899-.603244 7.41035-1.942541 13.223793-5.236101 18.689076-10.583809 5.517928-5.3993 9.174669-11.618112 11.06639-18.831569 1.08165-4.124232 1.323572-11.720595.504517-15.771825-1.710094-8.457641-5.60918-15.343293-12.2839-21.661429-4.253037-4.025961-9.275397-7.233813-18.535352-11.866949-5.022009-2.51283-7.969092-4.189512-7.863801-4.45309.092525-.231944 13.053573-20.449885 28.812413-44.934505 15.758489-24.484971 29.187599-45.4890358 29.832328-46.6788193.64487-1.1882391 1.495758-2.7134081 1.897406-3.3890226.912062-1.5341538 1.817737-4.9609407 1.809664-6.833007-.049135-11.1713295-13.098146-26.8139985-34.054479-40.8141345-24.57131-16.4063766-56.351513-29.11635225-84.035914-33.60383634-8.381129-1.35842383-15.060061-1.91941199-22.781369-1.91941199zm39.066311 41.5441491c3.920319-.0038255 7.836075.2872994 10.452195.8554859 20.91176 4.5415332 36.342795 19.7893626 41.228277 40.7439408.918134 3.9392712 1.394152 17.4701622.603245 17.1427082-.266235-.110207-2.85162-1.1798155-5.747111-2.3690374-9.683924-3.9771758-10.546254-4.8581069-12.689619-13.1283302-1.844901-7.1179934-4.45695-11.633555-9.497911-16.3860204-2.536906-2.3916402-5.637608-4.6183953-6.065088-4.354116-.141946.0877246-.606298 1.0909156-1.03097 2.2264744l-.767744 2.0619403 1.765793 1.8206495c2.352051 2.4147339 4.665776 7.0460449 4.694205 9.3884091.040515 3.3337451-1.943313 5.3828049-5.220658 5.3852617-2.623174.0017548-3.862409-.9688137-5.582506-4.3653471-1.189362-2.3483657-1.644428-2.906862-2.950312-3.5974278-2.057623-1.0881078-4.428872-1.0909857-6.032447-.0109502-1.522502 1.0254951-2.873556 3.447459-2.873556 5.1659063 0 2.1570529 1.258995 4.165295 5.670249 9.0483206 2.289578 2.5344142 4.671391 5.3968437 5.297519 6.3721853 6.195648 9.6551449-.006142 23.0740779-12.086655 26.1580379-1.150475.29368-2.903844.537403-3.904526.537403h-1.820649l-.877422 2.193554c-.483564 1.206454-.821828 2.299195-.745808 2.423859.31729.520311 6.465543 1.082878 9.947853.910342 7.544421-.373851 14.689088-3.133833 20.641164-7.962775 1.207437-.979518 2.312988-1.779691 2.45678-1.776778.650344.013161 16.405323 6.650152 16.506402 6.953389.181314.543931-6.860733 7.498093-9.750258 9.629876-7.217668 5.323842-15.814292 8.820191-24.710292 10.057355-4.201796.584433-11.751832.429445-16.122794-.340001-18.935807-3.333394-34.415978-16.518686-40.743941-34.702017-2.249007-6.461331-2.785813-9.842913-2.785813-17.3947038 0-5.5435484.128721-7.2720686.767744-10.2328395 2.348857-10.8824823 6.862137-19.2281638 14.609066-27.0028195 7.684106-7.7111303 16.021715-12.2407306 26.870855-14.5869555 2.650796-.5733422 6.575747-.8626105 10.496066-.8664712zm-.153549 17.1644687c-.491602-.0017548-.960601.0116522-1.392924.0328858-14.938275.7339805-27.570687 10.2700421-32.212246 24.3154532-4.012624 12.1421085-1.495407 24.7520582 6.887758 34.5595232 2.321482 2.715901 8.25443 7.520204 8.708232 7.052363.136509-.140665.553162-1.039253.932243-2.007119l.690987-1.765793-1.381939-1.041956c-2.553507-1.920745-5.067284-5.804669-6.405176-9.893102-.959268-2.930868.011862-5.452296 2.610328-6.777905 3.395727-1.732345 6.03315-.247046 8.412366 4.738076 1.242218 2.602853 2.905563 4.133708 5.385262 4.957431 4.818447 1.600382 10.408323-2.137363 10.408323-6.953389 0-2.246866-1.377376-4.606463-5.33051-9.1034229-6.598911-7.5072176-8.236881-10.7926343-7.918553-15.8922076.254112-4.0729902 1.781481-7.6328644 4.562591-10.6059191 2.525886-2.7001766 5.066232-4.0073591 9.530903-4.9244399l3.125796-.6471159 1.019985-2.4019586c.560075-1.3230111.944105-2.4778381.855486-2.5664577-.520838-.5208373-5.04763-1.0634347-8.489228-1.0748412z" fill="#005197"/></svg>