<svg height="256" preserveAspectRatio="xMidYMid" viewBox="0 0 256 256" width="256" xmlns="http://www.w3.org/2000/svg"><path d="m248.3523 84.4616c-6.413-17.741-16.607-33.673-29.656-46.777l-.414.761v41.526l.414.76c.16.013.114.478.274.492 9.168.792 19.041 1.885 28.917 3.499.206.034.258-.295.465-.261" fill="#c0d84b"/><path d="m218.6965 80.732v-43.047c-10.497-10.537-22.828-19.239-36.453-25.626l-.621 1.353v65.208l.621 1.06c.153-.005.742.5.895.496 11.069-.324 22.741-.024 35.036.986.319.026.202-.457.522-.43" fill="#65c1ed"/><path d="m174.0681 80.0512c.217-.013.614.348.832.335 2.22-.128 4.434-.176 6.705-.252.261-.009.377-.446.638-.454v-67.622c-11.343-5.316-23.587-9.009-36.449-10.797l-.743.874v60.526l.743 1.213c10.785 2.985 20.437 8.643 28.274 16.177" fill="#2f95d2"/><path d="m182.2435 89.4637.335-.534v-8.759l-.335-.491c-2.761.086-5.488.21-8.175.371 2.998 2.881 5.756 6.014 8.175 9.413" fill="#1c75bc"/><path d="m128 61.4492c6.167 0 12.128.856 17.794 2.425v-62.613c-5.817-.81-11.751-1.259-17.794-1.259-6.339 0-12.567.48-18.661 1.37l-.603.698v61.306l.603.745c5.927-1.727 12.181-2.672 18.661-2.672" fill="#2a75bb"/><path d="m109.3392 64.1207v-62.749c-12.871 1.879-25.118 5.667-36.444 11.078l-.734 1.466v76.014l.734.75c8.586-12.653 21.416-22.177 36.444-26.559" fill="#bf65a7"/><path d="m72.8957 90.6804v-78.231c-13.671 6.53-25.983 15.427-36.45 26.14l-.665.838v98.141l.665 1.191c.141-.142.345.426.487.284 7.252-7.246 15.491-14.329 24.815-20.934.238-.168.415-1.047.654-1.215 1.612-9.586 5.248-18.484 10.494-26.214z" fill="#f37321"/><path d="m36.4453 138.7596v-100.171c-22.537 23.074-36.445 54.612-36.445 89.414 0 16.201 3.049 31.675 8.544 45.937.183-.292.573.14.76-.153 6.754-10.65 15.431-22.162 26.411-33.355.31-.316.416-1.357.73-1.672" fill="#ffcf01"/><path d="m8.5449 173.9392c6.309 16.377 15.859 31.141 27.901 43.475l.506-1.293v-76.145l-.506-1.217c-11.731 11.797-20.882 23.988-27.901 35.18" fill="#faa61a"/><path d="m61.4492 128.0026c0-3.788.343-7.493.952-11.108-9.802 6.878-18.417 14.286-25.955 21.865v78.655c10.466 10.713 22.78 19.608 36.45 26.139l.696-.75v-75.624l-.696-1.856c-7.223-10.645-11.447-23.49-11.447-37.321" fill="#ed1c24"/><path d="m182.2435 79.68v9.784c7.74 10.878 12.31 24.17 12.31 38.539 0 14.367-4.57 27.659-12.31 38.538v77.403c13.625-6.389 25.956-15.087 36.453-25.628l1.181-2.467v-134.047l-1.181-1.07c-12.818-1.087-24.961-1.407-36.453-1.052" fill="#27aae1"/><path d="m72.8957 165.3233v78.23c11.325 5.412 23.574 9.198 36.444 11.081l.828-1.027v-60.916l-.828-.808c-15.029-4.382-27.858-13.909-36.444-26.56" fill="#92278f"/><path d="m128 194.5517c-6.48 0-12.734-.941-18.661-2.669v62.751c6.094.891 12.322 1.366 18.661 1.366 6.043 0 11.977-.447 17.794-1.258l.558-1.396v-60.394l-.558-.822c-5.666 1.568-11.627 2.422-17.794 2.422" fill="#21409a"/><path d="m145.7939 192.1293v62.612c12.862-1.79 25.106-5.479 36.45-10.798l.944-1.855v-74.388l-.944-1.16c-8.743 12.279-21.543 21.461-36.45 25.589" fill="#1c75bc"/><path d="m255.1435 113.3698c-1.139-10.038-3.467-19.711-6.791-28.908-10.27-1.696-20.148-2.922-29.656-3.731v137.584c19.811-19.895 33.102-46.278 36.447-75.68.547-4.807.856-9.681.856-14.633 0-4.953-.309-9.828-.856-14.632" fill="#8dc63f"/></svg>