<svg height="79" preserveAspectRatio="xMidYMid" viewBox="0 0 512 79" width="512" xmlns="http://www.w3.org/2000/svg"><path d="m510.481619 40.8830334c-.753069 0-1.451034.36633-1.851038.9826623-1.208175 1.827568-2.409206 3.6020743-3.788811 5.2214771-1.321441 1.5449123-5.44903 4.1133036-8.876613 4.7571871l-1.357156.2551044.163267-1.3785842.153063-1.3061346c.111225-.9275597.223471-1.815323.294901-2.7030864.56225-6.8367983-.029592-11.9286824-1.927569-16.530766-1.716343-4.1633041-4.021466-6.7041441-7.25619-8.0102787-1.204093-.4898004-2.325532-.7357211-3.326562-.7357211-2.214306 0-4.010241 1.1938887-5.499031 3.6530952-.153062.2551044-.296941.5102089-.470412.7959258l-.68368 1.2040928-.92858-.7653132c-.428575-.346942-.836743-.6836798-1.255114-1.0306218-.968376-.80613-1.896956-1.5714432-2.856149-2.3061439-.775517-.5816381-1.674505-1.0918469-2.613289-1.6224641-2.040836-1.153072-4.173509-1.7449142-6.357202-1.7449142-3.947996 0-7.970483 1.9377731-11.031736 5.3265802-5.00821 5.5306637-8.019462 12.3572578-8.949063 20.2654946-.111225 1.0091931-.396942 2.3255319-1.510218 3.5500331-3.703095 4.0612622-8.131708 8.6225292-13.968497 11.5205153-1.255114.6224548-2.78574 1.0306219-4.428613 1.2040929-.183675.0214287-.36633.0306125-.530617.0306125-.867355 0-1.530626-.2653086-1.990835-.7755174-.48878-.5510256-.671435-1.326543-.560209-2.367369.265309-2.3061439.602046-4.7653505 1.285726-7.1327194 1.102051-3.8265662 2.316348-7.6827246 3.500033-11.4174532.61225-1.9489977 1.225521-3.9081996 1.827568-5.8571974.336738-1.1122552 1.030622-1.6326682 2.243898-1.6826687 1.501035-.0622454 2.950028-.1336747 4.316367-.4591879 1.998998-.459188 3.437787-1.3979722 4.163304-2.7041068.73368-1.3367471.765313-3.0918655.091838-5.0918841-.062246-.173471-.123471-.3367378-.192859-.4989843l-7.32864.7030678.286737-1.3571555c.131634-.662251.275513-1.2959304.408167-1.9183852.305105-1.387768.591843-2.7143109.815314-4.0194251.388779-2.2663476.602047-4.9092294-.663271-7.33680298-1.407156-2.69390261-4.305142-4.36738757-7.571499-4.36738757-.723476 0-1.459198.08163341-2.182674.25510441-5.409234 1.2653179-9.490904 4.67351284-12.479708 7.62354034l1.795935 9.8970308-1.020417.1632669c-.510209.0918376-.980622.1632668-1.419401.2244919-.876539.1336747-1.632668.2449002-2.356145.4295958-1.889813.4693921-3.10309 1.2540933-3.623503 2.3367564-.520413 1.0714386-.36633 2.5204316.43878 4.3061625.143879.3367379.31735.6530673.480617.9581722l6.519448-1.1724599-.265309 1.4489931c-.151021.8367425-.284696 1.6632808-.418371 2.4694107-.510209 3.2143157-.998989 6.2551603-2.774515 9.1531464-5.664339 9.2551882-11.755212 15.6736152-19.143036 20.1940655-2.214306 1.3571554-5.215354 2.9694153-8.694978 3.3979908-.743885.0918376-1.478586.1428584-2.182674.1428584-3.623503 0-6.69496-1.1632761-8.878654-3.3571741-2.162265-2.1734896-3.284724-5.2347425-3.264316-8.866409l.010204-1.3571555 1.305114.3877587c.408167.1326543.817355.2551045 1.225522.3877588.765313.234696 1.510218.4693921 2.275531.6836798 1.61226.4398 3.284725.6632715 4.949026.6632715 10.427648-.0102042 18.83589-8.2755872 19.143035-18.83691.183675-6.4490396-2.449002-10.9909186-7.816399-13.520534-2.184714-1.0204176-4.500042-1.5204223-7.113331-1.5204223-1.325523 0-2.743904.1428585-4.213305.4081671-7.489866 1.3775638-13.654209 5.6531138-18.857318 13.0919585-2.011244 2.8673737-3.642891 6.1429143-5.285764 10.632752-.591842 1.6122599-1.510218 3.2857449-2.806148 5.1122925-2.132673 3.0204363-4.817392 6.4490396-8.460283 9.0000837-1.386748.979601-2.917374 1.6826688-4.418409 2.0510395-.346942.0816334-.703067.1224501-1.040826.1224501-1.060214 0-1.998998-.408167-2.662269-1.1428677-.663272-.7449049-.958172-1.7653226-.827559-2.8683941.31735-2.7245151.876539-4.9990261 1.704098-6.9796567.918375-2.1928776 1.978589-4.3571834 3.011252-6.4480192.834702-1.6938933 1.704098-3.4388075 2.469411-5.1837217 1.448993-3.2653365 1.998998-6.3480183 1.681648-9.3980466-.520413-4.9796382-3.805137-7.9490536-8.775592-7.9490536-.234696 0-.468372.0102042-.703068.0204084-4.215345.234696-7.806195 2.1438975-11.113368 4.0714664-1.254094.7347007-2.488799 1.5408307-3.805138 2.4081857-.633679.4173508-1.287767.8459262-1.98063 1.2959304l-3.111254 2.0000186 1.641852-3.3163574.307146-.6326589c.161226-.3367379.294901-.6020464.438779-.8571509 2.019407-3.7449328 4.010242-7.8266034 4.857189-12.2143993.284696-1.4602177.357146-2.9694154.213267-4.3469792-.213267-2.20410218-1.426544-3.40921543-3.408195-3.40921543-.43878 0-.918376.06224548-1.41736.18469559-2.184714.53061719-4.276571 1.70409749-6.389856 3.58166594-6.018423 5.3776011-9.050084 11.3164319-9.253147 18.1736385-.104083 3.6837078.968376 6.2857728 3.703096 8.9909l.56225.5612297-.398983.6836798c-.418372.7142924-.836743 1.4387889-1.24593 2.1632855-.92654 1.6224641-1.877569 3.2949286-2.927579 4.8980047-4.909229 7.4796615-10.53071 13.0817544-17.183833 17.1134246-2.397982 1.4591972-5.317396 2.9898237-8.703142 3.3867662-.725517.0816334-1.448993.1224501-2.144918.1224501-7.172516 0-11.846029-4.4694293-12.203175-11.6725576-.010204-.2255123.020408-.3989833.051021-.5408213l.030612-.1632669.192859-1.1428677 1.112256.3367378c.418371.1326543.836742.2653086 1.24593.3979629.867355.2765331 1.683689.5408213 2.509207.7449049 1.54083.3877587 3.10309.581638 4.663308.581638 5.612297 0 10.96949-2.521452 14.684831-6.9184317 3.642891-4.3163667 5.20413-9.9592763 4.265346-15.4797359-1.020418-6.0408725-6.020465-10.6633645-12.163379-11.2347984-.909192-.0816334-1.806139-.1326543-2.694923-.1326543-8.121504 0-15.090957 3.6735036-21.315504 11.2245943-2.429615 2.9388028-4.133712 6.3367936-5.950056 10.1521352-1.653076 3.4694201-4.816371 5.5918888-7.040881 6.8878192-2.061244 1.1836845-3.877588 1.73471-5.724544 1.73471-.193879 0-.387758 0-.581638-.0102041l-1.275522-.0816334.357146-1.2245012c.255105-.8367425.510209-1.673485.75511-2.4887987.561229-1.8265476 1.091846-3.5418697 1.530626-5.3061718 1.316339-5.3980094 1.469401-9.7970299.479596-13.8470676-1.102051-4.449021-4.020445-6.9082276-8.23477-6.9082276-.448984 0-.918376.0295921-1.397972.0918376-2.17349.2449003-3.969425 1.4898098-5.469439 3.7857495-2.449002 3.7643208-3.520441 8.3061998-3.34697 14.3062556.163267 5.6235217 1.510218 10.2154012 4.112283 14.0103344.367351.5408214.530617 1.5091977.163267 2.1632855-1.673485 2.8469652-3.663299 5.7143388-6.908227 7.3470071-1.36736.6836798-2.73472 1.0306218-4.071467 1.0306218-2.775536 0-5.214334-1.4694014-6.877615-4.1439161-1.795935-2.887782-2.734719-6.2653644-2.877578-10.3368309-.275512-7.8459913 1.469402-15.1623859 5.183722-21.7655086l.061225-.1112255c.091838-.1938794.234696-.4898005.510209-.7244966.908172-.786742.887763-1.3571554-.102042-3.0612529-1.673485-2.9092108-4.591879-4.6439208-7.816399-4.6439208-2.693903 0-5.295968 1.1938887-7.306191 3.3469699-3.040844 3.2551324-5.01025 7.4694573-6.204139 13.2552254-.346942 1.6826687-.551025 3.4388075-.755109 5.142905-.102042.9173555-.214288 1.8367518-.336738 2.7439031-.081633.5316376-.204083 1.1428678-.540821 1.6643012-5.693931 8.6521213-12.091949 14.7440147-19.571611 18.6522143-3.040844 1.5816474-5.867401 2.3581852-8.653142 2.3581852-1.469401 0-2.938802-.2255123-4.387796-.6540877-4.898004-1.4898098-8.040891-6.152098-7.806195-11.6123529l.061225-1.3163388 1.265318.3775545c.397963.1224502.785722.2449003 1.183685.3775546.765313.234696 1.530626.4795963 2.306144.693884 1.61226.4398 3.27554.6632715 4.938821.6632715 10.438873-.0102042 18.847114-8.2755872 19.15324-18.8267058.183675-6.4592438-2.449003-11.0001024-7.8164-13.520534-2.183693-1.0306218-4.500041-1.5306265-7.112311-1.5306265-1.326543 0-2.744923.1428585-4.20412.4081671-7.50007 1.3775638-13.663393 5.6531138-18.867523 13.0807339-2.285735 3.2653365-4.020446 6.7959816-5.153109 10.4898936-.92858 2.9898237-2.867374 5.2347425-4.755146 7.4082322l-.081634.1030621c-2.29594 2.653086-4.938821 5.0398429-6.969452 6.81639-.816335.7040882-2.071448 1.1734803-3.744933 1.3775638-.183675.0306126-.346942.0408167-.510209.0408167-1.010214 0-1.591852-.4173508-1.897977-.7755174-.479596-.5510255-.653067-1.3061346-.520413-2.2449188.31633-2.274511.724497-4.0704461 1.275522-5.6531139.724497-2.0704274 1.520422-4.1520794 2.285736-6.1633226.938784-2.447982 1.908181-4.9898423 2.744923-7.5092535 1.683689-5.0204549 1.265318-9.2051877-1.265318-12.8174662-2.081652-2.9796196-5.20413-4.3663672-9.8164175-4.3663672h-.2551044c-6.01026.0704088-12.9286918.8357221-18.7960933 6.3561816-.2244919.2142877-.4387796.5612297-.6836798.8877634-.3163295.4489837-.1428585.2142877-.520413.7755174l-.632659.8877633-.0102042.0510209-.0102041-.0204083.0204083-.0306126.1530627-.5714339c.346942-1.2347053.693884-2.4694107 1.040826-3.7041161.7959258-2.8275773 1.6122599-5.7449514 2.3265522-8.6327333l.3163295-1.2653179c.6836798-2.7041068 1.387768-5.5010716 1.561239-8.23477053.285717-4.28575416-2.6530859-7.75517419-6.9694526-8.24497467-.2142877-.02040835-.3877587-.09183759-.5306172-.173471h-2.2755313c-4.7041254 1.11225525-9.0511046 3.68370774-13.2960421 7.85721596-.0612251.06122506-.1428585.19387936-.1836752.29592112 1.6122599 4.30616252 1.4489931 8.78579602 1.0714386 12.60215812-.6122506 6.244956-1.4591973 12.8990996-2.653086 20.9083578-.2551044 1.6734849-1.2857262 3.183703-2.2143063 4.5510627-5.5918887 8.1735454-11.9797033 14.102172-19.5307939 18.1124134-3.5306451 1.8775685-6.5918981 2.7653319-9.6939678 2.7755361-5.142905 0-9.653151-3.6826874-10.7245896-8.7755919-1.0816427-5.0816799-.408167-10.347035 2.1224688-16.5409702 1.2551137-3.1020697 3.1734989-7.0408819 6.8061857-9.9286638.9591926-.7653133 2.1836938-1.3673597 3.4490117-1.6928729.5102089-.1224501 1.0102135-.1938794 1.4796056-.1938794 1.2449096 0 2.3265523.4693921 3.0306405 1.3163388.7857216.9387842 1.0612343 2.2755314.7959257 3.7755453-.3775545 2.0816521-1.0918469 4.102079-1.8571601 6.1633227-.4591879 1.2347053-1.1428678 2.5408399-2.020427 3.8775871-.2449002.3673503-.2959211.48878.1632669.9796009 1.1122552 1.1836845 2.5000232 1.7653226 4.2551416 1.7653226.3877587 0 .8163341-.0306125 1.2449095-.092858 3.3775825-.4795963 6.2551603-2.2030817 8.1123204-4.8571881 1.8775685-2.6939026 2.5204316-6.0510767 1.7959351-9.4490675-1.6224641-7.6123157-7.336803-11.9694991-15.663411-11.9694991-.2449003 0-.5000047 0-.7551091.0112246-7.3061904.2244919-13.6838008 3.3265615-18.9389517 9.2347798-7.61231576 8.5408958-11.13275668 18.3267011-10.4694852 29.071699.51020883 8.1837497 4.17350822 13.7542097 10.8878564 16.5409703 2.6224734 1.0908265 5.4184178 1.6224641 8.5511 1.6224641 1.5306265 0 3.1734989-.1326543 4.8775964-.3877588 8.8674294-1.3571554 16.7654621-5.5418883 24.8777825-13.1429794.9081717-.8469466 1.8367518-1.6643012 2.6632901-2.3887977l.9489884-.8357221 1.8367518-1.6336887-.1428585 2.4592066c-.0306125.520413-.0714292 1.0918469-.1224501 1.6836891-.112246 1.4275643-.2346961 3.0398242-.1938794 4.6122878.0510209 1.6224641.3367378 3.234724.8265383 4.6735129.979601 2.8275773 3.408195 4.3775918 6.9184317 4.3775918 2.6122692-.0102042 4.8571881-.7244966 6.642919-2.1020604.2653086-.2040835.4489838-.5000047.4693921-.6224548.4795963-2.5612483.9285801-5.1327008 1.387768-7.6939491.7040882-4.0000372 1.4387889-8.1419125 2.2449189-12.193991.6428631-3.2245198 1.448993-6.4592438 2.2347146-9.5817218.285717-1.1122553.5612298-2.2347147.8367425-3.3571741.112246-.4387796.3877587-1.2449096 1.0102135-1.6938933 3.1939073-2.274511 6.1327101-3.3367658 9.2755965-3.3367658h.1224501c1.6326683.0204084 2.9898238.5510256 3.9388122 1.5306265.8979675.9275597 1.3571555 2.2030817 1.3163388 3.6632994-.0714293 2.4387982-.3979629 4.9490256-.9693968 7.4684368-.520413 2.2755314-1.1224594 4.5510628-1.7040975 6.7551649-.6632715 2.5000233-1.3469513 5.08168-1.8979768 7.6429283-.6428632 2.9592112-.4183713 5.9490349.6632714 8.6429376 1.2040929 3.010232 3.6122785 4.6439207 7.1429236 4.8582084.3061253.0204084.6020465.0295921.9081718.0295921 3.4286033 0 6.7755731-1.1428677 10.5409141-3.6010539 3.979629-2.5918608 7.591908-6.0612809 11.714395-11.246023l.153063-.1928589c.142858-.1938794.295921-.3775546.459188-.5724543.255104-.285717.571433-.3571462.632659-.3673504l.969396-.346942.336738.979601c.204084.6224547.397963 1.2347053.591842 1.8571601.418372 1.3469513.80613 2.6122692 1.357156 3.8061579 2.704107 5.8674015 7.418436 9.1215134 14.398093 9.9786642 1.285726.1632669 2.581657.2346961 3.857179.2346961 5.520459 0 11.010306-1.419401 16.78587-4.3469792 6.969453-3.5418697 13.122571-8.7766123 18.285885-15.5613693.193879-.266329.408167-.5102088.591842-.7244965l1.091847-1.3377676.642863 1.6122599c.418371 1.0510302.816334 2.1224687 1.224501 3.2041115.897968 2.3990019 1.836752 4.8878005 2.959211 7.224557 1.704098 3.5204409 4.193917 6.1939352 7.387824 7.9704823 2.54084 1.3979722 5.20413 2.1112441 7.928645 2.1112441 2.336757 0 4.795963-.520413 7.316395-1.5602186 5.612297-2.3071643 9.520497-6.704144 12.306237-10.28581.959192-1.2245011 1.846956-2.5724729 2.704107-3.8673829.551025-.8367425 1.102051-1.6745054 1.673485-2.4898191.091837-.1224501.877559-1.1938886 1.97961-1.1938886h.010204c.622455.0408167 1.24491.0714292 1.867364.0714292 4.000038 0 7.50007-.8877634 10.704182-2.714311l1.326543-.755109.193879 1.5102181c.091837.7438845.173471 1.4796056.2449 2.2041021.163267 1.5306265.306125 2.9796196.642863 4.3663672 2.163286 9.1541668 8.23375 14.0419674 18.051189 14.5205433.550005.0306125 1.090826.0408167 1.622464.0408167 5.622501 0 11.274594-1.4694014 16.805258-4.3582038 12.052153-6.3061812 20.757336-16.1828037 26.593105-30.1941585.234696-.5510256.418371-1.1224594.623475-1.7234854.183675-.5622502.36633-1.1132757.579597-1.6643012.234696-.5806177.817355-1.2755221 1.520422-1.4081764.552046-.1020418 1.102051-.2142877 1.643893-.3255132 1.785731-.3581666 3.621463-.7244966 5.488827-.7765379l.173471-.0102042c1.592872 0 2.979619.613271 3.908199 1.7153221.958173 1.1418474 1.31736 2.7030864 1.020418 4.3877959-.36633 2.0510395-.97858 4.102079-1.815323 6.0816893-1.887773 4.4796335-3.724524 9.3470257-4.296979 14.5511558-.4898 4.3673876.143879 7.4082322 2.040836 9.8674387 1.73573 2.2551231 4.133712 3.3061532 7.55109 3.3061532.530618 0 1.091847-.0214287 1.674506-.0714292 3.581666-.3163295 7.040882-1.6938933 11.224594-4.4888173 3.816362-2.5408399 7.398028-5.8061764 10.948061-9.9898888.225512-.266329.460208-.5214335.715313-.8275588l1.683689-1.908181.510209 1.8163435c.131634.4693921.2449.9387842.36633 1.3775638.234696.8989879.458167 1.7561388.744905 2.5510441 2.499002 7.0612902 7.509253 10.9490815 15.306264 11.878682 1.233685.1428585 2.488799.2142877 3.724525.2142877 5.488826 0 10.989898-1.419401 16.795054-4.3582038 6.233732-3.1530906 11.705211-7.6010912 16.73485-13.5909428.143879-.173471.284696-.3367378.500004-.5724543l2.233695-2.54084v2.7041068c0 .7142924-.020409 1.4081764-.039797 2.0714479-.041837 1.3673596-.081633 2.6622696.081634 3.8775871.305105 2.2143063.68368 4.5510627 1.560218 6.5816939 1.459198 3.3673782 4.376572 5.3061718 7.989871 5.3061718 1.488789 0 3.02962-.3265337 4.581675-.979601 6.682715-2.8061485 12.101133-7.490886 16.081782-11.2552067 1.743894-1.6428725 3.366358-3.34697 5.091884-5.1531092.775518-.8173546 1.551035-1.6234845 2.335736-2.4398186l1.154093-1.1836845.539801 1.5714432c.192859.5510255.378575 1.102051.552046 1.6632808.396942 1.2051132.805109 2.4398186 1.275522 3.6122785 2.806148 6.9184317 7.121494 11.3368401 13.203184 13.5103298 2.488798.8877633 5.030659 1.3377675 7.55109 1.3377675 2.702066 0 5.438826-.5102088 8.141913-1.5418511 8.002115-3.0306404 14.062376-8.2449747 18.043025-15.5205525.896947-1.6326683 2.051039-2.1020604 3.51942-2.2847152 7.021494-.9091921 11.900111-7.2378224 14.562381-11.5470462.695925-1.1398065 1.277563-2.3979815 1.839813-3.6235031.248982-.5357193.491841-1.0744998.753068-1.5979741v-.3408194c-.330615-.471433-.87858-.7398029-1.518381-.7398029zm-146.701365 5.4918879c1.570422-5.6735222 3.76432-11.4490861 9.152126-15.3470816.817354-.5918422 1.847976-1.0714385 3.081661-1.4183805.480617-.1326543.909192-.1938794 1.307155-.1938794 1.530626 0 2.551044.9183759 3.040845 2.7347193.794905 2.9796196-.091838 5.7459719-.827559 7.5612949-2.142877 5.3276006-6.337814 8.2551788-11.797049 8.2551788-1.020417 0-2.090836-.1112255-3.172478-.3163294l-1.082663-.2142878zm-108.726522.0918376c1.581647-5.7347473 3.78677-11.5919446 9.255188-15.4991238.775517-.5622502 1.795935-1.0102135 3.101049-1.3785843.428576-.1224501.836743-.1836752 1.225522-.1836752 1.570423 0 2.682678 1.0102135 2.959211 2.6836985.294901 1.7959351.294901 3.5612576-.012245 5.1122924-1.275522 6.4592438-6.356182 10.8174476-12.663383 10.8368356-.672455 0-1.325523-.0816334-2.019407-.173471-.307145-.0408167-.633679-.0714293-.959192-.112246l-1.205114-.1224501zm-117.562319 0c1.581648-5.7347473 3.795954-11.5919446 9.244984-15.4991238.785722-.5622502 1.80614-1.0102135 3.10207-1.3785843.428575-.1224501.846947-.1836752 1.234705-.1836752 1.571444 0 2.683699.9989889 2.959212 2.6734943.295921 1.8061393.295921 3.5714618-.010205 5.1122925-1.265317 6.4694479-6.346997 10.8266313-12.653178 10.8470397-.673476 0-1.316339-.0816334-2.000019-.1632669-.31633-.0408167-.653067-.0816334-.989805-.1224501l-1.214297-.1112255zm340.840927 5.5408679c-.68368 4.9184131-2.85819 8.6327333-6.44904 11.0215311-1.551035 1.0306218-3.234724 1.5816473-4.867392 1.5816473-3.286765 0-6.092914-2.2347146-7.316395-5.8469931-1.510218-4.4694294-1.398992-9.3164133.336738-14.8368728 1.551035-4.9173927 4.010242-8.4888545 7.529662-10.9286731 1.765323-1.2234808 4.000037-1.9592019 5.969443-1.9592019.104083 0 .205104 0 .307146.0102042l.978581.0306125v.9898051c0 .7867421-.010205 1.5714432-.020409 2.3581852-.029592 1.7040975-.062245 3.4592159.052042 5.1633134.234696 3.6643198 1.233685 7.1735361 2.979619 10.4296889.264288.4969434.61123 1.2316441.500005 1.9867532z" fill="#34a8dd"/></svg>