<svg height="256" preserveAspectRatio="xMidYMid" viewBox="0 0 256 256" width="256" xmlns="http://www.w3.org/2000/svg"><path d="m194.210366 167.138117c.492078-3.534195.912436-7.135129 1.263066-10.795829-3.800156 4.601027-7.838381 9.18014-12.101728 13.715424 3.757323-.884545 7.371207-1.860731 10.838662-2.919595zm-131.6437668-77.0848874c-.5050272 3.5072996-.9443113 7.0753618-1.3058988 10.7051824 3.7433774-4.575128 7.7278132-9.1233614 11.9383657-13.6207933-3.6826147.8875331-7.2227859 1.8647159-10.6324669 2.9156109zm134.0503658 28.7775874c2.041027-3.303097 3.915704-6.569338 5.623035-9.788763-2.181479-2.882739-4.463564-5.761494-6.839284-8.63228.604638 5.992592 1.013043 12.142568 1.216249 18.421043zm-141.9714241 28.788545c2.0908326 2.800062 4.2733073 5.59614 6.5484202 8.382257-.5498522-5.828234-.923393-11.803891-1.1136498-17.90207-1.9673152 3.210459-3.7712685 6.385058-5.4347704 9.519813zm112.0214161 46.909759c-1.575844 5.019393-3.31505 9.734972-5.206661 14.096933-3.004265 6.927938-6.378086 12.972327-10.01986 18.038537-6.913992 9.620421-14.79421 15.679751-22.984218 17.269541-8.626304-1.855751-16.634023-7.952934-23.530086-17.486692-6.7825055 2.546054-13.4076262 4.352996-19.787704 5.360062 2.0599533 2.85186 4.2384436 5.496529 6.5484202 7.888187 9.9292138 10.278848 18.6003428 16.137961 36.6627858 16.137961 18.06344 0 28.292483-6.63309 38.54344-18.168031 1.542973-1.736218 3.020202-3.59695 4.445634-5.550319 3.807129-5.217619 7.194895-11.179331 10.153339-17.786522 3.285167-7.341323 6.042397-15.47256 8.271688-24.233338-7.292513 1.844793-15.020326 3.324015-23.096778 4.433681zm-.151408-175.1030043c-10.325666-11.79791437-20.315642-18.59635794-38.165915-18.59635794-17.850272 0-24.198474 5.02337743-33.6684822 13.92659924-3.2313775 3.0381323-6.2456032 6.5414474-9.050646 10.4382257-3.6547237 5.0791595-6.9418832 10.8456342-9.8465369 17.2047937-3.4525136 7.5564825-6.3651362 15.9427238-8.7139611 24.996358 7.2337432-1.8876265 14.8908327-3.4156576 22.8915797-4.5701479 1.6156888-5.2345525 3.4106771-10.1443735 5.3720156-14.6736809 2.9185992-6.7396731 6.1948019-12.6465992 9.7319849-17.6450739 6.9887-9.8754241 15.007377-16.164856 23.39063-17.9887315 8.311533 1.5429727 16.304311 7.7357821 23.292015 17.6062256 6.533479-2.4763268 12.922522-4.2384435 19.10039-5.2375408-1.394553-1.9175097-2.83393-3.7473619-4.333074-5.4606693zm.418365 43.3008561c-3.448529-.4781323-6.959813-.8885292-10.527875-1.2311907 4.505401 3.693572 8.983907 7.6192374 13.412607 11.7660389-.878568-3.6467549-1.84579-7.1560467-2.884732-10.5348482zm-77.0858829 131.6427702c3.5939611.520965 7.2526693.971206 10.9771209 1.339767-4.6717512-3.850957-9.3215878-7.946957-13.9265995-12.275051.8935098 3.793183 1.8796576 7.438942 2.9494786 10.935284zm143.0661479-15.981572c-.132483-2.256187-.393463-4.551222-.75007-6.873152-.982163-6.389042-2.789105-13.008186-5.362055-19.781727-2.895688-7.622226-6.754614-15.436701-11.45326-23.324887-3.843985 6.465743-8.256747 12.982288-13.177526 19.483891 2.507207 4.789292 4.662786 9.472996 6.444825 14.00828 2.764203 7.030537 4.641868 13.69849 5.630008 19.856436 1.860732 11.594708.559813 21.370521-4.07807 28.242677-7.343315 4.742474-17.197821 6.116109-28.675984 4.329089-2.958444 6.607191-6.34621 12.568903-10.153339 17.786522 3.342942.522957 6.627113.831751 9.831596.887533 14.290178.247035 24.565042-1.741199 37.337151-14.513308s15.314179-24.696529 14.406724-40.101354zm-154.5851518-154.0512371c-15.643891-1.0409339-27.5145214 1.2152529-40.137214 13.8379455-12.6216965 12.6216965-13.559035 20.6622879-13.9594708 33.6545369-.1384591 4.4934475.2171518 9.1681868 1.0120467 13.9744125 1.0210117 6.1698988 2.7851206 12.5649183 5.2355486 19.1063662 2.8737744 7.673027 6.6878755 15.545276 11.3476732 23.489245 3.7882023-6.444825 8.128249-12.934475 12.9743191-19.401214-2.4832996-4.714584-4.6358911-9.3325451-6.4149417-13.8060704-2.7134008-6.8233463-4.5850895-13.3110038-5.6369805-19.346428-2.0948171-12.0220389-.8855409-22.2192062 3.7822257-29.4818365 7.0335253-4.8311285 17.1848716-6.0842335 29.2517354-3.9645137 2.9046537-6.3591595 6.1918132-12.1256342 9.8465369-17.2047937-2.4703502-.4024281-4.9088249-.6982724-7.3014786-.8576498zm117.0716888 76.0728401c-.349634-3.4604822-.764016-6.8681709-1.24414-10.215097-1.160467-8.0864124-2.70344-15.8221945-4.612981-23.1266614-2.290054-8.7637666-5.10705-16.9029728-8.43505-24.2592374-6.024467 1.0170272-12.52607 2.8717821-19.372327 5.5702413 1.892607 4.4386614 3.627829 9.2418988 5.197696 14.3479533 1.038942 3.3788015 2.006164 6.8880933 2.884732 10.5348482.89849 3.7274397 1.707331 7.5903502 2.422537 11.5777743 1.365665 7.6023035 2.379704 15.6608247 2.999284 24.0988637.457214 6.234646.710226 12.664529.710226 19.287658 0 6.677914-.256997 13.156607-.722179 19.435081 5.600124-6.462754 10.652389-12.91256 15.103004-19.269727 2.25021-3.21544 4.335066-6.401992 6.285447-9.560654-.203206-6.278475-.611611-12.428451-1.216249-18.421043zm-105.5526849 93.959969c-1.069821-3.496342-2.0559688-7.142101-2.9494786-10.935284-.8476887-3.599938-1.6206692-7.318412-2.2980233-11.16937-1.361681-7.737774-2.3557977-15.975595-2.9604358-24.621821-.438288-6.264529-.6783502-12.737245-.6783502-19.417151 0-6.666957.2540078-13.128716.713214-19.385277-5.6150661 6.483674-10.6653385 12.978304-15.1358755 19.39723-2.3059922 3.313058-4.4625681 6.603206-6.4587704 9.861479.1902568 6.098179.5637976 12.073836 1.1136498 17.90207.3486381 3.693572.7630194 7.331362 1.2550973 10.896435 1.1036887 7.990786 2.5719533 15.636919 4.3948327 22.859705 2.2432373 8.882303 5.029354 17.117136 8.3543657 24.547113 6.1689027-1.024997 12.8209183-2.916607 19.8265525-5.695751-1.892607-4.402802-3.6228482-9.161214-5.1767782-14.239378zm19.2846689-139.769027c-2.93354 2.2173385-5.864093 4.5382723-8.785681 6.9558287 6.117106-.6175875 12.397572-1.0319688 18.812514-1.2311906-3.383782-2.0828638-6.72772-3.9804514-10.026833-5.7246381zm-62.8325599 155.824311c-4.8301323-7.033525-6.0842335-17.184871-3.9635175-29.251735-6.3591596-2.904654-12.1266304-6.191813-17.2047938-9.847533-.402428 2.471346-.6992685 4.909821-.8586459 7.302474-1.0409339 15.643892 1.216249 27.514522 13.8379455 40.136218 12.6216965 12.621697 20.6622879 13.559035 33.654537 13.960467 4.306179.132483 8.777712-.191253 13.3727626-.917416-3.721463-5.150879-7.0385058-11.014973-9.9401712-17.50263-11.767035 1.954365-21.7530272.711221-28.8981167-3.879845zm62.6502719-8.278661c-4.75642 2.507206-9.4142252 4.672747-13.9256027 6.462755 2.9395175 6.835299 6.2655257 12.812949 9.9013227 17.838319 7.606288-2.854849 15.406817-6.634086 23.280063-11.243082-6.392032-3.819082-12.83088-8.189012-19.255783-13.057992zm38.761588.047813c2.748265-2.055969 5.491549-4.197603 8.226864-6.430879-5.704716.537898-11.55088.905463-17.514584 1.099704 3.132763 1.926475 6.230662 3.704529 9.28772 5.331175zm-52.6871907 6.414942c-7.0056342 2.779144-13.6576498 4.670754-19.8265525 5.695751 2.9016654 6.487657 6.2187082 12.351751 9.9401712 17.50263 6.3800778-1.007066 13.0051985-2.814008 19.787704-5.360062-3.635797-5.02537-6.9618052-11.00302-9.9013227-17.838319zm123.4009647-170.1593156c-12.772109-12.7721089-24.695533-15.315175-40.101354-14.4077198-2.451424.1444358-4.947673.4362957-7.475797.8447004-6.177868.9990973-12.566911 2.761214-19.10039 5.2375408-7.690957 2.9156109-15.577151 6.8123892-23.538054 11.5638288 6.519533 3.8141012 13.086879 8.1929962 19.632311 13.0898677 4.748452-2.4852918 9.394304-4.6259299 13.893728-6.3990038 6.846257-2.6984592 13.34786-4.5532141 19.372327-5.5702413 11.850708-2.0001868 21.840685-.7351284 28.827393 3.9804514 4.743471 7.342319 6.116109 17.197821 4.329089 28.6759844 6.607191 2.9584436 12.568903 6.345214 17.787518 10.1533385.522957-3.3439377.831751-6.6281089.886537-9.8325914.248031-14.2891829-1.740203-24.5640467-14.513308-37.3361557zm-9.86347 57.0471596c-1.755144 4.3938366-3.868888 8.920156-6.322304 13.545089-1.707331 3.219425-3.582008 6.485666-5.623035 9.788763-1.950381 3.158662-4.035237 6.345214-6.285447 9.560654-4.450615 6.357167-9.50288 12.806973-15.103004 19.269727-4.1986 4.84607-8.696032 9.700109-13.526164 14.529246-4.6847 4.6847-9.403268 9.049649-14.122832 13.126723 8.611361-.602646 16.815315-1.591782 24.526194-2.945494 3.884825-.681338 7.635175-1.458303 11.265992-2.313961 4.263347-4.535284 8.301572-9.114397 12.101728-13.715424 2.32193-2.81102 4.562179-5.629012 6.697836-8.449992 4.920779-6.501603 9.333541-13.018148 13.177526-19.483891 4.603019-7.739767 8.386241-15.406817 11.252046-22.892576-5.065214-3.640778-11.110599-7.0145994-18.038536-10.018864zm-123.8820861-10.7649494c-3.9535564.7112218-7.7835953 1.5150817-11.4811518 2.4056031-4.2105525 4.4974319-8.1949883 9.0456653-11.9383657 13.6207933-2.240249 2.7393-4.3968249 5.486569-6.4587704 8.239814-4.8460701 6.466739-9.1861168 12.956389-12.9743191 19.401214-4.6687627 7.943969-8.4988016 15.817214-11.3835331 23.491237 4.9984747 3.538179 10.9044047 6.814381 17.645074 9.732981 1.8188949-4.535284 4.0183035-9.220981 6.5563891-14.004296 1.6635019-3.134755 3.4674552-6.309354 5.4347704-9.519813 1.9962023-3.258273 4.1527782-6.548421 6.4587704-9.861479 4.470537-6.418926 9.5208094-12.913556 15.1358755-19.39723 4.0053541-4.623937 8.283642-9.2409023 12.8597665-13.8170268 4.7504436-4.7514397 9.5437203-9.1751595 14.3409803-13.3070194-8.473899.621572-16.5652915 1.6415875-24.1954861 3.0152218zm152.9216501 5.3311751c-1.736218-1.5429728-3.59695-3.0202024-5.549323-4.4446382-5.218615-3.8081245-11.180327-7.1948949-17.787518-10.1533385-7.476794-3.3469261-15.773385-6.1459922-24.721432-8.3971984 1.909541 7.3044669 3.452514 15.040249 4.612981 23.1266614 5.134942 1.6007471 9.954117 3.3718288 14.405728 5.302288 6.927937 3.0042646 12.973322 6.378086 18.038536 10.018864 9.620421 6.914988 15.679751 14.795206 17.269541 22.985214-1.828856 8.50179-7.771642 16.403922-17.068327 23.232249 2.57295 6.773541 4.379892 13.392685 5.362055 19.781727 2.691486-1.970303 5.193712-4.048186 7.467829-6.244607 10.279844-9.929214 16.138957-18.600342 16.138957-36.663782 0-18.062443-6.634086-28.291486-18.169027-38.5434393zm-175.1528096 76.8348633c-5.1160156-1.590786-9.9212452-3.351906-14.3599066-5.274396-6.7406693-2.9186-12.6465993-6.194802-17.645074-9.732981-9.8754241-6.9887-16.1658521-15.006381-17.9897276-23.389634 1.5648872-8.43007 7.9081089-16.533417 18.0255875-23.590848-2.450428-6.5414479-4.2145369-12.9364674-5.2355486-19.1063662-2.0729027 1.4871907-4.0432062 3.0291673-5.8810272 4.6378833-11.79791443 10.3256649-18.59635801 20.3156419-18.59635801 38.1649179 0 17.851269 5.02238132 24.198475 13.92560311 33.669479 3.0381323 3.231377 6.5424436 6.245603 10.4392218 9.04965 5.0781634 3.65572 10.8456342 6.942879 17.2047938 9.847533 7.4190194 3.389759 15.6409027 6.258552 24.5072685 8.584467-1.8228794-7.222786-3.291144-14.868919-4.3948327-22.859705zm66.0908326-100.4217272c-3.149696-2.1874552-6.279471-4.2434241-9.380358-6.1509727-6.414942.1992218-12.695408.6136031-18.812514 1.2311906-3.5192525.3556109-6.9827233.7779611-10.3854315 1.2690428-8.000747 1.1544903-15.6578365 2.6825214-22.8915797 4.5701479-8.7866771 2.2930428-16.9468016 5.1150195-24.32 8.4499922 1.051891 6.0354242 2.9235797 12.5230817 5.6369805 19.346428 4.3918444-1.8696965 9.1373074-3.5859922 14.1796109-5.138926 3.409681-1.050895 6.9498522-2.0280778 10.6324669-2.9156109 3.6975565-.8905214 7.5275954-1.6943813 11.4811518-2.4056031 7.6301946-1.3736343 15.7215871-2.3936498 24.1954861-3.0152218 6.23365-.4582101 12.663533-.7102257 19.286662-.7102257 6.87614 0 13.541105.2729338 19.992902.7650117-6.556389-5.6808094-13.125727-10.7858677-19.615377-15.295253zm80.076202 95.4242492c-4.449618 1.91751-9.264809 3.667673-14.405727 5.237541-3.467455 1.058864-7.081339 2.03505-10.838662 2.919595-3.630817.855658-7.381167 1.632623-11.265992 2.313961-7.710879 1.353712-15.914833 2.342848-24.526194 2.945494-6.26453.438288-12.73625.678351-19.417152.678351-6.468732 0-12.745214-.237074-18.828452-.670382 6.390039 5.534382 12.766133 10.530864 19.054568 14.941634 3.375814 2.368748 6.72274 4.558195 10.035798 6.596234 5.963704-.194241 11.809868-.561806 17.514584-1.099704 3.634801-.343658 7.216809-.751067 10.728093-1.234179 8.076452-1.109666 15.804265-2.588888 23.096778-4.433681 8.858397-2.240249 17.070319-5.022382 24.482366-8.338428-.98814-6.157946-2.865805-12.825899-5.630008-19.856436zm-60.904093 40.293603c-3.057058-1.626646-6.154957-3.4047-9.28772-5.331175-3.313058-2.038039-6.659984-4.227486-10.035798-6.596234-6.288435-4.41077-12.664529-9.407252-19.054568-14.941634-4.859019-4.20856-9.7250113-8.716949-14.568093-13.560031-4.6837043-4.683704-9.0486537-9.402272-13.1257276-14.121837.6046381 8.646226 1.5987548 16.884047 2.9604358 24.621821.6773541 3.850958 1.4503346 7.569432 2.2980233 11.16937 4.6050117 4.328094 9.2548483 8.424094 13.9265995 12.275051 2.702443 2.228295 5.412856 4.380887 8.12526 6.436856 6.424903 4.86898 12.863751 9.23891 19.255783 13.057992 7.856311 4.694661 15.63891 8.551595 23.234241 11.460233 3.641774-5.06621 7.015595-11.110599 10.01986-18.038537-4.458584-1.781042-9.053635-3.932638-13.748296-6.431875zm24.529183-117.3545837c-.715206-3.9874241-1.524047-7.8503346-2.422537-11.5777743-4.4287-4.1468015-8.907206-8.0724669-13.412607-11.7660389-2.845883-2.3338833-5.702724-4.5761245-8.563549-6.7177588-6.545432-4.8968715-13.112778-9.2757665-19.632311-13.0898677-7.826428-4.5761245-15.582132-8.338428-23.144591-11.1813229-3.537183 4.9984747-6.8133857 10.9054008-9.7319849 17.6450739 4.4695409 1.7929961 9.0865059 3.9575409 13.7990969 6.4488094 3.299113 1.7441867 6.643051 3.6417743 10.026833 5.7246381 3.100887 1.9075486 6.230662 3.9635175 9.380358 6.1509727 6.48965 4.5093853 13.058988 9.6144436 19.615377 15.295253 4.609993 3.995393 9.214008 8.2627237 13.778179 12.8268949 4.750444 4.7504436 9.17516 9.5427233 13.30702 14.3399843-.61958-8.438039-1.633619-16.4965602-2.999284-24.0988637z" fill="#49bc82"/><path d="m194.210366 167.138117c.492078-3.534195.912436-7.135129 1.263066-10.795829-3.800156 4.601027-7.838381 9.18014-12.101728 13.715424 3.757323-.884545 7.371207-1.860731 10.838662-2.919595" fill="#49bc82"/><path d="m62.5665992 90.0532296c-.5050272 3.5072996-.9443113 7.0753618-1.3058988 10.7051824 3.7433774-4.575128 7.7278132-9.1233614 11.9383657-13.6207933-3.6826147.8875331-7.2227859 1.8647159-10.6324669 2.9156109" fill="#49bc82"/><path d="m196.616965 118.830817c2.041027-3.303097 3.915704-6.569338 5.623035-9.788763-2.181479-2.882739-4.463564-5.761494-6.839284-8.63228.604638 5.992592 1.013043 12.142568 1.216249 18.421043" fill="#57b6df"/><path d="m54.6455409 147.619362c2.0908326 2.800062 4.2733073 5.59614 6.5484202 8.382257-.5498522-5.828234-.923393-11.803891-1.1136498-17.90207-1.9673152 3.210459-3.7712685 6.385058-5.4347704 9.519813" fill="#57b6df"/><path d="m166.666957 194.529121c-1.575844 5.019393-3.31505 9.734972-5.206661 14.096933-3.004265 6.927938-6.378086 12.972327-10.01986 18.038537-6.913992 9.620421-14.79421 15.679751-22.984218 17.269541-8.626304-1.855751-16.634023-7.952934-23.530086-17.486692-6.7825055 2.546054-13.4076262 4.352996-19.787704 5.360062 2.0599533 2.85186 4.2384436 5.496529 6.5484202 7.888187 9.9292138 10.278848 18.6003428 16.137961 36.6627858 16.137961 18.06344 0 28.292483-6.63309 38.54344-18.168031 1.542973-1.736218 3.020202-3.59695 4.445634-5.550319 3.807129-5.217619 7.194895-11.179331 10.153339-17.786522 3.285167-7.341323 6.042397-15.47256 8.271688-24.233338-7.292513 1.844793-15.020326 3.324015-23.096778 4.433681" fill="#49bc82"/><path d="m166.515549 19.4261167c-10.325666-11.79791437-20.315642-18.59635794-38.165915-18.59635794-17.850272 0-24.198474 5.02337743-33.6684822 13.92659924-3.2313775 3.0381323-6.2456032 6.5414474-9.050646 10.4382257-3.6547237 5.0791595-6.9418832 10.8456342-9.8465369 17.2047937-3.4525136 7.5564825-6.3651362 15.9427238-8.7139611 24.996358 7.2337432-1.8876265 14.8908327-3.4156576 22.8915797-4.5701479 1.6156888-5.2345525 3.4106771-10.1443735 5.3720156-14.6736809 2.9185992-6.7396731 6.1948019-12.6465992 9.7319849-17.6450739 6.9887-9.8754241 15.007377-16.164856 23.39063-17.9887315 8.311533 1.5429727 16.304311 7.7357821 23.292015 17.6062256 6.533479-2.4763268 12.922522-4.2384435 19.10039-5.2375408-1.394553-1.9175097-2.83393-3.7473619-4.333074-5.4606693" fill="#49bc82"/><path d="m166.933914 62.7269728c-3.448529-.4781323-6.959813-.8885292-10.527875-1.2311907 4.505401 3.693572 8.983907 7.6192374 13.412607 11.7660389-.878568-3.6467549-1.84579-7.1560467-2.884732-10.5348482" fill="#276392"/><path d="m89.8480311 194.369743c3.5939611.520965 7.2526693.971206 10.9771209 1.339767-4.6717512-3.850957-9.3215878-7.946957-13.9265995-12.275051.8935098 3.793183 1.8796576 7.438942 2.9494786 10.935284" fill="#276392"/><path d="m232.914179 178.388171c-.132483-2.256187-.393463-4.551222-.75007-6.873152-.982163-6.389042-2.789105-13.008186-5.362055-19.781727-2.895688-7.622226-6.754614-15.436701-11.45326-23.324887-3.843985 6.465743-8.256747 12.982288-13.177526 19.483891 2.507207 4.789292 4.662786 9.472996 6.444825 14.00828 2.764203 7.030537 4.641868 13.69849 5.630008 19.856436 1.860732 11.594708.559813 21.370521-4.07807 28.242677-7.343315 4.742474-17.197821 6.116109-28.675984 4.329089-2.958444 6.607191-6.34621 12.568903-10.153339 17.786522 3.342942.522957 6.627113.831751 9.831596.887533 14.290178.247035 24.565042-1.741199 37.337151-14.513308s15.314179-24.696529 14.406724-40.101354" fill="#57b6df"/><path d="m78.3290272 24.3369339c-15.643891-1.0409339-27.5145214 1.2152529-40.137214 13.8379455-12.6216965 12.6216965-13.559035 20.6622879-13.9594708 33.6545369-.1384591 4.4934475.2171518 9.1681868 1.0120467 13.9744125 1.0210117 6.1698988 2.7851206 12.5649183 5.2355486 19.1063662 2.8737744 7.673027 6.6878755 15.545276 11.3476732 23.489245 3.7882023-6.444825 8.128249-12.934475 12.9743191-19.401214-2.4832996-4.714584-4.6358911-9.3325451-6.4149417-13.8060704-2.7134008-6.8233463-4.5850895-13.3110038-5.6369805-19.346428-2.0948171-12.0220389-.8855409-22.2192062 3.7822257-29.4818365 7.0335253-4.8311285 17.1848716-6.0842335 29.2517354-3.9645137 2.9046537-6.3591595 6.1918132-12.1256342 9.8465369-17.2047937-2.4703502-.4024281-4.9088249-.6982724-7.3014786-.8576498" fill="#57b6df"/><path d="m195.400716 100.409774c-.349634-3.4604822-.764016-6.8681709-1.24414-10.215097-1.160467-8.0864124-2.70344-15.8221945-4.612981-23.1266614-2.290054-8.7637666-5.10705-16.9029728-8.43505-24.2592374-6.024467 1.0170272-12.52607 2.8717821-19.372327 5.5702413 1.892607 4.4386614 3.627829 9.2418988 5.197696 14.3479533 1.038942 3.3788015 2.006164 6.8880933 2.884732 10.5348482.89849 3.7274397 1.707331 7.5903502 2.422537 11.5777743 1.365665 7.6023035 2.379704 15.6608247 2.999284 24.0988637.457214 6.234646.710226 12.664529.710226 19.287658 0 6.677914-.256997 13.156607-.722179 19.435081 5.600124-6.462754 10.652389-12.91256 15.103004-19.269727 2.25021-3.21544 4.335066-6.401992 6.285447-9.560654-.203206-6.278475-.611611-12.428451-1.216249-18.421043" fill="#49bc82"/><path d="m89.8480311 194.369743c-1.069821-3.496342-2.0559688-7.142101-2.9494786-10.935284-.8476887-3.599938-1.6206692-7.318412-2.2980233-11.16937-1.361681-7.737774-2.3557977-15.975595-2.9604358-24.621821-.438288-6.264529-.6783502-12.737245-.6783502-19.417151 0-6.666957.2540078-13.128716.713214-19.385277-5.6150661 6.483674-10.6653385 12.978304-15.1358755 19.39723-2.3059922 3.313058-4.4625681 6.603206-6.4587704 9.861479.1902568 6.098179.5637976 12.073836 1.1136498 17.90207.3486381 3.693572.7630194 7.331362 1.2550973 10.896435 1.1036887 7.990786 2.5719533 15.636919 4.3948327 22.859705 2.2432373 8.882303 5.029354 17.117136 8.3543657 24.547113 6.1689027-1.024997 12.8209183-2.916607 19.8265525-5.695751-1.892607-4.402802-3.6228482-9.161214-5.1767782-14.239378" fill="#49bc82"/><g fill="#fabb66"><path d="m109.1327 54.600716c-2.93354 2.2173385-5.864093 4.5382723-8.785681 6.9558287 6.117106-.6175875 12.397572-1.0319688 18.812514-1.2311906-3.383782-2.0828638-6.72772-3.9804514-10.026833-5.7246381"/><path d="m46.3001401 210.425027c-4.8301323-7.033525-6.0842335-17.184871-3.9635175-29.251735-6.3591596-2.904654-12.1266304-6.191813-17.2047938-9.847533-.402428 2.471346-.6992685 4.909821-.8586459 7.302474-1.0409339 15.643892 1.216249 27.514522 13.8379455 40.136218 12.6216965 12.621697 20.6622879 13.559035 33.654537 13.960467 4.306179.132483 8.777712-.191253 13.3727626-.917416-3.721463-5.150879-7.0385058-11.014973-9.9401712-17.50263-11.767035 1.954365-21.7530272.711221-28.8981167-3.879845"/><path d="m108.950412 202.146366c-4.75642 2.507206-9.4142252 4.672747-13.9256027 6.462755 2.9395175 6.835299 6.2655257 12.812949 9.9013227 17.838319 7.606288-2.854849 15.406817-6.634086 23.280063-11.243082-6.392032-3.819082-12.83088-8.189012-19.255783-13.057992"/><path d="m147.712 202.194179c2.748265-2.055969 5.491549-4.197603 8.226864-6.430879-5.704716.537898-11.55088.905463-17.514584 1.099704 3.132763 1.926475 6.230662 3.704529 9.28772 5.331175"/><path d="m95.0248093 208.609121c-7.0056342 2.779144-13.6576498 4.670754-19.8265525 5.695751 2.9016654 6.487657 6.2187082 12.351751 9.9401712 17.50263 6.3800778-1.007066 13.0051985-2.814008 19.787704-5.360062-3.635797-5.02537-6.9618052-11.00302-9.9013227-17.838319"/><path d="m218.425774 38.4498054c-12.772109-12.7721089-24.695533-15.315175-40.101354-14.4077198-2.451424.1444358-4.947673.4362957-7.475797.8447004-6.177868.9990973-12.566911 2.761214-19.10039 5.2375408-7.690957 2.9156109-15.577151 6.8123892-23.538054 11.5638288 6.519533 3.8141012 13.086879 8.1929962 19.632311 13.0898677 4.748452-2.4852918 9.394304-4.6259299 13.893728-6.3990038 6.846257-2.6984592 13.34786-4.5532141 19.372327-5.5702413 11.850708-2.0001868 21.840685-.7351284 28.827393 3.9804514 4.743471 7.342319 6.116109 17.197821 4.329089 28.6759844 6.607191 2.9584436 12.568903 6.345214 17.787518 10.1533385.522957-3.3439377.831751-6.6281089.886537-9.8325914.248031-14.2891829-1.740203-24.5640467-14.513308-37.3361557"/><path d="m208.562304 95.496965c-1.755144 4.3938366-3.868888 8.920156-6.322304 13.545089-1.707331 3.219425-3.582008 6.485666-5.623035 9.788763-1.950381 3.158662-4.035237 6.345214-6.285447 9.560654-4.450615 6.357167-9.50288 12.806973-15.103004 19.269727-4.1986 4.84607-8.696032 9.700109-13.526164 14.529246-4.6847 4.6847-9.403268 9.049649-14.122832 13.126723 8.611361-.602646 16.815315-1.591782 24.526194-2.945494 3.884825-.681338 7.635175-1.458303 11.265992-2.313961 4.263347-4.535284 8.301572-9.114397 12.101728-13.715424 2.32193-2.81102 4.562179-5.629012 6.697836-8.449992 4.920779-6.501603 9.333541-13.018148 13.177526-19.483891 4.603019-7.739767 8.386241-15.406817 11.252046-22.892576-5.065214-3.640778-11.110599-7.0145994-18.038536-10.018864"/><path d="m84.6802179 84.7320156c-3.9535564.7112218-7.7835953 1.5150817-11.4811518 2.4056031-4.2105525 4.4974319-8.1949883 9.0456653-11.9383657 13.6207933-2.240249 2.7393-4.3968249 5.486569-6.4587704 8.239814-4.8460701 6.466739-9.1861168 12.956389-12.9743191 19.401214-4.6687627 7.943969-8.4988016 15.817214-11.3835331 23.491237 4.9984747 3.538179 10.9044047 6.814381 17.645074 9.732981 1.8188949-4.535284 4.0183035-9.220981 6.5563891-14.004296 1.6635019-3.134755 3.4674552-6.309354 5.4347704-9.519813 1.9962023-3.258273 4.1527782-6.548421 6.4587704-9.861479 4.470537-6.418926 9.5208094-12.913556 15.1358755-19.39723 4.0053541-4.623937 8.283642-9.2409023 12.8597665-13.8170268 4.7504436-4.7514397 9.5437203-9.1751595 14.3409803-13.3070194-8.473899.621572-16.5652915 1.6415875-24.1954861 3.0152218"/></g><path d="m237.601868 90.0631907c-1.736218-1.5429728-3.59695-3.0202024-5.549323-4.4446382-5.218615-3.8081245-11.180327-7.1948949-17.787518-10.1533385-7.476794-3.3469261-15.773385-6.1459922-24.721432-8.3971984 1.909541 7.3044669 3.452514 15.040249 4.612981 23.1266614 5.134942 1.6007471 9.954117 3.3718288 14.405728 5.302288 6.927937 3.0042646 12.973322 6.378086 18.038536 10.018864 9.620421 6.914988 15.679751 14.795206 17.269541 22.985214-1.828856 8.50179-7.771642 16.403922-17.068327 23.232249 2.57295 6.773541 4.379892 13.392685 5.362055 19.781727 2.691486-1.970303 5.193712-4.048186 7.467829-6.244607 10.279844-9.929214 16.138957-18.600342 16.138957-36.663782 0-18.062443-6.634086-28.291486-18.169027-38.5434393" fill="#276392"/><path d="m62.4490584 166.898054c-5.1160156-1.590786-9.9212452-3.351906-14.3599066-5.274396-6.7406693-2.9186-12.6465993-6.194802-17.645074-9.732981-9.8754241-6.9887-16.1658521-15.006381-17.9897276-23.389634 1.5648872-8.43007 7.9081089-16.533417 18.0255875-23.590848-2.450428-6.5414479-4.2145369-12.9364674-5.2355486-19.1063662-2.0729027 1.4871907-4.0432062 3.0291673-5.8810272 4.6378833-11.79791443 10.3256649-18.59635801 20.3156419-18.59635801 38.1649179 0 17.851269 5.02238132 24.198475 13.92560311 33.669479 3.0381323 3.231377 6.5424436 6.245603 10.4392218 9.04965 5.0781634 3.65572 10.8456342 6.942879 17.2047938 9.847533 7.4190194 3.389759 15.6409027 6.258552 24.5072685 8.584467-1.8228794-7.222786-3.291144-14.868919-4.3948327-22.859705" fill="#276392"/><path d="m128.539891 66.4763268c-3.149696-2.1874552-6.279471-4.2434241-9.380358-6.1509727-6.414942.1992218-12.695408.6136031-18.812514 1.2311906-3.5192525.3556109-6.9827233.7779611-10.3854315 1.2690428-8.000747 1.1544903-15.6578365 2.6825214-22.8915797 4.5701479-8.7866771 2.2930428-16.9468016 5.1150195-24.32 8.4499922 1.051891 6.0354242 2.9235797 12.5230817 5.6369805 19.346428 4.3918444-1.8696965 9.1373074-3.5859922 14.1796109-5.138926 3.409681-1.050895 6.9498522-2.0280778 10.6324669-2.9156109 3.6975565-.8905214 7.5275954-1.6943813 11.4811518-2.4056031 7.6301946-1.3736343 15.7215871-2.3936498 24.1954861-3.0152218 6.23365-.4582101 12.663533-.7102257 19.286662-.7102257 6.87614 0 13.541105.2729338 19.992902.7650117-6.556389-5.6808094-13.125727-10.7858677-19.615377-15.295253" fill="#276392"/><path d="m208.616093 161.900576c-4.449618 1.91751-9.264809 3.667673-14.405727 5.237541-3.467455 1.058864-7.081339 2.03505-10.838662 2.919595-3.630817.855658-7.381167 1.632623-11.265992 2.313961-7.710879 1.353712-15.914833 2.342848-24.526194 2.945494-6.26453.438288-12.73625.678351-19.417152.678351-6.468732 0-12.745214-.237074-18.828452-.670382 6.390039 5.534382 12.766133 10.530864 19.054568 14.941634 3.375814 2.368748 6.72274 4.558195 10.035798 6.596234 5.963704-.194241 11.809868-.561806 17.514584-1.099704 3.634801-.343658 7.216809-.751067 10.728093-1.234179 8.076452-1.109666 15.804265-2.588888 23.096778-4.433681 8.858397-2.240249 17.070319-5.022382 24.482366-8.338428-.98814-6.157946-2.865805-12.825899-5.630008-19.856436" fill="#276392"/><path d="m147.712 202.194179c-3.057058-1.626646-6.154957-3.4047-9.28772-5.331175-3.313058-2.038039-6.659984-4.227486-10.035798-6.596234-6.288435-4.41077-12.664529-9.407252-19.054568-14.941634-4.859019-4.20856-9.7250113-8.716949-14.568093-13.560031-4.6837043-4.683704-9.0486537-9.402272-13.1257276-14.121837.6046381 8.646226 1.5987548 16.884047 2.9604358 24.621821.6773541 3.850958 1.4503346 7.569432 2.2980233 11.16937 4.6050117 4.328094 9.2548483 8.424094 13.9265995 12.275051 2.702443 2.228295 5.412856 4.380887 8.12526 6.436856 6.424903 4.86898 12.863751 9.23891 19.255783 13.057992 7.856311 4.694661 15.63891 8.551595 23.234241 11.460233 3.641774-5.06621 7.015595-11.110599 10.01986-18.038537-4.458584-1.781042-9.053635-3.932638-13.748296-6.431875" fill="#57b6df"/><path d="m172.241183 84.8395953c-.715206-3.9874241-1.524047-7.8503346-2.422537-11.5777743-4.4287-4.1468015-8.907206-8.0724669-13.412607-11.7660389-2.845883-2.3338833-5.702724-4.5761245-8.563549-6.7177588-6.545432-4.8968715-13.112778-9.2757665-19.632311-13.0898677-7.826428-4.5761245-15.582132-8.338428-23.144591-11.1813229-3.537183 4.9984747-6.8133857 10.9054008-9.7319849 17.6450739 4.4695409 1.7929961 9.0865059 3.9575409 13.7990969 6.4488094 3.299113 1.7441867 6.643051 3.6417743 10.026833 5.7246381 3.100887 1.9075486 6.230662 3.9635175 9.380358 6.1509727 6.48965 4.5093853 13.058988 9.6144436 19.615377 15.295253 4.609993 3.995393 9.214008 8.2627237 13.778179 12.8268949 4.750444 4.7504436 9.17516 9.5427233 13.30702 14.3399843-.61958-8.438039-1.633619-16.4965602-2.999284-24.0988637" fill="#57b6df"/></svg>