<svg height="255" preserveAspectRatio="xMidYMid" viewBox="0 0 256 255" width="256" xmlns="http://www.w3.org/2000/svg"><path d="m99.7043277 5.00380419c3.4011973-.88601788 6.6486063-1.70159088 9.8791493-2.57867913 6.469022-1.75417649 13.070004-2.47053138 19.749368-2.42290667 15.01964.10814776 29.148301 3.74151558 42.063525 11.43389701 22.146478 13.1900579 35.717534 32.5425536 40.835205 57.8183716.735206 3.6333678.082351 7.1982752-.511966 10.744331-2.931895 17.487195-10.775088 32.439367-23.374798 44.90414-.507005.501052-1.030877.985236-1.55078 1.473389-.05457.051594-.132952.07739-.351232.199429.509981-1.752192.99615-3.383338 1.459499-5.022422 1.979401-7.010753 3.062863-14.157434 3.340674-21.439053.487161-12.8120366-1.5101-25.2202556-6.307296-37.1006342-1.306703-3.2374875-3.100567-6.3797256-5.188116-9.1796612-4.947016-6.6386849-9.822595-13.3974237-15.411552-19.4785028-13.842913-15.0642883-31.122742-24.1487-51.247155-27.73345095-4.336824-.77290921-8.756992-1.07155578-13.3845253-1.61824766zm69.4834473 81.83213501c-14.679322-27.3048287-36.784129-44.4973458-67.327437-50.0714202-30.5323947-5.5710979-57.2131414 2.7701701-80.5224561 23.0523397 1.0884229-1.9526127 2.1024321-3.951858 3.278167-5.8499008 12.9787232-20.9528841 31.4541307-34.367175 55.6385493-39.1336138 24.3272928-4.7942199 46.9599398.0297654 67.4435218 14.1405675 1.996269 1.3751633 3.571853 3.4716423 5.074015 5.4391378 8.494064 11.1302895 13.835968 23.6347501 15.67448 37.5262801.606223 4.5799088.597293 9.2411764.858237 13.8657333.015875.2966622-.065484.5982854-.117077 1.0308764zm-42.813615-16.8700582c-29.0451142-8.8105697-56.7487998-5.8032683-82.0097351 11.6849189-25.2410916 17.4742966-37.89834811 42.2619611-39.80035961 72.9411981-.24308441-.73719-.44350503-1.330515-.63499602-1.926816-.20538152-.640949-.41969267-1.279913-.60126185-1.927808-2.320712-8.299596-3.6135242-16.765879-3.27419821-25.374044.86022117-21.79723 8.64983636-40.7677361 23.81929589-56.5444106 11.0687743-11.5112871 24.4086515-19.2264887 39.8827107-23.1981904 2.4913672-.6389647 5.0194451-1.3037262 7.5663744-1.5071233 2.2621733-.180577 4.5947915.1250148 6.8619257.4524346 16.2132342 2.3455166 30.4867541 8.9316159 42.7282861 19.8287428 1.972457 1.7561609 3.710758 3.7732654 5.461958 5.5710979zm69.413002-47.3022423c9.300708 4.5352606 17.385993 10.585582 24.382855 18.0795272 11.519225 12.3377741 18.821679 26.84148 21.529342 43.4882974 3.728617 22.9273247-.970354 44.0865827-14.380676 63.1176117-1.747231 2.478469-4.465808 4.365598-6.976026 6.196172-11.386273 8.302573-24.141755 13.232722-38.134488 14.826165-4.2257.481208-8.503985.50502-12.757466.596301 26.937721-14.572166 44.44476-36.330702 49.931522-66.607113 5.482794-30.2525997-3.196808-56.7359022-23.595063-79.6969613zm-109.8572869 64.5463528c-26.8563628 14.4263155-44.3495108 36.1302815-49.8283358 66.3779195-5.4669188 30.177193 3.1223945 56.635692 23.3519785 79.475704-.0664762.097234-.1329523.19546-.1994285.292694-3.6224538-2.24233-7.3788521-4.297137-10.8435491-6.760723-17.3859925-12.364563-28.8417175-28.909186-33.5764065-49.715227-5.64948021-24.827352-1.05072-47.839013 13.5770085-68.761139.4921219-.703457 1.143985-1.318609 1.8057699-1.875223 12.3774615-10.4139346 26.6013722-16.6537626 42.6538731-18.5855395 4.3159885-.5189108 8.6905157-.541731 13.0392463-.7917607.0059531.1141009.0128983.2282017.0198436.3432947zm68.1072919 162.8219085c-2.380243.664761-4.747588 1.3831-7.144698 1.985354-7.667577 1.928801-15.483981 2.799936-23.354955 2.323689-29.146317-1.765091-51.8404793-14.893633-67.9267143-39.257637-6.239828-9.451518-10.1510066-19.90514-11.9031988-31.084047-.4067943-2.594554.0128984-5.378614.3929038-8.026746 2.0776276-14.447152 7.6526942-27.431828 16.7767932-38.826038 2.4477112-3.055918 5.2843575-5.800292 7.9483642-8.682578.1795848-.193476.410763-.339326.6667458-.547684-8.8859755 29.29316-5.8578382 56.994861 11.6452316 82.251827 17.5040621 25.257959 42.3066095 37.925137 72.8995275 39.86386zm-67.3988745-81.519598c14.5116435 27.002213 36.2414055 44.431862 66.4314975 49.905726 30.201006 5.475848 56.666449-3.157121 79.643383-23.367854-1.061634 1.918879-2.051831 3.881413-3.195816 5.749691-12.174064 19.887281-29.462823 33.086269-52.132181 38.600812-24.884898 6.052306-48.061261 1.620232-69.223495-12.906294-.997142-.684605-1.903996-1.563677-2.681866-2.495336-9.5497448-11.428936-15.5445041-24.487034-17.9307001-39.202074-.8344244-5.146444-1.1360475-10.316701-.9931734-15.520692.0049609-.195459.0406794-.390919.082351-.763979zm165.1882605-68.512102c1.012025 4.428105 2.180814 8.827437 3.001348 13.290269 1.335476 7.256813 1.45553 14.602924.734214 21.92919-1.155891 11.74445-4.58983 22.813224-10.452629 33.079324-9.612252 16.830371-23.351979 29.051067-41.190406 36.643239-5.969955 2.540976-12.159181 4.42612-18.581571 5.277412-2.538.337341-5.222842-.04068-7.795568-.408779-12.568952-1.801801-24.096115-6.328132-34.549736-13.55022-4.715838-3.258323-9.03778-6.979995-12.964833-11.157078-.205382-.21828-.383974-.462356-.576457-.697503 29.241566 8.872085 56.939299 5.876689 82.204203-11.602568 25.239107-17.461399 37.916207-42.236165 39.80532-72.691169.122038-.036711.244077-.074414.366115-.112117zm-158.1189689 64.847976c5.402427 4.910305 11.2701869 9.145927 17.5883979 12.771358.388935.224233.713378.626066.966384 1.011032 7.747944 11.808942 17.6896 21.313046 29.863664 28.47858.21828.128983.425646.275826.565544.504028-22.061151-7.678491-38.374596-21.958956-48.9839899-42.764998zm68.4317349-75.3998235c-1.747231-1.4684283-3.407151-3.0608792-5.260545-4.3814725-3.837757-2.7344516-7.78267-5.3180917-11.670036-7.9830906-.508989-.3492478-1.054689-.739175-1.385086-1.2402266-7.684443-11.6998015-17.519936-21.1473516-29.546166-28.3118926-.264912-.1577568-.519903-.3323808-.694527-.6042384 21.873629 7.6497176 38.060074 21.8240193 48.55636 42.5209207zm47.14647 21.7188485c-7.783662 21.988721-21.952011 38.244619-42.714396 48.797459.196451-.255983.375044-.526848.590347-.764972 4.489621-4.958922 8.379963-10.349443 11.720638-16.143781.304599-.527841.744136-1.049728 1.248164-1.380124 11.840691-7.779694 21.3696-17.755084 28.561922-29.962883.099218-.168671.216296-.32742.331389-.487161.01389-.018851.059531-.014882.261936-.058538zm-119.8991543-16.7748092c-2.4774767 3.1700192-5.0422653 6.2914212-7.4205238 9.5487522-1.6787707 2.298884-3.0777463 4.801166-4.6622598 7.172479-.4683096.699488-1.0477434 1.404928-1.7383016 1.864308-11.5093028 7.65964-20.8437442 17.384009-27.9229576 29.265379-.1934754.326428-.4147318.636981-.7520734 1.150931 6.113821-19.770205 22.0760333-39.234817 42.4961162-49.0018492zm-29.8477893-12.3764692c20.8983142-10.1648972 42.3889606-11.5678415 64.4511036-4.4449722-6.376749.3472635-12.683053 1.1975628-18.851444 2.8356541-2.099456.5576059-4.056037.5496685-6.1654149.1577569-13.0074965-2.4169536-25.9356185-1.9883313-38.7555927 1.3324994-.2212565.0575465-.4524347.0803667-.678652.1190618zm17.4157579 48.5186564c.4911297 4.0481.9018928 8.17855 1.5239904 12.276259.4028256 2.656069 1.0566731 5.281381 1.7144893 7.890818.2887247 1.147953.3303963 2.218517.093265 3.373416-1.6807551 8.166644-2.3405556 16.426553-1.5041468 24.722181.5546293 5.501645 1.6023727 10.953681 2.3167433 15.686386-2.4665627-4.004444-7.4741016-17.21633-8.341268-31.114805-.7024644-11.254312.6518631-22.221884 4.1969268-32.834255zm97.6812387-71.5432151c10.096437 21.2872492 11.510295 42.8404031 4.502519 64.9283431-.583403-4.48466-1.12315-8.989163-1.775013-13.477791-.27285-1.875223-.637972-3.765328-1.227328-5.561176-.64591-1.96948-.524864-3.842718-.14089-5.8191431 1.820653-9.3761131 2.127237-18.8107648.740168-28.2672446-.561575-3.831804-1.349367-7.629874-2.099456-11.8029884zm-42.71638 117.8403781c7.27368-.268881 14.382659-1.554748 21.427146-3.343651.922729-.234155 2.021074.106163 3.016231.297654 13.332932 2.56975 26.564662 2.097471 39.703126-1.284875.222249-.057546.447474-.102194.684605-.037702-21.009438 10.133147-42.623115 11.542044-64.831108 4.368574z" fill="#265597"/></svg>