<svg height="278" preserveAspectRatio="xMidYMid" viewBox="0 0 256 278" width="256" xmlns="http://www.w3.org/2000/svg"><path d="m228.1289 133.7355c14.873-9.187 24.178-26.505 21.632-45.782-2.675-20.258-18.87-36.661-39.09-39.603-9.853-1.434-18.526.19-26.636 3.992-1.733.812-3.392 2.97-7.367 1.571-3.847-1.355-3.425-6.095-3.485-6.775-2.191-24.914-24.062-44.181-49.973-42.16-20.225 1.578-37.351 16.606-41.639 36.434-.7 3.234-1.037 6.417-1.058 9.526-.025 3.547-3.793 5.724-6.887 3.989-8.672-4.861-19.053-7.025-30.041-5.304-20.022 3.135-35.919 19.463-38.556 39.557-2.55 19.437 6.939 36.914 22.044 46.036 3.435 2.074 3.442 6.914.015 9-14.367 8.749-23.611 25.07-22.16 43.43 1.731 21.915 19.128 39.922 40.977 42.356 10.307 1.149 20.007-1.103 28.168-5.755 3.499-1.995 7.796.572 7.924 4.597.089 2.814.446 5.69 1.114 8.615 4.817 21.078 23.912 36.505 45.534 36.393 25.527-.132 46.181-20.866 46.181-46.425v-.116c-.011-3.881 4.028-6.517 7.407-4.607 8.173 4.622 17.877 6.841 28.186 5.653 21.786-2.51 39.089-20.499 40.805-42.362 1.468-18.702-8.161-35.289-22.996-43.904-3.208-1.863-3.256-6.406-.099-8.356" fill="#fff"/><path d="m126.9828.6864c-1.438 0-2.899.057-4.341.17-23.695 1.848-43.76 19.399-48.795 42.679-.205.951-.386 1.907-.541 2.867-6.037-2.25-12.464-3.419-18.943-3.419-2.875 0-5.794.228-8.675.68-23.524 3.684-42.119 22.759-45.219 46.387-2.505 19.086 5.164 37.858 19.815 49.664-13.861 11.2-21.401 28.474-19.966 46.631 2.046 25.888 22.244 46.762 48.028 49.636 2.051.228 4.127.344 6.172.344 6.946 0 13.823-1.341 20.227-3.916.171 1.016.372 2.028.601 3.033 5.636 24.659 27.946 42.558 53.047 42.558l.274-.001c27.264-.141 49.881-20.534 53.565-46.82 6.166 2.362 12.75 3.591 19.392 3.591 2.113 0 4.258-.124 6.377-.368 25.687-2.959 45.801-23.837 47.826-49.642 1.446-18.427-6.244-35.784-20.387-46.949 14.079-11.849 21.396-30.291 18.933-48.943-3.153-23.875-22.002-42.972-45.838-46.439-2.725-.397-5.454-.598-8.111-.598-6.842 0-13.372 1.271-19.864 3.876-4.443-25.965-26.726-45.021-53.577-45.021m0 9.952c23.205 0 42.255 17.793 44.249 40.48.058.651-.345 5.186 3.335 6.482.893.314 1.663.441 2.341.441 2.211 0 3.439-1.349 4.708-1.944 5.876-2.754 12.058-4.314 18.808-4.314 2.165 0 4.389.161 6.678.494 19.348 2.815 34.844 18.511 37.404 37.894 2.436 18.445-6.468 35.015-20.699 43.806-3.02 1.866-2.975 6.213.095 7.996 14.195 8.243 23.408 24.113 22.004 42.009-1.642 20.919-18.199 38.132-39.044 40.533-1.767.204-3.513.303-5.238.303-7.904 0-15.312-2.081-21.732-5.711-.741-.419-1.515-.61-2.268-.61-2.533 0-4.827 2.155-4.82 5.018.001.037.001.074.001.11 0 24.456-19.762 44.296-44.188 44.422h-.224c-20.596 0-38.752-14.727-43.345-34.823-.639-2.799-.981-5.55-1.066-8.242-.093-2.936-2.503-5.061-5.127-5.061-.819 0-1.658.207-2.455.661-6.455 3.68-13.917 5.791-21.882 5.791-1.669 0-3.361-.093-5.07-.283-20.906-2.33-37.552-19.559-39.209-40.529-1.388-17.567 7.457-33.184 21.204-41.555 3.279-1.996 3.272-6.627-.014-8.611-14.453-8.729-23.533-25.452-21.093-44.05 2.523-19.227 17.734-34.85 36.892-37.85 2.414-.378 4.795-.56 7.135-.56 7.852 0 15.217 2.052 21.61 5.636.712.399 1.461.582 2.189.582 2.298 0 4.382-1.822 4.4-4.399.021-2.975.343-6.021 1.013-9.115 4.102-18.972 20.49-33.352 39.841-34.861 1.199-.094 2.388-.14 3.567-.14" fill="#ccc"/><path d="m124.3495 193.359-9.769-20.945c-1.253-2.687-1.023-5.724.338-8.359 1.136-2.201 1.429-4.884.854-7.651-.902-4.348-4.401-7.874-8.749-8.773-7.389-1.528-13.889 4.073-13.889 11.192 0 4.691 3.318 9.314 7.75 11.141 2.838 1.866 3.498 2.45 4.651 5.978l5.587 23.193c.853 3.543-.121 7.211-2.402 10.053-4.48 5.584-6.633 13.111-4.969 21.126 2.032 9.786 10.024 17.555 19.854 19.36 16.013 2.94 29.968-9.276 29.968-24.752 0-12.059-9.123-22.6-20.33-24.71-3.895-.734-7.219-3.261-8.894-6.853zm48.9597-23.8867-23.019-2.058c-2.954-.264-5.465-1.987-7.062-4.485-1.333-2.088-3.508-3.687-6.19-4.578-4.213-1.4-9.019-.143-11.979 3.167-5.028 5.625-3.444 14.058 2.714 17.629 4.059 2.354 9.722 1.804 13.526-1.113 3.038-1.519 3.874-1.798 7.504-1.025l22.867 6.803c3.493 1.039 6.177 3.722 7.491 7.121 2.582 6.677 8.014 12.316 15.782 14.898 9.484 3.151 20.215.135 26.708-7.463 10.577-12.376 7.01-30.577-6.377-38.341-10.432-6.05-24.127-3.447-31.575 5.189-2.588 3.001-6.443 4.609-10.39 4.256zm3.5447-54.5674-13.406 18.826c-1.72 2.415-4.476 3.712-7.439 3.827-2.475.096-4.954 1.165-7.078 3.029-3.337 2.929-4.68 7.711-3.319 11.938 2.314 7.181 10.391 10.074 16.585 6.565 4.082-2.314 6.468-7.479 5.873-12.236.224-3.389.405-4.251 2.907-6.993l17.424-16.296c2.661-2.49 6.333-3.45 9.93-2.867 7.067 1.145 14.677-.693 20.83-6.093 7.512-6.592 10.331-17.376 7.054-26.818-5.337-15.381-22.845-21.499-36.31-13.869-10.491 5.946-15.164 19.08-11.474 29.87 1.282 3.75.722 7.889-1.577 11.117zm-45.5485-30.4305 9.769 20.945c1.253 2.687 1.023 5.724-.338 8.359-1.136 2.201-1.429 4.884-.854 7.651.902 4.348 4.401 7.874 8.749 8.773 7.389 1.528 13.889-4.073 13.889-11.192 0-4.691-3.318-9.314-7.75-11.141-2.838-1.866-3.498-2.45-4.651-5.978l-5.587-23.193c-.853-3.543.121-7.211 2.402-10.053 4.48-5.584 6.633-13.111 4.969-21.126-2.032-9.786-10.024-17.555-19.854-19.36-16.013-2.94-29.968 9.276-29.968 24.752 0 12.059 9.123 22.6 20.33 24.71 3.895.734 7.219 3.261 8.894 6.853zm-48.9597 24.3013 23.019 2.058c2.954.264 5.465 1.987 7.062 4.485 1.333 2.088 3.508 3.687 6.19 4.578 4.213 1.4 9.019.143 11.979-3.167 5.028-5.625 3.444-14.058-2.714-17.629-4.059-2.354-9.722-1.804-13.526 1.113-3.038 1.519-3.874 1.798-7.504 1.025l-22.867-6.803c-3.493-1.039-6.177-3.722-7.491-7.121-2.582-6.677-8.014-12.316-15.782-14.898-9.484-3.151-20.215-.135-26.708 7.463-10.577 12.376-7.01 30.577 6.377 38.341 10.432 6.05 24.127 3.447 31.575-5.189 2.588-3.001 6.443-4.609 10.39-4.256zm-3.3374 54.1528 13.406-18.826c1.72-2.415 4.476-3.712 7.439-3.827 2.475-.096 4.954-1.165 7.078-3.029 3.337-2.929 4.68-7.711 3.319-11.938-2.314-7.181-10.391-10.074-16.585-6.565-4.082 2.314-6.468 7.479-5.873 12.236-.224 3.389-.405 4.251-2.907 6.993l-17.424 16.296c-2.661 2.49-6.333 3.45-9.93 2.867-7.067-1.145-14.677.693-20.83 6.093-7.512 6.592-10.331 17.376-7.054 26.818 5.337 15.381 22.845 21.499 36.31 13.869 10.491-5.946 15.164-19.08 11.474-29.87-1.282-3.75-.722-7.889 1.577-11.117z" fill="#1874bd"/></svg>