<svg height="100" preserveAspectRatio="xMidYMid" viewBox="0 0 512 100" width="512" xmlns="http://www.w3.org/2000/svg"><path d="m441.708416 22.5512843c-5.036361 0-9.932824.6655797-14.689388 1.9882606-2.242622.6274255-4.345345 1.4286649-6.325127 2.3909999-.381543-.5935106-.835155-1.1531063-1.373553-1.6787872-1.86532-1.8017287-4.103703-2.7004733-6.715149-2.7004733h-10.072724v76.3169883h19.581612v-39.6210739c0-7.7071595 1.305723-10.7086275 3.921409-13.375186 2.611447-2.649601 6.621883-3.9765212 12.035548-3.9765212h8.449048v-19.3442072zm-357.5456411-22.5512843h-10.0769626v89.4802062c0 2.6580798.9368989 4.8795053 2.802218 6.6854734 1.8653192 1.8017287 4.1037021 2.7047127 6.7151489 2.7047127h10.0727233v-89.48444562c0-2.64960103-.9326596-4.87526589-2.7937394-6.68547331-1.8695585-1.79748934-4.1079414-2.70047337-6.7193882-2.70047337zm51.2835581 83.3755255c11.645526 0 15.329531-12.4170903 15.329531-22.9264678 0-10.5051382-3.684005-23.0833242-15.329531-23.0833242-11.649766 0-15.185394 12.578186-15.185394 23.0833242 0 10.5093775 3.535628 22.9264678 15.185394 22.9264678zm.021197-62.6747226c22.091313 0 34.338829 14.8080902 34.338829 39.5023718 0 24.5925369-12.247516 39.3582335-34.338829 39.3582335-22.527968 0-34.220128-14.7656966-34.220128-39.3582335 0-24.6942816 11.69216-39.5023718 34.220128-39.5023718zm-101.272839 62.6747226c-11.6455264 0-15.1853934-12.4170903-15.1853934-22.9264678 0-10.5051382 3.539867-23.0833242 15.1853934-23.0833242 6.0495691 0 9.9370637 3.4126862 12.2899094 8.1438138h20.3489359c-4.0867446-15.7534679-15.3422498-24.8087444-32.6176485-24.8087444-22.5279677 0-34.2158878 14.8080902-34.2158878 39.5023718 0 24.5925369 11.6879201 39.3582335 34.2158878 39.3582335 17.2753987 0 28.5097071-9.0467977 32.5922124-24.7451539h-13.3455105s-3.5907393.0975053-5.6129148 2.039133c-3.5186702 3.3787712-6.3844787 6.5201382-13.6549839 6.5201382zm205.301686-58.0606014c-1.772053-1.899234-4.057069-2.8446116-6.859287-2.8446116h-9.792925v47.8199993c0 4.5530744-1.352357 7.8724946-4.05707 9.9582605-2.704712 2.0857659-5.765531 3.1286489-9.127345 3.1286489-3.353335 0-6.418394-1.042883-9.123106-3.1286489-2.704713-2.0857659-4.061309-5.4051861-4.061309-9.9582605v-38.1500154c0-2.6538404-.881787-4.9261383-2.65808-6.8253723-1.767813-1.899234-4.052829-2.8446116-6.855047-2.8446116h-9.792926v44.3776377c0 13.4684519 3.726399 21.8030369 10.352521 26.457856 6.609165 4.6378616 13.934782 6.2530584 22.137947 6.2530584 8.207404 0 15.53726-1.6151968 22.142186-6.2530584 6.626122-4.6548191 10.352521-12.9894041 10.352521-26.457856v-34.7076538c0-2.6538404-.881787-4.9261383-2.65808-6.8253723zm77.320021-22.61275499c-1.865319-1.79748933-4.107941-2.70047337-6.715148-2.70047337h-9.822601v28.29349966c-2.976032-2.7937394-9.254527-7.5926967-18.759176-7.5926967-19.997069 0-31.557808 14.8038508-31.557808 39.4981324 0 24.5967763 11.874452 39.3582335 34.762766 39.3582335 22.349914 0 34.783962-14.6427551 34.881467-39.0487601h.008479v-51.12246207c0-2.65384039-.936899-4.8752659-2.797979-6.68547332zm-32.113164 80.67505209c-11.832058 0-15.431276-12.4213296-15.431276-22.9264678 0-10.5093775 3.599218-23.0833241 15.431276-23.0833241 11.759989 0 15.528782 12.425569 15.575415 22.8925529v.2501223c-.012718 10.4924201-3.764554 22.8671167-15.575415 22.8671167zm110.613848-27.6185932c0 1.6279148-.339149 3.1159308-1.008968 4.4598084-.423936.843633-.966575 1.6321543-1.653351 2.3655638-1.776293 1.8949947-3.963803 2.8446117-6.57525 2.8446117h-39.786409c.504484 9.084952 5.061798 17.9494572 14.905595 17.9494572 7.266266 0 10.127835-3.1456064 13.654984-6.5201382 2.022176-1.9373883 5.608676-2.0433723 5.608676-2.0433723h13.34975c-4.090984 15.6983561-15.321053 24.7451539-32.600692 24.7451539-22.523728 0-34.215887-14.7614573-34.215887-39.3539942 0-24.6985209 11.692159-39.5023718 34.215887-39.5023718 17.279639 0 28.539383 9.0552765 32.621888 24.8087444.737649 2.8191755 1.208218 5.8587978 1.471059 9.084952zm-34.118383-18.3903508c-8.114138 0-13.489648 6.1004414-14.07468 13.3497498h28.246866c-.046633-7.2493084-6.265776-13.3497498-14.172186-13.3497498zm150.801301 4.4725265c0-6.7617818-2.704713-12.0228296-8.114138-15.7831434-5.222894-3.5653032-13.061473-5.3543138-23.507261-5.3543138-9.330834 0-16.512313 2.1620745-21.548675 6.481984-4.476766 3.7560744-7.198436 8.885702-7.944563 14.7105849h18.750696c.93266-2.3655638 2.530899-3.8111861 4.591229-4.5615531 2.043372-.750367 4.37926-1.1319096 6.994946-1.1319096 3.25583 0 5.562043.4239362 7.97 1.2718085 2.844612 1.0004893 4.336867 2.6750372 4.336867 5.4942127 0 3.0184255-4.095223 5.837601-12.306867 6.9228776-9.869233 1.301484-17.66118 2.3825212-24.757872 7.6817233-4.557313 3.399968-7.427361 9.636069-7.427361 17.525521 0 8.4575265 2.58601 14.4223083 7.554542 18.1826221 4.430133 3.3533351 11.62433 6.2191435 23.274096 6.2191435 10.445787 0 18.280127-2.3189308 23.503021-5.8884733 5.409425-3.7560744 8.453287-8.088702 8.63134-16.0035902zm-21.035712 37.1071325c-2.98875 2.9505957-7.092453 4.4258935-12.315346 4.4258935-1.623676 0-6.766021-.3688244-8.90266-2.4545904-1.560085-1.5176914-2.51818-3.0735372-2.51818-5.837601 0-2.0306542.712212-3.9553244 1.954345-5.2949626 2.755585-2.9675532 5.786729-3.38725 12.306867-4.841351 4.31991-.9665745 9.619112-2.5817713 12.345021-4.1333776v5.744335c0 5.1677818.114463 9.4452977-2.870047 12.3916541z" fill="#004e6f"/></svg>