<svg height="256" preserveAspectRatio="xMidYMid" viewBox="0 0 256 256" width="256" xmlns="http://www.w3.org/2000/svg"><path d="m256 128c0 70.692-57.308 128-128 128s-128-57.308-128-128 57.308-128 128-128 128 57.308 128 128"/><path d="m86.8123 61.6718 24.472 24.472-36.909 36.908c-9.628 9.629-.267 18.989 9.361 9.361l55.095-55.095c35.839-35.839 92.673 20.995 56.834 56.834l-16.448 16.448 23.268 23.268-27.815 27.815-44.932-44.932 41.455-41.455c7.845-7.845-3.254-18.944-11.099-11.099l-58.037 58.037c-36.641 31.827-87.992-18.989-56.968-56.967z" fill="#fff"/></svg>