<svg height="304" preserveAspectRatio="xMidYMid" viewBox="0 0 256 304" width="256" xmlns="http://www.w3.org/2000/svg"><path d="m13.1040062 287.305758c-5.20394869 0-6.71734192-3.0292-6.71734192-7.56938 0-1.513393.19068272-3.219883.42481213-5.018093 1.13926892-7.851784 3.92227119-12.343689 10.63961309-12.343689 4.5425934 0 6.7583749 2.03234 6.7583749 5.722895v1.798211h4.5063878c.0506878 0 .0506878-1.655802.0506878-2.03234 0-5.392218-3.2657433-10.50686-11.3082094-10.50686-10.92925771 0-15.42357701 5.937715-17.07937886 17.576603-.23654313 1.561667-.37895174 3.019545-.37895174 4.576385 0 6.85975 2.69852255 13.099179 12.3485164 13.099179 7.3328368 0 11.6871612-3.574698 14.2408614-7.974883l-4.3060503-2.89886c-2.7902433 4.400185-5.8194435 5.570832-9.1793213 5.570832zm29.5703039-21.667833c-8.7545092 0-12.5367855 4.491906-13.8136356 13.43227-.1448223 1.045135-.2389568 2.131302-.2389568 3.123335 0 5.77117 2.6961088 10.362037 10.1689405 10.362037 8.7545092 0 12.5874733-4.685002 13.8643234-13.485372.1424086-1.134441.2365431-2.174748.2365431-3.215055.0024137-5.865304-2.7878297-10.217215-10.2172146-10.217215zm3.6422813 13.434684c-.9461725 6.483213-2.9785124 8.469692-6.8138901 8.469692-3.0726469 0-4.5860401-1.27685-4.5860401-5.109814 0-.946173.0965482-2.080614.2848172-3.359878.9461725-6.432525 2.8385175-8.419004 6.7173419-8.419004 3.1233347 0 4.6825883 1.27685 4.6825883 5.155675 0 .946172-.0965482 2.034753-.2848172 3.263329zm28.5806847-21.245434-1.4651191 8.684512c-.0941345.755489-.0458604.504464.2389568 1.214093-1.3709846-1.040307-3.8329641-1.728213-5.4887659-1.728213-7.8541971 0-12.2519682 3.555388-13.6712269 13.490199-.1882691 1.182716-.2365432 2.179576-.2365432 3.171609 0 7.241116 4.2577762 9.939639 9.9806715 9.939639 2.4161191 0 4.7791366.050688 6.6232074-1.508566l.4706726 2.942307h4.5425934l5.2980832-36.20558zm-4.4943193 28.341728c-2.1264744 1.274436-4.2070884 1.561667-5.4839385 1.561667-3.4540123 0-4.4001848-1.79821-4.4001848-4.682588 0-1.088581.1424086-2.363018.3330913-3.73883 1.0861674-7.521105 3.4998728-8.848643 6.6232074-8.848643 2.0323399 0 3.5915936.333091 5.0615401 1.139268zm24.6028983-20.530978c-8.6603747 0-12.7250544 4.112954-14.0984528 13.43227-.1448223 1.136856-.2389568 2.225437-.2389568 3.265744 0 6.386664 3.2657433 10.219628 10.4537578 10.219628 5.5829004 0 9.7489557-2.319571 11.9719787-6.577347l-4.7791369-1.940619c-1.3709846 2.080614-3.2150555 3.499873-6.4807988 3.499873-3.4998727 0-4.9191314-.941345-4.9191314-4.06468 0-.615495.0482741-1.51098.1424086-1.51098h17.0769655c.238956-2.413705.518946-4.120195.518946-5.534626 0-4.728449-1.795796-10.789263-9.6475799-10.789263zm3.2633296 11.498892h-10.4078973c1.0427207-2.413705 2.7902433-6.150121 6.3866643-6.150121 2.7902433 0 4.1636416 1.631665 4.1636416 4.421908-.0024137.473087-.0458604 1.728213-.1424086 1.728213zm24.5908303-12.068526.56722-4.827411h-13.342963l-.564807 4.827411h3.499873l-3.782276 24.137053h-3.5047l-.564807 4.827411h13.340549l.569634-4.827411h-3.502286l3.782276-24.137053zm27.110738 7.241116 1.704076-4.827411h-4.588454l-3.30919.683079c-1.846485-1.180302-4.354325-2.066132-6.717342-2.066132-6.76803 0-12.536786 3.268157-12.536786 10.697542 0 2.083028.75549 3.76538 1.653389 4.902236-1.416845.755489-2.647835 2.020271-2.647835 3.726761 0 .755489.282403 1.530289.852038 2.237504-2.840931 1.70649-4.58604 4.532939-4.58604 7.842129 0 6.389078 6.669068 7.752821 11.778882 7.752821 6.432524 0 14.098453-1.469946 14.098453-9.654821 0-2.790243-1.749937-4.969819-6.811477-5.915992l-9.131047-1.706489c-1.040307-.190683-1.27685-.521361-1.27685-.994447 0-.709629.429639-1.086167 1.136855-1.086167l.615495.094134c1.23099.282404 2.650248.427226 4.115367.427226 6.577347 0 12.442651-2.840931 12.442651-10.219628 0-1.042721-.188269-1.747523-.661355-2.884378.803764.378952 1.846485.994447 2.268883.994447h1.600287zm-13.007458 19.582391c1.795796.333091 2.408878.994447 2.408878 2.177162 0 3.832964-4.115368 4.306051-7.09388 4.306051-4.542594 0-6.244256-1.086168-6.244256-3.502287 0-2.128888.613081-3.120921 2.034754-4.636728zm-1.943033-12.391963c-2.744383 0-4.257776-.992033-4.257776-3.359878 0-3.499873 2.034753-5.534626 5.5829-5.534626 2.838518 0 4.211916 1.182716 4.211916 3.497459 0 3.502286-1.988893 5.397045-5.53704 5.397045zm31.757121-13.86191c-2.650249 0-5.013266 1.300988-7.948332 3.615731l-.424812-1.77166h-5.206362l-3.642282 26.550759h6.29253l2.744383-20.13513c1.846485-1.134442 4.115368-2.783002 6.055987-2.783002 2.363017 0 3.217469 1.141682 3.217469 3.316431 0 .52136-.050688 2.063718-.144822 2.630939l-2.314744 16.970762h6.29253l2.314743-17.108344c.096549-.80135.190683-2.119233.190683-2.874723.002414-4.499146-2.128888-8.411763-7.426971-8.411763zm19.37964 21.742658.048274-.649287 2.741969-19.2493h-10.456171l-.658942 4.827411h4.58604c-.378951 0-.615495.422398-.661355.803764l-1.892345 12.819189c-.094134.617908-.139995 1.901999-.139995 2.418532 0 3.311604 1.795797 5.681863 5.483939 5.681863h3.217469l.709629-4.827411h-2.03234c-.712043 0-.946172-1.25754-.946172-1.824761zm4.067093-29.553408h-6.150121c-.378952 0-.378952-1.392708-.424812-.919622l-.854452 6.801822c-.048274.427226-.048274 1.358916.330678 1.358916h6.152535c.378952 0 .378952-1.653388.424812-2.083028l.854452-5.249809c.048274-.473086.048274.091721-.333092.091721zm12.831258 29.715126c-1.559254 0-2.317157-.663769-2.317157-2.080614l.048274-.096548 1.986479-13.055732h7.190428l2.174749-4.827411h-8.703821l1.465119-10.622717-6.620794 2.11682-1.185129 8.505897h-3.830551l-.661355 4.827411h4.446045c-.424812 2.413705-.852038.84721-.897898 1.32271l-1.704076 11.448205c-.094135.52136-.094135.900312-.094135 1.370984 0 4.49432 3.311604 6.176672 7.28939 6.176672 3.688142 0 6.669068-1.076512 8.988639-3.019545l-2.935066-3.610903c-1.469946.897898-2.461979 1.544771-4.639141 1.544771zm23.087091-21.904376c-8.657961 0-12.725054 4.112954-14.098453 13.43227-.142408 1.136856-.236543 2.225437-.236543 3.265744 0 6.386664 3.26333 10.219628 10.453758 10.219628 5.5829 0 9.748956-2.319571 11.969565-6.577347l-4.776723-1.940619c-1.370985 2.080614-3.217469 3.499873-6.483213 3.499873-3.497459 0-4.919131-.941345-4.919131-4.06468 0-.615495.050688-1.51098.144822-1.51098h17.076965c.236544-2.413705.521361-4.120195.521361-5.534626 0-4.728449-1.798211-10.789263-9.652408-10.789263zm3.265743 11.498892h-10.407897c1.040307-2.413705 2.78783-6.150121 6.386664-6.150121 2.790244 0 4.163642 1.631665 4.163642 4.421908-.002414.473087-.048274 1.728213-.142409 1.728213zm23.796721-11.498892c-2.271296 0-4.400185 1.300988-6.529073 3.330914l-.378951-1.486843h-5.201535l-3.644695 26.550759h6.340803l2.790244-20.559942c1.655802-.992033 3.548147-1.839244 5.346357-1.839244 1.136855 0 2.223023-.181028 3.26333-.038619l.808591-5.486352c-.951-.188269-1.897172-.470673-2.795071-.470673zm-160.663467-26.828334c-14.3205137-6.188741-27.7214056-21.921272-27.7527838-38.018273-.0386193-17.550051 11.0837348-32.449854 24.91668-42.242257-1.6630429 6.282875-2.5705961 12.029908 1.5495989 17.649014 3.8305503 5.225672 10.5382369 7.76489 16.8717999 6.386664 14.800841-3.239193 15.479092-19.50998 6.705274-28.988601-8.674857-9.3869-17.0673107-19.990307-13.765362-33.603605 1.653388-6.823545 5.843581-13.215037 11.151319-17.784181-4.079162 10.721679 7.513864 21.296122 15.153242 26.562827 13.251242 9.138288 27.788989 16.043899 39.973374 26.755923 12.816775 11.257522 22.280913 26.480761 20.369259 44.134602-2.070959 19.135856-17.277303 32.445027-34.332545 39.164783 36.041448-7.955573 73.282508-35.928004 74.045238-75.901378.632391-32.884321-21.926099-58.192021-49.871979-72.6814945l-1.460292-.7965227c.767559 1.8609668 1.018584 3.4443575.98962 4.8612025.251025-1.0451344.419984-2.1192333.468258-3.227124-.012068 1.3782257-.188269 2.6792129-.511705 3.9005478l.043447-.6734238c-.419985 1.7740734-1.124787 3.4226341-2.068546 4.9312l.41033-.4417081c-5.575659 9.2469048-20.668559 11.2551078-28.124494 1.6799388-11.986461-15.4018536.251025-32.0081462 1.962342-48.317553 2.14337-20.4416704-10.675819-40.2847418-26.570068-52.160172 8.754509 14.1612091-2.778175 32.8963898-12.00577 43.3694572-8.947606 10.1544583-19.8285896 18.6313914-29.7054718 27.8565731-10.6106486 9.9082603-20.8109673 20.3451222-29.5316846 31.9743547-17.4414346 23.27536-28.119667 52.548778-20.272711 81.588067 7.8421286 29.017565 32.9784558 47.489652 61.3636304 54.021139z" fill="#ee4323"/></svg>