<svg height="93" preserveAspectRatio="xMidYMid" viewBox="0 0 512 93" width="512" xmlns="http://www.w3.org/2000/svg"><g fill="#ccc" transform="translate(0 -1)"><path d="m32.1329708 23.8999612c5.7388738 0 10.9980584 2.0753398 15.086602 5.504l5.557437-6.6236894c-5.5872622-4.696233-12.787573-7.5321165-20.6415534-7.5321165-17.7199224 0-32.1354564 14.4155341-32.1354564 32.1342137 0 17.721165 14.415534 32.136699 32.136699 32.131728 7.8539806 0 15.0542912-2.8358834 20.6415534-7.5321164l-5.5574368-6.6236894c-4.0835728 3.4311456-9.3464856 5.504-15.0853592 5.504-12.9478836 0-23.48240786-10.5332814-23.48240786-23.4799222-.00124272-12.9466408 10.53452426-23.4848932 23.48365046-23.4824078z"/><path d="m210.010718 17.103534h-17.302368c-2.388505 0-4.324661 1.937398-4.324661 4.3246602v51.9071068c0 2.3860194 1.938641 4.3246602 4.324661 4.3246602h17.302368c16.697166 0 30.278836-13.5829126 30.278836-30.278835 0-16.6984078-13.580428-30.2813204-30.282564-30.2775922zm0 51.9071068h-12.976466v-43.255301h12.976466c11.92637 0 21.623302 9.705631 21.623302 21.6282718.00497 11.9313398-9.696932 21.6245438-21.62703 21.6270292z"/><path d="m263.71231 21.4294368v51.9071068c0 2.3860196 1.938642 4.3246602 4.32466 4.3246602h36.047534v-8.650563h-31.720388v-17.3036116h20.185476v-8.6505632h-20.185476v-17.3011262h31.720388v-8.6505631h-36.047534c-2.387262-.0049709-4.319688 1.9336699-4.319688 4.3246601z"/><path d="m394.648854 21.4294368v51.9071068c0 2.3860196 1.938642 4.3246602 4.32466 4.3246602h36.046292v-8.650563h-31.720388v-17.3036116h20.186718v-8.6505632h-20.186718v-17.3011262h31.720388v-8.6505631h-36.045048c-2.388506-.0049709-4.32466 1.9336699-4.32466 4.3246601z"/><path d="m353.482564 17.103534h-18.745166c-2.388504 0-4.32466 1.937398-4.32466 4.3246602v56.2330096h8.651806v-25.9541746h14.419262c9.54035 0 17.302368-7.7620194 17.302368-17.3011262-.001242-9.5391068-7.763262-17.3060972-17.30734-17.302369zm0 25.952932h-14.419264v-17.3011262h14.419264c4.770796 0 8.64932 3.8772816 8.64932 8.6505632 0 4.7732814-3.878524 8.6542912-8.65305 8.650563z"/><path d="m502.649786 17.103534v44.2855146l-35.606368-42.7296311c-1.16567-1.4005437-3.083184-1.92-4.795652-1.2986408-1.712466.6213592-2.85328 2.246835-2.85328 4.0674175v56.2330096h8.651806v-44.2842718l35.606368 42.7283884c.838836 1.006602 2.062912 1.553398 3.318058 1.553398.492116 0 .990448-.0820194 1.472622-.2572426 1.712466-.6213592 2.853282-2.246835 2.853282-4.0674176v-56.2330097h-8.646836z"/><path d="m163.808932 32.6350292c-.021126-.1118448-.039767-.2236894-.069592-.3330486-.018641-.065864-.04101-.128-.062136-.1926214-.031068-.096932-.063379-.193864-.101903-.2883106-.02734-.0658642-.058408-.1292428-.088233-.1926214-.042252-.0894758-.085748-.1777088-.135456-.2634564-.034796-.0633786-.074563-.123029-.113088-.1839222-.053437-.0820194-.108116-.1627962-.167767-.2410874-.043495-.0584078-.088233-.1143302-.135456-.1702524-.062136-.0745632-.129243-.1453982-.19635-.2149904-.052194-.0521942-.104388-.1043884-.159068-.1553398-.072077-.065864-.14664-.128-.224932-.1876504-.05965-.0459806-.118058-.093204-.180194-.1354564-.022369-.0161552-.042252-.034796-.065864-.0497086l-42.172893-28.11774767c-1.330951-.88854369-3.067029-.88854369-4.397981 0l-42.1753782 28.11650487c-.0236116.0149126-.0422524.0335534-.0658642.0497088-.0621358.043495-.1205436.0894756-.180194.1354562-.0770486.0608932-.1528544.1230292-.2249322.1864078-.0546796.0497088-.1068738.101903-.1578252.1553398-.0695922.0695922-.1342136.1404272-.1975922.2149904-.0472232.0559222-.0919612.1118446-.1354564.1739804-.0596504.0782914-.11433.1578254-.1677668.2410874-.0385244.0608932-.0770486.1205438-.1130874.1839224-.0497088.0857476-.093204.1739806-.1342136.2609708-.0298254.0633788-.062136.128-.088233.1926214-.0385244.0944466-.0720778.1913786-.1031458.2883108-.0211262.0646212-.043495.128-.0608932.1864076-.0285824.1093592-.0497086.2199612-.0695922.3330486-.0111844.057165-.0248544.1130874-.0323106.1714952-.022369.1714952-.0347962.3429902-.0347962.5182136v28.1227184c0 .1739806.0124272.3479612.0372816.5182136.008699.062136.0248544.1118446.0372816.1714952.0198834.1118446.0372816.2236892.074563.335534.0173982.0621358.0372816.1242718.062136.1926212.031068.0994176.062136.198835.0994174.2895534.0260972.062136.062136.124272.0869904.1864078.0410096.0869904.0869902.1739806.136699.264699.0347962.062136.0745632.124272.1118446.181437.053437.0869902.1118448.1615534.1739806.2361164.0434952.062136.0869904.1118448.136699.1714952.0633788.0745632.124272.1491262.198835.2149904.0509514.0497086.0994174.1118446.1615534.1491262.0720776.0621358.1491262.1242718.2236894.1888932.0596504.0497086.1242718.0869902.1739806.1354562.0236116.0124272.0372814.0372816.0621358.048466l42.1641938 28.1314176c.666098.4473786 1.429127.6710678 2.199612.6673398.770486-.0037282 1.533515-.2236894 2.199612-.6673398l42.175378-28.116505c.023612-.0149126.043496-.0323106.065864-.048466.062136-.043495.120544-.0894756.180195-.1354562.077048-.0608932.152854-.1242718.224932-.1888932.054679-.048466.106873-.101903.159068-.1540972.068349-.0695922.134213-.1404272.196349-.2149902.047223-.0559224.091961-.1118446.135456-.1714952.059651-.0782912.114331-.159068.167767-.2410874.038525-.0596504.077049-.1205436.113088-.1814368.049709-.0869904.093204-.1752234.135456-.264699.029825-.0633788.060893-.1267574.088233-.1913788.038524-.0956892.070835-.1926212.101903-.2895534.021126-.0646212.043495-.128.062136-.1926212.028582-.1093594.048466-.221204.069592-.3330486.009942-.057165.024855-.1130874.031068-.1714952.022369-.1714952.034796-.3429902.034796-.5182136v-28.1177476c0-.1752232-.01367-.3467184-.034796-.5182136-.009942-.0608932-.028582-.1106018-.04101-.171495zm-46.072544 24.1286212-14.024077-9.3800388 14.024077-9.3812816 14.025321 9.3812816zm-3.964271-25.6497086-17.1917674 11.4988738-13.877437-9.2831068 31.0692044-20.7123884zm-24.3237286 16.2684272-9.9193786 6.6348738v-13.2697476zm7.1319612 4.7745242 17.1917674 11.497631v18.4966214l-31.0692044-20.7148738 13.877437-9.281864zm25.1215534 11.4951456 17.191767-11.497631 13.87868 9.281864-31.070447 20.7123884zm24.323728-16.2671844 9.920621-6.6361166v13.2709904l-9.920621-6.6373592zm-7.131961-4.7720388-17.191767-11.4976312v-18.497864l31.070447 20.7123884z"/></g></svg>