<svg height="190" preserveAspectRatio="xMidYMid" viewBox="0 0 256 190" width="256" xmlns="http://www.w3.org/2000/svg" xmlns:xlink="http://www.w3.org/1999/xlink"><radialGradient id="a" cx="38.696568%" cy="52.908766%" r="43.778821%"><stop offset="0" stop-color="#20a4c1"/><stop offset=".488799426" stop-color="#008490"/><stop offset="1" stop-color="#1fa4bf"/></radialGradient><path d="m112.532 92.5602-41.362-30.253 38.999 65.233 145.83-120.541zm-17.744 79.9988c-42.952 0-77.771-34.819-77.771-77.771 0-42.951 34.819-77.771 77.771-77.771 19.019 0 36.435 6.837 49.948 18.174l10.902-13.008c-16.478-13.832-37.703-22.183-60.85-22.183-52.267 0-94.788 42.522-94.788 94.788 0 52.267 42.521 94.789 94.788 94.789 27.105 0 51.571-11.454 68.863-29.755l-12.337-11.651c-14.178 15.008-34.251 24.388-56.526 24.388zm0-22.5425c-30.502 0-55.228-24.726-55.228-55.228s24.726-55.229 55.228-55.229c13.506 0 25.867 4.864 35.463 12.915l8.184-9.766c-11.819-9.922-27.044-15.912-43.647-15.912-37.491 0-67.992 30.501-67.992 67.992 0 37.49 30.501 67.991 67.992 67.991 19.442 0 36.992-8.216 49.395-21.343l-9.281-8.764c-10.068 10.657-24.295 17.344-40.114 17.344z" fill="url(#a)"/></svg>