<svg height="58" preserveAspectRatio="xMidYMid" viewBox="0 0 512 58" width="512" xmlns="http://www.w3.org/2000/svg"><g fill="#0b2734"><g transform="translate(125.848739 10.756303)"><path d="m20.0067227.96806723c5.4857143 0 9.5731092 1.7210084 13.2302521 5.05546218.5378151.4302521.5378151 1.07563025.107563 1.50588235l-4.302521 4.41008404c-.4302521.4302521-.9680672.4302521-1.3983193 0-2.0436975-1.8285714-4.7327731-2.79663866-7.4218488-2.79663866-6.2386554 0-10.75630248 5.16302526-10.75630248 11.29411766s4.62521008 11.0789916 10.75630248 11.0789916c2.5815126 0 5.3781513-.9680672 7.3142858-2.5815126.4302521-.3226891 1.0756302-.3226891 1.3983193.107563l4.302521 4.5176471c.4302521.4302521.3226891 1.0756302-.107563 1.5058823-3.7647059 3.6571429-8.389916 5.2705883-13.3378152 5.2705883-10.97142853 0-19.7915966-8.7126051-19.7915966-19.6840337 0-10.97142853 9.03529412-19.68403357 20.0067227-19.68403357z"/><path d="m56.5781513.96806723c10.9714285 0 19.6840336 8.82016806 19.6840336 19.79159667 0 10.9714285-8.7126051 19.6840336-19.6840336 19.6840336-10.9714286 0-19.6840337-8.7126051-19.6840337-19.6840336 0-10.97142861 8.8201681-19.79159667 19.6840337-19.79159667zm0 30.76302517c6.0235294 0 10.9714285-4.9478991 10.9714285-10.8638655 0-6.0235294-4.9478991-10.97142858-10.9714285-10.97142858-6.0235295 0-10.8638656 4.94789918-10.8638656 10.97142858 0 5.9159664 4.9478992 10.8638655 10.8638656 10.8638655z"/><path d="m82.9310924 2.58151261c0-.53781513.4302521-1.07563026.9680673-1.07563026h13.3378151c10.5411762 0 19.2537812 8.60504205 19.2537812 19.14621845 0 10.6487395-8.605042 19.2537816-19.2537812 19.2537816h-13.3378151c-.5378152 0-.9680673-.5378152-.9680673-1.0756303zm13.8756303 29.25714289c6.2386553 0 10.6487393-4.8403362 10.6487393-11.0789916 0-6.2386555-4.517647-11.07899163-10.6487393-11.07899163h-5.2705882v22.15798323z"/><path d="m123.267227 2.58151261c0-.53781513.430252-1.07563026 1.07563-1.07563026h22.695798c.645379 0 1.075631.53781513 1.075631 1.07563026v6.02352941c0 .53781512-.430252 1.07563025-1.075631 1.07563025h-15.166386v6.77647063h12.477311c.537815 0 1.07563.5378151 1.07563 1.0756302v6.0235294c0 .6453782-.537815 1.0756303-1.07563 1.0756303h-12.477311v7.4218487h15.166386c.645379 0 1.075631.5378151 1.075631 1.0756303v6.0235294c0 .5378151-.430252 1.0756302-1.075631 1.0756302h-22.695798c-.645378 0-1.07563-.5378151-1.07563-1.0756302z"/><path d="m184.470588.96806723c5.485715 0 9.573109 1.7210084 13.230252 5.05546218.537815.4302521.537815 1.07563025.107563 1.50588235l-4.302521 4.41008404c-.430252.4302521-.968067.4302521-1.398319 0-2.043697-1.8285714-4.732773-2.79663866-7.421849-2.79663866-6.238655 0-10.756302 5.16302526-10.756302 11.29411766s4.62521 11.0789916 10.756302 11.0789916c2.581513 0 5.378152-.9680672 7.314286-2.5815126.430252-.3226891 1.07563-.3226891 1.398319.107563l4.302521 4.5176471c.430252.4302521.322689 1.0756302-.107563 1.5058823-3.764706 3.6571429-8.389916 5.2705883-13.337815 5.2705883-10.971428 0-19.791596-8.7126051-19.791596-19.6840337 0-10.97142853 9.035294-19.68403357 20.006722-19.68403357z"/><path d="m204.262185 2.58151261c0-.53781513.430252-1.07563026 1.07563-1.07563026h6.561345c.537815 0 1.07563.53781513 1.07563 1.07563026v29.25714289h13.015126c.645378 0 1.07563.5378151 1.07563 1.0756302v6.0235294c0 .5378152-.430252 1.0756303-1.07563 1.0756303h-20.544538c-.645378 0-1.07563-.5378151-1.07563-1.0756303v-36.35630249z"/><path d="m232.336134 2.58151261c0-.53781513.537816-1.07563026 1.075631-1.07563026h6.561344c.537815 0 1.07563.53781513 1.07563 1.07563026v36.24873949c0 .5378151-.537815 1.0756303-1.07563 1.0756303h-6.561344c-.537815 0-1.075631-.5378152-1.075631-1.0756303z"/><path d="m254.171429 1.93613445c.107563-.53781512.537815-.8605042.968067-.8605042h.860504c.322689 0 .752941.21512605.968067.53781513l12.692437 23.66386552h.107563l12.692437-23.66386552c.215126-.32268908.645378-.53781513.968067-.53781513h.860505c.430252 0 .968067.4302521.968067.8605042l6.238655 36.78655465c.107563.7529412-.430252 1.1831933-1.07563 1.1831933h-6.453781c-.537816 0-.968068-.4302521-1.075631-.8605042l-2.473949-16.887395h-.107563l-9.142857 17.6403361c-.215126.3226891-.645379.6453782-.968068.6453782h-.968067c-.322689 0-.752941-.3226891-.968067-.6453782l-9.25042-17.7478991h-.107563l-2.366387 16.8873949c-.107563.4302521-.537815.8605042-1.07563.8605042h-6.453782c-.645378 0-1.183193-.5378151-1.07563-1.1831932z"/><path d="m293.539496 38.507563 17.102521-36.89411762c.215126-.32268908.537815-.64537815.968067-.64537815h.537815c.430252 0 .752941.32268907.968067.64537815l17.102521 36.89411762c.322689.7529412-.107563 1.3983194-.968067 1.3983194h-6.131092c-.968067 0-1.39832-.3226891-1.936135-1.3983194l-1.936134-4.302521h-14.843698l-1.936134 4.4100841c-.322689.6453781-.860504 1.2907563-1.936135 1.2907563h-6.023529c-.860504 0-1.290756-.7529412-.968067-1.3983194zm22.480672-11.7243697-4.194958-9.0352941h-.107563l-4.087395 9.0352941z"/><path d="m337.747899 9.57310924h-7.852101c-.645378 0-1.07563-.53781512-1.07563-1.07563025v-6.02352941c0-.53781513.430252-1.07563025 1.07563-1.07563025h24.309244c.645378 0 1.07563.53781512 1.07563 1.07563025v6.13109244c0 .53781512-.430252 1.07563025-1.07563 1.07563025h-7.852101v29.25714283c0 .5378152-.537815 1.0756303-1.07563 1.0756303h-6.561345c-.537815 0-1.07563-.5378151-1.07563-1.0756303v-29.36470586z"/><path d="m360.658824 2.58151261c0-.53781513.430252-1.07563026 1.07563-1.07563026h22.695798c.645378 0 1.07563.53781513 1.07563 1.07563026v6.02352941c0 .53781512-.430252 1.07563025-1.07563 1.07563025h-15.166386v6.77647063h12.47731c.537816 0 1.075631.5378151 1.075631 1.0756302v6.0235294c0 .6453782-.537815 1.0756303-1.075631 1.0756303h-12.47731v7.4218487h15.166386c.645378 0 1.07563.5378151 1.07563 1.0756303v6.0235294c0 .5378151-.430252 1.0756302-1.07563 1.0756302h-22.695798c-.645378 0-1.07563-.5378151-1.07563-1.0756302z"/></g><path d="m68.6252101 0-19.5764706 19.4689076 11.6168067 11.6168067 7.9596639-7.9596639 22.3731092 22.4806723 11.5092437-11.6168067z"/><path d="m45.4991597 23.0184874-11.5092437-11.5092437-29.47226894 29.4722689-4.51764706 4.5176471 11.6168067 11.6168067 4.5176471-4.6252101 14.9512605-14.8436975 2.9042017-2.9042017 11.5092437 11.5092437 10.8638655 10.8638656 11.6168067-11.6168067-10.8638655-10.8638656z"/></g></svg>