<svg height="256" preserveAspectRatio="xMidYMid" viewBox="0 0 256 256" width="256" xmlns="http://www.w3.org/2000/svg"><path d="m128 0c-70.7490909 0-128 57.2509091-128 128 0 70.749091 57.2509091 128 128 128 70.749091 0 128-57.250909 128-128 0-70.7490909-57.716364-128-128-128zm0 232.727273c-58.1818182 0-105.1927273-47.010909-105.1927273-104.727273 0-58.1818182 47.0109091-105.1927273 105.1927273-105.1927273 58.181818 0 104.727273 47.0109091 104.727273 105.1927273 0 57.716364-47.010909 104.727273-104.727273 104.727273zm-13.963636-69.818182-37.7018185-34.909091 37.7018185-35.3745455v-33.0472727l-72.1454549 68.4218182 72.1454549 67.956364zm27.461818-103.3309092v33.0472727l37.701818 35.3745455-37.701818 34.909091v33.047273l72.145454-67.956364z" fill="#53adc0"/></svg>