<svg height="256" preserveAspectRatio="xMidYMid" viewBox="0 0 256 256" width="256" xmlns="http://www.w3.org/2000/svg"><path d="m236.184 256h-216.368c-10.944 0-19.816-8.872-19.816-19.816v-216.368c0-10.944 8.872-19.816 19.816-19.816h216.368c10.944 0 19.816 8.872 19.816 19.816v216.368c0 10.944-8.872 19.816-19.816 19.816" fill="#26c6da"/><path d="m57.448 130.423 54.751-41.891c1.068-.817 2.553-.809 3.613.019l76.696 59.94c1.071.837 1.07 2.457-.002 3.293l-53.772 41.937c-1.28.998-3.077.994-4.352-.011l-76.953-60.662c-.852-.672-.843-1.966.019-2.625" fill="#21afd0"/><path d="m57.448 145.517 54.751-41.89c1.068-.818 2.553-.81 3.613.018l76.696 59.94c1.071.837 1.07 2.457-.002 3.293l-53.772 41.937c-1.28.999-3.077.994-4.352-.011l-76.953-60.662c-.852-.671-.843-1.966.019-2.625" fill="#21afd0"/><path d="m112.199 103.627-46.734 35.756 68.917 54.327c1.275 1.005 3.072 1.009 4.352.011l46.215-36.043-69.137-54.033c-1.06-.828-2.545-.836-3.613-.018" fill="#1d9cc8"/><path d="m78.173 131.421 52.887-41.523c1.251-.983 1.275-2.871.048-3.885l-14.526-11.999c-1.566-1.294-3.821-1.324-5.422-.073l-53.523 41.841c-.917.716-.924 2.101-.014 2.827l16.026 12.794c1.321 1.055 3.194 1.062 4.524.018" fill="#d3faff"/><path d="m100.322 120.596 53.79 41.909c1.26.972 1.3 2.86.082 3.884l-14.42 12.127c-1.555 1.307-3.81 1.357-5.421.12l-54.918-42.274c-.923-.709-.942-2.093-.039-2.827l16.403-12.881c1.312-1.066 3.185-1.09 4.523-.058" fill="#d3faff"/><path d="m161.203 161.326 30.938-24.132c1.252-.983 1.276-2.871.049-3.885l-14.526-12c-1.566-1.293-3.822-1.324-5.422-.073l-31.575 24.451c-.916.716-.923 2.101-.014 2.828l16.026 12.793c1.321 1.055 3.195 1.062 4.524.018" fill="#d3faff"/><g fill="#fff"><path d="m32.648 136.034-.491-.638.638-.491.491.638zm1.276-.981-.491-.639.638-.491.491.639zm1.276-.982-.49-.639.637-.49.491.638zm1.277-.982-.492-.638.638-.491.492.638zm1.275-.982-.49-.638.638-.491.491.639zm1.277-.981-.491-.639.638-.49.491.638zm1.276-.982-.491-.638.638-.491.491.638zm1.276-.982-.491-.638.638-.491.491.639zm1.277-.981-.492-.639.638-.491.492.639zm1.275-.982-.49-.638.638-.491.491.638zm1.277-.982-.491-.638.638-.491.491.639zm1.276-.981-.491-.639.638-.49.491.638zm1.276-.982-.491-.638.638-.491.491.638zm1.277-.982-.492-.638.638-.491.492.638zm1.275-.981-.49-.638.638-.491.49.638zm1.277-.982-.491-.638.638-.491.491.638zm1.275-.982-.49-.638.512-.394.491.639z" opacity=".8"/><path d="m113.08 198.543-.491-.639.638-.49.491.638zm1.276-.982-.491-.638.638-.491.491.638zm1.276-.982-.491-.638.638-.49.491.638zm1.277-.981-.492-.639.638-.49.492.638zm1.275-.982-.491-.638.639-.491.491.638zm1.277-.982-.492-.638.638-.491.492.638zm1.276-.981-.491-.638.638-.491.491.638zm1.276-.982-.491-.638.638-.491.491.638zm1.276-.981-.491-.639.638-.491.491.639zm1.276-.982-.491-.638.639-.491.49.638zm1.276-.982-.49-.638.638-.491.49.638zm1.276-.982-.49-.638.638-.491.491.638zm1.277-.981-.491-.638.638-.491.491.638zm1.276-.982-.491-.638.638-.491.491.638zm1.276-.981-.491-.639.639-.491.49.639zm1.276-.982-.49-.639.638-.49.49.638zm1.276-.982-.49-.638.512-.394.49.638z" opacity=".8"/><path d="m196.009 133.901-.492-.638.638-.491.492.638zm1.276-.982-.491-.638.638-.491.491.639zm1.276-.981-.491-.639.638-.49.491.638zm1.276-.982-.491-.638.638-.491.491.638zm1.276-.982-.491-.638.639-.491.49.639zm1.277-.981-.492-.639.638-.491.492.639zm1.276-.982-.491-.638.638-.491.491.638zm1.276-.982-.491-.638.638-.491.49.639zm1.276-.981-.491-.639.638-.491.491.639zm1.276-.982-.491-.638.639-.491.49.638zm1.276-.982-.49-.638.638-.491.49.639zm1.276-.981-.49-.639.638-.491.491.639zm1.277-.982-.492-.638.638-.491.492.638zm1.276-.982-.491-.638.638-.491.491.638zm1.276-.981-.491-.639.639-.491.49.639zm1.276-.982-.49-.639.637-.49.491.638zm1.276-.982-.491-.638.513-.394.49.638z" opacity=".8"/><path d="m115.404 71.063-.491-.639.638-.49.491.638zm1.276-.982-.491-.638.638-.491.491.638zm1.276-.982-.491-.638.638-.49.491.638zm1.277-.981-.492-.638.638-.491.491.638zm1.275-.982-.49-.638.638-.491.49.638zm1.277-.982-.491-.638.638-.491.491.639zm1.276-.981-.491-.638.638-.491.491.638zm1.276-.982-.491-.638.638-.491.491.639zm1.277-.982-.492-.638.638-.491.491.639zm1.275-.981-.491-.638.639-.491.49.638zm1.276-.982-.49-.638.638-.491.49.638zm1.276-.981-.49-.639.638-.491.491.639zm1.277-.982-.491-.638.638-.491.491.638zm1.276-.982-.491-.638.638-.491.491.638zm1.276-.981-.491-.639.639-.491.49.639zm1.276-.982-.49-.639.638-.49.49.638zm1.276-.982-.49-.638.512-.394.49.638z" opacity=".8"/><path d="m90.105 54.151.497-.634.634.497-.497.634zm1.267.994.497-.634.634.496-.497.634zm1.268.992.497-.633.633.496-.497.634zm1.267.994.497-.634.633.496-.496.634zm1.267.992.497-.633.634.497-.497.633zm1.268.994.496-.634.634.496-.497.635zm1.267.993.496-.634.634.497-.496.634zm1.267.993.497-.634.633.497-.496.633zm1.267.994.497-.635.634.497-.497.634zm1.267.992.497-.633.634.497-.497.633zm1.268.993.497-.633.633.496-.497.634zm1.267.993.497-.633.634.497-.497.633zm1.267.994.497-.634.634.496-.497.635zm1.268.993.497-.634.633.497-.496.634zm1.267.993.497-.634.634.497-.497.634zm1.268.993.496-.633.634.496-.497.634zm1.267.993.497-.634.508.399-.497.634z" opacity=".8"/><path d="m32.483 99.123.497-.635.634.497-.497.634zm1.267.993.497-.634.634.496-.497.634zm1.268.992.497-.633.633.496-.497.634zm1.267.994.497-.634.633.496-.496.635zm1.267.993.497-.634.634.497-.497.633zm1.268.993.496-.634.634.497-.497.634zm1.267.994.496-.635.634.497-.496.634zm1.267.992.497-.633.633.496-.497.634zm1.267.994.497-.634.634.496-.497.634zm1.267.992.497-.633.634.497-.497.633zm1.268.994.497-.634.633.497-.497.633zm1.267.993.497-.634.634.497-.497.633zm1.267.993.497-.634.634.496-.497.635zm1.268.993.497-.634.633.497-.496.634zm1.267.993.497-.633.634.496-.497.634zm1.267.993.497-.633.634.496-.497.634zm1.267.993.497-.633.509.398-.497.634z" opacity=".8"/><path d="m137.808 181.37.497-.634.634.496-.497.634zm1.267.993.497-.634.634.497-.497.634zm1.268.993.497-.634.633.497-.497.633zm1.267.994.497-.635.633.497-.496.634zm1.267.992.497-.633.634.496-.497.634zm1.268.994.496-.635.634.497-.497.634zm1.267.993.496-.634.634.496-.496.634zm1.267.992.497-.633.633.497-.496.633zm1.267.994.497-.634.634.496-.497.635zm1.267.993.497-.634.634.497-.497.633zm1.268.993.497-.634.633.497-.497.633zm1.267.993.497-.634.634.497-.497.634zm1.267.994.497-.635.634.497-.497.634zm1.268.993.496-.634.634.496-.496.634zm1.267.992.497-.633.633.497-.496.633zm1.267.994.497-.634.634.497-.497.633zm1.268.993.496-.634.509.399-.497.633z" opacity=".8"/><path d="m195.398 137.9.497-.635.634.497-.497.634zm1.267.993.497-.634.634.496-.497.634zm1.268.992.497-.633.633.496-.497.634zm1.267.994.497-.634.634.496-.497.635zm1.267.993.497-.634.634.497-.497.634zm1.268.993.496-.634.634.496-.497.635zm1.267.994.497-.635.633.497-.496.634zm1.267.992.497-.633.634.496-.497.634zm1.267.994.497-.634.634.496-.497.634zm1.267.992.497-.633.634.497-.497.633zm1.268.993.497-.633.633.497-.497.633zm1.267.993.497-.633.634.497-.497.633zm1.267.994.497-.634.634.496-.497.635zm1.268.993.497-.634.633.497-.496.634zm1.267.993.497-.633.634.496-.497.634zm1.268.993.496-.633.634.496-.497.634zm1.267.993.496-.633.509.398-.497.634z" opacity=".8"/></g></svg>