<svg height="256" preserveAspectRatio="xMidYMid" viewBox="0 0 256 256" width="256" xmlns="http://www.w3.org/2000/svg"><path d="m128 256c70.692448 0 128-57.307552 128-128s-57.307552-128-128-128-128 57.307552-128 128 57.307552 128 128 128zm0-26.122449c-56.2654178 0-101.877551-45.612133-101.877551-101.877551 0-56.2654178 45.6121332-101.877551 101.877551-101.877551 56.265418 0 101.877551 45.6121332 101.877551 101.877551 0 56.265418-45.612133 101.877551-101.877551 101.877551zm-1.044898-173.7142857c-33.9591836 0-62.432653 23.7714286-69.7469387 55.6408167h34.2204081c6.2693878-13.5836738 19.8530616-22.9877555 35.5265306-22.9877555 21.681633 0 39.183674 17.5020405 39.183674 39.1836735s-17.502041 39.183673-39.183674 39.183673c-15.673469 0-29.2571428-9.404081-35.5265306-22.72653h-34.2204081c7.3142857 31.608163 35.7877551 55.379592 69.7469387 55.379592 39.706122 0 71.836735-32.130613 71.836735-71.836735 0-39.7061224-32.130613-71.8367347-71.836735-71.8367347z"/></svg>