<svg height="256" preserveAspectRatio="xMidYMid" viewBox="0 0 256 256" width="256" xmlns="http://www.w3.org/2000/svg"><circle cx="128" cy="128" r="114.585153"/><g fill="#fff"><path d="m128 239.231441c61.431429 0 111.231441-49.800012 111.231441-111.231441 0-61.4314286-49.800012-111.231441-111.231441-111.231441-61.4314286 0-111.231441 49.8000124-111.231441 111.231441 0 61.431429 49.8000124 111.231441 111.231441 111.231441zm0 16.768559c-70.692448 0-128-57.307552-128-128s57.307552-128 128-128 128 57.307552 128 128-57.307552 128-128 128z"/><path d="m215.498929 92.9637888c-5.762082 8.0669152-12.010484 14.9022802-18.822801 23.0483282l-9.219331 10.371747c-7.682776 7.298638-26.889716 21.511773-35.724909 27.273855-4.993804 3.457249-10.371747 6.146221-15.74969 8.451054l-7.014375 3.395787c1.152416 1.152416 3.295911 1.782788 5.235428 2.688971 1.152416 0 5.236196-2.24337 6.388612-3.011648l12.292442-6.914498c2.304833-1.536555 4.609665-3.457249 7.298637-3.841388-1.152416 2.688971-3.841388 4.225527-6.53036 5.762082l-7.298637 4.225527s-7.663953 4.367658-8.712268 5.09368c2.100855.82974 5.255019 1.782788 7.255998 2.589096 1.920694 0 4.529381-1.920694 6.065936-2.688972 4.225527-2.304833 9.60347-5.762082 13.828997-8.835192l6.914498-4.609666c5.377943-4.225527 10.755886-8.835192 15.749691-13.828997 3.841388-3.457249 7.682776-6.914498 10.755886-11.140025 4.225527-4.993804 6.914499-10.755886 9.987609-16.517968 3.457249-5.377944 4.609666-8.835193 6.53036-14.5972748.384138-1.920694 1.536555-4.9938044.768277-6.9144984zm-176.3197091-1.920694c-1.1524164 4.2255268.3841388 9.2193312 1.920694 13.0607192 3.4572492 9.219331 9.2193312 17.286246 14.9814132 24.969022 3.4572492 4.993804 9.2193312 11.140025 13.444858 15.365552l4.6096656 3.841388 9.9876088 8.835192c8.0669148 6.146221 23.0483285 15.365552 32.2676595 19.591079l12.292441 5.377943 4.993805 1.920694c5.762082 2.304833 11.524164 3.841388 17.670385 4.993805 3.457249.768277 7.298637 1.920694 10.755886 1.920694-1.152416-4.225527-3.457249-3.841388-6.914498-4.993805l-12.676581-4.993804c-17.670385-7.298637-37.261463-14.597274-51.0904603-28.426271 2.6889716 0 4.6096656 2.304833 6.5303596 3.841388 2.6889717 1.920694 6.1462207 4.225527 9.2193317 6.146221 8.451053 4.993804 27.657993 13.828996 37.261463 17.286246 3.841388 1.536555 10.371748 4.225526 14.213136 4.225526 3.07311.384139 7.298637-1.536555 9.60347-3.07311-1.536555-1.536555-3.073111-1.152416-5.377943-1.536555l-11.908303-3.457249c-10.371748-2.688972-20.359357-6.53036-29.962827-11.524164l-5.377943-2.304833-7.298637-4.609666-8.8351925-5.762082-9.2193312-7.298637-15.7496908-12.292442-14.5972744-14.981413-7.2986372-8.451053-7.682776-8.451054zm123.3085551 94.8822832c.768277 1.536556 2.304833 3.841388 2.304833 5.762082 0 4.225527-4.993805 8.066915-8.835193 7.682776-1.536555-.384138-4.993804-2.304832-6.146221 0-.384138.768278-.384138 1.536556 0 1.920694 0 1.536556 1.920694 2.304833 3.45725 3.073111 4.225526 1.152416 8.835192-.384139 12.292441-2.688972 2.688972-1.536555 4.609666-4.225527 5.377943-7.298637l.768278-4.993804c.384139-1.536556 1.920694-1.920694 3.841388-4.609666 2.304833-3.07311 4.609666-8.451054 7.682776-10.755886 1.152416-.768278 2.304833-1.152417 3.841388-1.536556-.768278-1.152416-1.536555-1.920694-2.304833-3.07311-.768277-.384139-1.536555-1.152416-2.304833-1.152416-1.152416-.384139-2.688971-.384139-3.841388.384138-5.377943 2.688972-4.225526 7.682776-7.298637 11.524164-2.304833 3.073111-4.993804 4.609666-8.835192 5.762082zm12.292441 4.993805c2.688972 1.152416 4.993805.768277 7.682776.768277l5.762082.384139c2.688972 0 3.45725-1.536555 4.609666-3.841388.384139-.768277.768278-2.304833 0-3.07311-.768278-.768278-2.304833-.768278-3.457249-.768278l-6.53036.384139c-1.152416 0-3.07311 0-4.225527.384139-1.920694 1.152416-3.457249 3.841388-3.841388 5.762082zm20.743496 5.377943c-1.920694-.768278-3.073111-1.536555-4.225527-3.07311-.384139.384138-.768278.384138-1.152417.768277-.384138 1.920694 4.609666 6.53036 5.377944 2.304833zm-2.688972-13.060719 3.07311 1.920694c-.768277 1.536555-2.688971 4.609665-2.304832 6.530359.384138 3.841388 5.762082 3.841388 8.066914 1.536556 2.688972-3.073111 2.688972-7.682776-1.152416-9.987609-2.304833-1.152417-4.993804-.768278-7.682776 0zm-137.9058293 10.755886.3841388.384139c3.0731104-.768278 4.9938044-1.920694 5.3779432-4.993804-2.3048328.384138-4.6096656 2.688971-5.762082 4.609665zm2.6889716-14.213135c-1.1524164-.768278-2.3048328-1.152417-3.841388-1.152417-1.1524164 0-2.3048328 0-3.4572492.384139-3.841388 1.536555-4.2255268 7.682776-1.1524164 10.371748 1.5365552 1.536555 5.3779432 2.304832 6.9144984.384138 1.5365552-1.536555 1.1524164-3.457249.3841388-5.377943-.3841388-1.152416-1.1524164-2.688971-.3841388-3.457249.3841388-.768278 1.1524164-.768278 1.5365552-1.152416zm-.3841388 1.536555c.3841388 1.152416 2.3048328 5.762082 3.0731104 6.530359 1.1524164.768278 2.3048328.768278 3.4572492.768278l6.9144984-.384139h4.9938044c0-1.152416 0-2.304833-.3841388-3.07311-1.1524164-3.073111-5.3779432-4.609666-8.4510536-4.609666l-3.4572492.384139c-2.3048328 0-4.2255268-.384139-6.1462208.384139zm7.2986372-12.292442c7.2986372 1.920694 7.2986372 8.066915 10.3717476 12.292442 1.1524164 1.536555 4.2255268 3.841388 4.6096656 5.377943.3841388 1.152416 0 1.536555.3841388 4.225527.7682776 3.457249 3.0731104 6.914498 6.1462208 8.835192 3.4572492 2.304833 6.5303596 3.841388 10.7558864 2.688972 2.3048328-.768278 4.6096661-2.304833 3.4572491-4.993805-1.1524163-2.688971-5.3779431 0-8.0669147-.768277-2.6889716-1.152417-5.762082-4.993805-5.762082-8.066915l1.5365552-5.377943c-4.2255268-1.536555-9.2193312-4.993805-11.1400252-9.219331-1.1524164-2.688972-1.1524164-6.53036-3.0731104-8.451054-3.4572492-2.688972-8.0669148-.384139-9.2193312 3.457249zm18.4386624 8.835193c1.1524164 1.536555 1.920694 1.920694 3.4572492 2.688971 5.3779432 3.073111 8.8351924.768278 14.2131357-.384139l11.140025-3.457249c-1.475093-.991078-4.771004-3.053903-6.146221-3.841388l-7.2986369 1.920694zm5.3779432 11.140025c9.9876088 0 19.2069397-3.073111 28.8104097-5.377943 0 0 4.225527-1.999827 5.637621-1.999827-1.332961-.971487-6.769294-2.934052-7.619777-3.700793-1.152416.341883-5.70062 1.859232-7.237175 2.24337l-9.6034699 2.688972-4.6096656 1.152416c-2.6889716 1.152417-4.6096656 1.536556-5.3779432 4.993805z" stroke="#000"/><path d="m128.803588 136.09668c24.986438 0 45.241948-20.25551 45.241948-45.2419476 0-24.9864375-20.25551-45.2419472-45.241948-45.2419472-24.986437 0-45.2419468 20.2555097-45.2419468 45.2419472 0 24.9864376 20.2555098 45.2419476 45.2419468 45.2419476zm0-7.682776c-20.743357 0-37.5591708-16.815814-37.5591708-37.5591716 0-20.7433575 16.8158138-37.5591712 37.5591708-37.5591712 20.743358 0 37.559172 16.8158137 37.559172 37.5591712 0 20.7433576-16.815814 37.5591716-37.559172 37.5591716zm-.338042-63.4343771c-12.261326 0-22.534734 8.5397897-25.198737 19.9944246h12.364276c2.231078-4.8585876 7.14114-8.2328628 12.834461-8.2328628 7.791103 0 14.114028 6.3229247 14.114028 14.1136437s-6.322925 14.1140276-14.114028 14.1140276c-5.693321 0-10.603767-3.374659-12.834461-8.2332467h-12.364276c2.664003 11.4546347 12.937411 19.9944247 25.198737 19.9944247 14.283433 0 25.875206-11.592157 25.875206-25.8752056 0-14.2830489-11.592157-25.8752055-25.875206-25.8752055z"/></g></svg>