<svg height="245" preserveAspectRatio="xMidYMid" viewBox="0 0 256 245" width="256" xmlns="http://www.w3.org/2000/svg"><path d="m232.727273 244.363636h-41.454546l2.909091-34.909091h-20.363636l-2.909091 34.909091h-85.8181819l-2.9090909-34.909091h-20.3636364l2.9090909 34.909091h-41.4545454l-23.2727273-151.2727269 58.1818182-93.0909091h139.6363638l58.181818 93.0909091zm-46.545455-197.8181815h-37.402909l2.493818 17.4545455h-46.545454l2.493818-17.4545455h-37.4029092l-23.2727273 46.5454546 11.6363637 93.0909089h139.6363638l11.636363-93.0909089zm-20.363636 108.7418185c-3.213091 0-5.818182-9.690182-5.818182-21.643637 0-11.953454 2.605091-21.643636 5.818182-21.643636s5.818182 9.690182 5.818182 21.643636c0 11.953455-2.605091 21.643637-5.818182 21.643637zm-73.4545456 1.803636c-3.2130909 0-5.8181819-9.690182-5.8181819-21.643636 0-11.953455 2.605091-21.643637 5.8181819-21.643637s5.8181818 9.690182 5.8181818 21.643637c0 11.953454-2.6050909 21.643636-5.8181818 21.643636z" fill="#444"/></svg>