<svg height="256" preserveAspectRatio="xMidYMid" viewBox="0 0 256 256" width="256" xmlns="http://www.w3.org/2000/svg"><path d="m128.008337 0c-70.5910375 0-128.008337 57.4200708-128.008337 127.999404 0 70.584098 57.4172995 128.000596 128.008337 128.000596 70.5696 0 127.991663-57.416498 127.991663-128.000596 0-70.5793332-57.422063-127.999404-127.991663-127.999404z" fill="#53a3da"/><path d="m128.571589 11.2526185c-20.383291 0-37.6706986 32.6040657-43.9143566 77.9207094-.199316 1.4577185-.3927348 2.9331277-.5637455 4.4179719-.8526945 7.1317342-1.4305926 14.5476992-1.7195417 22.1818512-.1379879 3.493334-.2063921 7.02441-.2063921 10.600301 0 3.572354.0684042 7.110505.2063921 10.596764.2889491 7.632972.8668472 15.053655 1.7195417 22.185389 9.5577264 1.237174 19.7770871 2.076895 30.4363581 2.475527 4.607853.17219 9.28411.274796 14.042923.274796 4.744661 0 9.435071-.103786 14.028771-.274796 10.672244-.398632 20.884528-1.238353 30.45051-2.475527 1.052011-.13445 2.087509-.281873 3.135982-.434013 39.808922-5.59028 67.502032-17.964375 67.502032-32.34814-.001178-63.58294-51.546149-115.1208335-115.118474-115.1208335z" fill="#f1606d"/><path d="m176.186852 94.0217748c-1.154617-1.6841601-2.392971-3.2975572-3.7127-4.8472674-10.562562-12.450755-26.296722-20.3620616-43.901384-20.3620616-5.707038 0-10.789003 8.7356958-14.042923 22.3009685-1.292605 5.4086542-2.29626 11.5803697-2.942563 18.2780907-.509493 5.367376-.78429 11.075593-.78429 16.981947 0 5.906355.274797 11.615751.78429 16.97841 5.370914.509494 11.070876.783111 16.985486.783111 5.907534 0 11.607496-.273617 16.97841-.783111 11.806811-1.120415 21.999046-3.390729 29.219233-6.381646 7.130555-2.949639 11.350391-6.62224 11.350391-10.596764-.00118-11.991974-3.663167-23.130075-9.93395-32.3516772z" fill="#fff"/></svg>