<svg height="72" preserveAspectRatio="xMidYMid" viewBox="0 0 512 72" width="512" xmlns="http://www.w3.org/2000/svg"><g fill="#717172"><path d="m257.328688 23.2337177c.312076-6.000374 2.463511-10.9037529 5.825422-14.72905046v-5.09724444h-4.468363c-9.031296 0-16.677163 3.46120866-21.121884 11.2820271h-.260064v-10.42145336h-23.164564v63.55478906h23.169293v-25.6564456c0-10.8895677 3.186959-19.1926857 16.043553-19.1926857 1.399614.0094568 2.709389.0898401 3.976607.2600634z"/><path d="m432.748606 23.0020248c1.92447-5.6173714 5.045232-10.6200473 9.102222-14.63448194v-4.96484849h-4.458906c-9.036025 0-16.672435 3.46120866-21.140798 11.27729873h-.250607v-10.41199656h-23.17875v63.55478906h23.17875v-25.6564456c0-10.8895677 3.196417-19.1926857 16.05301-19.1926857z"/><path d="m304.381266 20.6188975c-3.574691-1.8582718-8.548996-3.0971197-12.506689-3.0971197-2.657376 0-7.248679 1.1064519-7.248679 4.3359677 0 4.3406961 7.248679 4.9553916 10.454552 5.5890008 10.799728 2.0994217 18.97045 7.0595417 18.97045 18.8144116 0 16.7197183-15.665279 23.679963-30.829345 23.679963-9.300816 0-18.450323-2.6053633-26.356253-7.3148767l8.402415-15.7456624c4.704785 3.2342442 12.601258 6.4448462 18.332112 6.4448462 2.931625 0 7.258136-1.3570586 7.258136-4.8277241 0-4.9553916-7.258136-5.2154551-14.525728-7.0689986-7.248679-1.8582718-14.497358-5.3194805-14.497358-16.7197183 0-15.61326637 14.497358-22.54041211 28.786664-22.54041211 7.385804 0 14.776335 1.11118038 21.509615 4.08536104z"/><path d="m511.335065 67.8227856h-23.169293v-7.0689986h-.255335c-4.075904 6.3171787-12.11423 9.1636918-19.741183 9.1636918-19.367638 0-32.98078-15.7362055-32.98078-33.9501068 0-18.1949876 13.371992-33.81298239 32.720716-33.81298239 7.508742 0 15.414673 2.72357403 20.251854 8.29366119v-6.18005426h23.164564zm-52.206564-31.7182892c0 8.047783 5.484975 14.2420225 14.894545 14.2420225 9.419027 0 14.880361-6.1847827 14.880361-14.2420225 0-7.8066332-5.461334-14.3696901-14.880361-14.3696901-9.40957.0047285-14.894545 6.5630569-14.894545 14.3696901z"/><path d="m389.166693 39.830497h-48.783182c0 9.1589633 4.979033 14.1096265 14.525728 14.1096265 4.964848 0 8.525354-1.6029368 11.078704-5.8206938h22.289806c-3.692902 14.9938425-18.341569 21.8075059-33.236114 21.8075059-21.632554 0-37.803775-11.901451-37.803775-33.8177108 0-21.1833535 14.88036-33.94064991 36.144097-33.94064991 22.663351 0 35.794193 13.63205541 35.794193 35.30243691zm-21.5238-13.0173599c-1.149008-6.0713004-6.879862-10.0337224-13.111928-10.0337224-6.756923 0-12.336467 3.4564802-13.759723 10.0337224z"/><path d="m140.441969 34.9980444c-.023642-.5484975-.061469-1.0828098-.104025-1.6265789v-.0094568-.0094569c-.520127-5.8963486-2.468239-11.4144231-5.77341-16.3981853-1.475269-2.2223607-3.163317-4.2413991-5.04996-6.0523867-2.756673-2.65264762-5.948361-4.84663781-9.546694-6.58197056-5.414049-2.58644964-11.395509-3.89149553-17.778886-3.89149553-.624152 0-1.276675.00945685-1.933927.03309899-4.4825487.20332237-8.8185164 1.05443925-12.8944205 2.55335065-4.1090032 1.48472612-7.6884225 3.44702337-10.6153189 5.80178008-.5957819.47284272-1.2435764 1.05443925-1.9386552 1.69277687l-.5012132.4917565-.685622.7281777h.0047285.0047284l-.3215331.3168047-.1560381.1702233-.8180178.8605738c-.6052387.6808935-1.1821068 1.361787-1.7211475 2.0284952l-.0047285-.0094568-.0189137-.0189137c-1.1206372 1.361787-2.1561627 2.7708582-2.9174395 4.0380767-.5153986.8132895-1.0213403 1.6502211-1.5036398 2.4871527l-6.6812676 13.5091163.0094569.0094568-.3499036.685622-.7376346 1.494183c-1.4658125 2.9647238-3.0356503 5.9199907-4.7898967 8.3598591-3.9104093 4.2886834-8.3314886 6.3881051-14.015058 6.3881051-.3971879 0-.8038326-.0189137-1.2199342-.0425559-3.4233813-.1371244-6.3597345-.9456854-8.9650979-2.4871526-.2789772-.165495-.5484975-.3357184-.808561-.5106702-2.1277922-1.4137997-3.7590996-3.2295157-4.9790338-5.4944323-1.3759723-2.5675359-1.9859394-5.191813-1.9008277-7.9721281.0047284-.0756549.0094569-.1418528.0094569-.2033224.1844086-4.4258078 1.8724571-7.8681027 5.2721962-10.8422834.8274748-.7139925 1.6927769-1.3192312 2.5959065-1.8582719.1276676-.0756548.2553351-.1465812.3830026-.2127792 2.5249801-1.3759723 5.3998638-2.0615942 8.6955775-2.0615942l1.0260687.0283705c5.2343688.198594 9.2724456 1.8346298 12.4925045 5.0263181l10.0999203-18.13351806c-2.4162263-1.61712207-5.1445287-3.00727965-8.1518084-4.13737373-.1134822-.04255585-.2316929-.08984012-.3499036-.12766754-.3593604-.12766753-.7139925-.26006349-1.0828098-.37827417-3.1964167-1.06862453-6.5488716-1.7258759-10.0006234-2.02376681-.0851116-.01418528-.1796802-.02364213-.2647919-.03309899-.5295838-.03309899-1.0686245-.09929697-1.5982083-.1229391-.5768682-.02364214-1.1584647-.03309899-1.7258759-.03782742h-.3262615c-6.3502777.02364214-12.2513547 1.3239596-17.6464901 3.90095238-6.0429298 2.91271111-10.9415803 7.15411024-14.57301237 12.62017204-3.62197518 5.4660617-5.59845772 11.5326337-5.88216335 18.0436779-.02364213.5579544-.03782741 1.1111804-.03782741 1.6549495-.00472843 9.1069506 3.31462741 17.1169062 9.91551173 23.8407296 6.8893183 7.0548132 15.8496877 10.8564687 26.6068594 11.3056692.6903504.0283706 1.3712439.0472843 2.0521374.0472843 6.0854857 0 11.7170424-1.0828098 16.7670026-3.2484294 1.26249-.5390407 2.4871526-1.17265 3.7401858-1.8771856.6808935-.3924595 1.3239596-.808561 1.9622973-1.2530332l.4728427-.3168046.7943758-.5437691c.9551422-.685622 1.848815-1.427985 2.7188456-2.2176324l.3026193-.288434c.5106701-.487028 1.0213403-.9787844 1.5036398-1.4847261l1.8109876-2.047409.6903504-.8653021.321533-.4728428.3215331-.4633858c2.690475-4.5203763 11.447522-20.9705743 11.447522-20.9705743v-.033099l.520127-1.0024266.4350153-.7849189c1.2908606-2.3500283 2.2223608-4.019163 3.4564803-5.7734095l.0330989-.0520127c2.8796122-4.1752011 7.8302754-7.1493818 13.6651549-7.6505951 9.787844-.84166 18.365211 5.5890009 19.154858 14.3649616.784919 8.7759608-6.515773 16.5731371-16.303617 17.4195256-2.037952.1749518-4.019163.0378274-5.8868917-.3735458l-.0472842.0189137c-7.1824809-1.4941829-11.7548699-6.7332802-14.0103296-9.0738516l-9.4190269 17.3202285s2.9268964 2.9505386 4.9317495 4.4258078c2.0095816 1.4705409 4.6054881 2.9174396 6.6765391 3.8158407 5.0263181 2.146706 10.4923798 3.4328381 16.5305808 3.4328381.699808 0 .557955 0 1.286133-.0283705 10.747715-.4492006 20.327508-4.5676606 27.23574-11.6224739 6.544143-6.7001813 10.095192-14.3507764 10.128291-23.4057143v-.2695203c-.004729-.5012133-.018914-1.007155-.037828-1.5178252z"/><path d="m176.472584 69.9694915c-4.884465 0-9.315001-.5674113-13.291609-1.7022338-3.976607-1.1348225-7.371617-2.9268964-10.185032-5.3856785-2.822871-2.4587821-4.997947-5.5890008-6.529957-9.3859278-1.532011-3.796927-2.298016-8.3740445-2.298016-13.7077103v-35.53412984h22.351275v35.25042424c0 3.9955209.955142 6.8893183 2.860698 8.6955775 1.910285 1.8109876 4.335968 2.7141172 7.27705 2.7141172 3.007279 0 5.447148-.8416601 7.329062-2.5297086 1.872457-1.6880484 2.818142-4.4872773 2.818142-8.4213287v-35.70908164h22.351275v35.06601554c0 5.5228029-.784918 10.2181311-2.350028 14.081256-1.565109 3.8678534-3.773285 7.0264427-6.615069 9.4852248-2.85597 2.4587822-6.293537 4.2461276-10.336342 5.3856785-4.042805 1.1300941-8.501712 1.6975054-13.381449 1.6975054z"/></g></svg>