<svg height="252" preserveAspectRatio="xMidYMid" viewBox="0 0 256 252" width="256" xmlns="http://www.w3.org/2000/svg"><g fill="#040707"><path d="m26.9452124 109.078505-3.5133577-9.4523072 37.9592674 70.8923072h.8502075l47.3240494-118.1288396c.837705-2.5631257 8.264518-21.7428083 8.514579-30.2073748.625153-21.83032967-14.09094-23.80581197-29.7697639-19.37973138-51.437558 16.65406598-88.54661782 65.02837608-88.30905982 121.97977978.21255189 52.962931 32.64547012 98.236484 78.65670332 117.378657z"/><path d="m174.328691 5.47201094c-6.314042 12.71560436-13.103199 26.38144076-21.680293 48.08673996l-73.4304277 188.8336021c15.0911844 6.189011 31.6327227 9.602344 48.9619537 9.514823 70.504713-.262564 127.418608-57.664078 127.131038-128.181294-.225055-53.8256415-33.758242-99.6993411-80.982271-118.25387106"/></g></svg>