<svg height="293" preserveAspectRatio="xMidYMid" viewBox="0 0 256 293" width="256" xmlns="http://www.w3.org/2000/svg"><path d="m252.077707 70.214643-120.174974-69.17213207c-2.414922-1.39001457-5.390544-1.39001457-7.805466 0l-120.17758239 69.17213207c-2.42535375 1.3952304-3.91968461 3.9822744-3.91968461 6.7805589v138.2999301c0 2.798284 1.49433086 5.385328 3.91968461 6.780558l120.17758239 69.169525c2.414922 1.390014 5.390544 1.390014 7.805466 0l120.177582-69.169525c2.425354-1.39523 3.919685-3.982274 3.919685-6.780558v-138.2999301c0-2.8008924-1.494331-5.3853285-3.922293-6.7805589zm-133.237981-24.8324929c0 .4668154-.247751.8971201-.651977 1.1292238l-42.9887433 24.7699032c-.871041.5007182-.871041 1.7577295 0 2.2610556l42.9861353 24.7412161c.404226.2321037.654585.6624084.654585 1.1292238v17.9763044c0 1.004045-1.08489 1.629942-1.953323 1.129224l-78.1329012-44.9681446c-.871041-.5007182-.871041-1.7577295 0-2.2610556l78.1302932-45.0176951c.868433-.5007182 1.955931.1277875 1.955931 1.1292239zm98.404164 28.1680063-78.195491 45.0072636c-.868433.500718-1.953322-.127788-1.953322-1.129224v-17.9763048c0-.4668154.250359-.8971201.654584-1.1292238l43.051333-24.7777268c.871041-.5007182.871041-1.7577295 0-2.2610556l-43.051333-24.8064139c-.404225-.2321037-.651977-.6624084-.651977-1.1292238v-17.9815205c0-1.0040443 1.08489-1.6299421 1.955931-1.1292239l78.195491 45.0542058c.865825.5007182.865825 1.7577295-.005216 2.2584477z" fill="#405261"/></svg>