<svg height="283" preserveAspectRatio="xMidYMid" viewBox="0 0 256 283" width="256" xmlns="http://www.w3.org/2000/svg"><path d="m256 141.493925c0-42.5940885-34.526576-77.1234924-77.120665-77.1234924-18.487694 0-35.451243 6.5066054-48.735916 17.3509477l-82.9938586-81.7213803-39.36764903 39.9784386 33.09574513 32.5895815c-24.3580612 13.3949543-40.8776565 39.1272919-40.8776565 68.9259049 0 43.26426 35.0638448 78.610878 78.6108779 78.610878 18.8383334 0 36.1270711-6.636681 49.6577561-17.698759l81.619582 80.366898 39.364822-39.975611-33.870543-33.355896c24.179914-12.91424 40.527018-38.646578 40.527018-67.94751zm-77.983122 23.764238c-8.562365 0-16.02757-4.230283-19.992047-10.869792h-58.9722971c-3.9644766 6.642336-11.4296823 10.869792-19.992047 10.869792-12.7134715 0-23.0177175-10.677506-23.0177175-23.390978 0-12.713471 10.304246-22.658596 23.0177175-22.658596 8.7405116 0 16.4008306 3.958821 20.3596518 12.408077h58.4774443c3.896611-8.539743 11.500376-12.594707 20.240887-12.594707 12.713472 0 22.904609 10.462599 22.904609 23.187381 0 12.724783-10.31273 22.930058-22.896125 23.048823z" fill="#1ba6d7"/></svg>