<svg height="311" preserveAspectRatio="xMidYMid" viewBox="0 0 256 311" width="256" xmlns="http://www.w3.org/2000/svg" xmlns:xlink="http://www.w3.org/1999/xlink"><linearGradient id="a"><stop offset="0" stop-color="#5c70b5"/><stop offset=".675" stop-color="#507dbf"/><stop offset="1" stop-color="#428bca"/></linearGradient><linearGradient id="b" x1="50.00245%" x2="50.001838%" xlink:href="#a" y1=".00265%" y2="99.999518%"/><linearGradient id="c" x1="49.998793%" x2="49.998793%" xlink:href="#a" y1="-27.139617%" y2="124.764745%"/><linearGradient id="d" x1="50.010087%" x2="50.010087%" xlink:href="#a" y1="-36.85453%" y2="134.212088%"/><linearGradient id="e" x1="49.998258%" x2="49.998258%" xlink:href="#a" y1="-45.869565%" y2="142.961161%"/><linearGradient id="f" x1="49.997828%" x2="49.997828%" xlink:href="#a" y1="-62.790499%" y2="159.334475%"/><path d="m101.722929 20.8259964c-6.2297997 0-11.139031 3.0291001-14.682929 9.1619089-3.5588197 6.1104262-6.028357 12.8550237-7.3489253 20.1741056l-12.3476867 60.3954831c-1.7756794 7.818958-4.3944335 14.444182-7.8488015 19.905515-3.4767504 5.43149-7.0654135 9.907993-10.8405974 13.332517-3.7975665 3.454368-7.5205246 6.110427-11.1987177 8.020401-3.6632714 1.880131-6.5431548 3.058944-8.512816 3.536437l-.3208161.947527c1.5593152.261129 3.543898.925144 6.0059745 2.021887 2.439694 1.089282 4.8271622 2.932109 7.1847869 5.498637 2.3352423 2.551607 4.3347468 5.774689 6.0208962 9.676707 1.656306 3.902018 2.4919199 8.863475 2.4919199 14.839607 0 2.021887-.2163643 3.999009-.6714755 6.013435-.4625719 2.021887-.8953005 4.230295-1.3354899 6.699832l-12.3476867 60.082128c-.6714754 3.805027-.9922915 7.535446-.9922915 11.347934 0 5.133057.6640146 9.378274 2.0069654 12.855024 1.3504117 3.46929 4.3347468 5.140517 9.020153 5.140517h16.6824335l-4.3347468 20.024889h-23.3673442c-3.3573771 0-6.7296758-.664014-10.1840438-2.006965-3.4767504-1.350412-6.4983898-3.215621-9.1768306-5.662776-2.6933624-2.40239-4.8271621-5.550864-6.51331143-9.340969-1.65630601-3.812488-2.49191985-8.132314-2.49191985-12.99678 0-2.021887.11191256-4.192991.32081602-6.543155.20890347-2.327781.55956285-4.707788 1.00721312-7.169865l12.66850274-60.388022c.4327286-2.462076.783388-4.842084.9922914-7.21463.2089035-2.327781.3133552-4.491424.3133552-6.505851 0-7.781654-2.0368087-13.936845-6.1551912-18.510338-4.1109217-4.551111-9.08730058-6.863971-14.84706743-6.863971l4.99876138-22.688408c3.543898 0 7.18478685-.932605 10.84059745-2.827658 3.6632714-1.887592 7.132561-4.476503 10.3407213-7.83388 3.2156211-3.334994 6.1328088-7.438455 8.699337-12.340225 2.5516065-4.916693 4.5063461-10.348183 5.8343752-16.361618l12.6685028-60.7759854c1.3354899-7.1101785 3.6707322-13.3772823 6.9982659-18.8609982 3.3349945-5.4314899 7.1251002-10.0049836 11.3479344-13.6607941 4.2079126-3.67073227 8.6694936-6.46854648 13.3623607-8.34121679 4.6704845-1.88759198 9.1246047-2.84257923 13.3250564-2.84257923h23.3822662l-4.319825 20.02488892h-16.667512z" fill="url(#b)"/><path d="m152.583461 56.0859162-39.62451 203.9196208h-22.2109146l39.5797446-203.9196208z" fill="url(#c)"/><path d="m190.976933 67.4786157-35.894091 181.0969183h-15.884124l36.020925-181.0969183z" fill="url(#d)"/><path d="m226.535286 76.0063534-32.044299 164.0489036h-10.78091l32.089063-164.0489036z" fill="url(#e)"/><path d="m255.080452 88.309275-28.328802 139.457982h-6.013435l28.209428-139.457982z" fill="url(#f)"/></svg>