<svg height="256" preserveAspectRatio="xMidYMid" viewBox="0 0 256 256" width="256" xmlns="http://www.w3.org/2000/svg" xmlns:xlink="http://www.w3.org/1999/xlink"><linearGradient id="a" x1="29.184253%" x2="86.483586%" y1="99.591125%" y2=".354484%"><stop offset=".4147" stop-color="#51d3d9"/><stop offset="1" stop-color="#c8ff8c"/></linearGradient><linearGradient id="b" x1="34.11758%" x2="94.650347%" y1="106.866256%" y2="20.55208%"><stop offset=".4147" stop-color="#51d3d9"/><stop offset="1" stop-color="#5a919b"/></linearGradient><path d="m255.96 198.32c-.12 2.6-.84 5.16-2.16 7.48l-24.24 42c-2.92 5.08-8.32 8.2-14.16 8.2h-134.52c-5.84 0-11.24-3.12-14.16-8.16l-64.52-111.64c-1.48-2.56-2.2-5.36-2.2-8.2s.56-5.8 2.28-8.68l64.48-111.16c2.92-5.04 8.32-8.16 14.12-8.16h134.52c5.84 0 11.24 3.12 14.16 8.16 0 0 23.32 38.2 25 40.92s1.4 6.16 1.4 8.96c0 2.4-.68 5.68-1.32 8.28s-20.16 81.72-20.16 81.72l-42.6-90.6h-87.32l-40.88 70.56 40.88 70.56h87.28z" fill="url(#a)"/><path d="m224.84 127.96 29.6 62.76c2.28 4.84 2.04 10.48-.64 15.12l-61.92-7.24z" fill="url(#b)"/></svg>