<svg height="243" preserveAspectRatio="xMidYMid" viewBox="0 0 256 243" width="256" xmlns="http://www.w3.org/2000/svg" xmlns:xlink="http://www.w3.org/1999/xlink"><linearGradient id="a"><stop offset="0" stop-color="#f9a03c"/><stop offset="1" stop-color="#f7974e"/></linearGradient><linearGradient id="b" x1="-82.636726%" x2="103.767353%" xlink:href="#a" y1="-92.819878%" y2="106.041826%"/><linearGradient id="c" x1="-258.923825%" x2="97.620248%" xlink:href="#a" y1="-248.970263%" y2="98.768494%"/><linearGradient id="d" x1="-223.162629%" x2="94.028338%" xlink:href="#a" y1="-261.967947%" y2="101.690818%"/><linearGradient id="e" x1="11.338712%" x2="82.496193%" y1="-1.821698%" y2="92.106748%"><stop offset="0" stop-color="#f26d58"/><stop offset="1" stop-color="#f9a03c"/></linearGradient><linearGradient id="f" x1="15.843647%" x2="120.126091%" y1="3.858031%" y2="72.380258%"><stop offset="0" stop-color="#b84e51"/><stop offset="1" stop-color="#f68e48"/></linearGradient><linearGradient id="g" x1="46.984171%" x2="51.881003%" xlink:href="#a" y1="23.466433%" y2="147.391179%"/><path d="m255.52 175.618667c.114667-1.114667.197333-2.24.261333-3.370667.077334-1.338667-80.562666-77.8506667-80.562666-77.8506667h-1.928s81.736 86.2159997 82.229333 81.2213337z" fill="url(#b)"/><path d="m83.472 149.077333c-.1066667.234667-.2133333.469334-.3226667.704-.1146666.245334-.232.490667-.3493333.733334-2.5706667 5.36 35.986667 43.053333 39.088 38.474666.141333-.202666.282667-.416.424-.618666.157333-.24.312-.469334.466667-.709334 2.48-3.765333-38.2053337-41.032-39.306667-38.584z" fill="url(#c)"/><path d="m137.957333 202.082667c-.109333.24-.885333 1.552-1.594666 2.245333-.12.24 37.64 37.688 37.64 37.688h3.4c.002666 0-35.445334-38.349333-39.445334-39.933333z" fill="url(#d)"/><path d="m255.834667 171.568c-1.765334 39.146667-34.152 70.448-73.72 70.448h-5.349334l-39.514666-38.928c3.250666-4.584 6.272-9.333333 8.962666-14.285333h35.901334c11.354666 0 20.594666-9.234667 20.594666-20.594667 0-11.354667-9.24-20.594667-20.594666-20.594667h-21.245334c1.618667-8.557333 2.504-17.381333 2.504-26.408 0-9.165333-.901333-18.114666-2.578666-26.8079997h13.197333l81.610667 80.4133337c.096-1.077334.173333-2.154667.232-3.242667zm-234.3680003-171.568h-21.4666667v53.2133333h21.4666667c37.4933333 0 68 30.4986667 68 67.9919997 0 10.2-2.2746667 19.882667-6.3173334 28.576l39.1626667 38.589334c12.858667-19.24 20.376-42.338667 20.376-67.165334 0-66.8319997-54.3813333-121.205333-121.2213333-121.205333z" fill="url(#e)"/><path d="m182.114667 0h-86.9280003c21.2320003 12.9626667 38.8133333 31.344 50.7920003 53.2133333h36.136c11.354666 0 20.594666 9.2346667 20.594666 20.5946667 0 11.3573333-9.24 20.592-20.594666 20.592h-8.12l81.610666 80.413333c.192-2.181333.312-4.376.312-6.605333 0-17.938667-6.437333-34.394667-17.125333-47.202667 10.688-12.802666 17.125333-29.261333 17.125333-47.197333 0-40.696-33.104-73.808-73.802666-73.808z" fill="url(#f)"/><path d="m176.765333 242.016h-80.957333c16.296-10.064 30.384-23.349333 41.442667-38.928zm-54.453333-53.645333-39.16-38.589334c-10.8186667 23.250667-34.3946667 39.421334-61.6853333 39.421334h-21.4666667v53.208h21.4666667c42.0106666 0 79.0906663-21.488 100.8453333-54.04z" fill="url(#g)"/></svg>