<svg height="151" preserveAspectRatio="xMidYMid" viewBox="0 0 512 151" width="512" xmlns="http://www.w3.org/2000/svg"><path d="m119.560391 23.7539056c-.950779-3.9034711-1.73408-5.6114841-3.130597-5.739862-2.173953-.2078811-4.460644.5617349-6.030505.8347823-5.82132 1.0524384-8.94931.3590673-12.3640326-3.2902547-2.1270334-2.2769162-.8250074-2.0019137 4.3322666-2.869931 3.120822-.5285 5.268708-1.1071782 7.424415-2.0351487 3.281131-1.79989766 2.114652-4.07551056-1.55031-5.82262343-2.757193-1.32809252-14.2023791-1.27726268-21.5616278-1.12542482-7.46156.16161283-14.7966971.4698502-19.1843551-3.34303956 4.2240901.77808757 9.3566008.79177253 12.7765368.60604811 11.2751014-.62364305 19.8327611-1.32548586 27.9036281-.76179595 7.056876.48288349 15.046936 2.72591315 23.094343 4.76432011 7.866243 1.97910549 16.80252 3.36193784 18.683225 3.42254265 2.012992.03453822.710966 10.05909529-3.940616 11.47646579-5.262844 1.2336012-10.352345 1.1273798-13.583298 2.8888293-4.596842 2.4802356 1.595927 16.5757416 3.57829 19.9722177.570859 1.0035635 2.437226 4.6242122 5.451175 6.9649915 1.539884 1.1847263 5.289562 3.7294767 9.065958 4.0155575 18.197735 1.4010789 60.602204 1.1189082 63.506674 2.7259131 1.543142.868669-11.943058 4.6535372-11.943058 4.6535372s-45.743599.2332959-65.230978 4.1999785c-19.435246 3.9712443-44.4213711 13.2379153-59.6579419 24.440682-56.4843352 41.5599118-77.44056641 60.7462218-77.19749551 58.1662818.27174416-2.902514.55586993-7.89231 1.01920349-9.601627.62624971-2.352509 3.41667766 1.716485 56.74825942-50.2394329 6.4495248-6.301597.3486406-11.5553172-6.3165853-12.8286699-7.9001303-1.7594945-21.5160111-7.7228776-12.9765978-6.7010674 4.8360032.320619 29.3151334 7.6088362 75.5214146-28.2789867 6.171264-4.7793084 6.410424-13.0574042 5.562609-16.4942835zm37.930791 125.1834724v-5.047794c-.525893.525893-.946217 1.157356-1.47211 1.682598-1.998004 1.893086-6.310069 4.942876-13.145379 4.942876-1.788168 0-5.574339-.210488-9.780834-2.208491-5.678606-2.629467-13.565703-9.464778-13.565703-24.60816 0-16.090252 8.729048-24.398324 14.723059-27.1320571 1.682598-.7363811 4.731737-1.7881678 9.149371-1.7881678 1.787516 0 5.573688.1055697 9.569695 2.3140611.73573.4203237 1.367193.7357294 2.629467 1.6825981.946217.7357294 1.682598 1.6825977 1.892434 1.8924337v-25.9753518h12.514568v74.2454548zm-2.418979-36.91224c-.630811-1.156704-1.787516-2.523897-2.733733-3.260278-2.103573-1.682598-4.416983-2.313409-7.04645-2.313409-1.051135 0-3.785519.210487-6.414986 1.893085-5.994011 3.89109-6.204499 12.408998-6.204499 13.986678 0 7.782179 3.260278 16.720411 12.514567 16.720411 3.365197 0 5.994012-1.051135 8.202503-3.575032 3.260278-3.575032 4.101577-7.887097 3.996659-12.619485 0-3.365196-.525893-7.67661-2.314061-10.83197zm54.370335 36.91224-.316057-4.101577c-1.998004 1.682598-3.78552 2.523897-4.837307 2.944872-3.470114 1.57768-6.730392 2.418979-10.621481 2.418979-2.523897 0-11.988675-.316057-16.825981-8.097584-.841299-1.367844-2.418979-4.206496-2.314061-8.412991 0-2.944872.736381-8.833966 7.151367-13.14603 4.311414-2.944221 8.412991-3.575033 13.250297-4.52125 7.782179-1.57768 10.622134-2.209143 14.513223-3.576335 0-1.366541-.105569-3.049139-.736381-4.311413-1.051786-1.998004-3.680601-3.575684-8.308072-3.575684-4.837307 0-7.887097 1.472762-9.254289 3.260278-1.472111 1.787516-1.367193 3.89109-1.367193 4.626819l-12.829973-.735729c.104918-2.31341.525893-7.887097 5.678605-12.0935927 3.260279-2.7350364 8.203155-4.8379582 17.352526-4.8379582 8.622827 0 13.671273 1.7881678 16.931551 4.1015772 2.20784 1.5776797 3.365196 3.3651957 3.78552 4.2064947 1.367192 2.734385 1.367192 6.414987 1.367192 9.359208v27.974008c0 3.996007.209836 5.152712 2.313409 8.517908zm0-26.185188c-2.103573 1.051135-4.837958 2.102921-9.991322 2.944221-2.838651.525893-5.889093.630811-8.517908 2.208491-1.787516 1.156705-3.049791 2.944221-3.049791 5.25763 0 3.15536 2.31341 6.205151 8.623478 6.205151 6.94088 0 11.042458-3.575684 12.199162-5.994011.841299-1.68325.736381-3.154709.736381-4.837307zm63.518404 16.930899c-2.523897 4.837958-9.044454 10.831969-21.873775 10.831969-9.885753 0-16.931551-3.365196-20.191829-5.3632-1.787516-1.157356-3.470114-2.523897-5.047794-4.101577l9.464777-7.676609c.420975.525241 1.051787 1.471458 2.418979 2.628815 4.521901 3.890438 11.252293 4.101577 12.725055 4.101577 3.154709 0 6.835311-.736381 8.938884-3.154709.841299-.841299 1.366541-1.998655 1.366541-3.050442 0-.420323-.104918-1.261622-.841299-2.208491-1.366541-1.893086-3.049139-1.998004-6.940229-2.839303-3.470765-.736381-6.94088-1.156053-10.306076-1.997352-2.314061-.631463-14.512571-3.576336-14.512571-14.933547 0-3.996659 1.682598-6.94088 2.418327-8.097584 2.629467-4.1015777 8.833966-9.0444539 20.191177-9.0444539 4.101577 0 14.723059.631463 22.610808 9.7801829l-8.938884 8.308072c-1.051786-2.208491-2.418979-3.470114-3.260278-4.206495-3.260278-2.839303-6.730392-3.786171-11.041805-3.786171-.525894 0-4.101578 0-6.415639 1.57768-1.892434 1.262274-2.313409 2.944872-2.313409 3.891089.104918 1.787516 1.367192 3.049791 1.682598 3.260278 1.367192 1.051135 4.837307 1.892434 9.044453 2.628815 2.838651.525894 5.678606.946217 8.517909 1.577681 2.839954.630811 5.994663 1.57768 8.30742 3.260278 1.893738 1.36654 5.784176 5.047794 5.784176 11.462781 0 2.523897-.63016 4.942224-1.787516 7.150716zm42.381009 9.254289v-28.920225c0-4.206495.211139-7.992015-3.365196-11.041805-1.051135-.946217-3.049139-2.208492-6.519905-2.208492-4.311413 0-7.782179 1.788168-10.410994 5.047795-1.051135 1.262274-1.892434 2.839302-2.313409 4.416982-.420324 1.577681-.420324 2.839303-.420324 4.521901v28.183844h-12.620137v-74.2454548h12.620137v27.0271388c1.051135-1.156705 2.312758-2.3134093 5.047794-3.8910894 1.997352-1.1567047 5.784175-3.0497905 11.567699-3.0497905 5.784175 0 12.093592 2.1029218 15.563706 6.9408799 3.260279 4.627471 3.260279 9.464777 3.260279 14.723059v32.495257zm20.612152 0h12.830625v-74.2454548h-12.830625zm51.846438 0-.315405-4.101577c-1.998004 1.682598-3.78552 2.523897-4.837307 2.944872-3.470766 1.57768-6.731044 2.418979-10.621482 2.418979-2.523897 0-11.989326-.316057-16.826632-8.097584-.841299-1.367844-2.418328-4.206496-2.312758-8.412991 0-2.944872.735729-8.833966 7.150064-13.14603 4.312065-2.944221 8.412991-3.575033 13.250949-4.52125 7.782179-1.57768 10.621482-2.209143 14.512571-3.576335 0-1.366541-.104918-3.049139-.735729-4.311413-1.051787-1.998004-3.681254-3.575684-8.308072-3.575684-4.837307 0-7.887749 1.472762-9.25429 3.260278-1.47211 1.787516-1.367192 3.89109-1.367192 4.626819l-12.829974-.735729c.10557-2.31341.525242-7.887097 5.678606-12.0935927 3.259627-2.7350364 8.202503-4.8379582 17.351874-4.8379582 8.623478 0 13.671272 1.7881678 16.931551 4.1015772 2.208491 1.5776797 3.365196 3.3651957 3.785519 4.2064947 1.367193 2.734385 1.367193 6.414987 1.367193 9.359208v27.974008c0 3.996007.210488 5.152712 2.314061 8.517908zm0-26.185188c-2.102921 1.051135-4.837306 2.102921-9.990019 2.944221-2.839954.525893-5.889093.630811-8.519211 2.208491-1.787516 1.156705-3.049139 2.944221-3.049139 5.25763 0 3.15536 2.314061 6.205151 8.623478 6.205151 6.94088 0 11.042457-3.575684 12.199162-5.994011.841299-1.68325.735729-3.154709.735729-4.837307zm54.264766 26.185188v-26.816651c0-4.101577 0-6.09893-.525894-8.097585-1.47211-6.099581-6.204499-6.94088-8.728396-6.94088-1.367844 0-3.996659.210488-6.625474 2.418979-3.78552 3.15536-4.942876 7.571691-4.942876 16.616145v22.819992h-12.724404v-52.5815158h12.724404v6.2044988c.209836-.315406 1.262274-1.682598 2.314061-2.7343847 4.942224-4.6274705 12.093592-5.0477942 13.881108-5.0477942 7.782179 0 12.304732 3.9966592 13.98733 6.4149869 3.365196 4.837958 3.049139 11.463432 3.049139 16.825981v30.918228zm65.096735-6.309417c-2.944873 2.734385-9.990019 7.887097-20.821989 7.887097-3.365196 0-11.673268-.420324-18.824636-7.045798-5.994011-5.678606-8.202502-12.935543-8.202502-21.138046 0-4.416982.630811-8.623478 2.313409-12.619485 2.313409-5.258282 8.833966-14.9335469 24.082266-14.9335469 11.778187 0 17.983338 6.0995809 20.717722 10.0955889 2.418328 3.681253 4.837307 10.095588 5.152713 20.297398h-38.910895c.210487 1.577028.736381 4.836655 3.365196 7.991363 1.788167 2.209143 4.942876 5.047794 11.462781 5.047794 6.520556 0 10.306727-3.049138 11.989325-4.836654.420324-.420976 1.051787-1.262275 1.787517-2.41898l10.727051 6.204499c-.841299 1.156705-2.314061 3.155361-4.837958 5.46877zm-10.516564-31.023798c-1.156053-2.523897-3.89109-6.730392-10.7264-6.730392-2.734385 0-4.206495.525893-5.258282.946868-5.889093 2.418328-7.256285 8.307421-7.571691 10.095589h24.60816s-.315406-2.523897-1.051787-4.312065z" fill="#256271"/></svg>