<svg height="320" preserveAspectRatio="xMidYMid" viewBox="0 0 256 320" width="256" xmlns="http://www.w3.org/2000/svg" xmlns:xlink="http://www.w3.org/1999/xlink"><defs><linearGradient id="a" x1="50%" x2="50%" y1="0%" y2="100%"><stop offset="0" stop-color="#7540b7"/><stop offset="1" stop-color="#9351e5"/></linearGradient><path id="b" d="m126.190138 255.890291-125.4404926-125.440493c-.99961253-.999613-.99961253-2.619983 0-3.619596l125.4404926-125.44049261c.999613-.99961252 2.619983-.99961252 3.619596 0l125.440493 125.44049261c.999612.999613.999612 2.619983 0 3.619596l-125.440493 125.440493c-.999613.999612-2.619983.999612-3.619596 0"/><filter id="c" height="200%" width="200%" x="-50%" y="-50%"><feOffset dx="0" dy="7" in="SourceAlpha" result="shadowOffsetOuter1"/><feGaussianBlur in="shadowOffsetOuter1" result="shadowBlurOuter1" stdDeviation="3.5"/><feColorMatrix in="shadowBlurOuter1" type="matrix" values="0 0 0 0 0   0 0 0 0 0   0 0 0 0 0  0 0 0 0.2 0"/></filter><filter id="d" height="200%" width="200%" x="-50%" y="-50%"><feOffset dx="0" dy="7" in="SourceAlpha" result="shadowOffsetOuter1"/><feGaussianBlur in="shadowOffsetOuter1" result="shadowBlurOuter1" stdDeviation="3.5"/><feColorMatrix in="shadowBlurOuter1" type="matrix" values="0 0 0 0 0   0 0 0 0 0   0 0 0 0 0  0 0 0 0.2 0"/></filter><filter id="e" height="200%" width="200%" x="-50%" y="-50%"><feOffset dx="0" dy="7" in="SourceAlpha" result="shadowOffsetOuter1"/><feGaussianBlur in="shadowOffsetOuter1" result="shadowBlurOuter1" stdDeviation="3.5"/><feColorMatrix in="shadowBlurOuter1" type="matrix" values="0 0 0 0 0   0 0 0 0 0   0 0 0 0 0  0 0 0 0.2 0"/></filter><filter id="f" height="200%" width="200%" x="-50%" y="-50%"><feOffset dx="0" dy="7" in="SourceAlpha" result="shadowOffsetOuter1"/><feGaussianBlur in="shadowOffsetOuter1" result="shadowBlurOuter1" stdDeviation="3.5"/><feColorMatrix in="shadowBlurOuter1" type="matrix" values="0 0 0 0 0   0 0 0 0 0   0 0 0 0 0  0 0 0 0.2 0"/></filter><filter id="g" height="200%" width="200%" x="-50%" y="-50%"><feOffset dx="0" dy="7" in="SourceAlpha" result="shadowOffsetOuter1"/><feGaussianBlur in="shadowOffsetOuter1" result="shadowBlurOuter1" stdDeviation="3.5"/><feColorMatrix in="shadowBlurOuter1" type="matrix" values="0 0 0 0 0   0 0 0 0 0   0 0 0 0 0  0 0 0 0.2 0"/></filter><filter id="h" height="200%" width="200%" x="-50%" y="-50%"><feOffset dx="0" dy="7" in="SourceAlpha" result="shadowOffsetOuter1"/><feGaussianBlur in="shadowOffsetOuter1" result="shadowBlurOuter1" stdDeviation="3.5"/><feColorMatrix in="shadowBlurOuter1" type="matrix" values="0 0 0 0 0   0 0 0 0 0   0 0 0 0 0  0 0 0 0.2 0"/></filter><filter id="i" height="200%" width="200%" x="-50%" y="-50%"><feOffset dx="0" dy="7" in="SourceAlpha" result="shadowOffsetOuter1"/><feGaussianBlur in="shadowOffsetOuter1" result="shadowBlurOuter1" stdDeviation="3.5"/><feColorMatrix in="shadowBlurOuter1" type="matrix" values="0 0 0 0 0   0 0 0 0 0   0 0 0 0 0  0 0 0 0.2 0"/></filter><filter id="j" height="200%" width="200%" x="-50%" y="-50%"><feOffset dx="0" dy="7" in="SourceAlpha" result="shadowOffsetOuter1"/><feGaussianBlur in="shadowOffsetOuter1" result="shadowBlurOuter1" stdDeviation="3.5"/><feColorMatrix in="shadowBlurOuter1" type="matrix" values="0 0 0 0 0   0 0 0 0 0   0 0 0 0 0  0 0 0 0.2 0"/></filter><filter id="k" height="200%" width="200%" x="-50%" y="-50%"><feOffset dx="0" dy="7" in="SourceAlpha" result="shadowOffsetOuter1"/><feGaussianBlur in="shadowOffsetOuter1" result="shadowBlurOuter1" stdDeviation="3.5"/><feColorMatrix in="shadowBlurOuter1" type="matrix" values="0 0 0 0 0   0 0 0 0 0   0 0 0 0 0  0 0 0 0.2 0"/></filter><linearGradient id="l" x1="50%" x2="50%" y1="100%" y2="0%"><stop offset="0" stop-color="#e9dcf9"/><stop offset="1" stop-color="#fff"/></linearGradient><linearGradient id="m" x1="-63.234377%" x2="-63.234375%" y1="100%" y2="0%"><stop offset="0" stop-color="#decbf7"/><stop offset="1" stop-color="#f4edfc"/></linearGradient><linearGradient id="n" x1="50%" x2="50%" y1="0%" y2="100%"><stop offset="0" stop-color="#d3b9f4"/><stop offset="1" stop-color="#be96ef"/></linearGradient><linearGradient id="o" x1="50%" x2="50%" y1="0%" y2="100%"><stop offset="0" stop-color="#be96ef"/><stop offset="1" stop-color="#a873ea"/></linearGradient><linearGradient id="p" x1="50%" x2="50%" y1="0%" y2="100%"><stop offset="0" stop-color="#a873ea"/><stop offset="1" stop-color="#9351e5"/></linearGradient><mask id="q" fill="#fff"><use fill="#fff" xlink:href="#b"/></mask></defs><g transform="translate(0 62.72)"><use fill="url(#a)" xlink:href="#b"/><g mask="url(#q)"><g transform="translate(0 -62.72)"><path d="m129.82528 193.068928c-1.00864-1.00864-2.64192-1.00864-3.65056 0l-35.07072 35.07072c-1.00736 1.00736-1.00736 2.64192 0 3.65056l35.07072 35.06944c1.00864 1.00864 2.64192 1.00864 3.65056 0l35.07072-35.06944c1.00736-1.00864 1.00736-2.6432 0-3.65056z" filter="url(#c)"/><path d="m174.99904 147.895168c-1.00736-1.00864-2.64192-1.00864-3.65056 0l-35.06944 35.06944c-1.00864 1.00864-1.00864 2.6432 0 3.65056l35.06944 35.07072c1.00864 1.00736 2.6432 1.00736 3.65056 0l35.07072-35.07072c1.00864-1.00736 1.00864-2.64192 0-3.65056z" filter="url(#d)"/><path d="m119.72096 182.964608-35.06944-35.06944c-1.00864-1.00864-2.6432-1.00864-3.65056 0l-35.07072 35.06944c-1.00864 1.00864-1.00864 2.6432 0 3.65056l35.07072 35.07072c1.00736 1.00736 2.64192 1.00736 3.65056 0l35.06944-35.07072c1.00864-1.00736 1.00864-2.64192 0-3.65056z" filter="url(#e)"/><path d="m255.24352 137.790848-35.06944-35.07072c-1.00864-1.00736-2.6432-1.00736-3.65056 0l-35.07072 35.07072c-1.00736 1.00736-1.00736 2.64192 0 3.65056l35.07072 35.06944c1.00736 1.00864 2.64192 1.00864 3.65056 0l35.06944-35.06944c1.00864-1.00864 1.00864-2.6432 0-3.65056z" filter="url(#f)"/><path d="m126.17472 102.720128-35.07072 35.07072c-1.00736 1.00736-1.00736 2.64192 0 3.65056l35.07072 35.06944c1.00864 1.00864 2.64192 1.00864 3.65056 0l35.07072-35.06944c1.00736-1.00864 1.00736-2.6432 0-3.65056l-35.07072-35.07072c-1.00864-1.00736-2.64192-1.00736-3.65056 0z" filter="url(#g)"/><path d="m74.5472 141.441408-35.07072 35.06944c-1.00736 1.00864-2.64192 1.00864-3.65056 0l-35.06944-35.06944c-1.00864-1.00864-1.00864-2.6432 0-3.65056l35.06944-35.07072c1.00864-1.00736 2.6432-1.00736 3.65056 0l35.07072 35.07072c1.00736 1.00736 1.00736 2.64192 0 3.65056z" filter="url(#h)"/><path d="m136.27904 91.114368 35.06944 35.07072c1.00864 1.00864 2.6432 1.00864 3.65056 0l35.07072-35.07072c1.00864-1.00736 1.00864-2.64192 0-3.65056l-35.07072-35.06944c-1.00736-1.00864-2.64192-1.00864-3.65056 0l-35.06944 35.06944c-1.00864 1.00864-1.00864 2.6432 0 3.65056z" filter="url(#i)"/><path d="m81.00096 126.185088c1.00736 1.00864 2.64192 1.00864 3.65056 0l35.06944-35.07072c1.00864-1.00736 1.00864-2.64192 0-3.65056l-35.06944-35.06944c-1.00864-1.00864-2.6432-1.00864-3.65056 0l-35.07072 35.06944c-1.00864 1.00864-1.00864 2.6432 0 3.65056z" filter="url(#j)"/><path d="m126.17472 74.546048c1.00864 1.00864 2.64192 1.00864 3.65056 0l35.07072-35.06944c1.00736-1.00864 1.00736-2.6432 0-3.65056l-35.07072-35.07072c-1.00864-1.00736-2.64192-1.00736-3.65056 0l-35.07072 35.07072c-1.00736 1.00736-1.00736 2.64192 0 3.65056z" filter="url(#k)"/></g></g></g><path d="m129.82528 193.068928c-1.00864-1.00864-2.64192-1.00864-3.65056 0l-35.07072 35.07072c-1.00736 1.00736-1.00736 2.64192 0 3.65056l35.07072 35.06944c1.00864 1.00864 2.64192 1.00864 3.65056 0l35.07072-35.06944c1.00736-1.00864 1.00736-2.6432 0-3.65056z" fill="url(#l)"/><path d="m174.99904 147.895168c-1.00736-1.00864-2.64192-1.00864-3.65056 0l-35.06944 35.06944c-1.00864 1.00864-1.00864 2.6432 0 3.65056l35.06944 35.07072c1.00864 1.00736 2.6432 1.00736 3.65056 0l35.07072-35.07072c1.00864-1.00736 1.00864-2.64192 0-3.65056z" fill="url(#m)"/><path d="m119.72096 182.964608-35.06944-35.06944c-1.00864-1.00864-2.6432-1.00864-3.65056 0l-35.07072 35.06944c-1.00864 1.00864-1.00864 2.6432 0 3.65056l35.07072 35.07072c1.00736 1.00736 2.64192 1.00736 3.65056 0l35.06944-35.07072c1.00864-1.00736 1.00864-2.64192 0-3.65056z" fill="url(#m)"/><g fill="url(#n)"><path d="m255.24352 137.790848-35.06944-35.07072c-1.00864-1.00736-2.6432-1.00736-3.65056 0l-35.07072 35.07072c-1.00736 1.00736-1.00736 2.64192 0 3.65056l35.07072 35.06944c1.00736 1.00864 2.64192 1.00864 3.65056 0l35.06944-35.06944c1.00864-1.00864 1.00864-2.6432 0-3.65056z"/><path d="m126.17472 102.720128-35.07072 35.07072c-1.00736 1.00736-1.00736 2.64192 0 3.65056l35.07072 35.06944c1.00864 1.00864 2.64192 1.00864 3.65056 0l35.07072-35.06944c1.00736-1.00864 1.00736-2.6432 0-3.65056l-35.07072-35.07072c-1.00864-1.00736-2.64192-1.00736-3.65056 0z"/><path d="m74.5472 141.441408-35.07072 35.06944c-1.00736 1.00864-2.64192 1.00864-3.65056 0l-35.06944-35.06944c-1.00864-1.00864-1.00864-2.6432 0-3.65056l35.06944-35.07072c1.00864-1.00736 2.6432-1.00736 3.65056 0l35.07072 35.07072c1.00736 1.00736 1.00736 2.64192 0 3.65056z"/></g><path d="m136.27904 91.114368 35.06944 35.07072c1.00864 1.00864 2.6432 1.00864 3.65056 0l35.07072-35.07072c1.00864-1.00736 1.00864-2.64192 0-3.65056l-35.07072-35.06944c-1.00736-1.00864-2.64192-1.00864-3.65056 0l-35.06944 35.06944c-1.00864 1.00864-1.00864 2.6432 0 3.65056z" fill="url(#o)"/><path d="m81.00096 126.185088c1.00736 1.00864 2.64192 1.00864 3.65056 0l35.06944-35.07072c1.00864-1.00736 1.00864-2.64192 0-3.65056l-35.06944-35.06944c-1.00864-1.00864-2.6432-1.00864-3.65056 0l-35.07072 35.06944c-1.00864 1.00864-1.00864 2.6432 0 3.65056z" fill="url(#o)"/><path d="m126.17472 74.546048c1.00864 1.00864 2.64192 1.00864 3.65056 0l35.07072-35.06944c1.00736-1.00864 1.00736-2.6432 0-3.65056l-35.07072-35.07072c-1.00864-1.00736-2.64192-1.00736-3.65056 0l-35.07072 35.07072c-1.00736 1.00736-1.00736 2.64192 0 3.65056z" fill="url(#p)"/></svg>