<svg height="317" preserveAspectRatio="xMidYMid" viewBox="0 0 256 317" width="256" xmlns="http://www.w3.org/2000/svg"><g fill="#a80030"><path d="m152.796616 167.425369c-5.250945.073052.993501 2.70583 7.848657 3.760694 1.893496-1.478563 3.611669-2.974659 5.142829-4.429845-4.269132 1.046097-8.614238 1.069474-12.991486.669151"/><path d="m180.979901 160.400733c3.126606-4.315885 5.405814-9.040859 6.209381-13.926546-.701295 3.483098-2.591868 6.489899-4.371405 9.663259-9.815204 6.18016-.923371-3.67011-.005843-7.413271-10.554488 13.283692-1.449343 7.96554-1.832133 11.676558"/><path d="m191.382441 133.330754c.634087-9.455792-1.861354-6.466522-2.699986-2.857777.978892.508439 1.753238 6.665223 2.699986 2.857777"/><path d="m132.885687 4.08796433c2.802257.50259461 6.054512.88830676 5.59867 1.55745889 3.065244-.67207419 3.760694-1.29155127-5.59867-1.55745889"/><path d="m138.484357 5.64542322-1.981158.40908864 1.843821-.16363546z"/><path d="m225.86569 136.916123c.312662 8.491511-2.483751 12.611619-5.005491 19.905084l-4.537962 2.26752c-3.71394 7.211649.359414 4.578871-2.299662 10.314878-5.797371 5.154518-17.593734 16.129781-21.369037 17.132049-2.755505-.061364 1.867196-3.252255 2.472064-4.502898-7.760996 5.329841-6.226914 8.000605-18.096329 11.238249l-.347725-.771424c-29.273214 13.771677-69.936625-13.520379-69.401887-50.759134-.312662 2.363948-.888307 1.773691-1.537005 2.729206-1.510706-19.159959 8.848003-38.404657 26.31901-46.262081 17.088217-8.4593687 37.121872-4.9879594 49.362388 6.419769-6.723663-8.8070934-20.106706-18.1430806-35.967658-17.2693841-15.536601.2454531-30.070936 10.1190996-34.921559 20.8372221-7.959696 5.011336-8.883067 19.31775-12.3515547 21.935917-4.6665325 34.296238 8.7778737 49.114013 31.5202797 66.544111 3.579525 2.413623 1.008111 2.778881 1.493174 4.616858-7.556453-3.538616-14.475894-8.880146-20.165148-15.41972 3.018489 4.418157 6.276588 8.713588 10.487279 12.088569-7.123986-2.413623-16.641142-17.26354-19.420022-17.868407 12.281426 21.988515 49.826996 38.562449 69.486627 30.339767-9.096378.336037-20.653132.187012-30.874503-3.591213-4.29251-2.209079-10.130789-6.785028-9.087612-7.641192 26.83037 10.022671 54.546125 7.591516 77.761906-11.019095 5.905486-4.599325 12.357399-12.424606 14.221674-12.532722-2.808101 4.222378.479218 2.030833-1.677264 5.759383 5.885033-9.490856-2.556803-3.862966 6.083733-16.389844l3.190891 4.39478c-1.186357-7.877878 9.783064-17.444707 8.669757-29.904379 2.515896-3.810369 2.808102 4.099652.137337 12.865838 3.705174-9.724621.97597-11.287925 1.928561-19.311906 1.028566 2.697063 2.378559 5.563606 3.071087 8.409694-2.413623-9.397351 2.477909-15.825886 3.687642-21.28722-1.192201-.528893-3.725629 4.155172-4.304197-6.945741.08474-4.821401 1.341226-2.527583 1.826289-3.71394-.946748-.543504-3.430501-4.239912-4.941207-11.3288333 1.095774-1.6655751 2.927906 4.3188073 4.418158 4.5642603-.958437-5.6366569-2.609402-9.9350097-2.676609-14.2596611-4.353872-9.0993001-1.539926 1.2126557-5.072699-3.9067964-4.63439-14.4554393 3.845433-3.3545268 4.418158-9.9233216 7.024636 10.1775409 11.030782 25.9508301 12.868759 32.4845601-1.402589-7.9655403-3.670109-15.6827053-6.437302-23.1485729 2.133105.8970729-3.436345-16.3898442 2.773037-4.9412064-6.633081-24.4050594-28.38783-47.208829-48.40103-57.909419 2.448688 2.2412214 5.540229 5.0551668 4.429845 5.4963982-9.952542-5.9259412-8.202228-6.3876269-9.628193-8.8918339-8.108721-3.2990076-8.640537.2659077-14.011287.0058442-15.282382-8.10579919-18.22782-7.243791-32.291704-12.32233424l.639932 2.98926913c-10.124944-3.37205922-11.796363 1.27986303-22.739484.01168825-.66623-.52012699 3.506475-1.88180775 6.939897-2.38148029-9.788907 1.29155127-9.330144-1.92856073-18.908662.35649152 2.361026-1.65680898 4.856467-2.75258213 7.375284-4.16101587-7.983073.48506224-19.057687 4.64607812-15.638875.8620082-13.0207061 5.80905868-36.1459025 13.9645329-49.1227786 26.1319979l-.4090886-2.7262836c-5.9463955 7.1385968-25.9303756 21.3193622-27.5228992 30.5647655l-1.5896016.3711018c-3.0944633 5.2392566-5.0960756 11.1768861-7.5506074 16.5680899-4.0470555 6.8960656-5.9317853 2.653232-5.3561391 3.7343948-7.95969616 16.1385468-11.91324561 29.6998348-15.32913575 40.8212028 2.43407741 3.637966.05844123 21.900852.97889068 36.517005-3.99738042 72.186612 50.66270587 142.275184 110.41010157 158.457561 8.757419 3.132451 21.781048 3.012647 32.858584 3.334073-13.070382-3.737316-14.759334-1.981157-27.490756-6.41977-9.184041-4.32465-11.197341-9.262935-17.701851-14.908358l2.574337 4.549649c-12.7577214-4.514585-7.4191147-5.586981-17.7982779-8.8743l2.7496601-3.591214c-4.1347174-.31266-10.9518873-6.969118-12.8161626-10.653837l-4.5233516.178246c-5.4350348-6.706133-8.3307979-11.539223-8.1204095-15.282384l-1.4610308 2.603558c-1.656809-2.843166-19.9956683-25.150186-10.4814354-19.957682-1.7678474-1.6159-4.117185-2.629855-6.6652227-7.258401l1.9373269-2.214922c-4.5788708-5.890877-8.427226-13.441485-8.1350198-15.957379 2.4428435 3.299007 4.1376393 3.915562 5.8149028 4.47952-11.5625982-28.688802-12.2112959-1.580835-20.9687148-29.203085l1.8525871-.149025c-1.420122-2.13895-2.2821302-4.461988-3.4246564-6.741197l.8064891-8.035669c-8.3249538-9.625271-2.3288832-40.926396-1.1279159-58.093509.8327876-6.980805 6.9486628-14.411609 11.6005851-26.0647904l-2.8343999-.4879844c5.4175024-9.4499475 30.9329452-37.9517374 42.7497628-36.4848624 5.7243189-7.1911939-1.1366821-.0262986-2.2558317-1.8379768 12.5736315-13.0119408 16.527181-9.1928062 25.0128483-11.5333777 9.1518978-5.4321126-7.8545019 2.1184948-3.5152402-2.0717416 15.820042-4.0412115 11.21195-9.1869621 31.850472-11.2382494 2.176937 1.2389542-5.052244 1.9139504-6.866844 3.5210844 13.181419-6.4489902 41.71243-4.9821153 60.244146 3.5795256 21.503452 10.0489702 45.663058 39.7546495 46.61565 67.7041697l1.084085.292206c-.549348 11.109679 1.70064 23.957985-2.19739 35.760191z"/><path d="m95.4832973 174.634096-.7363595 3.681798c3.4509549 4.686987 6.1889272 9.76553 10.5953962 13.429795-3.170437-6.188927-5.5256188-8.745731-9.8590367-17.111593"/><path d="m103.641693 174.312669c-1.826288-2.019145-2.90745-4.450299-4.1171844-6.872689 1.1571364 4.257444 3.5269284 7.915865 5.7330854 11.63565z"/><path d="m248.00323 142.93557-.771424 1.934405c-1.414278 10.046049-4.467832 19.986903-9.148975 29.203086 5.172048-9.724623 8.51781-20.360927 9.920399-31.137491"/><path d="m133.923019 1.56914713c3.550305-1.30031745 8.728198-.71298305 12.494736-1.56914713-4.909064.4120107-9.794751.65746388-14.619075 1.27986303z"/><path d="m9.2824769 67.8473509c.8181773 7.5739839-5.69802033 10.5135779 1.4434985 5.5197744 3.8279008-8.623004-1.49609563-2.3814802-1.4434985-5.5197744"/><path d="m.89031567 102.900403c1.64512074-5.0493226 1.94317104-8.0824227 2.57141431-11.0044844-4.54672802 5.8119808-2.09219618 7.050935-2.57141431 11.0044844"/></g></svg>