<svg height="256" preserveAspectRatio="xMidYMid" viewBox="0 0 256 256" width="256" xmlns="http://www.w3.org/2000/svg"><path d="m0 255.829h256v-169.908h-256z" fill="#1d6a80"/><path d="m0 86.528h256v-86.528h-256z" fill="#83c2c6"/><path d="m62.5494 90.1401c-3.793 4.167-7.476 8.4-10.609 12.046-.755.878-.818 2.156-.155 3.106 3.255 6.437 8.318 11.301 12.044 16.962 2.987 6.428-.967 12.675 1.66 17.208 2.419 4.177 6.404 4.196 12.505 10.127 4.213 5.404 9.814 19.413 16.896 31.829 4.044 14.479 8.022 28.755 9.974 36.809.063.261.183.505.352.715l9.642 11.97c10.198-.817 19.839-1.792 27.222-3.414l6.57-5.802 17.75-1.792c5.054-8.899 8.704-17.238 12.868-28.081 3.516-8.271 9.363-15.548 10.619-22.375.976-5.311-1.557-8.595-2.154-14.398.343-3.135 1.206-7.002 1.451-11.778.182-3.542-.555-7.464-.939-12.2l14.08-5.12c1.237-1.067 1.493-5.974 2.173-9.079 3.152-9.532 5.477-17.631 4.995-20.873-7.339-3.798-12.971-7.595-18.603-8.192l.256-.939-.367-.341-1.937-.598h-122.766l-1.274.598c-.675 1.2-1.416 2.418-2.253 3.612" fill="#5cceef"/><path d="m186.4533 83.8823c-2.048-2.389-3.472-5.961-6.13-9.665-2.581-3.597-7.599-10.299-11.491-15.85-3.584-5.111-5.888-9.088-6.784-9.472l-10.838 1.792-1.792-4.522-1.877.512-7.168-20.566c-4.61-1.767-9.218-2.917-13.824-3.584-4.711 3.663-10.325 9.017-15.701 15.133-5.888 7.452-9.103 11.292-12.63 14.336-3.527 6.201-6.855 13.795-9.301 16.185-3.963.927-11.924 6.242-19.604 10.347-.184.098-.342.236-.465.404-1.228 2.038-2.452 4.764-4.045 7.595h125.976l-2.022-1.877c-.73.076-1.393-.211-2.304-.768" fill="#fff"/></svg>