<svg height="152" preserveAspectRatio="xMidYMid" viewBox="0 0 512 152" width="512" xmlns="http://www.w3.org/2000/svg"><path d="m10.5813333 44.1567885c7.0523871-8.0286738 16.0279857-12.0420932 26.9249606-12.0420932 10.3225807 0 18.723785 4.0721434 25.2036129 12.214595v-42.49416485h27.0112115v117.50491755h-27.0112115v-9.893161c-6.9386093 7.971785-15.3398136 11.985204-25.2036129 12.042093-10.8969749 0-19.8707383-3.971212-26.9249606-11.913634-7.05422219-7.940588-10.5813333-18.9091331-10.5813333-32.9019647 0-13.6478279 3.52711111-24.4860788 10.5813333-32.5165878zm433.1464947-11.7264516 19.441319 53.9361721 19.182566-53.9361721h28.730724l-38.451383 97.2047601c-3.154581 8.314953-7.670825 14.064401-13.548731 17.246509-5.877907 3.182107-13.346868 4.888774-22.408717 5.118165-4.701592 0-8.573706-.458782-11.612674-1.376344l3.870279-24.172273c1.892015 1.031341 4.129033 1.576373 6.709219 1.635097 6.36605 0 10.23633-1.576373 11.612674-4.730954l1.978265-4.644702-8.959082-22.7500502c.102767-.9267383.155985-1.8608172.155985-2.8022366 0-7.6341218-3.378466-14.5488745-8.740702-18.9953835l-16.435384-41.7325878zm-319.284301 32.9460072h35.010523c-.458781-3.4977491-2.093878-6.5807599-4.903455-9.2471971-2.809577-2.6664373-7.054222-4.0005735-12.7321-4.0005735-5.391599 0-9.491269 1.3047742-12.300846 3.9143226-2.807742 2.6095483-4.499728 5.720086-5.074122 9.333448zm163.384889-65.3763441h27.097462v73.230681c-4.907125 5.6264946-8.459928 13.135828-8.459928 20.9002437 0 7.7534053 2.930695 14.7947813 8.458093 19.5734483v3.80238h-27.097462v-117.506753zm-260.1290325 74.8822939c0 6.2229104 1.7635556 11.2401434 5.2906667 15.0535341 3.5271111 3.8133906 7.9864659 5.720086 13.3762294 5.720086 2.9251899 0 5.9494767-.7303799 9.0746953-2.1929749s5.5475842-3.3124015 7.2689319-5.5475843v-26.0661218c-1.7782365-2.2370179-4.2152831-4.0574624-7.3111398-5.4631685-3.0976917-1.4057061-6.1072975-2.106724-9.0324874-2.106724-5.5053764 0-9.9922581 1.8773333-13.4624803 5.6338351s-5.2044158 8.7462079-5.2044158 14.9691183zm190.8236845 13.0312258c1.662624 2.2370179 4.042781 4.0868244 7.140473 5.5475842 3.097692 1.462595 6.107298 2.192975 9.032488 2.192975 5.391598 0 9.863799-1.8773334 13.418437-5.6338352 3.556473-3.7565018 5.332875-8.8177778 5.332875-15.1819928 0-6.2504373-1.763556-11.2401434-5.290667-14.9672832-3.527111-3.7271397-8.013993-5.5916272-13.46248-5.5916272-2.92519 0-5.934796.7303799-9.032488 2.1929749s-5.476014 3.3124014-7.140473 5.5475842v25.8936201zm-121.7770895-13.0752688c0-12.5595986 4.2299645-23.1262509 12.6880575-31.6981219 8.458093-8.5737061 19.254136-12.8605591 32.386294-12.8605591 12.788989 0 23.240028 4.316215 31.354953 12.94681s12.172387 20.1148101 12.172387 34.4508101v6.1935484h-60.55914c1.031341 4.1290322 3.369291 7.4836415 7.01018 10.0638279s8.415885 3.8702796 14.323154 3.8702796c3.268358 0 6.95329-.6734911 11.05296-2.0223083 4.099671-1.346982 7.325821-3.0830107 9.676617-5.2044157l11.871426 17.8062221c-4.129032 3.613362-9.390337 6.393577-15.785749 8.344315-6.395412 1.950739-13.003699 2.92519-19.82853 2.92519-13.361549 0-24.42919-4.086824-33.20476-12.258638-8.7719-8.169978-13.1578495-19.0229099-13.1578495-32.5569601zm94.6796275 75.0970031v-117.5049171h27.097462v9.8931613c6.595441-7.9717849 14.996645-11.9852043 25.203613-12.0420932 11.067642 0 20.057921 3.9418495 26.967168 11.8273835 6.911083 7.8855341 10.364789 18.7953549 10.364789 32.7312975 0 14.1084445-3.470222 25.1045162-10.408832 32.99005-6.938609 7.885534-15.914207 11.827384-26.92496 11.827384-9.979412 0-18.380617-4.072144-25.203613-12.214595v42.494165h-27.095627z" fill="#030000"/><path d="m329.216 66.3195986 1.183656-.4367599.412903-1.2423799c5.527398-16.5950394 20.500187-27.9379498 37.531986-27.9379498 13.853362 0 26.47719 7.4928172 33.702079 19.5844587l.52301.8735198.94142.29362c6.334853 1.9801004 11.742968 6.4100932 15.143455 12.3430538l.563383.9836272 1.064373.2660932c9.594036 2.4076846 16.479427 11.4475126 16.479427 21.942595 0 12.7045733-10.502423 24.3833123-22.153635 24.3833123h-32.531268v-23.3501367h11.735627c2.233347 0 3.198623-1.6075699 2.158107-3.5895053 0 0-20.685534-31.0741793-24.355785-31.0741793s-24.355785 31.0741793-24.355785 31.0741793c-1.038681 1.9801003-.073405 3.5895053 2.158108 3.5895053h11.533763v23.3501367h-4.108846-5.217261l-22.66747.07524c-12.155871-2.633405-18.821046-12.288-18.821046-23.5464949 0-12.4384803 9.828932-24.1722725 19.079799-27.5819355z" fill="#9bc75d"/></svg>