<svg height="270" preserveAspectRatio="xMidYMid" viewBox="0 0 256 270" width="256" xmlns="http://www.w3.org/2000/svg"><path d="m255.622586 217.106178c-.27048-5.3467-2.604158-10.246794-6.560716-13.813357-2.176421-1.968844-4.730257-3.358986-7.453929-4.189297l-.503218-9.743575c.201287-.194997.421445-.345963.597572-.559831 2.346258-2.578996 3.535112-5.919111 3.358986-9.410192-.364834-6.94442-6.095238-12.372893-13.045949-12.372893l-.666765.006291c-1.88707.106934-3.673497.622733-5.308958 1.459334l-26.551084-10.68711 7.019903-7.082805 14.807214-4.201877c8.988746-3.264632 8.988746-3.264632 10.750012-14.215932 0 0 3.440759-17.795076 3.440759-27.324783 0-29.8974884-12.215637-53.4355492-31.897784-69.4504886l6.824906-13.1151407c2.585287-4.9818665-3.396727-13.23465531-13.34788-18.4052288-9.976313-5.18315397-20.160204-5.35299032-22.745491-.36483366l-6.881517 13.23465526c-12.209347-3.6672072-25.469163-5.6234704-39.383164-5.6360509h-.044032-.050322c-13.951742.0125805-27.236719 1.9877144-39.4649366 5.6549216l-6.9003882-13.25352596c-2.5789965-4.98186643-12.7565974-4.81832031-22.7329107.36483366-9.9574426 5.17057349-15.9331662 13.4233623-13.3415893 18.4052288l6.8437761 13.1654626c-19.6569856 16.0086491-31.8411715 39.5341295-31.8411715 69.4001667 0 9.535997 3.4407588 27.324783 3.4407588 27.324783 1.7738463 10.95759 1.7738463 10.95759 10.7563025 14.215932l14.8072141 4.201877 6.9884515 7.070225-26.6139859 10.69969c-1.629171-.842891-3.4093076-1.358691-5.3026685-1.459334l-.6667649-.006291c-6.9507101 0-12.6748243 5.422183-13.039658 12.372893-.1761266 3.491081 1.0127279 6.831196 3.3464052 9.410192.1761266.213868.4088653.364834.6038626.559831l-.509509 9.749865c-2.7173817.849182-5.26492706 2.214163-7.4413485 4.195587-3.96913854 3.553983-6.30281587 8.460367-6.57958622 13.800777l-.33338248 6.887808 13.763035.691925.3585435-6.887807c.0754828-1.654332.7988599-3.151408 2.031746-4.27736 1.2328861-1.107082 2.7928645-1.666913 4.4534866-1.572559 1.654332.094353 3.1702787.81144 4.2647796 2.031746 1.1133717 1.220305 1.6669124 2.792864 1.5914296 4.447196l-.3585434 6.900388 13.7756155.704507.3333825-6.875228c.2893508-5.340409-1.522237-10.44179-5.1013809-14.423509-1.9688437-2.195292-4.3591332-3.811883-6.9758711-4.925255l.3899946-7.535702c4.7365473-1.767556 8.1898865-6.195881 8.4540764-11.548872 0-.075483-.0062903-.132095 0-.220158l15.794781-6.346848-7.4727996 29.249595c-.2327387 1.459335-.5283798 2.000295 0 4.27736 0 0 12.159025 33.237604 12.8635314 35.187577.723377 1.931102 1.2014349 2.541255 3.7867217 3.352695 2.352548.660475 4.7491277 1.176274 7.1205464 1.729815 0 0 2.082068 7.057644 2.7362524 9.278097.559831 1.899651.9120842 2.428031 3.0759251 3.182859 16.9081528 5.8625 34.7032287 9.101971 53.1084577 9.101971h.050322.044031c18.405229 0 36.187725-3.245761 53.108458-9.101971 2.176421-.754828 2.516094-1.283208 3.063344-3.182859.654185-2.220453 2.742543-9.278097 2.742543-9.278097 2.365128-.559831 4.780579-1.06934 7.114256-1.729815 2.597867-.81144 3.082216-1.427883 3.786722-3.352695.710797-1.949973 12.876112-35.187577 12.876112-35.187577.522089-2.270775.226448-2.811735-.012581-4.27736l-7.453929-29.218143 15.694138 6.309106c0 .088063-.018871.144675-.018871.220158.283061 5.35299 3.74269 9.768736 8.479237 11.548872l.389995 7.535702c-2.629319 1.113372-5.013318 2.755123-6.982161 4.925255-3.572854 3.981719-5.378152 9.083099-5.107672 14.423509l.352254 6.875228 13.769325-.704507-.352253-6.900388c-.094354-1.654332.465477-3.226891 1.572559-4.447196 1.107081-1.220306 2.623028-1.943683 4.28365-2.031747 1.666912-.056612 3.226891.484349 4.453487 1.572559 1.226595 1.125952 1.943682 2.623029 2.031746 4.27736l.345962 6.887808 13.775616-.691926z" fill="#00ade2"/><path d="m183.98154 87.9728656c0 6.930272-5.622554 12.5528264-12.552826 12.5528264-6.930273 0-12.540192-5.6225544-12.540192-12.5528264 0-6.9365895 5.616237-12.5591438 12.540192-12.5591438 6.930272 0 12.552826 5.6225543 12.552826 12.5591438zm-98.8685117-35.7948234c-5.868936 0-11.3967282 1.4719721-16.2611853 4.0242327 0-.0947622.0505398-.1642544.0505398-.2463816 0-3.9863279-3.2282306-7.1892886-7.1892885-7.1892886-3.9863279 0-7.2019236 3.2029607-7.2019236 7.1892886 0 3.3482627 2.3690538 6.0521427 5.4898873 6.8418273-6.1911272 6.3301118-10.0195181 14.9787375-10.0195181 24.5181274 0 19.369384 15.7557871 35.125171 35.1314884 35.125171 19.3693837 0 35.1314887-15.755787 35.1314887-35.125171 0-19.3757013-15.755787-35.1378058-35.1314887-35.1378058zm0 62.7199098c-15.2188016 0-27.6010561-12.375937-27.6010561-27.5884215 0-15.225119 12.375937-27.601056 27.6010561-27.601056 15.2124837 0 27.6010557 12.375937 27.6010557 27.601056 0 15.2124845-12.388572 27.5884215-27.6010557 27.5884215zm54.2292207 113.39239h-22.149074c-6.03319 0-10.935552-4.984489-10.935552-11.112441v-14.94715c0-6.13427 4.902362-11.106125 10.935552-11.106125h21.504691v-11.807364c0-3.20296 2.596483-5.774173 5.793127-5.774173 3.190325 0 5.793126 2.571213 5.793126 5.774173v37.860639c.006317 6.127952-4.90868 11.112441-10.94187 11.112441zm-21.498374-11.579935h20.860309v-13.993211h-20.860309zm-20.1780204-128.7375414c0 6.930272-5.6225543 12.5528264-12.5401914 12.5528264-6.9492245 0-12.5528264-5.6225544-12.5528264-12.5528264 0-6.9365895 5.6099194-12.5591438 12.5528264-12.5591438 6.9113196 0 12.5401914 5.6225543 12.5401914 12.5591438z" fill="#fff"/></svg>