<svg height="130" preserveAspectRatio="xMidYMid" viewBox="0 0 512 130" width="512" xmlns="http://www.w3.org/2000/svg"><path d="m80.1343054 23.6661281v-23.42336948h-23.424l-2.3374187 2.35759606-11.0527685 21.06325122-3.4755468 2.3449852h-39.44796056v32.1670936h21.68685716l1.9313497 2.3361577-23.61820686 45.1316646v23.424h23.42336946l2.3380493-2.356965 11.053399-21.063882 3.4749162-2.344355h39.4479606v-32.1677237h-21.6868571l-1.9294582-2.3519212z" fill="#45ad47"/><path d="m125.899665 106.71669 6.654739-12.7016358 3.070108 12.7016358zm.648197-35.5783255-30.313931 57.9291425h17.988729l4.39866-8.429714 20.311646-.001261 2.009536 8.430975h17.987468l-13.863724-57.9291425zm60.672 27.0817734h-7.685675v-11.7129458h7.685675c4.683035 0 6.461793 2.3430936 6.461793 5.903133 0 3.4686109-1.778758 5.8098128-6.461793 5.8098128zm24.080394-6.0954482c0-13.3025419-8.997202-20.9863252-21.645872-20.9863252h-27.449379v57.9348175h17.329182v-16.897261h4.216434l3.442128-.009458 8.38999 16.906719h17.98936l-10.697774-20.442167c5.246739-3.342503 8.425931-9.0079214 8.425931-16.5063253zm2.563153-20.9863252v15.3574779h16.373911v42.5773396h9.866719l7.449222-14.250877v-28.3264626h14.851153l8.029951-15.3574779zm97.08264-70.89560588h17.312788v57.92662068h-17.312788zm-147.260532.02900493-7.779625 14.85178325h4.776985c8.528709 0 13.92867 5.4510345 13.92867 14.0749557 0 8.523665-5.399961 13.9765911-13.92867 13.9765911h-5.3987v-26.864867l-16.747822 31.9728867v9.8774384h23.301675c18.776275 0 29.81265-11.3213793 29.81265-28.9626798 0-17.0574187-10.316296-28.20161574-27.965163-28.92610835zm32.544158 57.89761575h44.216749v-15.3549557h-26.904591v-6.2600197h24.736157v-14.697931h-24.736157v-6.2581281h26.904591v-15.35558618h-44.216749zm74.999803-22.8722759-8.391882-35.05434478h-17.970443l13.871921 57.92472908h18.486226l30.341675-57.92472908h-17.99062zm183.833222-35.05875857v15.35747787h16.373911v42.5773399h9.866719l7.449852-14.2508769v-28.326463h14.851153l8.02932-15.35747787zm-93.768513 35.58336947 6.64402-12.6902857 3.069478 12.6902857zm.674049-35.57895568-30.322128 57.92472908h17.958463l4.414424-8.439803 20.292099-.0006305 2.014581 8.4404335 17.963507.0018916-13.864354-57.92662068zm72.074089 27.43929068-19.390424-27.43929068h-17.074443v57.92662068h17.307744v-29.4185616l21.466798 29.4185616h14.99933v-57.92662068h-17.309005z" fill="#1f211f"/></svg>