<svg height="164" preserveAspectRatio="xMidYMid" viewBox="0 0 256 164" width="256" xmlns="http://www.w3.org/2000/svg" xmlns:xlink="http://www.w3.org/1999/xlink"><radialGradient id="a" cx="17.997418%" cy="25.996302%" r="65.368388%"><stop offset="0" stop-color="#5fb0e2"/><stop offset=".09123212" stop-color="#45a1d7"/><stop offset=".208" stop-color="#2c93cd"/><stop offset=".3383" stop-color="#1888c4"/><stop offset=".4876" stop-color="#0b80be"/><stop offset=".6724" stop-color="#027bbb"/><stop offset="1" stop-color="#007aba"/></radialGradient><g transform="translate(31)"><path d="m11.8 100.2c34-21.9 72.6-6.1 91.9 4.4-26.7-10.6-65.7-13-91.9-4.4z" fill="#5fb0e2"/><path d="m71.6 0c16.4 0 30.4 9.6 36.7 23.5h-12.8c-5.6-7-14.3-11.4-24.1-11.4-9.6 0-18.1 4.3-23.8 11.1.3-.2.6-.5.9-.7 13.4-9.5 31.2 1 31.2 1s-16.9-4.9-28.4 3.1-9.6 24.1-9.6 24.1-.1-.2-.2-.6c0 .2.1.4.1.6-2.7-2-6.1-3.3-9.7-3.7-.4-2.3-.7-4.7-.7-7.2.1-22 18.1-39.8 40.4-39.8zm-51.5 90.9v-3.4c10.6-7.9 30.2-18.1 53.8-10.7 35.8 11.2 58.5 26.5 86.2 19.6 27.6-6.9 30.1-22 30.1-22s-4.9 21.3-32.1 26-52.3-.6-84.3-12.5c-21.6-8-42.4-1.8-53.7 3zm0-6.9c2-1.3 4-2.6 5.8-3.6-.9-.6-1.7-1.2-2.5-2-1.4-1.4-2.5-3-3.3-4.6v7.4l.2.2c.4.3.7.6 1.1.9-.5-.2-.9-.4-1.3-.7zm0-34.5v-12.6c2.6-.9 5.4-1.4 8.2-1.6-.1 1.4-.2 2.9-.2 4.4 0 2.5.2 4.9.6 7.3-3.1.2-6 1.1-8.6 2.5zm0-12.6v12.6c-5.6 3.2-9.4 9.2-9.4 16.1s3.8 12.9 9.4 16.1v2.3c-2.3 1.5-4.5 3.2-6.3 4.6-8.1-5.2-13.4-14.1-13.4-24.3 0-12.7 8.2-23.5 19.7-27.4zm0 37c-3.6-6.9-2.4-14.8-2.4-14.8s-6 13.9 2.4 22.2zm0 13.5c-5.5 4.1-8.6 7.5-8.6 7.5 0 .1 3.2-1.8 8.6-4.1z" fill="url(#a)"/><path d="m110.1 82s17.1 8.7 33.1 7.3c16.1-1.4 20.9-7.1 20.9-7.1s-5.9 10.9-21.3 11.5-32.7-11.3-32.7-11.7z" fill="#5fb0e2"/><path d="m97 26.8h14.4v14.4h-14.4z" fill="#5fb0e2"/><path d="m154 66.5h11.1v11.1h-11.1z" fill="#0088cf"/><path d="m114.3 13.6h19.1v19.1h-19.1z" fill="#5fb0e2"/><path d="m169.9 46.7h19.1v19.1h-19.1z" fill="#0088cf"/><path d="m135.3 34.2h10.7v10.7h-10.7z" fill="#5fb0e2"/><path d="m142.4 55.2h10.7v10.7h-10.7z" fill="#5fb0e2"/><g fill="#0088cf"><path d="m119.9 56.3h10.7v10.7h-10.7z"/><path d="m157.4 34.6h10.7v10.7h-10.7z"/></g></g><g fill="#0a8ccc" transform="translate(0 118)"><path d="m31.5 19.3c0 2.6-.4 5-1.3 7.2s-2.1 4.1-3.7 5.6c-1.6 1.6-3.5 2.8-5.7 3.7s-4.7 1.3-7.3 1.3h-13.5v-35.5h13.6c2.7 0 5.1.4 7.3 1.3s4.1 2.1 5.7 3.7 2.8 3.4 3.7 5.6c.8 2.2 1.2 4.5 1.2 7.1zm-6.7 0c0-1.9-.3-3.7-.8-5.2s-1.3-2.9-2.2-3.9c-1-1.1-2.1-1.9-3.5-2.5s-2.9-.9-4.7-.9h-6.9v25h6.9c1.7 0 3.3-.3 4.7-.9s2.6-1.4 3.5-2.5c1-1.1 1.7-2.4 2.2-3.9s.8-3.2.8-5.2z"/><path d="m41.3 4.6c0 .5-.1 1-.3 1.5s-.5.9-.8 1.2c-.4.3-.8.6-1.2.8-.5.2-1 .3-1.5.3s-1-.1-1.5-.3-.9-.5-1.2-.8-.6-.7-.8-1.2-.3-.9-.3-1.5c0-.5.1-1 .3-1.5s.5-.9.8-1.2.7-.6 1.2-.8 1-.3 1.5-.3 1 .1 1.5.3.9.5 1.2.8c.4.3.6.8.8 1.2s.3.9.3 1.5zm-.9 7.3v25.2h-6.1v-25.2z"/><path d="m53.5 11.5c1.1 0 2.1.1 3 .3s1.8.5 2.6 1h7.2v2.3c0 .4-.1.7-.3.9s-.5.4-1 .4l-2.3.4c.2.4.3.9.4 1.3.1.5.1 1 .1 1.5 0 1.2-.2 2.4-.7 3.4s-1.2 1.9-2.1 2.6-1.9 1.2-3.1 1.6-2.5.6-3.9.6c-.9 0-1.9-.1-2.8-.3-.8.5-1.2 1-1.2 1.6 0 .5.2.9.7 1.1s1.1.4 1.8.5c.8.1 1.6.1 2.6.1s2 0 3 .1 2 .2 3 .4 1.8.5 2.6 1c.8.4 1.4 1 1.8 1.8.5.8.7 1.7.7 2.9 0 1.1-.3 2.2-.8 3.3s-1.3 2-2.4 2.8c-1 .8-2.3 1.5-3.8 2s-3.2.8-5.2.8c-1.9 0-3.6-.2-5-.6s-2.6-.9-3.5-1.5-1.6-1.3-2.1-2.1-.7-1.6-.7-2.5c0-1.2.4-2.2 1.1-3s1.7-1.4 3-1.9c-.6-.3-1.1-.8-1.5-1.4s-.6-1.3-.6-2.2c0-.4.1-.8.2-1.2s.3-.8.6-1.2.6-.8 1-1.1c.4-.4.9-.7 1.4-.9-1.3-.7-2.3-1.6-3-2.8-.7-1.1-1.1-2.5-1.1-4 0-1.2.2-2.4.7-3.4s1.2-1.9 2.1-2.6 1.9-1.3 3.2-1.6c1.5-.2 2.8-.4 4.3-.4zm6.6 26.7c0-.5-.1-.9-.4-1.2s-.7-.6-1.2-.7c-.5-.2-1.1-.3-1.8-.4s-1.4-.1-2.2-.1h-2.4c-.8 0-1.6-.1-2.3-.3-.7.4-1.2.8-1.7 1.3-.4.5-.6 1.1-.6 1.8 0 .4.1.9.3 1.2.2.4.6.7 1.1 1s1.1.5 1.9.7 1.7.2 2.8.2 2.1-.1 2.9-.3 1.5-.4 2-.7.9-.7 1.2-1.1c.3-.5.4-.9.4-1.4zm-6.6-14.3c.8 0 1.4-.1 2-.3s1-.5 1.4-.8c.4-.4.6-.8.8-1.3s.3-1.1.3-1.7c0-1.2-.4-2.2-1.1-3-.7-.7-1.9-1.1-3.4-1.1s-2.6.4-3.4 1.1c-.7.7-1.1 1.7-1.1 3 0 .6.1 1.1.3 1.6s.5.9.8 1.3c.4.4.8.7 1.4.9s1.2.3 2 .3z"/><path d="m75.1 4.6c0 .5-.1 1-.3 1.5s-.5.9-.8 1.2c-.4.3-.8.6-1.2.8-.5.2-1 .3-1.5.3s-1-.1-1.5-.3-.9-.5-1.2-.8-.6-.7-.8-1.2-.3-.9-.3-1.5c0-.5.1-1 .3-1.5s.5-.9.8-1.2.7-.6 1.2-.8 1-.3 1.5-.3 1 .1 1.5.3.9.5 1.2.8c.4.3.6.8.8 1.2s.3.9.3 1.5zm-.9 7.3v25.2h-6.1v-25.2z"/><path d="m86.8 37.5c-2.2 0-3.9-.6-5-1.9-1.2-1.2-1.8-2.9-1.8-5.1v-14.1h-2.6c-.3 0-.6-.1-.8-.3s-.4-.5-.4-1v-2.4l4.1-.7 1.3-6.9c.1-.3.2-.6.5-.8.2-.2.5-.3.9-.3h3.1v7.9h6.6v4.3h-6.6v13.7c0 .8.2 1.4.6 1.8s.9.7 1.6.7c.4 0 .7 0 .9-.1.3-.1.5-.2.7-.3s.4-.2.5-.3.3-.1.4-.1c.2 0 .3 0 .4.1s.2.2.4.4l1.8 2.9c-.9.7-1.9 1.3-3 1.7-1.1.6-2.3.8-3.6.8z"/><path d="m114.9 37.1h-2.7c-.6 0-1-.1-1.4-.3-.3-.2-.6-.5-.7-1l-.5-1.8c-.6.6-1.3 1.1-1.9 1.5s-1.2.8-1.9 1.1-1.4.5-2.1.7c-.7.1-1.6.2-2.5.2-1.1 0-2-.1-2.9-.4s-1.7-.7-2.3-1.3-1.2-1.3-1.5-2.1c-.4-.9-.5-1.8-.5-3 0-1 .2-1.9.7-2.8s1.3-1.8 2.5-2.5 2.7-1.4 4.6-1.9 4.3-.7 7.2-.7v-1.5c0-1.7-.4-3-1.1-3.8s-1.7-1.2-3.1-1.2c-1 0-1.8.1-2.5.3s-1.2.5-1.7.8-.9.5-1.3.8c-.4.2-.9.3-1.4.3-.4 0-.8-.1-1.1-.3s-.5-.5-.7-.8l-1.1-1.9c2.9-2.7 6.4-4 10.5-4 1.5 0 2.8.2 3.9.7 1.2.5 2.1 1.2 2.9 2 .8.9 1.4 1.9 1.8 3.1s.6 2.5.6 3.9v15.9zm-11.8-3.8c.6 0 1.2-.1 1.7-.2s1-.3 1.5-.5.9-.5 1.4-.8c.4-.3.9-.7 1.3-1.2v-4.2c-1.8 0-3.2.1-4.4.3s-2.1.5-2.9.9c-.7.3-1.2.8-1.5 1.2-.3.5-.5 1-.5 1.5 0 1.1.3 1.8.9 2.3s1.5.7 2.5.7z"/><path d="m124.8.6v36.5h-6.1v-36.5z"/><path d="m163.6 19.3c0 2.6-.4 5-1.3 7.2s-2.1 4.1-3.7 5.8c-1.6 1.6-3.5 2.9-5.7 3.8s-4.7 1.4-7.3 1.4-5.1-.5-7.4-1.4c-2.2-.9-4.1-2.2-5.7-3.8s-2.8-3.5-3.7-5.8c-.9-2.2-1.3-4.6-1.3-7.2s.4-5 1.3-7.2 2.1-4.1 3.7-5.8c1.6-1.6 3.5-2.9 5.7-3.8s4.7-1.4 7.4-1.4 5.1.5 7.3 1.4 4.1 2.2 5.7 3.8 2.8 3.5 3.7 5.7c.9 2.3 1.3 4.7 1.3 7.3zm-6.7 0c0-1.9-.3-3.7-.8-5.2s-1.3-2.9-2.2-3.9c-1-1.1-2.1-1.9-3.5-2.5s-2.9-.9-4.7-.9-3.3.3-4.7.9-2.6 1.4-3.5 2.5c-1 1.1-1.7 2.4-2.2 3.9s-.8 3.3-.8 5.2.3 3.7.8 5.2 1.3 2.9 2.2 3.9c1 1.1 2.2 1.9 3.5 2.5 1.4.6 3 .9 4.7.9s3.3-.3 4.7-.9 2.6-1.4 3.5-2.5c1-1.1 1.7-2.4 2.2-3.9s.8-3.2.8-5.2z"/><path d="m183.7 17.2-.5.5c-.2.1-.4.2-.7.2s-.6-.1-.9-.3-.6-.4-1.1-.6c-.4-.2-.9-.5-1.5-.6-.6-.2-1.3-.3-2.1-.3-1.1 0-2 .2-2.8.6s-1.5.9-2 1.7c-.5.7-.9 1.6-1.2 2.6s-.4 2.2-.4 3.5.1 2.5.4 3.6c.3 1 .7 1.9 1.2 2.6s1.2 1.3 2 1.6c.8.4 1.6.6 2.6.6s1.7-.1 2.3-.4c.6-.2 1.1-.5 1.5-.8s.8-.5 1.1-.8c.3-.2.6-.4 1-.4.5 0 .9.2 1.1.6l1.7 2.2c-.7.8-1.4 1.4-2.2 2-.8.5-1.6 1-2.4 1.3s-1.7.5-2.6.7c-.9.1-1.8.2-2.7.2-1.6 0-3-.3-4.4-.9s-2.6-1.4-3.6-2.5-1.8-2.5-2.4-4.1-.9-3.4-.9-5.5c0-1.8.3-3.6.8-5.1.5-1.6 1.3-2.9 2.3-4.1s2.3-2.1 3.8-2.7c1.5-.7 3.3-1 5.3-1 1.9 0 3.5.3 4.9.9s2.7 1.5 3.8 2.6z"/><path d="m197.4 11.5c1.6 0 3 .3 4.4.8 1.3.5 2.5 1.2 3.5 2.2s1.7 2.2 2.3 3.6c.5 1.4.8 3 .8 4.8 0 .5 0 .8-.1 1.1 0 .3-.1.5-.2.7s-.2.3-.4.4-.4.1-.7.1h-15.6c.2 2.6.9 4.5 2.1 5.7s2.8 1.8 4.8 1.8c1 0 1.8-.1 2.5-.3s1.3-.5 1.9-.8c.5-.3 1-.5 1.4-.8.4-.2.8-.3 1.2-.3.2 0 .5 0 .6.1.2.1.3.2.5.4l1.8 2.2c-.7.8-1.4 1.4-2.3 2-.8.5-1.7 1-2.6 1.3s-1.8.5-2.8.7c-.9.1-1.9.2-2.7.2-1.8 0-3.4-.3-4.9-.9s-2.8-1.4-3.9-2.6c-1.1-1.1-2-2.5-2.6-4.2s-1-3.6-1-5.8c0-1.7.3-3.3.8-4.8.6-1.5 1.4-2.8 2.4-4 1-1.1 2.3-2 3.8-2.7 1.4-.6 3.1-.9 5-.9zm.1 4.4c-1.8 0-3.2.5-4.1 1.5-1 1-1.6 2.4-1.9 4.2h11.4c0-.8-.1-1.5-.3-2.2s-.5-1.3-1-1.8c-.4-.5-1-.9-1.7-1.2-.7-.4-1.5-.5-2.4-.5z"/><path d="m230.5 37.1h-2.7c-.6 0-1-.1-1.4-.3-.3-.2-.6-.5-.7-1l-.5-1.8c-.6.6-1.3 1.1-1.9 1.5s-1.2.8-1.9 1.1-1.4.5-2.1.7c-.7.1-1.6.2-2.5.2-1.1 0-2-.1-2.9-.4s-1.7-.7-2.3-1.3-1.2-1.3-1.5-2.1c-.4-.9-.5-1.8-.5-3 0-1 .2-1.9.7-2.8s1.3-1.8 2.5-2.5 2.7-1.4 4.6-1.9 4.3-.7 7.2-.7v-1.5c0-1.7-.4-3-1.1-3.8s-1.7-1.2-3.1-1.2c-1 0-1.8.1-2.5.3s-1.2.5-1.7.8-.9.5-1.3.8c-.4.2-.9.3-1.3.3s-.8-.1-1.1-.3-.5-.5-.7-.8l-1.1-1.9c2.9-2.7 6.4-4 10.5-4 1.5 0 2.8.2 3.9.7 1.2.5 2.1 1.2 2.9 2 .8.9 1.4 1.9 1.8 3.1s.6 2.5.6 3.9v15.9zm-11.7-3.8c.6 0 1.2-.1 1.7-.2s1-.3 1.5-.5.9-.5 1.4-.8c.4-.3.9-.7 1.3-1.2v-4.2c-1.8 0-3.2.1-4.4.3s-2.1.5-2.9.9c-.7.3-1.2.8-1.5 1.2-.3.5-.5 1-.5 1.5 0 1.1.3 1.8.9 2.3s1.4.7 2.5.7z"/><path d="m234 37.1v-25.2h3.7c.8 0 1.3.4 1.5 1.1l.4 2c.5-.5 1-1 1.6-1.4s1.2-.8 1.8-1.1 1.3-.5 2-.7 1.5-.2 2.4-.2c1.4 0 2.6.2 3.7.7s2 1.1 2.7 2c.7.8 1.3 1.8 1.6 3 .4 1.2.6 2.5.6 3.9v16h-6.1v-16c0-1.5-.4-2.7-1.1-3.6-.7-.8-1.8-1.3-3.2-1.3-1 0-2 .2-2.9.7s-1.8 1.1-2.6 1.9v18.2z"/></g></svg>