<svg height="86" preserveAspectRatio="xMidYMid" viewBox="0 0 512 86" width="512" xmlns="http://www.w3.org/2000/svg" xmlns:xlink="http://www.w3.org/1999/xlink"><defs><linearGradient id="a" x1="19.414374%" x2="88.60065%" y1="9.06317%" y2="80.498842%"><stop offset="0" stop-color="#f34f26"/><stop offset="1" stop-color="#f69e35"/></linearGradient><path id="b" d="m270.356257.3647422c-23.98225 0-43.439637 18.7350483-43.439637 41.8577474 0 24.5831464 18.612031 42.9601801 43.439637 42.9601801 24.207783 0 43.321349-18.6199158 43.321349-42.4775701 0-23.7157101-18.985816-42.3403574-43.321349-42.3403574z"/><filter id="c" height="200%" width="200%" x="-50%" y="-50%"><feMorphology in="SourceAlpha" operator="erode" radius="1" result="shadowSpreadInner1"/><feGaussianBlur in="shadowSpreadInner1" result="shadowBlurInner1" stdDeviation="4"/><feOffset dx="3" dy="3" in="shadowBlurInner1" result="shadowOffsetInner1"/><feComposite in="shadowOffsetInner1" in2="SourceAlpha" k2="-1" k3="1" operator="arithmetic" result="shadowInnerInner1"/><feColorMatrix in="shadowInnerInner1" type="matrix" values="0 0 0 0 0   0 0 0 0 0   0 0 0 0 0  0 0 0 0.5 0"/></filter></defs><use fill="url(#a)" fill-rule="evenodd" xlink:href="#b"/><use filter="url(#c)" xlink:href="#b"/><path d="m23.7456761 1.8914302h-23.352964v81.4538516h23.231523c12.325482 0 21.2395736-2.9208948 29.059118-9.3982788 9.2784148-7.6949491 14.7811156-19.2980933 14.7811156-31.2892182 0-24.0484902-17.9653956-40.7663546-43.7187926-40.7663546zm18.5726011 61.1763437c-5.021668 4.5311721-11.4864346 6.488424-21.7600355 6.488424h-4.2677869v-53.8725296h4.2677869c10.2736009 0 16.4907538 1.8342336 21.7600355 6.5925164 5.494815 4.8860325 8.7721473 12.4516547 8.7721473 20.2648905 0 7.8290075-3.2773323 15.6595921-8.7721473 20.5266987zm32.4799717 20.2775079h15.8709311v-81.4538516h-15.8709311zm54.7273491-50.2087938c-9.538646-3.5344089-12.345986-5.865447-12.345986-10.2467892 0-5.1336461 4.998011-9.0386869 11.849181-9.0386869 4.763014 0 8.671209 1.9525203 12.836481 6.5798991l8.294269-10.85241748c-6.838553-5.99792815-15.020844-9.04657267-23.945975-9.04657267-14.397867 0-25.398537 10.01967855-25.398537 23.31984375 0 11.2467067 5.12576 16.9812496 20.031472 22.368818 6.232924 2.1875168 9.401432 3.646387 10.992784 4.6431502 3.174817 2.0771158 4.769323 4.9980106 4.769323 8.4157099 0 6.6051336-5.256665 11.4832803-12.350716 11.4832803-7.573509 0-13.673952-3.7820225-17.340842-10.8650347l-10.2467895 9.904546c7.3132775 10.7325537 16.1090815 15.5113394 28.2137625 15.5113394 16.487599 0 28.084434-11.0069789 28.084434-26.7580461 0-12.9484591-5.360756-18.8154831-23.442861-25.4190396zm28.448758 9.5212968c0 23.964901 18.815484 42.5248849 43.005918 42.5248849 6.838553 0 12.700845-1.3516236 19.914761-4.7582827v-18.6971966c-6.360674 6.3575199-11.980085 8.9156687-19.189269 8.9156687-15.997103 0-27.363674-11.6062986-27.363674-28.1017839 0-15.6264717 11.72143-27.9645711 26.638182-27.9645711 7.560891 0 13.311204 2.6858984 19.914761 9.1585509v-18.69561939c-6.961571-3.53125457-12.711885-4.98539334-19.552015-4.98539334-24.067416 0-43.368664 18.93534723-43.368664 42.60374253zm191.65139 13.9483768-21.742687-54.7147314h-17.345573l34.579168 83.5341217h8.54346l35.183218-83.5341217h-17.217823zm46.439389 26.7391202h45.065684v-13.7890839h-29.188445v-22.0013404h28.071818v-13.7922382h-28.071818v-18.078951h29.188445v-13.7922381h-45.065684zm107.95482-57.4148243c0-15.2589942-10.489671-24.0390273-28.822545-24.0390273h-23.57692v81.4538516h15.894589v-32.7370484h2.08027l21.974529 32.7370484h19.544129l-25.666653-34.3110511c11.98797-2.450902 18.572601-10.637924 18.572601-23.1037732zm-31.882229 13.4515723h-4.622647v-24.6825074h4.876569c9.915586 0 15.287384 4.1652716 15.287384 12.0920629 0 8.1775591-5.371798 12.5904445-15.541306 12.5904445z" fill="#0b1015"/></svg>