<svg height="236" preserveAspectRatio="xMidYMid" viewBox="0 0 256 236" width="256" xmlns="http://www.w3.org/2000/svg"><path d="m118.355277.3593253h-73.8302971c-2.6736064 0-5.1441606 1.42599197-6.4807068 3.74181526l-36.91540563 63.93882734c-1.33654619 2.3153092-1.33654619 5.1683213 0 7.4836305l36.91540563 63.9388276c1.3365462 2.315309 3.8071004 3.741815 6.4807068 3.741815h73.8302971c2.673607 0 5.144161-1.426506 6.481221-3.741815l36.914892-63.9388276c1.33706-2.3153092 1.33706-5.1683213 0-7.4836305l-36.914892-63.93882734c-1.33706-2.31582329-3.807614-3.74181526-6.481221-3.74181526" fill="#3b97d3"/><path d="m221.839422 92.6241928h-56.594506c-2.049543 0-3.943326 1.0933976-4.968354 2.8679196l-28.297253 49.0126906c-1.024514 1.775036-1.024514 3.961832 0 5.736868l28.297253 49.012176c1.025028 1.775037 2.918811 2.868434 4.968354 2.868434h56.594506c2.049542 0 3.943325-1.093397 4.968353-2.868434l28.297253-49.012176c1.024514-1.775036 1.024514-3.961832 0-5.736868l-28.297253-49.0126906c-1.025028-1.774522-2.918811-2.8679196-4.968353-2.8679196" fill="#4eba6f"/><path d="m120.289157 151.740659h-43.1776389c-1.563245 0-3.0082571.834313-3.7901366 2.188337l-21.5883052 37.39245c-.7818795 1.354024-.7818795 3.02265 0 4.376674l21.5883052 37.39245c.7818795 1.354024 2.2268916 2.188338 3.7901366 2.188338h43.1776389c1.563245 0 3.008257-.834314 3.790136-2.188338l21.588305-37.39245c.78188-1.354024.78188-3.02265 0-4.376674l-21.588305-37.39245c-.781879-1.354024-2.226891-2.188337-3.790136-2.188337" fill="#f0c419"/></svg>