<svg height="227" preserveAspectRatio="xMidYMid" viewBox="0 0 256 227" width="256" xmlns="http://www.w3.org/2000/svg" xmlns:xlink="http://www.w3.org/1999/xlink"><linearGradient id="a" x1="0%" x2="100%" y1="50%" y2="50%"><stop offset=".0054" stop-color="#f5ea14"/><stop offset="1" stop-color="#f05b26"/></linearGradient><linearGradient id="b" x1="0%" x2="100%" y1="50%" y2="50%"><stop offset=".22" stop-color="#ff0"/><stop offset="1" stop-color="#ff8e00"/></linearGradient><linearGradient id="c"><stop offset="0" stop-color="#ff0"/><stop offset="1" stop-color="#ff8e00"/></linearGradient><linearGradient id="d" x1="0%" x2="99.999322%" xlink:href="#c" y1="50%" y2="50%"/><linearGradient id="e" x1="0%" x2="100%" xlink:href="#c" y1="50%" y2="50%"/><path d="m83.6266667 0-83.6266667 114.346667 83.6266667 112.64h44.3733333 42.666667l85.333333-112.64-85.333333-114.346667h-42.666667zm73.3866663 114.346667-29.013333 39.253333-29.0133333-39.253333 29.0133333-39.2533337z" fill="url(#a)"/><path d="m128 0 27.306667 39.2533333-56.3200003 75.0933337 56.3200003 77.07648-28.16 35.56352-82.7733337-112.64z" fill="url(#b)"/><path d="m145.066667 191.146667h-44.373334l56.32-76.8h44.38016z" fill="url(#d)"/><g fill="url(#e)"><path d="m100.693333 191.146667-56.3199997-76.8h-44.3733333l83.6266667 112.64h44.3733333 42.666667l-25.6-35.84z" opacity=".7"/><path d="m201.386667 114.346667-56.32-76.8000003h-44.373334l56.32 76.8000003z" opacity=".3"/><path d="m83.6266667 0-83.6266667 114.346667h44.3733333l56.3199997-76.8000003h44.373334l25.6-37.5466667h-42.666667z"/><path d="m170.666667 0 85.333333 114.346667-85.333333 112.64-25.6-35.84 56.326826-76.8-56.326826-76.8000003z"/></g></svg>