<svg height="286" preserveAspectRatio="xMidYMid" viewBox="0 0 256 286" width="256" xmlns="http://www.w3.org/2000/svg" xmlns:xlink="http://www.w3.org/1999/xlink"><linearGradient id="a" x1="77.040894%" x2="22.841062%" y1="13.183658%" y2="87.539385%"><stop offset="0" stop-color="#7236dc"/><stop offset="1" stop-color="#3f37ae"/></linearGradient><path d="m240.48144 60.1304836-96.956631-55.97096779c-9.606926-5.54502108-21.438526-5.54502108-31.045452 0l-96.9566308 55.97096779c-9.60276005 5.5491871-15.5227262 15.7976859-15.5227262 26.887728v111.9544334c0 11.090043 5.91996615 21.338541 15.5227262 26.883562l96.9566308 55.983466c9.606926 5.545021 21.438526 5.545021 31.045452 0l96.956631-55.983466c9.60276-5.545021 15.51856-15.793519 15.51856-26.883562v-111.9544334c0-11.0900421-5.9158-21.3385409-15.51856-26.887728zm-9.315302 135.9175904c0 3.328679-1.77474 6.403228-4.657651 8.069651l-22.684177 13.098081c-2.882911 1.662257-6.432391 1.662257-9.315303 0l-22.688343-13.098081c-2.878745-1.662256-4.653485-4.740972-4.653485-8.069651v-26.196163c0-3.328679 1.77474-6.399063 4.653485-8.065485l22.688343-13.098081c2.882912-1.662257 6.432392-1.662257 9.315303 0l22.684177 13.098081c2.882911 1.662256 4.657651 4.736806 4.657651 8.065485z" fill="url(#a)"/></svg>