<svg height="215" viewBox="0 0 256 215" width="256" xmlns="http://www.w3.org/2000/svg"><g fill="none" fill-rule="evenodd"><path d="m38.6169038 173.984134v-16.362578c0-2.148686 1.3442677-3.876953 3.5695397-3.876953h.6169707c2.2247364 0 3.5625774 1.729338 3.5625774 3.876953v34.447532c0 8.400335-4.1506276 15.083648-11.3818242 19.341925-3.3531716 1.97302-7.0582092 2.985238-10.9453389 2.985238h-1.5365356c-8.4019414 0-15.07775734-4.153305-19.34246026-11.380753-1.97891214-3.355314-2.98416737-7.054996-2.98416737-10.94641v-1.535465c0-8.403012 4.15276988-15.082577 11.37861093-19.348351 3.3558493-1.981054 7.0555313-2.985239 10.9480167-2.985239h1.5365356c5.686092 0 10.5104602 2.20385 14.5780753 5.784101zm-30.69322179 17.315883c0 6.06795 2.94132219 10.629891 8.25841009 13.539079 2.1497573 1.176636 4.4842845 1.808603 6.9371715 1.808603 5.9560167 0 10.3733556-2.809573 13.4207197-7.856737 1.4171046-2.348452 2.0769205-4.916485 2.0769205-7.647866 0-5.260318-2.4903766-9.364887-6.7288369-12.413858-2.5701757-1.848234-5.463297-2.775297-8.6183096-2.775297-6.4915816 0-11.1633138 3.279264-13.96753136 9.105674-.94634309 1.969808-1.37854393 4.061724-1.37854393 6.240402zm65.32445189-23.099984h1.0738075c8.9782092 0 15.80559 4.355214 20.132954 12.192134 1.73041 3.135197 2.6558661 6.556385 2.6558661 10.141456v1.535465c0 8.399799-4.1420586 15.093289-11.3850377 19.342996-3.3531715 1.966594-7.057138 2.984167-10.9431966 2.984167h-1.5343933c-8.4019414 0-15.0788285-4.153305-19.3424603-11.380753-1.9789121-3.355314-2.9863096-7.054996-2.9863096-10.94641v-1.535465c0-8.404083 4.1683013-15.06169 11.3764686-19.346209 3.3515649-1.991765 7.0576737-2.987381 10.9523013-2.987381zm-14.5807531 23.099984c0 5.890142 2.890979 10.222862 7.865841 13.269155 2.3361338 1.431029 4.9084518 2.078527 7.6382259 2.078527 5.8199833 0 10.1216402-2.950963 13.1159833-7.863163 1.4278159-2.342026 2.0737071-4.914344 2.0737071-7.64144 0-5.476686-2.6381925-9.661054-7.1476486-12.693422-2.4716318-1.662929-5.2228284-2.495733-8.1989623-2.495733-6.4915816 0-11.1633138 3.279264-13.9664603 9.105674-.9484853 1.969808-1.3806861 4.061724-1.3806861 6.240402zm70.6570712-14.726963c-1.169674-.547882-3.360134-.729975-4.624603-.778175-6.473908-.243682-11.157958 3.401908-13.905941 9.113171-.948485 1.969808-1.381757 4.055297-1.381757 6.235046 0 6.637255 3.484385 11.283816 9.408803 14.116419 2.164218 1.034175 4.958259 1.231263 7.323314 1.231263 2.080669 0 5.019849-1.27518 6.865941-2.151899l.320268-.151565h1.4321l.157992.032134c1.762544.366326 3.092887 1.483514 3.092887 3.379949v.766929c0 4.717256-8.622059 5.798025-11.912033 6.027247-11.609975.803883-20.293088-5.572552-23.603415-16.646962-.575196-1.922142-.833874-3.832502-.833874-5.836586v-1.533322c0-8.403013 4.169372-15.058477 11.376469-19.340318 3.351564-1.990159 7.057673-2.989523 10.95123-2.989523h1.535464c4.129741 0 7.933858 1.172887 11.343799 3.502059l.280636.193874.176737.291883c.367933.610544.684987 1.315883.684987 2.042644v.766929c0 1.977841-1.479766 3.041473-3.26641 3.385841l-.147816.026243h-.457908c-1.15682 0-3.784837-1.197523-4.81687-1.683281zm25.133523 5.246929c3.009339-3.013623 6.03046-6.021891 9.084787-8.986242.851548-.826377 4.074577-4.326293 5.34333-4.326293h1.388184l.157992.032134c1.767364.367397 3.091816 1.486728 3.091816 3.386376v.766393c0 1.296067-1.517791 2.80154-2.354879 3.688436-1.780218 1.886795-3.654695 3.712535-5.476686 5.560769l-9.361138 9.503063c4.030661 4.039766 8.057573 8.083816 12.055565 12.154645 1.105941 1.125757 2.212418 2.253121 3.301221 3.395481.385071.404887.953306.908853 1.276251 1.470661.346511.525389.559666 1.118259.559666 1.751297v.801205l-.044988.184234c-.435414 1.767364-1.557422 3.194109-3.516519 3.194109h-.616435c-1.282142 0-2.729774-1.450845-3.608636-2.278828-1.808602-1.70631-3.556686-3.500452-5.330477-5.24318l-5.949054-5.839799v9.333824c0 2.149757-1.345875 3.877489-3.569004 3.877489h-.610544c-2.225272 0-3.569004-1.727732-3.569004-3.877489v-52.596218c0-2.150828 1.344803-3.870527 3.569004-3.870527h.610544c2.223129 0 3.569004 1.719699 3.569004 3.870527zm96.577339-13.312535h.769071c2.324351 0 3.875347 1.565991 3.875347 3.876418 0 3.208034-3.066644 4.029055-5.720368 4.029055-3.4801 0-6.802209 2.106912-9.201004 4.469824-2.991665 2.94882-4.301122 6.726159-4.301122 10.877858v18.75923c0 2.150828-1.342125 3.876418-3.570075 3.876418h-.611079c-2.226879 0-3.569005-1.72559-3.569005-3.876418v-19.835716c0-7.617339 3.708252-13.834711 9.889206-18.195816 3.692184-2.605523 7.919397-3.980853 12.439029-3.980853zm-55.074812 37.175698c2.819749.984369 6.03528.844051 8.928402.340084 1.47923-.628753 5.264067-2.279364 6.656-2.037824l.217439.036418.199766.098544c.849406.41185 1.661322.994544 2.094594 1.858946 1.01436 2.028184.526996 4.065473-1.46477 5.216401l-.663029.382929c-7.350628 4.242745-15.168268 3.654695-22.494795-.307949-3.50313-1.893222-6.183096-4.704938-8.159866-8.131482l-.462728-.801205c-4.718327-8.171648-4.08154-16.768 1.239832-24.539046 1.837523-2.685857 4.238461-4.761171 7.045891-6.383933l1.062026-.612686c6.922175-3.995849 14.34082-3.722711 21.450443-.215297 3.822326 1.885724 6.919498 4.697439 9.053724 8.393908l.383464.665707c1.550461 2.685858-.457908 5.026812-2.531079 6.626544-2.405757 1.856268-4.83508 4.089573-7.141222 6.080268-5.141422 4.438226-10.275347 8.887163-15.414092 13.329673zm-6.654929-4.673874c5.750896-4.930946 11.502862-9.865105 17.237155-14.815866 1.959632-1.690243 4.108854-3.444218 6.05349-5.221757-1.560636-1.965523-4.166159-3.382628-6.38072-4.227749-4.468753-1.703097-8.876452-1.131113-12.97513 1.235012-5.365824 3.097707-7.650544 8.031331-7.449707 14.170511.078728 2.417539.729439 4.747246 2.012653 6.804351.452017.725155.957054 1.405858 1.502259 2.055498z" fill="#364548"/><path d="m147.487598 45.7324184h22.865942v23.374728h11.561774c5.339046 0 10.830728-.9511631 15.886996-2.6644351 2.484485-.8424435 5.273171-2.014795 7.723916-3.489205-3.227849-4.2143599-4.875782-9.5357322-5.361004-14.7810544-.658745-7.1342594.780318-16.4204184 5.60897-22.0042176l2.403616-2.7801171 2.8642 2.3023933c7.211381 5.7937405 13.276118 13.8893389 14.345105 23.1181924 8.683113-2.5541088 18.87759-1.9499916 26.531347 2.4673473l3.140017 1.8118159-1.652753 3.2257071c-6.472837 12.6329038-20.004954 16.5462762-33.235013 15.8537908-19.797155 49.308385-62.897807 72.652586-115.157155 72.652586-26.9988949 0-51.7698405-10.09272-65.8755476-34.046929l-.231364-.390962-2.0549624-4.181155c-4.7681339-10.5442011-6.3517992-22.0952638-5.2774561-33.6366864l.3224101-3.4570712h19.5529372v-23.374728h22.8654059v-22.866477h45.7329539v-22.8659414h27.439665z" fill="#364548"/><path d="m221.570142 54.3796485c1.533322-11.9152468-7.383832-21.2747782-12.914075-25.7183598-6.372686 7.3677657-7.362946 26.6775565 2.634979 34.807431-5.579515 4.9561171-17.337305 9.4484351-29.375732 9.4484351h-146.5450044c-1.1707447 12.5670293 1.0357825 24.1395147 6.0743766 34.0453222l1.6672134 3.048971c1.0555983 1.791464 2.2086694 3.520267 3.4549289 5.184803h.0005355c6.0245691.386678 11.5794477.520569 16.6614226.4081h.0021423c9.9872134-.221188 18.1358326-1.39943 24.3119665-3.539548.9195649-.319732 1.9216067.168168 2.2397322 1.086661.31759.918494-.1687029 1.921072-1.0871966 2.239733-.821021.284385-1.6773892.55056-2.5616067.803347-.0010712.000535-.0021423.000535-.0032134.001071-4.8629289 1.388184-10.0771883 2.322745-16.8054896 2.737808.3989959.006426-.4161339.059983-.4182761.060518-.2286862.013925-.5168201.046595-.7465774.059448-2.6478327.148352-5.5061423.179414-8.4281841.179414-3.1957155 0-6.3432301-.060518-9.8618912-.238862l-.0899749.059448c12.2103431 13.723849 31.302159 21.954946 55.2333384 21.954946 50.648369 0 93.608703-22.45195 112.631967-72.8577074 13.49677 1.3849707 26.467615-2.056569 32.367933-13.5744268-9.398628-5.4236652-21.484184-3.6943263-28.443314-.1965523" fill="#22a0c8"/><path d="m221.570142 54.3796485c1.533322-11.9152468-7.383832-21.2747782-12.914075-25.7183598-6.372686 7.3677657-7.362946 26.6775565 2.634979 34.807431-5.579515 4.9561171-17.337305 9.4484351-29.375732 9.4484351h-137.8672471c-.5982259 19.2460586 6.544067 33.8551962 19.1807197 42.6871962h.0021423c9.9872134-.221188 18.1358326-1.39943 24.3119665-3.539548.9195649-.319732 1.9216067.168168 2.2397322 1.086661.31759.918494-.1687029 1.921072-1.0871966 2.239733-.821021.284385-1.6773892.55056-2.5616067.803347-.0010712.000535-.0021423.000535-.0032134.001071-4.8629289 1.388184-10.5254561 2.442711-17.2537573 2.857774-.0016067 0-.1628118-.155849-.164954-.155314 17.2366192 8.84164 42.2303594 8.810042 70.8852214-2.197422 32.130678-12.343163 62.028586-35.8598162 82.890444-62.7569543-.314912.1419247-.621255.2875984-.917423.4359498" fill="#37b1d9"/><path d="m35.6445188 88.1861088c.9109958 6.7315146 2.8797322 13.0345772 5.8001674 18.7763682l1.6672134 3.048971c1.0555983 1.791464 2.2086694 3.520267 3.4554644 5.184803 6.0256402.386678 11.5810544.520569 16.6635649.4081 9.9872134-.221188 18.1358326-1.39943 24.3119665-3.539548.9195649-.319732 1.9216067.168168 2.2397322 1.086661.31759.918494-.1687029 1.921072-1.0871966 2.239733-.821021.284385-1.6773892.55056-2.5616067.803347-.0010712.000535-.0021423.000535-.0032134.001071-4.8629289 1.388184-10.4954645 2.382728-17.2237657 2.798326-.2308285.013925-.6335732.016603-.8665439.029456-2.6467616.148888-5.4756151.239398-8.3981925.239398-3.1951799 0-6.4626611-.061054-9.9807866-.239398 12.2098075 13.72385 31.4210544 21.984938 55.3522338 21.984938 43.359867 0 81.083984-16.457908 102.978946-52.8222262z" fill="#1b81a5"/><path d="m45.3671632 88.1861088c2.5921339 11.8193812 8.8212887 21.0985772 17.8637657 27.4182422 9.9872134-.221188 18.1358326-1.39943 24.3119665-3.539548.9195649-.319732 1.9216067.168168 2.2397322 1.086661.31759.918494-.1687029 1.921072-1.0871966 2.239733-.821021.284385-1.6773892.55056-2.5616067.803347-.0010712.000535-.0021423.000535-.0032134.001071-4.8629289 1.388184-10.6148954 2.382728-17.3431967 2.798326 17.2355481 8.840034 42.1569878 8.713105 70.8097068-2.293288 17.334092-6.659749 34.016938-16.574126 48.984369-28.5145442z" fill="#1d91b4"/><path d="m55.2606527 49.5429623h19.8169707v19.8180419h-19.8169707zm1.6506109 1.6516821h1.5638494v16.5157489h-1.5638494zm2.940251 0h1.6265105v16.5157489h-1.6265105zm3.001841 0h1.6265105v16.5157489h-1.6265105zm3.0034477 0h1.6265105v16.5157489h-1.6265105zm3.0029122 0h1.6265104v16.5157489h-1.6265104zm3.0023766 0h1.5649205v16.5157489h-1.5649205z" fill="#23a3c2"/><path d="m78.125523 26.6770209h19.819113v19.8169707h-19.819113zm1.6527532 1.651682h1.5627782v16.5141423h-1.5627782zm2.940251 0h1.6254393v16.5141423h-1.6254393zm3.0013054 0h1.6265105v16.5141423h-1.6265105zm3.0029122 0h1.6265104v16.5141423h-1.6265104zm3.0034477 0h1.6265104v16.5141423h-1.6265104zm3.001841 0h1.5659916v16.5141423h-1.5659916z" fill="#23a3c2"/><path d="m78.125523 49.5429623h19.819113v19.8180419h-19.819113zm1.6527532 1.6516821h1.5627782v16.5157489h-1.5627782zm2.940251 0h1.6254393v16.5157489h-1.6254393zm3.0013054 0h1.6265105v16.5157489h-1.6265105zm3.0029122 0h1.6265104v16.5157489h-1.6265104zm3.0034477 0h1.6265104v16.5157489h-1.6265104zm3.001841 0h1.5659916v16.5157489h-1.5659916z" fill="#34bbde"/><path d="m100.992536 49.5429623h19.818041v19.8180419h-19.818041zm1.651682 1.6516821h1.562778v16.5157489h-1.562778zm2.939715 0h1.626511v16.5157489h-1.626511zm3.002912 0h1.626511v16.5157489h-1.626511zm3.002912 0h1.626511v16.5157489h-1.626511zm3.002377 0h1.627581v16.5157489h-1.627581zm3.002912 0h1.563849v16.5157489h-1.563849z" fill="#23a3c2"/><path d="m100.992536 26.6770209h19.818041v19.8169707h-19.818041zm1.651682 1.651682h1.562778v16.5141423h-1.562778zm2.939715 0h1.626511v16.5141423h-1.626511zm3.002912 0h1.626511v16.5141423h-1.626511zm3.002912 0h1.626511v16.5141423h-1.626511zm3.002377 0h1.627581v16.5141423h-1.627581zm3.002912 0h1.563849v16.5141423h-1.563849z" fill="#34bbde"/><path d="m123.859013 49.5429623h19.817506v19.8180419h-19.817506zm1.651682 1.6516821h1.563313v16.5157489h-1.563313zm2.940251 0h1.62651v16.5157489h-1.62651zm3.001841 0h1.62651v16.5157489h-1.62651zm3.003447 0h1.626511v16.5157489h-1.626511zm3.002912 0h1.626511v16.5157489h-1.626511zm3.002377 0h1.564385v16.5157489h-1.564385z" fill="#34bbde"/><path d="m123.859013 26.6770209h19.817506v19.8169707h-19.817506zm1.651682 1.651682h1.563313v16.5141423h-1.563313zm2.940251 0h1.62651v16.5141423h-1.62651zm3.001841 0h1.62651v16.5141423h-1.62651zm3.003447 0h1.626511v16.5141423h-1.626511zm3.002912 0h1.626511v16.5141423h-1.626511zm3.002377 0h1.564385v16.5141423h-1.564385z" fill="#23a3c2"/><path d="m123.859013 3.81054393h19.817506v19.81804187h-19.817506zm1.651682 1.65061088h1.563313v16.51574899h-1.563313zm2.940251 0h1.62651v16.51574899h-1.62651zm3.001841 0h1.62651v16.51574899h-1.62651zm3.003447 0h1.626511v16.51574899h-1.626511zm3.002912 0h1.626511v16.51574899h-1.626511zm3.002377 0h1.564385v16.51574899h-1.564385z" fill="#34bbde"/><path d="m146.724954 49.5429623h19.818042v19.8180419h-19.818042zm1.650611 1.6516821h1.56492v16.5157489h-1.56492zm2.940251 0h1.62651v16.5157489h-1.62651zm3.003448 0h1.62651v16.5157489h-1.62651zm3.001841 0h1.62651v16.5157489h-1.62651zm3.003983 0h1.625975v16.5157489h-1.625975zm3.002376 0h1.56385v16.5157489h-1.56385z" fill="#23a3c2"/><path d="m96.7037322 101.491682c3.0189791 0 5.4665108 2.448603 5.4665108 5.467582s-2.4475317 5.46651-5.4665108 5.46651c-3.0195146 0-5.4675816-2.447531-5.4675816-5.46651s2.448067-5.467582 5.4675816-5.467582" fill="#d3ecec"/><path d="m96.7037322 103.042678c.5002176 0 .9774059.094259 1.4176402.265104-.4771883.275816-.8001339.792636-.8001339 1.3839 0 .882611.7155146 1.597054 1.5981255 1.597054.6046527 0 1.130042-.335799 1.401573-.831732.191732.462193.29831.969908.29831 1.50226 0 2.162075-1.7529039 3.914979-3.9155148 3.914979-2.1620753 0-3.9160502-1.752904-3.9160502-3.914979 0-2.163147 1.7539749-3.916586 3.9160502-3.916586" fill="#364548"/><path d="m0 90.1623431h254.327431c-5.537741-1.4047866-17.521004-3.3022929-15.54477-10.5597322-10.069155 11.6517489-34.352736 8.1743263-40.481205 2.4287866-6.824703 9.8983096-46.55451 6.1359665-49.325523-1.5750962-8.555648 10.0407698-35.06718 10.0407698-43.623364 0-2.772084 7.7110627-42.5013556 11.4734058-49.3265941 1.5750962-6.1284686 5.7455397-30.409908 9.2229623-40.4801339-2.4287866 1.9762343 7.2574393-10.00702928 9.1549456-15.545841 10.5597322" fill="#364548"/><path d="m111.237356 140.889975c-13.5396154-6.425172-20.9716489-15.159163-25.1067451-24.69436-5.028954 1.435849-11.0749456 2.353272-18.0994142 2.747448-2.646226.148351-5.4295565.224401-8.3510628.224401-3.3676318 0-6.9162845-.099615-10.6416736-.297238 12.4165355 12.409038 27.6919163 21.963515 55.9750957 22.138109 2.088168 0 4.161339-.040703 6.2238-.11836" fill="#bdd9d7"/><path d="m91.1601004 124.993874c-1.8734058-2.542861-3.6905774-5.738577-5.0262761-8.79933-5.0300251 1.436385-11.0770879 2.354343-18.1026276 2.748519 4.8254393 2.619447 11.7272636 5.046627 23.1289037 6.050811" fill="#d3ecec"/></g></svg>