<svg height="339" preserveAspectRatio="xMidYMid" viewBox="0 0 256 339" width="256" xmlns="http://www.w3.org/2000/svg"><path d="m208.493 111.5005c-.294-.318-.562-.652-.872-.961l-101.076-100.634c-12.092-12.038-31.655-11.998-43.695.095s-11.997 31.655.095 43.694l33.403 33.257c-55.382 14.089-96.348 64.281-96.348 124.048 0 70.693 57.308 128 128 128s128-57.307 128-128c0-40.188-18.535-76.032-47.507-99.499" fill="#fe8439"/><path d="m203.6328 195.181-73.048-72.165c-9.711-9.594-25.359-9.495-34.955.212-9.594 9.712-9.499 25.362.213 34.956l30.23 29.864h-63.838c-13.652 0-24.718 11.066-24.718 24.717 0 13.652 11.066 24.718 24.718 24.718h64.493l-30.716 30.907c-9.622 9.682-9.572 25.332.109 34.957 4.822 4.791 11.124 7.184 17.424 7.184 6.35 0 12.702-2.433 17.533-7.293l70.731-71.173c.13-.13.239-.274.365-.407 2.987-2.514 5.406-5.737 6.952-9.503 3.809-9.274 1.638-19.927-5.493-26.974" fill="#fff"/></svg>