<svg height="169" preserveAspectRatio="xMidYMid" viewBox="0 0 256 169" width="256" xmlns="http://www.w3.org/2000/svg"><path d="m84.3130605 109.963033c-9.3932777 0-17.0179955 7.624718-17.0179955 17.010187 0 9.401086 7.6247178 17.017996 17.0179955 17.017996 9.3971817 0 17.0179955-7.61691 17.0179955-17.017996 0-9.385469-7.6208138-17.010187-17.0179955-17.010187m86.9249065-51.8582322c9.397182 0 17.010188-7.6169096 17.010188-17.0101872 0-9.40499-7.61691-17.0140914-17.010188-17.0140914-9.393277 0-17.014091 7.6130055-17.014091 17.0140914-.003904 9.3971817 7.61691 17.0101872 17.014091 17.0101872m.039041 51.8582322c-9.397181 0-17.010187 7.624718-17.010187 17.010187 0 9.401086 7.613006 17.017996 17.010187 17.017996 9.397182 0 17.010188-7.61691 17.010188-17.017996 0-9.385469-7.613006-17.010187-17.010188-17.010187m-87.0068927-51.8582322c9.3971817 0 17.0101877-7.6169096 17.0101877-17.0101872 0-9.40499-7.613006-17.0140914-17.0101877-17.0140914s-17.0101873 7.6130055-17.0101873 17.0140914c0 9.3971817 7.6130056 17.0101872 17.0101873 17.0101872m130.4712987 8.9833466c-9.393278 0-17.010187 7.6169096-17.010187 17.0101873 0 9.4010858 7.620814 17.0179953 17.010187 17.0179953 9.397182 0 17.014091-7.6169095 17.014091-17.0179953.003905-9.3932777-7.613005-17.0101873-17.014091-17.0101873m-86.924907-.1405478c-9.397182 0-17.014091 7.6169096-17.014091 17.0062832 0 9.4010858 7.616909 17.0179952 17.014091 17.0179952 9.393278 0 17.010187-7.6169094 17.010187-17.0179952.003904-9.3893736-7.613005-17.0062832-17.010187-17.0062832m87.385591-23.9321662c-1.093149 0-2.170682.0546575-3.232599.1366437.046849-.7808211.074178-1.5577381.074178-2.3463673 0-22.5344965-18.267309-40.8057098-40.801805-40.8057098-15.124505 0-28.308669 8.23375831-35.359483 20.4536082h-16.553407c-7.050814-12.21594578-20.2349785-20.4536082-35.3633869-20.4536082-22.5266882 0-40.8018057 18.2712133-40.8018057 40.8057098 0 .815958.0312329 1.631916.0819862 2.4400658-.8120539-.0468492-1.6241078-.0819862-2.44397-.0819862-22.5344964.0039041-40.8018056 18.2751175-40.8018056 40.8057098 0 22.5305928 18.2673092 40.8018058 40.8057098 40.8018058.9330811 0 1.85445-.039041 2.779723-.097603-.0663698.913561-.1015067 1.846642-.1015067 2.775819 0 22.538401 18.2673092 40.809614 40.7979015 40.809614 15.4095041 0 28.8122984-8.542183 35.7577014-21.144635h15.768682c6.941499 12.606356 20.352101 21.144635 35.749893 21.144635 22.534497 0 40.809614-18.271213 40.809614-40.809614 0-.991643-.054658-1.975477-.124931-2.943695.97993.070274 1.95986.113219 2.959311.113219 22.530593 0 40.797902-18.271214 40.797902-40.8096141 0-22.5305924-18.267309-40.7939975-40.797902-40.7939975m-131.0569141-28.7381199c12.8054658 0 23.4949061 9.038004 26.0403831 21.0899774h34.875374c2.545476-12.0519734 13.234917-21.0899774 26.036479-21.0899774 14.710669 0 26.625999 11.9114256 26.625999 26.6181907s-11.919234 26.6259989-26.625999 26.6259989c-12.703959 0-23.330934-8.9052645-25.977918-20.8166901h-35.000305c-2.650887 11.9114256-13.2700541 20.8166901-25.9779172 20.8166901-14.702861 0-26.6259989-11.9192338-26.6259989-26.6259989s11.927042-26.6181907 26.629903-26.6181907m87.4285361 139.7357405c-12.813273 0-23.514426-9.065332-26.052095-21.136826h-35.164277c-2.537669 12.071494-13.2388218 21.136826-26.0559999 21.136826-14.7028609 0-26.6259989-11.927042-26.6259989-26.625999 0-14.698956 11.923138-26.625998 26.6259989-26.625998 12.6883426 0 23.3036049 8.889648 25.9701089 20.76984h35.336058c2.6626-11.880192 13.273959-20.76984 25.962301-20.76984 14.706765 0 26.625999 11.927042 26.625999 26.625998 0 14.698957-11.915329 26.625999-26.622095 26.625999m43.01153-43.003721c-12.821082 0-23.518331-9.073141-26.056-21.1368264h-34.527908c-2.709449 11.8333434-13.293479 20.6566214-25.94278 20.6566214-12.65711 0-23.237236-8.823278-25.946685-20.6566214h-35.3516745c-2.7094491 11.8333434-13.297383 20.6566214-25.9427804 20.6566214-14.7067651 0-26.6259989-11.9192335-26.6259989-26.6181904 0-14.7106692 11.9231379-26.6259989 26.6259989-26.6259989 12.8601232 0 23.5886049 9.1160861 26.0794241 21.2461416h35.0744828c2.490819-12.1300555 13.223205-21.2461416 26.083328-21.2461416 12.85622 0 23.592509 9.1160861 26.075521 21.2461416h34.47325c2.670408-11.8880009 13.277863-20.7737449 25.974014-20.7737449 14.702861 0 26.625998 11.9153298 26.625998 26.625999.007809 14.6911486-11.915329 26.6259986-26.61819 26.6259986m-173.7365951-44.0617334c-9.3932776 0-17.0062832 7.6169096-17.0062832 17.0062832 0 9.4010858 7.6169097 17.0179952 17.0062832 17.0179952 9.4010858 0 17.0101873-7.6169094 17.0101873-17.0179952.0039041-9.3893736-7.6051974-17.0062832-17.0101873-17.0062832"/></svg>