<svg height="244" preserveAspectRatio="xMidYMid" viewBox="0 0 256 244" width="256" xmlns="http://www.w3.org/2000/svg" xmlns:xlink="http://www.w3.org/1999/xlink"><linearGradient id="a" x1="49.997247%" x2="49.997247%" y1="-19.516046%" y2="129.625092%"><stop offset="0" stop-color="#0994dc"/><stop offset=".35000601" stop-color="#66cef5"/><stop offset=".84616101" stop-color="#127bca"/><stop offset="1" stop-color="#127bca"/></linearGradient><linearGradient id="b" x1="50.000762%" x2="50.000762%" y1="-19.516187%" y2="129.624154%"><stop offset="0" stop-color="#0e76bc"/><stop offset=".360001" stop-color="#36aee8"/><stop offset=".84616101" stop-color="#00adef"/><stop offset="1" stop-color="#00adef"/></linearGradient><linearGradient id="c" x1="49.999198%" x2="49.999198%" y1="110.921751%" y2="-6.213958%"><stop offset="0" stop-color="#1c63b7"/><stop offset=".5" stop-color="#33bdf2"/><stop offset="1" stop-color="#33bdf2" stop-opacity=".419608"/></linearGradient><linearGradient id="d" x1="50.00099%" x2="50.00099%" y1="-19.514999%" y2="129.627315%"><stop offset="0" stop-color="#166ab8"/><stop offset=".39999399" stop-color="#36aee8"/><stop offset=".84616101" stop-color="#0798dd"/><stop offset="1" stop-color="#0798dd"/></linearGradient><linearGradient id="e" x1="49.998542%" x2="49.998542%" y1="-19.521133%" y2="129.626892%"><stop offset="0" stop-color="#124379"/><stop offset=".389999" stop-color="#1487cb"/><stop offset=".78022802" stop-color="#165197"/><stop offset="1" stop-color="#165197"/></linearGradient><linearGradient id="f" x1=".000305%" x2="100.000291%" y1="50.000544%" y2="50.000544%"><stop offset="0" stop-color="#33bdf2" stop-opacity=".698039"/><stop offset="1" stop-color="#1dacd8"/></linearGradient><linearGradient id="g" x1="50.009571%" x2="50.009571%" y1="94.686408%" y2="-3.024584%"><stop offset="0" stop-color="#136ab4"/><stop offset=".60000002" stop-color="#59caf5" stop-opacity=".54902"/><stop offset="1" stop-color="#59caf5" stop-opacity=".235294"/></linearGradient><linearGradient id="h" x1="-.000761%" x2="99.999224%" y1="49.999714%" y2="49.999714%"><stop offset="0" stop-color="#05a1e6" stop-opacity=".247059"/><stop offset="1" stop-color="#05a1e6"/></linearGradient><linearGradient id="i" x1="49.998324%" x2="49.998324%" y1="124.313712%" y2="-9.421373%"><stop offset="0" stop-color="#318ed5"/><stop offset="1" stop-color="#38a7e4"/></linearGradient><linearGradient id="j" x1="49.99857%" x2="49.99857%" y1="91.199952%" y2="-76.785407%"><stop offset="0" stop-color="#05a1e6"/><stop offset="1" stop-color="#05a1e6" stop-opacity=".54902"/></linearGradient><linearGradient id="k" x1="50.000069%" x2="50.000069%" y1="100.01049%" y2=".01019%"><stop offset="0" stop-color="#1959a6"/><stop offset=".5" stop-color="#05a1e6"/><stop offset=".91758698" stop-color="#7ec5ea"/><stop offset="1" stop-color="#7ec5ea"/></linearGradient><linearGradient id="l" x1="59.804121%" x2="38.471058%" y1="94.567744%" y2="5.755137%"><stop offset="0" stop-color="#165096"/><stop offset="1" stop-color="#0d82ca"/></linearGradient><linearGradient id="m" x1="49.994684%" x2="49.994684%" y1="76.998096%" y2="-3.298936%"><stop offset="0" stop-color="#05a1e6"/><stop offset=".87362701" stop-color="#0495d6"/><stop offset="1" stop-color="#0495d6"/></linearGradient><linearGradient id="n" x1="65.263117%" x2="34.262698%" y1="-4.161438%" y2="105.843625%"><stop offset="0" stop-color="#38a7e4" stop-opacity=".329412"/><stop offset=".96153301" stop-color="#0e88d3"/><stop offset="1" stop-color="#0e88d3"/></linearGradient><linearGradient id="o" x1="50.016714%" x2="50.016714%" y1="-.295776%" y2="101.881944%"><stop offset="0" stop-color="#168cd4"/><stop offset=".5" stop-color="#1c87cc"/><stop offset="1" stop-color="#154b8d"/></linearGradient><linearGradient id="p" x1="16.673806%" x2="87.812599%" y1="205.564966%" y2="-19.836275%"><stop offset="0" stop-color="#97d6ee"/><stop offset=".70329303" stop-color="#55c1ea"/><stop offset="1" stop-color="#55c1ea"/></linearGradient><linearGradient id="q" x1="6.890159%" x2="75.782897%" y1="6.300383%" y2="116.770678%"><stop offset="0" stop-color="#7accec"/><stop offset="1" stop-color="#3fb7ed"/></linearGradient><linearGradient id="r" x1="49.996653%" x2="49.996653%" y1="6.362819%" y2="127.96135%"><stop offset="0" stop-color="#1da7e7"/><stop offset="1" stop-color="#37abe7" stop-opacity="0"/></linearGradient><g transform="translate(26.734177 116.658228)"><path d="m187.534955 11.347281c0-.4292861-.117792-.736162-.359939-.9367494-.268233-.2158987-.732193-.3310177-1.378026-.3310177h-.928486v2.5518988h1.120567c1.034775 0 1.545884-.4292861 1.545884-1.2841317zm1.447696 5.3207494h-1.275949l-.813691-1.7954836c-.413246-.8997265-.854927-1.3495898-1.337438-1.3495898h-.687069v3.1450734h-1.05122v-7.48435445h2.106329c.936669 0 1.639777.2028557 2.122694.6259038.408952.36382785.613428.83029875.613428 1.41107845 0 .5153215-.166886.9488203-.50317 1.3083545-.32721.3641519-.797651.6095392-1.398683.736486v.0324051c.417134.0981873.834268.5562329 1.239007 1.382319l.985762 1.9918582zm2.331058-3.6685772c0-1.4722431-.502845-2.7154633-1.504972-3.70122535-1.006015-.98543798-2.232952-1.48018228-3.680648-1.48018228-1.492901 0-2.735797.4947443-3.721559 1.48868861-.985762.99783292-1.476213 2.23254682-1.476213 3.69271902 0 1.4929012.511028 2.7400911 1.525306 3.7340354 1.002127.9936203 2.228983 1.4843949 3.672466 1.4843949 1.435301 0 2.662157-.4947443 3.672466-1.5010835 1.010309-.9897316 1.513154-2.2326278 1.513154-3.7173468zm.707403-.0324051c0 1.6525772-.568304 3.0387848-1.709205 4.1551392-1.141144 1.1247798-2.539828 1.6849013-4.212577 1.6849013-1.684659 0-3.083261-.5519392-4.19597-1.6358886-1.112061-1.0999089-1.664324-2.4822278-1.664324-4.1589468 0-1.6401013.564334-3.01820763 1.693083-4.15084561 1.12875-1.12874936 2.535535-1.69308354 4.216547-1.69308354 1.64796 0 3.030279.53978734 4.150846 1.61523038 1.149002 1.10420253 1.7216 2.49470377 1.7216 4.18349367z"/><path d="m32.0650208 33.8363139h-3.6273418v-20.7590076c0-1.6397772.1079899-3.63552402.301043-5.99112908h-.0818228c-.339605 1.37802531-.6504506 2.37593924-.9242734 2.99366078l-10.5430683 23.7564759h-1.7667241l-10.56369416-23.5847291c-.29772962-.6586329-.60919089-1.71795442-.92425721-3.16540758h-.07850127c.11123848 1.23900759.17340759 3.24714938.17340759 6.03204048v20.7180962h-3.49680607v-30.91337719h4.78487494l9.48403038 21.55633419c.7155281 1.6237367 1.1778187 2.8587747 1.4025802 3.7012253h.1505054c.617365-1.6891139 1.1081235-2.956962 1.4804415-3.7912304l9.6881985-21.46632909h4.5394633v30.91337719z"/><path d="m43.2232182 33.8353418h-3.5249417v-22.0758684h3.5249417zm.6095393-29.98942788c0 .65036962-.2290228 1.19412659-.6831798 1.64010127-.4455696.44556962-.9975088.6707038-1.6439899.6707038-.6297924 0-1.177843-.21597975-1.6273822-.64615696-.4498633-.43349874-.6710279-.98576203-.6710279-1.66464811 0-.63797468.2224608-1.18173164.6710279-1.62341265.4495392-.44168102.9975898-.65433924 1.6273822-.65433924.646157 0 1.1984203.21265822 1.6439899.65433924.454157.44168101.6831798.98543797.6831798 1.62341265z"/><path d="m65.2535575 32.8139342c-1.6930836 1.0387443-3.7133772 1.5540658-6.0487291 1.5540658-3.1650026 0-5.7130127-1.0508962-7.6596659-3.149043-1.8894582-2.0366583-2.8421671-4.6660861-2.8421671-7.8887697 0-3.6155139 1.0345317-6.5433924 3.1202026-8.768162 2.0736-2.2289823 4.8627848-3.3413671 8.3716861-3.3413671 1.9178936 0 3.6191594.3762228 5.107767 1.1205671v3.6276658c-1.6479595-1.1575088-3.3901367-1.7301063-5.2592607-1.7301063-2.2493165 0-4.0772051.7852557-5.4964658 2.3517165-1.4765368 1.6031595-2.2247697 3.7461063-2.2247697 6.4207392 0 2.5682633.6830988 4.6007089 2.0408709 6.1017114 1.3617418 1.4925772 3.1735899 2.2411342 5.4595241 2.2411342 1.9302886 0 3.737924-.6340861 5.4310076-1.8975595z"/><path d="m82.1152891 15.341043c-.6216101-.4782987-1.517043-.7116152-2.6990987-.7116152-1.4353013 0-2.6419038.6422684-3.6191595 1.9384709-1.1084962 1.4477772-1.6604355 3.4517064-1.6604355 6.0117874v11.2546835h-3.5334481v-22.0758683h3.5334481v4.5519392h.0850633c.5195342-1.6113418 1.3211545-2.8506734 2.3926279-3.7297418 1.0018025-.8015392 2.1347645-1.2066025 3.3819544-1.2066025.940638 0 1.6401013.1014279 2.1184.300962v3.6643646z"/><path d="m101.808737 22.8374684c0-2.8257216-.637974-4.985033-1.9139238-6.4655393-1.2390076-1.4231494-2.969114-2.1347645-5.1977722-2.1347645-2.1963342 0-3.9587645.7197974-5.2759494 2.1593113-1.3944708 1.5377013-2.0896405 3.7091646-2.0896405 6.5271089 0 2.6419038.6625216 4.7151798 1.9999595 6.1956051 1.3289317 1.4886076 3.1202026 2.2329519 5.3656304 2.2329519 2.322876 0 4.1017519-.7564152 5.320425-2.2613874 1.194208-1.472324 1.791271-3.5541063 1.791271-6.253286m3.623453-.1242735c0 3.5170836-.99362 6.3432102-2.973083 8.4616102-1.987484 2.1265822-4.6621166 3.1899544-8.0238179 3.1899544-3.3126076 0-5.9506228-1.0633722-7.8848-3.1899544-1.8936709-2.0490532-2.8463797-4.7564152-2.8463797-8.1220051 0-3.8403241 1.075362-6.8012557 3.2346734-8.9032911 1.9957468-1.9506228 4.6661671-2.9321722 8.0118278-2.9321722 3.2919494 0 5.8645064 1.0263494 7.7169414 3.059119 1.836395 2.0447595 2.764638 4.8584911 2.764638 8.4367392"/><path d="m122.955714 27.9292759c0 1.8076355-.674592 3.3044254-2.028395 4.498633-1.476212 1.2923139-3.504688 1.9384708-6.056587 1.9384708-2.089964 0-3.922147-.4374683-5.476213-1.3290126v-3.7994127c1.730107 1.4068659 3.639737 2.1145114 5.737884 2.1145114 2.797367 0 4.199939-1.030562 4.199939-3.0835848 0-.8631088-.307524-1.5786126-.928162-2.1308759-.621691-.5643342-1.828293-1.2390076-3.623453-2.028476-1.848547-.8097215-3.165408-1.6397772-3.9424-2.502805-.932456-1.0224608-1.402896-2.3513925-1.402896-3.9872811 0-1.8321822.732192-3.3577316 2.179888-4.5721924 1.451666-1.2187544 3.316578-1.8282126 5.606725-1.8282126 1.754653 0 3.325083.3434936 4.719473 1.0347747v3.5579949c-1.455879-1.0511392-3.120203-1.574643-5.009661-1.574643-1.16958 0-2.110218.2911595-2.809681.8588151-.707402.5806988-1.063372 1.3211545-1.063372 2.2247697 0 .9775797.297722 1.7382886.887656 2.2820455.523423.5031697 1.635807 1.1165975 3.312607 1.8321013 1.885165.7894684 3.24715 1.6074532 4.077205 2.4456101 1.075686 1.0594026 1.619443 2.4089924 1.619443 4.0487696"/><path d="m144.550368 22.8374684c0-2.8257216-.637975-4.985033-1.917894-6.4655393-1.235038-1.4231494-2.969114-2.1347645-5.193803-2.1347645-2.196334 0-3.958845.7197974-5.283888 2.1593113-1.39042 1.5377013-2.081782 3.7091646-2.081782 6.5271089 0 2.6419038.662521 4.7151798 1.987564 6.1956051 1.345701 1.4886076 3.136972 2.2329519 5.378106 2.2329519 2.326765 0 4.101671-.7564152 5.320426-2.2613874 1.194126-1.472324 1.791271-3.5541063 1.791271-6.253286m3.631554-.1242735c0 3.5170836-1.001803 6.3432102-2.985397 8.4616102-1.979383 2.1265822-4.654016 3.1899544-8.015717 3.1899544-3.316496 0-5.954511-1.0633722-7.88877-3.1899544-1.893589-2.0490532-2.846379-4.7564152-2.846379-8.1220051 0-3.8403241 1.083625-6.8012557 3.230866-8.9032911 1.995746-1.9506228 4.670379-2.9321722 8.019605-2.9321722 3.292273 0 5.860617 1.0263494 7.709083 3.059119 1.840365 2.0447595 2.776709 4.8584911 2.776709 8.4367392"/><path d="m163.752312 4.25843038c-.695251-.38440506-1.467949-.58069873-2.347423-.58069873-2.47437 0-3.701306 1.55795443-3.701306 4.67856202v3.40253163h5.173549v2.9936608h-5.173549v19.0822076h-3.537337v-19.0822076h-3.754289v-2.9936608h3.754289v-3.57824808c0-2.42956963.744263-4.3353114 2.257499-5.70944811 1.296526-1.19420759 2.882997-1.78705822 4.768486-1.78705822 1.092132 0 1.942764.13091645 2.560081.38448607z"/><path d="m177.698641 33.612881c-.834268.4786228-1.946653.7158279-3.32079.7158279-3.852395 0-5.778471-2.1717064-5.778471-6.514957v-13.0580253h-3.787017v-2.9978734h3.787017v-5.38588358c1.12875-.35596962 2.302299-.7443443 3.541631-1.14511392v6.5309975h5.55763v2.9978734h-5.55763v12.4570734c0 1.4804253.242065 2.5395038.748233 3.1529316.511351.6340051 1.34562.9448507 2.523463.9448507.879149 0 1.639777-.2355848 2.285934-.7116152z"/></g><g transform="translate(0 160.405063)"><path d="m13.4143919 76.2476557c0 1.7297823-.6173732 3.2265721-1.864879 4.4904506-1.2432526 1.2595848-2.75248606 1.8936709-4.52313923 1.8936709-1.73008202 0-3.20234937-.6340861-4.40862785-1.8936709-1.20660253-1.2638785-1.80761924-2.7606683-1.80761924-4.4904506 0-1.7787949.60101671-3.2798785 1.80761924-4.5230987 1.20627848-1.247514 2.67854583-1.8649114 4.40862785-1.8649114 1.77065317 0 3.27988663.6259038 4.52313923 1.8894582 1.2475058 1.2638785 1.864879 2.764557 1.864879 4.4985519"/><path d="m92.5311676 81.3316051h-11.5245367l-41.8327656-64.6038684c-.9775878-1.5540658-1.8200466-3.2431797-2.5355747-5.0875139h-.3438582c.2977296 1.7297823.4501873 5.4431595.4501873 11.1320304v58.5593519h-9.5003868v-81.05235447h12.3304182l40.5813469 63.58570127c1.6155544 2.5231392 2.7194329 4.3306937 3.2798785 5.4186127h.2257012c-.3762228-2.3311393-.5721924-6.3062684-.5721924-11.9172051v-57.08710887h9.4428355v81.05235447z"/><path d="m153.436079 81.3316051h-42.95761v-81.05235447h41.092699v8.58823291h-31.600446v26.96279496h29.281782v8.5925266h-29.281782v28.3165974h33.465357z"/><path d="m218.594965 8.8684557h-23.347443v72.4644456h-9.496142v-72.4644456h-23.392729v-8.59212152h56.236314z"/></g><g transform="translate(.810127)"><path d="m88.4994916 20.6885266c9.1648 28.0260861 12.6369214 78.0220759 39.4363144 78.0220759 2.040708 0 4.101913-.1996152 6.171301-.5931747-24.361965-5.6803645-27.249256-55.1325164-42.1150786-80.7418329-1.1656102 1.0593216-2.322957 2.1635241-3.4925368 3.3129317" fill="url(#a)"/><path d="m91.9920284 17.3755949c14.8658226 25.6093165 17.7531136 75.0614684 42.1150786 80.7418329 1.913924-.3516759 3.83198-.883362 5.754086-1.5540658-21.867261-10.7148152-27.911777-58.7353924-44.7937621-81.8542177-1.0224608.850957-2.0488912 1.7425013-3.0754025 2.6664506" fill="url(#b)"/><path d="m113.411208 2.14545823c-2.036658 0-4.102076.19953418-6.175352.59317468-5.422906 1.02237975-10.9314428 3.3574076-16.4851846 6.8908557 1.517124 1.49678989 2.9606076 3.21020759 4.3183797 5.07933169 5.6478789-4.6867444 11.2588959-8.15052157 16.8495799-10.23230384 2.097823-.77699241 4.187787-1.36166076 6.28561-1.74606583-1.513154-.38481012-3.108132-.5849924-4.793033-.5849924" fill="#14559a"/><path d="m156.93137 86.6867038c2.237003-1.7787949 4.478137-3.7461063 6.723322-5.8929418-9.312081-27.8955747-12.645104-78.60706833-39.632689-78.60706833-1.930289 0-3.876942.17992911-5.819544.53978734 24.582805 6.11418734 27.731848 59.59842029 38.728911 83.96022279" fill="url(#c)"/><path d="m118.203269 2.72842532c-1.513155-.38440507-3.108051-.58458735-4.793033-.58458735l10.612658.03888608c-1.930369 0-3.877023.17992911-5.819625.54408101" fill="#3092c4"/><path d="m156.460038 92.6127797c-1.055108-1.0060151-2.056911-2.1102177-3.042673-3.2880607-4.539544 3.2144202-9.062643 5.6518481-13.556982 7.238643 1.598866.7812861 3.275585 1.3620658 5.054785 1.7219241 1.378025.2813569 2.805468.4253164 4.306227.4253164 5.042633 0 9.029914-.5970633 12.424264-2.2247696-1.8688-1.0103088-3.582461-2.3189873-5.185621-3.8730532" fill="#1969bc"/><path d="m111.916687 4.48113418c22.018673 11.51635442 23.932597 63.66744302 41.50165 84.84358482 1.177843-.8300557 2.343372-1.7094481 3.508901-2.6380152-10.996982-24.3618025-14.141974-77.85032912-38.720648-83.96022279-2.097984.39258734-4.191919.97369114-6.289903 1.75465317" fill="url(#d)"/><path d="m95.0674309 14.7091443c16.8819851 23.1188253 22.9265011 71.1394025 44.7937621 81.8542177 4.494501-1.5867949 9.017681-4.0242228 13.557144-7.238643-17.569053-21.1761418-19.482977-73.3272304-41.50165-84.84358482-5.590522 2.0774886-11.201459 5.54126582-16.8492561 10.22801012" fill="url(#e)"/><path d="m77.698317 20.0135291c-2.6460355 5.9833519-5.3492659 13.8474937-8.6169114 24.1125266 6.4984303-9.1568608 12.9764455-17.0456304 19.4176-23.4375291-.8874127-2.7279393-1.8402836-5.2429772-2.866795-7.4843544-2.6337215 2.016324-5.2879392 4.2862177-7.9338936 6.8093569" fill="url(#f)"/><path d="m87.9785803 11.4790076c-.7770735.5561519-1.5580355 1.1247797-2.3432102 1.7258127 1.0263494 2.2411341 1.9750886 4.7564151 2.8627443 7.4840303 1.1693367-1.1451139 2.3307342-2.253286 3.4922127-3.3126076-1.2471899-2.1430278-2.5722329-4.1224101-4.0117468-5.8972354" fill="#2b74b1"/><path d="m90.7506714 9.62948861c-.9242734.58499239-1.8442532 1.20230889-2.7727392 1.84846579 1.4395139 1.7749064 2.7645569 3.7542886 4.0160405 5.9015291 1.0265924-.928486 2.0529417-1.824 3.0754025-2.6706632-1.3577722-1.8688-2.8012557-3.5825418-4.3187038-5.07933169" fill="#125a9e"/><path d="m240.936717.01126076c-12.453104 48.02446584-38.46319 86.59791394-60.269124 96.32307844h-.041317c-.396638.1799292-.789306.3435747-1.177762.5028456-.053468.0324051-.102076.0364557-.143311.0558987-.114552.0461773-.22084.0818228-.335392.127595-.053469.032405-.102076.0429367-.151089.0623797-.183899.0656203-.36399.121114-.543919.1930532-.077772.0324051-.15117.0526582-.225134.0785823-.081823.032405-.176041.0623797-.269934.0883848-.081742.032405-.167453.0558987-.261752.0915443-.077772.032405-.159595.0461772-.232912.0785823-.159676.0461772-.306552.0850633-.466227.1406379-.065621 0-.126623.0356456-.196294.0526583-.098187.032405-.20877.0558987-.315058.0850633-.073722.032405-.134805.0429367-.212659.0591392-.110582.0324051-.233316.0623797-.343574.0883848-.1472.0324051-.278036.0623798-.417134.0916253.9856.3640709 2.012111.5479696 3.120445.5479696 20.677185 0 41.525793-37.056 76.022036-98.6786835h-13.544831z" fill="url(#g)"/><path d="m64.5910359 4.09437975c.0129621 0 .0291646-.03240507.0372659-.03240507.0162025 0 .0413164 0 .0494177-.03240506h.025924c.1144709-.03888608.2208406-.08506329.3353114-.12759494.0291646 0 .044557 0 .0656203-.03240506.0291645 0 .057519-.03240506.0860354-.0364557.1227342-.03888607.2453874-.08506329.3599393-.12759493h.019443c.2741468-.08174177.5275544-.18316962.793357-.27803545.0372658 0 .0737215-.03240506.1184405-.03240506.1105823-.03564557.2251342-.07534177.339443-.10142785.0534684-.03240506.1063696-.03240506.1553823-.04941772.1184405-.03564557.2333165-.07534177.3435747-.10142785.0494177 0 .0942177-.03240506.1308354-.03564557.3803545-.10466835.7565772-.20285569 1.1369317-.29448101.0534683 0 .0981873-.03240506.1553822-.03564557.1102583-.03240506.2127393-.04941772.3312608-.06562025.0494177-.03240507.1063696-.03240507.1636456-.04941772.1102582-.03240507.2165468-.03564557.3353114-.06237975h.0777721c.2290228-.04617722.4621772-.08506329.6912-.12759494h.1390177c.1102583-.03240506.2084456-.03564557.3190279-.05589873.0607595 0 .1226532-.03240506.1799291-.03240506.102076 0 .204476-.03240507.3065519-.04617722.0534684 0 .1062886 0 .1678582-.03240506.2410937-.03240507.4906937-.04536709.7442633-.06562026-.7156658-.06886076-1.4518278-.11455189-2.2002228-.11455189-23.2863757 0-55.3695757 43.20688607-69.82235541 99.16127597h2.78504507c4.62537721-8.2486279 8.78045164-16.0516861 12.57972654-23.3763646 10.1218512-39.6325266 30.7377094-66.6611038 49.0511231-73.82189365" fill="url(#h)"/><path d="m77.69856 20.0135291c2.6461165-2.5231392 5.3001722-4.7930329 7.9338937-6.8090329-.6010329-1.3168608-1.2226431-2.5356152-1.8894583-3.65221266-2.1305519 2.58462786-4.077205 5.99542276-6.0444354 10.46124556" fill="#0d82ca"/><path d="m79.6115119 4.42191392c1.5213367 1.27594937 2.8829975 3.03052152 4.1305114 5.13263798.3925873-.48259241.7894683-.92848608 1.2023899-1.34562025-1.7297823-1.6153114-3.5989064-2.94035443-5.6273823-3.93818735.0818228.04536709.1635645.08182279.2486278.11779241 0 0 .0324051.03240506.0461772.03240506" fill="#0d82ca"/><path d="m15.5403261 77.9146532c21.2333934-40.9169823 31.2939017-66.8125975 49.0511149-73.82221776-18.3093144 7.16532656-38.9292638 34.19357976-49.0511149 73.82221776" fill="url(#i)"/><path d="m84.9430359 8.20787848c-.4128405.42142785-.8054278.86310886-1.2023088 1.34570127.6667342 1.11627345 1.2881013 2.33105825 1.8936709 3.65188865.7851747-.601033 1.5661367-1.1696608 2.3432101-1.7258127-.9608911-1.1860253-1.9751696-2.28601519-3.0345722-3.27177722" fill="#127bca"/><path d="m25.179601 101.107119c-.1308678.032405-.2617357.032405-.3844294.046177h-.0736405c-.1105822 0-.2250936.032405-.3271696.032405h-.0533063c-.2656648.032405-.5275625.032405-.7811241.052658h-.0817903c21.491046-.601356 31.3143331-11.3613767 36.1891888-26.9674122 3.705195-11.8311696 6.7479494-21.7977519 9.4144-30.1609316-9.0013164 12.6697316-18.0435443 27.7725975-27.1347848 44.691524-4.3840972 8.1547342-11.0501995 11.5612358-16.7675139 12.2895388" fill="url(#j)"/><path d="m25.179601 101.098937c5.7173144-.728304 12.3834248-4.1308357 16.7675139-12.2895395 9.0912324-16.914714 18.1375109-32.0217924 27.1306451-44.6915241 3.2716962-10.2692456 5.9708759-18.1291747 8.620962-24.1125266-17.9248607 17.061995-35.9192871 45.4319798-52.519121 81.0854072" fill="url(#k)"/><path d="m15.5393134 77.9156253c-3.7991129 7.3246785-7.95417922 15.1277367-12.57972656 23.3763647h8.10173566c1.0714897-8.1917571 2.5928345-16.0029166 4.4779909-23.3724761" fill="#05a1e6"/><path d="m71.4538613 2.32603544c-.0656203 0-.1145519.03240507-.1717469.03240507-.0981873.03240506-.2005873.03240506-.3026633.04293671-.0607595 0-.1184405 0-.1799291.03240506-.1105823.03240506-.2126582.03564557-.3190278.05589873-.0494177 0-.0981064 0-.1390177.03240507-.2333165.03888607-.4621773.08182278-.6912.12103291h-.0777722c-.1184405.03240506-.2250532.04941772-.3353114.06562025-.057519.03240506-.1145519.03240506-.1678582.04536709-.1102582.03240506-.2208405.04617721-.3271291.06562025-.057519.03240507-.102076.03240507-.1554633.03564557-.3802734.09162532-.7565772.18981266-1.1369317.29448101-.0405063 0-.0817417.03240507-.1308354.03888608-.1144709.03240506-.2250532.06562025-.3434937.10142785-.0494177.03240506-.1063696.03240506-.1554633.04536709-.1144709.03240506-.2290228.06562025-.339443.10142785-.044557 0-.0817418.03240506-.1226532.03240506-.2617519.09810633-.5193721.19629367-.7893063.27811645-.1144709.03564557-.2372051.08174178-.3598582.12427342-.0494178.03240507-.0942178.0396962-.1511697.06237975-.1145519.03564557-.2290227.08182278-.3353924.12435443-.0405063.03240506-.0817417.03564557-.1102582.05265823-17.7571726 7.00962023-27.817681 32.90523543-49.0510744 73.82221773-1.8853266 7.3695595-3.4107625 15.180719-4.4781529 23.3721519h1.1369154c3.2021874 0 4.105997-.032405 7.7907605-.032405h.1881195.5480101.1881276.0533064.1881195.1063291.0736405.1472243.4580456.4580374.3844213.102084.6747869c.2535534-.032405.5152972-.032405.781124-.052658h.0490937c.1105823 0 .2208405-.032405.3271696-.032405h.0775291c.1184324 0 .2535534-.032405.3844213-.046178 16.599842-35.6534274 34.5942197-64.0234122 52.5190805-81.0854072 1.9712-4.4658228 3.9138025-7.8766177 6.0404658-10.45703289-1.2433012-2.10203544-2.605124-3.86057721-4.1264607-5.13685063s-.0413165 0-.044557-.03240506c-.0860354-.03564557-.1674532-.07858228-.2534886-.12103292-.0861165-.04617721-.159676-.08182278-.249357-.12759493-.0777721-.03240507-.1677772-.07534178-.2453873-.11779241-.1062886-.03240506-.1923241-.07858228-.2862177-.12111392-.0777722-.03240507-.147281-.06562026-.2251342-.09810633-.159676-.06237975-.3189468-.12759494-.4702785-.19629367-.0696709-.03240507-.1348051-.04941772-.2005873-.07534177-.1102583-.03969621-.2372051-.09162532-.351676-.14071899-.057519-.03240506-.1227342-.03888608-.1881114-.06237975-.1675341-.05589873-.3312607-.11447088-.486724-.16688607h-.0405064c-.1881924-.06237975-.3721721-.10790887-.5644151-.16032405-.044557-.03240507-.0818228-.03240507-.1266228-.03888608-.1678583-.04617722-.3150583-.09162532-.4744102-.13415696-.0405063 0-.0777721-.03240507-.1102582-.03240507-.384405-.10142784-.781124-.18316962-1.1818937-.25843038-.0413164 0-.0817417-.03240506-.1226531-.03240506-.1717469-.03240506-.3394431-.06237975-.5111899-.08182278-.0413164-.03240507-.0656202-.03240507-.1020759-.03240507-.204476-.03240506-.4049013-.05589873-.6053266-.07858228h-.1062886c-.1635646-.03240506-.3147342-.03564557-.4662279-.05265822-.2577823.03240506-.5030076.04617721-.7443443.06886076" fill="url(#l)"/><path d="m192.294449 26.5978329c-4.08555 13.0868658-7.394107 23.8835038-10.273135 32.7662177 11.209641-15.4261063 22.251666-34.8316354 32.766299-57.22612655-12.264992 3.85207089-18.808385 12.66965065-22.493164 24.45990885" fill="url(#m)"/><path d="m182.377041 95.5164354c-.572516.2911595-1.145033.5683038-1.709448.8179038 21.805934-9.7251645 47.81602-48.2986126 60.269124-96.32307844h-2.523463c-28.611079 51.10805064-37.81274 85.32196454-56.036213 95.50517464" fill="url(#n)"/><path d="m168.138094 91.2226025c4.743939-5.7908658 8.608486-15.6344709 13.884436-31.8582278-6.085671 8.3592101-12.211605 15.5448709-18.342157 21.4051645 0 .0324051 0 .0324051-.032405.0526583 1.337519 4.0078582 2.805468 7.5451949 4.478298 10.3997569" fill="#079ae1"/><path d="m168.138094 91.2226025c-1.615554 1.971281-3.324759 3.4722836-5.226612 4.5846684-.417135.2421468-.838157.4701975-1.267768.6788861 2.008223 1.0836253 4.19994 1.8076354 6.653651 2.0978227.359615.0356456.715585.0688608 1.087919.0948659h.06562c.166886 0 .343575 0 .523504.032405h.072101.535899.57681.18001.408952c.065621 0 .134076 0 .199534-.032405.127595 0 .261752 0 .392588-.0324051h.046177.1472c.134157 0 .281357-.0324051.425316-.0461772h.032406c.042936 0 .088303-.0324051.130835-.0324051.150521-.032405.307605-.0461772.454157-.0688607h.134157c.166805-.0324051.339281-.0526583.511028-.0850633h.032405.049418c.343574-.0656203.678886-.1308355 1.018167-.2158988-2.813651-1.030643-5.169256-3.4598886-7.197732-6.9196962" fill="#1969bc"/><path d="m127.936292 98.7112506c2.040871 0 4.102076-.1995341 6.171382-.5970633 1.914005-.3474632 3.831899-.8794734 5.754005-1.5501772 1.59919.7812861 3.275909 1.3620658 5.050815 1.7219241 1.378107.2813569 2.809438.4253164 4.310522.4253164z" fill="#1e5cb3"/><path d="m149.22334 98.7112506c5.03842 0 9.029914-.5970633 12.420374-2.2247696 2.007899 1.0836253 4.19994 1.8076355 6.653651 2.0981468.359939.0356456.715909.0688608 1.087919.0948659h.06562c.166886 0 .343575 0 .523504.032405h.075342.535899-21.37673z" fill="#1e5cb3"/><path d="m170.598368 98.7112506h.580779.179929.405064c.068861 0 .134076 0 .199534-.032405.127595 0 .261752 0 .396881-.0324051h.042937.150521c.134076 0 .281357-.0324051.421347-.0453671h.035646c.042936 0 .085063-.032405.127595-.032405.150521-.0324051.307605-.0453671.453832-.0688608.049418 0 .088304 0 .140638-.0324051.166886-.032405.339605-.0494177.511433-.0817417h.032405.049418c.343575-.0656203.678886-.1309165 1.018167-.2159798.985438.3638279 2.012112.5480506 3.120203.5480506l-7.860253.0324051z" fill="#1d60b5"/><path d="m163.661092 80.8228456v-.0324051c-2.245104 2.1469165-4.486238 4.1142279-6.723403 5.8930228-1.169661.9284861-2.335028 1.8076354-3.51279 2.6380152.985438 1.177762 1.987565 2.2819645 3.042674 3.2880607 1.603159 1.5537418 3.316496 2.8627443 5.18562 3.8727292.425316-.2094178.850633-.4377925 1.263554-.6788861 1.905742-1.1123848 3.615271-2.6131443 5.230826-4.5843443-1.672831-2.8545621-3.140861-6.3923038-4.478299-10.400081" fill="#175fab"/><path d="m230.422165.01126076h-10.608527-1.055189-.997833-.038886c-.687069.03240506-1.353479.05589873-2.012112.09818734-.310764.66681519-.629792 1.33354937-.936668 2.00425317-10.514309 22.39449113-21.556334 41.80002023-32.765975 57.22612653-5.271574 16.223433-9.140334 26.0673621-13.884354 31.8583089 2.028476 3.4598076 4.388212 5.8929418 7.193681 6.9235848.081823-.032405.1472-.032405.22084-.0494177h.045367c.049418 0 .102076-.0324051.155464-.0324051.114471-.032405.237205-.0526582.351676-.0883038.073721-.032405.134805-.0356455.208769-.0591392.106289-.0324051.216547-.0558987.314734-.0818228.065621-.0324051.130836-.0429367.196294-.0558987.163565-.0526583.310765-.0916253.466228-.140719.073721-.0324051.151494-.0591393.233235-.0785823.090005-.0324051.179929-.0558987.261752-.0948658.094218-.0324051.188112-.0494177.269934-.0850633.073722-.0324051.15117-.0526582.220841-.0818228.183818-.0656202.36399-.1210329.54797-.1930532.049417 0 .098187-.045367.151493-.0558987.110258-.0461772.22481-.0818228.335393-.1309164.040506-.0324051.089924-.0356456.142906-.0526583.384486-.160324.781124-.3238886 1.177843-.5028455h.041316c.564335-.2486279 1.136932-.5277165 1.705398-.8179038 18.227524-10.1832102 27.429347-44.3971241 56.040425-95.50517472h-7.991169z" fill="url(#o)"/><path d="m72.1990157 2.25701266c.0453671 0 .0860354 0 .1308354.03240506.1102583 0 .2208405 0 .3312608.03564557h.1105823c.2002633.03240506.4007696.04941772.6052455.07858228.0372659 0 .0696709 0 .102076.03240506.1675342.03240507.339443.05913924.5111899.08506329.0372658 0 .0861164.03240507.1269468.03240507.3926684.07858228.793438.16032405 1.177843.2617519.0364557 0 .0737216.03240506.1063697.03240506.1635645.03888608.3107645.0883038.4743291.13407595.0494177 0 .0857114.03240506.1309164.0396962.1923241.04941772.3721722.09818734.5602836.16032405.0081012 0 .019443 0 .0413164.03240507.1592709.04860759.3229165.11123037.4906937.16680506.0656203.03240506.1266228.04617721.1881114.06237975.1145519.04941772.2414987.09810632.351757.14395949.0656202 0 .1308354.04536709.2001822.06886076.1511697.06886076.3108456.13083544.4662279.19629367.0818228.03240506.1511696.06886076.2290228.09810633.090005.04617721.1838987.08838481.282086.12111392.0817418.03888608.1717469.08174177.249276.11771139.0860354.04617722.1675342.08182279.2496.12759494 2.0284759.99791393 3.897438 2.32716962 5.6273823 3.93851139.6379747-.67070379 1.3045468-1.27206076 1.9957468-1.8118481-3.7829671-2.68281519-8.0688608-4.21233417-13.0132253-4.21233417-.5725975 0-1.1451139.03240506-1.7258127.07534177" fill="#7dcbec"/><path d="m84.943117 8.20787848c1.0592405.98543798 2.0734379 2.08575192 3.0344911 3.27177722.9283241-.646157 1.8485468-1.2678481 2.7728203-1.84854684-1.2105722-1.21057215-2.4865216-2.29841013-3.8156962-3.23507848-.691119.53589873-1.3536406 1.1411443-1.9916152 1.8118481" fill="#5ec5ed"/><path d="m72.1980425 6.28463137c.5807285.04907565 1.1532777.06952383 1.7258269.06952383 4.9443713 0 9.2303109-1.52952427 13.0132253-4.20823658 3.9914858 3.14902057 8.8172576 4.24913295 15.5201723 4.24913295h-32.4594492c.7484036 0 1.4804486-.044986 2.2002247-.1104202" fill="url(#p)" transform="matrix(1 0 0 -1 0 8.54097)"/><path d="m102.457267 9.62995452c-6.7029147 0-11.5286865-1.10011238-15.5201723-4.24913295 1.3250424-.9365269 2.6010092-2.02437036 3.8115417-3.23490295 5.5578169 3.53344646 11.0624686 5.87271888 16.4894166 6.89512816 2.069357.38851552 4.134623.58890774 6.171263.58890774z" fill="url(#q)" transform="matrix(1 0 0 -1 0 11.775874)"/><path d="m182.021314 59.3722329c2.88316-8.8908962 6.183454-19.6832405 10.277185-32.7744 3.688912-11.7944709 10.220071-20.61172657 22.48482-24.45990885.32397-.65863291.629874-1.33751899.944932-2.00425316-19.99441 1.19842025-29.33922 11.36915441-34.042329 26.43151391-8.224243 26.2963038-13.205468 43.3419342-18.002552 54.2040304 6.126258-5.8564051 12.252517-13.0459544 18.337944-21.3969823" fill="url(#r)"/><path d="m211.354621 91.7061671h-2.265681v7.0423494h-.924274v-7.0423494h-2.273782v-.838157h5.463737z"/><path d="m220.631866 98.7472203h-.919979v-5.2919899c0-.4171342.032405-.928162.075341-1.529519-.094946.3599392-.173448.6095392-.245387.7688911l-2.682815 6.0526178h-.449863l-2.690998-6.0074937c-.078582-.1668861-.157002-.4377114-.242066-.8140152h-.032405c.032405.3174076.042937.8303797.042937 1.5419949v5.279514h-.883362v-7.8805064h1.218673l2.416851 5.5003545c.18317.4132455.297721.7321924.35597.9448506h.035645c.160324-.4334987.29116-.7567393.380517-.9693975l2.465863-5.4758076h1.161478v7.8805064z"/></g></svg>