<svg height="205" preserveAspectRatio="xMidYMid" viewBox="0 0 256 205" width="256" xmlns="http://www.w3.org/2000/svg" xmlns:xlink="http://www.w3.org/1999/xlink"><linearGradient id="a"><stop offset="0" stop-color="#fff" stop-opacity=".6"/><stop offset=".6" stop-color="#fff" stop-opacity=".1"/></linearGradient><linearGradient id="b" x1="49.999404%" x2="49.999404%" xlink:href="#a" y1=".296203%" y2="99.979747%"/><linearGradient id="c" x1="49.999404%" x2="49.999404%" xlink:href="#a" y1="99.432589%" y2="-.089732%"/><linearGradient id="d" x1="32.539442%" x2="77.944622%" y1="17.487613%" y2="128.203927%"><stop offset="0" stop-color="#fff" stop-opacity=".5"/><stop offset=".75" stop-color="#fff" stop-opacity=".03"/></linearGradient><linearGradient id="e" x1="5.239254%" x2="136.164889%" y1="50.02806%" y2="50.02806%"><stop offset="0" stop-color="#fff" stop-opacity=".9"/><stop offset=".6" stop-color="#fff" stop-opacity=".1"/></linearGradient><path d="m128 3.51306152c44.466553 12.02453618 75.494443 50.27741468 76.256348 96.90598648v3.691304c-1.395508 27.064941-22.780413 49.342529-50.208985 49.342529-9.295238 0-18.580696-2.138595-25.894982-6.557643-15.390476-8.838095-25.6-25.295238-25.6-44.495238s10.361905-35.352381 25.447619-44.4952381c-7.466667-4.4190476-16.910817-7.5126721-26.206055-7.5126721-27.733333 0-50.1594444 22.5983864-51.0737302 50.0269582v4.669331c.7619048 46.933333 34.0035947 85.387811 77.5845472 96.35924 8.228571 2.133333 16.761905 3.352381 25.447619 3.352381 56.533333 0 102.247619-45.866667 102.247619-102.247619 0-56.6857143-45.866667-102.552381-102.4-102.552381-8.838095 0-17.371429 1.22734724-25.6 3.51306152z" fill="#369647"/><path d="m127.847619 3.35238095c-8.228571-2.13333333-16.761905-3.35238095-25.447619-3.35238095-56.5333333 0-102.4 45.8666667-102.4 102.4 0 56.533333 45.8666667 102.247619 102.247619 102.247619 8.838095 0 17.219048-1.066667 25.447619-3.352381-43.2761904-11.27619-75.7333332-50.133333-76.495238-97.066667v-3.961904c1.0666667-27.4285718 23.6190476-49.3714289 51.047619-49.3714289 9.295238 0 18.133333 2.4380952 25.447619 6.8571429 15.390476 8.8380952 25.447619 25.295238 25.447619 44.495238s-10.361905 35.338406-25.447619 44.481263c7.619048 4.114286 13.093824 6.639038 25.746412 7.035034 27.719761.867563 50.602295-21.676025 51.205969-53.344868-.761905-46.9333337-33.219048-86.0952385-76.8-97.06666705z" fill="#aeea00"/><path d="m204.647619 100.419048c-.761905-46.9333337-33.219048-86.0952385-76.8-97.06666705-8.228571-2.13333333-16.761905-3.35238095-25.447619-3.35238095-56.5333333 0-102.4 45.8666667-102.4 102.4 0 56.533333 45.8666667 102.247619 102.247619 102.247619 8.838095 0 17.219048-1.066667 25.447619-3.352381-43.2761904-11.27619-75.7333332-50.133333-76.495238-97.066667v-3.961904c1.0666667-27.4285718 23.6190476-49.3714289 51.047619-49.3714289 9.295238 0 18.133333 2.4380952 25.447619 6.8571429 15.390476 8.8380952 25.447619 25.295238 25.447619 44.495238s-10.361905 35.352381-25.447619 44.495238c7.619048 4.114286 16.457143 6.857143 25.752381 6.857143 27.733333 0 50.133333-21.942857 51.047619-49.371429v-1.980952c.152381-.457143.152381-1.219048.152381-1.828571z" fill="url(#b)" opacity=".15"/><path d="m153.6 0c-8.838095 0-17.219048 1.06666667-25.447619 3.35238095 43.580952 11.27619045 76.038095 50.43809525 76.8 97.06666705v3.961904c-1.066667 27.428572-23.92381 49.371429-51.352381 49.371429-9.295238 0-18.133333-2.438095-25.447619-6.857143-15.390476-8.838095-25.6-25.295238-25.6-44.495238s10.361905-35.352381 25.447619-44.4952381c-7.466667-4.4190476-16.152381-6.8571429-25.447619-6.8571429-27.7333334 0-50.1333334 21.9428572-51.0476191 49.371429v3.961904c.7619048 46.933334 33.2190476 86.095238 76.8000001 97.066667 8.228571 2.133333 16.761905 3.352381 25.447619 3.352381 56.533333 0 102.247619-45.866667 102.247619-102.247619 0-56.6857143-45.866667-102.552381-102.4-102.552381z" fill="url(#c)" opacity=".15"/><path d="m127.764558 201.295238c-43.27619-11.27619-75.7333329-50.133333-76.4952376-97.066667v-.304761.761904c.6095238 39.771429 14.7809524 75.12381 37.0285714 99.047619 4.7238095.609524 9.2952381 1.066667 14.0190472 1.066667 8.685715-.304762 17.52381-1.371429 25.447619-3.504762z" fill="url(#d)" opacity=".4"/><path d="m113.362526 66.3619048c.761905.3047619 2.167806.8677943 2.92971 1.0201753 3.352381-3.5047619 7.526828-7.1026763 11.641114-9.5407715-7.466667-4.4190476-16.674489-6.9091797-25.969727-6.9091797-27.7333333 0-50.1630013 22.2869187-50.9249061 49.7154901l-.1523809 1.676191c-.3047619-.609524-.152381-1.219048.1523809-1.676191 7.9238096-26.3619047 35.352381-41.7523809 62.3238091-34.2857142z" fill="url(#e)" opacity=".25"/></svg>