<svg height="253" preserveAspectRatio="xMidYMid" viewBox="0 0 256 253" width="256" xmlns="http://www.w3.org/2000/svg"><path d="m252.689635 189.792267c-20.742378 11.573001-44.823122 17.9975-70.422204 17.473253-75.4619-1.518338-135.4189465-62.677196-133.9401742-136.5663551.5291928-25.0946179 8.0318604-48.3840455 20.7176497-68.19662713-40.4016425 22.55746003-68.0136353 64.73956413-69.01761785 113.56872523-1.4936095 73.89905 58.51289405 135.052962 133.99457635 136.576246 49.83809 1.013874 94.018267-24.253844 118.66777-62.855242" fill="#1f3244"/><path d="m180.943424 191.374899c.835828.014838 1.676601.029675 2.517375.029675 19.693884 0 39.120699-4.876487 56.391177-14.055756 10.178306-17.448524 16.103287-37.701275 16.103287-59.388288 0-65.1352218-52.662099-117.96053-117.639058-117.96053-20.485201 0-39.7389154 5.27214479-56.5049294 14.5058168-10.8311417 17.4287413-16.800634 37.4688264-17.2358579 58.0529414-1.285889 64.1806968 50.9113123 117.4956318 116.3680063 118.8161408" fill="#3e95be"/></svg>