<svg height="245" preserveAspectRatio="xMidYMid" viewBox="0 0 512 245" width="512" xmlns="http://www.w3.org/2000/svg" xmlns:xlink="http://www.w3.org/1999/xlink"><linearGradient id="a" x1="49.946083%" x2="49.946083%" y1="100.009982%" y2="0%"><stop offset="0" stop-color="#2746f1"/><stop offset="1" stop-color="#61b7f5"/></linearGradient><linearGradient id="b" x1="49.940385%" x2="49.940385%" y1="99.961266%" y2=".048976%"><stop offset="0" stop-color="#275af1"/><stop offset=".1582" stop-color="#336df2"/><stop offset=".5228" stop-color="#4c92f4"/><stop offset=".8162" stop-color="#5ba9f5"/><stop offset="1" stop-color="#61b2f5"/></linearGradient><path d="m0 37h72.8857645c48.0906075.1999609 83.8836165 28.6943956 83.8836165 81.484085 0 52.389768-35.89299 81.084163-83.8836165 81.084163h-72.8857645zm40.19215 34.8931849v92.7818781h31.0939269c26.2948643 0 44.1913691-16.496778 44.1913691-46.190978 0-30.0941221-17.8965048-46.5909001-44.1913691-46.5909001zm148.17106 45.6910761c0-6.498731-1.199765-11.497754-7.698496-11.497754-4.999024 0-10.997852 2.399531-12.197618 3.099394l-1.199765-31.5938291c.999804-1.1997657 14.79711-5.2989651 29.6942-5.2989651 14.79711 0 24.895138 5.498926 29.194298 18.396407 5.998828-11.197813 14.597149-18.396407 30.394064-18.396407 11.697715 0 21.29584 4.2991603 22.195665 5.9988284l-4.999024 36.5928528c-1.199766-1.699668-11.997657-5.498926-23.895333-5.498926-14.79711 0-20.096075 11.997657-21.295841 24.895138v65.287248h-40.19215zm162.368288 47.390744c-.699864.699863-6.698692 3.299355-11.697716 3.299355-6.49873 0-7.698496-5.298965-7.698496-11.497754v-82.1839483h-40.19215v92.0820153c0 25.295059 11.497754 35.393087 31.293888 35.393087 15.097051 0 28.894357-4.29916 29.894161-5.298965zm27.794571 79.584456v-126.9752c0-6.698692-1.199766-11.497754-7.698496-11.497754-4.999024 0-10.997852 2.19957-12.197618 3.299355l-1.199766-31.9937511c.999805-.6998633 14.597149-5.298965 29.694201-5.298965 14.097246 0 24.195274 4.7990627 28.694395 16.9966803 7.898458-9.7980863 20.096075-16.6967389 38.292521-16.6967389 34.193322 0 57.888694 26.9947276 57.888694 64.9873067 0 37.492678-23.695372 64.587386-57.888694 64.587386-15.097051 0-27.294669-5.298965-35.393087-12.897481v55.489162zm40.09217-128.174966v41.891818c5.998828 5.298965 15.097051 8.798282 23.895333 8.798282 17.196641 0 28.494434-11.497755 28.494434-29.694201 0-18.396406-10.997852-30.094122-28.494434-30.094122-9.298184 0-18.796329 4.0992-23.895333 9.098223z" fill="#414042"/><g transform="translate(289)"><path d="m22.4 56.1c13 0 21.7-4.7 21.7-17.9 0-4.9-2.1-11.3-6.8-17.8-4.9-6.9-8-8-14.9-20.4-6.9 12.4-10 13.5-14.9 20.4-4.7 6.5-6.8 12.9-6.8 17.8 0 13.2 8.7 17.9 21.7 17.9zm-14.3-35.4c4.7-6.6 7.7-7.6 14.3-19.5 6.6 11.9 9.6 12.9 14.3 19.5 4.5 6.2 6.5 12.3 6.5 17 0 12.6-8.4 17.2-20.8 17.2s-20.8-4.5-20.8-17.2c0-4.7 2.1-10.8 6.5-17z" fill="url(#a)"/><path d="m22.4 55.4163462c12.6384615 0 21.2-4.5865385 21.2-17.5307693 0-4.7903846-2.0384615-11.0076923-6.625-17.3269231-4.7903846-6.726923-7.8480769-7.7461538-14.575-19.87499995-6.7269231 12.12884615-9.7846154 13.14807695-14.575 19.87499995-4.58653846 6.3192308-6.625 12.5365385-6.625 17.3269231 0 12.9442308 8.56153846 17.5307693 21.2 17.5307693z" fill="url(#b)"/></g></svg>