<svg height="113" preserveAspectRatio="xMidYMid" viewBox="0 0 256 113" width="256" xmlns="http://www.w3.org/2000/svg" xmlns:xlink="http://www.w3.org/1999/xlink"><linearGradient id="a" x1="48.138885%" x2="51.861115%" y1="0%" y2="100%"><stop offset="0" stop-color="#261ddb"/><stop offset="1" stop-color="#fa015d"/></linearGradient><path d="m233.516683 15.6623376c5.713606 0 9.862089 4.5292368 9.390473 10.2523457l-1.044007 12.6691517c-.471615 5.7231087-5.366566 10.2523456-11.080173 10.2523456h-6.417174l2.717171-33.173843zm13.972577 42.1303631c.44207.5842525.854968 1.1882844 1.237494 1.8102763 2.492753 4.0532423 3.69579 8.8691596 3.277573 13.944247l-3.079611 37.371454h-14.273578l3.079613-37.371454c.471615-5.7231088-3.676868-10.2523456-9.390474-10.2523456l-6.424874-.0094074-3.925237 47.633207h-14.273577l8.752471-106.21226622.26205-3.18000796h3.174729 17.524498c13.487149 0 23.599138 11.04008208 22.485874 24.54966138l-1.044009 12.6691517c-.410336 4.9794993-2.346445 9.7559715-5.380177 13.7492387-.311995.4106746-.635598.8130658-.970345 1.2065425-.135148.1588589-.272112.3162649-.410862.4721764-.405134.4497797-.681912.7433589-.965092 1.0310158-.410683.4171759-.815312.7912355-.960952.9243665.50033.6219862.4943.6329709.985697 1.2526305.107887.1360469.214155.2732261.318789.4115134zm-43.335653-56.26629688h-3.174728-32.91558-3.174728l-.26205 3.18000796-8.490422 103.03225822-.26205 3.180008h3.174728 34.134675 3.174729l.26205-3.180008.654077-7.9373002.26205-3.180008h-3.174728l-23.05378-.0127202 2.732658-33.1611229h15.283094 3.174728l.26205-3.180008.666655-8.08994.26205-3.180008h-3.174728l-15.262214-.0227903 2.739309-33.1510528h21.80925 3.174728l.26205-3.180008.654077-7.93729982zm-51.788708 51.51612898h-26.159759l-1.178177 14.2973158 11.887317-.0137802-1.828279 22.1863806c-.427547 4.7552088-4.648278 8.6353072-9.423057 8.6353167-4.799279 0-8.388528-3.9186754-7.992382-8.725942l5.471605-66.3985661c.396145-4.8072665 4.631234-8.7259418 9.430519-8.7259418s8.388533 3.9186753 7.992388 8.7259418l-1.375768 16.6951036 14.409521-1.6496903 1.239824-15.0454133c1.050371-12.7463774-8.362574-23.0232576-21.087788-23.0232576s-23.831902 10.2768802-24.882273 23.0232576l-5.471606 66.3985661c-1.050371 12.7463773 8.362575 23.0232573 21.087789 23.0232573 12.727226-.001461 23.832325-10.277895 24.882613-23.0232703zm-72.8965826-19.2247734 2.4887245 36.3968163h-11.0454079s-.0114597.0304184.3589518-1.5443762zm-33.472294 77.1009186h14.353292l6.1432734-26.4067866 15.4224342.0205521 1.9368752 26.3862345h14.3377195l-7.6502133-109.39227418h-18.864124zm2.2835355-109.39227418h-3.1747281-32.91558-3.17472799l-.26205006 3.18000796-8.4904217 103.03225822-.26205005 3.180008h3.174728 34.1346754 3.1747282l.2620501-3.180008.6540769-7.9373002.2620501-3.180008h-3.1747281l-23.0537793-.0127202 2.7326579-33.1611229h15.2830935 3.1747279l.26205-3.180008.6666553-8.08994.2620501-3.180008h-3.1747279l-15.2622143-.0227903 2.7393089-33.1510528h21.80925 3.1747281l.2620501-3.180008.654077-7.93729982z" fill="url(#a)" fill-rule="evenodd"/></svg>