<svg height="97" preserveAspectRatio="xMidYMid" viewBox="0 0 512 97" width="512" xmlns="http://www.w3.org/2000/svg"><path d="m1.81220096.62121242 43.64212894 35.62628918 31.7974133-34.37555894c.441206-.47697767.1029102-1.2507305-.5468359-1.2507305h-74.89270634z" fill="#2397d4"/><path d="m1.81220096 96.792119 43.64212894-35.6262891 31.7974121 34.3755566c.441206.4769825.1029102 1.2507325-.546836 1.2507325z" fill="#2397d4"/><g fill="#2f4a75"><path d="m2.29132595.80634368 57.95713385 47.26815922c.4002345.326421.4002345.9379103 0 1.264331l-57.95713385 47.2681582c-.53284889.4345705-1.33132595.0554297-1.33132595-.6321679v-94.53631617c0-.68759296.79847706-1.06674048 1.33132595-.63216435z"/><path d="m242.012305 68.8713526c0 16.4745948-13.317032 27.869751-29.928867 27.869751h-39.995079c-.430468 0-.779433-.3489551-.779433-.779414v-94.5583337c0-.42257459.342578-.76513894.765137-.76513894h37.125703c16.200703 0 29.243261 10.98345214 29.243261 27.04634524 0 8.2370091-3.432617 14.6899632-9.060996 19.2204613 7.688633 4.3932674 12.630274 11.9441024 12.630274 21.9663291zm-51.757969-49.8745045v19.6950244c0 .4415821.357988.7995533.79957.7995533h18.14586c6.246348 0 10.802324-5.071145 10.25293-11.6366334-.454922-5.4365844-5.221739-9.5062817-10.677325-9.5062817l-17.872695.0000013c-.358067 0-.64834.290271-.64834.6483361zm32.920898 47.7438062c-.369687-5.8883691-5.485449-10.3629199-11.38541-10.3629199l-21.535488-.0000049v22.6530811h21.829102c6.74166 0 11.53416-5.244546 11.091796-12.2901563zm86.692559 12.7018653h-37.273359c-.307813 0-.581114.1969776-.678458.489004l-5.440195 16.3205762c-.097344.2920313-.370625.4890041-.678457.4890041h-18.932109c-.492637 0-.837754-.4864356-.67502-.9514161l33.135352-94.67255858c.10039-.28684237.371094-.47890868.675-.47890868h22.461816c.303574 0 .574063.19164928.674707.47804698l33.271094 94.67256828c.163476.4651367-.18168.9522755-.674688.9522755h-19.068574c-.307832 0-.581113-.1969725-.678457-.489004l-5.440195-16.3205763c-.097344-.292034-.370625-.4890114-.678457-.4890114zm-5.704981-18.6530274-12.184824-36.3023339c-.218222-.6501171-1.137754-.6501294-1.355976-.0000172l-12.185899 36.3023317c-.155547.4633692.189199.9427489.677969.9427489h24.370742c.48877 0 .833516-.4793654.677988-.9427295zm116.464922-59.37767191v94.55568361c0 .4272558-.346367.7736036-.773594.7736036h-13.238828c-.252265 0-.488711-.1229981-.633515-.3295703l-40.955742-58.4302736v57.9862403c0 .4272558-.346368.7736036-.773633.7736036h-17.398203c-.427227 0-.773594-.3463478-.773594-.7736036v-94.55568361c0-.42724941.346367-.77360333.773594-.77360333h13.239375c.251992 0 .488164.12270899.633008.32887782l40.955742 58.29373542v-57.84900991c0-.42724941.346328-.77360333.773594-.77360333h17.398203c.427226 0 .773593.34635392.773593.77360333zm69.235 94.93730071-17.746875-29.7526561c-.311757-.5226465-1.06871-.5226563-1.380468-.0000195l-17.748047 29.7526856c-.145.2430858-.407188.3919726-.690234.3919726h-19.545626c-.623711 0-1.009726-.6795021-.690351-1.2152246l28.410351-47.660664c.151055-.2533886.151133-.5691651.000274-.8226417l-26.90168-45.18953036c-.318906-.53573299.06711-1.21482598.690586-1.21482598h19.546133c.28332 0 .545703.14916608.690586.39261286l16.237617 27.27814218c.311601.5234937 1.069609.5234814 1.381211-.0000194l16.236484-27.27810306c.144922-.24345831.407305-.39263335.690625-.39263335h19.543984c.623907 0 1.009922.67999898.690039 1.21571738l-26.897851 45.05072943c-.151562.2538087-.151523.5703174.000039.8241065l28.545547 47.7965333c.319922.5357128-.066055 1.2158008-.690039 1.2158008h-19.682031c-.283086 0-.545274-.1488965-.690274-.3919826zm-367.982451-17.7795604c-2.47332-.3209718-4.390713-2.4124025-4.390713-4.9731786v-15.7901172c0-.4096581.332139-.741792.741719-.741792h34.898252c.409727 0 .741856-.3321339.741856-.7418652v-16.3638111c0-.409729-.332129-.7418629-.741856-.7418629h-34.898252c-.40958 0-.741719-.3321362-.741719-.741792v-18.972522c0-.409729.332139-.7418639.741719-.7418639h38.33084c.409726 0 .741865-.3321349.741865-.741792v-16.63894655c0-.40965734-.332139-.74179225-.741865-.74179225h-57.2761622c-.4097364 0-.7417187.33213491-.7417187.74179225v57.89496575 19.540918c0 9.9185792 8.0405669 17.9592236 17.9590719 17.9592236h41.48626v-18.2055665h-36.109297z"/></g></svg>