<svg height="263" preserveAspectRatio="xMidYMid" viewBox="0 0 256 263" width="256" xmlns="http://www.w3.org/2000/svg"><path d="m128 262.399221c-14.4 0-28-3.190264-40.8-7.97566-12.8-5.582962-24-12.761056-32.8-23.129415-9.6-9.570792-16.8-20.736716-21.6-33.497773-1.6-4.785396-3.2-9.570792-4.8-15.153754h-.8l-.8-7.97566c-9.6-3.98783-16.8-13.558623-19.2-22.331849-3.2-11.165924-6.4-27.914811-7.2-43.068565 0-11.9634904 6.4-23.1294147 17.6-27.9148108 7.2-3.1902641 17.6-6.3805282 29.6-7.9756602 8-16.7488865 16.8-31.9026409 26.4-43.0685652 16.8-19.9391505 35.2-30.3075088 54.4-30.3075088s37.6 10.3683583 54.4 30.3075088c9.6 11.1659243 18.4 25.5221127 25.6 43.0685652 12 2.3926981 22.4 4.7853961 30.4 7.9756602 11.2 4.7853961 17.6 15.9513204 17.6 27.9148108-.8 17.546452-4.8 36.688037-7.2 43.866131-2.4 9.570792-9.6 19.141585-19.2 22.331849l-.8 7.97566h-.8c-.8 4.785396-2.4 10.368358-4.8 15.153754-4.8 12.761057-12 23.926981-21.6 33.497773-9.6 9.570793-20.8 17.546453-32.8 23.129415-12.8 4.785396-26.4 7.178094-40.8 7.178094z" fill="#fff"/><path d="m126.918924 19.2475113c45.461263 0 82.1493 97.3030547 82.1493 142.7643177s-36.688037 82.1493-82.1493 82.1493c-45.4612631 0-82.1493-36.688037-82.1493-82.1493s36.6880369-142.7643177 82.1493-142.7643177z" fill="#fcfbfa"/><path d="m231.400073 97.4089814-33.497773 11.9634906s4.785396 15.95132 5.582962 15.95132l33.497773-3.98783z" fill="#252526"/><path d="m23.2353414 97.4089814 33.4977729 11.9634906s-4.7853962 15.95132-5.5829622 15.95132l-33.4977729-3.98783z" fill="#252526"/><g fill="#e0e0e0"><path d="m92.6235853 95.0162833c8.7732257 0 10.3683587 7.1780947 10.3683587 8.7732267.797566 4.785396 1.595132 11.165924 2.392698 17.546452 0 1.595132 0 3.190264-.797566 4.785396-.797566-3.98783-.797566-7.97566-1.595132-11.96349 0-1.595132-2.392699-8.773226-10.3683587-8.773226-4.7853962 0-21.5342826.797566-37.4856031 3.190264.7975661-3.98783 2.3926981-7.178095 3.9878301-11.1659246 14.3561884-2.3926981 28.7123768-3.1902641 33.497773-2.3926981z"/><path d="m209.068224 158.023999c-29.509942-1.595132-55.032055-11.165924-60.615017-14.356188-4.785396-2.392698-10.368359-6.380529-11.963491-17.546453-.797566 12.761057 1.595132 23.926981 12.761057 29.509943.797566.797566 23.129414 11.165924 59.019885 13.558622v-7.178094c.797566-1.595132.797566-3.190264.797566-3.98783z"/><path d="m45.56719 158.023999c29.5099428-1.595132 55.032055-11.165924 60.615018-14.356188 4.785396-2.392698 10.368358-6.380529 11.96349-17.546453.797566 12.761057-1.595132 23.926981-12.761056 29.509943-.797566.797566-23.129415 11.165924-59.019886 13.558622v-7.178094c-.797566-1.595132-.797566-3.190264-.797566-3.98783z"/><path d="m161.214263 95.0162833c-8.773226 0-10.368358 7.1780947-10.368358 8.7732267-.797566 4.785396-1.595132 11.165924-2.392698 17.546452 0 1.595132 0 3.190264.797566 4.785396.797566-3.98783.797566-7.97566 1.595132-11.96349 0-1.595132 2.392698-8.773226 10.368358-8.773226 4.785396 0 21.534283.797566 37.485603 3.190264-.797566-3.98783-2.392698-7.178095-3.98783-11.1659246-14.356188-2.3926981-28.712377-3.1902641-33.497773-2.3926981z"/></g><path d="m55.1379822 85.4454911c7.9756602-19.1415846 17.5464525-36.688037 27.9148108-48.6515274 13.5586224-16.7488864 28.712377-25.5221127 43.866131-25.5221127 15.153755 0 29.509943 8.7732263 43.866131 25.5221127 10.368359 12.7610564 19.939151 29.5099428 27.914811 48.6515274v.797566h-.797566c-3.190264 0-4.785396-.797566-7.97566-.797566-8.773226-21.5342826-24.724547-48.6515274-44.663697-60.6150177-6.380528-3.1902641-11.963491-5.5829621-18.344019-5.5829621s-11.96349 1.595132-18.344018 5.5829621c-19.9391509 11.1659243-35.0929053 39.0807351-44.6636975 60.6150177-3.1902641 0-4.7853962.797566-7.9756602.797566h-.7975661z" fill="#56555c"/><path d="m209.86579 147.655641h-6.380528-.797566v-.797566c-1.595132-15.951321-6.380528-33.497773-12.761056-51.0442257l-.797566-1.595132h1.595132c2.392698 0 4.785396.797566 7.178094.797566h.797566v.797566c5.582962 17.5464527 10.368358 35.8904707 11.96349 51.0442257v.797566z" fill="#56555c"/><path d="m202.687696 108.574906c-1.595132-3.98783-2.392698-7.975661-3.98783-11.9634906v-.7975661h-.797566c-2.392698-.797566-4.785396-.797566-7.178094-.797566h-1.595132l.797566 1.5951321c1.595132 3.9878296 2.392698 7.9756606 3.98783 11.9634906 3.98783-.797566 6.380528-.797566 8.773226 0z" fill="#252526"/><path d="m43.9720579 146.060509c1.5951321-15.153755 6.3805282-33.497773 11.9634904-51.0442257v-.797566h.797566c2.392698 0 4.7853961-.797566 7.1780942-.797566h1.595132l-.797566 1.595132c-6.3805282 17.5464527-10.3683583 35.8904707-12.7610564 51.0442257v.797566h-.797566-6.3805281-.7975661z" fill="#56555c"/><path d="m56.7331143 95.0162833c-2.3926981 4.7853961-3.1902641 8.7732267-4.7853962 12.7610567 3.9878302-.797566 5.5829622-.797566 8.7732263-.797566 1.595132-3.98783 2.392698-7.9756606 3.9878301-11.9634907l.797566-1.595132h-1.595132c-2.3926981.797566-4.7853962 1.595132-7.1780942 1.595132z" fill="#252526"/><path d="m126.918924 251.339224c-11.96349 0-23.92698-2.392699-35.0929048-7.178095-11.1659243-4.785396-20.7367165-11.165924-28.7123768-19.93915-7.9756602-8.773226-14.3561883-18.344019-19.1415845-29.509943-4.7853961-11.165924-6.3805281-23.926981-6.3805281-36.688037v-.797566h.797566 7.1780942.797566v.797566c-.797566 11.96349 1.595132 22.331849 5.5829621 33.497773 3.9878302 10.368358 9.5707923 19.141584 16.7488865 27.117245 7.1780942 7.97566 16.7488865 14.356188 26.3196787 18.344018 10.3683587 4.785396 20.7367167 6.380528 31.9026407 6.380528s22.331849-2.392698 31.902641-6.380528 19.141585-10.368358 26.319679-18.344018c7.178094-7.975661 13.558622-16.748887 16.748886-27.117245 3.98783-10.368358 5.582962-21.534283 5.582962-33.497773v-.797566h.797566 7.178095.797566v.797566c.797566 12.761056-1.595132 24.724547-6.380529 36.688037-3.98783 11.165924-10.368358 20.736717-19.141584 29.509943-7.97566 8.773226-18.344019 15.153754-28.712377 19.93915-10.368358 3.98783-22.331848 7.178095-35.092905 7.178095z" fill="#56555c"/><path d="m46.364756 168.392357v-10.368358-.797566h-.797566-7.1780942-.797566v.797566 10.368358z" fill="#252526"/><path d="m216.246319 157.226433h-7.178095-.797566v.797566 10.368358h7.975661z" fill="#252526"/><path d="m221.031715 164.404527c-18.344019 0-35.092905-4.785396-51.044226-8.773226-7.97566-2.392698-15.153754-6.380528-20.736716-8.773226v-.797566c-13.558623-6.380528-14.356189-20.736717-13.558623-32.700207 0-3.190264-.797566-7.178094-3.98783-9.570792-1.595132-.797566-3.190264-1.595132-4.785396-1.595132s-3.98783.797566-4.785396 1.595132c-3.190264 2.392698-3.98783 6.380528-3.98783 9.570792 1.595132 11.96349.797566 25.522113-13.558622 31.902641-5.5829626 2.392698-12.7610568 7.97566-20.736717 10.368358-15.9513204 3.98783-32.7002069 8.773226-51.0442254 8.773226-7.1780942 0-13.5586223-7.178094-15.1537544-14.356188-2.3926981-10.368358-6.3805282-27.117245-6.3805282-41.473433 0-5.582962 3.1902641-11.9634906 8.7732263-14.3561887 19.1415845-8.7732262 58.2223196-11.9634903 74.971206-11.9634903 6.3805277 0 11.1659247 2.392698 15.1537547 6.3805281 5.582962-2.392698 11.165924-3.9878301 16.748886-3.9878301s11.165924 1.5951321 16.748887 3.9878301c3.190264-3.190264 7.97566-6.3805281 15.153754-6.3805281 9.570792 0 52.639357 1.595132 74.971206 11.1659243 5.582962 2.392698 8.773226 7.9756597 8.773226 13.5586227-.797566 14.356188-3.98783 32.700207-6.380528 43.068565-1.595132 7.178094-7.97566 14.356188-15.153754 14.356188zm-59.817452-69.3882437c-7.97566 0-9.570792 7.1780947-10.368358 7.9756607-.797566 3.98783-1.595132 10.368358-2.392698 17.546452 0 6.380528 2.392698 11.165924 7.178094 13.558622 17.546452 7.975661 38.283169 11.963491 62.21015 11.963491 1.595132 0 3.190264-1.595132 3.98783-3.190264 2.392698-8.773227 5.582962-22.331849 5.582962-35.092905 0-.797566-.797566-2.392698-1.595132-2.392698-15.153755-7.9756606-51.044226-10.3683587-64.602848-10.3683587zm-133.9910915 10.3683587c-.797566.797566-1.5951321 1.595132-1.5951321 2.392698 0 12.761056 3.1902641 26.319678 5.5829622 35.092905.797566 1.595132 2.392698 3.190264 3.9878301 3.190264 24.7245467 0 44.6636972-3.98783 62.2101497-11.963491 4.7853966-2.392698 7.1780946-7.178094 7.1780946-13.558622 0-5.582962-.797566-11.165924-2.392698-17.546452 0-1.595133-1.595133-7.9756607-10.3683588-7.9756607-6.3805281 0-45.4612632 1.5951321-64.6028477 10.3683587z" fill="#252526"/></svg>