<svg height="256" preserveAspectRatio="xMidYMid" viewBox="0 0 256 256" width="256" xmlns="http://www.w3.org/2000/svg"><path d="m235.819158 190.017384s-22.505 17.784-31.886 25.068c-1.238.967-2.782 1.621-4.261.37-1.243-1.061-.586-3.248-.106-4.523 0 0 15.83-40.838 20.042-52.187.512-1.382 1.238-2.995 3.658-3.174 2.003-.143 3.263 1.695 3.613 2.389l11.358 22.121c1.866 3.812.842 7.274-2.418 9.933zm-61.628 40.684c-1.308 3.385-6.371 7.663-11.187 6.724-.757-.147-2.68-.642-3.431-.853-1.024-.256-129.2340004-33.544-131.0040004-34.056-4.352-1.261-7.242-3.078-8.448-6.728-1.032-3.109 1.081-7.964 2.555-10.416 4.084-6.79 61.753-102.0590003 62.236-102.8750003 2.276-3.84 4.933-5.931 9.378-6.326l127.7450004-10.718c3.319-.293 7.583-.529 9.685 2.582 2.865 4.25 1.963 7.632.882 10.451 0 0-56.784 147.9740003-58.414 152.2070003zm-153.4070004-181.3990003c-.296-1.223-1.001-4.628.617-5.851 2.199-1.658 4.438-.501 6.099.512l37.296 22.892c3.926 2.389 5.021 7.709 2.634 12.45l-21.891 36.0850003c-.662.967-2.238 4.025-4.943 3.652-2.532-.347-3.058-2.486-3.348-3.368l-16.47-66.3780003zm20.765-24.974 109.5760004-7.567c5.558-.497 10.331 1.184 15.352 3.584 12.535 6.008 46.461 22.796 46.461 22.796 1.707.805 3.789 2.162 3.186 3.917-.89 2.568-3.607 2.497-5.524 2.665l-120.4480004 10.103c-3.351 0-6.116-.796-9.009-2.457l-41.011-25.162c-1.655-1.075-3.072-2.691-2.532-5.015.666-2.856 3.949-2.867 3.949-2.867zm189.4690004 104.6470003 22.619-59.1190003c6.03-15.167-.097-25.486-11.407-30.868l-67.496-33.12099997c-7.523-3.598-13.346-6.505-24.448-5.746l-127.4600004 8.818c-6.405.617-13.90900002 4.07299997-17.96000002 9.67099997-4.06999999 5.618-5.128 14.945-3.444 21.652l26.16900002 104.9120003c-2.907 4.352-18.09100002 29.938-23.38200002 38.656-3.74599999 6.161-5.762 12.843-2.753 19.835 2.901 6.733 10.01200002 11.5 17.16100002 13.406 35.962 9.574 145.0300004 37.751 146.1110004 38.03 2.076.557 3.8.896 5.936.896 5.476 0 10.544-2.099 14.797-5.447l61.298-48.071c8.874-7.012 11.787-19.067 6.713-29.088l-22.452-44.422z" fill="#ff9016"/></svg>