<svg height="256" preserveAspectRatio="xMidYMid" viewBox="0 0 256 256" width="256" xmlns="http://www.w3.org/2000/svg"><path d="m255.95919 134.393266c0-21.521466-13.372562-40.1176849-33.222458-47.4308047.835785-4.5968181 1.253678-8.9846899 1.253678-13.7904543 0-39.908739-32.386673-72.29541207-72.295412-72.29541207-23.193037 0-44.92345 11.07415267-58.5049581 30.08826397-6.6862809-5.2236569-14.8351858-7.9399585-23.4019831-7.9399585-21.1035741 0-38.4461151 17.1335947-38.4461151 38.4461151 0 4.5968181.8357851 9.1936362 2.298409 13.3725617-20.0588426 6.8952272-33.6403507 26.1182848-33.6403507 47.4308048 0 21.521467 13.3725618 40.326632 33.4314044 47.639752-.8357851 4.387871-1.2536776 8.98469-1.2536776 13.790454 0 39.699793 32.386673 72.086466 72.0864662 72.086466 23.401983 0 44.923449-11.283099 58.504957-30.088264 6.686281 5.223657 15.044132 8.148905 23.61093 8.148905 21.103574 0 38.446115-17.133595 38.446115-38.446116 0-4.596818-.835785-9.193636-2.298409-13.372561 19.64095-7.104174 33.431404-26.327231 33.431404-47.639752z" fill="#fff"/><path d="m100.085267 110.364444 57.042334 26.118285 57.669172-50.564999c.835786-4.1789256 1.253678-8.3578512 1.253678-12.745723 0-35.5208672-28.834586-64.35545352-64.355453-64.35545352-21.312521 0-41.162417 10.44731392-53.0723549 27.99880122l-9.6115288 49.7292141z" fill="#f4bd19"/><path d="m40.9534704 170.749919c-.8357851 4.178925-1.2536776 8.566797-1.2536776 12.954669 0 35.520867 29.0435326 64.5644 64.5644002 64.5644 21.521466 0 41.371363-10.65626 53.490247-28.207748l9.402582-49.729214-12.745723-24.237768-57.2512799-26.118285z" fill="#3cbeb1"/><path d="m40.5355779 71.9183293 39.0729539 9.1936363 8.7757437-44.5055572c-5.4326033-4.1789255-11.9099379-6.2683883-18.805165-6.2683883-16.9246485 0-30.9240491 13.7904543-30.9240491 30.9240491 0 3.5520867.6268388 7.3131197 1.8805165 10.6562601z" fill="#e9478c"/><path d="m37.1924374 81.3209118c-17.5514873 5.6415495-29.6703714 22.5661982-29.6703714 40.9534702 0 17.96938 11.0741527 34.058244 27.7898549 40.326632l54.9528711-49.729214-10.0294214-21.5214668z" fill="#2c458f"/><path d="m167.783861 219.852294c5.432603 4.178926 11.909938 6.477335 18.596219 6.477335 16.924648 0 30.924049-13.790455 30.924049-30.92405 0-3.761033-.626839-7.313119-1.880517-10.65626l-39.072954-9.193636z" fill="#95c63d"/><path d="m175.72382 165.317315 43.042933 10.029422c17.551487-5.850496 29.670371-22.566198 29.670371-40.953471 0-17.96938-11.074153-33.849297-27.789855-40.3266312l-56.415495 49.3113212z" fill="#176655"/></svg>