<svg height="79" preserveAspectRatio="xMidYMid" viewBox="0 0 512 79" width="512" xmlns="http://www.w3.org/2000/svg"><g fill="#47848f"><path d="m107.802122 62.6938776h28.173584c.801437 0 1.479576-.6781388 1.479576-1.4795756 0-.8014367-.678139-1.4795755-1.479576-1.4795755h-26.57071v-17.3233632h23.488261c.801437 0 1.479576-.6781388 1.479576-1.4795755 0-.8014368-.678139-1.4795756-1.479576-1.4795756h-23.488261v-16.9534693h26.262465c.801437 0 1.479576-.6781388 1.479576-1.4795756 0-.8014367-.678139-1.4795755-1.479576-1.4795755h-27.865339c-.863085 0-1.602873.7397878-1.602873 1.6028735v39.9485388c0 .8630857.739788 1.6028735 1.602873 1.6028735zm49.213497-1.6028735c0 .8630857.739787 1.6028735 1.602873 1.6028735h25.707625c.801437 0 1.479575-.6781388 1.479575-1.4795756 0-.8014367-.678138-1.4795755-1.479575-1.4795755h-24.104751v-38.8388571c0-.8630857-.739788-1.6028735-1.602874-1.6028735s-1.602873.7397878-1.602873 1.6028735zm49.275145 1.6028735h28.173583c.801437 0 1.479576-.6781388 1.479576-1.4795756 0-.8014367-.678139-1.4795755-1.479576-1.4795755h-26.57071v-17.3233632h23.488261c.801437 0 1.479576-.6781388 1.479576-1.4795755 0-.8014368-.678139-1.4795756-1.479576-1.4795756h-23.488261v-16.9534693h26.262466c.801436 0 1.479575-.6781388 1.479575-1.4795756 0-.8014367-.678139-1.4795755-1.479575-1.4795755h-27.865339c-.863086 0-1.602874.7397878-1.602874 1.6028735v39.9485388c0 .8630857.739788 1.6028735 1.602874 1.6028735zm68.756223.7397877c7.21293 0 11.959902-2.6509061 16.336979-6.7197388.246596-.2465959.493192-.6164898.493192-1.1096816 0-.8014367-.739788-1.5412245-1.541224-1.5412245-.493192 0-.863086.2465959-1.109682.4931918-4.068833 3.8838858-8.199314 5.9799511-14.055967 5.9799511-10.29538 0-18.248098-8.5075592-18.248098-19.4194286v-.123298c0-10.8502204 7.82942-19.2961306 18.186449-19.2961306 6.0416 0 10.172081 2.3426612 13.747722 5.6100572.246596.2465959.678139.4315428 1.109682.4315428.863085 0 1.664522-.7397877 1.664522-1.6028734 0-.5548409-.308245-.9863837-.61649-1.2946286-4.19213-3.5756408-8.692506-6.0416-15.843787-6.0416-12.453094 0-21.577143 10.1104326-21.577143 22.3169306v.123298c0 12.3914449 9.124049 22.1936326 21.453845 22.1936326zm47.425675-2.0960653c0 .8630857.739788 1.6028735 1.602874 1.6028735.863085 0 1.602873-.7397878 1.602873-1.6028735v-38.8388571h13.809372c.801436 0 1.479575-.6781388 1.479575-1.4795756 0-.8014367-.678139-1.4795755-1.479575-1.4795755h-30.82449c-.801437 0-1.479576.6781388-1.479576 1.4795755 0 .8014368.678139 1.4795756 1.479576 1.4795756h13.809371zm37.500191 0c0 .8630857.739787 1.6028735 1.602873 1.6028735s1.602873-.7397878 1.602873-1.6028735v-16.5219265h14.117617l13.25453 17.2617143c.369894.4931918.801437.8630857 1.417927.8630857.863086 0 1.664522-.8014368 1.664522-1.6645225 0-.3698939-.184947-.7397877-.493191-1.1096816l-12.268147-15.9054367c7.274579-.9863837 12.63804-5.1168654 12.63804-12.329796v-.1232979c0-3.082449-1.232979-5.979951-3.267396-8.0143674-2.589257-2.5892571-6.843036-4.2537796-12.144848-4.2537796h-16.521927c-.863086 0-1.602873.7397878-1.602873 1.6028735zm3.205746-19.4194286v-19.4194285h14.734107c7.82942 0 12.391444 3.6372898 12.391444 9.4322938v.123298c0 6.2265469-5.363461 9.8638367-12.576391 9.8638367zm70.605692 21.5154939c13.069584 0 21.76209-10.5419755 21.76209-22.3169306v-.123298c0-11.7749551-8.569208-22.1936326-21.638792-22.1936326-13.069583 0-21.76209 10.5419755-21.76209 22.3169306v.123298c0 11.7749551 8.569209 22.1936326 21.638792 22.1936326zm.123298-2.897502c-10.665273 0-18.433045-8.7541551-18.433045-19.4194286v-.123298c0-10.6652734 7.644474-19.2961306 18.309747-19.2961306 10.665274 0 18.433045 8.7541551 18.433045 19.4194286v.123298c0 10.6652734-7.644473 19.2961306-18.309747 19.2961306zm42.062215.8630857c0 .8630857.678139 1.5412245 1.541225 1.5412245.863085 0 1.541224-.6781388 1.541224-1.5412245v-37.1743347l29.653159 37.6058775c.493192.6164898.986384 1.0480327 1.602874 1.0480327h.246596c.739787 0 1.294628-.6164898 1.294628-1.3562776v-40.6883265c0-.8630857-.678139-1.5412245-1.541224-1.5412245-.863086 0-1.541225.6781388-1.541225 1.5412245v36.372898l-29.098318-36.9277388c-.431543-.5548408-.924735-.9247347-1.602874-.9247347h-.493192c-.863085 0-1.602873.7397878-1.602873 1.6028735z"/><path d="m25.5094119 16.8060461c-10.189902-1.8559214-18.24665381.0865501-21.45769265 5.6482325-2.39614909 4.150252-1.71122931 9.6527946 1.66106724 15.5346747.28703222.5006348.92556252.673794 1.42619732.3867618.5006348-.2870323.67379393-.9255626.38676172-1.4261974-3.03780332-5.2984649-3.62891548-10.0473713-1.66420992-13.4503412 2.66742366-4.6201133 9.85390669-6.3527642 19.27341489-4.6371572.5677413.1034047 1.1118127-.2730146 1.2152173-.8407559s-.2730146-1.1118126-.8407559-1.2152173zm-14.4975373 28.332292c4.120228 4.5278253 9.4730923 8.7746977 15.5777329 12.2992137 14.7814211 8.5340573 30.5172879 10.8151077 38.2725759 5.52711.4767917-.3251038.5997589-.9751682.2746557-1.4519599-.3251039-.4767916-.9751688-.5997594-1.4519605-.2746556-6.9408909 4.7326955-21.8888251 2.5658629-36.0503731-5.6103111-5.9221877-3.4191762-11.1055187-7.5315441-15.0769909-11.8958978-.3883945-.4268167-1.0492537-.4579641-1.4760703-.0695696-.4268167.3883944-.4579641 1.0492535-.0695697 1.4760703z"/><path d="m62.388258 43.8671979c6.6721013-7.882046 9.0017682-15.8096113 5.7973415-21.3598414-2.3578776-4.083964-7.342498-6.2401256-13.9669797-6.3262776-.5770323-.0075044-1.050893.4541893-1.0583975 1.0312217-.0075045.5770325.4541895 1.0508932 1.0312218 1.0583975 5.9578859.0774829 10.2522389 1.9350605 12.1843388 5.2815564 2.6616597 4.6101294.5841152 11.6797535-5.5825794 18.9647401-.3728484.4404621-.3180367 1.0997805.1224254 1.4726288s1.0997807.3180365 1.4726291-.1224255zm-17.1472223-26.7132136c-6.0326793 1.2925279-12.4539223 3.8196804-18.6207836 7.3801194-15.2590261 8.8098028-25.21283488 21.8001728-23.83041715 31.2193683.08379819.5709646.61458832.9658911 1.18555293.8820929s.96589101-.6145886.88209282-1.1855532c-1.22744114-8.3632519 8.2077943-20.6768498 22.8076694-29.1060916 5.9823454-3.4539088 12.1998234-5.9008673 18.0136974-7.1465152.564275-.1208984.9237028-.6763412.8028044-1.2406162s-.6763412-.9237028-1.2406162-.8028044z"/><path d="m20.5208313 62.28374c3.4884858 9.7411072 9.1956458 15.7386469 15.6131504 15.7386469 4.6804062 0 9.0106995-3.1904893 12.387437-8.8075823.2973254-.4945909.1374099-1.1365663-.3571812-1.4338915-.494591-.2973252-1.1365661-.1374098-1.4338915.3571811-3.0346688 5.0480729-6.7622543 7.7944968-10.5963643 7.7944968-5.3308604 0-10.4211436-5.3492762-13.6457118-14.3534304-.1945641-.5432932-.7927157-.825994-1.3360089-.6314298s-.8259939.792716-.6314297 1.3360092zm31.8647627-1.9054692c1.8059222-5.771044 2.7758467-12.4284742 2.7758467-19.3659041 0-17.3108647-6.0587224-32.23348085-14.6885713-36.06539611-.5274246-.23419248-1.1448371.00351901-1.3790296.53094348-.2341925.52742452.003519 1.14483707.5309435 1.37902958 7.696782 3.41760515 13.4468614 17.58003475 13.4468614 34.15542305 0 6.7304366-.9392969 13.1776433-2.6804757 18.7417923-.1723437.5507454.1344114 1.1369248.6851567 1.3092681.5507453.1723439 1.1369249-.1344109 1.3092683-.6851563z"/><path d="m72.0650486 59.3545791c0-2.7620096-2.2390518-5.0010614-5.0010614-5.0010614-2.7620101 0-5.0010619 2.2390518-5.0010619 5.0010614 0 2.7620101 2.2390518 5.0010613 5.0010619 5.0010613 2.7620096 0 5.0010614-2.2390512 5.0010614-5.0010613zm-2.089796 0c0 1.6078477-1.3034182 2.9112654-2.9112654 2.9112654-1.6078477 0-2.911266-1.3034177-2.911266-2.9112654 0-1.6078472 1.3034183-2.9112655 2.911266-2.9112655 1.6078472 0 2.9112654 1.3034183 2.9112654 2.9112655z"/><path d="m5.13204726 64.3556404c2.76200996 0 5.00106144-2.2390512 5.00106144-5.0010613 0-2.7620096-2.23905148-5.0010614-5.00106144-5.0010614-2.76200998 0-5.00106144 2.2390518-5.00106144 5.0010614 0 2.7620101 2.23905146 5.0010613 5.00106144 5.0010613zm0-2.0897959c-1.60784756 0-2.91126552-1.3034177-2.91126552-2.9112654 0-1.6078472 1.30341796-2.9112655 2.91126552-2.9112655 1.60784754 0 2.91126548 1.3034183 2.91126548 2.9112655 0 1.6078477-1.30341794 2.9112654-2.91126548 2.9112654z"/><path d="m36.1339817 10.0483057c2.7620099 0 5.0010614-2.23905146 5.0010614-5.00106137 0-2.76200998-2.2390515-5.00106145-5.0010614-5.00106145-2.76201 0-5.0010614 2.23905147-5.0010614 5.00106145 0 2.76200991 2.2390514 5.00106137 5.0010614 5.00106137zm0-2.08979588c-1.6078476 0-2.9112655-1.30341799-2.9112655-2.91126549 0-1.60784757 1.3034179-2.91126553 2.9112655-2.91126553 1.6078475 0 2.9112655 1.30341796 2.9112655 2.91126553 0 1.6078475-1.303418 2.91126549-2.9112655 2.91126549z"/><path d="m36.8978565 44.5490574c-1.9533567.4220572-3.8778054-.8193361-4.3006885-2.7726928-.4212313-1.9533567.8193361-3.8778053 2.7726928-4.3006885 1.9533566-.4220572 3.8778053.8193361 4.3006885 2.7726928.4220571 1.9533566-.8193361 3.8778053-2.7726928 4.3006885z"/></g></svg>