<svg height="256" preserveAspectRatio="xMidYMid" viewBox="0 0 256 256" width="256" xmlns="http://www.w3.org/2000/svg"><path d="m128 0c-70.6925714 0-128 57.3074286-128 128 0 70.692571 57.3074286 128 128 128 70.692571 0 128-57.307429 128-128 0-70.6925714-57.307429-128-128-128zm0 10.6605714c53.741714 0 99.053714 36.1142857 112.941714 85.3942857-11.931428 24.6857139-28.982857 46.9028569-49.691428 64.8777139-9.965715 8.621715-20.845715 16.310858-32.859429 21.723429s-25.234286 8.484571-38.4 7.734857c-9.874286-.576-19.657143-3.328-28.2879999-8.137143 22.9485719-12.434285 43.6388569-29.001143 60.5805719-48.841143 11.154285-13.028571 20.845714-27.84 24.594285-44.5531424 1.901715-8.3565715 2.194286-17.0971429.457143-25.4902857-1.737143-8.3931429-5.613714-16.3657143-11.483428-22.6194286-5.732572-6.0891429-13.257143-10.4228572-21.321143-12.6354286-8.045715-2.2217143-16.64-2.3954286-24.868572-.896-16.457143 3.0171429-31.1771426 12.5805714-42.9439997 24.4571429-20.7817143 20.9371428-33.6274286 50.4868574-31.2685714 79.8902854 1.1885714 14.701715 6.1074285 29.147429 14.5371428 41.234286 1.8925714 2.706286 3.968 5.275429 6.1805714 7.707429-12.2971428 4.324571-25.0514285 7.387428-37.9428571 9.115428-11.0902857-17.92-17.4994286-39.04-17.4994286-61.650286 0-64.8228567 52.5165715-117.3394281 117.3211426-117.3394281zm.731429 23.68c8.265142 0 16.566857 2.5051429 23.149714 7.4971429 5.924571 4.48 10.331428 10.8251428 12.8 17.8285714 2.496 7.0034286 3.136 14.6011429 2.285714 21.9885714-1.691428 14.7657143-9.142857 28.3062859-18.139428 40.1371429-15.936 20.937143-37.12 37.696-60.6720004 49.435429-2.4045715 1.188571-4.8457143 2.340571-7.3142857 3.437714-5.12-4.48-9.5085715-9.782857-12.8731429-15.725714-6.9942857-12.397715-9.2982857-27.108572-7.9542857-41.270858 1.3714286-14.171428 6.2171428-27.812571 12.7542857-40.4571424 7.5702857-14.656 17.8925714-28.5257143 32.338286-36.5074286 7.222857-3.9954286 15.387428-6.4 23.634285-6.4zm115.547428 77.9154286c.685714 5.138286 1.051429 10.377143 1.051429 15.707429 0 64.804571-52.498286 117.339428-117.302857 117.339428-36.3885719 0-68.9371433-16.566857-90.4228576-42.578286 13.2754286-3.017142 26.2582857-7.36 38.7108572-12.873142 5.4582857 4.132571 11.4651428 7.533714 17.8651428 9.984 18.4045716 7.058285 39.3142856 6.034285 57.9474286-.411429 18.624-6.454857 35.154286-18.011429 49.554286-31.497143 17.161143-16.036571 31.634285-34.944 42.642285-55.68z" fill="#333"/></svg>