<svg height="229" preserveAspectRatio="xMidYMid" viewBox="0 0 256 229" width="256" xmlns="http://www.w3.org/2000/svg"><g transform="translate(0 -1)"><path d="m128 166.548c5.859 0 11.718-.154 17.506-.461-5.696 7.669-11.555 14.753-17.506 21.161-5.953-6.408-11.81-13.492-17.504-21.161 5.786.307 11.644.461 17.504.461m-51.487 53.714c-3.048 0-5.771-.656-8.099-2-11.183-6.457-13.153-28.73-5.355-58.609 11.184 2.583 23.247 4.465 35.952 5.612 7.343 10.428 15.006 19.934 22.838 28.33-17.403 17.178-33.736 26.667-45.336 26.667m102.977-.003c-11.599 0-27.935-9.486-45.338-26.664 7.828-8.393 15.492-17.896 22.834-28.322l.014-.008c12.701-1.147 24.762-3.029 35.943-5.612 7.795 29.879 5.827 52.152-5.357 58.609-2.328 1.343-5.047 1.997-8.096 1.997m-16.047-64.529c3.158-4.856 6.221-9.85 9.152-14.928 2.934-5.083 5.73-10.233 8.35-15.388 3.796 8.765 7.003 17.38 9.575 25.739-8.523 1.948-17.586 3.48-27.077 4.577m-70.885 0c-9.49-1.097-18.555-2.629-27.078-4.577 2.573-8.359 5.779-16.974 9.575-25.742 2.623 5.161 5.418 10.314 8.35 15.391 2.93 5.075 5.993 10.069 9.153 14.928m-35.651-6.732c-29.775-8.187-48.079-21.029-48.079-33.943 0-12.912 18.304-25.756 48.079-33.942 3.356 10.979 7.757 22.369 13.116 33.942-5.359 11.575-9.76 22.963-13.116 33.943m142.185 0c-3.354-10.977-7.756-22.368-13.115-33.943 5.359-11.575 9.761-22.964 13.115-33.942 29.776 8.185 48.08 21.028 48.08 33.942s-18.304 25.756-48.08 33.943m-124.037-44.301c-3.796-8.764-7.002-17.38-9.575-25.738 8.523-1.95 17.588-3.483 27.078-4.578-3.159 4.854-6.222 9.849-9.153 14.927-2.932 5.079-5.727 10.228-8.35 15.389m105.89 0c-2.62-5.156-5.416-10.306-8.35-15.389-2.934-5.081-5.997-10.076-9.152-14.927 9.491 1.095 18.554 2.628 27.077 4.578-2.572 8.356-5.779 16.971-9.575 25.738m-52.947 53.022c-8.105 0-16.209-.302-24.107-.905-4.474-6.543-8.789-13.405-12.842-20.426-4.059-7.031-7.843-14.198-11.267-21.333 3.424-7.135 7.208-14.303 11.267-21.333 4.057-7.028 8.372-13.89 12.842-20.426 7.898-.603 16.003-.905 24.109-.905s16.213.302 24.112.905c4.463 6.529 8.776 13.391 12.839 20.426 4.063 7.038 7.848 14.205 11.267 21.333-3.419 7.129-7.204 14.296-11.267 21.333-4.057 7.026-8.371 13.888-12.839 20.426-7.902.603-16.009.905-24.114.905m-17.502-93.696c5.694-7.669 11.553-14.752 17.504-21.159 5.951 6.405 11.81 13.49 17.506 21.159-5.788-.307-11.644-.462-17.506-.462s-11.718.155-17.504.462m-47.437 6.434c-7.798-29.879-5.828-52.152 5.355-58.609 2.327-1.343 5.049-1.998 8.097-1.998 11.598 0 27.934 9.488 45.337 26.666-7.828 8.393-15.49 17.897-22.832 28.321l-.015.008c-12.701 1.147-24.761 3.03-35.942 5.612m129.884 0c-11.184-2.583-23.248-4.467-35.952-5.612-7.344-10.429-15.008-19.935-22.839-28.329 17.405-17.18 33.737-26.668 45.336-26.668 3.048 0 5.77.656 8.098 2 11.184 6.457 13.152 28.73 5.357 58.609m-13.45-69.457c-14.175.001-32.128 10.066-51.46 29.15l-.033-.035-.033.035c-19.335-19.087-37.286-29.148-51.462-29.148-4.591 0-8.788 1.056-12.505 3.202-15.197 8.774-18.598 33.568-9.514 68.368l-.046.012.013.047c-34.682 9.533-54.453 24.875-54.453 42.424s19.771 32.891 54.453 42.425l-.013.046.046.012c-9.084 34.802-5.683 59.595 9.514 68.368 3.717 2.145 7.91 3.199 12.501 3.199 14.174 0 32.13-10.057 51.464-29.142l.035.034.033-.034c19.338 19.086 37.286 29.147 51.464 29.147 4.589-.003 8.785-1.058 12.503-3.204 15.195-8.773 18.598-33.566 9.514-68.368l.046-.012-.011-.046c34.678-9.534 54.451-24.876 54.451-42.425s-19.773-32.891-54.451-42.424l.011-.047-.046-.012c9.084-34.801 5.681-59.594-9.514-68.368-3.719-2.148-7.913-3.205-12.507-3.204" fill="#ebf8f9"/><path d="m185.101 113.174c-3.756-7.968-7.963-15.997-12.506-23.866-4.54-7.865-9.391-15.523-14.414-22.762l-1.187-1.708-2.072-.172c-17.597-1.464-36.252-1.464-53.842 0l-2.073.172-1.187 1.708c-5.03 7.248-9.879 14.906-14.415 22.762-4.539 7.859-8.744 15.889-12.503 23.866l-.886 1.881.886 1.882c3.759 7.974 7.964 16.006 12.503 23.865 4.53 7.848 9.381 15.506 14.415 22.762l1.187 1.709 2.073.173c8.795.733 17.852 1.103 26.92 1.103 9.066 0 18.124-.37 26.922-1.103l2.072-.173 1.187-1.709c5.029-7.248 9.879-14.905 14.414-22.762 4.543-7.868 8.75-15.899 12.506-23.865l.885-1.882z" fill="#31adb8"/><path d="m145.091 98.942v-8.898h-34.746v50.282h35.381v-8.899h-24.999v-12.288h22.739v-8.827h-22.739v-11.37z" fill="#fff"/></g></svg>