<svg height="213" preserveAspectRatio="xMidYMid" viewBox="0 0 512 213" width="512" xmlns="http://www.w3.org/2000/svg"><path d="m511.720614 146.402399c-1.243096-12.197876-10.100152-17.636419-18.413354-17.636419-3.80698 0-6.837026 1.087709-8.002428 1.553869l-1.631562.699242-1.398482 1.010015c-1.942338 1.476176-5.36085 3.496206-8.390896 4.583915-.155386-2.486191-.077694-5.671624.310774-8.313202l.077694-.466161c2.25311-21.443399-2.253112-33.9520482-13.363278-37.1374808-1.864644-.5438542-3.80698-.7769348-5.749318-.7769348-6.759332 0-12.74173 3.263126-16.626404 6.0600912-3.263126-4.1177542-8.701668-6.4485584-15.538694-6.4485584-10.177846 0-18.33566 4.7393018-21.288012 12.3532628-.310774.776934-.699242 1.942337-1.165402 3.496206-5.982398-13.2078908-18.180274-18.2579666-29.52352-18.2579666-10.7217 0-21.132626 4.1954476-25.0173 7.1477996-.155386.155387-.388468.2330806-.621548.466161-10.177844 7.225493-18.10258 16.31563-23.69651 27.27041-2.719272-9.478604-8.701668-18.33566-19.423368-25.0172992l-.155388-.155387c-.310774-.155387-.543854-.310774-.854628-.4661608 10.48862-18.646434 19.811836-43.3529592 14.217906-66.894082-5.904704-25.09499244-20.666464-28.82427924-28.979666-28.82427924-3.418512 0-6.914718.6215478-10.488618 1.8646434l-.233082.07769348-.23308.07769346c-15.616388 6.13778452-22.453414 15.383308-23.92959 17.5587253-1.55387 2.3308042-18.646434 28.280425-22.764188 66.2725342-.46616 4.1954476-.932322 8.5462822-1.398482 12.8971168-2.408498-3.4185128-6.370866-6.5262518-12.664038-8.4685888-1.942336-.6215478-3.962366-.8546282-5.982396-.8546282-8.623976 0-15.616389 5.2831564-19.345676 8.7793628l-.077693-.0776936c-3.263126-4.8169954-8.468589-7.691654-14.217906-7.9247344h-1.398483c-9.16783 0-16.471017 4.0400606-21.831866 8.6239758-3.418513-5.9823976-9.711685-9.7116844-17.092565-9.7116844-.621548 0-1.165402 0-1.709256.0776934h-1.243096c-10.177845 0-18.180273 4.8169954-21.443399 12.819423-.23308.621548-.543854 1.398483-.854628 2.408498-8.002428-9.9447646-18.1802732-14.6063732-31.8543248-14.6063732h-1.3207892c-8.5462822.155387-29.8342944 3.7292868-42.8867982 33.0974202-2.0200302 4.506222-3.5738998 9.090137-4.739302 13.596358-2.8746584-1.320789-5.5162366-1.631563-7.4585734-1.631563-6.8370259 0-11.96479524 3.884674-14.45098644 7.536267-2.02003034 2.952352-8.46858877 13.440972-5.2831563 23.69651 1.70925646 5.516237 5.67162368 9.711685 11.26555384 11.887102 4.894689 1.942337 11.1101669 3.80698 15.7717755 5.127769 2.8746586 6.526252 8.0024278 14.062519 17.0925644 20.977238 6.4485584 4.89469 14.6840668 7.38088 24.3957512 7.38088 16.3156298 0 32.0874054-7.070106 33.7966614-7.84704l.621548-.310774.155387-.155388c3.107739 3.263126 7.225493 5.59393 12.430956 6.603946 1.553869.310774 3.5739.543854 5.904704.543854 8.857056 0 14.994841-4.506222 20.666464-12.97481 4.661609 7.303186 13.130198 11.42094 23.152656 11.42094h.077693c.543855 0 1.087709.388468 1.709257.388468 5.283156 0 11.887102-1.864644 17.403338-10.721699 4.583915 8.235509 12.974811 12.974811 22.919575 12.974811 8.857056 0 16.54871-3.651594 17.947194-4.350836l.310772-.155386c2.952354-1.55387 5.438544-2.952352 7.380882-4.040062 6.603944 3.496208 16.626402 7.380882 28.901972 7.380882 2.097724 0 4.195448-.077694 6.293172-.310774l.543854-.077694.543854-.077694c26.027314-5.12777 42.964492-11.343247 53.064644-16.082549 7.070106 7.924735 18.33566 15.538695 34.418208 16.704097 1.78695.155386 3.651594.23308 5.438544.23308 13.20789 0 23.774204-3.729286 31.54355-7.84704 2.486192 2.641578 5.59393 5.050076 9.633992 6.681638 2.408498 1.010016 4.894688 1.476176 7.458574 1.476176 16.160242 0 23.69651-19.267982 25.794232-25.794233l3.884674-10.410926c3.418514 3.651593 7.769348 6.603945 13.285584 8.157815 3.030046.854628 6.293172 1.320789 9.633992 1.320789 17.791806 0 34.88437-12.586343 37.603642-14.684067 4.894688-4.040061 10.255538-12.353262 9.090136-23.774203" fill="#fff"/><path d="m348.727318 151.667375s-2.253112-7.924735 6.137784-23.230349c8.313202-15.227921 14.839454-6.914719 14.839454-6.914719s7.1478 7.769347-1.010016 19.345675c-8.157814 11.654021-19.967222 10.799393-19.967222 10.799393m-64.097118 11.032473c-9.556296 25.017299-32.786646 14.839454-32.786646 14.839454s-2.641578-8.93475 4.89469-34.029742c7.536266-25.017299 25.250378-15.227921 25.250378-15.227921s12.197876 9.40091 2.641578 34.418209m-17.325644-104.8084974s14.450986-37.6813354 17.947192-19.3456754c3.496208 18.3356602-30.300454 72.8764798-30.300454 72.8764798.310774-12.2755692 12.353262-53.5308044 12.353262-53.5308044m-206.6646434 93.7760244c.6215478-24.240364 16.4710166-34.806677 21.9872534-29.523521 5.5162368 5.283157 3.4962064 16.704097-6.9147192 23.851897-10.3332322 7.1478-15.0725342 5.671624-15.0725342 5.671624m437.8804254-3.962367c-.776936-8.157815-8.157816-5.12777-8.157816-5.12777s-11.809408 9.16783-22.220334 8.157815c-10.333232-1.087709-7.070106-24.240364-7.070106-24.240364s2.253112-21.288012-3.884674-23.074962c-6.137784-1.78695-13.67405 5.516237-13.67405 5.516237s-9.400912 10.410925-13.82944 23.618816l-1.243094.388467s1.398482-23.230349-.233082-28.513505c-1.243094-2.641578-12.430956-2.408498-14.217906 2.253111-1.864642 4.661608-10.799392 37.215174-11.42094 50.889226 0 0-17.481032 14.839454-32.786646 17.325645-15.305616 2.408498-18.957208-7.1478-18.957208-7.1478s41.566008-11.576328 40.089832-44.751441c-1.398482-33.1751142-33.485888-20.899545-37.13748-18.180274-3.496206 2.641579-22.220334 13.907132-27.73657 45.217603-.155388 1.087708-.543856 5.749317-.543856 5.749317s-16.082548 10.799393-25.017298 13.674052c0 0 25.017298-42.109864-5.516236-61.300152-13.82944-8.313202-24.861912 9.16783-24.861912 9.16783s41.332928-45.9945374 32.165098-84.9189682c-4.350834-18.4910471-13.596358-20.5110774-22.14264-17.4810319-12.897118 5.1277693-17.791806 12.5863429-17.791806 12.5863429s-16.704098 24.2403642-20.588772 60.2901366c-3.884674 36.0497726-9.556296 79.5581186-9.556296 79.5581186s-7.924736 7.769347-15.227922 8.157815c-7.303186.388467-4.04006-21.754173-4.04006-21.754173s5.671624-33.796662 5.283156-39.468286c-.388468-5.671623-.776934-8.779362-7.536268-10.799393-6.681638-2.02003-14.062518 6.526252-14.062518 6.526252s-19.345675 29.29044-20.977238 33.796662l-1.010016 1.864643-1.010015-1.243095s13.674052-39.934446.621548-40.478301c-13.052504-.621548-21.598786 14.217906-21.598786 14.217906s-14.839454 24.861912-15.461002 27.658877l-1.010015-1.243095s6.137785-28.901973 4.894689-36.049773c-1.243095-7.147799-7.924734-5.671623-7.924734-5.671623s-8.546283-1.010016-10.799393 4.506221c-2.253111 5.516237-10.410926 41.954477-11.420941 53.530804 0 0-21.3657058 15.305615-35.4282246 15.461002-14.062519.23308-12.586343-8.93475-12.586343-8.93475s51.5107736-17.636419 37.4482546-52.443095c-6.2931712-8.93475-13.6740512-11.731715-24.0072834-11.576328-10.4109258.23308-22.6088012 6.526252-30.9996966 25.250379-3.9623672 8.93475-5.5939302 17.403339-5.5939302 23.851897s-9.6339908 1.864643-14.5286798-2.253111c-4.894689-4.04006-7.691654 0-7.691654 0s-8.54628226 12.197876-.2330804 15.461002c8.3132018 3.263126 21.2103186 6.293171 21.2103186 6.293171 1.1654022 5.283157 4.6616086 13.907132 14.8394538 21.598786 15.227921 11.576329 44.5960546-1.78695 44.5960546-1.78695l12.0424884-7.147799s.388468 10.799393 9.16783 12.430956c8.779363 1.631563 12.430956-.155387 27.658877-37.137481 8.93475-18.957208 9.556298-17.947193 9.556298-17.947193l1.010015-.233081s-6.914719 36.20516-4.273141 45.994538 14.217906 8.779362 14.217906 8.779362 6.293171 2.253111 11.420941-15.694082c5.127769-17.947192 14.839453-36.67132 14.839453-36.67132h1.243096s-4.273141 36.049773 2.253111 47.859181c6.526251 11.809408 23.385735 3.496206 23.385735 3.496206s11.809408-6.215478 13.674052-8.080121c0 0 13.984826 11.809408 33.796662 9.633991 44.207588-8.70167 59.901668-20.511078 59.901668-20.511078s7.613962 19.190289 31.07739 20.977239c26.881944 2.02003 41.56601-14.917148 41.56601-14.917148s-.23308 10.95478 9.16783 14.839454c9.40091 3.884673 15.694082-16.626404 15.694082-16.626404l15.694082-42.03217h1.398482s.776936 26.881943 16.31563 31.388164c15.616388 4.428528 35.738998-11.110167 35.738998-11.110167s4.89469-3.263126 4.040062-11.42094" fill="#e24b31"/></svg>