<svg height="225" preserveAspectRatio="xMidYMid" viewBox="0 0 256 225" width="256" xmlns="http://www.w3.org/2000/svg"><path d="m0 0h256v225h-256z" fill="#fff"/><g fill="#a90533" transform="translate(6.336634 5.70297)"><path d="m38.0033267 153.956119c-18.8033267-19.924911-29.80499007-47.451248-29.77710888-80.29402-.0259802-29.0452277 9.10003958-54.0109307 24.78891088-73.00815841l-.0253465.00950496h-32.97584161v153.29584145h37.96594061z"/><path d="m211.672713 153.968792c8.100119-8.675485 15.358099-18.892673 21.934891-30.577426l-36.49901-18.249505c-12.818376 20.839288-31.56404 40.020911-57.485941 40.148911-37.726415-.128-52.5490688-32.387802-52.4673263-73.9104948h140.9774253c.188198-4.6878416.188198-6.8676435 0-9.1241188.92008-24.7033663-5.62693-45.4678812-17.536633-61.63833662l-.061466.04625743h31.741466v153.29584179h-30.672475z"/><path d="m89.4371485 35.7937426c1.5607129-18.7995248 16.3827325-31.44237626 33.7615845-31.48039607 17.497346.03801981 30.139564 12.68087127 30.56792 31.48039607z"/></g><g transform="translate(6.336634 178.059406)"><path d="m20.0890297 7.60839604v-6.38669307h-19.61821782v37.86772273h19.61821782v-6.3879604h-12.31841584v-10.036594h11.86154454v-6.3873267h-11.86154454v-8.66914856z"/><path d="m53.3943762 23.1204752c4.8906139-.7261782 7.5760792-5.5724356 7.7560396-10.4934653-.1799604-8.05069307-5.3988118-11.38186139-12.7746534-11.40594059h-10.0372277v37.86772279h7.2998019v-15.0558416l9.1247525 15.0558416h9.1247525zm-7.7566732-15.96768312h.9124752c3.9825743.14954455 6.9715644 1.05821782 6.8435644 5.93108912.128 4.4647921-2.759604 5.6763564-6.8435644 5.4748515h-.9124752z"/><path d="m86.6990891 1.22170297h-7.2991683v37.86772273h17.7926337v-6.3879604h-10.4934654z"/><path d="m134.60404 31.3327525 3.193663 7.7560396h7.75604l-14.143367-38.78019804h-5.931089l-15.055841 38.78019804h7.755405l3.194298-7.7560396zm-1.824951-5.9304555h-9.124752l4.106138-14.1433663z"/><path d="m159.241505 39.0894257h7.755406v-25.5493069l20.075089 26.4611485h5.474218v-38.77956433h-7.755406v25.54930693l-20.075089-26.46241584h-5.474218z"/><path d="m224.483485 19.0143366v5.9310891h8.212277c-.171089 4.7664159-4.07192 8.8047525-8.668514 8.6685149-7.259248.1362376-10.856555-6.8790495-10.949703-13.2308911.093148-6.2669307 3.639762-13.58574257 10.949703-13.68712871 3.836198.10075248 7.079287 2.72538614 8.668514 5.93108911l6.387327-3.19366337c-2.80903-5.91714851-8.483485-9.19825742-15.055841-9.12475247-11.312793-.07287129-18.557466 9.26479208-18.705743 20.07445544.148277 10.5403564 7.190812 19.9287129 18.249505 20.0744555 11.943287-.1457426 17.465663-9.6855446 17.33703-20.5306931v-.9124753z"/></g></svg>