<svg height="256" preserveAspectRatio="xMidYMid" viewBox="0 0 256 256" width="256" xmlns="http://www.w3.org/2000/svg"><ellipse cx="128" cy="128" fill="#e55151" rx="128" ry="128"/><path d="m207.360933 129.859459c.563203-4.112016.861258-8.324016.861258-12.613852 0-21.6782594-7.595016-41.5612294-21.385267-55.9855584-1.544063-1.6149376-3.162165-3.1311565-4.825196-4.584094v-27.2754861l-23.166001 13.6181258c-9.142876-3.3456799-19.183712-5.0827503-29.933299-5.0827503-10.983727 0-21.171376 1.7022658-30.3762676 4.9865628l-24.0101734-13.5219383v27.7209861c-1.4839454 1.3339688-2.9311877 2.7135002-4.3069221 4.1803596-13.2941258 14.1775322-20.6157669 34.0446818-20.6157669 55.9437928 0 2.910937.1398516 5.783906.3974063 8.615742-7.3849224 17.47322-1.1010939 55.40084 18.434462 68.141888 3.7854846-4.496766 6.640102-9.442196 8.5695474-14.589494 6.4875942 5.320688 13.8807431 9.447259 22.0465561 12.312001v17.404243c0 4.441079 3.6000702 8.041149 8.0417822 8.041149h5.846555c2.829937 0 5.926289-2.293945 5.926289-5.12325v15.016009c0 4.388555 3.557672 7.946227 7.945594 7.946227h4.662563c4.388555 0 7.946227-3.557672 7.946227-7.946227v-15.016009c0 2.829305 3.096352 5.12325 5.925657 5.12325h5.847188c4.441078 0 8.041781-3.60007 8.041781-8.041149v-17.636485c7.373532-2.667938 14.125642-6.371789 20.144322-11.076751 1.918055 4.786594 4.649274 9.382079 8.187961 13.586486 18.154759-11.839923 24.861307-45.42898 19.793744-64.143778zm-78.448505 60.769621c-20.939134 0-37.7953618-6.562899-50.0561048-17.420696 4.084805-18.269931-3.2526564-37.845354-23.0381733-48.771496-.1885781-2.366718-.2891953-4.764445-.2891953-7.191281 0-40.5291121 26.2389391-73.3841064 73.3834734-73.3841064 45.198003 0 73.383473 32.8549943 73.383473 73.3841064 0 2.087648-.089226 4.149984-.230976 6.193969-21.640291 10.920446-29.448565 31.768455-24.639189 50.93255-12.170251 10.161704-28.532252 16.256954-48.513308 16.256954zm54.565095-91.2732768c-.616993-27.036283-39.257792-42.2206199-55.676746-8.888485-15.555165-32.9619395-55.0597535-18.7647902-55.800777 9.1352818.617625 22.715439 17.6542042 32.097518 46.788894 28.641096l9.011883 10.740727 9.135282-10.740727c31.974119 1.728211 45.591612-5.482688 46.541464-28.8878928z" fill="#fff"/></svg>