<svg height="256" preserveAspectRatio="xMidYMid" viewBox="0 0 256 256" width="256" xmlns="http://www.w3.org/2000/svg" xmlns:xlink="http://www.w3.org/1999/xlink"><linearGradient id="a" x1="0%" x2="100%" y1="50.000318%" y2="50.000318%"><stop offset="0" stop-color="#fff" stop-opacity="0"/><stop offset="1" stop-color="#fff"/></linearGradient><path d="m127.926222 0c70.652141 0 127.923702 57.2640012 127.923702 127.899765 0 70.639544-57.271561 127.899766-127.923702 127.899766-70.6508824.001259-127.926222-57.258962-127.926222-127.899766 0-70.6357638 57.2753396-127.899765 127.926222-127.899765z" fill="#24373e"/><path d="m127.923702 46.9636872c44.708604 0 80.949936 36.2400726 80.949936 80.9360778 0 44.702305-36.241332 80.937338-80.949936 80.937338-44.7048243 0-80.9474166-36.235033-80.9474166-80.937338 0-44.6960052 36.2425923-80.9360778 80.9474166-80.9360778z" fill="#e5d4c4"/><path d="m127.926222 79.7430256c26.602425 0 48.171857 21.5606134 48.171857 48.1592594 0 26.597386-21.569432 48.160519-48.171857 48.160519-26.601166 0-48.1680785-21.561873-48.1680785-48.160519s21.5669125-48.1592594 48.1680785-48.1592594z" fill="#8fb1be"/><path d="m132.050883 0c115.273817 9.03797124 123.799041 118.868093 123.799041 118.868093s-80.083178-44.2122333-130.264454-43.3202785c-49.9834831-2.9807415-124.32564686 33.7934965-124.32564686 33.7934965s14.88733006-107.86227863 130.79105986-109.341311" fill="url(#a)" opacity=".25"/></svg>