<svg height="256" preserveAspectRatio="xMidYMid" viewBox="0 0 256 256" width="256" xmlns="http://www.w3.org/2000/svg" xmlns:xlink="http://www.w3.org/1999/xlink"><defs><path id="a" d="m98.1465946 242.921514-84.7308108-84.732541c-16.70745948-16.707459-16.70745948-43.795027 0-60.5024865l84.7308108-84.7308108c16.7074594-16.70745948 43.7950274-16.70745948 60.5024864 0l84.730811 84.7308108c16.707459 16.7074595 16.707459 43.7950275 0 60.5024865l-84.730811 84.732541c-16.707459 16.707459-43.795027 16.707459-60.5024864 0"/><mask id="b" fill="#fff"><use fill="#fff" xlink:href="#a"/></mask></defs><use fill="#fff" xlink:href="#a"/><g fill="#f4922e"><path d="m247.195676 102.088649c-1.148541-1.504865-2.368-2.971676-3.744865-4.3485409l-29.875892-29.8758919c-59.577081 26.3991352-178.0514595 31.8668108-204.35027035 32.7489728.10205405-.121081-8.40475676 15.740541-8.32172973 15.456865 33.34745948 1.641514 196.13751308 8.138378 246.29275708-13.981405" mask="url(#b)"/><path d="m33.0810811 77.1891892c31.763027-.9703784 102.6940539-6.7078919 154.2399999-37.184l-28.922811-28.16c-16.897729-17.46162163-44.853621-16.33383785-61.7496214 1.1277838z" mask="url(#b)"/><path d="m96.6348108 243.027027c16.7074592 16.707459 44.1219462 19.027027 62.9327572.432432l29.860324-29.860324c-49.753946-29.168432-121.3630271-32.32173-153.9684325-31.761297z" mask="url(#b)"/><path d="m-1.58616216 136.252541 11.072 21.318918c33.25924326 1.09146 134.87048616 6.169946 205.65967616 28.978163l28.305297-28.305298c2.24-2.24 4.154811-4.677189 5.794594-7.238919-48.070919-23.458594-215.645405-16.340756-247.42399959-14.752864" mask="url(#b)"/></g></svg>