<svg height="199" preserveAspectRatio="xMidYMid" viewBox="0 0 512 199" width="512" xmlns="http://www.w3.org/2000/svg"><path d="m348.443832 20.3483124v133.5876326h40.126829v-20.410813h-13.258224v-133.525132l-26.871778.00317258zm-348.443832 113.1768196h13.6405203v-64.4500701h-13.6405203v-17.7245863l13.6405203-2.2433334v-17.9422255c0-21.73314489 4.7303212-31.16459944 32.4460057-31.16459944 5.9860295 0 13.081194.8838816 19.2931113 2.00285161l-3.6820997 21.84704063c-4.2071622-.6665597-6.2934528-.784897-8.953029-.784897-9.7645758 0-12.2331626.9743002-12.2331626 10.5148916v15.5269381h20.274074v19.9679197h-20.274074v64.4500701h13.4983886v20.40764l-54.0097346.005711zm334.776345-6.450178c-4.203673.886737-7.880696.780138-10.539321.845493-11.053279.271891-10.098331-3.361986-10.098331-13.785507v-45.0598781h21.04057v-19.9679197h-21.04057v-49.1071422h-26.872095v119.70663c0 23.502812 5.800433 34.229315 31.07894 34.229315 5.986664 0 14.213171-1.540606 20.425089-2.87087zm-81.052197-58.0363768v-3.5748664c-8.12911-1.482548-16.20143-1.5041216-20.580546-1.5041216-12.504736 0-14.029162 6.6313329-14.029162 10.2258693 0 5.0853332 1.735086 7.8350109 15.282015 10.7969343 19.801994 4.4454232 39.68933 9.0837394 39.68933 33.6376282 0 23.285807-11.984115 35.315924-37.209956 35.315924-16.880362 0-33.259139-3.623724-45.755943-6.795038v-20.065953h20.347995l-.011739 3.564714c8.756329 1.691304 17.937467 1.522206 22.730605 1.522206 13.338174 0 15.496164-7.171307 15.496164-10.9838 0-5.291234-3.824865-7.832473-16.328015-10.367684-23.555159-4.024738-42.249287-12.0669187-42.249287-35.994222 0-22.6478005 15.147497-31.5323018 40.373656-31.5323018 17.089753 0 30.084335 2.6503758 42.588119 5.823276v19.931435zm-136.12094 57.9754638v-3.158624h-3.21922v3.14974c-14.4212931-.840734-25.9568047-12.427324-26.7093413-26.872094h3.1998671v-3.2192203h-3.1830524c.8550111-14.3445165 12.3429336-25.8213353 26.6925266-26.6579454v3.1662378h3.21922v-3.175121c14.144961.7560265 25.538341 11.8511835 26.76962 25.8647996v.9235389h-3.225248v3.2189024h3.2262l.000634.881661c-1.225251 14.020279-12.621804 25.121781-26.771206 25.878125zm53.650281.060913-.017449-83.6165957h-26.870192v7.841356c-5.534253-3.3204253-11.698899-5.6944691-18.269636-6.9114719h.151967v-9.2788534h3.278547v-6.8242258h-27.055787v6.8242258h3.277913v9.2788534h.186548c-25.6998258 4.7312729-45.1756779 27.2356727-45.1756779 54.3035158 0 30.5050198 24.7290149 55.2340348 55.2337169 55.2340348 10.411148 0 20.147171-2.884513 28.459338-7.891801l4.840727 7.901953h28.382562v-26.860991zm285.32466-77.9678118h55.421851v19.948567h-13.248706l-33.987881 83.6194508c-9.73983 23.489487-25.742338 45.597949-50.107775 45.597949-5.993009 0-13.968883-.664022-19.498695-1.993017l2.430199-24.387962c3.55012.663704 8.197954 1.100569 10.63767 1.100569 11.300741 0 24.045006-7.001891 28.032943-19.192541l-34.438388-84.7444488h-13.248706v-19.948567h55.450404v19.948567h-13.245533l19.511385 48.0008628 19.508212-48.0008628h-13.21698zm-326.48131 37.5690926-2.045047-2.0453642-10.384498 9.0501101c-.524111-.1881342-1.084706-.2953675-1.670682-.2953675-2.802343 0-5.07074 2.335021-5.07074 5.212871 0 2.8810228 2.268397 5.2157268 5.07074 5.2157268 2.801073 0 5.074863-2.334704 5.074863-5.2157268 0-.5463188-.082804-1.0729675-.234771-1.5682077z" fill="#d52f2f"/></svg>