<svg height="351" preserveAspectRatio="xMidYMid" viewBox="0 0 256 351" width="256" xmlns="http://www.w3.org/2000/svg" xmlns:xlink="http://www.w3.org/1999/xlink"><defs><path id="a" d="m1.25273437 280.731641 1.60561096-3.130783 99.35283167-188.5175034-44.1498504-83.4751513c-3.6693255-6.89124908-12.9872021-5.1345289-14.1914063 2.57968756z"/><filter id="b" height="200%" width="200%" x="-50%" y="-50%"><feGaussianBlur in="SourceAlpha" result="shadowBlurInner1" stdDeviation="17.5"/><feOffset dx="0" dy="0" in="shadowBlurInner1" result="shadowOffsetInner1"/><feComposite in="shadowOffsetInner1" in2="SourceAlpha" k2="-1" k3="1" operator="arithmetic" result="shadowInnerInner1"/><feColorMatrix in="shadowInnerInner1" type="matrix" values="0 0 0 0 0   0 0 0 0 0   0 0 0 0 0  0 0 0 0.06 0"/></filter><path id="c" d="m134.417103 148.974235 32.038619-32.812497-32.038618-61.0070506c-3.042276-5.7910963-10.433193-6.3978512-13.443276-.5900391l-17.705078 34.1091813-.529327 1.7437177z"/><filter id="d" height="200%" width="200%" x="-50%" y="-50%"><feGaussianBlur in="SourceAlpha" result="shadowBlurInner1" stdDeviation="3.5"/><feOffset dx="1" dy="-9" in="shadowBlurInner1" result="shadowOffsetInner1"/><feComposite in="shadowOffsetInner1" in2="SourceAlpha" k2="-1" k3="1" operator="arithmetic" result="shadowInnerInner1"/><feColorMatrix in="shadowInnerInner1" type="matrix" values="0 0 0 0 0   0 0 0 0 0   0 0 0 0 0  0 0 0 0.09 0"/></filter></defs><path d="m0 282.99762 2.12250746-2.97202 100.40485554-190.5136716.21206-2.0167961-44.260617-83.13695519c-3.7081791-6.9642189-14.1475025-5.20342288-15.3644577 2.59247762z" fill="#ffc24a"/><use fill="#ffa712" fill-rule="evenodd" xlink:href="#a"/><use filter="url(#b)" xlink:href="#a"/><path d="m135.004975 150.380704 32.955224-33.751243-32.964776-62.9301496c-3.129314-5.9567761-11.866606-5.9739703-14.962805-.0000002l-17.611603 33.5887736v2.8606595z" fill="#f4bd62"/><use fill="#ffa50e" fill-rule="evenodd" xlink:href="#c"/><use filter="url(#d)" xlink:href="#c"/><path d="m0 282.99762.96209717-.967224 3.49561427-1.420836 128.47761156-128 1.627702-4.430965-32.049902-61.0737366z" fill="#f6820c"/><path d="m139.120971 347.551268 116.274945-64.847602-33.204218-204.4943287c-1.038647-6.3980895-8.88804-8.9275224-13.467384-4.3399005l-208.72405927 209.1284382 115.60819927 64.547661c7.306189 4.079443 16.204418 4.081354 23.512517.005732" fill="#fde068"/><path d="m254.354084 282.159837-32.952147-202.9419001c-1.030762-6.3495181-7.558145-8.9769816-12.102724-4.4241869l-208.00975988 207.807035 114.33837188 63.908673c7.250723 4.048473 16.081401 4.050369 23.334021.005688z" fill="#fcca3f"/><path d="m139.120907 345.64082c-7.308099 4.075622-16.206328 4.073711-23.512517-.005731l-114.67704232-63.620538-.93115664.983324 115.60819896 64.547661c7.306189 4.079443 16.204418 4.081354 23.512517.005732l116.274946-64.847602-.284657-1.751881z" fill="#eeab37"/></svg>