<svg height="477" preserveAspectRatio="xMidYMid" viewBox="0 0 256 477" width="256" xmlns="http://www.w3.org/2000/svg"><path d="m71.3902254 220.44384h42.5040826c2.190642 0 3.967423-1.776725 3.967423-3.967296v-70.837138c0-52.4957085 42.70993-95.2042649 95.207325-95.2042649h28.333166c2.190642 0 3.967424-1.7767245 3.967424-3.9672957v-42.50054964c0-2.19057128-1.776782-3.96729576-3.967424-3.96729576h-28.335332c-80.308362 0-145.6440879 65.3336259-145.6440879 145.639406v70.837138c0 2.190571 1.7767816 3.967296 3.9674233 3.967296zm116.8905606-170.8515596c-6.33791 1.631553-12.43097 3.8719593-18.209844 6.6562165-7.226301 3.4819467-13.96507 7.8132543-20.088466 12.8660854-3.672738 3.0312653-7.124461 6.322539-10.327002 9.8456537-2.134304 2.3487431-4.158102 4.7993228-6.060558 7.345239-2.855852 3.8177909-5.443019 7.8500887-7.733334 12.0643925 2.290315-4.2164705 4.877482-8.2466016 7.733334-12.0643925 1.904623-2.5459162 3.926254-4.9964959 6.060558-7.345239 3.200374-3.5231147 6.652097-6.8143884 10.327002-9.8456537 6.123396-5.0528311 12.862165-9.3841387 20.088466-12.8660854 5.78104-2.7842572 11.871934-5.0268302 18.209844-6.6562165 7.921846-2.0388997 16.227217-3.1222683 24.786104-3.1222683-8.558887 0-16.864258 1.0833686-24.786104 3.1222683zm53.121436-45.62498464v42.50271634zm10.636855 151.87310824h-.010834-123.967352c-2.190642 0-3.967423 1.776725-3.967423 3.967296v42.502716c0 2.190572 1.776781 3.967296 3.967423 3.967296h115.997837c1.908956 0 3.547062-1.360711 3.898085-3.234938l7.930513-42.290377c.073671-.303343.112674-.61752.112674-.94253 0-2.192738-1.770281-3.969463-3.960923-3.969463zm-13.282526 70.837139h-.010834-39.847577c-2.190642 0-3.967424 1.776724-3.967424 3.967295v42.502717c0 2.190571 1.776782 3.967295 3.967424 3.967295h31.878062c1.908957 0 3.547063-1.360711 3.898085-3.234938l7.930513-42.290376c.073672-.301177.112674-.61752.112674-.942531 0-2.194905-1.770281-3.969462-3.960923-3.969462zm2.645671-155.8404047h-28.335332c-41.247335 0-74.804672 33.5562587-74.804672 74.8022677 0 2.190571 1.776781 3.967295 3.967423 3.967295h42.504083c2.190641 0 3.967423-1.776724 3.967423-3.967295 0-13.435938 10.93154-24.367127 24.367909-24.367127h28.333166c2.190642 0 3.967424-1.776724 3.967424-3.967295v-42.5005499c0-2.1905713-1.776782-3.9672958-3.967424-3.9672958zm-56.094295 69.0929147c.377025-1.843893.933894-3.622784 1.651107-5.31934-.717213 1.694389-1.274082 3.47328-1.651107 5.31934zm56.094295-22.625069h-28.335332c-8.80157 0-16.667079 4.012797-21.865248 10.311502 5.196003-6.296538 13.061511-10.311502 21.865248-10.311502h28.335332v-42.5027167zm-56.670665 95.204264h-42.504083c-2.190642 0-3.967423 1.776725-3.967423 3.967296v155.840404c0 25.428828-9.902307 49.338772-27.886804 67.320524-.743215.743191-1.161409 1.75289-1.161409 2.805925 0 1.053034.418194 2.060567 1.161409 2.805924l30.053611 30.052645c.77355.773525 1.789782 1.161371 2.806014 1.161371 1.016233 0 2.030298-.387846 2.803848-1.161371 27.50978-27.506728 42.657926-64.081252 42.657926-102.982851v-155.840404c.004334-2.192738-1.772448-3.969463-3.963089-3.969463zm-24.196732 239.017111c-5.091996 7.535912-10.890371 14.558307-17.299786 20.967516 6.409415-6.411376 12.20779-13.431604 17.299786-20.967516 2.545998-3.767956 4.916485-7.665916 7.096292-11.68088-2.181974 4.014964-4.550294 7.912924-7.096292 11.68088zm10.225161-17.788912c1.989129-4.129801 3.785412-8.370106 5.373681-12.71008-1.588269 4.339974-3.384552 8.580279-5.373681 12.71008zm-52.900421-146.425931c0-2.190572-1.776782-3.967296-3.967424-3.967296h-42.5019156c-2.1906417 0-3.9674233 1.776724-3.9674233 3.967296v85.003265c0 6.508879-2.535164 12.627745-7.1374617 17.232061-1.5492669 1.549217-1.5492669 4.060466 0 5.609683l30.0536106 30.052644c.7735501.773525 1.7897825 1.161371 2.8060149 1.161371s2.030298-.387846 2.8060148-1.161371c14.1297473-14.127126 21.9107503-32.912737 21.9107503-52.894388v-85.003265zm-20.1426367 130.062732c2.16464-2.623919 4.1451017-5.40601 5.9197167-8.326771-1.774615 2.920761-3.7550767 5.702852-5.9197167 8.326771zm9.1894277-14.348134c2.487494-5.161168 4.366116-10.67118 5.547025-16.434701-1.178742 5.763521-3.059531 11.273533-5.547025 16.434701zm25.121958-129.880726v-42.502716c0-2.190572-1.776781-3.967296-3.967423-3.967296h-116.1256781c-1.9089568 0-3.54706276 1.358544-3.89808547 3.234938l-7.9695155 42.502717c-.21668068 1.159204.0931727 2.35741.84722147 3.265273.75404878.907863 1.8721211 1.43438 3.05303082 1.43438h124.09302678c2.190642 0 3.967423-1.776725 3.967423-3.967296zm-114.7800908-66.869843h39.9732523c2.1906417 0 3.9674233-1.776724 3.9674233-3.967295v-42.50055c0-2.190571-1.7767816-3.967296-3.9674233-3.967296h-32.0037368c-1.9089568 0-3.5470627 1.360711-3.8980854 3.234939l-7.9695155 42.502716c-.2166807 1.159205.0931727 2.355243.8472214 3.265273.751882.907863 1.8721211 1.432213 3.050864 1.432213z" fill="#54a3da"/></svg>