<svg height="116" preserveAspectRatio="xMidYMid" viewBox="0 0 512 116" width="512" xmlns="http://www.w3.org/2000/svg" xmlns:xlink="http://www.w3.org/1999/xlink"><linearGradient id="a" x1="50%" x2="50%" y1="100%" y2="0%"><stop offset="0" stop-color="#d22929"/><stop offset="1" stop-color="#b71717"/></linearGradient><linearGradient id="b" x1="50%" x2="50%" y1="0%" y2="100%"><stop offset="0" stop-color="#e7762e"/><stop offset="1" stop-color="#e7562e"/></linearGradient><path d="m.02506187 75.9308538-.02335897-70.77151372c-.00094049-2.84942484 1.96164805-3.93224573 4.37311122-2.42508126l50.79016908 31.74385568v79.2996635l-47.58102635-28.8769749c-6.59400909-3.5901221-7.54964376-5.8183674-7.55889498-8.9699493z" fill="url(#a)"/><g fill="url(#b)"><path d="m5.17636891 0c-2.85882961 0-5.17636891 2.31151171-5.17636891 5.18375159v70.66810031c.14359425 2.4290067.02017982 4.9615025 7.73270885 9.1071763 0 0-7.55721778-7.3428125 4.33463125-7.3832706h84.4713804v-77.5757576z"/><path d="m139.636364 20.6868687v24.1346801h25.858585v22.4107744h-25.858585v46.5454548h-20.686869v-113.777778h49.993266v20.6868687zm36.20202 93.0909093v-113.777778h20.686869v93.0909091h29.306397v20.6868689zm96.53872-22.4107746h-15.515151l-3.447812 22.4107746h-22.410774l20.686869-113.777778h25.858586l20.686868 113.777778h-22.410774zm-10.343434-39.6498317-1.723906 18.962963h10.343435l-1.723906-18.962963-3.447812-22.4107744zm68.956229-51.7171717c4.571665 0 8.709296.57215264 12.06734 1.72390572 4.184081 1.13689183 7.431337 3.0440673 10.343434 5.17171718 2.534993 3.2125216 4.656184 6.6999282 6.895623 10.3434343.798362 4.966158 1.557801 10.2245133 1.723906 17.2390573-.166105 6.9352915-1.161231 13.2562159-3.447811 18.9629629-1.693988 4.1017313-4.731742 8.0250637-8.619529 10.3434344l15.515151 49.9932662h-22.410774l-12.06734-44.821549h-5.171717v44.821549h-20.686869v-113.777778zm-5.171717 20.6868687v27.5824916h3.447811c1.615036 0 3.139317-.196215 5.171717 0 .798448-.9810865 2.077755-1.7379156 3.447812-3.4478115.916397-.5325943 1.814635-2.0182217 1.723906-3.4478114 1.397273-2.2705192 1.723905-4.7091907 1.723905-6.8956229 0-5.32591-1.061552-8.6055028-3.447811-10.3434344-1.860015-2.4106753-4.609162-3.4478114-8.619529-3.4478114zm98.262626 65.5084175c0 10.193472-2.330891 17.4980698-6.895623 22.4107748-4.758974 4.533985-11.648053 6.895623-20.686869 6.895623-18.414317 0-27.582491-9.666236-27.582491-29.3063978v-86.1952862h20.686869v86.1952862s-.645124 8.3481618 6.895622 8.6195286c7.540747.2713668 6.895623-8.6195286 6.895623-8.6195286v-86.1952862h20.686869zm41.373737 5.1717172-3.447811-13.7912458-5.171717-17.2390573h-1.723906v53.4410777h-20.686869v-113.777778h20.686869l10.343434 31.030303 6.895623 22.4107744h1.723906l6.895623-24.1346801 10.343434-29.3063973h20.686869v113.777778h-20.686869v-53.4410777h-1.723905l-5.171718 17.2390573-3.447811 13.7912458z"/></g></svg>