<svg height="291" preserveAspectRatio="xMidYMid" viewBox="0 0 256 291" width="256" xmlns="http://www.w3.org/2000/svg"><path d="m13.6260812 255.829674c-7.49434467 0-13.6260812-6.131737-13.6260812-13.626081v-228.2368598-.340652c0-7.49434467 6.13173653-13.6260812 13.6260812-13.6260812h228.4071858c7.66467 0 13.966733 6.30206254 13.966733 13.9667332v228.4071858c0 7.494344-6.131737 13.626081-13.626081 13.626081h-.340652-59.954757l-.510978-.681304-39.515636 34.065203c-.681304.510978-1.532934.85163-2.55489.85163-1.873586 0-3.40652-1.532934-3.40652-3.40652v-30.999335h-.340652z" fill="#36a7a6"/><path d="m120.101929 183.741276h16.689373v29.461853h-70.1634874v-29.461853h16.6893733v-113.4196184h-16.6893733v-29.8024523h125.0000004v46.4918256h-29.972752v-16.6893733h-41.212535-.340599v41.5531334h41.553134v30.313352h-41.553134z" fill="#fff"/></svg>