<svg height="256" preserveAspectRatio="xMidYMid" viewBox="0 0 256 256" width="256" xmlns="http://www.w3.org/2000/svg"><path d="m34.1333333 0h187.7333337c18.850133 0 34.133333 15.2832 34.133333 34.1333333v187.7333337c0 18.850133-15.2832 34.133333-34.133333 34.133333h-187.7333337c-18.8501333 0-34.1333333-15.2832-34.1333333-34.133333v-187.7333337c0-18.8501333 15.2832-34.1333333 34.1333333-34.1333333z" fill="#222"/><path d="m49.7493333 155.127467c0 11.067733 5.6405334 21.2864 15.2618667 26.786133l16.96 9.864533v-37.8624l-32.2218667-18.760533zm32.3114667-90.9184003-17.0154667 9.8773333c-9.6213333 5.4997333-15.3002666 15.7184-15.3002666 26.786133v19.195734l32.2218666 18.756266v-37.073066l32.8490667-18.7520003zm13.7173333 97.2117333v37.8624l17.1391997 9.966933c9.527467 5.444267 20.791467 5.444267 30.318934 0l16.989866-9.966933v-37.3248l-31.752533 18.487467zm78.2591997 30.357333 16.96-9.864533c9.621334-5.504 15.261867-15.722667 15.261867-26.786133v-19.434667l-32.221867 18.760533zm-13.2096-135.0527997-17.4464-9.9754666c-9.527466-5.4442667-21.230933-5.4442667-30.7584 0l-17.3482663 9.9157333 32.7808003 18.7904zm30.114134 17.3610667-17.015467-9.8133333-32.64 18.7434666 32.7424 18.7434667v37.602133l32.221867-18.756266v-19.733334c.004266-11.067733-5.687467-21.2863997-15.3088-26.786133zm-95.1637337 35.255467v36.983466l32.6911997 19.029334 31.752534-18.491734v-37.525333l-32.174934-18.7818667z" fill="#fff"/></svg>