<svg height="155" preserveAspectRatio="xMidYMid" viewBox="0 0 512 155" width="512" xmlns="http://www.w3.org/2000/svg"><g fill="#385c9a"><path d="m21.3412713 73.4025426h-20.43237207v-25.1515038h21.00986047v-6.3880931c0-30.9422635 14.0700775-41.72403097 41.8252403-41.72403097 7.5172713 0 13.2981085 1.19863566 17.7314729 1.9964031l-2.1214264 24.75460467c-2.8894263-.9982016-5.7808372-1.5975194-10.984186-1.5975194-8.8667287 0-12.3356279 6.388093-12.3356279 16.5705426v6.3880931h24.6692713v25.1515038h-24.6692713v78.8519694h-34.6929613z"/><path d="m98.819969 2.53420155h34.692961v149.71832545h-34.692961z"/><path d="m163.193054 4.92948837h34.692962v26.35013953h-34.692962z"/><path d="m163.193054 48.2510388h34.692962v104.0034732h-34.692962z"/><path d="m302.15938 77.9926822c-6.36031-3.9908217-12.72062-5.7867907-21.007876-5.7867907-15.034543 0-26.598202 10.7777984-26.598202 28.7454265 0 16.570542 13.492589 27.346356 28.529117 27.346356 7.898294 0 15.800558-1.793984 21.583379-4.989023l.771969 26.749023c-8.674232 2.99659-19.08093 4.594109-28.332651 4.594109-33.152992 0-58.401736-19.964031-58.401736-54.299783 0-34.5342016 25.248744-54.4982326 58.401736-54.4982326 10.406698 0 19.658419 1.7979535 27.560682 5.7887752z"/><path d="m319.894822 2.53420155h34.690976v89.43528685h.386977l28.91014-43.7184496h37.969364l-34.887442 47.7092713 37.778853 56.2942019h-42.019721l-27.751194-51.501644h-.386977v51.501644h-34.690976z"/></g><path d="m509.352682 76.9944806c-3.851907-1.1966511-7.709767-1.1966511-11.756155-1.1966511-16.189519 0-25.248744 12.1768682-25.248744 32.5397825v43.9169h-34.692961v-104.0034732h31.609054v19.164279h.386977c5.973333-13.1770542 14.647566-21.5615504 29.682108-21.5615504 4.042419 0 8.283287.5993179 11.756155 1.1986357z" fill="#db2176"/></svg>