<svg height="256" viewBox="0 0 256 256" width="256" xmlns="http://www.w3.org/2000/svg" xmlns:xlink="http://www.w3.org/1999/xlink"><linearGradient id="a" x1="50%" x2="50%" y1="0%" y2="100%"><stop offset="0" stop-color="#fff"/><stop offset="1" stop-color="#f3f3f3"/></linearGradient><linearGradient id="b" x1="50%" x2="50%" y1="3.29839%" y2="100%"><stop offset="0" stop-color="#dcdcdc"/><stop offset="1" stop-color="#d2d2d2"/></linearGradient><filter id="c" height="200%" width="200%" x="-50%" y="-50%"><feOffset dx="0" dy="1" in="SourceAlpha" result="shadowOffsetInner1"/><feGaussianBlur in="shadowOffsetInner1" result="shadowBlurInner1" stdDeviation="1.5"/><feComposite in="shadowBlurInner1" in2="SourceAlpha" k2="-1" k3="1" operator="arithmetic" result="shadowInnerInner1"/><feColorMatrix in="shadowInnerInner1" result="shadowMatrixInner1" type="matrix" values="0 0 0 0 0   0 0 0 0 0   0 0 0 0 0  0 0 0 0.248847939 0"/><feMerge><feMergeNode in="SourceGraphic"/><feMergeNode in="shadowMatrixInner1"/></feMerge></filter><filter id="d" height="200%" width="200%" x="-50%" y="-50%"><feOffset dx="0" dy="1" in="SourceAlpha" result="shadowOffsetInner1"/><feGaussianBlur in="shadowOffsetInner1" result="shadowBlurInner1" stdDeviation="1.5"/><feComposite in="shadowBlurInner1" in2="SourceAlpha" k2="-1" k3="1" operator="arithmetic" result="shadowInnerInner1"/><feColorMatrix in="shadowInnerInner1" result="shadowMatrixInner1" type="matrix" values="0 0 0 0 0   0 0 0 0 0   0 0 0 0 0  0 0 0 0.248847939 0"/><feMerge><feMergeNode in="SourceGraphic"/><feMergeNode in="shadowMatrixInner1"/></feMerge></filter><g fill="none" fill-rule="evenodd"><rect fill="url(#a)" height="247.434627" rx="28" width="247.434627" x="4.464247" y="4.464247"/><path d="m46.7031149 8.01718949c-21.4037788 0-38.8185285 17.41474971-38.8185285 38.81852851v162.311647c0 21.403778 17.4147497 38.818529 38.8185285 38.818529h162.3102801c21.405145 0 38.818528-17.414751 38.818528-38.818529v-162.311647c0-21.4037788-17.413383-38.81852851-38.818528-38.81852851zm162.3102801 247.60277251h-162.3102801c-25.6252048 0-46.47259742-20.848759-46.47259742-46.472597v-162.311647c0-25.6252048 20.84739262-46.47533152 46.47259742-46.47533152h162.3102801c25.626571 0 46.473964 20.85012672 46.473964 46.47533152v162.311647c0 25.623838-20.847393 46.472597-46.473964 46.472597z" fill="url(#b)"/><path d="m116.254118 127.990175c0 19.448908-15.763363 35.210903-35.2095376 35.210903-19.4461744 0-35.2095373-15.761995-35.2095373-35.210903 0-19.444808 15.7633629-35.2109049 35.2095373-35.2109049 19.4461746 0 35.2095376 15.7660969 35.2095376 35.2109049" fill="#1d66d8" filter="url(#c)"/><path d="m209.8842 127.990175c0 19.448908-15.76473 35.210903-35.210903 35.210903-19.447542 0-35.210905-15.761995-35.210905-35.210903 0-19.444808 15.763363-35.2109049 35.210905-35.2109049 19.446173 0 35.210903 15.7660969 35.210903 35.2109049" fill="#fb0a84" filter="url(#d)"/></g></svg>