<svg height="353" preserveAspectRatio="xMidYMid" viewBox="0 0 256 353" width="256" xmlns="http://www.w3.org/2000/svg"><path d="m0 213.753188c2.18192916-44.281024 22.4868447-83.376479 65.448109-108.665373 59.817504-35.212207 120.173515-69.5092315 180.25818-104.26942766 2.485362-1.43764578 3.209417-1.02469755 4.221558 1.58482833 14.476207 37.33065943.561526 76.78116623-25.4577 99.93974933-2.262845 2.014518-4.820054 3.620272-7.444229 5.134648-31.27176 18.039979-62.536545 36.091815-93.792261 54.1583-4.466398 2.581624-6.703434 6.859684-6.006583 11.225635.761722 4.775412 4.619858 8.731902 9.373645 9.595466 3.068513.557341 5.673156-.694757 8.211532-2.159608 30.663498-17.696784 61.325602-35.394964 91.987008-53.093842 2.915749-1.683182 5.880327-3.288937 8.723531-5.086517 1.64133-1.037951 2.346551-.674529 2.98969 1.063062 4.486626 12.123379 6.884795 24.595532 5.991934 37.542714-1.958016 28.37624-14.332512 51.273243-37.586659 67.571444-11.176109 7.833461-23.536654 13.978158-35.371248 20.869232-5.316709 3.096414-10.505766 6.463477-16.021973 9.156708-12.521678 6.113308-18.593133 16.865308-21.362398 29.695303-5.728261 26.537504 15.290943 51.943586 42.45345 51.711302 1.499727-.013253 2.99806-.269951 4.494997-.435967 1.334409-.14788 2.37794.382256 2.724621 1.628076.32715 1.174671-.489678 2.004752-1.539487 2.398169-3.468905 1.299532-6.913395 2.694627-10.45345 3.768153-69.502256 21.074311-144.8074114-19.136523-165.93682831-88.584371-3.94881744-12.979967-5.59642507-26.306615-5.90543869-44.747684" fill="#00acee"/></svg>