<svg height="157" preserveAspectRatio="xMidYMid" viewBox="0 0 256 157" width="256" xmlns="http://www.w3.org/2000/svg"><g fill="#07ccff"><path d="m211.686 134.995c-3.513-3.053-7.026-6.105-10.539-9.158-.703-.61-1.395-1.234-2.111-1.828-1.303-1.082-1.731-1.045-2.848.163-.386.418-.758.848-1.132 1.278-2.679 3.083-5.353 6.172-8.04 9.25-.814.933-.731 1.217-1.687.391-3.599-3.111-7.477-6.511-11.065-9.635-13.18-11.479-26.351-22.969-39.537-34.441-10.807-9.403-21.627-18.789-32.446-28.177-4.609-3.999-9.157-8.073-13.867-11.949-4.977-4.097-10.778-5.251-17.062-4.097-4.994.917-8.952 3.556-12.235 7.365-6.482 7.52-13.011 15.001-19.522 22.497-2.611 3.006-5.224 6.01-7.843 9.01-.313.359-.55.964-1.209.386-2.33-2.048-4.674-4.081-7.021-6.111-.39-.337-.429-.64-.075-1.033.692-.769 1.357-1.561 2.035-2.342 9.77-11.241 19.541-22.481 29.307-33.725 1.262-1.454 1.21-2.082-.247-3.351-4.134-3.601-8.277-7.19-12.409-10.791-2.02-1.76-2.302-1.757-4.099.308-7.094 8.153-14.185 16.31-21.269 24.472-3.762 4.335-7.591 8.616-11.237 13.047-4.097 4.978-5.282 10.748-4.085 17.046.939 4.936 3.519 8.862 7.28 12.112 8.178 7.067 16.326 14.167 24.484 21.256 15.262 13.263 30.522 26.528 45.786 39.789 1.431 1.244 2.067 1.183 3.343-.284 1.968-2.263 3.935-4.527 5.902-6.792 1.762-2.03 3.532-4.055 5.28-6.099 1.079-1.262 1.015-1.881-.233-3-.077-.07-.159-.132-.237-.2-13.509-11.733-27.017-23.467-40.525-35.2-1.522-1.323-3.037-2.655-4.572-3.963-.438-.374-.549-.699-.103-1.144.329-.327.606-.706.911-1.057 4.815-5.544 9.631-11.088 14.448-16.629 3.834-4.41 7.669-8.82 11.508-13.225.817-.936.836-.935 1.79-.111 1.761 1.521 3.522 3.042 5.265 4.583 8.133 7.189 16.39 14.235 24.487 21.468 11.377 10.161 22.998 20.048 34.514 30.054 10.383 9.021 20.767 18.044 31.15 27.066 3.972 3.452 8.519 5.407 13.405 5.33 6.682.038 11.978-2.154 16.151-6.813 3.692-4.121 7.291-8.325 10.912-12.509.883-1.021.817-1.765-.124-2.69-.184-.181-.384-.347-.579-.517"/><path d="m254.881 70.128c-1.404-3.263-3.895-5.682-6.538-7.962-5.169-4.459-10.317-8.942-15.47-13.42-16.161-14.043-32.319-28.088-48.48-42.132-1.912-1.662-3.819-3.331-5.751-4.97-1.07-.907-1.702-.851-2.67.136-.145.147-.276.308-.412.464-3.666 4.214-7.331 8.428-10.995 12.643-.203.234-.401.475-.578.728-.443.636-.392 1.275.082 1.858.259.318.583.585.895.856 12.922 11.226 25.847 22.45 38.769 33.675 2.26 1.963 4.512 3.936 6.865 5.99-9.421 10.843-18.771 21.603-28.162 32.41-.516-.43-.918-.751-1.304-1.089-9.478-8.326-19.04-16.553-28.503-24.897-15.438-13.612-31.043-27.035-46.58-40.535-6.636-5.766-13.311-11.488-19.908-17.299-8.411-7.408-21.969-6.574-29.33 1.885-3.531 4.057-7.066 8.111-10.58 12.182-1.228 1.421-1.167 1.998.238 3.219 4.254 3.698 8.511 7.393 12.77 11.086 1.465 1.27 2.07 1.232 3.347-.236 2.954-3.394 5.899-6.796 8.847-10.195.958-1.105.959-1.108 2.015-.19 16.231 14.12 32.456 28.246 48.693 42.358 14.13 12.28 28.27 24.548 42.414 36.812 1.991 1.727 3.908 3.547 6.059 5.082 7.915 5.651 20.49 4.938 27.805-3.646 4.83-5.667 9.752-11.256 14.635-16.879 4.306-4.959 8.613-9.918 12.925-14.872.907-1.042.929-1.043 1.921-.186 2.113 1.827 4.201 3.682 6.33 5.489.556.472.802.719.134 1.387-.976 1.07-1.906 2.181-2.855 3.274-9.462 10.893-18.925 21.783-28.383 32.679-1.203 1.386-1.168 2.047.202 3.242 4.287 3.739 8.618 7.428 12.867 11.21 1.248 1.11 2.311 1.055 3.39-.245 2.41-2.904 4.929-5.718 7.405-8.568 8.242-9.486 16.53-18.933 24.711-28.472 5.917-6.899 6.73-14.623 3.18-22.872"/></g></svg>