<svg height="256" preserveAspectRatio="xMidYMid" viewBox="0 0 256 256" width="256" xmlns="http://www.w3.org/2000/svg"><path d="m227.314286 0h-198.6285717c-15.7142857 0-28.6857143 12.9714286-28.6857143 28.6857143v198.6285717c0 15.714285 12.9714286 28.685714 28.6857143 28.685714h198.6285717c15.714285 0 28.685714-12.971429 28.685714-28.685714v-198.6285717c0-15.7142857-12.971429-28.6857143-28.685714-28.6857143zm-25.942857 162.457143c0 2.4-2.057143 3.428571-4.457143 4.457143-9.542857 4.114285-19.771429 7.828571-30.742857 7.828571-15.371429 0-22.514286-9.542857-40.971429-9.542857-13.314286 0-27.3142857 4.8-38.5714286 9.885714-.6857143.342857-1.3714285.342857-2.0571428.685715v25.942857c0 1.028571 0 2.057143-.3428572 2.742857v.685714c-1.3714285 4.8-5.8285714 8.171429-10.9142857 8.171429-6.4571428 0-11.6-5.142857-11.6-11.6v-124.914286c-4.4571428-3.4285714-7.4857143-8.8571429-7.4857143-15.0285714 0-10.5714286 8.5142857-19.1428572 19.1428572-19.1428572 10.5714285 0 19.1428571 8.5142857 19.1428571 19.1428572 0 6.1714285-2.7428571 11.6-7.4857143 15.0285714v10.5714286c1.0285715-.3428572 2.0571429-.6857143 3.0857143-1.3714286 10.5714286-4.4571429 23.2000003-8.1714286 35.1428573-8.1714286 12.971428 0 23.2 3.4285715 34.8 7.8285715 2.4 1.0285714 4.8 1.3714285 7.485714 1.3714285 12.971429 0 27.314286-9.2 30.742857-9.2 2.742857 0 5.142857 2.0571429 5.142857 4.4571429v80.1714287z" fill="#339af0"/></svg>