<svg height="256" preserveAspectRatio="xMidYMid" viewBox="0 0 256 256" width="256" xmlns="http://www.w3.org/2000/svg" xmlns:xlink="http://www.w3.org/1999/xlink"><linearGradient id="a" x1="0%" x2="100%" y1=".265604%" y2="99.734396%"><stop offset="0" stop-color="#9bcd98"/><stop offset="1" stop-color="#45b271"/></linearGradient><rect fill="url(#a)" height="256" rx="32" width="256"/><path d="m135.820689 90.2434042c30.923687-2.4079431 49.616139-17.6260992 55.440695-37.9086525-40.809739 19.4326243-91.732591-4.3404254-101.3704342 38.5974467l-4.9408 22.8902136c8.5949216-13.781561 19.9479652-21.1710648 50.8705392-23.5790078zm-16.07936 3.8978726c-15.198609 2.262695-27.3897744 9.5489352-34.2316522 22.3466662-2.2027136 4.118015-2.9762784 8.543546-2.9762784 8.543546l-3.4971827 16.201986c4.3809389-8.073759 12.2156518-18.392057 32.7490783-23.302128.461913-2.569078 3.265669-17.295886 7.956035-23.7900702zm-43.896209 61.8760852-5.3414957 24.747801c14.1523482-27.847943 44.6085567-33.252766 48.3695307-34.065248 26.5216-5.731631 39.290435-19.340709 44.368139-37.025816-23.141287 13.523972-77.157287-3.457588-87.396174 46.343263zm-7.914073 36.671659-3.9312696 18.213901c31.3644524-1.824681 34.8237912-32.974752 39.9415656-57.720284-9.7580528 3.52-31.2631657 17.314043-36.010296 39.506383z" fill="#fff"/></svg>