<svg height="380" preserveAspectRatio="xMidYMid" viewBox="0 0 256 380" width="256" xmlns="http://www.w3.org/2000/svg"><path d="m255.846266 364.169023c0 8.577003-57.260449 15.530444-127.895728 15.530444-70.6352795 0-127.8957286-6.953441-127.8957286-15.530444 0-8.578339 67.1702559-15.529775 127.8957286-15.529775 72.286245 0 127.895728 6.951436 127.895728 15.529775" fill="#1a4658"/><path d="m247.92965 252.109201c-3.958308 0-8.222078-1.827426-11.26801-15.834569-3.045932-14.007144-7.612491-28.319749-7.612491-28.319749 4.872689 0 7.612491-2.13222 7.612491-2.13222-3.350058-1.5233-10.658423-6.698778-15.529776-13.094099-4.872021-6.394653-17.357869-16.74895-17.357869-16.74895v-20.705922c0-14.008481 8.984062-24.969692 8.984062-24.969692-6.089859 0-8.984062 5.480272-8.984062 5.480272v-29.537588c0-29.2334621 14.768459-42.3262245 14.768459-42.3262245-4.567895-.3041253-7.612491 1.8267572-7.612491 1.8267572 2.131551-21.6196345 8.755468-28.0149556 8.755468-28.0149556-24.360773-6.3953212-37.950162 7.9172846-37.950162 7.9172846-2.74047-13.0934308 7.974768-20.7092637 7.974768-20.7092637-12.484512-2.74047-22.810068.9137128-22.810068.9137128 0-19.18395825 7.626527-25.58262143 7.626527-25.58262143-38.064459 0-59.676741 28.62053263-59.676741 28.62053263-1.521964-12.1810548 1.830099-22.84950391 1.830099-22.84950391-36.8452848 15.53044391-46.5873214 49.92267361-46.5873214 49.92267361-2.4356762-5.7850653-2.7398015-18.9192689-2.7398015-18.9192689s-15.2263186 25.5030809-17.9667885 43.1637389c-2.74047 17.6626632 2.4356762 68.3640313 2.4356762 68.3640313s-2.4350078-3.043927-7.6118225-3.652846c0 0 5.48094 6.090527 5.48094 19.793546 0 0-2.1322193-1.827426-5.7857337-.913713 0 0 5.7850653 5.176146 6.3946528 14.007144 0 0-6.6994465 4.567895-10.3536293 9.135791 0 0-5.7864021.304125-8.8309974 1.217838 0 0 4.8726893 2.74047 5.7864021 5.176814 0 0-14.3126057 14.616732-21.6209713 26.492324 0 0 6.3953212-3.958308 10.9625483-2.74047 0 0-10.0495039 12.180387-13.3988929 32.278058 0 0 4.8720209-2.435008 7.0035718-1.21717 0 0-6.0905274 12.788637-6.3946528 26.18753l-6.69877803 3.958976 5.17681463 3.654183s-3.95897651 16.443488-4.8726893 25.883405c0 0 3.0445953-3.044595 5.4809399-3.958308 0 0 3.3500575 7.916616 7.9179531 14.007143 4.5678955 6.090528 14.9221932 11.267342 21.0120522 11.267342l11.4464752-.446496c-1.4196972 6.125953-4.2203238 11.320815-10.1236972 11.592857l-.6550391 1.051405c-.1236554-.009358-.2453055-.014705-.364282-.017379-.1169713 1.788658-3.7270392 2.11083-4.719624 3.350057-3.017859 3.765139-5.3191854 8.937943-6.8518434 13.550622-1.1229243 3.380136-.5922089 3.379467-1.370235 6.851843-.2546631 1.136293-1.4337336 2.35012-1.8267571 3.501118 3.2878955-1.104209 12.4002924-1.842131 17.2001253-2.194382l.0808773 4.248397s.7913942.735917 2.102141 1.269306c.0454517-.00869.0888981-.021389.1437075-.01671.4451593.036094.8749452.101597 1.2953734.205869 7.2027572-.644345 12.2178172.57082 20.5662245-.122319 1.6242298-.193169 3.1475301-.421765 4.5692324-1.231206.4043864-1.207812.4585274-1.282005.6490235-2.842068.0407729-.278057.0407729-.564135.1076136-.903018.1310078-.022057.2580052-.040773.385671-.059488.0487937-.018716.126329-.034757.2981097-.041441.0354256-.010695.0655039-.027405.1056083-.030747.1323447-.012032.2640209-.022726.3963656-.034089.0909034-.034089.1777963-.043446.256-.022057 1.5112689-.135019 3.936919-.262684 5.4475195-.344899 4.9107886-.00802 11.3716136.557452 11.3716136.557452.3997076-5.504334.7994152-14.045243 9.706611-38.939405l2.207749-1.369566s27.357243 9.63977 52.741348-.389682c2.008564 4.944209 8.508156 21.562152 9.530151 32.0381.873608 1.227864.776689 2.785921.806099 4.436887.024731 1.396972.142371 2.794611.179802 4.187572.913044-.124324 4.208961-.528042 8.369796-.521358 1.510601.082215 3.936251.20988 5.44752.344899.078872-.021389.165096-.012032.256.022057.132344.011363.264021.022057.396365.034089.040105.003342.070183.020052.106277.030747.171112.006684.248648.022725.29811.041441.126997.018715.253994.037431.385002.059488.066841.338883.066841.624961.108282.903018.189828 1.560063.243969 1.634256.648355 2.842068.13034.074193.262016.138361.394361.203864 4.545169-.576835 9.151164-.682443 13.725075-.465879 3.597369.170443 7.133243.845535 10.673797 1.489879.000668.033421.003342.06751.003342.101598.356929.0381.705838.063499 1.054078.086225 1.899614.339551 3.804575.655707 5.721567.862914.036762-2.398246.023394-4.495039-.026737-6.336502 3.813933.182476 9.334309.941786 11.65034 1.279332.918391.219906 1.664334.355593 2.447039.524031.106277.031415.218569.063499.315488.095583-.00401-.00869-.008021-.018716-.012031-.027405.786047.176459 1.633587.399707 2.752501.788721-.170444-2.060032-.15507-2.017254-.42778-4.59998-.20988-1.997201-1.642277-8.065671-4.321922-10.568856 0 0 2.919603 1.261953 3.811258 1.764595-2.878162-3.899488-4.277806-9.474673-13.320689-13.318684 0 0 1.651635-.778694 3.161567-.975206-1.57811-.972533-2.783248-1.354862-4.380742-1.239227.542747-1.541347 2.930966-5.429473 4.934851-5.928773 0 0-1.229869-.854893-3.241107-.193838-.747279.391687-1.472501.812115-2.178339 1.30941-.266695.188491-.655708-.006684-.73458-.298778-.632313-2.338089-1.043384-4.713609-1.416355-7.099154 18.222789-.660387 20.778778-10.008731 20.778778-10.008731 1.522632 1.218506 1.521964 3.958308 1.521964 3.958308 7.916616-10.35363 7.003571-20.707259 7.003571-20.707259 1.827426.304126 3.350058 1.522632 3.350058 1.522632.913713-15.834569-3.958308-42.93648-3.958308-42.93648 2.436344 1.217838 3.958308-.304126 3.958308-.304126-2.74047-1.217838-3.044595-4.26377-3.044595-4.26377 3.958976.304794 4.567895-3.349389 4.567895-3.349389" fill="#edf7fa"/><g fill="#cde9ee"><path d="m73.7186423 366.99906s.713859-7.701389-1.7973473-13.258527c0 0 4.7563865.32284 5.5558016 12.884219 0 0-3.331342.387008-3.7584543.374308"/><path d="m49.8424648 341.027426.0294099-.236617c.0173786.116972.0147049.207207-.0294099.236617"/><path d="m54.2960627 366.402172c-.0274047-.007352-.0427781-.011363-.0427781-.011363s.0193838-.052804.0554778-.144376z"/><path d="m114.851091 28.891906c-1.521963-12.1810548 1.8301-22.84950391 1.8301-22.84950391-36.8459534 15.53044391-46.5886584 49.92267361-46.5886584 49.92267361-2.4356762-5.7850653-2.7398015-18.9192689-2.7398015-18.9192689s-15.2263186 25.5030809-17.9667885 43.1637389c-2.74047 17.6626632 2.4356762 68.3640313 2.4356762 68.3640313s-2.4350078-3.043927-7.6118225-3.652846c0 0 5.48094 6.090527 5.48094 19.793546 0 0-2.1322193-1.827426-5.7857337-.913713 0 0 5.7850653 5.176146 6.3946528 14.007144 0 0-6.6994465 4.567895-10.3536293 9.135791 0 0-5.7864021.304125-8.8309974 1.217838 0 0 4.8726893 2.74047 5.7864021 5.176814 0 0-14.3126057 14.616732-21.6209713 26.492324 0 0 6.3953212-3.958308 10.9625483-2.74047 0 0-10.0495039 12.180387-13.3988929 32.278058 0 0 4.8720209-2.435008 7.0035718-1.21717 0 0-6.0905274 12.788637-6.3946528 26.18753l-6.69877803 3.958976 5.17681463 3.654183s-3.95897651 16.443488-4.8726893 25.883405c0 0 3.0445953-3.044595 5.4809399-3.958308 0 0 3.3500575 7.916616 7.9179531 14.007143 4.5678955 6.090528 14.9221932 11.267342 21.0120522 11.267342l.7706736-.105608c-.3395509 2.099467-.7218799 4.190914-1.2793316 6.251614-.0788721.292094-.4672167.487269-.7345796.298778-.7051697-.497295-1.4303917-.917723-2.1783395-1.30941-2.0105691-.661055-3.241107.193838-3.241107.193838 2.0038851.4993 4.3921044 4.387426 4.9355196 5.928773-1.5981619-.115635-2.8033003.266694-4.3814099 1.239227 1.5106005.196512 3.1615665.975206 3.1615665.975206-9.0422141 3.844011-10.4425274 9.419196-13.3200208 13.318684.8909869-.502642 3.81059-1.764595 3.81059-1.764595-2.6796449 2.503185-4.1113733 8.571655-4.3219216 10.568856-.2720418 2.582726-.2573369 2.539948-.4271123 4.59998 2.3969086-.833504 3.5619425-.915718 5.502329-1.38093 2.9984752-.43647 11.3782976-1.585462 14.4563133-1.265963l-.4852637 5.920083s.0614934 0 .15106-.002005c1.5801149-.45318 2.8674674-.392355 4.2771384-.544084.0207206-1.631582.1062768-3.261827.2399582-4.887394-.0942454-2.777901.2506528-5.307822.8181306-8.127833.0187154-.094914.0421096-.193838.0614935-.288752 1.1182454-3.850026 3.0626423-6.041733 4.3259321-7.389911.4190914-.447833.7833733-.97788 1.0948511-1.521295.7539635-1.003279 1.5373369-2.310016 2.1422455-3.959645 1.2519269-3.41623.7151958-10.921107-1.8006893-18.245514 2.6529086 3.815937 5.069201 7.164658 6.2148512 8.310308l-.0761985-9.324951s4.8720209 4.868679 9.2327102 8.546925c2.0994674 1.833441 4.6888773 4.21765 6.5276658 5.167457.1330131.083551.252658-.802089.3990392.534725h-.0013368c.0187154 0 .0367624-.264689.0554778-.253994 2.469765 1.385608 5.0103812 2.485806 7.3885744 4.025149.2546632.164428.5146736.243968.7646579.416417 1.1008669.757974 3.0385797 1.600167 4.7797807 2.517891l1.6469556 19.448647c1.4845327-20.440564 13.132198-40.013535 13.132198-40.013535l-.426443-.131008c-3.604053-1.114235-29.9747263-10.237326-45.5546323-42.812825-1.0260052-2.145587 5.7857337 2.435008 5.7857337 2.435008-6.3953211-15.530444-8.8316658-40.500804-8.8316658-40.500804 2.1315509 1.827425 4.2637703 2.131551 4.2637703 2.131551-4.5678956-12.789974-6.3946528-28.624544-6.3946528-42.937149-1.2178381-77.041295 27.2543081-94.702622 27.2543081-94.702622-4.8720209-1.827425-10.0488355-1.675028-10.0488355-1.675028 5.6340052-13.5506218 24.3601044-32.4304547 24.3601044-32.4304547-5.0244177.3047937-24.6655665 5.6326684-24.6655665 5.6326684 16.2917598-42.4792898 32.7359164-53.7459635 32.7359164-53.7459635-1.217838 10.200564 2.741138 21.0113839 2.741138 21.0113839 35.323322-43.6984648 63.703896-41.6598225 63.703896-41.6598225 2.104815-4.38341515 4.495708-7.37186423 4.495708-7.37186423-38.06446 0-59.679416 28.62053263-59.679416 28.62053263"/><path d="m214.698444 366.758433s-.343561-11.039415-2.854768-16.596553c0 0 6.54705 4.035175 6.509619 16.785713 0 0-3.227739-.17646-3.654851-.18916"/></g><path d="m44.3561775 309.98258c4.312564-42.237995 5.4862873-124.867175 5.4862873-124.867175-9.3637181 18.49884-16.9000105 52.071603-16.9000105 52.071603l1.8267572 7.308365-4.110705-1.826757c-6.6072062 22.930381-2.1368981 53.62565-.656376 62.272836 4.2029452 3.327331 9.209316 4.449587 14.354047 5.041128" fill="#abd8d7"/><path d="m35.5231749 309.069535c1.3388199 6.760272 2.7277703 13.270559 4.2704543 19.985379 1.1423081.171781 2.426987.085556 2.426987.085556 1.0480627-4.083969 1.2218486-10.404428 2.0366371-18.179342-3.0024857-.351582-5.9481567-.884971-8.7340784-1.891593" fill="#abd8d7"/><path d="m178.633191 345.466987c-.245306.070851-.431792-.038768-.532721-.206538-.473901.092909-.836178.178465-1.080146.241295 0-.001337.000668-.001337.000668-.001337 6.28236-4.571906 6.859864-9.406496 6.859864-9.406496-4.167519 1.878893-8.591707 2.580721-10.743979 2.828032 14.521149-12.586779 16.9341-35.958977 16.9341-35.958977-5.947489 7.301013-14.388136 13.471081-20.911123 17.612533l.014036-.028073s-4.370715 2.443697-8.409232 4.346652c-.177128-.026736-.354924.020721-.487937.227259-2.074737.96117-4.009107 1.745211-5.148742 1.935707 0 0 3.363426 6.210173 4.767749 9.558893l-.275383.223248s4.865336 11.499948 6.636616 22.640293c.187154 1.882235.33153 3.531864.432459 4.791812.084888 1.629577.200523 2.752501.200523 2.752501 6.43342-.951812 15.520417-.024731 15.520417-.024731-.043446 1.048063.532053 3.563948.637661 4.019802 3.05529-.411739 6.137316-.591541 9.220679-.618277-.041442-10.797452-.516011-28.738172-13.635509-24.933598" fill="#cde9ee"/><path d="m44.0186319 313.240397c-10.0882716-1.706444-19.2434465-13.300637-19.2434465-13.300637 7.3558224 7.821702 16.5130026 8.869096 16.5130026 8.869096 1.2084804-8.932595-6.1747467-29.377838-6.1747467-29.377838 5.4682402 6.809734 8.4593629 14.686246 10.0949556 21.133034z" fill="#83bac0"/><path d="m66.9142559 297.423875s7.9366684 13.988428 14.902141 20.040856c7.517577 6.531008 14.5024334 15.758371 17.4714987 21.353608 0 0 3.7684804-8.753462 5.8238324-11.799394 0 0-22.2673207-6.528334-38.1974721-29.59507" fill="#abd8d7"/><path d="m170.503352 324.706924c1.103541-1.55271 2.367499-2.995801 3.571969-4.469639 1.975144-2.418298 4.231687-4.765745 5.890005-7.397264-2.86212 2.141577-6.049086 3.997076-9.306903 5.957514-9.455958 6.407353-16.043781 8.22141-16.043781 8.22141 2.055353 3.045932 5.823833 11.799394 5.823833 11.799394 1.796679-3.386151 5.06987-8.103101 9.036867-12.748532.332867-.46187.703165-.905024 1.02801-1.362883" fill="#abd8d7"/><path d="m63.9037493 89.109389c-.8655874.0628303-3.6368041.1330131-3.6368041.1330131-25.1067154 1.752564-43.5614413-17.703436-43.5614413-17.703436s-1.6496292 15.1868825 9.2567729 28.4948719c10.9097441 13.30799 33.0166475 15.585253 33.0166475 15.585253.7185378 3.112105-.8375144 10.052178-.8375144 10.052178s6.4641671-7.150621 8.1057755-20.699238c1.1523342-9.4940571-1.8073734-15.9014096-2.3434361-15.862642" fill="#545352"/><path d="m63.9037493 89.109389c-.8328355.047457-3.6368041.1330131-3.6368041.1330131-25.1067154 1.752564-43.5614413-17.703436-43.5614413-17.703436s11.4698695 33.1937759 49.775624 30.5709449c0 0 1.0587572-6.1399893-2.5773786-13.000522" fill="#6e7979"/><path d="m189.256856 89.109389c.864919.0628303 3.636136.1330131 3.636136.1330131 25.107384 1.752564 43.561441-17.703436 43.561441-17.703436s1.64963 15.1868825-9.256104 28.4948719c-10.910413 13.30799-33.017316 15.585253-33.017316 15.585253-.717869 3.112105.838183 10.052178.838183 10.052178s-6.464836-7.150621-8.106444-20.699238c-1.152334-9.4940571 1.808042-15.9014096 2.344104-15.862642" fill="#545352"/><path d="m189.256856 89.109389c.832167.047457 3.636136.1330131 3.636136.1330131 25.107384 1.752564 43.561441-17.703436 43.561441-17.703436s-11.469869 33.1937759-49.774955 30.5709449c0 0-1.059426-6.1399893 2.577378-13.000522" fill="#6e7979"/><path d="m50.7989556 201.558893s-18.0469974 64.861577 0 106.427822z" fill="#cde9ee"/><path d="m230.495582 304.158747c-8.907196 6.797034-18.174663 7.227488-18.174663 7.227488-.413076-8.879791 9.294204-28.293681 9.294204-28.293681-2.209086 1.304062-3.984376 2.881503-5.444846 4.61201l-.063499-6.514966 7.003572-5.785065-5.632669-4.567896 7.155301-28.77694-6.851175 4.567896s-2.130883-40.95599-.608919-58.617985c0 0-8.678601-8.679937-12.941703-12.181054 0 0 .805431 12.610172 1.724491 32.758642 3.889462 16.162757 9.929859 49.611196 2.415624 79.02847.086893 5.962861.15106 12.018632.185817 18.131885 0 0 3.744418 13.010548 4.961588 22.145671 0 0 1.217838.342893 3.045264.038768l-.137692-13.990434c9.408501-2.841399 14.069305-9.782809 14.069305-9.782809" fill="#cde9ee"/><path d="m146.067718 178.565013c0 6.918016 4.430204 12.525953 9.897107 12.525953 5.466235 0 9.897776-5.607937 9.897776-12.525953 0-6.919352-4.431541-12.52729-9.897776-12.52729-5.466903 0-9.897107 5.607938-9.897107 12.52729" fill="#cde9ee"/><path d="m146.37318 175.218966c0 6.811071 4.362026 12.332783 9.74471 12.332783 5.382016 0 9.744711-5.521712 9.744711-12.332783 0-6.811739-4.362695-12.332783-9.744711-12.332783-5.382684 0-9.74471 5.521044-9.74471 12.332783" fill="#fff"/><path d="m153.530486 168.860407c-.077536.302789-.131008.618277-.131008.953149 0 1.737191 1.132282 3.14352 2.527916 3.14352 1.240564 0 2.267906-1.11223 2.481797-2.578047.796073 1.044052 1.286684 2.449713 1.286684 4.002423 0 3.217044-2.096126 5.823833-4.681525 5.823833-2.5854 0-4.682193-2.606789-4.682193-5.823833 0-2.571363 1.340156-4.748366 3.198329-5.521045" fill="#474746"/><path d="m98.563342 178.565013c0 6.918016 4.430872 12.525953 9.897775 12.525953 5.465567 0 9.897108-5.607937 9.897108-12.525953 0-6.919352-4.431541-12.52729-9.897108-12.52729-5.466903 0-9.897775 5.607938-9.897775 12.52729" fill="#cde9ee"/><path d="m98.8688042 175.218966c0 6.811071 4.3626948 12.332783 9.7447098 12.332783 5.382016 0 9.744711-5.521712 9.744711-12.332783 0-6.811739-4.362695-12.332783-9.744711-12.332783-5.382015 0-9.7447098 5.521044-9.7447098 12.332783" fill="#fff"/><path d="m107.853535 168.860407c-.077535.302789-.131008.618277-.131008.953149 0 1.737191 1.131614 3.14352 2.527917 3.14352 1.239895 0 2.267906-1.11223 2.481796-2.578047.796073 1.044052 1.286684 2.449713 1.286684 4.002423 0 3.217044-2.096793 5.823833-4.682193 5.823833-2.585399 0-4.681525-2.606789-4.681525-5.823833 0-2.571363 1.340157-4.748366 3.198329-5.521045" fill="#474746"/><path d="m181.727916 188.393274c-.62095 1.868867-2.729775 2.365494-8.738088 3.527186l-.409066.078872c-5.886663 1.130276-16.411404.982558-22.175749.140365-.248647-.035425-.488606-.072188-.717201-.110287-5.34258-.903687-5.95083-1.595488-7.669305-4.3647-1.774622-2.86613-2.865463-11.281378-3.066653-12.941034l-.010026-.083551c-.213222-1.7539-.318831-2.632188 1.93437-3.640814 3.030559-1.358872 16.481588-3.257149 21.993275-3.505128 4.351331-.191833 13.575352.413744 17.793002 1.030015.661055.097588 1.150998.186486 1.453786.266695.485264.129003 2.271917.997932 2.181013 2.897546-.118308 2.503853-1.729838 14.178256-2.569358 16.704835zm-58.664772-13.753149-.010695.083551c-.200522 1.659656-1.291363 10.074904-3.065984 12.941034-1.718475 2.769212-2.326726 3.461013-7.669974 4.3647-.227927.038099-.467885.074862-.717201.110287-5.763676.842193-16.2884179.989911-22.1757495-.140365l-.4083969-.078872c-6.0083133-1.161692-8.1171384-1.658319-8.7380888-3.527186-.8395196-2.526579-2.4510496-14.200982-2.5693577-16.704835-.0915718-1.899614 1.6957494-2.768543 2.1810131-2.897546.3021201-.080209.7920626-.169107 1.4531175-.266695 4.2183185-.616271 13.441671-1.221848 17.793671-1.030015 5.5116863.247979 18.9620473 2.146256 21.9926053 3.505128 2.25387 1.008626 2.148262 1.886914 1.93504 3.640814zm66.380198-11.116282c-4.413493-.645013-12.116219-1.37625-21.362298-.904355-12.032.618945-22.341514 2.289295-28.500219 3.286559-1.83812.29811-3.282548.533389-4.384752.679102l-1.202465.163091c-1.350851.185817-2.236491.303457-2.991122.340888-.754632-.037431-1.64094-.155071-2.991123-.340888l-1.203133-.163091c-1.101535-.145713-2.545964-.380992-4.384752-.679102-6.158037-.997264-16.467551-2.667614-28.4995511-3.286559-9.2460783-.471895-16.9488042.259342-21.3622977.904355 0 0-4.7095979.599562-8.7374203 2.303332l.768 5.119332s4.2557493-1.013306 8.4125744-1.568084c.7726788 7.218799 2.2759269 16.494956 2.2759269 16.494956l.0240626.287415c.1142977.467885.2205745.921733.3355405 1.417023.8562298 3.647499 1.7064439 5.79175 5.1273525 7.077765 3.3594151 1.267969 11.3087833 2.443029 19.3256602 2.856105 2.981097.154402 6.364575-.02941 9.78682-.527374 5.075217-.741263 9.665838-2.107488 11.419739-3.404198 2.551979-1.886246 3.916867-6.632606 4.820554-9.772783l.270705-.925745c.319498-1.070788.596887-2.195049.864919-3.28589.385671-1.56541.783373-3.183624 1.123592-3.742412.061494-.097588.347572-.435134 1.463144-.598893.344898-.049462.733243-.076199 1.159687-.081546.426444.005347.81412.032084 1.159686.081546 1.114904.163759 1.40165.501305 1.463144.598893.339551.558788.737922 2.177002 1.122924 3.742412.2687 1.090841.546089 2.215102.865588 3.28589l.270036.925745c.903687 3.140177 2.269243 7.886537 4.821222 9.772783 1.753901 1.29671 6.343854 2.662935 11.419071 3.404198 3.422245.497964 6.806391.681776 9.78682.527374 8.017545-.413076 15.966245-1.588136 19.326328-2.856105 3.420241-1.286015 4.270455-3.430266 5.127353-7.077765.114966-.49529.221243-.949138.334872-1.417023l.024063-.287415s1.503248-9.276157 2.275927-16.494956c4.157493.554778 8.413242 1.568084 8.413242 1.568084l.768-5.119332c-4.027822-1.70377-8.73742-2.303332-8.73742-2.303332z" fill="#545352"/><path d="m111.515739 150.559415s-11.008-5.249671-17.3084074 4.498381c0 0-.6503603-9.693911 8.2394574-10.776731 8.890485-1.084825 9.06895 6.27835 9.06895 6.27835" fill="#a0d1de"/><path d="m107.386987 136.315655s-10.2045745-4.815874-14.8540157 4.439562c0 0-1.5186214-8.086392 5.7636762-10.038141 7.2829665-1.952418 9.0903395 5.598579 9.0903395 5.598579" fill="#a0d1de"/><path d="m150.94776 156.502893s8.548929-4.077285 13.442339 3.494433c0 0 .505316-7.528271-6.398663-8.370464-6.905316-.842194-7.043676 4.876031-7.043676 4.876031" fill="#a0d1de"/><path d="m157.026924 143.019112s8.650528-1.400313 10.131718 6.506277c0 0 2.871478-5.708198-2.143582-8.730068-5.015728-3.023206-7.988136 2.223791-7.988136 2.223791" fill="#a0d1de"/><path d="m110.750413 227.354736s6.039728-4.059237 9.605013-4.618026c0 0 .778026 7.65928 4.320584 11.433776 0 0 7.645912-6.891948 15.206935-7.381891 0 0 1.95175 4.200272 5.120669 5.757661l-.018047.048794c1.143644.713859 2.544626 1.435739 3.901493 1.73719 0 0 4.3393-2.626172 5.595238-7.422663 0 0 .417754 10.125702-5.938131 15.644742 0 0-4.846621-2.365494-8.338381-6.151353-1.048731-1.021326-2.138903-2.209086-2.668282-3.174935 0 0-11.213201 7.932658-11.622935 12.456439 0 0-8.094412-7.891885-10.854266-13.972386 0 0-5.402068 1.705107-6.900637 2.803968 0 0-4.341974-7.101159-5.223603-13.50918 0 0 5.221598 4.986987 7.81435 6.347864" fill="#b2dce5"/><path d="m131.132825 207.453577c-.447833-.095582 11.373619.818131 22.98118.405723 0 0 .620282-2.214433 1.510601-3.430934 0 0-.193838 3.727039.848877 4.489691 0 0-5.80846 2.286622-11.666381 2.269912 0 0 6.38329-1.065442 8.524198-2.166977 0 0-11.648334.648355-22.198475-1.567415" fill="#545352"/></svg>