<svg height="256" preserveAspectRatio="xMidYMid" viewBox="0 0 256 256" width="256" xmlns="http://www.w3.org/2000/svg" xmlns:xlink="http://www.w3.org/1999/xlink"><linearGradient id="a"><stop offset="0" stop-color="#b70000"/><stop offset="1" stop-color="#ff2e2e"/></linearGradient><linearGradient id="b" x1="50%" x2="50%" xlink:href="#a" y1="10.483454%" y2="0%"/><linearGradient id="c" x1="94.226284%" x2="34.905504%" xlink:href="#a" y1="28.490759%" y2="61.944442%"/><linearGradient id="d" x1="88.558514%" x2="5.268429%" xlink:href="#a" y1="50%" y2="100%"/><linearGradient id="e" x1="95.265027%" x2="11.98367%" xlink:href="#a" y1="9.313395%" y2="62.083356%"/><linearGradient id="f" x1="67.157136%" x2="0%" xlink:href="#a" y1="76.560868%" y2="94.308064%"/><linearGradient id="g" x1="80.669223%" x2="0%" xlink:href="#a" y1="52.178139%" y2="50%"/><linearGradient id="h" x1="76.622759%" x2="4.688644%" xlink:href="#a" y1="50%" y2="28.877841%"/><linearGradient id="i" x1="93.740278%" x2="8.898053%" xlink:href="#a" y1="5.415091%" y2="10.995458%"/><linearGradient id="j" x1="10.938957%" x2="55.04904%" y1="11.453213%" y2="91.134083%"><stop offset="0" stop-color="#d13700"/><stop offset="1" stop-color="#f94721"/></linearGradient><linearGradient id="k" x1="11.961026%" x2="100%" xlink:href="#a" y1="33.290031%" y2="100%"/><linearGradient id="l" x1="4.7968%" x2="78.889811%" xlink:href="#a" y1="0%" y2="76.442283%"/><linearGradient id="m" x1="11.983671%" x2="85.891062%" xlink:href="#a" y1="20.016579%" y2="85.868193%"/><linearGradient id="n" x1="0%" x2="95.693099%" xlink:href="#a" y1="3.652702%" y2="50%"/><linearGradient id="o" x1="20.672013%" x2="97.357021%" xlink:href="#a" y1="38.837198%" y2="100%"/><linearGradient id="p" x1="25.056166%" x2="100%" xlink:href="#a" y1="10.000342%" y2="88.645027%"/><mask id="q" fill="#fff"><circle cx="128" cy="128" fill="#fff" r="128"/></mask><g mask="url(#q)"><g transform="translate(-1.92)"><circle cx="129.92" cy="128" fill="url(#b)" r="128"/><path d="m30.6988749 208.871414c1.3011251 6.808586 37.4611251 41.43259 63.3811251 42.648586 0 0 3.4234707-14.610602 5.983471-38.930602z" fill="url(#c)"/><path d="m30.6988749 208.871414c1.3011251 6.808586 37.4611251 41.43259 63.3811251 42.648586 0 0 3.4234707-14.610602 5.983471-38.930602z" fill="#fd4b00"/><path d="m99.9123731 212.818748c3.5900619-14.495951 9.2963869-35.891263 16.5676269-53.458748l-85.7811251 49.511414z" fill="url(#d)"/><path d="m99.9123731 212.818748c3.5900619-14.495951 9.2963869-35.891263 16.5676269-53.458748l-85.7811251 49.511414z" fill="#fd4b00" fill-opacity=".8"/><path d="m116.148176 160.578611-111.23711205-4.942818c-1.07106395 10.124207 12.36893605 45.324207 25.78781095 53.235621z" fill="url(#e)"/><path d="m116.148176 160.578611-111.23711205-4.942818c-1.07106395 10.124207 12.36893605 45.324207 25.78781095 53.235621z" fill="#fd4b00" fill-opacity=".6"/><path d="m116.218114 160.969825c4.640356-11.211207 21.057402-42.169428 23.301886-45.769825l-134.60893605 40.435793" fill="url(#f)"/><path d="m116.218114 160.969825c4.640356-11.211207 21.057402-42.169428 23.301886-45.769825l-134.60893605 40.435793" fill="#fd4b00" fill-opacity=".4"/><path d="m142.59394 115.815689-126.1965727-47.0046237c-18.9573673 18.8689347-18.9573673 77.1089347-11.48630335 86.8247277z" fill="url(#g)"/><path d="m142.59394 115.815689-126.1965727-47.0046237c-18.9573673 18.8689347-18.9573673 77.1089347-11.48630335 86.8247277z" fill="#fd4b00" fill-opacity=".2"/><path d="m139.518489 115.434847c19.2-26.8800002 37.182282-51.8844526 49.921511-66.154847l-173.0426327 19.5310653z" fill="url(#h)"/><path d="m188.43948 51.7141996c12.898251-14.4485296 21.48052-24.1941996 21.48052-24.1941996l-118.014848.0947153-41.47315.0332852c-19.072002 11.3919995-29.312002 20.5175321-34.0346347 41.1630648z" fill="url(#i)"/><path d="m188.43948 51.7141996c12.898251-14.4485296 21.48052-24.1941996 21.48052-24.1941996l-118.014848.0947153-41.47315.0332852c-19.072002 11.3919995-29.312002 20.5175321-34.0346347 41.1630648z" fill="#632003" fill-opacity=".1"/><path d="m177.196797 246.988808s-46.201201-23.094521-69.301802-34.641781c-1.191665-.595675-31.2750884 31.618976-6.225042 40.515975 25.050047 8.896998 58.970047 3.136998 75.526844-5.874194z" fill="url(#j)"/><path d="m177.196797 246.988808s-46.201201-23.094521-69.301802-34.641781c-1.191665-.595675-31.2750884 31.618976-6.225042 40.515975 25.050047 8.896998 58.970047 3.136998 75.526844-5.874194z" fill="#fd4b00"/><path d="m177.196797 246.988808-54.316797-84.428808s-6.598932 17.068067-10.88 30.72c-3.37357 10.758006-5.766814 20.531296-5.259514 20.784879 23.141202 11.567556 70.456311 32.923929 70.456311 32.923929z" fill="url(#k)"/><path d="m177.196797 246.988808-54.316797-84.428808s-6.598932 17.068067-10.88 30.72c-3.37357 10.758006-5.766814 20.531296-5.259514 20.784879 23.141202 11.567556 70.456311 32.923929 70.456311 32.923929z" fill="#fd4b00" fill-opacity=".8"/><path d="m177.193883 246.987055c23.766117-5.067055 55.766117-35.787055 59.324516-48.100649l-113.638399-35.686406z" fill="url(#l)"/><path d="m177.193883 246.987055c23.766117-5.067055 55.766117-35.787055 59.324516-48.100649l-113.638399-35.686406z" fill="#fd4b00" fill-opacity=".6"/><path d="m236.515385 198.886721s-59.52039-54.88234-89.715188-81.360151c-.319241-.279943-9.973013 14.772064-15.600197 25.83343-5.718538 11.240941-9.109344 20.274383-8.585403 20.438185 37.692284 11.783919 113.900788 35.088536 113.900788 35.088536z" fill="url(#m)"/><path d="m236.515385 198.886721s-59.52039-54.88234-89.715188-81.360151c-.319241-.279943-9.973013 14.772064-15.600197 25.83343-5.718538 11.240941-9.109344 20.274383-8.585403 20.438185 37.692284 11.783919 113.900788 35.088536 113.900788 35.088536z" fill="#fd4b00" fill-opacity=".4"/><path d="m236.518399 198.886406c14.361601-14.566406 24.601601-37.606406 21.401601-70.886406l-113.92-10.24z" fill="url(#n)"/><path d="m236.518399 198.886406c14.361601-14.566406 24.601601-37.606406 21.401601-70.886406l-113.92-10.24z" fill="#fd4b00" fill-opacity=".2"/><path d="m257.92 128s-41.678956-49.4027117-63.36-72.96c-.24238-.2633549-13.882088 15.5095069-24.96 30.08-12.031455 15.824664-24.176907 33.875334-23.68 33.92 37.0189 3.327542 112 8.96 112 8.96z" fill="url(#o)"/><path d="m257.92 128s-41.678956-49.4027117-63.36-72.96c-.24238-.2633549-13.882088 15.5095069-24.96 30.08-12.031455 15.824664-24.176907 33.875334-23.68 33.92 37.0189 3.327542 112 8.96 112 8.96z" fill="none"/><path d="m257.92 128c0-58.88-31.36-87.68-42.256867-94.9244921 0 0-10.863133 11.0844921-23.023133 23.8844921z" fill="url(#p)"/><path d="m257.92 128c0-58.88-31.36-87.68-42.256867-94.9244921 0 0-10.863133 11.0844921-23.023133 23.8844921z" fill="#632003" fill-opacity=".1"/><path d="m50.304 27.6552173h159.488c-17.664088 17.6640883-33.727928 35.9679053-48.192 54.912s-26.879948 38.8478957-37.248 59.7119997c-10.368052 20.864105-18.303972 42.815885-23.808 65.856-5.5040275 23.040115-8.1280013 47.359872-7.872 72.96h7.68c0-26.11213 2.815972-50.495886 8.448-73.152 5.632028-22.656113 13.567949-44.159898 23.808-64.512 10.240051-20.352101 22.655927-39.871906 37.248-58.5599997 14.592073-18.6880935 30.719912-36.8639117 48.384-54.528v-10.368h-167.936z" fill="#fff"/></g></g></svg>