<svg height="266" viewBox="0 0 256 266" width="256" xmlns="http://www.w3.org/2000/svg"><g fill="#d35052" fill-rule="evenodd"><path d="m28.7582762 265.429569c-15.3373701 0-27.81489498-12.477525-27.81489498-27.816309 0-15.338785 12.47752488-27.81631 27.81489498-27.81631 15.3387846 0 27.8163094 12.477525 27.8163094 27.81631 0 15.338784-12.4775248 27.816309-27.8163094 27.816309zm0-44.317702c-9.0986077 0-16.4999779 7.401371-16.4999779 16.501393s7.4013702 16.501392 16.4999779 16.501392c9.1000221 0 16.5013923-7.40137 16.5013923-16.501392s-7.4013702-16.501393-16.5013923-16.501393z"/><path d="m128.707182 0c-15.33737 0-27.816309 12.4775249-27.816309 27.8163094 0 8.5936796 3.920619 16.2864088 10.063204 21.3922652l-66.5005963 131.6363314c-1.4087072 2.789127-.2899448 6.192088 2.4977679 7.600796.8189171.412994 1.6887514.609591 2.5472707.609591 2.0663868 0 4.0578122-1.137149 5.0535249-3.107359l66.4015908-131.4369064c2.463824.7170829 5.060597 1.1215912 7.753547 1.1215912 15.33737 0 27.81631-12.4789392 27.81631-27.8163094 0-15.3387845-12.47894-27.8163094-27.81631-27.8163094zm0 44.3177017c-9.098607 0-16.501392-7.4027846-16.501392-16.5013923 0-9.1000221 7.402785-16.5013923 16.501392-16.5013923 9.098608 0 16.501393 7.4013702 16.501393 16.5013923 0 9.0986077-7.402785 16.5013923-16.501393 16.5013923z"/><path d="m228.183691 209.325967c-2.70568 0-5.315183.405923-7.790321 1.130077l-68.27421-131.9644639c-1.43558-2.7763978-4.849856-3.8612155-7.62484-2.4256353-2.774983 1.4355801-3.861215 4.8484419-2.425635 7.6234254l68.335028 132.0832708c-1.780685 1.485083-3.356288 3.202121-4.721149 5.081812l-77.965437-37.148287-51.0232043 25.263381c-2.800442 1.386077-3.9460774 4.780552-2.56 7.580994 1.3860773 2.800442 4.7805524 3.944663 7.5809944 2.56l46.0969729-22.825016 73.217414 34.886718c-.422895 1.92495-.660508 3.919205-.660508 5.970033 0 15.33737 12.477524 27.81631 27.814895 27.81631 15.338784 0 27.816309-12.47894 27.816309-27.81631 0-15.338784-12.477525-27.816309-27.816309-27.816309zm0 44.317702c-9.098608 0-16.499978-7.402785-16.499978-16.501393 0-9.100022 7.40137-16.501392 16.499978-16.501392 9.100022 0 16.501392 7.40137 16.501392 16.501392 0 9.098608-7.40137 16.501393-16.501392 16.501393z"/></g></svg>