<svg height="256" preserveAspectRatio="xMidYMid" viewBox="0 0 256 256" width="256" xmlns="http://www.w3.org/2000/svg" xmlns:xlink="http://www.w3.org/1999/xlink"><linearGradient id="a" x1="0%" x2="50%" y1="0%" y2="50%"><stop offset="0" stop-color="#ff5959"/><stop offset="1" stop-color="#df0000"/></linearGradient><linearGradient id="b" x1=".846605%" x2="50.039987%" y1="99.193392%" y2="50%"><stop offset="0" stop-color="#ffb73d"/><stop offset="1" stop-color="#ffa000"/></linearGradient><linearGradient id="c" x1="92.818676%" x2="50%" y1="92.818676%" y2="50%"><stop offset="0" stop-color="#fff18d"/><stop offset="1" stop-color="#ffcd01"/></linearGradient><linearGradient id="d" x1="82.170851%" x2="4.076231%" y1="82.170851%" y2="4.07623%"><stop offset="0" stop-color="#fff"/><stop offset="1" stop-color="#fff" stop-opacity="0"/></linearGradient><linearGradient id="e" x1="2.904355%" x2="50%" y1="97.095649%" y2="50%"><stop offset="0" stop-color="#00a000" stop-opacity=".258929"/><stop offset="1" stop-color="#008000"/></linearGradient><linearGradient id="f" x1="0%" x2="100%" y1="50%" y2="50%"><stop offset="0" stop-color="#263cce"/><stop offset="1" stop-color="#263cce" stop-opacity="0"/></linearGradient><linearGradient id="g" x1="50%" x2="-42.782531%" y1="50%" y2="-3.568026%"><stop offset="0" stop-color="#652f99"/><stop offset="1" stop-color="#502679" stop-opacity=".651786"/></linearGradient><path d="m255.410135 127.410191c0 70.366679-57.043464 127.410142-127.410142 127.410142-70.3666784 0-127.41014187-57.043463-127.41014187-127.410142 0-70.3666779 57.04346347-127.41014145 127.41014187-127.41014145v127.41014145z" fill="url(#a)"/><path d="m127.999994 236.618916c-60.3143059 0-109.2087116-48.894406-109.2087116-109.208712 0-60.3143057 48.8944057-109.2087114 109.2087116-109.2087114 60.314306 0 109.208712 48.8944057 109.208712 109.2087114h-109.208712z" fill="url(#b)"/><path d="m219.007588 127.410309c0 50.261886-40.745308 91.007195-91.007194 91.007195-50.2618855 0-91.0071942-40.745309-91.0071942-91.007195 0-50.2618852 40.7453087-91.0071939 91.0071942-91.0071939v91.0071939z" fill="url(#c)" transform="matrix(-1 0 0 -1 256.000788 254.820618)"/><path d="m127.999785 54.6049463c40.209489 0 72.805721 32.5962313 72.805721 72.8057207 0 40.209489-32.596232 72.80572-72.805721 72.80572-40.2094888 0-72.8057202-32.596231-72.8057202-72.80572h72.8057202z" fill="url(#d)"/><path d="m182.604523 127.410156c0 30.157141-24.447193 54.604334-54.604334 54.604334-30.1571412 0-54.6043343-24.447193-54.6043343-54.604334s24.4471931-54.6043341 54.6043343-54.6043341v54.6043341z" fill="url(#e)"/><path d="m128.000378 164.540978c-20.104745 0-36.4028607-16.298116-36.4028607-36.402861 0-20.104744 16.2981157-36.4028599 36.4028607-36.4028599 20.104744 0 36.40286 16.2981159 36.40286 36.4028599h-36.40286z" fill="url(#f)"/><path d="m146.201562 127.410445c0 6.502745-3.469173 12.511529-9.100715 15.762901-5.631542 3.251373-12.569888 3.251373-18.20143 0-5.631542-3.251372-9.100715-9.260156-9.100715-15.762901s3.469173-12.511529 9.100715-15.762901c5.631542-3.251373 12.569888-3.251373 18.20143 0 5.631542 3.251372 9.100715 9.260156 9.100715 15.762901z" fill="url(#g)" transform="matrix(-1 0 0 -1 256.000264 254.82089)"/></svg>