<svg height="256" preserveAspectRatio="xMidYMid" viewBox="0 0 256 256" width="256" xmlns="http://www.w3.org/2000/svg"><path d="m169.533 127.998c0 .669-.018 1.329-.051 1.99-.003.057-.011.116-.013.174l.061.291 86.47 125.431v.114-14.123-2.189l-90.75-133c-.341-.602-1.852-.739-2.227-1.318l-.111-.179-.004.003c-1.4-2.124-3.032-4.076-4.855-5.836 7.105 7.452 11.48 17.532 11.48 28.642z" fill="#68a5c6"/><path d="m128.001 169.533c-.67 0-1.33-.018-1.992-.05-.055-.004-.114-.01-.171-.014l-4.837 1.883-117.168 79.835-3.833 4.814h14.127l4.707-1.981 126.5-85.5 3.526-4.419c.602-.343 1.194-.701 1.772-1.079l.18-.109-.002-.006c2.123-1.398 4.077-3.03 5.835-4.853-7.452 7.108-17.533 11.479-28.644 11.479z" fill="#98b7d4"/><path d="m0 14.127 1.666 5.058 86.335 127.667 3.899 2.008c.343.602.701 1.194 1.079 1.776l.109.179.006-.003c1.398 2.123 3.03 4.075 4.853 5.836-7.108-7.451-11.479-17.533-11.479-28.644 0-.669.018-1.331.05-1.991.004-.056.01-.116.014-.171l-1.365-4.822-81-118.667-4.167-2.353z" fill="#347294"/><path d="m241.874.001-5.04 1.852-126.834 85.5-2.86 4.55c-.601.341-1.193.699-1.772 1.076l-.179.11.002.004c-2.123 1.4-4.077 3.031-5.835 4.855 7.451-7.108 17.533-11.48 28.644-11.48.669 0 1.33.018 1.991.051.056.003.115.01.171.013l3.838-1.013 118.167-80.833 3.833-4.685z" fill="#5089af"/><path d="m0 256.001 125.836-86.526c-10.097-.521-19.236-4.644-26.165-11.112-.594-.553-1.165-1.131-1.726-1.719-1.824-1.757-3.455-3.711-4.854-5.834l-.005.002-.11-.18c-.376-.578-.735-1.17-1.078-1.772l-91.898-134.733z" fill="#367ba0"/><path d="m0 0 86.529 125.836c.52-10.097 4.644-19.235 11.109-26.164.553-.594 1.132-1.166 1.718-1.727 1.759-1.824 3.712-3.455 5.835-4.853l-.002-.006.179-.11c.58-.377 1.171-.735 1.772-1.078l134.734-91.898z" fill="#5495bf"/><path d="m130.165 86.529c10.097.52 19.235 4.644 26.164 11.111.594.555 1.166 1.132 1.727 1.719 1.824 1.757 3.455 3.711 4.853 5.835l.006-.003.11.18c.377.578.735 1.17 1.078 1.772l91.898 134.734v-241.877z" fill="#71b6db"/><path d="m158.363 156.33c-.554.594-1.13 1.165-1.718 1.726-1.757 1.824-3.712 3.455-5.836 4.854l.003.005-.18.11c-.577.377-1.17.735-1.772 1.078l-134.734 91.898h241.874l-86.526-125.836c-.519 10.097-4.644 19.236-11.111 26.165z" fill="#a5c8e8"/></svg>