<svg height="284" preserveAspectRatio="xMidYMid" viewBox="0 0 256 284" width="256" xmlns="http://www.w3.org/2000/svg"><g fill="none" fill-rule="evenodd"><ellipse cx="127.748451" cy="156.0842" fill="#6fc0bf" rx="127.748451" ry="127.477662"/><path d="m84.7773328 276.161153c13.429592 4.787341 27.8938012 7.400709 42.9711182 7.400709 14.773317 0 28.959074-2.511183 42.158751-7.114593l-2.294041-38.086701h-80.6184255z" fill="#d4d4d4"/><path d="m214.863253 128.898026c-15.97654-1.024399-10.591419 12.300453-11.615818 28.243783-1.026954 15.94333-8.077681 28.471144 7.901413 29.492988 15.976539 1.024399 19.800793-11.710338 20.827746-27.653668 1.021845-15.940775-1.136802-29.058704-17.113341-30.083103z" fill="#a3a3a3"/><path d="m169.357961 268.129454-1.747355-29.768886h-80.6158705l-.9145509 15.58313c13.1281478 16.584537 75.9894694 21.256921 83.2777764 14.185756z" fill="#a3a3a3"/><path d="m39.7446436 128.898026c15.9765395-1.024399 10.5914188 12.300453 11.6158179 28.243783 1.0269538 15.94333 8.0776812 28.471144-7.9014129 29.492988-15.9765395 1.024399-19.8007927-11.710338-20.8277465-27.653668-1.0269538-15.943329 1.1342474-29.058704 17.1133415-30.083103z" fill="#bfbfbf"/><path d="m127.303948 16.5870916c-49.3218814 0-89.3041039 39.8979203-89.3041039 89.1150634v106.920704c0 11.771649 14.6839061 43.405401 89.3041039 43.405401 74.620198 0 89.304104-31.631198 89.304104-43.405401v-106.920704c0-49.2171431-39.982222-89.1150634-89.304104-89.1150634z" fill="#d4d4d4"/><path d="m127.303948 256.02826c74.620198 0 89.304104-31.631198 89.304104-43.405401v-106.920704c0-49.2171431-39.982222-89.1150634-89.304104-89.1150634z" fill="#b3b3b3"/><path d="m49.7868209 87.6870352c-.7970387 2.9735676-1.4280277 6.0161097-1.8801939 9.1174079" stroke="#f0f0f0" stroke-width="3.238"/><path d="m88.4304271 38.3753719c-13.6160786 7.5386582-24.8027218 18.9143426-32.0935826 32.6658156" stroke="#f0f0f0" stroke-width="3.238"/><path d="m207.237738 113.491165c-12.111413-.934988-30.645118-1.313071-53.447579 2.794744-8.721443 1.571086-14.975132 7.518222-26.486211 7.518222-11.513633 0-17.764767-5.947136-26.48621-7.518222-22.8050161-4.107815-41.3361669-3.729732-53.450134-2.794744-10.3053023.794484-25.254888 2.838173-24.7363019 8.27694.2963349 3.121735.6028883 3.796153 1.2057766 6.866796.5952244 3.045097 5.1066681 2.65935 6.652208 6.261352 1.6604973 3.867682 6.2868985 20.518639 7.4696836 24.279027 2.3808978 7.564204 7.3138523 13.24055 14.934258 15.851363 10.7983423 3.701632 21.7984988 3.622439 32.9595959 2.076899 8.1492103-1.129138 14.8346278-5.162869 20.2197488-11.380793 4.268756-4.927846 7.306189-10.555655 9.763725-16.541109 1.218549-2.971013 2.255722-6.069757 3.895782-8.795527.970752-1.61196 2.835619-3.48449 4.516553-3.732287 1.129138-.16605 2.135655-.296335 3.052761-.3602.91455.063865 1.923622.19415 3.05276.3602 1.683489.245243 3.545801 2.117773 4.516553 3.732287 1.642615 2.728325 2.677233 5.824514 3.895782 8.795527 2.457537 5.985454 5.494969 11.613263 9.763725 16.541109 5.385121 6.217924 12.073093 10.251655 20.219749 11.380793 11.161097 1.548095 22.161254 1.624733 32.959596-2.076899 7.620406-2.610813 12.55336-8.287159 14.934258-15.851363 1.18534-3.762943 5.809186-20.411345 7.472238-24.279027 1.54554-3.599447 6.054429-3.213701 6.652208-6.261352.600334-3.070643.904333-3.745061 1.203222-6.866796.523695-5.436213-14.42589-7.479902-24.733747-8.27694zm-99.200669 26.238413c-.490485 10.44836-4.508889 19.371618-12.4971585 26.286951-4.5139983 3.908555-11.3016007 5.459204-25.2344511 5.459204-14.1014547 0-21.9364478-5.954799-23.7578857-9.891455-4.3939315-9.503154-6.0901935-19.790574-4.3862677-30.272145 1.0601637-6.511704 1.7984464-10.011521 23.46666-10.011521 24.0082376 0 33.5548203 4.452687 36.47985 5.862833 4.657057 2.245503 6.166832 7.485011 5.929253 12.566133zm100.018145 21.8547c-1.821438 3.936656-9.656431 9.891455-23.757886 9.891455-13.930296 0-20.720453-1.550649-25.234451-5.459204-7.985715-6.915333-12.004119-15.838591-12.494604-26.286951-.240134-5.078567 1.272196-10.32063 5.926698-12.563579 2.92503-1.410145 12.471613-5.862833 36.47985-5.862833 21.665659 0 22.403942 3.497263 23.46666 10.011522 1.703926 10.479016.007664 20.766436-4.386267 30.26959z" fill="#333"/><g fill="#fff"><path d="m108.037069 139.729578c-.490485 10.44836-4.508889 19.371618-12.4971585 26.286951-4.5139983 3.908555-11.3016007 5.459204-25.2344511 5.459204-14.1014547 0-21.9364478-5.954799-23.7578857-9.891455-4.3939315-9.503154-6.0901935-19.790574-4.3862677-30.272145 1.0601637-6.511704 1.7984464-10.011521 23.46666-10.011521 24.0082376 0 33.5548203 4.452687 36.47985 5.862833 4.657057 2.245503 6.166832 7.485011 5.929253 12.566133zm100.018145 21.8547c-1.821438 3.936656-9.656431 9.891455-23.757886 9.891455-13.930296 0-20.720453-1.550649-25.234451-5.459204-7.985715-6.915333-12.004119-15.838591-12.494604-26.286951-.240134-5.078567 1.272196-10.32063 5.926698-12.563579 2.92503-1.410145 12.471613-5.862833 36.47985-5.862833 21.665659 0 22.403942 3.497263 23.46666 10.011522 1.703926 10.479016.007664 20.766436-4.386267 30.26959z" opacity=".5"/><path d="m136.569524 141.448831c0 1.67838-1.361608 3.037433-3.042542 3.037433h-11.559617c-1.680934 0-3.042542-1.359053-3.042542-3.037433v-19.747145c0-1.67838 1.361608-3.037433 3.042542-3.037433h11.559617c1.680934 0 3.042542 1.359053 3.042542 3.037433z"/><path d="m190.844797 202.9511c-6.156614-12.379647-15.061989 2.797299-63.543403 2.797299-48.4814149 0-57.3867901-15.176946-63.5434035-2.797299-6.6598718 13.393827 32.0092804 27.270476 63.5434035 27.270476 31.534122 0 70.205829-13.876649 63.543403-27.270476z"/></g><path d="m190.844797 202.9511c-6.156614-12.379647-15.061989 2.797299-63.543403 2.797299v24.473177c31.534122 0 70.205829-13.876649 63.543403-27.270476z" fill="#f0f0f0"/><path d="m127.303948 0c-19.55555 0-33.6902145 7.54632198-31.8483397 16.7914605 1.8444294 9.2425839 5.4362127 28.489026 31.8483397 28.489026s30.003911-19.2464421 31.84834-28.489026c1.841875-9.24513852-12.29279-16.7914605-31.84834-16.7914605z" fill="#666"/><path d="m127.303948 0c19.55555 0 33.690215 7.54632198 31.84834 16.7914605-1.841875 9.2451385-5.436213 28.489026-31.84834 28.489026z" fill="#4d4d4d"/></g></svg>