<svg height="165" preserveAspectRatio="xMidYMid" viewBox="0 0 512 165" width="512" xmlns="http://www.w3.org/2000/svg"><g fill="#3d515b"><path d="m.216912 108.237901h34.907389v17.454245h-34.907389z"/><path d="m52.576344 108.237901h34.885368v17.454245h-34.885368z"/><path d="m.190486 73.330512h87.282237v17.454245h-87.282237z"/><path d="m.216912 38.425325h52.366039v17.453144h-52.366039z"/><path d="m70.030589 38.425325h17.453144v17.453144h-17.453144z"/></g><g fill="#404041" transform="translate(125.522581)"><path d="m215.342796 38.3251269c-28.031174 0-42.508112 19.822658-42.508112 44.2753376 0 24.4537805 14.120189 44.2786405 42.508112 44.2786405 28.387922 0 42.508112-19.82486 42.508112-44.2786405.001101-24.4526796-14.478039-44.2753376-42.508112-44.2753376zm21.206709 44.354615c-.019819 15.7244559-5.318193 28.4605931-21.206709 28.4605931s-21.187992-12.7350361-21.204508-28.4605931v-.0385376-.0396387c.016516-15.7233548 5.317093-28.4583914 21.205609-28.4583914 15.887415 0 21.185789 12.7350366 21.205608 28.4583914v.0396387z"/><path d="m89.8301247 125.691045v-122.41534608s16.1461673-2.29353978 17.3980903-2.4620043c1.418185-.19158709 3.301024.81809893 3.301024 2.81434839v45.37971609c3.350572-3.1854107 7.040275-5.7531182 11.061402-7.709729 4.02443-1.9544086 8.743639-2.9332645 14.165333-2.9332645 4.693884 0 8.852645.7960774 12.483992 2.3893333 3.633548 1.5899527 6.664808 3.8273377 9.094881 6.7022452 2.430073 2.8793118 4.274375 6.3146667 5.531802 10.3093677 1.256327 3.9947011 1.885041 8.3945979 1.885041 13.1996904v54.7245418h-20.700215v-54.7245418c0-5.251028-1.215587-9.3161979-3.64566-12.1955097-2.431174-2.8760086-6.076834-4.315114-10.939183-4.315114-3.575191 0-6.925763.8103914-10.052817 2.4322753-3.130357 1.6207828-6.091148 3.8251354-8.884576 6.6207656v62.1832256z"/><path d="m366.179097 126.870297c-14.244611 0-23.172129-8.289996-23.172129-23.755699v-45.8355614h-16.053678s3.412233-11.8013248 3.681996-12.7306323c.270865-.9282065.976654-1.9257806 2.393738-2.1228731s9.958124-1.3884559 9.958124-1.3884559l3.945153-25.0979097s11.591019-1.6339957 13.428714-1.9081634c1.735295-.2598538 3.308731.9898666 3.308731 2.8804129v24.1256602h20.303828v16.2419613h-20.303828v45.2178584c0 6.173729 3.759071 8.533333 7.361789 8.533333 2.202151 0 5.217996-1.169342 7.468594-2.213161 1.390658-.643028 3.545462-.166263 4.102606 1.774933.492181 1.71988 3.109437 10.848895 3.109437 10.848895-2.258305 1.457823-9.396576 5.429402-19.533075 5.429402z"/><path d="m315.578082 57.5499011c-4.03434-1.3102796-11.617445-3.407828-18.83059-3.407828-7.349677 0-13.132524 2.5390796-13.132524 8.6500473 0 7.6326538 12.463071 9.8546237 20.994202 12.9662624 5.70357 2.0799312 20.998606 6.1351914 20.998606 22.5852559 0 19.9823143-16.594305 28.5255573-34.296292 28.5255573-17.704189 0-28.163303-6.58443-28.163303-6.58443s2.746081-9.700474 3.302124-11.615243c.503192-1.723183 2.506048-2.327674 3.782194-1.837695 4.556249 1.756215 12.783484 4.197299 22.083166 4.197299 9.415294 0 13.970443-2.874908 13.970443-9.003493 0-8.1567652-12.714117-10.6495996-21.123028-13.3020899-5.792757-1.8255828-21.125231-6.0834409-21.125231-24.1752086 0-17.8220043 15.649583-26.1835699 32.374917-26.1835699 14.157625 0 21.102107 2.9607914 26.289273 5.603372 0 0-2.890323 10.0737377-3.319742 11.5745033-.506495 1.7837419-1.969824 2.6018408-3.804215 2.0072602z"/><path d="m81.7493333 41.3156473c0-1.9279828-1.6472086-3.0312602-3.218443-2.8517849-6.9466838.7960774-11.9026236 4.0651699-15.1089548 7.1085419-6.2959484-4.9328172-15.0351828-7.2880172-24.8435613-7.2880172-19.6652043 0-35.02960861 9.4912688-35.02960861 30.1870796 0 11.8806021 5.05723871 20.0670967 13.08848171 24.8865032-5.9645247 2.823157-9.93720429 8.8141071-9.93720429 14.7037591 0 9.852422 7.78350109 12.937634 7.78350109 12.937634s-13.60929034 6.605351-13.60929034 19.820456c0 16.916921 15.56810324 23.7568 34.59138064 23.7568 27.4211785 0 46.2870022-11.32566 46.2870022-32.121668 0-12.798899-9.7940646-19.864499-31.1373076-20.70462-12.6656688-.499888-20.8697806-.955733-22.9023656-1.62849-2.6855225-.891871-4.0057118-3.042271-4.0057118-5.416189 0-2.62056 2.1526022-5.1155961 5.5461161-6.8288692 2.9596904.5241118 6.0834409.7828645 9.3272086.7828645 19.6817205 0 35.0307097-9.4637419 35.0307097-30.1870796 0-5.0253075-.907286-9.3877677-2.5566968-13.1149075 2.8914237-1.5426064 6.4489979-2.6282667 10.6969463-2.6282667-.0022022 0-.0022022-9.655329-.0022022-11.4137462zm-54.1938236 84.4822017s10.3269849.390882 20.6462623.868749c11.5932215.536224 15.2058495 3.034563 15.2058495 9.037626 0 7.334262-10.0748387 14.468129-24.1542882 14.468129-13.3648516 0-20.0406709-4.649841-20.0406709-12.391501 0-4.441738 2.3452903-9.410891 8.3428473-11.983003zm11.0603011-41.5843092c-9.3161979 0-16.5843957-4.9482323-16.5843957-15.7420731 0-10.794942 7.2748043-15.7431742 16.5843957-15.7431742 9.3106924 0 16.5843957 4.9350193 16.5843957 15.7431742 0 10.8081548-7.2648947 15.7420731-16.5843957 15.7420731z"/></g></svg>