<svg height="256" preserveAspectRatio="xMidYMid" viewBox="0 0 256 256" width="256" xmlns="http://www.w3.org/2000/svg"><path d="m256.0003 128.0001c0 70.692-57.308 128-128 128-70.693 0-128-57.308-128-128s57.307-128 128-128c70.692 0 128 57.308 128 128" fill="#f8835a"/><path d="m78.6297 140.3693c-2.864 0-5.731-1.07-7.951-3.221-4.533-4.392-4.648-11.627-.256-16.16l77.144-79.619c4.391-4.533 11.626-4.648 16.16-.256 4.532 4.392 4.647 11.628.255 16.161l-77.143 79.619c-2.241 2.313-5.224 3.476-8.209 3.476zm50.311 3.0366c-2.855 0-5.714-1.066-7.927-3.21-4.519-4.379-4.633-11.592-.254-16.111l60.927-62.884c4.379-4.519 11.591-4.632 16.111-.254 4.519 4.378 4.633 11.591.255 16.11l-60.928 62.884c-2.235 2.306-5.208 3.465-8.184 3.465zm-24.6909 79.2861c-2.865 0-5.731-1.069-7.951-3.221-4.533-4.391-4.648-11.627-.256-16.16l106.568-109.989c4.391-4.532 11.627-4.647 16.16-.255 4.534 4.392 4.648 11.627.255 16.161l-106.567 109.988c-2.241 2.313-5.224 3.476-8.209 3.476zm-33.4394-19.4409c-2.865 0-5.731-1.07-7.951-3.221-4.533-4.392-4.648-11.628-.256-16.16l29.053-29.986c4.393-4.533 11.628-4.648 16.161-.256 4.533 4.393 4.647 11.628.255 16.161l-29.053 29.986c-2.241 2.313-5.224 3.476-8.209 3.476zm-23.1792-86.7632c-2.865 0-5.732-1.07-7.952-3.221-4.533-4.392-4.647-11.627-.255-16.16l29.053-29.986c4.393-4.533 11.628-4.647 16.161-.255s4.647 11.627.255 16.161l-29.053 29.985c-2.242 2.313-5.224 3.476-8.209 3.476zm149.4331 65.295c-2.864 0-5.731-1.07-7.951-3.221-4.533-4.392-4.648-11.627-.256-16.16l13.754-14.195c4.391-4.532 11.627-4.649 16.16-.255 4.533 4.392 4.647 11.627.255 16.16l-13.753 14.195c-2.241 2.313-5.224 3.476-8.209 3.476zm-26.7808 28.3383c0 6.312-5.117 11.428-11.429 11.428-6.311 0-11.428-5.116-11.428-11.428s5.117-11.429 11.428-11.429c6.312 0 11.429 5.117 11.429 11.429zm-109.2226-51.1958c0 6.312-5.117 11.429-11.429 11.429s-11.428-5.117-11.428-11.429 5.116-11.428 11.428-11.428 11.429 5.116 11.429 11.428zm54.2841-112.1425c0 6.312-5.117 11.428-11.428 11.428-6.312 0-11.429-5.116-11.429-11.428s5.117-11.429 11.429-11.429c6.311 0 11.428 5.117 11.428 11.429z" fill="#fff"/></svg>