<svg height="133" preserveAspectRatio="xMidYMid" viewBox="0 0 512 133" width="512" xmlns="http://www.w3.org/2000/svg"><path d="m169.19055 104.133614c0 21.254487 17.980881 25.787634 17.980881 25.787634h41.100725v-25.787634z" fill="#6bbfa4"/><path d="m247.309973 3.23967251h25.355477v127.22850649h-25.355477z" fill="#73be88"/><path d="m385.422222 130.468179-64.522978-84.9710406-.090823 84.9710406h-25.354479v-127.22850649h23.718674l64.614799 84.97004289v-84.97004289h25.445302v127.22850649z" fill="#a3cc69"/><path d="m486.734347 28.9354854c0-21.25448735-17.980881-25.78763355-17.980881-25.78763355h-41.099727v25.78763355z" fill="#ece23c"/><path d="m169.19055 104.133614-.021957.679673v-101.66942735h-25.012149v104.12263535c0 12.514558 8.992437 22.657747 25.012149 22.657747l15.813115-.002994h2.189723s-17.980881-4.533147-17.980881-25.787634zm317.543797-75.1981286.022955-.6796725v101.6684291h25.01115v-104.1216377c0-12.5145575-8.992436-22.65874465-25.01115-22.65874465l-15.814113.0039922h-2.189723s17.980881 4.5331462 17.980881 25.78763355zm-371.319766-8.5203587-18.2663237 17.9020351c-7.2698012-8.3596725-17.6305653-13.3579103-30.7170058-13.3579103-23.2645614 0-40.1675478 17.0846315-40.1675478 41.8941754 0 25.9004133 17.6305653 42.2584641 39.7134347 42.2584641 20.8113528 0 32.806924-9.9056532 36.1693566-28.0811542h-32.3518127v-21.1746432h58.5246937c.272468 2.4532085.363291 4.7257699.363291 7.1789785 0 38.5327409-26.081061 65.7056689-62.1605929 65.7056689-35.2601326 0-66.5220741-24.810542-66.5220741-65.8873141 0-38.4409201 28.081154-65.9771384 67.1588304-65.9771384 20.3562417 0 36.8959376 7.17897856 48.2557506 19.5388382z" fill="#72736d"/></svg>