<svg height="251" preserveAspectRatio="xMidYMid" viewBox="0 0 256 251" width="256" xmlns="http://www.w3.org/2000/svg"><path d="m54.4444179 145.849313c-1.7356418.117971-3.9952239.895523-5.5111642 3.612657-1.2374925 2.218985-4.136597 2.572896-5.4901492 2.125851-2.254806-.745075-5.1367164-1.261851-7.9283582.727403-2.7916418 1.988776-5.8063284.484776-5.277612-3.140776.5287164-3.625075 1.8383284-6.854209 5.3143881-8.85397 7.5916418-4.367284 2.3154627-7.406806 6.4821492-11.789851 4.174806-4.391642 3.2525374-5.735642 3.1140299-11.70006-14.1100896-2.119642-22.1072239-6.186507-31.0371343-17.3435222-8.92991048-11.1574926-12.39164183-20.3414926-13.31725377-34.3297911s-.12322388-23.0538507 5.92047761-34.6650746c6.04370146-11.6112239 12.40692536-17.2007164 23.43402986-22.99844776 11.0271045-5.79677612 21.8316418-7.18519403 31.8185075-7.0161194 9.9868656.16859702 16.6414328.90029851 22.2844179 4.1198806 5.6425074 3.21958209 10.8045373 7.27116416 14.0952836 7.30029846 3.2912241.0291344 5.5317011-.8329552 7.1312241-2.05850742.426985 10.84322392-9.33206 11.78507462-18.0628062 12.01432832-8.7312239.2287762-14.0962388-3.3829253-22.1377911-2.0394029-8.0415522 1.3435223-21.2078806 5.002985-27.6217313 16.1671641-6.4138508 11.1641791-6.632597 15.1106866-6.0995821 24.4728359.5330149 9.3626268 8.5912836 16.3477014 13.1400597 16.4236417 4.5482985.0759403 5.5637015-1.2413134 9.5450746-3.8380895 3.9818508-2.5972537 24.3085373-27.7597612 31.2444179-33.4118209 6.9363582-5.6520597 13.7810149-7.3972537 21.1715825-7.488 7.390567-.0907463 9.279044.16 15.239641 2.6029851 5.960597 2.4425074 9.623403 6.9411343 14.429135 9.6912239 2.456358-1.4457314 3.982328-3.6045374 6.236179-5.2518209 8.060657-5.8913433 12.248836-7.4789254 21.829254-6.5466269 5.506388.5358806 12.449432 3.6814328 16.592238 7.2835821 7.376717 6.4138507 13.471045 15.3432836 18.395702 22.126806 3.834746 5.2828656 8.347224 11.603582 14.789254 13.5794626 7.033791 2.1564179 12.326686-6.9535522 13.103761-12.0066865.440358-2.8632836 1.014925-5.3726567 1.019701-8.5239403.004776-3.1517612-.317134-6.9764776-1.225552-10.261015-.908418-3.2845373-2.464478-6.5528358-4.149492-9.2628059-2.742448-4.4107463-7.229612-9.0263881-11.898269-11.4010746-2.620179-1.3325374-8.784717-3.7554627-12.670567-3.8404777-4.761314-.1031641-8.388776 1.4963582-12.790926 1.7962985-5.328238.3634627-14.846089 1.5613135-19.023283-2.5552238-2.658388-2.6197015-2.992717-4.3672836-3.446926-7.7831642 1.174448.9676418 2.816956 1.6038209 4.278926 1.7275224 3.336597.281791 6.460656-2.4425075 9.15391-4.02101495 2.218508-1.30053731 5.360239-3.62459702 8.274149-4.79904478 7.487045-3.01850746 16.683941-2.93158209 24.587463-2.12298507 6.335045.64764179 14.548537 3.46602985 20.104597 6.61014925 5.582328 3.15797015 10.961672 8.48286565 14.90197 13.50256715 4.957135 6.3159403 7.667105 11.7349254 9.462448 19.6121791 2.294925 10.0594627 2.931105 25.1711045.156657 35.0896717-2.186508 7.8161194-9.446687 19.8228059-15.626985 25.7084175-6.095284 5.805374-13.133373 8.607523-21.137194 10.140179.313313 1.615284.364895 3.121672.778985 4.44609.588418 1.879881 1.713671 3.975642 4.025313 3.312716.921791-.264119 1.415164-.492895 2.630687.570269 1.214567 1.063164.582209 5.170149-2.83606 7.013254-1.733254.934686-3.562507 1.137671-6.338388 1.193074s-7.108299.067344-10.12203-.460417c-3.013254-.527284-4.813373-2.918687-8.150925-3.293135-5.157732-.576955-9.107105-4.303283-13.242747-6.968358-1.725611-1.112358-2.30782-1.123821-3.302208-1.68597.537313 1.644895 1.253731 3.353313 1.610985 4.934686.358209 1.581374.205373 3.046209.395462 4.311881.189135 1.264716.540179 2.248119.744597 3.27403.826269.738866 1.090388 1.862686 2.478329 2.216119 1.388895.352956 3.563462-.196776 4.984358-.387821 1.420895-.191044 2.373254-.965253 3.488-.753194 1.115701.211582 2.172657 1.01015 3.107343 1.758568.934687.748417 1.73803.857791 2.494567 2.725253.756538 1.867463 1.450508 5.691702 1.55415 8.247881.103641 2.556179-.182926 4.863522-.940418 6.89194-.757493 2.028418-1.423284 2.927761-3.474627 4.936597-2.051343 2.009314-5.391761 4.957612-8.725015 7.011343.613731.908896.88597 1.740896 1.843104 2.727165.957135.986746 2.952597 2.092418 3.840478 3.133134.886925 1.040716 1.336836 1.787224 1.349731 2.954507.013851 1.166806-.042985 2.683702-.990567 3.95606-2.35988 3.168-5.151045 3.735403-8.544955 5.225552.570746 3.563941 1.036418 6.11009.211582 9.668776-.336716 1.45003-1.084657 4.737911-2.873313 5.581374-1.789135.843462-5.238926.435104-7.422568.78185-2.183641.347224-3.40585.676776-5.108059 1.014926-1.034508 1.495403-2.574806 3.145552-3.102567 4.485731-.528717 1.340657-.369194 1.821134.074507 3.18997s1.954388 3.361911 2.382328 4.964776c.427941 1.602866.511045 3.328478.111762 4.935642-.400239 1.607164-1.084657 2.773493-2.454448 4.200597-1.369314 1.427582-4.063523 2.548537-5.405612 3.705314-1.343045 1.157253-2.679881 1.296238-2.313552 3.210985.50388 2.629731 4.346268 6.894806 7.12597 7.910209 1.66591.608955 3.902089.416955 5.925253-.437015-.137074 2.246209-2.080955 3.760238-3.350925 5.251821 3.439284-.983403 6.774448-2.86615 9.081314-5.361672-.715463 2.167403-3.177075 5.646806-6.858986 8.702089-3.68191 3.055284-3.659462 2.43009-5.489671 3.645612 3.339463.671045 6.444895.489553 9.031642.024836-1.41803.781851-3.742568 1.881314-6.821732 2.204657-3.079164.322866-4.977671.094567-7.752597-.579343-2.775403-.674388-5.308656-3.197135-8.671522-4.93612.327642 1.247523.560716 2.747702 1.974925 4.030567 1.414209 1.282866 3.553911 1.935284 5.828299 3.044777-2.895284-.328597-5.937672-.427941-8.782806-1.055045-2.106269-.464717-3.521433-.957612-5.062687-1.720836-1.540298-.763224-2.729552-1.876537-4.094089-2.814567.65385 1.248955.847761 2.718089 1.960597 3.747821 1.112836 1.029731 2.921552 1.413253 4.384477 2.120597-1.52597-.033433-2.993671.297552-4.575522-.100299-1.582806-.397851-3.067224-1.023045-4.712597-2.235224s-3.342328-2.704716-4.746508-4.230686c-1.403223-1.52597-3.136-3.504239-3.660417-4.911284-.525374-1.407522.315223-2.39188.472835-3.586388-.969074.636657-2.161194.987224-2.905791 1.911403s-1.404656 1.76812-1.075104 3.379105c.33003 1.610985 1.816836 3.580179 2.86806 5.372179-3.136956-2.565254-4.888836-3.552956-5.635344-6.647403-.698746-2.897194 1.109015-5.526926 2.483105-7.717732.682507-1.088 1.703642-2.100537 2.341731-3.150806-1.417075-1.386507-3.036657-2.578149-4.251224-4.159522-1.214089-1.580896-1.724179-3.720597-2.963582-5.233194-1.239881-1.513075-2.907701-2.470687-4.360119-3.704358 1.276656 2.742448 3.374806 6.106268 3.830447 8.228776.455165 2.122507-.510567 3.421612-1.263761 4.567403-.753671 1.145791-1.969671 1.401313-3.123104 2.105313-1.153433.704478-2.947344.149015-3.634627 1.194508-.686806 1.045015-.871164 2.617313-.214448 3.652776l2.693731 4.251701c-.992477-.501015-2.702328-1.958209-3.473194-2.991761-.770865-1.033552-1.953432-1.988298-2.115343-3.385791-.16191-1.397015-.240716-2.609672.664358-3.854328.905553-1.244179 3.384359-1.660657 4.493851-2.617314 1.109493-.956656 1.731821-1.579462 1.668299-2.816-.063045-1.236537-1.270926-2.121074-2.309254-2.900537-3.169911-2.377552-7.236299-4.568358-9.928119-7.43403-1.520717-1.619104-2.250508-2.926328-2.55618-4.043463-.305194-1.116656.017672-1.98782.773254-3.361432.755582-1.37409 3.346627-3.208597 3.661851-4.701135.314746-1.492059-.993911-1.812537-2.175045-2.338865-1.181134-.526329-3.424478.26985-4.520119-.645732-1.0951645-.915582.32191-2.839403-.9127167-3.894447-1.2341493-1.055045-4.0592239-.46615-5.5173732-1.600956-1.4581492-1.135283-2.0608955-2.544238-2.5633432-4.191044-.5024478-1.646806-.5592836-3.450747-.2187463-4.643344s1.3635821-1.401313 1.9806567-2.019343 1.1524776-1.130507.3300299-2.052299c-.8224478-.921313-3.517612.051583-5.0669851-1.131462s-.6008358-4.016717-1.6964776-5.211224c-1.0951642-1.194508-3.0610149-.726925-4.0983881-1.108537-1.0368955-.381612-1.4438209.964776-2.08-1.164418-.6361791-2.129672-.6533731-8.477612-1.5092537-10.846567-.8558806-2.368956-2.536597-.16-3.3170149-2.514627-.7804179-2.35415-.0405971-6.119165-.3921194-9.674985l-1.5928359-9.674985c-5.5565373 3.732537-9.224597 4.904597-15.1942686 5.959164-.4981493 14.606328-1.8703284 23.207641 3.0872836 39.412537 4.9576119 16.204418 14.9908059 25.754746 28.5258507 39.474149-17.8602985-13.380776-26.3871045-24.258865-31.7239403-38.194627-5.337791-13.937671-4.3128358-25.593313-3.776-39.014209zm94.9053131-5.870806c1.37409.061612 3.043821.410269 4.008597 1.036896.965254.626627 1.989732 1.138627 2.865672 2.030328 2.185552 2.225672 3.824716 4.909851 4.549254 7.994269.46185 1.966328.530627 4.488119.698746 6.796896-.661493-2.133971-1.106149-4.359165-2.048478-6.271045-1.48585-3.014687-4.010029-5.957254-7.144597-7.312239-1.034507-.448-1.724656-.364896-2.29397-.285612.254567.427463.681075.785672.699702 1.411821s-.121314 1.851224-1.183045 2.366089c-1.711761.830568-3.614567.246448-4.936597-.922268-1.333015-1.177791-1.787224-3.170388-1.089433-4.882627.831522-2.040358 4-2.045612 5.874149-1.962508zm-17.228418-2.90388c.172418-3.50806 1.438568-6.466388 4.582209-8.186746 1.625791-.889314 4.130388-2.039403 6.432-2.309732 2.210866-.259343 7.588777-.069731 10.823642 1.406567 2.48406 1.133851 4.176239 2.899105 6.357493 4.189135 2.180776 1.290507 3.732059 2.155462 5.808716 3.602627 3.187582 2.221373 5.056 4.667223 7.265911 6.133492 1.062686.704478 2.557612.599881 3.968477 1.030687-1.097074.325731-2.530865.684895-3.714388.306627-1.475821-.471881-3.539104-1.821135-4.68394-2.788299-2.023164-1.708895-3.072-2.542806-5.28-3.831881-1.318209-.768-3.488955-1.673074-4.937552-2.617791-1.449553-.944716-3.965612-3.017552-5.358329-3.719164-1.770507-.891224-4.958089-1.386985-6.929194-1.329194-2.715701.079284-6.646448.527284-8.74794 2.433911-2.087642 1.895164-2.880478 3.562507-2.409552 6.023641.786149-.905552 1.309612-2.043223 2.097194-2.716656 1.631522-1.393672 3.503761-1.461015 5.534567-1.196896 2.281552.297075 3.430209 1.614806 4.18388 3.780776-.507223-.372537-1.439522-1.190686-2.175522-1.444298-1.727522-.59606-3.033791-.412657-4.65194.455164-1.910448 1.024955-1.390806 2.541851-1.665911 4.228776-.126089.77803-.419821 1.404657-.629492 2.107224-.718329-.19009-1.382687-.489075-1.926209-1.027821.022448.78806-.092179 1.477254.069254 2.363702.160477.88597.592238 1.938626.88788 2.907701-1.330149-1.330627-2.691343-2.569552-3.550567-4.287522-.860179-1.718926-1.442866-3.626508-1.350687-5.51403zm2.30209-25.533134c.980537-1.455284 1.267582-3.687642 1.872239-5.502568-.241672 2.298747.223045 4.826747-.899343 6.491702-1.122389 1.664955-3.093493 1.373134-4.726448 1.857433 1.270448-.968597 2.772537-1.391284 3.753552-2.846567zm-23.475104 34.086208c1.258985-1.019223 4.656716-.204417 7.198089-.022447-1.826388.467582-3.652776.935642-5.479164 1.403224-.17003.621373-.093134 1.333492-.51009 1.863164-.417433.530149-1.210268.726448-1.814925 1.088955.059701-1.632478-.652896-3.314149.60609-4.332896zm17.906149-70.7916413c1.516895.8167164 3.442149 1.896597 4.781851 1.9300299 1.339701.0334328 1.690268-.8759403 2.478328-1.4008359 1.23988 4.0429851 2.663164 8.4852538 4.774209 12.1537911.884537 1.5369552 1.448597.8224477 2.121074 2.3670448.671523 1.5441194.97003 4.6863283 1.607165 6.6593432.638089 1.973015 1.470089 3.4249553 2.205134 5.1371942-1.866508-2.6445374-4.27797-6.0164777-5.318209-8.2173136-1.039284-2.2003582-.37397-2.3918806-1.215522-4.4876418-.841553-2.0957612-2.542806-5.3626268-3.814209-8.0439403-.910329.1208359-2.037493.2865672-2.729553.0730747-.692059-.2134926-.554029-.9494926-1.179223-1.4251941-.62615-.4757015-1.678329-.2913432-2.555224-1.0507462-.876896-.7589254-1.076538-2.3164179-1.155821-3.694806zm-8.167642 19.9493731c1.427582-.1251343 3.200478.2574329 4.537313.1814926 1.336836-.0759403 2.291105-.4226866 3.436896-.6342687-.212537-2.0136119-.010985-5.713194-1.869851-7.0576716-1.200716-.8682985-6.13206-.2144478-7.449313.0697313-2.96406.6390448-6.415761 2.4081194-9.282388 3.5142687 2.747224-1.9190448 5.120477-3.6976717 8.415522-4.6882388 1.980657-.5955821 6.602985-1.3697911 8.647164-.8176717.933254.2517015 1.121911.6380896 1.687881 1.429015 1.945791 2.7166567 1.94006 5.064597 2.444895 8.2292537.496239.7732537 1.024956 1.2890746 1.427105 2.0866866.401194.7976119.628537 2.0527761.740776 3.0786861-.509134-.7383876-.197731-1.6644772-1.608119-2.2142085-1.411344-.5497314-3.57206-.0362985-5.473433.162388 1.38603 1.0001194 2.074746 1.9634625 2.127761 4.0778505.062089 2.482627-2.039881 4.269373-4.234508 4.439403-3.046686.236418-4.617552-.432716-5.849791-3.036656-.539701-1.140538-.148537-2.512717-.193432-3.6245975-3.660896.2545675-3.601194.1351645-6.276777 2.3660895 1.454329 2.130627 2.370389 3.355702 4.773732 4.630448 1.347821.715463 2.873791 1.410866 4.544 1.695045 1.670686.284179 4.410746.558806 6.165492.289432 1.755224-.269373 2.749612-.770388 4.050627-1.973492 1.301493-1.203582 1.420896-2.926806 1.929075-4.288955-.115582 1.311044-.26603 2.980776-.752717 3.931701-1.480597 2.890985-4.041074 3.747821-7.098268 3.757373-2.934448.009553-6.564299-.667224-9.294329-1.799164-2.182686-.904597-5.801074-3.466507-6.65982-5.692179-.586986-1.520716-.122269-3.3867462-.183881-5.0803582 3.022328-2.009791 3.770269-1.5154627 7.346149-2.1038806 1.495881-.2464477 2.524657-.8019104 3.952239-.9275224zm-17.605254-13.6124179c.085015-1.2040597.218269-1.1782686.327642-1.7676418-2.753433-.7364776-3.8576716 1.0497911-5.472 4.3672836-.6041791 1.2413134-.0062089 1.9801791-.6543283 2.7973732-.6471642.817194-1.6902687.7025671-2.7414926 1.4872835-1.0512238.7842388-2.0928955 2.2863284-3.0758209 3.0987463-2.0169552 1.6673433-4.7431641 2.6851343-7.0825074 3.8070448 1.5976119-1.1787463 4.697791-2.9664478 5.7007761-4.6791642.5320597-.9079403.4532537-2.6201791 1.2814328-3.4364179.8277015-.8167164 1.117612-1.3817314 2.1865075-1.5899702s.6390448-1.4471641.9838806-2.432c.3448358-.9848358 1.0316418-1.6840597 1.7623881-2.6679403.7307462-.9838806 1.6525373-2.4611343 3.0954029-2.9974925 1.4428662-.5368358 3.6928952.0434627 4.7851942-.2655522 1.091821-.309015.464716-1.102806 1.25803-1.5794627.794268-.4766567 2.338388-.2665075 3.399164-.7761194 1.880358-.9041194 2.779701-2.4133732 3.910686-4.0291344.164299 3.4779702.12418 5.9820896-1.125731 9.254209-1.407522 3.6828657-2.834149 5.8521791-6.828895 8.1170149-1.376478.7799403-2.746269 1.0507463-3.887284 1.4600597.665313-.9074627 1.617672-1.3014925 1.996418-2.722388.377791-1.4218508.095522-4.2411941.180537-5.4457314zm64.495761 16.9585672c-1.899462.1237015-2.34985-.1260896-3.869612.9456716.823881 1.2819103 1.647284 2.5638213 2.470209 3.8457313-.072597-2.530388.173851-3.0376119 1.399403-4.7914029zm-4.976716-1.838806c2.630687-1.1204776 4.922746-2.0269851 7.784597-2.2060895 1.147224-.0721194 2.928239.1055522 4.086925.1580895.986747-1.4528955 2.244299-2.5986865 2.705194-4.2569552.305194-1.0999403.154747-6.2051343-.385432-7.5305075-1.573732-3.857194-3.103523-4.0200597-5.269493-6.2294925-1.571821-1.6023881-1.634388-4.0425075-2.104358-6.7768358-.172418-1.0044179-.665314-2.2753433-.896478-3.3117612-2.831283-.4771343-5.876059-.6342687-9.133373-.471403 1.579463-1.5149851 3.106388-2.8991045 3.559642-5.1734925.452298-2.2743881.08406-5.070806-1.208836-7.110209-1.292895-2.039403-3.358089-3.8161194-5.253731-5.4777313-1.896597-1.661612-4.614687-3.0333135-6.411463-4.3925971 2.336955-.8367761 4.723105-2.0661492 7.012299-2.5098507 5.963462-1.1567761 11.101611.6122985 16.853492 4.089791 3.344239 2.0226866 6.11009 3.9441194 9.606209 7.6040597 3.495164 3.6594627 7.830448 10.3722986 11.214328 14.3531941 3.383881 3.9808955 6.115821 7.1293134 9.067941 9.5035224 2.952597 2.3746865 5.624836 3.050985 8.436537 4.576l4.382567 4.6538507 3.546746-4.3887761 5.706986.6452537 1.179223-6.4057313 5.237971-1.4352239-.854448-8.6352239 3.76597-2.6727164-2.830328-5.3726567 2.875701-5.870806-3.749254-6.7109254 1.445732-6.4616119-4.340538-3.6991045-.566447-6.8666268-6.055165-2.3097314-2.429134-5.9739701-6.80788-.0764179-3.339463-4.4346269-4.583164.3209552-5.109015-.5564179-2.889075-2.1330149-4.192955 2.7835224-5.073672-2.6454926-10.085731 3.829015 6.574806-5.7179702 6.811701-1.088 5.218388-1.33014925 7.047642 2.31450745 6.203224-1.57134327 5.981134 3.53576117 6.329314-.3500895 3.109254 5.578985 6.302089.727403 3.409672 6.2027463 3.963701 2.1640597 1.052179 7.9460298 3.53003 3.3480598-1.552239 6.952597 4.158568 5.265194-3.899224 5.6415522 4.169552 3.526209-5.330149 4.7240597 5.398447 5.6219701-6.519403 2.1024478 4.246448 6.0298507-5.325373.9189254 3.492299 6.630209-6.001672-.0797612 3.023284 4.9662089-6.582926-.7923582 1.574687 7.144597-4.974806-4.3763582-1.70412 8.6591049-3.433074-6.2175526-1.859344 7.7549846-4.23785-5.7184473.115582 8.1318213-4.683941-7.3117616c.987702 4.1485376.789971 8.6911046 3.514747 12.6022686 8.442268-1.142448 13.960119-3.269731 20.42794-9.493492 5.890866-5.668299 12.931821-17.4868065 14.838448-24.9829259 2.175522-8.5540298 2.242388-24.2865671.099821-32.9953432-2.062329-8.3849553-4.742687-12.390209-9.531702-19.2324777-4.577433-4.8616119-9.079403-9.9973731-14.889074-13.4643582-8.528239-5.08895519-19.463642-6.4611343-29.183045-6.32883579-5.381732.07355224-8.986746 1.10710448-12.204418 2.27725373-5.626746 2.04608955-10.126806 6.50937316-15.847164 8.71498506-1.865553.718806-3.360956.7412537-4.83009-.0434627 1.438567 2.8780896 3.003702 4.1690747 6.591523 5.2164776 2.595343.7574926 8.788059.2784478 13.051223-.1151044 4.576478-.4226866 6.963583-1.783403 13.19212-1.6979105 6.082866.0835821 10.902925 2.3942687 13.538388 3.9011343 5.437612 3.1092538 9.336836 6.5585672 12.725015 12.0224478 1.860776 3.0003582 3.164179 6.3856716 4.082149 9.8402388s1.320119 7.3237015 1.378866 10.7056717c.058746 3.3819701-.199642 6.4009552-1.026866 9.4442985-1.934806 7.1250149-6.203224 14.3751641-14.971224 13.2551641-5.365492-.6858507-13.454328-10.7567761-16.163343-14.4515821-5.466269-7.4569552-11.090627-15.7086567-17.959164-21.9185671-4.187702-3.7850746-9.921433-6.3899702-15.552-6.9053134-10.563344-.9666866-13.696 1.0397611-21.647284 7.5935522 1.617672.5158209 3.196657.8004776 4.854448 1.5474627 3.679045 1.657791 7.043821 3.8003582 9.978746 6.5485373 3.075343 2.8804776 4.455164 4.7035224 4.564537 8.8281791.072598 2.7391045-2.180776 4.9351642-4.246447 6.9105672-1.263761 1.209791-2.936358 2.3173731-3.959881 3.2563582-1.356418 1.2460895-3.036179 2.609194-1.33206 4.5941492.640956.7460299 1.753791 1.3086567 2.692299 2.0054926 1.489672 1.1056716.807642 5.2150447-1.154866 6.3049552-2.511283 1.393194-5.512119 1.2374925-7.583045-.6275821 2.613971-.3911642 4.27415-.7379105 4.206329-2.8761791-.039164-1.239403-1.614806-2.2691343-3.161314-2.9740896-3.729671-1.7002985-6.546626-1.4495522-10.258626-4.1203582-3.749254-2.698985-3.831881-4.1767164-4.845374-8.4140895-1.807761.1891343-3.472238.2306865-5.889432 1.0311642-2.417194.8-5.088478 2.7047164-7.283105 3.1761194-5.526925 1.1892537-6.628298.8367761-9.653015.0539701-5.325373-1.3783881-12.2593431.9814925-19.1474625 3.1847164-1.1453134.3663284-5.7776716.0124179-8.896 1.1066269-4.8162388 1.689791-11.5739702 5.7819701-15.4770149 9.0688955-5.9137911 4.9810149-13.6854926 19.8877617-18.0766567 36.9977317-.4613732 5.201194 1.017791 8.705432-2.2586269 11.24585s-3.1856717 9.048836-4.296597 10.874269c-1.1109254 1.824955-2.3971344 1.018269-4.7885373 3.581612-2.391403 2.563343-3.6088359 2.134925-3.5486568 6.981731 2.0608956-1.354985 5.0655523-2.930149 7.7038806-3.025194 2.3364776-.084537 2.3613135 2.991762 8.358209-2.936836 3.2071642-3.17182 9.3688358-3.268776 13.6439403-4.667701 4.2755821-1.398925 11.9799403-4.281791 19.6962388-12.908418s11.4087164-17.708418 12.9050746-30.8379701c.2383284 2.3278806.6519403 4.9533131-.3448358 11.3748061-.9967761 6.421492-3.1450746 13.63391 1.3807761 22.272955l2.8198209 5.382209c-1.678806-2.291104-4.9580895-6.028418-5.9453134-8.691582l-2.2772537-6.143522c-5.0946866 7.999044-6.2657911 9.42997-13.3430448 15.160835-.2817911 3.555344-.3510448 7.263523.8109851 10.665553 1.1620298 3.401552-.6901493 7.322746.1939104 9.563224.8840597 2.240477 2.9287164.965253 3.5964179 3.233432s-.3486567 6.752478.686806 8.963344c1.0354627 2.210865 3.5758806.869253 4.8071642 1.583283 1.2312835.714508 1.6339104 1.693612 2.2925373 2.633075.6581492.938985-.2574329 3.158925 1.081791 3.879642 1.3387463.721194 3.4273433.110328 4.8205373.802388 1.3931941.692059 1.6047762 2.355582 1.2709254 3.846209-.3343284 1.490627-1.8230448 2.174567-2.4768955 3.69003-.6533732 1.51594-.5802985 2.570985.2048955 3.962746.785194 1.392239 2.5237015 2.158806 4.2564776 2.861373 1.7327763.702567 4.1676423.30806 5.9558213 1.279522 1.788179.971463 3.395343 2.907224 4.339582 4.314269.944239 1.406567 1.206447 2.399045 1.158209 3.878209-.048717 1.478687-.648597 3.182328-1.43809 4.610866-.789492 1.428537-2.531343 3.167044.188179 5.895164 2.719523 2.727642 2.619224 1.551761 4.177194 3.321313-.169552-3.061015-1.434268-5.554627-.509612-7.859104.925135-2.304478 3.702448-2.705194 5.166329-3.741612 1.46388-1.036896 2.306865-2.461135 3.460776-3.691463-.016717 1.583284.152836 3.285493-.027224 4.477612-.366806 2.423881-1.082269 4.575522 2.52991 4.964299 1.627224.174806 3.172299-.880239 4.884538-1.513553-.896956 1.606209-2.456836 2.897672-2.691344 4.82006-.234507 1.921433.047284 4.032478 1.377911 5.939582 1.331104 1.906149 3.629373 3.321791 5.313433 4.442269 1.683582 1.120955 2.585791 1.210746 3.879641 1.816836.063523 1.889432-.308537 3.889194-.093134 5.668776s.77612 3.354746 1.804896 4.825791c1.029731 1.471522 2.680835 2.315462 4.23594 3.403462-.852537-1.985432-2.58197-3.869134-2.558567-5.956298.023403-2.086687.649074-3.565851 2.684656-5.417552 2.035583-1.852179 6.801195-3.458388 9.048359-5.258985 2.247164-1.801075 2.972179-2.904359 3.778865-4.652896.806687-1.748537.582209-4.565492.731224-6.137313.739821 2.201791.845373 2.886209 1.085612 5.189731.241672 2.304-1.342567 5.535522-2.013134 7.241075 2.779701-1.342568 4.544-3.488478 5.434746-5.585672.59606.353433.295642 1.322507.514866 3.18997.990567-.985791 2.116776-1.744239 3.11403-2.674627.998209-.929433 2.091462-1.747104 2.586746-3.044776.494328-1.297671.291821-2.677492-.076418-4.185313s-2.053254-3.256358-2.960716-4.905553c-.906508-1.648716.160477-3.267343.098865-5.254208-1.815403-.311881-3.357134-1.236538-5.443821-.93612-2.087641.29994-4.478567 2.642627-6.612059 2.669851-2.133493.027224-3.331344-1.971582-5.080359-2.520836-1.749014-.549254-3.518567-.489075-5.277134-.733612 2.227582-2.13397 10.873314-3.150328 16.787105-4.114627 5.203582-.848716 10.367522-1.339224 15.63988-1.413253 2.354627-.033433 5.380776.744119 7.015642.274149 1.636299-.469015 1.287164-1.583284 1.772418-2.797851 1.357373-3.394866.688239-6.418149-.050149-9.836895-4.733135-.554986-9.664956-1.23415-14.433911-.867821-4.662448.358209-10.183642 2.574806-14.992716 2.724776-4.181015.12991-10.372299-.800955-13.962508-2.989373-4.387343-2.67415-7.781731-8.417433-8.986746-10.261493-1.962507-3.003701-4.43797-8.896478-5.944358-11.590687-1.505433-2.694208-1.837373-3.44788-3.090149-4.572656-1.252777-1.124299-2.968836-1.211224-4.452777-1.817314 1.710806.174806 3.578747-.366806 5.132896.524418 2.335045 1.339702 4.948537 6.892418 6.401433 9.308657 1.539343-5.160119 1.180179-7.189015 5.634388-10.098627-3.589731 4.023403-3.679045 7.071045-4.55403 11.808 2.985075 4.899343 7.135045 12.703522 12.565493 14.869015 1.961552.782806 5.330149 1.273791 7.450746 1.536 6.599642.817194 12.965254-1.274269 19.446925-2.874746 4.737911-1.170149 9.545552-.698747 15.307941-.36012 1.956298.114627 6.569074-1.062209 7.524298-3.040955.515821-1.067463.477612-2.350328-.263164-3.488-.741731-1.137672-2.717134-1.68788-3.776-2.71188s-1.667821-2.239523-2.501731-3.359523c-4.401195.844418-8.021493 1.168717-11.288359 1.257552 2.343164-.965253 4.591284-1.51594 7.02997-2.469731 2.438687-.953791 5.207881-2.519403 7.17612-3.818507 1.968239-1.299583 3.224836-2.053254 4.649074-3.565374 1.423284-1.513074 3.249195-3.071522 4.298508-4.920835 1.050269-1.849314 1.212657-3.917851 1.271403-6.206568.058746-2.288238-.040119-5.499223-.922746-7.342806-.881672-1.843104-2.58197-2.402388-3.947941-2.838447-1.366447-.43606-2.302089.666746-3.722985.815761-1.42185.149015-2.750089 1.045015-4.805731.078328-2.055642-.966686-4.492418-2.934447-6.570985-5.855044-2.077612-2.921075-3.563463-7.695284-5.681672-11.36812-3.651343-6.331224-8.201552-12.245492-12.553074-18.1119999-.358209-1.4466866-.896478-3.4459701-1.075582-5.4084776-.312359-3.4197015-.371105-6.9721791.690149-10.3059105.813373-2.553791 1.996418-5.2513432 4.670567-6.2987462 1.069851-.4193433 2.423403-.5855523 3.379582-.2311642.957134.3539104 1.895642 1.433791 1.519761 2.6813134-.413134 1.3717015-1.363582 1.4089553-2.009313 2.1014926-1.09612 1.1749253-1.534567 2.0370149-1.948657 3.5018507 1.184478-.0191045 2.785433-.1093731 3.758328.1466269 1.269493.3343283 2.451583 1.1758806 3.095881 2.9745671-1.514985-1.3435223-2.267701-1.9601194-4.158567-2.0078806-.866388-.0214925-1.919045.2884777-2.877612.4327165-.358209 1.1653731-.568836 2.594388-1.074627 3.4961194-.505791.9017313-1.490627.6853731-1.860298 1.738985-.369672 1.0517015-.391165 2.764418-.204896 4.1471045zm13.237015-1.5794627c.580298.2287762.801433.2789254 1.536478.838209.735044.5592836 1.749014 1.1176119 2.331223 2.4539701.583165 1.3368359.555941 3.4039405.431762 4.2459705-.511045-.14997-1.207881-.048717-1.73803-.50197-.528717-.453254-.844418-1.479642-1.522627-1.9190452-.679164-.4389254-1.245134-.3429254-1.995463-.4379702.385433 1.0965974.572657 2.1936714.393552 3.1880594-.388776 2.170747-1.664955 3.270209-3.731104 3.53003-.902209.113194-2.335045-.18388-3.120239-.326686.36394.812895.980537 1.525015 1.344955 2.33791 1.747105-.252657 3.041911-.216836 3.981374-.656239.939462-.439403 1.946746-1.423761 3.152238-1.840716 1.20597-.416955 2.281553-.410269 3.600717-.61612-1.039284.895523-1.721314 1.791523-2.759164 2.687045.761313 2.212776 1.522626 4.425075 2.283462 6.637373 1.613851 1.009672 3.127881 1.541732 5.161553 2.788299 2.034626 1.247045 4.473791 3.477492 7.123104 4.69397s4.226866 1.878448 6.995104 2.400478c2.767762.522029 4.97003 2.76394 7.693851 3.128358s7.811343.43797 9.910448.233074c2.383284-.232597 5.479642-1.462447 5.757612-4.075462-1.998328.492895-5.050269.050627-6.591522-3.709612-.683941-1.669732-.348657-4.740299-1.395583-6.714746-1.046447-1.974926-2.505552-2.608717-4.248835-5.041672-1.743284-2.432955-4.595105-6.270567-6.19606-9.5302688-1.6-3.2592238-1.976836-6.9511641-3.330388-9.8717612-1.353552-2.9201194-3.395343-5.2790447-4.977672-7.5300298-3.455045-4.919403-6.241433-8.2813134-11.933612-10.7629851-2.737671-1.1935522-5.854567-1.5116418-8.78185-2.2677015-1.191165.5334926-2.824597 1.1228657-3.114508 2.5160597-.28991 1.3931941.266985 3.4507463 1.27809 4.4967164 1.692179 1.7485374 4.199641 3.6384478 5.185432 6.4176717.633314 1.783403.817194 7.7621492.268418 9.384597-.569313 1.6845373-1.892776 2.7032836-2.992716 3.825194zm.551164 14.1511646c-.528716.456119-.931821.924656-1.782448 1.303403-.849671.378746-2.010268.476656-3.13791.758447 1.581373 2.461612 3.242507 4.949015 4.757492 7.537194 1.515941 2.587702 2.829374 5.421374 4.27606 8.131344-.068298-1.553194.023403-3.209075-.202507-4.660538-.225911-1.450985-.883582-2.720955-1.535523-4.899343-.650985-2.178388-1.452418-5.14197-2.375164-8.170507zm-42.54806-54.1248959c-.223044 2.4214925.186747 6.2070448.688239 8.5779104.600836 2.8379702 1.179224 4.3094926 3.482269 6.0193433 4.217313 3.1307463 6.909612 2.6029851 10.15403 4.4183881 1.543642.864 3.49994 2.3121194 4.070686 3.8428657.570747 1.5307462-.376836 3.1928358-1.547462 3.8462089 2.047522.3047164 4.343403-2.0035821 3.385313-4.3734925-.471881-1.1663284-2.71809-1.6859702-3.406806-2.862806-.687284-1.1763582-.685851-2.3875821-.36203-3.5825672.585075-2.1540298 4.846806-4.1112835 6.352717-5.8139701 2.317373-2.6201791 3.207164-4.8119403 1.894686-8.1862687-1.843104-4.7402985-8.963821-8.544-13.225552-10.4042985-1.951522-.8515821-3.045731-.9122388-4.567881-1.3683582 3.116418 1.8263881 6.401911 3.281194 7.978508 7.3638209 1.316298 3.4096717.176239 4.6944478.220179 7.6632836.020537 1.3764776 1.833075 2.0647164 2.637851 2.9344478.700656.7560597.643821 1.3172537.084059 2.3608358-.061612-.9413732-.463761-1.6439403-1.186388-2.1554627-1.193074-.8458508-2.478328-.6638806-3.11403-2.3980896-.964776-2.6364179.948538-5.1333731-1.202626-8.0936119-1.609075-2.2146866-3.749254-4.6934925-6.636418-4.7584478-1.366448-.0310447-2.393791.1752836-3.853373.6070448l-1.945791-2.3417313-.044896-.0305672c-3.95797-3.6121791-6.66603-6.5891343-12.218269-9.0717612-5.552238-2.4821492-8.288477-2.8580298-14.654567-2.7166567-6.366089.1408955-12.6839401.6734328-20.0573133 7.0318806-7.3728955 6.3584477-26.3756417 30.7066269-30.9841194 33.7881791-4.608 3.0815522-5.6286567 4.1256119-11.3867462 4.1270448-5.7580896.0014328-14.7448358-8.1432836-15.0968358-18.3221493-.3524777-10.1793433-.4938508-13.7972537 6.5819701-26.0599403 7.0762985-12.2631642 19.895403-16.0286567 29.4065672-17.3000597 9.5116418-1.271403 15.2272238 2.0785672 22.2629253 2.0943284 7.0352239.0162388 13.9882981-1.1983284 16.0386871-6.7935523-1.003463.5974926-2.347941 1.2709254-6.1287169 1.0727165-3.7807761-.198209-9.0230448-4.57552244-14.9201194-7.50853736-5.8970746-2.93253731-12.4594627-3.2759403-20.8764179-3.43498508-8.4169552-.15904477-18.9196418.48429851-29.3248955 6.10149254-10.4052538 5.617194-17.5078209 11.5773134-23.54292542 22.5709851-6.03510448 10.9941492-6.93683582 19.970388-5.9639403 33.2819104s5.07844776 23.2114627 12.98340302 32.9542687c7.9049552 9.7428061 15.8051343 14.5098511 30.050388 16.2822691l2.9989254-13.227941-5.3535522 7.682866.1322985-8.544955-4.8425075 6.008836-2.1239403-8.1490154-3.9231045 6.5332534-1.9486567-9.0985071-5.6850149 4.5979701 1.7996418-7.5075821-7.5223881.8324776 3.4555224-5.218388-6.8589851.0835821 3.9909254-6.9669254-6.0857313-.966209 4.8525373-6.3364776-7.4507463-2.2089552 6.1688358-5.9071045-6.090985-4.9638209 4.7641791-3.7053134-4.4551642-5.9281194 4.7522388-5.5321791-1.7738508-7.3055523 4.0353433-3.5176119 1.2011941-8.3491343 4.5287164-2.2743881 3.8963582-6.5174925 7.2019104-.7646567 3.5534329-5.862209 7.2334328.3682388 6.8355821-3.71534328 7.089194 1.65110448 8.0525373-2.432 5.9639403 1.39749254 7.7831642 1.14388059 7.5142687 6.00835817-11.526209-4.0234029-5.7982089 2.7801791-4.7928359-2.9253732-3.2998209 2.2414329-5.8388059.584597-5.2360597-.3381493-3.8170747 4.6595821-7.7807761.0802388-2.775403 6.2772538-6.9186865 2.4272238-.6471642 7.2152836-4.9614328 3.886806 1.6530149 6.7897313-4.2846567 7.0519403 3.2869253 6.1683582-3.2348656 5.6453732 4.3037612 2.8083582-.9762388 9.0736716 5.9854328 1.5082985 1.3482985 6.7309851 6.5222687-.6777313 4.0520597 4.6118209 5.0082388-4.8902687c9.1300298-4.552597 12.889791-7.0992239 20.0052537-14.7949851 8.0998209-8.7608358 12.7422089-16.8606567 23.5314627-22.8589851 7.7382685-4.3023283 14.0499105-5.8507462 22.7424475-4.3486567 8.161433 1.4099105 10.894329 6.3054329 16.905075 11.4626866.637134-1.1534328.766567-1.4591045 1.816358-2.3082985-.329552 1.497791-.853015 3.0514627-.986269 4.4919403z"/></svg>