<svg height="127" preserveAspectRatio="xMidYMid" viewBox="0 0 512 127" width="512" xmlns="http://www.w3.org/2000/svg"><path d="m94.1061887 35.9283057c-3.9824146-4.0689888-8.3111261-7.1856611-12.8995604-9.3500169-4.5884342-2.1643558-10.3889076-3.2032465-17.0551234-3.2032465-5.3676023 0-10.4754819.9523165-15.2370646 2.8569496s-8.9171457 4.5884342-12.4666892 8.0514034c-3.6361177 3.4629693-6.4930673 7.7051066-8.5708488 12.6398377-2.0777816 4.9347312-3.1166723 10.3889077-3.1166723 16.4491038 0 6.0601962 1.0388907 11.5143727 3.1166723 16.4491038 2.0777815 4.9347312 4.9347311 9.0902943 8.5708488 12.5532635s7.878255 6.2333446 12.6398377 8.1379779c4.7615827 1.904633 9.9560365 2.856949 15.410213 2.856949 5.8004735 0 10.9083531-.779168 15.2370646-2.424078 4.3287116-1.6449105 8.0514035-3.8958405 11.1680758-6.6662158 2.0777815-1.9046331 3.9824146-4.2421373 5.627325-7.0125127 1.6449103-2.8569496 2.9435238-5.9736219 3.8958408-9.4365912h-36.6209v-20.7778153h59.736219c.346297 1.3851877.60602 3.0300981.865742 5.1078796.259723 2.0777815.346297 3.9824146.346297 5.9736219 0 8.2245519-1.212039 15.6699358-3.636117 22.5093-2.424079 6.8393642-6.146771 12.8129865-10.994928 18.0940145-5.454176 5.800473-11.9472435 10.215759-19.5657758 13.419005-7.6185322 3.203247-16.3625295 4.761583-26.1454176 4.761583-8.8305715 0-17.1416977-1.558336-24.9333784-4.761583-7.7916808-3.203246-14.631045-7.618532-20.5180927-13.245857-5.8004734-5.627325-10.38890767-12.2935406-13.85187689-19.9986471-3.46296923-7.7051066-5.10787961-16.2759554-5.10787961-25.4528238 0-9.1768685 1.73148461-17.6611431 5.10787961-25.4528238 3.37639499-7.7916808 7.96482919-14.4578966 13.85187689-20.0852216 5.8004735-5.6273249 12.6398377-9.95603648 20.5180927-13.15928301 7.878255-3.20324654 16.1893811-4.76158269 24.9333784-4.76158269 10.0426107 0 18.9597565 1.73148461 26.664863 5.19445384 7.7051066 3.46296922 14.3713224 8.22455186 19.9986474 14.28474806zm153.4961113 55.7538045c0 10.6486308-3.895841 19.2194788-11.687522 25.7125468-7.878254 6.319919-17.487994 9.523165-28.829218 9.523165-10.042611 0-18.959757-2.943524-26.664863-8.830571-7.705107-5.887048-12.986135-13.938452-15.929659-24.0676365l14.890768-6.1467704c1.038891 3.6361177 2.424078 6.9259384 4.242137 9.8694623 1.818059 2.9435236 3.895841 5.4541766 6.319919 7.5319576 2.424078 2.077782 5.10788 3.722692 8.051403 4.934732 2.943524 1.212039 6.060197 1.818058 9.350017 1.818058 7.099087 0 12.986135-1.818058 17.487995-5.54075 4.50186-3.636118 6.75279-8.5708491 6.75279-14.6310453 0-5.1078796-1.904633-9.4365911-5.627325-13.0727088-3.462969-3.4629692-10.042611-6.9259385-19.65235-10.2157592-9.696314-3.4629693-15.75651-5.8870477-18.180589-7.0990869-12.89956-6.5796416-19.306053-16.1893812-19.306053-29.0023673 0-8.9171458 3.549543-16.5356781 10.64863-22.8555969 7.272235-6.31991884 16.102807-9.52316537 26.664863-9.52316537 9.263443 0 17.314846 2.33750423 24.067636 7.09908691 6.75279 4.67500846 11.341224 10.47548196 13.592154 17.48799456l-14.457896 5.9736219c-1.385188-4.5018599-4.068989-8.3111261-8.051403-11.2546499-3.982415-3.0300981-8.917146-4.50186-14.631045-4.50186-6.146771 0-11.25465 1.7314846-15.410214 5.1078796-4.155563 3.1166723-6.233344 7.2722354-6.233344 12.2935407 0 4.1555631 1.64491 7.7916808 4.934731 10.8217789 3.636118 3.030098 11.514373 6.6662157 23.548191 10.8217788 12.293541 4.1555631 21.124112 9.3500169 26.40514 15.410213 5.10788 6.0601962 7.705107 13.50558 7.705107 22.3361515zm86.487656 32.4653368h-14.890768v-11.514373h-.692593c-2.337505 4.068989-6.060197 7.445384-10.908354 10.215759-4.934731 2.683801-10.04261 4.068989-15.323638 4.068989-10.21576 0-18.00744-2.943524-23.461617-8.743997-5.454176-5.800474-8.224552-14.1116-8.224552-24.8468044v-52.2908353h15.583362v51.2519446c.346297 13.5921541 7.185661 20.3449441 20.518092 20.3449441 6.233345 0 11.427799-2.510653 15.583362-7.531958s6.233345-11.0815015 6.233345-18.0940142v-45.9709165h15.583361zm35.582009-111.767332c0 3.0300981-1.038891 5.627325-3.203247 7.7916807-2.164355 2.1643558-4.761582 3.2032466-7.79168 3.2032466-3.030099 0-5.627325-1.0388908-7.791681-3.2032466-2.164356-2.1643557-3.203247-4.7615826-3.203247-7.7916807 0-3.03009809 1.038891-5.62732501 3.203247-7.79168078 2.164356-2.16435576 4.761582-3.20324653 7.791681-3.20324653 3.030098 0 5.627325 1.03889077 7.79168 3.20324653 2.164356 2.16435577 3.203247 4.76158269 3.203247 7.79168078zm-3.203247 28.6560703v83.1112617h-15.583361v-83.1112617zm47.87555 84.4964487c-6.75279 0-12.380115-2.077781-16.881975-6.233344s-6.75279-10.042611-6.839364-17.487995v-46.4903616h-14.631045v-14.2847481h14.54447v-25.4528238h15.583362v25.4528238h20.344944v14.2847481h-20.344944v41.3824822c0 5.5407504 1.038891 9.2634424 3.203246 11.2546504 2.164356 1.991207 4.588435 2.943523 7.272236 2.943523 1.212039 0 2.424078-.173148 3.636118-.432871 1.212039-.259722 2.25093-.692594 3.28982-1.125465l4.934731 13.938451c-3.89584 1.471762-8.657423 2.25093-14.111599 2.25093zm58.351031 1.298614c-12.206966 0-22.249577-4.155563-30.214406-12.553264-7.878255-8.3977-11.86067-18.9597561-11.86067-31.686168 0-12.6398376 3.809266-23.2018938 11.514373-31.5995942 7.705106-8.3977003 17.487994-12.6398376 29.521813-12.6398376 12.29354 0 22.163003 3.9824146 29.435238 11.9472438s10.908353 19.132905 10.908353 33.5042273l-.173148 1.7314846h-65.27697c.259722 8.1379777 2.943523 14.7176191 8.137977 19.6523501s11.427799 7.445384 18.700034 7.445384c9.956037 0 17.747717-4.934731 23.375042-14.8907676l13.938452 6.7527896c-3.722692 7.012513-8.917146 12.46669-15.496788 16.449104-6.666216 3.895841-14.198174 5.887048-22.5093 5.887048zm-24.933378-54.2820427h47.702401c-.432871-5.8004735-2.770375-10.5620562-7.012513-14.3713223-4.242137-3.8092662-9.956036-5.7138992-17.055123-5.7138992-5.887048 0-10.908353 1.8180588-15.150491 5.4541765-4.328711 3.7226919-7.099086 8.5708488-8.484274 14.631045z" fill="#737373"/></svg>