<svg height="256" preserveAspectRatio="xMidYMid" viewBox="0 0 256 256" width="256" xmlns="http://www.w3.org/2000/svg" xmlns:xlink="http://www.w3.org/1999/xlink"><filter id="a" height="200%" width="200%" x="-50%" y="-50%"><feOffset dx="0" dy="16" in="SourceAlpha" result="shadowOffsetOuter1"/><feGaussianBlur in="shadowOffsetOuter1" result="shadowBlurOuter1" stdDeviation="9"/><feColorMatrix in="shadowBlurOuter1" result="shadowMatrixOuter1" type="matrix" values="0 0 0 0 0   0 0 0 0 0   0 0 0 0 0  0 0 0 0.214965466 0"/><feMerge><feMergeNode in="shadowMatrixOuter1"/><feMergeNode in="SourceGraphic"/></feMerge></filter><path d="m127.978667 155.386667 128.021333-127.4560003v-7.3226667c0-11.38133333-9.226667-20.608-20.608-20.608h-214.784c-11.38133333 0-20.608 9.22666667-20.608 20.608v150.304l71.0666667-70.656z" fill="#ff9c0b"/><path d="m71.088 157.829333-71.088 70.938667v6.624c0 11.381333 9.22666667 20.608 20.608 20.608h214.784c11.381333 0 20.608-9.226667 20.608-20.608v-148.7946667l-128.021333 127.4559997z" fill="#fb5722"/><path d="m0 170.912 71.0666667-70.656 56.9120003 55.130667 128.021333-127.4560003-.021333 58.6826666-128 127.4399997-56.890667-56.224-71.088 70.938667z" fill="#f2f2f2" filter="url(#a)"/><path d="m99.552 185.968.0053333-58.117333-28.4693333 29.978666z" fill="#ff9b07"/></svg>