<svg height="256" preserveAspectRatio="xMidYMid" viewBox="0 0 256 256" width="256" xmlns="http://www.w3.org/2000/svg" xmlns:xlink="http://www.w3.org/1999/xlink"><defs><path id="a" d="m253.333333 128h-58.666666v-66.6666667l-62.106667-60.5333333c-.48-.50666667-1.146667-.8-1.893333-.8-1.466667 0-2.666667 1.2-2.666667 2.66666667v58.66666663h-66.6666667l-60.5333333 62.1066667c-.50666667.48-.8 1.146667-.8 1.893333 0 1.466667 1.2 2.666667 2.66666667 2.666667h58.66666663v66.666667l62.1066667 60.533333c.48.506667 1.146667.8 1.893333.8 1.466667 0 2.666667-1.2 2.666667-2.666667v-58.666666h66.666667l60.533333-62.106667c.506667-.48.8-1.146667.8-1.893333 0-1.466667-1.2-2.666667-2.666667-2.666667z"/><linearGradient id="b" x1="56.866845%" x2="46.904018%" y1="47.538904%" y2="57.776339%"><stop offset="0" stop-color="#e88c22"/><stop offset="1" stop-color="#fcbb29" stop-opacity="0"/></linearGradient><linearGradient id="c" x1="50%" x2="58.292594%" y1="40.546757%" y2="48.586661%"><stop offset="0" stop-color="#5e8235"/><stop offset="1" stop-color="#8cc251" stop-opacity="0"/></linearGradient><mask id="d" fill="#fff"><use fill="#fff" xlink:href="#a"/></mask></defs><use xlink:href="#a"/><g mask="url(#d)"><g transform="translate(0 60.333333)"><path d="m.8 63.1066667c-.50666667.48-.8 1.1466666-.8 1.8933333 0 1.4666667 1.2 2.6666667 2.66666667 2.6666667h125.33333333v-66.6666667h-66.6666667z" fill="#fcbb29"/><path d="m128 67.6666667v-66.6666667h-66.6666667z" fill="#fc9723"/><path d="m61.3333333 1-60.5333333 62.1066667c-.50666667.48-.8 1.1466666-.8 1.8933333 0 .24.08.4533333.13333333.6666667.13333334-.4533334.32-.9066667.64-1.2266667l60.55999997-62.10666667h66.6666667v-1.33333333z" fill="#fff" fill-opacity=".2"/><path d="m128 67.6666667v-1.3333334l-65.3333333-65.3333333h-1.3333334z" fill="#3e2723" fill-opacity=".1"/><path d="m119.966797 59.6425785-9.614909 4.1061198-54.2226562-57.32486984 5.2848307-5.53483073z" fill="url(#b)" opacity=".8"/></g></g><g mask="url(#d)"><g transform="translate(61.333333 128)"><path d="m62.1066667 127.2c.48.506667 1.1466666.8 1.8933333.8 1.4666667 0 2.6666667-1.2 2.6666667-2.666667v-125.333333h-66.6666667v66.6666667z" fill="#8cc251"/><path d="m0 0v66.6666667l66.6666667-66.6666667z" fill="#1d9a59"/><path d="m64 126.666667c-.7466667 0-1.4133333-.293334-1.8933333-.8l-61.44000003-59.866667-.66666667.6666667 62.1066667 60.5333333c.48.506667 1.1466666.8 1.8933333.8 1.4666667 0 2.6666667-1.2 2.6666667-2.666667v-1.333333c0 1.466667-1.2 2.666667-2.6666667 2.666667z" fill="#3e2723" fill-opacity=".1"/><path d="m59.0677087 8.97379557 2.2293281 5.19067393-55.32806267 58.3230793-5.26308185-5.1333834z" fill="url(#c)" opacity=".7"/><path d="m66.6666667 1.33333333h-1.3333334l-65.3333333 65.33333337v1.3333333z" opacity=".2"/></g></g><g mask="url(#d)"><g transform="translate(128 128)"><path d="m127.2 4.56c.506667-.48.8-1.14666667.8-1.89333333 0-1.46666667-1.2-2.66666667-2.666667-2.66666667h-125.333333v66.6666667h66.6666667z" fill="#4b87f1"/><path d="m0 0v66.6666667h66.6666667z" fill="#3367d6"/><path d="m66.6666667 66.6666667 60.5333333-62.1066667c.506667-.48.8-1.14666667.8-1.89333333 0-.24-.08-.45333334-.133333-.66666667-.133334.45333333-.32.90666667-.64 1.22666667l-60.5600003 62.10666663h-66.6666667v1.3333334z" fill="#263238" fill-opacity=".2"/><path d="m0 0v1.33333333l65.3333333 65.33333337h1.3333334z" fill="#263238" fill-opacity=".1"/><path d="m127.866667 3.33333333c.053333-.21333333.133333-.42666666.133333-.66666666 0-1.46666667-1.2-2.66666667-2.666667-2.66666667h-125.333333v1.33333333h125.333333c1.226667 0 2.24.85333334 2.533334 2z" fill="#fff" fill-opacity=".2"/></g></g><g mask="url(#d)"><g transform="translate(128)"><path d="m4.56.8c-.48-.50666667-1.14666667-.8-1.89333333-.8-1.46666667 0-2.66666667 1.2-2.66666667 2.66666667v125.33333333h66.6666667v-66.6666667z" fill="#d8443c"/><path d="m4.56.8c-.48-.50666667-1.14666667-.8-1.89333333-.8-1.46666667 0-2.66666667 1.2-2.66666667 2.66666667v1.33333333c0-1.46666667 1.2-2.66666667 2.66666667-2.66666667.74666666 0 1.41333333.29333334 1.89333333.8l60.7466667 59.22666667 1.36-.0266667z" fill="#fff" fill-opacity=".2"/><path d="m66.6666667 128v-66.6666667l-19.2163462 19.2163462-47.4503205 47.4503205z" fill="#ab1657"/><path d="m0 126.666667h1.33333333l65.33333337-65.3333337-1.36.0266667z" fill="#fff" opacity=".2"/><path d="m0 126.666667h66.666667v1.333333h-66.666667z" fill="#3e2723" fill-opacity=".1"/></g></g><path d="m120 120 8-18.666667 8 18.666667 18.666667 8-18.666667 8-8 18.666667-8-18.666667-18.666667-8z" fill="#f1f1f1" mask="url(#d)"/></svg>