<svg height="168" preserveAspectRatio="xMidYMid" viewBox="0 0 512 168" width="512" xmlns="http://www.w3.org/2000/svg"><path d="m496.052455 102.672055 14.203282 9.468854c-4.609837 6.790166-15.636069 18.439349-34.698369 18.439349-23.672137 0-41.301649-18.314758-41.301649-41.613125 0-24.7934489 17.816397-41.6131252 39.308206-41.6131252 21.616398 0 32.206565 17.1934468 35.632795 26.4754164l1.868854 4.7344274-55.691818 23.0491864c4.236067 8.347543 10.839347 12.58361 20.183612 12.58361s15.822955-4.609837 20.495087-11.524593zm-43.668863-15.0131191 37.190173-15.4491842c-2.055739-5.1704931-8.160658-8.8459039-15.449184-8.8459039-9.281969 0-22.177055 8.2229529-21.740989 24.2950881z" fill="#ff302f"/><path d="m407.406531 4.93104632h17.940988v121.84921068h-17.940988z" fill="#20b15a"/><path d="m379.124557 50.5933528h17.318037v74.0065762c0 30.711483-18.127873 43.357387-39.557387 43.357387-20.183611 0-32.331156-13.58033-36.878697-24.606563l15.885249-6.60328c2.865575 6.790166 9.780331 14.826233 20.993448 14.826233 13.767217 0 22.23935-8.534428 22.23935-24.481974v-5.980328h-.622951c-4.111476 4.983607-11.960659 9.468854-21.927875 9.468854-20.806562 0-39.868862-18.127873-39.868862-41.4885349 0-23.4852518 19.0623-41.8000105 39.868862-41.8000105 9.904921 0 17.816399 4.422952 21.927875 9.2819696h.622951zm1.245902 38.4983703c0-14.701643-9.780331-25.4163998-22.23935-25.4163998-12.58361 0-23.173776 10.7147568-23.173776 25.4163998 0 14.5147579 10.590166 25.0426289 23.173776 25.0426289 12.459019.062296 22.23935-10.527871 22.23935-25.0426289z" fill="#3686f7"/><path d="m218.21632 88.7802476c0 23.9836134-18.688529 41.6131254-41.613125 41.6131254s-41.613126-17.691808-41.613126-41.6131254c0-24.1082028 18.68853-41.6754202 41.613126-41.6754202s41.613125 17.5672174 41.613125 41.6754202zm-18.190169 0c0-14.9508234-10.839347-25.2295145-23.422956-25.2295145-12.58361 0-23.422957 10.2786911-23.422957 25.2295145 0 14.8262334 10.839347 25.2295154 23.422957 25.2295154 12.583609 0 23.422956-10.403282 23.422956-25.2295154z" fill="#ff302f"/><path d="m309.104867 88.967133c0 23.983613-18.688529 41.613125-41.613125 41.613125s-41.613125-17.629512-41.613125-41.613125c0-24.1082028 18.688529-41.6131252 41.613125-41.6131252s41.613125 17.4426272 41.613125 41.6131252zm-18.252463 0c0-14.9508235-10.839347-25.2295146-23.422957-25.2295146s-23.422957 10.2786911-23.422957 25.2295146c0 14.826233 10.839347 25.229515 23.422957 25.229515 12.645905 0 23.422957-10.465577 23.422957-25.229515z" fill="#ffba40"/><path d="m66.5900525 112.327794c-26.1016459 0-46.5344379-21.0557425-46.5344379-47.1573884 0-26.1016458 20.432792-47.1573888 46.5344379-47.1573888 14.0786921 0 24.3573832 5.5442637 31.9573848 12.6459048l12.5213147-12.5213146c-10.590167-10.15410087-24.7311536-17.878693-44.4786995-17.878693-35.7573859 0-65.84591809 29.1541056-65.84591809 64.9114916 0 35.7573864 30.08853219 64.9114914 65.84591809 64.9114914 19.3114803 0 33.8885325-6.3541 45.2885355-18.190168 11.711479-11.711478 15.324595-28.1573843 15.324595-41.4885351 0-4.1737716-.498361-8.4721333-1.059017-11.6491833h-59.5541135v17.3180371h42.4229615c-1.245902 10.839347-4.672132 18.2524636-9.7180355 23.2983665-6.1049193 6.1672148-15.7606595 12.9573798-32.704926 12.9573798z" fill="#3686f7"/></svg>