<svg height="256" preserveAspectRatio="xMidYMid" viewBox="0 0 256 256" width="256" xmlns="http://www.w3.org/2000/svg" xmlns:xlink="http://www.w3.org/1999/xlink"><linearGradient id="a" x1="0%" x2="99.999319%" y1="50%" y2="50%"><stop offset="0" stop-color="#246fdb"/><stop offset=".0552" stop-color="#2973df"/><stop offset=".2781" stop-color="#377deb"/><stop offset=".5491" stop-color="#3f83f2"/><stop offset="1" stop-color="#4285f4"/></linearGradient><path d="m173.2 82.8c25 25 25 65.5 0 90.5-12.5 12.5-12.5 32.8 0 45.2 12.5 12.5 32.8 12.5 45.3 0 50-50 50-131 0-181z" fill="#ea4335"/><path d="m218.4 37.5c-50-50-130.9-50-180.9 0s-50 131 0 181l45.3-45.2c-25-25-25-65.5 0-90.5s65.5-25 90.5 0c12.5 12.5 32.8 12.5 45.3 0 12.3-12.5 12.3-32.8-.2-45.3z" fill="url(#a)"/><path d="m218.4 218.5-45.3-45.2c-25 25-65.5 25-90.5 0l-45.3 45.2c50.2 50 131.1 50 181.1 0z" fill="#fbbc04"/><path d="m173.2 173.3c12.5-12.5 32.7-12.5 45.2 0s12.5 32.8 0 45.3-32.7 12.5-45.2 0-12.5-32.8 0-45.3z" fill="#ea4335"/><path d="m37.5 173.3c12.5-12.5 32.7-12.5 45.2 0s12.5 32.8 0 45.3-32.7 12.5-45.2 0-12.5-32.8 0-45.3z" fill="#34a853"/></svg>