<svg height="256" preserveAspectRatio="xMidYMid" viewBox="0 0 256 256" width="256" xmlns="http://www.w3.org/2000/svg" xmlns:xlink="http://www.w3.org/1999/xlink"><defs><linearGradient id="a" x1="-12.283583%" x2="60.109552%" y1="39.14029%" y2="103.140579%"><stop offset="0" stop-color="#37474f" stop-opacity=".2"/><stop offset="1" stop-color="#37474f" stop-opacity=".02"/></linearGradient><path id="b" d="m175.157895 80.8421053h-111.157895-43.7894737c-11.11578946 0-20.2105263 9.0947368-20.2105263 20.2105267v134.736842c0 11.115789 9.09473684 20.210526 20.2105263 20.210526h134.7368417c11.11579 0 20.210527-9.094737 20.210527-20.210526v-43.789474z"/><filter id="c" height="123.4%" width="123.4%" x="-11.7%" y="-8.8%"><feOffset dx="0" dy="5" in="SourceAlpha" result="shadowOffsetOuter1"/><feGaussianBlur in="shadowOffsetOuter1" result="shadowBlurOuter1" stdDeviation="6"/><feColorMatrix in="shadowBlurOuter1" type="matrix" values="0 0 0 0 0   0 0 0 0 0   0 0 0 0 0  0 0 0 0.2 0"/></filter><linearGradient id="d" x1="0%" x2="100%" y1="49.999934%" y2="49.999934%"><stop offset="0" stop-color="#fff" stop-opacity=".1"/><stop offset="1" stop-color="#fff" stop-opacity="0"/></linearGradient><mask id="e" fill="#fff"><path d="m235.789474 0h-154.9473687c-11.1157895 0-20.2105264 9.09473684-20.2105264 20.2105263v60.631579h-40.4210526c-11.11578946 0-20.2105263 9.0947368-20.2105263 20.2105267v134.736842c0 11.115789 9.09473684 20.210526 20.2105263 20.210526h134.7368417c11.11579 0 20.210527-9.094737 20.210527-20.210526v-38.736842h60.631579c11.115789 0 20.210526-9.094737 20.210526-20.210527v-156.6315787c0-11.11578946-9.094737-20.2105263-20.210526-20.2105263z" fill="#fff"/></mask></defs><path d="m60.6315789 20.2105263v60.631579l114.5263161 116.2105267h60.631579c11.115789 0 20.210526-9.094737 20.210526-20.210527v-156.6315787c0-11.11578946-9.094737-20.2105263-20.210526-20.2105263h-154.9473687c-11.1157895 0-20.2105264 9.09473684-20.2105264 20.2105263z" fill="#db4437" mask="url(#e)"/><path d="m175.157895 80.8421053v116.2105267h112.842105z" fill="url(#a)" mask="url(#e)"/><path d="m80.8421053 197.052632h154.9473687c11.115789 0 20.210526-9.094737 20.210526-20.210527v-1.68421c0 11.115789-9.094737 20.210526-20.210526 20.210526h-154.9473687c-11.1157895 0-20.2105264-9.094737-20.2105264-20.210526v1.68421c0 11.11579 9.0947369 20.210527 20.2105264 20.210527z" fill="#a52714" mask="url(#e)" opacity=".2"/><g mask="url(#e)"><use filter="url(#c)" xlink:href="#b"/><use fill="#ff8a80" fill-rule="evenodd" xlink:href="#b"/></g><path d="m235.789474 0h-154.9473687c-11.1157895 0-20.2105264 9.09473684-20.2105264 20.2105263v1.6842105c0-11.1157894 9.0947369-20.21052627 20.2105264-20.21052627h154.9473687c11.115789 0 20.210526 9.09473687 20.210526 20.21052627v-1.6842105c0-11.11578946-9.094737-20.2105263-20.210526-20.2105263z" fill="#fff" mask="url(#e)" opacity=".2"/><path d="m20.2105263 256h134.7368417c11.11579 0 20.210527-9.094737 20.210527-20.210526v-1.684211c0 11.11579-9.094737 20.210526-20.210527 20.210526h-134.7368417c-11.11578946 0-20.2105263-9.094736-20.2105263-20.210526v1.684211c0 11.115789 9.09473684 20.210526 20.2105263 20.210526z" fill="#c53929" mask="url(#e)" opacity=".2"/><path d="m175.157895 82.5263158h-154.9473687c-11.11578946 0-20.2105263 9.0947368-20.2105263 20.2105262v-1.68421c0-11.1157899 9.09473684-20.2105267 20.2105263-20.2105267h154.9473687z" fill="#fff" mask="url(#e)" opacity=".2"/><path d="m235.789474 0h-154.9473687c-11.1157895 0-20.2105264 9.09473684-20.2105264 20.2105263v60.631579h-40.4210526c-11.11578946 0-20.2105263 9.0947368-20.2105263 20.2105267v134.736842c0 11.115789 9.09473684 20.210526 20.2105263 20.210526h134.7368417c11.11579 0 20.210527-9.094737 20.210527-20.210526v-38.736842h60.631579c11.115789 0 20.210526-9.094737 20.210526-20.210527v-156.6315787c0-11.11578946-9.094737-20.2105263-20.210526-20.2105263z" fill="url(#d)"/></svg>