<svg height="273" preserveAspectRatio="xMidYMid" viewBox="0 0 256 273" width="256" xmlns="http://www.w3.org/2000/svg"><path d="m99.6205714 122.294857c-15.5062857-21.357714-37.0102857-40.0822856-61.44-53.1017141-3.6571428-2.048-7.8994285-3.072-12.1417143-3.072-9.5085714 0-18.13942853 5.12-22.67428567 13.6045714-6.72914286 12.4342857-1.90171429 28.0868567 10.53257147 34.6697147 37.5954285 20.187428 61.8788571 58.514285 64.8045714 102.985142v-.146285c-.4388572-4.973715.4388571-9.801143 2.6331428-14.336.2925715-.585143.7314286-1.316572 1.1702858-2.048 11.7028571-19.309715 17.9931431-41.545143 17.9931431-64.365715 0-4.827428-.438857-9.508571-.8777146-14.189714" fill="#1476c6"/><path d="m248.539429 74.0205714c-4.534858-19.8948571-11.264-39.2045714-20.041143-57.6365714-4.681143-9.80114286-14.774857-16.23771429-25.6-16.23771429-4.242286 0-8.338286.87771429-12.141715 2.77942858-14.189714 6.72914285-20.187428 23.69828571-13.458285 37.74171431 14.336 30.4274285 21.504 62.4640004 21.504 95.8171424 0 33.353143-7.168 65.389715-21.211429 95.232-.146286.438858-2.633143 5.705143-2.633143 11.849143 0 1.755429.146286 4.242286.731429 6.582857 1.901714 8.045715 7.021714 15.36 15.506286 19.309715 3.803428 1.755428 7.899428 2.779428 12.141714 2.779428 10.386286 0 19.894857-5.705143 24.868571-14.774857 5.705143-10.678857 11.410286-24.576 16.384-42.569143 1.609143-5.412571 2.925715-10.532571 4.096-15.945143 4.534857-20.333714 7.021715-41.106285 7.021715-62.464-.146286-21.065142-2.633143-42.276571-7.168-62.4639996" fill="#47ae33"/><path d="m128.731429 44.3245714c-.438858-.8777143-1.024-1.6091428-1.609143-2.3405714-1.901715-2.4868571-4.096-4.5348571-6.729143-6.144-4.242286-2.7794286-9.362286-4.3885714-14.628572-4.3885714-4.388571 0-6.5828567.5851428-9.6548567 1.7554285-3.2182857 1.3165715-6.5828572 3.072-9.6548572 6.2902858-3.072 3.2182857-4.8274285 6.4365714-6.144 9.9474285-2.6331428 6.8754286-2.1942857 15.7988572 2.1942858 23.1131429 9.3622857 15.0674286 14.9211428 32.3291427 16.9691428 50.0297147.5851433 4.681142.8777143 9.508571.8777143 14.189714 0 22.820571-6.144 45.056-17.9931429 64.365714-.4388571.731429-.7314285 1.316572-1.1702857 2.048-2.3405714 4.534857-3.072 9.654857-2.6331428 14.482286.7314285 8.192 5.2662857 15.945143 12.8731428 20.626286 1.9017143 1.170285 4.096 2.048 6.144 2.779428 2.4868576.731429 5.1199996 1.170286 7.7531426 1.170286 9.508572 0 18.139429-4.827429 23.113143-13.019429 14.921143-24.429714 23.552-52.224 25.453714-80.749714.292572-3.803429.438858-7.753143.438858-11.556571.146285-33.060572-8.777143-64.9508576-25.6-92.5988576" fill="#ed114c"/><path d="m177.444571 231.716571c14.189715-29.842285 21.357715-61.878857 21.357715-95.232 0-11.410285-.731429-19.748571-1.316572-25.161142-18.578285-29.6960004-45.494857-56.3200004-77.092571-75.6297147 0 0 .731428.4388571.731428.5851428 2.194286 1.6091429 3.949715 3.2182858 5.997715 5.7051429.438857.5851429 1.170285 1.4628571 1.609143 2.3405714 16.822857 27.7942857 25.6 59.5382856 25.6 92.1599996 0 3.949715-.146286 7.753143-.438858 11.556572 13.458286 25.6 20.772572 54.710857 20.772572 85.284571v9.216c.146286-3.218285.877714-6.582857 2.048-9.508571.438857-.438857.585143-.877714.731428-1.316572" fill="#fbbf16"/></svg>