<svg height="175" preserveAspectRatio="xMidYMid" viewBox="0 0 256 175" width="256" xmlns="http://www.w3.org/2000/svg"><path d="m137.78774 173.905895c6.026497-.860877 12.913871-2.582631 16.357738-4.304385 3.443508-1.722112 6.026138-4.304743 6.026138-6.026497 0 0-.860877-1.721754-1.721754-3.443866-1.721753-2.582631-3.443507-6.026498-7.748251-15.496502-1.721753-4.304744-5.617239-15.581585-6.887374-20.662123-1.315727-7.591728-1.435991-15.676001 0-23.244753 1.249313-4.4271614 2.9664-8.706416 6.026498-12.0529942 3.433455-4.542041 7.461411-9.0216164 12.913871-11.1917585 16.974855-6.7574169 37.019501-21.5229993 47.350742-37.8807372 3.443507-6.0264972 5.086641-8.6091279 6.341697-12.0528149 3.105691-8.5196298 5.847357-17.57039684 5.710938-26.68854423v-.86091997h-94.701125-95.5623603v1.72182917c-.1414452 22.55964153 13.1942486 42.89349623 29.2712502 57.68169543 8.6094869 7.748251 18.9403686 13.7747482 30.993363 18.0794917 4.3043845 1.7217538 6.0264973 2.5826306 9.4700051 6.0261382 4.304743 5.1656203 7.748251 11.1921176 9.470364 18.0794915 1.042529 9.950344.262427 20.465751-2.58299 30.132127l-1.721754 5.165621c-.860877 3.443507-3.443866 8.609128-7.7482509 17.218255-4.3047435 8.609487-4.3047435 9.470364-4.3047435 10.331241 1.7217538 5.16562 12.0529944 8.609128 27.5494964 10.330882 3.443867 0 8.609128 0 15.496502-.860877zm-72.3172486-29.27125c6.0264972-.860877 11.1921175-2.582631 12.9138713-5.165621v-.860877l-.8608769-2.58263c-6.0264972-11.192118-9.4703638-20.662123-9.4703638-30.132127 0-5.165621.8612359-7.7482514 2.5829897-12.0529948 2.5826307-4.3047435 3.4435076-5.6940652 7.748251-7.415819 1.7217538-.8806218 3.7762986-1.2130538 4.6371755-1.7414987 2.2501986-.665223 4.8328293-2.0347999 4.8328293-2.0347999s-1.5454858-.332432-3.2873435-1.1933089c-5.1652613-1.7217538-7.0435382-3.1110755-11.3482816-5.6940652-13.7747483-7.748251-22.3838762-15.496502-30.9930041-26.6882606-2.5829896-4.3047434-3.9191797-6.2063552-5.1656203-7.9413919l-.8608769-1.5289719c-.8608769-.8608769-35.29774747-.8608769-36.15862437 0-.58373053 12.0529945 5.19290418 22.6717924 12.91351237 31.8542399 9.0198214 10.7264974 16.3577379 13.7747483 23.245112 15.4965021 6.0264972 1.7217537 6.8873741 2.5826306 9.4700048 6.0264972 1.7221128 4.3043844 2.5829897 6.8873741 2.5829897 12.0526357.8608769 7.74861-1.7221128 15.496861-6.8873742 26.688619-1.7221127 3.443867-3.4438665 6.887374-3.4438665 6.887374 0 .860877 1.7217538 2.58299 3.4438665 3.443867 4.3043845 2.582631 16.357379 4.304384 24.10563 2.582631zm140.3301126 0c6.887375-.860877 11.192118-2.582631 12.052995-5.165621 0-.860877 0-1.721753-2.58299-6.887374-5.416201-10.692033-9.153727-23.39984-6.026497-35.2977473 1.78745-4.8163154 4.085755-9.8351056 9.470364-10.6715706 8.609128-2.5826307 15.496502-6.5466852 24.10563-15.1558131 5.16562-5.1656203 9.971165-13.8802936 11.320638-18.9403685 1.081661-4.056317 2.442263-8.9067372 1.593233-12.9138714-.860877-.8608769-36.158624-.8608769-37.019501 0 0 0-.860877.8608769-1.721754 1.7217538-.861236 2.5829897-4.304743 7.74861-6.887374 10.3312407-3.443867 4.3047434-13.774748 14.6356251-17.218615 17.2182558-6.349595 6.5046824-18.53506 10.8876873-24.966507 13.7747482.860877.8608769 5.165262 3.4438666 8.609128 4.3047435 6.887374 2.5826306 6.887374 2.5826306 9.470005 6.8873741 1.721754 4.3047434 2.58299 6.8873738 2.58299 12.0529948.476031 11.948885-5.616522 23.015353-10.331241 32.714757 6.119478 6.890965 18.972319 6.715415 27.549496 6.026498z" fill="#7ab852"/></svg>