<svg height="256" preserveAspectRatio="xMidYMid" viewBox="0 0 256 256" width="256" xmlns="http://www.w3.org/2000/svg"><path d="m136.23263 94.9363384c1.497883-1.4978134 1.497883-3.9253899 0-5.4219603-1.498435-1.4978134-3.923992-1.4978134-5.421875 0-1.498573 1.4965704-1.498573 3.9241469 0 5.4219603 1.497883 1.4964323 3.92344 1.4964323 5.421875 0zm-13.699757 2.8646976c-1.498573 1.4964324-1.498573 3.924147 0 5.42196 1.495813 1.496433 3.92344 1.496433 5.421875 0 1.495813-1.497813 1.495813-3.9255276 0-5.42196-1.498435-1.4978134-3.926062-1.4978134-5.421875 0zm23.766042 2.0150909c-2.343469-2.3441574-6.142189-2.3420857-8.484278 0l-4.990046 4.9899491c-2.344158 2.344158-2.344158 6.1429 0 8.484295l5.478579 5.480519c2.34333 2.344158 6.142189 2.342086 8.484278 0l4.990045-4.989949c2.343469-2.344157 2.343469-6.1429 0-8.486366zm48.112844-18.0021882c6.331477-12.0579159-2.625054-19.1010227-8.781453-24.8820715-9.86158-9.2698699-19.697498-13.2774358-30.93155-.4419551-11.226602 12.8361712-4.093827 27.7227379 6.1753 35.0703794 10.273818 7.3475033 27.197259 2.3082485 33.537703-9.7463528zm-17.010496-4.9447869c-3.956414-4.7421781 3.439736-13.3517395 8.080041-8.2106969 8.547051 9.4719263-4.116729 12.9527369-8.080041 8.2106969zm-49.398849-76.8691518c-70.6936678 0-128.002414 57.3084547-128.002414 127.99558 0 70.692513 57.3087462 128.00442 128.002414 128.00442 70.689392 0 127.997586-57.311907 127.997586-128.00442 0-70.6871253-57.308194-127.99558-127.997586-127.99558zm69.216618 148.973807c-13.347809-8.821147-20.97505-16.274581-27.619154-29.638337-4.543454 9.156067-15.152112 22.771184-33.047239 33.481551-8.933629 27.792208-51.4313114 80.980536-65.1852891 73.440921-4.0724423-2.230216-4.8458724-5.167975-3.9261997-8.198543.9864477-7.597623 16.7031113-25.059268 16.7031113-25.059268s.332219 3.663945 5.3600669 11.382829c-6.6409312-20.616376 10.9726096-46.054344 15.6385756-54.713764 7.331996-2.336699 7.863023-11.750757 7.863023-11.750757.468942-14.551648-6.031128-25.08689-12.33032-31.387512 4.525794 5.523748 5.990703 13.871174 6.205652 21.515893v.042538c.022902.863746.022902 1.711333.019453 2.556296-.214949 6.328106-2.129071 15.069701-6.225105 15.069701l.012141.055245c-4.2110972-.180511-9.4100213.718315-14.055155 2.170966l-10.2691271 2.453956s5.4765091-.250672 8.4337826 2.304381c-3.2934935 5.363263-10.6134871 12.018831-18.7778246 15.800033-11.8787613 5.50897-15.292836-5.452207-9.2617088-12.580804 1.4809132-1.742408 2.9767265-3.211218 4.3910028-4.414579-.9102912-.941917-1.4843623-2.203284-1.6352957-3.804129-.0013797-.008148-.0074501-.016159-.0093816-.024307-.8280642-3.637014-.371263-8.35889 4.7750965-15.863564 1.0161101-1.58869 2.2342005-3.217295 3.6935912-4.87145.046632-.056625.085676-.109107.13286-.164352.0626359-.076099.132722-.148193.1974275-.222358.0369745-.041158.0720175-.082177.1110616-.125267.367262-.417786.758116-.826042 1.1758732-1.220211 6.1326692-6.281701 15.820413-12.814625 31.0856564-18.677988 17.802828-26.1676088 24.32235-31.0760726 24.32235-31.0760726 1.970826-2.0153152 5.415805-4.5210624 6.681907-5.1598256-9.29689-16.1545635-11.174038-38.9278187-8.738271-45.0646414-.197428.332295-.378713.6717718-.529647 1.0235404.902841-2.1014965 1.507955-2.7772734 2.445839-3.8829898 2.538826-3.0037754 11.144375-4.577688 14.234371 1.7854986 1.646057 3.3924196 1.956753 7.7868343 1.902119 11.0817476-6.814629-.3552214-12.996 7.4256742-12.996 7.4256742s5.644275-2.66347 12.656469-2.7105658c0 0 1.869008 1.6251517 4.201025 4.6774041-3.14863 5.9123923-8.324652 18.4372614-4.576427 31.5861159.621255 2.5913761 1.560519 4.8182773 2.726872 6.7128835.044425.0816236.081537.1637996.126652.2480473.093678.1226426.177836.2242922.265444.3375432 6.197513 9.3305006 17.556837 10.4219916 17.556837 10.4219916-5.347788-2.6681657-9.703196-6.917702-12.539198-12.0700697-1.474153-2.7557281-2.376994-5.0823455-2.931613-6.9177021-3.007768-11.617342 1.420347-18.3990047 3.955173-22.9456177 5.83232-9.0469588 16.457258-14.5234729 27.877149-13.2190149 16.02736 1.8287273 27.538997 16.3048282 25.706964 32.3280481-1.117101 9.7894434-6.956871 17.8868893-14.980208 22.2934577 1.929712 5.2225281-.132722 11.5546394-.132722 11.5546394 4.859255 6.112515 5.073514 9.636417 4.905749 12.909647-6.175853-1.038871-12.175938 3.129042-12.175938 3.129042s11.914495-2.843981 18.836322 3.329855c4.501512 4.841756 7.5039 9.217388 9.292889 12.44877 2.562418 4.608763 14.460771 4.937467 13.105681 13.226335-1.355641 8.276714-10.430132 8.354884-24.656363-1.030861z" fill="#221e1f"/></svg>