<svg height="344" preserveAspectRatio="xMidYMid" viewBox="0 0 256 344" width="256" xmlns="http://www.w3.org/2000/svg"><path d="m17.297408 83.373056s5.874688 22.658048 6.71232 30.212096c.840704 7.552-15.105024 24.33536-15.105024 32.728064s3.352576 23.497728 21.817344 31.051776c18.464768 7.553024 20.979712 26.853376 20.979712 38.6048 0 11.748352-6.71232 34.404352-6.71232 34.404352s-4.194304 56.225792 18.461696 66.295808c22.656 10.068992 17.62304 10.068992 22.656 10.068992 5.033984 0 41.960448 15.10912 63.777792 9.234432 21.819392-5.874688 27.689984-12.587008 27.689984-12.587008s21.82144 1.676288 28.53376-17.627136c6.716416-19.299328 10.909696-59.579392 8.39168-78.043136-2.518016-18.464768-5.873664-42.797056 9.230336-51.190784 15.10912-8.392704 31.051776-18.459648 28.53376-26.853376-2.518016-8.392704-15.941632-20.14208-15.941632-20.14208s-3.357696-20.977664-.841728-26.013696c2.515968-5.035008 17.62304-17.626112 9.230336-26.855424-8.387584-9.230336-23.497728-9.230336-23.497728-9.230336l-19.299328 1.676288s-32.728064-29.370368-75.527168-27.692032c-42.797056 1.678336-69.653504 27.692032-69.653504 27.692032s-14.26432-5.035008-26.853376 0c-12.589056 5.037056-15.09888-.001024-12.582912 14.266368z" fill="#fba919"/><path d="m93.9776 208.319488s-16.618496 25.41056-28.808192 43.4432c-1.886208 2.789376 12.189696 2.982912 12.189696 2.982912z" fill="#e78724"/><path d="m101.890048 155.636736s-5.009408 12.49792-7.753728 19.1232c-2.978816 7.202816-14.336 10.785792-14.336 10.785792s5.886976-6.17472 5.886976-21.817344c0-6.562816 8.472576-9.171968 8.472576-9.171968z" fill="#e78724"/><path d="m96.82944 162.70336s-10.263552 12.217344-29.320192 5.374976c-19.060736-6.84032-21.014528-31.27808-21.014528-38.120448s36.164608 6.842368 41.053184 9.775104 14.168064 14.660608 9.281536 22.970368z" fill="#e78724"/><path d="m24.843264 32.152576s17.59232-3.423232 29.320192 5.863424c11.732992 9.284608 15.149056 16.617472 15.149056 16.617472l-19.76832 15.670272s-9.551872-4.4288-12.484608-17.13664c-2.931712-12.706816-.976896-18.57024-12.21632-21.014528z" fill="#e78724"/><path d="m91.698176 127.413248c-7.574528-10.752-20.057088-15.44192-30.02368-16.219136-16.994304-1.329152-25.0624 4.678656-25.0624 4.678656s27.83232 1.178624 35.854336 11.71456c14.934016 19.6096 36.72064 21.202944 40.204288 16.896-4.028416.200704-8.460288-1.795072-13.203456-6.280192-2.963456-2.80576-5.36576-7.376896-7.769088-10.789888z" fill="#e78724"/><path d="m44.713984 165.431296s-30.880768-10.615808-25.0112-21.36576c5.863424-10.753024 1.196032-16.611328 1.196032-16.611328s-17.243136 12.87168-12.849152 26.554368c2.700288 8.398848 7.230464 14.47936 32.106496 26.1376 11.931648 22.162432 2.463744 62.0544 3.03104 62.241792.945152.314368 16.75264-7.81312 15.673344-45.134848-.328704-11.460608-1.245184-27.106304-14.14656-31.821824z" fill="#e78724"/><path d="m85.180416 51.275776c-12.94848 6.578176-30.687232 15.73888-30.687232 15.73888l6.981632 3.492864c-.666624 1.079296-.98816 1.723392-.98816 1.723392l7.165952 3.258368s17.492992 12.672 28.2112 20.818944c-3.57376-11.003904-14.063616-28.291072-14.063616-28.291072s-2.972672-7.943168 3.380224-16.741376z" fill="#e78724"/><path d="m128.195584 319.420416c-39.798784 0-53.279744-20.204544-53.279744-20.204544l6.219776 15.145984c2.351104 6.552576 27.430912 26.942464 46.999552 26.942464" fill="#e78724"/><path d="m79.277056 285.563904s3.661824 22.378496 18.323456 22.378496c12.459008 0 16.130048-18.90304 16.130048-22.8096z" fill="#e78724"/><path d="m54.878208 251.813888c1.302528-3.586048 5.863424-18.08384 7.328768-31.27808 1.75616-15.802368 1.11616-38.915072 1.11616-38.915072s-3.91168 15.15008-7.332864 17.598464c-3.419136 2.44224-9.77408 19.05664-9.77408 19.05664s-3.403776 24.735744-5.023744 33.0496c4.483072.898048 8.257536-1.743872 13.68576.488448z" fill="#e78724"/><path d="m19.472384 153.765888s8.305664-2.934784 10.752-21.014528c2.44224-18.08384-2.934784-33.722368-2.934784-33.722368s.488448 24.92416-2.44224 29.812736c-2.934784 4.885504-5.374976 6.351872-8.798208 12.706816-3.423232 6.355968 1.465344 10.261504 3.423232 12.217344z" fill="#e78724"/><path d="m29.389824 36.429824-1.695744-1.074176c-5.000192.16896 1.695744 1.074176 1.695744 1.074176z" fill="#fdc168"/><path d="m91.940864 45.922304s-7.817216-1.302528-11.728896-7.165952c-3.91168-5.865472-14.987264-17.596416-32.644096-17.727488-17.655808-.132096-35.124224 4.692992-35.124224 4.692992l15.248384 9.634816c1.6128-.052224 4.432896-.03072 9.096192.124928 19.136512.635904 22.08256 19.564544 22.08256 19.564544l67.442688-9.286656" fill="#fba919"/><path d="m98.458624 150.468608s-9.12384 9.12384-23.135232 6.189056c-14.011392-2.930688-22.483968-9.121792-23.135232-19.874816-.651264-10.752 2.934784-14.987264 2.934784-14.987264s15.637504 4.890624 23.135232 11.40736c7.493632 6.514688 13.031424 16.941056 20.200448 17.265664z" fill="#fff"/><path d="m87.416832 147.209216s-7.912448 3.61472-16.756736.67072c-11.577344-3.861504-12.348416-15.901696-12.348416-15.901696s-7.102464 20.842496 12.81024 24.854528c15.971328 3.217408 25.416704-6.037504 25.416704-6.037504z" fill="#c9c9c9"/><g fill="#463014"><path d="m93.039616 41.500672c-.850944-17.874944 13.802496-32.111616 18.879488-32.717824.280576 3.028992-.282624 14.843904 4.793344 18.477056 1.477632-9.650176 6.474752-20.289536 26.207232-27.259904-4.226048 11.208704-.564224 20.59776 1.179648 24.94976 13.474816-12.230656 22.5536-10.20928 22.5536-10.20928s-9.362432 16.155648-5.700608 26.756096c-27.049984-2.120704-67.780608 2.874368-67.912704.004096z"/><path d="m35.693568 68.727808c-6.454272-5.354496-1.64352-10.323968-2.153472-16.407552-.277504-3.236864-.533504-6.291456-1.600512-7.975936-5.9392-9.378816-19.950592-12.224512-20.09088-12.254208l-6.576128-1.288192 4.353024-5.092352c.564224-.659456 18.441216-17.716224 46.1056-8.784896 19.351552 6.24128 33.677312 27.405312 34.210816 28.260352l-9.703424 4.562944c-.113664-.180224-11.439104-20.073472-28.041216-25.426944-13.420544-4.330496-25.78944-.210944-31.087616 2.489344 5.632 2.248704 12.995584 6.34368 17.432576 13.348864 2.093056 3.308544 2.446336 7.474176 2.787328 11.507712.449536 5.34016.8704 10.381312 4.800512 13.645824z"/><path d="m18.455552 146.8928s8.131584-10.083328 10.540032-29.704192c.946176-7.728128-.734208-22.971392-3.423232-28.83584.488448 14.416896-3.176448 28.83584-3.176448 28.83584s-2.470912 26.771456-3.940352 29.704192z"/><path d="m61.333504 58.544128c-.004096-.021504-2.609152-11.405312-9.831424-17.152-10.187776-8.103936-22.627328-3.792896-22.747136-3.755008l-1.806336-5.579776c.602112-.195584 14.820352-4.675584 27.923456 4.535296 13.181952 9.263104 14.764032 17.659904 14.901248 18.587648z"/><path d="m43.995136 139.661312s-4.265984-6.107136-3.499008-12.823552c.381952-3.316736 1.918976-6.721536 4.663296-7.929856 5.09952-2.240512 7.359488 3.539968 7.359488 3.539968s-7.177216 1.77152-8.523776 17.21344z"/><path d="m90.835968 148.969472c.178176.3328.269312.519168.269312.519168s-13.305856 9.986048-26.942464-.147456c-7.299072-5.429248-6.60992-18.859008-4.373504-24.554496 5.815296 1.317888 10.747904 3.693568 14.870528 6.467584-5.210112-4.649984-9.771008-8.073216-9.75872-8.152064l-5.921792-1.676288-11.50976-3.946496c-.147456.877568-4.345856 20.555776 7.77216 33.964032 5.37088 5.945344 30.55104 19.259392 42.50624-3.506176z"/><path d="m89.58976 150.432768c7.491584 11.40224 26.3936 4.886528 26.067968-7.168 0 0-12.630016 6.970368-23.788544-5.863424-6.514688-7.492608-27.389952-28.151808-55.699456-21.285888 19.550208 4.298752 45.431808 22.160384 53.420032 34.317312z"/><path d="m33.524736 182.612992c1.80224 1.041408 8.158208 7.62368 8.162304 17.468416 0 4.936704-.49152 29.73696-2.934784 44.888064 3.675136 2.387968 6.235136 2.895872 9.894912 5.32992 1.831936-17.547264 3.145728-42.979328 2.533376-53.245952-.700416-11.703296-6.966272-19.557376-12.777472-22.90688-1.819648-1.046528-3.721216-2.075648-5.636096-3.110912-9.95328-5.378048-20.245504-10.94144-20.245504-20.441088 0-7.431168 2.888704-9.755648 5.947392-12.219392l.329728-.267264c2.029568-1.639424 4.3264-3.499008 5.687296-6.552576 3.713024-8.348672 4.320256-29.615104 0-35.013632-2.153472-2.690048-7.923712-11.736064-6.264832-17.814528.631808-2.320384 2.093056-4.03968 4.471808-5.25824 2.516992-1.289216 5.917696-1.942528 10.103808-1.942528 8.22272 0 17.342464 2.502656 22.047744 3.992576 16.813056 5.328896 37.100544 20.692992 42.91584 25.275392.166912.128.265216.202752.282624.21504l3.721216 2.587648-2.327552-3.894272c-.14336-.242688-14.882816-24.47872-41.237504-33.364992-5.127168-1.728512-15.200256-4.629504-25.099264-4.629504-5.894144 0-10.89536 1.02912-14.855168 3.05664-4.826112 2.468864-8.09472 6.408192-9.452544 11.387904-3.328 12.207104 7.51104 25.798656 7.880704 26.232832 1.263616 2.255872 1.799168 18.642944-1.120256 25.201664-.401408.905216-1.502208 1.795072-2.895872 2.919424-.436224.35328-.924672.719872-1.441792 1.112064-4.118528 3.108864-10.346496 7.805952-10.346496 18.632704 0 14.814208 15.013888 22.846464 27.07968 29.304832 1.979392 1.06496 3.868672 2.072576 5.576704 3.05664z"/><path d="m35.693568 68.727808c-6.454272-5.354496-1.64352-10.323968-2.153472-16.407552-.277504-3.236864-.533504-6.291456-1.600512-7.975936-5.9392-9.378816-19.950592-12.224512-20.09088-12.254208l-6.576128-1.288192 4.353024-5.092352c.564224-.659456 18.441216-17.716224 46.1056-8.784896 19.351552 6.24128 33.677312 27.405312 34.210816 28.260352l-9.703424 4.562944c-.113664-.180224-11.439104-20.073472-28.041216-25.426944-13.420544-4.330496-25.78944-.210944-31.087616 2.489344 5.632 2.248704 12.995584 6.34368 17.432576 13.348864 2.093056 3.308544 2.446336 7.474176 2.787328 11.507712.449536 5.34016.8704 10.381312 4.800512 13.645824z"/><path d="m35.483648 69.824512-.416768-.345088c-4.786176-3.972096-3.93728-7.8848-3.115008-11.670528.37376-1.746944.768-3.55328.608256-5.405696-.26112-3.115008-.512-6.053888-1.449984-7.537664-5.655552-8.92928-19.32288-11.790336-19.458048-11.817984l-8.213504-1.610752 5.444608-6.365184c.099328-.118784 11.577344-11.705344 31.01696-11.705344 5.2992 0 10.728448.881664 16.130048 2.62656 20.197376 6.51264 34.60608 28.455936 34.742272 28.673024l.582656.93184-11.478016 5.398528-.4608-.731136c-1.234944-2.105344-12.118016-20.052992-27.513856-25.019392-3.781632-1.220608-7.764992-1.837056-11.83744-1.837056-7.375872 0-13.357056 2.010112-16.539648 3.359744 5.318656 2.395136 11.768832 6.426624 15.850496 12.863488 2.219008 3.506176 2.578432 7.791616 2.930688 11.931648.432128 5.148672.840704 9.990144 4.452352 12.988416l1.362944 1.130496z"/><path d="m61.333504 58.544128c-.004096-.021504-2.609152-11.405312-9.831424-17.152-10.187776-8.103936-22.627328-3.792896-22.747136-3.755008l-1.806336-5.579776c.602112-.195584 14.820352-4.675584 27.923456 4.535296 13.181952 9.263104 14.764032 17.659904 14.901248 18.587648z"/><path d="m60.633088 59.875328-.253952-1.120256c-.026624-.109568-2.581504-11.104256-9.488384-16.595968-3.936256-3.134464-8.68352-4.72576-14.101504-4.72576-4.22912 0-7.371776 1.009664-7.714816 1.128448l-.933888.310272-2.422784-7.443456.928768-.300032c.416768-.132096 4.190208-1.308672 9.52832-1.308672 7.042048 0 13.700096 2.066432 19.262464 5.971968 13.51168 9.495552 15.161344 18.276352 15.302656 19.245056l.118784.765952zm-23.842816-24.393728c5.787648 0 11.088896 1.779712 15.320064 5.144576 6.132736 4.88448 9.017344 13.507584 9.889792 16.59904l6.647808-2.649088c-.602112-2.347008-3.252224-9.391104-14.336-17.18272-5.303296-3.72736-11.403264-5.615616-18.136064-5.615616-3.694592 0-6.564864.587776-7.983104.946176l1.199104 3.705856c1.390592-.37376 4.066304-.948224 7.3984-.948224z"/><path d="m96.98816 302.573568c-2.88768 0-5.834752-1.047552-7.877632-2.816-1.563648-1.347584-6.851584-6.204416-9.183232-12.15488-.8704-2.225152-.674816-4.004864.587776-5.285888.8704-.877568 2.676736-1.927168 6.34368-1.927168l2.609152-.004096c3.108864-.003072 8.343552-.003072 12.817408-.003072h4.289536c2.789376 0 4.789248.603136 5.9392 1.778688 1.476608 1.517568 1.00352 3.447808.590848 4.463616-.718848 1.779712-3.693568 7.571456-8.7296 12.955648-1.803264 1.929216-4.427776 2.993152-7.387136 2.993152z"/><path d="m100.015104 151.103488-10.426368-.67072s2.665472 4.698112 4.391936 10.774528c1.949696 6.873088-1.782784 16.917504-1.782784 16.917504s13.901824-15.73888 7.817216-27.021312z"/><path d="m87.000064 330.103808c-37.108736-2.85184-50.164736-37.916672-50.164736-45.21984l9.691136.004096-4.845568-.004096h4.845568c.048128 3.156992 9.910272 33.152 41.216 35.559424z"/></g><path d="m76.571648 267.280384c-.579584-3.351552-.64-6.530048.067584-9.653248-2.820096-2.11968-7.880704-2.907136-11.677696-4.137984-3.104768-1.965056-18.993152 2.014208-30.52032-11.935744-14.442496-17.468416-11.403264-27.897856-11.403264-27.897856-3.702784 4.114432-7.291904 2.546688-12.936192 21.730304-5.65248 19.187712 2.653184 32.564224 18.132992 45.99296 7.313408 6.34368 17.651712 8.956928 26.544128 9.957376-2.978816-2.991104 5.088256-3.290112 10.648576-5.37088-.443392-4.489216.299008-8.84736 3.646464-12.356608 2.018304-2.115584 4.615168-3.380224 7.309312-4.38784.150528-.34816.277504-.669696.420864-1.00352-.089088-.305152-.176128-.613376-.232448-.93696z" fill="#fff"/><path d="m65.352704 285.848576c-.321536-.94208-.564224-1.902592-.802816-2.869248-.257024-1.055744-1.537024-4.046848.04096-.631808-.405504-.874496-.67072-1.775616-.866304-2.683904-25.069568-.031744-46.879744-17.24416-42.665984-53.431296-3.28192-4.35712-7.877632 8.78592-7.877632 8.78592s-12.550144 36.442112 19.863552 50.566144c10.800128 4.7104 20.344832 8.086528 22.596608 6.723584 4.690944.953344 8.925184-2.317312 10.513408-4.467712-.297984-.66048-.569344-1.321984-.801792-1.99168z" fill="#c9c9c9"/><path d="m76.120064 262.033408c.038912-3.054592.662528-6.012928 2.139136-8.961024.103424-.202752.223232-.397312.333824-.594944-9.647104-.082944-20.757504-1.006592-30.21824-4.793344-10.39872-4.159488-23.406592-18.390016-25.641984-35.109888 0 0-19.584 15.112192-13.82912 47.458304 5.4016 30.373888 30.818304 40.275968 59.805696 41.951232.01536-.196608-3.260416-6.9632-2.225152-11.10528-16.459776 1.196032-34.866176-5.163008-43.751424-19.78368-8.134656-13.381632-5.853184-36.228096-2.509824-39.575552 8.155136 25.732096 37.49888 30.962688 55.897088 30.514176z" fill="#463014"/><path d="m79.157248 243.611648c-5.216256 15.307776-15.870976 27.696128-15.870976 27.696128s14.656512-.666624 15.465472-3.260416c.59904-1.911808 13.234176-31.490048 18.08384-66.139136-4.56192 7.494656-17.231872 40.392704-17.678336 41.703424z" fill="#463014"/><path d="m162.194432 208.319488s16.6144 25.41056 28.808192 43.4432c1.886208 2.789376-12.193792 2.982912-12.193792 2.982912z" fill="#e78724"/><path d="m154.279936 155.636736s5.010432 12.49792 7.750656 19.1232c2.978816 7.202816 14.334976 10.785792 14.334976 10.785792s-5.885952-6.17472-5.885952-21.817344c0-6.562816-8.471552-9.171968-8.471552-9.171968z" fill="#e78724"/><path d="m159.33952 162.70336s10.263552 12.217344 29.325312 5.374976 21.014528-31.27808 21.014528-38.120448-36.164608 6.842368-41.053184 9.775104-14.17216 14.660608-9.286656 22.970368z" fill="#e78724"/><path d="m231.327744 32.152576s-17.59232-3.423232-29.324288 5.863424c-11.727872 9.284608-15.15008 16.617472-15.15008 16.617472l19.769344 15.669248s9.555968-4.4288 12.488704-17.13664c2.930688-12.705792.976896-18.569216 12.21632-21.013504z" fill="#e78724"/><path d="m164.472832 127.413248c7.574528-10.752 20.052992-15.44192 30.02368-16.219136 16.995328-1.329152 25.059328 4.678656 25.059328 4.678656s-27.83232 1.178624-35.85536 11.71456c-14.93504 19.6096-36.714496 21.202944-40.198144 16.896 4.027392.200704 8.461312-1.795072 13.201408-6.280192 2.962432-2.80576 5.36576-7.376896 7.769088-10.789888z" fill="#e78724"/><path d="m211.457024 165.431296s30.876672-10.615808 25.012224-21.36576c-5.863424-10.753024-1.200128-16.611328-1.200128-16.611328s17.247232 12.87168 12.849152 26.554368c-2.700288 8.398848-7.230464 14.47936-32.106496 26.1376-11.931648 22.162432-2.463744 62.0544-3.027968 62.241792-.946176.314368-16.751616-7.81312-15.67232-45.134848.32768-11.460608 1.24416-27.106304 14.145536-31.821824z" fill="#e78724"/><path d="m170.991616 51.275776c12.944384 6.578176 30.686208 15.73888 30.686208 15.73888l-6.980608 3.492864c.666624 1.079296.989184 1.723392.989184 1.723392l-7.165952 3.258368s-17.494016 12.672-28.212224 20.818944c3.569664-11.003904 14.05952-28.291072 14.05952-28.291072s2.977792-7.943168-3.376128-16.741376z" fill="#e78724"/><path d="m127.977472 319.420416c39.79264 0 53.2736-20.204544 53.2736-20.204544l-6.21568 15.145984c-2.351104 6.552576-27.43296 26.942464-46.997504 26.942464" fill="#e78724"/><path d="m176.893952 285.563904s-3.66592 22.378496-18.323456 22.378496c-12.45696 0-16.129024-18.90304-16.129024-22.8096z" fill="#e78724"/><path d="m201.2928 251.813888c-1.302528-3.586048-5.863424-18.08384-7.332864-31.27808-1.75616-15.802368-1.112064-38.915072-1.112064-38.915072s3.910656 15.15008 7.327744 17.598464c3.424256 2.44224 9.775104 19.05664 9.775104 19.05664s3.403776 24.735744 5.023744 33.0496c-4.482048.898048-8.252416-1.743872-13.681664.488448z" fill="#e78724"/><path d="m236.701696 153.765888s-8.30976-2.934784-10.752-21.014528c-2.44224-18.08384 2.93376-33.722368 2.93376-33.722368s-.49152 24.92416 2.44224 29.812736c2.934784 4.887552 5.376 6.351872 8.798208 12.706816 3.418112 6.354944-1.468416 10.261504-3.422208 12.217344z" fill="#e78724"/><path d="m226.78016 36.429824 1.698816-1.074176c5.001216.16896-1.698816 1.074176-1.698816 1.074176z" fill="#fdc168"/><path d="m164.227072 45.922304s7.821312-1.302528 11.728896-7.165952c3.910656-5.865472 14.990336-17.596416 32.648192-17.727488 17.655808-.132096 35.124224 4.692992 35.124224 4.692992l-15.249408 9.634816c-1.6128-.052224-4.432896-.03072-9.100288.124928-19.13344.635904-22.079488 19.564544-22.079488 19.564544l-67.44064-9.286656" fill="#fba919"/><path d="m157.712384 150.468608s9.12384 9.12384 23.13216 6.189056c14.012416-2.930688 22.483968-9.121792 23.136256-19.874816.65024-10.752-2.931712-14.987264-2.931712-14.987264s-15.6416 4.890624-23.135232 11.40736-13.031424 16.941056-20.201472 17.265664z" fill="#fff"/><path d="m168.751104 147.209216s7.91552 3.61472 16.756736.67072c11.580416-3.861504 12.351488-15.901696 12.351488-15.901696s7.098368 20.842496-12.814336 24.854528c-15.968256 3.217408-25.41568-6.037504-25.41568-6.037504z" fill="#c9c9c9"/><path d="m220.476416 68.727808c6.454272-5.354496 1.647616-10.323968 2.157568-16.407552.272384-3.236864.528384-6.291456 1.596416-7.975936 5.940224-9.378816 19.950592-12.224512 20.094976-12.254208l6.577152-1.288192-4.354048-5.092352c-.564224-.659456-18.441216-17.716224-46.109696-8.784896-19.34848 6.24128-33.67424 27.405312-34.20672 28.260352l9.699328 4.562944c.11776-.180224 11.444224-20.073472 28.046336-25.426944 13.41952-4.330496 25.788416-.210944 31.08352 2.489344-5.628928 2.248704-12.995584 6.34368-17.432576 13.348864-2.093056 3.308544-2.443264 7.474176-2.783232 11.507712-.449536 5.34016-.874496 10.381312-4.805632 13.645824z" fill="#463014"/><path d="m237.71136 146.8928s-8.127488-10.083328-10.535936-29.704192c-.946176-7.728128.731136-22.971392 3.419136-28.83584-.488448 14.416896 3.17952 28.83584 3.17952 28.83584s2.471936 26.771456 3.93728 29.704192z" fill="#463014"/><path d="m194.837504 58.544128c.004096-.021504 2.609152-11.405312 9.832448-17.152 10.186752-8.103936 22.627328-3.792896 22.74304-3.755008l1.811456-5.579776c-.60416-.195584-14.820352-4.675584-27.927552 4.535296-13.181952 9.263104-14.759936 17.659904-14.901248 18.587648z" fill="#463014"/><path d="m212.175872 139.661312s4.265984-6.107136 3.494912-12.823552c-.377856-3.316736-1.91488-6.721536-4.6592-7.929856-5.09952-2.240512-7.360512 3.539968-7.360512 3.539968s7.17824 1.77152 8.5248 17.21344z" fill="#463014"/><path d="m165.336064 148.969472c-.178176.3328-.270336.519168-.270336.519168s13.30176 9.986048 26.938368-.147456c7.304192-5.429248 6.614016-18.859008 4.373504-24.554496-5.812224 1.317888-10.743808 3.693568-14.86848 6.467584 5.211136-4.649984 9.772032-8.073216 9.755648-8.152064l5.925888-1.676288 11.508736-3.944448c.147456.877568 4.344832 20.555776-7.77728 33.964032-5.369856 5.945344-30.550016 19.259392-42.502144-3.506176z" fill="#463014"/><path d="m166.578176 150.432768c-7.491584 11.40224-26.38848 4.886528-26.061824-7.168 0 0 12.62592 6.970368 23.784448-5.863424 6.514688-7.492608 27.394048-28.151808 55.702528-21.285888-19.549184 4.298752-45.432832 22.160384-53.425152 34.317312z" fill="#463014"/><path d="m222.649344 182.612992c-1.803264 1.041408-8.162304 7.62368-8.162304 17.468416-.004096 4.936704.488448 29.73696 2.934784 44.888064-3.67616 2.387968-6.23616 2.895872-9.895936 5.32992-1.831936-17.547264-3.149824-42.979328-2.533376-53.245952.699392-11.703296 6.9632-19.557376 12.773376-22.90688 1.819648-1.046528 3.72224-2.075648 5.641216-3.110912 9.95328-5.378048 20.245504-10.94144 20.245504-20.441088 0-7.431168-2.891776-9.755648-5.950464-12.219392l-.325632-.267264c-2.029568-1.639424-4.330496-3.499008-5.687296-6.552576-3.714048-8.348672-4.323328-29.615104-.004096-35.013632 2.153472-2.690048 7.927808-11.736064 6.268928-17.814528-.635904-2.320384-2.098176-4.03968-4.475904-5.25824-2.518016-1.289216-5.9136-1.942528-10.103808-1.942528-8.2176 0-17.342464 2.502656-22.043648 3.992576-16.813056 5.328896-37.100544 20.692992-42.919936 25.275392-.165888.128-.262144.202752-.280576.21504l-3.723264 2.587648 2.327552-3.894272c.147456-.242688 14.88384-24.47872 41.237504-33.364992 5.128192-1.728512 15.200256-4.629504 25.100288-4.629504 5.894144 0 10.89024 1.02912 14.854144 3.05664 4.827136 2.468864 8.093696 6.408192 9.453568 11.387904 3.328 12.207104-7.512064 25.798656-7.881728 26.232832-1.263616 2.255872-1.798144 18.642944 1.117184 25.201664.401408.905216 1.502208 1.795072 2.898944 2.919424.436224.35328.920576.719872 1.441792 1.112064 4.119552 3.108864 10.344448 7.805952 10.344448 18.632704 0 14.814208-15.013888 22.846464-27.075584 29.304832-1.98144 1.06496-3.872768 2.072576-5.57568 3.05664z" fill="#463014"/><path d="m204.73856 66.98496c-2.387968-4.0448-8.495104-11.854848-22.571008-18.717696-15.70816-7.656448-33.888256-11.542528-54.043648-11.551744v-.004096h-.038912-.038912v.002048c-20.158464.01024-38.341632 3.89632-54.045696 11.551744-14.075904 6.863872-20.180992 14.672896-22.571008 18.717696l-1.025024 1.3568 12.053504 2.68288.381952-.482304.201728-.442368c.186368-.796672 1.80224-5.097472 15.241216-11.651072 14.36672-7.007232 31.123456-10.559488 49.800192-10.565632 18.678784.006144 35.428352 3.5584 49.794048 10.565632 13.44 6.5536 15.060992 10.8544 15.245312 11.651072l.200704.442368.377856.482304 12.0576-2.68288z" fill="#463014"/><path d="m220.476416 68.727808c6.454272-5.354496 1.647616-10.323968 2.157568-16.407552.272384-3.236864.528384-6.291456 1.596416-7.975936 5.940224-9.378816 19.950592-12.224512 20.094976-12.254208l6.577152-1.288192-4.354048-5.092352c-.564224-.659456-18.441216-17.716224-46.109696-8.784896-19.34848 6.24128-33.67424 27.405312-34.20672 28.260352l9.699328 4.562944c.11776-.180224 11.444224-20.073472 28.046336-25.426944 13.41952-4.330496 25.788416-.210944 31.08352 2.489344-5.628928 2.248704-12.995584 6.34368-17.432576 13.348864-2.093056 3.308544-2.443264 7.474176-2.783232 11.507712-.449536 5.34016-.874496 10.381312-4.805632 13.645824z" fill="#463014"/><path d="m208.054272 65.686528 1.357824-1.130496c3.61472-2.998272 4.020224-7.840768 4.456448-12.988416.350208-4.14208.71168-8.42752 2.930688-11.931648 4.077568-6.434816 10.532864-10.467328 15.850496-12.864512-3.183616-1.348608-9.165824-3.35872-16.54272-3.35872-4.074496 0-8.050688.616448-11.833344 1.837056-15.399936 4.9664-26.281984 22.914048-27.513856 25.019392l-.461824.730112-11.478016-5.397504.58368-.93184c.135168-.217088 14.539776-22.160384 34.738176-28.673024 5.4016-1.744896 10.829824-2.625536 16.134144-2.625536 19.438592 0 30.917632 11.588608 31.015936 11.705344l5.444608 6.365184-8.214528 1.610752c-.136192.027648-13.802496 2.886656-19.462144 11.817984-.937984 1.4848-1.183744 4.420608-1.449984 7.537664-.154624 1.85344.234496 3.659776.613376 5.405696.821248 3.785728 1.66912 7.701504-3.119104 11.670528l-.415744.345088z" fill="#463014"/><path d="m194.837504 58.544128c.004096-.021504 2.609152-11.405312 9.832448-17.152 10.186752-8.103936 22.627328-3.792896 22.74304-3.755008l1.811456-5.579776c-.60416-.195584-14.820352-4.675584-27.927552 4.535296-13.181952 9.263104-14.759936 17.659904-14.901248 18.587648z" fill="#463014"/><path d="m185.3184 55.80288.113664-.765952c.14336-.968704 1.794048-9.747456 15.30368-19.245056 5.558272-3.905536 12.218368-5.971968 19.260416-5.971968 5.341184 0 9.114624 1.174528 9.532416 1.308672l.927744.300032-2.42176 7.443456-.934912-.310272c-.349184-.11776-3.490816-1.128448-7.717888-1.128448-5.41696 0-10.161152 1.589248-14.097408 4.72576-6.907904 5.49376-9.464832 16.487424-9.488384 16.595968l-.253952 1.118208zm41.46176-19.373056 1.2032-3.705856c-1.419264-.360448-4.292608-.946176-7.9872-.946176-6.731776 0-12.833792 1.890304-18.134016 5.615616-11.087872 7.793664-13.737984 14.835712-14.339072 17.18272l6.652928 2.649088c.8704-3.093504 3.751936-11.716608 9.887744-16.59904 4.23424-3.364864 9.529344-5.144576 15.316992-5.144576 3.328 0 6.008832.574464 7.399424.948224z" fill="#463014"/><path d="m151.799808 299.580416c-5.035008-5.383168-8.013824-11.175936-8.733696-12.955648-.411648-1.01376-.88064-2.946048.595968-4.463616 1.150976-1.175552 3.145728-1.778688 5.935104-1.778688h4.292608c4.473856 0 9.705472 0 12.816384.003072l2.609152.004096c3.664896 0 5.470208 1.048576 6.339584 1.927168 1.263616 1.278976 1.461248 3.058688.590848 5.285888-2.331648 5.951488-7.620608 10.80832-9.184256 12.15488-2.048 1.768448-4.987904 2.816-7.875584 2.816-2.960384 0-5.582848-1.063936-7.386112-2.993152z" fill="#463014"/><path d="m156.157952 151.103488 10.420224-.67072s-2.661376 4.698112-4.38784 10.774528c-1.949696 6.873088 1.782784 16.917504 1.782784 16.917504s-13.902848-15.73888-7.815168-27.021312z" fill="#463014"/><path d="m128.08704 113.880064c-6.644736 0-15.3088-.182272-21.809152-4.85376 0 0 8.511488 14.920704 21.797888 14.920704l.011264-1.888256.011264 1.888256c13.287424 0 21.797888-14.920704 21.797888-14.920704-6.500352 4.671488-15.17056 4.85376-21.809152 4.85376z" fill="#e78724"/><path d="m146.382848 113.808384c-6.665216 4.033536-12.617728 5.431296-18.295808 5.5552-5.679104-.123904-11.629568-1.521664-18.295808-5.5552 0 0 9.706496 11.844608 18.246656 11.935744v.007168c.01536 0 .03072-.004096.048128-.004096.01536 0 .03072.004096.048128.004096v-.007168c8.538112-.091136 18.248704-11.935744 18.248704-11.935744z" fill="#463014"/><path d="m169.171968 330.103808-.743424-9.66144c31.29856-2.407424 41.160704-32.402432 41.211904-35.559424h9.691136c.004096 7.302144-13.056 42.369024-50.159616 45.220864z" fill="#463014"/><path d="m179.598336 267.280384c.582656-3.351552.638976-6.530048-.067584-9.653248 2.824192-2.11968 7.880704-2.907136 11.677696-4.137984 3.104768-1.965056 18.997248 2.014208 30.524416-11.935744 14.442496-17.468416 11.399168-27.897856 11.399168-27.897856 3.705856 4.114432 7.291904 2.546688 12.940288 21.730304 5.65248 19.187712-2.65728 32.564224-18.137088 45.99296-7.312384 6.34368-17.651712 8.956928-26.544128 9.957376 2.978816-2.991104-5.088256-3.290112-10.645504-5.37088.444416-4.489216-.30208-8.84736-3.648512-12.356608-2.014208-2.115584-4.615168-3.380224-7.307264-4.38784-.151552-.34816-.2816-.669696-.420864-1.00352.089088-.305152.173056-.613376.229376-.93696z" fill="#fff"/><path d="m190.814208 285.848576c.325632-.94208.564224-1.902592.802816-2.869248.26112-1.055744 1.54112-4.046848-.038912-.631808.405504-.874496.67072-1.775616.866304-2.683904 25.069568-.031744 46.879744-17.24416 42.661888-53.431296 3.28192-4.35712 7.880704 8.78592 7.880704 8.78592s12.551168 36.442112-19.862528 50.566144c-10.800128 4.7104-20.343808 8.086528-22.596608 6.723584-4.69504.953344-8.92928-2.317312-10.513408-4.467712.295936-.66048.57344-1.321984.799744-1.99168z" fill="#c9c9c9"/><path d="m180.046848 262.033408c-.034816-3.054592-.662528-6.012928-2.13504-8.961024-.104448-.202752-.224256-.397312-.333824-.594944 9.64608-.082944 20.757504-1.006592 30.21824-4.793344 10.397696-4.159488 23.405568-18.390016 25.641984-35.109888 0 0 19.584 15.112192 13.82912 47.458304-5.405696 30.373888-30.819328 40.275968-59.805696 41.951232-.01536-.196608 3.26144-6.9632 2.225152-11.10528 16.45568 1.196032 34.86208-5.163008 43.752448-19.78368 8.129536-13.381632 5.849088-36.228096 2.505728-39.575552-8.152064 25.732096-37.49888 30.962688-55.898112 30.514176z" fill="#463014"/><path d="m191.752192 269.651968c-3.463168-3.743744-9.8304-8.206336-24.511488-8.206336 0 0-27.834368-.016384-39.104512-.023552h-.048128-.048128c-11.26912.008192-39.110656.023552-39.110656.023552-14.676992 0-21.044224 4.463616-24.50944 8.206336-5.047296 5.448704-5.838848 13.028352-2.347008 22.5024 9.278464 25.217024 22.317056 50.83648 65.965056 50.87232v.004096c.016384 0 .03072-.004096.048128-.004096.01536 0 .03072.004096.048128.004096v-.004096c43.643904-.037888 56.682496-25.655296 65.964032-50.87232 3.49184-9.474048 2.69824-17.053696-2.345984-22.5024zm-6.795264 20.733952c-4.420608 12.662784-16.301056 43.313152-56.871936 43.3664-40.576-.053248-52.452352-30.702592-56.87296-43.3664-2.446336-7.025664-2.259968-12.224512.572416-15.454208 1.934336-2.207744 6.378496-4.842496 16.50688-4.842496l10.580992-.004096c7.805952-.007168 17.606656-.01536 29.213696-.019456 11.602944.004096 21.408768.012288 29.212672.019456l10.576896.004096c10.131456 0 14.574592 2.633728 16.509952 4.842496 2.829312 3.232768 3.017728 8.428544.571392 15.454208z" fill="#463014"/><path d="m177.011712 243.611648c5.216256 15.307776 15.869952 27.696128 15.869952 27.696128s-14.655488-.666624-15.465472-3.260416c-.594944-1.911808-13.231104-31.490048-18.080768-66.139136 4.558848 7.494656 17.2288 40.392704 17.676288 41.703424z" fill="#463014"/></svg>