<svg height="250" preserveAspectRatio="xMidYMid" viewBox="0 0 256 250" width="256" xmlns="http://www.w3.org/2000/svg"><g fill="#ef0000"><path d="m139.964707 249.179593c-63.6203213 0-115.5769171-51.956596-115.5769171-115.576918 0-63.6203215 51.9565958-115.5769173 115.5769171-115.5769173 63.620322 0 115.576917 51.9565958 115.576917 115.5769173 0 63.620322-51.956595 115.576918-115.576917 115.576918zm0-223.024572c-59.3789665 0-107.4476538 48.0686873-107.4476538 107.447654 0 59.378967 48.0686873 107.447654 107.4476538 107.447654 59.378966 0 107.447654-48.068687 107.447654-107.447654 0-59.3789667-48.422134-107.447654-107.447654-107.447654z"/><path d="m116.283809 249.179593c-63.6203207 0-115.57691654-51.956596-115.57691654-115.576918 0-63.6203215 51.95659584-115.5769173 115.57691654-115.5769173 63.620322 0 115.576918 51.9565958 115.576918 115.5769173 0 63.620322-51.956596 115.576918-115.576918 115.576918zm0-223.024572c-59.3789659 0-107.44765324 48.0686873-107.44765324 107.447654 0 59.378967 48.06868734 107.447654 107.44765324 107.447654 59.378967 0 107.447655-48.068687 107.447655-107.447654 0-59.3789667-48.068688-107.447654-107.447655-107.447654z"/><path d="m128.654428 231.860727c-63.6203216 0-115.5769174-51.956596-115.5769174-115.576918 0-63.6203207 51.9565958-115.57691654 115.5769174-115.57691654 63.620321 0 115.576917 51.95659584 115.576917 115.57691654 0 63.620322-51.956596 115.576918-115.576917 115.576918zm0-223.02457124c-59.3789669 0-107.4476542 48.06868734-107.4476542 107.44765324 0 59.378967 48.0686873 107.447655 107.4476542 107.447655 59.378967 0 107.447654-48.068688 107.447654-107.447655 0-59.3789659-48.068687-107.44765324-107.447654-107.44765324z"/><path d="m164.475711 137.844029c-2.340286 2.474125-4.589489 4.948248-6.838693 7.422372-9.543048 10.603387-16.965418 18.379203-29.336037 18.379203-22.620558 0-40.9997621-18.379203-40.9997621-40.999762s18.3792041-40.9997628 40.9997621-40.9997628c13.784403 0 26.861914 7.4223708 34.637731 19.4395418 2.474124 3.534463 6.715478 4.241356 10.24994 2.474125 3.534463-2.474125 4.241356-6.715479 2.474124-10.2499413-10.24994-16.6119728-27.922252-26.155021-47.361795-26.155021-30.7498215 0-55.8445038 24.7412362-55.8445038 55.4910583 0 30.749822 25.0946823 55.844504 55.8445038 55.844504 18.732651 0 29.336037-11.310279 39.585978-23.327451.476827-.52451.947221-1.042586 1.413785-1.555097v15.692946c0 3.534463 3.181017 7.068925 7.068925 7.068925 4.594801 0 7.775817-3.181017 7.068924-7.068925v-38.525638c0-3.534463-3.181016-7.068925-7.068924-7.068925h-36.051515c-3.534463 0-7.068925 3.534462-7.068925 7.068925 0 3.534461 3.181016 7.068923 7.068925 7.068923z"/></g></svg>