<svg height="270" preserveAspectRatio="xMidYMid" viewBox="0 0 256 270" width="256" xmlns="http://www.w3.org/2000/svg"><path d="m103.995568 27.798338c.921884-.9218837.921884-2.4819945 0-3.4038782l-23.6498616-23.64986146c-.9218837-.92188366-2.4819945-.92188366-3.4038781 0l-76.01994464 75.98448756c-.92188366.9218836-.92188366 2.4819944 0 3.4038781l76.01994464 76.019945c.9218836.921883 2.4819944.921883 3.4038781 0l23.6498616-23.649862c.921884-.921884.921884-2.481994 0-3.403878l-48.9307481-48.9307479c-.9218836-.9218837-.9218836-2.4819945 0-3.4038782z" fill="#f93535"/><path d="m179.164543.74459834c-.921884-.92188366-2.481995-.92188366-3.403878 0l-75.9135736 75.87811636c-.9218836.9218836-.9218836 2.4819944 0 3.4038781l23.6498616 23.6853182c.921884.921884 2.481994.921884 3.403878 0l48.859834-48.8598334c.921883-.9218837 2.481994-.9218837 3.403878 0l21.877008 21.8770083c.921884.9218836.921884 2.4819944 0 3.4038781l-48.930748 48.930748c-.921883.921884-.921883 2.481994 0 3.403878l23.649862 23.649862c.921883.921883 2.481994.921883 3.403878 0l75.984487-75.984488c.921884-.9218837.921884-2.4819945 0-3.4038781z" fill="#f93535"/><g fill="#424242"><path d="m45.9523546 224.301385v16.097507h18.2249307v7.48144c-3.6520775 3.120222-8.33241 4.680333-13.8637119 4.680333-5.8858726 0-10.7434903-1.914682-14.8210526-5.814959-3.9711912-3.971191-5.8858726-8.793351-5.8858726-14.714681 0-5.956787 1.9501385-10.778947 5.9922438-14.714682 4.0775623-3.971191 8.899723-5.921329 14.7501385-5.921329 5.8858725 0 10.6371191 1.631025 14.501939 4.963989 3.4747923-3.722992 8.6515236-8.226039 11.5235457-11.559003-7.1977839-6.595014-15.9556786-9.892521-26.0254847-9.892521-10.8498615 0-19.8204986 3.474792-27.3728532 10.601662-7.5878116 7.162327-11.2398892 15.849308-11.2398892 26.521884s3.6875346 19.359557 11.2753462 26.521884c7.4814405 6.985041 16.7002771 10.49529 27.3728532 10.49529 12.232687 0 23.6498615-5.495844 30.4930748-14.643767l.2481995-.354571v-29.783933h-35.1734072z"/><path d="m158.599446 196.006648-12.090859 39.357341-11.523545-39.357341h-13.970084l-11.488088 39.357341-12.0908589-39.357341h-17.799446l21.7706369 71.97784h14.85651l11.700831-38.329086 11.700831 38.329086h14.85651l21.770637-71.97784z"/><path d="m181.291967 196.006648-4.999446 16.522992h21.345152v55.454848h20.210526v-55.454848h21.309696v-16.522992z"/></g></svg>