<svg height="278" preserveAspectRatio="xMidYMid" viewBox="0 0 256 278" width="256" xmlns="http://www.w3.org/2000/svg"><path d="m32.9272 44.703 62.146-35.88c20.375-11.764 45.479-11.764 65.854 0l62.146 35.88c20.375 11.764 32.927 33.504 32.927 57.032v73.86c0 23.528-12.552 45.268-32.927 57.032l-62.146 35.88c-20.375 11.764-45.479 11.764-65.854 0l-62.146-37.981c-20.375-11.764-32.927-33.504-32.927-57.032v-71.759c0-23.528 12.552-45.268 32.927-57.032" fill="#01b7d4"/><path d="m181.2346 177.976-41.467-73.176c-6.164-10.938-17.861-10.507-22.063 4.99-3.678 14.578-2.676 28.416-3.747 45.022-.017.262-.372.325-.489.091l-36.973-73.946c2.932-2.257 4.829-5.792 4.829-9.779 0-6.818-5.527-12.345-12.345-12.345s-12.345 5.527-12.345 12.345c0 6.819 5.527 12.346 12.345 12.346.508 0 1.005-.04 1.497-.1 15.572 40.097 32.918 86.828 39.085 97.548 4.114 10.332 18.618 7.064 18.911-4.053l1.542-58.468c.008-.303.424-.382.542-.102l29.798 70.743c-1.698 3.085-2.667 6.628-2.667 10.398 0 11.936 9.676 21.612 21.611 21.612 11.936 0 21.612-9.676 21.612-21.612 0-11.282-8.649-20.534-19.676-21.514" fill="#fff"/></svg>