<svg height="256" preserveAspectRatio="xMidYMid" viewBox="0 0 256 256" width="256" xmlns="http://www.w3.org/2000/svg"><path d="m127.945883.00796951-72.8734837 8.07046849-55.0723993 23.9161045h63.970692l63.975191-31.99086753" fill="#fbc707" transform="matrix(1 0 0 -1 0 31.998218)"/><path d="m127.945883.00796951 74.542425 6.40173185 53.403458 25.58484114h-63.975191l-63.970692-31.99086753" fill="#fbc707" transform="matrix(1 0 0 -1 0 31.998218)"/><path d="m127.945883 255.885829 69.535806-2.503309 58.410077-29.483264h-63.975191l-63.970692 31.992095" fill="#f68712" transform="matrix(1 0 0 -1 0 479.790608)"/><path d="m127.945883 255.885625h-70.0920515l-57.8538315-31.986369h63.970692l63.975191 31.991891" fill="#f25c19" transform="matrix(1 0 0 -1 0 479.790402)"/><path d="m31.985346 255.88951v-67.307347l-31.985346-60.635264v63.970692l31.985346 63.973556" fill="#fff200" transform="matrix(1 0 0 -1 0 383.838046)"/><path d="m31.985346.00367497-5.2837192 66.75764583-26.7016268 61.1872152v-63.9702835l31.985346-63.97294151" fill="#fff200" transform="matrix(1 0 0 -1 0 127.95221)"/><path d="m223.900899.00367497 6.957977 70.09532363 25.03289 57.8495374v-63.9702835l-31.990867-63.97294151" fill="#f1471d" transform="matrix(1 0 0 -1 0 127.95221)"/><path d="m223.900899 255.88951 5.845281-75.095398 26.145382-52.847213v63.970692l-31.990663 63.973556" fill="#f1471d" transform="matrix(1 0 0 -1 0 383.838046)"/><path d="m0 127.948536 127.945883-31.9865735-20.582517-81.4916087-75.37802-14.46667883-31.985346 127.93811203" fill="#fab20b" transform="matrix(1 0 0 -1 0 127.95221)"/><path d="m255.891766 127.948536-31.990867-127.94486103-85.941983 15.58305543-10.013237 80.3791176 127.946087 31.975939" fill="#f47216" transform="matrix(1 0 0 -1 0 127.95221)"/><path d="m255.891766 127.954875-127.945883 31.986369 14.463407 84.827446 81.491609 11.122457 31.990867-127.928501" fill="#f25c19" transform="matrix(1 0 0 -1 0 383.846022)"/><path d="m0 127.948536 31.985346 127.942611 77.046757-17.241567 18.91378-78.714471-127.945883-31.978802" fill="#f89c0e" transform="matrix(1 0 0 -1 0 383.839682)"/><path d="m127.945883 223.904778-95.960537-95.958288 95.960537-95.956242 95.955016 95.956242-95.955016 95.953993" fill="#f68712" transform="matrix(1 0 0 -1 0 255.895026)"/></svg>