<svg height="256" preserveAspectRatio="xMidYMid" viewBox="0 0 256 256" width="256" xmlns="http://www.w3.org/2000/svg"><path d="m201.1947 23.0186v36.172c16.911 17.982 27.292 42.177 27.292 68.809 0 55.497-44.99 100.487-100.487 100.487-9.949 0-19.558-1.449-28.63-4.146-.146-.044-.009-81.483-.009-81.483l57.537.18v65.223c10.734-3.265 21.253-10.142 31.615-19.658v-75.912h-89.1s.085-64.966-.043-64.937c-17.388 3.881-32.426 19.535-32.426 19.535v173.237c18.148 9.868 38.947 15.474 61.056 15.474 70.693 0 128-57.307 128-128 0-43.465-21.684-81.845-54.805-104.981" fill="#048991"/><path d="m27.5138 128c0-55.497 44.989-100.486 100.486-100.486 10.025 0 19.705 1.47 28.838 4.206v68.288h31.969v-84.664c-18.089-9.785-38.798-15.344-60.807-15.344-70.692 0-128 57.308-128 128 0 43.356 21.577 81.65 54.557 104.805v-36.256c-16.766-17.955-27.043-42.046-27.043-68.549" fill="#818285"/></svg>