<svg height="400" preserveAspectRatio="xMidYMid" viewBox="0 0 256 400" width="256" xmlns="http://www.w3.org/2000/svg"><path d="m28.0830072 398.288737v-34.778534c0-2.451938-1.797542-3.509719-3.9166496-3.509719-4.2481069 0-9.5539951 1.057781-14.37118837 3.180949v35.107361h-9.79516923v-64.576062h9.79516923v21.304402c4.65549567-1.712634 10.20616017-3.180949 15.75773947-3.180949 8.8982279 0 12.2457912 5.469816 12.2457912 12.977033v33.475576h-9.7156927zm27.9990137-21.062256c.3260826 11.674018 2.6131773 13.960655 9.7943116 13.960655 5.6337432 0 12.0018726-1.878791 16.9012868-3.757182l1.6322424 7.345977c-5.2254969 2.370631-11.5927113 4.654581-19.1830069 4.654581-16.3303709 0-18.8622991-8.977762-18.8622991-23.267187 0-7.835529.5735462-14.93936 2.4505649-21.470101 4.8975846-1.878391 11.4292412-2.857096 19.6725595-2.857096 13.3928835 0 17.4730605 7.429913 17.4730605 20.409633v4.980663h-29.8787197zm12.4057163-17.225997c-2.9347999 0-7.5902955.081306-11.4265538.813005-.406474 1.960098-.8987711 4.654581-1.0622412 9.635301h20.409633c0-6.777805-1.2248536-10.448306-7.920838-10.448306zm35.8376878 3.180949v35.107361h-9.7969989v-39.514536c8.2460629-4.48888 16.9807629-5.877662 22.6976429-6.285508v8.164299c-4.000644.32614-9.064386.815693-12.900644 2.528384zm38.777862 36.249079c-14.615964 0-21.228012-7.182907-21.228012-23.593269 0-17.389067 8.734757-24.001115 21.228012-24.001115 14.611505 0 21.225326 7.182907 21.225326 23.593269 0 17.389124-8.736531 24.001115-21.225326 24.001115zm0-39.430028c-7.512591 0-11.674932 4.325354-11.674932 15.836816 0 12.574104 3.510176 15.349893 11.674932 15.349893 7.50899 0 11.674018-4.246734 11.674018-15.757739 0-12.574161-3.511034-15.42897-11.674018-15.42897zm68.489567 38.288253h-11.511405c-2.692711-7.183365-6.450293-14.531971-12.246706-20.899243h-5.143276v20.899243h-9.796084v-64.576005h9.796084v37.062084h4.572417c4.979806-5.143733 8.816064-11.508718 11.511405-17.796913h11.020023c-3.754037 7.59344-8.570373 14.287194-13.95934 19.75701 6.450351 8.164357 11.511463 16.818208 15.756882 25.553824zm18.362855 1.141775c-8.896455 0-12.244019-5.467586-12.244019-12.979263v-33.473346h9.71392v34.696827c0 2.451937 1.794855 3.512406 3.917565 3.512406 4.24542 0 10.041775-1.060469 14.860741-3.183636v-35.025597h9.796084v39.351008c-11.592711 6.367672-20.492712 7.101601-26.044291 7.101601z" fill="#6762a6"/><path d="m225.627557 317.252791h-195.3704207c-16.7114114 0-30.2571363-13.544579-30.2571363-30.25468v-256.7421212c0-16.7102649 13.5457249-30.2559898 30.2571363-30.2559898h195.3704207c16.708955 0 30.259757 13.5457249 30.259757 30.2559898v256.7421212c0 16.710101-13.550802 30.25468-30.259757 30.25468z" fill="#6762a6"/><path d="m160.360824 273.600778v-125.990981s8.194457-30.149692-100.9442559 12.334024c-.199657.538697-.199657-116.5040769-.199657-116.5040769l35.6596698-.2188202v74.9904751s99.8463881-39.3257279 99.8463881 29.823426v125.566281h-34.362145zm20.31998-184.9943135h-37.824778c13.614843-16.6462239 25.939859-45.167048 25.939859-45.167048h39.109364c0 .0001638-6.694818 18.5861241-27.224445 45.167048zm-120.8164406 184.7754935v-71.747972l35.8771798 35.87718z" fill="#fff"/></svg>