<svg height="184" preserveAspectRatio="xMidYMid" viewBox="0 0 512 184" width="512" xmlns="http://www.w3.org/2000/svg"><path d="m44.9447316 36.8h56.6186874c4.669583 0 8.463619 3.7968254 8.463619 8.4698413v19.5682539c0 4.6730159 3.794036 8.7619048 8.463618 8.7619048h19.553877c4.669582 0 8.755467-4.0888889 8.755467-8.7619048v-56.36825393c0-4.67301587-4.085885-8.46984127-8.755467-8.46984127h-129.58091471c-4.6695825 0-8.46361829 3.7968254-8.46361829 8.46984127v56.36825393c0 4.6730159 3.79403579 8.7619048 8.46361829 8.7619048h19.55387671c4.6695825 0 8.4636183-4.0888889 8.4636183-8.7619048v-19.5682539c0-4.6730159 3.7940358-8.4698413 8.4636183-8.4698413z" fill="#424a52" transform="matrix(-1 0 0 -1 146.8 73.6)"/><path d="m44.9447316 146.772962h56.6186874c4.669583 0 8.463619 3.794036 8.463619 8.463619v19.553876c0 4.669583 3.794036 8.755467 8.463618 8.755467h19.553877c4.669582 0 8.755467-4.085884 8.755467-8.755467v-56.326839c0-4.669582-4.085885-8.463618-8.755467-8.463618h-129.58091471c-4.6695825 0-8.46361829 3.794036-8.46361829 8.463618v56.326839c0 4.669583 3.79403579 8.755467 8.46361829 8.755467h19.55387671c4.6695825 0 8.4636183-4.085884 8.4636183-8.755467v-19.553876c0-4.669583 3.7940358-8.463619 8.4636183-8.463619z" fill="#fa8a75"/><path d="m227.744732 37.1729622h56.618687c4.669583 0 8.463619 3.7940358 8.463619 8.4636183v19.5538768c0 4.6695825 3.794036 8.7554672 8.463618 8.7554672h19.553877c4.669582 0 8.755467-4.0858847 8.755467-8.7554672v-56.32683901c0-4.6695825-4.085885-8.46361829-8.755467-8.46361829h-129.580915c-4.669582 0-8.463618 3.79403579-8.463618 8.46361829v56.32683901c0 4.6695825 3.794036 8.7554672 8.463618 8.7554672h19.553877c4.669583 0 8.463618-4.0858847 8.463618-8.7554672v-19.5538768c0-4.6695825 3.794036-8.4636183 8.463619-8.4636183z" fill="#fa8a75"/><path d="m227.744732 146.772962h56.618687c4.669583 0 8.463619 3.794036 8.463619 8.463619v19.553876c0 4.669583 3.794036 8.755467 8.463618 8.755467h19.553877c4.669582 0 8.755467-4.085884 8.755467-8.755467v-56.326839c0-4.669582-4.085885-8.463618-8.755467-8.463618h-129.580915c-4.669582 0-8.463618 3.794036-8.463618 8.463618v56.326839c0 4.669583 3.794036 8.755467 8.463618 8.755467h19.553877c4.669583 0 8.463618-4.085884 8.463618-8.755467v-19.553876c0-4.669583 3.794036-8.463619 8.463619-8.463619z" fill="#424a52" transform="matrix(-1 0 0 -1 512.4 293.545924)"/><path d="m410.144732 37.1729622h56.618687c4.669583 0 8.463619 3.7940358 8.463619 8.4636183v19.5538768c0 4.6695825 3.794036 8.7554672 8.463618 8.7554672h19.553877c4.669582 0 8.755467-4.0858847 8.755467-8.7554672v-56.32683901c0-4.6695825-4.085885-8.46361829-8.755467-8.46361829h-129.580915c-4.669582 0-8.463618 3.79403579-8.463618 8.46361829v56.32683901c0 4.6695825 3.794036 8.7554672 8.463618 8.7554672h19.553877c4.669583 0 8.463618-4.0858847 8.463618-8.7554672v-19.5538768c0-4.6695825 3.794036-8.4636183 8.463619-8.4636183z" fill="#424a52"/><path d="m410.144732 146.772962h56.618687c4.669583 0 8.463619 3.794036 8.463619 8.463619v19.553876c0 4.669583 3.794036 8.755467 8.463618 8.755467h19.553877c4.669582 0 8.755467-4.085884 8.755467-8.755467v-56.326839c0-4.669582-4.085885-8.463618-8.755467-8.463618h-129.580915c-4.669582 0-8.463618 3.794036-8.463618 8.463618v56.326839c0 4.669583 3.794036 8.755467 8.463618 8.755467h19.553877c4.669583 0 8.463618-4.085884 8.463618-8.755467v-19.553876c0-4.669583 3.794036-8.463619 8.463619-8.463619z" fill="#fa8a75"/></svg>