<svg height="348" preserveAspectRatio="xMidYMid" viewBox="0 0 256 348" width="256" xmlns="http://www.w3.org/2000/svg"><path d="m201.850063 308.292895c2.779417 1.778009 5.546061 3.556019 7.870757 5.939471 4.462906 4.562536 5.990564 10.118816 5.842396 16.390387l-.056201 2.309368-1.992597 1.154685c-5.144987 2.965903-11.383348 3.900891-17.243627 3.867681-5.134769-.030655-10.435587-.784265-15.406861-2.059017-2.932694-.756164-7.635733-2.168865-10.02174-4.079714-2.541839-2.028361-4.488452-4.447578-5.609927-7.518221-1.721808-4.718367-1.124029-10.205673-.82003-15.130963.411292-6.951098.301444-13.17924-1.014181-20.063918l-.411292-2.181638 1.588968-1.540431c8.877275-8.583494 17.754549-17.172097 26.629269-25.760701l6.86935-6.647098.09963 9.564464c.137949 14.369689-2.125437 32.144675 3.676086 45.755645" fill="#17273e"/><path d="m194.058498 262.573015c-8.869611 8.591158-17.746885 17.177207-26.621605 25.760701 4.258537 22.388614-4.084824 32.251969 5.967572 40.278557 3.630103 2.894375 25.694281 9.050989 38.048382 1.913404.286116-11.620927-6.074866-15.072207-12.859914-19.438037-6.851468-14.732444-4.393932-33.994214-4.534435-48.514625" fill="#2b4f91"/><path d="m194.058498 262.573015c-8.869611 8.591158-17.746885 17.177207-26.621605 25.760701.863458 4.552318 1.210886 8.591158 1.297742 12.19316 8.933476-2.39878 17.501643-6.808039 25.109276-12.75262-.339764-8.810854.288671-17.647255.214587-25.201241" fill="#243d75"/><path d="m169.45759 286.379438-2.020697 1.954278c4.258537 22.388614-4.084824 32.251969 5.967572 40.278557 3.630103 2.894375 25.694281 9.050989 38.048382 1.913404.012773-.235024.012773-.467493.012773-.694854-11.383349 2.774308-35.971483.978416-36.308692-10.560763-.498149-11.018039.510923-21.813827-.217142-32.829311z" fill="#2c8dbb"/><path d="m169.45759 286.379438-.355091.344873-.413847.403629-.413847.403628-.424065.398519-.413847.403629c.063865.334654.13284.674417.191596 1.001408l.005109.035764v.028101c.053647.321881.107294.643762.163495.955425l.005109.043428.002555.035765c.051092.314217.102184.628434.145613.937542l.005109.030655.005109.051093c.051092.309108.089412.605442.127731.911996l.012773.020437.010218.068974c.030656.301444.068975.602888.109848.899223v.002555c.07153.615661.135395 1.215995.194151 1.811219l.010218.079193v.017883c.053647.597779.104739 1.182785.140504 1.752463l.007664.051092.005109.025546c.010219.281008.030655.554351.045983.827695v.033209c.038319.582452.068975 1.15213.086857 1.719254v.005109c.005109.281007.012773.55946.022991.840467v.007664c2.179084-.58756 4.330067-1.290079 6.463167-2.105.043429-3.97753.007664-7.970387-.258016-11.981127zm-.745946 13.299307c.005109.281007.012773.55946.022991.840467z" fill="#2b4f91"/><path d="m79.1239779 208.783118c.1226213-3.474271.5415776-8.172202 4.3888223-9.559356 5.0683489-1.826547 9.5261458 4.723477 11.9887911 8.167093 1.9389501 2.72577 3.5560191 5.740212 4.9814917 8.759762 1.387154 2.965904 4.273865 6.882123 2.17142 10.100934-1.990042 3.039987-5.8321776 2.245503-8.8159637 1.755018-4.3326208-.705073-8.8440645-1.87253-12.7168554-3.992858-2.4166623-1.315625-5.3033731-2.710443-5.5613889-5.837287-.1941505-2.355352 1.1495751-3.573901 2.2608311-5.346801.7842657-1.246651 1.2543141-2.56483 1.3028518-4.046505" fill="#17273e"/><path d="m83.2956582 208.93384c-.0740837 2.064126-.6795266 4.107815-1.9363954 6.11574-1.9159585 3.050206-3.0272145 2.687451 1.7626818 5.303373 3.0221053 1.660497 6.8744592 2.802409 11.3884575 3.538137 6.7416199 1.101037 5.1705334.347427 2.1969658-5.959909-1.4408008-3.050206-2.95824-5.809186-4.6034097-8.116-6.527032-9.140399-8.5400658-8.517074-8.8083-.881341" fill="#276ca0"/><path d="m83.2956582 208.93384c-.0740837 2.064126-.6795266 4.107815-1.9363954 6.11574-1.9159585 3.050206-3.0272145 2.687451 1.7626818 5.308482.9554247.523696 2.0028154.998853 3.1268444 1.420364-.1686044-6.47594.6105521-12.916115-1.9951515-18.050884-.585006.88645-.8685679 2.651687-.9579793 5.206298" fill="#2c8dbb"/><path d="m50.7448002 203.788853c.1864866-.355091.3423179-.735728.45983-1.116365 1.1649028-3.635212-.0051092-9.513373 4.1793442-11.253063 2.5724937-1.062719 4.8409886.342318 6.5372505 2.156092 1.5685314 1.683489 3.0118868 3.755278 4.3275117 5.640582 1.8163287 2.610812 3.4691622 5.3187 4.9763829 8.108336 1.3692717 2.534174 3.6607581 5.298264 2.0028153 8.31526-1.617069 2.940358-4.943173 2.644023-7.7404724 2.345133-2.1867473-.235024-4.3300663-.710182-6.4018561-1.435691-3.246911-1.131693-7.270424-2.084563-8.9283667-5.459205-1.1981128-2.439654-.6412075-5.012147.5875606-7.301079" fill="#17273e"/><path d="m54.4183313 205.761013c-2.4038893 4.485897 1.2798603 5.185861 6.0467651 6.856577 1.7575727.607997 3.5841198 1.011626 5.4643138 1.218549 5.3493562.574788 3.969866-.199259 1.6247328-4.526771-1.3845994-2.572494-2.9454669-5.142433-4.726031-7.709817-9.3600961-13.450029-4.8946354-2.39878-8.4097807 4.161462" fill="#276ca0"/><path d="m54.4183313 205.761013c-2.0360252 3.798707.3014442 4.886971 3.957093 6.141286 1.0601638-5.650801.5134769-11.04614-1.320734-16.645848-1.387154.339763-.3959648 6.327772-2.636359 10.504562" fill="#2c8dbb"/><path d="m24.6596635 200.994108c-.0051092-.252906-.0229915-.498149-.0510922-.751056-.3397633-3.392524-2.3579063-7.778791.7842657-10.48157 2.1893019-1.885303 4.8614254-1.208331 7.1222565.025546 2.2352849 1.221104 4.4884521 2.945467 6.5040405 4.498671 1.5532037 1.198112 2.9914499 2.539283 4.3070748 4.000521 2.156092 2.396225 5.0683489 5.22418 4.187008 8.790418-.8430217 3.443616-4.3224024 4.511443-7.4007091 4.968719-2.4856369.370418-5.1347689.324435-7.6357334.097075-2.4907461-.219697-5.2803817.005109-7.0430635-2.179083-1.5378761-1.915959-1.0882645-3.962203-.8787863-6.156614.0894114-.934988.1277305-1.87253.104739-2.812627" fill="#17273e"/><path d="m28.8338985 200.879151c.0178823 1.057609-.0127731 2.161201-.1226214 3.331213-.3831917 4.015849-.827694 3.333768 4.1435797 3.77827 2.3681247.214587 4.6902665.219697 6.6394349-.068975 6.3405454-.950315 4.0337314-3.162608.7280643-6.848913-1.111256-1.236432-2.3553517-2.403889-3.7476149-3.481935-12.5329234-9.651322-7.8120016-2.861165-7.6408426 3.29034" fill="#276ca0"/><path d="m28.8338985 200.879151c.0178823 1.057609-.0127731 2.161201-.1226214 3.331213-.3831917 4.015849-.827694 3.333768 4.1435797 3.77827.4087378.038319.8098118.068974 1.2108858.089411-1.261978-6.320108-2.7538711-10.767687-5.791304-15.251029-1.2466503.528804.4598301 4.401595.5594599 8.052135" fill="#2c8dbb"/><path d="m216.26318 172.499973c-12.688755-6.772275-36.55138-20.329597-36.237162-36.428758.058756-3.011887.932433-5.85006 2.43199-8.458318l.401074-.6923.613106-.513477c2.105-1.734581 4.47057-3.039988 7.094156-3.819144 9.710078-2.879047 19.979616 2.294041 27.791617 7.697044 11.447214 7.919295 22.161254 19.233669 31.32209 29.666702 2.061572 2.352797 5.300819 5.144987 5.919035 8.287159.656535 3.354205-1.458683 6.892342-2.89182 9.802044-6.601116 13.43981-16.765915 25.837339-28.174809 36.518169l.372973 1.261978c3.093634 10.397269 2.028362 19.540223-5.512851 27.778844l-.832804.899224-1.175121.347427c-5.732548 1.703926-11.784422.610552-17.522079-.441948l-1.369272-.258016-.978416-.996298c-9.613003-9.804599-14.270059-20.24785-5.936917-32.770555 3.126845-4.700485 6.044211-9.538919 8.982014-14.36458 4.53188-7.444137 9.176164-15.258693 14.568948-22.110161.36531-.462385.740838-.932433 1.134248-1.405036" fill="#17273e"/><path d="m219.328713 169.122777c-25.234451-13.3785-40.373078-26.560295-33.038788-39.307805 13.452583-11.117669 34.755487 4.202335 60.066577 33.049007 5.862833 6.675199 6.360982 5.162869 2.391116 13.237996-9.020333 18.359992-25.995725 36.301027-46.069861 50.619624 2.557166-1.195558 5.121995-2.393671 7.681716-3.599447 3.272457 5.201188 4.593191 9.98853 1.793337 13.912413 4.314739-3.343986 5.226735-7.094156 2.179084-14.379907l6.3431-5.581826c2.536729 8.534957 2.140764 16.244774-4.542099 23.548408-5.208853 1.54043-11.930035.089411-15.468172-.55946-8.205412-8.371462-12.466504-16.640739-5.418331-27.234712 12.463949-18.738074 25.40561-45.668787 37.113394-46.644649-4.680048-2.076899-9.957875-.860904-13.031073 2.940358" fill="#2b4f91"/><path d="m219.323604 169.122777c-15.580574-8.261614-27.313904-16.454252-32.277514-24.511496l-.109849-15.307232c7.313853-5.48475 16.842553-3.499817 28.008759 3.992858 2.508629 9.745842 4.874199 25.068401 4.89719 35.228091zm-2.16631 46.169491c-4.580418 4.003076-9.436735 7.829884-14.479537 11.429331 2.557166-1.195558 5.121995-2.393671 7.681716-3.599447 3.272457 5.201188 4.593191 9.98853 1.793337 13.912413 4.319848-3.343986 5.226735-7.094156 2.179084-14.379907l2.856055-2.508629c1.560868 5.584381 2.053908 11.184089 1.780564 16.778688-.774047 1.244096-1.716699 2.472864-2.835618 3.696523-5.208853 1.54043-11.930035.089411-15.468172-.55946-8.205412-8.371462-12.466504-16.640739-5.418331-27.237267 9.171055-13.787237 18.607789-32.014389 27.61024-41.065377-.194151 15.036442-2.462646 29.2784-5.699338 43.533132z" fill="#243d75"/><path d="m96.4442429 83.5943881c-1.0192899-1.3948178-2.2046296-2.6670143-3.5432459-3.8089256-1.7652365-1.4944476-3.7092957-2.4933007-5.745321-3.5355821-2.3987801-1.2236588-4.9252907-2.5546114-5.7044472-5.3723477-.7638288-2.7819718.6590897-5.206298 2.5137376-7.1401388 2.1254367-2.2301757 5.0019291-4.2891924 7.5080028-6.0748658 6.5653512-4.6647204 13.9864968-8.7546531 21.1113088-12.5201503l9.096971-4.8154424-3.177937 9.7892707c-3.992857 12.3030084-7.990824 24.6060167-11.988791 36.9090251l-2.429435 7.4875659c-.656536 7.5820869-1.333508 15.1692819-1.995152 22.7513689l.431729 1.979824c2.209739 10.192899 4.416923 20.396017 6.621553 30.59658l3.469162 16.002086-10.698712-12.394975c-3.4947085-4.03884-7.8605393-6.187268-13.0821649-7.101819-2.2122935-.383192-4.4245869-.541578-6.6445442-.82514-2.5341745-.324435-5.1475419-.932433-6.5423597-3.331213-1.5557583-2.674678-.4623847-5.505187 1.0295084-7.886085 1.7754549-2.853501 4.2534279-5.707002 6.4376206-8.25395 2.5137376-2.917366 5.5230698-5.282936 8.8031908-7.234659l-.1481675-.127731c-1.0090715-.85324-2.4345446-1.394817-3.6786404-1.780564-4.1231427-1.277305-10.1392525-1.617069-12.4639488-5.770867-2.6108128-4.636619 1.2543142-9.817371 4.1589073-13.2379959 4.6315104-5.4668683 10.74725-10.1239248 16.6611753-14.303269" fill="#17273e"/><path d="m115.358585 60.1762657c14.300715 13.659507 32.571295 22.2608834 49.091967 32.8165376 11.278609 7.2065587 21.553256 15.2791307 29.625828 26.0876917 9.904228 13.266096 14.980241 28.626975 17.238518 44.899849.766383 5.535843 1.144466 11.135551 1.366717 16.719931.413847 10.162244.158386 20.373026-.883896 30.499505-2.490746 24.261145-9.79438 50.101039-26.894948 68.251552-21.369324 22.697722-54.916481 31.784475-81.584069 12.19316-10.325739-7.594859-18.8862417-17.591053-27.1963925-27.27814-5.4438768-6.360982-10.8622075-12.773057-16.7531413-18.732965-6.8029301-6.894896-14.5306295-14.162765-23.7272304-17.672801-10.3180753-3.941766-16.0123041-2.99145-25.2702157 2.787081-2.58526665 1.617069-6.21026018 4.414368-9.11485331 1.514884-1.22876806-1.223659-1.53787604-2.963349-1.00651688-4.575309 1.46634693-4.409259 3.67097654-8.473646 6.72373712-11.970909 15.74151527-18.035556 47.04827757-13.996715 66.03670387-3.870236 7.1656848 3.824253 14.9700226 8.18753 23.2316357 8.734216 5.8423964.383192 11.7793134-.715291 16.3163024-4.641728 3.732288-3.218811 5.770868-7.712372 6.695637-12.476722 1.338616-6.915333.82003-13.375945-1.397373-20.046036-3.080861-9.263021-8.626922-17.672801-12.203378-26.805537-12.2059332-31.150931-16.1528078-66.652365 3.453834-95.7621615l2.720662-4.0388406z" fill="#17273e"/><path d="m112.520412 63.1472787c-18.7227465 27.778844-14.8244095 61.8777963-3.045096 91.9660093 3.609665 9.209374 9.1685 17.662583 12.274907 27.009906 2.454982 7.347062 3.014442 14.489756 1.540431 22.117825-1.098483 5.68912-3.612221 10.977165-8.047026 14.811637-5.377457 4.651947-12.320891 6.082529-19.2694336 5.625254-8.9717951-.587561-17.0418124-5.012147-24.899797-9.209374-17.2206352-9.186382-46.6548673-13.483239-61.0041194 2.942912-2.43965385 2.7973-4.49356139 6.274126-5.91647992 10.568428-.35253637 1.062718 1.36927169-.053647 4.04139518-1.719254 10.23632774-6.386528 17.25129054-7.594859 28.91564604-3.139617 9.2757939 3.5458 17.0137117 10.351285 25.1884681 18.623117 5.9522445 6.028882 11.4395497 12.52015 16.9472918 18.950107 8.0138159 9.347323 16.551327 19.325635 26.5040928 26.639487 24.984099 18.352328 56.206559 9.492936 76.168293-11.702675 16.428705-17.445441 23.395131-42.549607 25.791356-65.860435 1.014181-9.906783 1.269642-19.95407.871122-29.90939-.219696-5.39023-.590115-10.964392-1.336061-16.313748-2.173975-15.593348-6.971535-30.305355-16.464471-43.009437-7.781346-10.415151-17.667692-18.137741-28.540118-25.0811747-17.02393-10.8775352-35.054377-19.3000889-49.720401-33.3095776" fill="#2b4f91"/><path d="m112.520412 63.1472787c-18.7227465 27.778844-14.8244095 61.8777963-3.045096 91.9660093 3.609665 9.209374 9.1685 17.662583 12.274907 27.009906 2.454982 7.347062 3.014442 14.489756 1.540431 22.117825-1.098483 5.68912-3.612221 10.977165-8.047026 14.811637-5.377457 4.651947-12.320891 6.082529-19.2694336 5.625254-8.9717951-.587561-17.0418124-5.012147-24.899797-9.209374-17.2206352-9.186382-46.6548673-13.483239-61.0041194 2.942912-2.43965385 2.7973-4.49356139 6.274126-5.91647992 10.568428-.11495751.352536-.00510922.464939.28611648.406183 21.87258254-30.785622 62.94562404-13.690163 100.81007344 7.599969 31.434493 9.073979 27.878474-26.488766 24.100204-46.591003-5.72233-30.402429-19.320526-66.442887-20.242741-79.933789-.855794-12.681091 1.734582-25.9471878 11.099787-40.6643039l-.498149-.3908555-.084303-.0715292-.030655-.0281007-.498149-.3985194-.127731-.0970752-.117512-.0996298-.122621-.0970753-.36531-.3014441-.117512-.1047391-.132839-.0996298-.117513-.0970752-.365309-.3065534-.127731-.0996299-.058756-.0536468-.058756-.0510922-.569678-.4828216-.204369-.1686043-.546687-.4777123-.051092-.0408738-.076638-.0638653-.597779-.52625-.030656-.0255461-.086857-.0843021-.569678-.5032585-.025546-.0255461-.028101-.0204369-.086856-.0817476-.572233-.5262499-.022992-.012773-.005109-.0153277-.109848-.091966-.587561-.5441322-.005109-.0102185c-.229915-.2145873-.45983-.4342839-.687191-.6514259zm.687191.6514259c-.229915-.2145873-.45983-.4342839-.687191-.6514259z" fill="#2c8dbb"/><path d="m112.443774 161.819143c3.241802 6.733955 6.966425 13.263542 9.306449 20.304051l.091966.258016c4.547208-14.446328 7.643397-28.897764 9.109744-43.344091z" fill="#243d75"/><path d="m112.443774 161.819143.040874.084302.109848.23247.45983.945206.045983.079193.112403.237579.081747.181377.074084.130285.155832.316772.153276.311663.035765.071529.120066.242688.084303.173713.074083.137949.296335.590116.017883.038319.030655.06642.125176.245242.081747.171159.076639.140504.135394.275898.022992.038319.166049.316772.015328.058756.13284.252907.081747.16094.079193.153277.127731.258015.030655.051093.155832.314217.025546.053647.12773.255461.081748.16094.081747.153277.127731.263125.028101.048538.150722.314217.030655.053647.13284.26057.074084.155831.079193.155832.125176.26057.0281.051092.158386.321881.025546.043429.125176.265679.081748.145613.076638.16605.122622.252906.0281.061311.158386.316772.020437.043428.135394.273344.063866.140503.081747.173714.117512.245243.035765.066419.150722.316772.012773.03321.13284.283562.068974.135394.081748.178823.140504.314217.155831.316772.012773.035765.12773.281007.068975.135394.076638.183932.109849.240134.035764.079193.137949.314217.022992.030655.122621.288671.053647.130286.086857.191596.104739.232469.173713.403629.007664.022991.125176.301444.135395.319327.099629.235024.035765.089411.13284.314218.010218.017882.117512.309108.051092.120067.081748.204369.089411.229915.03321.091966.127731.324435.002555.010219.120066.316771.109849.286117.09452.26057.040874.104739.117512.326991.114958.321881.035764.114957.079193.212033.076638.222251.030656.112403.109848.329545.091966.258016c1.159794-3.688859 2.225067-7.377718 3.195819-11.066577-1.617069-6.307335-3.377196-12.609562-5.132214-18.681873z" fill="#2b4f91"/><path d="m21.389761 221.482091c17.1899799-.395965 28.5580004 8.762317 40.9095464 21.262031 5.9522445 6.028882 11.4395497 12.52015 16.9472918 18.950107 8.0138159 9.347323 16.551327 19.325635 26.5040928 26.639487 24.984099 18.352328 56.206559 9.492936 76.168293-11.702675 16.428705-17.445441 23.395131-42.549607 25.791356-65.860435 1.014181-9.906783 1.269642-19.95407.871122-29.90939-.219696-5.39023-.590115-10.964392-1.336061-16.313748-2.173975-15.593348-6.971535-30.305355-16.464471-43.009437-7.781346-10.415151-17.667692-18.137741-28.540118-25.0811747-4.156352-2.6593504-8.374016-5.1628696-12.589125-7.6433972-5.686564 1.8393202-10.703821 4.6647204-14.142328 8.9615767-9.551692 11.8968252-3.121735 29.2656282 2.896929 41.1854442 5.809186 11.50597 10.726813 23.727231 14.027371 36.196289 4.360722 16.454252 6.269017 34.898546 1.075492 51.378343-2.769199 8.795527-7.413483 16.507899-13.943069 23.029822-4.215109 4.197226-9.142954 7.49523-14.819301 9.375424-19.71649 6.498931-29.9834734-5.666128-43.1908141-18.020229-18.0662116-16.898754-37.0214279-24.736302-60.1662069-19.438038" fill="#17273e"/><path d="m36.8936974 224.039257c9.3754237 3.522809 17.1746522 10.366613 25.40561 18.704865 5.9522445 6.028882 11.4395497 12.52015 16.9472918 18.950107 8.0138159 9.347323 16.551327 19.325635 26.5040928 26.639487 24.984099 18.352328 56.206559 9.492936 76.168293-11.702675 16.428705-17.445441 23.395131-42.549607 25.791356-65.860435 1.014181-9.906783 1.269642-19.95407.871122-29.90939-.219696-5.39023-.590115-10.964392-1.336061-16.313748-2.173975-15.593348-6.971535-30.305355-16.464471-43.009437-7.781346-10.415151-17.667692-18.137741-28.540118-25.0811747-2.521401-1.6119598-5.068349-3.1702727-7.617851-4.6979303-17.652364 4.1384704-27.413534 15.767061-12.492049 45.32136 17.381575 34.41317 31.28888 84.601065.378082 115.432669-4.641729 4.631511-10.108597 8.292269-16.451697 10.38705-21.972212 7.249987-33.6059126-6.079975-47.3522764-18.934779-13.0310726-12.188051-26.3993539-19.466139-41.8113242-19.925969" fill="#f9c624"/><path d="m148.877641 93.4986164c-13.812783 5.311037-19.956624 17.4224496-6.746728 43.5816696 17.381575 34.41317 31.28888 84.601065.378082 115.432669-4.641729 4.631511-10.108597 8.292269-16.451697 10.38705-21.972212 7.249987-33.6059126-6.079975-47.3522764-18.934779-2.076899-1.944059-4.174235-3.765497-6.2741255-5.45665 9.8250353 13.092383 25.4924668 28.85689 48.1084409 27.224493 7.525885-.544132 14.980241-2.845837 21.30035-8.018925 41.308066-33.846046 18.666545-91.158752 2.873938-125.658778-6.596007-14.39779-9.817372-29.362703 4.164016-38.5567496" fill="#faec30"/><path d="m106.105783 288.584068c10.527554 7.610187 22.138262 10.422814 33.547157 9.544028.278452-3.374642 21.004014-12.898233 21.139409-16.277984-17.751995 5.676347-23.093687-7.837547-25.563996-23.384912-2.827955 1.844429-5.88838 3.349095-9.171055 4.434805-7.635733 2.518847-14.027371 2.549502-19.690945.980971-.314217 2.097336-.503258 4.161462-.615661 6.077421-.355091 5.952244-.163495 12.25447.355091 18.625671" fill="#ea8b2f"/><path d="m62.2763159 242.731349.0229915.012773c5.9522445 6.028882 11.4395497 12.52015 16.9472918 18.950107 8.0138159 9.347323 16.551327 19.325635 26.5040928 26.639487 24.984099 18.352328 56.206559 9.492936 76.168293-11.702675 16.428705-17.445441 23.395131-42.549607 25.791356-65.860435 1.014181-9.906783 1.269642-19.95407.871122-29.90939-.219696-5.39023-.590115-10.964392-1.336061-16.313748-2.173975-15.593348-6.971535-30.305355-16.464471-43.009437-4.695375-6.292008-10.162244-11.60049-16.155362-16.346958 6.348209 12.218706 10.300193 25.237005 13.355508 37.248788 5.39023 10.532663 8.049581 21.085762 6.751838 32.86763 2.63125 14.236849 3.441062 29.528753-.12773 42.577707.178822 16.906418-6.703301 30.387103-14.096346 42.585372-5.829623 12.369428-19.070174 22.863772-30.118868 26.090246-26.808092 10.440696-57.1645384-12.231479-66.2308541-26.269069-4.6059643-3.870236-9.1455087-7.778792-13.613524-11.357802-2.787081-2.227621-5.5358428-4.324957-8.269277-6.202596" fill="#ea8b2f"/><path d="m97.4405414 88.0113111c-5.5639436 4.0056307-10.6987124 8.1262188-14.474428 12.5840159-12.2646892 14.474428 6.8438038 8.228403 12.8445859 16.334185-.8328033-9.495491-.4955946-19.2643245 1.6298421-28.9182009zm-1.1827851 33.1665199c-3.9851937 2.056462-7.3496169 4.534435-9.9808666 7.58975-12.4613943 14.489756-7.0583912 11.664355 3.2775664 13.467911 5.4515406.957979 9.6564309 3.039988 12.9672069 5.924144-2.784526-8.379126-5.0811216-17.511861-6.2639067-26.981805zm15.6802047-64.3710977 2.595485-7.9806059c-8.591158 4.5472082-15.6214485 8.6677964-20.6438144 12.239143-15.6904231 11.1559879-6.2613525 8.7904178 1.6988165 15.5345918 1.4356916 1.215995 2.7181065 2.5546113 3.8421355 4.0209583 2.6312494-8.1798656 6.6751994-16.2038999 12.5073774-23.8140872z" fill="#2b4f91"/><path d="m97.4405414 88.0113111c-5.5639436 4.0056307-10.6987124 8.1262188-14.474428 12.5840159-10.9081906 12.877796 3.0093321 9.349877 10.4406966 14.124446-.8685679-.968198-1.7856733-1.877639-2.741098-2.746207-5.6559096-5.111778-7.5948596-5.298264-4.9482822-9.278349 3.1064074-4.6774931 7.3930453-9.950211 11.6592463-14.3926802zm10.1494706-35.4145773c-9.5797923 7.4594652-19.7190448 14.1959753-12.4128563 21.4459624 1.6988165 1.6834889 3.1830458 3.7041865 4.4373599 6.0263282l-.183932.5517961c-1.124029-1.466347-2.4064439-2.8049633-3.8421355-4.0209583-7.960169-6.744174-17.3892396-4.3786039-1.6988165-15.5345918 3.5917835-2.5571659 8.2181844-5.3927845 13.7003804-8.4685366zm-11.0691307 70.5685842c-6.8003755 5.111778-14.7963091 11.792086-8.1083365 18.886242-9.5746834-1.430582-14.1270009.661644-2.1356551-13.283979 2.6312497-3.055315 5.9956729-5.533288 9.9808666-7.58975.0868568.661644.1737136 1.328397.263125 1.987487z" fill="#2c8dbb"/><path d="m99.4127013 212.860278c-13.0438456-8.759763-25.1475943-19.42271-33.892029-31.677181-1.9006308-2.659351-4.5778635-5.819405-4.4731245-9.252802.1021845-3.208592 2.8509463-6.48105 4.5088891-9.142955 7.3496169-11.771649 16.0991608-24.664772 26.1106828-34.318649 6.8514677-6.608779 16.1553623-13.360617 26.2256403-12.101194 2.756426.347427 5.346802 1.269642 7.732809 2.66446l.68719.408738.510922.618216c1.921068 2.355351 4.79756 8.895157 5.344247 11.901934 4.840989 26.716126-22.919973 34.423388-26.48621 38.038163 6.465721 5.926699 8.723997 14.006934 14.433554 20.659142 3.696522 4.307075 7.3956 8.634587 11.260727 12.793494 10.277201 11.051249 7.413482 22.12038-.513477 33.39388l-.817476 1.149575-1.323288.475158c-5.520516 1.954277-11.332256 3.997967-17.284501 3.226474l-1.210886-.155831-.955424-.75872c-8.800637-6.938324-11.3756848-15.807935-10.0166316-26.613941z" fill="#17273e"/><path d="m100.250614 166.867055c16.977947-6.289453 46.698296-31.293989 26.654815-50.037173-8.05469-5.929253-21.601794 6.37631-26.39169 10.016631-9.7075234 7.390491-20.1967576 20.74089-31.1969142 38.283406-4.726031 7.52844-5.448986 6.123404-.1967051 13.483239 11.9530266 16.748032 31.7001723 31.807466 53.9355103 42.799959-2.904594.048537-5.699338-.148168-8.366353-1.256869-2.396225 5.671237-2.746207 9.526146.669308 12.969762-4.82566-2.623586-6.330326-6.187269-4.516552-13.889422l-7.193786-4.519108c-1.111256 8.854283.541578 16.423597 8.363798 22.590429 5.413221.702518 11.832959-1.806111 15.225483-3.014442 6.751838-9.587456 10.581201-19.461029.89156-27.824827-19.392055-16.748032-19.974507-39.545384-44.3965912-40.273448 4.2891924-2.807518 11.7690945-2.051353 16.5181172.671863" fill="#2b4f91"/><path d="m110.400085 119.491787c-4.153798 2.63125-7.82222 5.793859-9.886346 7.354726-9.7075234 7.390491-20.1967576 20.74089-31.1969142 38.283406-4.726031 7.52844-5.448986 6.123404-.1967051 13.483239 11.2837185 15.81049 29.5185344 30.118868 50.2313233 40.914656-15.649549-13.21756-30.6834371-26.404464-39.9030295-38.566968-9.2298109-12.195715-5.6712372-12.264689 2.5852667-25.14504 8.0955634-12.629999 17.2793913-24.84615 28.3664048-36.324019zm9.104635 101.808927c-1.647725-.160941-3.259684-.498149-4.815443-1.144466-1.522548 3.604557-2.222512 6.481049-1.64006 8.982013 1.601741-2.720661 3.21881-5.446431 6.455503-7.837547zm-11.626037-3.923883-4.230436-2.659351c-1.088264 8.667797.472603 16.10938 7.886085 22.209792-3.269902-6.383974-5.533288-12.829259-3.655649-19.550441z" fill="#2c8dbb"/><g fill="#17273e"><path d="m145.605184 145.255043c10.307857-5.635473 25.137376-6.882123 36.638236-5.686565 8.159429.848131 16.581983 3.034878 23.727231 7.132475l2.071789 1.185339-2.368124 4.135916-2.07179-1.18534c-6.565351-3.757833-14.369689-5.74532-21.852146-6.524477-10.489234-1.088264-24.439967-.017882-33.856264 5.12966l-2.099891 1.141911-2.283822-4.184453z"/><path d="m156.773945 180.227672c10.067723-5.691674 24.496168-7.285751 35.85908-6.432511 6.074866.454721 12.343882 1.64517 18.145404 3.824253v5.132214c-5.827068-2.449872-12.310672-3.734842-18.508159-4.202335-10.369168-.776602-23.946927.618216-33.151192 5.827068l-2.076899 1.172567-2.340024-4.148689z"/><path d="m156.641105 217.389604c14.574058-6.951098 37.557896-5.740212 51.873939 3.172827 1.159793.72551.337208 1.131693 1.502111 1.775455l-.23247 1.51233-1.392263 1.277306c-.413847.378082-.413847.809811-.883895.48793-12.704083-8.956467-35.210209-10.412596-48.813514-3.923883l-2.153538 1.026954-.551796-3.750169z"/><path d="m147.986082 244.575778c10.836661 11.258172 33.613576 17.887389 48.696002 13.025963l1.951723-1.601741-.030656 3.198373-1.716698 1.760128c-.774048.247797-.301445 1.655388-1.101038 1.849538-16.69694 4.095042-39.690997-2.922475-51.23784-14.924039l-1.652834-1.716699 3.428289-3.308222z"/><path d="m126.031752 262.667536c3.15239 6.991971 8.900266 13.051509 15.228038 17.299828 6.808039 4.56509 15.373651 7.714926 23.704239 7.16313 3.101298-.204369 5.173088-.858349 8.041917-1.808665l-.201815 3.821699-1.591523 1.788228c-11.184088 2.942912-23.244408-.72551-32.612168-7.004745-7.071165-4.741358-13.388718-11.482978-16.919191-19.294979l-.978417-2.176529 4.34284-1.964496z"/><path d="m89.5186915 254.349721c-1.6477243 1.918513-2.5954851 4.199781-2.9454669 6.588343-.710182 4.838434.4419478 8.195193 2.7181065 12.205933l-4.1716804.740837-1.3922632-1.494447c-3.4614984-6.797821-2.8509462-15.281686 2.1688651-21.144519l1.5557583-1.811219 3.6198843 3.106407z"/><path d="m75.9511505 238.891768c-2.5086283 2.92503-3.3874146 6.7033-3.0144414 10.433032.3269903 3.165164 1.3743809 5.477087 2.7129973 8.205412l-3.9417653.745947-1.5480945-1.338617c-3.4563892-6.805484-2.8458371-15.291903 2.1739742-21.152182l1.4765654-1.01418 3.1472812 2.4652z"/><path d="m205.058654 106.42495 8.473646 16.962619-25.374954 4.506335-29.618165-10.874981-.682081-.546687c-11.505969-9.219592-20.860956-20.1584379-27.850373-33.1895105-1.762682-3.2750118-4.386268-8.9207029-4.782232-12.5329234l-2.327251-21.5226007 12.111412 17.9410356c8.74188 12.949325 22.981284 24.3377825 36.763412 31.518795 7.840103 4.082269 18.497941 9.671759 27.571921 8.711225.58756-.063865 1.167457-.145613 1.752463-.250352z"/><path d="m244.887823 105.048077c.022727 3.658317-.762563 6.875301-2.657019 10.849372-.633543 1.323289-1.410145 2.695115-2.345133 3.793598-1.233877 1.440801-2.863719 2.4652-4.743913 2.104999-3.364423-.630989-4.148689-4.646838-4.358167-7.720035-.121158-1.735223-.526239-3.584346-1.330685-5.142656-5.164525.53258-10.505734.802934-15.146558 1.415478 2.718106 3.246911 5.38512 4.751577 8.044471 6.028883 7.36239 3.535582 13.291643 7.42881 16.277983 15.608675 3.545801 9.725406-.781711 20.219749-15.110526 22.850999-12.326 2.263386-12.103749 7.099265-25.944633 1.811219-13.812784-5.280381-27.824827-13.549658-39.984777-21.926229-7.868203-5.418331-15.532037-11.30671-22.656848-17.68302-11.618373-10.397268-28.093061-26.4146814-30.70132-42.4193216-1.162348-7.1069289.676972-14.139774 5.85517-19.2694336 1.491893-1.4816746 3.160054-2.7027788 4.943173-3.6658673l.906887-2.7972994c2.723215-8.4276629 5.993118-21.5123824 10.959282-31.5239043 11.970909-24.12574975 31.084512-20.66169674 41.024504-1.8648663 7.985715 1.8572025 14.252177 3.4947083 22.715605 7.5718681l.431729-.4342839c2.710443-2.741098 6.330327-5.0938951 10.35384-4.115479 13.922632 2.8611648 15.276576 36.7276477 14.160211 46.0366515l.388301.2426881c4.669829 1.4765653 8.70356 3.5917835 11.337365 6.5960065l.42662.49304.163495.0996298c6.958761-2.6542412 14.916376-2.983786 20.434336 2.6593505 7.584713 7.7497975 5.744283 24.262097-3.443393 30.3999379z"/></g><path d="m197.20067 98.1199083c-12.893124-2.7232157-12.762839-23.5867267 2.830509-23.157552 9.658986.263125 21.474063 8.6320318 32.486993 5.494969-3.144727-.4215108-6.299672-.8430217-9.464835-1.2645326 8.358688-5.6737918 17.425004-6.6087796 22.296648-1.6272874 6.228142 6.3635369 3.992857 22.1995727-5.180752 25.1808047-5.469423 1.7729-13.973724 2.378343-19.670507 2.552056 3.200928-2.306814 11.697565-5.9854542 17.861842-5.7580938-5.300818-2.1075543-10.236328-1.2773056-14.837183.5364688-23.208644 9.1685-25.203795 13.789792-52.295449-.3346545-14.599604-7.6025234-28.828789-19.3741726-37.279444-31.9070959 1.829102-1.2057766 4.301966-2.7334342 6.933216-.6258798-3.870237-11.0538034-26.09791-.309108-17.820969 14.8218551.556905-3.1191804.487931-6.8693499 4.422032-6.6241072 12.936552 29.1123513 35.06715 45.3290243 56.541213 56.2959703 14.934258 7.630624 18.403421 11.886607 35.202545 9.613003 2.919921-.39341 5.351911-.947761 7.186122-1.599187 9.148063-3.254575 4.161462-10.892863-.513477-16.832334 12.083312 7.878421 14.921485 24.529378-3.137063 27.850373-13.031072 2.391116-11.37313 6.726292-23.696575 2.013034-18.86325-7.206559-43.686409-23.004276-61.346437-38.814765-7.786456-6.963871-26.782546-24.1053132-29.372922-39.9822228-2.373234-14.5357387 10.576091-23.7374488 23.849852-20.0971276 8.540066 2.3425786 15.999531 9.9859758 20.832856 20.1354467-5.206298-16.7378136-13.066837-28.8338984-33.123091-23.8140871 3.670976-11.3424745 8.933476-35.8922897 19.118711-42.58537149 12.716856-8.36379762 27.020125 10.48923429 35.136125 29.33204769-.860904-5.2676086-1.867421-11.5570618-4.884417-16.4031596 12.257025 2.3195872 16.367395 3.3158856 24.537042 10.5658726-.19926-3.1907096-.309108-3.9085553-.500704-4.8844169 11.158543-11.2147439 19.818675 12.3898651 17.447996 32.492102-24.930452-8.4787551-42.059122-6.8770138-52.681196 3.1523904 18.83515-7.6612795 34.77337-6.1157396 48.573381 2.2071842-3.857463-.7101819-7.72259-.9962984-11.580053-.768938 8.611594 1.3667171 10.918409 1.9006309 18.390647 4.3224024 4.853761 1.5736406 8.519629 3.806371 10.701267 6.5398051-5.809186 3.5662375-23.047704-8.9896774-34.581774-1.9593869-12.635108 7.6995987-6.473385 26.9077215 7.617851 25.9344146" fill="#2b4f91"/><path d="m131.549712 49.2220921c-3.346541-.4291747-7.198895-.1583859-11.643918.9528701 3.670976-11.3424745 8.933476-35.8922897 19.118711-42.58537149 2.000261-1.31817947 4.036286-1.95683231 6.079975-2.03347065-6.698191 10.36916754-13.209895 28.15437184-13.47302 43.60466144z" fill="#2c8dbb"/><path d="m225.411243 77.7264458c1.565977-.8838956 3.137063-1.5991867 4.685157-2.143319.337209.4087379.646317.8276941.950316 1.2594234-1.399927 1.1061468-3.331213 1.2670873-5.635473.8838956zm-23.936708-13.3580629c4.074605.7817111 6.785047 1.5480945 11.988791 3.2366926 4.853761 1.5736406 8.519629 3.806371 10.701267 6.5398051-2.53162 1.5532038-7.216777.0536469-12.6581-1.5583129-1.103592-2.7385434-4.27131-5.4796414-10.031958-8.2181848z" fill="#243d75"/><path d="m199.23925 60.3295424c2.541838 1.0269537 5.009593 2.2736041 7.413482 3.7220687-1.530212-.2810072-3.065534-.5007038-4.593191-.6386528-1.144466-1.0703822-1.97216-2.0743444-2.820291-3.0834159" fill="#243d75"/><path d="m187.858456 93.8077243c-.424065-1.7907825-.843022-3.5739013-1.261978-5.3621292-10.203118.8634586-18.495386-3.5253637-26.974141-7.4134822 4.153798 3.3107763 8.31015 6.6266619 12.458839 9.9348836 4.833325 2.3170325 9.674314 4.6289558 14.515302 6.9408791.418956-1.3667171.837913-2.7334342 1.261978-4.1001513" fill="#16253b"/><path d="m197.20067 98.1199083c-12.893124-2.7232157-12.762839-23.5867267 2.830509-23.157552 5.254836.1405036 11.138106 2.6823419 17.184871 4.462906 4.56509 1.3462802 7.242323 1.1342475 9.314113.4904854-1.238987-.1813774-2.421772-.413847-3.476826-.722955 8.358688-5.6737918 17.425004-6.6087796 22.296648-1.6272874 6.228142 6.3635369 3.992857 22.1995727-5.180752 25.1808047-5.469423 1.7729-13.973724 2.378343-19.670507 2.552056 5.326364-4.268755 8.683124-5.6635731 11.6337-7.0047441-2.99145-.03321-5.85517.6999635-8.609041 1.7831191-23.208644 9.1685-25.203795 13.789792-52.295449-.3346545-14.599604-7.6025234-28.828789-19.3741726-37.279444-31.9070959 1.829102-1.2057766 4.301966-2.7334342 6.933216-.6258798-3.870237-11.0538034-26.09791-.309108-17.820969 14.8218551.556905-3.1191804.487931-6.8693499 4.422032-6.6241072 12.936552 29.1123513 35.06715 45.3290243 56.541213 56.2959703 14.934258 7.630624 18.403421 11.886607 35.202545 9.613003 2.919921-.39341 5.351911-.947761 7.186122-1.599187 9.148063-3.254575 4.161462-10.892863-.513477-16.832334 12.083312 7.878421 14.921485 24.529378-3.137063 27.850373-13.031072 2.391116-11.37313 6.726292-23.696575 2.013034-18.86325-7.206559-43.686409-23.004276-61.346437-38.814765-7.786456-6.963871-26.782546-24.1053132-29.372922-39.9822228-2.373234-14.5357387 10.576091-23.7374488 23.849852-20.0971276 8.540066 2.3425786 15.999531 9.9859758 20.832856 20.1354467-.168605-.5313591-.3321-1.0550544-.49815-1.5761952 8.869611 11.7358847 19.982171 18.3957565 33.112873 20.482874 2.513738 3.3516501 6.524477 5.574162 11.557062 5.2241802" fill="#f9c624"/><path d="m234.27319 132.428339c3.38486 7.630624.763829 16.048069-11.511079 18.306345-8.683124 1.591523-10.84688 4.046504-14.962359 4.118034-.089411-8.596268 16.719932-7.313853 21.98754-11.334811 3.106408-2.36557 4.44247-6.519368 4.485898-11.089568" fill="#ea8b2f"/><path d="m239.024767 74.4820893c2.472864.3602002 4.644284 1.3692717 6.325218 3.083416 6.228142 6.3635369 3.992857 22.1995727-5.180752 25.1808047l-.544132.168604c7.158021-7.8656485 6.125958-21.5072732-.600334-28.4328247" fill="#ea8b2f"/><path d="m216.115012 103.111619c-16.620301 6.958761-20.99635 9.084198-44.887076-3.3695325-9.280903-4.8307701-18.405975-11.3501383-26.005944-18.6793183 26.028936 20.8558468 49.633545 28.0496328 70.89302 22.0488508" fill="#faec30"/><path d="m192.92425 96.2908066c-8.335696-5.8475054-6.514259-21.7039782 7.106929-21.3284503 1.039727.0255461 2.099891.1481674 3.183046.3397633-9.316668 2.661905-12.880351 9.5542465-10.289975 20.988687" fill="#faec30"/><path d="m196.694857 151.810175c-18.526042-7.576977-42.038685-22.720713-58.975758-37.877222-7.786456-6.963871-26.782546-24.1053132-29.372922-39.9822228-2.235285-13.7029354 9.142954-22.6619575 21.571139-20.5978315-10.065169 2.4166624-14.609823 8.7853085-15.082426 16.354622-1.780564 28.2054641 52.602003 67.7610663 81.859967 82.1026543" fill="#faec30"/><path d="m233.105733 108.652571c.559459 1.468902.91966 3.142172 1.042281 4.948282.454721 6.649654 3.001668 4.621292 4.994265.42662 1.366717-2.863719 2.051353-5.167978 2.181638-7.737918-.705072.403629-1.456128.743392-2.260831 1.001408-1.821438.59267-3.839581 1.024399-5.957353 1.361608" fill="#fff"/><path d="m236.130392 117.8645c.922215-.252907 2.036026-1.788228 3.011887-3.837027 1.366717-2.863719 2.051353-5.167978 2.181638-7.737918-.669308.375528-1.369271.694855-2.097336.945207-.038319 3.458943-.766383 6.96387-3.096189 10.629738" fill="#2c8dbb"/><path d="m200.455245 84.1283019c3.594338-1.1546844 6.353318 3.6786403 1.627287 5.7913039-.666753 1.7856734.403629 3.7348418 3.303113 4.4194777-9.181274 1.8980762-9.546583-8.5426204-4.9304-10.2107816" fill="#17273e"/><path d="m241.004591 82.641518c-2.963349-.9554246-5.244617 3.0348784-1.338616 4.7822325.551796 1.4689016-.326991 3.0783067-2.73088 3.6428758 7.582087 1.5634222 7.886085-7.0481727 4.069496-8.4251083" fill="#17273e"/><path d="m145.1709 96.4568563c9.707523 1.6579428 18.232261 4.4322507 25.811793 7.8656487 2.076899 1.072936 4.248319 2.171419 6.493822 3.211146 7.454356 4.008185 13.927742 8.601377 19.68839 13.248215-1.949168-3.065534-4.066941-5.847506-6.677754-8.655024 3.1575.661645 6.322663.934988 9.426516.607998 7.58975-.871123 11.873834.585006 17.519525 7.648506 4.291747 4.363277 14.188311 13.05151 7.576977 15.401752-1.984933.707628-4.261092 1.113811-6.340545 1.392264-5.254836.710181-10.502008 1.034617-15.613785-.636099-2.490746-.812366-4.871644-2.018143-7.175903-3.239247-3.328659-1.760127-6.601116-3.596893-9.957875-5.311037-16.173245-8.259059-29.980919-18.283354-40.751161-31.5341227" fill="#df542b"/><path d="m160.884315 103.918876c10.330848 2.023252 20.127783 7.16313 29.582399 14.474428 3.203483 2.480528 2.117773 5.377457-1.795892 2.294041-9.122517-7.198895-18.388092-13.779574-27.786507-16.768469" fill="#ea8b2f"/><path d="m198.649134 109.963087c.268235-.079193.554351-.145613.827695-.222252 1.136802-.316771 2.16631-.728064 3.254574-1.164902 2.094782-.850686 4.207445-.375528 6.3431-.235025l3.292895.217142-.413848 3.530473c-.301444 2.53162-1.466346 5.254836-2.674678 7.433919-1.747354 3.170273-5.781085 9.260467-9.858245 7.479902-2.963349-1.277305-2.940358-5.111777-2.569939-7.965278.240134-1.841875.053647-3.162609-.413847-4.935509l-.835358-3.272457z" fill="#17273e"/><path d="m199.594341 113.368384c.528804 2.043689.774047 3.732287.472603 6.062092-1.405036 10.798343 7.901413-1.353944 8.619259-7.525885-1.974715-.13284-3.591784-.490485-4.86909.025546-1.238986.503259-2.1331.863459-3.433397 1.231323-.260571.068975-.523696.130285-.789375.206924" fill="#fff"/><path d="m203.257653 122.373389c2.311924-2.352797 5.050467-7.23466 5.42855-10.468798-1.164903-.079193-2.207185-.235024-3.126845-.245242.36531 3.527918-.155831 7.058391-2.301705 10.71404" fill="#2c8dbb"/><path d="m133.046715 54.1448283c5.936916-7.763464 8.123664-18.5720247 10.003858-29.6309373-1.006517-1.2900787-4.654502-2.1995204-3.305667-3.8702362 5.528179-.1124029 9.196601 2.7717533 12.698973 6.481049 5.857724 6.2025964 10.645065 17.5680624 13.874094 26.2179765 1.714144 4.5983004 1.003962 3.4129608-9.69475 1.9900422-7.582087-1.0065168-15.572911-1.1878942-23.576508-1.1878942" fill="#17273e"/><path d="m138.973413 50.9004718c6.04932.0894114 12.103749.3806371 18.081539 1.1751212 1.867421.2477973 3.719514.5415777 5.579271.8276941-2.914811-7.6612795-7.267869-17.9001618-12.581461-23.5177522-1.251759-1.3309525-2.513737-2.5495022-3.903446-3.4998176-1.420364 8.2973777-3.177936 17.3841304-7.175903 25.0147545" fill="#fff"/><path d="m149.623588 34.6071605c3.093634 0 5.592044 3.4487254 5.592044 7.7047079s-2.49841 7.7072625-5.592044 7.7072625c-3.09108 0-5.586935-3.45128-5.586935-7.7072625s2.495855-7.7047079 5.586935-7.7047079" fill="#17273e"/><path d="m202.217927 33.5469968c-6.332882 5.6584642-10.167354 11.7077839-12.384756 20.3321519-.569679 3.430843 2.127991 4.8997446 5.208852 3.9979668 2.838173.9605338 5.267609 2.1382097 8.218185 1.9874876 2.472864-.0332099 4.991711-1.2696418 5.180752-3.8089255-.636098-5.4770868-2.613368-14.2342946-1.788228-20.0051617 1.430582-2.0794536-1.075491-6.1515041-4.434805-2.5035191" fill="#17273e"/><path d="m205.119965 55.9458293c-.735728-5.9318076-2.33236-12.7372923-1.887858-18.7610659-4.976383 5.0760128-8.644805 10.0600596-10.190344 17.3713573l-.030656.2656796c.324436.0715291.876232-.0306554 1.111256-.0970753l.996299-.2988895.983525.3397633c2.191857.7408373 4.695376 1.8878578 7.0635 1.8112195.378083-.0127731 1.683489-.1890413 1.954278-.630989" fill="#fff"/><path d="m207.45488 60.8276916c1.088264-.6412075 2.189302-1.2798603 3.277566-1.9236224-8.90282-3.9851937-18.699755-5.2752724-28.808352-5.6456911 1.915958.8634587 3.839581 1.7294719 5.768312 2.5954852 6.580679 1.6604973 13.171577 3.3158855 19.762474 4.9738283" fill="#17273e"/><path d="m197.795894 42.1662556c2.43199 0 4.406705 2.6133674 4.406705 5.8347323s-1.974715 5.8347324-4.406705 5.8347324c-2.434544 0-4.406704-2.6133675-4.406704-5.8347324s1.97216-5.8347323 4.406704-5.8347323" fill="#17273e"/><path d="m98.0332112 311.343101c1.9312862-5.403003 2.5852668-11.316929 2.7691988-17.003494.16605-4.968719-.017882-9.932329-.150722-14.895938-.137949-4.664721-.255461-9.449508.181377-14.098901 2.145874-22.761587 25.939524-28.455816 32.609614-19.655179 8.404672 9.408633 7.339399 21.440853 2.881602 35.928054-.78682 2.585266-1.456129 5.216516-2.030916 7.852875-.891559 4.059278-1.583859 8.192639-2.087118 12.315782-.362754 2.983786-.684635 6.161722-.676972 9.176164.010219 3.803816.457276 7.25765 1.098483 10.982274.500704 2.914811 1.070382 5.901152.344873 8.831291-.595225 2.43199-1.941505 4.381159-3.755279 6.074866-5.295709 4.981492-14.579167 8.964131-21.62734 10.371722-4.13847.822585-8.4634271 1.042282-12.612116.242688-1.3488348-.263125-2.6286951-.761274-3.7833794-1.486783-5.8960431-3.678641-7.2346594-11.712894-6.0110006-18.055994 1.4356916-7.387936 6.1157396-13.450028 12.8496952-16.579427" fill="#17273e"/><path d="m108.770243 249.378447c4.01074-6.629216 10.936291-9.227256 15.833481-8.50941 17.562953 2.567384 12.009228 25.839894 7.796674 39.542829-3.310776 10.757469-4.999375 24.342892-4.976383 30.558261.030655 13.526668 4.608519 17.603827-1.011626 22.886764-4.879308 4.580418-18.827486 11.158542-30.6604458 9.574683-9.7535062-2.472864-10.0523957-23.244409 5.4898598-28.979511 4.322403-10.489235 4.158907-22.904646 3.829363-34.106617-.229916-7.576977-.822585-23.487097 3.699077-30.966999" fill="#2b4f91"/><path d="m108.770243 249.378447c3.568792-5.898597 7.497784-6.018664 13.125593-7.071164-18.477504 9.20171-8.915594 46.887337-13.912414 70.872583 3.98264-.074084 6.667536.296335 10.001304 1.522549-14.732444-1.81122-21.2492574 10.517335-22.6619575 28.603983-9.3268861-2.960795-9.3907513-23.203535 5.9190345-28.854335 4.322403-10.489235 4.158907-22.904646 3.829363-34.106617-.229916-7.576977-.817476-23.487097 3.699077-30.966999" fill="#2c8dbb"/><path d="m200.05928 335.89547c-1.729472-.288671-3.474272-.577342-5.219071-.866013.911996-5.625254-1.057609-10.897972-7.382827-15.654658 8.253949 3.481935 11.309265 9.56191 12.601898 16.520671" fill="#17273e"/><path d="m210.385019 333.833899c-1.734581-.291226-3.476826-.579897-5.211407-.871122.91966-5.6227-1.065273-10.903082-7.390491-15.652104 8.259059 3.47938 11.30671 9.564465 12.601898 16.523226" fill="#17273e"/><path d="m103.742768 344.269487c1.701371-.370419 3.405297-.743392 5.104113-1.113811-1.660497-7.216777-.395965-13.983943 5.305928-20.086909-7.796674 4.468015-10.037068 12.269798-10.410041 21.20072" fill="#17273e"/><path d="m87.9808155 343.186331c1.7013711-.378082 3.4078515-.745946 5.0990043-1.118919-1.663052-7.216778-.388301-13.981388 5.3135916-20.079246-7.8043377 4.460352-10.0396227 12.267244-10.4125959 21.198165" fill="#17273e"/></svg>