<svg height="251" preserveAspectRatio="xMidYMid" viewBox="0 0 256 251" width="256" xmlns="http://www.w3.org/2000/svg"><path d="m203.939787 250.980392h-197.22399469c-3.70751586 0-6.71579231-2.947807-6.71579231-6.58411v-237.81217212c0-3.63481946 3.00676261-6.58410988 6.71579231-6.58410988h242.56841469c3.707515 0 6.715793 2.94780649 6.715793 6.58410988v103.36645412c-.972696-2.949975-12.365348-36.7002971-29.969881-53.8408309-18.418618-17.9331612-51.815724-32.6068981-46.849397-20.8126625 4.966326 11.7942355 4.966324 42.5165825 4.966324 42.5165825l-50.005127 19.072897-7.500354 27.7413739-61.1987947 16.135128s4.3611372 31.214733 21.9518083 36.670211c11.2831322 3.499291 85.2409834 11.658016 85.2409834 11.658016l-14.040197 61.889113z" fill="#a873d1"/></svg>