<svg height="256" preserveAspectRatio="xMidYMid" viewBox="0 0 256 256" width="256" xmlns="http://www.w3.org/2000/svg"><path d="m0 0h256v256h-256z" fill="#222"/><path d="m114.4064 35.2768-22.5792 64.54272-68.494336.18944 55.510016 41.02144-19.94752 66.23232 56.07424-39.70048 57.58464 42.14784-21.07904-68.86912 54.94784-41.02144-68.30592.18944z" fill="#e08524"/><path d="m117.22752 34.335744 22.76864 10.725888 19.004928 51.93728h-18.817024l-22.956544-62.65856" fill="#466770"/><path d="m156.3392 142.23872 22.486528 11.04384 54.42048-39.517696-22.486528-11.975168z" fill="#304a51"/><path d="m156.30848 142.19776 22.517248 11.035648 21.28896 68.8384-23.284736-11.842048-20.521472-68.02944" fill="#466770"/><path d="m62.09536 209.61792 52.87424-37.821952 18.534912 13.736448-49.958912 34.999808-21.451264-10.913792" fill="#304a51"/></svg>