<svg height="257" preserveAspectRatio="xMidYMid" viewBox="0 0 256 257" width="256" xmlns="http://www.w3.org/2000/svg"><path d="m140.580355 111.074219c10.685-.296 20.878-.041 31.549-.738 1.942-.127 3.853-.695 5.783-1.029 3.954-.683 6.451-3.123 7.405-6.846 1.014-3.9540004 2.079-8.0090004 2.226-12.0520004.582-16.039.955-32.09 1.117-48.139.082-8.144-2.516-15.367-8.779-21.059-2.893-2.629-5.597-5.528-8.027-8.591-3.885-4.89599997-3.228-7.24999997 2.789-8.49999997 6.609-1.372 13.365-2.534 20.09-2.747 15.322-.485 30.665-.489 45.995-.333 3.835.039 7.805 1.008 11.446 2.3 4.426 1.571 4.912 4.823 1.974 8.51499997-1.726 2.168-3.936 3.59-6.183 5.31-4.093 3.132-8.511 5.895-12.279 9.369-1.777 1.639-3.039 4.482-3.355 6.931-.75 5.818-.794 12.318-.9 18.193-.236 13.023-.243 26.049-.387 39.073-.086 7.848-.172 15.6970004-.402 23.5410004-.328 11.205-8.716 19.467-19.912 19.565-15.169.134-30.342.294-45.51.148-13.193-.127-26.395-1.189-39.57-.876-13.516.321-27.0040005 1.808-40.5030005 2.791-.533.039-1.066.121-1.59.229-10.411 2.142-12.51 4.474-13.799 15.226-2.151 17.955-1.574 35.974-1.293 53.986.067 4.281.331 8.561.294 12.84-.07 8.272 2.651 15.312 8.581 21.164 2.404 2.373 4.65 4.949 6.668 7.657 3.276 4.397 2.526 6.576-2.905 7.85-4.147.973-8.442 1.863-12.669 1.854-17.649-.034-35.304-.241-52.942-.82-3.959-.129-8.07599996-1.541-11.73599996-3.206-4.537-2.065-4.981-6.06-1.24-9.431 2.482-2.237 5.537-3.842 8.35199996-5.705 2.523-1.668 5.229-3.102 7.569-4.993 4.494-3.632 7.176-8.386 7.467-14.254.574-11.574 1.295-23.148 1.532-34.73.342-16.768.289-33.543.461-50.315.024-2.305.085-4.677.623-6.898 2.214-9.142 9.892-15.113 19.533-15.148 19.273-.07 38.546-.021 57.8200005-.021 19.447-.257 23.305.205 34.707-.111zm49.6758 57.4562c14.311-1.149 25.982 2.419 34.055 14.35 3.812 5.633 4.548 12.037 4.788 18.803.251 7.095.963 14.196 1.894 21.238.862 6.518 4.808 11.522 10.692 14.798 2.644 1.472 5.315 2.928 7.797 4.646 2.417 1.673 5.885 3.083 5.385 6.64-.501 3.561-4.094 4.133-7.004 4.82-3.456.815-6.97 1.634-10.497 1.862-17.973 1.162-35.955 1.66-53.867-.86-2.615-.368-5.249-1.072-7.692-2.068-3.459-1.41-4.333-3.253-3.073-6.796.748-2.103 2.131-4.085 3.602-5.802 2.43-2.836 5.153-5.422 7.769-8.097 3.942-4.03 5.701-8.832 5.719-14.487.049-15.5.276-31 .431-46.499.007-.679.001-1.358.001-2.548zm-122.7382005-92.0334004c-14.612-.342-25.74-6.304-34.052-17.623-4.302-5.858-6.425-12.56-7.691-19.711-.826-4.662-2.15-9.46-4.396-13.572-1.685-3.087-5.027-5.391-7.934-7.655-3.221-2.509-6.95499996-4.362-10.15799996-6.891-3.693-2.91499997-3.313-5.39499997 1.264-6.71199997 5.103-1.468 10.40999996-2.629 15.69299996-2.994 17.609-1.217 35.252-2.142 52.882-.291 2.988.313 6.013.908 8.851 1.872 4.302 1.463 5.28 4.329 3.094 8.38799997-.743 1.379-1.839 2.622-2.97 3.725-1.656 1.616-3.531 3.005-5.239 4.572-5.019 4.602-8.538 9.806-8.523 17.102.025 12.12-.413 24.241-.661 36.362-.019.887-.081 1.772-.16 3.428z" fill="#373737"/></svg>