<svg height="205" preserveAspectRatio="xMidYMid" viewBox="0 0 512 205" width="512" xmlns="http://www.w3.org/2000/svg"><path d="m0 0v14.011904h99.6600013v-14.011904zm113.780004 0v14.011904h142.019993c-.000005 0-14.506557-14.011904-33.719997-14.011904zm169.879997 0v14.011904h85.92l-5.100001-14.011904zm147.52 0-5.100001 14.011904h85.139999v-14.011904zm-431.180001 27.2497715v14.0118999h99.6600013v-14.0118999zm113.780004.0198477v13.9920522h158.499999c0 .0000062-1.851203-10.7841618-5.080003-13.9920522zm169.879997 0v13.9920522h95.340002l-4.720006-13.9920522zm137.319998 0-4.72 13.9920522h94.96v-13.9920522zm-392.340001 27.2299238v14.031744h43.1599994v-14.031744zm113.780006 0v14.031744h43.159992v-14.031744zm85.139999 0v14.031744h43.159997c.000005 0 2.739999-7.4101862 2.739999-14.031744zm84.739998 0v14.031744h76.520003l-5.100001-14.031744zm99.28 0-5.12 14.031744h76.899999v-14.031744zm-382.940003 27.2696218v14.0118938h43.1599994v-14.0118938zm113.780006 0v14.0118938h110.24c.000005-.0000052 9.221755-7.1896474 12.159995-14.0118938zm169.879997 0v14.0118938h43.159998v-7.7998234l2.739998 7.7998234h79.060004l2.940002-7.7998234v7.7998234h43.159997v-14.0118938h-81.020001l-4.300002 11.8684314-4.319994-11.8684314zm-283.660003 27.2497712v14.011894h43.1599994v-14.011894zm113.780006 0v14.011894h122.399995c-2.938875-6.800015-12.159995-14.011894-12.159995-14.011894zm169.879997 0v14.011894h43.159998v-14.011894zm50.999998 0 5.220004 14.011894h59.28l4.96-14.011894zm76.900004 0v14.011894h43.159997v-14.011894zm-411.560005 27.249772v14.011894h43.1599994v-14.011894zm113.780006 0v14.011894h43.159992v-14.011894zm85.139999 0v14.011894h45.899996c.00001-6.612649-2.739999-14.011894-2.739999-14.011894zm84.739998 0v14.011894h43.159998v-14.011894zm60.799995 0 5.060004 14.011894h39.739996l5.100001-14.011894zm67.100007 0v14.011894h43.159997v-14.011894zm-439.42000684 27.249771v14.031744h99.66000084v-14.031744zm113.00000784 0v14.031744h153.419996c3.2288-3.212969 5.080003-14.031744 5.080003-14.031744zm170.659993 0v14.031744h71.020002v-14.031744zm98.48 0 5.2 14.031744h20.220002l4.88-14.031744zm57.280006 0v14.031744h71.799997v-14.031744zm-439.42000684 27.269617v14.011904h99.66000084v-14.011904zm113.00000784 0v13.992059h108.299996c19.213435-.00001 33.719997-13.992059 33.719997-13.992059zm170.659993 0v14.011904h71.020002v-14.011904zm108.340004 0 5.000003 13.972204.859996.019855 5.080003-13.992059zm47.420002 0v14.011904h71.799997v-14.011904z" fill="#1f70c1"/></svg>