<svg height="136" preserveAspectRatio="xMidYMid" viewBox="0 0 512 136" width="512" xmlns="http://www.w3.org/2000/svg"><path d="m60.936.04h43.33v135.374h-43.33z" fill="#3cf"/><path d="m.06.04h43.27v135.374h-43.27z" fill="#3cf"/><path d="m203.121.04h43.331v135.374h-43.331z" fill="#3cf"/><path d="m319.577.04h43.331v135.374h-43.331z" fill="#3cf"/><path d="m437.365.04h43.331v135.374h-43.331z" fill="#3cf"/><g fill="#f40"><path d="m104.132.04h55.658v43.295h-55.658z"/><path d="m104.132 55.522h38.05v43.331h-38.05z"/><path d="m171.975.04h31.822v43.295h-31.822z"/><path d="m245.911.04h31.822v43.295h-31.822z"/><path d="m288.431.04h31.822v43.295h-31.822z"/><path d="m362.368.04h31.822v43.295h-31.822z"/><path d="m406.241.04h31.822v43.295h-31.822z"/><path d="m480.178.04h31.822v43.295h-31.822z"/></g><path d="m203.121.04h43.331v43.295h-43.331z"/><path d="m319.577.04h43.331v43.295h-43.331z"/><path d="m437.387.04h43.331v43.295h-43.331z"/><path d="m60.936.04h43.33v43.295h-43.33z"/><path d="m60.936 55.522h43.33v43.334h-43.33z"/></svg>