<svg height="256" preserveAspectRatio="xMidYMid" viewBox="0 0 256 256" width="256" xmlns="http://www.w3.org/2000/svg"><path d="m256 128c0 70.6925-57.3075 128-128 128s-128-57.3075-128-128 57.3075-128 128-128 128 57.3075 128 128" fill="#7d29e4"/><path d="m169.888 125.664h-50.0915v-62.4245c0-2.8805-1.413-5.216-5.216-5.216-3.6125 0-5.2155 2.3355-5.2155 5.216v130.6075c0 2.8805 1.4125 5.216 5.2155 5.216 3.613 0 5.216-2.3355 5.216-5.216v-57.752h50.0915c2.8805 0 5.2155-1.4125 5.2155-5.2155 0-3.613-2.335-5.2155-5.2155-5.2155" fill="#fff"/></svg>