<svg height="256" preserveAspectRatio="xMidYMid" viewBox="0 0 256 256" width="256" xmlns="http://www.w3.org/2000/svg" xmlns:xlink="http://www.w3.org/1999/xlink"><linearGradient id="a" x1="38.263925%" x2="58.00444%" y1="9.701879%" y2="40.205593%"><stop offset="0" stop-color="#db221a"/><stop offset="1" stop-color="#9e020b"/></linearGradient><linearGradient id="b" x1="0%" x2="59.126824%" y1="58.373222%" y2="44.551575%"><stop offset="0" stop-color="#87d152"/><stop offset="1" stop-color="#5ca82c"/></linearGradient><linearGradient id="c" x1="55.986839%" x2="47.765821%" y1="94.205496%" y2="50%"><stop offset="0" stop-color="#39be90"/><stop offset="1" stop-color="#2c8a72"/></linearGradient><path d="m25.549 25.331 1.123 4.457 41.545 41.77 42.443-42.668.344-3.559z" fill="url(#a)"/><path d="m68.131 67.84-.663 2.595 23.206 96.788 39.524-39.523-59.286-59.511z" fill="#f6b937"/><path d="m185.89 67.59 40.422-40.572 4.357-1.251v84.192l-3.458-.449z" fill="#ffd500"/><path d="m136.189 0 94.48 25.767-42.29 41.854-8.907019 4.8054526-80.8495793 20.6389008-7.1424017-1.8683534-23.349-23.357z" fill="#fff67d"/><path d="m188.379 67.621-3.387 1.616-21.259 20.66.48 1.89-.63 2.751 22.457 89.828 1.902 3.139.194 2.25 39.524 39.374 2.936 1.031 25.404-94.772z" fill="#5acda5"/><path d="m25.913 145.433v84.872l5.026-1.101 41.32-41.917-43.341-40.948z" fill="url(#b)"/><path d="m25.913 230.305 42.436-43.018 3.91-1.986 92.297-22.906 23.386 25.11-1.041 2.4-37.391 38.738-3.504 1.436-25.03 25.411z" fill="#afe682"/><path d="m164.213 91.787-3.362 1.891-32.113 31.551-.629 2.662 59.833 59.614z" fill="#7dd769"/><path d="m188.379 67.621-60.27 60.27-36.629-36.694z" fill="#aadc50"/><path d="m146.088 230.16 41.854-42.655 42.654 42.655z" fill="url(#c)"/><path d="m0 120.248 68.349 67.039 3.236-1.761 20.773-18.078-.789-3.235-23.438-96.373-42.582-42.509z" fill="#dc4b1e"/><path d="m68.349 187.287 59.76-59.396 36.395 36.249z" fill="#aabe55"/></svg>