<svg height="256" preserveAspectRatio="xMidYMid" viewBox="0 0 256 256" width="256" xmlns="http://www.w3.org/2000/svg"><path d="m127.999746 23.06353c34.177639 0 38.225647.1300727 51.72273.7458861 12.479874.5695765 19.257377 2.6548057 23.76826 4.4072316 5.974202 2.3220024 10.238659 5.0962109 14.717532 9.5750842s7.253082 8.7433298 9.574576 14.7175319c1.752934 4.5108834 3.838163 11.2883866 4.40774 23.7677522.615813 13.4975915.745886 17.5455987.745886 51.723238 0 34.177639-.130073 38.225647-.745886 51.72273-.569577 12.479874-2.654806 19.257377-4.40774 23.76826-2.321494 5.974202-5.095703 10.238659-9.574576 14.717532s-8.74333 7.253082-14.717532 9.574576c-4.510883 1.752934-11.288386 3.838164-23.76826 4.40774-13.495051.615813-17.543058.745886-51.72273.745886-34.1796718 0-38.227679-.130073-51.72273-.745886-12.4798736-.569576-19.2573769-2.654806-23.7677522-4.40774-5.9747102-2.321494-10.2391667-5.095703-14.71804-9.574576s-7.2530818-8.74333-9.5745761-14.717532c-1.7529339-4.510883-3.8381632-11.288386-4.4077397-23.767752-.6158134-13.497591-.7458861-17.545599-.7458861-51.723238 0-34.1776393.1300727-38.2256465.7458861-51.7227299.5695765-12.4798737 2.6548058-19.2573769 4.4077397-23.7682603 2.3214943-5.9742021 5.0957028-10.2386586 9.5745761-14.7175319s8.7433298-7.2530818 14.71804-9.5750842c4.5103753-1.7524259 11.2878786-3.8376551 23.7672441-4.4072316 13.4975915-.6158134 17.5455987-.7458861 51.7232381-.7458861m0-23.06353c-34.7629669 0-39.1214213.14734807-52.7739823.77027475-13.6246157.62191048-22.9288843 2.78538666-31.0711356 5.94981353-8.4171315 3.2711272-15.5553835 7.64787302-22.6712792 14.76376872s-11.49264151 14.2541476-14.76376871 22.6712792c-3.16442688 8.1422513-5.32790305 17.4465199-5.94981354 31.0711356-.62292667 13.6520529-.76976665 18.0110154-.76976665 52.7739822 0 34.762967.14683998 39.121929.76976665 52.773982.62191049 13.624616 2.78538666 22.928885 5.94981354 31.071136 3.2711272 8.416623 7.64787301 15.555383 14.76376871 22.671279s14.2541477 11.492642 22.6712792 14.763769c8.1422513 3.164427 17.4465199 5.327903 31.0711356 5.949813 13.652561.622927 18.0110154.769767 52.7739823.769767 34.762967 0 39.121929-.14684 52.773982-.769767 13.624616-.62191 22.928885-2.785386 31.071136-5.949813 8.417131-3.271127 15.555383-7.647873 22.671279-14.763769s11.492642-14.254148 14.763769-22.671279c3.164427-8.142251 5.327903-17.44652 5.949813-31.071136.622927-13.652053.770275-18.011015.770275-52.773982 0-34.7629668-.147348-39.1219293-.770275-52.7739822-.62191-13.6246157-2.785386-22.9288843-5.949813-31.0711356-3.271127-8.4171316-7.647873-15.5553835-14.763769-22.6712792s-14.254148-11.49264152-22.671279-14.76376872c-8.142251-3.16442687-17.44652-5.32790305-31.071136-5.94981353-13.652053-.62292668-18.011015-.77027475-52.773982-.77027475zm0 62.2703115c-36.301484 0-65.7299426 29.4284585-65.7299426 65.7299425s29.4284586 65.729943 65.7299426 65.729943 65.729943-29.428459 65.729943-65.729943-29.428459-65.7299425-65.729943-65.7299425zm0 108.3968635c-23.564005 0-42.6669208-19.102916-42.6669208-42.666921s19.1029158-42.6669207 42.6669208-42.6669207 42.666921 19.1029157 42.666921 42.6669207-19.102916 42.666921-42.666921 42.666921zm83.686592-110.9937463c0 8.4831842-6.876583 15.3602744-15.359767 15.3602744s-15.360274-6.8770902-15.360274-15.3602744 6.87709-15.3597663 15.360274-15.3597663 15.359767 6.8765821 15.359767 15.3597663z" fill="#0a0a08"/></svg>