<svg height="146" preserveAspectRatio="xMidYMid" viewBox="0 0 512 146" width="512" xmlns="http://www.w3.org/2000/svg"><g fill="#343433"><path d="m27.1265503.90201342c-10.4461745 4.37605369-21.93009392 16.72332888-25.55704694 32.23280538-4.59339598 19.6458523 14.52155704 27.9546846 16.08934224 25.2340403 1.8452618-3.2008591-3.4250738-4.2832752-4.5100671-14.4768859-1.4019866-13.1659598 4.7188188-27.8773692 12.4228725-34.33234904 1.4311946-1.19924832 1.3633289.46990604 1.3633289 3.55736914 0 5.5211812-.3049665 55.0846711-.3049665 65.4286174 0 13.9966712-.5781476 18.416537-1.6167517 22.7840003-1.0514899 4.425879-2.7429798 7.416268-1.4621208 8.568268 1.4320537 1.288591 7.5459866-1.776537 11.0853155-6.716134 4.2437584-5.9240806 5.7290738-13.0388188 5.9962416-20.7652081.3221476-9.3139329.3084027-24.093208.3221476-32.5231678.0120269-7.7315436.1297182-30.3712214-.1357315-43.98131541-.0652886-3.33830872-9.3233826-6.84069799-13.6925638-5.01004027"/><path d="m398.069691 66.4053691c-.336751 7.2762416-1.94749 12.9640806-3.946523 16.9758926-3.870067 7.7667651-11.900564 10.1781477-15.310175-.9862013-1.858147-6.0855839-1.944912-16.2499866-.609074-24.7426577 1.359893-8.6515973 5.15694-15.1856108 11.444403-14.5962953 6.201557.5824429 9.104322 8.5734228 8.421369 23.3492617zm-104.549369 45.1453419c-.084188 12.090417-1.987007 22.691222-6.067543 25.770094-5.78749 4.365745-13.566282 1.091007-11.955544-7.731543 1.425181-7.807141 8.165369-15.780081 18.039409-25.521826 0 0 .020618 2.22153-.016322 7.483275zm-1.580671-45.2166439c-.353933 6.627651-2.072054 13.2853691-3.946523 17.0471946-3.869209 7.7667651-11.958121 10.1944698-15.310175-.9862013-2.291973-7.6396242-1.743034-17.5265503-.609074-23.7564564 1.471571-8.0828993 5.038389-15.5816376 11.444403-15.5816376 6.228188 0 9.299329 6.8329665 8.421369 23.2771007zm-60.564617-.1005101c-.379705 7.0185235-1.749047 12.8859061-3.946524 17.1477047-3.975731 7.7135034-11.841289 10.1592484-15.310174-.9862013-2.500725-8.0373691-1.649396-18.9955436-.609074-24.9153289 1.543731-8.7847516 5.409503-15.0129396 11.444402-14.4227651 6.19898.6056376 9.212564 8.5725638 8.42137 23.1765906zm277.552966 8.1980135c-1.515383 0-2.206926 1.5626308-2.77906 4.1913557-1.98443 9.1429798-4.070229 11.2064429-6.759947 11.2064429-3.004993 0-5.70502-4.5263892-6.399141-13.5886174-.545503-7.1259061-.457879-20.2437584.239678-33.2928859.142604-2.6811275-.597047-5.3339061-7.788241-7.9463088-3.094336-1.123651-7.592376-2.7782013-9.831947 2.6278658-6.327839 15.2732349-8.803651 27.3988725-9.386094 32.3238658-.030067.2551409-.342765.3075436-.397745-.2886443-.371114-3.9448054-1.200966-11.1145235-1.304053-26.1764295-.019759-2.9388457-.642578-5.4404296-3.88639-7.4884296-2.104698-1.3289664-8.496107-3.6793557-10.79753-.8831141-1.993879 2.2868188-4.303033 8.4411276-6.702389 15.7362685-1.950067 5.9292349-3.308242 9.9401879-3.308242 9.9401879s.025772-15.9982819.048967-22.0666845c.010308-2.289396-1.560054-3.0522417-2.033396-3.1905504-2.131329-.6176644-6.330416-1.6511141-8.112967-1.6511141-2.199194 0-2.737825 1.2284564-2.737825 3.0195973 0 .2353826-.347061 21.0633021-.347061 35.6278121 0 .6331275.00086 1.322953.003437 2.0565906-1.21643 6.6937987-5.161235 15.7809396-9.451383 15.7809396-4.295302 0-6.321825-3.7987651-6.321825-21.1620939 0-10.1283222.304107-14.5335839.453584-21.859651.086765-4.2197047.254281-7.4600806.244832-8.1954363-.031785-2.2550335-3.931061-3.3915705-5.745396-3.811651-1.822926-.4226577-3.407034-.5875973-4.644081-.5171544-1.750765.0996511-2.98953 1.2473557-2.98953 2.8271678 0 .8478926.00945 2.4577718.00945 2.4577718-2.255034-3.5436241-5.881987-6.0099865-8.295088-6.7247248-6.499651-1.9303087-13.281932-.2190604-18.397637 6.9386309-4.065933 5.6878389-6.516832 12.1299329-7.481557 21.3854496-.705289 6.7668188-.475061 13.6281343.778309 19.4310873-1.514524 6.5477584-4.326229 9.230604-7.405101 9.230604-4.469691 0-7.710067-7.2951409-7.333799-19.9130201.248269-8.2985235 1.908832-14.122953 3.724027-22.5486175.774013-3.5917315.145181-5.4722147-1.432054-7.2745235-1.446657-1.6528322-4.528966-2.4972885-8.96-1.4586845-3.156188.7405101-7.668832 1.536859-11.797476 2.1485101 0 0 .249127-.9939329.453584-2.7464162 1.073825-9.1902281-8.912752-8.4445637-12.099007-5.5091543-1.90196 1.7524832-3.196564 3.8193825-3.687946 7.5356778-.779168 5.8974497 4.030711 8.6790873 4.030711 8.6790873-1.578094 7.224698-5.446443 16.6606174-9.440215 23.4832751-2.13906 3.6553021-3.77557 6.3639195-5.888 9.24349-.007731-1.0721074-.013745-2.1450738-.017181-3.2120269-.048107-15.1873288.153772-27.1394362.243114-31.4484832.086765-4.2197047.256-7.3741745.246551-8.1095302-.024054-1.6485369-.987061-2.2722148-2.99039-3.0608322-1.771382-.697557-3.865771-1.180349-6.038335-1.3487248-2.742121-.213047-4.394094 1.2404832-4.351141 2.9603221.00859.3247248.00859 2.318604.00859 2.318604-2.255033-3.5436241-5.881986-6.0099865-8.295087-6.7247248-6.499651-1.9294497-13.281933-.2190604-18.397637 6.9386309-4.065074 5.6878389-6.727302 13.6693691-7.481557 21.3150067-.702712 7.125906-.572994 13.1805638.384859 18.2825235-1.03345 5.1079731-4.00494 10.4496107-7.364725 10.4496107-4.295302 0-6.739329-3.7987651-6.739329-21.1620939 0-10.1283222.304107-14.5335839.453584-21.858792.086765-4.2197047.254282-7.4609396.244832-8.1954362-.031785-2.2550336-3.93106-3.3915705-5.745396-3.8125101-1.898523-.4389799-3.537611-.6004832-4.796134-.5068456-1.660564.1228456-2.828027 1.6098792-2.828027 2.7189261v2.5557047c-2.255034-3.5436241-5.881987-6.0099865-8.295087-6.7247248-6.499651-1.9294497-13.244134-.1915705-18.397638 6.9386309-3.360644 4.6492349-6.081288 9.8035973-7.481557 21.2136376-.404617 3.2970738-.583302 6.3853959-.560107 9.2709798-1.340135 8.1962953-7.259061 17.6416645-12.100725 17.6416645-2.833181 0-5.53149-5.4954094-5.53149-17.2069799 0-15.6005369.965584-37.8115436 1.128805-39.9523222 0 0 6.117369-.1039463 7.302014-.1176912 3.051382-.0335034 5.81498.0386577 9.879194-.1692349 2.038551-.1039463 4.002363-7.4197047 1.898524-8.3251544-.953557-.4097718-7.692886-.7688591-10.364564-.825557-2.246443-.0506846-8.500403-.5137182-8.500403-.5137182s.560967-14.74319459.691544-16.3006711c.110819-1.29804027-1.568644-1.96638926-2.531651-2.37186577-2.341799-.99049664-4.437047-1.46469799-6.920591-1.97669799-3.431087-.70786577-4.987704-.01546308-5.291812 2.88042953-.457879 4.39495302-.69498 17.26797313-.69498 17.26797313-2.517906 0-11.118818-.4922416-13.637583-.4922416-2.340081 0-4.865719 10.0638926-1.630497 10.1875973 3.722309.1443222 10.209074.269745 14.50953.3986041 0 0-.19157 22.5778255-.19157 29.5491006 0 .7413692.003436 1.4552484.007731 2.1485101-2.366711 12.3352483-10.703033 18.9989799-10.703033 18.9989799 1.790282-8.1610739-1.866739-14.2896108-8.454014-19.4774765-2.426845-1.9114094-7.217825-5.5306309-12.578362-9.4969128 0 0 3.104644-3.0591141 5.857933-9.216 1.950926-4.3614497 2.035114-9.3508725-2.753289-10.4513289-7.911946-1.8194899-14.435651 3.9911947-16.381423 10.1944698-1.507651 4.806443-.70357 8.3715437 2.24988 12.0758121.215624.270604.449288.5472215.690684.8255571-1.785987 3.442255-4.239463 8.0768859-6.31753 11.6711946-5.767732 9.9788456-10.124886 17.8718926-13.417665 17.8718926-2.632161 0-2.596939-8.0141745-2.596939-15.517208 0-6.4678658.477637-16.1924296.85906-26.2606175.126282-3.3297181-1.5385769-5.2265235-4.3296642-6.9446443-1.6957852-1.0437584-5.3150067-3.0960537-7.4111141-3.0960537-3.1372886 0-12.189208.426953-20.7420134 25.1670336-1.0781208 3.1183892-3.1957047 8.8002147-3.1957047 8.8002147l.1829799-29.7509798c0-.6975571-.3719732-1.3719195-1.222443-1.8332349-1.4415033-.782604-5.290953-2.3830336-8.7134497-2.3830336-1.6304966 0-2.4448859.7585504-2.4448859 2.2704967l-.2980939 46.5456107c0 3.5376107.0919194 7.6628188.441557 9.4668456.3487786 1.8066041.9131812 3.2764564 1.6115973 4.1509799.6984161.8728054 1.5059329 1.5385772 2.8366175 1.8134765 1.2387651.255141 8.0236242 1.1262282 8.3758389-1.4664161.4226577-3.1072215.4389799-6.4678658 4.0015034-19.001557 5.5460939-19.5135571 12.7759463-29.0345235 16.1761074-32.4157853.5944698-.5910335 1.2731275-.626255 1.2404832.341047-.1451812 4.2781208-.6554631 14.9691275-.9990873 24.050255-.9209127 24.304537 3.5006712 28.8094497 9.8190604 28.8094497 4.8339332 0 11.6480002-4.8030067 18.9525902-16.9612886 4.55388-7.5769127 8.975464-15.0060671 12.152269-20.3605906 2.213799 2.0497181 4.698201 4.2549262 7.180886 6.6113289 5.769449 5.475651 7.663678 10.6789798 6.406872 15.6151409-.961288 3.7738524-4.581369 7.6628188-11.024322 3.882953-1.877906-1.1030335-2.679409-1.9552214-4.567624-3.1982818-1.01455-.66749-2.563436-.8676511-3.492081-.1675168-2.412241 1.8186309-3.791892 4.1320805-4.579651 6.9961879-.766281 2.7867919 2.024806 4.2600805 4.918121 5.5486711 2.491275 1.109047 7.845799 2.1141477 11.260564 2.2284027 13.305128.4449933 23.96349-6.4240537 31.383195-24.1430335 1.328107 15.303302 6.980724 23.9617718 16.801503 23.9617718 6.565799 0 13.148779-8.4866577 16.02749-16.8358658.826416 3.4035973 2.049718 6.3630604 3.62953 8.8663624 7.567463 11.9899057 22.247946 9.4092886 29.622121-.7722953 2.279946-3.1458792 2.627007-4.2764027 2.627007-4.2764027 1.075543 9.613745 8.817396 12.9726712 13.250147 12.9726712 4.96451 0 10.090524-2.346953 13.683114-10.4350067.42094.8779597.880537 1.7164026 1.382229 2.5110335 7.567463 11.9899057 22.247946 9.4092886 29.62212-.7722953.34792-.4776376.64945-.910604.913182-1.2997584l.216483 6.3149531s-4.206819 3.8588993-6.789155 6.2264693c-11.379973 10.429853-20.024698 18.34094-20.660402 27.553504-.809235 11.746792 8.711731 16.112537 15.926121 16.684671 7.647355.607356 14.208-3.62094 18.234416-9.538148 3.543624-5.208483 5.863087-16.418362 5.692993-27.489933-.067866-4.43361-.179544-10.0707647-.267168-16.1133956 3.994631-4.6389261 8.495248-10.5028724 12.639356-17.3650469 4.51608-7.4789799 9.356027-17.5231141 11.834416-25.3397047 0 0 4.205101.0360805 8.692832-.2577182 1.43549-.0936375 1.847839.1993021 1.582389 1.251651-.320429 1.2714094-5.669798 21.9043222-.787758 35.6492886 3.341745 9.4092886 10.874846 12.4366175 15.341101 12.4366175 5.228241 0 10.229691-3.9482416 12.909959-9.8113289.323007.653745.660618 1.2860134 1.029155 1.8701745 7.567463 11.9899057 22.196403 9.3938255 29.622121-.7722953 1.676026-2.2936913 2.627006-4.2764027 2.627006-4.2764027 1.593557 9.9496376 9.331114 13.0233557 13.763007 13.0233557 4.616591 0 8.997799-1.89251 12.552591-10.3035704.148617 3.7034094.382282 6.7315973.751678 7.6860134.225073.5841611 1.536859 1.3169396 2.491275 1.6708725 4.223141 1.5660671 8.530469.825557 10.124027.5034094 1.103892-.2233557 1.964671-1.109047 2.082362-3.3958658.309262-6.0048322.119409-16.0936376 1.939758-23.5923758 3.055678-12.5835168 5.906041-17.464698 7.258202-19.8812349.756832-1.3538792 1.610738-1.5772349 1.641664-.1443222.063571 2.8993289.207893 11.4134765 1.391678 22.8527248.869369 8.4127786 2.030819 13.3858792 2.923383 14.9596779 2.547114 4.5006174 5.692993 4.7136644 8.254711 4.7136644 1.629638 0 5.03753-.4501476 4.732564-3.314255-.148618-1.3959732.111678-10.0235168 3.124402-22.4206175 1.967249-8.0957852 5.247141-15.4098255 6.430067-18.0849396.436403-.9862013.639141-.2087516.632269-.057557-.249128 5.575302-.808376 23.8114362 1.46298 33.7851275 3.078872 13.511302 11.985611 15.0232483 15.089396 15.0232483 6.625933 0 12.044886-5.0401073 13.870389-18.3022818.439839-3.1914094-.211329-5.6560537-2.162255-5.6560537z"/></g></svg>