<svg height="256" preserveAspectRatio="xMidYMid" viewBox="0 0 256 256" width="256" xmlns="http://www.w3.org/2000/svg"><path d="m221.866778 115.251627c0-4.712534-3.820788-8.533334-8.533306-8.533334s-8.533305 3.8208-8.533305 8.533334v76.748373c0 4.712533 3.820787 8.533333 8.533305 8.533333s8.533306-3.8208 8.533306-8.533333zm-2.978124-53.4124803c-1.318396-1.1291734-32.930026-27.65504-90.888237-27.65504-57.9582117 0-89.5687754 26.52672-90.8871711 27.6558933-3.5775884 3.0666667-3.9916671 8.4541867-.9250104 12.03328 3.0600434 3.5709867 8.4323993 3.9933867 12.0125476.9416533.501545-.4192 28.7288665-23.5624533 79.7996339-23.5633066 51.712258 0 79.503954 23.3109333 79.77894 23.5458133 3.570762 3.0666667 8.967437 2.6542933 12.033027-.9250133 3.067724-3.57824 2.653858-8.9666134-.92373-12.03328zm-184.7554518 130.1608533c0 4.712533 3.8207876 8.533333 8.5333056 8.533333 4.7133713 0 8.5333055-3.8208 8.5333055-8.533333v-76.748373c0-4.71168-3.8199342-8.53248-8.5333055-8.53248-4.712518 0-8.5333056 3.8208-8.5333056 8.533333zm42.6673811 17.066667c0 4.712533 3.8207876 8.533333 8.5333056 8.533333s8.5333055-3.8208 8.5333055-8.533333v-114.0008537c0-4.7125333-3.8207875-8.5333333-8.5333055-8.5333333s-8.5333056 3.8208-8.5333056 8.5333333zm42.6665277 4.317866c0 4.714667 3.820788 8.533334 8.533306 8.533334s8.533305-3.818667 8.533305-8.533334v-123.7329063c0-4.7125334-3.820787-8.5333334-8.533305-8.5333334s-8.533306 3.8208-8.533306 8.5333334zm42.666528-4.317866c0 4.712533 3.820787 8.533333 8.533305 8.533333s8.533306-3.8208 8.533306-8.533333v-114.0008537c0-4.7125333-3.820788-8.5333333-8.533306-8.5333333s-8.533305 3.8208-8.533305 8.5333333zm61.866465 46.933333h-192.0002282c-17.6724331 0-31.9998758-14.327467-31.9998758-32l.00083333-192c0-17.6724907 14.32660937-32 31.99904247-32h192.0002282c17.672476 0 31.999896 14.3275093 31.999896 32v192c0 17.672533-14.32742 32-31.999896 32z" fill="#1f8ded" transform="matrix(1 0 0 -1 0 256)"/></svg>