<svg height="252" preserveAspectRatio="xMidYMid" viewBox="0 0 256 252" width="256" xmlns="http://www.w3.org/2000/svg"><path d="m256 131.592659c0-20.237712-5.232369-39.2505222-14.4078-55.7717847 39.109783-88.5137494-41.906662-75.54911439-46.417449-74.66651734-17.164127 3.35863956-33.043718 8.75083043-47.69125 15.58618674-2.159978-.1216553-4.333075-.1884464-6.52287-.1884464-54.6649597 0-100.4228457 38.1281924-112.1339543 89.2412957 28.8120227-32.3233279 48.9757871-45.3654883 61.0506689-50.5847378-1.9274011 1.7222569-3.8142505 3.463597-5.6700897 5.2180568-.6178179.5832297-1.2129746 1.1748083-1.8224436 1.761616-1.2237089 1.1771937-2.4450324 2.35558-3.6377311 3.5447006-.7096557.7072703-1.4002283 1.4205042-2.0991497 2.1325453-1.0579238 1.0770069-2.1134621 2.1528212-3.1463392 3.2357916-.7335097.7692907-1.4491289 1.5409667-2.169519 2.3114501-.9648932 1.0328771-1.923823 2.0669469-2.8648623 3.1045947-.7311243.8062644-1.4503216 1.6125287-2.1683262 2.4211784-.8921387 1.0042523-1.7759284 2.0085047-2.6477912 3.0151424-.7227754.8348891-1.4395873 1.6697782-2.1480503 2.50586-.8265402.9756275-1.6423462 1.951255-2.4498032 2.9268826-.7144265.8635139-1.4264676 1.725835-2.1253891 2.5881562-.756171.9326904-1.4956442 1.8641881-2.2339247 2.7944931-.7156192.9016802-1.4312384 1.8021677-2.1301599 2.7026552-.6655258.8575504-1.3119685 1.7115227-1.963182 2.5666877-.7347024.9660859-1.4753683 1.9321719-2.1909876 2.8934871-.5116677.688187-1.0030596 1.369218-1.5051857 2.05502-4.5453748 6.202033-8.6983517 12.284797-12.4493892 18.127828-.0095416.014312-.0190832.028624-.0274321.042937-.9875545 1.538581-1.9405208 3.054501-2.8744038 4.557301-.0500934.081104-.1025721.1634-.1526655.245696-.9350758 1.508764-1.8379487 2.991289-2.7181603 4.458308-.0310102.051286-.0632131.103765-.0942232.155051-2.3663143 3.949025-4.5608799 7.75612-6.5371817 11.337794-10.3609737 18.776656-15.4048965 31.895149-15.62316037 32.673981-32.71811103 116.970348 69.39598177 67.574731 83.64515327 60.201467 15.3428758 7.579601 32.6155388 11.845884 50.8876828 11.845884 50.021784 0 92.580852-31.929737 108.422277-76.518778h-60.445971c-8.944048 15.1103-26.163039 25.344847-45.94514 25.344847-28.983771 0-52.478743-21.959968-52.478743-49.049734h164.539943c.623782-4.851899.947003-9.796827.947003-14.816896zm-21.490045-113.2061911c9.906555 6.686269 17.852314 17.1867884 4.206648 52.5491125-13.087483-21.0475542-32.777746-37.5580824-56.18088-46.6333269 10.646029-5.1417241 37.010634-16.01675096 51.974232-5.9157856zm-210.5304059 216.1659071c-8.0686067-8.274944-9.4950744-28.429167 8.309532-65.154745 8.985792 25.835046 26.9168244 47.482528 50.0933458 61.221224-11.5262404 6.343965-42.1261185 20.627725-58.4028778 3.933521zm66.2794601-119.601441c.9195707-26.3288244 23.8336978-47.4097741 51.9873518-47.4097741 28.15246 0 51.06778 21.0809497 51.987351 47.4097741z" fill="#1ebbee"/></svg>