<svg height="291" preserveAspectRatio="xMidYMid" viewBox="0 0 256 291" width="256" xmlns="http://www.w3.org/2000/svg"><path d="m254.976496 145.213023c0 22.352868-.036217 44.705737.031256 67.058605.013395 4.403597-1.997395 7.520744-5.581395 9.608434-16.412776 9.560806-32.881117 19.02586-49.331597 28.521178-16.155783 9.324651-32.315039 18.642853-48.470822 27.968-5.850295 3.37662-11.680248 6.789458-17.546419 10.138295-4.077643 2.327318-8.142387 2.300031-12.252279-.084837-13.319442-7.730605-26.673116-15.402667-40.0104183-23.102512-11.5393488-6.661457-23.0742326-13.330357-34.6115969-19.995287-13.5496434-7.827349-27.1062326-15.64279-40.64545736-23.488-3.71894573-2.155163-5.55807752-5.437023-5.55807752-9.745364.00148837-44.581706.00644961-89.163907-.00744186-133.7456125-.00148837-4.5405272 2.07727132-7.7990698 5.92124031-10.0226977 10.46027903-6.0512248 20.92998453-12.0865736 31.39621703-18.1273798 15.2434109-8.7977675 30.487814-17.5935504 45.7302326-26.3933024 12.7469147-7.3585116 25.480434-14.74034105 38.242729-22.07156586 3.898046-2.23900775 7.849674-2.14077519 11.744248.10914729 12.128248 7.00477519 24.255504 14.01103877 36.38524 21.01333337 12.907659 7.4517829 25.819287 14.8966201 38.725457 22.3503876 12.50431 7.2215814 25.005148 14.4486201 37.505489 21.6766511 1.927442 1.1142946 3.910449 2.1204341 5.476713 3.7923721 1.869395 1.9949147 2.877023 4.2383876 2.87355 7.0161861-.029767 22.5081547-.016868 45.0158137-.016868 67.5239687" fill="#292926"/><g fill="#f3da47" transform="translate(88.310078 110.139535)"><path d="m59.0025426 53.6845891c-7.7355659 2.5451163-15.9072248-2.4915348-17.1172713-10.5505736-.6429767-4.2805581.011907-8.2976744 2.7921861-11.715969 3.3835659-4.16 7.8466976-5.744124 13.0659224-4.5941085 5.331845 1.1748217 8.5417675 4.7032558 9.9071008 9.9214884.3100775 1.1837519.3691163 2.4334883.5432558 3.6524651-.108155 6.3226046-3.624186 11.4555038-9.1911938 13.2866976zm15.59169-27.4495503c-4.9944807-6.3419535-11.7804652-9.0051473-19.8241241-9.2333644-.8483721.0610233-1.8346666.1111318-2.8169922.2058915-11.2248062 1.0835349-20.4284031 9.3102636-21.4211473 20.8590388-.6682791 7.7772403 1.6272868 14.5275038 7.6169922 19.6653643 6.7507597 5.7912558 14.7075969 7.3004651 23.1977675 5.2385736 18.6557519-4.5306046 22.4282791-25.0775814 13.2475039-36.7355038z"/><path d="m.20688372 26.5213023h6.86437209v27.8072558h-6.48285271v8.3433179h24.0987287v-8.3433179h-6.4873178v-36.1515659h-17.99293028z"/><path d="m7.07125581.55714729h11.12855819v9.81432561h-11.12855819z"/></g></svg>