<svg height="163" preserveAspectRatio="xMidYMid" viewBox="0 0 256 163" width="256" xmlns="http://www.w3.org/2000/svg"><g><path d="m9.463808 13.26432c0 2.801664-1.705984 4.87424-4.632576 4.87424-2.43712 0-4.265984-2.072576-4.265984-4.87424 0-2.68288 1.949696-4.876288 4.509696-4.876288 2.68288 0 4.388864 2.193408 4.388864 4.876288zm-6.746112 146.50368v-112.06656h4.593664v112.06656z"/><path d="m160.100352 79.920576c0 56.500224-31.36512 82.182144-65.697792 82.182144-35.072 0-63.473664-27.78112-63.473664-79.845376 0-53.46304 29.390848-82.182144 65.943552-82.182144 35.811328-.002048 63.227904 28.248064 63.227904 79.845376zm-124.516352 1.16736c0 42.840064 20.762624 76.120064 59.035648 76.120064 38.539264 0 60.643328-34.304 60.643328-76.607488 0-39.22944-17.711104-75.030528-58.126336-75.030528s-61.55264 33.708032-61.55264 75.517952z"/><path d="m176.959488 147.625408c7.706624 5.136384 21.008384 10.09664 32.448512 10.09664 21.712896 0 41.023488-15.190016 41.023488-37.548032 0-20.748288-12.863488-31.574016-34.70336-40.873984-19.546112-8.323072-37.12-17.3568-37.12-39.53664 0-23.11168 18.208768-39.456768 42.9568-39.456768 13.307904 0 23.3472 3.735552 28.01664 7.00416l-1.857536 4.030464c-3.969024-2.799616-14.6944-6.367232-26.365952-6.367232-26.155008 0-37.548032 19.7632-37.548032 34.312192 0 20.094976 15.577088 26.814464 35.65568 36.386816 23.3472 11.440128 35.719168 21.52448 35.719168 43.472896 0 23.580672-16.807936 42.723328-46.692352 42.723328-12.376064 0-26.615808-4.202496-33.619968-9.572352z"/></g></svg>