<svg height="185" preserveAspectRatio="xMidYMid" viewBox="0 0 512 185" width="512" xmlns="http://www.w3.org/2000/svg"><g fill="#282927"><path d="m105.061699 89.3083836c-11.3095894-1.3816987-20.6869045 6.0773698-27.9075072 15.8018634-.4629041.624219-1.2414247.869698-1.977863.624219-.7399452-.248987-1.2168767-.901261-1.2168767-1.679781v-6.7787398c0-3.9066301-3.1807124-7.0873425-7.0873425-7.0873425h-17.4220274c-3.9031233 0-7.0838356 3.1772055-7.0838356 7.076822l-.0350685 76.8280543c0 3.89611 3.1842192 7.083836 7.0873424 7.083836h17.4535891c3.9066301 0 7.0873425-3.180712 7.0873425-7.083836v-18.37589c0-13.778411 17.1905753-33.357151 31.1022469-34.353096z"/><path d="m33.6622466 174.093479v-103.8658626c0-3.9101369-3.1842192-7.0908493-7.0873425-7.0908493h-19.48756163c-3.90312329 0-7.08734247 3.1807124-7.08734247 7.0908493v103.8658626c0 3.903124 3.18421918 7.083836 7.08734247 7.083836h19.48756163c3.9031233 0 7.0873425-3.180712 7.0873425-7.083836"/><path d="m156.54926 116.788055c-11.218411 0-20.311671 8.967013-20.311671 20.027616s9.09326 20.03463 20.311671 20.03463 20.311672-8.974027 20.311672-20.03463-9.093261-20.027616-20.311672-20.027616zm0-28.0162194c26.904548 0 48.717151 21.5110134 48.717151 48.0438354s-21.812603 48.047343-48.717151 48.047343c-26.901041 0-48.713644-21.514521-48.713644-48.047343s21.812603-48.0438354 48.713644-48.0438354z"/><path d="m430.307945 116.788055c-11.214904 0-20.311671 8.967013-20.311671 20.027616s9.096767 20.03463 20.311671 20.03463 20.308165-8.974027 20.308165-20.03463-9.093261-20.027616-20.308165-20.027616zm0-28.0162194c26.901041 0 48.710137 21.5110134 48.710137 48.0438354s-21.809096 48.047343-48.710137 48.047343c-26.908055 0-48.71715-21.514521-48.71715-48.047343s21.809095-48.0438354 48.71715-48.0438354z"/><path d="m301.161205 174.093479v-49.737643c0-31.7930963-33.900712-42.1137538-54.619178-22.243946l-3.682191-6.1159448c-1.315069-2.1917808-3.513863-3.4332055-6.073863-3.4332055h-18.337315c-3.903124 0-7.087343 3.1842192-7.087343 7.0873425v74.4433968c0 3.903124 3.184219 7.083836 7.087343 7.083836h21.00252c3.903123 0 7.090849-3.180712 7.090849-7.083836v-45.487342c0-5.372493 4.348494-9.724493 9.720987-9.724493 5.368986 0 9.724493 4.352 9.724493 9.724493v45.487342c0 3.903124 3.177205 7.083836 7.087342 7.083836h20.999014c3.89611 0 7.087342-3.180712 7.087342-7.083836"/></g><path d="m260.274849 67.3484932c-.57863.8381369-1.946301 3.2718904-3.636602 6.5052054h15.563397c.690849 0 1.360657.1087124 1.99189.3086028 6.070356-8.1148493 13.403178-13.497863 21.31463-16.1385206 8.633863-2.886137 18.123398-2.5459726 27.532274 1.0275069l-.003506.0140274c3.811945 1.4518356 8.072767-.350685 9.710465-4.0363836 8.206028-15.4090959 18.228603-25.8595068 28.899945-31.9964931 7.99211-4.6009863 16.380494-6.7892603 24.628603-6.8348494 8.251617-.045589 16.429589 2.0550137 23.990356 6.0423014 10.180384 5.3584658 19.210521 14.1080548 25.820932 25.6035069l6.613918-3.7979178-6.638466 3.815452c1.648219 2.8721096 4.881534 4.2678356 7.960548 3.7277808 15.630027-1.5044383 28.212603 3.1246028 37.05337 11.2780274 6.33337 5.842411 10.839671 13.5364384 13.24537 22.1247124 2.454794 8.7425753 2.731835 18.3758899.564602 27.9320549-1.648219 7.241644-4.702685 14.441205-9.296657 21.18137.466411 2.872109.708383 5.810849.708383 8.809205 0 5.502247-.813589 10.829151-2.332054 15.850959 13.981808-12.228383 22.359671-27.241205 25.817424-42.496 2.73885-12.067068 2.377644-24.2814246-.736438-35.4016437-3.156165-11.2745206-9.14937-21.4443836-17.618411-29.254137-11.057096-10.1979178-26.213699-16.3103562-44.656219-15.5318356-7.830795-12.056548-18.007671-21.3777535-29.383891-27.3674521-9.735013-5.13052055-20.360767-7.83780822-31.179397-7.77819178-10.829151.05610959-21.788055 2.89665754-32.164822 8.86882192-4.720219 2.71430136-9.317698 6.07386306-13.718794 10.10673976l-85.090192 5.9195616 77.013918 2.5564932c-3.569973 4.2503013-6.954083 9.0231232-10.113754 14.3324931-10.678356-2.8124931-21.419835-2.5459726-31.473972.8206028-8.910904 2.977315-16.454137 7.5677808-23.566028 15.3529863l-60.875397 3.955726 55.460822 2.5319452c-.473425.6417534-.943343 1.3010411-1.406247 1.9673425" fill="#c52437"/><path d="m369.769205 94.2390137h-17.748164c-3.538411 0-6.428055 3.3034521-6.428055 7.3468493v72.241096c0 4.050411 2.889644 7.350356 6.428055 7.350356h17.748164c3.534905 0 6.428055-3.299945 6.428055-7.350356v-72.241096c0-4.0433972-2.89315-7.3468493-6.428055-7.3468493" fill="#282927"/><path d="m333.424219 149.163288h-20.392329c-3.513863 0-6.431561 3.331507-6.431561 7.353863v17.309808c0 4.015342 2.886137 7.350356 6.431561 7.350356h20.392329c3.545425 0 6.428055-3.299945 6.428055-7.350356v-17.309808c0-4.050411-2.914192-7.353863-6.428055-7.353863" fill="#282927"/><path d="m369.762192 66.2648767h-17.741151c-3.520877 0-6.431562 3.3244932-6.431562 7.353863v6.0668493c0 4.0223562 2.893151 7.3468494 6.431562 7.3468494h17.741151c3.541918 0 6.431561-3.2999452 6.431561-7.3468494v-6.0668493c0-4.0504109-2.914191-7.353863-6.431561-7.353863" fill="#282927"/></svg>