<svg height="130" preserveAspectRatio="xMidYMid" viewBox="0 0 512 130" width="512" xmlns="http://www.w3.org/2000/svg"><path d="m180.574778 35.3799394c.644159.0767805 1.148521.5907313 1.213158 1.2362221.165585.2777876.208989.6116628.119932.9225538-.063829.327274-.187357.6400028-.364408.9225539-.482804 1.8143558-.94408 3.6071854-1.383831 5.3784888-.439751 1.7713033-.867201 3.6102606-1.28235 5.5168719-.157019.3939152-.178122.8289588-.059966 1.2362221.124545.3321194.262928.7426558.424375 1.2362221l.124545.9917454c-.005202.1923307-.047491.3818478-.124545.5581451-.078944.1776741-.078944.3804709 0 .558145l-.119932-.2490895c-.244477 1.0747752-.544307 2.1864526-.922554 3.3396449-.358872 1.1307674-.622716 2.2895213-.788784 3.4641896l-.119932.1245448c-1.777453 6.7653947-3.333494 13.6092065-4.668122 20.5314354s-2.5647 13.9720778-3.690215 21.1495462c-.214235.310712-.456663.601007-.724205.867201-.292594.313024-.674165.528765-1.093226.618111-.486211.166279-1.006132.209077-1.512989.124545-.501981-.079899-1.009309-.121534-1.517601-.124545-1.086455.667389-2.388875.888866-3.634862.618111-.530742-.132901-.97513-.494494-1.213158-.987132-.244272-.542289-.307354-1.148841-.179898-1.729789.09787-.252247.080073-.534742-.048679-.772713-.128753-.23797-.355481-.407424-.620173-.463509-.620821.21813-1.06535.76799-1.148579 1.420733-.119619.699319-.541561 1.31029-1.153192 1.669822-.225457.201666-.493499.349878-.784171.433601-.299204.132767-.644764.108577-.922554-.064579-.172133-.005708-.329864-.097573-.419762-.244477-.132776-.171792-.274427-.336538-.424375-.493566-.167372-.762279-.146792-1.553833.059966-2.306385.188726-.706016.289433-1.4326576.29983-2.1633886.24294-2.1526256.505867-4.2960256.788784-6.4302001.282916-2.1341746.505867-4.2775746.668851-6.4302002-.005769-.1922599-.048034-.3816705-.124544-.5581451-.084474-.1933174-.034098-.4190765.124544-.5581451-.081795-1.1776802-.021393-2.3609261.179898-3.5241556.202987-1.2082862.344627-2.4260806.424375-3.6487004.162985-1.8112807.405924-3.7286551.728818-5.7521231.322894-2.0234681.60581-3.8993275.848749-5.6275784.393666-1.5227098.675793-3.0720943.844137-4.635833.174985-1.6041538.458552-3.194595.848749-4.7603777.162985-1.4853117.385935-3.0106007.668852-4.575867.282917-1.5652664.590434-3.1320703.922554-4.7004118l-.119932-.1245448h.119932c.078417 0 .119932-.0830298.119932-.2490895.167023-.4363981.269581-.8948005.304443-1.3607669.033327-.4804913.178662-.9465109.424374-1.3607669.162985-1.2300718.364409-2.4047903.604273-3.5241556.244477-1.1116774.461277-2.2464186.728818-3.3996109.095162-.5136428.40359-.9628758.848749-1.2362221.417925-.2922845.864606-.5411273 1.33309-.7426558.078418.1660596.19835.1660596.364409 0 .508664.2413071 1.083236.3062305 1.63292.1845107.546533-.1178993 1.115851.044763 1.517602.4336003.22531.3021332.467077.5916379.724204.8672006v-.119932c0 .1660597.041515.2275633.124545.1845108.145726-.0143116.28638.0578188.359796.1845108.015264-.0652185.05615-.1215414.113432-.1562577s.126132-.0449001.191011-.0282531c.119932.0430525.179898-.0184511.179898-.1845108v.1245448c.240915.0011562.467609-.1139085.608885-.3090555.186262-.2212879.441186-.3739181.724205-.4336003.380824-.0243691.760549.0621506 1.093226.2490895.142012.1263796.228244.3038192.239864.4935663.012811.1904339.100753.3679773.244477.4935663-.31582.3858423-.363394.9256319-.119932 1.3607669.161447.4151492.401311.4612769.724205.1245448l.424375-.4336003c.134699-.1532999.201299-.3547667.18451-.5581451.388018-.4651226.657137-1.0176075.784171-1.6098564.103714-.5604243.583558-.9730895 1.153192-.9917454.591693-.1608246 1.209332-.2031501 1.817432-.1245448.601976.085644 1.209398.1272694 1.817431.1245448h.461276zm22.907012 0h5.572225c1.943513 0 3.842437.0415149 5.69677.1245447.078417-.1660597.138383-.2029618.179898-.1245447.029133.0762331.102914.1260355.18451.1245447h4.119203c1.418277-.0013997 2.835374.0817778 4.243748.2490896.77368.2005592 1.286342.9343306 1.208545 1.7297884l-.359796 2.2279675c.077124.6521871.219289 1.2950243.424375 1.918912.199145.6265546.176339 1.30259-.064579 1.9142992-.078417.5765961-.179898 1.2362221-.29983 1.9788779-.084736.5890506-.22687 1.1684036-.424374 1.7297884h.221413c-.101978.0941521-.228162.1580426-.364409.1845108-.147708.0257179-.251606.1595855-.239864.3090555v-.119932c-.161447-.0830298-.244477-.0415149-.244477.1245448.006348.0337436-.004027.0684728-.027843.0932053-.023817.0247325-.05813.0364099-.092089.0313395-.856032-.0448465-1.691964.2694637-2.306384.8672006-.078247.1620519-.083134.3499026-.01342.515804s.207315.2938765.377828.3513966v-.1291576c.092601.2906492.236311.5624477.424375.8026219.150526.2388737.214064.5223516.179898.8026218.145925.5394302-.106246 1.107295-.604273 1.3607669-.736446.4148136-1.591781.5676681-2.426316.4336003-.883461-.1224937-1.778107-.1426155-2.666181-.059966-1.130128 0-2.18184 0-3.150521-.059966-.968682-.059966-2.020393-.059966-3.150522-.059966-.188804.0885265-.39585.1312002-.604272.1245448-.193544.0247152-.344539.179533-.364409.3736343-.07181.219817-.047037.4597752.068168.6602846s.310034.3427603.536105.3914267c.432447.0913364.819247.3312501 1.093226.6780771.064838.1477938.168439.275302.29983.3690215.132163.0940979.237175.2213848.304443.3690216h-.119932c.392547.3873974.573062.9409788.484341 1.4853116-.07491.5461068-.196833 1.0847259-.364409 1.6098565-.568908 2.0634454-1.093227 4.062312-1.572955 5.9965999-.479728 1.9342878-.965606 3.8916395-1.457635 5.8720551-.079087.5529114-.099188 1.1126623-.059966 1.6698224.035372.6038738-.02535 1.2095342-.179898 1.7943672-.242939.8272233-.465889 1.6313827-.668851 2.4124783s-.384398 1.6267699-.544307 2.537023l-2.882981 13.2109708c-.405923 1.8143559-.750343 3.5871969-1.03326 5.3185229-.282916 1.731326-.625799 3.4626522-1.028647 5.1939782.08132.15347.028694.343733-.119932.4336-.148456.094953-.240066.257431-.244477.4336h.119932c-.391949.572398-1.068203.881238-1.757465.802622-.76572-.039977-1.471474-.059966-2.117261-.059966-.197621-.037547-.35975-.178529-.424375-.369021-.056429-.188379-.161424-.358598-.304443-.493567-.080052-.702856-.039492-1.414221.119932-2.103422.1647-.721661.033456-1.4792241-.364409-2.103423-.109941-.0114227-.214152-.0547102-.29983-.1245448-.119932-.0784171-.226025-.0415149-.304442.1245448-.664765.795684-1.010017 1.810069-.968682 2.846079l.119932-.124545-.119932.124545c.042852.057062.060669.129091.049361.199551-.011309.070459-.050771.133296-.109327.174083-.122599.081577-.192809.221996-.184511.369021-.037648.600964-.413156 1.128462-.968681 1.360767-.742151.249126-1.534066.31248-2.306385.184511-.762793-.121535-1.538306-.141698-2.306384-.059966-.712003.013075-1.350371-.436769-1.577567-1.111677-.158261-.47924-.239229-.980617-.239864-1.485312-.001408-.497578.038709-.994406.119932-1.485312.322894-3.8747257.665776-7.6879482 1.028647-11.4396671s.747269-7.6064564 1.153193-11.5642123c.084102-.2812299.12455-.5737007.119932-.8672006.001092-.3341322.041344-.6669848.119932-.9917454.084839-.4299687.146432-.8641994.18451-1.3008009.035575-.4449369.138216-.8819382.304443-1.2961881-.146507-.0912534-.200292-.2785079-.124545-.4336003.078417-.1245448.041515-.2260257-.119932-.3090555.206279-.1874273.299085-.4693467.244477-.7426559.318281-2.1449376.645788-4.3083263.968682-6.4901661.322893-2.1818399.604272-4.3913563.848749-6.614711.161447-.0830299.198349-.1845108.119932-.3090555-.076599-.1539546-.024894-.340891.119932-.4336003.078417-.659626.202962-1.3607669.364409-2.1034228.16341-.698061.121764-1.4284599-.119932-2.1034227-.148148-.066649-.274465-.173778-.364409-.3090555-.118374-.1479421-.279429-.2558491-.461277-.3090556-1.191139-.0828667-2.387206-.0628036-3.574896.059966-1.14959.125468-2.31042.1053201-3.454964-.059966-.08303-.1660597-.142996-.2075746-.179898-.1245447-.036902.0830298-.106094.0830298-.184511 0-.066581-.1493208-.171647-.278266-.304443-.3736343-.131391-.0937196-.234991-.2212278-.29983-.3690216-.009693-.5174666-.229507-1.0087181-.608885-1.3607669-.398373-.4018491-.652947-.9239686-.724205-1.4853116.164769-.3470506.246871-.7275632.239864-1.1116774-.041951-.429616.206786-.8347564.608886-.9917454.802924-.2467034 1.642762-.351293 2.48167-.3090555.787746.0586881 1.573536-.136951 2.241805-.5581451.08987-.1010105.134825-.2342103.124545-.3690215v-.3690215c-.280514-.3085694-.676257-.4872385-1.093226-.4935663-.377681.0062813-.751244-.0791949-1.088614-.2490896l-.124544.1245448c-.055988-.1501428-.199555-.2495355-.359796-.2490895v.1245447c-.096522-.011949-.172562-.0879893-.184511-.1845107-.041515-.1245448-.101481-.1014809-.179898.059966 0-.1660597 0-.2029619-.059966-.1245448s-.106094.0830299-.184511 0c-.910989-.471115-1.440102-1.4524444-1.33309-2.4724443.162984-.9071779.284454-1.8758594.364408-2.9060445.076519-1.0117933.457655-1.9766944 1.093227-2.7676615.05549-.0801347.142981-.1322931.239864-.1429958.094744-.0075935.182634-.0523677.244477-.1245448 1.439985-.2405863 2.899541-.3440681 4.359066-.3090555 1.374606.0430525 2.87068.0230638 4.488225-.059966h3.150521c1.094987.0026176 2.188493-.0806677 3.270453-.2490896.402811.1661402.845753.2094714 1.273125.1245448.417169-.0733229.844444-.0670625 1.259286.0184511zm1.937363 17.8099016-.244477-.3736343c-.198024-.1113689-.437919-.119161-.642753-.0208775s-.348861.2902897-.385895.5144438c-.078082.4127917-.266131.7968565-.544306 1.1116774-.08303.4151492-.179898.8441368-.304443 1.3008009-.13005.4180872-.012111.8737605.304443 1.1762561.161447.1660597.304442.1845108.424374.059966l.304443-.3090555c.896293-.9121158 1.301096-2.1985666 1.088614-3.4595769zm48.720067-17.6715186c.380909-.048295.766608.0399582 1.088614.2490896h.119932v.1245447c.161447-.0830298.244477-.0830298.244477 0h.239864c.645787.0830299 1.351541.1429959 2.121874.1845108.81725.0794464 1.508528.6382743 1.757465 1.4207329.161993.6917841.161993 1.4116387 0 2.1034227-.164077.6889745-.244611 1.3951966-.239864 2.1034228-.339749 1.1654422-.504531 2.3748801-.488954 3.5887344-.169576.7537481-.720537 1.3641777-1.453022 1.6098564-.443446.1652501-.927753.1862367-1.383831.059966-.471971-.1547108-.981713.0920042-1.153192.5581451l-.119932-.1245448c-.189414.1448492-.28199.3834109-.239864.6181111.257874.2578939.574436.4494139.922554.558145.364408.1245448.705753.2490896 1.028647.3690216.318463.119999.626941.264984.922554.4336003.313133.2273387.476135.6082662.424375.9917453.07804.1838756.055353.3950436-.059966.5581451-.119932.2075746-.101481.3505704.059966.4336003h-.119932v-.1568342h.119932c-.017389.2071181-.101565.4029887-.239864.5581451-.153487.1941591-.316679.3804446-.488954.5581451-.451208.4287217-1.081971.6126228-1.692886.4935663-.577823-.1062663-1.174565-.0187008-1.697499.2490895l.239864.1245448-.239864.1245447c0-.078417-.08303-.1245447-.244477-.1245447l-.119932.1245447h.119932c-.361781.1633655-.771753.1847697-1.148579.059966-.337636-.1254891-.712409-.1037389-1.033261.059966-.046212-.0823645-.124087-.1422561-.215555-.1657763-.091467-.0235202-.188574-.008624-.268785.0412316-.192562.0845017-.411712.0845017-.604273 0-.759037-.0184001-1.516061.0859632-2.241806.3090555l-2.001942.6780771c-.162269.1670801-.34518.3127884-.544307.4336003-.221034.1428294-.40707.3335957-.544306.558145-.644948.4951374-1.061148 1.230979-1.153193 2.038844-.125494.8076229-.062342 1.6333332.184511 2.4124783.06789.4728253.255228.9205298.544307 1.3008009.284977.3768412.548329.7695585.788783 1.1762561.259487.1852974.484331.4148253.664239.6780771.200039.2858306.423779.5543187.668852.8026218.033959.0050704.068272-.006607.092088-.0313395.023817-.0247325.034191-.0594617.027844-.0932053.041326.2438386.171062.4638962.364408.6181111h.101481c1.072302 1.1777274 2.083813 2.4094004 3.03059 3.6902153.954441 1.2922068 1.730229 2.7072447 2.306384 4.2068455.161447.4151492.304443.8256856.424375 1.2362221s.262928.8256857.424375 1.2362221c.321264.7323015.525187 1.5106324.604273 2.3063846.079174.7748839.200826 1.5448372.364408 2.3063846-.083558.1975652-.083558.4205459 0 .618111.07826.2413668.07826.5012891 0 .7426559.208787 2.5359704-.207774 5.0844379-1.213158 7.4219455-.096531.5411767-.280362 1.0630708-.544307 1.5452777-.263984.4957321-.486167 1.0126159-.664239 1.5452777-1.229007 2.2493419-2.691645 4.3628994-4.363679 6.3056554-.309656.0742469-.586611.2475465-.788784.4935663-.191216.236274-.414836.4443651-.664238.6181111-.593567.3725798-1.160744.7856329-1.697499 1.2362221-.490991.4177174-1.01903.7898154-1.577568 1.1116774l-.119931-.124545c-1.458469.863079-3.004797 1.568204-4.61277 2.103423-1.658354.568716-3.353657 1.023366-5.074046 1.360767-.612141.027407-1.220489.110784-1.817431.249089-.287418-.085981-.59815-.040385-.848749.124545.004346-.033351-.006705-.066869-.030035-.091095-.023329-.024227-.056406-.036534-.089897-.03345-.08303.16606-.161447.184511-.244477.059966-.08303-.124544-.161447-.142995-.239864-.059966h-4.243748c-1.435756.003597-2.864185-.204683-4.239134-.618111-.690921-.366858-1.21322-.986675-1.457636-1.729788-.069454-.50272-.005833-1.014865.184511-1.485312.198779-.556446.219734-1.1609121.059966-1.7297882l-.484341-.9871326c-.161264-.353014-.161264-.7586635 0-1.1116774.07688-.4120741.136846-.719592.179898-.9225538.068832-.2788111.171051-.5482991.304443-.8026219.078066-.3270414.138122-.6581211.179898-.9917453.05599-.3815411.158223-.7548465.304443-1.1116774.396428-.5340658 1.033177-.8351375 1.697499-.8026218.645788.0415149 1.291575.059966 1.937363.059966.276525-.0440145.5086-.2321354.608886-.4935663-.136615-.3827768-.42063-.6950262-.788784-.8672006-.364409-.1660597-.710366-.3275066-1.028647-.4935663l-.728818-.4935663c-.26497-.1882532-.473829-.4449433-.604273-.7426559-.117485-.2207398-.037694-.4948937.179898-.618111.226942-.1060409.416635-.2780502.544307-.4935663.382722-.1623285.805437-.2057252 1.213158-.1245448.414715.0860631.820766.2095766 1.213159.3690215.158196-.0827404.351099-.0588571.48434.059966.13021.1090184.291803.1736555.461277.1845108.851912.2573996 1.723606.444081 2.606215.5581451.906097.1255452 1.826446.1053006 2.726146-.059966.384211-.1615486.796376-.2461756 1.213159-.2490896.454262.0123707.892813-.166732 1.208545-.4935663.133393.0100824.265091-.0349284.364409-.1245447.099594-.0891454.231086-.1340856.364409-.1245448.10561-.0179095.195464-.0870279.239864-.1845108.04594-.0981685.137473-.1672502.244476-.1845107.133472-.0619968.256427-.1444857.364409-.2444768l.239864-.2490895c0-.0784171.08303-.1245448.244477-.1245448.397829-.1614251.736126-.4417281.968682-.8026218.242421-.3696319.444977-.7639202.604272-1.1762562.648543-1.3181349.693973-2.8526522.124545-4.2068454l-.124545-.2444768c-.31549-.8944866-.809882-1.7153334-1.453022-2.4124782-.669408-.72075-1.399359-1.3827988-2.18184-1.978878-.808772-.6150359-1.596018-1.2300718-2.361738-1.8451077-.747168-.5963119-1.419375-1.2809098-2.001941-2.0388439-.562758-.8241481-1.188557-1.6698225-1.877397-2.5370231-.655432-.8123593-1.204197-1.705265-1.632921-2.656955-.08303 0-.106093-.0645788-.064578-.1845108.041514-.119932 0-.1845107-.059966-.1845107-.750861-1.5580005-1.320422-3.1970334-1.6975-4.8849226-.397531-1.6805054-.51905-3.4144866-.359796-5.134012-.002711-.894243.097899-1.7858054.29983-2.656955.202143-.8633884.465743-1.7112232.788784-2.5370231.064181-.6157387.271085-1.2080228.604273-1.7297884.333543-.5180777.617707-1.066328.848749-1.6375331.392902-.6361684.817822-1.2519957 1.273125-1.8451076.45615-.5924935.881102-1.2083652 1.273124-1.8451077.305731-.1495766.559599-.3873764.728817-.6826898.168044-.2934543.420342-.5296818.724205-.6780771.913133-.9275959 1.885387-1.7950747 2.910657-2.596989 1.001735-.7957729 2.100725-1.460747 3.270454-1.978878l.119932-.1245447h.124545c1.787885-.856361 3.653852-1.5391074 5.572225-2.038844 1.900281-.5148725 3.850364-.824164 5.816702-.9225538.544852.0815179 1.100102.0611848 1.637533-.059966.541385-.1268053 1.106872-.1060973 1.637533.059966h1.453022c.524924-.0059003 1.049452.0311252 1.568341.1107064zm57.987121 12.6159237c.199887 3.5456818.301368 7.0913637.304443 10.6370456.15551 1.5617229.195597 3.1327904.119932 4.7004118-.0822 1.4845517-.042087 2.9733504.119932 4.4513222l-.119932.2490895c.078026.9203826.098054 1.8447632.059966 2.7676615-.043052.8641254-.063041 1.7866793-.059966 2.7676615-.08366.1324273-.08366.301173 0 .4336003.07941.133626.07941.2999743 0 .4336003-.08303 4.2068455-.184511 8.2045787-.304443 11.9931998s-.259852 7.7509897-.419762 11.8871061c-.082464.4488375-.122618.9044246-.119932 1.3607669.002768.4563454-.037386.9119404-.119932 1.3607664.161447.08303.161447.184511 0 .309056s-.166059.226026 0 .309056c.16163.206569.135408.503079-.059966.678077-.19309.167839-.265934.43554-.18451.678077-.085667.173767-.187604.339027-.304443.493566-.13755.177788-.328229.307062-.544307.369022-.416536.180294-.901364.080748-1.213158-.24909-.414884-.223137-.687757-.642007-.724205-1.111677-.244477-.327507-.525856-.327507-.848749 0-.188211.367509-.434291.702365-.728818.991745-.278082.309246-.672761.488189-1.088613.493566.004345-.033351-.006706-.066869-.030035-.091095-.023329-.024227-.056406-.036534-.089897-.033449h-.364409c-.815136-.00036-1.628111-.083822-2.426317-.24909-.803995-.167118-1.641198.012043-2.306384.493566h-.461277l-.119932.24909c-.08303 0-.08303 0 0-.059966s.078417-.101481 0-.184511c-.161447.16606-.285992.207575-.364409.124545s-.202962-.041515-.364409.124545c-.290549-.178432-.628099-.265231-.968681-.24909-.350784-.001644-.677-.180369-.867201-.475115-.083616-.254505-.185358-.502692-.304443-.742656l-.29983-.618111c-.16184-1.436595-.243458-2.8810957-.244476-4.3267775 0-1.3992067-.039978-2.6769437-.119932-3.8332112-.0395-.3658728-.309094-.6652146-.668852-.7426558-.3286-.0643419-.641788-.1911831-.922554-.3736343-.906794.0835693-1.819352.0835693-2.726146 0-.885845-.0751413-1.777162.0526405-2.606215.3736343-.230757.2412115-.524977.4123071-.848749.4935663-.301911.073647-.588977.1984585-.84875.3690215-1.374605.0830298-2.767661.1030185-4.179169.059966-1.3957-.041582-2.792564.0200897-4.179169.1845108-.216445.2292056-.488008.3991309-.788783.4935663-.327936.127725-.576024.403188-.668852.7426558-.562758 1.157805-1.130128 2.3063846-1.692886 3.4641896-.562758 1.1578052-1.176256 2.3063842-1.845108 3.4641892-.220265.229587-.462866.436648-.724204.618112-.262504.181792-.506604.388813-.728818.618111l-.119932-.124545c0-.078417-.08303-.078417-.244477 0l.244477.249089h-.364409c-.004346-.033351.006705-.066869.030035-.091095.023329-.024227.056406-.036534.089897-.033449.08303 0 .041515-.041515-.119932-.124545-.207232.159857-.480261.206514-.728817.124545-.314252-.092595-.641228-.134634-.968682-.124545-.239864-.078417-.525855-.184511-.848749-.309056-.292832-.130644-.636585-.055915-.84875.184511-.152623.244791-.441866.368226-.724205.309056-.281418-.037382-.56487-.057409-.848749-.059966-.419168-.089065-.800819-.304851-1.093226-.618111-.310999-.327811-.793271-.427211-1.208546-.24909-.530224.354027-1.0999.645057-1.697499.867201-.606084.25324-1.301833.157884-1.817431-.24909-.159966-.242452-.34219-.46946-.544307-.678077-.206207-.215133-.3161-.50485-.304443-.802622.064355-.44612.186867-.881889.364409-1.296188.161447-.369022.322894-.761107.484341-1.1762561h.147609c.507945-1.3719741 1.094745-2.7134506 1.757465-4.0177219.68884-1.3623045 1.314639-2.7461353 1.877397-4.1514923 1.614469-3.1336078 3.128995-6.2672157 4.543577-9.4008235 1.414583-3.1336078 2.970624-6.2257008 4.668123-9.2762787 1.937363-3.7086664 3.936229-7.4188704 5.9966-11.130612 2.06037-3.7117416 4.182244-7.3804306 6.365621-11.0060672 1.37153-2.4601435 2.784575-4.8926105 4.239135-7.2974008s2.949097-4.7542274 4.483611-7.0483112c.107561-.1183777.230058-.2222671.364409-.3090556.135147-.0857129.25778-.1897182.364409-.3090555h1.088614v.0968682c.190034-.0878685.415413-.036732.548919.1245447.136628.1797401.32747.3107419.544307.3736343.464969.1897423.999043.0659258 1.33309-.3090555.341352-.3826112.753251-.6958424 1.213158-.9225538.488951.1602404 1.01289.1810063 1.512989.059966.456811-.1196259.939079-.0987276 1.38383.059966.08303-.0830299.138383-.0830299.184511 0 .026227.0764275.09913.1268993.179898.1245447.388555-.0063095.761856.1510464 1.028648.4336003.274717.2893349.726916.3155786 1.03326.059966l.724205-.618111c.363755-.1619088.774606-.183273 1.153192-.059966.376887.1243497.78669.1029544 1.14858-.059966.435249.1858465.82774.4590197 1.153192.8026218.354211.3524631.58826.8076466.668851 1.3008009.17221 3.6348621.358259 7.2251341.558145 10.7708159zm-16.965765 19.9133244c-.005858-.1057734-.054267-.2046752-.134207-.2741878-.079939-.0695127-.184605-.10372-.290167-.0948338-.212668.2392807-.458024.4473676-.728818.6181111l-2.66618 4.7004118c-.888727 1.5683415-1.777454 3.0936305-2.666181 4.575867-.263251.5212644-.571965 1.0182941-.922554 1.4853116-.365801.5015154-.55701 1.1091701-.544307 1.7297884-.010596.0670932.010865.1352743.057981.1842019.047115.0489275.114438.0729453.181883.0648877.161205.0060623.318928.0486477.461277.1245447.973295 0 2.080359 0 3.335032.059966 1.254674.059966 2.361738.059966 3.33042.059966.488672-.0262309.927151-.3086116 1.153192-.7426558.205995-.4303451.289007-.9092619.239864-1.3838307-.039977-.4951039-.099943-.9902078-.179898-1.4853117-.083766-.407817-.083766-.8284051 0-1.2362221-.003238-.2073198-.023293-.414035-.059966-.6181111-.031288-.1629516-.051324-.3278633-.059966-.4935663l-.119932-.1245448.119932-.1245447v-.1153193c0-.0830298-.041515-.0830298-.119932 0l.119932-.3736343c-.148895-.329425-.190836-.6972215-.119932-1.0517113.066271-.3126731.022264-.6386464-.124545-.9225538v-.7426559c.005942-.3301079-.014108-.6601714-.059966-.9871326-.041515-.2490895-.101481-.5350812-.179898-.8672006.162985-.0830298.162985-.2075746 0-.3736343.083396-.0359934.144288-.1100311.163508-.1988065.019219-.0887753-.005598-.1813686-.06664-.2486321-.120542-.154041-.143754-.3629495-.059966-.539694-.005344-.208725-.025382-.4168145-.059966-.6227238zm.844137 16.5091007c-.160895-.1106283-.349305-.174496-.544307-.1845107-.341211-.1610107-.731782-.1825253-1.088613-.059966-.355054.1336257-.720763.2370119-1.093226.3090555-.078417-.0830298-.138383-.059966-.179898.059966-.011476.0950443-.085175.1706328-.179898.1845108.004631.034243-.006993.0686844-.031427.0931183s-.058875.0360575-.093118.0314264c-.078417 0-.041515.0830299.124545.2490896h.119932v.2490895c.419991.2530587.894528.4017469 1.38383.4336003.462018.0436998.927891.021959 1.383831-.0645788.346035-.1363671.541607-.5040435.461277-.8672006-.001888-.1852768-.101989-.3556248-.262928-.4474386zm36.902153-48.8953529c.162985-.0799547.264466-.0184511.304443.1845107.014738.0975279.067906.1850966.147638.2431625.079733.0580659.179392.0817956.276737.0658931.251309.2896348.32065.6950133.179898 1.0517113-.117223.3382082-.137987.7023709-.059966 1.0517114l-.119932-.2490895c-.006081.2930571-.047905.5842769-.124545.8672006-.096372.2518064-.048701.5360649.124545.7426558-.16606.1660597-.041515.4612769.364409.8672006.397829-.1614251.736126-.4417281.968681-.8026218.240534-.3707285.442987-.7648161.604273-1.1762562.243551-.575756.527163-1.133731.84875-1.6698224.334462-.541418.943016-.8510332 1.577567-.8026218.401152.1663039.842675.2096534 1.268511.1245447.476131-.0723025.962797.0152975 1.383831.2490896l-.124545-.1245448c.412702.0883277.712841.4454546.728818.8672006l-.119932-.1245448c.162055.5243839.162055 1.0854727 0 1.6098565-.162917.5670807-.284703 1.1451779-.364409 1.7297884.097175.2782328.137946.5730374.119932.8672006.033959.0050704.068272-.006607.092088-.0313395.023817-.0247325.034192-.0594617.027844-.0932053v-.1614469c-.080626.6616695-.038404 1.3325383.124545 1.978878.161542.6497355.161542 1.3291424 0 1.978878-.409313.7539499-.695824 1.5683272-.84875 2.4124782-.16606.8672006-.364409 1.7528523-.608885 2.6615678-1.451485 6.0181262-2.844541 12.1192822-4.179169 18.303468s-2.444768 12.2438269-3.33042 18.1789232c-.011594.398303-.073591.7935336-.18451 1.1762561-.120587.4572564-.00654.9445501.304442 1.3008009.148262-.0087221.278528.0974943.29983.2444768.039978.1660597.141459.1660597.304443 0 .295513.1625589.641659.2070634.968682.1245448.368346-.0765686.751541-.0329134 1.093226.1245447.078417-.1660597.161447-.2029618.239864-.1245447.099318.0896163.231016.1346271.364409.1245447.186131-.1549831.439411-.2021455.668851-.1245447.171527.0767648.356465.1190812.544307.1245447.484341 0 1.010196 0 1.572954-.059966.566342-.0412061 1.135477-.0211008 1.697499.059966.087835-.145183.272013-.1992352.424375-.1245447.125143.0844698.273431.1279891.424375.1245447 1.614469.0830299 3.13207.1060937 4.543577.059966 1.518459-.0369998 3.037719.0246334 4.548191.1845108.328891.1466347.584774.4196756.709786.7573791.125011.3377035.108591.7115455-.045547 1.0369881-.248252.6112556-.391719 1.2599765-.424375 1.918912.004274.6520889-.25918 1.2773744-.728818 1.7297884-.465686.4472805-.690149 1.0898287-.604272 1.7297884.134968.0361601.216717.1730894.18451.3090556-.046255.1054615-.022373.2285451.059966.3090555.437807.3067445.670296.8302879.604273 1.3607669-.08303.4935663-.161447.9917454-.244477 1.485312-.335959.80499-.520485 1.665065-.544306 2.537023-.030123.943776-.813383 1.687976-1.757466 1.669822-.298875-.159672-.652394-.181556-.968681-.059966s-.669806.099706-.968682-.059966c-2.020392-.079955-4.060774-.141458-6.121144-.184511-2.06037-.043052-4.059237-.023063-5.9966.059966-.619338.005487-1.23472-.099159-1.817431-.309055-.539709-.194112-1.066614-.42213-1.577567-.68269-.490808.085796-.950493.298937-1.333091.618111-.449355.341955-1.023156.476177-1.577567.369022-.885651 0-1.845107 0-2.906044-.059966-.970499-.042684-1.94274-.022653-2.910657.059966l-1.439184-.484341c-.483144-.162806-.819004-.602709-.84875-1.111678-.076607-.153401-.117603-.322115-.119932-.493566.011035-.247343-.161252-.465257-.404469-.511584s-.483547.092993-.564212.327073c-.132669.245258-.295368.473037-.484341.678077-.16606.24909-.322894.461277-.461277.68269-.174018.216777-.33572.44316-.484341.678077-.13282-.020578-.261226.057244-.304443.184511-.044734.126041-.172008.203177-.304442.184511-.256465.01853-.512065-.046179-.728818-.184511-.161447-.124545-.359796-.26754-.604273-.4336-.243252-.757698-.304878-1.561988-.179898-2.3479.119932-.825685.221413-1.6098561.29983-2.3478992.405924-2.9675481.850287-6.0181261 1.333091-9.151734.482803-3.1336078.968681-6.1426709 1.457635-9.0271892-.082208-.3226218-.124043-.6542021-.124545-.9871326.007835-.3064602-.07566-.6083259-.239864-.8672006l.119932-.2490895c-.162112-.8976648-.202452-1.8130887-.119932-2.7215338.07281-.8717963.194471-1.7388215.364409-2.596989.307518-2.1526256.615036-4.2345221.922553-6.2456895.307518-2.0111673.650401-4.0930638 1.028648-6.2456894.399773-2.3894144.804159-4.7603778 1.213158-7.11289.408999-2.3525123.853363-4.721938 1.333091-7.1082773.006006-.4591024.066393-.9158759.179898-1.3607669.119932-.4951039.221412-.9902078.304442-1.4853116.162985-1.1531923.34442-2.2464186.544307-3.2796789.218729-1.0756636.52733-2.1310773.922554-3.1551341.328373-.2495794.673617-.4761459 1.03326-.6780771.357418-.2045833.745132-.3509491 1.14858-.4336003.686482.0821852 1.381362.0619761 2.061908-.059966.699678-.1123161 1.363247-.3872229 1.937363-.8026218.362834-.1572642.759403-.2207152 1.153192-.1845108.383605.0414901.77138.0212448 1.148579-.059966.113567.1481433.300993.2195436.484341.1845108.129872-.0206903.257771.0470205.313668.1660597zm45.809411-.2490896c.644159.0767806 1.148521.5907313 1.213158 1.2362222.163496.2785072.206785.6115012.119932.9225538-.06588.3266708-.189267.6390413-.364409.9225538-.485878 1.8143559-.947155 3.6071855-1.38383 5.3784889-.461277 1.7713033-.867201 3.6071854-1.273125 5.5030336-.157019.3939152-.178122.8289588-.059966 1.2362221.119932.3321194.262928.7426558.424375 1.2362221l.119932.9917454c-.005701.1917938-.046344.3809385-.119932.5581451-.083886.1765925-.083886.3815525 0 .558145l-.119932-.2490895c-.242939 1.0732376-.550457 2.1864526-.922554 3.3396448-.358872 1.1307675-.622716 2.2895214-.788783 3.4641897l-.119932.1245447c-1.780529 6.7653948-3.33657 13.6092066-4.668123 20.5314355-1.331552 6.9222289-2.561624 13.9720778-3.690215 21.1495461-.216047.31064-.459999.600912-.728817.867201-.290991.312682-.670995.528447-1.088614.618111-.487802.166288-1.009215.209079-1.517601.124545-.500433-.079896-1.006227-.121532-1.512988-.124545-1.086627.666933-2.388864.888379-3.634862.618111-.530742-.132901-.975131-.494494-1.213159-.987132-.249089-.540883-.313906-1.148534-.18451-1.729789.097923-.251593.080726-.533456-.047059-.771278s-.353333-.407735-.61718-.464944c-.621337.218535-1.067116.767734-1.153193 1.420733-.11796.698719-.538266 1.309766-1.148579 1.669822-.227252.20162-.496777.34978-.788784.433601-.298909.134432-.645288.110185-.922553-.064579-.173552-.005005-.332985-.096852-.424375-.244477-.130054-.173994-.271842-.3389-.424375-.493566-.164995-.762504-.144429-1.553485.059966-2.306385.192323-.705402.294616-1.4323046.304443-2.1633885.239864-2.1526256.502792-4.2960256.788783-6.4302002.285992-2.1341745.507405-4.2775746.664239-6.4302002-.006208-.1917319-.046831-.3807867-.119932-.558145-.093781-.191412-.0442-.4221524.119932-.5581451-.077889-1.177883-.015954-2.3608462.184511-3.5241556.199887-1.1931696.341345-2.4094031.424375-3.6487004.156834-1.8112807.398235-3.7286551.724204-5.7521231.325969-2.0234681.608886-3.8993276.84875-5.6275784.395142-1.522611.678809-3.0719911.848749-4.635833.174986-1.6041538.458553-3.194595.84875-4.7603778.159909-1.4853116.381322-3.0106006.664239-4.575867.282916-1.5652663.590434-3.1320702.922554-4.7004117l-.119932-.1245448h.119932c.083029 0 .124544-.0830298.124544-.2490895.165447-.4366361.266449-.8950316.29983-1.3607669.034137-.4819738.176006-.950142.41515-1.3699924.162984-1.2300718.365946-2.4047904.608885-3.5241557.239864-1.1116773.484341-2.2464186.724205-3.3996108.095162-.5136429.40359-.9628759.848749-1.2362222.417926-.2922845.864606-.5411272 1.333091-.7426558.078417.1660597.202961.1660597.364408 0 .510302.2413176 1.086327.3062218 1.637533.1845108.54512-.1179632 1.113097.044811 1.512989.4336003.226528.3024711.469849.591993.728817.8672006v-.1291576c0 .1660597.036902.2306385.119932.1845108.147092-.0150054.289442.0570706.364409.1845108.014077-.0659065.054737-.1230787.112371-.1580086.057634-.03493.127132-.0445193.192072-.0265022.119932.0430525.179898-.0184511.179898-.1845108v.1245448c.239841.0019848.4655-.1134282.604273-.3090555.188143-.2213441.444522-.3738733.728817-.4336003.379411-.0250749.757859.061519 1.088614.2490895.143317.1259017.23117.3032663.244476.4935663.010753.1909831.099069.3692814.244477.4935663-.317311.3848535-.366721.9247061-.124545 1.3607669.161447.4151492.405924.4612769.728818.1245448l.424375-.4336003c.131205-.1550551.195861-.3556553.179898-.5581451.391257-.4636248.662179-1.0165591.788783-1.6098564.100468-.5622839.582205-.9765775 1.153192-.9917454.591693-.1608246 1.209332-.2031501 1.817431-.1245448.601958.0858241 1.209393.1274503 1.817432.1245448h.461276zm19.37363 0 1.213159.1245448 1.213158.8672006c-.001389.3342811.038899.6674315.119932.9917454.075966.3740443.034064.7624423-.119932 1.1116773.0757.676832.095756 1.3587329.059966 2.038844-.041501.6385454-.021419 1.2796033.059966 1.9142992.001447.2901509-.018596.5800105-.059966.8672006-.046699.2071437-.025679.4238067.059966.6181111.076879 1.5683415.116857 3.1766603.119932 4.8249565-.001467 1.5700192.080139 3.1390164.244477 4.7004118.076879 2.5554741.176822 5.1324744.29983 7.731001.123007 2.5985267.30598 5.0586702.548919 7.3804307.09845.1116525.179331.2376402.239864.3736343.058085.1499256.203655.2475866.364409.2444768.161278-.0055761.319109-.0481906.461277-.1245448l.484341-.2490896c.237884-.3959851.382973-.8407148.424374-1.3008009.037429-.4461383.139999-.8843894.304443-1.3008008.885652-2.8845184 1.734401-5.7905629 2.546249-8.7181337.811847-2.9275709 1.659059-5.8336154 2.541635-8.7181337.405924-1.4822365.850288-2.9875368 1.333091-4.515901s.927166-2.9921496 1.33309-4.3913563l.608886-1.5452776c.164748-.5374422.565509-.9704685 1.088613-1.1762561 1.04882-.1311484 2.023345-.6102898 2.767662-1.3607669.537123-.4056087 1.221556-.5632967 1.882009-.4336003.619079.1171283 1.247361.1788759 1.877397.1845107 1.108143.0823007 2.220033.1023208 3.33042.059966 1.111942-.0405124 2.225265-.0204941 3.335032.059966.357167-.024261.693187.1711419.848749.4935663.135921.298208.289968.5878164.461277.8672006.00175.2314517-.038897.4612675-.119932.6780771-.100586.2613483-.182288.5295777-.244477.8026218-.109242.4707427-.315007.9136857-.604272 1.3008009-.32636.4173512-.32636 1.0033818 0 1.4207329.239864.1660597.461277.3505705.724204.5581451.238506.1972112.372919.4932599.364409.8026218.062431.5762714-.103134 1.154093-.461277 1.6098564-1.051711 2.3924896-2.041919 4.8034303-2.970623 7.2328221-.928704 2.4293917-1.877397 4.8403324-2.846079 7.232822l-4.188394 10.9830033c-1.131666 3.4626521-2.261794 6.8222856-3.390385 10.0789006s-2.178765 6.6162486-3.150522 10.0789006l-.304442.6181111c-.116521.1849918-.138755.4141713-.059966.618111-.170766.9195525-.590358 1.7746926-1.213159 2.4724443-.642525.7330718-1.063282 1.6337807-1.213158 2.596989l-.119932-.1245447c-.307518 1.1562674-.570446 2.2079788-.788783 3.1551341-.218338.9471549-.479728 1.9988669-.784171 3.1551339.060887.389348-.075684.783501-.364409 1.051712-.250617.299753-.535473.569128-.84875.802621-.274209.087618-.560928.129691-.848749.124545-.262566.007266-.516728.094132-.728818.24909-.642671-.078199-1.291085-.098269-1.937363-.059966-.56737.041515-1.171643.059966-1.817431.059966-.435779-.048526-.863598-.152381-1.273124-.309056-.406567-.228112-.757798-.543117-1.028647-.922554-.156391-.150369-.262688-.345247-.304443-.558145-.044726-.211813-.150573-.405865-.304443-.558145.083789-.085981.083789-.223074 0-.309055-.067168-.09029-.108614-.197093-.119932-.309056-.174247-.292474-.545619-.399445-.84875-.244477-.166068.183647-.233088.43626-.179897.678077.043861.227184.023085.462117-.059966.678077.078136.155245.078136.338322 0 .493567-.082006.154303-.082006.339263 0 .493566-.155763.240149-.393451.415546-.668852.493566-.28025.081953-.546271.206407-.788784.369022-.161446-.16606-.281378-.184511-.359796-.059966-.078417.124545-.202961.101481-.364408-.059966-.209867-.006178-.418301.036456-.608886.124545-.161447-.078417-.38286-.184511-.664239-.309056-.273724-.115016-.506697-.309428-.668851-.558145-.567299-1.409233-.953249-2.884833-1.14858-4.3913562-.194483-1.4950605-.540689-2.9664338-1.03326-4.3913562-.562758-2.8014885-1.148579-5.6045145-1.757465-8.4090782-.608885-2.8045636-1.239297-5.6936947-1.891235-8.6673932-.079077-.1984497-.079077-.4196614 0-.6181111-.307518-1.8973857-.630412-3.7532565-.968682-5.5676123-.33827-1.8143559-.661163-3.6686891-.968681-5.5629996l-.119932-.2490895c-.244568-1.3079173-.244568-2.6498387 0-3.957756-.485879-3.050578-.910253-6.059641-1.273125-9.0271892-.362871-2.9675481-.747268-6.0181261-1.153192-9.151734-.162984-1.0701624-.284454-2.0803589-.364409-3.0305893-.078417-.9456177-.161447-1.9142992-.239864-2.9060446-.170016-.2119814-.193768-.5061425-.059966-.7426558.086835-.275002.231536-.528228.424375-.7426558.388492-.4080286.967348-.5739201 1.512988-.4336003.581747.1258748 1.185651.1052691 1.757465-.059966.182959.0021559.365267.0222406.544307.059966.201532.0427649.410323-.0280117.544307-.1845108l.244477.1245448c.70496-.0812005 1.416913-.0812005 2.121873 0 .704139.0841972 1.412721.1257878 2.121874.1245447.402931.1663413.787794.3734559 1.14858.6181111.359242.2409679.634847.5874877.788783.9917454.082965.3646522.123213.7377205.119932 1.1116773.152141.3771975.254484.7726116.304443 1.1762562.04078.3763862.30212.6921712.664239.8026218.322894.1660597.525856.1045561.608885-.1845108.060394-.2339707.14064-.4623622.239864-.6826898.16598-.7304423.208081-1.4835771.124545-2.2279675-.120089-.7294795.21367-1.4590078.844137-1.8451077.287143-.2387958.668848-.3308139 1.03326-.2490895.346617.0850023.712333.0407227 1.028648-.1245448.086361.1470834.272224.2016302.424374.1245448.169148-.0849342.367743-.0883289.539694-.0092255zm73.439898 0 .124545-.1245447c.911401.066402 1.707437.6411184 2.057295 1.4853116.075731.131196.097247.2867751.059966.4336003-.037783.146797-.016241.3025679.059966.4336003l-.119932-.1245447-.119932.2490895-.364409 3.6902153h.119932c.011082.4602525-.115833.9132895-.364409 1.3008009-.240371.3708229-.442815.7648936-.604273 1.1762562-.692013.9949105-1.726767 1.699529-2.906044 1.9788779.038491.1853469-.065964.3706068-.244477.4336003-.161447.0415149-.202962.1429959-.119932.3090556.075626.2939723.245812.554924.484341.7426558.212957.0140834.419771.0772328.604273.1845108.224413.1117606.429879.2580771.608885.4336003.127598.0551525.218101.1717621.239864.3090555.0812.209434.20533.3995572.364409.5581451.081441.6414755.040747 1.2925689-.119932 1.9189119-.16606.6150359-.319819 1.2546732-.461277 1.918912-.147749.0672792-.273908.1742744-.364409.3090555-.119924.1393554-.302093.2087531-.484341.1845108-.405923.0830298-.770332.1445334-1.093226.1845108-.372779.0351999-.748253-.0284397-1.088613-.1845108-2.343287-.0830299-4.605082-.1445334-6.785384-.1845108-2.180302-.0399773-4.362142-.1014809-6.545519-.1845107-.561872.082727-1.13119.1028387-1.697499.059966-.569106-.0409632-1.118861.2155892-1.453023.678077-.059176.206183-.163129.3967642-.304442.5581451-.12814.1580136-.151615.3765178-.059966.5581451h.119932c-.231597.1413588-.351108.4116374-.29983.678077.039881.2689674.017793.543491-.064579.8026218-.161447.0830299-.202962.1660597-.119932.2490896.098237.1110542.180521.2352556.244477.3690215.181162.1096336.394524.1536091.604272.1245448.255213-.261536.478211-.5526727.664239-.8672006.202962-.3275066.38286-.6365622.54892-.9225538.156052-.2831107.385509-.5189408.664238-.6826899.358289-.1741117.765992-.2181436 1.153193-.1245448l.119932.2444768v-.2629278c.328879.1041454.609022.3236729.788783.618111.119932.2444768.258315.5350813.424375.8672006-.082053.6307735-.236842 1.2499295-.461277 1.8451077-.080137.3222799-.202676.6325041-.364409.9225538-.170424.3237708-.254619.6859667-.244476 1.0517114-.161447.5765961-.341345 1.157805-.544307 1.7297884s-.38286 1.1947072-.544307 1.8451077v.7426558c-.119915.5719689.119114 1.1595066.604273 1.4853117h1.697499c.528183-.0031396 1.055435-.0447647 1.577567-.1245448.336987.1709535.710816.2564906 1.088613.2490895.407961.0083251.815399-.0335031 1.213159-.1245447.642467.0828203 1.289579.1244203 1.937363.1245447h2.061908c.376705.0254846.726641.2037851.968681.4935663.078417.1660597.161447.3505705.244477.5581451.078943.1776741.078943.380471 0 .5581451.078417 0 .059966.0830298-.064579.2490895-.092991.1057594-.155212.2349869-.179898.3736343.041231.0631184.051656.1415145.028354.2132147-.023303.0717002-.077825.1289883-.148286.1558068-.149776.0608438-.246854.2073765-.244477.3690216-.527432.2315049-.828399.7934373-.728817 1.3607669.023434.1915558.173163.3431801.364409.3690215v.1245448c.083029-.0830299.124544-.0415149.124544.1245447.321584.7861739.363914 1.6588363.119932 2.4724443-.088655 1.1496824-.557702 2.2370904-1.33309 3.0905553-.482114.2652199-1.027833.3928735-1.577567.3690216-.509066-.0130088-1.011854.1146831-1.453022.3690215-.646836.1668109-1.234555.5101794-1.697499.9917454-.466679.4900459-1.166977.6802284-1.817431.4935663-.946459-.0803752-1.897075-.1004044-2.846079-.059966-.922554.0430525-1.831269.0630411-2.726146.059966-.691031-.0660717-1.370425.2115487-1.817432.7426558-.38736 1.0939024-.712314 2.2089108-.973294 3.3396449-.239864 1.0701624-.525856 2.1864525-.848749 3.3396448-.075633.4837067-.196084.959332-.359796 1.4207329-.163728.4691037-.120118.9857143.119932 1.4207329.198728.1831565.454467.2922932.724204.3090555.281363.0379325.564849.0579614.84875.059966.127117.0777082.280703.0994106.424375.059966.137316-.0426671.280613-.0629156.424374-.059966.858004.1684889 1.736054.2104488 2.606215.1245448.906902-.0811893 1.819245-.0811893 2.726147 0 .254502-.0820013.524809-.1025509.788783-.059966.308413.0424813.622235.0220829.922554-.059966 1.048055.0824522 2.100088.1024762 3.150521.059966 1.053674-.0409145 2.108827.0208808 3.150522.1845108v.2490895h.124544c.162113.1693995.304482.3566454.424375.5581451.115792.2030262.256835.3905672.419762.558145-.162984.9225539-.34442 1.8082056-.544307 2.6569551-.199886.8487495-.381322 1.7344012-.544306 2.656955-.12832.3648754-.358903.6851304-.664239.9225538-.317532.3019208-.435627.758197-.304443 1.1762562.068865.385782.191531.7599906.364409 1.1116773.164292.3472124.24637.7276122.239864 1.1116769h-.285992c-.233187.529186-.376607 1.093514-.424375 1.669823-.06925.592974-.349169 1.141355-.788783 1.545278-.206405.13541-.367165.32993-.461277.558145-.113583.225041-.360187.350211-.608886.309055-.29978.084881-.613871.106868-.922553.064579-.35309-.02891-.707619.034682-1.028648.184511-1.130128-.078417-2.163389-.142996-3.090555-.184511-.927167-.041515-1.960427-.064579-3.090556-.064579-1.237714-.246498-2.509839-.266815-3.754794-.059966-1.25902.222514-2.54351-.22252-3.394998-1.176256-.405923-.16606-.645787-.16606-.724205 0-.367257.392733-.853542.653706-1.38383.742656l-1.632921.249089-.124544-.124544c-1.446963.16363-2.905123.205292-4.359067.124544-1.493419-.081774-2.990193-.081774-4.483612 0-.798095-.105144-1.508919-.55764-1.941976-1.236222h-.119932c.06586-.294073.023269-.60204-.119932-.8672-.078304-.617049-.037592-1.243388.119932-1.845108.156035-.5626402.196827-1.1509984.119932-1.7297884.338862-1.2524138.542981-2.5374396.608886-3.8332112.056456-1.2875755.210658-2.5690006.461277-3.8332111.161447-1.1531923.318281-2.3063846.461277-3.5241556.142996-1.2177711.322894-2.3663506.484341-3.5241557.162984-1.0701624.34442-2.1464752.544306-3.2289384.199887-1.0824631.381323-2.1587759.544307-3.2289384.163535-.3462378.227425-.7311742.184511-1.1116773-.04635-.380115.016028-.7655813.179898-1.1116774.405924-2.2264299.850287-4.5328145 1.33309-6.9191537.482803-2.3863393.967144-4.6542841 1.453022-6.8038345.033289-.5889293.387791-1.11182.922554-1.3607669.538306-.2628851 1.011093-.6426913 1.383831-1.1116774.307919-.622288.512035-1.2907292.604273-1.9788779.079149-.6667216.200867-1.3276973.364408-1.978878.078418-.2490895.161447-.5120174.239864-.8026218.06918-.3186659-.078966-.6449622-.364408-.8026219-.505264-.2504889-1.075954-.3375433-1.632921-.2490895-.587985.0847049-1.187301.0422337-1.757465-.1245448.004346-.0333509-.006705-.066869-.030034-.0910955s-.056406-.0365339-.089898-.0334492v-.0784171c-.083029.1660597-.142995.1845107-.18451.059966-.041515-.1245448-.142996-.1429959-.304443-.059966.08303-.1660597.08303-.2490896 0-.2490896h-.119932v.1107065c-.161447-.0784171-.202962-.1429958-.119932-.1845108.08303-.0415149.078417-.1429958 0-.3090555h-.119932c-.164798-.2854391-.164798-.6371147 0-.9225538.164906-.3248147.207474-.6981088.119932-1.0517114.081907-.262146.142076-.5305947.179898-.8026218.037278-.2725382.099032-.5411643.184511-.8026219h.161447c.006659-.0953098.049577-.1844475.119932-.2490895v-.2537023c.203762-.2733912.510359-.4516838.848749-.4935663.367576-.0533678.685156-.2846483.84875-.6181111-.009003-.1338577.033954-.2660324.119932-.3690215.087086-.1093212.087086-.264313 0-.3736343-.394778-.206886-.778188-.434776-1.14858-.6826898-.395618-.2050442-.650914-.6064756-.668851-1.0517114.005439-1.0207915.127704-2.0376059.364408-3.0305893.244477-1.0286475.461277-2.038844.608886-3.0305893.878465-.9566599 2.158962-1.4394143 3.450351-1.3008009 1.23225.128297 2.476909.066064 3.690215-.1845108.742888-.0881291 1.450996-.3643864 2.057296-.8026218.589862-.4412342 1.344289-.5998832 2.061907-.4336003h5.212429c.802622 0 1.691349-.041515 2.666181-.1245448 2.500121 0 5.104798-.0199887 7.814031-.059966s5.392327-.0184511 8.049282.0645788zm15.148334 48.7246805.119932.1245448c.078417-.1660597.18451-.1845107.304442-.059966.119932.1245448.262928.1060937.424375-.059966.608235-.0738124 1.224952-.0315501 1.817431.1245448.713044.1569863 1.352918.5483811 1.817431 1.1116774.555837.5207191 1.301697.7893621 2.061908.7426558.788384-.0780519 1.56268.2483333 2.057295.8672006-.081268.4576974-.081268.9261333 0 1.3838307.088336.4145892.04645.8463444-.119932 1.2362222.071175.1090307.092956.243064.059966.3690215-.039749.0869328-.014992.1897714.059966.2490895-.170603.1025391-.264655.2960689-.239864.4935663-.012811.1904339-.100753.3679773-.244477.4935663-.239864 1.4022818-.502791 2.8660673-.788783 4.3913563-.285992 1.5252889-.507405 2.9475594-.664239 4.2668114h.119932c-.162984 0-.22295.1245448-.179898.3736342.050561.165612.028781.344879-.059966.493566l.119932-.124544c-.18155 1.11159-.686985 2.144923-1.453022 2.970623-.107561.118378-.230057.222267-.364409.309056-.110099.076748-.195134.184245-.244477.309055-.370701.073122-.734789.176486-1.088613.309056-.358424.12234-.750334.100843-1.093226-.059966l-.119932.124544c-1.074283-.081668-2.152364-.101689-3.228939-.059966-1.085373.044831-2.171775-.059153-3.228938-.309055-.546023-.228106-1.010599-.61552-1.333091-1.111678.078418-.083029.078418-.124544 0-.124544-.078417 0-.124544-.08303-.124544-.24909h-.119932c.156118-.673485-.137808-1.371093-.728818-1.729788-.199197-.079426-.424571-.057061-.604273.059966l-.604272.309055c-.135473.366176-.342453.701736-.608886.987133-.004336.258566-.112369.50455-.29983.68269l-.548919.558145c-.175627.170463-.425856.23997-.664239.184511-.268095-.036834-.532168-.098606-.788784-.184511-.631056-.380346-.928065-1.137058-.724204-1.845108.148992-.733592.229294-1.479473.239864-2.2279674.084264-2.0303628.286026-4.0541428.604272-6.0611787.307518-2.0603702.550457-4.0807631.728818-6.0611786.172667-.205889.240743-.4798975.184511-.7426559-.058487-.2853212.059642-.5779174.29983-.7426558.313453-.7484963.967193-1.3010012 1.757465-1.4853117.736418-.1617015 1.487853-.2451942 2.241805-.2490895.866166.0826355 1.737165.1026762 2.606215.059966.89949-.1060937 1.766691-.1245448 2.656955-.1245448zm11.149063-66.2901054c1.087768-.0665128 2.119819.4870097 2.66618 1.4299585.078611.4021177.078611.8156533 0 1.217771-.08321.3907801-.08321.7947017 0 1.1854817-.001364.1875803-.021453.3745559-.059966.5581451-.007634.2627717.169127.495251.424375.558145.318027.1602171.701527.1109099.968682-.1245447.544292-.5336233.886643-1.239518.968681-1.9973291.084963-.7640831.604779-1.4098054 1.33309-1.6559841.282152-.3363241.754528-.4421364 1.153193-.2583151.419422.1754151.899322.1249908 1.273124-.1337703v.1337703c.401311 0 .848749 0 1.33309.0645788s.922554.0645788 1.333091.0645788l.239864.1291575c.171336-.08561.372969-.08561.544306 0 .172169.080272.359021.1242372.54892.1291575.59986.2990612 1.072778.8030701 1.33309 1.4207329.169119.5677154.148061 1.1751474-.059966 1.7297885-.23925.5157526-.423248 1.0553764-.548919 1.6098564-2.906045 9.2255383-5.552237 18.5833093-7.938576 28.073313s-4.506676 18.8062598-6.361009 27.9487683c-.32146.1619629-.629899.3485688-.922554.5581451-.307108.2179102-.658217.3659114-1.028647.4336003-.866732.083498-1.739483.083498-2.606215 0-.826794-.0807361-1.659488-.0807361-2.486282 0-1.130129 0-2.306385.0415149-3.450352.1245447-1.173677.0838165-2.351702-.0844728-3.454964-.4935663-.172845-.278503-.326945-.5682113-.461277-.8672006-.180831-.3618086-.342501-.7328805-.48434-1.1116773-.240952-.3269947-.583071-.5653431-.973295-.6780771-.401311-.1245448-.807234-.2675406-1.208545-.4336003-.376273-.1473959-.725446-.3562762-1.03326-.6181111-.314072-.3310141-.468922-.7821002-.424375-1.2362221.307518-2.0603702.615036-4.1207404.922554-6.1811107.307518-2.0603702.615035-4.122278.922553-6.1857234.645788-3.2965923 1.211621-6.4701775 1.697499-9.5207555.485879-3.050578 1.051712-6.1841858 1.6975-9.4008235.645787-2.9675482 1.231609-6.0427276 1.757465-9.2255383.520295-3.1516466 1.228854-6.2693082 2.121873-9.3362448.162985-.9071779.34442-1.7928296.544307-2.656955s.381322-1.7866793.544307-2.7676615c.090328-.3785541.212224-.7488717.364409-1.1070646.156092-.3863214.462428-.692657.848749-.8487495.25542-.4081319.751101-.5966038 1.213158-.4612769.473894.1275433.970232.1480271 1.453023.059966.906662-.0863988 1.819484-.0863988 2.726146 0 .864084.0745505 1.734434.0217078 2.583151-.1568342zm-434.541305-17.8468038c-35.3070847.35993085-63.6384972 29.2716427-63.28257996 64.5787681-.04037163 15.2486745 5.27340508 30.027667 15.01456356 41.7593989l-6.15343403 19.433597c-.27412398.821442-.07954039 1.726973.50783271 2.363294s1.47446922.902609 2.31518202.694972l23.7326973-6.254915c8.6474161 4.339237 18.1906847 6.59354 27.8657384 6.582421 35.6658687 0 64.578768-28.912899 64.578768-64.5787679 0-35.6658688-28.9128993-64.5787681-64.578768-64.5787681zm16.8550584 61.6588852-26.3481373 34.9832412c-.2148417.3151931-.627106.4271686-.971883.2639742-.344777-.1631945-.5195216-.5530209-.4119478-.9189874l6.3425576-26.3619757c.0521089-.2212235-.0062456-.4539813-.1565569-.6244563-.1503112-.1704749-.3739299-.257516-.5999372-.2335187h-7.4726861c-.2518376-.0268622-.4795462-.1619113-.623892-.3700172-.1443457-.2081059-.1910594-.4686962-.1279893-.7139836l7.6064563-31.2607365c.077786-.3593162.3849408-.6231301.7518814-.6457877h20.9511974c.2797556.0026953.536886.1542308.6747674.3976628.1378815.2434321.1356271.5418846-.0059158.7832061l-13.3770306 22.2335473c-.1382295.2394178-.1384465.5343431-.0005693.773964.1378771.239621.3929653.3876444.6694209.3884538h12.4821533c.3058242.0064129.5817517.1851363.7126577.4616019s.0942993.6031735-.0945467.8438118z" fill="#4e46c8"/></svg>