<svg height="388" preserveAspectRatio="xMidYMid" viewBox="0 0 256 388" width="256" xmlns="http://www.w3.org/2000/svg"><path d="m52.5566343 272c1.8122977 0 2.6407767.880259 2.6407767 2.640777v88.802589c0 3.262135-.6213593 6.420712-1.9158576 9.320388-1.2944984 2.899676-2.9514563 5.436893-5.1262136 7.61165-2.1747573 2.174758-4.7119741 3.883496-7.6116505 5.126214-2.8996763 1.242719-6.0064724 1.915858-9.3203884 1.915858h-7.2491909c-3.2621359 0-6.4207119-.62136-9.3203883-1.915858-2.8996764-1.242718-5.43689322-2.951456-7.6116505-5.126214-2.17475729-2.174757-3.88349515-4.711974-5.1262136-7.61165-1.29449838-2.899676-1.9158576-6.006473-1.9158576-9.320388v-20.349514c0-1.812299.82847896-2.899678 2.48543689-3.417477l17.29449841-4.556634c1.6569579-.5178 2.4854369.10356 2.4854369 1.915858v25.475728c0 1.294498.4142394 2.330097 1.3462783 3.210356.8802589.880259 1.9676375 1.346278 3.210356 1.346278h1.5533981c1.2427183 0 2.330097-.414239 3.2103559-1.346278.8802589-.880259 1.3462783-1.967638 1.3462783-3.210356v-87.81877c0-1.812298.880259-2.640777 2.6407767-2.640777.05178-.05178 16.9838188-.05178 16.9838188-.05178zm73.9417467 111.430421c.2589 1.812297-.517799 2.640776-2.278316 2.640776h-17.294498c-1.656958 0-2.588998-.880259-2.847897-2.640776l-1.553398-18.588997h-11.8058254l-1.5533981 18.588997c-.2588997 1.812297-1.2427185 2.640776-2.8478964 2.640776h-17.2944984c-1.8122978 0-2.5372169-.880259-2.2783172-2.640776l14.2912621-108.737864c.2588997-1.812298 1.2427185-2.640777 3.0550162-2.640777h25.1132682c1.812298 0 2.796117.880259 3.055017 2.640777zm-25.475727-39.92233-3.5728159-42.045308h-1.553398l-3.5728155 42.045308zm69.177993-71.508091c3.262136 0 6.368932.62136 9.320388 1.915858 2.899677 1.294498 5.436894 2.951456 7.611651 5.126213 2.174757 2.174758 3.883496 4.711974 5.126214 7.61165 1.242718 2.899677 1.915857 6.006473 1.915857 9.320389v66.174757c0 3.262136-.621359 6.420712-1.915857 9.320389-1.294499 2.899676-2.951457 5.436893-5.126214 7.61165s-4.711974 3.883496-7.611651 5.126214c-2.899676 1.294498-6.006472 1.915857-9.320388 1.915857h-28.478964c-1.812298 0-2.640777-.880259-2.640777-2.640776v-108.789644c0-1.812298.880259-2.640777 2.640777-2.640777zm1.760518 24.906149c0-1.242718-.41424-2.330097-1.346278-3.210356-.880259-.880259-1.967638-1.346278-3.210356-1.346278h-6.058253v73.372168h6.058253c1.242718 0 2.330097-.414239 3.210356-1.346279.880258-.880259 1.346278-1.967637 1.346278-3.210356zm84.038835 69.592233v16.932039c0 1.812297-.880259 2.640776-2.640777 2.640776h-41.268608c-1.812298 0-2.640777-.880259-2.640777-2.640776v-108.737864c0-1.812298.880259-2.640777 2.640777-2.640777h41.216828c1.812298 0 2.640777.880259 2.640777 2.640777v16.880259c0 1.812297-.880259 2.640776-2.640777 2.640776h-21.695793v21.695793h18.796117c1.812298 0 2.640777.880259 2.640777 2.640777v16.932039c0 1.812297-.88026 2.640776-2.640777 2.640776h-18.796117v25.682848h21.695793c1.812298 0 2.692557.880259 2.692557 2.692557z" fill="#569a83"/><path d="m193.064642 143.721423c1.178484 1.178483 1.285619 3.106911-.107135 4.071124-3.428315 2.249833-7.820845 1.928428-11.89197 1.499888-6.856632-.749943-14.998881-1.071348-18.534331-7.49944-.107136 0-.107136-.107135-.214271-.21427-4.499664-2.464102 3.106912-4.17826 5.249609-4.499665 4.821069-.642809 9.963542.64281 14.677476 1.714159 3.963991.749944 7.713711 1.821292 10.820622 4.928204zm62.566762 102.206662c-3.214046 2.249832-1.821293 6.106687-4.071125 8.785058-2.249832 2.571237-7.71371 2.571237-10.606352 2.571237-12.32051.107135-24.319615-.857079-36.425854.107135-3.106911.21427-5.892418.642809-8.78506 1.392754-.857078.214269-2.249832.749943-3.214046.214269-2.464101-1.285618-4.713933-5.356743-7.927979-4.071124-2.678372 1.178483-4.713934 5.035338-7.92798 2.678371-5.892418-4.39253-10.820622-.428539-17.034444.749944-6.428092 1.285618-12.534779-2.249832-18.855737-.535674-4.713934 1.392753-9.213598 2.785506-14.034667 1.178483-4.821069-1.714158-6.106687-5.463878-1.928428-8.999329 6.642362-5.463878 14.891747-6.320956 23.141131-5.678147 12.53478 1.071348 24.962424.107134 37.497203-.535675.42854 0 .642809.21427.642809.535675 5.356744 2.142697 8.78506-2.142698 11.89197-5.892418.42854-.535674 1.178485-.21427 1.392754.107135 4.499664 6.642361 9.963543-.85708 15.64169-.21427 1.499889.107135 2.892642.535675 3.856855 1.928427.42854.642809.535675 1.392754.535675 2.142698.21427 3.428316 4.606799 2.678371 4.499665-.749944 0-.535674.642809-1.071349 1.178483-.857079 4.499664 1.821293 10.284947 4.17826 13.927533-.535675 3.106911-3.963989 3.53545-9.642138 3.856855-14.463207.642809-12.963318-.21427-26.248041-1.178484-39.104225-.749944-12.53478-2.142697-25.283828-.642809-37.818608 1.499888-12.427645 1.392753-24.533884 1.178484-37.068664-.107135-6.535227-.42854-13.0704531 0-19.60568.214269-5.9995524 1.285618-12.4276444.642809-18.4271969-.642809-5.3567433-3.856855-9.9635425-4.499664-15.2131509-.64281-4.821069 0-9.8564077 1.178483-14.5703418.642809-2.8926414 2.142697-6.4280919 2.035563-9.4278682-.107136-2.5712368-.214271-5.2496084-.107136-7.8208451 0-1.2856184-.214269-3.3211809.749945-4.3925296 1.499888-1.8212927 2.249832-4.4996644-1.285619-4.821069-8.463654-1.0713486-17.141579-6.4280919-25.176693-1.1784835.107135 1.8212927.214269 3.8568552-.21427 5.6781479l1.178483 1.4998882c2.035563.8570789 4.071125 1.1784835 6.320957 1.2856184 2.571237 0 5.356744-.6428092 7.927981-.4285395 2.142697.2142697 3.963989 2.1426973 3.214046 4.6067992-.535675 1.8212927-2.142698 3.3211808-3.106912 4.821069-1.714157 2.6783716-1.392753 6.5352267-1.392753 9.6421379-.107135 7.8208452 0 15.6416904.21427 23.2482658.214269 6.428092.857078 12.9633188 1.285618 19.3914108.107135.1071349.535674.2142697.535674.5356743.214271 7.2851709 2.678372 14.463207 2.785507 21.748378.107135.107134-1.928427 8.999329-1.928427 8.999329-.107135 9.427867-.85708 26.890851-.85708 26.890851-.107134 16.07023-2.892641 32.033324-.107134 47.99642 1.178483 6.428092-1.285618 12.641914-1.499889 19.070005-.214269 7.070902.642809 14.034669-.428539 21.10557.107135.428539 0 .857078-.535675 1.071348-14.677476 2.785507-29.569223 3.321181-44.568103 2.464102-3.74972-.21427-8.142251-.535675-11.784835.857079-1.392754.642809-3.321181 1.499888-5.03534 1.392753-2.142697-.21427-3.214046-1.928427-5.249607-2.249832-2.571237-.535675-5.03534-1.071349-7.499441-1.285618-6.642362-.85708-12.963319-1.285618-19.177141 1.392752-3.428316 1.499889-7.070901.85708-10.499218-.535673-4.071124-1.714159-7.178035-3.74972-11.677699-1.499888-1.821294.857078-3.428317 1.821292-5.463878 2.249832-1.714159.428539-3.214046 0-4.713935-.642809-3.428315-1.285619-6.1066871-1.714158-9.7492726-1.071349.4285395.535674.1071349 1.499887-.6428092 1.499887-21.7483777-1.178483-43.6038903 1.392754-65.3522681 1.714159-1.0713487.214269-1.8212928 1.392753-2.464102 1.392753h-.6428091c-.5356743 0-.6428092-1.821293-.5356743-2.142698-2.8926414-3.214046-2.1426973-13.820397-2.0355625-16.927308.857079-20.24849-1.7141578-40.604115-2.2498322-60.745469-.2142697-10.070678-.2142697-20.24849 1.3927533-30.212032 1.9284276-11.249161 1.9284276-22.176917 1.7141579-33.4260784-.5356744-22.3911869 1.7141578-44.675239 1.0713486-67.066426 0-.4285395.4285395-.5356744.6428092-.4285395l.2142698-.1071349c5.9995524-.5356743 12.5347793-2.1426972 18.4271968-.5356743.1071349 0 .2142698.1071349.2142698.2142697l.8570789.1071349h6.6423616c.2142698 0 .5356744.1071349.5356744.2142697 11.7848352.1071349 23.5696705-.8570788 35.3545058-1.3927531 4.0711248-.1071349 8.3565195 0 12.4276444-1.2856184 2.0355625-.6428092 4.4996635-1.7141579 6.6423615-1.4998882 5.356743.4285395 10.820622 2.0355625 16.07023 3.214046 3.74972.749944 6.320957-5.6781479 9.642138-3.4283157 5.035339 3.214046 10.820621 2.0355625 16.605904 2.1426973 3.106911.1071349 5.999552-.5356743 9.106464-.5356743 1.714157 0 3.106911.4285395 4.606799.7499441 1.499888-.2142698 2.785507-.1071349 4.499664.5356743l27.426526-.8570789c5.463878.1071348 11.46343.5356743 16.713039-1.4998882 1.392754-.5356743 2.142697-1.2856184 2.571237-2.1426973-.21427-.4285395-.42854-.8570789-.642809-1.3927533-.42854-.749944-.857079-1.7141578-1.392754-2.2498322-5.892417-1.9284276-12.641914-1.3927532-18.855736-1.7141578-8.463655-.4285395-16.713039.749944-25.176694 1.3927532-7.820844.6428092-15.963095 1.1784836-23.78394.5356744-4.606799-.4285395-13.284723-2.464102-17.248713.749944-.42854.2142698-.749945.2142698-1.178483 0-7.499441-6.1066873-17.355849 3.1069112-25.9266381.5356744-5.1424736-1.4998882-9.9635426-2.5712368-15.4274207-1.9284276-5.2496085.5356743-10.392082 1.2856184-15.7488253 1.2856184-11.6777004-.1071349-23.2482659.6428092-34.9259662.2142697-2.5712368-.1071349-5.0353388-.1071349-7.3923058-.4285395-2.0355624-.2142697-4.7139341-1.2856184-6.7494965-.4285394-3.214046 1.1784835-3.8568552 2.2498322-3.5354506 3.214046.8570789.6428092-2.1426974 4.7139341-2.1426974 6.7494965l-.2142697 5.3567433c-.1071349 7.92798-.6428091 15.213151-2.4641018 22.9268613-.85707901 4.0711249-2.89264145 9.8564076-1.39275333 13.9275325.85707892 2.6783717 2.89264143 4.4996644 4.07112483 6.8566315 2.0355625 4.3925294 2.1426974 9.7492728 1.9284276 14.4632068l-1.2856184 46.067993c-.5356743 15.320285-1.499888 30.747706-.8570789 46.175127.5356743 14.248937 2.7855065 28.819278.8570789 42.96108-.6428092 4.713935-6.32095702 13.070455-.8570789 16.391635 3.1069111 1.821293 6.7494966 2.249832 10.2849472 2.571237 8.6779241.535675 17.3558482-.428539 26.1409073-1.392753 3.2140459-.42854 6.4280919-1.071349 9.6421379-1.071349 2.4641019-.107135 4.713934.214269 7.0709011 1.071349 2.0355624.749943 5.1424736 2.142697 7.4994406 2.142697.1071349.107135 3.8568551-.107135 4.0711249-1.178483 3.214046-1.392754 5.9995525-2.464103 10.0706774-1.714158 3.96399.749944 7.4994406 1.285618 11.6777004.535674 2.1426975-.428539 5.3567435-.64281 7.4994405-.107135l.857079.64281c.857079-.42854-.535674 1.071348-1.392753 1.392752-4.821069 1.928428-3.321181 8.14225-3.856855 12.32051 0 .42854-.535675.535674-.749945.535674-1.928427 0-4.6067987 0-5.6781474-2.035562-2.2498322-4.178259-7.7137103-7.070901-7.7137103 1.714158 0 .535675-.4285394.749944-.749944.749944-.4285395 0-.7499441-.214269-.7499441-.749944 0-.535674-5.6781479-3.535451-6.3209571-3.856856-2.7855066-1.499887-5.9995525-3.32118-9.3207333-2.142697-2.0355625.64281-3.7497204 1.821293-5.678148 2.678372-3.4283156 4.17826-7.0709011 8.677924-12.1062398 5.999552-1.0713487-.535673-5.2496084-4.178259-6.1066873-3.428315-1.1784835 1.285619-2.4641019 2.571237-4.0711249 3.214046-4.6067993 1.821292-9.4278682 1.499888-14.3560721 1.392753-.2142697 0-.749944-.21427-.749944-.64281-.2142698-1.928427-1.2856184-5.785282-3.96399-3.428315-.6428092.535674-1.1784835 1.071349-1.8212927 1.714158-.7499441.64281-1.7141579 1.499888-2.6783717 1.928428-3.214046 1.285618-13.07045364-.42854-14.35607203-2.678372-1.07134866-1.714158-1.39275326-3.428315-1.82129273-5.356743-.74994405-4.713935-.21426973-9.856408-.42853945-14.677477-.42853947-12.10624-1.28561839-23.99821-2.24983219-36.104449-.53567433-6.106688-1.07134866-12.427646-.53567433-18.641467.21426973-3.96399.42853947-9.427869 2.46410192-13.070454 1.71415784-2.892642.53567432-5.249608-1.71415786-7.392306-.53567433-.642809-.74994406-1.821293-.74994406-2.571237-.42853946-4.499664.42853947-9.213598.6428092-13.713262.21426973-3.321182.74994406-6.642362.74994406-9.963543 0-2.571237-.53567433-5.035338-.74994406-7.499441-.10713487-1.285618-.21426973-2.571237.53567433-3.74972 1.49988812-2.142697 1.28561839-3.321181.42853946-5.785283-1.71415785-4.713933 0-10.392082.21426973-15.320285.42853946-5.785283.6428092-11.4634311 0-17.3558486-.64280919-6.428092-1.92842758-12.6419142-1.49988812-19.1771411.42853946-5.8924175.74994406-11.2491609 1.07134866-17.0344436.53567432-10.4992169.53567432-21.1055686.21426973-31.6047854v2.4641019s-.85707893-13.3918582 4.7139341-16.60590422c8.57078924-4.7139341 18.96287124-3.96399004 28.28360464-4.3925295 12.1062398-.53567433 24.3196145.64280919 36.4258543.64280919 7.0709011 0 14.0346675-.10713486 20.8912988-1.71415784 4.821069-1.07134866 9.6421386-1.49988813 14.5703416-1.2856184 5.999553.42853947 11.784836 1.92842759 17.677253 2.46410192 5.892418.53567432 11.6777.21426973 17.570118-.10713487 12.749049-.85707893 25.605233-.53567433 38.354282 0l19.927085.85707893c3.106911.10713486 6.642362.85707892 9.642138.10713486l5.678148-1.92842758c4.17826-1.17848352 7.070901-.10713486 11.142026.85707893l14.998881 3.53545057c1.714158-.42853947 3.321181-.53567434 4.606799.74994405 2.785506 2.57123678.107136 5.78528276 2.142697 8.67792406 2.464103 3.4283158 4.713935 5.678148 5.249609 10.0706775.535674 4.713934.749944 9.8564076-.749944 14.4632069-1.071348 3.106911-2.464102 6.4280919-1.178484 9.7492728.749945 2.0355624 2.142697 3.9639899 2.678372 6.1066873 1.071348 4.6067992 1.071348 9.2135985.749944 13.9275325-.21427 5.3567434-.535674 10.8206215-1.178483 16.0702299-.42854 3.4283158-1.821293 6.7494965-1.928428 10.0706774-.107135 2.7855065.749944 5.1424734 1.285618 7.8208454 1.821293 8.785058-5.892418 14.356072-7.28517 22.391187-.749944 4.392529 4.17826 2.464101 6.428092 5.035338 1.392752 1.714158.642809 4.499664.535674 6.320958-.535674 4.713934.857078 9.320733.642809 14.034667-.214269 5.892418-2.035563 10.713487-.642809 16.605904.749944 3.321181 1.392753 6.642362.642809 9.963542-.749944 3.321182-4.6068 11.677701.535674 13.177589.21427 0 .42854.21427.42854.535675 0 1.499888-.21427 2.571237-.857079 3.963989-2.249832 5.142474 1.285619 4.071126 1.928428 7.392306.642809 3.106912-1.178484 4.17826-1.714158 7.070901-.749945 4.6068 1.714158 8.14225 1.499887 12.641915-.107134 4.178259-2.464101 6.535227-1.714157 10.392082.21427 0 .535674.214269.535674.535674.42854 2.035563.642809 4.392529-.107135 6.428092-1.071348 2.892641-2.249832 3.74972 1.071349 5.463878.857079-.642809.857079.107135.321405.42854zm-56.031536-142.167967c-2.035561-12.5347798-3.214046-25.6052334-7.392305-37.6043384-1.821293-5.0353386-2.678371-10.4992168-8.570789-11.4634306-7.713711-1.2856184-5.142474 5.1424736-4.071125 11.2491609 1.499888 9.4278682 2.142697 19.0700061 4.606799 28.3907394 1.714158 6.4280917 4.821069 14.0346677-3.74972 9.1064637-14.356072-8.6779242-19.284276-27.6407954-25.069559-41.7825977-2.571237-6.428092-10.070678-21.7483777-15.213151-25.6052329-2.464102-1.8212928-14.570341-4.4996644-16.927309-2.8926414-5.035338 3.4283157 10.499217 27.5336605 12.641915 31.8190552 4.713934 9.6421379 9.749272 19.1771409 15.855959 27.855065 4.392531 6.1066874 11.249161 11.7848348 1.499889 15.4274208-10.070677 3.856855-14.998882-1.821292-21.855512-7.070901-5.463879-4.0711251-12.427645-4.7139343-19.284276-5.4638784-18.8557369-2.2498322-36.7472594-.1071349-51.8532755 12.4276444-7.285171 6.106687-11.8919701 14.463207-15.7488253 23.033997-1.0713487 2.142697-7.2851709 21.105568-6.428092 21.212703-3.8568551-.642809-1.4998881-9.642138-6.4280919-4.39253-4.3925296 4.606799 1.2856184 17.891523 3.214046 22.498322 4.3925294 10.284947 8.9993287 20.355624 12.4276444 31.069111 3.4283156 10.713486 4.1782597 10.499217 14.0346674 11.356295 12.5347793 1.178485 24.8552889-2.67837 37.1757985-4.178259 0 0-21.8555127-13.606128 21.3198384 1.285618 9.642138 3.321181 19.81995 2.464103 29.890628 2.785507 7.178035-1.714158 7.392305-14.034668 11.142025-19.819951 1.392754-2.142697 8.35652-13.070453 10.499217-13.927531 3.106912-1.178485 7.499441 2.035561 10.606352 2.464101 17.998657 2.785506 23.56967-11.999105 20.677029-26.462312-2.464102-12.641914-1.071349-26.783716.749944-36.532989.749944-3.642586-3.106911-11.46343-3.749721-14.784611zm-80.458283 153.845667c-1.928428-1.821293-4.821069-2.249833-6.749497-4.17826-1.071349-1.178483-1.392753-2.249832-1.178484-3.535451 0 0-.107134 0-.107134-.107134-1.392754-2.571237 1.821292-4.713935 4.071125-3.856855 1.178483.535674 2.892641 1.285618 3.10691 2.678371.107136 1.821293-1.071348 3.106912-1.392752 4.713935 1.285618.749943 2.571237 2.571236 3.214046 3.428315.428538.749944-.42854 1.392754-.964214.857079z" fill="#c1272d"/></svg>