<svg height="198" preserveAspectRatio="xMidYMid" viewBox="0 0 256 198" width="256" xmlns="http://www.w3.org/2000/svg" xmlns:xlink="http://www.w3.org/1999/xlink"><linearGradient id="a"><stop offset="0" stop-color="#007940"/><stop offset=".2285" stop-color="#00873f"/><stop offset=".7433" stop-color="#40a737"/><stop offset="1" stop-color="#5cb531"/></linearGradient><linearGradient id="b" x1="-57.527097%" x2="232.39121%" xlink:href="#a" y1="50.124195%" y2="50.124195%"/><linearGradient id="c" x1=".182517%" x2="100.273441%" xlink:href="#a" y1="49.95997%" y2="49.95997%"/><linearGradient id="d" x1="-62.801585%" x2="253.671294%" xlink:href="#a" y1="49.857825%" y2="49.857825%"/><linearGradient id="e" x1=".175557%" x2="101.808162%" y1="50.005805%" y2="50.005805%"><stop offset="0" stop-color="#1f286f"/><stop offset=".4751" stop-color="#004e94"/><stop offset=".8261" stop-color="#0066b1"/><stop offset="1" stop-color="#006fbc"/></linearGradient><linearGradient id="f" x1="-.575856%" x2="98.13299%" y1="49.914219%" y2="49.914219%"><stop offset="0" stop-color="#6c2c2f"/><stop offset=".1735" stop-color="#882730"/><stop offset=".5731" stop-color="#be1833"/><stop offset=".8585" stop-color="#dc0436"/><stop offset="1" stop-color="#e60039"/></linearGradient><path d="m256.000001 157.418094c0 21.90709-17.838631 39.745721-39.745722 39.745721h-216.25427903v-157.4180932c0-21.9070906 17.83863093-39.74572143 39.74572143-39.74572143h216.2542796z" fill="#fff"/><path d="m185.584353 117.046455h16.430317c.469438 0 1.564793-.156478 2.034231-.156478 3.129584-.625917 5.78973-3.442543 5.78973-7.354524 0-3.755501-2.660146-6.572127-5.78973-7.354523-.469438-.156479-1.408313-.156479-2.034231-.156479h-16.430317z" fill="url(#b)"/><path d="m200.13692 13.3007339c-15.647921 0-28.479218 12.6748167-28.479218 28.4792177v29.5745724h40.215159c.938876 0 2.034231 0 2.816627.156479 9.075794.469438 15.8044 5.1638145 15.8044 13.3007335 0 6.415648-4.537897 11.892421-12.987775 12.9877755v.312958c9.232274.625917 16.273839 5.789731 16.273839 13.770171 0 8.606357-7.823961 14.23961-18.151589 14.23961h-44.12714v57.89731h41.779951c15.647923 0 28.479218-12.674817 28.479218-28.479217v-142.2396101z" fill="url(#c)"/><path d="m207.804402 86.6894875c0-3.7555015-2.660147-6.259169-5.789732-6.7286065-.312957 0-1.095354-.1564795-1.564791-.1564795h-14.865526v13.7701715h14.865526c.469437 0 1.408313 0 1.564791-.1564795 3.129585-.4694375 5.789732-2.973105 5.789732-6.728606z" fill="url(#d)"/><path d="m42.7188266 13.3007339c-15.6479219 0-28.4792178 12.6748167-28.4792178 28.4792177v70.2591684c7.9804401 3.911981 16.2738387 6.415648 24.5672373 6.415648 9.8581907 0 15.1784844-5.94621 15.1784844-14.083129v-33.1735945h24.410758v33.0171145c0 12.831296-7.9804405 23.315404-35.0513451 23.315404-16.4303179 0-29.2616138-3.599022-29.2616138-3.599022v59.931541h41.7799514c15.6479215 0 28.4792175-12.674817 28.4792175-28.479218v-142.0831301z" fill="url(#e)"/><path d="m121.427874 13.3007339c-15.647923 0-28.4792185 12.6748167-28.4792185 28.4792178v37.2420538c7.1980435-6.1026895 19.7163815-10.01467 39.9022005-9.0757945 10.797066.4694375 22.376528 3.4425425 22.376528 3.4425425v12.0489c-5.78973-2.973105-12.674816-5.633252-21.594132-6.2591685-15.334963-1.0953545-24.567237 6.415648-24.567237 19.559902 0 13.300733 9.232274 20.811736 24.567237 19.559902 8.919316-.625917 15.804402-3.442543 21.594132-6.259169v12.0489s-11.422982 2.973106-22.376528 3.442543c-20.185819.938875-32.704157-2.973105-39.9022005-9.075795v65.721272h41.7799515c15.647922 0 28.479217-12.674817 28.479217-28.479218v-142.3960881z" fill="url(#f)"/></svg>