<svg height="417" preserveAspectRatio="xMidYMid" viewBox="0 0 256 417" width="256" xmlns="http://www.w3.org/2000/svg"><path d="m250.741085 169.277519c0 69.457365-55.069767 125.817055-123.038759 125.817055-67.9689927 0-123.03876011-56.35969-123.03876011-125.817055 0-69.457364 55.06976741-125.8170539 123.03876011-125.8170539 67.968992 0 123.038759 56.3596899 123.038759 125.8170539" fill="#d33833"/><path d="m9.72403101 200.434109s-8.93023256-131.1751943 112.02480599-134.9457369l-8.434108-14.0899225-65.5875972 22.027907-18.7534884 21.5317829-16.372093 31.3550385-9.3271318 36.514729 2.77829458 24.409302" fill="#ef3d3a"/><path d="m43.4604651 83.448062c-21.5317829 22.127132-34.92713177 52.589147-34.92713177 86.325581 0 33.736435 13.39534887 64.19845 34.92713177 86.325582 21.6310078 22.127132 51.2992248 35.72093 84.2418609 35.72093 32.942635 0 62.610852-13.593798 84.24186-35.72093 21.531783-22.127132 34.927132-52.589147 34.927132-86.325582 0-33.736434-13.395349-64.198449-34.927132-86.325581-21.631008-22.027907-51.299225-35.7209302-84.24186-35.7209302-32.8434113 0-62.6108531 13.5937984-84.2418609 35.7209302zm-5.4573643 177.910078c-22.9209303-23.417055-37.11007754-55.863566-37.11007754-91.584497 0-35.72093 14.18914724-68.167441 37.11007754-91.6837205 22.9209302-23.4170543 54.6728682-38.0031008 89.6992252-38.0031008 35.026356 0 66.778294 14.5860465 89.699224 38.0031008 22.920931 23.4170545 37.110078 55.8635655 37.110078 91.6837205 0 35.720931-14.189147 68.167442-37.110078 91.584497-22.92093 23.516279-54.672868 38.0031-89.699224 38.0031-35.026357 0-66.778295-14.486821-89.6992252-38.0031z" fill="#231f20"/><path d="m179.497674 169.972093-18.753488 2.778295-25.302326 2.877519-16.372093.396899-15.975193-.496124-12.2046515-3.770542-10.8155039-11.708528-8.4341085-23.913178-1.8852713-5.15969-11.2124031-3.770542-6.5488373-10.815504-4.6635658-15.47907 5.1596899-13.5937985 12.2046511-4.2666667 9.8232559 4.6635659 4.6635658 10.3193798 5.655814-.8930232 1.8852713-2.3813954-1.8852713-10.8155039-.496124-13.5937984 2.7782945-18.7534884-.0992248-10.716279 8.5333334-13.6930233 14.9829456-10.8155039 26.195349-11.21240308 29.072868 4.26666667 25.302326 18.25736431 11.708527 18.7534884 7.541085 13.5937985 1.885271 33.7364341-5.655813 29.0728681-10.31938 25.79845-9.724031 13.792248" fill="#f0d6b7"/><path d="m163.621705 251.03876-66.9767438 2.778294v11.212403l5.6558138 39.392248-2.7782944 3.274419-46.8341085-15.975194-3.2744186-5.655814-4.6635659-52.986046-11.0139535-31.751938-2.3813953-7.541085 37.5069767-25.79845 11.7085271-4.663566 10.3193799 12.700775 8.9302325 7.937985 10.31938 3.274418 4.663566 1.389148 5.655814 24.409302 4.266666 5.15969 10.815504-3.770543-7.541085 14.586047 40.682171 19.249612z" fill="#335061"/><path d="m52.4899225 87.5162791 12.2046511-4.2666667 9.8232559 4.6635659 4.6635658 10.3193798 5.655814-.8930232 1.3891473-5.655814-2.7782946-10.8155038 2.7782946-25.7984497-2.3813954-14.0899224 8.4341086-9.8232559 18.2573642-14.4868217-5.15969-7.0449612-25.7984494 12.7007752-10.8155039 8.4341085-6.0527132 13.0976744-9.3271318 12.7007752-2.7782945 14.9829458z" fill="#6d6b6d"/><path d="m71.7395349 43.4604651s7.0449612-17.3643411 35.1255811-25.7984496c28.08062-8.43410852 1.389148-6.0527132 1.389148-6.0527132l-30.4620159 11.7085272-11.7085272 11.7085271-5.1596899 9.3271318z" fill="#dcd9d8"/><path d="m57.6496124 84.2418605s-9.8232558-32.8434109 27.6837209-37.5069768l-1.3891473-5.6558139-25.7984496 6.0527131-7.5410852 24.4093024 1.8852713 15.9751938z" fill="#dcd9d8"/><path d="m72.6325581 127.80155 6.151938-5.953488s2.7782946.297674 3.2744186 3.572093c.4961241 3.274419 1.8852713 32.843411 22.0279073 48.71938 1.885271 1.488372-14.982946-2.381395-14.982946-2.381395l-14.9829458-23.417055" fill="#f7e4cd"/><path d="m158.858915 118.871318s1.091473-14.189147 4.96124-13.097675c3.869767 1.091473 3.869767 4.961241 3.869767 4.961241s-9.327131 5.953488-8.831007 8.136434" fill="#f7e4cd"/><path d="m197.755039 66.8775194s-7.739535 1.5875969-8.434109 8.4341085c-.694573 6.8465116 8.434109 1.3891473 9.823256.8930233" fill="#f7e4cd"/><path d="m141.097674 67.3736434s-10.319379 1.3891473-10.319379 7.9379845 11.708527 6.0527132 14.982945 3.2744186" fill="#f7e4cd"/><path d="m77.3953488 97.8356589s-17.7612403-10.8155039-19.6465116-.496124c-1.8852713 10.3193801-6.0527132 17.7612401 2.7782946 28.5767441l-6.0527132-1.885271-5.6558139-14.486822-1.8852714-14.0899224 10.8155039-11.2124031 12.2046512.8930232 7.0449612 5.655814z" fill="#f7e4cd"/><path d="m85.8294574 68.2666667s7.9379845-41.2775194 48.2232556-49.2155039c33.141085-6.5488372 50.604651 1.3891473 57.153489 8.9302325 0 0-29.568993-35.12558135-57.649613-24.40930228-28.08062 10.81550388-48.7193797 30.46201548-48.2232557 43.06356588.7937985 21.6310078.4961241 21.6310078.4961241 21.6310078" fill="#f7e4cd"/><path d="m194.48062 32.6449612s-13.593798-.496124-14.089922 11.7085272c0 0 0 1.8852713.893023 3.7705426 0 0 10.815504-12.2046512 17.364341-5.6558139" fill="#f7e4cd"/><path d="m135.044961 49.4139535s-2.381395-18.6542636-18.257364-7.8387597c-10.31938 7.0449612-9.327132 16.8682171-7.541085 18.7534884 1.885271 1.8852713 1.389147 5.6558139 2.778294 3.075969 1.389147-2.579845.992248-11.0139535 6.151938-13.3953489 5.060465-2.3813953 13.593799-4.9612403 16.868217-.5953488" fill="#f7e4cd"/><path d="m90.9891473 176.024806-44.055814 19.646512s18.2573644 72.632558 8.9302326 95.156589l-6.5488372-2.381395-.496124-27.683721-12.2046512-52.390698-5.1596899-14.486822 45.9410852-30.958139z" fill="#49728b"/><path d="m95.4542636 216.210853 6.2511624 7.64031v28.08062h-7.4418601s-.8930233-19.646512-.8930233-22.027907.8930233-10.815504.8930233-10.815504" fill="#49728b"/><path d="m95.6527132 256.19845-21.1348837.893023 6.0527131 4.266667 14.9829458 2.381395" fill="#49728b"/><path d="m167.789147 251.534884 17.364341-.496124 4.266667 43.063566-17.76124 2.381395z" fill="#335061"/><path d="m172.452713 251.534884 26.195349-1.389148s10.815504-27.187596 10.815504-28.576744c0-1.389147 9.327132-39.392248 9.327132-39.392248l-21.134884-22.027907-4.266667-3.770542-11.212403 11.212403v43.55969z" fill="#335061"/><path d="m184.16124 248.260465-16.372093 3.274419 2.381396 13.097674c6.052713 2.778295 16.372093-4.663566 16.372093-4.663566" fill="#49728b"/><path d="m184.657364 166.20155 32.843411 24.409303.893023-11.212403-24.806201-22.920931z" fill="#49728b"/><path d="m111.925581 343.813953-9.724031-39.392248-4.8620151-29.072868-.7937985-21.531783 43.9565896-2.381395h27.286821l-2.48062 49.215504 4.266667 38.003101-.496124 7.044961-35.621706 2.778294z" fill="#fff"/><path d="m161.736434 251.03876s-2.381395 48.71938 4.663566 83.448062c0 0-14.089922 8.930232-34.629457 11.212403l39.392248-1.389147 4.663566-2.778295-5.655814-76.8-1.488372-16.471318" fill="#dcd9d8"/><path d="m190.114729 290.431008 18.257364-5.15969 34.629457-1.885271 5.15969-15.975194-9.327131-27.683721-10.815504-1.389148-14.982946 4.663566-14.288372 7.044962-7.64031-1.389148-5.953489 2.381396" fill="#fff"/><path d="m189.817054 281.004651s12.204651-5.655814 14.089923-5.15969l-5.15969-25.798449 6.052713-2.381396s4.266667 24.409303 4.266667 27.187597c0 0 26.195349 1.389147 28.576744 1.389147 0 0 5.655814-10.815503 4.266667-22.027907l5.159689 14.982946.496124 8.434109-7.541085 11.212403-8.434108 1.885271-14.089923-.496124-4.663566-6.052713-16.372093 2.381395-5.15969 1.885272" fill="#dcd9d8"/><path d="m171.36124 247.764341-10.31938-26.195349-10.815503-15.47907s2.381395-6.548837 5.655814-6.548837h10.815503l10.31938 3.770543-.893023 17.364341z" fill="#fff"/><path d="m173.444961 238.834109s-13.097674-25.302326-13.097674-29.072869c0 0 2.381395-5.655814 5.655814-4.266666 3.274418 1.389147 10.31938 5.15969 10.31938 5.15969v-8.930233l-15.975194-3.274419-10.815504 1.389148 18.257364 43.262015 3.770543.496124" fill="#dcd9d8"/><path d="m116.093023 177.017054-12.998449-1.389147-12.2046515-3.770543v4.266667l5.9534884 6.548837 18.7534881 8.434109" fill="#fff"/><path d="m95.1565891 178.406202s14.4868219 6.052713 19.2496129 4.663565l.496124 5.655814-13.097675-2.778294-7.9379843-5.655814z" fill="#dcd9d8"/><path d="m190.114729 201.128682c-7.937985-.198449-15.181396-1.190698-21.432558-2.976744.396899-2.579845-.3969-5.060465.297674-6.945736 1.786046-1.289923 4.663566-1.289923 7.342636-1.587597-2.282171-1.091473-5.55659-1.587597-8.136434-.893024-.099225-1.786046-.893024-2.877519-1.389148-4.266666 4.465117-1.587597 14.982946-12.006202 20.936434-8.632558 2.87752 1.686821 4.068217 11.013953 4.266667 15.677519.19845 3.770543-.396899 7.541085-1.885271 9.624806" fill="#d33833"/><path d="m190.114729 201.128682c-7.937985-.198449-15.181396-1.190698-21.432558-2.976744.396899-2.579845-.3969-5.060465.297674-6.945736 1.786046-1.289923 4.663566-1.289923 7.342636-1.587597-2.282171-1.091473-5.55659-1.587597-8.136434-.893024-.099225-1.786046-.893024-2.877519-1.389148-4.266666 4.465117-1.587597 14.982946-12.006202 20.936434-8.632558 2.87752 1.686821 4.068217 11.013953 4.266667 15.677519.19845 3.770543-.396899 7.541085-1.885271 9.624806z" stroke="#d33833" stroke-width="2"/><path d="m152.111628 188.130233c0 .595348 0 1.190697-.099225 1.786046-2.48062 1.587597-6.449612 1.587597-9.227907 2.976744 3.968992.19845 7.144186 1.190698 9.922481 2.48062-.099225 1.488373-.099225 3.075969-.19845 4.564341-4.564341 3.075969-8.731783 7.739535-14.089922 10.71628-2.579845 1.389147-11.410853 4.96124-14.089923 4.266666-1.488372-.396899-1.686822-2.28217-2.28217-4.068217-1.289923-3.770542-4.266667-9.92248-4.564341-15.677519-.297675-7.243411-1.091473-19.448062 6.747286-17.95969 6.350388 1.190698 13.693024 4.068217 18.555039 6.747287 3.075969 1.786046 4.762791 3.770542 9.327132 4.167442" fill="#d33833"/><path d="m152.111628 188.130233c0 .595348 0 1.190697-.099225 1.786046-2.48062 1.587597-6.449612 1.587597-9.227907 2.976744 3.968992.19845 7.144186 1.190698 9.922481 2.48062-.099225 1.488373-.099225 3.075969-.19845 4.564341-4.564341 3.075969-8.731783 7.739535-14.089922 10.71628-2.579845 1.389147-11.410853 4.96124-14.089923 4.266666-1.488372-.396899-1.686822-2.28217-2.28217-4.068217-1.289923-3.770542-4.266667-9.92248-4.564341-15.677519-.297675-7.243411-1.091473-19.448062 6.747286-17.95969 6.350388 1.190698 13.693024 4.068217 18.555039 6.747287 3.075969 1.786046 4.762791 3.770542 9.327132 4.167442z" stroke="#d33833" stroke-width="2"/><path d="m156.576744 196.762791c-.694573-3.968993-1.488372-5.060465-1.190697-8.533334 10.617054-7.044961 12.502325 12.105427 1.190697 8.533334" fill="#d33833"/><path d="m156.576744 196.762791c-.694573-3.968993-1.488372-5.060465-1.190697-8.533334 10.617054-7.044961 12.502325 12.105427 1.190697 8.533334z" stroke="#d33833" stroke-width="2"/><path d="m171.857364 199.937984s-3.274418-4.663565-.893023-6.052713c2.381395-1.389147 4.663566 0 6.052713-2.381395 1.389148-2.381395 0-3.770543.496124-6.548837.496124-2.778295 2.778295-3.274419 5.15969-3.770543 2.381396-.496124 8.930233-1.389147 9.823256.893023l-2.778295-8.434108-5.655813-1.885271-17.761241 10.319379-.893023 5.15969v10.31938" fill="#ef3d3a"/><path d="m122.64186 215.417054c-.595348-7.342635-1.190697-14.586046-1.786046-21.928682-.992248-10.914729 2.579845-9.029457 12.105426-9.029457 1.488372 0 8.930233 1.686821 9.426357 2.778294 2.579845 5.258915-4.266667 4.068217 2.976744 8.03721 6.052713 3.274418 16.868217-1.984497 14.387597-9.426357-1.389147-1.686822-7.144186-.496124-9.227907-1.587597-3.671318-1.885271-7.342636-3.770543-11.013953-5.655814-4.663566-2.381395-15.379845-5.953488-20.341086-2.579845-12.60155 8.533334.793799 29.965892 5.258915 38.896124" fill="#ef3d3a"/><g fill="#231f20"><path d="m135.044961 49.4139535c-12.8-2.9767442-19.150387 5.3581395-23.020155 13.9906977-3.472868-.7937985-2.083721-5.5565892-1.190697-7.9379845 2.28217-6.2511628 11.510077-14.6852714 19.051162-13.4945737 3.175194.3968992 7.541086 3.3736434 5.15969 7.4418605"/><path d="m197.258915 63.9007752h.595349c2.877519 5.9534884 5.358139 12.303876 9.029457 17.6620155-2.48062 5.7550388-18.455814 10.7162791-18.257364.5953488 3.472868-1.4883721 9.426356-.2976744 12.502325-2.2821705-1.786046-4.8620155-4.266666-9.0294574-3.869767-15.9751938"/><path d="m141.494574 64.0992248c2.778294 5.0604651 3.671317 10.3193799 7.541085 14.0899225 1.786046 1.6868217 5.15969 3.7705426 3.472868 8.5333333-.396899 1.0914729-3.274418 3.572093-4.96124 4.0682171-6.052713 1.7860465-20.241861.3968992-15.47907-7.2434109 5.060465.1984496 11.807752 3.2744186 15.578295-.3968992-2.87752-4.5643411-8.03721-13.6930233-6.151938-19.0511628"/><path d="m194.976744 115.100775c-9.128682 5.854264-19.348837 12.303876-34.431008 10.815504-3.175193-2.778295-4.465116-9.029457-1.289922-13.097674 1.587597 2.778294.595349 7.937984 5.15969 8.731783 8.533333 1.488372 18.455814-5.258915 24.607752-7.541086 3.770542-6.449612-.297675-8.731783-3.770543-12.899224-7.044961-8.434109-16.372093-18.9519385-16.074418-31.5534889 2.877519-2.0837209 3.075969 3.1751938 3.472868 4.0682171 3.671318 8.5333333 12.899225 19.5472868 19.547287 26.8899228 1.686821 1.786046 4.365891 3.572093 4.663566 4.76279.893023 3.373644-2.282171 7.541086-1.885272 9.823256"/><path d="m74.1209302 108.948837c-2.8775193-1.686821-3.572093-8.831008-6.9457364-9.0294572-4.8620155-.2976744-3.9689922 9.3271322-3.9689922 14.9829462-3.2744187-2.976745-3.8697675-12.303876-1.4883721-17.0666671-2.7782946-1.3891473-3.9689923 1.4883721-5.5565892 2.4806201 2.0837209-14.3875968 21.1348837-6.6480619 17.9596899 8.632558"/><path d="m200.731783 121.153488c-4.266667 8.136434-10.31938 17.066667-22.821705 17.364341-.297675-2.579845-.496125-6.648062 0-8.235658 9.624806-.992249 15.578294-5.854264 22.821705-9.128683"/><path d="m140.8 126.412403c7.937984 4.167442 22.623256 4.663566 33.537984 4.365892.595349 2.381395.595349 5.358139.595349 8.235658-13.990697.595349-30.462015-2.877519-34.133333-12.60155"/><path d="m139.311628 134.151938c5.556589 13.891473 24.508527 12.303876 40.483721 11.906977-.694574 1.786046-2.182946 3.968992-4.167442 4.663566-5.15969 2.083721-19.249612 3.671317-26.393798-.099225-4.465117-2.381396-7.441861-7.83876-9.922481-11.013954-1.091473-1.488372-7.044961-5.358139 0-5.457364"/></g><path d="m194.282171 210.654264c-6.449613 11.113178-12.700776 22.524031-20.341086 32.248062 3.175194-9.426357 4.564341-25.302326 5.060465-37.407752 6.747287-3.175194 12.502326.694573 15.280621 5.15969" fill="#81b0c4"/><path d="m229.110078 250.542636c-7.243411 1.488372-12.303876 8.533333-19.448062 8.037209 3.968992-5.457364 10.716279-7.83876 19.448062-8.037209" fill="#231f20"/><path d="m232.285271 261.854264c-5.953488.595348-12.899224 1.587596-18.852713 1.091472 2.87752-4.365891 13.792248-2.778294 18.852713-1.091472" fill="#231f20"/><path d="m234.368992 271.677519c-6.648062.099225-14.883721 0-21.234108-.496124 3.770542-4.068217 16.967442-1.488372 21.234108.496124" fill="#231f20"/><path d="m181.779845 298.468217c.992248 8.334884 4.266667 16.768992 3.869767 25.897674-3.671317 1.190698-5.755038 2.282171-10.716279 2.282171-.297674-7.739535-1.389147-19.646512-1.091473-27.088372 2.381396.19845 5.953489-1.686822 7.937985-1.091473" fill="#dcd9d8"/><path d="m171.063566 175.429457c-3.373644 2.182946-6.151938 4.862016-9.426357 7.243411-7.144186.396899-11.013953-.496124-16.173643-4.564341.099225-.297674.595349-.198449.595349-.595349 7.64031 3.373644 17.364341-1.389147 25.004651-2.083721" fill="#f0d6b7"/><path d="m131.175194 227.324031c2.083721-9.029457 10.31938-13.792248 17.76124-18.753488 7.64031 9.724031 12.303876 22.226356 17.463566 34.331783-12.204651-3.671318-24.607752-9.525582-35.224806-15.578295" fill="#81b0c4"/><path d="m173.84186 299.658915c-.297674 7.44186.694574 19.249612 1.091473 27.088372 4.961241 0 7.044962-1.091473 10.716279-2.282171.3969-9.128682-2.877519-17.56279-3.869767-25.897674-1.984496-.694574-5.556589 1.190698-7.937985 1.091473zm-76.6015499-42.071318c3.2744189 29.866667 7.9379849 54.871318 16.5705429 81.364341 19.150387 5.854264 42.170542 6.350388 59.137984 1.091473-3.075969-14.883721-1.786046-33.041861-3.572093-49.017054-1.389147-12.006202-.694573-24.012404-2.579845-36.217055-20.539535-4.266666-49.513178-.992248-69.5565889 2.778295zm74.4186049-2.579845c-.19845 12.8.595349 25.500775 1.587597 38.300775 4.96124-.694574 8.235659-1.190698 12.8-2.28217-1.488372-12.303876-1.289923-26.294574-4.365892-37.209303-3.472868.099225-6.548837 0-10.021705 1.190698zm24.905426-2.083721c-2.381395-.496124-5.060465 0-7.243411 0 1.091473 10.418605 3.572093 21.928682 4.465117 32.942636 3.472868.099224 5.358139-1.587597 8.235658-2.083721.19845-9.624806-.793798-22.92093-5.457364-30.858915zm37.804651 34.530233c7.342636-1.786047 11.906977-10.71628 9.823256-19.944186-1.389147-6.151938-3.770543-17.860466-6.449612-21.829458-1.885272-2.877519-7.144186-6.747287-11.410853-4.068217-6.846512 4.365892-18.852713 5.655814-23.813954 10.914729 2.480621 8.334884 3.274419 19.646511 4.266667 30.164341 8.533333.496124 18.951938-2.381395 26.096124.694574-4.96124 1.587596-11.311628 1.587596-15.578294 3.968992 3.572093 1.686821 11.708527 1.389147 17.066666.099225zm-68.068217-44.551938c-5.15969-12.105427-9.823256-24.607752-17.463566-34.331783-7.44186 4.96124-15.578294 9.724031-17.76124 18.753488 10.716279 6.052713 23.11938 11.906977 35.224806 15.578295zm12.700775-37.407752c-.496124 12.105426-1.885271 27.981395-5.060465 37.407752 7.64031-9.823256 13.891473-21.134884 20.341086-32.248062-2.778295-4.465117-8.533334-8.334884-15.280621-5.15969zm-14.387597-5.060465c-2.877519-.297675-5.358139 3.373643-9.128682 1.786046-.893023.992248-1.686821 1.984496-2.579845 2.976744 8.334884 10.12093 12.204652 24.409303 18.654264 36.217054 3.472868-11.410852 3.075969-23.813953 3.869767-36.217054-4.76279.19845-7.44186-4.465116-10.815504-4.76279zm-9.227906-12.204652c-.297675 3.472869.496124 4.564341 1.190697 8.533334 11.311628 3.572093 9.426357-15.578295-1.190697-8.533334zm-12.601551-4.167441c-4.862015-2.67907-12.204651-5.55659-18.555039-6.747287-7.838759-1.488372-7.044961 10.716279-6.747286 17.95969.297674 5.755038 3.274418 11.807752 4.564341 15.677519.595348 1.786046.793798 3.671318 2.28217 4.068217 2.67907.595349 11.609302-2.877519 14.089923-4.266667 5.358139-2.877519 9.525581-7.541085 14.089922-10.716279.099225-1.488372.099225-3.075969.19845-4.564341-2.778295-1.389147-5.854264-2.28217-9.922481-2.48062 2.67907-1.389147 6.747287-1.389147 9.227907-2.976744 0-.595349 0-1.190698.099225-1.786047-4.564341-.496124-6.251163-2.48062-9.327132-4.167441zm-46.6356588-8.434109c-4.068217 4.167442 11.4108528 9.724031 16.2728678 10.021705 0-2.579845 1.488373-5.060465 1.190698-6.945736-5.854263-.992248-13.494574-.297674-17.4635658-3.075969zm50.0093028 1.885271c0 .3969-.496124.297675-.595349.595349 5.258914 4.068217 9.128682 4.96124 16.173643 4.564341 3.175194-2.28217 6.052713-5.060465 9.426357-7.243411-7.739535.694574-17.463566 5.457365-25.004651 2.083721zm45.84186 13.891473c-.19845-4.564341-1.389147-13.990698-4.266667-15.677519-5.953488-3.472868-16.471317 7.044961-20.936434 8.632558.496124 1.389147 1.289923 2.48062 1.389148 4.266667 2.679069-.694574 5.854263-.19845 8.136434.893023-2.67907.297674-5.55659.297674-7.342636 1.587597-.595349 1.885271.19845 4.365891-.297674 6.945736 6.251162 1.786047 13.494573 2.67907 21.432558 2.976744 1.488372-1.984496 2.083721-5.755038 1.885271-9.624806zm-102.6976744-11.807752c-1.2899225-.893023-9.9224806-12.105426-11.1131783-11.609302-15.5782946 6.151938-30.1643411 16.768992-43.1627907 26.889922 12.4031008 26.691473 17.4635659 59.336434 18.3565891 90.790698 14.1891473 6.648062 26.6914729 16.272868 46.0403101 17.265116-2.2821705-15.776744-4.2666667-29.965891-5.5565891-44.849612-4.8620155-2.083721-11.807752.099225-16.3720931-.595349 0-5.457364 6.9457365-2.381395 7.5410853-6.052713.3968992-2.778295-3.8697674-2.976744-2.4806201-7.342636 3.572093 1.289923 5.4573643 4.167442 9.2279069 5.258915 3.4728683-7.541085 0-20.936434.4961241-27.286822.0992248-1.190697.5953488-6.548837 3.2744186-5.655814 2.3813953.793799-.0992248 14.387597.0992248 20.341086.1984496 5.556589-.6945737 10.815503 1.5875969 14.288372 18.6542639-2.579845 37.6062019-4.167442 57.8480619-4.762791-4.465116-1.885271-9.724031-3.671318-15.47907-6.945736-3.175193-1.786047-12.998449-5.457365-13.891473-8.434109-1.488372-4.762791 3.770543-7.243411 4.663566-11.311628-9.426356 5.15969-11.212403-4.96124-13.494573-12.006201-1.984496-6.449613-3.175194-11.311628-3.671318-14.982946-8.235659-4.167442-16.967442-8.037209-23.9131784-12.99845zm94.4620154-10.31938c12.99845-6.251162 15.379845 23.516279 10.220155 33.141086.793799 2.877519 3.472868 3.968992 4.564341 6.548837-7.243411 12.998449-15.28062 25.103876-22.72248 37.903876 5.457364-3.472868 13.395348-.595349 19.844961-3.175194 2.381395-.893023 4.068217-6.350388 5.854263-10.716279 4.961241-11.906977 10.120931-26.989147 12.403101-38.300775.496124-2.579845 1.984496-8.235659 1.587597-10.51783-.595349-4.167442-6.151938-7.243411-9.029457-9.724031-5.258915-4.76279-8.533334-8.831007-14.089923-13.296124-2.083721 3.274419-6.846511 5.457365-8.632558 8.136434zm-124.1302325-115.1999996c-6.151938 6.8465116-4.8620155 19.5472868-4.1674418 28.675969 11.2124031-7.0449613 25.9968992.5953488 25.8976744 12.5023256 5.3581395-.0992249 1.9844961-6.6480621.992248-10.9147287-3.1751938-13.7922481 5.3581396-28.675969.3968993-41.2775194-9.6248062.7937984-17.4635659 4.6635659-23.1193799 11.0139535zm44.2542635-39.5906977c-13.9906976 3.9689923-31.9503875 14.1891473-37.7054263 26.7906977 4.4651163-.6945737 7.5410853-2.8775194 11.9069768-3.1751938 1.6868217-.0992248 3.8697674.6945736 5.7550387.1984496 3.7705427-.9922481 7.0449613-9.5255814 9.9224807-12.7007752 2.7782945-3.075969 6.1519379-4.4651163 8.4341081-7.2434109 1.488372-.6945736 3.671318-.6945736 3.770543-2.8775193-.595349-.6945737-1.289922-1.1906977-2.083721-.9922481zm72.930233 3.7705426c-14.586047-8.2356589-39.193799-14.38759686-54.672869-6.648062-12.502325 6.2511628-29.3705422 16.5705427-35.125581 29.5689923 5.3581396 12.6015504-1.5875969 24.1116279-2.0837209 36.9116279-.1984496 6.8465116 3.1751938 12.7007752 3.4728682 20.1426356-1.8852713 3.0759689-7.4418604 3.3736439-11.3116279 3.1751939-1.2899225-6.5488373-3.572093-13.8914729-10.3193798-14.6852714-9.5255814-1.0914728-16.5705427 6.8465116-16.9674419 15.0821704-.496124 9.724031 7.4418605 25.79845 18.7534884 24.706977 4.3658915-.396899 5.4573643-4.762791 10.220155-4.762791 2.579845 5.15969-3.9689922 6.747287-4.6635659 10.418605-.1984496.992248.4961241 4.663566.9922481 6.449612 2.0837209 8.434109 6.648062 19.448062 11.1131783 25.897675 5.7550387 8.235659 16.9674414 9.426356 29.0728684 10.220155 2.182946-4.663566 10.12093-4.266667 15.28062-3.075969-6.251163-2.48062-12.006202-8.434109-16.768992-13.693024-5.457365-6.052713-11.013954-12.502325-11.311628-20.44031 10.418604 14.387597 18.951938 26.989148 37.804651 33.339535 14.288372 4.762791 30.95814-2.182945 41.972093-9.92248 4.564341-3.175194 7.243411-8.334884 10.517829-12.899225 12.105427-17.463566 17.761241-42.269768 16.570543-66.3813955-.496124-9.9224806-.496124-19.8449612-3.869767-26.4930233-3.472869-6.9457364-15.280621-13.296124-22.226357-6.9457364-1.289922-6.8465116 5.755039-11.0139535 13.990698-8.5333333-5.854264-7.6403101-12.006202-16.6697675-20.44031-21.4325582zm27.187597 224.3472867c11.410852-5.655814 32.644961-15.181395 39.689922 0 2.67907 5.655814 5.755039 15.082171 7.044961 20.936434 1.885272 8.136434-2.083721 25.401551-10.517829 28.08062-7.441861 2.381396-16.074419 2.282171-25.004651.496124-1.091473-.893023-2.182946-2.381395-3.075969-3.968992-6.350388-.198449-12.403101.297675-17.364341 2.976744.496124 4.762791-2.67907 5.457365-5.755039 6.449613-2.182946 8.831008 4.465116 20.341085 2.877519 28.27907-1.091473 5.755038-8.136434 6.648062-13.296124 7.64031-.198449 3.175193.19845 5.854263.595349 8.533333-1.190698 4.365891-6.449612 6.846512-11.510078 7.44186-16.570542 1.984497-41.674418 2.87752-57.550387-2.877519-4.465116-10.914729-7.937985-24.111628-11.6093024-36.514729-15.4790698 1.686822-28.0806202-6.648062-39.8883721-12.204651-4.0682171-1.885271-9.724031-2.976744-11.3116279-6.251163-1.4883721-3.175193-.8930233-9.227907-1.2899225-14.883721-.8930233-14.586046-1.7860465-28.675968-5.5565892-43.559689-1.6868217-6.747287-4.7627907-12.601551-6.8465116-19.051163-1.9844961-5.953489-5.3581395-13.395349-6.2511628-19.348837-1.2899225-8.831008 7.0449613-9.327132 12.303876-13.1969 8.2356589-5.953488 14.6852713-9.227907 23.6155039-14.586046 2.6790697-1.587597 10.6170542-5.556589 11.5100775-7.441861 1.7860465-3.671317-3.075969-8.831007-4.3658915-11.708527-2.0837209-4.564341-3.1751938-8.434108-3.4728682-12.899225-7.4418605-1.190697-13.1968992-5.655814-16.5705426-10.617054-5.655814-8.334884-9.6248063-23.714729-4.6635659-35.3240308.3968992-.8930233 2.2821705-2.7782946 2.5798449-4.1674419.5953489-2.7782946-1.0914728-6.4496124-1.1906977-9.4263566-.496124-15.1813953 2.579845-28.2790698 12.8-32.8434108 4.1674419-16.5705427 19.0511628-22.027907 33.0418605-30.2635659 5.2589147-3.07596902 11.0139536-5.06046515 16.9674416-7.24341088 21.333334-7.83875969 54.176744-6.3503876 71.937985 7.04496128 7.541085 5.6558139 19.547287 17.6620155 23.813953 26.3937984 11.410853 22.9209302 10.51783 61.3209302 2.579845 89.3023252-1.091473 3.770543-2.579845 9.227907-4.76279 13.792248-1.488373 3.175194-6.151938 9.426357-5.655814 12.204652.595348 2.877519 10.716279 10.517829 12.899224 12.60155 3.869768 3.770543 11.311628 8.731783 11.906977 13.494574.694574 5.060465-2.182946 12.006201-3.671318 16.868217-4.76279 16.272868-9.525581 31.255814-14.982945 45.84186z" fill="#231f20"/><path d="m128.099225 129.885271c.595349-.793798 3.968992-2.083721 8.731783.19845 0 0-5.655814.893023-5.15969 10.31938l-2.381396-.496124c.099225.099225-2.381395-8.434109-1.190697-10.021706" fill="#f7e4cd"/><path d="m169.178295 210.455814c0 1.389147-1.190698 2.579845-2.579845 2.579845-1.389148 0-2.579845-1.190698-2.579845-2.579845s1.190697-2.579845 2.579845-2.579845c1.488372 0 2.579845 1.190698 2.579845 2.579845" fill="#1d1919"/><path d="m171.75814 222.462016c0 1.389147-1.190698 2.579844-2.579845 2.579844-1.389148 0-2.579845-1.190697-2.579845-2.579844 0-1.389148 1.190697-2.579845 2.579845-2.579845 1.488372 0 2.579845 1.091472 2.579845 2.579845" fill="#1d1919"/><g fill="#231f20" transform="translate(.992248 367.131783)"><path d="m35.6217054 7.14418605c-.7937984.0992248-1.4883721.19844961-2.0837209.29767442-.5953488.0992248-1.1906977.19844961-1.9844961.39689922-.8930233.19844961-1.3891473.59534884-1.5875969 1.19069767-.1984496.59534884-.3968993 1.19069764-.3968993 1.98449614v24.2108527c0 2.1829457-.496124 4.2666667-1.3891472 6.151938-.8930233 1.8852713-2.083721 3.3736434-3.6713179 4.6635659-1.5875969 1.1906977-3.3736434 2.1829457-5.3581395 2.7782946-1.9844961.5953488-4.0682171.992248-6.2511628.992248-3.86976744 0-6.94573643-.8930232-9.32713178-2.7782946-2.38139535-1.8852713-3.57209302-4.3658914-3.57209302-7.64031 0-1.8852714.49612403-3.4728683 1.5875969-4.7627907 1.09147287-1.2899225 2.57984496-1.8852714 4.46511628-1.8852714 1.78604651 0 3.1751938.4961241 4.26666662 1.5875969 1.0914729 1.0914729 1.5875969 2.3813954 1.5875969 3.8697675 0 1.2899225-.496124 2.5798449-1.3891472 3.6713178-.8930233 1.0914729-1.98449617 2.1829458-3.17519384 3.075969v.3968992c.19844961.3968993.59534884.7937985 1.19069767 1.0914729.59534884.2976744 1.28992248.3968992 1.88527137.3968992 2.4806201 0 4.4651162-.8930232 5.8542635-2.6790697 1.3891473-1.7860466 2.0837209-4.4651163 2.0837209-8.0372093v-24.8062016c0-.6945736-.0992248-1.38914728-.2976744-1.88527131s-.7937984-.89302326-1.6868217-1.28992248c-.5953488-.29767442-1.3891473-.49612403-2.2821705-.69457364-.8930233-.19844962-1.5875969-.29767442-2.1829458-.39689923v-2.38139535h23.4170543v2.48062016z"/><path d="m72.3348837 41.2775194c-.6945736 1.1906977-1.5875969 2.2821705-2.5798449 3.3736434-.9922481 1.0914729-2.1829458 1.8852713-3.4728683 2.6790698-1.3891472.7937984-2.7782945 1.3891472-4.1674418 1.7860465-1.3891473.3968992-3.075969.5953488-4.8620155.5953488-3.075969 0-5.655814-.3968992-7.9379845-1.2899225-2.1829458-.8930232-4.0682171-1.9844961-5.4573644-3.4728682-1.4883721-1.4883721-2.4806201-3.1751938-3.2744186-5.1596899-.6945736-1.9844961-1.0914728-4.1674419-1.0914728-6.4496124 0-2.0837209.3968992-4.1674419 1.1906976-6.0527132.7937985-1.8852713 1.8852714-3.6713178 3.2744186-5.1596899 1.3891473-1.4883721 3.1751938-2.6790698 5.3581396-3.572093 2.1829457-.8930233 4.5643411-1.3891473 7.144186-1.3891473 2.8775194 0 5.2589148.3968992 7.1441861 1.0914728 1.8852713.6945737 3.3736434 1.6868217 4.5643411 2.8775194 1.1906976 1.1906977 1.9844961 2.579845 2.5798449 4.1674419.4961241 1.5875969.7937985 3.2744186.7937985 5.0604651v1.9844961h-20.9364341c0 4.2666667.7937984 7.4418605 2.4806201 9.6248062 1.5875969 2.1829458 4.2666667 3.2744186 7.7395349 3.2744186 1.9844961 0 3.6713178-.496124 5.2589147-1.5875969 1.5875969-1.0914728 2.8775194-2.3813953 3.9689923-4.068217zm-11.8077519-11.807752c0-1.1906976-.0992248-2.4806201-.1984496-3.7705426s-.2976744-2.3813953-.6945737-3.1751938c-.3968992-.9922481-.7937984-1.6868217-1.4883721-2.1829457-.5953488-.4961241-1.3891473-.6945737-2.2821705-.6945737-1.5875969 0-2.8775194.7937985-3.7705426 2.3813954-.9922481 1.5875969-1.4883721 4.1674418-1.5875969 7.6403101z"/><path d="m116.093023 48.620155h-18.6542633v-2.2821705c.3968992 0 .8930232-.0992248 1.3891473-.1984496.5953488-.0992248.992248-.1984496 1.289922-.2976744.3969-.1984496.694574-.5953489.893024-.9922481.198449-.3968992.297674-1.0914729.297674-1.8852713v-14.4868217c0-2.083721-.396899-3.6713178-1.190698-4.7627907-.793798-1.0914729-1.8852709-1.5875969-3.4728678-1.5875969-.7937984 0-1.5875969.0992248-2.2821705.3968992-.6945736.1984496-1.3891473.5953488-2.0837209 1.0914729-.5953489.3968992-1.0914729.7937984-1.4883721 1.2899225-.3968993.3968992-.6945737.7937984-.8930233 1.1906976v16.5705427c0 .6945736.0992248 1.2899224.2976744 1.7860465.1984496.496124.5953489.8930232.9922481 1.0914728.2976744.1984497.6945736.3968993 1.1906977.4961241.496124.0992248.992248.1984496 1.4883721.2976744v2.2821705h-18.8527132v-2.2821705c.496124 0 .9922481-.0992248 1.5875969-.1984496.496124-.0992248.992248-.1984496 1.3891473-.2976744.6945736-.1984496 1.0914728-.5953489 1.3891473-1.0914729.1984496-.496124.3968992-1.0914729.3968992-1.8852713v-18.0589147c0-.5953489-.1984496-1.2899225-.496124-1.8852714-.2976745-.5953488-.7937985-1.0914728-1.2899225-1.4883721-.3968993-.1984496-.7937985-.496124-1.3891473-.5953488-.5953488-.1984496-1.1906977-.2976744-1.8852713-.2976744v-2.2821706l14.7844961-.7937984.496124.496124v4.4651163h.0992248c.5953489-.496124 1.2899225-1.0914729 2.083721-1.8852713.7937984-.6945737 1.5875969-1.2899225 2.2821705-1.7860465.7937985-.4961241 1.7860465-.8930233 2.9767442-1.2899225s2.5798453-.496124 3.9689923-.496124c3.373643 0 5.854264.992248 7.541085 2.8775193 1.686822 1.8852714 2.48062 4.4651163 2.48062 7.6403101v15.1813954c0 .7937984.099225 1.3891473.297675 1.7860465.198449.496124.694573.7937984 1.289922 1.0914728.297675.0992249.694574.2976745 1.190698.3968993s.992248.1984496 1.686822.2976744v2.3813953z"/><path d="m158.75969 48.620155h-14.586047c-1.786046-3.1751938-3.472868-5.8542635-4.96124-8.0372093-1.488372-2.1829457-2.877519-4.2666666-4.167442-6.0527131l-1.786046 1.5875969v6.7472868c0 .6945736.099225 1.3891473.297674 1.7860465.19845.496124.595349.7937984 1.289923 1.0914729.396899.1984496.793798.2976744 1.289922.3968992s.992248.1984496 1.488372.1984496v2.2821705h-19.249612v-2.2821705c.496124 0 .992248-.0992248 1.587597-.1984496.496124-.0992248.992248-.1984496 1.389147-.2976744.694574-.1984496 1.091473-.5953489 1.389147-1.0914729.19845-.496124.396899-1.0914729.396899-1.8852713v-34.53023258c0-.69457364-.198449-1.38914729-.496124-2.08372093-.297674-.69457364-.694573-1.28992248-1.289922-1.6868217-.396899-.19844962-.992248-.49612404-1.786047-.59534884-.793798-.19844961-1.488372-.29767442-2.182945-.29767442v-2.28217054l15.379845-.79379845.496124.49612403v31.95038763c1.488372-1.3891473 3.274418-2.9767442 5.15969-4.7627907 1.885271-1.7860465 3.472868-3.2744186 4.564341-4.4651163.694573-.6945737 1.091473-1.1906977 1.091473-1.5875969.099224-.3968992.099224-.5953488.099224-.6945737 0-.3968992-.297674-.6945736-.992248-.8930232-.694573-.1984496-1.587597-.496124-2.976744-.6945737v-2.1829457h15.67752v2.1829457c-2.083721.5953489-3.671318 1.0914729-4.762791 1.5875969-1.091473.4961241-2.282171 1.1906977-3.572093 1.9844962-.893023.5953488-1.686822 1.1906976-2.48062 1.7860465-.793799.5953488-1.686822 1.3891473-2.778295 2.2821705 1.984496 2.9767442 3.869768 5.655814 5.556589 8.1364341 1.686822 2.4806202 3.472868 5.15969 5.35814 7.9379845.595349.9922481 1.389147 1.5875969 2.381395 1.9844962.992248.2976744 1.885271.496124 2.87752.5953488v2.3813953z"/><path d="m178.604651 48.620155h-19.547287v-2.2821705c.496124 0 1.091473-.0992248 1.587597-.1984496s.992248-.1984496 1.289923-.2976744c.694573-.1984496 1.091473-.5953489 1.389147-1.0914729s.396899-1.0914729.396899-1.8852713v-18.0589147c0-.6945737-.198449-1.3891473-.496124-1.8852714-.297674-.5953488-.694573-.992248-1.190697-1.2899224-.3969-.1984497-.893024-.4961241-1.686822-.6945737-.793799-.1984496-1.488372-.3968992-2.083721-.3968992v-2.2821706l15.181395-.7937984.496124.496124v24.607752c0 .6945736.19845 1.2899224.496124 1.8852713.297675.496124.793799.8930232 1.289923 1.0914728.396899.1984497.893023.3968993 1.389147.4961241s.992248.1984496 1.587597.2976744v2.2821705zm-4.465116-42.1705426c0 1.5875969-.595349 2.87751938-1.786047 3.9689923-1.190697 1.0914728-2.679069 1.6868217-4.266666 1.6868217-1.686822 0-3.075969-.5953489-4.365892-1.6868217-1.190697-1.09147292-1.786046-2.4806202-1.786046-3.9689923 0-1.5875969.595349-2.87751938 1.786046-4.06821705 1.190698-1.09147287 2.67907-1.68682171 4.365892-1.68682171 1.686821 0 3.075969.59534884 4.266666 1.68682171 1.190698 1.09147287 1.786047 2.48062015 1.786047 4.06821705z"/><path d="m222.362791 48.620155h-18.654264v-2.2821705c.396899 0 .893023-.0992248 1.389147-.1984496.595349-.0992248.992248-.1984496 1.289923-.2976744.396899-.1984496.694574-.5953489.893023-.9922481.19845-.3968992.297675-1.0914729.297675-1.8852713v-14.4868217c0-2.083721-.3969-3.6713178-1.190698-4.7627907-.793799-1.0914729-1.885271-1.5875969-3.472868-1.5875969-.793799 0-1.587597.0992248-2.282171.3968992s-1.389147.5953488-2.083721 1.0914729c-.595349.3968992-1.091473.7937984-1.488372 1.2899225-.396899.3968992-.694574.7937984-.893023 1.1906976v16.5705427c0 .6945736.099225 1.2899224.297674 1.7860465.19845.496124.595349.8930232.992248 1.0914728.297675.1984497.694574.3968993 1.190698.4961241s.992248.1984496 1.488372.2976744v2.2821705h-18.852713v-2.2821705c.496124 0 .992248-.0992248 1.587597-.1984496.496124-.0992248.992248-.1984496 1.389147-.2976744.694574-.1984496 1.091473-.5953489 1.389147-1.0914729.19845-.496124.3969-1.0914729.3969-1.8852713v-18.0589147c0-.5953489-.19845-1.2899225-.496124-1.8852714-.297675-.5953488-.793799-1.0914728-1.289923-1.4883721-.396899-.1984496-.793798-.496124-1.389147-.5953488-.595349-.1984496-1.190698-.2976744-1.885271-.2976744v-2.2821706l14.784496-.7937984.496124.496124v4.4651163h.099224c.595349-.496124 1.289923-1.0914729 2.083721-1.8852713.793799-.6945737 1.587597-1.2899225 2.282171-1.7860465.793798-.4961241 1.786046-.8930233 2.976744-1.2899225s2.579845-.496124 3.968992-.496124c3.373644 0 5.854264.992248 7.541086 2.8775193 1.686821 1.8852714 2.48062 4.4651163 2.48062 7.6403101v15.1813954c0 .7937984.099225 1.3891473.297674 1.7860465.19845.496124.694574.7937984 1.289923 1.0914728.297674.0992249.694573.2976745 1.190697.3968993s.992248.1984496 1.686822.2976744v2.3813953z"/><path d="m239.528682 49.7116279c-1.984496 0-3.968992-.2976744-5.854263-.8930232-1.885272-.5953489-3.373644-1.1906977-4.465117-1.8852714l-.893023 2.083721h-2.381395l-.3969-11.5100776h2.282171c.297674.8930233.793798 1.9844962 1.587597 3.1751938.694574 1.1906977 1.587597 2.1829458 2.48062 3.1751938.992248.8930233 2.083721 1.6868217 3.373644 2.3813954 1.289922.5953488 2.579844.9922481 3.968992.9922481 1.885271 0 3.274418-.3968993 4.167442-1.0914729.893023-.6945737 1.389147-1.8852713 1.389147-3.3736434 0-.7937985-.19845-1.4883721-.595349-2.083721-.396899-.496124-.992248-.992248-1.686822-1.3891472-.793798-.3968993-1.686821-.7937985-2.679069-1.0914729s-2.182946-.5953488-3.572093-1.0914729c-1.389148-.3968992-2.579845-.7937984-3.572093-1.2899225-.992249-.3968992-2.083721-1.0914728-3.075969-1.9844961-.893024-.7937984-1.686822-1.7860465-2.182946-2.8775194-.595349-1.0914728-.793799-2.4806201-.793799-4.068217 0-2.8775194 1.190698-5.2589147 3.671318-7.0449613 2.48062-1.7860465 5.655814-2.6790697 9.624806-2.6790697 1.885272 0 3.572093.1984496 5.15969.5953488s2.87752.7937985 3.968993 1.2899225l.694573-1.7860465h2.381396l.496124 10.5178294h-2.182946c-.694574-2.1829457-1.984496-3.9689922-3.671318-5.5565891-1.786046-1.5875969-3.671318-2.3813954-5.655814-2.3813954-1.587597 0-2.877519.2976745-3.770543.9922481-.893023.6945736-1.389147 1.5875969-1.389147 2.7782946 0 1.5875969.694574 2.6790697 1.984496 3.3736434 1.289923.6945736 3.175194 1.3891473 5.556589 1.9844961 3.671318.9922481 6.350388 2.2821706 8.136435 3.8697675 1.686821 1.6868217 2.579844 3.7705426 2.579844 6.2511627 0 3.3736435-1.289922 6.0527132-3.968992 7.8387597-2.976744 1.7860465-6.449612 2.7782946-10.716279 2.7782946z"/></g></svg>