<svg height="214" preserveAspectRatio="xMidYMid" viewBox="0 0 256 214" width="256" xmlns="http://www.w3.org/2000/svg" xmlns:xlink="http://www.w3.org/1999/xlink"><linearGradient id="a" x1="5.603498%" x2="91.025171%" y1="10.33402%" y2="83.140865%"><stop offset="0" stop-color="#aa4a9b"/><stop offset="1" stop-color="#f05922"/></linearGradient><linearGradient id="b" x1="1.962864%" x2="97.365862%" y1="101.045045%" y2="13.164068%"><stop offset="0" stop-color="#ffe42e"/><stop offset="1" stop-color="#ed417c"/></linearGradient><linearGradient id="c" x1="12.266809%" x2="99.471675%" y1="92.394069%" y2="-3.944533%"><stop offset="0" stop-color="#ffe42e"/><stop offset="1" stop-color="#f05922"/></linearGradient><path d="m145.91776 103.058478-112.2906034-97.65179384c-5.5651867-5.23653336-13.6557005-6.7843549-20.7607815-3.97181015-7.10508112 2.81254475-11.9441568 9.47854139-12.41738122 17.10537839-.47322442 7.6268371 3.50469327 14.8399041 10.20759402 18.5091964l126.3022921 78.4081192.573368.358355c3.522872 2.315595 8.255884 1.336905 10.571479-2.185967 2.315595-3.522871 1.336905-8.255883-2.185967-10.571478z" fill="url(#a)"/><path d="m255.789466 118.664847c-.394697-9.862306-5.974503-18.7808738-14.670834-23.4493529-8.696331-4.6684792-19.212892-4.3909756-27.650915.7296328l-157.6762909 89.7500611-.2687664.143342c-4.6538175 1.96843-7.9039771 6.270117-8.5261752 11.284656s1.478092 9.980103 5.5097114 13.026212 9.3820691 3.709986 14.0358863 1.741556l171.7954858-66.295713.430026-.179178c10.685863-4.508525 17.46446-15.161627 17.021872-26.751216z" fill="url(#b)"/><path d="m128.806299 114.490009c1.827995-3.545266.618035-7.90023-2.776795-9.994413-3.39483-2.094182-7.82968-1.221356-10.177745 2.003092l-66.5644799 84.464322-.1433421.286684c-2.8960288 4.395102-3.1105789 10.035192-.5568173 14.637605 2.5537615 4.602413 7.4529488 7.40502 12.7147564 7.273547 5.2618077-.131473 10.0149154-3.175255 12.3356392-7.899464l54.7029217-90.018827c.169579-.241715.325123-.492978.465862-.752546z" fill="url(#c)"/><path d="m81.718425 63.782747h91.416413v91.416413h-91.416413z"/><path d="m116.048717 106.67677-2.34709-3.403279c1.909451-.711127 3.145575-2.568928 3.063937-4.6048646.059942-1.2925379-.420387-2.5517791-1.325914-3.4760455-1.338364-1.1627377-3.088576-1.7375305-4.855713-1.5946806h-7.04168.071671v14.8717407h4.121085v-4.515275h1.791776l3.010184 4.515275h2.756513l-.015096.035836h4.31818l1.057148-2.687664h5.787437l1.057148 2.687664h4.425687l-6.342888-15.0150833h-3.977742zm-26.4464773 31.375094h34.2766753v5.715765h-34.2766753zm-.3762729-50.2055648 2.6518285-2.5084864c.5178344.8076689 1.3896593 1.3201156 2.3472266 1.3796675.5104052-.0239837.9862904-.2647404 1.3079877-.6617285.3216973-.3969882.4585999-.9124376.3762817-1.4167317v-9.4247419h4.1031667v9.4426597c.117046 1.5414136-.4156574 3.0615682-1.4692559 4.1927559-1.1035099 1.0313557-2.5763818 1.5739927-4.0852493 1.5050919-2.0557754.1013747-4.023735-.8421676-5.231986-2.5084865zm11.7361332-12.632021h11.986981v3.4939633h-7.901732v2.2755555h7.167104v3.2610324h-7.167104v2.3651444h8.009239v3.583552h-12.094488v-14.9075765zm17.398145 3.6193876h-4.443605v-3.5835521h13.04413v3.5835521h-4.461522v11.288189h-4.121085v-11.288189zm-28.7580053 14.7642345h7.6329659c1.4781879-.1167799 2.9419624.3603978 4.0673314 1.3259142.629059.6457185.971384 1.5176793.949641 2.4188977.030662 1.4839988-.893935 2.8203308-2.2934728 3.3147858 1.7311578.307485 2.9835258 1.825507 2.9564308 3.583552 0 2.56224-2.078461 4.103167-5.6440949 4.103167h-7.6867191v-14.7463167zm8.600525 4.6048644c0-.824217-.6629572-1.272161-1.7917761-1.272161h-2.7055818v2.615993h2.5980753c1.2542432 0 1.9709536-.4300263 1.9709536-1.2900788zm-1.4334209 4.2285913h-3.1535258v2.741417h3.1893614c1.2721609 0 1.9709536-.483779 1.9709536-1.361749.0179177-.895888-.6092039-1.379668-2.0067892-1.379668zm13.6533332-1.666352c.543868.134714 1.119441.007258 1.555589-.344475.436148-.351732.682649-.8872379.666213-1.4473007.017996-.5640982-.23084-1.1037052-.671551-1.4562738s-1.021779-.4768855-1.568169-.3355022h-2.723499v3.5835517zm14.764235 1.827612-1.666352-4.2106737-1.68427 4.2106737zm7.220857-8.9947157h4.121085v14.9075767h-4.121085zm5.160315 0h3.852318l6.127874 7.8838147v-7.8838147h4.08525v14.9075767h-3.583552l-6.378723-8.170499v8.170499h-4.085249v-14.9075767zm14.31629 12.6857747 2.293474-2.741418c1.359527 1.134163 3.067481 1.766738 4.837795 1.791776 1.128819 0 1.791776-.376273 1.791776-1.021312s-.483779-.949641-2.526404-1.451339c-3.171444-.71671-5.626177-1.612598-5.626177-4.6586173 0-2.7593351 2.185967-4.7661243 5.769519-4.7661243 2.211272-.0871836 4.382049.6110197 6.127874 1.9709537l-2.060542 2.9205949c-1.206372-.9093561-2.664842-1.4226374-4.174839-1.4692564-1.003394 0-1.487174.4121085-1.487174.9496413 0 .6808749.519615.9854768 2.598076 1.4513386 3.404374.7525455 5.536587 1.7917765 5.536587 4.6406995 0 3.04602-2.400979 4.855713-6.020367 4.855713-2.577741.07545-5.092286-.805279-7.059598-2.47265z" fill="#fff"/></svg>