<svg height="325" preserveAspectRatio="xMidYMid" viewBox="0 0 256 325" width="256" xmlns="http://www.w3.org/2000/svg"><g fill="#495061" transform="translate(0 245.836228)"><path d="m255.380645 66.3205161s.809926-21.8635434-15.403831-35.9848337c-16.213122-14.1219256-55.850561-30.85975188-113.569985-29.98757322-57.7187893.87217866 22.453042 64.66890322 22.453042 64.66890322z"/><path d="m.00698759 66.3205161s-.80992556-21.8927642 15.40764271-36.0331116c16.2175682-14.1409827 55.864536-30.90104222 113.5979357-30.02822832 57.733399.87281389-22.45876 64.75593052-22.45876 64.75593052s-36.0788482.4421241-66.2474636.8118313c-21.6755136.2648933-40.29935481.4935781-40.29935481.4935781z"/></g><g transform="translate(37.478908)"><path d="m18.6791067 130.216337s-7.2817072-2.927166-12.78920099.523435c-5.5074938 3.4506-7.58534988 18.53999-2.87126551 25.136278 4.7147196 6.595652 9.5482283 14.570402 14.616139 15.18658 5.0685459.615544 10.962263-1.047503 10.962263-1.047503l-2.0880199-20.161112z" fill="#ebcfc2"/><path d="m158.125419 130.161707s7.285519-2.918908 12.796189.522164 7.589796 18.489171 2.872536 25.066402c-4.717261 6.577866-9.55331 14.530382-14.624397 15.144655s-10.96798-1.044328-10.96798-1.044328l2.08929-20.105846z" fill="#ebcfc2"/><path d="m163.870491 165.933737c2.596209 0 4.700745 2.104536 4.700745 4.700109s-2.104536 4.700109-4.700745 4.700109c-2.596208 0-4.700744-2.104536-4.700744-4.700109.000635-2.595573 2.105171-4.700109 4.700744-4.700109z" fill="#4189c6"/><path d="m123.396447 221.814789h-70.25072v52.921489l35.1730025 15.880893 35.0777175-15.880893z" fill="#f5e0d4"/><path d="m85.0047047 29.3720298c44.3159503-.6809727 69.4649333 21.8203474 79.9107493 55.0946302 12.836209 40.890759-5.979474 87.461161-21.413796 113.845042-6.325043 10.812348-11.967842 21.374412-21.935961 28.461102-6.714441 4.773796-16.214392 7.692069-25.8534588 9.400218-12.1552357 2.153449-28.7622035-2.540943-35.5160298-6.527682-24.1243474-14.24135-43.0365856-60.98263-50.1397915-93.217032-3.19015387-14.477023-2.5523772-35.17872 1.3060446-48.3058663 7.5770918-25.7816774 21.8114541-43.867474 45.7001291-53.2670571 5.8803771-2.3141638 12.5122382-3.4156625 19.3245062-4.7001092 2.872536-.2604466 5.7457072-.5221637 8.6176079-.7832456z" fill="#f5e0d4"/><path d="m55.8874045 121.283653c8.1488039 0 14.7546203 6.605181 14.7546203 14.752714 0 8.147534-6.6058164 14.752715-14.7546203 14.752715-8.148804 0-14.7546204-6.605181-14.7546204-14.752715-.0006352-8.147533 6.6058164-14.752714 14.7546204-14.752714z" fill="#fff"/><path d="m61.7658759 135.905509c0 3.462034-2.8077419 6.269776-6.2697766 6.269776-2.5663524 0-4.7706204-1.543622-5.7361787-3.74789.3811414.222332.8258064.349379 1.2958809.349379 1.4419851 0 2.6108188-1.168834 2.6108188-2.610819s-1.1688337-2.610819-2.6108188-2.610819c-.5780645 0-1.1116625.190571-1.5499752.514541.78134-2.566352 3.1698263-4.427593 5.990273-4.427593 3.4620347 0 6.2697766 2.80139 6.2697766 6.263425z" fill="#333"/><path d="m122.587156 121.283653c8.148804 0 14.754621 6.605181 14.754621 14.752714 0 8.147534-6.605817 14.752715-14.754621 14.752715s-14.75462-6.605181-14.75462-14.752715c-.000635-8.147533 6.605816-14.752714 14.75462-14.752714z" fill="#fff"/><path d="m128.465628 135.905509c0 3.462034-2.807742 6.269776-6.269777 6.269776-2.566352 0-4.77062-1.543622-5.736179-3.74789.381142.222332.825807.349379 1.295881.349379 1.441985 0 2.610819-1.168834 2.610819-2.610819s-1.168834-2.610819-2.610819-2.610819c-.578064 0-1.111662.190571-1.549975.514541.78134-2.566352 3.169826-4.427593 5.990273-4.427593 3.462035 0 6.269777 2.80139 6.269777 6.263425z" fill="#333"/><g fill="#4189c6"><path d="m81.8710868 136.428308h15.9298065v6.527682h-15.9298065z"/><path d="m77.1703424 116.060744h-42.3066997c-2.8839702 0-5.2216377 2.337668-5.2216377 5.221638v32.377965c0 2.883971 2.3376675 5.221638 5.2216377 5.221638h42.3066997c2.8839703 0 5.2216377-2.337667 5.2216377-5.221638v-32.377965c0-2.88397-2.3376674-5.221638-5.2216377-5.221638zm-1.0926054 33.114839c0 2.134392-1.7659554 3.868586-3.9448139 3.868586h-31.9841191c-2.1852109 0-3.9511663-1.734194-3.9511663-3.868586v-23.973796c0-2.134392 1.7659554-3.868586 3.9511663-3.868586h31.9841191c2.1788585 0 3.9448139 1.734194 3.9448139 3.868586z"/><path d="m143.234859 116.060744h-42.3067c-2.8839704 0-5.2216379 2.337668-5.2216379 5.221638v32.377965c0 2.883971 2.3376675 5.221638 5.2216379 5.221638h42.3067c2.88397 0 5.221637-2.337667 5.221637-5.221638v-32.377965c0-2.88397-2.337667-5.221638-5.221637-5.221638zm-1.092606 33.114839c0 2.134392-1.765955 3.868586-3.944814 3.868586h-31.984119c-2.185211 0-3.951166-1.734194-3.951166-3.868586v-23.973796c0-2.134392 1.765955-3.868586 3.951166-3.868586h31.984119c2.178859 0 3.944814 1.734194 3.944814 3.868586z"/></g><path d="m57.0333697 96.5945806c-15.6890521.3430273-24.7792754 5.4465114-24.7792754 10.7589874 0 5.313112 8.3539851 3.806333 14.6072457 1.312397 6.2526253-2.493935 14.5291116-2.300188 17.9974987.262353s10.9031861 3.280992 11.2157221-2.099454c.312536-5.380447-13.6925062-10.3505315-19.0411911-10.2342834z" fill="#b08f7e"/><path d="m121.042898 96.4783325c15.708109.3411216 24.809132 5.4191965 24.809132 10.7056275 0 5.286432-8.363514 3.787276-14.624397 1.30541-6.260248-2.481231-14.546899-2.288755-18.019097.261082-3.472199 2.549836-10.915891 3.265111-11.229062-2.088655-.313171-5.354402 13.707752-10.3003479 19.063424-10.1834645z" fill="#b08f7e"/><path d="m160.398928 161.600794c-4.884963 14.159405-11.12933 26.845062-16.89727 36.710273-6.326948 10.811712-11.967842 21.375682-21.93469 28.464913-6.714442 4.77062-16.217568 7.686353-25.8540946 9.395137-12.1584119 2.153449-28.7634739-2.540943-35.5160297-6.523871-17.297469-10.208239-31.9142432-37.129529-41.4237221-63.428288-.0317618-1.80407.088933-3.506501.4256079-4.986601.2604467-.08258.5208933-.171513.78134-.260446 3.8749379-1.492804 7.8515136 2.64258 9.9223821 4.179851 7.591067 5.628188 13.0477419 12.749181 19.8447643 19.057072-1.4292804-5.196229 2.8204466-16.801985 8.0992556-12.266402 2.3884863 1.734193.3493796 7.781637 1.0417866 10.964168 11.5231761 7.756229 12.7047146-6.314243 18.2820843-9.141042 3.7478909-.717816 7.2734492 2.471067 10.9705211 3.138065 6.0283871 1.079901 8.9250621-3.093598 14.1022335-3.398511 5.189876 2.998312 5.22799 12.8 14.36268 10.970521 2.267791-.45737 3.284168-.317618 4.173498-2.089926 1.727842-3.290521-1.060843-8.556625.787693-10.710074 1.842183-2.147097 2.089925-.343028 3.131712-.520894 3.786005 1.753251 7.235335 7.114641 5.221638 12.793648 2.178858-2.350372 4.351364-4.700744 6.530223-7.044764 6.619156-6.70809 12.634839-11.967841 21.674243-16.452606.520893.088933 1.048139.171514 1.569032.260447.235038.298561.470075.590769.705112.88933z" fill="#b08f7e"/><path d="m69.0748983 193.611593s5.3054888 9.196943 20.1083871 8.878055c14.8028986-.319524 19.8473056-8.878055 19.8473056-8.878055s-9.6778168-3.132983-17.4969334-3.132983c-3.3591266 0-6.8205261 1.860606-11.2290621 2.611455-4.4091712.750213-11.2296972.521528-11.2296972.521528z" fill="#ebcfc2"/><path d="m113.935881 233.884268c-3.954978 1.425469-7.909955 2.857926-11.864933 4.283395.656834 5.451593 1.32129 10.903186 1.977489 16.354779 3.425191 1.814868 6.858005 3.636724 10.283196 5.451593 3.021816-1.697985 6.043633-3.395335 9.064814-5.100943v-17.97463c-3.156487-1.004943-6.304715-2.009886-9.460566-3.014194zm5.72665 19.049449c0-.047007-1.771672-3.473469-1.771672-3.473469h-6.328219c-.656834 1.168199-1.320655 2.336397-1.977489 3.504596h-2.768357c2.373241-5.451593 7.514839-16.354779 7.514839-16.354779l7.909955 16.354779z" fill="#979a9b"/><path d="m116.700427 246.733181h-4.350094l1.983205-5.450958z" fill="#979a9b"/><path d="m70.1230372 235.873826c-3.4544119-.853121-8.7643474-.484685-12.9403871-.438948-1.536 1.030353-2.8706302 2.684507-4.0375583 4.543842 0 3.427096.2471067 12.488734.2471067 16.239166 1.0760893 1.556963 2.2023623 2.853479 3.1317122 3.563037h12.9403871c2.0156029-.947772 2.6629082-3.362303 3.7288337-5.264198 1.1688338-1.974313 2.3402085-3.947991 3.5090422-5.922303.6238015-2.473608-5.3467792-11.055643-6.5791365-12.720596zm-7.6768238 3.728834h1.0964169c.1467394.219156.2915732.438948.4389479.658104.0724168 2.485042.1467394 4.97199.2191563 7.457668-.7019355.43196-.6911365.592039-1.5353648.438948-1.2698362-.926809-.9141042-7.204209-.2191563-8.55472zm2.193469 15.133856c-8.5674243 2.10136-9.7515037-7.227077-7.4576675-12.282918.5113648-.438948 1.024-.877261 1.5353648-1.316208.4389478.072416.8772605.146739 1.3162084.219156.0724169.219156.1467394.438948.2191563.658104-2.2068089 3.305132-4.9281588 9.088953 1.3162085 10.747553 7.3477717 1.95208 8.4594342-7.507851 4.3869379-10.308605v-.877261c.2915732-.219156.5856874-.438947.8772606-.658104 5.9832853 3.101856 3.7923573 12.350889-2.193469 13.818283z" fill="#979a9b"/><path d="m123.654352 248.18406-37.8657664 44.389002 23.2420054 5.744437 25.853459-28.722184s-.028586-8.329846-2.089291-12.272119c-2.060704-3.942273-9.140407-9.139136-9.140407-9.139136z" fill="#fff"/><path d="m53.1450918 248.18406 37.8657668 44.389002-23.242005 5.744437-25.8534591-28.722184s.0285856-8.329846 2.0892904-12.272119c2.0607047-3.942273 9.1404069-9.139136 9.1404069-9.139136z" fill="#fff"/><path d="m8.48929032 124.939434s3.89590078-10.811712 4.17858068-15.144655 3.2848039-29.8198708 12.5351067-42.5614291c5.9508883-9.1715335 14.6586997-11.0734293 23.2420049-9.1391365 8.5833052 1.934928 18.5272854 7.0987593 28.7259951 5.7444367 10.1987096-1.3543226 36.0921883-14.3639503 46.7450913-9.4002183 10.652904 4.9643672 28.551306 13.6378759 30.554204 30.027593 2.002263 16.3897172 13.579434 42.3003472 13.579434 42.3003472s5.997261-41.8410718 6.006154-53.005975-29.061399-43.932268-34.993231-50.3945211c-5.931831-6.4622531-25.124843-23.29599997-36.560992-22.71602975-11.4361492.58060546-26.8368043 9.86394045-32.904576 10.44454595-6.0677717.5806054-10.0557816-2.28176679-16.7130521-1.0443276-6.6572704 1.2374392-13.7160099.8709082-33.9489032 21.9334194-20.23225806 21.0625111-18.12581638 52.6305508-16.71305211 70.2392851 1.41276427 17.608735 6.26723573 22.716665 6.26723573 22.716665z" fill="#b08f7e"/><path d="m63.5909082 56.5277221s-4.9751663-7.4538561 1.3060447-21.1501737c6.2805756-13.6963176 6.5283176-20.1058462 6.5283176-20.1058462s-3.5573201 8.8666204-8.3565261 20.1058462c-4.7998412 11.2392258.5221638 21.1501737.5221638 21.1501737z" fill="#d5ad98"/><path d="m81.8710868 58.6170124s14.1047742-16.2804566 23.2420052-23.4999107 20.369469-15.4057369 20.369469-15.4057369-8.872973 2.1839404-22.197042 13.5781637c-13.3247051 11.3935881-21.4144322 25.3274839-21.4144322 25.3274839z" fill="#d5ad98"/><path d="m72.2085161 56.2666402s-.3042779-15.1370323 7.0511167-31.8558015c7.3547593-16.71813399 22.1976772-19.32196525 22.1976772-19.32196525s-10.8669775 4.94467495-18.5412604 19.84476425c-7.6742829 14.8994541-10.7075335 31.3330025-10.7075335 31.3330025z" fill="#d5ad98"/></g><g transform="translate(69.875931 278.868486)"><path d="m65.3587692 19.1199603s-55.41415382-32.1518213-60.20383123-12.15968238c-4.78967742 19.99213898-10.17266502 35.20412898 4.58449627 38.01568238 14.75716126 2.8115533 55.61933496-25.856 55.61933496-25.856z" fill="#3373aa"/><path d="m55.7794144 14.2883573c15.906938-8.2224913 47.3085456-22.29867988 50.9027096-7.39223819 4.837955 20.06455579 10.25461 35.32736479-4.466978 38.19291319-10.3454487 2.0136972-33.6039698-11.5504914-46.5170418-19.7914045-.0133399-9.7464218.0952854-1.4057767.0813102-11.0092705z" fill="#4189c6"/></g></svg>