<svg height="200" preserveAspectRatio="xMidYMid" viewBox="0 0 512 200" width="512" xmlns="http://www.w3.org/2000/svg"><g fill="#264970"><g transform="translate(157.363029 47.893096)"><path d="m311.545728 3.49163474c-.470948-1.49608908-1.857568-2.5121069-3.425496-2.5121069h-33.519466c-1.567929 0-2.953407 1.01601782-3.424356 2.5121069l-42.289604 134.12917626c-.344374 1.091278-.14824 2.281764.527965 3.205416.676205.923653 1.752659 1.467581 2.897532 1.467581h23.07535c1.591875 0 2.994458-1.046806 3.444882-2.574824l29.122423-98.6472334s.761728-2.4642139 3.399269-2.4642139c2.680873 0 3.334272 2.5611404 3.334272 2.563421l13.511554 46.7801514h-18.563135c-1.60898 0-3.021827 1.0696125-3.457426 2.6181559l-5.208944 18.518664c-.304463 1.083296-.084383 2.245274.595243 3.140418.679625.897426 1.737835 1.42311 2.863323 1.42311h31.325505l8.138405 26.117701c.467528 1.501791 1.857568 2.52465 3.430058 2.52465h23.086753c1.144873 0 2.220187-.543928 2.896392-1.467581.677345-.923652.873479-2.114138.529105-3.205416z"/><path d="m153.918147 27.0949488h27.933078c14.44547 0 17.345283 5.6844543 17.345283 14.8571225v13.6985657c0 11.4168018-4.375377 15.268775-17.345283 15.268775h-27.933078zm85.288481 109.2692382-30.693773-44.2760266c13.216214-5.4826192 19.914406-16.9724009 19.914406-34.1546192v-18.0568374c0-26.9022361-14.045221-38.89717596-45.539493-38.89717596h-54.607251c-1.983003 0-3.591982 1.60783964-3.591982 3.59084187v134.13031629c0 1.985283 1.608979 3.593122 3.591982 3.593122h22.045648c1.983002 0 3.591982-1.607839 3.591982-3.593122v-42.0661025h22.561069l30.68351 44.1175235c.671644.964704 1.773185 1.541701 2.948846 1.541701h26.344624.022806c1.984143 0 3.591982-1.607839 3.591982-3.593122 0-.892864-.324988-1.709327-.864356-2.336499z"/><path d="m97.9048909.97952784h-22.0456481c-1.9830023 0-3.5919822 1.60783964-3.5919822 3.59084187v134.13031629c0 1.985283 1.6089799 3.593122 3.5919822 3.593122h22.0456481c1.9841425 0 3.5931221-1.607839 3.5931221-3.593122v-134.13031629c0-1.98300223-1.6089796-3.59084187-3.5931221-3.59084187"/><path d="m46.2761336.97952784h-22.3136214c-1.8894966 0-3.4300579 1.53257906-3.4300579 3.42093541v104.95657875c0 13.189987-10.0507082 17.525452-16.85266811 17.872107-.91681069.044472-1.98414254.62261-2.5702628 1.478985-.5884009.859795-.75260579 1.93853-.44700223 2.932882l5.42560356 17.647465c.44244098 1.444775 1.99896659 2.372989 4.53159908 2.372989 21.3500579 0 39.0773452-16.762584 39.0773452-39.231287v-108.02857944c0-.90768819-.3591982-1.77888641-1.002334-2.42088196-.6408553-.64199554-1.5109132-1.00119376-2.4186014-1.00119376"/></g><path d="m30.8465746 12.2811581c-6.8555546 0-12.4065924 5.544196-12.4065924 12.4168553 0 6.8555545 5.5510378 12.4191358 12.4065924 12.4191358 6.8612561 0 12.4065924-5.5635813 12.4065924-12.4191358 0-6.8726593-5.5453363-12.4168553-12.4065924-12.4168553"/><path d="m112.356062 12.2811581c-6.858975 0-12.4031711 5.544196-12.4031711 12.4168553 0 6.8555545 5.5441961 12.4191358 12.4031711 12.4191358 6.839591 0 12.404312-5.5635813 12.404312-12.4191358 0-6.8726593-5.564721-12.4077328-12.404312-12.4168553"/><path d="m71.6013185.95102005c-6.8555546 0-12.4065924 5.54305567-12.4065924 12.41799555 0 6.8555546 5.5510378 12.4202762 12.4065924 12.4202762 6.8601158 0 12.4043118-5.5647216 12.4043118-12.4202762 0-6.87493988-5.544196-12.41799555-12.4043118-12.41799555"/><path d="m141.686022 46.8816392c-.691029-.5245434-1.520035-.797078-2.361585-.797078-.467528 0-.939617.0855234-1.38662.2577105-8.400677 3.2122584-16.931349 5.6513853-24.717398 7.4656214-1.588455.3706013-2.871305 1.5496837-3.402691 2.965951-5.673051 15.539029-20.1584318 30.3357149-35.3565075 45.8336929-.6100668.579278-1.4641604 1.343287-2.8553408 1.343287-1.3877594 0-2.2338708-.740062-2.8553407-1.343287-15.1957951-15.497978-29.681176-30.2433499-35.3565078-45.7835192-.5325256-1.4151269-1.8153764-2.5942093-3.4004098-2.965951-7.7906103-1.8142361-16.3429488-4.3286236-24.73336305-7.5408819-.44928285-.1710468-.92137194-.2565702-1.39004009-.2565702-.84155011 0-1.65573274.2645523-2.34448107.7902361-1.07645434.8210245-1.63520712 2.1529087-1.5074922 3.4323385 1.28627171 12.9220134 6.39258797 25.5543875 15.60744771 38.7922673 8.6618084 12.4453634 19.9600178 23.9659334 30.8830645 35.1056394 20.1265034 20.529033 39.1389221 39.917755 40.8071983 62.401283.1505211 2.027474 1.8404632 3.599964 3.8782004 3.599964h23.6455051c1.065052 0 2.08221-.43788 2.817711-1.209871.73208-.770851 1.119786-1.806254 1.066191-2.871305-.743483-15.03159-6.40057-30.084846-17.293968-46.015002-2.2829046-3.339973-4.7277331-6.589862-7.2843121-9.770192-1.0388241-1.295394-.6043653-2.904374.190432-3.716276.7856749-.80392 1.5747706-1.605559 2.3684276-2.418601 10.9241875-11.140847 22.2201155-22.660276 30.8842045-35.1056394 9.21372-13.2390201 14.317755-25.797274 15.605167-38.7170067.128856-1.2988152-.460685-2.6763118-1.507492-3.4768107"/><path d="m46.2316615 141.670058c-.5587528-.58498-1.3809176-1.182503-2.7606949-1.182503-1.7652027 0-2.8120089 1.220133-3.2076971 1.824498-9.9457996 15.135359-15.0829042 29.420045-15.7933185 43.77543-.051314 1.05821.3386726 2.109577 1.0707528 2.882709.7355011.76857 1.766343 1.212151 2.8291136 1.212151h23.6055946c2.0308953 0 3.7413631-1.589595 3.8907439-3.614788.5142806-6.918272 2.6683296-13.853649 6.5898619-21.141381 1.3592517-2.52123.303323-4.889657-.4789309-5.902254-3.8907439-5.059564-8.6561069-10.456659-15.7454254-17.853862"/><path d="m71.6275457 58.4660668c7.4108864 0 11.7087216-.4447216 13.2184944-.4447216 1.8290601 0 3.5771581 1.4983697 3.5771581 3.5965434 0 .6123475-.1448196 1.0502272-.2884989 1.4367929-.9829487 2.6272784-5.4620935 12.0804633-13.8011937 20.1892205-.9350557.9099688-1.9955457 1.0798753-2.7253452 1.0798753h-.0091225c-.7286593 0-1.7880089-.1699065-2.7230646-1.0798753-8.3391002-8.1087572-12.8193853-17.5619421-13.8000535-20.1892205-.1448196-.3865657-.2896392-.8244454-.2896392-1.4367929 0-2.0981737 1.7503786-3.5965434 3.5794388-3.5965434 1.5097728 0 5.8053274.4447216 13.2127928.4447216z"/></g></svg>