<svg height="116" viewBox="0 0 512 116" width="512" xmlns="http://www.w3.org/2000/svg"><g fill="none" fill-rule="evenodd"><g fill="#1a1918"><path d="m489.718192 8.64613026 21.420628.11770116s-39.825164 53.96401538-43.07666 58.36211498c-1.056366 1.4241838-2.661026 2.9601838-3.474144 4.864-2.056828 4.7865134-4.168584 15.2854558-4.168584 15.2854558l-19.599202.0971036s3.04944-10.9432644 2.923892-16.7724138c-.110834-5.0925364-2.710068-10.178207-4.168582-15.285456-1.473226-5.1690422-3.474146-15.285456-3.474146-15.285456h20.149456l2.778728 11.1168736z"/><path d="m449.157394 20.0268506c3.952798 2.3834482 6.378422 15.528705 6.378422 15.528705s-20.684016.3050422-31.940168.3050422h-9.72702l-11.81131 51.4148044h-18.064184s11.24144-55.8746972 13.895602-66.0048428c.86118-3.2789579 5.891924-2.7169349 14.388966-2.7169349h13.56898c8.76187 0 19.00285-1.1181609 23.310712 1.4732261"/><path d="m365.059924 45.0667892s.563004-3.3005364-1.910682-7.1219004c-2.111756-3.25836-4.063632-4.0155708-9.62207-4.18918-15.695448-.493364-15.390406 11.1374712-15.390406 11.1374712zm17.022528-13.3188658c2.300076 8.2959694-2.084292 27.791203-2.084292 27.791203s-22.893854-.3825286-35.43393 0c-3.89885.118682-8.566682-.4237242-9.72702 1.3898544-1.633102 2.5423448.596354 6.4549272 2.486438 8.1076476 2.17551 1.903816 6.41275 2.1196014 7.935018 2.3138084 10.178208 1.292751 31.481134.3334866 31.481134.3334866l-3.68993 16.3408428s-30.10403 1.5085364-45.16095-2.0842912c-2.972936-.7081684-5.75951-2.1392182-7.642728-4.1685822-.513962-.5551572-.959264-1.3123678-1.445762-1.9656092-.388414-.5218086-1.520308-2.2373028-2.028384-3.5928276-3.438836-9.1640154.403126-26.7211036 4.168582-36.1283678.437456-1.0906974.986728-2.472705 1.564444-3.6477548.721902-1.4653794 1.332966-3.1190806 1.909702-3.9949732.388414-.6041992.869026-.993594 1.272154-1.5634636.464918-.6738392 1.006344-1.3270806 1.507554-1.9097012 1.388874-1.6125058 2.96607-2.7522452 4.86302-4.1685824 6.273472-4.6972566 17.626728-8.3450115 31.265348-6.9482912 5.134714.5276935 12.889258 2.3618698 16.67531 7.642728 1.014192 1.4104522 1.514422 4.2097778 2.084292 6.2528736z"/><path d="m299.22869 18.4908506 17.515892-.1039694s-9.761348 46.3075556-14.736184 68.888521h-20.149456c-14.082942 0-26.624 1.7439388-31.959784-8.3381454-5.175908-9.7888124-.236384-25.887387 2.08429-36.8237856 1.63997-7.7398314 5.093518-23.5598467 5.093518-23.5598467l18.147556-.1667433s-5.127848 24.6299464-7.261182 36.9277548c-.764076 4.4049656-2.34029 8.5529502-.694436 11.8113104 1.563464 3.0994636 3.751724 3.321134 10.421456 3.4741456 2.112736.049042 9.032582 0 9.032582 0z"/><path d="m217.243954 51.8404904c1.834176-6.5167202 4.508934-13.5827126 4.168582-19.4540382-.367816-6.2803372-5.633962-11.9986514-9.031602-13.200184-10.234114-3.6134253-19.814988 1.4379158-23.62262 5.557456-4.926774 5.3367662-6.594207 11.569042-8.338145 20.1494558-1.298636 6.3705748-2.36187 13.0962146 0 18.064184 4.182314 8.7824674 17.223601 6.8649196 31.265349 6.9482912 2.08429-5.5859004 3.807632-11.8603526 5.558436-18.0651648zm24.318038-25.7069118c2.00092 14.5488428-5.676138 30.6062222-10.963862 44.5704828 5.391694.486498 10.116414-.075525 10.456766.3266206.354084.5218084-3.613424 16.6684444-4.996414 16.7096398-4.279416.1118162-18.459462.2295172-24.372964.2295172-19.294162 0-37.344614 1.2574406-46.549825-8.3371646-3.737992-3.8978698-6.322513-10.5823142-6.948291-15.285456-1.042636-7.8516476.263847-16.4948352 2.084291-23.6226206 1.646836-6.4343296 3.758591-12.506728 6.948292-18.0651648 8.107647-14.15258242 22.212168-24.65741001 45.855387-22.23276633 4.58544.47276628 11.1718 2.48055173 15.285456 4.86301915.284444.16772414 1.279018.95926438 1.507556 1.09854406 5.558436 3.53691954 10.623508 11.97805362 11.693608 19.74534872z"/><path d="m156.193349 18.5742222c-1.167203 5.3151878-2.334406 11.339525-3.564383 16.5919388h-19.454039c1.507556-5.8222836 2.661027-11.6102376 4.168583-16.6753104 6.22541 0 12.013364.0833716 18.849839.0833716"/><path d="m132.48049 40.02918h18.758621c-2.452107 13.5768276-7.30826 35.4761074-11.115893 50.719387-2.383448 9.539678-3.974375 16.501701-10.422436 21.53833-.576736.452168-.909242.237364-1.388874.695417-1.188782 1.132874-6.684444 2.446222-9.727019 2.778728-4.947372.53554-10.540138.06964-16.619402-.054927 1.590927-5.815418 3.390774-12.798038 4.808092-18.0092568 14.819555 1.7929808 15.195218-12.2144368 18.064183-25.7069118 1.660568-7.7957396 6.691311-28.8338392 7.642728-31.9607664"/></g><g fill="#21609b" transform="translate(0 8.827586)"><path d="m88.7084138 66.6365058-.4021456 1.0416552c-6.8511878 13.3394636-18.9891188 21.5245976-36.3029578 21.8855478-8.0939158.1667434-15.8062836-1.9097012-20.8438928-4.1685824-10.8726436-4.8845976-20.0170421-13.9436628-25.01149422-23.6226206-7.16407664-13.8750038-8.45584676-33.1760308 6.44021452-47.5924598.2295173 0-1.8067126 3.1259463-1.5771954 3.1259463l-.4099923 1.3339464c-10.73434484 33.6066207 22.3367356 62.4061303 54.484843 59.1124597 7.7260996-.7915402 17.5786666-5.0228964 23.6226206-11.1158926"/><path d="m69.2543754 52.7399234c8.0880308.055908 16.5360308-3.7242606 21.5383296-9.0316016-4.376521 11.1100078-17.0490116 18.251525-34.0440766 15.9798928-14.2290882-1.9038162-27.7843372-16.2231418-29.1810576-30.570912-1.0210574-10.4420536 2.6188506-16.6743294 8.6157242-24.23368574-2.0842912 3.95377778-2.8630804 7.00321834-3.0572874 8.94822984-2.278498 22.5878315 18.0435862 38.7903755 36.1283678 38.9080767"/><path d="m89.980567 24.6848736c-1.2574406 2.8836782-8.497042 8.3302988-11.6936092 9.0110038-12.6587586 2.6963372-20.766406-3.3064214-25.012475-10.1370114-.6316628-1.0210576-1.798866-3.8066514-2.0077854-4.5158009-1.6468354-5.5996321-.8896246-14.0692107 4.0234176-18.45357851-1.480092 4.16858237-1.6958774 9.01100383-.9170882 12.15852871.4717854 1.9038161 1.9097012 5.2259311 3.3485978 7.3161073 2.6188504 3.8076322 4.2794176 4.732567 7.6427278 6.7540842 1.5144216.9102224 3.1396782 1.6399694 3.8419618 1.8410422 3.1887202.9376858 9.921226 3.4113716 20.7742528-3.9743754"/></g></g></svg>