<svg height="358" preserveAspectRatio="xMidYMid" viewBox="0 0 256 358" width="256" xmlns="http://www.w3.org/2000/svg"><g transform="translate(7.968872 106.583658)"><path d="m.78393774 52.4461223v146.9420177c0 28.507632 53.16632906 51.620348 118.75014226 51.620348 65.584809 0 118.750132-23.112716 118.750132-51.620348v-146.9420177s-4.939714 50.1769957-118.750132 50.1769957c-113.81243019.001007-118.75014226-50.1769957-118.75014226-50.1769957z" fill="#9eaab2"/><ellipse cx="119.53407" cy="52.446132" fill="#8e979a" rx="118.750132" ry="51.616374"/><path d="m.78393774 52.4461223v146.9420177c0 28.507632 53.16632906 51.620348 118.75014226 51.620348 65.584809 0 118.750132-23.112716 118.750132-51.620348v-146.9420177s-4.939714 50.1769957-118.750132 50.1769957c-113.81243019.001007-118.75014226-50.1769957-118.75014226-50.1769957z" fill="#9eaab2"/><g fill="#8e979a"><path d="m222.402251 76.9275019c3.350891-2.5649805 6.619134-5.1319632 9.088488-8.6053951 1.417463-1.9981946 2.584903-4.1248772 3.681629-6.2914142 1.214247-2.1107549 2.256167-4.2942257 3.110838-6.5444458v143.9028892c0 13.218356-11.43534 25.276265-30.234895 34.407586v-148.2010899c5.070195-2.3886793 9.908286-5.2674142 14.35393-8.6681401z"/><path d="m16.6658988 76.9275019c-3.3529027-2.5649805-6.6191439-5.1319632-9.08849802-8.6053951-1.42045136-1.9981946-2.58689494-4.1248772-3.68262475-6.2914142-1.21425681-2.1107549-2.25519066-4.2942257-3.11084825-6.5444458v143.9028892c0 13.218356 11.43533072 25.276265 30.23389882 34.407586v-148.2010899c-5.0682023-2.3886793-9.9072996-5.2674142-14.3519377-8.6681401z"/><path d="m119.53408 247.150568c-63.9661423 0-116.10248467-21.375482-118.57482708-48.135979-.06175876.659414-.10259922 1.322833-.10259922 1.986232 0 27.684856 53.1334475 50.126214 118.6774263 50.126214 65.543969 0 118.677426-22.441358 118.677426-50.126214 0-.663399-.037842-1.326818-.102599-1.986232-2.473338 26.760457-54.608695 48.135979-118.574827 48.135979z"/></g><path d="m119.53408 100.581105c-63.9661423 0-116.10248467-21.3735097-118.57482708-48.1339666-.06175876.6594141-.10259922 1.3208305-.10259922 1.9882235 0 27.6838699 53.1334475 50.1242221 118.6774263 50.1242221 65.543969 0 118.677426-22.4403622 118.677426-50.1242221 0-.667393-.037842-1.3288094-.102599-1.9882235-2.473338 26.7604569-54.608695 48.1339666-118.574827 48.1339666z" fill="#dbe1e3"/><path d="m119.53408 230.705795c-63.9661423 0-116.10248467-21.373509-118.57482708-48.133966-.06175876.661416-.10259922 1.32083-.10259922 1.988233 0 27.68385 53.1334475 50.124183 118.6774263 50.124183 65.543969 0 118.677426-22.440323 118.677426-50.124183 0-.667403-.037842-1.326817-.102599-1.988233-2.473338 26.760457-54.608695 48.133966-118.574827 48.133966z" fill="#dbe1e3"/></g><g transform="translate(18.92607 99.610895)"><path d="m216.990381 56.7323791c0 4.5462413-1.960332 8.6442235-5.577214 12.7292663-7.157042 8.0864225-54.526007 26.834189-102.101167 26.8740433-48.0632629.0418266-96.338687-18.7059399-103.57243019-26.8740433-3.6238344-4.0880211-5.5762179-8.1770583-5.5762179-12.7292663 0-22.6306091 48.53939299-40.9759277 108.41352009-40.9759277 59.874136.0009861 108.413519 18.3453186 108.413519 40.9759277z" fill="#1a2b2f"/><path d="m5.73858366 7.80152529c17.10717514 11.93438131 60.62219454 23.07385771 102.83728234 23.07385771 42.215107 0 88.117819-11.5369239 102.836325-23.07385771v-7.1610372s-32.25602 20.63937741-102.836325 20.63937741c-70.5822785 0-102.83728234-20.63937741-102.83728234-20.63937741z" fill="#1b3134"/><path d="m211.413167 65.3068949s-20.90734 29.4379979-102.836305 29.4379979c-81.9309576 0-102.83730216-29.4379979-102.83730216-29.4379979v-63.91731295s29.60336186 20.15727065 100.41675716 20.15727065c70.812399 0 105.257846-20.15727065 105.257846-20.15727065v63.91731295h-.001006z" fill="#213f48"/><path d="m108.537037 91.5981846c-51.6323111-.0079689-94.3125912-14.9456187-102.79744727-32.1793096v10.0427704s20.89537747 28.2277355 102.75660727 28.2476776h.04084.039864c81.864208-.0199421 102.836306-28.2476776 102.836306-28.2476776v-10.0427704c-8.484896 17.2336909-51.243849 32.1713407-102.87616 32.1793096z" fill="#1b3134"/></g><path d="m127.502952 118.789987c-68.7215668 0-124.73576134-21.3755023-127.39338002-48.1359792-.06574319.6594241-.10857587 1.3228327-.10857587 1.9882334 0 27.6848558 57.08501169 50.1251988 127.50195589 50.1251988 70.416933 0 127.501915-22.440343 127.501915-50.1251988 0-.6654007-.042813-1.3288093-.109542-1.9882334-2.656612 26.7604769-58.670807 48.1359792-127.392373 48.1359792z" fill="#8e979a"/><path d="m127.502952 0c-70.4169442 0-127.50195589 22.4423346-127.50195589 50.1261946v21.8805391c0 27.6818577 57.08501169 50.1241923 127.50195589 50.1241923 70.416933 0 127.501915-22.4423346 127.501915-50.1241923v-21.8805391c0-27.68386-57.084982-50.1261946-127.501915-50.1261946z" fill="#9eaab2"/><path d="m127.240965 16.9089494c18.843413 0 36.202584 2.5888872 49.373136 6.8522335l18.870288-6.8522335 4.569162 19.4420645h-56.994366l-.726163-.1474242 20.262848-7.3542723c-9.320582-3.1148327-21.75502-5.019393-35.302111-5.019393-10.857578 0-21.030839 1.2331928-29.4419825 3.3419455l-18.7208816-3.8011518c13.1317043-4.0900233 30.0765141-6.4617587 48.1100701-6.4617587zm-73.6941323 17.9010739c.6325292-2.8319377 7.5734163-5.0901167 15.5143969-5.0901167 7.9389883 0 14.0770116 2.2591751 13.7044669 5.0901167-.3785214 2.8827393-7.341323 5.2574631-15.543284 5.2574631-8.200965.0009961-14.3200623-2.3747238-13.6755798-5.2574631zm74.0108953 35.9167104c-22.214246 0-41.8913822-3.5322123-55.4533955-9.0725703l-24.9923736 9.0725703 5.1827549-23.6825002h59.6360462l.270942.0587804-23.0250682 8.3563579c9.5237976 3.7423814 23.1047572 6.1111185 38.3093542 6.1111185 12.4952 0 23.814983-1.5848094 32.673389-4.2035798l21.815773 4.671751c-13.248239 5.2495041-32.374517 8.6880722-54.417422 8.6880722zm61.919138-16.3023191c-8.565541 0-15.884959-2.5918755-16.341167-5.7306148-.446257-3.0839533 5.909914-5.5403579 14.185587-5.5403579 8.279658 0 15.576166 2.4564046 16.306314 5.5403579.744073 3.1387393-5.586199 5.7306148-14.150734 5.7306148z" fill="#dbe1e3"/><path d="m216.017193 108.079823v-24.3190037s34.511191-10.6075642 38.987674-33.6346148v21.8805392c0 14.1656454-14.952561 26.9576865-38.987674 36.0730793z" fill="#8e979a"/><path d="m38.9867082 108.079823v-24.5849648c-27.1509417-8.4858521-37.76049808-23.8697687-38.9867082-33.3686537v21.8805392c.00099611 14.1656454 14.9525914 26.9576865 38.9867082 36.0730793z" fill="#8e979a"/><path d="m127.502952 96.2739399c-68.7215668 0-124.73576134-21.3755019-127.39338002-48.1359788-.06574319.6604202-.10857587 1.3218366-.10857587 1.9892296 0 27.6828837 57.08501169 50.1242123 127.50195589 50.1242123 70.416933 0 127.501915-22.4413286 127.501915-50.1242123 0-.667393-.042813-1.3288094-.109542-1.9892296-2.656612 26.7604769-58.670807 48.1359788-127.392373 48.1359788z" fill="#dbe1e3"/><g transform="translate(161.36965 135.470817)"><path d="m34.0231072 19.7289339c0 9.7489182-7.13214 17.6540488-16.9129338 17.6540488-9.77978772 0-16.91193776-7.9051206-16.91193776-17.6540488 0-9.75091055 7.13214008-17.65304285 16.91193776-17.65304285 9.7807938 0 16.9129338 7.9021323 16.9129338 17.65304285z" fill="#1b3134"/><ellipse cx="17.11116" cy="16.216654" fill="#51c3f1" rx="15.536311" ry="15.536311"/><circle cx="17.110163" cy="13.818023" fill="#fff" r="5.068202"/></g><g transform="translate(58.770428 135.470817)"><path d="m34.2641556 19.7289339c0 9.7489182-7.13214 17.6540488-16.9129338 17.6540488-9.77880157 0-16.91293386-7.9051206-16.91293386-17.6540488 0-9.75091055 7.13313618-17.65304285 16.91293386-17.65304285 9.7807938 0 16.9129338 7.9021323 16.9129338 17.65304285z" fill="#1b3134"/><circle cx="17.506615" cy="16.216654" fill="#51c3f1" r="15.535315"/><circle cx="17.352218" cy="13.818023" fill="#fff" r="5.068202"/></g><path d="m128.239076 326.028451c-5.298313 0-10.6265-.277904-19.007761-.98814-3.927647-.336665-7.125167-3.847979-7.125167-7.836389v-79.661811c0-3.713494 2.813021-6.515539 6.544446-6.515539.206194 0 .419352.009942.630537.027872 8.349385.709239 13.665608.987144 18.957955.987144 5.291331 0 10.606558-.277905 18.959938-.988141.209193-.017939.421354-.026875.627548-.026875 3.729432 0 6.544446 2.801039 6.544446 6.515539v79.661811c0 3.98842-3.198516 7.499724-7.126173 7.836389-8.383253.710206-13.710454.98814-19.005759.98814zm-19.588482-91.023439c-1.53599 0-2.565967 1.018023-2.565967 2.537089v79.661811c0 1.90458 1.627632 3.713494 3.484389 3.871896 8.258729.700234 13.493282.97516 18.67007.97516 5.17377 0 10.408333-.27392 18.669064-.97516 1.855761-.157406 3.484389-1.967326 3.484389-3.871896v-79.661811c0-1.610708-1.198309-2.673546-2.852856-2.523134-8.477883.719171-13.887751 1.000094-19.300597 1.000094-5.413862 0-10.824726-.280913-19.299621-1.000094-.097628-.009971-.196243-.013955-.288881-.013955z" fill="#dbe1e3"/><g transform="translate(162.365759 231.097276)"><path d="m62.9979144.49106179c-9.444099 6.12107953-27.0234397 17.51358751-62.09543969 25.41670601 5.03733292 26.7335819 5.03733292 26.7335819 11.66044139 61.7727103 12.133623-3.6108949 37.3829827-11.1305313 57.8390562-27.9946459-2.3338733-19.5894686-4.2055521-34.824965-7.4040579-59.19476045" fill="#f5dd3e"/><g fill="#3b3735"><path d="m40.1471751 70.8960623c-6.91201 3.813105-11.6365547-1.7272629-11.6365547-1.7272629l4.0810584-3.8778621s2.2761089 2.935553 6.0364202.4323312c1.7611106-1.1714142.612617-7.0385158.612617-7.0385158l-3.3807938-16.1319944 5.3202079-2.2432174s3.2254108 18.6282235 3.5621055 20.4919433c.6295309 3.4893597 1.1484937 6.9239433-4.5950605 10.0945681z"/><path d="m54.4762123 62.7458988c-3.8927838.5877043-6.0931984-2.3149671-6.0931984-2.3149671l3.5491262-4.3440212s1.3377942 1.4841924 3.1955274 1.2062879c1.5758444-.2410583 3.4256187-1.289971 4.0711073-3.2702456 1.0997043-3.3907449.0806748-4.5521979-3.372815-4.1677098-3.4495352.3854842-7.7885758.8915374-8.5566057-5.9129028-.6813286-6.0354141 4.5950605-10.6523891 8.1671072-11.2799477 3.5441656-.6205659 5.5214319 1.8816598 5.5214319 1.8816598l-3.5341945 4.2902512s-2.3448106-1.0658465-3.7543147.1962235c-1.2820122 1.1505058-1.7750761 2.6516619-1.2869628 3.7921967.4273207.9990874 1.718268 1.4393874 3.7911906 1.2859966 2.0738989-.1494363 5.4885404-1.3557242 7.5903502 2.8737544 2.3637566 4.7504535-.0986148 14.3788327-9.2877298 15.7634341z"/></g></g></svg>