<svg height="256" preserveAspectRatio="xMidYMid" viewBox="0 0 256 256" width="256" xmlns="http://www.w3.org/2000/svg" xmlns:xlink="http://www.w3.org/1999/xlink"><linearGradient id="a"><stop offset="0"/><stop offset="1" stop-color="#fff"/></linearGradient><linearGradient id="b" x1="15.791304%" x2="91.00874%" xlink:href="#a" y1="14.737049%" y2="85.228125%"/><linearGradient id="c" x1="82.135667%" x2="-3.113154%" xlink:href="#a" y1="85.237395%" y2="14.79005%"/><path d="m127.78336 190.559312c56.636288 77.208544 112.063312-21.549632 111.981888-80.9388-.09632-70.21768-71.265456-109.461904-112.028288-109.461904-65.427872 0-127.73696 54.073728-127.73696 128.057424 0 82.2336 71.424608 127.783952 127.73696 127.783952-12.743152-1.8348-55.20992-10.93432-55.780672-108.746832-.383792-66.15456 21.580112-92.584816 55.688432-80.95848.763888.283312 37.622272 14.823216 37.622272 62.320848 0 47.295872-37.483632 61.943792-37.483632 61.943792z" fill="url(#b)"/><path d="m127.717232 66.241296c-37.42408-12.899008-83.268832 17.945296-83.268832 79.726096 0 100.876768 74.75288 110.032592 83.814656 110.032592 65.427872 0 127.736944-54.073728 127.736944-128.057424 0-82.2336-71.424608-127.783952-127.736944-127.783952 15.596976-2.16 84.065392 16.879856 84.065392 110.45888 0 61.025872-51.124576 94.247936-84.376752 80.053504-.763888-.283312-37.622272-14.823216-37.622272-62.320848 0-47.295872 37.387808-62.108848 37.387808-62.108848z" fill="url(#c)"/></svg>