<svg height="111" preserveAspectRatio="xMidYMid" viewBox="0 0 512 111" width="512" xmlns="http://www.w3.org/2000/svg"><path d="m51.5542626 63.0389226 6.0750438 10.5201346-15.1565791 26.3093872h78.8962697l6.039703 10.4615216h-103.235232z" fill="#f35757"/><path d="m51.6077037 20.9428687 27.264431 47.36h-12.1457778l-15.159165-26.2559461-39.5360539 68.2830434h-12.031138z" fill="#49c5b1"/><path d="m115.302572 89.362101h-54.6521208l6.0802155-10.5520269h30.3131582l-39.3662491-68.3804445 6.0207407-10.4296296z" fill="#00afd7"/><path d="m212.143838 81.1640673-25.712053-31.7112458 23.879542-23.6899124c1.033481-1.0300337 1.536-2.1333333 1.536-3.3702357 0-2.504835-2.151435-4.700229-4.603691-4.700229-1.61099 0-2.696188.7645522-3.673643 1.6342627l-37.831111 38.7844309v-35.61934c0-2.6461953-2.153158-4.7993536-4.799353-4.7993536-2.551381 0-4.707125 2.1971179-4.707125 4.7993536v62.0692256c0 2.6030976 2.155744 4.8010774 4.707125 4.8010774 2.646195 0 4.799353-2.1531582 4.799353-4.8010774v-14.6178586l13.947259-13.9446734 25.076795 31.2294141c.991246 1.4161886 2.288485 2.1350573 3.856377 2.1350573 2.60396 0 4.803663-2.1988418 4.803663-4.8010775 0-1.5549629-.610262-2.5462087-1.279138-3.3978182zm54.381468-19.3603232c0-13.2559731-8.418693-26.6757172-24.508767-26.6757172-14.184297 0-25.296593 12.0164849-25.296593 27.3609697v.1982492c0 15.6013468 11.298478 27.3652795 26.280943 27.3652795 7.985993 0 14.095515-2.4444984 19.781818-7.8972122.951596-.8335084 1.476525-1.93767 1.476525-3.1107878 0-2.267798-1.8894-4.1123772-4.212363-4.1123772-1.263623 0-2.157468.6197442-2.75394 1.1145051-4.211501 3.8787879-8.69107 5.6854411-14.096377 5.6854411-8.945347 0-15.659097-6.1957172-16.958922-15.5203233h35.880511c2.429846-.0008619 4.407165-1.9790437 4.407165-4.4080269zm-24.704431-18.5492256c9.91332 0 14.366169 7.8972121 15.300526 15.616h-30.884633c1.280862-9.2444444 7.581737-15.616 15.584107-15.616zm80.565011 18.5492256c0-13.2559731-8.418694-26.6757172-24.508768-26.6757172-14.182573 0-25.293145 12.0164849-25.293145 27.3609697v.1982492c0 15.6013468 11.297616 27.3652795 26.277495 27.3652795 7.984269 0 14.093791-2.4444984 19.781818-7.8989361.950734-.8317845 1.47394-1.9359461 1.47394-3.1090639 0-2.267798-1.890263-4.1123772-4.214088-4.1123772-1.261899 0-2.155744.6197442-2.752215 1.1145051-4.211502 3.8787879-8.690209 5.6854411-14.094654 5.6854411-8.941899 0-15.655649-6.1965791-16.960646-15.5203233h35.87965c2.432431-.0008619 4.410613-1.9790437 4.410613-4.4080269zm-24.704431-18.5492256c9.909872 0 14.361858 7.8972121 15.298801 15.616h-30.883771c1.280862-9.2444444 7.581737-15.616 15.58497-15.616zm59.799703-8.1264916c-6.927515 0-12.491421 2.6953266-16.577939 8.0239192v-2.7263569c0-2.6392996-2.065239-4.7071246-4.701953-4.7071246-2.538451 0-4.604552 2.1109226-4.604552 4.7071246v44.2345589c0 2.6367139 2.065239 4.7019529 4.701953 4.7019529 2.624646 0 4.604552-2.0221414 4.604552-4.7019529v-25.8137643c0-8.8884579 5.925064-15.0962424 14.409266-15.0962424 8.279919 0 13.224081 5.4225455 13.224081 14.5032189v26.4059259c0 2.6367138 2.066963 4.7019529 4.707124 4.7019529 2.584997 0 4.609724-2.0652391 4.609724-4.7019529v-28.2755017c0-12.9120539-7.996337-21.2557576-20.372256-21.2557576zm66.103165-17.4364444c-2.549656 0-4.703677 2.1971178-4.703677 4.7993535v62.0692256c0 2.6030977 2.154021 4.8010775 4.703677 4.8010775 2.647919 0 4.802802-2.1531583 4.802802-4.8010775v-62.0692256c0-2.6461953-2.154883-4.7993535-4.802802-4.7993535zm52.478276-.6895623c-20.25934 0-36.129616 16.0435286-36.129616 36.5235286v.1973872c0 20.7127273 15.448781 36.3304512 35.933953 36.3304512 20.261926 0 36.133064-16.0435286 36.133064-36.5269764v-.1956633c0-20.7110034-15.449643-36.3287273-35.937401-36.3287273zm26.134411 36.5235286v.1973872c0 15.6297913-11.235555 27.4161347-26.134411 27.4161347-15.007461 0-26.324902-11.8716768-26.324902-27.6135219v-.1956633c0-15.6280673 11.23297-27.4126868 26.129239-27.4126868 14.764391 0 26.330074 12.1268148 26.330074 27.6083501z" fill="#546a7e"/></svg>