<svg height="247" preserveAspectRatio="xMidYMid" viewBox="0 0 256 247" width="256" xmlns="http://www.w3.org/2000/svg" xmlns:xlink="http://www.w3.org/1999/xlink"><linearGradient id="a" x1="48.878145%" x2="51.12197%" y1=".012601%" y2="99.987496%"><stop offset="0" stop-color="#009fe6"/><stop offset="1" stop-color="#006db7"/></linearGradient><path d="m24.5833474 198.636278c2.4060907.09977 4.8454381.437366 7.1185015 1.269946l-.0003867-.021269.3433958.123359 29.9601209-29.227311 1.0994078 1.466006c1.5580423 2.107166 3.2069607 4.03142 4.9475287 5.955674l.6415468.732809c.4582478.457861.8244593.916109 1.282707 1.374357l.7328097.733196.7331963.73281.6411601.641547.7331964.732809.6411601.641547.824846.73281.7328096.641547c13.9268641 11.818924 31.3348636 18.507021 49.6593596 18.965269 15.117535.366598 29.868085-3.481523 42.78719-11.086115l2.290466 2.382115c2.656676 2.840362 5.405389 5.680725 8.062839 8.521087-15.94238 10.261269-34.449788 15.392097-53.50748 14.934236-21.43942-.549897-41.8706948-8.246139-58.2709365-21.989317l.0908761-.183299-19.2232024 18.949027c.7119275 2.240967.9953837 4.590211 1.0251601 6.934042 0 13.235432-10.7291843 23.965003-23.9646163 23.965003s-23.965003-10.729571-23.965003-23.965003 10.729571-23.964616 23.965003-23.964616zm183.1919756-123.6000484c9.437583 15.4841329 14.109777 33.3503804 13.651529 51.4919634-.549124 22.171843-8.886912 43.336701-23.546586 59.920242l.092036.092036 11.818925 12.551734c4.763842-.64116 9.528459 1.007759 12.827069 4.489281 5.589076 5.955674 5.40539 15.301221-.549897 20.981946-5.955287 5.588689-15.300834 5.40539-20.981172-.549897-3.298611-3.48191-4.672967-8.337789-3.756858-13.010369-5.49704-5.864024-15.209185-16.216942-20.79826-22.080967l-1.190671-1.282707 1.374357-1.099021c3.572785-2.840362 6.871395-5.955673 9.89467-9.437583 12.552508-14.109776 19.607589-32.067673 20.065837-50.94168.366212-14.292688-3.024048-28.311202-9.895444-40.6800237zm-166.9471901-56.0040604c4.2120121-.0622598 8.1595166 1.5998066 11.0984895 4.6041329 3.2982235 3.4819094 4.67258 8.3377885 3.7564713 13.0107553l22.7225136 23.8215347-1.3743565 1.0990212c-3.573559 2.8403625-6.8717825 5.9556737-9.8954442 9.4375831-12.5517341 14.1093897-19.6068157 32.0676736-20.1567129 50.9416796-.3665982 14.292689 3.0236616 28.311203 9.8954441 40.771674l-10.9035892 10.627867c-9.5284592-15.575783-14.2923021-33.44203-13.7431782-51.766139.4729426-22.0577644 9.0705982-43.3641572 23.5052085-59.9643263l-12.5107433-13.0583203c-4.7638429.6411601-9.5284592-1.0077583-12.8270694-4.4892809-5.5883022-5.9552871-5.4053898-15.3012206.5498972-20.981559 2.3179215-2.1744531 5.3056194-3.5770392 8.463855-3.9536918.4710091-.0560725.9458852-.067287 1.4192145-.1009305zm191.1971961-19.0321692c13.235432 0 23.964617 10.7291843 23.964617 23.9646163s-10.729185 23.965003-23.964617 23.965003c-2.546852.0282296-5.053099-.4404592-7.475818-1.1937643l-.006961.0262961-.366985-.1287735-32.525921 30.8770031-1.099022-1.4660061c-1.740568-2.2904652-3.664821-4.5813172-5.680725-6.6888701l-.366598-.457861-1.007758-1.0077583-.182913-.1832991-.641546-.6415468-.183686-.1829124-.824459-.8244592-.640774-.5498973-.641547-.5498973-.824459-.7328097-.641933-.5498972-.82446-.7331964c-13.834827-11.6356254-31.151178-18.2324592-49.291988-18.690707-15.117921-.3662114-29.8688576 3.3902599-42.6959271 11.0865016l-10.4449546-10.9032025c15.9419939-10.2616556 34.4494017-15.3924834 53.5070937-14.9342356 21.43942.5495106 41.870695 8.2457522 58.27171 22.08058h.182912l21.539577-20.4486767c-.759105-2.3128943-1.066924-4.7410272-1.097861-7.1676133 0-13.235432 10.729571-23.9646163 23.965003-23.9646163z" fill="#5b5b5b"/><path d="m127.573076 53.5c2.707722.0119879 5.408483.2211964 8.096096.5352024 38.664121 4.8558792 66.058828 40.1301269 61.294985 78.7946346-4.856266 38.664121-40.130513 66.059214-78.794634 61.294985-38.6648946-4.856266-66.0596015-40.130514-61.2949852-78.794635 4.6122537-35.8670692 34.7483262-61.7048939 70.6985382-61.830187zm-1.063058 30.2807009c-15.651964 1.2525438-26.9782234 13.0927372-27.3757582 28.8235891.2834562 11.220689 6.0299212 20.692302 16.0506582 25.853293l-5.445607 25.606187h36.511323l-5.438259-25.610441c9.963891-5.411577 15.885148-14.361909 16.043698-25.849039-.212303-16.2339577-12.774865-28.454284-28.8611-28.8610997zm.546417-.1519758h-.091263l.045632.0007734z" fill="url(#a)"/></svg>