<svg height="256" preserveAspectRatio="xMidYMid" viewBox="0 0 256 256" width="256" xmlns="http://www.w3.org/2000/svg"><path d="m108.707989 105.500655c-1.849775-5.8589426-2.806418-12.0711679-2.806418-18.5652258.071451-34.8837291 28.270587-63.0788962 63.134469-63.1662246 34.863882.0873284 63.094774 28.2983734 63.138438 63.1662246v134.1999448c-.015877 6.160622-4.985658 11.162158-11.158188 11.162158h-134.199945c-34.8837291-.059542-63.0669878-28.24677-63.1384383-63.138438.0714505-34.863882 28.2547092-63.05111 63.1384383-63.122561 6.4900884 0 12.7102527.948705 18.577134 2.758784l4.791154 1.484583zm60.328051-105.38157081c-46.355506 0-84.3711494 36.53899941-86.6972606 82.33877941-45.8037495 2.3261112-82.3387794 40.3298464-82.3387794 86.7012304 0 47.867875 38.9325916 86.816345 86.816345 86.816345l133.791089.027786.408856-.027786c19.220188 0 34.863882-15.603999 34.863882-34.840065v-134.1999448c0-47.863906-38.964348-86.81634501-86.844132-86.81634501z" fill="#1f201e"/><path d="m134.08483 61.0028618h38.440377v161.5019802h-38.440377z" fill="#e57535"/><path d="m84.7363411 142.893091v79.583965c.8296199.027786 1.6989345.027786 2.5404628.027786h35.9277001v-79.611751z" fill="#a7b539"/><path d="m35.3878522 177.117887h-.889162c.1905348 2.091913.3771 3.374052.889162 5.477873 0 0 .0555726.07542.0555726.103206 4.9578719 18.640646 19.7282811 33.280062 38.4244991 38.134728v-43.715807z" fill="#dc3e37"/><path d="m183.373777 222.576293h30.592729c4.390237 0 7.891312-3.512984 7.891312-7.871465v-92.262462h-38.484041z" fill="#2bacd7"/></svg>