<svg height="256" preserveAspectRatio="xMidYMid" viewBox="0 0 256 256" width="256" xmlns="http://www.w3.org/2000/svg"><path d="m168.870175 0c-46.259649 0-84.4350873 36.3789474-86.6807013 82.1894737-45.8105263 2.245614-82.1894737 39.9719303-82.1894737 86.2315793 0 47.607017 39.0736842 86.680701 86.6807018 86.680701h133.8385962.449123c19.312281 0 35.031579-15.719298 35.031579-34.582456v-5.389473-128.4491232c0-48.0561404-39.073684-86.6807018-87.129825-86.6807018zm-92.9684206 216.926316c-17.9649123-4.491228-32.3368421-18.863158-36.8280702-36.378948-.4491228-2.245614-.4491228-3.143859-.8982456-5.389473h.8982456 36.8280702zm45.8105266 1.347368h-33.235088-2.2456141v-81.740351h35.4807021zm48.05614 0h-35.480702v-149.1087717h35.480702zm48.05614-7.185965c0 4.042106-3.143859 7.635088-7.185965 7.635088h-28.743859v-120.8140351h35.929824z" fill="#303030"/></svg>