<svg height="256" preserveAspectRatio="xMidYMid" viewBox="0 0 256 256" width="256" xmlns="http://www.w3.org/2000/svg"><path d="m203.031173 255.890648h-74.935756c-24.973919 0-49.961837.246042-74.9347556 0-25.3529173-.250044-47.6548446-18.501213-52.14482996-43.634577-1.60999475-9.012565-.82399732-18.753256-.82399732-27.861838v-102.3147656c0-9.5356557-.06799977-19.074312 0-28.6099678.15899949-22.2388615 13.73495518-42.5493882 34.81888648-50.23972352 10.4489659-3.81166185 21.3309304-3.19255434 32.2258949-3.19255434h47.2768455c28.944906 0 57.888812-.0380066 86.833717 0 19.591936.02600451 37.799877 9.43163769 47.681845 26.69463516 6.603978 11.5380035 6.970977 23.6821122 6.970977 36.4393273v98.9621838 37.141449c0 17.273999-5.679981 33.351791-19.376937 44.600744-9.422969 7.739344-21.39993 12.015087-33.59189 12.015087" fill="#3cb5e8"/><g fill="#fff"><path d="m46.365 63.143v132.508h36.329l-.167-42.711 16.825-20.404 20.571 63.115h38.945l-31.913-88.395 31.996-44.281h-45.704l-30.72 36.245v-36.161z"/><path d="m215.119 63.059h-49.277l28.428 43.137-27.367 89.455h48.216z"/></g></svg>