<svg height="256" preserveAspectRatio="xMidYMid" viewBox="0 0 256 256" width="256" xmlns="http://www.w3.org/2000/svg"><path d="m76.843 77.835-40.458-40.438c-.84.84-1.127 2.242-.687 3.965l10.42 40.426c.906 3.477-1.106 7.397-4.434 8.703l-38.84 15.323c-1.68.66-2.613 1.722-2.812 2.906l56.515 8.953c2.418-15.437 9.716-29.264 20.296-39.838" fill="#3c98ff"/><path d="m55.651 128.995c0-3.85.301-7.628.896-11.322l-56.515-8.953c-.18 1.188.4 2.5 1.792 3.627l32.194 26.577c2.756 2.291 3.447 6.633 1.527 9.657l-22.419 35.227c-.957 1.521-1.09 2.937-.57 3.998l50.994-25.961c-5.038-9.868-7.899-21.024-7.899-32.85" fill="#1b5ced"/><path d="m116.683 57.532-8.955-56.494c-1.183.189-2.246 1.137-2.906 2.801l-15.333 38.836c-1.31 3.341-5.215 5.337-8.705 4.44l-40.412-10.426c-1.746-.467-3.131-.154-3.987.708l40.458 40.438c10.553-10.558 24.383-17.873 39.84-20.303" fill="#009b4a"/><path d="m200.337 128.995c0 3.853-.3 7.623-.886 11.33l56.514 8.939c.189-1.185-.391-2.496-1.783-3.64l-32.194-26.564c-2.764-2.283-3.465-6.633-1.527-9.656l22.425-35.225c.966-1.514 1.099-2.938.552-4.01l-50.98 25.983c5.018 9.854 7.879 21.015 7.879 32.843" fill="#1b5ced"/><path d="m192.458 96.152 50.98-25.983c-.552-1.078-1.78-1.772-3.57-1.882l-41.685-2.584c-3.572-.217-6.689-3.317-6.905-6.915l-2.548-41.66c-.108-1.789-.839-3.016-1.9-3.571l-25.973 50.981c13.586 6.94 24.665 18.034 31.601 31.614" fill="#eb3200"/><path d="m128.003 56.637c11.834 0 22.988 2.864 32.854 7.901l25.973-50.981c-1.072-.529-2.493-.396-4.025.555l-35.221 22.423c-3.014 1.927-7.374 1.237-9.653-1.525l-26.58-32.209c-1.123-1.4-2.434-1.96-3.623-1.763l8.955 56.494c3.693-.573 7.461-.895 11.32-.895" fill="#ebad00"/><path d="m139.314 200.448 8.957 56.524c1.173-.189 2.253-1.154 2.911-2.807l15.294-38.854c1.334-3.336 5.258-5.336 8.726-4.438l40.432 10.448c1.723.43 3.133.13 3.977-.713l-40.447-40.449c-10.577 10.554-24.407 17.875-39.85 20.289" fill="#009b4a"/><path d="m199.451 140.325c-2.407 15.435-9.73 29.254-20.287 39.834l40.447 40.449c.863-.86 1.166-2.26.699-3.985l-10.426-40.425c-.908-3.473 1.1-7.396 4.436-8.711l38.824-15.328c1.674-.654 2.62-1.711 2.821-2.895z" fill="#3c98ff"/><path d="m128.003 201.344c-11.834 0-22.987-2.868-32.852-7.896l-25.981 50.967c1.08.561 2.507.411 4.027-.56l35.201-22.404c3.039-1.92 7.369-1.225 9.67 1.527l26.566 32.207c1.143 1.4 2.453 1.961 3.637 1.787l-8.957-56.524c-3.684.594-7.457.896-11.311.896" fill="#ebad00"/><path d="m63.55 161.845-50.994 25.961c.564 1.077 1.791 1.807 3.58 1.917l41.668 2.547c3.591.23 6.694 3.331 6.911 6.928l2.582 41.653c.107 1.797.82 3.023 1.873 3.564l25.981-50.967c-13.594-6.937-24.663-18.023-31.601-31.603" fill="#eb3200"/><path d="m113.093 141.874c2.816.431 5.646 0 8.174-1.307l2.023-1.039c6.606-3.355 9.236-11.44 5.873-18.03l-12.967-25.479c-.773-1.471-2.153-2.508-3.72-2.764-.866-.127-1.738 0-2.483.391-1.063.535-1.83 1.529-2.156 2.75-.302 1.209-.148 2.523.432 3.668l12.494 24.534c1.406 2.78.316 6.183-2.477 7.613-1.076.552-2.264.732-3.447.552-1.771-.297-3.317-1.423-4.171-3.038l-12.491-24.528c-4.059-7.975-1.049-17.678 6.665-21.629 2.911-1.473 6.161-1.965 9.415-1.473 5.129.82 9.605 4.094 12 8.797l12.973 25.479c6.193 12.147 1.353 27.057-10.797 33.241l-2.026 1.039c-4.668 2.371-9.886 3.201-15.056 2.383-7.821-1.233-14.612-6.16-18.18-13.182l-18.261-35.828-.266-.515c-2.394 5.022-4.144 10.448-5.064 16.221-5.096 32.269 16.911 62.581 49.173 67.667 32.241 5.125 62.544-16.892 67.671-49.162 5.108-32.249-16.934-62.537-49.181-67.64-21.867-3.472-42.781 5.533-55.599 21.734l21.585 42.396c1.939 3.803 5.644 6.477 9.864 7.149" fill="#ebad00"/></svg>