<svg height="124" preserveAspectRatio="xMidYMid" viewBox="0 0 512 124" width="512" xmlns="http://www.w3.org/2000/svg"><path d="m299.665432 6.01551691c1.562702-2.76004052 3.952977-5.11950099 7.073979-5.99549471 1.408634-.02641188 2.817267-.0220099 4.230302-.01320594 1.91486.88479768 3.596416 2.27142091 4.635283 4.12465385.82317 1.85763493.37857 3.80330943-.04402 5.6917582-.545845 1.14011239-.959631 2.34185259-1.355809 3.53919069-.33455.7219245-.633885 1.4570549-.898004 2.2053913-.321344.7219244-.616277 1.4570548-.880395 2.2009892-.316943.7263265-.616277 1.4570549-.880396 2.2009893-.316942.7263264-.611875 1.4614568-.884798 2.2053912-.31254.7263264-.607473 1.4570549-.880395 2.2009892-.312541.7263265-.607473 1.4570549-.880396 2.2009893-.312541.7263264-.607473 1.4570549-.875994 2.2009892-.316942.7263265-.611875 1.4570549-.880395 2.2009893-.316943.7263264-.611876 1.4570549-.880396 2.2009892-.316943.7263265-.611875 1.4570549-.880396 2.2009893-.316942.7263264-.611875 1.4570549-.880396 2.2009892-.316942.7263265-.611875 1.4570549-.880395 2.2009893-.312541.7263264-.611875 1.4614568-.880396 2.2009892-.316942.7263265-.611875 1.4614569-.880396 2.2053913-.316942.7219244-.611875 1.4526529-.875993 2.1965872-.316943.7263265-.616277 1.4570549-.884798 2.2009893-.312541.7263264-.611875 1.4614568-.875994 2.2053912-.321344.7263265-.620679 1.4614569-.893601 2.2053912-.171678.4578058-.330149.9200135-.479816 1.3866233 5.550895-4.1686737 11.004946-8.4826126 16.723116-12.4223834.585463-.3125404 1.17973-.6206789 1.769596-.9376214 1.945674-.7967581 4.067428-.6514928 6.11875-.5106295 1.452653.831974 2.830472 1.8268211 3.680054 3.3058859 1.074082 2.7028148.598669 5.8898472-1.179731 8.183278-1.1137 1.3910252-2.460706 2.5619515-3.798907 3.7284758-.616277.413786-1.214946.8539838-1.791605 1.3205935-3.032963 2.0821359-5.933867 4.3535568-8.869987 6.567752.493022.7307284.981641 1.4702608 1.470261 2.2053912.290531.4534038.581061.9024056.884798 1.3514074.6691 1.2105441 1.421839 2.3682644 2.200989 3.5127788.933219 1.6771538 2.020508 3.2574641 3.090189 4.8509803.409384.7351304.831974 1.4658589 1.289779 2.1789794.303737.4445998.607473.8936016.928818 1.3382015.858386 1.5847122 1.765193 3.1650225 2.267019 4.912608.321344 1.2897797-.228903 2.5575495-.46661 3.8077114-1.329397 2.1041457-3.076983 4.0322123-5.410031 5.0270594-1.606723.5238355-3.222249.5986691-4.815765-.0132059-.977239-.6867087-2.0029-1.3690153-2.636785-2.4078823-2.222999-3.3543076-4.445998-6.7130172-6.677801-10.0629228-.294933-.4445998-.585464-.8847977-.880396-1.3249955-.294933-.4445999-.585463-.8891997-.880396-1.3249956-.294932-.4445998-.585463-.8891996-.880396-1.3249955-.294932-.4445998-.594267-.8936016-.889199-1.3293975-1.870841-3.2354542-4.155468-6.2023877-6.057123-9.41143.039618.1408633.114452.4269919.149668.5678552-.391776.7175225-.730729 1.4614569-1.021259 2.2229991-.308139.7307285-.598669 1.4658589-.858386 2.2097932-.321345.7219245-.620679 1.4570549-.884798 2.2009893-.316942.7219245-.611875 1.4570549-.875994 2.2009892-.321344.7219245-.616277 1.4570549-.875993 2.2009893-1.571507 3.7064659-2.82607 7.5581971-4.837775 11.062172-1.655144 1.835625-3.323493 3.9001529-5.837023 4.5340378-1.113701.1452653-2.209793.7483364-3.345504.4313939-.898003-.2245009-1.804811-.3741682-2.716021-.5150315-1.324995-1.1489164-2.905305-2.245009-3.424739-4.0146044-1.100494-2.4783139.37857-5.0534713 1.060877-7.4305397.321344-.7263264.629483-1.4570549.906808-2.2009892.303736-.7307285.603071-1.4614569.871591-2.2009893.308139-.7263264.611875-1.4614568.884798-2.2009892.303737-.7263265.607473-1.4614569.880396-2.2009893.308138-.7307284.603071-1.4614568.880395-2.2053912.312541-.7219245.603071-1.4570549.875994-2.1965873.312541-.7263264.607473-1.4614568.880396-2.2009892.308138-.7307285.607473-1.4614569.880396-2.2053913.31254-.7219244.607473-1.4570548.880395-2.2009892.312541-.7219245.607473-1.4570549.880396-2.2009893.31254-.7219244.607473-1.4570548.880396-2.1965872.31254-.7263265.607473-1.4614569.880395-2.2053913.308139-.7263264.607473-1.4570548.880396-2.2009892.312541-.7263265.607473-1.4570549.880396-2.2009893.31254-.7263264.607473-1.4570548.880395-2.2009892.312541-.7263265.607473-1.4570549.880396-2.2009893.312541-.7263264.607473-1.4614568.875994-2.2009892.316942-.7263265.611875-1.4614569.880396-2.2009893.31254-.7263264.607473-1.4614568.880395-2.2053912.312541-.7219245.611875-1.4570549.880396-2.2009892.31254-.7219245.607473-1.4570549.880396-2.2009893.31254-.7219245.607473-1.4570549.880395-2.2009892.312541-.7219245.607473-1.4570549.880396-2.2009893.312541-.7219245.607473-1.4570549.875994-2.2009892.607473-1.4570549 1.206142-2.9229138 1.760791-4.4019785.316943-.7263265.611875-1.4570549.884798-2.2009893.31254-.7263264.607473-1.4570549.880396-2.2009892.31254-.7263265.607473-1.4570549.875993-2.2009893.312541-.7263264.611875-1.4570549.880396-2.2009892.31254-.7263265.611875-1.4570549.880396-2.2009893.31254-.7219245.611875-1.4570549.875993-2.2009892.669101-1.59351625 1.31179-3.2002384 1.914861-4.82016649zm-272.9578828 5.08868719c5.0754812-1.74758551 10.5031207-1.62433011 15.7898969-1.36461338.8627878.17167716 1.7167716.39617808 2.5971673.47981568 2.9185118.8803957 5.7533859 2.0161061 8.390171 3.5612006 3.3146898 2.4210882 6.2992313 5.3660118 8.3285434 8.9668302.4930215 1.3161916 1.0256609 2.6191772 1.5274865 3.9309668.7175225 3.0241592.620679 6.136358.5326394 9.2221449-.2905306 3.4379453-1.3293975 6.7482331-2.3198427 10.036511-.5282374 1.1445144-.9596313 2.3330486-1.3382014 3.5347888-.6955126 1.3778192-1.1753283 2.856884-1.9412726 4.1994875 1.3602114-1.7872033 3.081385-3.2530622 4.5824597-4.91701 2.451902-2.9537276 5.313188-5.528885 7.9147573-8.3505532 3.0593751-3.6800541 6.748233-6.7878509 9.7811962-10.4943168 5.5024732-5.3836197 10.4370911-11.3086828 16.0980354-16.5382332.9112096-.5810612 1.8136151-1.1797303 2.7116188-1.7872033 2.2582146-1.2721718 4.8553826-1.22375 7.3689116-1.0036511 1.967685.9728373 3.908957 2.4034803 4.696911 4.5340379.730729 1.6595459.404982 3.5083768.404982 5.2603643-.651492 1.1841322-1.232554 2.4078822-1.884046 3.5920144-.312541.4445999-.616277.8980036-.91121 1.3558094-1.831223 1.848831-3.367513 3.9661826-5.269168 5.7489839-2.161372 2.249411-4.4504004 4.3931746-6.4312908 6.8098608-2.9801394 3.1738265-6.2111916 6.1231521-9.006448 9.4642537-2.236205 2.3154407-4.5252339 4.5736557-6.7350271 6.9155083-2.3638624 2.856884-5.119501 5.3572078-7.6638445 8.0512186.2729226.5942671.5458453 1.1885342.8231699 1.7828013.5194335 1.641938 1.0432689 3.283876 1.7475855 4.8597843.5502473 1.6243301 1.0520729 3.27067 1.7607914 4.8421764.5502473 1.62433 1.0520729 3.27067 1.7607914 4.8421763.5502473 1.6243301 1.0520729 3.27067 1.7607914 4.8377744.5502473 1.628732 1.0520729 3.275072 1.7607914 4.8421763.5458453 1.6243301 1.0608768 3.2662681 1.7563894 4.8377744.3917761 1.2061421.7967581 2.4166862 1.3646134 3.5612006.0484217.202491.1408633.6030711.189285.8011601.5194335 1.3249955.9376215 2.689609 1.4922708 4.0058.2421088.594268.5194334 1.175329.809964 1.751988 1.4174371 2.178979 4.1070459 3.213444 6.6249776 3.253062 130.1577002-.004402 260.3154002.004402 390.4775032-.004402 1.175328-.013206 2.29343.431394 3.464357.528237.920013.46661 1.844429.928818 2.777648 1.373418.748337.836376 1.320594 1.796007 1.870841 2.773246.06603 1.703566.074834 3.411534-.02201 5.119501-.198089.462208-.382972.924416-.545845 1.399829-1.074083 1.892851-2.672001 3.415936-4.520832 4.547244-1.862037.563453-3.706466 1.377819-5.669748 1.435045-131.487098.004402-262.974196 0-394.4612938.004402-1.5935162.048422-3.1077968-.567855-4.705715-.506227-1.628732-.616277-3.3719155-1.021259-4.8201665-2.033715-1.8752428-1.104896-2.9405216-3.063777-4.1862815-4.767342-.5282374-1.052073-1.0608768-2.095342-1.5715063-3.151817-.3433544-.884798-.6911107-1.769595-1.1092986-2.623579-.0440198-.198089-.1364613-.594267-.1848831-.792356-.9508274-2.51353-1.8268211-5.062275-2.8480801-7.553795-.5590513-1.633134-1.0476709-3.2970821-1.8048112-4.8553825-.0484218-.1980891-.1452653-.5942671-.193687-.7923562-.5194335-1.3382014-.9288175-2.7160207-1.5230846-4.0190063-.3917761-1.1973382-.8011601-2.3902744-1.3205936-3.5347888-.5502473-1.62433-1.0564748-3.27067-1.7651933-4.8377743-.5502473-1.6243301-1.0608768-3.2662681-1.7563895-4.8333724-.396178-1.2061421-.80116-2.4122843-1.3646133-3.5523967-.0484218-.198089-.1452653-.5986691-.193687-.7967581-.5194335-1.3382015-.9288175-2.7160207-1.5230846-4.0190064-.3917761-1.1973381-.8011601-2.3902743-1.3249955-3.5347887-.620679-1.9148606-1.2941817-3.8121134-2.0865378-5.6609444-.0968436.5678553-.206893 1.1357105-.3169425 1.7035657-.3697662.7175225-.6911106 1.4570549-.9684353 2.2141952-.3081385.7263265-.603071 1.4570549-.8715917 2.2009893-.3125405.7219244-.611875 1.4570548-.8847977 2.1965872-.3125405.7263265-.607473 1.4614569-.8803957 2.2009893-.3125405.7263264-.607473 1.4570549-.8847977 2.2009892-.3125404.7263265-.607473 1.4614569-.8715917 2.2097932-.814366 1.7255756-1.5142806 3.4995729-2.1877833 5.2823742-.3213444.7263265-.616277 1.4570549-.8847977 2.2009893-.3169424.7219245-.616277 1.4570549-.8847977 2.2009892-.3169424.7219245-.611875 1.4570549-.8803957 2.2009893-.3169424.7219245-.616277 1.4526529-.8847977 2.1965873-.3169424.7263264-.611875 1.4570548-.8803957 2.1965872-.3169424.7307285-.611875 1.4614569-.8803957 2.2097932-.3741681.8539839-.7087185 1.7211736-1.0520728 2.5883634-.2861286.5942671-.5722572 1.1885342-.8539838 1.7828013-1.3910253 2.2538133-2.9625316 4.4548023-5.2427564 5.8854453-.220099.118853-.6514929.360962-.8671898.484218-1.7123696.457805-3.4335432 1.22375-5.2427564.937621-.7483363-.158471-1.4790648-.365364-2.2318031-.48862-1.3161916-.743934-2.5531475-1.628732-3.5876125-2.73803-.3213444-.633885-.6558948-1.263368-1.0036511-1.884047-.4137859-2.9845415.1804811-5.9602789 1.439447-8.6762997.3169425-.7219244.616277-1.4526529.8891997-2.1965872.3169424-.7263265.611875-1.4570549.8803957-2.2009893.3169424-.7263264.611875-1.4570549.8803957-2.2009892.3169424-.7219245.6162769-1.4526529.8847976-2.1965873.3125405-.7263265.611875-1.4570549.8803957-2.1965873.3125405-.7307284.611875-1.4614568.8847977-2.2009892.3081385-.7307285.607473-1.4614569.8803957-2.2009893.3125405-.7263264.607473-1.4614568.8847977-2.2009892.3081385-.7263265.607473-1.4614569.8715917-2.2097932 1.1313085-2.4475001 2.0821359-4.9742357 3.068179-7.4833635.3169425-.7263264.620679-1.4570549.8891997-2.2009892.3125405-.7263265.611875-1.4570549.8803957-2.2009893.3169425-.7219245.611875-1.4570549.8803957-2.1965873.3169425-.7263264.616277-1.4570548.8847977-2.2009892.3125405-.7263265.611875-1.4570549.8803957-2.2009893.3125405-.7263264.611875-1.4570548.8847977-2.2009892.3081385-.7263265.607473-1.4570549.8803957-2.1965873.3125404-.7263264.607473-1.4614568.8803957-2.2053912 1.2897797-3.0285612 2.4034802-6.1275541 3.2442581-9.3145865.625081-2.3110387.9728373-4.8773922.0880396-7.162019-1.3778193-2.3858724-3.688858-4.1686737-6.3828688-4.7937546-2.8172663-.3961781-5.7621899-.1804811-8.3901711.9904451-.5942671.2729227-1.1841322.5590513-1.7519874.8803957-4.5428418 2.8568841-8.4385928 7.2984804-9.5743032 12.6644922-.4005801 1.2633678-.2377069 2.6147752-.4490018 3.9133589.1188534 1.7651934.2245009 3.5479946 1.1225045 5.1283049 1.2413579 2.0865378 3.0989928 3.7857015 5.2999821 4.8201665.9112095.3961781 1.8224191.8055621 2.7820504 1.0828867 1.3470054.7043166 2.5795594 1.6067222 3.6228283 2.7116188.1012455.2377068.2993345.7175225.3961781.9552293.1848831.4666097.3741681.9288175.5766592 1.3910252.6382868 4.1774776-2.2185972 8.0864345-5.9294651 9.7195685-3.3851215.9816412-7.0915874.8055621-10.4899148-.0352158-.7219244-.3433543-1.4526529-.6470908-2.2009892-.9244155-.7351304-.4710117-1.4922707-.9024056-2.253813-1.3205935-3.46435707-2.3462546-5.96908284-5.7577879-8.06442461-9.3145865-.42258993-1.0564749-.818768-2.1217537-1.30298563-3.1474147-1.1665243-4.0718301-1.69476173-8.2977294-1.39102521-12.5324328.58546314-3.2926799 1.03886693-6.6557915 2.27582289-9.8076081.47541367-1.021259.8803957-2.0733318 1.30298563-3.1166007.62067897-1.0168571 1.24575992-2.0337141 1.81801712-3.076983.59866908-.8759937 1.1885342-1.7519875 1.76959536-2.6411871 2.90530585-3.7196718 6.29923125-7.0607735 10.19498225-9.7459804.4490018-.2993345.9024055-.6030711 1.3470054-.9156115 1.7299775-.9420234 3.4951709-1.8136152 5.2691682-2.667599.8891997-.2729227 1.7695954-.5766592 2.6455891-.8936016zm448.1346168 11.9953914c2.214196-.8759938 4.613274-.7967581 6.950724-.6382869 1.417438.6735027 2.632384 1.6727518 3.675653 2.8392761.101245.2333049.303736.7087186.40058.9464254.180481.4710117.37857.9464254.589865 1.4130351.127657 1.426241-.171677 2.8128643-.53264 4.1862815-.325746.8847977-.625081 1.7783994-.902405 2.676403-.721925 1.421839-1.421839 2.861286-1.963283 4.3623607-.250912.4313939-.497423.8627878-.743934 1.2941816 1.831223.3257465 3.702064.2289029 5.555297.3521583.462208.1936871.937621.3741682 1.421839.5414434 1.206142.7747482 2.531137 1.633134 2.918512 3.1210027.82317 1.848831.325746 3.904555-.114452 5.7841998-1.091691 2.5179317-3.481965 3.9353688-5.898651 4.9654317-3.20464.7835522-6.506124.4710117-9.772392.5238355-.039618.2509128-.123256.7527383-.162874 1.0036511-.369766.7263264-.69111 1.4746628-.972837 2.240607-.31254.7263265-.603071 1.4614569-.871591 2.2009893-.316943.7263264-.611876 1.4614568-.880396 2.2009892-.316943.7263265-.611875 1.4614569-.880396 2.2009893-.316942.7263264-.611875 1.4614568-.880396 2.2009892-.316942.7263265-.611875 1.4614569-.880395 2.2053913-.316943.7219244-.611875 1.4526529-.875994 2.1965872-.321344.7263265-.616277 1.4570549-.8892 2.1965873-.325746.7571403-.629483 1.5230846-.867189 2.3110387-.145266.1496673-.440198.4401979-.585464.5898651 3.834124.1628732 7.716669-.3477563 11.484762.5414434.898004.4534038 1.80041.9068076 2.702815 1.3690153.493022.7791502.999249 1.5494964 1.501075 2.3242447-.008804 1.7695953.321344 3.6404362-.409384 5.313188-.352158.9464254-.964033 1.7607914-1.501075 2.6015693-1.153318.8451799-2.311039 1.6903597-3.600818 2.3154407-3.71527.9948471-7.597815.4930216-11.392321.616277-3.825319-.1408633-7.734276.409384-11.471556-.616277-2.319842-1.0080531-4.344752-2.6411871-5.436443-4.9698337-.228903-1.8400271-.942023-3.7240739-.215697-5.5508949.369766-2.060126 1.24576-3.9441728 2.051322-5.8546314.308138-.7263265.603071-1.4570549.871592-2.2009893.31254-.7263264.611875-1.4570549.884797-2.2009892.308139-.7263265.603071-1.4570549.875994-2.2009893.312541-.7263264.607473-1.4570549.880396-2.2009892.31254-.7263265.607473-1.4570549.875994-2.2009893 1.219348-2.856884 2.236205-5.8018076 3.543592-8.6234759-2.940521.1892851-6.514928-.4357958-7.989591-3.3234937-.202491-1.1445144-.71312-2.267019-.501825-3.4467492.171677-.9024056.391776-1.7960072.484217-2.7072168 1.087289-2.3330486 3.107797-3.9793885 5.440846-4.9742357 2.544343-.7835522 5.211942-.5546493 7.835521-.6779047 1.479065-.5810611 1.461457-2.6984128 2.196588-3.9793885.31254-.7219245.607473-1.4570549.880395-2.2009893.312541-.7263264.611875-1.4570549.884798-2.2009892.312541-.7263265.611875-1.4658589.86719-2.2185972.431394-.8891997.871592-1.7739973 1.31179-2.658795 1.241357-1.4526529 2.597167-2.8128643 4.107045-3.9881925zm-340.299349 16.5558411c2.139361-.211295 4.296331-.0704316 6.440094-.0088039 1.857635.6514928 3.71527 1.3029856 5.423238 2.2978327 1.765193 1.5671044 3.433543 3.2706701 4.542841 5.3836197.515032 2.0205082 1.162123 4.0718301.95523 6.1847798-.294933 2.3990783-1.091691 4.6925091-1.884047 6.96393-2.390274 5.4496494-4.525234 11.0137502-6.682203 16.5558412 3.957378.1188534 7.963179-.3477564 11.854528.5150314 1.435045.620679 2.667599 1.5847123 3.680054 2.7732465.915611 2.2626169.528237 4.7233229-.105648 7.0035478-1.144514 1.435045-2.456304 2.7336286-4.036614 3.680054-.920014.2773247-1.831223.5898651-2.716021.9640333-6.972734.206893-13.958674.198089-20.931408.008804-1.474662-.7835522-3.050571-1.448251-4.291929-2.5883634-.902405-.9860432-1.49227-2.2009893-2.121753-3.3587096-.06603-.9640333-.167275-1.9236646-.413786-2.8524821.281726-.9156115.365364-1.8708408.413786-2.8216682.066029-.1012455.202491-.3081385.272922-.409384.202491-.7395324.4446-1.4658588.664699-2.2009892.651493-1.443849 1.228152-2.9229138 1.791605-4.4019785.316943-.7263265.616277-1.4570549.884798-2.2009893.316943-.7263264.611875-1.4570549.880396-2.2009892.316942-.7219245.616277-1.4526529.884797-2.1921853.312541-.7307285.607474-1.4658589.884798-2.2053913.312541-.7263264.607473-1.4570548.880396-2.1965872.924415-1.8180171 1.386623-3.8033094 1.175328-5.8458275-.699914-.7395324-1.505477-1.3558094-2.372666-1.8796448-.611875-.0440198-1.214946-.0968435-1.818017-.1628732-3.627231-.3037365-6.413683 2.4166862-8.350554 5.1503148-.510629.836376-.981641 1.6991637-1.443849 2.5663535-3.455553 7.8311198-6.422486 15.8691325-9.65794 23.7970958-.567856.8936016-1.118103 1.8004092-1.606723 2.7380306-1.474662 1.7475855-3.217846 3.27067-5.379217 4.09384-.787954.0968435-1.562703.2465108-2.328647.4313939-1.1445143.3125405-2.240607-.2905306-3.3631115-.4225899-1.426241-.6074731-2.6191772-1.5979182-3.6140243-2.7688445-.1364614-.2421088-.418188-.7263265-.5546493-.9684353-.3345504-2.5135297-.0484218-5.0490693.9904451-7.368912.3257464-.7219245.629483-1.4570549.9024056-2.2009892.3125405-.7263265.6074731-1.4570549.8759938-2.2009893.3125404-.7263264.607473-1.4570549.8803957-2.2009892.3125404-.7263265.607473-1.4570549.8803957-2.2009893.3125404-.7263264.607473-1.4570549.8759937-2.2009892.3169424-.7263265.611875-1.4570549.8803957-2.2009893.3169424-.7263264.611875-1.4570549.8759937-2.2009892 2.6543931-6.6029678 5.3351981-13.2015336 7.9147571-19.8353152.290531-.5854631.581061-1.1709262.875994-1.7563894 1.188534-1.9148606 2.984541-3.2530621 5.009451-4.1906835 2.319843-.0924416 4.740931-.40058 6.950725.5062275 1.44825.8803957 2.579559 2.1349596 3.451151 3.5788085.620679-.4445998 1.254564-.8715917 1.879645-1.3073876 1.210544-.6646987 2.368264-1.4130351 3.578808-2.0733318 1.707968-.616277 3.429141-1.232554 5.220747-1.5671044zm50.68438.4974236c3.442347-.7791502 6.990342-.6426889 10.498719-.5238355 1.945674.220099 3.829721.7967581 5.682954 1.4130351 1.888449.8451799 3.614024 1.9852923 5.321992 3.1430127 1.056475 1.021259 2.095342 2.0645279 3.121003 3.1210027.572257.9112096 1.170926 1.8004092 1.787203 2.6852069.453404.8847977.898004 1.7739974 1.355809 2.6543931.589865 1.8708408 1.030063 3.7901034 1.37782 5.71817.114451 1.7475855.039617 3.4995729.057225 5.2515604.118854 2.2274011-.75714 4.3271448-.986043 6.5193301-.479815 1.3205936-.928817 2.6587951-1.347005 4.0058005-2.183382 5.0006476-5.163521 9.7151665-9.332195 13.293975-2.443098 1.7651934-5.093089 3.2310523-8.007199 4.0542222-5.071079.8980037-10.256609.5634533-15.389316.5150315-3.525985-.3697662-7.210441-.9948471-10.084933-3.2354542-2.685207-2.3242446-4.842176-5.2031386-6.25081-8.4650046-.140863-.4534038-.294932-.9024056-.453403-1.3470054-1.597919-5.8722394-1.272172-12.1098429.449001-17.9160525.338953-.7307285.638287-1.4834668.893602-2.2450091.563453-1.1929361 1.153318-2.3682644 1.769595-3.5347887 2.531138-4.1510657 5.920661-7.6990604 9.785599-10.6263761.453403-.3037365.906807-.607473 1.355809-.9156115 1.439447-.7835522 2.905306-1.5142806 4.379969-2.2318031 1.342603-.42259 2.685206-.8627878 4.014604-1.3337995zm49.306561 1.9764883c2.782051-1.1533183 5.634533-2.3110387 8.667496-2.5179317 3.556798-.0968435 7.201637-.3257464 10.586758.9772393 2.680805 1.1533183 5.172325 2.7644424 7.135607 4.9478238 3.200239 4.2214974 4.067428 9.8736378 2.694011 14.9315111-.338952.7175225-.647091 1.4482509-.920013 2.1921852-.312541.4622078-.611875.9332195-.902406 1.4086332-.594267.611875-1.197338 1.214946-1.791605 1.826821-.607473.3037366-1.210544.620679-1.809213.9420234-2.8921 1.1313085-6.510527.6074731-8.522231-1.8972527-.928817-1.9148606-.369766-4.089438-.717522-6.1099461-.149668-.7879542-.211295-1.5891143-.246511-2.3902744-.563453-1.0608768-1.421839-2.1217536-2.689609-2.2758229-1.681556-.0396178-3.503975-.2773246-4.978638.7307285-2.095341.9904451-3.51718 2.856884-4.802558 4.710117-.360962.5678552-.704317 1.1357104-1.047671 1.7079676-.726327 1.5406925-1.386623 3.1518166-1.479065 4.8729902-.695512 2.7336287-.237707 5.8458275 1.483467 8.1172484 1.848831 1.9280666 4.679303 2.2626169 7.179627 2.6984128 5.726974.0968435 11.462752-.008804 17.194128.0440198 1.474663.1584712 2.918512.5722572 4.353557.9508273.792356.5810612 1.575908 1.1753283 2.311038 1.8400271.118854.2465108.360963.7439343.479816.9948471.114451.8715917.321344 1.7299775.48862 2.5971673-.237707 1.3073876-.519434 2.6103733-.924416 3.882545-.506227.5986691-.981641 1.2193481-1.439447 1.853233-.620679.4445998-1.22375.9068076-1.813615 1.3822212-.215697.1188535-.651493.3521583-.86719.4710117-1.606722.5414434-3.217846 1.1709263-4.947824 1.0476709-8.275719-.004402-16.555841.1716772-24.827158-.1100494-.598669-.2245009-1.210544-.3785702-1.826821-.5238355-.86719-.3873741-1.75639-.7219245-2.645589-1.0432689-1.236956-.7835522-2.438697-1.6199281-3.578809-2.5399416-1.263368-1.0036511-2.086538-2.4166862-3.178228-3.5788085-.787955-1.4482509-1.518683-2.9273157-2.236206-4.4107825-2.355058-6.9903418-1.694761-14.6717943.898004-21.4992629.581061-1.1841323 1.162122-2.3682645 1.791605-3.5259848.479816-.7131205.91121-1.4526529 1.3338-2.1965873 2.504726-3.3851215 5.506875-6.4136827 8.905202-8.9008005.91121-.5062275 1.804811-1.0520729 2.689609-1.6067222zm119.223186-2.460706c4.569254-.2465108 9.283773-.3873741 13.606515 1.3778193 4.401979 1.9324686 8.112847 5.2647663 10.516327 9.429038.189285.4313939.387374.8583858.585463 1.2897797.268521.7571403.572257 1.5054766.920014 2.236205 1.796007 6.1627699 1.122504 12.7613357-.8892 18.7920463-.343354.7263264-.647091 1.4702608-.898004 2.2318031-.699914 1.4878687-1.435045 2.9537275-2.205391 4.4019785-2.38147 3.8913489-5.445247 7.3909219-9.349802 9.8076081-.884798.4445998-1.765194.8891996-2.645589 1.3337994-.915612.2773247-1.822419.5810612-2.711619.9200135-5.049069.8936017-10.208188.5546493-15.314483.5238355-1.461457.0748336-2.839276-.5326394-4.296331-.5194335-1.430643-.5370414-2.944924-.8891996-4.256713-1.6903597-2.46951-1.4746628-4.357959-3.7020639-6.061525-5.9734848-.616277-1.1665243-1.20174-2.3418526-1.796007-3.5171809-1.813615-5.1767267-1.787203-10.7892493-.884798-16.1332512.193687-.603071.334551-1.219348.479816-1.835625.303736-.8803957.594267-1.7651934.86719-2.654393.849582-1.7783994 1.716771-3.5479947 2.663197-5.2779723.308138-.4445998.616277-.8936016.924415-1.3382014.457806-.5854632.902406-1.1841322 1.320594-1.8004092 2.214195-2.3638625 4.432792-4.7673427 7.095989-6.6381836.449002-.2993345.893602-.6030711 1.342604-.9156115 3.398327-1.9676844 7.104793-3.4071314 10.987338-4.0498203zm47.127582.4798157c2.711618-.8759937 6.145162-1.1621223 8.398975.9156115 1.065278.8495819 1.721173 2.055724 2.33745 3.2398562.101246 1.8884488.04402 3.7812995-.545845 5.5949147-.655895 1.4482509-1.241358 2.9273157-1.796007 4.4151844-.325747.7219245-.620679 1.4570549-.884798 2.2009893-.316942.7219244-.616277 1.4526529-.875994 2.2009892-.611875 1.4570549-1.210544 2.9229137-1.760791 4.4019785-.321345.7219245-.620679 1.4570549-.884798 2.2009893-.321344.7263264-.611875 1.4614568-.86719 2.2141951-.215697.4666098-.42259.9376215-.629483 1.4086332-.132059.4137859-.26852.8275719-.409384 1.2369559-.145265.4401979-.286128.8803957-.431393 1.3161916-.162874.4357959-.334551.8715917-.501826 1.3073876-.382972 1.1357105-.48862 2.3550585.176079 3.4203373 1.065279.9948471 2.55755.8319739 3.904555.8319739 2.029312.1100495 3.988193-.6426888 5.779798-1.5362905 2.02491-1.3558093 3.614024-3.3190917 4.296331-5.6785522.303736-.7307284.598669-1.4658589.871592-2.2097932.308138-.7263265.603071-1.4570549.880395-2.2009893.308139-.7263264.603071-1.4614568.880396-2.2009892.308139-.7263265.603071-1.4614569.880396-2.2009893.308138-.7263264.603071-1.4614568.880395-2.2009892.308139-.7307285.603072-1.4614569.880396-2.2053913.303737-.7263264.603071-1.4570548.875994-2.1965872.308138-.7263265.611875-1.4614569.884798-2.2009893.308138-.7307284.603071-1.4702608.862787-2.2229991.682307-1.4966727 1.404231-2.9757375 2.205392-4.4107825.308138-.4534038.607473-.9112095.906807-1.3734173 1.351408-1.5891142 3.090189-2.7732464 4.952226-3.6976619 1.721174-.1232554 3.455553-.1452653 5.181129-.008804 1.413035.6823067 2.627981 1.6771538 3.67125 2.8392762.101245.2333048.303736.7043165.404982.9420234.176079.4666097.374168.9332194.581061 1.3954272.250913 2.861286-1.052073 5.515679-1.884047 8.183278-.330148.7219245-.633885 1.4570549-.906807 2.2009892-.312541.7263265-.607474 1.4614569-.875994 2.2009893-.316943.7263264-.611875 1.4570549-.880396 2.2009892-.316942.7263265-.611875 1.4570549-.884798 2.1965873-.31254.7263265-.607473 1.4614569-.880395 2.2009893-.316943.7263264-.611875 1.4614568-.86719 2.2097932-1.465859 3.266268-2.760041 6.6073697-4.023408 9.9528734 4.415184.1012455 8.927212-.4313939 13.205935.9596313.818768.7923561 1.787203 1.5230845 2.227401 2.6191772.250913.8319739.325747 1.7123696.559052 2.5575495-.312541 1.3866232-.431394 2.8128642-.893602 4.1642716-.831974 1.3029857-1.897253 2.4254902-3.22665 3.2222483-.607473.2993345-1.210544.5986691-1.804812.9112096-2.843678.8583858-5.837023.5766591-8.764339.6294829-3.944172-.0308139-7.888345.0880395-11.828116-.1100495-1.655144-.7439344-3.024159-1.9324685-4.195085-3.2926799-.026412-.1892851-.083638-.5722572-.114452-.7615423-.906808.9024056-1.844429 1.7739974-2.795256 2.6279812-.603071.2861286-1.20174.5766592-1.791606.8671897-.471011.1672752-.933219.3477563-1.386623.5414434-5.498071.211295-11.009348.198089-16.507419-.004402-.471012-.1892851-.937622-.3609622-1.408633-.5194334-1.7784-.8011601-3.556799-1.7123697-4.930216-3.1254048-1.426241-1.3734173-2.302235-3.1738265-3.147415-4.9346179-.638287-2.1349595-.625081-4.3667626-.493021-6.5721539.42259-2.0865378 1.153318-4.09384 1.848831-6.1055442.330148-.7219244.629483-1.4570548.902405-2.2009892.312541-.7263265.607473-1.4570549.875994-2.2009893.31254-.7263264.611875-1.4570548.884798-2.2009892.308138-.7263265.607473-1.4570549.880395-2.2009893.312541-.7263264.607473-1.4570548.880396-2.2009892.31254-.7263265.607473-1.4570549.880396-2.2009893.31254-.7263264.607473-1.4570548.880395-2.2009892.312541-.7263265.607473-1.4570549.880396-2.2009893.308139-.7263264.607473-1.4570548.884798-2.1965872.308138-.7351304.607473-1.4702608.858386-2.2274011.563453-1.1885342 1.15772-2.3638625 1.751987-3.5391908 1.280976-1.9984982 2.988943-3.7020639 4.98304-4.9874416zm-215.784986 15.9835839c1.571506-1.0960926 3.411533-1.7343795 5.304384-1.9588804 1.065278-.0264119 2.073332.3917761 3.125404.4930216 1.765194.8539838 3.182631 2.3110387 4.085036 4.0410163 1.324996 4.6132734.343355 9.7635883-2.377068 13.703359-1.056475 1.6595459-2.517932 3.0549731-4.283125 3.9309668-2.980139 1.241358-6.418085 1.2017402-9.41143.0220099-1.184132-.8539838-2.4475-1.8048112-2.949326-3.2354542-1.144514-3.4643571-.449001-7.2720685 1.126907-10.4943167 1.26777-2.5399416 3.037365-4.8597843 5.379218-6.5017223zm167.627341-1.0344649c1.818017-.5722572 3.781299-1.3382015 5.682954-.620679 2.377069.3477563 4.120252 2.2846269 5.172325 4.3183409 1.052073 3.6184264.576659 7.5449912-.920014 10.9697304-.330148.6118751-.673502 1.2193481-1.034465 1.8092132-.294932.4357959-.581061.8715918-.867189 1.3117896-.862788 1.3161916-2.007303 2.4298921-3.371916 3.2178463-1.5583.8627878-3.319092.9860432-5.044667 1.22375-2.676403-.193687-5.911857-.6426889-7.333696-3.2574641-1.998499-3.5876125-.994848-7.9631791.6691-11.4759579 1.567105-3.0989929 3.886947-5.938269 7.047568-7.4965694zm144.50815 21.1691146c2.209793-1.3998292 4.789353-1.6595459 7.346902-1.4042311.479816.189285.968435.3653642 1.470261.5282374 2.04692 1.012455 3.754888 2.5971673 4.947824 4.5428418 1.109298 2.4827159 1.347005 5.2603643.453404 7.8531296-.316943.5986691-.620679 1.2061421-.91121 1.8136152-.999249 1.1269065-2.077734 2.1745773-3.178228 3.1914344-2.689609 1.3866232-5.955877 1.4174371-8.781948.4534038-.220098-.1276574-.664698-.3741682-.884797-.4974236-2.385873-1.4834668-4.041016-3.9529767-4.613274-6.6954093-.079235-1.2677698-.026412-2.5443436 0-3.8165154.189285-.4710117.369767-.9464253.550248-1.421839.281726-.6030711.576659-1.2017401.867189-1.8004092.893602-.9332195 1.804812-1.848831 2.733629-2.7468346z" fill="#e42e16" fill-rule="evenodd"/></svg>