<svg height="299" preserveAspectRatio="xMidYMid" viewBox="0 0 256 299" width="256" xmlns="http://www.w3.org/2000/svg"><path d="m85.3524 225.1019v49.265l42.664 24.633 42.666-24.633v-49.265l-42.666-24.632z" fill="#8aa964"/><path d="m128.0169.3332-128.017 73.907v147.796l42.665 24.633v-147.796l42.688-24.646v98.535l85.329-49.269v-49.266l42.659-24.624zm85.324 49.27.005.003v-.006zm-.006 98.526-42.664 24.634 42.665 24.632-.001 49.265 42.665-24.633v-147.791l-42.654-24.63z" fill="#8aa964"/><path d="m170.6822 74.2313-42.665-24.633 42.665-24.632z" fill="#5e7745"/><path d="m85.352 225.1022 42.665 24.633-42.665 24.632z" fill="#738f54"/><path d="m170.6822 274.3672-42.665-24.633 42.665-24.632z" fill="#5e7644"/><path d="m85.3524 274.3679 42.664 24.632v-49.265z" fill="#a1b982"/><path d="m170.682 225.1019-42.665 24.633v-49.266z" fill="#738f54"/><path d="m128.0169 299 42.665-24.632-42.665-24.633z" fill="#8aa964"/><path d="m128.0169 200.4694v49.265l-42.665-24.632z" fill="#8ba964"/><path d="m85.352 74.2274 42.665 24.633-42.665 24.632z" fill="#738f53"/><path d="m85.352 123.4973 42.665 24.633-42.665 24.632z" fill="#738f53"/><path d="m170.6822 123.4924-42.665-24.633 42.665-24.632z" fill="#5e7745"/><path d="m85.3522 123.4927 42.665-24.633v49.266z" fill="#5e7644"/><path d="m170.682 74.2271-42.665 24.633v-49.266z" fill="#475d34"/><path d="m128.0172 148.1252v-49.265l42.665 24.632z" fill="#475d34"/><path d="m128.0169 49.5946v49.265l-42.665-24.632z" fill="#5e7644"/><path d="m85.352 24.9663 42.665 24.633-42.665 24.632z" fill="#738f54"/><path d="m128.0169.3332v49.265l42.665-24.632z" fill="#738f54"/><path d="m213.3351 148.1294 42.665 24.632v-49.264z" fill="#5e7644"/><path d="m213.3358 197.3954-42.665-24.633 42.665-24.632z" fill="#8aa964"/><path d="m213.3351 148.1294 42.665-24.633-42.665-24.632z" fill="#738f54"/><path d="m213.3351 197.3945 42.665-24.632-42.665-24.633z" fill="#738f54"/><path d="m213.3351 197.3954 42.665 24.632v-49.265z" fill="#5e7644"/><path d="m213.3351 246.6605 42.665-24.633-42.665-24.632z" fill="#8aa964"/><path d="m213.3351 98.8688 42.665 24.632v-49.265z" fill="#5e7644"/><path d="m213.3351 98.8679 42.665-24.632-42.665-24.633z" fill="#738f54"/><path d="m0 123.5063 42.665 24.632v-49.265z" fill="#5e7644"/><path d="m0 123.5054 42.665-24.632-42.665-24.633z" fill="#738f54"/><path d="m0 172.7714 42.665-24.633-42.665-24.632z" fill="#738f54"/><path d="m0 172.7714 42.665 24.633v-49.265z" fill="#5e7644"/><path d="m0 222.0365 42.665 24.633v-49.265z" fill="#a0b982"/><path d="m0 222.0365 42.665-24.632-42.665-24.633z" fill="#738f54"/><path d="m0 74.2448 42.665 24.633v-49.265z" fill="#8aa964"/><path d="m213.3461 49.6004-42.665 24.633v-49.266z" fill="#738f54"/><path d="m128.0169.3332-42.664 24.633 42.664 24.632z" fill="#8aa964"/><path d="m42.6893 49.5989 42.665 24.633-42.665 24.632z" fill="#738f54"/><path d="m85.3543 24.9661v49.265l-42.665-24.632z" fill="#8aa964"/></svg>