<svg height="274" preserveAspectRatio="xMidYMid" viewBox="0 0 256 274" width="256" xmlns="http://www.w3.org/2000/svg"><path d="m128 1.26780952-127.91466667 62.83580948v74.055111 74.055111l127.91466667 62.83581 127.914667-62.83581v-74.055111-74.055111z" fill="#0081c2"/><path d="m225.129651 185.61219c-.402286-2.742857-1.52381-5.333333-2.992762-7.434158-1.473016-2.108953-3.232508-3.817651-5.075302-5.209397-3.703873-2.777397-7.720635-4.486095-11.792254-5.548698-.331174-.087366-.662349-.168635-.997587-.247874 1.021968-1.332825 1.950476-2.692063 2.809905-4.106158 1.735111-2.881016 3.189841-5.961143 4.171174-9.26273.958985-3.295492 1.408-6.846985.979302-10.347683-.412444-3.496635-1.741206-6.851048-3.730286-9.541079-.979301-1.357207-2.088635-2.576254-3.277206-3.667302l-.906159-.794413c-.310857-.253968-.621714-.501841-.938666-.747682l-.973207-.715175-.946793-.637968c-.426667-.286476-1.007747-.251936-1.39581.11581-.451048.424634-.467302 1.133714-.042667 1.58273l.784254.828952.707048.810667.682667.843174.646095.857397c.830984 1.160127 1.540063 2.375111 2.09473 3.624635 1.11746 2.501079 1.584762 5.122032 1.393778 7.673905-.184889 2.557968-.997588 5.048889-2.198349 7.395555-1.188572 2.348699-2.759112 4.567365-4.547048 6.601143-.889905 1.015873-1.836698 1.993143-2.809905 2.891175-.241778.223492-.485587.440889-.725333.642032-.117841.099555-.235683.201142-.339302.280381l-.038603.028444-.01219.006095c-.018286.014222.150349-.144254.065015-.067047 0-.002032.002032-.004064.002032-.006096.010159-.01219-.010159.004064-.016254.006096l-.148317.097523c-.455111.296635-1.001651.633905-1.548191.936635-2.210539 1.227175-4.612063 2.202413-7.007492 2.795683-2.405587.603428-4.811174.830984-7.137524.723301-2.330412-.10565-4.581587-.601396-6.743365-1.38565-.097523-.03454-.195047-.073143-.292571-.111746.451048-.065016.900063-.138159 1.357206-.229588 1.420191-.286476 2.876953-.705016 4.321524-1.308444 1.438476-.601397 2.870857-1.393778 4.171175-2.383238 1.306412-.983365 2.47873-2.149587 3.456-3.405207.97727-1.253587 1.765587-2.588444 2.364952-3.923301.607492-1.332826 1.046349-2.663619 1.379556-3.963937.31492-1.296254.526222-2.568127.650158-3.803428.247873-2.476699.19708-4.813207.016254-7.068445l-.073143-.847238-.097523-.873651c-.03454-.284444-.062984-.595301-.101588-.853333l-.113777-.737524-.056889-.369777-.028445-.182858-.014222-.091428-.006095-.04673-.004064-.02235c0 .010159-.014222-.168634-.008127-.103619l-.115809-.707047-.225524-1.414095c-.298667-1.887492-.552635-3.772953-.759873-5.662477-.121905-.946793-.176762-1.88546-.268191-2.832254-.079238-.944761-.121904-1.883428-.188952-2.830222-.075174-1.877333-.136127-3.766857-.069079-5.632.010158-.938666.091428-1.861079.134095-2.793651.085333-.918349.148317-1.852952.282413-2.763174.237714-1.828572.581079-3.636826 1.084952-5.376.501841-1.739175 1.172318-3.407238 2.039873-4.9391748.853333-1.5420952 1.938286-2.9297778 3.273143-4.0066032.664381-.5445079 1.397841-.991492 2.182095-1.3267301.390095-.168635.796445-.3108572 1.210921-.4205715.207238-.0589206.384-.0853333.583111-.1340952.217397-.0365714.487619-.0507937.729397-.0792381l.032508-.0020318c.509968-.0568888.928508-.4612063.985397-.991492.065015-.6135873-.379937-1.1641905-.993524-1.2292064-.253969-.0264127-.479492-.0650158-.757842-.0833016-.296634-.0060952-.613587-.0223492-.898031-.0081269-.568889.0203174-1.13981.0853333-1.700572.1930158-1.119492.2194286-2.206476.6115556-3.216254 1.1337143-2.029714 1.0361905-3.777016 2.5315556-5.229714 4.2138413-1.45473 1.6883809-2.633143 3.5636822-3.620571 5.5019682-.983366 1.940318-1.773715 3.947683-2.438096 5.98146-.34946 1.015873-.619682 2.039873-.912254 3.067937-.251936 1.026032-.512 2.062222-.713142 3.096381-.440889 2.072381-.741588 4.148825-1.021969 6.231365-.247873 2.078476-.43073 4.163048-.548571 6.241524-.119873 2.078476-.186921 4.15492-.203175 6.227301l-.002032 1.554286v.778159c.006096.08127-.008127-.08127-.006095-.056889v.024381.04673l-.002032.09346v.186921l-.002031.373841-.006095.745651c-.002032.237714-.020318.420571-.028445.633905l-.03454.613587-.048762.64c-.132063 1.71073-.379936 3.352381-.782222 4.794921-.201143.719238-.436825 1.38565-.688762 1.991111-.264127.589206-.550603 1.113397-.853333 1.544127-.613587.873651-1.23327 1.308444-1.883429 1.588825-.646095.276318-1.450666.461207-2.543746.495746-1.080888.038603-2.393396-.091428-3.789206-.392127-.199111-.040635-.398222-.083301-.601397-.130032 0 0-5.093587-1.796063-3.419428-7.625142 1.135746-2.110985 3.214222-4.284953 7.048127-4.85181 0 0 8.177777-63.3254602-43.064889-104.031492-.032508-.0243809-.067048 0-.067048 0-51.2365713 40.6999365-43.0587935 104.025397-43.0587935 104.025397 4.087873.603428 6.1846349 3.03746 7.2614603 5.270349 1.2271746 5.122032-2.8932063 6.954667-3.4620952 7.180191-.2377143.056888-.4733969.111746-.7050159.156444-1.3978413.300698-2.7103492.43073-3.7912381.392127-1.0910476-.036571-1.895619-.219429-2.543746-.495746-.648127-.282413-1.2698413-.717206-1.8813969-1.588825-.3006984-.430731-.5892063-.954921-.8533333-1.544127-.2519365-.607493-.487619-1.271873-.6887619-1.991112-.400254-1.442539-.6460952-3.086222-.7801905-4.79492l-.0487619-.64-.0325079-.613587c-.0101587-.211302-.0264127-.394159-.0304762-.633905l-.0040635-.745651-.0020317-.373841-.0020318-.186921v-.09346-.04673-.024381c.0020318-.024381-.0121905.138158-.0060952.056889v-.778159l-.0020318-1.554286c-.0162539-2.072381-.0812698-4.148825-.2031746-6.227302-.1178412-2.078476-.3006984-4.163047-.5485714-6.241523-.280381-2.08254-.5810794-4.158984-1.0219683-6.231365-.1970793-1.034159-.4591746-2.07035-.7131428-3.096381-.2905397-1.028064-.5627937-2.052064-.9102222-3.067937-.6664127-2.031746-1.4547302-4.041143-2.440127-5.98146-.9853968-1.936254-2.1658413-3.8115557-3.6205714-5.5019684-1.4506667-1.6822858-3.2-3.1776508-5.2317461-4.2138413-1.0097778-.5221587-2.0947301-.912254-3.2162539-1.1337143-.560762-.1056508-1.1296508-.1726984-1.7005715-.1930159-.2844444-.0142222-.6034285.0020318-.8980317.008127-.2783492.0182857-.503873.0548572-.7578413.0833016-.6135873.0650159-1.0585397.615619-.9935238 1.2292063.0548571.5302858.4754286.9346032.9853968.9914921l.032508.0020318c.2417777.0284444.512.0426666.7293968.0792381.1991111.0487619.3779047.0751746.5831111.1340952.4144762.1097143.8167619.2499048 1.2088889.4205714.784254.3352381 1.519746.7822222 2.1820952 1.3267302 1.3368889 1.0768254 2.4198095 2.4645079 3.2731429 4.0066032.8675555 1.529905 1.536 3.2 2.039873 4.939175.503873 1.739174.8472381 3.547428 1.0849524 5.376.1340952.910222.1991111 1.844825.2824127 2.763174.0426666.934603.1259682 1.854984.1320635 2.793651.0690793 1.863111.008127 3.754667-.0650159 5.632-.0690794.946794-.111746 1.88546-.1909841 2.830222-.0914286.946794-.1462857 1.88546-.2681905 2.832254-.2052064 1.889524-.4591746 3.774984-.759873 5.662476l-.2275556 1.414096-.111746.707047c.0040635-.065016-.0101587.113778-.0101587.103619l-.0020318.022349-.0060952.046731-.0142222.091428-.0304762.182857-.0568889.369778-.1117461.737524c-.0365714.258032-.0690793.570921-.1015873.853333l-.095492.873651-.0731429.847238c-.1808254 2.253206-.2356825 4.591746.0142222 7.068445.1259683 1.235301.3352381 2.507174.6521905 3.803428.3332064 1.302349.7700318 2.631111 1.3754921 3.963937.6013968 1.332825 1.3897143 2.667682 2.3690159 3.923301.9752381 1.255619 2.1495873 2.41981 3.4539682 3.405207 1.3023492.98946 2.7326984 1.781841 4.1732064 2.383238 1.4425396.603428 2.8993015 1.021968 4.319492 1.308444.4571429.091429.9102222.164572 1.3572064.229587-.0975238.038604-.1950476.077207-.2925715.111746-2.1617777.784254-4.4129523 1.28-6.7413333 1.385651-2.3263492.107683-4.7339682-.121905-7.1354921-.723301-2.399492-.59327-4.7969523-1.568508-7.0115555-2.795683-.5445079-.30273-1.0910476-.637968-1.5461587-.936635l-.1483175-.097524c-.0060952-.002031-.0264127-.018285-.0182857-.006095 0 .002032.0040635.004064.0040635.006095-.0853334-.077206.0833016.08127.0650159.067048l-.0101588-.004063-.0365714-.028445c-.1015873-.079238-.2214603-.180825-.3393016-.280381-.2377143-.203174-.4835556-.41854-.7253333-.642032-.9732064-.896-1.92-1.875301-2.8099048-2.891174-1.7879365-2.033778-3.3584762-4.252445-4.5470476-6.601143-1.2007619-2.344635-2.0154921-4.837587-2.200381-7.395556-.1909841-2.551873.2763175-5.172825 1.3937778-7.673904.5566984-1.249524 1.2657778-2.464508 2.0967619-3.624635l.6460953-.857397.6826666-.843175.7070476-.810666.784254-.828953c.4246349-.449016.4063492-1.158095-.0426667-1.58273-.3880634-.367746-.9711746-.402286-1.3978412-.115809l-.9467937.637968-.9732063.715174c-.3169524.245842-.6257778.495746-.9366349.747683l-.9061588.794413c-1.1885714 1.091047-2.2979047 2.310095-3.2792381 3.667301-1.9890793 2.692064-3.3158095 6.046476-3.7302857 9.54108-.4286984 3.500698.0203175 7.05219.9813333 10.347682.9793016 3.301587 2.4340318 6.381714 4.1691429 9.26273.8594286 1.414096 1.7899683 2.775365 2.8119365 4.110222-.3352381.077207-.6684444.154413-1.0016508.241778-4.0695873 1.062603-8.0863492 2.771302-11.7902222 5.548699-1.8407619 1.393777-3.6022857 3.100444-5.0753016 5.209397-1.4669206 2.100825-2.5884444 4.693333-2.9907301 7.434158-.4266667 2.744889-.0467302 5.512127.7476825 7.868953.4104127 1.174349.912254 2.267428 1.4730159 3.279238.5749841.993524 1.1845079 1.944381 1.8529523 2.783492.656254.863492 1.3572064 1.639619 2.0662858 2.389333l.5790476.577016.2905397.288508c.0975238.097524.1970793.195048.2702222.258032l1.0483809.934603c1.4303492 1.23327 2.9236826 2.379174 4.4474921 3.451936 3.0659048 2.127238 6.2862222 3.915175 9.5370159 5.432889 2.9765079 1.397842 5.9814603 2.56 8.9417143 3.667302.0162539.042666.0325079.083301.0487619.125968l.2356825.554667c.0853333.180825.1848889.353524.280381.532317.1909841.351492.3880634.698921.5912381 1.044318l.1523809.256.1706667.239746.3474285.479492c.2356826.312889.4693334.633905.7151746.934603 2.0358096 2.371048 4.6100318 4.00254 7.2309842 4.965587 2.6311111.969143 5.3313016 1.284064 7.8933333 1.162159.3189841-.016254.6420318-.024381.9610159-.050794l.9386666-.121904.9346032-.130032c.3088254-.04673.6095238-.125968.912254-.193016l.904127-.207238c.1523809-.040635.2966349-.065016.4551111-.113778l.479492-.146286.9488254-.30273.4713651-.156444c.1564445-.052826.3250794-.109715.4205715-.156445l1.3511111-.583111.1686349-.073143c.095492-.038603-.1564445.054857.2255238-.089396l.0365714-.016254.0751746-.03454.2966349-.138159.5932699-.278349c.3941587-.197079.7984762-.363683 1.2007619-.532318.4043175-.168634.8066032-.34946 1.2210794-.491682 1.639619-.635937 3.328-1.13981 5.0427936-1.511619 3.4255238-.741587 6.9912378-1.024 10.4147298-.516064 1.706667.253969 3.372699.702985 4.908699 1.381588 1.533968.682666 2.948063 1.588825 4.071619 2.76927.138159.150349.286476.294603.422603.449015l.375873.481524.190984.241778.164572.258032.331174.520127c.381968.725333.743619 1.485206.944762 2.312127.050794.207238.121905.410412.160508.621714l.105651.64.054857.321016c.01219.107682.014222.219428.024381.327111l.048762.660317c.026413.440889-.004064.857397.002032 1.296254-.040635.473397-.107683.973207-.158477 1.458794v.012191c-.067047.615619.377905 1.16419.991492 1.229206.544508.056889 1.038223-.286476 1.188572-.794413.14019-.473397.29054-.928508.424635-1.42019.105651-.532318.241778-1.082921.308825-1.621334l.089397-.806603c.014222-.134095.030476-.270222.038603-.406349l.006095-.410413.004064-.824889c-.002032-.278349-.042667-.552635-.062984-.828952-.079238-1.115429-.363683-2.218667-.72127-3.301587l-.325079-.792381-.168635-.398222-.199111-.379937-.408381-.761905c-.146286-.245841-.308826-.47746-.467302-.719238-.30273-.493714-.676571-.922413-1.034159-1.37346-.17473-.233651-.381968-.422603-.577016-.633905-.199111-.205206-.390095-.420571-.597333-.615619-.839111-.763936-1.724952-1.485206-2.671746-2.08254-1.883429-1.227174-3.929397-2.14146-6.026159-2.805841-4.203682-1.31454-8.604444-1.700571-12.9279997-1.405968-2.1638095.144254-4.3194921.451047-6.4365714.926476-.5343492.103619-1.056508.245841-1.5827302.379937-.528254.130031-1.0565079.266158-1.5725714.43073l-.7801905.237714-.3900952.119873-.0975238.032508-.0487619.014222c.351492-.132063.0731428-.030476.1401904-.054857l-.1767619.04673-1.4201904.392127c-.1320635.042667-.2031747.042667-.2824127.050794l-.2397461.030476-.4713651.067048-.2336508.036571c-.079238.012191-.1787936.014222-.2681904.022349l-.5424762.038603c-.1787937.010159-.3596191.038604-.5384127.036572l-.528254-.012191-.5241905-.004063c-.1706666-.014222-.3393015-.042667-.5079365-.058921-1.3470476-.138158-2.5742222-.530285-3.551492-1.08292-.9793016-.550604-1.6863492-1.269842-2.0866032-1.972826-.3779048-.725333-.4652698-1.399873-.3961905-2.131301.0812699-.729397.3494603-1.580699.904127-2.527492.5546667-.942731 1.3551746-1.94235 2.3486984-2.913524 2.0540953-1.924064 4.7502222-3.718095 7.7409524-5.211429l.5506032-.288508.5831111-.266158 1.1641905-.528254c.7558095-.37181 1.5928888-.660318 2.3873015-.993524l2.7408254-1.125588 1.3612699-.55873.1686349-.067047.1930159-.091429.392127-.178794.0020317-.002031.7801905-.363683c.9528889-.444952 1.9179682-.889905 2.8139682-1.365333 6.0464761-2.742857 18.7042541-7.785651 30.0454601-7.785651 11.341207 0 23.998984 5.042794 30.047492 7.785651.891937.475428 1.859048.920381 2.811937 1.365333l.784254.365714.390095.178794.195048.089397.168635.069079 1.361269.55873 2.740826 1.125588c.796444.333206 1.633524.625778 2.389333.993524l1.162159.528254.581079.266158.550603.288508c2.990731 1.493334 5.686858 3.287365 7.742985 5.211429.993523.971174 1.794031 1.970793 2.348698 2.913524.554667.946793.820825 1.798095.902095 2.527492.071111.729396-.018286 1.403936-.394159 2.131301-.400254.702984-1.107301 1.420191-2.086603 1.972826-.975238.552635-2.204444.944762-3.551492 1.08292-.168635.018286-.33727.044699-.507936.058921l-.524191.004063-.530285.012191c-.174731.002032-.357588-.026413-.536381-.036572l-.544508-.038603c-.089397-.008127-.188953-.010158-.266159-.022349l-.233651-.036571-.469333-.067048-.239746-.030476c-.079238-.008127-.148318-.010159-.282413-.050794l-1.42019-.392127-.176762-.04673c.067047.026413-.213334-.077206.138158.054857l-.048762-.014222-.097523-.032508-.390096-.119873-.78019-.237714c-.518095-.164572-1.044317-.298667-1.57054-.43073-.528254-.132064-1.050412-.276318-1.584762-.379937-2.117079-.475429-4.272762-.782222-6.436571-.926476-4.325587-.294603-8.726349.09346-12.928 1.405968-2.096762.664381-4.14273 1.576635-6.026159 2.805841-.948825.597334-1.834666 1.318604-2.671746 2.08254-.207238.195048-.398222.410413-.597333.615619-.193016.211302-.400254.400254-.574984.633905-.357588.451047-.731429.879746-1.036191 1.37346-.158476.241778-.318984.473397-.46527.719238l-.408381.761905-.199111.379937-.166603.398222-.327111.792381c-.357587 1.08292-.64 2.186158-.719238 3.301587-.022349.276317-.060952.550603-.060952.828952l.004063.824889.006095.410413c.006096.136127.024381.272254.038603.406349l.089397.806603c.067048.538413.207238 1.089016.308826 1.621334.134095.491682.286476.946793.424635 1.42019.152381.507937.644063.851302 1.190603.794413.613587-.065016 1.058539-.617651.991492-1.229206l-.002032-.012191c-.050794-.483556-.119873-.983365-.156444-1.458794.004063-.438857-.026413-.855365.002031-1.296254l.046731-.660317c.010158-.107683.01219-.219429.024381-.327111l.054857-.321016.103619-.64c.042666-.211302.111746-.414476.160508-.621714.201143-.824889.562793-1.586794.946793-2.312127l.333207-.520127.160508-.258032.193015-.241778.377905-.481524c.134095-.152381.282413-.296635.420572-.449015 1.125587-1.180445 2.539682-2.086604 4.071619-2.76927 1.538031-.678603 3.202031-1.127619 4.91073-1.381588 3.423492-.509968 6.989206-.225523 10.41473.516064 1.714794.373841 3.403175.875682 5.03873 1.511619.414476.142222.816762.323048 1.223111.491682.40635.168635.806603.335239 1.200762.532318l.595302.278349.296635.138159.073143.03454.038603.016254c.381968.144253.130031.050793.225524.087365l.168634.075174 1.351112.583111c.09346.04673.262095.103619.420571.156445l.469333.154412.948826.304762.47746.146286c.158476.04673.30273.073143.455111.113778l.906159.207238c.300698.065016.601397.142222.910222.193016l.934603.130032.940699.121904c.316952.028445.64.036572.963047.050794 2.56.121905 5.260191-.195048 7.891302-1.162159 2.622984-.965079 5.197206-2.594539 7.233016-4.965587.245841-.300698.479492-.621714.717206-.934603l.347429-.479492.172698-.239746.150349-.256c.201143-.345397.398223-.692826.589207-1.044318.095492-.178793.197079-.351492.280381-.532317l.23365-.554667c.018286-.042667.032508-.083302.048762-.125968 2.962286-1.107302 5.967238-2.26946 8.943746-3.667302 3.248762-1.519746 6.46908-3.305651 9.534984-5.432889 1.521778-1.072762 3.015112-2.218666 4.445461-3.451936l1.048381-.934603c.073143-.062984.17473-.160508.272254-.258032l.290539-.288508.579048-.577016c.711111-.749714 1.408-1.525841 2.066286-2.389333.668444-.839111 1.28-1.789968 1.852952-2.783492.560762-1.01181 1.062603-2.104889 1.475048-3.279238.788317-2.350731 1.168254-5.117969.743619-7.862858zm-149.6685716 2.267429c-.2336508.160508-.4673016.306794-.6989207.47746l-.6907936.520127-1.3734603 1.042286c-.2295873.168635-.4551111.355556-.6786032.550603l-.6725079.572953c-.4449524.386031-.8919366.757841-1.3307937 1.162158l-1.2901587 1.269842c-.2133334.215365-.4266667.422603-.6359365.642031l-.6176508.702984c-.4063492.471366-.8167619.926477-1.2109207 1.420191-1.5624127 1.991111-2.9907301 4.25854-4.0289523 6.893714-.520127 1.31454-.920381 2.740826-1.160127 4.234159l-.144254 1.137778c-.0040635.050793-.0101587.105651-.016254.154412-1.3307936-.824888-2.6331428-1.664-3.8948571-2.53765-2.7001905-1.836699-5.1951746-3.833905-7.4504127-5.995683-1.1194921-1.084952-2.1902222-2.206476-3.183746-3.378794l-.7395556-.898031c-.0792381-.089397-.119873-.152381-.1645714-.213334l-.1340953-.193015-.2722539-.379937c-.3819683-.564825-.7476826-1.125587-1.0382223-1.686349-.3149206-.554667-.5363809-1.103238-.743619-1.629461-.1828571-.52419-.3088254-1.024-.384-1.485206-.1137778-.926476-.0345397-1.655873.2234921-2.271492.2539682-.613587.6420317-1.18654 1.2535873-1.792.6095238-.601397 1.4222222-1.206857 2.4055873-1.731048 1.9606349-1.058539 4.471873-1.783873 7.0745396-2.119111 2.6128254-.343365 5.3434921-.276317 7.984762.121905 2.647365.390095 5.2134603 1.149968 7.5662222 2.224762.5912381.264127 1.1641905.554667 1.7249524.863492l.8289523.475429.7111111.367746.5079366.243809.4916825.223492c.6664127.294603 1.3612698.564826 2.0784762.810667zm37.0874916-44.029968c-2.279619 0-4.126476-1.846857-4.126476-4.126476 0-2.277588 1.846857-4.126477 4.126476-4.126477s4.126477 1.848889 4.126477 4.126477c0 2.279619-1.846858 4.126476-4.126477 4.126476zm30.902858 0c-2.279619 0-4.126477-1.846857-4.126477-4.126476 0-2.277588 1.846858-4.126477 4.126477-4.126477s4.126476 1.848889 4.126476 4.126477c.002032 2.279619-1.844826 4.126476-4.126476 4.126476zm69.638095 46.411174c-.075175.463238-.201143.963048-.381968 1.485207-.207239.526222-.430731 1.072762-.743619 1.62946-.292572.560762-.658286 1.121524-1.038223 1.686349l-.272254.379937-.134095.193016c-.042667.060952-.085333.125968-.16254.213333l-.739555.898032c-.993524 1.172317-2.066286 2.293841-3.183746 3.378793-2.253207 2.161778-4.750222 4.158985-7.448381 5.995683-1.261714.873651-2.564064 1.712762-3.892826 2.539682-.006095-.050793-.01219-.10565-.018285-.156444l-.144254-1.137778c-.237715-1.493333-.64-2.919619-1.160127-4.234158-1.038222-2.635175-2.464508-4.900572-4.026921-6.893715-.392127-.493714-.804571-.948825-1.21092-1.42019l-.61562-.702984c-.211301-.219429-.424634-.426667-.635936-.642032l-1.294222-1.269841c-.436826-.404318-.885842-.776127-1.328762-1.162159l-.672508-.572953c-.22146-.195047-.449016-.381968-.678603-.550603l-1.373461-1.042285-.690793-.520127c-.229588-.170667-.46527-.316953-.698921-.477461l-.298667-.201143c.719239-.245841 1.412064-.518095 2.078477-.810666l.491682-.223492.507937-.24381.711111-.367746.828952-.475428c.560762-.306794 1.135746-.599365 1.724953-.863492 2.352761-1.072762 4.920888-1.832635 7.566222-2.224762 2.643301-.396191 5.373968-.46527 7.984762-.121905 2.602666.335238 5.115936 1.05854 7.074539 2.119111.981334.52419 1.798096 1.129651 2.403556 1.731048.613587.60546 1.001651 1.178412 1.253587 1.792.253968.615619.335238 1.347047.219429 2.273523z" fill="#fff"/></svg>