<svg height="229" preserveAspectRatio="xMidYMid" viewBox="0 0 256 229" width="256" xmlns="http://www.w3.org/2000/svg" xmlns:xlink="http://www.w3.org/1999/xlink"><linearGradient id="a" x1="-33.922752%" x2="157.868335%" y1="50.022518%" y2="50.022518%"><stop offset="0"/><stop offset=".28" stop-color="#2e3192"/><stop offset=".59" stop-color="#3e5aa8"/><stop offset=".82" stop-color="#0093d3"/><stop offset="1" stop-color="#00aeef"/></linearGradient><linearGradient id="b" x1="-46.424518%" x2="198.910641%" y1="49.967598%" y2="49.967598%"><stop offset="0"/><stop offset=".23" stop-color="#2e3192"/><stop offset=".47" stop-color="#3e5aa8"/><stop offset=".78" stop-color="#0075be"/><stop offset="1" stop-color="#00aeef"/></linearGradient><linearGradient id="c" x1="-60.263261%" x2="192.565635%" y1="104.92211%" y2="-14.678424%"><stop offset="0" stop-color="#f58220"/><stop offset=".47" stop-color="#ed1c24"/><stop offset="1" stop-color="#ae2538"/></linearGradient><linearGradient id="d" x1="-3.608316%" x2="73.590947%" y1="95.549648%" y2="2.579181%"><stop offset="0" stop-color="#f58220"/><stop offset=".38" stop-color="#ed1c24"/><stop offset="1" stop-color="#a71c20"/></linearGradient><linearGradient id="e" x1="-9.760888%" x2="142.413209%" y1="17.450307%" y2="97.684044%"><stop offset="0" stop-color="#f58220"/><stop offset=".5" stop-color="#ffcb05"/><stop offset="1" stop-color="#fff200"/></linearGradient><linearGradient id="f" x1="28.061474%" x2="63.076526%" y1="-13.854504%" y2="118.707644%"><stop offset="0" stop-color="#fff200"/><stop offset="1" stop-color="#f99d1c"/></linearGradient><linearGradient id="g" x1="33.092678%" x2="86.962879%" y1="77.265526%" y2="36.743947%"><stop offset="0" stop-color="#f26522"/><stop offset="1" stop-color="#c61d23"/></linearGradient><linearGradient id="h"><stop offset="0" stop-color="#2e3192"/><stop offset="1" stop-color="#61a2d8"/></linearGradient><linearGradient id="i" x1="40.935077%" x2="67.749378%" xlink:href="#h" y1="59.88386%" y2="-81.38193%"/><linearGradient id="j" x1="40.965522%" x2="67.715335%" xlink:href="#h" y1="40.117193%" y2="181.377544%"/><g transform="translate(-1)"><path d="m192.9 3.5-64 110.8 64 110.8c3.6-2.1 6.6-5.1 8.8-9l51.8-89.8c4.4-7.7 4.4-16.5 0-24.2l-51.8-89.8c-2.2-3.7-5.2-6.7-8.8-8.8z" fill="url(#a)"/><path d="m128.9 114.4 41.4 71.6c.4-.5.8-1.1 1.1-1.7l35.6-61.6c3-5.3 3-11.4 0-16.6l-35.6-61.6c-.4-.6-.7-1.1-1.1-1.7z" fill="url(#b)"/><path d="m128.9 114.4-32.9-57 95-54.8c.7.3 1.3.6 1.9 1z" fill="url(#c)"/><path d="m56.1 216.3c-17.3-29.9-34.6-59.9-51.8-89.8-1.8-3.2-2.9-6.6-3.2-10l95 54.8-31.2 53.9c-3.5-2.1-6.6-5.1-8.8-8.9z" fill="url(#d)"/><path d="m96 171.4 95 54.8c.7-.3 1.3-.6 1.9-1l-64-110.8z" fill="url(#e)"/><path d="m56.2 12.4-51.9 89.9c-1.8 3.2-2.9 6.5-3.2 9.9l95-54.8-31.2-53.9c-3.5 2.1-6.5 5-8.7 8.9z" fill="url(#f)"/><path d="m96 57.3 32.9 57-32.9 57-95-54.8c-.1-1.4-.1-2.9 0-4.3z" fill="url(#g)"/><path d="m96 57.3 95-54.8c-3.1-1.4-6.6-2.2-10.2-2.2h-103.7c-4.4 0-8.6 1.1-12.1 3.2z" fill="url(#i)"/><path d="m64.9 225.2 31.1-53.8 95 54.8c-3.1 1.4-6.6 2.2-10.2 2.2h-103.7c-4.5 0-8.6-1.1-12.2-3.2z" fill="url(#j)"/></g></svg>