<svg height="271" preserveAspectRatio="xMidYMid" viewBox="0 0 256 271" width="256" xmlns="http://www.w3.org/2000/svg"><path d="m99.8070819 202.833747c90.1483321 14.488125 90.1483321-54.732916 88.5385401-54.732916h-120.7343729s-45.0741661 40.244791-59.56229088 53.123125c6.43916658 25.756666 37.02520778 51.513332 54.73291588 57.952499 1.6097917 0 33.8056245-51.513333 37.0252078-56.342708zm-45.074166-170.6379141c0-17.7077081-8.0489582-32.1958329-27.366458-32.1958329-20.92729132 0-27.3664579 14.4881248-27.3664579 32.1958329v117.5147901c0 16.097916 3.21958329 32.195833 6.43916658 38.634999l49.90354092-43.464374c-1.6097916 0-1.6097916-99.807082-1.6097916-112.6854151zm201.2239551 0c0-17.7077081-8.048958-32.1958329-27.366458-32.1958329-20.927291 0-27.366457 14.4881248-27.366457 32.1958329 0 9.6587498 1.609791 82.0993741 0 127.1735401 0 16.097916-22.537084 57.952499-74.050416 56.342707-11.268542 0-17.707708 0-20.927291-1.609791-3.219584 4.829375-27.3664584 46.683957-28.9762501 48.293749 9.6587499 3.219583 30.5860411 8.048958 49.9035411 8.048958 86.928749 0 130.393123-54.732916 128.783331-127.17354 0-70.830832 0-98.19729 0-111.0756231zm-133.612706 103.0266651v-49.9035409c0-17.707708-8.048958-32.1958328-27.366458-32.1958328-20.9272914 0-27.3664579 14.4881248-27.3664579 32.1958328v49.9035409zm67.611249 0v-49.9035409c0-17.707708-8.048958-32.1958328-27.366458-32.1958328-20.927291 0-27.366458 14.4881248-27.366458 32.1958328v49.9035409z" fill="#dc0000"/></svg>