<svg height="307" preserveAspectRatio="xMidYMid" viewBox="0 0 256 307" width="256" xmlns="http://www.w3.org/2000/svg"><path d="m66.7659 141.5946-12.639-83.896-51.209-31.597 15.254 78.884zm11.985 90.215-8.063-59.49-45.543-37.698 11.767 58.836zm-36.173-13.292 8.063 44.671 38.788 40.314-5.448-45.544zm115.711-13.729-19.939-14.818s-.284 5.306-.817 5.666l-14.546 10.242 15.907 13.074.927 14.873 18.903 15.417zm60.252-43.473-3.596 41.893-13.401-8.825s1.477-21.181 1.471-21.192c-.078-.142-25.823-17.433-25.823-17.433l.817-19.285z" fill="#004711"/><path d="m133.6646 106.9467-3.704-78.012-75.833 28.764 12.638 83.896zm3.487 88.472-3.051-59.49-63.412 36.391 9.37 61.015zm1.089 24.188-54.26 38.352 6.756 46.851 49.465-39.442zm20.92-15.036.871 45.326 39.224-31.815 1.961-43.147zm93.429-65.646-5.121 39.769-30.671 24.624 3.65-41.784z" fill="#00b159"/><path d="m140.2776 218.8469c-.002-.038-.016-.073-.02-.11-.01-.1-.027-.197-.053-.293-.015-.057-.033-.112-.054-.167-.034-.09-.076-.176-.125-.26-.028-.049-.055-.099-.088-.146-.059-.084-.128-.16-.202-.234-.035-.035-.066-.074-.104-.107-.01-.009-.018-.02-.028-.029l-14.511-11.844 13.343-8.99c.533-.36.839-.966.81-1.603l-.135-3.165 17.692 13.504.344 41.008-16.276-13.702zm-71.23-45.953 8.205 56.072-38.886-36.633-11.259-54.382zm66.478 21.296-54.29 36.575-8.467-57.859 60.384-34.37zm-6.982-163.451 3.229 75.494-63.888 33.245-11.848-80.878zm-76.239 27.781 11.648 79.515-43.927-34.235-15.526-75.005zm.677 204.374-8.3-40.105 36.998 36.387 5.926 40.468zm85.558 1.459-46.909 37.371-6.239-42.583 51.354-36.742zm58.888-46.95-36.6 29.192-.342-41.166 39.383-28.169zm5.109-23.378 1.24-20.395c.001-.023-.006-.044-.006-.067.001-.027.009-.052.008-.079-.001-.081-.022-.159-.034-.238-.009-.057-.01-.114-.024-.17-.036-.142-.088-.279-.156-.409-.006-.011-.008-.024-.014-.035-.078-.142-.178-.27-.291-.388-.023-.024-.051-.042-.075-.064-.074-.07-.146-.141-.232-.199l-24.655-16.283.359-17.868 38.801 24.178-3.461 39.993zm15.221 7.196 3.389-39.175 30.623-21.916-5.147 38.082zm38.242-65.176c-.002-.035-.015-.067-.019-.102-.008-.066-.022-.129-.037-.194-.023-.102-.053-.2-.092-.296-.024-.057-.049-.112-.078-.167-.052-.096-.113-.184-.181-.269-.036-.046-.069-.092-.11-.134-.084-.088-.181-.163-.283-.233-.032-.022-.055-.053-.089-.073-.007-.005-.017-.006-.025-.011-.011-.006-.019-.016-.031-.022l-41.91-23.223c-.577-.318-1.285-.306-1.85.043l-35.374 21.625c-.057.034-.102.083-.154.123-.063.048-.128.092-.184.148-.059.059-.106.127-.156.194-.044.058-.094.112-.13.175-.046.077-.075.162-.109.245-.025.063-.058.121-.076.187-.025.09-.032.184-.043.278-.007.061-.026.118-.028.18l-.376 18.779-14.39-9.503c-.596-.397-1.364-.409-1.976-.037l-20.702 12.656-.897-21.047c-.002-.044-.018-.084-.022-.128-.012-.092-.024-.184-.048-.273-.018-.066-.045-.128-.07-.192-.031-.078-.062-.155-.104-.228-.037-.065-.081-.123-.125-.183-.047-.064-.093-.126-.148-.183s-.116-.106-.179-.157c-.04-.032-.073-.072-.116-.102l-21.545-14.471 20.167-10.494c.632-.331 1.016-.998.987-1.712l-3.387-79.222c-.004-.097-.027-.19-.046-.284-.008-.039-.009-.08-.02-.118-.042-.159-.105-.31-.188-.45-.015-.026-.036-.047-.052-.071-.073-.113-.157-.217-.253-.311-.035-.034-.073-.063-.111-.094-.053-.044-.099-.094-.157-.132-.045-.03-.096-.046-.143-.072-.024-.013-.042-.033-.067-.045l-54.337-26.219c-.422-.204-.902-.241-1.347-.101l-74.11 23.084c-.005.002-.01.006-.015.008-.03.009-.056.03-.086.041-.138.053-.272.112-.391.195-.003.002-.007.003-.011.005-.041.029-.069.07-.107.102-.094.077-.188.154-.265.249-.055.068-.092.146-.137.221-.045.074-.095.143-.129.223-.041.096-.06.198-.083.3-.015.062-.042.118-.051.181-.001.009.002.018.001.027-.011.093 0 .186.004.281.003.086-.001.172.014.256.003.014 0 .027.003.041l16.536 79.868c.09.427.323.808.671 1.077l22.443 17.493-16.226 7.726c-.029.014-.052.036-.08.051-.025.014-.052.017-.076.031-.036.022-.059.054-.093.078-.093.065-.179.136-.258.216-.045.045-.089.089-.129.138-.079.098-.142.204-.2.315-.021.041-.048.078-.066.121-.064.152-.112.313-.133.481-.001.007 0 .013 0 .02-.003.026.002.052 0 .078-.011.151-.004.301.022.447.003.02-.001.039.003.058l12.44 60.109c.077.372.265.708.54.967l15.622 14.714-10.352 6.332c-.134.082-.253.183-.36.293-.029.029-.05.062-.076.093-.09.106-.166.219-.23.342-.021.041-.041.08-.059.122-.069.16-.123.328-.145.506-.02.177-.005.352.025.524.004.019-.001.038.003.058l9.638 46.554c.069.331.228.637.463.886l38.982 41.385c.059.062.127.111.192.164.024.019.044.041.069.059.122.088.251.161.388.216.006.003.011.008.018.01.011.005.024.003.036.007.205.076.42.122.639.122.182 0 .362-.037.539-.092.041-.012.08-.026.12-.042.046-.018.095-.027.141-.05.075-.036.131-.094.198-.139.048-.031.103-.046.148-.082l50.145-39.949c.46-.369.716-.932.692-1.517l-1.172-27.43 16.753 14.1c.029.025.067.034.098.057.095.07.186.144.294.196.036.016.073.023.109.038.046.018.09.032.136.046.18.057.362.096.547.096.18 0 .358-.037.535-.091.041-.013.081-.026.122-.042.042-.016.085-.024.126-.043.093-.044.168-.108.25-.165.036-.025.078-.035.112-.062l40.197-32.056c.409-.33.657-.81.689-1.332l1.223-20.115 12.231 8.513c.025.017.054.023.079.039.036.022.063.054.1.074.072.038.149.057.223.085.051.019.099.042.152.057.162.045.328.074.494.074.181 0 .361-.036.537-.09.041-.012.08-.025.12-.04.041-.016.084-.024.125-.042.1-.048.186-.115.274-.178.029-.02.064-.028.092-.05l32.791-26.134c.371-.296.613-.726.677-1.195l5.817-43.041c.006-.046-.005-.09-.002-.136.004-.073.019-.143.015-.217z"/></svg>