<svg height="230" preserveAspectRatio="xMidYMid" viewBox="0 0 256 230" width="256" xmlns="http://www.w3.org/2000/svg" xmlns:xlink="http://www.w3.org/1999/xlink"><linearGradient id="a" x1="9.544068%" x2="68.917652%" y1="12.759772%" y2="69.884359%"><stop offset="0" stop-color="#c7f994"/><stop offset="1" stop-color="#87cf3e"/></linearGradient><linearGradient id="b" x1="19.810732%" x2="67.573463%" y1="89.737799%" y2="31.790233%"><stop offset="0" stop-color="#3d3d3d"/><stop offset="1" stop-opacity=".114007"/></linearGradient><path d="m30.2232874 145.851422-.042707-49.1740462v-14.7261849h-30.1805804v-81.9511909l127.272192.599374 39.812712.08563763c47.646857 0 88.915096 36.04541677 88.915096 83.64954387v145.1666115h-136.86155c-47.6041046.000022-88.9151626-36.088347-88.9151626-83.649745z" opacity=".26"/><path d="m237.716949 191.536796v-105.5412582c0-35.2600865-30.921782-63.842745-69.074363-63.842745h-39.59869v-.0851669l-107.0993861-.4679698v38.5085321h16.4404172c11.4757834 0 13.5030976 7.9219322 13.5030976 18.8867995l.085167 68.0787213c0 35.260108 30.9219098 63.842724 69.0319073 63.842724h94.093501c12.062859 0 22.618413-7.639302 22.618413-19.379722z" fill="url(#a)"/><path d="m228.378176 200.453167c-24.062919-16.582363-41.105533-35.630232-55.461233-60.846497-28.298663-52.2761557-21.681854-78.2265184-91.7593165-84.3458353-20.2235049 0-33.6851068-4.4760642-54.9716635-4.4760642v7.4134814c.0000022.0000224 8.4120487 4.2690238 15.8061017 4.2690238 11.026106.0000224 12.9386231 7.6488104 12.9386231 18.1840108l.0699385 65.2498485c-.0000067 33.87839 29.7549904 61.336067 66.3716397 61.336067h90.360546c6.632587 0 12.590542-2.61373 16.645364-6.784035z" fill="url(#b)" opacity=".175141"/><path d="m144.633118 61.7149612c-8.58668 0-16.216208 3.1879649-22.346386 9.3804878-6.127116 6.189233-9.344231 13.9159941-9.344209 22.6359266v44.0772814h19.992245v-44.0772814c0-3.3422323 1.090548-5.9555824 3.476894-8.3661668 2.39418-2.4183056 4.92949-3.5130614 8.221456-3.5130614 3.360965 0 5.858228 1.0892503 8.257645 3.5130614 2.386369 2.4105844 3.476917 5.0239345 3.476917 8.3661668v44.0772814h19.992274v-44.0772814c0-3.3422323 1.090548-5.9555824 3.476917-8.3661668 2.399416-2.4238111 4.89668-3.5130614 8.257689-3.5130614 3.291989 0 5.827231 1.0947558 8.221411 3.5130614 2.386347 2.4105844 3.476917 5.0239345 3.476917 8.3661668l.108769 51.5020874c0 10.986365-10.462487 20.245641-23.903772 20.245641l-64.467744-.25348c-10.372623 0-19.2316959-10.096143-19.2316959-23.070798v-96.985748h-18.9056911v100.716122c0 10.685954 3.9102471 20.056751 11.5172802 27.634325 6.5019152 6.417781 14.321333 10.215386 23.1069858 11.154956v.36236h71.783729c11.030633 0 20.721581-4.101529 28.539654-12.060844h.036256c6.649238-6.831481 10.536364-15.017151 11.481037-24.229473l-.072512-55.0151484c0-8.7199325-3.217037-16.4466936-9.344254-22.6359266-6.130104-6.1925229-13.75969-9.3804878-22.346347-9.3804878-8.428519 0-15.803484 3.134185-21.766944 8.8733273-5.946026-5.7296755-13.269471-8.8733273-21.694498-8.8733273z" fill-opacity=".080402"/><path d="m143.036565 62.2397518c-8.586683 0-16.216209 3.1879536-22.346391 9.3804851-6.12713 6.1892231-9.344241 13.9159972-9.34422 22.6359157v44.0772964h19.992262v-44.0772964c0-3.3422146 1.090542-5.9555796 3.476881-8.3661663 2.394193-2.4182923 4.929499-3.5130607 8.221468-3.5130607 3.360955 0 5.858224 1.0892614 8.257648 3.5130607 2.38636 2.4105867 3.476923 5.0239517 3.476923 8.3661663v44.0772964h19.992241v-44.0772964c0-3.3422146 1.090563-5.9555796 3.476944-8.3661663 2.399402-2.4237993 4.896671-3.5130607 8.257691-3.5130607 3.29199 0 5.827232 1.0947684 8.221383 3.5130607 2.38636 2.4105867 3.476923 5.0239517 3.476923 8.3661663l.108647 51.5021014c0 10.986361-10.46249 20.245628-23.903772 20.245628l-64.467729-.253473c-10.3726265 0-19.2316937-10.096144-19.2316937-23.070801v-96.9857395h-18.90569v100.7161145c0 10.685951 3.9102502 20.056746 11.5172783 27.634339 6.5019073 6.417765 14.3213404 10.577902 23.1069594 11.51747l71.783759-.00017c11.030632 0 20.72156-4.101524 28.539649-12.060831h.036286c6.64921-6.831497 10.536365-15.017148 11.481035-24.229477l-.07236-55.0151614c0-8.7199185-3.217005-16.4466926-9.34422-22.6359157-6.130119-6.1925315-13.759708-9.3804851-22.346348-9.3804851-8.428516 0-15.80348 3.1341853-21.766957 8.8733257-5.946039-5.7296845-13.269454-8.8733257-21.694491-8.8733257z" fill="#fff"/><path d="m131.279773 165.817411v19.744211h46.959204c11.030589 0 20.664269-4.114011 28.482336-12.073318h.06681c6.649232-6.831518 10.528318-15.001011 11.472988-24.21334v-11.206173h-19.944321v7.670892c0 10.986426-10.438562 20.211135-23.879844 20.211135l-43.157088-.133407z" fill="#52a800" opacity=".3"/><path d="m120.379411 225.53178c-45.4439585 0-84.8804472-34.450808-84.8804472-79.85404l-.0407691-55.1293153v-14.057942h-28.8110723v-70.04594905l121.4970136.57217655 38.006176.08175171c45.484791 0 84.880425 34.40980469 84.880425 79.85380559v138.5794915h-130.651262zm112.138493-37.173908v-101.4055832c0-33.8783972-29.710085-61.341036-66.367656-61.341036h-38.047009v-.0817517l-102.9026206-.4496344v32.8978464h11.5271397c7.8259648 0 17.2429927 7.3543876 17.2429927 18.1467012l.0817517 69.5127697c0 33.878419 29.7102343 61.341015 66.3268865 61.341015h90.406393c11.59015 0 21.7321-7.339958 21.7321-18.620327z" fill="#fff"/></svg>