<svg height="256" preserveAspectRatio="xMidYMid" viewBox="0 0 256 256" width="256" xmlns="http://www.w3.org/2000/svg"><path d="m0 127.94c0 12.487 1.799 24.552 5.133 35.961l70.62-23.131c-.892-3.852-1.367-7.864-1.367-11.988 0-4.773.649-9.391 1.832-13.79l-71.123-22.883c-3.311 11.37-5.095 23.391-5.095 35.831" fill="#6a7a55"/><path d="m93.597 87.948-44.651-60.671c-18.754 14.747-33.282 34.621-41.48 57.508l71.289 22.937c3.346-7.712 8.457-14.479 14.842-19.774" fill="#a09440"/><path d="m124.211 75.836v-75.836c-25.628.745-49.363 9.027-69.075 22.7l44.725 60.772c7.175-4.375 15.465-7.102 24.35-7.636" fill="#afa148"/><path d="m78.044 148.12-70.532 23.102c8.316 23.145 23.104 43.203 42.191 57.981l43.531-59.892c-6.684-5.643-11.941-12.913-15.19-21.191" fill="#4c5c59"/><path d="m55.934 233.725c19.554 13.346 42.993 21.419 68.277 22.155v-74.152c-9.052-.544-17.485-3.368-24.752-7.888z" fill="#48555d"/><path d="m200.148 22.212c-19.539-13.358-42.966-21.449-68.239-22.207v75.926c8.587.717 16.59 3.482 23.527 7.798z" fill="#e3b23b"/><path d="m131.909 181.633v74.242c25.471-.764 49.068-8.976 68.699-22.522l-44.245-60.119c-7.148 4.657-15.48 7.65-24.454 8.399" fill="#903024"/><path d="m162.495 168.577 44.317 60.217c19.033-14.892 33.734-35.058 41.928-58.294l-71.649-23.052c-3.09 8.2-8.138 15.44-14.596 21.129" fill="#d65841"/><path d="m256 127.94c0-12.642-1.84-24.852-5.254-36.386l-72.044 23.597c1.156 4.351 1.789 8.915 1.789 13.631 0 3.873-.422 7.647-1.21 11.283l71.796 23.1c3.198-11.192 4.923-23.006 4.923-35.225" fill="#e6703e"/><path d="m176.188 107.874 72.154-23.634c-8.332-22.937-23.032-42.818-41.967-57.501l-44.718 61.526c6.252 5.281 11.252 11.987 14.531 19.609" fill="#f4a83a"/></svg>