<svg height="256" preserveAspectRatio="xMidYMid" viewBox="0 0 256 256" width="256" xmlns="http://www.w3.org/2000/svg"><path d="m201.73137 255.654114h-148.1456433c-29.5156072 0-53.35513602-23.839529-53.35513602-53.355136v-148.7132513c0-29.5156072 23.83952882-53.35513602 53.35513602-53.35513602h148.1456433c29.515607 0 53.355136 23.83952882 53.355136 53.35513602v148.7132513c0 29.515607-23.839529 53.355136-53.355136 53.355136z" fill="#f47721"/><path d="m202.298978 71.7491772c2.270431-1.7028235 5.10847-3.405647 7.378902-5.1084705-1.135216-3.9732548-3.405647-7.3789017-5.676079-10.7845487-2.838039 1.1352156-5.10847 2.8380391-7.946509 3.9732548-1.702824-1.1352157-3.405647-2.8380392-5.676078-3.9732548.567607-2.8380392 1.135215-6.2436861 1.702823-9.0817253-3.973255-1.1352157-7.94651-2.8380391-11.919764-3.405647-1.135216 2.8380392-1.702824 5.6760783-2.838039 8.5141175-2.270432 0-4.540863.5676078-6.243687 1.1352156-1.702823-2.2704313-3.405647-5.1084704-5.10847-7.3789018-3.973255 1.1352157-7.378902 3.405647-10.784549 6.2436862 1.135216 2.8380391 2.270431 5.6760783 3.973255 8.5141174-1.702824 1.7028235-2.838039 3.405647-3.973255 5.1084705-2.838039-.5676079-6.243686-1.1352157-9.081725-1.7028235-1.135216 3.9732548-2.270431 7.9465096-3.405647 11.9197644 2.838039 1.1352157 5.676078 2.2704313 8.514117 2.8380392 0 2.2704313.567608 4.5408626.567608 6.8112939-2.270431 1.7028235-5.10847 3.405647-7.378902 5.1084705 1.135216 3.9732548 3.405647 7.3789018 6.243687 10.7845484 2.838039-1.135215 5.676078-2.8380388 8.514117-3.9732545 1.702823 1.7028235 3.405647 2.8380395 5.10847 3.9732545-.567607 2.838039-1.135215 6.243686-1.702823 9.081726 3.973255 1.702823 7.94651 2.270431 11.919764 2.838039.567608-2.838039 1.702824-5.676079 2.83804-8.514118 2.270431 0 4.540862-.567608 6.811293-.567608 1.702824 2.270432 3.405647 5.108471 5.108471 7.378902 3.973255-1.702823 7.378902-3.405647 10.216941-6.243686-1.135216-2.838039-2.838039-5.6760781-3.973255-8.5141173 1.135216-1.7028235 2.838039-3.405647 3.973255-5.1084705 2.838039.5676079 6.243686 1.1352157 9.081725 1.7028235 1.135216-3.9732548 2.838039-7.9465096 3.405647-11.9197644-2.838039-.5676078-5.676078-1.7028235-8.514117-2.8380391 0-2.2704314-.567608-4.5408627-1.135216-6.811294zm-12.487372 7.9465096c0 7.3789018-7.94651 12.4873723-14.757804 10.2169409-6.243686-1.7028234-10.216941-9.0817252-7.946509-15.3254113 1.135215-3.9732549 4.540862-6.2436862 7.946509-7.3789018 7.378902-2.2704314 15.325412 4.5408626 14.757804 12.4873722z" fill="#fff"/><circle cx="177.324234" cy="78.560471" fill="#f36d21" r="17.028235"/><path d="m127.374745 193.217253c13.622587-.567608 22.704313 9.081725 33.488861 14.757803 15.89302 8.514118 31.218431 6.811294 43.138195-7.378901 5.676079-6.811294 8.514118-13.622588 8.514118-21.00149 0-6.811294-2.838039-14.190196-7.94651-20.433882-11.919764-14.757804-27.245175-14.757804-43.138195-6.811294-5.676078 2.838039-10.784548 7.378902-17.028235 10.216941-14.757803 6.811294-28.947999 6.243686-42.002979-5.676078-13.0549801-12.487373-17.5958427-26.677568-9.6493331-43.138195 2.8380391-5.676079 6.811294-11.352157 9.6493331-17.0282353 9.081725-16.4606271 10.784549-32.9212541-4.5408626-45.9762342-6.2436862-5.6760783-13.6225879-7.9465096-20.4338819-7.9465096-6.811294 0-14.1901957 2.8380391-21.0014897 7.9465096-15.8930192 12.4873723-17.5958427 30.083215-6.8112939 45.4086264 15.8930192 22.1367051 17.5958427 42.0029791.5676078 64.1396851-10.7845488 14.190195-10.7845488 30.650822 2.8380391 43.705802 6.811294 6.811294 14.1901958 9.649334 21.5690976 9.649334 7.3789017 0 15.3254113-2.83804 22.7043131-7.378902 9.6493335-6.243686 18.1634505-14.190196 30.0832155-13.05498z" fill="#fff"/></svg>