<svg height="171" preserveAspectRatio="xMidYMid" viewBox="0 0 512 171" width="512" xmlns="http://www.w3.org/2000/svg"><path d="m123.957309 77.0151175c-.679772-3.6063823-1.834826-6.7324198-3.443906-9.3912727-1.625276-2.659359-3.776451-4.7315736-6.467698-6.2262609-2.696815-1.4946873-6.075426-2.2402594-10.15861-2.2402594-3.63574 0-6.8012576.6762283-9.531985 2.0008462-2.7185796 1.3246179-4.9608636 3.2783914-6.7147043 5.8365186-1.7416928 2.560658-3.0465706 5.6472151-3.9323487 9.2353757-.8761611 3.6028393-1.3048777 7.7093067-1.3048777 12.3199083 0 4.2729937.3477312 8.2093916 1.0654645 11.8117247.7060918 3.596765 1.8626649 6.738494 3.4464362 9.393804 1.5933883 2.657334 3.7445637 4.719425 6.4651679 6.178682 2.7287028 1.46128 6.095672 2.188631 10.1191291 2.188631 3.685849 0 6.892872-.66813 9.621069-2.000847 2.730727-1.324617 4.960864-3.248528 6.714704-5.789445 1.751816-2.530795 3.045052-5.585464 3.883252-9.191846.838199-3.5962596 1.263372-7.7012085 1.263372-12.3016869 0-4.28666-.346212-8.2271072-1.024465-11.8238726zm14.441726 46.8455145c-3.952595 4.409151-8.911434 7.8156-14.870443 10.22188-5.963058 2.400712-12.936916 3.596765-20.90487 3.596765-7.7088002 0-14.4235045-1.065971-20.1314587-3.209047-5.7084604-2.143077-10.4380094-5.261522-14.1921901-9.3442-3.7688594-4.082678-6.5547581-9.102763-8.3678194-15.082018-1.8150859-5.967107-2.7084564-12.7784881-2.7084564-20.428068 0-7.398525.9743559-14.1547344 2.9559681-20.2898867 1.9831307-6.12756 4.9406173-11.3845266 8.895237-15.7582458 3.9541135-4.3813117 8.9053601-7.7781443 14.8324811-10.1687329 5.9276272-2.4002056 12.8797201-3.5962591 20.8456494-3.5962591 7.790292 0 14.52423 1.0457243 20.228641 3.1574193 5.707955 2.1015719 10.421813 5.2098939 14.148661 9.2925718 3.732922 4.0852087 6.50313 9.1149099 8.314166 15.0820175 1.815086 5.9671076 2.720605 12.8199933 2.720605 20.5272752 0 7.388908-.966764 14.1446117-2.916488 20.2382587-1.945675 6.097696-4.893545 11.349095-8.849683 15.76027zm73.999929-62.8527905c-2.602163-2.5879906-6.265741-3.8832513-10.989216-3.8832513-2.398181 0-4.500259.3978409-6.324962 1.2142753-1.811037.8083358-3.313823 1.9021452-4.522024 3.2976254-1.202128 1.4040849-2.08993 3.019238-2.679099 4.8717797-.577022 1.8510232-.864014 3.7744271-.864014 5.7853965 0 4.4131997 1.293236 7.9011408 3.883252 10.4612927 2.600138 2.5566087 6.184755 3.8417462 10.795357 3.8417462 2.461957 0 4.605034-.3856931 6.416071-1.1763133 1.813061-.7653123 3.315847-1.8429247 4.522023-3.2029737 1.194029-1.3565059 2.101572-2.930154 2.720605-4.7219566.616501-1.7852226.925258-3.6377642.925258-5.5890069 0-4.672353-1.297285-8.2984756-3.883251-10.898614zm-28.876873 83.2950315c0 3.230812 1.633375 5.698337 4.903668 7.386883 3.271811 1.682472 7.886968 2.52877 13.861668 2.52877 3.685849 0 6.791641-.376076 9.32446-1.123166 2.52877-.747597 4.571121-1.736126 6.133128-2.969635 1.554414-1.234015 2.651766-2.598114 3.309773-4.134306.636748-1.520501.965245-3.126038.965245-4.80851 0-2.928129-1.166697-5.160796-3.497558-6.712679-2.339467-1.566056-5.536367-2.402231-9.621069-2.530795l-17.413386-.488443c-1.694114 1.234015-3.02683 2.408304-4.029531 3.556778-1.010293 1.125192-1.824703 2.21647-2.441711 3.24701-.606884 1.035601-1.016367 2.053993-1.215793 3.02683-.18981.966764-.278894 1.975032-.278894 3.021263zm60.468276-83.7814502h-10.206188c1.431417 1.5620064 2.451833 3.3259703 3.062767 5.3070763.622576 1.9730075.919185 4.035099.919185 6.178682 0 5.05754-.836175 9.5517251-2.52877 13.4764814-1.672855 3.9227317-4.092801 7.2325049-7.23048 9.9095795-3.145778 2.6968147-6.952093 4.751314-11.376935 6.135152-4.450655 1.407628-9.381655 2.091955-14.838555 2.091955-2.779824 0-5.439183-.340139-7.972003-1.016367-2.52877-.674204-4.458754-1.470898-5.832975-2.392613-.778979.848322-1.474947 1.853048-2.093474 3.029361-.619032 1.168215-.917666 2.451834-.917666 3.885276 0 1.881899.826558 3.416573 2.483216 4.622243 1.641473 1.206177 3.972335 1.862665 6.94197 1.989205l21.102778.778978c4.933025.199933 9.314336.897926 13.177847 2.09398 3.857437 1.202127 7.094324 2.898266 9.721795 5.05754 2.633545 2.174965 4.632366 4.790794 6.026328 7.839389 1.395986 3.047077 2.096004 6.514772 2.096004 10.410171 0 4.286154-.951073 8.315685-2.823354 12.100235-1.880381 3.796192-4.701711 7.094324-8.464496 9.88579-3.754687 2.785899-8.46652 4.986678-14.142587 6.617522-5.680621 1.615659-12.292575 2.432094-19.882935 2.432094-7.392451 0-13.693623-.587145-18.905542-1.751816-5.220017-1.166697-9.500603-2.785899-12.837709-4.87178-3.337611-2.07019-5.769705-4.547332-7.290207-7.438006-1.526069-2.881056-2.281764-6.044549-2.281764-9.482887 0-2.143077.269277-4.187453.814916-6.127054.547664-1.949724 1.368147-3.811883 2.433612-5.59913 1.073563-1.781679 2.388564-3.485916 3.940447-5.109168 1.554414-1.623252 3.327995-3.175641 5.338458-4.670328-2.785898-1.484565-4.940617-3.515274-6.453526-6.087574-1.532143-2.556609-2.289357-5.368321-2.289357-8.40325 0-3.827574.875655-7.313491 2.629496-10.463318 1.744224-3.1437527 4.011816-5.9746996 6.803788-8.5156174-2.272147-2.2716413-4.085208-5.000344-5.447282-8.1775036-1.356506-3.1655179-2.034759-7.1297547-2.034759-11.8613283 0-5.0595646.889827-9.5810823 2.669482-13.5751824 1.775606-3.9860015 4.262871-7.3610692 7.430413-10.1211539 3.179184-2.7484429 6.973352-4.8616565 11.386551-6.3249619 4.401052-1.4552069 9.262709-2.1830635 14.579402-2.1830635 2.722629 0 5.330866.1604524 7.829773.480851 2.491314.327991 4.808509.7845464 6.941969 1.366123h27.520367c1.10697 0 1.994772.7157087 2.679099 2.1390276.680278 1.4354667 1.018392 3.8341538 1.018392 7.201123 0 3.117939-.357854 5.417419-1.067995 6.9121063-.715709 1.4830457-1.589339 2.2321609-2.629496 2.2321609zm64.476043.4864187c-2.594065-2.5879906-6.257643-3.8832513-10.991241-3.8832513-2.402231 0-4.511901.3978409-6.322938 1.2142753-1.811036.8083358-3.319896 1.9021452-4.53569 3.2976254-1.190486 1.4040849-2.083856 3.019238-2.665433 4.8717797-.577021 1.8510232-.877679 3.7744271-.877679 5.7853965 0 4.4131997 1.298803 7.9011408 3.890843 10.4612927 2.602163 2.5566087 6.200447 3.8417462 10.799407 3.8417462 2.471574 0 4.607059-.3856931 6.418095-1.1763133 1.811037-.7653123 3.327489-1.8429247 4.517975-3.2029737 1.200103-1.3565059 2.10967-2.930154 2.730221-4.7219566.621057-1.7852226.919691-3.6377642.919691-5.5890069 0-4.672353-1.297285-8.2984756-3.883251-10.898614zm-28.888515 83.2950315c0 3.230812 1.636918 5.698337 4.915309 7.386883 3.26017 1.682472 7.890512 2.52877 13.857619 2.52877 3.697491 0 6.805813-.376076 9.336608-1.123166 2.526745-.747597 4.565047-1.736126 6.125029-2.969635 1.556439-1.234015 2.659359-2.598114 3.304206-4.134306.650414-1.520501.964739-3.126038.964739-4.80851 0-2.928129-1.151006-5.160796-3.495534-6.712679-2.333393-1.566056-5.548008-2.402231-9.631192-2.530795l-17.40883-.488443c-1.684497 1.234015-3.029361 2.408304-4.027507 3.556778-.998651 1.125192-1.819135 2.21647-2.434118 3.24701-.619032 1.035601-1.014342 2.053993-1.215794 3.02683-.201957.966764-.290535 1.975032-.290535 3.021263zm60.481942-83.7814502h-10.204163c1.417245 1.5620064 2.44171 3.3259703 3.060236 5.3070763.621057 1.9730075.925765 4.035099.925765 6.178682 0 5.05754-.844273 9.5517251-2.527251 13.4764814-1.690065 3.9227317-4.108492 7.2325049-7.256295 9.9095795-3.13363 2.6968147-6.925772 4.751314-11.372379 6.135152-4.445087 1.407628-9.374063 2.091955-14.817296 2.091955-2.795516 0-5.450825-.340139-7.974028-1.016367-2.534337-.674204-4.484062-1.470898-5.846135-2.392613-.773411.848322-1.474947 1.853048-2.085881 3.029361-.619033 1.168215-.925765 2.451834-.925765 3.885276 0 1.881899.820484 3.416573 2.481697 4.622243 1.650585 1.206177 3.962212 1.862665 6.957661 1.989205l21.092655.778978c4.933025.199933 9.324459.897926 13.183921 2.09398 3.84529 1.202127 7.099891 2.898266 9.71977 5.05754 2.615829 2.174965 4.628317 4.790794 6.022279 7.839389 1.391937 3.047077 2.091955 6.514772 2.091955 10.410171 0 4.286154-.933357 8.315685-2.817281 12.100235-1.884429 3.796192-4.694118 7.094324-8.454878 9.88579-3.768354 2.785899-8.481706 4.986678-14.142587 6.617522-5.676572 1.615659-12.305736 2.432094-19.882429 2.432094-7.394982 0-13.717919-.587145-18.925788-1.751816-5.22761-1.166697-9.496554-2.785899-12.835684-4.87178-3.335588-2.07019-5.769706-4.547332-7.293751-7.438006-1.522526-2.881056-2.277715-6.044549-2.277715-9.482887 0-2.143077.278388-4.187453.828076-6.127054.54564-1.949724 1.36258-3.811883 2.414378-5.59913 1.077613-1.781679 2.392107-3.485916 3.946522-5.109168 1.564031-1.623252 3.33913-3.175641 5.342001-4.670328-2.785393-1.484565-4.940617-3.515274-6.45707-6.087574-1.534673-2.556609-2.289863-5.368321-2.289863-8.40325 0-3.827574.878186-7.313491 2.629496-10.463318 1.750298-3.1437527 4.009791-5.9746996 6.803788-8.5156174-2.271641-2.2716413-4.084702-5.000344-5.439183-8.1775036-1.364605-3.1655179-2.042352-7.1297547-2.042352-11.8613283 0-5.0595646.887803-9.5810823 2.668976-13.5751824 1.785223-3.9860015 4.264895-7.3610692 7.438006-10.1211539 3.165518-2.7484429 6.973857-4.8616565 11.380983-6.3249619 4.397003-1.4552069 9.268782-2.1830635 14.583451-2.1830635 2.730728 0 5.338458.1604524 7.825723.480851 2.499413.327991 4.818633.7845464 6.96171 1.366123h27.508725c1.102921 0 1.988699.7157087 2.673026 2.1390276.693944 1.4354667 1.030033 3.8341538 1.030033 7.201123 0 3.117939-.359879 5.417419-1.079637 6.9121063-.715709 1.4830457-1.593388 2.2321609-2.623422 2.2321609zm170.856983-2.7894419c-.713684 1.4926627-1.594401 2.2301363-2.616842 2.2301363h-7.720442l-25.634419 75.4748758-10.500773 30.74713c-.58107 1.621227-2.166866 2.787924-4.758906 3.507682-1.7341.476295-4.067493.774929-6.869083.931332-.274844.120466-.565379.203476-.864013.203476h-18.440888c-1.030034 0-1.908219-.747091-2.627977-2.232161-.70761-1.494687-1.061416-3.806315-1.061416-6.916156 0-3.36545.338115-5.775273 1.014343-7.197073.677747-1.427368 1.579722-2.143077 2.67505-2.143077h9.235376l6.726346-16.901153c-.846298-.387211-1.603512-.988528-2.27974-1.793321-.684327-.818459-1.192511-1.678423-1.512403-2.590015l-26.593084-71.0915398h-9.688388c-1.032058 0-1.908219-.7374736-2.627471-2.2301363-.708116-1.5048104-1.059897-3.7926488-1.059897-6.9024892 0-3.3750678.33609-5.777298 1.019911-7.2107401.678252-1.4258497 1.564031-2.143583 2.667457-2.143583h16.438524c.417074 0 .738992-.0197402 1.172264-.0197402 2.789948 0 4.99427.0496035 6.613472.1407121 1.617684.098701 2.883081.3401388 3.78455.7273504.91716.3877178 1.593389.9966269 2.053993 1.8014196.448963.8164344.901976 1.9730075 1.350432 3.4580778l20.424525 58.0893287h.298634l18.66866-59.256025c.377594-1.6824723.885778-2.8076636 1.506329-3.3553275.603341-.547664 1.640967-.9566404 3.049101-1.2137691 1.435467-.261178 3.932349-.391767 7.491152-.391767.565886 0 1.014343.0298633 1.536699.0298633.01974 0 .041505-.0101231.057196-.0101231h14.454886c1.103427 0 1.989205.7177333 2.667458 2.143583.693438 1.4334421 1.032564 3.8356723 1.032564 7.2107401 0 3.1098404-.364434 5.3976788-1.08318 6.9024892zm-114.782166 76.0483541c-.715709 1.504304-1.593894 2.241778-2.623928 2.241778h-37.77211c-1.036107 0-1.915811-.737474-2.633545-2.241778-.715708-1.494687-1.079637-3.78455-1.079637-6.902489 0-3.36697.340139-5.767681 1.032059-7.212765.678252-1.413702 1.572129-2.129411 2.681123-2.129411h6.750136v-99.0370797h-6.750136c-1.036107 0-1.915811-.7475968-2.633545-2.2519011-.715708-1.4830456-1.079637-3.7845503-1.079637-6.90248927 0-3.36696917.340139-5.77729798 1.032059-7.20112304.678252-1.42534353 1.572129-2.14307689 2.681123-2.14307689h16.438524c.03948 0 .071368.05162821.112873.05162821.764806-.02986338 1.577698-.05162821 2.437662-.05162821 2.40223 0 4.373719.10072563 5.935725.28851059 1.555933.20954979 2.803615.47882634 3.73849.8366807.949048.34975582 1.609586.79871879 1.989205 1.31449473.401384.51830674.602835 1.09532792.602835 1.7462483v113.34973568h6.516796c1.103427 0 1.997303.715709 2.673532 2.129411.674203 1.445084 1.030033 3.845795 1.030033 7.212765 0 3.117939-.363928 5.407802-1.079637 6.902489zm-352.0315083 0c-.7157087 1.504304-1.5918698 2.241778-2.617854 2.241778h-37.79185002c-1.03408268 0-1.91024378-.737474-2.62949562-2.241778-.69596852-1.494687-1.06394606-3.78455-1.06394606-6.902489 0-3.36697.34773118-5.767681 1.02598414-7.212765.67622833-1.413702 1.57212963-2.129411 2.66745754-2.129411h6.75620932v-99.0370797h-6.75620932c-1.03408268 0-1.91024378-.7475968-2.62949562-2.2519011-.69596852-1.4830456-1.06394606-3.7845503-1.06394606-6.90248927 0-3.36696917.34773118-5.77729798 1.02598414-7.20112304.67622833-1.42534353 1.57212963-2.14307689 2.66745754-2.14307689h16.45623902c.0394804 0 .0688376.05162821.1103426.05162821.767337-.02986338 1.5640311-.05162821 2.4401922-.05162821 2.3900825 0 4.3711885.10072563 5.9352196.28851059 1.554414.20954979 2.789948.47882634 3.7470945.8366807.9348755.34975582 1.5933883.79871879 1.981106 1.31449473.3872116.51830674.5871444 1.09532792.5871444 1.7462483v113.34973568h6.5345117c1.0973526 0 1.9927477.715709 2.6689761 2.129411.6782529 1.445084 1.0163671 3.845795 1.0163671 7.212765 0 3.117939-.359879 5.407802-1.0674892 6.902489z" fill="#0a0b09"/></svg>