<svg height="64" preserveAspectRatio="xMidYMid" viewBox="0 0 512 64" width="512" xmlns="http://www.w3.org/2000/svg"><path d="m.11872464 1.56742029v46.82202901h32.77356526v-7.4258551h-24.61310149v-39.39617391zm68.76011596 47.62342031c-3.609971 0-6.9138551-.6362899-9.9005218-1.9070145-2.9885217-1.2688696-5.5485217-2.995942-7.6911304-5.1849275-2.1407536-2.1815653-3.8121739-4.7378551-5.0142609-7.6595943-1.2076521-2.9143188-1.8086956-6.0271304-1.8086956-9.3291594v-.1354203c0-3.2964637.6010435-6.4074203 1.8086956-9.3291594 1.202087-2.9217391 2.8957682-5.4835942 5.0828986-7.69113042 2.1834203-2.20568116 4.7693913-3.95686956 7.757913-5.24985507 2.9866667-1.29298551 6.2886957-1.94226087 9.8986667-1.94226087 3.6118261 0 6.912.63628986 9.9005217 1.90701449 2.9866667 1.27072464 5.5522319 2.99965218 7.6911305 5.18307247 2.1407536 2.1852754 3.8121739 4.7397101 5.017971 7.6577391 1.203942 2.9217392 1.8049855 6.0326957 1.8049855 9.3328696v.1317101c0 3.302029-.6010435 6.4129855-1.8049855 9.3328696-1.2057971 2.9217391-2.8994783 5.4854493-5.0847536 7.6948406-2.1834203 2.2056811-4.7731015 3.9550145-7.7597682 5.2517101-2.9885217 1.2892754-6.2849855 1.9366957-9.8986666 1.9366957zm.1335652-7.5575652c2.3077101 0 4.429913-.4322319 6.3610435-1.3059711 1.9329855-.8663188 3.585855-2.049855 4.9623188-3.5450434 1.3746087-1.4914783 2.4505507-3.2445218 3.2296812-5.2517102.7772753-2.0053333 1.1668406-4.147942 1.1668406-6.4204058v-.1354203c0-2.2706087-.3895653-4.4224927-1.1668406-6.451942-.7791305-2.0294493-1.8643479-3.789913-3.2649276-5.2851014-1.3987246-1.4933334-3.073855-2.686145-5.0291014-3.57843482-1.9515362-.89228986-4.0830145-1.33750725-6.3925797-1.33750725s-4.428058.43594203-6.3610435 1.30226087c-1.9292754.8718841-3.5858551 2.0554203-4.9604638 3.5468986-1.3783188 1.4951884-2.4542608 3.2445217-3.2333913 5.249855-.7754203 2.0090435-1.1631304 4.1479421-1.1631304 6.4222609v.1317101c0 2.278029.3877101 4.4299131 1.1631304 6.4556522.7791305 2.0313044 1.868058 3.7917681 3.2649276 5.2851015 1.4005797 1.4970434 3.0757101 2.6842898 5.0291014 3.5784347 1.9571015.8922899 4.0848696 1.3393624 6.3944348 1.3393624zm61.6051012 7.5575652c-3.658203 0-6.980637-.614029-9.965449-1.8402319-2.986667-1.2262029-5.541101-2.9198841-7.657739-5.0810435-2.118493-2.1630145-3.760232-4.7063188-4.917797-7.628058-1.159421-2.9180289-1.738203-6.0976231-1.738203-9.5313623v-.1354203c0-3.2500869.593623-6.3536232 1.786435-9.2976232 1.189101-2.9421449 2.860521-5.5151304 5.016116-7.72266662 2.151884-2.20568116 4.711884-3.95686956 7.68-5.24985507 2.960695-1.29298551 6.208927-1.94226087 9.729855-1.94226087 2.05171 0 3.914203.14655073 5.585623.43594203 1.673275.28753623 3.222261.70121739 4.648811 1.23733333 1.428406.53426087 2.775189 1.19466667 4.045913 1.9737971 1.270725.77913044 2.509914 1.68255073 3.713856 2.7084058l-5.218319 6.220058c-.89229-.7587247-1.806841-1.4469565-2.741797-2.072116-.938667-.6233043-1.918145-1.1482898-2.942145-1.57124635-1.02771-.42481159-2.153739-.75872463-3.379942-1.00730434-1.226203-.24115942-2.572986-.36544928-4.045913-.36544928-2.137044 0-4.136812.44707246-5.988174 1.34121739-1.849508.89228988-3.45229 2.08881158-4.815768 3.58585508-1.357913 1.4970435-2.430145 3.250087-3.211131 5.2609855-.777275 2.0108986-1.168696 4.1331015-1.168696 6.3666087v.1317101c0 2.4171595.37658 4.6525218 1.135305 6.706087.755014 2.0572754 1.834666 3.8195942 3.235246 5.2943768 1.402435 1.4747826 3.070145 2.636058 5.004986 3.4838261 1.93484.8533333 4.10342 1.2762899 6.505739 1.2762899 2.224232 0 4.303768-.3264928 6.238609-.9776232 1.93484-.6492754 3.613681-1.510029 5.034666-2.5896812v-8.8115942h-11.970782v-7.1550145h19.930898v19.6619131c-1.157565.9831884-2.43942 1.9237101-3.84371 2.8122898-1.402435.8941449-2.921739 1.6714203-4.548638 2.3429565-1.628753.664116-3.376232 1.1946667-5.249855 1.5693913-1.873623.3802899-3.83629.5695073-5.888.5695073zm213.283247 10.6722319c0 2.3002898-1.862493 4.1627826-4.157218 4.1627826-2.304 0-4.168348-1.8624928-4.168348-4.1627826 0-2.3002899 1.864348-4.1627826 4.168348-4.1627826 2.294725 0 4.157218 1.8624927 4.157218 4.1627826zm70.390724-20.6395363h8.896928v9.1659131h-8.896928zm24.94887-37.65797098h8.158609v46.82388408h-8.158609zm48.092753 47.62527538c-3.609971 0-6.913855-.6362899-9.900521-1.9070145-2.990377-1.2688696-5.552232-2.995942-7.691131-5.1849275-2.140753-2.1815653-3.812174-4.7378551-5.017971-7.6595943-1.203942-2.9143188-1.80684-6.0271304-1.80684-9.3291594v-.1354203c0-3.2964637.602898-6.4074203 1.80684-9.3291594 1.205797-2.9217391 2.897623-5.4835942 5.086609-7.69113042 2.185275-2.20568116 4.765681-3.95686956 7.756058-5.24985507 2.984812-1.29298551 6.290551-1.94226087 9.904232-1.94226087 3.609971 0 6.910145.63628986 9.893101 1.90701449 2.986667 1.27072464 5.557797 2.99965218 7.696696 5.18307247 2.138898 2.1852754 3.808464 4.7397101 5.014261 7.6577391 1.207652 2.9217392 1.80684 6.0326957 1.80684 9.3328696v.1317101c0 3.302029-.599188 6.4129855-1.80684 9.3328696-1.205797 2.9217391-2.897623 5.4854493-5.081044 7.6948406-2.188985 2.2056811-4.776811 3.9550145-7.763478 5.2517101-2.986667 1.2892754-6.28313 1.9366957-9.896812 1.9366957zm.137276-7.5575652c2.302145 0 4.426203-.4322319 6.357333-1.3059711 1.931131-.8663188 3.585855-2.049855 4.958609-3.5450434 1.380174-1.4914783 2.454261-3.2445218 3.233391-5.2517102.77542-2.0053333 1.163131-4.147942 1.163131-6.4204058v-.1354203c0-2.2706087-.387711-4.4224927-1.163131-6.451942-.77913-2.0294493-1.866203-3.789913-3.264927-5.2851014-1.398725-1.4933334-3.079421-2.686145-5.029102-3.57843482-1.951536-.89228986-4.084869-1.33750725-6.39258-1.33750725-2.309565 0-4.428058.43594203-6.361043 1.30226087-1.932986.8718841-3.58771 2.0554203-4.964174 3.5468986-1.372754 1.4951884-2.450551 3.2445217-3.231536 5.249855-.773565 2.0090435-1.161276 4.1479421-1.161276 6.4222609v.1317101c0 2.278029.387711 4.4299131 1.161276 6.4556522.780985 2.0313044 1.866203 3.7917681 3.268638 5.2851015 1.395014 1.4970434 3.070144 2.6842898 5.027246 3.5784347 1.957101.8922899 4.083014 1.3393624 6.398145 1.3393624z" fill="#355e72"/><path d="m76.7128116 20.1867826c0 2.2984348-1.8662029 4.1664928-4.1590725 4.1664928-2.3002898 0-4.1664927-1.868058-4.1664927-4.1664928 0-2.2965797 1.8662029-4.1627826 4.1664927-4.1627826 2.2928696 0 4.1590725 1.8662029 4.1590725 4.1627826zm89.1547824-18.62121738h8.763363l14.246956 22.14028988 14.246957-22.14028988h8.761507v46.82573908h-8.158609v-33.5805217l-14.783072 22.0735073h-.268986l-14.647652-21.9417971v33.4488115h-8.160464zm79.662377-.33391305h7.628058l20.60429 47.15779713h-8.69658l-4.748985-11.3085218h-22.142145l-4.815768 11.3085218h-8.427595zm11.77229 28.56069563-8.091826-18.7269565-8.025044 18.7269565zm41.004522-20.60057968h-14.848v-7.62434783h37.991884v7.62434783h-14.849855v39.19768118h-8.294029zm37.324058-7.6262029h8.156753v46.82388408h-8.156753zm47.558492 47.62527538c-3.433739 0-6.598492-.6233044-9.497971-1.8717681-2.899478-1.2484638-5.416811-2.9532754-7.544579-5.118145-2.133334-2.1630145-3.802899-4.7155942-5.016116-7.6595942-1.213218-2.9421449-1.823537-6.0846376-1.823537-9.4311884v-.1354203c0-3.3409855.597334-6.4742029 1.786435-9.395942 1.192812-2.918029 2.867942-5.4835942 5.019826-7.6929855 2.151884-2.20753623 4.700754-3.94573913 7.644754-5.21646377 2.942145-1.27072463 6.197797-1.90701449 9.765101-1.90701449 2.140754 0 4.08858.17994203 5.850899.53797102 1.764174.35431884 3.381797.85704347 4.849159 1.50075362 1.472928.64742029 2.832696 1.42098551 4.083015 2.31142029 1.248464.89228985 2.42829 1.86991304 3.545043 2.94028985l-5.286956 6.09020288c-1.869913-1.7400579-3.856696-3.1462029-5.951073-4.21657969-2.096232-1.07037681-4.481855-1.60463768-7.156869-1.60463768-2.229797 0-4.292638.43594203-6.190377 1.30226087-1.899594.8718841-3.532058 2.0554203-4.912232 3.5468986-1.383884 1.4951884-2.454261 3.2445217-3.209275 5.249855-.762435 2.0090435-1.139015 4.1479421-1.139015 6.4222609v.1317101c0 2.278029.37658 4.4299131 1.139015 6.4556522.755014 2.0313044 1.825391 3.8047536 3.209275 5.3203478 1.380174 1.5118841 3.012638 2.7102609 4.912232 3.5765797 1.897739.8737392 3.96058 1.3059711 6.190377 1.3059711 2.854956 0 5.307362-.5491015 7.355362-1.6398841 2.05171-1.0944927 4.083015-2.5748406 6.090203-4.4466087l5.283246 5.3481739c-1.202087 1.2966957-2.465391 2.4412754-3.780637 3.4467247-1.313392 1.0054492-2.728812 1.8717681-4.248116 2.611942-1.511884.7327536-3.175884 1.2929855-4.982725 1.6677101-1.80313.3802899-3.801043.5695073-5.984464.5695073z" fill="#319cd5"/></svg>