<svg height="121" preserveAspectRatio="xMidYMid" viewBox="0 0 256 121" width="256" xmlns="http://www.w3.org/2000/svg"><path d="m195.984657 0c-13.944944 0-31.12861 8.467058-52.79332 25.8989171-5.727437 4.7319503-10.95713 9.2143508-15.43953 13.1990083-4.232851-3.9846575-9.462545-8.467058-15.439531-13.1990083-21.4165164-17.4318591-38.8483755-25.8989171-52.5451269-25.8989171-32.8727457 0-59.7671491 27.143953-59.7671491 60.2648922 0 33.3691327 26.8944034 60.2648918 59.7671491 60.2648918 13.9449448 0 31.1286105-8.467058 52.7933209-25.8989166 5.727436-4.7319503 10.957129-9.2143508 15.43953-13.1990083 4.232851 3.9846575 9.462544 8.467058 15.43953 13.1990083 21.666067 17.4318586 38.848376 25.8989166 52.793321 25.8989166 32.871389 0 59.767149-27.1439526 59.767149-60.2648918-.248193-33.1209392-27.143953-60.2648922-60.015343-60.2648922zm-102.5988256 70.724279c-22.6615524 17.9296022-32.1240967 18.9264447-33.6186823 18.9264447-15.9372735 0-28.8867321-13.1990083-28.8867321-29.3858315s12.9494586-29.3858314 28.8867321-29.3858314c1.7427791 0 10.9571299.9954862 33.6186823 18.9264447 4.4824006 3.4869143 8.7166076 7.2220221 12.2021656 10.4593867-3.735108 3.2373647-7.719765 6.724279-12.2021656 10.4593868zm43.5789696 3.7351077-20.669224-1.2450359-1.742779-19.921931 12.949459-13.9449448 1.494585 19.921931 20.918774 1.2450359zm59.019856 15.191337c-1.742779 0-10.957129-.9954863-33.618682-18.9264447-4.4824-3.4869144-8.716608-7.2220221-12.202166-10.4593868 3.486915-3.2373646 7.719766-6.7242789 11.953973-10.209837 22.661552-18.1791519 32.124096-19.1746382 33.618682-19.1746382 15.937274 0 28.886732 13.1990083 28.886732 29.3858315.248194 16.1854669-12.701265 29.3844752-28.638539 29.3844752z" fill="#bc1b23"/></svg>