<svg height="256" preserveAspectRatio="xMidYMid" viewBox="0 0 256 256" width="256" xmlns="http://www.w3.org/2000/svg"><path d="m225.84958 128.023789c0-54.0238397-43.845474-97.8690435-97.869044-97.8690435-54.0235687 0-97.8690429 43.8452038-97.8690429 97.8690435 0 54.023569 43.8454742 97.869043 97.8690429 97.869043 54.02357 0 97.869044-43.845474 97.869044-97.869043" fill="#00007d"/><path d="m197.194881 87.4746864c0-15.8230708-12.842171-28.6652418-28.665242-28.6652418s-28.665242 12.842171-28.665242 28.6652418c0 15.8230706 12.842171 28.6652416 28.665242 28.6652416s28.665242-12.842171 28.665242-28.6652416" fill="#fff"/><path d="m254.515092 30.1544752c0-15.8230708-12.842171-28.66524183-28.665242-28.66524183s-28.665242 12.84217103-28.665242 28.66524183c0 15.8230707 12.842171 28.6652418 28.665242 28.6652418s28.665242-12.8421711 28.665242-28.6652418" fill="#00007d"/><g fill="#fff"><path d="m61.2496895 113.756182h8.5588343v55.653372h31.6975032v7.526454h-40.2563375z"/><path d="m116.946044 130.87385v30.57916c0 2.351307.36305 4.272794 1.08942 5.763108 1.340012 2.752473 3.839189 4.12898 7.497799 4.12898 5.248946 0 8.823485-2.408616 10.722534-7.22558 1.032921-2.580544 1.549517-6.121292 1.549517-10.623324v-22.622344h7.741634v46.062158h-7.311544l.086235-6.795218c-.985884 1.749018-2.210197 3.225546-3.673208 4.429854-2.897909 2.408617-6.414598 3.612925-10.550066 3.612925-6.443252 0-10.832017-2.193706-13.166834-6.580579-1.265943-2.350496-1.899049-5.490348-1.899049-9.419015v-31.310125z"/><path d="m182.879426 149.059582c1.777402-.228156 2.967653-.972908 3.569672-2.232093.343316-.690957.515514-1.683599.515514-2.979278 0-2.647586-.937495-4.568802-2.811674-5.763649-1.87445-1.194306-4.557179-1.79173-8.047375-1.79173-4.034906 0-6.896862 1.095096-8.585056 3.284748-.944254 1.211066-1.558978 3.011987-1.845255 5.403032h-7.225309c.143003-5.693364 1.983121-9.65393 5.519814-11.882779 3.536693-2.228308 7.639181-3.342327 12.307193-3.342327 5.412224 0 9.808558 1.03238 13.18819 3.0966 3.350708 2.06449 5.025927 5.275978 5.025927 9.634737v26.537765c0 .802872.164629 1.448144.494699 1.934733.329258.486589 1.024811.729614 2.085845.729614.344127 0 .731236-.021356 1.161327-.064338s.888295-.10705 1.376236-.193014v5.719586c-1.204308.344127-2.122069.559307-2.752473.645001-.630944.085964-1.491396.129217-2.580545.129217-2.666509 0-4.602053-.946146-5.806361-2.838167-.630944-1.002915-1.075092-2.422404-1.333254-4.256845-1.57709 2.06422-3.842433 3.855679-6.795219 5.375189-2.953597 1.518699-6.208338 2.27886-9.763142 2.27886-4.272795 0-7.762991-1.29622-10.472482-3.887578-2.709761-2.591358-4.064372-5.834475-4.064372-9.729352 0-4.266576 1.333255-7.574302 3.999764-9.922365s6.164274-3.794855 10.494107-4.339295zm-16.30101 20.913875c1.634399 1.287569 3.569673 1.930678 5.806361 1.930678 2.723548 0 5.361132-.629863 7.913563-1.889047 4.300638-2.090171 6.451092-5.510623 6.451092-10.262978v-6.22618c-.944794.604182-2.160456 1.107261-3.648338 1.510049-1.487882.403058-2.947379.690146-4.377951.861263l-4.678826.601748c-2.804106.372241-4.912929.958852-6.326201 1.760102-2.39456 1.344338-3.591028 3.490196-3.591028 6.436224 0 2.231282.816929 3.990572 2.451328 5.278141z"/></g><path d="m132.532038 255.92566-.102454-2.934674c3.628874-.126513 7.287214-.412519 10.873107-.85072l.356021 2.914399c-3.669694.448203-7.413458.741238-11.126674.870995zm-11.161546-.09056c-3.707269-.189769-7.445896-.543898-11.111806-1.052925l.403599-2.908181c3.582108.497132 7.235312.843151 10.857968 1.028595zm33.299193-2.617039-.609318-2.872228c3.544803-.752051 7.096904-1.670623 10.558176-2.730036l.859641 2.80735c-3.543451 1.084823-7.179895 2.024752-10.808499 2.794914zm-55.3900736-.453879c-3.612114-.829094-7.2326082-1.829306-10.7606505-2.973331l.9053263-2.793022c3.4466737 1.117533 6.9836368 2.094767 10.5119493 2.904667zm76.7197126-6.074256-1.102665-2.721115c3.35314-1.358125 6.68925-2.883312 9.916418-4.532849l1.336228 2.614606c-3.30313 1.688194-6.718175 3.249335-10.149981 4.639358zm-97.9441941-.808819c-3.4118015-1.448685-6.8027878-3.067405-10.0791552-4.811287l1.3797507-2.591898c3.2006759 1.703603 6.5138079 3.285288 9.8469441 4.700452zm117.8019011-9.340621-1.559519-2.487823c3.067945-1.923379 6.089394-4.005711 8.981356-6.189415l1.769293 2.343198c-2.959274 2.234796-6.051549 4.365516-9.19113 6.33404zm-137.5001144-1.143215c-3.1060613-2.019345-6.1637339-4.201698-9.0881352-6.487045l1.8079493-2.313732c2.8576304 2.233445 5.8452883 4.366328 8.8805238 6.339447zm155.2992774-12.298813-1.96555-2.18046c2.69192-2.426999 5.3095-5.000245 7.779481-7.648912l2.14748 2.002585c-2.528101 2.710031-5.206505 5.34356-7.961411 7.826787zm-172.877854-1.438682c-2.7124646-2.527561-5.3473453-5.204612-7.8308426-7.957356l2.1799197-1.966631c2.426999 2.689757 5.0015966 5.305985 7.6524266 7.775966zm188.093229-14.875303-2.31238-1.80876c2.233985-2.856009 4.36822-5.842856 6.343231-8.87755l2.46079 1.601419c-2.020967 3.10552-4.205212 6.162382-6.491641 9.084891zm-203.0361139-1.686572c-2.2374995-2.959544-4.3701119-6.051278-6.3383653-9.188697l2.4870116-1.56033c1.9233791 3.065512 4.0073326 6.086421 6.1934699 8.978112zm215.2054399-17.014404-2.591358-1.380832c1.705496-3.200135 3.288533-6.512186 4.705048-9.844781l2.702463 1.148891c-1.450577 3.410991-3.070919 6.801436-4.816153 10.076722zm-227.0579425-1.878234c-1.689546-3.301238-3.2523084-6.715202-4.64530519-10.147818l2.72084479-1.104017c1.3605575 3.353681 2.8873664 6.68898 4.5379852 9.913715zm235.7884355-18.660427-2.792482-.906948c1.118615-3.443159 2.09774-6.979582 2.910344-10.510598l2.861145.658247c-.831797 3.614818-1.834171 7.234771-2.979007 10.759299zm-244.17209761-2.007721c-1.08671594-3.543991-2.02880676-7.179894-2.80005069-10.806876l2.87168744-.61094c.75367265 3.54318 1.67386695 7.095011 2.73544245 10.557364zm249.17477461-19.729842-2.908181-.40495c.499024-3.580756.846935-7.233689 1.033461-10.857157l2.932511.151383c-.191391 3.70781-.547142 7.446167-1.057791 11.110724zm-253.81683585-2.086656c-.45009504-3.671586-.74502218-7.414809-.87613095-11.126674l2.93440338-.103535c.12786484 3.626982.41603379 7.285051.85585639 10.872836zm252.03483885-20.084241c-.126243-3.620224-.414142-7.279645-.855857-10.876351l2.913859-.358183c.452257 3.681588.747184 7.426973.876401 11.13208zm-249.89384625-2.055029-2.93224076-.14868c.18787751-3.70781.54011405-7.446437 1.04724815-11.112076l2.90845196.402247c-.49551003 3.581838-.83990708 7.235042-1.02345935 10.858509zm247.23706825-19.582242c-.753672-3.5445327-1.672785-7.098256-2.732198-10.5627713l2.80789-.8585597c1.084283 3.5458839 2.024752 7.1831384 2.795996 10.810931zm-244.24724776-2.0031261-2.86195565-.6555438c.82774234-3.6142767 1.82633157-7.2350412 2.9681943-10.7620022l2.7932925.904245c-1.11537064 3.4453221-2.09098205 6.9825555-2.89953115 10.513301zm237.87373976-18.8445196c-1.358124-3.3604392-2.880608-6.7008743-4.525009-9.9280422l2.616228-1.3329842c1.683058 3.3028596 3.240955 6.7216896 4.630978 10.1610645zm-231.1598897-1.8925617-2.7032735-1.146188c1.4470623-3.4128828 3.0641605-6.80468 4.8064203-10.0813178l2.5924393 1.3781288c-1.701981 3.2014868-3.2820444 6.5151594-4.6955861 9.849377zm10.2332418-19.2505512-2.4624118-1.5989863c2.0185343-3.1082239 4.1998057-6.1669778 6.4829905-9.0913791l2.3142724 1.806868c-2.2310116 2.8576304-4.3622724 5.8466399-6.3348511 8.8834974zm13.4158057-17.1838987-2.1491024-2.0004224c2.5259387-2.7135459 5.2019092-5.3497782 7.9533009-7.8346272l1.9679831 2.1788384c-2.6886758 2.4286209-5.3038226 5.0042999-7.7721816 7.6562112zm16.1771996-14.6098416-1.7717255-2.3413051c2.9579219-2.2383105 6.0483042-4.3722746 9.1851827-6.3426907l1.5619514 2.4862007c-3.0655121 1.9252714-6.0850686 4.0105765-8.9754086 6.1977951zm143.4938116-5.0991848-.160844-.1038057 1.597364-2.4640338.154898.1005618zm-9.568236-5.6271341c-3.202028-1.6963041-6.517322-3.2715016-9.853702-4.6820697l1.143214-2.7040844c3.414775 1.4432777 6.807924 3.05551 10.084832 4.7918225zm-115.4711384-.8642365-1.3389314-2.6129842c3.3009673-1.6917085 6.714661-3.2560929 10.1453854-4.64990071l1.1050982 2.72030411c-3.3515185 1.3616389-6.686547 2.8900697-9.9115522 4.5425808zm95.3925744-7.62323127c-3.447755-1.11482999-6.98634-2.09071172-10.517356-2.90034213l.656355-2.86168533c3.614006.82855333 7.235582 1.82741289 10.764435 2.9681943zm-75.2058796-.57660824-.8620739-2.80680887c3.5423696-1.08806758 7.1780021-2.03178036 10.8055245-2.80545723l.612292 2.87141711c-3.5437215.75583527-7.0952822 1.67792185-10.5557426 2.74084899zm53.9578796-4.29658289c-3.589677-.49875396-7.243962-.84531362-10.862294-1.02967687l.149491-2.93224076c3.702945.18868849 7.443464.54335797 11.117213 1.05400633zm-32.646623-.24843083-.358995-2.91439916c3.670235-.451717 7.413457-.7482661 11.126133-.88126716l.105158 2.93413305c-3.628334.13002746-7.286133.41981838-10.872296.86153327z" fill="#929292"/></svg>