<svg height="515" preserveAspectRatio="xMidYMid" viewBox="0 0 256 515" width="256" xmlns="http://www.w3.org/2000/svg"><path d="m15.1140942 142.743291c2.132 0 4.298-.453 6.357-1.411l225.7909998-104.9849999c7.563-3.517 10.843-12.498 7.326-20.06-3.515-7.56200003-12.499-10.84200003-20.059-7.32600003l-225.79099977 104.98599993c-7.563 3.516-10.843 12.497-7.326 20.059 2.558 5.502 8.009 8.737 13.70199997 8.737zm219.4152998-69.6037999-225.79099977 104.9859999c-7.563 3.516-10.843 12.496-7.326 20.058 2.557 5.503 8.008 8.738 13.70199997 8.738 2.132 0 4.297-.453 6.357-1.412l225.7909998-104.984c7.563-3.5169999 10.843-12.4979999 7.326-20.0599999-3.515-7.562-12.499-10.842-20.059-7.326zm0 64.7172999-225.79099977 104.986c-7.563 3.516-10.843 12.496-7.326 20.058 2.557 5.503 8.008 8.738 13.70199997 8.738 2.132 0 4.297-.453 6.357-1.412l225.7909998-104.984c7.563-3.517 10.843-12.498 7.326-20.06-3.515-7.562-12.499-10.842-20.059-7.326zm-219.4152998-59.1113999c2.137 0 4.308-.456 6.373-1.418l104.0869998-48.538c7.559-3.524 10.828-12.509 7.304-20.06800003-3.526-7.559-12.511-10.826-20.069-7.304l-104.08699977 48.53800003c-7.558 3.525-10.828 12.51-7.304 20.068 2.563 5.495 8.009 8.722 13.69599997 8.722zm219.3574998 123.3157999-79.818 37.522c-5.295 2.489-8.676 7.815-8.676 13.666v75.374h-34.876v-56.268c0-8.341-6.76-15.101-15.0999998-15.101-8.341 0-15.101 6.76-15.101 15.101v56.268h-21.642c-6.426 0-11.287 5.814-10.148 12.139l5.094 28.275c.884 4.911 5.158 8.483 10.148 8.483h52.9819998l-56.1199998 10.19c-4.103.744-6.825 4.675-6.08 8.777.663 3.646 3.841 6.204 7.421 6.204.448 0 .902-.04 1.358-.124l128.7149998-23.372c2.004-.363 3.669-1.494 4.772-3.027 2.666-1.512 4.62-4.173 5.115-7.385l4.367-28.276c.964-6.247-3.869-11.884-10.191-11.884h-20.513v-65.786l71.142-33.444c7.547-3.548 10.789-12.543 7.241-20.09-3.547-7.544-12.539-10.79-20.09-7.242zm-44.5407 200.75-128.7149998 23.369c-4.104.744-6.826 4.675-6.081 8.777.662 3.647 3.84 6.204 7.421 6.204.446 0 .901-.04 1.356-.124l128.7159998-23.37c4.103-.743 6.825-4.674 6.08-8.776s-4.671-6.838-8.777-6.08zm0 39.909-128.7149998 23.369c-4.104.744-6.826 4.675-6.081 8.777.662 3.647 3.84 6.204 7.421 6.204.446 0 .901-.04 1.356-.124l128.7159998-23.37c4.103-.743 6.825-4.674 6.08-8.776s-4.671-6.838-8.777-6.08zm-15.3935 40.2546-95.9969998 16.54c-4.109.707-6.867 4.613-6.159 8.723.633 3.674 3.824 6.27 7.432 6.27.426 0 .857-.038 1.29-.112l95.9979998-16.539c4.109-.708 6.867-4.614 6.159-8.724-.707-4.106-4.605-6.851-8.723-6.158z" fill="#e54537"/></svg>