<svg height="371" preserveAspectRatio="xMidYMid" viewBox="0 0 256 371" width="256" xmlns="http://www.w3.org/2000/svg"><path d="m240.040712 137.119593c-2.996437 0-5.667175 1.563359-7.230534 3.908397l-105.005598 135.035114v.06514l-.06514-.06514v-.13028l-.06514.06514v-.06514l-104.9404578-135.035114c-1.5633587-2.345038-4.2340967-3.908397-7.2305343-3.908397h-15.2427481v55.629517-65.13995c0-70.2208647 56.8671756-127.15318025 127.0229012-127.15318025h.130279.78168.13028c70.155725 0 127.022901 56.93231555 127.022901 127.15318025v9.575573h-15.307889z" fill="#cb3366"/><path d="m90.935369 175.552163 34.393893 44.360305h.06514c.52112.58626 1.302799.977099 2.214758.977099.91196 0 1.693639-.390839 2.214759-.977099h.06514l34.393893-44.360305v53.219338l-36.348092 46.705344-.19542-.26056v.06514l-.19542.26056-36.673791-47.096183zm36.869211 100.120102-.19542-.19542h.39084z" fill="#b2345b"/><path d="m127.60916 149.496183-33.8076333-43.839186 33.8076333-43.4483456.19542.2605598v.0651399l.19542-.2605598 33.612214 43.1877867zm.13028-87.4829514.19542.2605597h-.39084z" fill="#bf3c65"/><path d="m127.80458 62.4692112-.19542-.2605598.13028-.1954198v-.06514l.06514.06514.06514-.06514v.06514l.13028.2605597zm-105.0707378 78.0376588c-1.5633587-2.345038-4.2340967-3.908397-7.2305343-3.908397h-15.2427481v-9.054453c0-46.900763 25.3394402-87.873791 63.1206107-109.8910938 20.9750636.5211196 39.3445295 11.1389313 50.6137405 27.1633588h.06514l13.549109 17.4575063-82.9231549 106.5038167zm118.8152668-95.690585h.06514c11.269212-16.0895674 29.638677-26.7073791 50.548601-27.2284987 37.78117 22.0824427 63.120611 63.0554707 63.120611 109.8910937v9.184733h-15.307888c-2.996438 0-5.667176 1.563359-7.230535 3.908397l-21.952163 28.205598-82.858015-106.5038167z" fill="#cf406e"/><path d="m192.61883 17.8483461c.977099.5862595 1.889058 1.172519 2.866157 1.6936386-.977099-.5211196-1.889058-1.1073791-2.866157-1.6936386zm-51.004581 26.9679389h-.06514l-13.549109 17.4575063-.13028-.2605597v-.06514l-.06514.06514-.06514-.06514v.06514l-.13028.1954198-13.614249-17.3923664h-.06514c-11.204071-16.0244275-29.7038168-26.6422392-50.6137405-27.1633588 18.7603054-10.94351144 40.5821885-17.2620865 63.9022905-17.2620865h.13028.781679.13028c23.320102 0 45.141985 6.25343511 63.90229 17.2620865-20.909924.4559797-39.279389 11.1389313-50.548601 27.1633588zm-13.744529 17.5877862.13028-.1302799.13028.1302799zm-.39084 0 .13028-.1302799.13028.1302799zm-64.5536892-44.5557251c-.9770992.5862595-1.8890585 1.172519-2.8661577 1.6936386.9770992-.5211196 1.8890585-1.1073791 2.8661577-1.6936386zm.4559797-.1954199c-.1302799.06514-.2605598.1302799-.3908397.2605598.0651399-.1302799.1954198-.1954198.3908397-.2605598zm128.7816795 0c.13028.06514.26056.1302799.39084.2605598-.06514-.1302799-.19542-.1954198-.39084-.2605598z" fill="#d8517d"/><path d="m.2605598 136.663613h15.307888c2.9964377 0 5.6671756 1.563359 7.2305344 3.908397l104.9404578 134.969975v.06514l.06514-.06514v.13028l.06514.06514v-.06514l105.005598-135.100255c1.563359-2.345038 4.234097-3.908397 7.230534-3.908397h15.307888v55.890077c0 2.996437-1.042239 5.797455-2.735877 8.012213l-122.463105 168.712469s-.586259.977099-2.279898.977099 0 0-.06514 0c0 0 0 0-.06514 0-1.628499-.06514-2.279898-.977099-2.279898-.977099l-122.46310439-168.712469c-1.69363868-2.214758-2.73587786-4.950636-2.73587786-8.012213v-55.890077z" fill="#4b3785"/><path d="m252.352163 200.956743h-12.311451c-2.996437 0-5.667175-1.563359-7.230534-3.908397l-21.952163-28.205598 21.952163-28.205598c1.563359-2.345038 4.234097-3.908397 7.230534-3.908397h15.307889v55.890077c0 2.996437-1.04224 5.797455-2.735878 8.012213zm-229.6183208-3.908397c-1.5633587 2.345038-4.2340967 3.908397-7.2305343 3.908397h-12.31145039l5.08091603 7.035115-5.34147583-7.295675c-1.69363868-2.214758-2.73587786-4.950636-2.73587786-8.012214v-56.020356h15.30788805c2.9964376 0 5.6671756 1.563359 7.2305343 3.908397l21.9521629 28.270738z"/><path d="m252.352163 200.956743h-12.311451c-2.996437 0-5.667175-1.563359-7.230534-3.908397l-21.952163-28.205598 21.952163-28.205598c1.563359-2.345038 4.234097-3.908397 7.230534-3.908397h15.307889v55.890077c0 2.996437-1.04224 5.797455-2.735878 8.012213zm-229.6183208-3.908397c-1.5633587 2.345038-4.2340967 3.908397-7.2305343 3.908397h-12.31145039l5.08091603 7.035115-5.34147583-7.295675c-1.69363868-2.214758-2.73587786-4.950636-2.73587786-8.012214v-56.020356h15.30788805c2.9964376 0 5.6671756 1.563359 7.2305343 3.908397l21.9521629 28.270738z" fill="#664c9e"/><path d="m164.217812 321.921628-36.478372-46.770483-36.4132313 46.770483z"/><path d="m164.413232 321.726209-34.328754 47.291603s-.586259.977099-2.279898.977099 0 0-.06514 0c0 0 0 0-.06514 0-1.628498-.06514-2.279898-.977099-2.279898-.977099l-34.3287531-47.291603z" fill="#42307c"/><path d="m90.935369 228.185242 36.869211 47.356743-36.4132314 46.770483-.3908397-.586259zm73.347583 93.606107v.390839l-.06514.06514-36.348092-46.705343 36.413232-46.835624z" fill="#45327e"/><path d="m210.858015 258.019338v-89.17659l21.952163 28.205598c1.563359 2.345038 4.234097 3.908397 7.230534 3.908397h12.311451zm-166.5628496-.521119-41.03816794-56.541476h12.31145034c2.9964377 0 5.6671756-1.563359 7.2305344-3.908397l21.4961832-27.749618z" fill="#584094"/><path d="m226.947583 96.9282443-15.959288 23.7760817h-.13028v138.813231c0 .91196-.390839 1.693639-.977099 2.214759v.195419l-42.145547 58.169975h-.06514c-.716539 1.172519-1.954198 2.019338-3.452417 2.019338v-7.947073-138.617812l-34.393893 44.360305h-.06514c-.52112.58626-1.367939.977099-2.214759.977099-.911959 0-1.628498-.390839-2.214758-.977099h-.06514l-34.393893-44.360305v138.552672 7.947073c-1.4330789 0-2.7358779-.781679-3.4524173-2.019338h-.0651399l-42.0152672-58.169975v-.195419c-.5862596-.52112-.9770993-1.367939-.9770993-2.214759v-138.748091h-.1302799l-16.0244274-23.7760817h.0651399c-.5211196-.7165395-.7816794-1.5633588-.7816794-2.540458 0-2.4101782 1.8890585-4.4295166 4.2992367-4.4295166h48.2035623v.06514c1.302799.1302799 2.4753181.8468193 3.1267176 1.8890585l44.4905849 57.5837148 44.425446-57.5837148c.716539-1.0422392 1.823918-1.6936387 3.126717-1.8890585v-.06514h48.203562c2.410179.06514 4.299237 2.0193384 4.299237 4.4295166.06514.9770992-.19542 1.8890585-.716539 2.540458z" fill="#fff"/></svg>