<svg height="126" preserveAspectRatio="xMidYMid" viewBox="0 0 512 126" width="512" xmlns="http://www.w3.org/2000/svg"><g fill="#0b0b0a"><path d="m473.79766 79.0356011-.077728-.1416656-.155456-.4926953.071459-.1466803c4.879314-10.0544949 10.469463-15.8176511 15.336239-15.8176511h.050147c5.493616.0413714 9.292259 4.9846224 9.239605 12.0177541-.036357 4.6937692-2.106179 7.3966982-3.832493 8.8371739-1.973288 1.6448251-4.598489 2.5850833-7.207393 2.5850833-6.428859-.0488934-10.841804-3.7459888-13.42438-6.841319zm-1.331406 37.9550909c-.784802 1.045568-1.878009 1.57462-3.247025 1.57462-1.572112-.012537-2.753076-.560394-3.556683-1.633542-2.251606-3.008827-1.617245-10.078315 2.056031-22.9134671.437533-1.5332478.915185-3.0752713 1.417909-4.5834455l.426251-1.2812586.373596 1.2963027c4.282563 14.8159625 5.131302 24.0818945 2.529921 27.5407905zm-157.302698-68.2464507c.144173-3.1993854.41246-6.3147744.794832-9.2596632 2.478521-18.9831872 7.652449-32.24082854 12.58567-32.24082854h.021313c2.351899.01755148 3.529102 1.79652009 3.504029 5.28425134-.066445 8.5713942-5.497377 20.8423912-16.139847 36.4719907l-.832441 1.2235894zm172.615117 43.300773.173008.0025073c10.357885 0 17.649274-7.1773046 17.727002-17.4486858.038864-5.0861702-1.429193-9.7410754-4.137136-13.1046926-2.862146-3.5604446-6.8689-5.4597662-11.588997-5.4961229h-.094026c-6.369936 0-12.284787 4.8316737-18.083046 14.775845l-.461354.793578-.297121-.8662913c-1.464296-4.2637578-2.76812-7.8141729-3.547908-9.9366492-.54535-1.481847-.78731-2.1475498-.843725-2.3631824-.278316-1.0756554-1.198516-1.7438656-2.4033-1.7438656-.740924 0-1.528233.2519892-2.274171.7258793-.738417.4688755-1.150876 1.0443135-1.29881 1.8115643l-.037611.1153383c-5.803274 18.0968371-10.588561 26.8876249-14.641701 26.8876249-.589229-.0050147-1.050582-.1980811-1.39409-.5804527-1.061865-1.1734423-.8011-3.9641288-.440041-7.8279634.264526-2.8383262.567916-6.0527558.441295-9.4615053-.240706-6.5554806-3.826224-10.4920284-9.593142-10.5359071-7.327746-.0025074-12.07793 7.8003824-14.265598 12.4527802l-.653166 1.3890749-.144173-1.5282331c-.546603-5.7568878-2.478521-12.6333098-8.578916-12.6796959-7.115874 0-12.536777 8.3507469-15.843978 15.3588051l-.886351 1.8780091.089012-2.0748365c.393654-9.346167.71585-14.8648561.957809-16.3943429.24196-1.5357551.114085-2.5662782-.387386-3.1567603-.475144-.5528719-1.372777-.7572213-2.689139-.6744786-2.277932.1441729-3.442599 1.5307404-5.196494 6.1781235-2.879697 7.6323897-10.207443 25.3894801-16.058357 25.3894801-1.160905-.007522-2.079851-.4036842-2.753076-1.174696-2.453447-2.8132526-1.471818-10.4168077-.114085-20.940178l.102802-.7960853c.641883-4.9821151-.453831-6.0452337-3.158014-6.5429438-.292107-.0526544-.56917-.081489-.823666-.081489-2.160087 0-3.171805 2.0710755-5.188972 7.8216949-3.59304 10.2350245-8.210335 20.9991009-13.613686 20.9991009-.198081 0-.393655-.0150441-.590482-.046386-2.8634-.4876806-2.800716-4.7338869-2.720481-10.1134178.041372-2.9085321.090265-6.2069581-.358551-9.1844425-.806115-5.3419206-3.955354-8.6792105-8.216604-8.7118061-8.506203 0-14.243032 10.8919515-16.909604 17.3847482l-.605527 1.4693102-.200588-1.5771265c-.357298-2.8157601-.828681-7.2763452-1.03303-12.5530745l-.006269-.1567097.096533-.1228604c15.917946-20.0375302 23.060147-34.4974484 23.155427-46.8862911.06143-7.91446706-3.591787-12.66841277-9.767403-12.71605252-4.515747 0-15.256003 3.761033-18.986948 38.60825742-.693284 6.4627084-1.073148 13.0883948-1.129564 19.6940224l-.001253.1291288-.073967.105309c-7.28136 10.5421755-22.82571 28.6728619-38.041595 28.6728619-13.750337 0-24.720017-11.123882-24.720017-30.7577279 0-26.3222163 18.632158-42.4833751 32.653289-42.4833751l.115338.0012537c3.046437.0225662 5.659101.8738133 7.555915 2.4609693 1.969528 1.6473324 2.998797 3.9566067 2.978739 6.6770872-.028835 3.6344116-1.211053 5.5023913-2.355661 7.3064335-.294614.4651144-.586721.9264678-.855008 1.415402-.270794.4926954-.517769 1.209799-.157963 1.8228474.368581.6280925 1.310093 1.0242546 2.457208 1.0317767 3.33729 0 8.38585-4.8304201 8.441012-12.1105263.057669-7.6185991-6.361161-15.46787501-17.809745-15.46787501-17.328333 0-40.663035 19.03458801-40.663035 49.88508801 0 21.8227671 13.682638 36.9057631 32.217008 36.9057631 13.152333 0 26.163-9.4163729 37.685551-25.1462666l.70582-.952795.050148 1.1847254c.24572 5.7568878.663195 10.2939473.969092 13.6074174.196828 2.1299983.339747 3.6682608.332225 4.5170006-.01379 1.8617113.2896 3.1517457.931483 3.9453236.639375.793578 1.659869 1.1684276 3.201892 1.1797107 2.588845 0 3.106614-1.7651782 4.130868-6.1166933l.295868-1.2436483c1.272483-5.2742219 5.976282-22.4872163 13.052038-22.4872163 1.155891.0100294 2.046002.3522834 2.679109 1.023001 1.562083 1.6573619 1.392836 5.0585894 1.194755 8.9988983-.124114 2.4584619-.251989 4.9971592-.005014 7.4706652.666956 6.6770873 3.549161 9.9416639 8.814607 9.9805279 5.405858.0025074 11.046154-5.8208254 14.022385-11.2316982l.562901-1.0217473.21814 1.1458614c.550365 2.8947417 3.007573 12.4001258 10.701393 12.4001258 6.974209 0 12.955505-7.3427901 19.513493-22.4558744l.857515-1.9732886-.052654 2.1525645c-.140412 5.7267996-.450071 12.7198136-.452578 18.1256717-.002507 4.1822687.419982 5.7794541 2.353153 5.7794541.137905 0 .285838.0188051.438787.0188051 1.854189 0 3.112882-1.1057437 3.740974-3.2946649 4.933222-17.1966965 9.198233-25.2064431 13.423127-25.2064431 4.137136.0325956 4.525776 7.5960329 4.856747 20.9627442l.022567.9377509c.100294 4.6737104.268287 6.7435322 3.173058 6.7648447 2.203965 0 2.751822-1.7313289 3.891415-5.9938329.216886-.8123831.455085-1.703748.733402-2.6665724 3.982934-13.8217963 7.286374-19.4608384 11.397183-19.4608384 3.520327.0263272 3.715901 3.655724 3.781092 4.8479715.135397 2.5537414-.127875 5.2278359-.381118 7.8079045-.235691 2.3995391-.480158 4.8805672-.387386 7.1898414.215632 5.4058581 3.175565 8.4059088 8.335703 8.4447728 6.697146 0 12.742379-7.8329781 18.03666-23.2757796l.367328-1.0781628.419982 1.058104c.959063 2.42712 2.210233 5.7130091 3.369885 9.6332592l.043879.1491876-.062684.1416656c-5.126288 11.3833932-8.743148 24.0643432-8.794549 30.8379632-.068952 8.922424 3.96789 14.720683 10.285172 14.769577h.10907c3.43633 0 11.446077-1.379046 11.601533-14.147753.062684-5.23285-1.173442-12.632056-3.672022-21.9957745l-.285838-1.0731481.922706.6155558c3.189356 2.1149542 6.786158 3.2482788 10.404271 3.2783671z"/><path d="m150.475443 65.8381363c-2.255366 9.0716116-6.578046 20.018725-14.37216 20.6455638-.21814.0150442-.430012.0275809-.634361.0275809-3.233235 0-5.046053-2.1187152-5.388307-6.2934619-.428758-5.2253285 1.825355-11.3432755 5.738083-15.5919891 2.492311-2.7054364 5.303056-4.1948055 7.913213-4.1948055h.052655c3.297172.0250736 5.606446 2.6715871 6.668311 5.1400785l.056416.1266214zm71.469657-50.7288131.111577-.0025073c.734655 0 1.380299.3698349 1.919381 1.0982216 2.557502 3.4588967 2.595112 16.0784161-1.802789 30.4392937-2.514877 8.2053204-5.894792 15.9593167-9.774925 22.4182641l-.618063 1.0280157-.157963-1.1897401c-.457592-3.4726872-.682001-7.0882936-.841218-10.1660722-1.122041-21.7049215 5.443469-43.3283539 11.164-43.6254755zm-59.354116 75.2758218c7.530842-.6055263 13.507124-10.8480728 15.726133-15.2234079l.571677-1.1283099.216886 1.2461556c1.064373 6.1555574 4.412946 16.4983981 14.887423 16.5786335h.087757c4.530791 0 9.672123-2.7706277 14.86611-8.0110003l.381118-.3848791.277063.4626071c3.49776 5.84966 8.189022 8.9575269 13.18242 8.7030304 7.354073-.3823717 11.815912-5.5926561 12.209567-9.2120235.100294-.9227068-.144173-1.7902517-.670717-2.3769729-.661942-.7371624-1.621006-.8236662-2.32808-.1479339l-.334732.3184341c-1.712524 1.6435714-4.90188 4.7063059-8.37582 4.8880892-4.254982.2081105-7.402967-2.3356015-9.436432-7.5860036l-.083997-.2206472.14292-.1855443c11.69932-15.3036433 19.910908-38.6558972 19.101033-54.3168386-.373596-7.2487642-2.482282-15.8903644-10.398003-15.8903644-.19432 0-.391147.00501471-.590482.01629781-3.0339.1567097-5.790737 1.60094638-8.197798 4.29384599-7.345298 8.2178571-11.189074 28.4446926-9.79373 51.5311668.289599 4.7965708 1.122041 9.2797221 2.474759 13.3203252l.076475.2244083-.154203.1817833c-4.341485 5.0736335-8.625302 7.8693347-12.062886 7.8693347-8.270512 0-7.992195-13.865675-7.337775-25.3669139.141665-2.4797744.351029-4.0594083-.382372-4.9570415-.525291-.641883-1.401612-.9590634-2.679109-.9703465l-.150442-.0012537c-2.941127 0-3.557937.6055263-5.063604 4.9733393-3.13294 9.0753726-9.316078 24.3025416-15.536827 24.3025416-1.725061-.0150442-3.041422-.6042727-3.941563-1.7526414-3.017602-3.8525515-.725879-13.4582298 1.11452-21.1783768.330971-1.3878212.648151-2.7204806.920199-3.9540994.403684-1.8303694.27957-3.1655361-.367327-3.9741582-.648152-.8048611-1.944454-1.1320709-3.653217-.9966737-2.665319.2131252-4.367813 1.3288983-5.190226 6.3950097l-.165485 1.0530893-.619317-.7484456c-1.163413-1.7175384-3.432569-3.764794-7.642419-3.764794-.369835 0-.750953.0150441-1.145861.0463861-4.493181.3685812-9.610693 3.500268-13.355428 8.171471-4.372828 5.4560052-6.460201 12.3612618-5.879749 19.4420332.031342.3748497.08525.7346551.139159 1.0919533l.030088.198081-.135397.1504414c-2.616426 2.8496093-5.281744 4.293846-7.92199 4.293846-4.074452-.031342-6.413815-3.0602272-6.413815-8.1037725 0-8.4949198 5.755635-34.0962714 5.755635-43.3647104 0-9.8639359-4.395394-15.234691-12.027784-15.2923602l-.115338-.0012537c-11.143941 0-19.8306736 12.6471003-28.1425565 38.6646729-.7609823 2.3832413-1.5884096 5.1350637-2.2992448 7.514544l-1.1659203 3.9139816.3460151-4.068184c.7722654-9.0640895 1.3025711-17.8812046 1.5758728-26.210639.4137136-12.574387-1.2862733-20.6668763-5.1964939-24.7388214-2.1099395-2.1964432-4.900626-3.2783671-8.5362912-3.3072016h-.0965332c-13.6375057 0-20.17042 23.0012241-24.9268731 39.2300815-1.4354609 4.8993723-4.2662651 15.9505409-6.1555573 23.5039489l1.1195341-1.8190863c.8387104-9.5129061 3.2695914-33.3415575 3.1103743-46.268228-.1717538-13.8669286-4.7903023-20.08516985-14.9751797-20.16289787h-.1253677c-5.4409611 0-9.2145309 2.70292905-11.42351094 4.97208567-3.54540044 3.6406799-5.75563417 8.9612879-5.63277376 13.5560166.07522066 2.7931938 1.79025171 5.2804903 3.08906177 5.2804903.84623243 0 1.31510787-1.1295636 1.51820366-1.8027885 3.15049197-10.4168077 7.22870537-15.4816655 12.46406337-15.4816655 2.170116.0162978 3.7848529.6569271 4.9959055 1.9557372 4.0882429 4.3866181 3.344812 16.2313647 1.9958548 37.734444-.4350261 6.9303302-.9277214 14.7833671-1.3439424 23.7158204-.0714597 1.5332478-.1667392 3.0113338-.257004 4.4192138-.3986695 6.2031971-.7133425 11.1050768 1.6385568 11.469897 3.0614808.4776512 5.0548283-.7672507 6.0728146-3.796136 1.5119352-4.4956881 4.9031333-16.7817292 11.4648822-39.2350962 6.2959693-21.5457044 11.0524223-29.3849508 17.1377737-29.3849508 7.0306244 0 7.5546616 12.0716622 6.265881 37.5451387-.2745554 5.3995897-.641883 11.516283-.9239604 18.1733115-.038864.9364972-.0839964 1.8416524-.1266215 2.7154658-.2707944 5.5124207-.4839196 9.8614285 1.0894459 11.5288198.4914417.5190226 1.1596519.7760265 2.0434946.7810412 3.0476904 0 3.9628751-2.6715871 5.4823324-7.1008303.2682871-.7810412.5528719-1.6159905.8700523-2.4910575 10.443135-28.8082591 18.1657894-53.8028308 28.5299428-53.8028308 3.109121 0 5.526211 2.5249069 5.526211 7.4506064 0 11.3670954-5.556299 33.3315281-5.556299 44.4666932 0 3.9892023 1.147115 7.5722131 3.317231 10.0883441 2.226531 2.5838297 5.34192 3.9628751 9.008927 3.9917097h.080236c3.467672 0 7.082025-1.6849428 10.74151-5.0071886l.343508-.310912.275809.3723422c2.409568 3.2395031 6.29973 4.9796077 10.498297 4.6561589 6.441395-.5014711 11.846-6.2357927 13.856899-11.6454119l.392401-1.0568502.393655 1.0568502c1.491876 4.0142759 4.723857 8.8497107 11.630367 8.2918241z"/><path d="m186.625239 32.5843362c-2.87719 0-5.201509 2.2666492-5.221567 5.052321-.02382 2.8069843 2.285454 5.1087365 5.143839 5.1313027l.041371.4174747v-.4174747c2.834566 0 5.158884-2.2653955 5.180196-5.0510673.022567-2.808238-2.285454-5.1099902-5.143839-5.1325564"/><path d="m367.52215 32.5843362c-2.87719 0-5.200254 2.2666492-5.222821 5.052321-.022566 2.8069843 2.285455 5.1087365 5.145093 5.1313027l.040118.4174747v-.4174747c2.837073 0 5.161391-2.2653955 5.182704-5.0510673.020058-2.808238-2.286708-5.1099902-5.145094-5.1325564"/></g><path d="m508.394149 92.8523827c-1.672406 0-3.02011-1.3464498-3.02011-3.0188559 0-1.672406 1.347704-3.0213631 3.02011-3.0213631 1.671152 0 3.021363 1.3489571 3.021363 3.0213631 0 1.6724061-1.350211 3.0188559-3.021363 3.0188559zm0-6.5542269c-1.946962 0-3.532864 1.587156-3.532864 3.535371 0 1.9469615 1.585902 3.53161 3.532864 3.53161 1.948215 0 3.535371-1.5846485 3.535371-3.53161 0-1.948215-1.587156-3.535371-3.535371-3.535371z" fill="#0b0c0a"/><path d="m508.281318 89.6128796h-.655674v-1.3752844h.91017c.437534 0 .912678.151695.912678.6732249 0 .6757322-.60678.7020595-1.167174.7020595zm1.678674-.7020595c0-.7296404-.358552-1.1283099-1.281258-1.1283099h-1.567097v4.071945h.514007v-1.7827296h.730894l1.216068 1.7827296h.579199l-1.216067-1.7827296c.551618-.0952795 1.024254-.4086989 1.024254-1.1609055z" fill="#0b0c0a"/></svg>