<svg height="227" preserveAspectRatio="xMidYMid" viewBox="0 0 256 227" width="256" xmlns="http://www.w3.org/2000/svg"><path d="m.8324265.4518607h254.8481925v225.6417123h-254.8481925z" fill="#e6e6e1"/><path d="m255.680619.4518607h-254.8481925l127.4314615 186.2391833z" fill="#d8d8d3"/><path d="m101.299301 226.093573h53.926227l-26.96164-39.402529z" fill="#b4b6b4"/><path d="m128.302186 118.827369-54.3622335-79.7890168v68.4911698l31.0418275 45.594986 23.267378-34.229382z" fill="#1a1918"/><path d="m128.302186 118.827369 23.411731 34.370789 30.844446-45.097115v-69.0626908z" fill="#ed9d4a"/><path d="m128.249158 118.895126-23.267378 34.229382 23.343974 34.273572 23.388163-34.199922-23.411731-34.370789z" fill="#bb7731"/><path d="m35.332839 187.489406h38.6071135v-79.959884l-38.6071135-56.6689381z" fill="#4cb2d4"/><path d="m35.332839 39.0383522v11.8222317l38.6071135 56.6689381v-68.4911698z" fill="#1b82ad"/><path d="m182.558363 108.101043v79.388363h38.592384v-135.8068927z" fill="#c02439"/><path d="m221.150747 39.0383522h-38.592384v69.0626908l38.592384-56.4185297z" fill="#8f202f"/></svg>