<svg height="256" preserveAspectRatio="xMidYMid" viewBox="0 0 256 256" width="256" xmlns="http://www.w3.org/2000/svg"><path d="m256 128c0 70.692-57.308 128-128 128s-128-57.308-128-128 57.308-128 128-128 128 57.308 128 128" fill="#221f1f"/><path d="m144.2747 129.0387c0-9.179-7.441-16.621-16.621-16.621-.119 0-.228.032-.346.035v16.586z" fill="#ffe000"/><path d="m127.6537 100.7448c15.626 0 28.294 12.668 28.294 28.294h19.506c0-26.399-21.401-47.8-47.8-47.8-.117 0-.23.017-.346.017v19.506c.116-.001.229-.017.346-.017" fill="#ff9510"/><path d="m127.6537 68.4183c33.48 0 60.62 27.141 60.62 60.62h19.139c0-44.049-35.71-79.758-79.759-79.758-.117 0-.23.017-.346.017v19.139c.116-.001.229-.018.346-.018" fill="#ff4b21"/><path d="m127.6537 36.4397c51.141 0 92.599 41.458 92.599 92.599h19.446c0-61.88-50.165-112.044-112.045-112.044-.116 0-.23.008-.346.009v19.445c.116-.001.23-.009.346-.009" fill="#ff0031"/></svg>