<svg height="256" preserveAspectRatio="xMidYMid" viewBox="0 0 256 256" width="256" xmlns="http://www.w3.org/2000/svg"><path d="m128 0c-70.6951631 0-128 57.3048369-128 128 0 70.695163 57.3048369 128 128 128 70.695163 0 128-57.304837 128-128 0-70.6951631-57.304837-128-128-128zm60.760405 159.388076c-43.770529 43.770529-121.952756 29.804275-121.952756 29.804275s-14.1102362-78.038245 29.8042745-121.9527559c24.3329585-24.3329584 64.6479195-23.3250844 90.1327335 2.015748s26.348706 65.7997749 2.015748 90.1327329zm-46.074241-84.3734528-12.526434 25.7727788-25.772778 12.526434 25.772778 12.526434 12.526434 25.772778 12.526434-25.772778 25.772779-12.526434-25.772779-12.526434z" fill="#4264fb"/></svg>