<svg height="315" preserveAspectRatio="xMidYMid" viewBox="0 0 256 315" width="256" xmlns="http://www.w3.org/2000/svg"><path d="m150.815217 142.832419 29.445175-69.6468187c.34867-.8368078 1.324946-1.2325482 2.168727-.8821349.840295.3486699 1.243008 1.310999.889109 2.1495502l-25.94976 61.3693944z" fill="#939598"/><path d="m176.215821 107.388377s-14.091495 18.467302-24.037304 29.136602c-9.954527 10.672788-24.459196 27.499598-24.459196 27.499598v37.621486c.1046-.006974.200484-.027894.305086-.027894 2.405822 0 4.354887 1.926401 4.354887 4.306073 0 2.381416-1.950807 4.311304-4.354887 4.311304-.104602 0-.200486-.024406-.305086-.033124v37.956209s18.266818-12.41265 31.498841-24.420842c14.919586-13.540596 31.500585-34.683941 31.500585-34.683941l-14.502926-81.663728z" fill="#931a2b"/><path d="m117.376027 38.5487295-.135981 14.6668006-53.2296948 21.3211662.9361787-13.0315387 52.4312411-22.9599148z" fill="#a7a9ac"/><path d="m191.325433 60.9926129 1.037293 13.0263085-53.498171-20.8923021-.252786-14.6615706zm-63.353327-27.0811934.055788 14.9806035-77.8667125-30.4127347 1.6160852-17.14061368zm-76.1948393-32.57274488-1.6160852 17.14061368-10.32586 6.0930071 1.7851901-16.73615665z" fill="#bcbec0"/><path d="m203.82002.70060865 1.743349 17.13015365-77.535475 31.0612607-.057531-14.9823469z" fill="#a7a9ac"/><path d="m214.053482 7.11613535 1.915941 16.72395315-10.404311-6.0093262-1.743349-17.12841031z" fill="#bcbec0"/><path d="m74.6081737 77.5335144-10.599566-2.9950747 53.2314383-21.3211663-77.4047245-28.6432346 10.32586-6.0947505 77.8667125 30.4127347 77.537218-31.0612607 10.404311 6.0093262-77.104868 29.2882741 53.498171 20.8905588-10.573416 3.0822422-53.712603-19.8741859-53.4685333 20.3030499z" fill="#808285"/><path d="m40.6756161 120.550667c-.0557872 0-.1115744 0-.1656182-.008717-.9100285-.090654-1.5759881-.889108-1.4853339-1.79565l9.4890521-94.6813193c.0906541-.8978251.8821349-1.560298 1.8130836-1.4696438.9100285.0871675 1.5759881.892595 1.485334 1.7921634l-9.4873088 94.6813197c-.0871675.847267-.8019409 1.481847-1.6457221 1.481847zm170.6198869 0c-.866445 0-1.600395-.672933-1.650952-1.542865l-5.73562-95.3315884c-.055787-.9065417.639809-1.685819 1.555067-1.7398629.936179-.0610173 1.70151.6345793 1.757296 1.5411211l5.730391 95.3263592c.05753.906541-.636322 1.684076-1.551581 1.739863-.036611.005229-.069734.005229-.104601.006973zm-110.76372 19.053068-27.4490403-64.7131387c-.3539-.8368079.0435837-1.8026235.8838783-2.1530368.8472679-.3486699 1.8183137.0453271 2.1722136.8803915l30.4667784 71.826006z" fill="#939598"/><path d="m123.676493 205.927729c0-2.276814 1.78519-4.121278 4.044571-4.279924v-37.621484s-14.509899-16.828554-24.459196-27.501342c-9.9475526-10.6693-24.0407911-29.136602-24.0407911-29.136602l-14.5046692 81.672445s16.5792552 21.1416 31.4988415 34.682197c13.2320238 12.008192 31.5023288 24.419099 31.5023288 24.419099v-37.957952c-2.254152-.158644-4.041085-2.004852-4.041085-4.276437z" fill="#a81e2c"/><path d="m128.024407 208.387596c-.400971 0-.808914-.142955-1.126204-.435838l-57.1295679-52.521894-.0174335-4.494356 58.2627454 53.555702 57.523565-54.193768.231865 4.30956-56.603076 53.325579c-.320776.30683-.732207.456758-1.145381.456758h.003487z" fill="#939598"/><path d="m247.515336 118.878795-71.297771-11.488675s6.631702 37.755724 6.631702 100.957379c0 63.208628-8.704545 106.300744-8.704545 106.300744l72.127605-7.799746s9.115975-34.483456 9.115975-93.990952c-.003486-59.505754-7.876454-93.980494-7.876454-93.980494zm-32.958026 166.629359c-1.945578 0-3.52331-1.558555-3.52331-3.486699 0-1.921172 1.575989-3.486699 3.52331-3.486699s3.521566 1.565527 3.521566 3.486699c0 1.924658-1.572501 3.486699-3.521566 3.486699zm-141.9679352-77.162399c0-63.201655 6.6317021-100.957378 6.6317021-100.957378l-71.29602731 11.488674s-7.87471036 34.476482-7.87471036 93.98398c0 59.514471 9.11771862 93.990953 9.11771862 93.990953l72.12586165 7.803233c0-.008717-8.7045447-43.097347-8.7045447-106.309462zm-33.0329891 76.93402c-1.8130838 0-3.2862142-1.459184-3.2862142-3.254833 0-1.797394 1.4696438-3.254835 3.2844707-3.254835 1.8130837 0 3.2844708 1.457441 3.2844708 3.251348 0 1.792163-1.4696437 3.25309-3.2844708 3.25309z" fill="#ce2227"/><ellipse cx="214.55731" cy="139.605479" fill="#a51724" rx="3.25832" ry="3.225197"/><path d="m214.560797 283.663691c-.127265 0-.258016-.017435-.388767-.048815-.889108-.207459-1.440007-1.086106-1.229062-1.976958.050558-.202229 4.928449-21.179955 4.928449-69.763623 0-48.677808-4.888352-71.700484-4.935423-71.923633-.190024-.889109.378308-1.760784 1.270902-1.952552.88911-.191768 1.77996.373077 1.969986 1.260442.050557.226635 5.010387 23.596237 5.010387 72.615743 0 49.047399-4.813389 69.665996-5.017361 70.520236-.183052.765331-.862957 1.270902-1.610854 1.270902v-.001742z" fill="#939598"/><ellipse cx="39.556386" cy="139.605479" fill="#a51724" rx="3.821422" ry="3.783069"/><path d="m39.5528989 283.663691c-.8071709 0-1.5132275-.587509-1.6387487-1.401654-.040097-.271963-4.1631189-27.914515-4.1631189-71.243726 0-43.330957 4.1230219-71.372735 4.1631189-71.651671.1359814-.897825.9762759-1.516714 1.8828177-1.382477.9065418.130752 1.5341476.967559 1.3999097 1.861898-.0435837.278936-4.128252 28.102796-4.128252 71.175736 0 43.090373 4.0881549 70.492343 4.1265087 70.755589.139468.889108-.4881379 1.734633-1.3946797 1.86887-.0836808.006974-.1673616.017435-.2475557.017435z" fill="#939598"/></svg>