<svg height="214" preserveAspectRatio="xMidYMid" viewBox="0 0 256 214" width="256" xmlns="http://www.w3.org/2000/svg" xmlns:xlink="http://www.w3.org/1999/xlink"><linearGradient id="a" x1="49.910972%" x2="49.910972%" y1="99.908407%" y2="-.090265%"><stop offset="0" stop-color="#8ac23e"/><stop offset="1" stop-color="#8ac23e" stop-opacity="0"/></linearGradient><linearGradient id="b" x1="49.983517%" x2="49.983517%" y1=".063713%" y2="100.062389%"><stop offset="0" stop-color="#698932"/><stop offset="1" stop-color="#698932" stop-opacity="0"/></linearGradient><linearGradient id="c" x1="50.059561%" x2="50.059561%" y1=".063713%" y2="100.062389%"><stop offset="0" stop-color="#ffed01"/><stop offset="1" stop-color="#ffed01" stop-opacity="0"/></linearGradient><linearGradient id="d" x1="50.017085%" x2="50.017085%" y1=".063713%" y2="100.092699%"><stop offset="0" stop-color="#e02a89"/><stop offset="1" stop-color="#e02a89" stop-opacity="0"/></linearGradient><linearGradient id="e" x1="49.963166%" x2="49.963166%" y1="-.091593%" y2="99.90708%"><stop offset="0" stop-color="#7f1e4f"/><stop offset="1" stop-color="#7f1e4f" stop-opacity="0"/></linearGradient><linearGradient id="f" x1="49.965204%" x2="49.965204%" y1="-.091593%" y2="99.90708%"><stop offset="0" stop-color="#e95506"/><stop offset="1" stop-color="#e95506" stop-opacity="0"/></linearGradient><linearGradient id="g" x1="49.976646%" x2="49.976646%" y1="99.908407%" y2="-.026549%"><stop offset="0" stop-color="#88d0f1"/><stop offset="1" stop-color="#88d0f1" stop-opacity="0"/></linearGradient><linearGradient id="h" x1="50.020533%" x2="50.020533%" y1=".063713%" y2="99.998673%"><stop offset="0" stop-color="#00828b"/><stop offset=".8325" stop-color="#00828b" stop-opacity="0"/></linearGradient><linearGradient id="i" x1="50.078022%" x2="50.078022%" y1="99.975221%" y2=".070575%"><stop offset="0" stop-color="#2073ba"/><stop offset="1" stop-color="#2073ba" stop-opacity="0"/></linearGradient><linearGradient id="j" x1="50.017712%" x2="50.017712%" y1=".063713%" y2="99.998673%"><stop offset="0" stop-color="#8ed0e1"/><stop offset="1" stop-color="#88d0f1" stop-opacity="0"/></linearGradient><path d="m80.9 176c-1.2-1.6-2.8-2.9-4.8-3.8s-4.6-1.4-7.8-1.4c-1.2 0-2.5.1-3.7.4s-2.4.6-3.5 1-2.1.8-3 1.3-1.6.9-2.2 1.3c-1.2-1.2-2.7-2.2-4.5-2.9s-4.1-1.1-6.9-1.1c-3.3 0-6.4.2-9.3.7s-5.3 1-7.1 1.5v39.3h9.4v-32.8c.6-.1 1.6-.2 2.8-.4s2.4-.2 3.4-.2c2.9 0 4.9.9 5.9 2.8 1.1 1.9 1.6 5 1.6 9.2v21.4h9.4v-22.5c0-1.7-.1-3.2-.2-4.7-.2-1.5-.4-2.8-.9-4.1.7-.5 1.7-.9 3-1.4s2.8-.7 4.3-.7c3 0 4.9.9 6 2.8 1 1.9 1.6 5 1.6 9.2v21.4h9.6v-22.8c0-2.7-.2-5.3-.7-7.6-.4-2.3-1.2-4.3-2.4-5.9zm36.5-.9c-1.3-1.4-3-2.5-5.1-3.3s-4.6-1.1-7.7-1.2h-.2c-2.6 0-5 .2-7.3.6s-4 .8-5.2 1.2l1.2 7.6c1.1-.4 2.6-.8 4.4-1.1s3.8-.5 6-.5h1.1c1.1.1 2.1.3 2.9.6 1.1.4 1.9 1 2.6 1.7.6.8 1.1 1.6 1.4 2.6s.4 2 .4 3.1v1.6c-1.3-.3-2.5-.5-3.7-.7-1.1-.1-2.2-.2-3.3-.2h-.3c-2.1 0-4.2.2-6.1.7-2 .4-3.8 1.2-5.4 2.2s-2.8 2.3-3.7 3.9-1.4 3.6-1.4 5.9c0 2.4.4 4.5 1.2 6.1.8 1.7 1.9 3 3.3 4s3.1 1.8 5.2 2.3c2 .5 4.2.7 6.7.7h.2c3.6 0 6.8-.2 9.7-.7 2.9-.4 5.1-.8 6.6-1.1v-24.6c0-2.4-.3-4.6-.8-6.6-.5-1.7-1.4-3.4-2.7-4.8zm-5.5 30.2c-1.5.3-3.7.5-6.6.5h-.6c-2.1-.1-3.8-.5-5.1-1.3-1.4-.9-2.1-2.4-2.1-4.6 0-1.1.3-2.1.8-2.8.5-.8 1.2-1.3 2.1-1.7s1.8-.7 2.9-.9c.5-.1 1-.1 1.5-.2.6 0 1.1-.1 1.7-.1 1.2 0 2.3.1 3.3.2 1 .2 1.7.3 2.3.5v10.4zm36.5-34c-.8-.1-1.7-.2-2.5-.3s-1.6-.1-2.2-.1c-3.3 0-6.3.3-9.1.9-2.7.6-5 1.2-6.8 1.9v38.7h9.4v-32.6c.5-.2 1.3-.3 2.4-.5 1.2-.2 2.3-.3 3.3-.3 1.8 0 3.4.1 4.8.4s2.4.6 3.2.8l1.6-7.9c-.5-.2-1.1-.3-1.9-.5-.5-.3-1.3-.4-2.2-.5zm34.3 29.1c-1.6-2.1-3.3-4-5-5.9-1.7-1.8-3.3-3.4-4.9-4.7 2.9-3 5.8-6 8.6-9.1 2.9-3.1 5.6-6.1 8.2-9h-11.1c-.8 1-1.8 2.1-3 3.5-1.2 1.3-2.4 2.7-3.7 4.1s-2.6 2.8-4 4.3c-1.3 1.4-2.6 2.8-3.8 4v-35.6l-9.4 1.6v58.7h9.4v-18.6c1.4 1 2.8 2.3 4.3 3.8s2.9 3 4.3 4.7 2.7 3.4 3.9 5.1c1.2 1.8 2.3 3.4 3.2 5.1h10.9c-.9-1.8-2.1-3.7-3.5-5.8-1.3-2.1-2.8-4.2-4.4-6.2zm43.6-17.2c-1-2.6-2.3-4.9-4-6.7-1.7-1.9-3.8-3.3-6.2-4.3s-5-1.5-7.9-1.5c-2.8 0-5.5.5-7.8 1.5-2.4 1-4.4 2.4-6.2 4.3-1.7 1.9-3.1 4.1-4 6.7-1 2.6-1.4 5.5-1.4 8.7s.5 6.1 1.4 8.8c1 2.6 2.3 4.9 4 6.8s3.8 3.3 6.1 4.4c2.4 1 5 1.6 7.9 1.6s5.6-.5 8-1.6c2.4-1 4.5-2.5 6.2-4.4s3-4.1 4-6.8c.9-2.6 1.4-5.6 1.4-8.8s-.5-6.1-1.5-8.7zm-10.8 18.5c-1.7 2.4-4.2 3.6-7.3 3.6s-5.5-1.2-7.3-3.6c-1.7-2.4-2.6-5.6-2.6-9.7 0-4 .9-7.2 2.6-9.6s4.2-3.5 7.3-3.5 5.5 1.2 7.3 3.5c1.7 2.4 2.6 5.6 2.6 9.6 0 4.1-.9 7.3-2.6 9.7z" fill="#272525"/><path d="m128.1 0h36.1c-13.3 21.8-28 45.8-42.7 69.7h-36.1c14.7-23.9 29.4-47.9 42.7-69.7z" fill="#8dc220"/><path d="m42.7 0h36.1c-7.1 11.6-14.3 23.3-21.4 34.9s-14.2 23.2-21.3 34.8c7.1 11.6 14.2 23.3 21.3 34.9s14.2 23.2 21.4 34.8h-36.1c-7.1-11.6-14.3-23.2-21.4-34.8-7.1-11.5-14.2-23.2-21.3-34.8l21.3-34.8c7.1-11.7 14.3-23.3 21.4-35z" fill="#44bfef"/><path d="m42.7 0c14.7 24 29.4 48 42.7 69.7h36.1c-13.3-21.7-28-45.7-42.7-69.7z" fill="#00ac71"/><path d="m164.2 0h-36.1c7.1 11.6 14.2 23.3 21.4 34.9 7.1 11.6 14.2 23.2 21.4 34.8-7.1 11.6-14.3 23.3-21.4 34.9s-14.2 23.2-21.4 34.8h36.1c7.1-11.6 14.2-23.2 21.4-34.8 7.1-11.6 14.2-23.2 21.4-34.9-7.2-11.6-14.3-23.2-21.4-34.8s-14.3-23.2-21.4-34.9z" fill="#f9bc00"/><path d="m149.3 24.6h-36.1c-4.6 7.5-9.2 15.1-13.8 22.6s-9.2 15.1-13.9 22.6h36.1c4.6-7.5 9.3-15.1 13.9-22.6 4.5-7.6 9.1-15.1 13.8-22.6z" fill="url(#a)"/><path d="m100.5 45.2h36.1c4.6-7.5 9.2-15.1 13.8-22.6s9.2-15.1 13.8-22.6h-36.1c-4.6 7.5-9.2 15.1-13.8 22.6-4.6 7.6-9.2 15.1-13.8 22.6z" fill="url(#b)"/><path d="m191.9 45.2h-36.1c-4.6-7.5-9.3-15.1-13.9-22.6s-9.2-15.1-13.8-22.6h36.1c4.6 7.5 9.2 15.1 13.8 22.6 4.7 7.6 9.3 15.1 13.9 22.6z" fill="url(#c)"/><path d="m213.2 0h-36.1c7.1 11.7 14.2 23.3 21.3 34.9s14.3 23.2 21.4 34.8c-7.1 11.6-14.3 23.3-21.4 34.9s-14.2 23.2-21.4 34.8h36.1c7.1-11.6 14.2-23.2 21.4-34.8 7.1-11.6 14.2-23.2 21.4-34.9-7.1-11.6-14.2-23.2-21.4-34.8-7-11.6-14.2-23.2-21.3-34.9z" fill="#df1b1c"/><path d="m240.9 45.2h-36.1c-4.7-7.5-9.3-15.1-13.9-22.6s-9.2-15.1-13.8-22.6h36.1c4.6 7.5 9.2 15.1 13.8 22.6 4.6 7.6 9.3 15.1 13.9 22.6z" fill="url(#d)"/><path d="m192.2 115h36.1c4.6-7.5 9.2-15 13.8-22.6 4.6-7.5 9.2-15.1 13.9-22.6h-36.2c-4.6 7.5-9.2 15.1-13.8 22.6s-9.2 15-13.8 22.6z" fill="url(#e)"/><path d="m143.2 115h36.1c4.6-7.5 9.2-15.1 13.8-22.6s9.2-15.1 13.9-22.6h-36.1c-4.6 7.5-9.2 15.1-13.8 22.6-4.7 7.5-9.3 15-13.9 22.6z" fill="url(#f)"/><path d="m63.8 24.6h-36.1c-4.6 7.5-9.2 15.1-13.8 22.6-4.7 7.5-9.3 15.1-13.9 22.6h36.1c4.6-7.5 9.2-15 13.8-22.6 4.6-7.5 9.2-15.1 13.9-22.6z" fill="url(#g)"/><path d="m15 45.2h36.1c4.6-7.5 9.2-15.1 13.8-22.6 4.7-7.5 9.3-15.1 13.9-22.6h-36.1c-4.6 7.5-9.2 15-13.8 22.6-4.6 7.5-9.2 15.1-13.9 22.6z" fill="url(#h)"/><path d="m15 94.3h36.1c4.6 7.5 9.2 15.1 13.8 22.6s9.2 15.1 13.8 22.6h-36.1c-4.6-7.5-9.3-15-13.9-22.6-4.5-7.5-9.1-15-13.7-22.6z" fill="url(#i)"/><path d="m106.5 45.2h-36.1c-4.6-7.5-9.2-15.1-13.8-22.6-4.7-7.5-9.3-15.1-13.9-22.6h36.1c4.6 7.5 9.2 15 13.8 22.6 4.7 7.5 9.3 15.1 13.9 22.6z" fill="url(#j)"/></svg>