<svg height="158" preserveAspectRatio="xMidYMid" viewBox="0 0 256 158" width="256" xmlns="http://www.w3.org/2000/svg"><path d="m238.371257 157.892216h-219.9760474c-9.96407188 0-18.3952096-8.431138-18.3952096-18.39521v-121.1017964c0-9.96407188 8.43113772-18.3952096 18.3952096-18.3952096h219.2095804c9.964072 0 18.39521 8.43113772 18.39521 18.3952096v121.1017964c0 9.964072-7.664671 18.39521-17.628743 18.39521zm-219.9760474-145.6287429c-3.0658683 0-6.1317365 3.0658682-6.1317365 6.1317365v121.1017964c0 3.832335 3.0658682 6.131737 6.1317365 6.131737h219.2095804c3.832336 0 6.131737-3.065869 6.131737-6.131737v-121.1017964c0-3.8323353-3.065868-6.1317365-6.131737-6.1317365zm18.3952096 108.8383229v-84.3113768h24.5269461l24.5269461 30.6586826 24.5269456-30.6586826h24.526947v84.3113768h-24.526947v-48.2874247l-24.5269456 30.6586827-24.5269461-30.6586827v48.2874247zm154.0598798 0-36.790419-40.6227541h24.526946v-43.6886227h24.526946v42.9221557h24.526947z"/></svg>