<svg height="208" preserveAspectRatio="xMidYMid" viewBox="0 0 256 208" width="256" xmlns="http://www.w3.org/2000/svg"><path d="m15.6235294 35.0117647v87.5294113l15.0588235-8.470588v-70.5882351z" fill="#949494"/><path d="m.56470588 114.070588v-105.41176447l89.41176472 50.82352937v17.882353l-74.3529412-42.3529412v87.5294113z" fill="#efefef"/><path d="m181.270588 8.65882353v105.41176447l-60.235294 33.882353-15.058823-9.411765 60.235294-33.882352v-70.5882358l-76.2352944 43.2941177v-17.882353z" fill="#949494"/><path d="m166.211765.18823529-75.2941179 42.35294121-75.2941177-42.35294121-15.05882352 8.47058824 89.41176472 50.82352937 91.2941174-50.82352937z" fill="#d6d6d6"/><path d="m151.152941 42.5411765v53.6470588l15.058824 8.4705887v-70.5882358z" fill="#efefef"/><path d="m75.8588235 138.541176 75.2941175-42.3529407 15.058824 8.4705887-60.235294 33.882352 59.294117 33.882353 60.235294-33.882353 15.058824 8.470589-75.294118 42.352941z" fill="#d6d6d6"/><path d="m75.8588235 138.541176v17.882353l89.4117645 50.82353v-17.882353z" fill="#efefef"/><path d="m240.564706 147.011765v-52.7058826l-15.058824-8.4705883v52.7058819z" fill="#efefef"/><path d="m165.270588 189.364706 75.294118-42.352941v-52.7058826l15.058823-8.4705883v70.5882349l-90.352941 50.82353z" fill="#949494"/><path d="m255.623529 85.8352941-15.058823 8.4705883-15.058824-8.4705883 15.058824-8.4705882z" fill="#d6d6d6"/><path d="m240.564706 77.3647059v-17.882353l15.058823-8.4705882v17.8823529z" fill="#949494"/><path d="m240.564706 59.4823529v17.882353l-15.058824-8.4705883v-17.8823529z" fill="#efefef"/><path d="m255.623529 51.0117647-15.058823 8.4705882-15.058824-8.4705882 15.058824-8.4705882z" fill="#d6d6d6"/></svg>