<svg height="131" preserveAspectRatio="xMidYMid" viewBox="0 0 256 131" width="256" xmlns="http://www.w3.org/2000/svg"><g stroke-width=".09375"><path d="m63.1816647 4.19975875c.9264173-1.57490953 2.1307599-3.08805791 3.8600723-3.8291918.7102533-.12352232 1.4205067-.06176116 2.13076-.06176116h34.956815c-1.019059.86465621-2.007237 1.760193-2.68661 2.93365501-1.7910735 2.933655-2.9954161 6.20699638-4.107117 9.4803378-3.149819 9.8817852-5.3423401 20.0414957-7.4731001 30.2012062-.9572979 4.6012063-1.8837153 9.2332931-2.7483715 13.8344994-2.6557298 15.0697226-5.4041013 30.1085646-8.8318456 45.0238838-1.6366707 6.88637-3.304222 13.772739-5.8364294 20.412063-1.173462 2.748372-2.3160435 5.682027-4.5703257 7.720145-.5249699.463209-1.0499397 1.04994-1.7910736.957298h-30.880579c-2.0998794-.061761-4.1688782.123522-6.2687576-.092642 1.3896261-1.08082 2.6248492-2.377804 3.4277443-3.921833 2.3160434-4.415923 3.7674306-9.202413 5.1570567-13.958022 2.1616405-7.658384 3.890953-15.4094091 5.5276236-23.1604344 1.0190591-5.0952955 2.2234017-10.1597105 2.9645356-15.2858866.8337757-5.7129071 2.0998794-11.3640531 3.1189385-17.0460796 1.6057901-8.3686369 3.304222-16.7372738 5.1879373-25.0441496 1.5131484-6.4849216 3.0571773-12.9389626 5.1261761-19.2694813 1.0190591-3.0571773 2.1307599-6.08347406 3.7365501-8.89360675z" fill="#eb7077" stroke="#eb7077"/><path d="m104.129312.30880579c.895537 0 1.791074-.03088058 2.686611 0 1.976357 1.04993969 3.643908 2.71749095 4.570325 4.78648975 1.235224 2.346924 2.254283 4.81737032 3.1807 7.34957776 3.088058 9.542099 5.187937 19.3621231 7.287817 29.1512666 1.791073 8.7700845 3.489505 17.5710495 5.095295 26.4028951.123523.4632087-.03088 1.1117008.586731 1.2352231-2.223401 11.6110978-4.415922 23.253076-7.195175 34.7715319-1.513148 6.206996-3.118938 12.383112-5.404101 18.373945-1.235223 2.995416-2.501327 6.268757-5.126176 8.399517-1.667551.370567-2.871894-.895537-3.890953-2.038118-1.760193-2.254282-2.841013-4.910012-3.890953-7.565742-3.4895054-9.511218-5.6202653-19.423884-7.7819059-29.3056694-1.6366706-7.6892642-3.0880579-15.4402895-4.6012062-23.1604343-.6793728-3.9218335-1.6057901-7.7819059-2.13076-11.7037394-.0926417-.0617612-.3088058-.1852835-.4014475-.2470447.8646562-4.6012063 1.7910736-9.2332931 2.7483715-13.8344994 2.13076-10.1597105 4.3232811-20.319421 7.4731001-30.2012062 1.1117009-3.27334142 2.3160435-6.5466828 4.107117-9.4803378.679373-1.17346201 1.667551-2.0689988 2.68661-2.93365501z" fill="#f6a2ad" stroke="#f6a2ad"/><path d="m142.760917 5.65114596c1.111701-2.13075995 2.470446-4.50856454 4.879131-5.31145959 12.25959-.06176116 24.51918-.03088058 36.77877-.03088058-1.142582 1.14258142-2.346924 2.28516285-3.118939 3.73655006-2.377804 4.2615199-3.76743 8.98624845-5.187937 13.64921595-3.643908 12.8463208-6.206996 25.9705669-8.646562 39.094813-2.254282 12.9389626-4.662967 25.8779252-7.411339 38.7551267-1.420507 6.4849215-2.902774 12.9389625-4.78649 19.3312425-1.204342 3.952714-2.470446 7.936309-4.446803 11.611098-.957298 1.667551-2.068999 3.489505-3.890953 4.354161-11.70374.092642-23.43836 0-35.142099.030881-.648492 0-1.327865 0-1.976357-.092642 2.624849-2.13076 3.890953-5.404101 5.126176-8.399517 2.285163-5.990833 3.890953-12.166949 5.404101-18.373945 2.779253-11.5184559 4.971774-23.1604341 7.195175-34.7715319 2.686611-14.9770808 5.496743-29.9541616 9.078891-44.7459589 1.667551-6.3922799 3.273341-12.8772015 6.145235-18.83715324z" fill="#eb7077" stroke="#eb7077"/><path d="m184.418818.30880579c.988178 0 2.007237-.03088058 2.995416 0 1.60579.83377563 2.748372 2.25428227 3.767431 3.70566948 1.667551 2.6557298 2.717491 5.65114596 3.798311 8.58480093 2.563088 7.8745477 4.477684 15.9652594 6.237877 24.0559711 2.346924 10.9008444 4.385042 21.8634499 6.39228 32.8260555.494089 2.6248492.988178 5.280579 1.296984 7.9363088.123522.1235223.370567.3705669.463209.4632087-1.111701 1.5440289-1.544029 3.3968637-2.161641 5.1570567-1.945476 6.2687575-3.21158 12.7536791-4.2924 19.20772-.833776 5.064415-1.976357 10.097949-3.551267 14.977081-1.173462 3.613028-2.593969 7.195175-4.940893 10.221472-1.1117 1.451387-2.624849 2.563088-4.2924 3.304222-2.563088.277925-4.076236-2.192522-5.31146-4.014476-2.563088-4.477684-3.952714-9.480337-5.434982-14.359469-4.879131-18.0651387-8.059831-36.5626055-11.487575-54.93655-.03088-.2779253-.185283-.5249699-.432328-.6484922 2.439566-13.1242461 5.002654-26.2484922 8.646562-39.094813 1.420507-4.6629675 2.810133-9.38769605 5.187937-13.64921595.772015-1.45138721 1.976357-2.59396864 3.118939-3.73655006z" fill="#f6a2ad" stroke="#f6a2ad"/><path d="m.03088058 70.562123c.80289505-.0617611 1.60579011-.1852834 2.43956574-.1852834h33.65983108c1.4205067.1852834 2.9027745.0617611 4.2615199.6793727 1.9763571.8028951 3.7365501 2.1616405 5.0335344 3.8600724.1544029-.0926418.4323281-.3396864.586731-.4632087-.7411339 5.1261761-1.9454765 10.1905911-2.9645356 15.2858866-1.6366706 7.7510253-3.3659831 15.5020504-5.5276236 23.1604344-1.3896261 4.755609-2.8410133 9.542099-5.1570567 13.958022-.8028951 1.544029-2.0381182 2.841013-3.4277443 3.921833-.5249698.092642-.9264173-.277925-1.3587454-.55585-1.4513873-.926418-2.2851629-2.532208-3.1806997-3.983595-4.2306393-9.634741-4.693848-20.28854-7.3186972-30.3556092-1.3278649-5.0335344-2.9645356-10.0361881-5.3732208-14.668275-1.4822677-2.7792521-3.30422191-5.4349819-5.68202649-7.5657419-1.76019301-1.4205066-3.79831122-2.563088-5.99083233-3.0880579z" fill="#f6a2ad" stroke="#f6a2ad"/><path d="m212.087817 73.7737033c1.945476-2.1925212 4.848251-3.5821472 7.781906-3.4586249h25.322074c3.520386.0617612 7.071653-.1235223 10.592039.0926417-1.04994.7102534-2.316043.9881786-3.427744 1.5749096-3.860073 1.760193-7.164295 4.693848-9.264174 8.3686369-3.365983 5.86731-4.539445 12.5992762-5.527624 19.2077201-.988178 6.4849213-.957298 13.1860073-3.057177 19.4856453-1.420507 4.415923-3.582147 8.862726-7.318697 11.765501-11.611098.123522-23.222196.03088-34.802413.061761-.772014 0-1.513148.03088-2.254282-.123522 1.667551-.741134 3.1807-1.852835 4.2924-3.304222 2.346924-3.026297 3.767431-6.608444 4.940893-10.221472 1.57491-4.879132 2.717491-9.912666 3.551267-14.977081 1.08082-6.4540409 2.346924-12.9389625 4.2924-19.20772.617612-1.760193 1.04994-3.6130278 2.161641-5.1570567.926417-1.3587455 1.544029-2.933655 2.717491-4.107117z" fill="#eb7077" stroke="#eb7077"/></g></svg>