<svg height="117" preserveAspectRatio="xMidYMid" viewBox="0 0 512 117" width="512" xmlns="http://www.w3.org/2000/svg"><path d="m491.117 105.048c-1.38 6.206-7.816 11.263-14.022 11.263h-466.854c-6.436 0-10.344-5.057-8.965-11.263l21.608-93.785c1.609-6.206 7.815-11.263 14.251-11.263h466.624c6.436 0 10.344 5.057 8.965 11.263z" fill="#f60"/><g fill="#fff"><path d="m210.912 43.444-10.344 48.961h-48.041c-5.287 0-9.425-2.068-12.413-6.436-2.988-4.367-3.678-9.424-2.528-14.941 1.149-5.747 4.137-10.574 8.734-14.941 4.828-4.368 9.885-6.436 15.172-6.436h31.261l1.149-5.287c.23-1.379 0-2.759-.689-3.678-.69-1.149-1.839-1.609-3.218-1.609h-41.376l3.678-17.7h42.295c5.747 0 10.344 2.069 13.562 6.666 2.988 4.138 4.138 9.425 2.758 15.401zm-49.88 20.458c-1.379 0-2.759.46-3.908 1.609-1.149 1.15-2.069 2.299-2.298 3.678-.23.69-.23 1.379 0 2.069.229.689.459 1.149.689 1.609.46.46.92.919 1.379 1.149.46.23 1.15.46 1.839.46h28.733l2.299-10.574zm91.716-7.126 15.4 35.629h-21.607l-7.815-20.687-16.55 20.687h-21.378l30.572-35.629-15.631-35.399h21.608l7.815 20.688 16.55-20.688h21.607z"/><path d="m330.442 39.077h-31.951c-1.61 0-3.219.69-4.598 1.839s-2.298 2.758-2.758 4.367l-5.057 22.987c-.46 1.839-.23 3.218.689 4.367.92 1.149 2.299 1.839 3.908 1.839h36.319l-3.908 17.7h-37.928c-5.746 0-10.343-2.069-13.562-6.437-3.218-4.367-4.137-9.654-2.988-15.63l5.747-26.665c1.379-5.976 4.367-11.263 9.424-15.631 5.057-4.367 10.574-6.665 16.321-6.665h33.79zm74.476 17.47c1.838-8.965 0-17.93-5.517-24.596-5.287-6.666-13.792-10.574-22.987-10.574h-32.41l-15.172 71.028h38.618c17.01-1.149 32.64-14.481 36.318-31.261zm-17.7-3.908-.92 4.597c-1.838 8.965-11.723 17.01-21.147 17.01h-13.792l7.356-34.939h17.699c3.678 0 6.896 1.379 8.965 3.678 2.069 2.528 2.529 5.976 1.839 9.654zm91.026-9.195-10.344 48.961h-16.78l10.114-47.122c.23-.919.23-1.609 0-2.298-.23-.69-.459-1.38-.919-2.069-.46-.46-.92-.92-1.609-1.379-.69-.23-1.379-.46-2.069-.46h-28.043l-11.494 53.328h-16.78l15.171-71.028h46.433c5.746 0 10.344 2.069 13.562 6.666 2.988 4.138 3.907 9.425 2.758 15.401zm-345.256-13.562c-4.367-5.516-11.263-8.505-18.619-8.505h-71.028l8.505 18.16-11.263 52.868h18.619l11.263-52.868h15.861l-11.263 52.868h18.619l11.263-52.868h9.424c2.069 0 3.678.689 4.598 1.839.919 1.149 1.379 2.988.919 4.827l-9.884 46.202h18.619l8.965-42.295c1.379-7.355-.23-14.711-4.598-20.228z"/></g></svg>