<svg height="329" preserveAspectRatio="xMidYMid" viewBox="0 0 256 329" width="256" xmlns="http://www.w3.org/2000/svg"><path d="m0 284.853385c4.3294326-1.908902 8.93010429-2.862403 13.3499434-2.862403 4.2390237 0 6.945204 1.039802 8.4780741 3.209702 3.2465509-2.167927 7.6664144-3.209702 11.0938003-3.209702 10.2841971 0 10.6438082 4.163129 10.6438082 16.393395v27.057818c0 1.214231.1808082 1.214231-4.9602609 1.214231v-28.793996c0-8.846014-.1808326-11.535668-6.0411021-11.535668-2.6157262 0-5.3218821.606104-8.2088682 2.515079v37.206385c-.0904053.347372-.2712208.433576-.8999915.519901-.0924836 0-.1808326.086301-.2732943.086301h-3.7890339v-28.791998c0-8.498885 0-11.622091-6.1314855-11.622091-2.6157482 0-5.23150121.519877-8.29929544 1.995349v37.206507c0 1.214231.18083499 1.214231-4.96023753 1.214231v-41.803041m67.81005267-2.862403c-7.6664144 0-16.1444666 2.167829-16.1444666 25.32566 0 17.866504 6.2219152 20.640608 14.7924046 20.640608 6.5815044 0 12.2650541-2.167805 12.2650541-3.209653 0-1.300605-.1808106-3.295881-.6308271-4.423981-2.7965612 1.908902-6.7664253 2.948606-11.184208 2.948606-6.0431366 0-10.101352-1.734229-10.1938137-15.176825 3.9698665 0 14.0732505-.086447 21.5588543-1.561652.6308295-2.862305.8999866-7.025483.8999866-10.666689 0-8.673167-3.5177912-13.876074-11.3629842-13.876074m-.4520485 4.33578c5.4123094 0 6.8547986 3.55471 6.9452039 10.493892 0 1.820457-.0904053 3.988359-.3616456 6.069887-5.0506638 1.214426-13.6212215 1.214426-17.2294204 1.214426.6349374-15.783051 6.0451904-17.778205 10.6458621-17.778205m19.6643142-.519901c4.236994-2.776077 8.1184897-3.815879 12.0862974-3.815879 4.4198366 0 6.4951656 1.214426 6.4951656 2.689874 0 .867029-.273272 2.342453-.723289 3.20958-1.263691-.694598-2.704099-1.300751-5.0527225-1.300751-2.8849102 0-5.5910856.778803-7.7547853 2.687705v36.166876c0 1.214304.0904272 1.214304-5.0506662 1.214304zm45.536202-.953476c0-1.128101-3.786975-2.862403-7.576009-2.862403-7.308879 0-16.236948 2.515128-16.236948 23.936537 0 20.293382 5.414364 22.115959 14.882832 22.115959 4.689023 0 8.930125-2.514982 8.930125-3.902034 0-.780923-.178778-1.9953-.632883-3.037002-1.894516 1.387003-4.779426 2.689654-7.845169 2.689654-6.493131 0-10.282187-1.820554-10.282187-17.605554 0-17.433002 6.221918-19.86178 11.634227-19.86178 3.065743 0 4.779446.867127 6.493129 1.995154.454105-1.039729.632883-2.515055.632883-3.468531m34.551283 40.329761c-3.969864 1.995203-9.199306 2.776053-13.709572 2.776053-11.545852 0-13.259557-4.855461-13.259557-16.391251v-27.146117c0-1.126005-.088351-1.126005 5.052742-1.126005v28.794167c0 8.67329 1.261633 11.622066 8.025982 11.622066 2.61577 0 6.223969-.519925 8.930123-2.081576v-37.206581c0-1.126078-.180809-1.126078 4.960282-1.126078zm10.286254-39.376285c4.236948-2.776077 8.116406-3.815879 12.084217-3.815879 4.419814 0 6.495163 1.214426 6.495163 2.689874 0 .867029-.271236 2.342453-.721255 3.20958-1.263688-.694598-2.706107-1.300751-5.052696-1.300751-2.88491 0-5.59109.778803-7.756822 2.687705v36.166876c0 1.214304.092462 1.214304-5.048607 1.214304zm30.160136-2.515104c-3.96982 0-5.141047 0-5.141047 2.342429v41.02224c5.050666 0 5.141047 0 5.141047-1.214231zm-5.321885-15.263247c0 2.862402.90207 3.90218 2.704105 3.988407 2.075348 0 3.067799-1.473279 3.067799-4.076682.090405-2.687754-.632886-3.902107-2.706156-3.902107-1.982843 0-2.97534 1.475351-3.065748 3.990382m13.878053 17.778351c0-.953476.180815-1.475351.542458-1.734326 1.713703-.953477 8.299286-2.081553 15.784909-2.081553 5.683511 0 9.289685 2.689874 9.289685 10.493917v5.636409c0 15.437774-.450016 26.973588-.450016 26.973588-2.07529 1.126005-5.952717 2.862354-12.269126 2.862354-6.493126.086228-12.986281-.519974-12.986281-13.356295 0-12.228219 6.673966-14.137097 13.347927-14.137097 2.525331 0 5.502725.260877 7.487646 1.041727v-8.067185c0-5.636336-2.88493-6.850738-6.314363-6.850738-4.598647 0-11.001363.867127-13.797921 2.167878-.542432-.953476-.634918-2.428778-.634918-2.948679m20.745131 19.255529c-1.713669-.608224-4.148607-.867102-5.862324-.867102-5.141079 0-9.832141 1.039802-9.832141 10.580291 0 8.932216 3.879449 9.020613 8.478023 9.020613 2.886976 0 5.774001-.780777 6.764403-1.820555.002047-.002095.452039-10.40976.452039-16.913247m19.140343 20.379805c0 1.214231.090418 1.214231-4.962315 1.214231v-61.403945c0-2.342477.992449-2.342477 4.962315-2.342477z" fill="#010101"/><g fill="#1b1a1b"><path d="m239.1503 190.972623c45.729212-76.033572-9.657903-199.349037-110.932123-186.82102927-91.5032464 11.31181727-92.9776243 107.62244427-12.33473 130.50209227 69.786442 19.81723 14.417333 64.081702 16.035179 93.558433 1.624668 29.472295 60.668736 40.165006 107.231674-37.239496z"/><path d="m81.3330165 238.91094c21.0743165-5.542391 33.6860415-27.198228 28.1690765-48.369667-5.516966-21.171438-27.0734594-33.841285-48.1477762-28.298894s-33.6860419 27.198228-28.1690763 48.369666c5.5169656 21.171439 27.0734592 33.841285 48.147776 28.298895z"/><path d="m23.7809019 90.9691002c-14.18917622 1.3798354-24.57593839 14.0422398-23.20244195 28.2968048 1.37610399 14.264513 13.97989235 24.707249 28.17154015 23.326763 14.1871129-1.397895 24.582582-14.057278 23.203485-28.313028-1.3789836-14.245151-13.9809354-24.6910266-28.1725832-23.3105398z"/></g><path d="m239.343794 187.560035c45.441836-75.901577-9.594211-199.0019141-110.226508-186.49576312-90.9232536 11.29208292-92.3901229 107.43783312-12.258374 130.27756512 69.344102 19.782658 14.325947 63.969908 15.934189 93.397701 1.616197 29.417736 60.282893 40.089949 106.550693-37.179503z" fill="#bfbfbf"/><path d="m144.453295 236.352561c-2.753729-4.486992 1.457346-9.471633 5.785829-9.092616 6.890068.606212 21.891894-.081161 33.72923-6.821661 29.57327-16.842003 75.083925-97.879864 52.194459-148.9918834-10.247447-22.8799656-15.237267-29.4309728-25.790491-40.6229274-2.152842-2.2825686-.916935-2.1585016.540871-1.3859173 5.706809 3.0087866 15.735059 14.663012 26.021369 33.6316696 17.37952 32.0485037 16.478241 70.1483935 10.014434 94.0483785-4.502467 16.626358-20.010719 54.238838-42.722494 70.50138-22.76288 16.2999-49.397789 25.648527-59.773207 8.733577z"/><path d="m123.846729 131.186237c-15.493501-4.620385-35.4672339-11.054756-47.0202493-26.235642-8.5167663-11.1933893-12.8402815-23.409848-13.9444071-30.3370109-.3928098-2.4717306-.7264849-4.5338277-.0177086-5.1028947.3279159-.2642865 6.3597137 13.4321911 15.3767887 24.9112133 9.015261 11.4821613 21.615875 18.1973833 32.1130613 20.6372603 9.336633 2.168437 28.676876 6.933137 35.220351 12.53343 6.72706 5.756635 7.288567 18.194483 5.024865 19.597674-2.282861 1.410887-6.911948-10.090087-26.752701-16.00403z"/><path d="m155.79378 238.546753c-.299045 3.562514 3.774132 4.26114 9.25686 3.435727 7.027524-1.058918 12.970516-1.853899 21.059123-5.926362 10.962583-5.519237 22.057278-13.414417 30.182684-24.065696 24.242873-31.775272 32.827572-69.371299 31.505546-74.779578-.441782 4.466375-6.294264 27.910613-19.678727 49.046637-17.190081 27.148758-29.655572 41.609496-58.404828 48.620266-8.000847 1.952691-13.52913-1.020672-13.920658 3.669006z" fill="#fff"/><path d="m92.0301727 114.985947c3.27442 2.79014 9.9833863 6.507985 23.1842003 10.85704 15.943629 5.251399 23.706404 9.805552 26.957374 11.987996 3.444872 2.317471 5.628279 7.488583 5.843977 2.895647.224952-4.598028-2.596147-8.551752-8.890634-10.648619-4.258641-1.420497-11.422595-4.80343-18.289945-6.165006-4.412773-.875053-11.592109-2.611654-17.749046-4.505528-3.3743456-1.041857-6.8125649-2.866799-11.0559263-4.42153z" fill="#fff"/><path d="m81.3225018 235.830867c20.9906882-5.542391 33.5523672-27.198228 28.0572942-48.369666-5.495073-21.171439-26.9660248-33.841285-47.9567134-28.298895-20.9906885 5.542391-33.552367 27.198228-28.0572941 48.369667 5.4950728 21.171438 26.9660247 33.841285 47.9567133 28.298894z" fill="#bfbfbf"/><path d="m47.9838129 226.374533c30.559134 28.560956 76.5566551-10.671279 56.3020231-45.322658-2.274446-3.890486-5.2274151-6.852426-4.256266-3.872115 6.473077 19.924866.491548 35.686849-10.669156 43.807721-10.9429456 7.965043-25.9838866 9.297649-38.0254246 3.000766-3.536097-1.848636-5.0026559.845208-3.3511765 2.386286z"/><path d="m71.9622106 232.240804c3.8906711-.825344 26.5195193-6.73649 31.8355784-25.509018 1.655702-5.852982 1.95298-4.677177 1.485145-1.505595-2.388067 16.187072-17.5581 28.127609-30.4666507 28.570315-2.6195118.271774-6.0564861-.880219-2.8540727-1.555702z" fill="#fff"/><path d="m23.9987528 87.8890228c-14.13284739 1.3798354-24.47839226 14.0422392-23.1103462 28.2968022 1.36998832 14.262025 13.9244166 24.707252 28.0572866 23.327417 14.1332765-1.398548 24.4868614-14.060417 23.1107528-28.315515-1.3710498-14.2458027-13.9223615-24.689191-28.0576932-23.3087042z" fill="#bfbfbf"/><path d="m12.3352314 133.418225c.1567127 1.8321 2.6445578 4.18579 6.5530705 5.266433 3.3578388.928407 12.0139625 3.301556 23.1341727-3.777539 11.1202101-7.079096 12.4024583-26.014252 7.3473841-31.583475-1.5647556-2.820918-3.5996042-4.874619-1.9805558-.372606 4.0887131 11.36775-3.8562751 22.001166-10.7090397 26.925064-6.850303 4.923248-15.5383609 2.593349-19.0859534 1.502443-3.5475698-1.090905-5.4183206.147128-5.2590784 2.03968z"/><path d="m26.685453 135.961805c1.0191859-.92549 6.17869-.547197 10.8370929-3.074023 4.6559412-2.526177 10.1901195-8.063896 11.1776647-15.93283.5817499-4.620725.7564623-3.460386.9880646-.943847-.7226309 13.08193-12.6504794 20.307842-19.4719873 21.261281-1.8407136.257484-5.0800751.100329-3.5308349-1.310581z" fill="#fff"/><path d="m230.728662 138.253287c19.270648-56.0229185-21.055303-140.6276453-102.63548-130.45028816-73.7129887 9.19229646-74.9016474 87.44549896-9.938408 106.03747516 73.584633 11.234598 29.275009 67.222624 22.989484 95.456422-5.635087 25.308964 59.46729 29.474296 89.584404-71.043609z" fill="#999"/><path d="m180.30733 182.012569c-19.934643-2.488129-48.621766 42.906762-21.572913 37.590416 27.044567-5.312541-27.048853 5.316346 0 0 13.000891-1.944604 23.771464-6.574259 33.413295-17.674304 12.571717-14.469957 31.351731-45.726428 36.78325-65.921922 4.575406-17.027687 2.275602-43.4091608-2.440964-18.62175-4.8374 25.438492-26.248027 67.115691-46.182668 64.62756z" fill="#f3f3f3"/><path d="m46.4000413 218.323523c4.6152442.078199 7.4069164.733568 12.0804734 4.041097 9.238506 3.87201 26.2201188 1.418459 34.0618062-8.993688 7.8416871-10.412164 8.0991711-24.758443 5.1114447-33.427301-7.3088552-21.216258-38.3592663-20.84113-52.2306097-3.227098-15.0055061 19.670042-3.6383815 41.52879.9768854 41.60699z" fill="#999"/><path d="m5.18306623 120.00702c.91990512 2.921815 3.27046007 7.185015 8.23413547 7.895725 6.6282537.949049 7.983359 3.96958 15.8101633 2.402581 7.8268044-1.567 13.7594155-8.036377 16.133413-15.192478 2.7179117-9.901668-1.3516499-15.013603-7.4763633-19.5775832-6.1246908-4.5639801-19.5977821-4.0731993-27.6382794 3.3194735-5.71413026 5.2504037-7.30271235 14.0386837-5.06306907 21.1522817z" fill="#999"/><path d="m31.2127765 126.554998c6.0139372-1.587927 13.9675978-9.853217 10.0190431-16.163707-4.8715539-7.775503-18.4439484-1.11987-18.9029299 7.53694-.4607882 8.659946 2.5099326 10.309749 8.8838868 8.626767z" fill="#f3f3f3"/><path d="m76.3700855 219.836081c5.131206-1.354861 20.8510546-7.806844 17.8984916-30.856302-1.4943376-11.675421-7.8081045 14.490385-19.4996531 18.40388-17.7131646 5.92864-15.7231685 17.026748 1.6011615 12.452422z" fill="#f3f3f3"/></svg>