<svg height="256" preserveAspectRatio="xMidYMid" viewBox="0 0 256 256" width="256" xmlns="http://www.w3.org/2000/svg"><path d="m254.2233 128c0 69.711-56.512 126.223-126.223 126.223-69.712 0-126.224-56.512-126.224-126.223s56.512-126.223 126.224-126.223c69.711 0 126.223 56.512 126.223 126.223" fill="#fefefe"/><path d="m128 0c-70.692 0-128 57.308-128 128s57.308 128 128 128 128-57.308 128-128-57.308-128-128-128m0 5.126c16.59 0 32.681 3.248 47.827 9.654 14.631 6.188 27.772 15.049 39.058 26.335s20.147 24.427 26.335 39.058c6.406 15.146 9.654 31.237 9.654 47.827s-3.248 32.681-9.654 47.826c-6.188 14.632-15.049 27.773-26.335 39.059s-24.427 20.147-39.058 26.335c-15.146 6.406-31.237 9.654-47.827 9.654s-32.681-3.248-47.827-9.654c-14.631-6.188-27.772-15.049-39.058-26.335s-20.147-24.427-26.335-39.059c-6.406-15.145-9.654-31.236-9.654-47.826s3.248-32.681 9.654-47.827c6.188-14.631 15.049-27.772 26.335-39.058s24.427-20.147 39.058-26.335c15.146-6.406 31.237-9.654 47.827-9.654m-31.2466 168.0903v-100.171h16.873l14.31 46.134 14.657-46.134h16.099v100.171h-11.64v-83.084l-12.148 39.513h-13.616l-12.361-39.513v83.084z" fill="#474749"/></svg>