<svg height="187" preserveAspectRatio="xMidYMid" viewBox="0 0 256 187" width="256" xmlns="http://www.w3.org/2000/svg" xmlns:xlink="http://www.w3.org/1999/xlink"><linearGradient id="a" x1=".023815%" x2="100.04763%" y1="49.980907%" y2="49.980907%"><stop offset="0" stop-color="#9351e5"/><stop offset="1" stop-color="#ef468b"/></linearGradient><path d="m128.09145 186.802572c-4.023815 0-7.803762-2.194808-10.425339-5.974756l-41.7013575-61.637533-58.7111217 36.15337c-2.3167421 1.463206-4.694451 2.133842-7.0111931 2.133842-4.93831867 0-10.2424387-3.658014-10.2424387-11.766611v-129.737557c0-5.8528221 3.29221243-11.33984284 8.47439867-14.0833532 2.19480833-1.70707311 5.30412003-1.8899738 7.55989523-1.8899738h224.0533461c2.987378 0 5.30412.54870207 7.011193 1.64610622 5.426054 2.68254346 8.901167 8.29149797 8.901167 14.32722078v99.558943c0 3.353179-.97547 6.340557-2.865444 8.535365-2.011908 2.377709-4.938319 3.718981-8.169564 3.718981-2.011908 0-4.145749-.487735-6.218624-1.524173l-47.615146-23.472255-52.736366 77.976661c-2.499643 3.840915-6.27959 6.035723-10.303406 6.035723zm-42.981662-73.221243 41.396523 61.210764c.609669.914504 1.219338 1.280305 1.585139 1.280305.365802 0 .975471-.426768 1.58514-1.280305l51.943796-76.7573228-39.567516-19.509407zm-74.8063824 33.287926v5.365087zm.4267683-124.1895694v123.0921644c0 .426769.0609668.731603.0609668.975471.2438676-.060967.4877352-.243868.8535366-.426768l58.3453203-35.97047zm186.5587041 71.2093356 46.273875 22.8016198c1.280305.609669 1.646106.426768 1.646106.426768 0-.060967.243868-.548702.243868-1.585139v-92.8525844zm-176.1943317-74.9283163 58.0404859 85.7804241 51.5779948-31.7637534zm131.6275307 52.9802334 34.873065 17.1926649 44.871636-66.3319838zm-124.4334368-61.3326982 113.1545608 55.7237437 90.535842-55.7237437z" fill="url(#a)"/></svg>