<svg height="251" preserveAspectRatio="xMidYMid" viewBox="0 0 256 251" width="256" xmlns="http://www.w3.org/2000/svg"><g fill="#df4f4f"><path d="m.43860078.43823749 218.86179222 231.82763451s7.456213 5.25885 13.158024-.876475c5.701809-6.135325 1.315802-12.27065 1.315802-12.27065z"/><path d="m69.7375247 22.3501121 166.6682983 179.6773729s7.456214 5.258849 13.158024-.876476c5.70181-6.135324 1.315803-12.270649 1.315803-12.270649z"/><path d="m21.0528376 69.2415241 166.6682984 179.6773719s7.456214 5.25885 13.158024-.876474c5.70181-6.135325 1.315802-12.270651 1.315802-12.270651z"/><path d="m128.320766 41.1943244 116.441189 125.5298516s5.209211 3.674045 9.192725-.612341c3.983515-4.286384.919272-8.57277.919272-8.57277z"/><path d="m37.0918028 123.582973 116.4411882 125.529852s5.209212 3.674045 9.192725-.612341c3.983515-4.286385.919273-8.57277.919273-8.57277z"/><path d="m188.159737 68.3650492 52.775067 57.0671568s2.576827 1.721563 4.547343-.286928c1.970515-2.008491.454734-4.016983.454734-4.016983z"/><path d="m66.2287188 181.430322 52.7750672 57.067157s2.576827 1.721564 4.547343-.286927c1.970514-2.008492.454734-4.016983.454734-4.016983z"/></g></svg>