<svg height="110" preserveAspectRatio="xMidYMid" viewBox="0 0 512 110" width="512" xmlns="http://www.w3.org/2000/svg"><path d="m511.873981 49.436472v-9.002089h-11.178981v-13.9952031l-.376275.1157447-10.499986 3.2123791-.206731.0631334v10.6039459h-16.572534v-5.9066925c0-2.7506383.615242-4.855706 1.827157-6.2594971 1.203868-1.3870793 2.925802-2.0920696 5.121237-2.0920696 1.578956 0 3.213617.3719923 4.858182 1.1054545l.412225.1838298v-9.4805416l-.193733-.0711798c-1.534391-.5514894-3.622128-.8294004-6.208743-.8294004-3.260658 0-6.223598.709323-8.807118 2.1155899-2.585377 1.4081238-4.619265 3.4184913-6.043482 5.9747776-1.419884 2.5531915-2.140348 5.5018955-2.140348 8.765029v6.4947002h-7.783984v9.002089h7.783984v37.9240232h11.174623v-37.9240232h16.572534v24.1002707c0 9.9255706 4.681779 14.9558221 13.914739 14.9558221 1.517679 0 3.11399-.1782592 4.744913-.5267311 1.659444-.3571374 2.789657-.7142747 3.455009-1.0955513l.147312-.0866538v-9.0856479l-.454314.3008123c-.606576.4047969-1.361702.7347002-2.247402.9798066-.889464.250058-1.632211.375706-2.207196.375706-2.163274 0-3.763249-.5830561-4.756698-1.7330754-1.003945-1.1605416-1.513321-3.1907157-1.513321-6.0298646v-22.1548936zm-82.747791 29.9187001c-4.056016 0-7.25354-1.3449903-9.507157-3.9941199-2.267234-2.6627466-3.416016-6.4588007-3.416016-11.2817021 0-4.9757834 1.148782-8.8702515 3.417254-11.5800387 2.254855-2.6918375 5.42205-4.0578723 9.414932-4.0578723 3.874662 0 6.958917 1.3047582 9.167969 3.8802321 2.220813 2.5884719 3.347312 6.4519922 3.347312 11.4859574 0 5.0958608-1.059652 9.0101354-3.149246 11.6283172-2.074739 2.5989942-5.194894 3.9192263-9.275048 3.9192263zm.49764-40.0513733c-7.738182 0-13.88441 2.2672341-18.265996 6.7391877-4.379111 4.4725725-6.599923 10.6615087-6.599923 18.3972147 0 7.3470019 2.167582 13.2567891 6.442708 17.5622437 4.275126 4.3073114 10.093307 6.4891296 17.291141 6.4891296 7.501122 0 13.524797-2.2988008 17.905145-6.8326499 4.379729-4.5295165 6.598685-10.6596519 6.598685-18.2146229 0-7.4621276-2.082166-13.4158607-6.190793-17.6928433-4.110484-4.2788394-9.892147-6.4476596-17.180967-6.4476596zm-42.882788-.0002475c-5.263598 0-9.617331 1.3462282-12.943598 4.0009284-3.346073 2.6701741-5.043249 6.1728433-5.043249 10.4108317 0 2.2028627.366421 4.16 1.087505 5.8194197.725416 1.6656093 1.848201 3.131296 3.339265 4.3617795 1.480541 1.2205803 3.764487 2.4993424 6.792417 3.7997679 2.544527 1.0472728 4.442863 1.9336171 5.648588 2.6317989 1.178492.6839458 2.01532 1.3722243 2.487583 2.0419342.458646.6554739.691992 1.5523404.691992 2.6602708 0 3.1523404-2.360696 4.6861122-7.218878 4.6861122-1.80178 0-3.857331-.375706-6.109091-1.1178337-2.252998-.7408897-4.358066-1.8061122-6.255784-3.172147l-.463597-.3323791v10.7580658l.170213.0792263c1.581431.7297485 3.574468 1.3449903 5.924023 1.8296325 2.345222.4846421 4.475667.7316054 6.326963.7316054 5.711722 0 10.31118-1.3530368 13.667157-4.0232108 3.37764-2.6887428 5.089671-6.2737331 5.089671-10.6590329 0-3.1628627-.921625-5.8757447-2.738259-8.0631335-1.803637-2.170058-4.934314-4.1618568-9.301664-5.9227853-3.479149-1.3963636-5.708007-2.5556673-6.627156-3.4451064-.886345-.8597292-1.336325-2.0753578-1.336325-3.6147002 0-1.3647969.555203-2.4578723 1.695938-3.3435976 1.1494-.8900581 2.748781-1.3425145 4.755435-1.3425145 1.861818 0 3.766963.2940038 5.660967.8702514 1.893385.5762476 3.555899 1.3480851 4.944217 2.2926112l.45617.3119536v-10.2053385l-.175164-.0755126c-1.280619-.5490135-2.96913-1.0188007-5.01973-1.4000773-2.042553-.3775629-3.895087-.5688201-5.505609-.5688201zm-47.118607 40.0516208c-4.054778 0-7.25354-1.3449903-9.506538-3.9941199-2.267853-2.6627466-3.414778-6.4575628-3.414778-11.2817021 0-4.9757834 1.148163-8.8702515 3.417254-11.5800387 2.252998-2.6918375 5.419574-4.0578723 9.414313-4.0578723 3.873424 0 6.957679 1.3047582 9.16735 3.8802321 2.220813 2.5884719 3.347312 6.4519922 3.347312 11.4859574 0 5.0958608-1.060271 9.0101354-3.149865 11.6283172-2.074739 2.5989942-5.193656 3.9192263-9.275048 3.9192263zm.498878-40.0513733c-7.740039 0-13.886267 2.2672341-18.265996 6.7391877-4.379111 4.4725725-6.601161 10.6615087-6.601161 18.3972147 0 7.3500967 2.16882 13.2567891 6.443946 17.5622437 4.275126 4.3073114 10.092689 6.4891296 17.291141 6.4891296 7.499265 0 13.524797-2.2988008 17.905145-6.8326499 4.378492-4.5295165 6.598685-10.6596519 6.598685-18.2146229 0-7.4621276-2.082785-13.4158607-6.192031-17.6928433-4.111721-4.2788394-9.892147-6.4476596-17.179729-6.4476596zm-41.82988 9.2568511v-8.1262669h-11.038453v46.9248743h11.038453v-24.0037138c0-4.0820116.925338-7.4348936 2.751257-9.9676596 1.803017-2.5024371 4.205803-3.7706769 7.139033-3.7706769.994042 0 2.110019.1640232 3.318839.4883559 1.196441.3224758 2.062979.6721856 2.574236 1.0404642l.463598.3360928v-11.1282011l-.178878-.0767505c-1.028085-.4369826-2.482012-.6573308-4.322167-.6573308-2.773539 0-5.25617.891296-7.382282 2.6460348-1.866151 1.5424372-3.215474 3.6574082-4.246654 6.2947776zm-30.805723-9.2570986c-5.063675 0-9.580813 1.0862669-13.423288 3.226615-3.849904 2.1452999-6.82708 5.2085107-8.852921 9.1035977-2.016557 3.8858027-3.04031 8.4246035-3.04031 13.4858027 0 4.4335784.992805 8.5025919 2.954894 12.0882012 1.963327 3.5917988 4.742437 6.4018569 8.259961 8.3509478 3.512573 1.9466151 7.572302 2.9338491 12.067157 2.9338491 5.245648 0 9.72441-1.0491296 13.31559-3.11706l.144836-.083559v-10.1124951l-.463598.3385686c-1.626615 1.1846809-3.444487 2.1304449-5.400387 2.8119149-1.950948.6808511-3.729826 1.0249904-5.288975 1.0249904-4.33145 0-7.808124-1.3555126-10.332224-4.0269246-2.529671-2.6757447-3.812147-6.4321857-3.812147-11.1597679 0-4.7572921 1.337563-8.6102901 3.973694-11.4537718 2.627466-2.8348162 6.110948-4.2726499 10.35265-4.2726499 3.628317 0 7.163791 1.2286267 10.508627 3.6549323l.46236.3360929v-10.6553192l-.149169-.0841779c-1.258955-.7043714-2.975319-1.2861896-5.107002-1.7275048-2.121779-.4400774-4.197137-.6622824-6.169748-.6622824zm-32.918901 1.1309555h-11.038453v46.9248742h11.038453zm-5.406577-19.9904062c-1.816634 0-3.40116.6183365-4.702824 1.8438685-1.307234 1.2292456-1.970754 2.7766344-1.970754 4.6025531 0 1.7974469.655474 3.3163637 1.94971 4.5128047 1.286189 1.1927273 2.875667 1.7974468 4.723868 1.7974468 1.847582 0 3.44325-.6047195 4.744913-1.7955899 1.310329-1.1982979 1.974468-2.7172147 1.974468-4.5146616 0-1.7621663-.646189-3.2940812-1.920619-4.5530367-1.272572-1.2564797-2.887427-1.8933849-4.798762-1.8933849zm-27.540985 16.5283404v50.3866925h11.26499v-65.4780658h-15.59087l-19.817718 48.6350484-19.231566-48.6350484h-16.225919v65.4780658h10.585996v-50.3916441h.363946l20.30793 50.3916441h7.988859l19.991025-50.3866925z" fill="#706d6e"/><path d="m51.9266538 51.9266538h-51.9266538v-51.9266538h51.9266538z" fill="#f1511b"/><path d="m109.259884 51.9266538h-51.9260349v-51.9266538h51.9260349z" fill="#80cc28"/><path d="m51.9254159 109.280309h-51.9254159v-51.9266533h51.9254159z" fill="#00adef"/><path d="m109.259884 109.280309h-51.9260349v-51.9266533h51.9260349z" fill="#fbbc09"/></svg>