<svg height="256" preserveAspectRatio="xMidYMid" viewBox="0 0 256 256" width="256" xmlns="http://www.w3.org/2000/svg" xmlns:xlink="http://www.w3.org/1999/xlink"><linearGradient id="a" x1="253.534265%" x2="-6.886438%" y1="253.574524%" y2="-.903816%"><stop offset="0" stop-color="#fff"/><stop offset="1" stop-color="#c2c1c1"/></linearGradient><linearGradient id="b" x1="209.797498%" x2="-1.083238%" y1="223.26287%" y2="-3.112695%"><stop offset="0" stop-color="#fff"/><stop offset="1" stop-color="#a2a2a1"/></linearGradient><linearGradient id="c" x1="271.963921%" x2="7.71593%" y1="334.363466%" y2="-9.063024%"><stop offset="0" stop-color="#fff"/><stop offset="1" stop-color="#b3b3b3"/></linearGradient><circle cx="128" cy="128" fill="#e9e9e9" r="128"/><path d="m166.056376 207.91795c-74.0510069-6.013423-37.626846-10.136913-144.3221478-32.128859 29.3798658 22.679194 77.1436241 78.861745 144.3221478 32.128859z" fill="url(#a)"/><path d="m242.34094 118.060232c-70.271141-13.916779-139.167786-61.8523493-211.5006715-46.389262-1.0308725.3436241-2.2335571.5154362-1.7181208 1.0308725 46.2174496 8.0751678 143.1194633 77.3154365 213.2187923 45.3583895z" fill="url(#b)"/><path d="m223.097987 183.692446c-36.939598-7.903355-117.863088-69.583892-208.7516783-44.842953 79.5489933 18.212081 151.1946313 62.539598 208.7516783 44.842953z" fill="url(#c)"/><path d="m235.296644 81.8078827c-41.063087-30.2389261-92.606711-84.87516775-139.6832212-34.5342282 57.3852352 7.0442954 64.9449662 16.4939598 139.6832212 34.5342282z" fill="#a4a4a4"/><path d="m20.8751678 175.445467c85.0469802.171812 133.6697982-64.773155 221.4657722-57.385235-70.099329 35.908725-155.8335574 103.774496-221.4657722 57.385235z" fill="#121212"/><path d="m235.124832 81.8078827c-85.734228-6.8724832-130.405369 62.3677853-221.4657716 57.3852353 34.5342282-15.6349 136.4187916-107.5543628 221.4657716-57.3852353z" fill="#171717"/><path d="m172.241611 36.6213056c-49.138255-1.7181208-99.1355707 41.9221476-143.4630875 36.2523489 31.957047-19.4147651 91.2322145-68.381208 143.4630875-36.2523489z" fill="#212121"/><path d="m84.1020134 219.944795c51.0281876-.171812 93.8093956-45.014765 140.0268456-36.252349-37.798658 21.648323-83.844295 66.319464-140.0268456 36.252349z" fill="#010101"/></svg>