<svg height="243" preserveAspectRatio="xMidYMid" viewBox="0 0 256 243" width="256" xmlns="http://www.w3.org/2000/svg"><g fill="#58a958"><path d="m213.619472 156.000953c0 23.864647-8.490485 44.284732-25.469276 61.262434-16.98097 16.98097-37.336783 25.468187-61.06526 25.468187-23.864647 0-44.2847317-8.487217-61.2624339-25.468187-16.9809702-16.977702-25.4692766-37.397787-25.4692766-61.262434 0-23.862468 8.4883064-44.250962 25.4692766-61.1643913 16.9777022-16.9134298 37.3324259-25.3701447 61.0652599-25.3701447 23.994281 0 44.447047 8.4567149 61.361566 25.3701447 16.913429 16.9134293 25.370144 37.3019233 25.370144 61.1643913zm-14.947132 0c0-19.795881-6.981719-36.678808-20.945157-50.643336-13.963438-13.9623489-30.846366-20.9451574-50.642247-20.9451574-19.799149 0-36.7136679 7.0492595-50.7413786 21.1423314-14.0309787 14.095252-21.0432 30.911728-21.0432 50.446162 0 19.537702 7.0122213 36.383592 21.0432 50.544204 14.0277107 14.159524 30.9422296 21.240375 50.7413786 21.240375 19.666247 0 36.513226-7.047081 50.544204-21.142332 14.027711-14.093072 21.0432-30.976 21.0432-50.642247z"/><path d="m173.352306 87.1271489c0 23.8646471-8.490485 44.2847321-25.469276 61.2624341-16.98097 16.98097-37.335694 25.469277-61.0652598 25.469277-23.8646468 0-44.2847319-8.488307-61.262434-25.469277-16.98097024-16.977702-25.46818726-37.397787-25.46818726-61.2624341 0-23.8613787 8.48721702-44.2509617 25.46818726-61.1643915 16.9777021-16.91342974 37.3335149-25.37014463 61.0652595-25.37014463 23.9942813 0 44.4470473 8.45671489 61.3615663 25.37014463 16.913429 16.9134298 25.370144 37.3030128 25.370144 61.1643915zm-14.947132 0c0-19.7958808-6.981719-36.6788085-20.945157-50.6422468s-30.846366-20.9451574-50.6422468-20.9451574c-19.7991489 0-36.7125787 7.0492596-50.7402893 21.1412425-14.0320681 14.0963405-21.0442894 30.9117277-21.0442894 50.4461617 0 19.5377021 7.0122213 36.3835911 21.0442894 50.5442041 14.0277106 14.160613 30.9411404 21.240375 50.7402893 21.240375 19.6662468 0 36.5132258-7.045992 50.5442038-21.142332 14.027711-14.091983 21.0432-30.974911 21.0432-50.6422471z"/><path d="m255.520681 87.1271489c0 23.8646471-8.489396 44.2847321-25.467098 61.2624341-16.98206 16.98097-37.337872 25.469277-61.066349 25.469277-23.864647 0-44.284732-8.488307-61.262434-25.469277-16.9820596-16.977702-25.4692766-37.397787-25.4692766-61.2624341 0-23.8613787 8.487217-44.2509617 25.4692766-61.1643915 16.977702-16.91342974 37.332426-25.37014463 61.06526-25.37014463 23.99428 0 44.447046 8.45671489 61.361566 25.37014463 16.913429 16.9134298 25.369055 37.3030128 25.369055 61.1643915zm-14.946043 0c0-19.7958808-6.981719-36.6788085-20.946247-50.6422468-13.962348-13.9634383-30.845276-20.9451574-50.641157-20.9451574-19.799149 0-36.713668 7.0492596-50.741379 21.1412425-14.030978 14.0963405-21.0431997 30.9117277-21.0431997 50.4461617 0 19.5377021 7.0122217 36.3835911 21.0431997 50.5442041 14.027711 14.160613 30.94223 21.240375 50.741379 21.240375 19.666247 0 36.513226-7.045992 50.543115-21.142332 14.027711-14.091983 21.044289-30.974911 21.044289-50.6422471z"/></g></svg>