<svg height="291" preserveAspectRatio="xMidYMid" viewBox="0 0 256 291" width="256" xmlns="http://www.w3.org/2000/svg"><path d="m248.1951 223.7661-112.39 64.937c-4.839 2.809-10.771 2.809-15.61 0l-112.39-64.937c-4.839-2.81-7.805-7.961-7.805-13.424v-129.874c0-5.619 2.966-10.614 7.805-13.424l112.39-64.937c4.839-2.809 10.771-2.809 15.61 0l112.39 64.937c4.839 2.81 7.805 7.961 7.805 13.424v129.874c-.156 5.463-3.122 10.614-7.805 13.424z" fill="#8d6748"/><path d="m127.8439 19.7466c-2.341 0-4.683.624-6.712 1.873l-97.093 56.039c-4.215 2.342-6.712 6.868-6.712 11.551v112.078c0 4.839 2.497 9.21 6.712 11.552l97.093 56.039c2.029 1.249 4.371 1.873 6.712 1.873s4.683-.624 6.712-1.873l97.093-56.039c4.215-2.342 6.712-6.869 6.712-11.551v-112.079c0-4.839-2.497-9.209-6.712-11.551l-97.093-56.039c-2.029-1.249-4.371-1.873-6.712-1.873zm0 4.683c1.561 0 2.966.468 4.371 1.249l97.092 56.039c2.654 1.561 4.371 4.527 4.371 7.649v112.078c0 3.122-1.717 6.087-4.371 7.648l-97.092 56.039c-1.405.781-2.81 1.249-4.371 1.249s-3.122-.468-4.371-1.249l-97.092-56.039c-2.654-1.561-4.371-4.526-4.371-7.648v-112.078c0-3.122 1.717-6.088 4.371-7.649l97.092-56.039c1.405-.781 2.966-1.249 4.371-1.249zm-8.9759 97.7174h13.112c.469 0 .781-.157 1.093-.469 7.805-8.741 8.586-27.005 8.586-32.468 0-.78-.625-1.561-1.561-1.561h-14.674-14.673c-.78 0-1.561.624-1.561 1.561 0 5.307.781 23.571 8.586 32.468.312.312.624.469 1.092.469zm-3.59-29.659h10.302 10.303c.78 0 1.561.624 1.561 1.561 0 4.371-.781 16.702-6.088 23.102-.468.313-.78.469-1.249.469h-9.209c-.469 0-.781-.156-1.093-.469-5.308-6.243-5.932-18.731-6.088-23.102 0-.78.624-1.561 1.561-1.561zm13.1122-7.9609s5.62-3.278 2.185-9.21c-2.029-3.122-2.965-5.775-2.185-6.868-2.029 2.498-5.463 5.151-1.717 10.771 1.249 1.405 1.873 4.37 1.717 5.307zm-6.2438.4682s3.746-2.185 1.405-6.244c-1.405-2.029-2.029-3.902-1.405-4.527-1.405 1.717-3.59 3.434-1.093 7.337.781.78 1.093 2.81 1.093 3.434zm-.4683 30.7513h7.805c.312 0 .624-.156.936-.468 2.654-3.122 3.903-7.961 4.527-12.176 0 0-.156 1.405-3.902 2.81-5.151 1.873-14.205.624-14.205.624.78 3.278 2.029 6.4 3.902 8.742.156.312.625.468.937.468zm-58.6927 43.8634v-31.219h-5.776l-9.522 14.673-9.522-14.673h-5.775v31.375h5.463v-22.322l9.678 14.517h.156l9.835-14.673v22.322zm34.9662-30.5946c-2.03-.781-4.215-1.249-6.556-1.249-2.342 0-4.527.312-6.557 1.249-2.029.78-3.746 2.029-5.151 3.434-1.561 1.561-2.653 3.278-3.434 5.151-.78 2.029-1.249 4.058-1.249 6.244v.156c0 2.185.469 4.371 1.249 6.244.781 2.029 1.873 3.746 3.278 5.151s3.122 2.654 5.151 3.434c2.03.781 4.215 1.249 6.556 1.249 2.342 0 4.527-.312 6.557-1.249 2.029-.78 3.746-2.029 5.151-3.434 1.561-1.561 2.653-3.278 3.434-5.151.78-2.029 1.249-4.059 1.249-6.244v-.156c0-2.186-.469-4.371-1.249-6.244-.781-2.029-1.873-3.746-3.278-5.151s-3.122-2.654-5.151-3.434zm3.746 15.141c0 1.405-.312 2.81-.781 4.215-.624 1.248-1.248 2.497-2.185 3.434-.936.936-2.029 1.717-3.278 2.341-1.249.625-2.654.937-4.215.937-1.404 0-2.965-.312-4.214-.937-1.249-.624-2.342-1.405-3.278-2.341-.937-1.093-1.717-2.186-2.186-3.59-.468-1.405-.78-2.81-.78-4.371v-.156c0-1.405.312-2.81.78-4.215.625-1.249 1.249-2.497 2.186-3.434.936-.937 2.029-1.717 3.278-2.342 1.249-.624 2.653-.936 4.214-.936s2.966.312 4.215.936c1.249.625 2.342 1.405 3.278 2.342.937 1.093 1.717 2.185 2.185 3.59.469 1.405.781 2.81.781 4.371zm23.1024-4.683c.624-1.249 1.249-2.498 2.185-3.434.937-.937 2.03-1.717 3.278-2.342 1.249-.624 2.498-.936 4.059-.936 1.873 0 3.434.312 4.839 1.092 1.405.781 2.654 1.718 3.902 2.81l3.591-4.058c-.781-.781-1.561-1.405-2.342-2.03-.78-.624-1.717-1.092-2.653-1.561-1.093-.312-2.03-.624-3.279-.936-1.248-.156-2.497-.312-3.902-.312-2.498 0-4.527.468-6.556 1.248-2.029.781-3.746 2.03-5.151 3.435-1.405 1.561-2.498 3.278-3.278 5.151-.781 1.873-1.249 4.058-1.249 6.244v.156c0 2.185.468 4.214 1.249 6.244.78 2.029 1.873 3.746 3.278 5.151s3.122 2.654 4.995 3.434c1.873.781 3.902 1.249 6.244 1.249 1.405 0 2.809 0 4.214-.312 1.093-.156 2.342-.625 3.278-1.093.937-.468 1.874-.937 2.81-1.717.937-.781 1.717-1.405 2.498-2.342l-3.59-3.59c-1.405 1.249-2.81 2.186-4.059 2.966-1.249.781-2.966 1.093-4.839 1.093-1.405 0-2.81-.469-4.059-.937-1.248-.468-2.341-1.405-3.278-2.341-.936-1.093-1.717-2.186-2.185-3.591-.468-1.404-.781-2.809-.781-4.37v-.156c0-1.405.313-2.81.781-4.215zm32.9366-11.0828v31.219h5.463v-13.112h14.986v13.112h5.463v-31.219h-5.463v12.956h-14.986v-12.956zm59.9418 23.7269 3.122 7.493h5.775l-13.736-31.376h-4.996l-13.736 31.376h5.619l3.278-7.493zm-7.337-17.327 5.307 12.488h-10.614zm-181.8534 36.3705h199.024v-1.717h-199.024zm114.4193-60.4095c0 .624-.156 1.093-.156 1.717h84.761v-1.717zm-34.8098 0h-79.61v1.717h79.766c0-.624-.156-1.093-.156-1.717z" fill="#fff"/></svg>