<svg height="256" preserveAspectRatio="xMidYMid" viewBox="0 0 256 256" width="256" xmlns="http://www.w3.org/2000/svg" xmlns:xlink="http://www.w3.org/1999/xlink"><radialGradient id="a" cx="44.187812%" cy="30.179299%" r="30.359256%"><stop offset="0" stop-color="#ffe870"/><stop offset="1" stop-color="#fc3"/></radialGradient><circle cx="128" cy="128" fill="url(#a)" r="128"/><path d="m80.4 175.5c.7-9.4 3.9-16.7 8.4-23.4 6.1-9 14.6-14.5 25.1-17.1 7.6-1.9 14.4-3.2 22.6-4.9 4.1-1 8.4-2.2 12.4-3.7 11.6-4.8 15.6-13.4 17.9-20.2s2.2-15.7 2.2-15.7l20.2 23.4c-1.3 7.2-3.2 15.3-6.8 21.8-3.4 6.1-8.2 10.2-14.2 13.6-8.5 4.9-17.3 7.4-26.8 8.9-5.5.9-11.4 2-16.9 3.2-12.3 2.8-20.1 10.8-22.6 23.1-.8 3.8-1.9 14.2-1.9 14.2z"/></svg>