<svg height="256" preserveAspectRatio="xMidYMid" viewBox="0 0 256 256" width="256" xmlns="http://www.w3.org/2000/svg"><g fill-rule="evenodd"><path d="m128 256c70.692448 0 128-57.307552 128-128s-57.307552-128-128-128-128 57.307552-128 128 57.307552 128 128 128zm0-19.2c-60.0885808 0-108.8-48.711419-108.8-108.8 0-60.0885808 48.7114192-108.8 108.8-108.8 60.088581 0 108.8 48.7114192 108.8 108.8 0 60.088581-48.711419 108.8-108.8 108.8z" fill="#376660"/><path d="m128 230.4c56.553958 0 102.4-45.846042 102.4-102.4 0-56.5539584-45.846042-102.4-102.4-102.4-56.5539584 0-102.4 45.8460416-102.4 102.4 0 56.553958 45.8460416 102.4 102.4 102.4zm0-198.4c-3.534622 0-6.4 2.8796721-6.4 6.443811v83.156189h-44.8190074c-3.5241248 0-6.3809926 2.840735-6.3809926 6.4 0 3.534622 2.9162522 6.4 6.3705446 6.4h57.6294554v-95.9944214c0-3.5377034-2.840735-6.4055786-6.4-6.4055786z" fill="#529990"/></g></svg>