<svg height="329" preserveAspectRatio="xMidYMid" viewBox="0 0 256 329" width="256" xmlns="http://www.w3.org/2000/svg"><g fill="#1a1918"><path d="m239.967274 0h-223.9335089c-8.8547774 0-16.0337651 7.1779629-16.0337651 16.0327578v84.5709272l50.3910912-14.0774927 33.5417681 13.9091857-27.4494984-13.9091857s-19.3074251-10.5524055-22.7057563-24.3867888c-3.3972923-13.8333443 13.8166943-29.6198758 13.8166943-29.6198758l62.2660301 7.9654713-33.8711079-6.3779873s11.8801338-7.9124859 38.5992659-7.0522524c29.322685.9423089 70.638746 8.3540309 77.456187 15.1725243 6.819519 6.8195322 19.526639 52.8742315 12.221941 60.1820604-3.431577 3.430545-47.253531-7.3234128-47.253531-7.3234128l36.557774 11.5902958s20.274666 46.531568 7.449109 86.552166c0 0-27.910782-15.146551-50.008766-45.054211 18.311094 38.320909 48.293497 50.609366 48.293497 50.609366s-11.271322 30.340893-17.798903 36.867447l-106.3466768-45.725359-53.9909743 66.07279h218.7991301c8.855816 0 16.032726-7.179002 16.032726-16.033796v-223.9318722c0-8.8547949-7.17691-16.0327578-16.032726-16.0327578"/><g transform="translate(0 275)"><path d="m44.9203082 28.0745916v17.2621417c0 2.7269196-.6269173 4.7734137-1.8797001 6.1342645-1.2538346 1.3618944-2.9094853 2.0444069-4.9637966 2.0444069-1.9933025 0-3.6079301-.6825125-4.8449348-2.0444069-1.2359527-1.3608508-1.854455-3.4073449-1.854455-6.1342645v-20.6872278c0-3.2654157-.1136025-5.8003133-.3376518-7.6088673-.2240493-1.8054232-.8320329-3.2873313-1.8218469-4.4446806-.990866-1.1583929-2.5560555-1.7365458-4.6966205-1.7365458-4.2832337 0-7.1043616 1.4589489-8.4623318 4.3758032-1.3600739 2.9168542-2.0374812 7.1016791-2.0374812 12.553431v17.5480873c0 2.694568-.6185023 4.7327134-1.855507 6.1102618-1.2370046 1.3775483-2.86846221 2.0684096-4.89121722 2.0684096-1.99330252 0-3.62476014-.6908613-4.89437288-2.0684096-1.26961274-1.3775484-1.90178942-3.4156938-1.90178942-6.112349v-37.14579958c0-2.44201751.5690642-4.29648977 1.70929635-5.5644604s2.64125732-1.90352134 4.507283-1.90352134c1.79975758 0 3.30078274.59485042 4.50517927 1.78559485 1.2043965 1.18970084 1.8081726 2.83127927 1.8081726 4.9257789v1.23770631c2.274153-2.69665523 4.708191-4.68053355 7.3031659-5.94954778 2.5949748-1.27005782 5.4771114-1.90665212 8.6495654-1.90665212 3.298679 0 6.1345332.65224826 8.5054587 1.953614 2.3709255 1.30032214 4.3242568 3.2685465 5.8631495 5.9025859 2.206833-2.66639091 4.5714473-4.64087686 7.0980503-5.92763223 2.5244992-1.28362459 5.3235377-1.92856767 8.3939599-1.92856767 3.5795296 0 6.664678.69921014 9.2554453 2.09554322 2.5886636 1.39633309 4.524113 3.39586537 5.8042445 5.99650965 1.1149872 2.34809379 1.6745845 6.04138429 1.6745845 11.08300249v25.347933c0 2.7269196-.6227098 4.7713265-1.8681294 6.1342645-1.2443678 1.3618944-2.8863442 2.0444069-4.9280329 2.0444069-1.9785763 0-3.5974114-.6908613-4.8565054-2.0684096-1.2622496-1.3775484-1.8902188-3.4156938-1.8902188-6.1102618v-21.8278795c0-2.7884918-.1220175-5.0249207-.3618449-6.7040686-.2408793-1.6801915-.8877822-3.0921786-1.9438644-4.2338739-1.0560822-1.1416954-2.6559836-1.7114995-4.800756-1.7114995-1.7303339 0-3.3691546.5071883-4.9227735 1.5226084-1.5536189 1.0143765-2.7611711 2.3762708-3.6237083 4.0877703-.9614135 2.189467-1.4400164 6.0559947-1.4400164 11.6048011"/><path d="m137.246504 27.1614441c0 3.8686149-.609035 7.433543-1.820795 10.6989587-1.213863 3.2654157-2.970494 6.0716486-5.269892 8.4176552-2.298346 2.3460066-5.045843 4.1462118-8.238282 5.3974848-3.194544 1.2491859-6.787748 1.8774314-10.777508 1.8774314-3.960308 0-7.520904-.6365943-10.68284-1.9035213-3.1619348-1.2679706-5.8999646-3.0848734-8.2140889-5.4486211-2.3151762-2.3647913-4.0718069-5.1574575-5.2688403-8.3779985-1.1980852-3.2194974-1.79555-6.783382-1.79555-10.6864356 0-3.9333179.6058798-7.5358155 1.8197432-10.804362 1.2117596-3.267503 2.9526122-6.0601691 5.220454-8.37591136 2.2678418-2.31574224 5.0153385-4.1002935 8.240386-5.35469736 3.225048-1.25336027 6.785644-1.8805622 10.680736-1.8805622 3.959256 0 7.55246.63555071 10.777508 1.90560853 3.226099 1.27214502 5.98727 3.08174261 8.285617 5.43192355 2.299398 2.35018094 4.047613 5.14493434 5.245699 8.38321654 1.197033 3.2414129 1.797653 6.8136462 1.797653 10.7198307zm-13.148433 0c0-5.296256-1.173892-9.4174214-3.515365-12.36454-2.342525-2.9471185-5.489734-4.422765-9.442679-4.422765-2.551848 0-4.798653.6574663-6.742517 1.9723988-1.943864 1.3170197-3.440682 3.2570669-4.4925567 5.8253597-1.0518747 2.5682927-1.5778121 5.5644604-1.5778121 8.9895465 0 3.3916909.5175224 6.3565506 1.5525671 8.8924919 1.0360967 2.5359413 2.5192397 4.4780757 4.4483777 5.8253597 1.927035 1.347284 4.199084 2.0204042 6.811941 2.0204042 3.952945 0 7.100154-1.481908 9.442679-4.4457241 2.341473-2.9638162 3.515365-7.0630661 3.515365-12.2925317z"/><path d="m159.493654 7.90916246v1.56957023c2.299398-3.01390879 4.813378-5.2284221 7.544045-6.64040914 2.728563-1.41094345 5.865253-2.11745877 9.411123-2.11745877 3.446993 0 6.528986.74512842 9.242823 2.23747245 2.713836 1.49234403 4.741851 3.60145402 6.082991 6.33150436.861485 1.58731141 1.420031 3.30194161 1.674584 5.13971631.254554 1.8409055.383935 4.1889993.383935 7.0442813v24.1780605c0 2.6027314-.599569 4.5699122-1.79555 5.9036295-1.19493 1.3305864-2.750653 1.997445-4.665065 1.997445-1.948072 0-3.525884-.6835561-4.737643-2.0464941-1.21176-1.3639816-1.818692-3.3144648-1.818692-5.8545804v-21.6567296c0-4.2818794-.599568-7.5577311-1.797653-9.8265115-1.199138-2.2677368-3.586893-3.4031705-7.163267-3.4031705-2.33411 0-4.457845.6908613-6.375412 2.0704969-1.916516 1.3796355-3.321821 3.2758516-4.214862 5.6865612-.641644 1.9369165-.960362 5.5529809-.960362 10.8523676v16.2769859c0 2.6340394-.612191 4.6085253-1.836573 5.925545s-2.804298 1.9755295-4.742903 1.9755295c-1.876544 0-3.416489-.6835561-4.625093-2.0464941-1.207552-1.3639816-1.81238-3.3144648-1.81238-5.8545804v-37.55488974c0-2.47436902.540664-4.3215361 1.620939-5.54358845 1.081327-1.22100875 2.558159-1.83255673 4.433652-1.83255673 1.144439 0 2.178432.27029168 3.100926.80878785.920391.54058336 1.659859 1.34937121 2.2163 2.42740714.554338 1.08012313.834137 2.39714283.834137 3.95210269"/><path d="m255.943199 27.1614441c0 3.8686149-.607984 7.433543-1.819743 10.6989587-1.214916 3.2654157-2.970495 6.0716486-5.269893 8.4176552-2.298346 2.3460066-5.045842 4.1462118-8.238282 5.3974848-3.194543 1.2491859-6.787747 1.8774314-10.777508 1.8774314-3.96136 0-7.520904-.6365943-10.682839-1.9035213-3.161936-1.2679706-5.901017-3.0848734-8.21409-5.4486211-2.315176-2.3647913-4.071807-5.1574575-5.269892-8.3779985-1.197033-3.2194974-1.79555-6.783382-1.79555-10.6864356 0-3.9333179.606932-7.5358155 1.820795-10.804362 1.21176-3.267503 2.951561-6.0601691 5.220454-8.37591136 2.267842-2.31574224 5.014287-4.1002935 8.240386-5.35469736 3.225048-1.25336027 6.785644-1.8805622 10.680736-1.8805622 3.959256 0 7.55246.63555071 10.777508 1.90560853 3.225048 1.27214502 5.986219 3.08174261 8.285617 5.43192355 2.298346 2.35018094 4.047614 5.14493434 5.244647 8.38321654 1.198085 3.2414129 1.797654 6.8136462 1.797654 10.7198307zm-13.148434 0c0-5.296256-1.17284-9.4174214-3.515365-12.36454-2.341473-2.9471185-5.488682-4.422765-9.441627-4.422765-2.551848 0-4.799704.6574663-6.742517 1.9723988-1.943864 1.3170197-3.441734 3.2570669-4.493608 5.8253597-1.051875 2.5682927-1.577812 5.5644604-1.577812 8.9895465 0 3.3916909.518574 6.3565506 1.553619 8.8924919 1.035044 2.5359413 2.518188 4.4780757 4.447326 5.8253597 1.927034 1.347284 4.200135 2.0204042 6.812992 2.0204042 3.952945 0 7.100154-1.481908 9.441627-4.4457241 2.342525-2.9638162 3.515365-7.0630661 3.515365-12.2925317z"/></g></g></svg>