<svg height="134" preserveAspectRatio="xMidYMid" viewBox="0 0 512 134" width="512" xmlns="http://www.w3.org/2000/svg"><path d="m21.0831758 38.1244636c1.5508237 2.3941737 2.2347914 4.5297812 3.1010741 9.035483 6.0651253-5.920076 13.5440514-9.035483 21.7069452-9.035483 7.3722891 0 13.4225081 2.3941737 18.1042184 7.2805583 1.2612983 1.2246061 2.477878 2.804669 3.5270489 4.3554927 8.1468409-8.3446355 15.4434521-11.636051 25.2179413-11.636051 6.9612204 0 13.5589573 2.0817157 17.5876593 5.547993 5.031434 4.3480395 6.626976 9.575548 6.626976 21.7459308v63.3188986h-22.6185196v-58.7822377c0-10.6556781-1.2612984-12.716181-7.326997-12.716181-4.3474662 0-10.4578835 2.9651979-15.4744112 7.4869526v64.0114661h-22.0721484v-57.9469141c0-11.1108922-1.6104487-13.7194866-8.0860693-13.7194866-4.3021741 0-10.2612357 2.2284849-15.27719 6.7731724v64.8932283h-22.7710224v-62.1120654c0-12.8600837-.88176223-18.4155297-3.3286811-22.784782zm137.2344242 26.0687444c-1.596689 4.7126694-2.446919 10.9681361-2.446919 19.8453834 0 10.2371564 1.048024 17.9299296 2.947998 22.4362046 2.097769 4.872625 7.34305 7.304638 11.825819 7.304638 10.094401 0 14.411481-9.03663 14.411481-30.0819665 0-12.0104272-1.566303-19.8534098-4.68171-23.8654853-2.235938-2.9342387-5.867904-4.6817103-10.063441-4.6817103-5.578379 0-10.108734 3.4645573-11.993228 9.0429361zm41.907785-12.8589371c7.114297 8.3452088 10.291622 18.0807124 10.291622 32.5151258 0 15.3070025-3.510996 25.7637393-11.18829 34.4443393-6.74852 7.646334-15.641247 12.359004-29.352707 12.359004-24.214635 0-40.008385-18.097339-40.008385-46.0895631 0-28.016877 15.960585-46.6370811 40.008385-46.6370811 12.692675 0 22.604187 4.3635191 30.249375 13.4081751zm85.261478-11.6589836v16.0047299l-39.33875 56.8753838h40.874667l-5.578952 16.181885h-65.54509v-14.433267l41.878546-58.2719849h-38.383603v-16.3567468zm36.681997-2.0983418v91.1603405h-23.304208v-87.4974154zm2.735297-22.4218721c0 8.0126847-6.369556 14.4109074-14.42524 14.4109074-7.798837 0-14.212539-6.3982227-14.212539-14.4109074 0-7.99548511 6.627549-14.44817299 14.605835-14.44817299 7.814317 0 14.031944 6.45268788 14.031944 14.44817299zm39.704527 8.0126847v69.3914772c0 15.3293617.182888 17.3898647 1.581783 19.8218777.881189 1.580063 2.765683 2.432586 4.712096 2.432586.835897 0 1.336976 0 2.598848-.320485l3.982836 13.900655c-3.982836 1.558277-8.861768 2.426853-13.907534 2.426853-9.942472 0-17.937957-4.684004-20.705933-12.14745-1.747472-4.529208-2.127581-7.325851-2.127581-20.0185256v-66.4750114c0-11.643504-.302712-18.7578002-1.171288-26.79112431l23.83682-5.38861069c.835323 4.86517186 1.199953 10.610386 1.199953 23.1677581zm48.338114 0v69.3914772c0 15.3293617.198941 17.3898647 1.628221 19.8218777.819844 1.580063 2.704339 2.432586 4.651325 2.432586.881189 0 1.413227 0 2.64414-.320485l3.968503 13.900655c-3.968503 1.558277-8.848581 2.426853-13.910401 2.426853-9.924698 0-17.935663-4.684004-20.717399-12.14745-1.778431-4.529208-2.067956-7.325851-2.067956-20.0185256v-66.4750114c0-11.643504-.348577-18.7578002-1.246392-26.79112431l23.80414-5.38861069c.958587 4.86517186 1.245819 10.610386 1.245819 23.1677581zm66.778296 66.609741c-16.113087 0-21.767143 2.9336654-21.767143 13.5893439 0 6.930834 4.408238 11.628024 10.320287 11.628024 4.33256 0 8.711559-2.264604 12.162356-6.080032l.38011-19.1373359zm-30.204656-46.7895836c8.665693-3.6634984 16.11538-5.2143221 24.322993-5.2143221 14.988238 0 25.23342 5.5497129 28.743843 15.4744112 1.155808 3.6497389 1.687847 6.4314751 1.581783 16.0064498l-.563571 29.9019448v1.5794898c0 9.561788 1.581783 13.225287 8.394514 18.257867l-12.37563 14.288218c-5.44365-2.280084-10.291049-6.292733-12.557372-10.800728-1.717086 1.756072-3.648019 3.458824-5.411544 4.689737-4.316507 3.132607-10.624145 4.880078-17.921903 4.880078-19.835637 0-30.612859-10.109306-30.612859-27.817936 0-20.9083138 14.471106-30.6610169 42.803881-30.6610169 1.703326 0 3.314348 0 5.245281.1983678v-3.6325393c0-9.9338714-1.930933-13.2401931-10.503749-13.2401931-7.387768 0-16.158952 3.631966-25.705834 10.0846539l-9.925845-16.7047505c4.727576-2.9651978 8.209332-4.6897367 14.486012-7.2897314z" fill="#4e5050"/></svg>