<svg height="252" preserveAspectRatio="xMidYMid" viewBox="0 0 256 252" width="256" xmlns="http://www.w3.org/2000/svg"><g fill="#00546b"><path d="m235.648276 194.211632c-13.918425-.347073-24.705404 1.04564-33.752672 4.872332-2.609705 1.043442-6.785677 1.044534-7.133837 4.349494 1.392731 1.392731 1.566267 3.654258 2.784329 5.567597 2.089096 3.478496 5.741151 8.177288 9.047221 10.613452 3.653144 2.783241 7.307374 5.566482 11.134099 8.002646 6.785676 4.175972 14.441209 6.611017 21.052261 10.78697 3.8289 2.433944 7.654446 5.567588 11.482257 8.177288 1.914473 1.390515 3.131447 3.653134 5.567615 4.523035v-.521714c-1.218107-1.566253-1.566267-3.82778-2.783241-5.567588-1.738716-1.739803-3.479606-3.306061-5.219409-5.045864-5.045874-6.78458-11.308766-12.700296-18.094352-17.571532-5.566482-3.827798-17.746192-9.047198-20.007783-15.484697 0 0-.174624-.173541-.34816-.347081 3.827767-.348183 8.350812-1.73979 12.005087-2.784347 5.915775-1.566249 11.308766-1.218075 17.397986-2.783241 2.783242-.696352 5.567615-1.566253 8.350856-2.43616v-1.565147c-3.130313-3.132543-5.392945-7.307391-8.699016-10.265297-8.872552-7.656665-18.616138-15.136509-28.706753-21.399384-5.394079-3.479602-12.353292-5.742243-18.094352-8.699025-2.086876-1.04564-5.567615-1.566249-6.784589-3.30607-3.132521-3.827776-4.872324-8.872539-7.133841-13.39672-5.043653-9.569974-9.917119-20.181273-14.266572-30.271914-3.130314-6.785672-5.044759-13.5713758-8.872548-19.8341417-17.919696-29.5766179-37.405767-47.4964131-67.330554-65.0690659-6.4374848-3.6531522-14.0919301-5.2194033-22.2692452-7.132745-4.3483979-.1746441-8.6990159-.5217158-13.0485556-.6963599-2.7832411-1.2180946-5.5675877-4.5230433-8.0037607-6.0893084-9.914871-6.263948-35.49132349-19.83311518-42.7986917-1.91334173-4.69769062 11.30874923 6.95921274 22.44277463 10.9604927 28.18497883 2.9589885 4.0013366 6.785672 8.52437 8.8736578 13.0485651 1.2180888 2.9556763 1.5651568 6.0893021 2.7832456 9.2207303 2.7843421 7.6533624 5.3929413 16.1798978 9.0471895 23.3138294 1.9144451 3.6531517 4.0013253 7.4809362 6.4374893 10.78586 1.391616 1.9133395 3.8266789 2.7843466 4.3494989 5.9157703-2.4350539 3.4795927-2.6097002 8.6990157-4.0024309 13.0485557-6.2628429 19.6595-3.8266834 44.016808 5.0458733 58.456898 2.7832411 4.348407 9.3953359 13.919531 18.2679606 10.265292 7.8291099-3.131438 6.0893021-13.048556 8.3508288-21.747572.522829-2.089087.1746418-3.479593 1.2180842-4.871227.0009062.173541 0 .348178 0 .348178 2.4361595 4.871227 4.8712269 9.568949 7.1327445 14.440095 5.3940469 8.524369 14.7883543 17.398018 22.6174139 23.313847 4.177078 3.130305 7.482033 8.524374 12.70142 10.43881v-.522829h-.348178c-1.044544-1.566253-2.6097-2.261526-4.001325-3.479592-3.131429-3.131429-6.612136-6.959227-9.04719-10.438811-7.3062853-9.743595-13.7448892-20.529446-19.4859814-31.664585-2.7832411-5.392941-5.2194005-11.308762-7.4809272-16.701685-1.0445434-2.089082-1.0445434-5.219405-2.7843466-6.262838-2.6097003 3.826674-6.4363837 7.132744-8.3508287 11.830444-3.3038545 7.480927-3.6531427 16.70168-4.8712269 26.27053-.6952689.174651-.3481872 0-.6963699.348191-5.5664866-1.39273-7.4809317-7.132744-9.5689538-12.005086-5.219405-12.352126-6.089302-32.186368-1.5651568-46.451816 1.2180843-3.654248 6.4374893-15.1365232 4.3495035-18.6161341-1.0434424-3.3060746-4.5241498-5.219405-6.4374893-7.8291052-2.2615267-3.3060701-4.6976861-7.4809317-6.2628429-11.1351391-4.1759717-9.7424765-6.2639485-20.5294466-10.7869746-30.2730422-2.0879858-4.5241489-5.7411285-9.2207317-8.6990159-13.3956091-3.3049555-4.6976779-6.9592128-8.0037489-9.56894927-13.5713557-.86880057-1.9133417-2.08798584-5.0447591-.69636078-7.132754.34818266-1.3916119 1.04343788-1.9133367 2.43615945-2.26152163 2.2615266-1.91444548 8.6990159.52171573 10.9604927 1.56516133 6.4374893 2.6085888 11.8304442 5.0458724 17.2244911 8.699015 2.4350584 1.739801 5.0447586 5.0458719 8.1761869 5.9157726h3.6542437c5.5675876 1.2169814 11.8304441.3481659 17.0498446 1.9133413 9.2218359 2.9567828 17.5715365 7.3073891 25.0536417 12.005086 22.7920604 14.4400978 41.5805834 34.9706635 54.2820934 59.5014942 2.087986 4.0002246 2.956782 7.6555646 4.871227 11.8304446 3.654248 8.525475 8.177288 17.224486 11.83044 25.575328 3.653142 8.176183 7.132744 16.528144 12.352131 23.31383 2.610806 3.652046 13.048542 5.566482 17.746165 7.480927 3.479606 1.565166 8.873685 2.957896 12.005086 4.871231 5.914689 3.652037 11.830464 7.829124 17.398033 11.83044 2.784329 2.086889 11.482257 6.437498 12.005086 9.916004z"/><path d="m58.1864892 43.0222644c-2.9578829 0-5.0447587.3492882-7.1327445.8710162 0-.0009062 0 .1746419 0 .3481827h.3481872c1.3927261 2.7832401 3.8266835 4.6976852 5.5664821 7.1327345 1.3927306 2.7832411 2.6097003 5.5675967 4.0024309 8.3519434.1735317-.1746464.3470726-.3481827.3470726-.3481827 2.437274-1.7409087 3.6542482-4.5241498 3.6542482-8.6990159-1.044548-1.2180843-1.2180888-2.436164-2.0879859-3.6542482-1.0434424-1.7409124-3.3060746-2.6096994-4.6976906-4.00243z"/></g></svg>