<svg height="113" preserveAspectRatio="xMidYMid" viewBox="0 0 256 113" width="256" xmlns="http://www.w3.org/2000/svg"><path d="m99.5862069 1.65521495h-17.6551724l-36.1379311 61.93262585-14.2068965-61.93262585h-16.9655172l-14.6206897 82.76074735h14.0689655l8.9655173-50.6219905c.275862-1.9310841 1.2413793-8.2760747 1.2413793-8.2760747s.8275862 6.207056 1.2413793 8.2760747l11.4482758 50.6219905h10.6206897l29.3793103-50.6219905c1.1034483-1.9310841 3.5862069-7.1725981 4-8.0002056-.275862.9655421-1.3793103 6.4829252-1.6551724 8.0002056l-8.9655172 50.6219905h14.6206896zm57.6551721 35.72505595h-15.034482l-3.724138 20.5522522c-2.068966 11.5865046-8.275862 16.0004112-13.103449 16.0004112-3.862069 0-5.517241-2.3448879-5.517241-6.0691215 0-7.7243364 4.965517-15.3107383 4.965517-22.2074672 0-6.4829252-4.689655-9.5174859-10.068965-9.5174859-4.137931 0-8.689655 1.2414112-11.310345 2.8966261v5.7932523c.965517-.2758691 2.206896-.6896729 3.586207-.6896729 1.517241 0 2.620689.9655421 2.620689 2.8966262 0 5.6553177-5.241379 16.8280186-5.241379 24.6902896 0 8.1381402 5.103448 14.069327 14.068966 14.069327 6.068965 0 12.827586-3.8621682 16.827586-9.6554205l-1.793104 10.2071589c-1.931034 11.1727008-7.310344 14.8969346-14.482758 14.8969346-6.206897 0-10.344828-1.3793459-16.275862-5.2415141l-1.103449 11.1727011c4.965518 2.896626 11.586207 5.103579 17.793104 5.103579 13.931034 0 25.517241-5.793252 29.241379-26.8972427zm40.965518 0h-10.758621l2.758621-16.0004112-15.310345 1.655215-2.482759 14.3451962h-6.758621l-1.655172 9.3795513h6.758621l-3.724138 20.966056c-2.068966 11.7244392 3.724138 17.6556261 13.37931 17.6556261 5.931035 0 10.344828-1.7931495 13.103448-3.8621682l-1.103448-7.3105327c-1.655172 1.1034766-3.448276 1.7931495-5.793103 1.7931495-4.137931 0-5.24138-3.3104298-4.275862-9.2416167l3.448275-20.000514h10.758621zm57.793103 45.2425418v-6.0691214c-.827586.2758691-2.068966.8276074-3.448276.8276074-1.517241 0-2.758621-1.1034766-2.758621-2.8966261 0-5.6553178 4.551725-16.8280186 4.551725-24.6902896 0-8.1381402-5.103449-13.9313925-14.068966-13.9313925-6.068965 0-12.827586 3.7242336-16.827586 9.6554205l7.862069-45.518411-15.310345 1.65521495-14.62069 82.76074735h15.034483l3.724138-20.6901869c2.068966-11.5865046 8.413793-16.0004111 13.103448-16.0004111 3.862069 0 5.655173 2.3448878 5.655173 6.0691214 0 7.7243365-4.275862 15.3107383-4.275862 22.2074672 0 6.4829252 4.827586 9.3795514 10.344827 9.3795514 4.827586 0 8.551724-1.3793458 11.034483-2.7586916z"/></svg>