<svg height="206" preserveAspectRatio="xMidYMid" viewBox="0 0 256 206" width="256" xmlns="http://www.w3.org/2000/svg"><path d="m159.9687 131.8189c-2.849-1.937-6.732-1.197-8.671 1.652l-15.03 22.113c-2.546-.852-5.262-1.332-8.094-1.332-2.807 0-5.5.469-8.026 1.306l-24.962-34.873c4.611-4.618 7.464-10.993 7.464-18.036 0-14.096-11.427-25.523-25.524-25.523-14.096 0-25.523 11.427-25.523 25.523 0 6.601 2.526 12.597 6.638 17.127l-23.152 36.346c-2.956-1.197-6.18-1.87-9.565-1.87-14.096 0-25.524 11.427-25.524 25.523 0 14.097 11.428 25.524 25.524 25.524s25.524-11.427 25.524-25.524c0-6.184-2.201-11.852-5.859-16.269l23.447-36.81c2.659.939 5.509 1.477 8.49 1.477 2.538 0 4.985-.382 7.298-1.073l25.191 35.19c-4.307 4.57-6.965 10.711-6.965 17.485 0 14.097 11.427 25.524 25.524 25.524 14.096 0 25.524-11.427 25.524-25.524 0-6.752-2.642-12.875-6.924-17.439l14.849-21.846c1.939-2.85 1.198-6.733-1.654-8.671" fill="#3e7ebc"/><path d="m230.4766-.0004c-14.097 0-25.524 11.427-25.524 25.524 0 6.473 2.429 12.366 6.401 16.865l-23.243 36.487c-2.867-1.115-5.975-1.75-9.237-1.75-2.847 0-5.578.486-8.135 1.348l-24.937-34.836c4.66-4.625 7.549-11.031 7.549-18.114 0-14.097-11.428-25.524-25.524-25.524s-25.524 11.427-25.524 25.524c0 7.053 2.861 13.437 7.486 18.057l-15.411 22.671c-1.938 2.852-1.198 6.734 1.654 8.672 2.851 1.936 6.732 1.198 8.672-1.653l15.833-23.294c2.311.688 4.755 1.07 7.29 1.07 2.496 0 4.901-.374 7.181-1.042l25.23 35.245c-4.261 4.561-6.887 10.667-6.887 17.399 0 14.097 11.427 25.525 25.523 25.525 14.097 0 25.524-11.428 25.524-25.525 0-6.31-2.302-12.076-6.098-16.531l23.358-36.668c2.752 1.015 5.714 1.597 8.819 1.597 14.096 0 25.523-11.427 25.523-25.523 0-14.097-11.427-25.524-25.523-25.524" fill="#4c96df"/></svg>