<svg height="271" preserveAspectRatio="xMidYMid" viewBox="0 0 256 271" width="256" xmlns="http://www.w3.org/2000/svg"><g fill="#e92200"><path d="m23.2214242 60.2286509c7.8704164 2.0300919 39.1935762 11.4916614 58.0008841 17.2350535 18.8073077 5.7360765 32.8838307 9.4487671 43.8207227 12.4969532 11.028337 3.1585303 10.205327 11.7788004 1.57896 11.0344334-8.62027-.835203-18.813404-5.4684457-29.0004418-9.4615694-10.1992305-3.8766831-42.2600513-13.2413202-58.7568342-18.8006019-16.3870482-5.4690554-20.3801719-5.4690554-22.6846005-8.6202702-2.3227178-3.054892-.835203-5.9323797 7.0413097-3.8839986"/><path d="m140.794227 94.6932712c7.035214-.7437574 7.778971 6.2975528 6.206107 10.1931338-1.572864 3.889486-9.351835 5.46235-10.924699 1.578961-2.414163-5.474542-2.414163-10.9429882 4.718592-11.7720948"/><path d="m233.174383 38.2628126c-4.639339 3.9870273-18.807308 12.6072975-28.915093 19.6492169-10.187038 7.0407001-29.000442 19.5504556-34.560333 22.6961836-5.456254 3.145728-12.497563 7.0474062-17.228348 10.9246988-4.639339 3.9931237-3.060379 11.0344331 3.987027 8.6269761 7.029117-2.3166213 14.08262-6.2061067 18.801212-10.9435975 4.633243-4.718592 9.357931-7.8698067 14.082619-10.9246988 4.730785-3.145728 40.772537-29.8295486 47.813847-34.5664297 7.047406-7.7789708.743757-9.3573216-3.980931-5.4623494"/><path d="m251.248907 25.0135671c3.883389 0 5.456253 8.6202701 1.572864 10.9307952-3.889486 2.3166214-9.455473 2.3166214-9.455473-5.4623494 0-7.8826091 3.987027-5.4684458 7.882609-5.4684458"/><path d="m248.930456 41.4097599c3.060379 0 4.627147 6.3097451 3.895582 11.0283371-.835203 4.6332428.731565 35.2126452 1.566768 46.1434403.743757 11.0283367.743757 15.7591217-.835203 19.6486077-1.566768 3.889485 0 10.187037 0 20.380172 0 10.19923-1.566768 23.446647-2.310525 29.006538-.829107 5.462349-1.572864 9.351835-4.736881 8.614174-3.145728-.829107-3.145728-4.730785-3.145728-11.034434 0-6.20001 0-39.18748.841299-46.96645.725468-7.876513.725468-11.028338.725468-17.240541v-49.3806136c0-6.3036488.847396-10.1992305 3.99922-10.1992305"/><path d="m246.510197 182.438964c4.736881-.749853 6.315841 7.870417 3.907774 10.187038-2.328814 2.414164-7.803356 1.578961-9.370124-2.316621-1.572864-3.889486.743758-7.035214 5.46235-7.870417"/><path d="m6.53077671 53.182464c4.27355679-.6523118 5.65743329 7.0474061 2.1398266 9.8151591-3.5176067 2.883584-8.4312826.7437574-7.69362158-3.5115104.64011907-4.1760148 1.38997284-5.5598913 5.55379498-6.3036487"/><path d="m16.4526223 46.8806442c9.8273518-4.9136759 30.2075237-17.6063226 35.1151032-18.9901991 4.913676-1.3899728 13.991174-7.0413098 17.5209734-9.8212554 3.505414-2.7860421 14.7166423-9.17504004 16.8503725-10.56501288 2.1398266-1.38997284 11.9488893 0 3.5237031 5.65133688-8.4434754 5.6574334-20.3740756 12.6012012-28.8114545 17.5148771-8.437379 4.9990251-32.3473504 17.6002262-37.2549299 19.7339564-4.9136759 2.1276339-16.86256521 1.3899729-6.9437678-3.523703"/><path d="m100.027787.46408633c1.402166-.64621545 5.645241 2.87139125 3.511511 5.65133693-2.109345 2.7738493-4.9075799 4.90757954-7.7789712 0-2.7738493-4.91367591 2.8713913-4.91367591 4.2674602-5.65133693"/><path d="m114.107359 1.20235699c9.08969 0 31.5914 3.51821633 38.638806 5.6574333 6.955961 2.03009191 21.044676 4.16443181 23.818526 4.90757951 2.865295.6462155 12.68655.6462155 14.814184 1.3899729 2.048381.640119 8.431283 3.5182163 21.032484 4.9142855 12.698743 1.3838765 20.374075 2.7799457 23.916067 4.1638221 3.523703 1.4869052 1.39607 9.9120914-4.273556 8.430673-5.553795-1.3899728-28.713913-4.1699185-34.371346-4.9069699-5.657434-.6523118-16.862566-4.9075795-23.160118-5.5598913-6.401191-.7437574-22.519998-4.2674605-35.864957-5.658043-13.338862-1.3838764-22.507806-4.1638221-26.037605-4.90757951-3.517607-.74375739-7.681429-8.4312826 1.487515-8.4312826"/><path d="m4.5006848 76.3474587c0-4.9136759 7.6875252-7.0474062 8.4312826-.6523118.6462154 6.3036487 1.3838765 16.8625652 2.0361883 25.2938481.7437574 8.437379 1.4814184 16.131 2.1276338 21.776241.7437574 5.559891 4.2613641 19.642511 4.9258687 23.909971.7254683 4.157726 1.3777801 12.595105 1.3777801 17.508781s1.4814184 11.961082.7437574 15.478689c-.7437574 3.51151-4.2613641 12.595104-6.3036488 2.121537-2.1276338-10.558916-.7437574-23.897779-2.1276338-27.421482-1.3960692-3.529799-4.2674605-11.217324-4.2674605-16.862565 0-5.657433-2.77384929-20.380172-3.43225747-23.903875-.73156466-3.523703-3.51151033-32.3412538-3.51151033-37.2488333"/><path d="m19.8818316 195.134659c.7437574-2.876878 6.3950943-4.913676 8.4251862-1.396069 2.1398266 3.5298 1.4814184 9.083594-3.4261611 9.827352-4.9990251.652312-5.6513369-5.656824-4.9990251-8.431283"/><path d="m31.1784091 185.960229c6.3097451-6.297552 24.5561868-16.118808 35.127296-25.299944 10.5589164-9.083595 29.4515736-21.776241 32.9752766-25.287752 3.5176063-3.529799 12.6987433-.658408 4.9136763 5.645241-7.6814292 6.303649-25.9400636 19.642511-33.7312272 25.952256-7.6814288 6.388998-28.7200089 20.380172-32.9752766 24.635439-4.1699185 4.176015-12.6072975.652312-6.3097451-5.64524"/><path d="m113.36604 123.415719c2.786042.743757 2.786042 6.395094 0 7.784457-2.779946 1.384486-7.693622.640729-7.035214-3.523703.737661-4.260754 4.255268-4.907579 7.035214-4.260754"/><path d="m41.010638 202.177188c9.8151591 2.779946 31.5853038 16.862566 38.6327099 19.636415 7.0413098 2.786042 20.3862681 9.821255 26.6838211 13.344958 6.297552 3.517607 21.770144 10.565013 26.037605 12.601201 4.157726 2.133731 7.687525 2.871392 9.815159 5.005122 2.13373 2.030092-.731565 9.821255-6.303649 6.949864-5.64524-2.779946-27.421482-13.991174-30.939088-16.124904-3.505414-2.13373-16.8625655-9.168944-21.1300259-11.954986-4.1638222-2.779945-9.8151591-3.517606-15.3750504-6.303648-5.651337-2.767753-25.2938478-13.332766-31.6889422-16.856469-6.291456-3.517607-5.5659877-9.17504 4.2674605-6.297553"/><path d="m137.918569 116.468293c-.646216 6.949864.743757 20.294823 1.487515 23.818526.646215 3.505414 3.432257 18.240345 2.773849 28.811454-.731565 10.565623 0 23.903875 1.396069 30.939089 1.37778 7.047406 2.121538 25.293848 2.121538 30.21362 0 4.907579 1.389972 11.205132 2.13373 12.601201.646215 1.481418 4.919772 7.778971 5.559891-1.396069.75595-9.082985 0-27.330036.75595-32.981373.652312-5.651337-.75595-18.990199-2.139826-35.864957-1.389973-16.868662-2.121538-30.847643-2.121538-35.109007 0-4.169919 1.37778-14.734932-1.408262-18.98959-2.127634-7.048015-9.815159-9.084204-10.558916-2.042894"/><path d="m151.263527 255.541781c2.127634-.743757 9.187233 4.914286 6.388998 11.211229-2.853102 6.310354-7.029117 3.523703-9.821255-1.383877-2.877488-4.913066 1.389973-9.17504 3.432257-9.827352"/><path d="m166.090514 248.495595c9.077498-10.558917 11.223421-7.687526 16.131-11.942793 4.90758-4.182112 24.543994-19.648608 31.591401-25.94616 7.029117-6.388998 12.68655-9.912701 16.844276-13.338862 4.273557-3.5298 10.589398 1.670406 4.273557 5.553795-6.303649 3.889485-20.374076 17.691672-26.037606 25.293848-5.553795 7.602176-10.565013 5.64524-16.868661 11.954985-6.279264 6.297553-9.802967 11.211229-13.338862 12.698743-3.517607 1.389973-6.291456 3.426162-9.083595 5.547699-2.871391 2.13373-12.68655.749854-3.51151-9.821255"/><path d="m125.961145 128.324518c4.26746 1.487514 21.867686 7.785067 33.743419 13.436404 11.954986 5.559891 40.754248 17.50878 46.417777 21.03858 5.639144 3.51151 28.067697 11.942793 30.939089 14.076523 2.792138 2.036188 3.438353 12.607297-2.871392 9.827352-6.303648-2.871392-23.903875-12.698743-35.10291-17.606323-11.217325-4.913676-28.823647-13.351055-37.267123-15.478689-8.425186-2.042284-24.55009-11.857443-28.799262-14.734931-4.169918-2.773849-9.08969-2.773849-11.211228-6.297552-2.145923-3.517607 0-5.645241 4.15163-4.261364"/><path d="m104.935976 18.8098989c1.39607 8.4312826 2.779946 17.5087806 2.779946 24.5500904s1.389973 18.252538 2.139827 21.7762411c.731564 3.5176067 2.121537 15.4725924 1.37778 17.6063226-.646216 2.0361883 0 18.898753 0 23.166214 0 4.163822 1.389973 9.821255-2.779946 9.821255-4.261364 0-4.913676-3.529189-4.913676-11.217324 0-7.7850674-2.859198-24.6415363-2.859198-31.6889424 0-6.9437678-1.3960694-21.7762411-1.3960694-31.5974965 0-9.8151591-2.0422847-20.380172-2.7738493-23.1601176-.7498538-2.7860421 7.0291167-7.6875252 8.4251857.7437574"/></g></svg>