<svg height="256" preserveAspectRatio="xMidYMid" viewBox="0 0 256 256" width="256" xmlns="http://www.w3.org/2000/svg" xmlns:xlink="http://www.w3.org/1999/xlink"><radialGradient id="a" cx="48.339718%" cy="49.418621%" gradientTransform="matrix(1 0 0 .550875 0 .221951)" r="70.438089%"><stop offset="0"/><stop offset="1" stop-opacity="0"/></radialGradient><path d="m.00000018.00000114h255.90425382v255.90425386h-255.90425382z"/><path d="m141.676338 41.2746569-.067432 38.3613827-.067788 38.3613814-3.15611-8.905321c-.001096-.003069-.004987-.014413-.006065-.017482l-4.078393 85.402599c4.009838 11.323717 6.158216 17.36872 6.182347 17.392847.031573.031585 2.316708.169435 5.078103.306477 8.366405.415161 18.73404 1.304778 26.598936 2.281989 1.821024.226241 3.388216.342101 3.482565.257598.094351-.084504.145728-39.14347.114171-86.797623l-.057442-86.6438481h-17.011446z" fill="#b1060f" stroke="#000" stroke-width="2.956221"/><path d="m80.1382878 41.1604861v86.7316179c0 47.702451.0466767 86.778639.1038242 86.835798.0571438.05714 3.0113137-.221762 6.5648198-.619734 3.5535025-.39799 8.4646929-.892876 10.9136561-1.099607 3.7559391-.317084 14.9700631-1.038107 16.2686241-1.046089.377742-.002375.40197-1.951238.456683-36.735877l.057798-36.733378 2.71334 7.676914c.419329 1.186542.550861 1.557067.959391 2.712985l4.077324-85.3815481c-.863912-2.4425573-.411037-1.1603445-1.40109-3.9595855-3.331399-9.4190901-6.158326-17.408195-6.282246-17.753557l-.225488-.6279393h-17.1031391z" fill="#b1060f" stroke="#000" stroke-width="2.956221"/><path d="m80.1382787 41.1604861.0000091 48.6849187 34.2961902 90.9755582c.00358-2.084788.007672-3.211275.011417-5.594368l.057798-36.733378 2.71334 7.676914c15.103623 42.737557 23.218141 65.652219 23.265864 65.699933.031573.031585 2.316708.169435 5.078103.306477 8.366405.415161 18.73404 1.304778 26.598936 2.281989 1.821024.226241 3.388216.342101 3.482565.257598.064849-.058083.107182-19.209575.118453-46.227036l-34.135635-98.1401316-.016422 9.2870792-.067788 38.3613814-3.15611-8.905321c-3.083862-8.701476-5.142939-14.5206964-17.53235-49.5501176-3.331399-9.4190901-6.158326-17.408195-6.282246-17.753557l-.225488-.6279393h-17.1031392z" fill="url(#a)"/><path d="m80.1390021 41.160477 34.3646909 97.376981v-.044241l2.71334 7.676914c15.103623 42.737557 23.218141 65.652219 23.265864 65.699933.031573.031585 2.316708.169435 5.078103.306477 8.366405.415161 18.73404 1.304778 26.598936 2.281989 1.811691.225081 3.370857.340696 3.479712.258667l-34.09853-96.737614v.017829l-3.15611-8.905321c-3.083862-8.701476-5.142939-14.5206965-17.53235-49.5501178-3.331399-9.41909-6.158326-17.4081949-6.282246-17.7535569l-.225488-.6279393h-17.1031391z" fill="#e50914"/><path d="m141.676338 41.2746569-.067432 38.3613827-.067788 38.3613814-3.15611-8.905321c-.001096-.003069-.004987-.014413-.006065-.017482l-4.078393 85.402599c4.009838 11.323717 6.158216 17.36872 6.182347 17.392847.031573.031585 2.316708.169435 5.078103.306477 8.366405.415161 18.73404 1.304778 26.598936 2.281989 1.821024.226241 3.388216.342101 3.482565.257598.094351-.084504.145728-39.14347.114171-86.797623l-.057442-86.6438481h-17.011446z" fill="#b1060f" stroke="#000" stroke-width="2.956221"/><path d="m80.1382878 41.1604861v86.7316179c0 47.702451.0466767 86.778639.1038242 86.835798.0571438.05714 3.0113137-.221762 6.5648198-.619734 3.5535025-.39799 8.4646929-.892876 10.9136561-1.099607 3.7559391-.317084 14.9700631-1.038107 16.2686241-1.046089.377742-.002375.40197-1.951238.456683-36.735877l.057798-36.733378 2.71334 7.676914c.419329 1.186542.550861 1.557067.959391 2.712985l4.077324-85.3815481c-.863912-2.4425573-.411037-1.1603445-1.40109-3.9595855-3.331399-9.4190901-6.158326-17.408195-6.282246-17.753557l-.225488-.6279393h-17.1031391z" fill="#b1060f" stroke="#000" stroke-width="2.956221"/><path d="m80.1382787 41.1604861.0000091 48.6849187 34.2961902 90.9755582c.00358-2.084788.007672-3.211275.011417-5.594368l.057798-36.733378 2.71334 7.676914c15.103623 42.737557 23.218141 65.652219 23.265864 65.699933.031573.031585 2.316708.169435 5.078103.306477 8.366405.415161 18.73404 1.304778 26.598936 2.281989 1.821024.226241 3.388216.342101 3.482565.257598.064849-.058083.107182-19.209575.118453-46.227036l-34.135635-98.1401316-.016422 9.2870792-.067788 38.3613814-3.15611-8.905321c-3.083862-8.701476-5.142939-14.5206964-17.53235-49.5501176-3.331399-9.4190901-6.158326-17.408195-6.282246-17.753557l-.225488-.6279393h-17.1031392z" fill="url(#a)"/><path d="m80.1390021 41.160477 34.3646909 97.376981v-.044241l2.71334 7.676914c15.103623 42.737557 23.218141 65.652219 23.265864 65.699933.031573.031585 2.316708.169435 5.078103.306477 8.366405.415161 18.73404 1.304778 26.598936 2.281989 1.811691.225081 3.370857.340696 3.479712.258667l-34.09853-96.737614v.017829l-3.15611-8.905321c-3.083862-8.701476-5.142939-14.5206965-17.53235-49.5501178-3.331399-9.41909-6.158326-17.4081949-6.282246-17.7535569l-.225488-.6279393h-17.1031391z" fill="#e50914"/></svg>