<svg height="108" preserveAspectRatio="xMidYMid" viewBox="0 0 512 108" width="512" xmlns="http://www.w3.org/2000/svg"><g fill="#090"><path d="m96.1743134 107.150604c-2.8895944 0-5.7347334-1.124719-7.8596966-3.254128l-65.7716132-65.7760582v57.916362c0 6.1392762-4.9745478 11.1138242-11.1138244 11.1138242-6.13483108 0-11.11382443-4.974548-11.11382443-11.1138242v-84.7495797c0-4.49887612 2.71177317-8.54875376 6.86389797-10.26917378 4.14767926-1.72486555 8.93106936-.77352218 12.10962316 2.40947714l65.7716131 65.77605854v-57.9163619c0-6.13927662 4.9745478-11.11382444 11.1138244-11.11382444s11.1138246 4.97454782 11.1138246 11.11382444v84.7495797c0 4.4944302-2.711773 8.5487542-6.863898 10.2691742-1.3736688.569027-2.8140204.84465-4.2499266.84465"/><path d="m147.640212.28006838-3.054079 5.69916918-23.6191 42.92603544-3.054079 5.4191008 3.054079 5.4146554 23.6191 41.5390298 3.19189 5.694724h61.823983l3.054078-6.250415 17.644308-35.564238 7.917488-16.1150454h-17.91993l-45.1488.1378114c-5.872545-.0800196-11.273864 5.2412796-11.273864 11.1138244s5.401319 11.1982896 11.273864 11.1138244l27.22887-.1378114-6.668295 13.4744008h-35.008547l-17.368685-30.5630172 17.506497-31.6743998h37.240203l8.682119 17.8176834h22.369906l-14.10122-33.79047182-3.058524-6.2548604z"/><path d="m260.232144.14225695c-5.823644.07112848-11.051586 5.43243739-10.976012 11.25163585v28.9626266h22.227648v-28.9626266c.071128-5.91255458-5.343526-11.32720985-11.251636-11.25163585"/><path d="m295.85862 107.36399c-1.43146 0-2.876258-.275623-4.249926-.844651-4.152126-1.72042-6.859452-5.774743-6.859452-10.2691738v-84.7495797c0-6.13927658 4.974546-11.11382441 11.113824-11.11382441 6.139276 0 11.113824 4.97454783 11.113824 11.11382441v57.9163619l65.771614-65.77605852c3.169662-3.17410825 7.94416-4.13434269 12.109622-2.40947713 4.152124 1.72042003 6.859452 5.77474319 6.859452 10.26917375v84.7495797c0 6.1392768-4.974548 11.1138248-11.113824 11.1138248s-11.113824-4.974548-11.113824-11.1138248v-57.916362l-65.771614 65.7760588c-2.120518 2.124963-4.965656 3.254128-7.859696 3.254128"/><path d="m474.044344 53.7909104 34.572886-34.4484103c4.347728-4.329946 4.361064-11.36721968.026672-15.71939334-4.329946-4.34772811-11.362774-4.35661917-15.714946-.02667316l-34.626232 34.5062022-34.626232-34.5062022c-4.352174-4.33439154-11.385002-4.32105495-15.714948.02667316-4.334392 4.35217366-4.321054 11.38944734.022228 15.71939334l34.572886 34.4484103-34.470638 34.3506086c-4.352174 4.3343914-4.361066 11.3672196-.026674 15.714948 2.169418 2.182755 5.019004 3.27191 7.873034 3.27191 2.836248 0 5.672496-1.080264 7.841914-3.245237l34.52843-34.403955 34.523984 34.403955c2.173864 2.164973 5.005666 3.245237 7.84636 3.245237 2.85403 0 5.69917-1.089155 7.873034-3.27191 4.329946-4.3477284 4.321054-11.3805566-.026674-15.714948z"/><path d="m260.232144 107.048357c-5.823644-.071128-11.051586-5.432437-10.976012-11.2516358v-46.5224692h22.227648v46.5224692c.071128 5.9081088-5.343526 11.3227648-11.251636 11.2516358"/></g></svg>