<svg height="328" preserveAspectRatio="xMidYMid" viewBox="0 0 256 328" width="256" xmlns="http://www.w3.org/2000/svg"><path d="m179.2566 98.2149c135.795 67.576 72.605 195.517-45.395 202.093-4.988.278-10.012.042-14.954-.692-112.369-16.692-152.653-129.823-46.686-196.395 32.287-20.284 72.898-21.994 107.035-5.006" fill="#794422"/><path d="m170.745795 297.509c59.457352-34.3139 86.972796-131.686307 37.182205-217.0855 2.813-14.938 4.5-28.894 4.737-41.585.468-4.11-3.517-7.298-7.423-5.94-11.644 2.853-22.853 6.69-33.558 11.662-8.105-5.648-16.486-7.553-23.368-7.916-3.745-.198-2.33-5.826-2.027-7.893 1.779-3.895 3.467-7.162 7.654-10.897 2.908-2.66-.739-6.316-4.077-4.221-5.437 2.596-8.833 5.217-12.662 9.037-1.087.808-2.388.733-3.324.558-.669-.125-1.155-.735-1.228-1.412-.821-7.54.031-14.303 6.627-19.39 1.241-.957-.006-2.796-1.431-2.361-11.009 3.361-15.784 10.975-19.601 20.388-3.065-2.155-6.652-4.039-10.733-5.667-.69-.364-1.592-.598-2.214-.128-1.116.842-2.504 1.717-1.86 3.22 4.331 6.274 8.683 12.384 13.305 16.381-10.942 2.322-21.29 6.145-30.903 11.827l-36.484-14.032c-4.761-1.831-9.733 2.137-9.003 7.186 2.087 21.673 4.23 42.609 7.335 50.721-42.52179198 87.544721-16.3745692 175.345319 40.2247032 207.5475h-87.9147032v29.758h256v-29.758z" fill="#502d17"/><path d="m128.763 106.9391c16.31-40.346 52.284-45.533 77.83-19.744 21.203 21.405 21.747 80.406-29.758 91.279 52.363 43.493 16.596 117.317-43.208 117.317-60.089-.858-98.432-73.251-42.634-117.889-52.078 2.289-60.96-52.16-42.063-83.553 17.28-28.708 67.243-33.192 79.833 12.59" fill="#fff"/><path d="m152.5127 161.5919c1.464-2.111 1.387-4.898-.104-6.989-4.995-7.001-12.148-12.755-22.501-12.755-10.627 0-16.942 5.772-22.748 13.449-1.516 2.003-1.622 4.771-.237 6.866 4.361 6.595 11.866 12.706 20.348 18.975 1.561 1.154 3.691 1.118 5.215-.085 7.974-6.297 15.421-12.817 20.027-19.461" fill="#ff7f2b"/><path d="m189.4247 122.5815c0 18.727-12.324 33.526-26.468 33.526s-25.609-15.181-25.609-33.908c0-18.726 11.465-33.907 25.609-33.907s26.468 15.562 26.468 34.289zm-69.6274 3.3383c0 18.727-12.324 33.526-26.468 33.526s-25.609-15.181-25.609-33.908c0-18.726 11.465-33.907 25.609-33.907s26.468 15.562 26.468 34.289z" fill="#b1dfec"/><path d="m179.6006 126.5874c0 12.276-7.672 22.136-16.548 22.136s-16.453-9.955-16.453-22.231 7.577-22.224 16.453-22.224 16.548 10.043 16.548 22.319zm-69.0551-.3815c0 12.276-7.672 22.136-16.548 22.136s-16.453-9.955-16.453-22.231 7.577-22.224 16.453-22.224 16.548 10.043 16.548 22.319z"/><path d="m166.8197 115.9048c0 3.74-2.989 6.772-6.677 6.772-3.687 0-6.676-3.032-6.676-6.772s2.989-6.772 6.676-6.772c3.688 0 6.677 3.032 6.677 6.772zm-64-.3815c0 3.74-2.989 6.772-6.677 6.772-3.687 0-6.676-3.032-6.676-6.772s2.989-6.772 6.676-6.772c3.688 0 6.677 3.032 6.677 6.772z" fill="#fff"/><path d="m72.9657 311.7201s-.191 8.107 5.246 8.203c1.704 5.121 7.723 5.094 8.68.667h6.867s-.668 3.529 3.434 3.434c4.101-.095 3.719-3.72 3.719-3.72h6.486s-.954 3.72 3.243 3.72 3.995-4.262 3.995-4.262c2.358-1.482 5.114-1.365 5.114-5.944 0-.997-.239-2.085-.698-3.212-2.486-6.1-11.429-13.337-23.958-13.384-8.039.053-15.531 4.957-20.507 9.777-1.526 1.478-1.621 4.721-1.621 4.721zm113.5005 0s.002 8.393-5.435 8.489c-.857 4.864-7.855 4.807-8.49.381h-6.868s.477 3.529-3.624 3.434c-4.102-.095-3.529-3.72-3.529-3.72h-6.486s.763 3.72-3.434 3.72-3.804-4.262-3.804-4.262c-2.358-1.482-5.114-1.365-5.114-5.944 0-.997.239-2.085.698-3.212 2.486-6.1 11.429-13.337 23.958-13.384 8.039.053 14.797 4.906 20.031 9.443 2.099 2.194 2.097 5.055 2.097 5.055z" fill="#ff7f2b"/></svg>