<svg height="256" preserveAspectRatio="xMidYMid" viewBox="0 0 256 256" width="256" xmlns="http://www.w3.org/2000/svg"><path d="m0 0h256v256h-256z" fill="#f7df1e"/><g fill="#2e2e2c" transform="translate(117.84127 113.371429)"><path d="m102.281464 36.8767277h-85.9168589c-8.81398989 0-15.95825638 7.5620027-15.95825638 16.5579888v45.7360086h117.25928928v-45.7360086c0-8.9959861-6.568963-16.5579888-15.384174-16.5579888zm-69.3674202 37.1626445c-5.8006705 0-10.5020351-4.7990807-10.5020351-10.7182319s4.7013646-10.7194533 10.5020351-10.7194533 10.5008136 4.8003021 10.5008136 10.7194533-4.7001431 10.7182319-10.5008136 10.7182319zm53.7084189 0c-5.7994491 0-10.5020351-4.7990807-10.5020351-10.7182319s4.702586-10.7194533 10.5020351-10.7194533c5.7982275 0 10.5008136 4.8003021 10.5008136 10.7194533s-4.7025861 10.7182319-10.5008136 10.7182319z"/><path d="m22.5988907 103.376181h72.5492995c2.0813524 0 3.7657332 1.721024 3.7657332 3.843906 0 2.124103-1.6843808 3.845127-3.7657332 3.845127h-72.5492995c-2.080131 0-3.7669547-1.721024-3.7669547-3.845127 0-2.12166 1.6868237-3.843906 3.7669547-3.843906z"/><path d="m34.8671438 114.620858h48.6626051c2.0813524 0 3.7669547 1.722246 3.7669547 3.846349s-1.6856023 3.843906-3.7669547 3.843906h-48.6626051c-2.0801309 0-3.7669546-1.719803-3.7669546-3.843906s1.6868237-3.846349 3.7669546-3.846349z"/><path d="m67.8450975 8.06270021c0-4.32393629-3.323568-7.82950046-7.5607813-7.82950046-4.2335489 0-7.354356 3.50556417-7.354356 7.82950046 0 2.68841349 1.2202295 5.05924979 3.6631313 6.46880409v13.3223653c0 2.2828918 1.4303191 4.1321685 3.6643528 4.1321685 2.2364767 0 3.6643528-1.8492767 3.6643528-4.1321685v-13.1000612c2.4429019-1.3729108 3.9233004-3.8512348 3.9233004-6.69110819z"/></g></svg>