<svg height="274" preserveAspectRatio="xMidYMid" viewBox="0 0 256 274" width="256" xmlns="http://www.w3.org/2000/svg"><path d="m96.8648649 58.1528216 31.1351351-17.9758126 31.135135 17.9758126v43.9411314l34.594595 19.973074v-83.8872793l-65.72973-37.94939309-65.7297297 37.94939309v83.8877403l34.5945946-19.973535z" fill="#00a"/><path d="m186.810811 126.06155-58.810811 33.954364-58.8108108-33.954364 58.8108108-33.9543644z" fill="#0aa"/><g fill="#00a"><path d="m62.2701923 130.056586-62.27008698 35.951476v71.903455l62.27008698 35.950712 62.2703397-35.950712v-71.903455zm0 31.957086 34.5946611 19.972932v39.946357l-34.5946611 19.973192-34.5944088-19.973192v-39.946357z"/><path d="m193.72973 241.906162-34.594595-19.973304v-7.989045l-27.675676-15.978552v39.946379l62.270271 35.950702 62.27027-35.950702v-15.978782l-83.027027-47.935654 20.756757-11.984029 34.594594 19.973535v7.989045l27.675676 15.978551v-39.946147l-62.27027-35.952087-62.270271 35.952087v15.978551l83.027027 47.935654z"/></g></svg>