<svg height="169" preserveAspectRatio="xMidYMid" viewBox="0 0 256 169" width="256" xmlns="http://www.w3.org/2000/svg"><g fill="#333" transform="translate(0 114.563536)"><path d="m22.5117348 7.19133702c-4.0931713 0-7.6389834 1.02117127-9.7173923 2.70638674l-.0099005-.00353591c-1.1378564-2.06497238-3.28486189-3.10170166-6.11429835-3.10170166-4.46090608 0-6.47991161 1.1838232-6.47991161 3.46236461 0 1.3676906.2800442 2.1031602.64353592 3.0111823h3.28344751c1.36981215 0 2.2721768.6414144 2.2721768 2.5550498h.00495027v24.4996243c0 .6689945.54453039 1.2121105 1.21140332 1.2121105h4.60587844c.6682873 0 1.2121105-.543116 1.2121105-1.2121105v-18.9199558c0-5.4375249 2.6993149-7.9699448 8.494674-7.9699448 3.2586962 0 4.5973923.5904973 5.1440442 1.0855249.523315.4723978 1.1477569 1.6463204 1.1477569 4.5478895v21.2564862c0 .6689945.5417017 1.2121105 1.2114034 1.2121105h4.6094143c.6682873 0 1.2106962-.543116 1.2106962-1.2121105v-20.4665636c0-4.8540994-.8981216-8.1085524-2.7438674-9.94439774-1.8436244-1.82877348-5.1100995-2.71840884-9.9861216-2.71840884z"/><path d="m54.7811713 7.19133702c-6.2210829 0-10.2145415 1.12937016-12.2052597 3.44963538-1.9461657 2.2658121-2.8923757 6.8285525-2.8923757 13.952 0 7.1220331.9455028 11.6847735 2.8916685 13.9505856 1.9914254 2.3209724 5.9834696 3.4503426 12.2059669 3.4503426 6.2437127 0 10.2463646-1.1293702 12.2392044-3.4489282 1.9461657-2.2665194 2.8923757-6.8292597 2.8923757-13.952 0-7.1234475-.94621-11.6861879-2.8923757-13.952-1.9928398-2.32167958-5.9954917-3.44963538-12.2392044-3.44963538zm6.6432707 27.06528178c-.4129945.558674-1.8224089 1.497105-6.6432707 1.497105-4.7925746 0-6.1977459-.938431-6.6100332-1.497105-.4575469-.624442-1.2269613-2.7078011-1.2269613-9.6636464 0-6.9572597.7694144-9.0406188 1.2269613-9.6650608.4122873-.5579668 1.8174586-1.4963978 6.6100332-1.4963978 4.8208618 0 6.229569.938431 6.6432707 1.4963978.4582541.624442 1.2283757 2.7099227 1.2283757 9.6650608 0 6.9544309-.7701216 9.0399116-1.2283757 9.6636464z"/><path d="m138.187669 29.6005304h-4.706299c-.668287 0-1.210696.5417016-1.210696 1.2106961v.9872265c0 1.1534144-.185282 2.6370829-1.062188 3.1490829-.515536.3012597-2.059315.8061879-6.612862.8061879-4.581834 0-6.037922-.9872266-6.498298-1.5763094-.463912-.593326-1.22484-2.3527956-1.325967-7.5194696h21.417017c.668287 0 1.210696-.5424089 1.210696-1.2121105v-2.466652c0-6.3724199-.992177-10.5023646-3.035934-12.6224972-2.057193-2.13074035-6.068331-3.16676245-12.259005-3.16676245-5.737371 0-9.537768 1.19443094-11.619713 3.65259665-2.032442 2.3994697-3.018254 6.7889503-3.018254 13.4201989 0 7.144663.984398 11.7668067 3.005525 14.1309172 2.071337 2.4213922 6.102276 3.5988508 12.324066 3.5988508 5.269215 0 8.90484-.7050608 11.111956-2.1554917 2.340773-1.5388288 3.525304-4.1886409 3.525304-7.9098343l-.033945-1.152c-.019801-.6534364-.556553-1.1746298-1.211403-1.1746298zm-20.023868-14.7631381c.486542-.5268509 1.958895-1.4058785 6.36747-1.4058785 4.428375 0 5.924066.760221 6.42263 1.2128177.478762.4377458 1.282121 1.7644199 1.282121 5.7635359l.005658.2425635h-15.397481c.125878-3.925569.86347-5.3215469 1.319602-5.8130386z"/><path d="m149.646851 7.65100552h-4.608707c-.668995 0-1.210696.54382321-1.210696 1.21352487v34.35350271c0 2.6597128-.35642 3.5910719-.531094 3.8866741l-.591205.1930608h-3.688663c-1.936265 1.222011-3.047248 6.1256132 3.626431 6.2790718l.005658-.0282873c.170431.0084862.355005.0282873.514121.0282873 3.510453 0 7.695558-1.5635801 7.695558-9.0095028v-35.70280661c0-.66970166-.543116-1.21352487-1.211403-1.21352487z"/><path d="m162.196508 7.65100552h-4.607293c-.66758 0-1.21211.54382321-1.21211 1.21352487v31.45617681c0 .6689945.54453 1.2121105 1.21211 1.2121105h4.607293c.668288 0 1.211404-.543116 1.211404-1.2121105v-31.45617681c0-.66970166-.542409-1.21352487-1.211404-1.21352487z"/><path d="m209.32526 21.376-8.42042-.4278453c-2.445437-.1216354-3.488531-1.2743425-3.488531-3.8576796 0-2.2658121.557967-2.8492375.798409-2.9942099.329547-.1994254 1.561459-.663337 5.887293-.663337 4.820862 0 5.996199.4745193 6.242298.6187845.357835.2135691.738299 1.1237127.738299 3.0394696 0 .6675801.543823 1.2114033 1.211403 1.2114033h4.608c.669702 0 1.211403-.5438232 1.211403-1.2114033v-1.1512928c0-5.8031381-4.613657-8.74713812-13.716508-8.74713812-5.496221 0-9.124066.64282873-11.092155 1.96667403-2.089723 1.40658559-3.14979 4.11862979-3.14979 8.06329279 0 4.1935912 1.328089 7.032221 3.944663 8.4380995 2.405835 1.2934364 7.110719 1.9221215 14.379138 1.9221215 1.629348 0 3.294056.4462321 3.294056 3.7565525 0 1.8400884-.405216 3.017547-1.207868 3.5040884-.56221.3394475-2.200751.911558-6.859668.911558-3.721901 0-5.077569-.5261436-5.552796-.8365967-.686674-.4518895-1.0339-1.501348-1.0339-3.1462541l-.033945-1.4794254c-.014851-.6590939-.553017-1.1852376-1.212111-1.1852376h-4.769944c-.659801 0-1.198674.5268508-1.212818 1.1873591l-.033945 1.7347183c0 3.7593812 1.168265 6.4148508 3.469437 7.8963977 2.161149 1.392442 5.856884 2.0685083 11.300066 2.0685083 5.327912 0 8.944442-.7170828 11.059624-2.191558 2.222674-1.5501436 3.347094-4.3321989 3.347094-8.2669613.002122-6.3292818-3.353458-9.8439779-9.706784-10.1600884z"/><path d="m254.92579 35.5203536h-1.907978c-1.369812 0-2.273591-.6435359-2.273591-2.5557569v-24.09935913c0-.66970166-.542409-1.21352486-1.210696-1.21352486h-4.608c-.668287 0-1.212111.5438232-1.212111 1.21352486v18.03173483c0 3.4538784-.584839 5.9049724-1.693701 7.0852596-1.104619 1.1774586-3.316685 1.7729061-6.572553 1.7729061-3.162519 0-4.298961-.6796022-4.694983-1.0841105-.398144-.4080442-1.068553-1.5840884-1.068553-4.8781436v-20.92693925c0-.66970166-.543823-1.21352486-1.21211-1.21352486h-4.608c-.666873 0-1.210696.5438232-1.210696 1.21352486v20.92693925c0 7.982674 4.229657 12.2024309 12.234961 12.2024309 3.815956 0 6.786122-.8005304 8.877967-2.3867403l.415116-.4985636c.708597 1.9221216 2.178829 2.8853039 4.906431 2.8853039 4.463735 0 6.480619-1.1845304 6.480619-3.4623646.002121-1.3676906-.277923-2.1045746-.642122-3.0125967z"/><path d="m105.48968 35.5203536c-1.207868 0-2.050829-.5035138-2.233282-1.9341437v-31.71995576c0-.66899447-.543116-1.21211049-1.210696-1.21211049h-4.6080003c-.6697017 0-1.2106962.54311602-1.2106962 1.21211049v7.56614365c-1.982232-1.4879116-5.0330165-2.24035359-9.1212375-2.24035359-4.9566409 0-8.490431 1.31465193-10.5009503 3.9064751-1.9652597 2.5373702-2.9213702 6.7988509-2.9213702 13.0340774 0 6.7380331.94621 11.2710718 2.8937901 13.8586519 1.9992044 2.6561768 5.6503867 4.0033591 10.8580773 4.0033591 3.84 0 6.7924862-.7842652 8.8263426-2.3393591l.4490607-.3974364c.7298122 1.8238232 2.1929724 2.7367955 4.8512708 2.7367955 4.463735 0 6.482033-1.1845304 6.482033-3.4623646 0-1.3662762-.280044-2.1031602-.64495-3.0111823h-1.909392zm-17.2015032.2340773c-3.0437127 0-5.0238232-.6548508-5.8865856-1.9489944-.6647514-.9914696-1.4567956-3.4835801-1.4567956-9.7074917 0-5.6065415.7885083-7.8907404 1.4525525-8.8220995.8719558-1.2241326 2.8230718-1.8443315 5.7918232-1.8443315 3.2176795 0 5.3639779.6385856 6.3773701 1.9009061.7418343.9214586 1.625105 3.1158453 1.625105 8.3383867 0 6.5697238-.814674 9.130431-1.4978121 10.1219006-.8818564 1.2842431-3.098873 1.9617237-6.4056575 1.9617237z"/><path d="m185.932376 7.65100552h-3.255161-1.654099-1.859182v-6.35686187c0-.66899448-.543824-1.21140332-1.211404-1.21140332h-4.607292c-.670409 0-1.210697.54240884-1.210697 1.21140332v6.35686187h-3.132817c-.670409 0-1.212111.54382321-1.212111 1.21352487v3.81454141c0 .6697017.541702 1.2128177 1.212111 1.2128177h3.132817v19.1589834c0 4.0528619 1.775028 8.8765525 10.170697 8.9380774l.001414.0056574c.018387 0 .033945-.0042431.051624-.0042431.036067 0 .065768.0042431.10042.0042431.030409 0 .056575-.0148508.084155-.0162652 6.392928-.2687292 5.301039-5.0570607 3.388818-6.2613922h-4.209857c-1.354961-.1584089-2.557878-.9094365-2.557878-3.785547v-18.0388066h3.135646l.007779.0396022c6.672265-.1541658 5.560575-5.05988951 3.625017-6.28119338z"/></g><path d="m198.895735 57.8977238c2.205701-11.6522431-1.3981-23.4636023-9.776796-31.8479558-6.705503-6.7047956-15.650652-10.3955802-25.181348-10.3955802-2.233989 0-4.472221.209326-6.662364.6159558-6.682873-9.79093918-17.536708-15.59690603-29.394741-15.59690603-11.85379 0-22.792486 5.80879558-29.4739446 15.60114913-2.1809502-.4080442-4.4163536-.6145414-6.6552928-.6145414-9.5243315 0-18.4680663 3.6893702-25.1650829 10.3934586-8.390011 8.3836464-11.9888618 20.1942983-9.7831602 31.8444199-10.383558 5.8773922 4.4927293 35.6285524 35.4354917 30.4420773 2.7113371 1.5275138 19.0995798 8.1269392 35.6419888 8.1601768 16.679602.0346519 33.516199-6.5096133 36.44747-8.1630055 29.748331 3.5352044 45.175514-25.6650608 34.567779-30.4392486z" fill="#c5c7c9"/><g transform="translate(72.132597 24.751381)"><path d="m26.1211934 27.3495691c-6.7564199-5.5004641-16.68808843-4.483536-22.18784533 2.2721768-5.49834255 6.7535911-4.48141437 16.6880884 2.27429834 22.1878453 5.25436459 4.2777458 12.42943649 4.608 17.94616579 1.365569.6003977-.352884 2.0048618-.9681326 3.4779226.2319558 1.4730608 1.1993812 21.3668066 17.3952707 21.3668066 17.3952707l4.3986741-5.4035801s-19.8930387-16.1951823-21.3660995-17.3945635c-1.4737679-1.1993812-1.1576574-2.695779-.9341878-3.3534586 2.0586077-6.0612596.2800442-13.0220552-4.9757348-17.3012154z" fill="#333"/><path d="m12.4167072 44.3155801c-2.6165746-2.129326-3.0125967-5.9756906-.8825636-8.5922652 2.1321547-2.6186961 5.9792266-3.0104751 8.595094-.8811492 2.6158674 2.1300332 3.0154254 5.9785194.8832707 8.5972155-2.1307403 2.6158674-5.9799337 3.0062321-8.5958011.8761989z" fill="#fff"/><path d="m85.3052818 27.3495691c6.7557127-5.5004641 16.6880882-4.483536 22.1878452 2.2721768 5.498343 6.7535911 4.481414 16.6880884-2.275005 22.1878453-5.2543651 4.2777458-12.4287297 4.608-17.9461662 1.365569-.6003978-.352884-2.0048619-.9681326-3.4779227.2319558-1.4737679 1.1993812-21.3668066 17.3952707-21.3668066 17.3952707l-4.398674-5.4035801s19.8930387-16.1951823 21.3660994-17.3945635c1.473768-1.1993812 1.1583647-2.695779.9341879-3.3534586-2.0593149-6.0612596-.2807514-13.0220552 4.976442-17.3012154z" fill="#333"/><path d="m99.2289945 44.3155801c2.6165745-2.129326 3.0125965-5.9756906.8825635-8.5922652-2.1328619-2.6186961-5.9792265-3.0104751-8.5943867-.8811492-2.6165746 2.1300332-3.0154254 5.9785194-.8832707 8.5972155 2.1300331 2.6158674 5.9792265 3.0062321 8.5950939.8761989z" fill="#fff"/><path d="m70.1277348 70.0407514c0 7.9409503-6.4360663 14.3763094-14.3770166 14.3763094-7.9409502 0-14.3784309-6.4360663-14.3784309-14.3763094 0-7.9416575 6.4374807-14.3791381 14.3784309-14.3791381 7.9409503 0 14.3770166 6.4374806 14.3770166 14.3791381z" fill="#333"/><path d="m55.7464751 76.1508066c-3.3739668 0-6.1065193-2.7382099-6.1065193-6.1114696 0-3.374674 2.7325525-6.1107624 6.1065193-6.1107624 3.3760884 0 6.1093481 2.7353812 6.1093481 6.1107624 0 3.3732597-2.7325525 6.1114696-6.1093481 6.1114696z" fill="#fff"/><path d="m71.5215912 15.7927956c0-8.71177903-7.059094-15.77228731-15.770873-15.77228731-8.7096574 0-15.7715801 7.06050828-15.7715801 15.77228731 0 6.7755138 4.3060332 12.5482431 10.3036464 14.7794033.6527293.2425635 2.048.9440884 2.048 2.8435801v27.4019006h6.3646409v-27.4019006c0-1.9001989 1.6286409-2.5996022 2.2792486-2.8421657 6.0025636-2.2290387 10.5469172-8.0031824 10.5469172-14.7808177z" fill="#333"/><path d="m49.6399558 15.790674c0-3.3732596 2.7325525-6.10934803 6.1065193-6.10934803 3.3760884 0 6.1093481 2.73608843 6.1093481 6.10934803 0 3.3739669-2.7325525 6.112884-6.1093481 6.112884-3.3739668 0-6.1065193-2.7389171-6.1065193-6.112884z" fill="#fff"/></g></svg>