<svg height="256" preserveAspectRatio="xMidYMid" viewBox="0 0 256 256" width="256" xmlns="http://www.w3.org/2000/svg"><path d="m256 186.0781c0 38.617-31.305 69.922-69.922 69.922h-116.156c-38.617 0-69.922-31.305-69.922-69.922v-116.156c0-38.617 31.305-69.922 69.922-69.922h116.156c38.617 0 69.922 31.305 69.922 69.922z" fill="#17b6a7"/><g fill="#fff"><path d="m146.3435 56.18c-4.879 0-6.254 3.015-3.057 6.7l51.677 59.559c3.197 3.685 5.813 2.708 5.813-2.171v-55.218c0-4.878-3.992-8.87-8.87-8.87z"/><path d="m64.094 56.18c-4.879 0-8.87 3.992-8.87 8.87v32.811c0 4.879 2.596 11.903 5.769 15.609l68.16 79.612c3.173 3.706 9.761 6.738 14.64 6.738h48.113c4.879 0 8.87-3.992 8.87-8.87v-34.906c0-4.879-2.626-11.876-5.837-15.55l-67.842-77.635c-3.211-3.673-9.829-6.679-14.708-6.679z"/><path d="m55.2236 190.9496c0 4.879 3.992 8.87 8.87 8.87h45.472c4.879 0 6.279-3.036 3.112-6.746l-51.695-60.558c-3.167-3.711-5.759-2.755-5.759 2.124z"/></g></svg>