<svg height="287" preserveAspectRatio="xMidYMid" viewBox="0 0 256 287" width="256" xmlns="http://www.w3.org/2000/svg"><path d="m7.96444444 72.3626667 121.74222256-70.88355559 121.742222 70.88355559v141.6533333l-121.742222 70.883556-121.74222256-70.883556z" fill="#c00"/><path d="m133.12 143.132444 113.208889-65.1946662 4.551111 131.4133332-117.76 71.111111z" fill="#fff"/><path d="m248.035556 73.9555556-.341334 139.2640004-118.101333 68.494222-.568889-136.874667zm-99.328 82.2613334.341333 91.477333 39.253333-22.869333-.113778-68.949333 19.797334-11.719112v69.176889l19.797333-11.605333.113778-92.615111z" fill="#c00"/><path d="m137.443556 2.50311111c-5.461334-3.072-14.222223-3.072-19.683556 0l-107.86133333 62.00888889c-5.46133334 3.072-9.78488889 10.8088889-9.78488889 16.9528889v124.0177781c0 6.257777 4.43733333 13.880889 9.78488889 16.952889l107.86133333 62.008888c5.461333 3.072 14.222222 3.072 19.683556 0l107.861333-62.008888c5.461333-3.072 9.784889-10.808889 9.784889-16.952889v-124.0177781c0-6.2577778-4.437334-13.8808889-9.784889-16.9528889zm95.687111 64.85333329c5.461333 3.072 5.461333 8.192 0 11.264l-94.435556 54.2719996c-5.461333 3.072-14.222222 3.072-19.683555 0l-95.8008893-55.068444c-5.4613334-3.072-5.4613334-8.192 0-11.264l94.4355553-54.272c5.461334-3.072 14.222222-3.072 19.683556 0zm-224.59733367 23.0968889c0-6.2577777 4.43733337-8.7608889 9.78488887-5.6888889l96.5973338 55.5235556c5.461333 3.072 9.784888 10.808889 9.784888 16.952889v110.136889c0 6.257778-4.437333 8.760889-9.784888 5.688889l-96.5973338-55.523556c-5.4613333-3.072-9.78488887-10.808889-9.78488887-16.952889zm134.59911067 180.9066667c-5.461333 3.072-9.784888.568889-9.784888-5.688889v-108.430222c0-6.257778 4.437333-13.880889 9.784888-16.952889l93.752889-53.8168889c5.461334-3.072 9.784889-.5688889 9.784889 5.6888889v108.430222c0 6.257778-4.437333 13.880889-9.784889 16.952889z" fill="#910505"/></svg>