<svg height="141" preserveAspectRatio="xMidYMid" viewBox="0 0 512 141" width="512" xmlns="http://www.w3.org/2000/svg" xmlns:xlink="http://www.w3.org/1999/xlink"><linearGradient id="a"><stop offset="0" stop-color="#f29100"/><stop offset="1" stop-color="#ec670f"/></linearGradient><linearGradient id="b" x1="50%" x2="50%" xlink:href="#a" y1="-.000293%" y2="99.99971%"/><linearGradient id="c" x1="49.99994%" x2="49.99994%" xlink:href="#a" y1="-.000139%" y2="99.999818%"/><linearGradient id="d" x1="50%" x2="50%" xlink:href="#a" y1="-.000496%" y2="99.999468%"/><path d="m83.9533714 123.855238c-.2038247-1.388739.1921219-2.770651-.2262552-4.073569-.3579124-1.137128-1.1790629-1.241479-1.7183695-2.166004-1.4209219-2.425417-2.8896305-5.567635-3.0251886-8.537235-.1238552-2.667276-1.1049448-5.077089-1.2385524-7.72096-.0643657-1.275611.085821-2.5912071.0399848-3.8541405-.024381-.6144-.0594895-1.14688-.1813943-1.8139428-.0302324-.1648153-.1394591-.843581-.1901714-1.1156724l.3315809-.8270019c-.1462857-.2837943 2.830141-.1891962 3.7176076-.1833448 1.5067429.0185295 2.9237638.0965486 4.4266057.1687162 3.0700496.1521372 5.8670324.1141029 8.8571124-.3471848 6.6628266-1.0288761 9.7260496-3.7497904 11.2932576-4.8810666 6.117668-4.4110019 8.919527-11.6228876 8.919527-11.6228876 1.009372-2.2528 1.005471-6.2717562 3.169524-8.0710705 2.550248-2.1250438 6.832518-1.9719314 9.760183-3.2758248 1.712518-.75776 2.948145-1.1751619 4.698697-.8123733 1.299017.2711162 3.637638 1.7759086 4.174994-.3364572-.433981-.2798933-.603672-.7918933-.835779-1.0756876 2.413715-.2389333.045836-5.8377752-.908922-6.9563733-1.47456-1.7261714-3.935085-2.5170895-6.552624-3.2114591-3.109059-.8240761-5.929448-1.7749333-8.857113-1.200518-5.112198 1.0005942-4.729905-1.92512-7.742415-1.92512-3.615208 0-10.047878.1774933-11.15965 3.6922514-.517851 1.6413257-1.0513062 1.7095924-1.9485253 2.9686247-.7675124 1.0786134.1336076 2.0304458-.2516114 3.2611962-.3978972 1.2648838-.9820648 5.7197715-1.5915886 7.274301-1.0308267 2.6302171-2.2596267 5.914819-4.5280305 5.914819-3.1802514.3803429-5.6797866.5022477-8.2592914-.4339809-1.552579-.5636876-4.1545143-1.4462781-5.4418286-1.9885105-5.9372495-2.4995352-6.9124876-5.2341029-6.9124876-5.2341029-.6368305-1.0532571-2.3152152-2.7511466-2.9432686-4.9668876-.6904685-2.4400457-1.855878-4.4753676-2.3278933-5.7451276-.4885943-1.3155962-1.6569295-3.4230857-2.5746286-5.7012419-1.1751619-2.9169371-2.8281904-5.0936686-4.0384609-6.1742324-1.8490514-1.6481524-3.5557181-4.1993752-7.3094095-3.4581943-.6709638.1326324-3.1090591.2428343-4.9776153 1.8100419-1.2668343 1.0630096-1.6666819 3.25632-2.8398933 5.1063467-.6777905 1.068861-1.8695314 4.1350095-2.9627733 6.6930591-.75776 1.7729828-1.1107962 3.1022323-1.9299962 3.7546666-.6407315.5110248-1.4345753 1.171261-2.3951848.8113981-.5958705-.2233295-1.2327009-.6017219-1.8753828-1.1039695-.867962-.6777905-2.8408686-4.0355352-4.0530896-6.5155657-1.0503314-2.1504-3.2924038-5.36576-4.5894704-7.10656-1.8666058-2.5044114-2.9608229-3.1392914-5.7187962-3.1392914-5.9167696 0-6.3644038 3.3128838-8.9673143 8.13056-1.1429791 2.1162666-1.5594057 5.4749866-3.85414098 8.1071542-1.31169523 1.5057677-5.49741714 7.6975543-8.40752762 8.7498362v-.0302324l-.0078019.0302324v44.1363506l.0078019.06144v-.276968c.18822096-.57539.38814477-1.127375.61537524-1.620845 1.12542476-2.398111 3.73711238-4.623604 5.18826667-7.0860804.78896762-1.3419276 1.68911238-2.6565486 2.21184-4.0647924.44958476-1.2131962.67096381-3.0222629 1.32047238-4.0745448.79579431-1.29024 2.04214861-1.7290971 3.32166091-1.9377981 2.0041143-.3306057 3.70688 2.8808534 6.270781 4.0628419 1.0932419.5022477 6.1254705 2.2840077 7.6361143 2.6497219 2.4878324.5948953 5.2477562 1.0912915 7.7736228 1.601341 1.3526553.2730667 2.645821.4320305 4.038461.57344 1.24928.1248305 5.9294476.2798933 6.2190933.6183009-2.3786057 1.213196-3.7731962 4.618728-4.6665143 7.028541-.9313523 2.511238-1.5808609 5.30627-2.7062857 7.762895-1.2473295 2.714088-3.8629181 3.843414-3.5508419 7.006111.1199543 1.261958.3501105 2.585356.1394591 3.974095-.2243048 1.461882-.8152991 2.60291-1.2453791 4.03456-.5519847 1.867581-1.2092952 7.899429-2.0606781 9.672411l5.2048457-.652434.0087772-.002926c.5685638-1.35168 1.0922666-7.057798 1.2765866-7.601005.9732877-2.861349 2.2645029-5.215574 4.2510629-7.428389 1.9368229-2.156251 1.8363733-4.93568 2.9676495-7.447893 1.2248991-2.730667 2.8720762-4.914225 4.4266057-7.481052 2.809661-4.641158 4.6626134-10.5003882 10.6359467-11.6921292.6378057-.1316571 4.2949486 2.5053867 5.9177448 4.0735692 1.8588038 1.786637 3.8892495 3.856092 5.1102476 6.319543 2.3639771 4.774766 4.3690667 11.691154 5.1278019 15.505311.4359314 2.190384.7831162 2.321066 2.2645029 4.056015.6816914.794819 2.0421485 3.27875 2.4897828 4.232533.4700648 1.018149 1.1849143 3.335315 1.7544533 4.518278.3354819.704122 1.2053943 2.8672 1.8383239 4.735757l4.8635123-.152138c.0175543.04096.106301-.011702.126781.026332.0019505 0 .0048762-.000975.0068267-.001951-.02048-.037059-.0390096-.079969-.0565639-.119954-2.4234666-4.863512-3.9740952-10.490636-4.7747657-15.875901z" fill="#fff"/><path d="m81.9502324 135.240168c-.5695391-1.182964-1.2834134-3.50013-1.7544534-4.518278-.4476342-.953783-1.8080914-3.43674-2.4897828-4.232534-1.4823619-1.734948-1.8285714-1.86563-2.2645029-4.056015-.75776-3.814156-2.7638247-10.73152-5.1278019-15.505311-1.2209981-2.463451-3.2514438-4.532906-5.1102476-6.319542-1.6227962-1.567208-5.279939-4.205227-5.9177448-4.0735699-5.9733333 1.1927162-7.8262857 7.0509719-10.6359466 11.6921299-1.5545295 2.566826-3.2017067 4.750384-4.4266057 7.481051-1.1312762 2.511238-1.0308267 5.291642-2.9676496 7.447893-1.98656 2.213791-3.2777752 4.568016-4.2510628 7.428389-.18432.543208-.7080229 6.249326-1.2765867 7.601006 0 .000975-.0009752.00195-.0009752.002925l8.8785676-.625127c8.2719695.563687 5.8836114 3.734186 18.7957638 3.043718l20.3883276-.630979c-.6339047-1.868556-1.5038171-4.031634-1.839299-4.735756z" fill="url(#b)"/><path d="m141.112076 0h-120.7637331c-11.23279242 0-20.33859052 9.10774857-20.33859052 20.340541v44.3499276.0302324c2.91011048-1.052282 7.09583238-7.2440686 8.40752762-8.7498362 2.2947352-2.6331429 2.7111619-5.9918629 3.854141-8.1071543 2.6029104-4.8176762 3.0505447-8.13056 8.9673142-8.13056 2.7579734 0 3.8531658.6358552 5.7187962 3.1392914 1.2980419 1.7408 3.5401143 4.9571352 4.5894705 7.10656 1.2112457 2.4810057 3.1851276 5.8377752 4.0530895 6.5155657.6426819.5032229 1.2795124.88064 1.8753829 1.1039695.9596343.3598629 1.7534781-.3003733 2.3951847-.8113981.8192-.6524342 1.1722362-1.9816838 1.9299962-3.7546666 1.0942172-2.5580495 2.2849829-5.6232229 2.9627734-6.6930591 1.1732114-1.8490514 1.573059-4.0433371 2.8398933-5.1063466 1.8685562-1.5672077 4.3066514-1.6774096 4.9776152-1.8100419 3.7536915-.741181 5.4603581 1.8100419 7.3094096 3.4581942 1.2102704 1.0805639 2.8642743 3.2572953 4.0384609 6.1742324.9176991 2.2781562 2.0860343 4.3856457 2.5746286 5.7012419.4720152 1.26976 1.6374248 3.3050819 2.3278933 5.7451277.6270781 2.2157409 2.3054629 3.9136304 2.9432686 4.9668876 0 0 .9762133 2.7345676 6.9124876 5.2341028 1.2873143.5422324 3.8892495 1.4238476 5.4418286 1.9885105 2.5795047.9372038 5.0780647.8152991 8.2592914.433981 2.2684038 0 3.4972038-3.2846019 4.5280305-5.9148191.6095238-1.5545295 1.1936914-6.0094171 1.5915886-7.2743009.385219-1.2307505-.515901-2.1825829.2516114-3.2611962.897219-1.2590324 1.4306738-1.3272991 1.9485258-2.9686248 1.112747-3.5147581 7.544442-3.6922514 11.159649-3.6922514 3.013486 0 2.630218 2.9257143 7.742416 1.92512 2.927664-.5744153 5.749028.3774171 8.857112 1.2005181 2.617539.6943695 5.078065 1.4852876 6.552625 3.211459.954758 1.1176229 3.321661 6.71744.908922 6.9563734.232106.2837942.401798.7957942.835779 1.0756876-.537356 2.1123657-2.875977.6075733-4.174995.3364571-1.750552-.3627886-2.986179.0546133-4.698697.8123733-2.927664 1.3038934-7.209935 1.1517562-9.760183 3.2758248-2.164053 1.8002895-2.160152 5.8192457-3.169523 8.0710705 0 0-2.801859 7.2109105-8.919528 11.6228876-1.567208 1.1312762-4.63043 3.8521905-11.2932571 4.8810667-2.99008.4622628-5.7870629.5002971-8.8571124.3471847-1.5028419-.0721676-2.9198628-.1492114-4.4266057-.1687162-.8874667-.0068266-3.8648686-.1014247-3.7176076.1833448l-.331581.8270019c.0516877.2720914.1599391.9518324.1901715 1.1156724.1219047.6680381.1560381 1.2005181.1813943 1.8139428.0458361 1.2629334-.1043505 2.579505-.0399848 3.854141.1336076 2.64387 1.1146971 5.053684 1.2385524 7.72096.1355581 2.9696 1.6042666 6.111817 3.0251885 8.537234.5393067.923551 1.3604572 1.028876 1.7183696 2.166004.4193523 1.302918.0224304 2.684831.2262552 4.07357.7996952 5.384289 2.3503238 11.012388 4.7747657 15.872.0165791.039984.0360838.08387.0565638.119954 0 0 0 .000975.0009753.00195 2.9939809-.503222 5.9938133-1.579885 9.8840381-2.155276 7.1328912-1.058133 17.0530132-.512975 23.4252192-1.109821 16.123611-1.51552 24.874423 6.61309 39.355733 3.281676v-119.5222548c-.00195-11.23376763-9.104823-20.3415162-20.340541-20.3415162zm-60.2463084 95.4767848c-.0224305-.2438096-.0117028-.2096762.0224305-.0594896z" fill="url(#c)"/><path d="m37.2297143 114.154545c1.1254247-2.45565 1.7749333-5.251657 2.7062857-7.762895.8933181-2.409814 2.2879086-5.815345 4.6665143-7.0285414-.2896457-.3384076-4.9698133-.4934705-6.2190933-.618301-1.39264-.1414095-2.6858058-.3003733-4.038461-.57344-2.5258667-.5100495-5.2857905-1.0054705-7.7736229-1.6013409-1.5106438-.3657143-6.5428723-2.1474743-7.6361142-2.6497219-2.563901-1.1819886-4.2666667-4.3934477-6.270781-4.0628419-1.2795124.2087009-2.5258667.6475581-3.32166095 1.9377981-.64950857 1.0522819-.87088762 2.8603733-1.32047238 4.0745447-.52175238 1.4082438-1.42287238 2.7228648-2.21184 4.0647924-1.45115428 2.4615009-4.0628419 4.6879699-5.18826666 7.0860799-.22625524.493471-.42715429 1.045455-.61537524 1.620846v.276967 8.923429 15.916861 2.299611c1.31267047.224305 2.68580571.500298 4.22278095.910873 11.34299428 3.027139 14.11071998 3.282651 25.23623618 2.010941l1.0435048-.138484v-.000975c.8513828-1.772983 1.5086933-7.804831 2.0606781-9.672412.43008-1.431649 1.0210743-2.572678 1.245379-4.03456.2116267-1.388739-.0195047-2.712137-.139459-3.974095-.3091505-3.161722 2.3064381-4.291048 3.5537676-7.005135z" fill="url(#d)"/><g fill="#484444"><path d="m212.944213 122.688853c-5.369661 0-10.272183-.956708-14.70659-2.868175-4.436358-1.910491-8.237836-4.655787-11.411261-8.237836-3.173425-3.579124-5.633951-7.932587-7.382552-13.0584382-1.750553-5.1258514-2.624366-10.9421714-2.624366-17.4528609 0-6.5087391.873813-12.3055543 2.624366-17.3904458 1.748601-5.0839161 4.209127-9.355459 7.382552-12.8146285 3.173425-3.4572191 6.974903-6.1020648 11.411261-7.9325867 4.434407-1.8305219 9.336929-2.7462705 14.70659-2.7462705s10.270233.9157486 14.706591 2.7462705c4.432457 1.8305219 8.235886 4.4968229 11.40931 7.9940267 3.173425 3.4991543 5.633951 7.7921524 7.384503 12.8760685 1.748602 5.0858667 2.622415 10.8426972 2.622415 17.268541 0 6.5106895-.873813 12.3270095-2.622415 17.4528609-1.750552 5.125851-4.211078 9.479314-7.384503 13.058438-3.173424 3.58205-6.976853 6.327345-11.40931 8.237836-4.435383 1.909517-9.33693 2.8672-14.706591 2.8672zm0-15.500434c5.449631 0 9.764084-2.337646 12.937509-7.016838 3.171474-4.6782172 4.758187-11.0445715 4.758187-19.1000381 0-7.9725715-1.586713-14.1975162-4.758187-18.6719086-3.173425-4.4734172-7.487878-6.7125638-12.937509-6.7125638-5.451581 0-9.764083 2.2381714-12.937508 6.7125638-3.173425 4.4753676-4.760137 10.7003124-4.760137 18.6719086 0 8.0554666 1.586712 14.4218209 4.760137 19.1000381 3.1744 4.679192 7.486903 7.016838 12.937508 7.016838z"/><path d="m255.412907 81.9258514c0-6.590659 1.017173-12.4674438 3.05152-17.6352304 2.034346-5.1658362 4.778666-9.5388039 8.237836-13.1198781 3.457219-3.5791239 7.485927-6.3039391 12.082225-8.1773715 4.596297-1.8705066 9.458834-2.8077104 14.584685-2.8077104 4.962012 0 9.456884 1.0376533 13.485593 3.1119847 4.026758 2.0753067 7.382552 4.4968229 10.068358 7.2616229l-9.885989 11.1060114c-2.034346-1.8705067-4.089173-3.3353143-6.163505-4.3934476-2.074331-1.0561829-4.494872-1.5867124-7.260647-1.5867124-2.767726 0-5.350156.5909943-7.750217 1.7690819-2.400061 1.1800381-4.494873 2.8681752-6.283459 5.0644114-1.790537 2.1962362-3.193905 4.8810667-4.211078 8.0544915-1.017174 3.1724495-1.525273 6.754499-1.525273 10.7393219 0 8.2193066 1.750553 14.5846857 5.249707 19.1000383 3.495253 4.516327 8.175421 6.773028 14.034651 6.773028 3.253395 0 6.10109-.650483 8.543086-1.952426 2.440046-1.300968 4.636282-3.009585 6.590659-5.125852l9.885989 10.862202c-3.337265 3.904853-7.140694 6.834469-11.411261 8.786895-4.272518 1.953402-8.891246 2.929616-13.853257 2.929616-5.125852 0-9.965959-.874789-14.522271-2.623391-4.558263-1.748602-8.543086-4.332983-11.96032-7.750217s-6.10304-7.667322-8.055467-12.7531886c-1.954377-5.0819657-2.931565-10.9607009-2.931565-17.63328z"/><path d="m324.123307 104.381684c0-6.3468497 2.683855-11.3088611 8.053516-14.8889602 5.371611-3.5791238 14.036602-5.98016 25.995947-7.2001828-.16384-2.6858058-.977189-4.820602-2.440046-6.4073143-1.464808-1.5867124-3.826834-2.379581-7.080229-2.379581-2.603885 0-5.207771.4885943-7.809706 1.4648076-2.605837.9762134-5.371612 2.3191162-8.299277 4.0277334l-6.346849-11.8384153c3.904853-2.3591009 7.994027-4.2715428 12.264594-5.7363504 4.272518-1.4638324 8.805425-2.1962362 13.607497-2.1962362 7.811657 0 13.771337 2.2176914 17.880016 6.6511238 4.106727 4.4353828 6.163504 11.3303162 6.163504 20.6867504v34.659962h-14.644175l-1.342903-6.22397h-.365714c-2.605836 2.278157-5.350156 4.130134-8.237836 5.552031-2.889631 1.422872-6.0416 2.135771-9.458835 2.135771-2.765775 0-5.247756-.469089-7.443992-1.403367s-4.068693-2.237196-5.61347-3.905829c-1.546728-1.666682-2.746271-3.599604-3.601555-5.796815-.853333-2.197212-1.280487-4.596297-1.280487-7.201158zm17.086171-1.342903c0 1.953402.629029 3.397729 1.890987 4.332008 1.260983.937203 2.948145 1.403367 5.064411 1.403367 2.114316 0 3.904854-.445684 5.369661-1.341927 1.464808-.895269 3.009585-2.155277 4.638233-3.783924v-10.6183926c-6.42877.8962438-10.861227 2.1972114-13.303223 3.9058286-2.439071 1.7105676-3.660069 3.743939-3.660069 6.10304z"/><path d="m386.607787 60.6900419h14.646125l1.220998 7.8106819h.48762c2.521965-2.5209905 5.20582-4.6986971 8.055466-6.529219 2.847695-1.8305219 6.26493-2.7462705 10.251703-2.7462705 4.312503 0 7.790202.8747886 10.434072 2.6233905 2.643871 1.7505523 4.738682 4.2520381 6.28541 7.5054323 2.685806-2.7648 5.510095-5.1443809 8.481646-7.1397181 2.9696-1.9924114 6.487283-2.99008 10.557927-2.99008 6.506789 0 11.287406 2.1777067 14.338926 6.5292191 3.05152 4.3534629 4.576792 10.3121676 4.576792 17.87904v37.5895769h-17.94048v-35.2704607c0-4.3934476-.590994-7.4030324-1.769082-9.03168-1.181013-1.6266972-3.072-2.441021-5.673935-2.441021-3.011535 0-6.468754 1.9534019-10.375558 5.8582553v40.8849064h-17.938529v-35.2704607c0-4.3934476-.59197-7.4030324-1.770058-9.03168-1.181013-1.6266972-3.072-2.441021-5.675885-2.441021-3.093455 0-6.51069 1.9534019-10.251703 5.8582553v40.8849064h-17.941455z"/><path d="m486.31808 35.6712838h17.941455v67.4894022c0 1.873432.344259 3.173424 1.035703 3.905828s1.403368 1.098118 2.136747 1.098118h1.035703c.283794 0 .671939-.079969 1.159558-.243809l2.196236 13.303223c-.975238.405699-2.216716.751908-3.721509 1.036678-1.506743.284769-3.275824.428129-5.308221.428129-3.093455 0-5.697341-.488594-7.811657-1.464807-2.116266-.976214-3.803428-2.337646-5.064411-4.088198-1.262934-1.748602-2.176732-3.862918-2.746271-6.345875-.569539-2.481005-.853333-5.267261-.853333-8.359741z"/></g></svg>