<svg height="239" preserveAspectRatio="xMidYMid" viewBox="0 0 256 239" width="256" xmlns="http://www.w3.org/2000/svg"><path d="m159.4124 2.8334c-10.037 0-20.342 2.57-30.069 8.205l-99.13 57.428c-40.432 23.422-40.247 81.96.33 104.763l99.615 55.979c9.469 5.32 19.472 7.752 29.222 7.752 31.61 0 60.6-25.534 60.449-60.889l-.484-113.406c-.149-34.957-28.722-59.832-59.933-59.832m0 8.689c13.07 0 26.048 5.247 35.606 14.395 10.024 9.594 15.578 22.657 15.638 36.785l.485 113.406c.059 13.934-5.249 26.971-14.944 36.708-9.78 9.822-23.199 15.454-36.817 15.454-8.728 0-17.127-2.233-24.965-6.637l-99.614-55.98c-16.228-9.118-25.989-25.724-26.111-44.421-.124-18.874 9.551-35.789 25.878-45.248l99.131-57.427c8.057-4.668 16.708-7.035 25.713-7.035" fill="#af81e0"/><path d="m95.0721.0004c-31.902 0-61.237 25.485-61.237 61.223v116.353c0 35.661 29.275 61.22 61.216 61.22 10.083 0 20.429-2.546 30.207-8.125l99.906-57.003c40.7-23.222 41.213-81.718.928-105.649l-99.907-59.351c-10.023-5.955-20.706-8.668-31.113-8.668m0 8.689c9.38 0 18.355 2.506 26.675 7.449l99.907 59.351c16.23 9.642 25.82 26.667 25.655 45.544-.166 18.877-10.054 35.733-26.45 45.088l-99.907 57.003c-8.121 4.633-16.835 6.982-25.901 6.982-13.421 0-26.751-5.401-36.572-14.819-10.288-9.866-15.955-23.259-15.955-37.711v-116.353c0-32.449 27.277-52.534 52.548-52.534" fill="#9069c4"/><path d="m215.22 129.7865c-.303 0-.589-.058-.884-.09l4.726-8.183-4.726-8.184c.294-.032.581-.09.884-.09 4.562 0 8.272 3.712 8.272 8.274s-3.71 8.273-8.272 8.273zm-42.722 51.148c-7.675 0-14.152 5.101-16.245 12.095h-58.54c-2.093-6.994-8.57-12.095-16.245-12.095-1.067 0-2.107.111-3.12.299l-27.804-48.158c2.83-3.031 4.576-7.088 4.576-11.562s-1.745-8.532-4.576-11.563l27.342-47.357c1.156.248 2.352.386 3.582.386 7.995 0 14.68-5.538 16.474-12.982h58.809c2.498 6.255 8.6 10.68 15.747 10.68.461 0 .914-.033 1.367-.069l28.674 49.666c-2.656 2.994-4.282 6.922-4.282 11.239s1.626 8.245 4.282 11.239l-27.904 48.331c-.702-.088-1.412-.149-2.137-.149zm-6.656 12.095c.891-1.215 2.088-2.187 3.497-2.772l-1.601 2.772zm14.929 4.867c0 4.563-3.711 8.274-8.273 8.274-3.176 0-5.908-1.82-7.294-4.452h7.551l5.584-9.673c1.502 1.498 2.432 3.568 2.432 5.851zm-97.447-8.045c1.961.453 3.646 1.604 4.8 3.178h-2.966zm-1.856 16.319c-4.561 0-8.273-3.711-8.273-8.274 0-1.928.691-3.681 1.801-5.089l5.146 8.911h8.62c-1.386 2.632-4.118 4.452-7.294 4.452zm-43.31-76.384c-4.562 0-8.273-3.711-8.273-8.273s3.711-8.274 8.273-8.274c.146 0 .284.036.429.044l-4.752 8.23 4.751 8.229c-.145.008-.282.044-.428.044zm8.272-8.273c0 1.16-.244 2.262-.676 3.264l-1.886-3.264 1.886-3.265c.432 1.003.676 2.104.676 3.265zm42.246-71.516c-1.213 2.185-3.362 3.759-5.921 4.163l2.403-4.163zm-15.481-3.981c0-4.561 3.712-8.272 8.273-8.272 2.811 0 5.291 1.415 6.787 3.563h-8.113l-5.447 9.435c-.939-1.342-1.5-2.967-1.5-4.726zm94.965 4.711c-.349-.216-.67-.465-.983-.73h.561zm4.338-15.285c4.562 0 8.273 3.711 8.273 8.273 0 2.541-1.176 4.789-2.984 6.308l-5.032-8.716h-8.131c1.038-3.383 4.155-5.865 7.874-5.865zm34.449 86.071c0-.964.197-1.875.502-2.737l1.579 2.737-1.579 2.736c-.305-.86-.502-1.773-.502-2.736zm8.273-16.962c-1.901 0-3.724.326-5.43.903l-27.61-47.822c4.397-3.065 7.28-8.152 7.28-13.917 0-9.368-7.594-16.963-16.962-16.963-8.549 0-15.6 6.33-16.772 14.555h-57.972c-2.043-7.074-8.554-12.252-16.286-12.252-9.368 0-16.962 7.594-16.962 16.961 0 5.011 2.185 9.5 5.64 12.605l-26.956 46.689c-1.59-.494-3.281-.759-5.032-.759-9.369 0-16.963 7.593-16.963 16.962 0 9.368 7.594 16.962 16.963 16.962 1.751 0 3.442-.266 5.032-.759l27.292 47.271c-3.653 3.111-5.976 7.736-5.976 12.909 0 9.369 7.594 16.963 16.962 16.963 8.052 0 14.779-5.616 16.514-13.141h58.002c1.735 7.525 8.462 13.141 16.514 13.141 9.368 0 16.962-7.594 16.962-16.963 0-5.509-2.639-10.392-6.71-13.49l27.04-46.835c1.706.577 3.529.904 5.43.904 9.368 0 16.962-7.594 16.962-16.962 0-9.369-7.594-16.962-16.962-16.962z" fill="#825aba"/><g fill="#fff"><path d="m182.1341 43.7152c0 5.321-4.314 9.636-9.636 9.636s-9.636-4.315-9.636-9.636c0-5.322 4.314-9.636 9.636-9.636s9.636 4.314 9.636 9.636"/><path d="m91.1039 46.017c0 5.322-4.314 9.636-9.636 9.636s-9.635-4.314-9.635-9.636c0-5.321 4.313-9.635 9.635-9.635s9.636 4.314 9.636 9.635"/><path d="m47.7933 121.5131c0 5.322-4.314 9.636-9.636 9.636s-9.635-4.314-9.635-9.636c0-5.321 4.313-9.636 9.635-9.636s9.636 4.315 9.636 9.636"/><path d="m91.1039 197.8969c0 5.322-4.314 9.636-9.636 9.636s-9.635-4.314-9.635-9.636c0-5.321 4.313-9.636 9.635-9.636s9.636 4.315 9.636 9.636"/><path d="m182.1341 197.8969c0 5.322-4.314 9.636-9.636 9.636s-9.636-4.314-9.636-9.636c0-5.321 4.314-9.636 9.636-9.636s9.636 4.315 9.636 9.636"/><path d="m224.8558 121.5131c0 5.322-4.314 9.636-9.636 9.636s-9.635-4.314-9.635-9.636c0-5.321 4.313-9.636 9.635-9.636s9.636 4.315 9.636 9.636"/></g></svg>