<svg height="236" preserveAspectRatio="xMidYMid" viewBox="0 0 256 236" width="256" xmlns="http://www.w3.org/2000/svg"><path d="m128.343773 0c-70.7625126 0-128.343773 57.5812604-128.343773 128.343773 0 45.093758 23.5875043 84.637515 58.2750105 107.53127 2.0812504-1.387501 4.1625008-2.775001 6.2437512-4.162501 1.3875002-.69375 3.4687506-2.081251 4.8562508-2.775001 2.0812504-.69375 4.1625008-2.08125 5.550001-2.775 2.0812504-.69375 4.1625008-1.3875 6.2437512-2.775001 1.3875002-.69375 3.4687506-1.3875 4.8562508-2.08125 2.0812504-.69375 4.8562509-1.3875 6.9375013-2.08125 2.0812504-.693751 3.4687506-.693751 5.550001-1.387501 2.0812502-.69375 3.4687502-.69375 5.5500012-1.3875 2.08125-.69375 4.162501-.69375 6.243751-.69375 2.08125 0 4.856251-.69375 6.937501-.69375v-8.325002-6.937501-28.443755-6.937501-25.668755h-6.937501v-13.875002h6.937501 20.812504 6.937501v37.462506 7.631252 29.137505 6.937501 10.406252c19.425004 2.775001 36.768757 9.712502 52.72501 19.425004 35.381256-22.893755 58.27501-62.437512 58.27501-107.53127.69375-70.7625126-56.88751-128.343773-127.650023-128.343773zm38.156257 128.343773c0-20.812504-17.343753-38.1562567-38.156257-38.1562567s-38.1562567 17.3437527-38.1562567 38.1562567c0 14.568753 8.3250015 27.750005 20.8125037 33.993756v7.631252c-15.9562528-6.937502-27.750005-22.893754-27.750005-41.625008 0-24.975004 20.118754-45.093758 45.093758-45.093758 24.975005 0 45.093758 20.118754 45.093758 45.093758 0 15.956253-8.325001 29.831256-20.812503 38.156257v-8.325001c8.325001-7.631252 13.875002-18.037504 13.875002-29.831256zm-13.875002 75.618764v-7.631252c28.443755-9.712501 48.562508-36.768756 48.562508-68.681262 0-39.5437571-32.606256-72.150013-72.843763-72.150013-40.2375071 0-72.843763 32.6062559-72.843763 72.843763 0 33.993756 23.5875043 63.131262 55.50001 70.762513v6.937501c-35.3812563-7.631251-62.4375112-39.543757-62.4375112-77.700014 0-44.4000078 35.3812564-79.7812642 79.7812642-79.7812642 44.400008 0 79.781265 35.3812564 79.781265 79.7812642 0 35.381257-23.587505 65.906262-55.50001 75.618764z" fill="#e44a49"/></svg>