<svg height="241" preserveAspectRatio="xMidYMid" viewBox="0 0 256 241" width="256" xmlns="http://www.w3.org/2000/svg"><path d="m226.006569 71.4797994c-8.878629-11.0278519-18.779547-18.972735-28.672415-23.0216471h-15.519488l.241485-.4266249c2.012382-3.5176433 5.473679-9.6191847 5.530025-9.69968 4.886063-7.3250695 6.246433-13.3944129 4.024764-18.0309404-2.39071-5.0148553-9.273055-8.7578853-17.121344-9.3374513l-148.8760012-10.86686138c-.8210518-.07244574-1.6099054-.09659432-2.3504619-.09659432-9.3374513 0-12.3962715 4.68482469-13.40246237 7.48606008-1.83529215 5.12754872.41857537 10.57707842 6.56036447 15.77707282.0804953.0804953 7.0835837 6.6650083 13.6519977 13.5232053 3.0910184 3.0910184 5.5541736 7.0352866 7.3250696 11.7201113l.2414858 15.6160823 151.0896209-.2253868s11.631567 5.071202 23.102143 19.3188647c16.219796 20.1399163 30.950431 56.8860073 24.245175 100.1119673h18.481714c6.560364-48.136172-10.367791-89.2692544-28.543623-111.8562271zm-170.7063188-26.289755-.458823-1.1671814c-.5312688-1.1269338-1.1591319-2.3102143-1.8916388-3.57399-.3863773-.6842098-.7244575-1.2235281-.9417947-1.5938063l-.3702782-.579566c-3.863773-6.1176405-8.9913216-12.235281-13.3944129-15.9702615l-8.0978241-6.8823455 143.3057285 10.464385c1.078637.0804953 1.811144.2817335 2.229719.4346745l1.167181.4024763-.402476 1.1832805c-.241486.6439621-.579566 1.3201224-1.062538 2.0284808l-.990091 1.4811129c-2.624146 3.9281692-7.48606 13.4427101-9.313303 17.0488981l-108.5237226.0321982c-.3622287-1.0866862-.7727545-2.1733723-1.2637757-3.3244547zm126.9007928 29.5095658-2.495354-2.2941152-141.5106836.0804953-2.4953533 2.2941152c-22.6916165 20.9287701-35.6996521 50.7522675-35.6996521 81.8314915 0 31.13557 13.0402337 60.991265 35.7962464 81.920036l2.4953534 2.302164 141.5106842-.080495 2.495353-2.310214c22.699666-20.92877 35.707702-50.744218 35.707702-81.839541 0-31.127521-13.040234-60.9832162-35.796247-81.9039368zm-20.461898 126.7317528h-22.643319c-3.525693 0-6.415473-2.777087-6.415473-6.173987 0-3.380802 2.89783-6.165938 6.407423-6.165938h22.619171c3.541792 0 6.415473 2.777087 6.415473 6.165938 0 3.3969-2.88173 6.173987-6.407423 6.173987zm0-25.35601h-22.643319c-3.525693 0-6.415473-2.793186-6.415473-6.182037 0-3.3969 2.89783-6.173987 6.407423-6.173987h22.619171c3.541792 0 6.415473 2.777087 6.415473 6.173987 0 3.380801-2.88173 6.173987-6.407423 6.173987zm0-25.275515h-22.643319c-3.525693 0-6.415473-2.777087-6.415473-6.173987s2.89783-6.173987 6.407423-6.173987h22.619171c3.541792 0 6.415473 2.769037 6.415473 6.165937 0 3.396901-2.88173 6.173988-6.407423 6.173988zm0-37.712034h-22.643319c-3.525693 0-6.415473 2.769038-6.415473 6.165938s2.89783 6.182037 6.407423 6.182037h22.619171c3.541792 0 6.415473-2.785137 6.415473-6.182037s-2.88173-6.165938-6.407423-6.165938zm-70.5138559 12.347975c-34.9590956-12.983887-53.1107789-16.815462-59.8321339-17.910198 3.8396243-6.254482 8.4117556-12.0742903 13.6841958-17.3064828l127.79429-.0643962c7.647051 7.5826544 13.885434 16.421035 18.473664 26.04022-12.267479 9.578937-46.172086 29.251981-100.1200159 9.232807z" fill="#3360a3"/></svg>