<svg height="256" preserveAspectRatio="xMidYMid" viewBox="0 0 256 256" width="256" xmlns="http://www.w3.org/2000/svg"><path d="m209.765144 128.149979c0 16.013321-4.900763 31.339911-13.266397 44.575093l33.446928 33.446927c16.73643-22.31524 25.783632-49.456847 25.783632-77.350897 0-29.2641103-9.754704-55.7500813-26.470363-77.3352892l-32.775804 32.7289812c8.639421 13.0076743 13.253767 28.273016 13.266397 43.888362z" fill="#b8d3f4"/><path d="m127.513484 210.354816c-45.3673968-.085858-82.1259746-36.837458-82.2204447-82.204837.0687109-45.3856652 36.8348094-82.165722 82.2204447-82.2516604 16.731268 0 32.057858 4.9007631 44.606308 13.2663968l32.744589-32.7758038c-22.320731-16.72226031-49.460952-25.7580483-77.350897-25.7524172-70.3899403 0-127.513484 57.1235437-127.513484 127.5134846 0 70.358725 57.1235437 127.513484 127.513484 127.513484 28.023868.077413 55.262505-9.254953 77.350897-26.501579l-33.446927-33.43132c-11.86172 9.754704-27.157095 14.624252-43.90397 14.624252z" fill="#7fadf2"/></svg>