<svg height="224" preserveAspectRatio="xMidYMid" viewBox="0 0 512 224" width="512" xmlns="http://www.w3.org/2000/svg"><path d="m83.962837 67.0712157c.2037423-.0995593.4087047-.1979214.6148869-.2950858 5.6982612-2.6860959 12.3339718-4.0316292 19.9051441-4.0316292 7.568189 0 14.204397 1.3460303 19.902161 4.0316292 5.697764 2.6851018 10.464043 6.2847884 14.291879 10.791604s6.701819 9.6881375 8.615489 15.5380011c1.914166 5.8493665 2.873983 11.938314 2.873983 18.266347 0 6.328032-.959817 12.419465-2.873983 18.268832-1.91367 5.849863-4.787653 11.030688-8.615489 15.538498-3.827836 4.506319-8.594115 8.084135-14.291879 10.726987-5.697764 2.639869-12.333972 3.964526-19.902161 3.964526-7.5706753 0-14.2068829-1.32416-19.9051441-3.964526-1.1937133-.553693-2.3465413-1.148423-3.45842-1.784131 29.6924191 26.920207 86.8574201 45.14589 152.5034391 45.14589 53.397837 0 101.255974-10.809001 133.209282-29.799063-34.968953 31.793256-97.343638 54.218478-168.562459 54.206549-109.5110959-.014912-198.27901008-50.10384-198.269566-111.868637.00944408-61.7657914 88.7937612-111.82439946 198.30436-111.80700247 71.503137.01093526 134.040361 22.50773397 168.918849 54.52466497-31.954302-19.1088584-80.006788-30.1181733-133.600466-30.1181733-63.608545 0-119.254358 17.1118884-149.6598972 42.6647121zm-10.6429566 58.1950993c1.2491042 4.555528 3.210491 8.654756 5.8861487 12.297687 2.6736695 3.644422 6.1058479 6.572584 10.2980265 8.786476 4.1886991 2.212898 9.1806423 3.316861 14.9788124 3.316861 5.795684 0 10.78713-1.103963 14.979309-3.316861 4.188699-2.213892 7.621374-5.142054 10.297529-8.786476 2.673172-3.642931 4.634062-7.742159 5.882669-12.297687 1.248607-4.556024 1.873408-9.176168 1.873408-13.86093s-.624801-9.301428-1.873408-13.8574518c-1.248607-4.5560243-3.209994-8.6547561-5.882669-12.300669-2.676652-3.6424336-6.10883-6.5700991-10.297529-8.7834939-4.192179-2.2133947-9.184122-3.3203406-14.979309-3.3203406-5.7981701 0-10.7896162 1.1069459-14.9788124 3.3203406-4.1921786 2.2138918-7.624357 5.1415574-10.2980265 8.7834939-2.6761547 3.6459129-4.6370445 7.7446447-5.8861487 12.300669-1.2486071 4.5555268-1.8699283 9.1726898-1.8699283 13.8574518s.6213212 9.304906 1.8699283 13.86093zm95.6650766-26.611436v8.020014h.200811c1.6383-3.283558 4.214049-5.671917 7.728242-7.1620936 3.514193-1.4896798 7.376326-2.2347682 11.593357-2.2347682 4.68178 0 8.760629.8400263 12.236549 2.5200789 3.473434 1.6800529 6.359844 3.9491179 8.663206 6.8091839 2.302865 2.863545 4.038091 6.162512 5.211642 9.90038 1.170569 3.73936 1.757097 7.707366 1.757097 11.904018 0 4.197149-.568137 8.164658-1.697947 11.905012-1.132793 3.739359-2.848634 7.002041-5.151996 9.786057-2.302865 2.784016-5.192754 4.97902-8.666188 6.579046-3.476914 1.601021-7.514507 2.403271-12.120734 2.403271-1.484213 0-3.143886-.152597-4.976535-.456795-1.835134-.308673-3.648895-.80225-5.443768-1.489183-1.794376-.686933-3.495305-1.625873-5.095331-2.808372-1.600026-1.183493-2.946057-2.651799-4.038091-4.411878h-.200811v30.55459h-10.040551v-81.818561zm35.637494 21.043901c-.740615-2.630425-1.866449-4.976037-3.384958-7.036338-1.519006-2.059804-3.466972-3.700092-5.842407-4.91987-2.378418-1.220275-5.160943-1.830661-8.352049-1.830661-3.351158 0-6.19333.65015-8.528006 1.946972-2.337659 1.296822-4.244867 2.992283-5.726097 5.089366-1.480732 2.097084-2.550896 4.48246-3.212976 7.153147-.66208 2.669693-.991629 5.377163-.991629 8.120917 0 2.900328.34794 5.703232 1.051276 8.409707.699359 2.710949 1.810281 5.092349 3.329287 7.153147 1.518012 2.060301 3.482382 3.71898 5.898576 4.976535 2.415696 1.259045 5.337397 1.887822 8.763114 1.887822 3.426214 0 6.287771-.646671 8.584671-1.943493 2.2969-1.296821 4.148438-3.013159 5.550635-5.150504 1.399713-2.133866 2.412715-4.573918 3.037018-7.321152.621322-2.747234.934965-5.568033.934965-8.467863-.000994-2.745743-.371302-5.434324-1.11142-8.067732zm62.963699 34.355584c-4.537634 3.354141-10.244345 5.030714-17.129081 5.030714-4.850779 0-9.058366-.762485-12.6163-2.286462-3.561413-1.526462-6.554193-3.663807-8.979831-6.411041-2.425141-2.746737-4.244867-6.026816-5.456195-9.843716-1.210831-3.814913-1.894781-7.97528-2.051851-12.475633 0-4.500851.702839-8.620957 2.11448-12.361807 1.40866-3.739857 3.385455-6.983651 5.930387-9.730885 2.544435-2.747234 5.559582-4.880602 9.042461-6.4075613 3.482878-1.526462 7.30127-2.2899415 11.452689-2.2899415 5.40301 0 9.883481 1.0910401 13.44738 3.2681498 3.564893 2.179595 6.42297 4.951184 8.575227 8.314769 2.152754 3.36607 3.64293 7.035841 4.465063 11.008818.822132 3.976456 1.154663 7.760053.99809 11.353278h-45.382793c-.078535 2.590661.232126 5.04662.934964 7.370361.702839 2.323741 1.832649 4.38106 3.394899 6.171957 1.562747 1.789902 3.551969 3.215461 5.974128 4.282145 2.419176 1.067182 5.268307 1.600524 8.546895 1.600524 4.213552 0 7.668595-.952858 10.360655-2.863545 2.692061-1.91019 4.467549-4.813003 5.327457-8.712912h9.852166c-1.330621 6.634716-4.263754 11.628648-8.80089 14.982788zm-2.432597-37.976644c-.896194-2.054336-2.104539-3.826344-3.623049-5.31006-1.521988-1.483715-3.316364-2.664225-5.381635-3.541033-2.067757-.876809-4.348752-1.315213-6.842984-1.315213-2.572767 0-4.89452.438404-6.959295 1.315213-2.067757.876808-3.840262 2.07571-5.321492 3.596207-1.481229 1.523479-2.651301 3.295985-3.508228 5.313042-.859411 2.017554-1.364918 4.169314-1.521491 6.453291h34.740803c-.157567-2.283977-.684447-4.454625-1.582629-6.511447zm28.317833-17.422841v9.396862h.188384c4.15987-7.180485 10.758799-10.7737098 19.791815-10.7737098 4.003794 0 7.341034.5363245 10.014704 1.6064882 2.669693 1.0701636 4.828908 2.5598436 6.479138 4.4705306 1.650229 1.909693 2.808372 4.18174 3.476416 6.81813.665062 2.636888 1.001073 5.559086 1.001073 8.768582v38.966782h-10.040054v-40.086154c0-3.663807-1.098993-6.564134-3.292008-8.703965-2.195998-2.137345-5.211146-3.207508-9.048923-3.207508-3.054912 0-5.700746.460275-7.93452 1.376848-2.233774.91707-4.094755 2.213394-5.58195 3.893447-1.4862 1.680052-2.603584 3.645416-3.347182 5.895593-.746579 2.253159-1.117384 4.715082-1.117384 7.388752v33.441496h-10.040054v-59.252174zm110.359075 58.609479c-4.533657 1.867443-9.112049 2.802905-13.730205 2.802905-7.291826 0-13.846516-1.242643-19.669539-3.719478-5.824016-2.479817-10.733448-5.895096-14.73426-10.248818-4.000811-4.350242-7.066659-9.463964-9.200524-15.338184-2.132872-5.873722-3.199556-12.208216-3.199556-18.996026 0-6.959295 1.064199-13.4225268 3.191106-19.3852223 2.127901-5.9602102 5.186292-11.1594262 9.177163-15.5991391 3.991864-4.4397129 8.895828-7.9191117 14.715372-10.4456523 5.82004-2.5230612 12.37473-3.786083 19.666556-3.786083 4.888058 0 9.620041.7202356 14.196941 2.1587184 4.578392 1.4404712 8.710924 3.5559456 12.401075 6.3459265 3.689157 2.7899808 6.732636 6.229615 9.132428 10.3164175 2.400785 4.0897848 3.869588 8.7805115 4.402433 14.0781447h-19.99859c-1.245625-5.20866-3.64641-9.1180131-7.201362-11.7235858-3.557934-2.6060697-7.868412-3.9088561-12.933422-3.9088561-4.7121 0-8.712912.8917202-12.000944 2.6761548-3.288032 1.7844345-5.955737 4.179255-8.001623 7.1804851-2.045389 3.0042123-3.532584 6.4194908-4.463572 10.2488178-.935958 3.8293268-1.399712 7.7873918-1.399712 11.8771768 0 3.9183.466736 7.725756 1.401701 11.423363.935958 3.69711 2.426135 7.026397 4.471524 9.985378 2.04539 2.957986 4.716077 5.327953 8.010073 7.112388 3.292009 1.784434 7.297791 2.676652 12.017844 2.676652 6.940406 0 12.299178-1.709876 16.082278-5.132114 3.784095-3.421243 5.987052-8.381871 6.611355-14.881388h-21.065772v-15.304882h39.942008v50.301669h-13.29031l-2.1279-10.552519c-3.733395 4.690229-7.868909 7.970805-12.402566 9.837751zm61.767282-92.3616359v75.7385599h46.402257v17.266268h-67.286603v-93.0048279z" fill="#5586a4"/></svg>