<svg height="227" preserveAspectRatio="xMidYMid" viewBox="0 0 256 227" width="256" xmlns="http://www.w3.org/2000/svg"><path d="m182.414884 226.740775h-109.202853c-6.0328682 0-12.8555659-3.939225-15.872-9.164403l-54.60341084-94.573147c-3.01444962-5.223194-3.01444962-13.103628 0-18.326822l54.60341084-94.5731472c3.0164341-5.22517828 9.8391318-9.16440309 15.872-9.16440309h109.202853c6.032868 0 12.855566 3.93922481 15.872 9.16440309l54.603411 94.5731472c3.014449 5.223194 3.014449 13.103628 0 18.326822l-54.603411 94.573147c-3.016434 5.225178-9.839132 9.164403-15.872 9.164403" fill="#101517"/><path d="m73.212031 10.3691783c-2.6413643 0-6.3861085 2.1611163-7.7057984 4.4492403l-54.6014264 94.5731474c-1.31968992 2.286139-1.31968992 6.610356 0 8.896496l54.6014264 94.573147c1.3196899 2.28614 5.0644341 4.449241 7.7057984 4.449241h109.202853c2.641364 0 6.386108-2.163101 7.705798-4.449241l54.601427-94.573147c1.319689-2.28614 1.319689-6.610357 0-8.896496l-54.601427-94.5731474c-1.31969-2.288124-5.064434-4.4492403-7.705798-4.4492403z" fill="#fff"/><path d="m165.338295 171.676961c-1.188714 2.059907-4.105923 3.744744-6.483349 3.744744h-62.082977c-2.3774264 0-5.2946357-1.684837-6.4833488-3.744744l-31.0414884-53.763969c-1.1887132-2.059907-1.1887132-5.427597 0-7.487504l31.0414884-53.7659531c1.1887131-2.0579225 4.1059224-3.7427597 6.4833488-3.7427597h62.082977c2.377426 0 5.294635 1.6848372 6.483349 3.7427597l31.041488 53.7659531c1.188713 2.059907 1.188713 5.427597 0 7.487504z" fill="#6ca0c9"/><path d="m144.511008 139.688868c-.539783.934698-1.865427 1.700713-2.946977 1.700713h-27.501147c-1.081551 0-2.407194-.766015-2.946977-1.700713l-13.7525582-23.817922c-.5397829-.936682-.5397829-2.466729 0-3.403411l13.7525582-23.8179226c.539783-.9346977 1.865426-1.7007132 2.946977-1.7007132h27.501147c1.08155 0 2.407194.7660155 2.946977 1.7007132l13.752558 23.8179226c.539783.936682.539783 2.466729 0 3.403411z" fill="#101517"/><path d="m178.634419 79.6896124-13.296124-23.0300775c-1.188714-2.0579225-4.105923-3.7427597-6.483349-3.7427597h-23.72862l.525891-.9108837c1.176806-2.040062 4.068217-3.7090233 6.423814-3.7090233h20.916589c2.355597 0 5.247008 1.6689613 6.425799 3.7090233l10.458294 18.1144806c1.176806 2.040062 1.176806 5.3779845 0 7.4180465z" fill="#fff"/><path d="m162.99262 99.3619225h-12.295938l-6.185674-10.7123101c-.539783-.9346977-1.865427-1.7007132-2.946977-1.7007132h-10.938543l-5.431566-9.4104806c-1.17879-2.040062-1.17879-5.3779845 0-7.4180465l9.932404-17.2035969h23.72862c2.377426 0 5.294635 1.6848372 6.483349 3.7427597l13.296124 23.0300775-9.216 15.9632868c-1.178791 2.040062-4.070202 3.7090233-6.425799 3.7090233" fill="#cbe0ec"/><path d="m150.696682 99.3619225h-8.620651c-2.355597 0-5.247008-1.6689613-6.423814-3.7090233l-5.026729-8.704h10.938543c1.08155 0 2.407194.7660155 2.946977 1.7007132z" fill="#a6a8a7"/><path d="m87.1392248 107.182822h-8.2555039c-.4326201 0-.9624806-.307597-1.1787907-.680682l-4.1257674-7.1481555c-.2163101-.3750698-.2163101-.9862946 0-1.3613643l4.1257674-7.1481551c.2163101-.3750698.7461706-.6806822 1.1787907-.6806822h8.2555039c.4306357 0 .9624806.3056124 1.1787907.6806822l4.1257674 7.1481551c.2163101.3750697.2163101.9862945 0 1.3613643l-4.1257674 7.1481555c-.2163101.373085-.748155.680682-1.1787907.680682" fill="#cbe0ec"/></svg>