<svg height="93" preserveAspectRatio="xMidYMid" viewBox="0 0 512 93" width="512" xmlns="http://www.w3.org/2000/svg"><path d="m271.9268 16.3417v-14.87h-62.047v89.255h62.047v-14.875h-47.17v-22.311h44.898v-14.876h-44.898v-22.323zm46.0385 74.3853v-89.249h14.882v74.373h42.909v14.876zm69.9159 0v-89.249h14.882v74.373h42.922v14.876zm-100.3422-89.249h14.876v89.249h-14.876zm-287.539 45.031c0-25.679 20.812-46.479 46.491-46.485 25.679.006 46.479 20.806 46.485 46.485-.006 25.672-20.806 46.485-46.485 46.491-25.679-.006-46.491-20.819-46.491-46.491zm24.13-22.361c-5.722 5.76-9.248 13.61-9.26 22.361.012 8.757 3.538 16.601 9.26 22.348 5.748 5.735 13.604 9.267 22.361 9.267s16.601-3.532 22.343-9.267c5.741-5.747 9.266-13.591 9.266-22.348 0-8.751-3.525-16.601-9.266-22.361-5.742-5.716-13.586-9.242-22.343-9.248-8.757.006-16.613 3.532-22.361 9.248zm152.2589 28.2847c10.734-3.223 18.565-13.144 18.565-24.93 0-14.372-11.653-26.024-26.037-26.024h-44.836v89.248h14.87v-37.179h20.724l22.436 37.179h17.357zm-37.438-13.768v-22.323h29.966c6.163.006 11.155 5.005 11.168 11.161-.013 6.157-5.005 11.149-11.168 11.162zm373.0491-37.1865h-18.08l-22.897 33.138-22.895-33.138h-18.081l33.517 48.531v40.718h14.882v-40.687z" fill="#221f20"/><path d="m113.5305 10.9718c0 6.05-4.898 10.954-10.942 10.954-6.056 0-10.953-4.904-10.953-10.954 0-6.044 4.897-10.948 10.953-10.948 6.044 0 10.942 4.904 10.942 10.948" fill="#d31242"/></svg>