<svg height="256" preserveAspectRatio="xMidYMid" viewBox="0 0 256 256" width="256" xmlns="http://www.w3.org/2000/svg"><path d="m127.996927.00236401c-70.6933383 0-127.996927 57.30358869-127.996927 127.99692699v127.935462h29.7127618v-127.935462c0-54.2776568 44.0060356-98.2860564 98.2860562-98.2860564 54.280021 0 98.286056 44.0060356 98.286056 98.2860564 0 52.750506-41.569214 95.784934-93.732974 98.163128-16.57407-.135676-30.704227-2.825512-36.8932039-6.633884v-42.242012c9.2371309 6.048082 20.2850919 9.574239 32.1505279 9.574239 32.453595 0 58.759819-26.306697 58.759819-58.759819 0-32.4535941-26.306697-58.7740023-58.759819-58.7740023-32.4535939 0-58.759818 26.3213538-58.759818 58.7740023v127.836174c19.3938605-.018108 39.995257.026572 58.953667 0 70.693338 0 127.996927-57.246852 127.996927-127.935462-.004728-70.6980663-57.313045-128.001655-128.001655-128.001655z" fill="#ff5900"/></svg>