<svg height="245" preserveAspectRatio="xMidYMid" viewBox="0 0 256 245" width="256" xmlns="http://www.w3.org/2000/svg" xmlns:xlink="http://www.w3.org/1999/xlink"><linearGradient id="a" x1="35.537794%" x2="53.876912%" y1="63.200705%" y2="45.611777%"><stop offset=".1981" stop-color="#914f00"/><stop offset=".3348" stop-color="#9f5600"/><stop offset=".6093" stop-color="#b76200"/><stop offset=".8408" stop-color="#c66900"/><stop offset="1" stop-color="#cb6c00"/></linearGradient><linearGradient id="b" x1="22.231319%" x2="97.843407%" y1="75.360203%" y2="-2.212514%"><stop offset="0" stop-color="#fbba00"/><stop offset=".06471223" stop-color="#fdc000"/><stop offset=".3061" stop-color="#ffd500"/><stop offset=".5452" stop-color="#ffe300"/><stop offset=".7787" stop-color="#ffeb00"/><stop offset="1" stop-color="#ffed00"/></linearGradient><path d="m53.9234043 76.2553191c10.0221276 26.4714899 25.1642553 50.6553189 44.5548936 71.2442549 19.3906381 20.588937 42.5940421 37.147235 68.4119151 48.803405l88.347234-196.302979z" fill="#d18f00"/><path d="m77.2357447 191.400851c0-.108936 0-.108936 0 0-11.9829787-11.982979-12.5276596-12.52766-24.4017021-24.401702h-.1089362c-27.2340426-9.477447-52.7251064 19.935319-52.7251064 77.126808 57.9540426.653617 86.6042553-25.491063 77.2357447-52.725106z" fill="#e94f35"/><path d="m72.987234 187.15234c0-.108936 0-.108936 0 0-7.734468-7.843404-8.1702127-8.170212-15.9046808-15.90468-17.7565958-6.100426-34.3148936 12.963404-34.3148936 50.219574 37.6919149.435745 56.32-16.667234 50.2195744-34.314894z" fill="#f39200"/><path d="m95.3191489 222.120851-72.333617-72.333617 27.0161702-11.547234 56.8646809 56.864681z" fill="#4b5b5c"/><path d="m106.866383 195.104681-56.8646809-56.864681-9.6953191 4.139574c8.2791489 11.982979 17.4297872 23.312341 27.4519149 33.879149 10.5668085 11.220426 21.8961702 21.460426 33.9880851 30.828937z" fill="#3a4949"/><path d="m98.4782979 147.499574c-19.3906383-20.588936-34.532766-44.772765-44.5548936-71.2442549l-35.2953192 13.399149c11.7651064 31.0468089 29.5217021 59.4791489 52.2893617 83.7719149s50.1106382 43.683404 80.3948932 57.300426l15.468937-34.42383c-25.708937-11.65617-49.021277-28.214468-68.3029791-48.803405z" fill="url(#a)"/><path d="m56.973617 75.0570213c9.9131915 26.0357447 24.7285107 49.8927657 43.79234 70.1548937 19.06383 20.262128 41.940426 36.602553 67.322554 48.040851l87.148936-193.252766z" fill="url(#b)"/><path d="m160.680851 35.84c.762553 11.7651064 10.566809 21.133617 22.549787 21.133617 12.52766 0 22.658724-10.1310638 22.658724-22.6587234 0-5.2289362-1.742979-10.0221276-4.793192-13.8348936z" fill="#aa2322"/><path d="m222.774468 57.4093617c-8.170213 0-14.924255 6.6451064-14.924255 14.9242553 0 5.9914894 3.594893 11.2204256 8.714893 13.5080851l12.200851-27.1251064c-1.851914-.8714893-3.921702-1.307234-5.991489-1.307234z" fill="#aa2322"/><ellipse cx="180.61617" cy="47.49617" fill="#441a0d" rx="3.159149" ry="3.159149"/><ellipse cx="180.61617" cy="33.770213" fill="#441a0d" rx="3.159149" ry="3.159149"/><ellipse cx="193.252766" cy="33.770213" fill="#d89687" rx="3.159149" ry="3.159149"/><circle cx="194.015319" cy="44.990638" fill="#d89687" r="3.159149"/><ellipse cx="169.504681" cy="38.999149" fill="#d89687" rx="3.159149" ry="3.159149"/><circle cx="213.732766" cy="66.451064" fill="#441a0d" r="2.069787"/><ellipse cx="220.377872" cy="71.135319" fill="#441a0d" rx="2.069787" ry="2.069787"/><ellipse cx="221.358298" cy="63.074043" fill="#d89687" rx="2.069787" ry="2.069787"/><circle cx="213.732766" cy="75.38383" fill="#d89687" r="2.069787"/><ellipse cx="169.440507" cy="93.556997" fill="#aa2322" rx="22.657766" ry="22.548835" transform="matrix(.31121314 -.95034014 .95034014 .31121314 27.797426 225.466946)"/><g fill="#441a0d"><ellipse cx="156.332304" cy="98.949697" rx="3.159016" ry="3.159016" transform="matrix(.31121314 -.95034014 .95034014 .31121314 13.643768 216.724115)"/><ellipse cx="182.717527" cy="95.21603" rx="3.159016" ry="3.159016" transform="matrix(.31121314 -.95034014 .95034014 .31121314 35.365817 239.227351)"/><ellipse cx="165.382765" cy="77.871671" rx="3.159016" ry="3.159016" transform="matrix(.31121314 -.95034014 .95034014 .31121314 39.908902 210.806863)"/><ellipse cx="169.687269" cy="90.984426" rx="3.159016" ry="3.159016" transform="matrix(.31121314 -.95034014 .95034014 .31121314 30.412209 223.9295)"/></g><ellipse cx="165.761841" cy="102.958995" fill="#d89687" rx="3.159016" ry="3.159016" transform="matrix(.31121314 -.95034014 .95034014 .31121314 16.328513 228.446934)"/><ellipse cx="156.6987" cy="87.246924" fill="#d89687" rx="3.159016" ry="3.159016" transform="matrix(.31121314 -.95034014 .95034014 .31121314 25.017752 209.0116)"/><ellipse cx="176.131116" cy="107.261353" fill="#d89687" rx="3.159016" ry="3.159016" transform="matrix(.31121314 -.95034014 .95034014 .31121314 19.382029 241.26468)"/><ellipse cx="178.138112" cy="82.094657" fill="#d89687" rx="3.159016" ry="3.159016" transform="matrix(.31121314 -.95034014 .95034014 .31121314 44.681343 225.83752)"/><ellipse cx="106.190118" cy="86.20203" fill="#aa2322" rx="22.658577" ry="22.658577" transform="matrix(.43670283 -.89960583 .89960583 .43670283 -17.731255 144.086609)"/><circle cx="119.33477" cy="80.482293" fill="#441a0d" r="3.159128" transform="matrix(.43670283 -.89960583 .89960583 .43670283 -5.181401 152.689702)"/><circle cx="98.038958" cy="97.007224" fill="#441a0d" r="3.159128" transform="matrix(.43670283 -.89960583 .89960583 .43670283 -32.043196 142.840313)"/><ellipse cx="97.744645" cy="72.36876" fill="#441a0d" rx="3.159128" ry="3.159128" transform="matrix(.43670283 -.89960583 .89960583 .43670283 -10.044076 128.69677)"/><circle cx="104.138164" cy="84.47037" fill="#441a0d" r="3.159128" transform="matrix(.43670283 -.89960583 .89960583 .43670283 -17.329304 141.26522)"/><ellipse cx="115.506241" cy="90.066999" fill="#d89687" rx="3.159128" ry="3.159128" transform="matrix(.43670283 -.89960583 .89960583 .43670283 -15.960457 154.644573)"/><ellipse cx="110.44254" cy="72.663857" fill="#d89687" rx="3.159128" ry="3.159128" transform="matrix(.43670283 -.89960583 .89960583 .43670283 -3.156858 140.286098)"/><circle cx="111.174362" cy="100.461023" fill="#d89687" r="3.159128" transform="matrix(.43670283 -.89960583 .89960583 .43670283 -27.751118 156.602514)"/><circle cx="91.836906" cy="84.448049" fill="#d89687" r="3.159128" transform="matrix(.43670283 -.89960583 .89960583 .43670283 -24.238487 130.186363)"/><ellipse cx="122.776249" cy="135.956545" fill="#aa2322" rx="15.251706" ry="15.251706" transform="matrix(.98895835 -.14819376 .14819376 .98895835 -18.792259 19.69586)"/><circle cx="127.785788" cy="127.787182" fill="#441a0d" r="2.178815" transform="matrix(.98895835 -.14819376 .14819376 .98895835 -17.526297 20.348039)"/><circle cx="122.339916" cy="144.998444" fill="#441a0d" r="2.178815" transform="matrix(.98895835 -.14819376 .14819376 .98895835 -20.13703 19.731035)"/><circle cx="112.753991" cy="131.491731" fill="#441a0d" r="2.178815" transform="matrix(.98895835 -.14819376 .14819376 .98895835 -18.241264 18.161325)"/><circle cx="120.923005" cy="135.848524" fill="#441a0d" r="2.178815" transform="matrix(.98895835 -.14819376 .14819376 .98895835 -18.796714 19.420028)"/><ellipse cx="129.310393" cy="134.540375" fill="#d89687" rx="2.178815" ry="2.178815" transform="matrix(.98895835 -.14819376 .14819376 .98895835 -18.510244 20.648542)"/><circle cx="119.942732" cy="126.806909" fill="#d89687" r="2.178815" transform="matrix(.98895835 -.14819376 .14819376 .98895835 -17.467627 19.174923)"/><circle cx="131.055616" cy="141.94834" fill="#d89687" r="2.178815" transform="matrix(.98895835 -.14819376 .14819376 .98895835 -19.588788 20.98897)"/><ellipse cx="114.06007" cy="140.423473" fill="#d89687" rx="2.178815" ry="2.178815" transform="matrix(.98895835 -.14819376 .14819376 .98895835 -19.550471 18.453499)"/><g transform="translate(153.6 132.902128)"><path d="m35.7310638 3.92170213c-10.5668085-6.75404256-24.5106383-3.59489362-31.15574465 6.97191487-6.75404255 10.5668085-3.59489362 24.5106383 6.97191485 31.1557447 3.0502128 1.9608511 6.4272341 3.0502128 9.9131915 3.3770213l17.6476596-39.10808513c-1.1982979-.87148936-2.2876596-1.74297872-3.3770213-2.39659574z" fill="#aa2322"/><ellipse cx="9.374622" cy="24.988421" fill="#441a0d" rx="3.159099" ry="3.159099" transform="matrix(.53710841 -.84351322 .84351322 .53710841 -16.73863 19.474547)"/><ellipse cx="23.386853" cy="6.645499" fill="#441a0d" rx="3.159099" ry="3.159099" transform="matrix(.53710841 -.84351322 .84351322 .53710841 5.220011 22.803265)"/><circle cx="24.46543" cy="20.388733" fill="#441a0d" r="3.159099" transform="matrix(.53710841 -.84351322 .84351322 .53710841 -5.873324 30.074687)"/><g fill="#d89687"><circle cx="17.594466" cy="31.046209" r="3.159099" transform="matrix(.53710841 -.84351322 .84351322 .53710841 -18.043557 29.212194)"/><ellipse cx="12.770228" cy="13.682285" rx="3.159099" ry="3.159099" transform="matrix(.53710841 -.84351322 .84351322 .53710841 -5.629957 17.105271)"/><path d="m23.9659574 36.0578723c-.653617 1.0893617-.653617 2.3965958 0 3.3770213l2.1787235-4.7931915c-.8714894.1089362-1.6340426.653617-2.1787235 1.4161702z"/><path d="m36.493617 11.2204255c-1.5251064-.9804255-3.4859574-.5446808-4.3574468.9804256-.9804255 1.5251063-.5446808 3.4859574.9804255 4.3574468.3268086.2178723.6536171.3268085.9804256.4357447l2.3965957-5.7736171c.1089362.1089362.1089362 0 0 0z"/></g></g><path d="m192.381277 26.6893617c1.742978 0 3.159149-1.4161702 3.159149-3.1591489 0-.3268085 0-.5446809-.108937-.8714894l-5.882553 2.2876596c.544681.9804255 1.634043 1.7429787 2.832341 1.7429787z" fill="#441a0d"/></svg>