<svg height="162" preserveAspectRatio="xMidYMid" viewBox="0 0 256 162" width="256" xmlns="http://www.w3.org/2000/svg"><path d="m72.1170732 147.668293-62.1268293 9.053658 57.1317073-25.912195-62.12682925-8.741463 62.12682925-8.741464-57.1317073-25.9121949 62.1268293 9.2097561-47.6097561-41.0536585 56.9756097 26.2243903-34.0292683-52.6048781 47.297561 41.2097561-17.9512195-60.097561 33.873171 52.7609756-.312195-62.75121948 17.639024 60.25365858 17.482927-60.25365858-.156098 62.75121948 33.717073-52.9170731-17.795122 60.2536585 47.141464-41.3658537-34.029268 52.7609757 56.975609-26.2243903-47.453658 40.897561 62.126829-9.0536586-57.131707 25.9121949 62.126829 8.585366-62.126829 8.897561 57.131707 25.756098-62.126829-9.053659" fill="#1f0924"/><path d="m86.0749518 65.2491187-14.7383664-32.1564358 34.9658536 40.5853659-7.804878-52.9170732 22.009756 48.702439 7.492683-53.0731707 7.492683 53.0731707 22.009756-48.702439-7.804878 52.9170732 34.965854-40.5853659-14.738367 32.1564358 35.187147-8.8978992-7.21599 28.9749758 25.479405-7.5896099-28.063138 17.9642924-.346618 1.3918051-.715533-.7118817-15.986906 10.2338328 53.541463-.156097-51.356098 14.829268 51.356098 14.985366-53.541463-.156098h-100.5268296l-53.5414634.156098 51.3560975-14.985366-51.3560975-14.829268 53.5414634.156097-15.9869066-10.2338328-.7155325.7118817-.3466181-1.3918051-28.063138-17.9642924 25.4794048 7.5896099-7.2159901-28.9749758zm2.1816611 4.7599878 5.4019237 11.7860155-9.6780488 11.2390243-14.5197733-4.3250388zm79.4867741 0-5.401924 11.7860155 9.678049 11.2390243 14.519774-4.3250388z" fill="#edddc2"/><path d="m173.580488 71.1804878 22.321951-5.6195122-5.619512 22.3219512h-16.702439z" fill="#1f0924"/><path d="m82.4195122 71.1804878-22.3219512-5.6195122 5.6195122 22.3219512h16.702439z" fill="#1f0924"/><path d="m55.102439 153.131707h145.795122l54.790244-19.668292-55.102439-19.512195 37.931707-44.3317078-57.443902 10.7707317 10.770731-57.4439024-44.331707 37.9317073-19.512195-55.10243904-19.512195 55.10243904-44.3317074-37.9317073 10.7707317 57.4439024-57.4439025-10.7707317 37.9317073 44.3317078-55.10243898 19.512195" fill="#b157b5"/><circle cx="91.160976" cy="118.165853" fill="#fffaf3" r="18.887805"/><circle cx="91.160976" cy="118.165853" fill="#1f0924" r="14.829268"/><circle cx="86.165854" cy="113.170731" fill="#fffaf3" r="6.556098"/><circle cx="164.839025" cy="118.165853" fill="#fffaf3" r="18.887805"/><circle cx="164.839025" cy="118.165853" fill="#1f0924" r="14.829268"/><circle cx="159.687805" cy="113.170731" fill="#fffaf3" r="6.556098"/><path d="m93.502439 147.668293c0-19.043903 15.453659-34.497561 34.497561-34.497561s34.497561 15.453658 34.497561 34.497561c0 19.043902-68.995122 19.043902-68.995122 0zm-24.8195122 5.775609c0-6.243902 4.995122-11.395122 11.395122-11.395122s11.3951219 4.995122 11.3951219 11.395122-22.7902439 6.243903-22.7902439 0zm95.8439022 0c0-6.243902 4.995122-11.395122 11.395122-11.395122 6.243903 0 11.395122 4.995122 11.395122 11.395122s-22.790244 6.243903-22.790244 0z" fill="#edddc2"/><path d="m126.358199 137.87992c-.467548 2.809893-2.907515 4.949348-5.850882 4.949348-3.278049 0-5.931707-2.653658-5.931707-5.931707 0-.936585-.62439-1.560976-1.560976-1.560976-.936585 0-1.560975.624391-1.560975 1.560976 0 4.995122 4.058536 9.053659 9.053658 9.053659 3.121951 0 5.931707-1.560976 7.492683-3.90244 1.717073 2.341464 4.370732 3.90244 7.492683 3.90244 4.995122 0 8.897561-4.058537 9.053658-9.053659 0-.936585-.62439-1.560976-1.560975-1.560976-.936586 0-1.560976.624391-1.560976 1.560976 0 3.278049-2.653658 5.931707-5.931707 5.931707-2.943367 0-5.383334-2.139455-5.850882-4.949348 5.939004-.804451 10.533809-5.909748 10.533809-12.065286 0-6.712195-24.35122-6.712195-24.35122 0 0 6.155538 4.594805 11.260835 10.533809 12.065286z" fill="#1f0924"/></svg>