<svg height="250" preserveAspectRatio="xMidYMid" viewBox="0 0 256 250" width="256" xmlns="http://www.w3.org/2000/svg" xmlns:xlink="http://www.w3.org/1999/xlink"><linearGradient id="a" x1="50%" x2="50%" y1="0%" y2="100%"><stop offset="0" stop-color="#fbb32f"/><stop offset=".504738739" stop-color="#c11511"/><stop offset="1" stop-color="#c11411"/></linearGradient><path d="m128 .5784c-70.692 0-128 55.835-128 124.711 0 43.086 22.427 81.066 56.526 103.47v-103.405c-.001-.158-.023-.31-.023-.467 0-.158.022-.31.023-.468v-.877h.043c.701-40.146 32.335-72.481 71.323-72.481 39.427 0 71.388 33.053 71.388 73.826 0 40.772-31.961 73.825-71.388 73.825-15.356 0-29.543-5.062-41.187-13.592v58.207c12.96 4.304 26.84 6.673 41.295 6.673 70.692 0 128-55.835 128-124.711s-57.308-124.711-128-124.711" fill="url(#a)"/><path d="m171.1966 127.4716c0 23.59-19.123 42.713-42.713 42.713s-42.714-19.123-42.714-42.713 19.124-42.713 42.714-42.713 42.713 19.123 42.713 42.713" fill="#fcb42f"/></svg>