<svg height="216" preserveAspectRatio="xMidYMid" viewBox="0 0 256 216" width="256" xmlns="http://www.w3.org/2000/svg" xmlns:xlink="http://www.w3.org/1999/xlink"><linearGradient id="a"><stop offset="0" stop-color="#fff"/><stop offset="1" stop-color="#f3f3f3"/></linearGradient><linearGradient id="b" x1="12.262899%" x2="76.246751%" xlink:href="#a" y1="17.904979%" y2="93.93143%"/><linearGradient id="c"><stop offset="0" stop-color="#fff"/><stop offset="1" stop-color="#cdcccc"/></linearGradient><linearGradient id="d" x1="23.187093%" x2="76.732725%" xlink:href="#c" y1="25.037348%" y2="75.000365%"/><linearGradient id="e"><stop offset="0" stop-color="#e6e6e5"/><stop offset="1" stop-color="#b4b4b4"/></linearGradient><linearGradient id="f" x1="-7.452555%" x2="107.462226%" xlink:href="#e" y1="5.774157%" y2="94.219803%"/><linearGradient id="g" x1="-162.109091%" x2="261.030909%" xlink:href="#e" y1="25.069528%" y2="75.010944%"/><linearGradient id="h" x1="14.795025%" x2="85.173964%" xlink:href="#a" y1="-20.578405%" y2="120.413289%"/><linearGradient id="i" x1="-2.029843%" x2="94.73089%" xlink:href="#e" y1="1.796629%" y2="105.624157%"/><linearGradient id="j" x1="8.471341%" x2="87.772561%" xlink:href="#e" y1="-14.277083%" y2="121.195833%"/><linearGradient id="k" x1="28.439091%" x2="71.998182%" xlink:href="#e" y1="24.938542%" y2="74.85%"/><linearGradient id="l" x1=".074088%" x2="100%" xlink:href="#a" y1="49.985455%" y2="49.985455%"/><linearGradient id="m" x1="-.151163%" x2="99.907641%" xlink:href="#a" y1="50%" y2="50%"/><linearGradient id="n" x1="1.553927%" x2="91.14712%" xlink:href="#e" y1="-2.029139%" y2="111.297351%"/><linearGradient id="o" x1="-4.05%" x2="100.293293%" xlink:href="#e" y1="3.950562%" y2="100.087079%"/><linearGradient id="p" x1="28.439091%" x2="71.998182%" xlink:href="#e" y1="25.294792%" y2="75.20625%"/><linearGradient id="q" x1="-.151163%" x2="99.907641%" xlink:href="#a" y1="49.928667%" y2="49.928667%"/><linearGradient id="r" x1=".074088%" x2="100%" xlink:href="#a" y1="50.133854%" y2="50.133854%"/><linearGradient id="s" x1="28.391037%" x2="71.562324%" xlink:href="#a" y1="6.822259%" y2="93.236379%"/><linearGradient id="t" x1="25.116818%" x2="74.897727%" xlink:href="#a" y1="-.221101%" y2="100.255046%"/><linearGradient id="u"><stop offset="0" stop-color="#fdfeff" stop-opacity="0"/><stop offset=".9104" stop-color="#fdfeff" stop-opacity=".9104"/><stop offset="1" stop-color="#fdfeff"/></linearGradient><linearGradient id="v" x1="91.727604%" x2="45.159896%" xlink:href="#u" y1="-5.342683%" y2="89.084756%"/><linearGradient id="w" x1="91.694271%" x2="45.126563%" xlink:href="#u" y1="-5.290909%" y2="88.564242%"/><linearGradient id="x" x1="-12.527807%" x2="109.000914%" xlink:href="#e" y1="7.978755%" y2="85.232614%"/><linearGradient id="y" x1="-86.791818%" x2="187.005455%" xlink:href="#e" y1="19.441177%" y2="80.531643%"/><linearGradient id="z" x1="26.756845%" x2="73.162973%" xlink:href="#c" y1="24.978059%" y2="75.039241%"/><linearGradient id="A" x1="30.007026%" x2="69.977372%" xlink:href="#a" y1="10.056022%" y2="89.996715%"/><linearGradient id="B" x1="29.174468%" x2="70.784802%" xlink:href="#a" y1="8.204268%" y2="91.678659%"/><linearGradient id="C" x1="-12.385714%" x2="112.445897%" xlink:href="#e" y1="8.279065%" y2="91.753659%"/><linearGradient id="D" x1="36.654843%" x2="63.345786%" xlink:href="#a" y1="23.218136%" y2="76.667254%"/><linearGradient id="E" x1="-1.651563%" x2="94.605208%" xlink:href="#e" y1="2.073034%" y2="105.900562%"/><linearGradient id="F" x1="8.292073%" x2="87.592683%" xlink:href="#e" y1="-13.764583%" y2="121.708333%"/><linearGradient id="G" x1="28.171818%" x2="71.730909%" xlink:href="#e" y1="25.451042%" y2="75.3625%"/><linearGradient id="H" x1="-.033212%" x2="99.892701%" xlink:href="#a" y1="49.977982%" y2="49.977982%"/><linearGradient id="I" x1=".083389%" x2="100.142193%" xlink:href="#a" y1="49.99548%" y2="49.99548%"/><linearGradient id="J" x1="1.913542%" x2="91.040104%" xlink:href="#e" y1="-2.381333%" y2="111.700667%"/><linearGradient id="K" x1="-4.229268%" x2="100.114024%" xlink:href="#e" y1="3.665169%" y2="99.801685%"/><linearGradient id="L" x1="28.171818%" x2="71.730909%" xlink:href="#e" y1="24.765625%" y2="74.677083%"/><linearGradient id="M" x1=".083389%" x2="100.142193%" xlink:href="#a" y1="49.923841%" y2="49.923841%"/><linearGradient id="N" x1="-.033212%" x2="99.892701%" xlink:href="#a" y1="49.869271%" y2="49.869271%"/><linearGradient id="O" x1="-7.57075%" x2="107.554113%" xlink:href="#e" y1="5.829073%" y2="94.274579%"/><linearGradient id="P" x1="-161.332727%" x2="261.809091%" xlink:href="#e" y1="24.992258%" y2="75.041075%"/><linearGradient id="Q" x1="14.724585%" x2="85.220432%" xlink:href="#a" y1="-20.448837%" y2="120.542857%"/><linearGradient id="R" x1="25.179909%" x2="75.188585%" xlink:href="#a" y1=".287273%" y2="99.849091%"/><g fill="none" fill-rule="evenodd"><path d="m109.645283 213.397736c-.193208 0-.289811 0-.483019-.096604l-15.8430187-3.960755c-.0966038 0-.2898113-.096603-.3864151-.193207l-10.4332076-5.216604v1.932076c0 .77283-.3864151 1.449056-1.0626415 1.738867l-5.3132075 2.608302c-.2898113.096604-.5796227.193208-.869434.193208s-.5796226-.096604-.8694339-.193208l-52.938868-26.469434c-.6762264-.289811-1.0626415-.966037-1.0626415-1.738868v-14.393962l-17.48528299-8.694339c-.67622642-.289812-1.06264151-.966038-1.06264151-1.738868v-21.156227c0-.77283.38641509-1.449056 1.06264151-1.738868l7.92150939-3.960754c.2898114-.096604.5796227-.193208.869434-.193208s.5796226.096604.869434.193208l12.0754717 6.086037 2.0286792-1.062641c.2898113-.096604.5796227-.193208.869434-.193208s.5796226.096604.8694339.193208l.9660378.483019 12.365283-15.746415-1.7388679-.869434c-.6762265-.289812-1.0626415-.966038-1.0626415-1.738868v-29.7539626l-5.5064151-2.8015094c-.6762265-.2898113-1.0626415-.9660378-1.0626415-1.7388679v-42.3124529c0-.7728302.386415-1.4490566 1.0626415-1.7388679l74.0950943-36.99924528c.289811-.09660377.579623-.19320755.869434-.19320755s.579623.09660378.869434.19320755l41.443019 20.76981128 1.738868-.8694339c.289811-.0966038.579622-.1932076.869434-.1932076.289811 0 .579622.0966038.869434.1932076l31.782641 15.8430188c.676227.2898114 1.062642.9660378 1.062642 1.738868v25.2135849l41.249811 20.6732075c.676226.2898113 1.062641.9660378 1.062641 1.7388679v12.0754717l6.858868 3.4777358c.096604.096604.289812.193208.386416.289811l15.843018 13.234717c.483019.386415.676227.869434.676227 1.449057v3.960755c0 .77283-.386415 1.449056-1.062642 1.738868l-10.626415 5.313207c-.289811.096604-.579622.193208-.869434.193208-.386415 0-.77283-.096604-1.159245-.386415l-10.143396-7.631698v3.86415l6.858868 4.443774 15.649811 5.216604c.77283.289811 1.352453.966038 1.352453 1.835472v3.960754c0 .77283-.386415 1.449057-1.062642 1.738868l-10.626415 5.313208c-.289811.096603-.579622.193207-.869434.193207-.193207 0-.289811 0-.483019-.096604l-15.843019-3.960754c-.096603 0-.289811-.096604-.386415-.193208l-15.263396-7.631698-.77283.386415c-.193208.193208-.289811.386415-.579623.483019-.289811.193208-.676226.289811-1.062641.289811-.289811 0-.579623-.096603-.869434-.193207l-18.354717-9.177359v2.125283c0 .772831-.386415 1.449057-1.062642 1.738868l-74.095094 36.999246c-.289811.096603-.579623.193207-.869434.193207s-.579623-.096604-.869434-.193207l-10.626415-5.313208c-.6762264-.289811-1.0626415-.966038-1.0626415-1.738868v-2.125283c-.1932075.096604-.4830189.096604-.6762264.096604-.2898113 0-.5796226-.096604-.869434-.193208l-10.6264151-5.313207c-.6762264-.289812-1.0626415-.966038-1.0626415-1.738868v-1.449057l-4.250566-2.125283c-.6762264-.289811-1.0626415-.966038-1.0626415-1.738868v-7.921509l-23.6679245-11.495849-8.114717 10.143396 38.5449056 19.224151c.6762264.289811 1.0626415.966038 1.0626415 1.738868v1.738868l17.4852834 8.694339c.096603.096604.289811.193208.386415.289812l15.843019 13.234717c.483018.386415.676226.869434.676226 1.449056v3.960755c0 .77283-.386415 1.449057-1.062641 1.738868l-10.626416 5.313208c-.289811.096603-.579622.193207-.869434.193207-.386415 0-.77283-.096604-1.159245-.386415l-15.6498111-11.689057-5.12-1.835471v2.994717l17.3886791 11.206037 15.649811 5.216604c.772831.289812 1.352453.966038 1.352453 1.835472v3.960755c0 .77283-.386415 1.449056-1.062641 1.738868l-10.626415 5.313207c0 .096604-.289812.096604-.579623.096604z" fill="url(#b)"/><path d="m108.29283 3.86415094 7.92151 3.96075472 2.608302 1.35245283 10.626415 5.31320751 21.156226 10.6264151 2.608302-1.3524528 31.879245 15.8430189v26.4694339l42.312453 21.1562264v13.2347175l7.921509 3.960754 15.843019 13.234717v3.960755l-10.626415 5.313207-13.138113-10.046792v8.790943l7.921509 5.12 15.843019 5.313208v3.960755l-10.626415 5.313207-15.843019-3.960754-16.13283-8.018114-2.415094 1.159246v.289811l-21.156227-10.626415v5.313207l-74.095094 36.999246-10.626415-5.313208v-5.313207l-2.6083019-1.352453v2.608302l-10.6264151-5.313208v-2.608302l-5.3132075-2.608302v-9.177358l-26.1796227-12.751698-10.5298113 13.234717 40.6701887 20.286792v2.898113l18.5479248 9.273963 15.843019 13.234717v3.960754l-10.626416 5.313208-15.8430184-11.882264-7.9215094-2.80151v6.762264l18.5479248 11.882265 15.843019 5.313207v3.960755l-10.626416 5.313207-15.8430184-3.960754-13.0415094-6.569057v5.023396l-5.3132076 2.608302-52.9388679-26.469434v-15.649811l-18.45132076-9.177359v-21.156226l7.92150946-3.960755 12.9449056 6.472453 2.8981132-1.449057 2.3184906 1.159246 14.8769811-18.837736-3.9607547-1.932076v-31.0098109l-6.5690566-3.2845283v-42.4090566zm0-3.86415094c-.579622 0-1.159245.09660377-1.738868.38641509l-73.9984903 37.09584911c-1.3524528.6762264-2.125283 2.0286792-2.125283 3.4777358v42.3124528c0 1.4490566.8694339 2.8015095 2.125283 3.4777359l4.4437736 2.2218868v28.6913205c0 1.352453.6762264 2.608302 1.8354717 3.284529l-9.9501887 12.655094c-.3864151-.096604-.7728302-.193208-1.2558491-.193208-.5796226 0-1.1592452.096604-1.7388679.386415l-1.1592453.579623-11.2060377-5.699623c-.5796226-.289811-1.1592453-.386415-1.7388679-.386415-.5796227 0-1.1592453.096604-1.7388679.386415l-7.92150948 3.960755c-1.25584906.676227-2.12528302 2.028679-2.12528302 3.477736v21.156226c0 1.449057.86943396 2.80151 2.12528302 3.477736l16.42264148 8.211321v13.234717c0 1.449057.869434 2.801509 2.125283 3.477736l52.938868 26.469434c.5796226.289811 1.1592453.386415 1.7388679.386415s1.1592453-.096604 1.7388679-.386415l5.3132076-2.608302c.9660377-.483019 1.6422641-1.352453 1.9320754-2.318491l7.8249057 3.864151c.2898113.096604.4830189.193208.7728302.289812l15.8430188 3.960754c.289811.096604.579623.096604.966038.096604.579622 0 1.159245-.096604 1.738868-.386415l10.626415-5.313208c1.352453-.676226 2.125283-2.028679 2.125283-3.477735v-3.960755c0-1.642264-1.062642-3.187925-2.608302-3.670944l-8.597736-2.898113 9.080755-4.540377c1.352453-.676226 2.125283-2.028679 2.125283-3.477736v-3.960755c0-1.159245-.483019-2.221886-1.352453-2.994717l-12.558491-10.433207c.289812.096604.579623.096604.772831.096604.579622 0 1.159245-.096604 1.738868-.386415l74.095094-36.999246c1.062641-.483019 1.738868-1.449056 2.028679-2.511698l15.649811 7.824906c.579623.289811 1.159246.386415 1.738868.386415.676227 0 1.449057-.193208 2.02868-.579623.193207-.096604.289811-.193207.483018-.386415l14.297359 7.148679c.289811.096604.483019.193208.77283.289812l15.843019 3.960754c.289811.096604.579623.096604.966038.096604.579622 0 1.159245-.096604 1.738868-.386415l10.626415-5.313207c1.352453-.676227 2.125283-2.02868 2.125283-3.477736v-3.960755c0-1.642264-1.062642-3.187925-2.608302-3.670943l-8.597736-2.898114 9.080755-4.540377c1.352453-.676226 2.125283-2.028679 2.125283-3.477736v-3.960755c0-1.159245-.483019-2.221886-1.352453-2.994717l-16.13283-13.138113c-.193208-.193207-.483019-.386415-.77283-.483019l-5.796227-2.8981128v-10.9162264c0-1.4490566-.869434-2.8015095-2.125283-3.4777359l-40.18717-20.0935849v-23.9577358c0-1.4490566-.869434-2.8015095-2.125283-3.4777359l-31.686037-15.8430188c-.579623-.2898114-1.159246-.3864151-1.738868-.3864151-.579623 0-1.159246.0966037-1.738868.3864151l-.869434.4830188-19.417359-9.7569811-10.626415-5.31320756-2.608302-1.35245283-7.921509-3.96075472c-.579623-.28981132-1.159245-.38641509-1.835472-.38641509zm-57.09283 136.69434 5.6030189-7.052076 21.1562264 10.336604v6.762264c0 1.449057.8694339 2.80151 2.125283 3.477736l3.1879245 1.54566v.289812c0 .289811 0 .579622.0966038.77283zm38.5449057 22.122264v-.483019c0-.289811 0-.579623-.0966038-.77283l6.375849 3.187924c.1932076.096604.2898114.193208.4830189.193208v.289811c0 .386415.0966038.77283.1932076 1.062642z" fill="#333"/><g stroke="#333"><path d="m185.09283 129.54566-74.095094 36.999246v-42.312453l74.095094-37.0958492z" fill="url(#d)"/><g transform="translate(140.075472 59.89434)"><g transform="translate(28.981132)"><path d="m.09660377 3.47773585v42.31245285l52.93886793 26.4694339v-42.3124528z" fill="url(#f)"/><path d="m53.0354717 29.9471698v42.3124528l5.3132075-2.6083018v-42.4090566z" fill="url(#g)"/><path d="m.09660377 3.47773585 5.31320755-2.60830189 52.93886788 26.37283024-5.3132075 2.7049056z" fill="url(#h)"/></g><g fill="#676767"><path d="m34.3909434 11.2060377-10.6264151 5.2166038 42.4090566 21.1562264 10.5298113-5.2166037z"/><path d="m7.92150943 8.7909434-7.92150943 3.9607547 31.7826415 15.8430189 7.9215094-3.9607547z"/><path d="m0 12.7516981v21.1562264l31.7826415 15.8430189v-21.1562264z"/><path d="m23.7645283 16.7124528v36.9992453l42.4090566 21.1562264v-36.9992453z"/><path d="m76.7033962 32.3622642-10.5298113 5.2166037v37.0958491l10.5298113-5.3132076z"/></g><g transform="translate(65.690566 58.928302)"><path d="m.48301887 5.40981132v7.92150948l18.45132073 9.2739622v-5.3132075z" fill="url(#i)"/><path d="m18.9343396 17.2920755v5.3132075l15.8430189 3.9607547v-3.9607547z" fill="url(#j)"/><path d="m34.7773585 22.605283v3.9607547l10.6264151-5.3132075v-3.9607547z" fill="url(#k)"/><path d="m29.5607547 11.9788679-10.6264151 5.3132076 15.8430189 5.3132075 10.6264151-5.3132075z" fill="url(#l)"/><path d="m11.0128302.09660377-10.52981133 5.31320755 18.45132073 11.88226418 10.6264151-5.3132076z" fill="url(#m)"/></g><g transform="translate(65.690566 34.777358)"><path d="m.48301887 5.69962264v7.92150946l18.45132073 6.6656604v-5.3132076z" fill="url(#n)"/><path d="m18.9343396 14.9735849v5.3132076l15.8430189 11.8822641v-3.9607547z" fill="url(#o)"/><path d="m34.7773585 28.2083019v3.9607547l10.6264151-5.3132075v-3.9607548z" fill="url(#p)"/><path d="m11.0128302.48301887-10.52981133 5.21660377 18.45132073 9.27396226 10.6264151-5.31320754z" fill="url(#q)"/><path d="m29.5607547 9.66037736-10.6264151 5.31320754 15.8430189 13.234717 10.6264151-5.3132076z" fill="url(#r)"/></g></g><path d="m40.8633962 42.2158491v75.3509429l48.9781132 23.861133v-75.4475476z" fill="#676767"/><path d="m71.2935849 59.4113208v38.3516981l10.6264151 6.5690561v42.409057l26.37283 13.138113v-81.9199997z" fill="#676767"/><path d="m116.310943 7.82490566-72.7426411 36.99924524 63.4686791 31.7826416 72.742642-36.9992453z" fill="#676767"/><path d="m34.2943396 40.8633962 73.9984904-36.99924526 42.409057 21.15622646-74.0950945 36.9992452z" fill="url(#s)"/><path d="m108.29283 14.490566 10.626415-5.31320751 10.626415 5.31320751-10.626415 5.2166038z" fill="url(#t)"/><path d="m108.29283 83.1758491 74.095095-36.9992453v79.3116982l-74.095095 37.095849z" fill="#676767"/><path d="m55.450566 40.8633962 10.5298114 5.3132076 52.9388676-26.469434-10.626415-5.2166038z" fill="#676767"/><path d="m108.29283 25.0203774 8.018113-3.9607548 2.608302-1.3524528-10.626415-5.2166038z" fill="#676767"/><g transform="translate(102.4 18.354717)"><path d="m.67622642 9.27396226 2.60830188-1.25584905 5.31320755-2.70490566-7.92150943-3.96075472z" fill="#333"/><path d="m.67622642 1.35245283 7.92150943 3.96075472 2.60830185-1.25584906-7.9215094-3.96075472z" fill="#676767"/></g><g transform="translate(97.569811 20.286792)"><path d="m.19320755 10.0467925 2.60830188-1.35245288 5.31320755-2.60830188-7.92150943-3.96075472z" fill="#333"/><path d="m.19320755 2.12528302 7.92150943 3.96075472 2.60830192-1.35245283-7.92150947-3.96075472z" fill="#676767"/></g><g transform="translate(91.773585 23.184906)"><path d="m.67622642 9.75698113 2.70490566-1.35245283 5.21660377-2.60830188-7.92150943-3.96075472z" fill="#333"/><path d="m.67622642 1.8354717 7.92150943 3.96075472 2.70490565-1.35245284-7.92150942-3.96075471z" fill="#676767"/></g><g transform="translate(86.943396 26.083019)"><path d="m.19320755 9.56377358 2.70490566-1.35245283 5.31320754-2.70490566-8.0181132-3.96075471z" fill="#333"/><path d="m.19320755 1.54566038 8.0181132 3.96075471 2.60830185-1.25584905-7.92150939-3.96075472z" fill="#676767"/></g><g transform="translate(81.14717 28.981132)"><path d="m.77283019 9.27396226 2.60830189-1.35245283 5.31320754-2.60830188-7.92150943-3.96075472z" fill="#333"/><path d="m.77283019 1.35245283 7.92150943 3.96075472 2.60830188-1.35245283-7.92150942-3.96075472z" fill="#676767"/></g><g transform="translate(76.316981 30.913208)"><path d="m.28981132 9.95018868 2.60830189-1.25584906 5.31320754-2.70490566-7.92150943-3.96075471z" fill="#333"/><path d="m.28981132 2.02867925 7.92150943 3.96075471 2.60830185-1.25584905-7.92150939-4.05735849z" fill="#676767"/></g><g transform="translate(70.520755 33.811321)"><path d="m.77283019 9.75698113 2.70490566-1.35245283 5.21660377-2.60830188-7.92150943-3.96075472z" fill="#333"/><path d="m.77283019 1.8354717 7.92150943 3.96075472 2.70490568-1.35245284-7.92150945-3.96075471z" fill="#676767"/></g><g transform="translate(65.690566 36.709434)"><path d="m.28981132 9.46716981 2.70490566-1.35245283 5.31320755-2.60830189-8.01811321-3.96075471z" fill="#333"/><path d="m.28981132 1.54566038 8.01811321 3.96075471 2.60830187-1.35245283-7.92150942-3.96075471z" fill="#676767"/></g><g transform="translate(59.89434 39.607547)"><path d="m.86943396 9.17735849 2.60830189-1.25584906 5.31320755-2.70490566-7.92150944-3.96075471z" fill="#333"/><path d="m.86943396 1.25584906 7.92150944 3.96075471 2.6083019-1.25584905-7.92150945-3.96075472z" fill="#676767"/></g></g><g transform="translate(118.822642 91.773585)"><path d="m.09660377 9.95018868v15.84301882l18.54792453-9.2739622v-15.84301888z" fill="#36a3c9" stroke="#010101"/><path d="m13.3313208 13.9109434v-10.52981132l-13.23471703 6.5690566v10.62641512z" fill="#50c8ec"/><path d="m18.6445283 16.5192453v-15.84301888l-13.23471698 6.66566037-5.31320755 2.60830189" fill="url(#v)"/><path d="m.09660377 9.95018868v15.84301882l18.54792453-9.2739622v-15.84301888z" stroke="#333"/></g><g transform="translate(152.633962 74.384906)"><path d="m.67622642 10.1433962v15.8430189l18.54792448-9.1773585v-15.93962264z" fill="#36a3c9" stroke="#010101"/><path d="m13.9109434 14.1041509v-10.52981128l-13.23471698 6.56905658v10.6264151z" fill="#50c8ec"/><path d="m19.2241509 16.8090566v-15.93962264l-13.23471694 6.66566038-5.31320754 2.60830186" fill="url(#w)"/><path d="m.67622642 10.1433962v15.8430189l18.54792448-9.1773585v-15.93962264z" stroke="#333"/></g><path d="m76.6067925 93.8022642v-31.7826416l-42.3124529-21.1562264v42.3124529l52.8422642 26.4694339v42.312453l10.6264151 5.313207v-42.312452l10.5298111 5.313207v-10.626415z" fill="url(#x)" stroke="#333"/><path d="m185.09283 129.54566-74.095094 36.999246v-42.312453l74.095094-37.0958492z" fill="url(#d)" stroke="#333"/><path d="m100.371321 118.919245v42.312453l10.626415 5.313208v-42.312453z" fill="url(#y)" stroke="#333"/><g stroke="#333" transform="translate(79.215094 23.184906)"><path d="m105.877736 48.1086792-74.0950945 36.9992453v-31.6860377l74.0950945-36.9992453z" fill="url(#z)"/><path d="m0 37.5788679 74.0950943-37.09584903 31.7826417 15.93962263-74.0950945 36.9992453z" fill="url(#A)"/><path d="m47.6256604 34.8739623 21.1562264-10.5298114 10.6264151 5.3132076-21.1562264 10.5298113z" fill="url(#B)"/><path d="m0 37.5788679v31.6860378l31.7826415 15.8430188v-31.6860377z" fill="url(#C)"/></g><path d="m110.997736 124.232453 74.095094-37.0958492-2.704905-1.2558491-74.095095 36.9992453z" fill="url(#D)" stroke="#333"/><g stroke="#333" transform="translate(22.218868 102.4)"><path d="m31.8792453.67622642v13.23471698l10.6264151 5.2166038v-13.23471701z" fill="#333"/><g fill="#676767"><path d="m.19320755 45.5969811v9.2739623l5.21660377 2.6083019v-9.1773585z"/><path d="m34.5841509 1.93207547-34.39094335 43.66490563 5.21660377 2.7049057 34.39094338-43.66490567z"/><path d="m5.40981132 48.3018868v9.1773585l37.09584908-46.2732076v-5.31320751l-2.7049057-1.25584906z"/></g></g><g stroke="#333" transform="translate(3.864151 131.381132)"><g fill="#676767"><path d="m39.7041509 5.79622642-10.6264151 5.31320758 42.3124529 21.1562264 10.6264151-5.3132076z"/><path d="m7.92150943.77283019-7.92150943 3.96075472 36.9992453 18.54792449 7.9215094-3.9607547z"/><path d="m0 4.73358491v21.15622639l36.9992453 18.5479245v-21.1562264z"/><path d="m29.0777358 11.3026415v37.0958491l42.3124529 21.1562264v-37.0958491z"/><path d="m82.0166038 26.9524528-10.6264151 5.3132076v36.9992453l10.6264151-5.3132076z"/></g><g transform="translate(70.520755 53.132075)"><path d="m.86943396 5.79622642v7.92150938l18.54792454 9.2739623v-5.3132075z" fill="url(#E)"/><path d="m19.4173585 17.6784906v5.3132075l15.8430189 3.9607547v-3.9607547z" fill="url(#F)"/><path d="m35.2603774 22.9916981v3.9607547l10.6264151-5.2166037v-4.0573585z" fill="url(#G)"/><path d="m29.9471698 12.4618868-10.5298113 5.2166038 15.8430189 5.3132075 10.6264151-5.3132075z" fill="url(#H)"/><path d="m11.4958491.57962264-10.62641514 5.21660378 18.54792454 11.88226418 10.5298113-5.2166038z" fill="url(#I)"/></g><g transform="translate(70.520755 28.981132)"><path d="m.86943396 6.18264151v7.92150939l18.54792454 6.5690566v-5.2166037z" fill="url(#J)"/><path d="m19.4173585 15.4566038v5.2166037l15.8430189 11.978868v-3.9607547z" fill="url(#K)"/><path d="m35.2603774 28.6913208v3.9607547l10.6264151-5.3132076v-3.9607547z" fill="url(#L)"/><path d="m11.4958491.86943396-10.62641514 5.31320755 18.54792454 9.27396229 10.5298113-5.3132076z" fill="url(#M)"/><path d="m29.9471698 10.1433962-10.5298113 5.3132076 15.8430189 13.234717 10.6264151-5.3132076z" fill="url(#N)"/></g><g transform="translate(18.354717 5.796226)"><path d="m.19320755 2.60830189v42.40905661l52.84226415 26.3728302v-42.3124529z" fill="url(#O)"/><path d="m53.0354717 29.0777358v42.3124529l5.3132075-2.6083019v-42.3124528z" fill="url(#P)"/><path d="m.19320755 2.60830189 5.21660377-2.60830189 52.93886788 26.469434-5.3132075 2.6083018z" fill="url(#Q)"/></g></g><path d="m44.8241509 46.1766038 10.6264151-5.3132076 10.5298114 5.3132076-10.5298114 5.3132075z" fill="url(#R)" stroke="#333"/></g></svg>