<svg height="134" preserveAspectRatio="xMidYMid" viewBox="0 0 512 134" width="512" xmlns="http://www.w3.org/2000/svg"><g fill="#fff000"><path d="m215.883294 24.8141717c-20.205825 0-36.512281 16.3064558-36.512281 36.5122813 0 20.2058256 16.306456 36.5122813 36.512281 36.5122813 6.380787 0 12.407086-1.7724409 17.36992-4.6083462v4.253858c0 9.5711809-7.798739 17.3699199-17.36992 17.3699199-5.317322 0-9.57118 4.253858-9.57118 9.571181 0 5.317322 4.253858 9.57118 9.57118 9.57118 20.205826 0 36.512281-16.306455 36.512281-36.5122809v-36.1577931c0-20.2058255-16.306455-36.5122813-36.512281-36.5122813zm0 53.8822015c-9.57118 0-17.36992-7.7987397-17.36992-17.3699202s7.79874-17.3699202 17.36992-17.3699202c9.571181 0 17.36992 7.7987397 17.36992 17.3699202s-7.798739 17.3699202-17.36992 17.3699202z"/><path d="m36.8667694 24.8141717c-20.2058255 0-36.51228123 16.3064558-36.51228123 36.5122813v51.755272c0 5.317323 4.25385801 9.571181 9.57118053 9.571181 5.3173225 0 9.5711805-4.253858 9.5711805-9.571181v-19.8513369c5.3173225 2.8359053 10.9891332 4.6083462 17.3699202 4.6083462 20.2058256 0 36.5122813-16.3064557 36.5122813-36.5122813-.3544882-20.2058255-16.6609439-36.5122813-36.5122813-36.5122813zm0 53.8822015c-9.5711805 0-17.3699202-7.7987397-17.3699202-17.3699202s7.7987397-17.3699202 17.3699202-17.3699202c9.5711806 0 17.3699203 7.7987397 17.3699203 17.3699202s-7.7987397 17.3699202-17.3699203 17.3699202z"/><path d="m138.959362 24.8141717c-20.205826 0-36.512282 16.3064558-36.512282 36.5122813v26.9411008c0 5.3173225 4.253858 9.5711805 9.571181 9.5711805s9.571181-4.253858 9.571181-9.5711805v-26.9411008c0-9.5711805 7.798739-17.3699202 17.36992-17.3699202 9.57118 0 17.36992 7.7987397 17.36992 17.3699202v26.9411008c0 5.3173225 4.253858 9.5711805 9.57118 9.5711805 5.317323 0 9.571181-4.253858 9.571181-9.5711805v-26.9411008c-.354488-20.2058255-16.660944-36.5122813-36.512281-36.5122813z"/><path d="m370.440135 24.4596836c-20.205825 0-36.512281 16.3064557-36.512281 36.5122812 0 20.2058256 16.306456 36.5122813 36.512281 36.5122813 20.205826 0 36.512281-16.3064557 36.512281-36.5122813 0-20.2058255-16.306455-36.5122812-36.512281-36.5122812zm0 53.8822015c-9.57118 0-17.36992-7.7987397-17.36992-17.3699203 0-9.5711805 7.79874-17.3699202 17.36992-17.3699202 9.571181 0 17.36992 7.7987397 17.36992 17.3699202 0 9.5711806-7.798739 17.3699203-17.36992 17.3699203z"/><path d="m320.102815 0c-5.317322 0-9.57118 4.25385801-9.57118 9.57118053v19.85133737c-4.962834-2.8359053-10.989133-4.6083462-17.36992-4.6083462-20.205826 0-36.512282 16.3064558-36.512282 36.5122813 0 20.2058256 16.306456 36.5122813 36.512282 36.5122813 20.205825 0 36.512281-16.3064557 36.512281-36.5122813v-51.75527247c0-5.31732252-4.253858-9.57118053-9.571181-9.57118053zm-26.9411 78.6963732c-9.571181 0-17.369921-7.7987397-17.369921-17.3699202s7.79874-17.3699202 17.369921-17.3699202c9.57118 0 17.36992 7.7987397 17.36992 17.3699202s-7.79874 17.3699202-17.36992 17.3699202z"/><g transform="translate(74.442515)"><path d="m12.761574 24.8141717c-5.31732248 0-9.57118049 4.253858-9.57118049 9.5711806v53.8822015c0 5.3173225 4.25385801 9.5711805 9.57118049 9.5711805 5.3173226 0 9.5711806-4.253858 9.5711806-9.5711805v-53.8822015c-.3544882-5.3173226-4.6083462-9.5711806-9.5711806-9.5711806z"/><ellipse cx="12.761574" cy="9.571181" rx="9.571181" ry="9.571181"/></g><path d="m461.189106 97.1297579c5.317323 0 9.571181-4.253858 9.571181-9.5711805v-40.0571629c0-2.126929 1.772441-3.8993699 3.89937-3.8993699 9.57118 0 17.36992 7.7987397 17.36992 17.3699202v26.9411008c0 5.3173225 4.253858 9.5711805 9.57118 9.5711805 5.317323 0 9.571181-4.253858 9.571181-9.5711805v-26.9411008c0-20.2058255-16.306456-36.5122812-36.512281-36.5122812-4.608347 0-9.216693 1.0634645-13.470551 2.4814171-4.253858-1.7724408-8.507716-2.4814171-13.47055-2.4814171-20.205826 0-36.512281 16.3064557-36.512281 36.5122812v26.9411008c0 5.3173225 4.253858 9.5711805 9.57118 9.5711805 5.317323 0 9.571181-4.253858 9.571181-9.5711805v-26.9411008c0-9.5711805 7.798739-17.3699202 17.36992-17.3699202 2.126929 0 3.89937 1.7724409 3.89937 3.8993699v40.4116511c0 4.9628343 4.253858 9.2166923 9.57118 9.2166923z"/></g></svg>