<svg height="256" preserveAspectRatio="xMidYMid" viewBox="0 0 256 256" width="256" xmlns="http://www.w3.org/2000/svg"><path d="m128 0c-34.19 0-66.334 13.314-90.51 37.49s-37.49 56.32-37.49 90.51 13.314 66.334 37.49 90.51 56.32 37.49 90.51 37.49 66.334-13.314 90.51-37.49 37.49-56.32 37.49-90.51-13.314-66.334-37.49-90.51-56.32-37.49-90.51-37.49" fill="#ff7f00"/><path d="m249.3864 128c0 67.04-54.347 121.386-121.386 121.386-67.04 0-121.387-54.346-121.387-121.386s54.347-121.386 121.387-121.386c67.039 0 121.386 54.346 121.386 121.386" fill="#fff"/><path d="m160.8686 74.0616 5.145-18.537c5.264-.469 9.392-4.886 9.392-10.273 0-5.699-4.62-10.319-10.319-10.319-5.7 0-10.32 4.62-10.32 10.319 0 3.755 2.012 7.031 5.01 8.837l-5.05 18.195c-14.438-3.669-26.626-3.389-26.626-3.389l-2.258 1.009v140.872l2.258.753c13.614 0 73.177-41.133 73.323-85.27 0-31.624-21.023-45.825-40.555-52.197zm-14.338 90.738c-11.617-18.557-6.706-61.751 23.643-67.925 8.321-1.333 18.509 4.134 21.511 16.279 7.581 25.766-37.016 61.845-45.154 51.646zm18.2168-39.752c-5.191 0-9.399 4.208-9.399 9.399s4.208 9.399 9.399 9.399 9.399-4.208 9.399-9.399-4.208-9.399-9.399-9.399zm2.81 8.672c-1.311 0-2.374-1.063-2.374-2.374s1.063-2.374 2.374-2.374 2.374 1.063 2.374 2.374-1.063 2.374-2.374 2.374z" fill="#e57200"/><path d="m101.3712 72.7086-5.023-18.901c2.874-1.832 4.786-5.04 4.786-8.701 0-5.699-4.62-10.32-10.32-10.32-5.699 0-10.319 4.621-10.319 10.32 0 5.682 4.592 10.289 10.267 10.317l5.037 18.954c-19.609 6.51-40.885 20.742-40.885 51.881.436 45.009 59.572 85.266 73.186 85.266v-142.633s-12.252-.062-26.729 3.817zm10.395 92.091c-8.138 10.199-52.735-25.88-45.154-51.646 3.002-12.145 13.19-17.612 21.511-16.279 30.349 6.174 35.26 49.368 23.643 67.925zm-18.8201-39.4613c-5.191 0-9.399 4.208-9.399 9.399s4.208 9.399 9.399 9.399 9.399-4.208 9.399-9.399-4.208-9.399-9.399-9.399zm-2.81 8.672c-1.311 0-2.374-1.063-2.374-2.374s1.063-2.374 2.374-2.374 2.374 1.063 2.374 2.374-1.063 2.374-2.374 2.374z" fill="#ff7f00"/></svg>