<svg height="303" preserveAspectRatio="xMidYMid" viewBox="0 0 256 303" width="256" xmlns="http://www.w3.org/2000/svg"><path d="m219.773101 37.6558611c-50.013085-50.0104374-131.2802662-50.2116156-181.551-.5761815l-.5885346.5876522c-50.1913213 50.2177922-50.1745565 131.9102712.0291179 182.1086522l77.5453847 77.531266c3.3865 3.3865 7.820362 5.072691 12.254224 5.072691 4.43298 0 8.878313-1.686191 12.262166-5.072691 6.760648-6.769471 6.760648-17.748685 0-24.515509l-77.5577368-77.537443c-36.575614-36.570319-36.692968-96.0264277-.3405912-132.7502783l.354709-.3467678c36.6982622-36.6753208 96.398784-36.6638501 133.074105.0114707 30.115852 30.1184988 34.438537 81.6589494 10.034206 119.9039904-5.14681 8.063894-2.775907 18.781929 5.287987 23.930503 8.083306 5.163575 18.787223 2.782083 23.930503-5.279164 33.488235-52.473988 27.288769-121.0475292-14.73454-163.0681909m-31.032625 186.0960399c6.764177 6.770353 6.773001 17.748684 0 24.510214-3.374147 3.391794-7.814186 5.086809-12.244518 5.086809-4.442686 0-8.88449-1.695015-12.273637-5.077985l-77.5427373-77.529502c-23.1646144-23.172556-23.1646144-60.883768 0-84.0598529 11.2253923-11.214804 26.1478753-17.3966228 42.0197793-17.3966228h.017647c15.869257 0 30.793505 6.1906424 42.010956 17.4222112 15.455429 15.4554295 21.177538 38.0800395 14.916307 59.0590465-2.756495 9.173903-12.395403 14.396596-21.571954 11.651572-9.173903-2.7362-14.396596-12.395402-11.663043-21.5746 2.619729-8.74243.243532-18.185454-6.199466-24.625804-4.677394-4.68357-10.885683-7.260946-17.501623-7.263593h-.008824c-6.61594 0-12.82423 2.573846-17.504271 7.245946-9.653908 9.653908-9.653908 25.366986 0 35.023541z" fill="#5088ac"/></svg>