<svg height="207" preserveAspectRatio="xMidYMid" viewBox="0 0 256 207" width="256" xmlns="http://www.w3.org/2000/svg"><path d="m59.914744 19.972099h112.567094v143.432266h-112.567094z" fill="#fff" transform="matrix(1 0 0 -1 0 183.376462)"/><path d="m61.2673646 206.978723h-61.2673646v-26.131906c0-43.89572 35.5494147-77.357197 79.3961136-77.357197h73.1322994c11.020682 0 19.953425 8.9509 19.953425 19.982475v25.091569h-34.006156c-35.258919 0-70.0693849 24.949952-77.2083174 58.415059" fill="#24c1ce" transform="matrix(1 0 0 -1 0 310.468344)"/><path d="m59.9147438 12.5517485c0 39.5981989 39.0099451 70.9662906 78.5609382 70.9662906h34.006156c-.005446 11.0261285-8.932743 19.9715809-19.957056 19.9715809h-73.1286684c-43.8466989 0-79.3961136-33.4560294-79.3961136-77.3571963v-26.13190625h61.2673646c-.867856 4.07057138-1.3526208 8.26097225-1.3526208 12.55123105" fill="#3dd0ad" transform="matrix(1 0 0 -1 0 103.490138)"/><path d="m123.460684 74.4400477c-10.027549 0-18.155983-8.1248024-18.155983-18.155983 0-10.0221026 8.128434-18.155983 18.155983-18.155983 10.025734 0 18.155983 8.1338804 18.155983 18.155983 0 10.0311806-8.130249 18.155983-18.155983 18.155983" fill="#404953" transform="matrix(1 0 0 -1 0 112.56813)"/><path d="m116.198291 54.4684664c-3.003 0-5.446795-2.4419797-5.446795-5.4413481 0-3.0048152 2.443795-5.4522417 5.446795-5.4522417s5.446795 2.4474265 5.446795 5.4522417c0 2.9993684-2.443795 5.4413481-5.446795 5.4413481" fill="#fff" transform="matrix(1 0 0 -1 0 98.043342)"/><path d="m101.673505 87.1492357h49.021154v14.5247863h-49.021154z" fill="#404953" transform="matrix(1 0 0 -1 0 188.823258)"/><path d="m32.6844006 121.645603c-10.0221026 0-18.155983-8.137511-18.155983-18.159614-.0036312-10.0221024 8.1302492-18.1523516 18.1523518-18.1523516 10.0257338 0 18.1559829 8.1338804 18.1559829 18.1523516 0 10.022103-8.1284335 18.159614-18.1559829 18.159614" fill="#ffda00" transform="matrix(1 0 0 -1 0 206.97924)"/><path d="m230.541041 155.769773c-16.104357 16.104357-36.96195 24.554152-58.059203 25.376618v-90.2352356l58.059203-58.0592024c33.944425 33.9426102 33.944425 88.97521 0 122.916005zm-58.059203-92.6372715v-43.1604028c11.307546.6118566 22.477107 4.266656 32.176033 10.9843697z" fill="#404953" transform="matrix(1 0 0 -1 0 201.11849)"/><path d="m61.2673646 187.007295h-1.3526208v-59.141299c0-13.515314 10.9553202-24.423428 24.4706339-24.376223l88.0964603.330439v24.772023h-34.006156c-35.258919 0-70.0693849 24.949952-77.2083174 58.41506" fill="#3a4287" transform="matrix(1 0 0 -1 0 290.496916)"/></svg>