<svg height="178" preserveAspectRatio="xMidYMid" viewBox="0 0 256 178" width="256" xmlns="http://www.w3.org/2000/svg"><g fill="none"><g transform="translate(50.398438)"><path d="m103.202016 177.979687-102.40685194-177.3749995h51.20695314l102.4068518 177.3749995z" fill="#ff4081"/><path d="m103.202016 177.979687 25.600453-44.34375 25.6065 44.34375z" fill="#fff" fill-opacity=".2"/><path d="m77.6015625 133.635937 25.6004535 44.34375 25.600453-44.34375h-51.1998987z" fill="#fff" fill-opacity=".1"/><g fill="#000"><path d="m52.0011094 89.2921875 25.6004531 44.3437495 25.6004535-44.3437495h-51.1998988z" fill-opacity=".1"/><path d="m52.0011094 89.2921875 25.6004531-44.34375 25.6004535 44.34375h-51.1998988z" fill-opacity=".2"/><path d="m26.4016641 44.9484375 25.6004531 44.34375 25.6004531-44.34375h-51.1998984z" fill-opacity=".3"/><path d="m26.4016641 44.9484375 25.6004531-44.34375 25.6004531 44.34375h-51.1998984z" fill-opacity=".4"/><path d="m.79516406.6046875 25.60650004 44.34375 25.6004531-44.34375z" fill-opacity=".5"/></g></g><g transform="translate(-1 44.34375)"><path d="m52.1936016 133.635937-51.20695316-88.6874995 25.60649996-44.34375 76.8063986 133.0312495h-51.2069532z" fill="#536dfe"/><path d="m52.1936016 133.635938 25.6065-44.3437505 25.6004534 44.3437505z" fill="#fff" fill-opacity=".2"/><path d="m26.5931484 89.2921875 25.6004532 44.3437505 25.6065-44.3437505z" fill="#fff" fill-opacity=".1"/><path d="m26.5931484 89.2921875 25.6004532-44.34375 25.6065 44.34375z"/><g fill="#000"><path d="m.98664844 44.9484375 25.60649996 44.34375 25.6004532-44.34375z" fill-opacity=".1"/><path d="m.98664844 44.9484375 25.60649996-44.34375 25.6004532 44.34375z" fill-opacity=".2"/></g></g><g transform="translate(25.203125)"><path d="m25.9904766 89.2921875-25.60045316-44.34375 25.60045316-44.34375 25.6065 44.34375z" fill="#303f9f"/><path d="m51.5969766 44.9484375-25.6065-44.34375-25.60045316 44.34375z" fill="#000" fill-opacity=".2"/></g><g transform="translate(178.390625 88.6875)"><path d="m26.4157734 89.2921875-25.60649996-44.34375 25.60649996-44.34375 25.6004532 44.34375z" fill="#3f51b5"/><path d="m52.0162266 44.9484375-25.6004532 44.34375-25.60649996-44.34375z" fill="#000" fill-opacity=".2"/></g><g transform="translate(153.195312)"><path d="m77.2115391 133.635937-76.80639847-133.0312495h51.20695307l51.2069533 88.6875-25.6065001 44.3437495z" fill="#7986cb"/><path d="m51.6110859 89.2921875 25.6004532 44.3437505 25.6064999-44.3437505z" fill="#fff" fill-opacity=".2"/><path d="m51.6110859 89.2921875 25.6004532-44.34375 25.6064999 44.34375z" fill="#fff" fill-opacity=".1"/><g fill="#000"><path d="m26.0045859 44.9484375 25.6065-44.34375 25.6004532 44.34375z" fill-opacity=".1"/><path d="m.40514063.6046875 25.60045317 44.34375 25.6064999-44.34375z" fill-opacity=".2"/></g></g></g></svg>