<svg height="264" preserveAspectRatio="xMidYMid" viewBox="0 0 256 264" width="256" xmlns="http://www.w3.org/2000/svg"><g fill="none"><path d="m45.9853445 256.455035-45.9853445 1.59526 23.5727668-23.967452 22.4144135 22.374027z" fill="#f15a24"/><path d="m254.580742 137.579706c-8.543545 66.613581-69.475503 113.676506-136.07807 105.123783-66.6135802-8.54538-113.6765055-69.475503-105.1329609-136.083576 8.5490519-66.6117454 69.46816-113.68017787 136.0872479-105.12561877 66.609909 8.54170887 113.683849 69.47733867 105.123783 136.08357677" fill="#f15a24"/><path d="m164.981832 87.5318642c7.990986 8.4939796.104637 28.5770008.104637 28.5770008s-7.794562 28.393426-52.421457 65.212909l-8.330599-8.176396 56.651008-57.899312 1.094102-1.477773c1.507145-2.456223 2.755449-26.4016456 2.902309-26.2364288" fill="#999"/><path d="m164.981832 87.5318642c7.990986 8.4939796.104637 28.5770008.104637 28.5770008s-7.794562 28.393426-52.421457 65.212909l-8.330599-8.176396 56.651008-57.899312 1.094102-1.477773c1.507145-2.456223 2.755449-26.4016456 2.902309-26.2364288z" stroke="#fff" stroke-linecap="round" stroke-linejoin="round" stroke-width="1.918"/><path d="m92.099191 161.108415 72.763317-73.7858254c3.693514 4.3855883 4.479212 9.110789 3.407138 15.8424564-.721447 4.662785-8.774848 13.981013-8.774848 13.981013l-55.160385 55.999319" fill="#666"/><path d="m92.099191 161.108415 72.763317-73.7858254c3.693514 4.3855883 4.479212 9.110789 3.407138 15.8424564-.721447 4.662785-8.774848 13.981013-8.774848 13.981013l-55.160385 55.999319" stroke="#fff" stroke-linecap="round" stroke-linejoin="round" stroke-width="1.201"/><path d="m164.981832 87.583265-72.882641 73.526986.1468594-.143188-.0275361.011015-18.0820616-17.817715c37.7079823-46.9050514 62.0884763-55.6505277 62.0884763-55.6505277s15.871828-6.1956303 27.194686-1.3878212c.870142.4662786 1.248305.7342969 1.560381 1.4630866" fill="#ff931e"/><path d="m164.981832 87.583265-72.882641 73.526986.1468594-.143188-.0275361.011015-18.0820616-17.817715c37.7079823-46.9050514 62.0884763-55.6505277 62.0884763-55.6505277s15.871828-6.1956303 27.194686-1.3878212c.870142.4662786 1.248305.7342969 1.560381 1.4630866z" stroke="#fff" stroke-linecap="round" stroke-linejoin="round" stroke-width="1.918"/><path d="m112.665012 181.319938c-17.388151 14.320626-39.6410192 36.815812-69.888545 52.505901l6.7279955 28.762411-28.5164208-28.086858 71.1093136-73.392977" fill="#999"/><path d="m112.665012 181.319938c-17.388151 14.320626-39.6410192 36.815812-69.888545 52.505901l6.7279955 28.762411-28.5164208-28.086858 71.1093136-73.392977" stroke="#fff" stroke-linecap="round" stroke-linejoin="round" stroke-width="1.918"/><path d="m74.6229244 143.400845 17.6653481 17.59559-40.810387 8.839099 22.7540258-26.752272.3928488.317583z" fill="#f15a24"/><path d="m74.6229244 143.400845 17.6653481 17.59559-40.810387 8.839099 22.7540258-26.752272.3928488.317583z" stroke="#fff" stroke-linecap="round" stroke-linejoin="round" stroke-width="1.918"/><path d="m158.024368 66.2464323c-1.73294 15.6405243 9.527503 29.7206678 25.168027 31.4646229 15.627674 1.7366123 29.720668-9.5330097 31.464623-25.1680269 1.738448-15.6350171-9.540352-29.7298465-25.173534-31.4682944-15.64236-1.7274335-29.724339 9.5275025-31.459116 25.1716984" fill="#999"/><path d="m158.024368 66.2464323c-1.73294 15.6405243 9.527503 29.7206678 25.168027 31.4646229 15.627674 1.7366123 29.720668-9.5330097 31.464623-25.1680269 1.738448-15.6350171-9.540352-29.7298465-25.173534-31.4682944-15.64236-1.7274335-29.724339 9.5275025-31.459116 25.1716984z" stroke="#fff" stroke-linecap="round" stroke-linejoin="round" stroke-width="1.918"/><path d="m210.565149 85.1380562c5.25573-7.67891 4.98404-19.1669853 3.928488-22.5704515-1.294198-4.167135-4.190999-10.9446956-9.242962-14.467485l-26.713722 24.6062897s20.530942 22.0582795 21.065143 22.1317091c.222125.0257004 6.16993-2.6985411 10.963053-9.7000623" fill="#666"/><path d="m210.565149 85.1380562c5.25573-7.67891 4.98404-19.1669853 3.928488-22.5704515-1.294198-4.167135-4.190999-10.9446956-9.242962-14.467485l-26.713722 24.6062897s20.530942 22.0582795 21.065143 22.1317091c.222125.0257004 6.16993-2.6985411 10.963053-9.7000623zm-5.38974-19.2752941s2.568204 6.3076106-.690239 11.2145497z" stroke="#fff" stroke-linecap="round" stroke-linejoin="round" stroke-width="1.918"/><path d="m104.964073 173.156392-29.4820212 5.246552 17.7956858-18.489597" fill="#666"/><path d="m104.964073 173.156392-29.4820212 5.246552 17.7956858-18.489597m-17.9700814-16.384 37.4803508 35.273788" stroke="#fff" stroke-linecap="round" stroke-linejoin="round" stroke-width="1.918"/></g></svg>