<svg height="330" preserveAspectRatio="xMidYMid" viewBox="0 0 256 330" width="256" xmlns="http://www.w3.org/2000/svg"><g fill-opacity=".9"><path d="m18.7517656 0-18.7517656 91.4585788 53.7815678 50.7433262-34.9425934 62.288644 71.1014212 125.186814h77.7846154l71.406183-125.186814-35.24548-62.288644 51.959561-50.7433262-17.106052-91.4585788-73.140044 97.4094066h-73.2272523z" fill="#6ccb94"/><path d="m18.8389744 204.490549 34.9416556-62.288644 75.044571 62.289582z" fill="#5dbd85"/><path d="m53.7815678 142.202842 75.0445712 62.289583-36.45515-107.0811429z" fill="#64c48c"/><path d="m239.130256 204.490549-35.246417-62.288644-75.055824 62.289582z" fill="#6ecc95"/><path d="m89.9394579 329.677363h77.7846151l-38.896996-125.186814z" fill="#5ebe86"/><path d="m203.883839 142.202842-75.055824 62.289583 36.771164-107.0811429z" fill="#76d29c"/><path d="m238.739223 0 17.102301 91.4595165-51.957685 50.7433255-38.285597-44.7924977z" fill="#74d09b"/><path d="m128.825201 204.490549 38.89981 125.186814 71.405245-125.186814z" fill="#64c48c"/><path d="m128.825201 204.490549-38.8969959 125.186814-71.0892307-125.186814z" fill="#58b880"/><path d="m18.7517656 0-18.7517656 91.4604542 53.7815678 50.7433258 38.5894212-44.7924979z" fill="#5fbf87"/><path d="m128.825201 204.490549 36.773041-107.0792669h-73.227253z" fill="#6ecc95"/></g></svg>