<svg height="256" preserveAspectRatio="xMidYMid" viewBox="0 0 256 256" width="256" xmlns="http://www.w3.org/2000/svg"><rect height="256" rx="18" width="256"/><g transform="translate(25 40)"><path d="m205.118 88.531c0 7.047-5.713 12.76-12.761 12.76-7.047 0-12.76-5.713-12.76-12.76 0-7.048 5.713-12.761 12.76-12.761 7.048 0 12.761 5.713 12.761 12.761" fill="#669cfe"/><path d="m178.806 114.531c0 7.047-5.713 12.76-12.761 12.76s-12.761-5.713-12.761-12.76c0-7.048 5.713-12.761 12.761-12.761s12.761 5.713 12.761 12.761" fill="#3fe7fe"/><path d="m152.451 141.072c0 7.048-5.713 12.761-12.76 12.761-7.048 0-12.761-5.713-12.761-12.761 0-7.047 5.713-12.76 12.761-12.76 7.047 0 12.76 5.713 12.76 12.76" fill="#fff"/><path d="m177.993 62.336c0 6.597-5.348 11.944-11.944 11.944-6.597 0-11.945-5.347-11.945-11.944s5.348-11.945 11.945-11.945c6.596 0 11.944 5.348 11.944 11.945" fill="#669cfe"/><path d="m151.738 88.298c0 6.597-5.348 11.945-11.944 11.945-6.597 0-11.945-5.348-11.945-11.945s5.348-11.945 11.945-11.945c6.596 0 11.944 5.348 11.944 11.945" fill="#3fe7fe"/><path d="m125.569 114.642c0 6.597-5.347 11.945-11.944 11.945s-11.945-5.348-11.945-11.945 5.348-11.944 11.945-11.944 11.944 5.347 11.944 11.944" fill="#fff"/><path d="m150.743 36.235c0 5.991-4.857 10.849-10.849 10.849s-10.849-4.858-10.849-10.849c0-5.992 4.857-10.849 10.849-10.849s10.849 4.857 10.849 10.849" fill="#669cfe"/><path d="m124.522 62.191c0 5.991-4.858 10.849-10.85 10.849-5.991 0-10.849-4.858-10.849-10.849 0-5.992 4.858-10.85 10.849-10.85 5.992 0 10.85 4.858 10.85 10.85" fill="#3fe7fe"/><path d="m98.253 88.618c0 5.992-4.857 10.849-10.849 10.849s-10.849-4.857-10.849-10.849c0-5.991 4.857-10.849 10.849-10.849s10.849 4.858 10.849 10.849" fill="#fff"/><path d="m123.618 10.008c0 5.386-4.366 9.752-9.752 9.752s-9.752-4.366-9.752-9.752c0-5.387 4.366-9.753 9.752-9.753s9.752 4.366 9.752 9.753" fill="#669cfe"/><path d="m97.297 36.089c0 5.386-4.366 9.753-9.752 9.753s-9.752-4.367-9.752-9.753 4.366-9.752 9.752-9.752 9.752 4.366 9.752 9.752" fill="#3fe7fe"/><path d="m71.06 62.471c0 5.386-4.367 9.752-9.753 9.752s-9.752-4.366-9.752-9.752 4.366-9.753 9.752-9.753 9.753 4.367 9.753 9.753" fill="#fff"/><g fill="#6a9efe"><path d="m70.06 114.721c0 4.787-3.882 8.668-8.669 8.668-4.788 0-8.669-3.881-8.669-8.668 0-4.788 3.881-8.669 8.669-8.669 4.787 0 8.669 3.881 8.669 8.669"/><path d="m96.185 140.846c0 4.787-3.882 8.668-8.669 8.668-4.788 0-8.669-3.881-8.669-8.668 0-4.788 3.881-8.669 8.669-8.669 4.787 0 8.669 3.881 8.669 8.669"/><path d="m122.268 166.929c0 4.788-3.881 8.669-8.669 8.669s-8.669-3.881-8.669-8.669 3.881-8.669 8.669-8.669 8.669 3.881 8.669 8.669"/><path d="m70.185 166.929c0 4.788-3.882 8.669-8.669 8.669-4.788 0-8.669-3.881-8.669-8.669s3.881-8.669 8.669-8.669c4.787 0 8.669 3.881 8.669 8.669"/><path d="m17.601 166.929c0 4.788-3.881 8.669-8.669 8.669-4.787 0-8.669-3.881-8.669-8.669s3.882-8.669 8.669-8.669c4.788 0 8.669 3.881 8.669 8.669"/><path d="m43.726 140.804c0 4.788-3.881 8.669-8.669 8.669-4.787 0-8.669-3.881-8.669-8.669s3.882-8.669 8.669-8.669c4.788 0 8.669 3.881 8.669 8.669"/></g><path d="m70.172 10.032c0 5.003-4.056 9.059-9.059 9.059s-9.059-4.056-9.059-9.059c0-5.004 4.056-9.06 9.059-9.06s9.059 4.056 9.059 9.06" fill="#3fe7fe"/><path d="m43.799 36.538c0 5.004-4.056 9.06-9.06 9.06-5.003 0-9.059-4.056-9.059-9.06 0-5.003 4.056-9.059 9.059-9.059 5.004 0 9.06 4.056 9.06 9.059" fill="#fff"/><path d="m16.174 9.663c0 4.037-3.273 7.31-7.31 7.31-4.036 0-7.309-3.273-7.309-7.31 0-4.036 3.273-7.309 7.309-7.309 4.037 0 7.31 3.273 7.31 7.309" fill="#fff"/></g></svg>