<svg height="63" preserveAspectRatio="xMidYMid" viewBox="0 0 512 63" width="512" xmlns="http://www.w3.org/2000/svg"><path d="m403.865914.00078828c-2.452679.02602093-4.833479 1.05013573-6.890939 2.96762547-1.995896 1.86018248-3.096742 4.10309453-3.109072 6.32507504-.005357.88762741.017756 1.01016301.323815 1.63156571.487709.9907085 1.257752 1.5648373 2.470917 1.8421821.793011.181297 2.170184.1156247 3.219118-.1540286 2.831765-.7279813 5.801503-2.95789822 7.151844-5.37254074.702879-1.25688729 1.146114-3.06622182 1.009122-4.12136275-.133725-1.03021441-.731196-1.9985985-1.559251-2.5274968-.713203-.45553459-1.374425-.60412173-2.615554-.59101943zm42.144044 18.46906452c-.41433.0003673-.848221.0242607-1.301475.069185-3.790224.3756504-6.903321 1.6737043-10.512416 4.3822838-1.132446.8498741-3.617713 3.0603059-3.700107 3.2914253-.124686.3495759-.129936-.0632155-.012551-.8267843.353976-2.3026607-.022654-4.0005415-1.147431-5.1713378-.56206-.5851264-1.919051-1.2688263-2.986476-1.5058234-2.643726-.5869479-6.385811-.0217351-9.993735 1.5089612-1.677431.7116188-7.361756 3.6905787-8.135833 4.2628248-.200315.1480744-.193955.1694651.433823 1.2668977l.641324 1.1191447.845649-.3395118c1.371984-.5508937 2.301513-.7594437 3.483169-.7764951.943021-.0135462 1.110229.014388 1.559258.238918.670116.3350654.956675.8734766.955688 1.8044824 0 1.1241423-.316606 2.1257108-1.364369 4.3382548-1.876392 3.962352-3.831207 8.3752486-4.778384 10.7890875l-.584721 1.4932415-.836198.7796252c-3.391628 3.1689892-5.837159 4.9890383-8.676555 6.4539629-2.571243 1.3265698-4.44028 1.8416999-6.696026 1.8484807-1.130923.0030613-1.475816-.0313782-2.062228-.2169227-.931227-.2947789-1.386747-.6239283-1.663012-1.1945902-.197966-.4089188-.218316-.568672-.166603-1.2857628.067884-.9412305.43458-2.2919309.917957-3.3825827.183891-.4149726 2.109861-4.6249749 4.278514-9.3555794 2.16866-4.7305968 4.120551-9.1184597 4.338262-9.7485182.487127-1.4096455.788526-2.8567763.861392-4.1276461.164981-2.8783737-1.16785-4.6679476-4.064782-5.4605527-1.025653-.2806204-3.607021-.3009396-5.05504-.0408681-1.412209.2536504-3.13044.7261522-4.325673 1.1914523-1.627111.6334335-8.00419 3.9248665-8.924879 4.6054821-.2003.1480744-.193626.1707202.43696 1.2731886l.644462 1.1222826.870798-.3520861c1.654074-.6669776 3.315862-.9491745 4.407424-.7482011.738574.1359899 1.037746.3406522 1.342351.9211102.206522.3935512.225869.5454445.179185 1.2543158-.029159.4426236-.16407 1.1903732-.301789 1.6630051-.145143.4980941-2.045559 4.8114989-4.520608 10.2609391-2.348527 5.1708863-4.411848 9.8189891-4.58661 10.330109-.947712 2.7717338-1.053434 5.2075374-.317508 7.3467561.989996 2.877815 3.369128 4.8066545 6.535691 5.3002332 1.546783.2410992 3.354243.1498576 5.793781-.2986514 3.197421-.5878433 6.513796-1.9062395 9.858549-3.9170143 3.069911-1.8455342 5.115462-3.4209559 8.261568-6.3627977l1.417819-1.3266234-.188629.9242404c-.522462 2.5380582-.585616 4.5837316-.185491 6.1710235.658551 2.6123327 2.557727 4.5229881 4.847553 4.8789773.707019.1099231.789544.1046118 1.213448-.1005938.471415-.2282035.924523-.7872861 1.559266-1.9239338.169939-.3042994 2.716408-5.7139276 5.65861-12.0213926 2.942209-6.3074574 5.510911-11.762362 5.708922-12.1219942 1.890796-3.4348541 5.050578-6.6845694 7.821462-8.0415148 2.885905-1.413296 6.482739-1.8161536 8.428125-.9430979 1.642716.7371729 2.223182 2.5352725 1.392686 4.3099686-.404296.8639177-1.37816 1.8393198-2.555783 2.5589515l-.858209.5249951.458918 1.1222902c.253267.6169026.493823 1.1601048.534431 1.2071644.114393.1324006 2.746057-.7993552 3.835332-1.3580628 1.932574-.9913437 3.438979-2.1272337 4.988923-3.7598326 1.873989-1.9737485 2.853608-4.0213658 3.159423-6.5954171.239239-2.0133539-.396016-3.8062264-1.870507-5.2845135-1.370208-1.3737672-3.059716-2.0269537-5.297003-2.0245276zm-88.139101.0030613c-.724836.0030613-1.302577.0725524-1.568687.2137695-.352882.1872971-.631872.6233849-.631872.9933948 0 .1280613.085364.3918905.188621.5847209.382553.7144122 1.236859 4.6318397 1.537255 7.0418291.174363 1.3988927.172488 5.3137028-.003061 6.48854-.922511 6.1705567-3.485672 11.5013568-7.381326 15.3536861-2.503496 2.4756387-5.08804 3.8098693-8.274157 4.2659549-3.148548.4507284-5.166264-.237219-6.064139-2.0653804-.245515-.4999232-.271161-.6563396-.264059-1.6095627.01171-1.5740441.39949-3.3493984 1.213455-5.5234315.199045-.5316305 1.381444-3.1153784 2.624961-5.7434844 3.277106-6.9260053 3.427277-7.2882702 3.998758-9.5096079.631918-2.4563448.675021-4.0128937.147738-5.5454345-.891094-2.5900159-3.524236-4.6738406-6.205601-4.9135622-1.464251-.1309005-1.75492.286146-4.652633 6.6520127-3.952686 8.6834894-6.808353 14.8619671-7.645416 16.5357097-2.451875 4.9026181-4.866648 8.296849-7.044967 9.9025545-1.714304 1.2636757-3.909108 1.9670213-6.117588 1.9648019-2.777711-.0030613-4.292298-1.0008184-4.80667-3.1751118-.340997-1.4414216.029388-4.513919.817356-6.7777473.722157-2.0747327 1.145119-2.7614173 5.633469-9.1700884 2.821487-4.0286746 3.481018-5.2954805 4.052178-7.7837316.728103-3.1719127.396903-5.3774006-.996541-6.636293-.529059-.4779815-1.830449-1.0892896-2.757009-1.2951993-2.523678-.5608275-5.987071-.1071909-9.45615 1.2417569-1.631535.6344208-7.837794 3.8357142-8.777134 4.5268912-.201945.1485872-.196573.1680799.386671 1.2668977l.594157 1.1128539 1.131712-.4464043c.900898-.3573286 1.295972-.4595526 1.936508-.4998391 1.53554-.0965759 2.641376.3501575 3.074517 1.2448947.186218.3846812.211796.5678455.163465 1.1442932-.07569.9025818-.226527 1.1842507-1.927063 3.5209146-3.162706 4.3457626-4.243746 6.0134362-5.243646 8.0980951-1.418913 2.958212-2.042895 5.6005606-2.210003 9.3555716-.139572 3.1361263.393222 5.7933986 1.562404 7.7868695.828414 1.4124542 2.430048 2.9594671 4.005041 3.8667174 1.657418.954746 4.239398 1.717848 6.692873 1.9773685 1.156003.122283 3.93389.0390313 5.249929-.1571818 1.433768-.2137006 3.064523-.6305865 4.325696-1.1034327 1.873139-.7022818 5.648026-2.6933878 8.013213-4.2282322.555639-.3605735 1.04797-.6637938 1.094004-.6758936.045996-.0121686.36688.4080464.713609.9336692 1.17274 1.7777879 2.853738 3.2181916 4.699792 4.03019 2.02873.892357 3.839648 1.2352976 6.554557 1.2417569 2.144262.0053572 3.310612-.1106349 5.539144-.5532891 7.015502-1.3935201 15.331843-5.8553667 20.415008-10.9525525 4.99272-5.0065028 8.055291-11.5718352 8.657668-18.5633751.314623-3.6517462-.464191-7.3977647-1.999372-9.6290745-1.327312-1.9291762-3.8941-3.5234784-6.925508-4.297402-1.249861-.3190854-2.86299-.4950405-4.071058-.4904026zm126.573678.0566338c-4.019269.015536-8.142384.8360676-12.103068 2.4080531-10.387316 4.1226102-18.984217 12.8432483-21.792005 22.1063002-.719341 2.3732616-1.147822 5.4646778-1.015414 7.3373197.292078 4.1315339 1.847624 6.8916501 5.108459 9.0632113 2.916303 1.9421178 6.513651 3.0013685 11.820228 3.4800464 1.219923.1100302 5.913669.046608 7.469376-.1006015 7.726846-.7312723 14.828592-3.1337079 21.326668-7.2147229 6.044301-3.7960782 11.384446-9.1750859 15.630311-15.7435102l.760745-1.1788781-.996494-.8079191c-.548591-.4442385-1.039927-.8079269-1.090913-.8079269-.050893 0-.46996.418738-.93363.9305237-6.383133 7.0451276-13.594993 12.2173455-20.785938 14.9072971-6.902311 2.5819494-15.082617 2.8833789-19.493998.7167541-1.416411-.6957001-2.438444-1.644293-3.376238-3.1342436l-.194897-.3112256 1.081415-.1131604c5.988502-.6166118 15.197729-4.509021 20.672807-8.7394114 1.939585-1.4986906 4.309785-3.8637556 5.476242-5.4636982 2.412829-3.3094333 3.48147-7.7068092 2.647025-10.8928268-.606196-2.3142324-2.108231-4.2228673-4.124585-5.2467831-1.680095-.8532033-3.46712-1.2046848-6.086096-1.1945978zm-5.231079 8.8431507c1.415914-.0096431 1.918087.137314 2.489767.723045.670743.6872203.837384 1.6576938.518719 3.0587829-.811179 3.5664589-4.564866 7.7469503-9.251817 10.3018227-1.619581.8828058-3.645922 1.5807713-5.488831 1.8956245-.476818.0814608-1.283505.1816873-1.791847.2200528l-.924271.0691851.072246-.2923681c.833558-3.4529616 3.061324-8.0064555 5.240523-10.704198.926667-1.1472014 2.858942-2.9606687 3.81013-3.5806402 1.781683-1.1613752 3.405006-1.6781202 5.325358-1.6912914z" fill="#2f4248"/><path d="m102.959641 18.0520409c-6.8011047.0793103-12.3234724 2.0922738-16.5500745 6.0747384-4.2266174 3.9825335-6.4020664 9.4482215-6.529148 16.3826607.1270816 6.9344775 2.3025306 12.4001732 6.529148 16.3826607 4.2266021 3.9825105 9.7489698 5.9954588 16.5500745 6.0747384 6.801052-.079272 12.323427-2.0922279 16.550075-6.0747384 4.226571-3.9824875 6.402013-9.4481832 6.529148-16.3826607-.127135-6.9344392-2.302577-12.4001272-6.529148-16.3826607-4.226648-3.9824646-9.749023-5.9954281-16.550075-6.0747384zm52.71151 0c-6.801105.0793103-12.323465 2.0922738-16.550075 6.0747384-4.226617 3.9825335-6.402058 9.4482215-6.529148 16.3826607.12709 6.9344775 2.302531 12.4001732 6.529148 16.3826607 4.226602 3.9825105 9.74897 5.9954588 16.550075 6.0747384 2.984646.0076532 5.842831-.5782079 8.585949-1.793722 2.743042-1.2155063 5.050739-3.091156 6.887893-5.6203288l-7.868461-5.8594918c-.975211 1.4596286-2.210937 2.5769595-3.707025 3.3721973-1.496135.7952455-3.182849 1.209667-5.094171 1.219731-3.489276-.0754607-6.366341-1.3767214-8.609865-3.8983558-2.243555-2.5216038-3.391124-5.8156389-3.467863-9.877429.070486-4.0617519 1.240686-7.3557793 3.515695-9.877429 2.274987-2.5215885 5.215053-3.8228185 8.849029-3.8983558 1.752777.0061226 3.310979.3061362 4.663677.9088192 1.352637.6027594 2.506489 1.483254 3.443946 2.6068759l7.246637-5.9312406c-1.888744-2.2963468-4.156131-3.9188052-6.792227-4.8789238-2.636157-.9600345-5.190754-1.4160512-7.653214-1.387145zm78.158445 0c-4.352459.0088777-8.130192 1.1740566-11.312406 3.5156951-3.182237 2.3417227-4.843734 5.7869163-4.998505 10.3557548.104435 3.4839343 1.148701 6.0498731 3.133034 7.7010464 1.984325 1.6512191 4.276914 2.8856748 6.887892 3.6591928 2.61094.7735562 4.903545 1.564646 6.887893 2.4155456 1.98431.8509379 3.028568 2.2302613 3.133034 4.1136024-.079295 1.5074458-.779671 2.6348484-2.104634 3.3721973-1.325008.7373718-2.805109 1.102675-4.424514 1.1001495-1.595534-.0101023-3.09959-.3715789-4.544096-1.0762332-1.444536-.7046391-2.667665-1.6871816-3.659192-2.9656204l-6.696562 7.3662183c2.025851 1.8622794 4.221466 3.2239775 6.624813 4.0896861 2.403331.8657009 4.998237 1.2776275 7.748879 1.2675635 4.544937.0101022 8.395744-1.1286807 11.551569-3.4439462 3.155772-2.3152579 4.790828-5.8574407 4.926757-10.6188341-.102584-3.6592693-1.112847-6.3152712-3.061286-7.9880418-1.948493-1.672717-4.204561-2.8763227-6.768311-3.587444-2.563796-.7110677-4.819856-1.449863-6.768311-2.2242152-1.948485-.7742986-2.982664-2.0837252-3.085202-3.9461884.098138-1.5841616.824963-2.7342254 2.176383-3.4200298 1.351397-.6857357 2.734516-1.020801 4.161435-1.0044844 1.1941-.0022959 2.429834.2280352 3.707025.6935725 1.277146.4656063 2.307567 1.1886436 3.109119 2.1524664l6.481315-7.0792227c-1.829585-1.5866719-3.861437-2.7166001-6.098655-3.4200299-2.237279-.7033457-4.573951-1.0421993-7.007474-1.0284006zm37.142003 0c-4.352459.0088777-8.130192 1.1740566-11.312406 3.5156951-3.182229 2.3417227-4.843742 5.7869163-4.998505 10.3557548.104435 3.4839343 1.148701 6.0498731 3.133034 7.7010464 1.984325 1.6512191 4.276922 2.8856748 6.887892 3.6591928 2.610948.7735562 4.903545 1.564646 6.887893 2.4155456 1.98431.8509379 3.028575 2.2302613 3.133034 4.1136024-.079295 1.5074458-.779671 2.6348484-2.104634 3.3721973-1.325001.7373718-2.805101 1.102675-4.424514 1.1001495-1.595534-.0101023-3.099582-.3715789-4.544096-1.0762332-1.444536-.7046391-2.667665-1.6871816-3.659192-2.9656204l-6.696562 7.3662183c2.025851 1.8622794 4.221466 3.2239775 6.624813 4.0896861 2.403331.8657009 4.998237 1.2776275 7.748879 1.2675635 4.544945.0101022 8.395744-1.1286807 11.551569-3.4439462 3.155772-2.3152579 4.790835-5.8574407 4.926757-10.6188341-.102584-3.6592693-1.112847-6.3152712-3.061286-7.9880418-1.948493-1.672717-4.204561-2.8763227-6.768311-3.587444-2.563796-.7110677-4.819856-1.449863-6.768311-2.2242152-1.948485-.7742986-2.982671-2.0837252-3.085202-3.9461884.09813-1.5841616.824963-2.7342254 2.176383-3.4200298 1.351397-.6857357 2.734509-1.020801 4.161435-1.0044844 1.1941-.0022959 2.429834.2280352 3.707025.6935725 1.277146.4656063 2.307559 1.1886436 3.109119 2.1524664l6.481315-7.0792227c-1.829593-1.5866719-3.861437-2.7166001-6.098655-3.4200299-2.237271-.7033457-4.573951-1.0421993-7.007474-1.0284006zm-270.971599 1.0762332v42.7623318h9.42301943v-16.6696562h6.88789237c4.5965255.0805501 8.3604082-.8553767 11.2884903-2.7982063 2.9280178-1.9427836 4.4232568-5.3753801 4.5201794-10.3079222-.1220902-4.9802983-1.709278-8.4229587-4.7832586-10.3079223-3.0740404-1.8848871-6.8946081-2.7716956-11.4559044-2.6786248zm40.5620329 0v42.7623318h9.4230194v-17.1001495h4.6397609l8.9446935 17.1001495h11.2884903l-10.857997-18.0568012c3.0274277-.5901163 5.3250526-1.9253725 6.8878924-4.0179372 1.5627633-2.0925264 2.3362047-4.6647562 2.3437967-7.7010463-.1246096-4.9010263-1.7218583-8.3172296-4.7832586-10.2361734-3.0614539-1.9188597-6.8329193-2.8321177-11.3363229-2.7503737zm138.5710011 0v42.7623318h30.13453v-8.7055306h-20.71151v-8.6816144h18.535127v-8.7055306h-18.535127v-7.9641256h19.61136v-8.7055306zm-76.173393 7.6053811c4.068035.0755373 7.292786 1.3767673 9.662183 3.8983558 2.369335 2.5216497 3.583648 5.8156771 3.635276 9.877429-.051659 4.0617901-1.265941 7.3558252-3.635276 9.877429-2.369397 2.5216268-5.594148 3.8228645-9.662183 3.8983558-4.0680885-.0754607-7.2928313-1.3767214-9.6621821-3.8983558-2.3693814-2.5216038-3.5837015-5.8156389-3.6352765-9.877429.0515826-4.0617519 1.2658874-7.3557793 3.6352765-9.877429 2.3693431-2.5215885 5.5940936-3.8228185 9.6621821-3.8983558zm-93.53662157.3587444h4.83109117c1.9226549-.0666595 3.7239804.2255862 5.4050822.8609866 1.681059.6354769 2.5678698 2.0236245 2.6786248 4.161435-.0692309 1.9579293-.7658257 3.3158543-2.0807175 4.0657698-1.3149438.749969-2.837879 1.1114915-4.5680119 1.0762332h-6.26606877zm40.56203287 0h6.1464873c1.8106585-.0616083 3.4646099.244459 4.9506727.8849029 1.4860245.6404974 2.2783464 1.9833227 2.367713 4.0657698-.1145304 2.2334986-.9925224 3.6178731-2.6547086 4.1375187-1.6622321.5197068-3.4257545.7376244-5.2615844.6457399h-5.54858z" fill="#6c7a7f"/></svg>