<svg height="256" preserveAspectRatio="xMidYMid" viewBox="0 0 256 256" width="256" xmlns="http://www.w3.org/2000/svg"><path d="m0 .252451h255.832713v255.717133h-255.832713z" fill="#fbde34"/><path d="m110.258947 197.039398v7.480776h-8.189466v20.158606c0 1.890345.314804 3.150068.944919 3.780182.630115.629608 1.889838.944412 3.779675.944412.630115 0 1.232856-.025853 1.811264-.078574.576887-.051707 1.128427-.130281 1.653608-.23623v8.661925c-.944919.157655-1.995787.262083-3.149561.314804-1.155295.052214-2.283723.078574-3.386297.078574-1.732182 0-3.373624-.117608-4.9212831-.353837-1.5491802-.236737-2.9133307-.695509-4.0944792-1.378345-1.1811485-.681822-2.113901-1.653608-2.7957227-2.913331-.6828357-1.259722-1.0234931-2.913837-1.0234931-4.960823v-24.017363h-6.7720871v-7.480776h6.7720871v-12.20537h11.1818771v12.20537zm15.748308-15.512079v21.182099h.23623c1.417378-2.362297 3.228642-4.081299 5.433283-5.15802 2.204642-1.0752 4.356563-1.614574 6.456777-1.614574 2.992411 0 5.445449.407572 7.362661 1.220689 1.915184.814131 3.425331 1.942558 4.527905 3.386297 1.102574 1.444245 1.87615 3.202281 2.322756 5.275628.445592 2.07436.669149 4.370249.669149 6.890202v25.040855h-11.181877v-22.992855c0-3.35943-.525181-5.866709-1.574527-7.520317-1.050867-1.653608-2.913331-2.480919-5.590939-2.480919-3.045132 0-5.249774.905885-6.614431 2.716642-1.365672 1.811263-2.047493 4.791002-2.047493 8.937695v21.339754h-11.181878v-56.223176zm43.544333 46.458677c1.679462 1.627754 4.094479 2.440871 7.244547 2.440871 2.256348 0 4.198907-.5632 5.827168-1.693148 1.626234-1.128428 2.62438-2.322757 2.991905-3.582479h9.843073c-1.574527 4.882249-3.990051 8.373988-7.244546 10.472681-3.255509 2.100721-7.192333 3.150067-11.811485 3.150067-3.202789 0-6.090773-.512-8.661925-1.535493-2.572674-1.024-4.751969-2.480412-6.536365-4.370249-1.784903-1.889838-3.163247-4.146694-4.133512-6.771581-.972294-2.624887-1.456919-5.512364-1.456919-8.661924 0-3.044119.497806-5.878876 1.495952-8.50427.996626-2.62438 2.414004-4.894416 4.252135-6.811627 1.837117-1.915692 4.028578-3.425331 6.575398-4.527905 2.545299-1.102575 5.366875-1.654115 8.465236-1.654115 3.464364 0 6.482629.669148 9.055302 2.008459 2.571153 1.338804 4.685054 3.136887 6.338662 5.393743 1.654115 2.257869 2.84743 4.830542 3.582986 7.717513.734543 2.887477.996626 5.905235.787263 9.055303h-29.371057c.157655 3.622526 1.0752 6.24792 2.756182 7.874154zm12.638289-21.418329c-1.338804-1.469085-3.373624-2.205148-6.102938-2.205148-1.784903 0-3.267676.303144-4.448824.905378-1.181149.604261-2.125561 1.352491-2.834757 2.244689-.708689.893212-1.208522 1.838131-1.495952 2.834757-.288951.998146-.460293 1.889837-.512 2.677101h18.189687c-.52518-2.83425-1.456412-4.986171-2.795216-6.456777zm27.284531-9.528269v5.67002h.23623c1.417378-2.362297 3.254495-4.081299 5.512364-5.15802 2.256348-1.0752 4.566939-1.614574 6.929236-1.614574 2.992412 0 5.445449.407572 7.362661 1.220689 1.915184.814131 3.425331 1.942558 4.527905 3.386297 1.102574 1.444245 1.87615 3.202281 2.322756 5.275628.445592 2.07436.669149 4.370249.669149 6.890202v25.040855h-11.181877v-22.992855c0-3.35943-.525181-5.866709-1.574527-7.520317-1.050867-1.653608-2.913331-2.480919-5.590939-2.480919-3.045132 0-5.249774.905885-6.614431 2.716642-1.365672 1.811263-2.047493 4.791002-2.047493 8.937695v21.339754h-11.181878v-40.711097z" fill="#524739"/></svg>