<svg height="326" preserveAspectRatio="xMidYMid" viewBox="0 0 256 326" width="256" xmlns="http://www.w3.org/2000/svg"><path d="m235.066415 204.999379c5.643289-64.503098-20.360594-119.4684783-58.081299-122.7686123-37.720705-3.3001341-72.874169 46.3146713-78.5174588 110.8177693-5.6432899 64.503099 20.3605928 119.468479 58.0812988 122.768613 37.720705 3.300134 72.874169-46.314672 78.517459-110.81777z" fill="#d04b06"/><path d="m255.158589 204.99774c5.643289-64.503098-20.360594-119.4684779-58.081299-122.7686119-37.720705-3.3001341-72.874169 46.3146709-78.517459 110.8177699-5.64329 64.503098 20.360594 119.468478 58.081299 122.768612s72.874169-46.314671 78.517459-110.81777z" fill="#c65c14"/><path d="m99.5584771 315.816665c37.7207049-3.300134 63.7245879-58.265514 58.0812989-122.768612-5.64329-64.503098-40.796754-114.1179038-78.5174593-110.8177698-37.7207053 3.3001341-63.7245883 58.2655138-58.0812985 122.7686128 5.6432899 64.503098 40.7967536 114.117903 78.5174589 110.817769z" fill="#d04b06"/><path d="m79.4716694 315.814631c37.7207056-3.300134 63.7245886-58.265514 58.0812986-122.768613-5.64329-64.503098-40.7967537-114.1179034-78.517459-110.8177694-37.7207052 3.3001341-63.72458828 58.2655144-58.08129842 122.7686124s40.79675362 114.117904 78.51745882 110.81777z" fill="#c65c14"/><path d="m254.978523 213.93336c5.64329-64.503099-20.360593-119.4684786-58.081298-122.7686127-37.720706-3.300134-72.874169 46.3146717-78.517459 110.8177697s20.360593 119.468478 58.081298 122.768612c37.720706 3.300134 72.874169-46.314671 78.517459-110.817769z" fill="#f17008"/><path d="m97.9568814 121.30061-2.6381017-24.0770168s1.4535593-12.8694237 27.9604063-14.7134915c26.506848-1.8440678-12.192542-59.0492203-12.192542-59.0492203s8.899254-31.95227123 23.499932-20.58413564c14.600678 11.36813564 15.186441 77.78494914 15.186441 77.78494914s9.415593 24.9925421 10.383186 33.8223731" fill="#8f6646"/><path d="m234.886349 213.934998c5.64329-64.503098-20.360593-119.468478-58.081298-122.7686121-37.720706-3.300134-72.874169 46.3146711-78.5174593 110.8177701-5.6432898 64.503098 20.3605933 119.468478 58.0812983 122.768612s72.874169-46.314671 78.517459-110.81777z" fill="#f48d39"/><path d="m79.2881333 324.752162c37.7207057-3.300134 63.7245887-58.265514 58.0812987-122.768613-5.64329-64.503098-40.7967539-114.1179033-78.5174591-110.8177693-37.7207053 3.3001341-63.72458834 58.2655143-58.08129847 122.7686123 5.64328986 64.503098 40.79675357 114.117904 78.51745887 110.81777z" fill="#f17008"/><path d="m99.3792634 324.753818c37.7207056-3.300134 63.7245886-58.265514 58.0812986-122.768612s-40.796754-114.1179039-78.517459-110.8177698c-37.7207052 3.3001341-63.7245883 58.2655138-58.0812984 122.7686128 5.6432898 64.503098 40.7967535 114.117903 78.5174588 110.817769z" fill="#f48d39"/><ellipse cx="123.235797" cy="207.95878" fill="#f17008" rx="68.560271" ry="117.239322"/><circle cx="127.305763" cy="159.796068" fill="#f7f3f0" r="23.929492"/><circle cx="135.532475" cy="169.901559" fill="#160c06" r="8.226712"/><circle cx="137.506712" cy="170.235661" fill="#f9f6f4" r="2.546983"/></svg>