<svg height="256" preserveAspectRatio="xMidYMid" viewBox="0 0 256 256" width="256" xmlns="http://www.w3.org/2000/svg" xmlns:xlink="http://www.w3.org/1999/xlink"><linearGradient id="a" x1="-46.564748%" x2="90.44964%" y1="50%" y2="50%"><stop offset="0" stop-color="#21d789"/><stop offset="1" stop-color="#07c3f2"/></linearGradient><linearGradient id="b" x1="-53.696172%" x2="133.923445%" y1="105.498047%" y2="-7.578125%"><stop offset=".01" stop-color="#fcf84a"/><stop offset=".11" stop-color="#a7eb62"/><stop offset=".21" stop-color="#5fe077"/><stop offset=".27" stop-color="#32da84"/><stop offset=".31" stop-color="#21d789"/><stop offset=".58" stop-color="#21d789"/><stop offset=".6" stop-color="#21d789"/><stop offset=".69" stop-color="#20d68c"/><stop offset=".76" stop-color="#1ed497"/><stop offset=".83" stop-color="#19d1a9"/><stop offset=".9" stop-color="#13ccc2"/><stop offset=".97" stop-color="#0bc6e1"/><stop offset="1" stop-color="#07c3f2"/></linearGradient><linearGradient id="c" x1="30.701439%" x2="77.751799%" y1="115.958904%" y2="22.248858%"><stop offset="0" stop-color="#21d789"/><stop offset=".16" stop-color="#24d788"/><stop offset=".3" stop-color="#2fd886"/><stop offset=".44" stop-color="#41da82"/><stop offset=".56" stop-color="#5adc7d"/><stop offset=".69" stop-color="#7ae077"/><stop offset=".81" stop-color="#a1e36e"/><stop offset=".93" stop-color="#cfe865"/><stop offset="1" stop-color="#f1eb5e"/></linearGradient><linearGradient id="d" x1="-9.662162%" x2="118.558559%" y1="201.742857%" y2="-16.942857%"><stop offset="0" stop-color="#21d789"/><stop offset=".06" stop-color="#24d788"/><stop offset=".11" stop-color="#2fd886"/><stop offset=".16" stop-color="#41da82"/><stop offset=".21" stop-color="#5add7d"/><stop offset=".25" stop-color="#79e077"/><stop offset=".26" stop-color="#7ce076"/><stop offset=".5" stop-color="#8ce173"/><stop offset=".92" stop-color="#b2e56b"/></linearGradient><linearGradient id="e" x1="111.835165%" x2="-14.21978%" y1="50.480167%" y2="49.363257%"><stop offset=".39" stop-color="#fcf84a"/><stop offset=".54" stop-color="#ecf451"/><stop offset=".83" stop-color="#c2e964"/><stop offset=".92" stop-color="#b2e56b"/></linearGradient><path d="m179.6 40.4 74.8 62-27.2 54.8-44.8-12.4h-39.2z" fill="url(#a)"/><path d="m104 80.8-14.4 76.4-1.2 26.4-36.8 15.6-51.6 5.6 15.6-165.6 94-39.2 57.6 38z" fill="url(#b)"/><path d="m104 80.8 7.2 147.6-23.6 27.6-87.6-51.2 72-107.6z" fill="url(#c)"/><path d="m200.8 70h-88.8l78.4-70z" fill="url(#d)"/><path d="m256 228.8-78 26.8-104-29.2 30-145.6 12-10.8 63.6-6-6 63.6 50.4-19.6z" fill="url(#e)"/><path d="m48 48h160v160h-160z"/><path d="m63.2 178h60v10h-60zm-.4-109.2h27.2c16 0 25.2 9.2 25.2 22.8 0 15.2-12 23.2-26.8 23.2h-11.2v20h-14.4zm37.6 23.6c0-6.4-4.4-10-12-10h-11.2v20.4h11.6c7.86 0 11.6-4.8 11.6-10.4zm20.4 10c-.204238-9.1845367 3.354413-18.0534798 9.850467-24.5495335 6.496053-6.4960537 15.364996-10.0547049 24.549533-9.8504665 12.4 0 20 4 26 10.4l-9.2 10.8c-5.2-4.8-10.4-7.6-16.8-7.6-11.2 0-19.2 9.2-19.2 20.8 0 11.2 8 20.8 19.2 20.8 7.6 0 12.4-3.2 17.6-7.6l9.2 9.2c-6.8 7.2-14.4 12-27.2 12-9.087095.000629-17.796303-3.63636-24.184164-10.099372-6.387861-6.463013-9.922743-15.214162-9.815836-24.300628z" fill="#fff"/></svg>