<svg height="295" preserveAspectRatio="xMidYMid" viewBox="0 0 256 295" width="256" xmlns="http://www.w3.org/2000/svg"><path d="m49.0679795 101.515932c.0362442 30.473086.0790781 60.946173.0378916 91.417612 26.3560817 15.225835 52.6923929 30.484619 79.0221159 45.758231 26.328075-15.224188 52.65615-30.448375 78.984224-45.672563-.036244-30.473087-.079078-60.946174-.037891-91.41926-26.357729-15.2225402-52.692394-30.4846192-79.022116-45.756583-26.328075 15.2241873-52.6561497 30.4483748-78.9842245 45.672563" fill="#b7a634"/><path d="m128.412998 78.985254-.046129-.0247118-.308075-.1729834c-19.734936 11.4300847-39.4912887 22.8239252-59.2542313 34.2045862-.0049424 22.838752-.0082374 45.679152-.0115322 68.517905 19.7876545 11.39384 39.5703675 22.799212 59.3316615 34.237535 5.034641-2.967078 54.194879-31.296818 59.255878-34.204587.00659-22.838752.014828-45.679152.021418-68.517904-19.682218-11.311467-39.349607-22.659179-58.98899-34.03984" fill="#f9df34"/><g fill="#524739"><path d="m92.5873102 126.980737 1.6524034 2.863287-3.1334708 1.808912 4.4547346 7.713413c.4168076.724882.8154932 1.136747 1.1960567 1.23889.3805634.102143.9324629-.056014 1.6556983-.474468.2405293-.138388.464584-.281717.675459-.429988.2092276-.146624.4019806-.299838.5799063-.454699l1.9143493 3.314691c-.327844.268537-.70676.540368-1.136748.815494-.429987.275125-.8566794.535424-1.2784295.777601-.6622793.383859-1.3163213.700171-1.9604786.952233-.6458046.252061-1.2685449.377268-1.8715157.377268-.6029707 0-1.1746397-.166394-1.7133595-.497533-.5403672-.33114-1.036253-.887982-1.4876573-1.672173l-5.306472-9.191185-2.5914561 1.497542-1.654051-2.863287 2.5931037-1.495894-2.6968937-4.670553 4.2784563-2.471192 2.6968938 4.670553z"/><path d="m95.1870037 117.565496 4.6787894 8.105509.0906103-.052719c.0214171-1.215826.3344346-2.275144.9406996-3.17301.606267-.899514 1.309732-1.581562 2.113693-2.044498 1.144986-.66228 2.173001-1.047786 3.087342-1.159814.912694-.112027 1.739719-.013179 2.481077.294896.741356.309723 1.425053.810551 2.054383 1.50578.627683.695228 1.220769 1.525548 1.777611 2.489313l5.532174 9.581633-4.278456 2.471192-5.079123-8.799089c-.743005-1.28502-1.497541-2.12852-2.265258-2.528853-.767717-.401981-1.662289-.306428-2.687009.285011-1.164755.672163-1.808913 1.505779-1.930825 2.500846-.121912.995066.275126 2.285028 1.191114 3.87318l4.715034 8.166464-4.280104 2.469545-12.421856-21.515841z"/><path d="m122.114755 125.723723c1.001655.252062 2.105454.029655 3.311396-.667221.86327-.497534 1.482715-1.143338 1.855041-1.935767.373974-.790781.492591-1.467888.354205-2.031319l3.766095-2.174649c.476117 2.215835.32455 4.085704-.457994 5.607958-.780896 1.523901-2.056031 2.794093-3.823758 3.815519-1.22571.706761-2.444832 1.149928-3.654067 1.326207-1.210884.176277-2.365754.100494-3.466258-.228998-1.100504-.327844-2.126872-.887981-3.079105-1.677115-.950585-.790781-1.774316-1.787495-2.471192-2.993437-.672164-1.164755-1.107094-2.359164-1.306436-3.584875-.197696-1.224063-.156509-2.406941.123559-3.545336.278421-1.140043.784192-2.201008 1.515664-3.18619.729826-.983533 1.687001-1.818796 2.873172-2.502493 1.326207-.766069 2.629348-1.176287 3.909425-1.232301 1.280078-.056013 2.486019.164746 3.616177.663927 1.133454.497533 2.158174 1.219121 3.077457 2.161469.919284.942347 1.685353 2.039556 2.301504 3.28998l-11.23898 6.489349c.859975 1.352565 1.790791 2.153231 2.794095 2.405292zm.103789-10.988565c-.83691-.266888-1.77761-.098847-2.822101.504123-.683695.393744-1.184524.838558-1.502484 1.329502-.31796.492591-.515655.986829-.589791 1.484362-.072488.499181-.056013.970355.054367 1.416817.110379.444814.242176.82373.39539 1.136748l6.960523-4.018158c-.827026-.968707-1.658994-1.586504-2.495904-1.853394z"/><path d="m130.554697 105.05962 1.25207 2.171354.090611-.052719c.021417-1.217474.344319-2.281734.970355-3.19278.626035-.909398 1.390457-1.626043 2.294913-2.148288 1.144985-.660633 2.174649-1.047786 3.087342-1.159813.912693-.112028 1.739719-.01318 2.481076.296542.741358.308076 1.425054.810552 2.054384 1.50578.627683.695228 1.220768 1.523901 1.77761 2.487666l5.532175 9.58328-4.278457 2.469545-5.079123-8.797442c-.743004-1.286667-1.497541-2.130167-2.265258-2.5305-.76607-.400333-1.662289-.306428-2.687009.285011-1.164755.673812-1.808912 1.507427-1.930825 2.500846-.121912.995066.275127 2.286676 1.191115 3.87318l4.715033 8.166464-4.280103 2.471193-8.99349-15.58004z"/></g><path d="m189.056038 109.455046c-19.725051-11.352654-39.380908-22.7102504-58.42391-33.7614191-.019769-.0098847-.08402-.0477763-.10379-.0576611l-.30478-.1713359c-1.367393-.7677169-3.034623-.7545372-4.390485.0329492-19.545477 11.3361794-39.114019 22.6394095-58.6891511 33.9261659-1.3723349.79078-2.2174825 2.253726-2.2174825 3.838583l-.0115322 67.97589c0 1.58321.8467949 3.047803 2.2174825 3.838584 19.599844 11.303231 39.1947453 22.616345 58.7682303 33.96241.686991.400333 1.454708.598028 2.222425.598028.779249 0 1.558498-.204285 2.253726-.614503 2.916007-1.721596 5.848487-3.415187 8.782615-5.107129 2.075801-1.196057 4.151602-2.393761 6.222461-3.60135 2.107103-1.230653 27.619684-15.940833 28.634519-16.532271 5.001692-2.892942 10.005032-5.785883 15.014961-8.667293 1.373982-.792429 2.222425-2.255374 2.222425-3.840232l.023064-67.977537c0-1.586505-.846795-3.051098-2.220778-3.841879zm-6.663979 69.254319c-2.99179 1.723245-52.079539 30.079344-54.283841 31.366011-18.09736-10.487737-36.2111939-20.947467-54.3299704-31.397312l.0098847-62.853934c18.1023019-10.43996 36.1980137-20.891453 54.2739567-31.3742476 17.748097 10.2949839 36.011851 20.8486186 54.351387 31.4088446z" fill="#524839"/><path d="m4.89460674 76.0445362c.05766114 47.4369928.12520704 94.8756338.05930859 142.3142738 41.08932567 23.700375 82.14734957 47.455116 123.19548967 71.229626 41.044843-23.698727 82.089687-47.399102 123.136179-71.097829-.057661-47.43864-.125207-94.875633-.059308-142.314274-41.090973-23.6970795-82.147349-47.4567626-123.195489-71.2296253-41.0448444 23.698727-82.0896886 47.3991014-123.13618026 71.0978285zm123.62218126-19.7514104c26.166623 15.1615839 52.371138 30.2803339 78.595423 45.3513082l-.029654 91.290757c-6.743058 3.871534-13.476231 7.761189-20.207756 11.650845-13.499297-23.352761-26.98047-46.717052-40.461644-70.081345-12.843606 7.40369-25.687212 14.80738-38.530819 22.21107 13.479527 23.364292 26.962348 46.728584 40.459996 70.082993-6.726583 3.919309-13.500943 7.756245-20.207757 11.708505-26.329723-15.240662-52.6858039-30.435196-79.0517704-45.616549l.0148272-91.290758c26.3330172-15.1615842 52.6545022-30.3429376 78.9479802-45.5720675l.411865.2306446z" fill="#f9df34"/><path d="m128.149405 294.16014c-.79243 0-1.583211-.205932-2.291619-.616151-49.7071946-28.791029-87.6992935-50.756627-123.18889912-71.224682-1.41681649-.818789-2.28997084-2.331157-2.28667592-3.968734.06095606-43.985563.00658984-88.712482-.04612891-131.9665714l-.01317969-10.334523c-.00164746-1.6342814.86985943-3.1466506 2.28667593-3.9637913l123.13617971-71.09947594c1.416817-.81549321 3.15983-.81549321 4.576647.00329493 36.599995 21.19788111 79.857379 46.23599391 123.1889 71.22797781 1.416816.8171407 2.28997 2.32951 2.288322 3.9654387-.062603 43.7433852-.008237 88.2198902.042835 131.2334512l.014827 11.069291c.001647 1.635929-.871507 3.148298-2.286676 3.965439l-123.13618 71.09618c-.706761.408571-1.495895.612856-2.285028.612856zm-118.62049037-78.440562c34.29354897 19.782712 71.08959107 41.058024 118.62378437 68.587098l118.556239-68.452007-.009885-8.426763c-.049424-42.151938-.102143-85.710808-.047776-128.6123404-41.669233-24.0348091-83.163833-48.0514961-118.623785-68.5887453l-118.55788597 68.4553009.00988477 7.6919956c.05107129 42.3924672.10543751 86.2001042.04942383 129.3454612zm118.60566237 27.359385c-.790781 0-1.581562-.205932-2.289971-.616151-26.3264272-15.239014-52.6808614-30.430252-79.0435329-45.608311-1.4168164-.81714-2.2899708-2.327862-2.2899708-3.963791l.0148271-91.292406c0-1.634281.8748018-3.1450029 2.2899708-3.960496 30.845413-17.7579825 55.9280068-32.2375176 78.9380958-45.5671248 1.403637-.8105509 3.126881-.8187882 4.537108-.0263595l.410217.2322921c.016474.0082373.092258.0510713.107085.060956 25.509287 14.779373 51.947741 30.0348622 78.582244 45.3430701 1.418464.8154932 2.293266 2.3278621 2.293266 3.9654391l-.028007 91.290758c-.001648 1.635929-.878096 3.148298-2.296561 3.962144-6.739762 3.871533-13.469641 7.757894-20.197872 11.644254-2.187828 1.266898-4.981922.515655-6.245525-1.668878-12.736521-22.036439-25.458215-44.079467-38.179909-66.127438l-30.608179 17.645955c12.716752 22.043029 25.438446 44.08441 38.171672 66.117554 1.261956 2.179591.520598 4.968742-1.655698 6.237287-2.794094 1.627691-5.596425 3.242203-8.398756 4.856716-3.939079 2.266906-7.876512 4.533812-11.789232 6.840258-.714998.42175-1.518958.634272-2.321272.634272zm-74.480066-52.83078c24.8354751 14.301609 49.659418 28.613103 74.463591 42.96743 3.179601-1.858336 6.372379-3.696902 9.563512-5.535468 1.47283-.848443 2.94566-1.696885 4.418491-2.546975-12.736523-22.038086-25.458217-44.08441-38.178263-66.132381-.606266-1.05108-.769365-2.298208-.454699-3.469553.314665-1.171345 1.080734-2.169706 2.131815-2.775972l38.530818-22.21107c2.186181-1.261954 4.981923-.510713 6.24223 1.675468 12.720046 22.044677 25.440093 44.086058 38.17332 66.12085 4.654077-2.68701 9.308154-5.374019 13.967174-8.052791l.026359-85.999113c-25.232512-14.5058943-50.268978-28.9524801-74.486655-42.9822583-21.818974 12.6360262-45.5852469 26.3544342-74.3828658 42.9361293z" fill="#524839"/></svg>