<svg height="256" preserveAspectRatio="xMidYMid" viewBox="0 0 256 256" width="256" xmlns="http://www.w3.org/2000/svg"><path d="m128 0c-70.692 0-128 57.308-128 128 0 70.693 57.308 128 128 128s128-57.307 128-128c0-70.692-57.308-128-128-128zm38.486 199.647c-11.436 6.072-24.475 9.525-38.326 9.525-45.21 0-81.859-36.65-81.859-81.859 0-45.21 36.649-81.859 81.859-81.859s81.859 36.649 81.859 81.859c0 15.6-4.367 30.179-11.94 42.586l19.386 49.643zm-39.3441-109.228c-19.884 0-36.003 16.119-36.003 36.003 0 19.883 16.119 36.002 36.003 36.002s36.003-16.119 36.003-36.002c0-19.884-16.119-36.003-36.003-36.003z" fill="#5656a9"/></svg>