<svg height="309" preserveAspectRatio="xMidYMid" viewBox="0 0 256 309" width="256" xmlns="http://www.w3.org/2000/svg"><path d="m63.255 1.229c-3.142-.528-6.226-.646-9.206-.411h-.015s-20.38 1.381-21.305 1.454c-18.604 1.483-32.729 16.783-32.729 37.912v249.113l20.835 19.426 209.382-35.195c14.404-2.496 25.783-19.485 25.783-37.839v-202.862z" fill="#0c481e"/><path d="m256 235.689c0 18.354-11.379 35.343-25.783 37.853l-209.382 35.181v-269.861c0-24.55 19.588-41.406 42.42-37.633l192.745 31.598z" fill="#66b036"/><path d="m216.546 200.479c-.234.015-.484.015-.719.015-2.452 0-4.273-.764-5.447-2.335-1.322-1.718-1.968-5.521-1.968-11.438v-68.027l19.029.881v-18.618l-19.029-1.351v-29.674l-16.915-1.821-7.004 29.821-11.144-.807v19.954l9.147.411v75.413c0 9.867 1.997 17.062 6.006 21.54 3.436 3.861 8.457 5.77 15.035 5.77.984 0 2.012-.044 3.054-.117 7.268-.617 14.669-2.599 22.216-5.903v-17.105c-4.434 2.026-8.516 3.171-12.261 3.391" fill="#fff"/><path d="m118.434 58.083c-2.54-.294-5.022-.441-7.4-.441-14.918 0-26.782 5.829-35.269 17.664-10.073 14.052-15.197 36.194-15.197 66.191 0 27.81 3.744 49.086 11.086 63.637 7.238 14.301 17.707 22.832 31.113 25.695 2.922 14.155 7.474 23.728 13.655 28.676 4.67 3.759 10.866 5.624 18.53 5.624 2.32 0 4.773-.176 7.342-.499l8.751-1.16v-19.264c-1.336.146-2.613.22-3.803.22-4.096 0-7.15-.881-9.133-2.673-2.554-2.305-4.478-6.71-5.755-13.244 12.612-4.316 21.833-13.64 27.883-27.898 5.932-14.051 8.868-33.081 8.868-57.293 0-26.415-3.979-46.545-12.113-60.583-8.282-14.345-21.012-22.626-38.558-24.652zm15.403 137.022c-3.48 8.972-8.605 13.67-15.403 14.111-.308.014-.602.029-.91.029-6.799 0-11.967-4.86-15.418-14.654-3.67-10.278-5.491-27.81-5.491-52.492 0-25.548 1.865-42.434 5.565-50.568 3.421-7.474 8.325-11.204 14.698-11.204.514 0 1.027.03 1.556.074 6.886.602 12.011 5.388 15.447 14.242 3.421 8.796 5.109 24.844 5.109 48.176 0 25.989-1.703 43.418-5.153 52.286z" fill="#fff"/><g fill="#0c481e"><path d="m227.441 119.575-19.029-.881v.412l10.19.469z"/><path d="m219.968 197.088c-2.673 1.218-5.184 2.143-7.592 2.716.97.47 2.1.69 3.451.69.235 0 .485 0 .719-.015 3.745-.22 7.827-1.365 12.261-3.391z"/><path d="m191.497 68.111h-8.824l-6.857 29.19 8.677.631z"/><path d="m188.502 214.443c-4.009-4.478-6.006-11.673-6.006-21.54v-75.413l-9.147-.411v-19.954h-8.825v4.463c1.278 4.802 2.276 10.014 3.025 15.623l6.123.279v75.413c0 9.867 1.997 17.062 6.005 21.54 3.436 3.861 8.458 5.77 15.036 5.77h8.824c-6.578 0-11.599-1.909-15.035-5.77"/><path d="m147.242 244.426c1.19 0 2.452-.074 3.803-.22h-7.092c.984.146 2.129.22 3.289.22"/><path d="m121.15 262.427c-.161-.073-.337-.146-.499-.235-.015 0-.029-.014-.044-.014-.161-.074-.308-.162-.455-.235-.03-.015-.059-.03-.088-.044-.132-.074-.265-.147-.411-.22-.044-.03-.074-.045-.118-.074-.117-.059-.249-.132-.367-.206-.059-.029-.103-.058-.161-.102-.103-.059-.206-.118-.309-.177-.073-.044-.147-.088-.205-.132-.088-.058-.177-.117-.265-.176-.088-.044-.161-.103-.249-.161-.074-.044-.147-.089-.221-.147-.088-.059-.19-.132-.278-.191-.059-.044-.118-.088-.177-.132-.102-.074-.22-.162-.323-.25-.044-.015-.088-.044-.117-.073-.147-.118-.294-.235-.441-.353-6.181-4.948-10.733-14.521-13.655-28.676-13.406-2.863-23.875-11.394-31.113-25.695-7.342-14.551-11.086-35.827-11.086-63.637 0-29.997 5.124-52.139 15.197-66.191 8.487-11.835 20.351-17.664 35.269-17.664.044 0-9.324-.015-9.324-.015v.015c-14.903 0-26.753 5.829-35.24 17.664-10.072 14.052-15.197 36.194-15.197 66.191 0 27.81 3.745 49.086 11.086 63.637 7.254 14.301 17.708 22.832 31.128 25.695 2.908 14.155 7.474 23.728 13.641 28.676 4.669 3.759 10.865 5.624 18.53 5.624h.441 8.134c-5.007-.088-9.368-.969-13.068-2.687-.015 0-.015 0-.015-.015"/><path d="m118.434 80.401c-.529-.044-1.042-.074-1.556-.074-1.601 0-3.113.235-4.523.72 5.286 1.63 9.353 6.181 12.231 13.596 3.436 8.796 5.125 24.844 5.125 48.176 0 25.989-1.704 43.418-5.169 52.286-2.775 7.166-6.637 11.615-11.541 13.332 1.424.529 2.937.808 4.523.808.308 0 .602-.015.91-.029 6.798-.441 11.923-5.139 15.403-14.111 3.45-8.868 5.153-26.297 5.153-52.286 0-23.332-1.688-39.38-5.109-48.176-3.436-8.854-8.561-13.64-15.447-14.242"/></g></svg>