<svg height="142" preserveAspectRatio="xMidYMid" viewBox="0 0 512 142" width="512" xmlns="http://www.w3.org/2000/svg"><path d="m72.89856 110.49984c-4.91008-9.664-10.67008-19.42528-21.90592-19.42528-2.14784 0-4.29312.35584-6.26176 1.2544l-3.81696-7.63904c4.65152-3.99104 12.16768-7.1552 21.82912-7.1552 15.02976 0 22.74304 7.23968 28.86656 16.48128 3.6352-7.88992 5.3632-18.54464 5.3632-31.75168 0-32.98048-10.31424-49.91488-34.4064-49.91488-23.74144 0-33.99936 16.9344-33.99936 49.91488 0 32.8064 10.25792 49.56672 33.99936 49.56672 3.77344 0 7.19104-.41472 10.33216-1.3312zm5.88544 11.50976c-5.20448 1.3952-10.73408 2.16576-16.2176 2.16576-31.61344 0-62.5664-25.22624-62.5664-61.91104 0-37.03296 30.95296-62.26432 62.5664-62.26432 32.14336 0 62.79936 25.0496 62.79936 62.26432 0 20.70016-9.65888 37.52192-23.69792 48.39424 4.53632 6.7968 9.20576 11.31008 15.70816 11.31008 7.09632 0 9.9584-5.48352 10.43712-9.78432h9.2416c.54016 5.72672-2.32448 29.52704-28.15232 29.52704-15.64416 0-23.91552-9.06752-30.1184-19.70176zm66.9056-31.47008v-42.40896c0-4.83072-1.78432-6.976-7.33184-6.976h-5.90592v-11.26912h38.58688v60.11904c0 10.13504 5.48608 14.6048 13.83936 14.6048 6.85568 0 13.71392-3.0336 17.41312-9.9584v-46.52032c0-4.83072-1.78944-6.976-7.3344-6.976h-6.26176v-11.26912h38.94784v62.97344c0 6.272 2.32448 9.13152 9.47968 9.13152h1.2544v11.63008l-34.83136 5.54496v-11.98592h-.7168c-6.73792 8.22528-16.22016 13.77536-29.76 13.77536-15.20896 0-27.3792-7.69024-27.3792-30.41536zm143.3472 19.14624c13.71904 0 18.9312-11.93472 19.20512-35.96544.26624-23.50592-5.48608-34.88512-19.20512-34.88512-11.98592 0-19.50208 11.38432-19.50208 34.88512 0 24.03584 7.39328 35.96544 19.50208 35.96544zm0 11.26912c-24.80896 0-47.1808-18.9696-47.1808-47.23456 0-27.73504 21.83168-46.16448 47.1808-46.16448 26.42176 0 47.59552 18.78272 47.59552 46.16448 0 28.26496-21.17376 47.23456-47.59552 47.23456zm48.39424-1.78944v-11.27168h3.75808c9.3056 0 10.19904-2.68288 10.19904-10.73408v-49.02912c0-4.83072-2.50368-6.976-8.22784-6.976h-5.00992v-11.26912h35.36384l1.78944 18.42944h.71936c3.93728-13.24544 14.49216-20.224 24.38912-20.224 8.17152 0 14.55104 4.65408 14.55104 14.08 0 6.55872-3.15392 13.53984-11.98336 13.53984-7.936 0-9.48224-5.37088-16.04608-5.37088-5.84192 0-10.37824 5.55008-10.37824 13.71648v33.10336c0 8.0512 1.9712 10.73408 11.0976 10.73408h5.18656v11.27168zm117.72928-13.12c11.27424 0 15.9232-10.6752 15.9232-21.40416v-14.32064c-8.22784 8.5248-27.37664 8.82432-27.37664 24.03328 0 7.45472 4.41856 11.69152 11.45344 11.69152zm16.46336-.06144c-4.65408 8.94464-14.20032 14.97088-27.55584 14.97088-15.50592 0-25.52576-8.23552-25.52576-22.72512 0-29.1584 40.6144-21.40928 52.54144-40.7296v-2.09152c0-14.848-5.84448-17.17248-12.28544-17.17248-18.07104 0-9.8432 19.43296-26.4832 19.43296-7.98976 0-11.09248-4.82304-11.09248-10.25024 0-10.97472 13.12256-19.86304 37.75744-19.86304 23.31392 0 37.632 6.44352 37.632 29.6448v37.03552c0 5.72416 2.08896 8.82944 7.09888 8.82944 2.14528 0 3.93472-.59648 5.30432-1.55136l2.98496 7.2704c-2.44736 3.76064-8.94976 10.3808-21.29664 10.3808-10.73152 0-17.472-5.00992-18.368-13.18144z" fill="#b92b27"/></svg>