<svg height="306" preserveAspectRatio="xMidYMid" viewBox="0 0 256 306" width="256" xmlns="http://www.w3.org/2000/svg"><path d="m21.9714394 25.1152108c13.8926927-15.0939406 33.8177388-24.7430946 54.4348081-25.05646361 15.7729067-.62673801 31.7155555 3.77348514 44.8117685 12.61310261 16.934983 11.0854286 29.300002 28.8168917 34.11805 48.4416258 1.031507 3.7473711.744252 8.3434498 3.982398 11.0723716 6.149867 1.4754458 12.573932.4047683 18.789084 1.540731 15.851249 3.7995992 30.40985 12.6522737 41.168853 24.886722 2.585294 2.8203208 4.648307 6.0845818 6.123753 9.6099828 8.108423 16.699957 9.388013 35.515154 12.75673 53.507758 3.120633 24.116357 7.377229 48.062972 11.359626 72.048758 3.629858 22.196971 7.377229 44.642027 6.293495 67.204595-5.013905-1.867157-9.348842-5.705927-11.085429-10.837345-2.493895-8.134537-3.277318-16.647728-4.308824-25.056463-.391711-3.551516-3.342603-6.959404-7.155259-6.567692-5.536186-.0914-7.951739 6.907175-6.280437 11.38574 2.833378 6.672149 7.977853 11.947194 12.769787 17.235296 2.624465 2.794207 3.629858 6.606863 5.718984 9.75361 2.702808 3.238146 6.593807 5.079189 10.406463 6.685206-1.357933.809536-2.467781 2.350267-4.243539 2.11524-5.758155.274198-11.516311-.039171-17.274466.052229-7.076917-.078343-14.232176.796479-21.230751-.678967-9.792781-24.325269-21.034894-48.036857-31.728612-71.983472-5.248931-12.025536-10.602318-24.0119-16.073218-35.93298-6.149867-13.226783-11.424912-26.845278-17.953433-39.889263-.966221-4.569965-3.655972-8.447906-5.418673-12.704502-2.702807-6.672148-5.718984-13.239841-9.166043-19.559449-17.117782 31.963639-33.5043699 64.305932-50.0737562 96.543769-13.9318639 27.746214-29.1172037 54.891804-41.9000478 83.212528-12.9917568-.091399-25.9704566-.391711-38.96221336-.48311 33.67411136-63.404996 66.36894446-127.319217 99.48160336-191.024525 2.898663-5.679813 6.04541-11.25517 8.291221-17.2352951-6.39795 1.8540999-12.221391 5.4186721-18.8674254 6.4893501-13.7360081 2.794207-27.7592713-.130571-40.6204576-5.1183607 16.2168461-14.8850279 39.3408675-20.4734419 60.898044-19.4027644-1.814929-5.8103837-4.426337-11.3987977-8.199823-16.2037892 4.478566-8.1345371 11.672996-14.0624342 18.658514-19.9381031-10.119208-1.1881908-18.802141 5.6145281-25.0042359 12.8611864-3.8518274-2.6375225-7.9256245-4.9225049-12.1430491-6.8941182.6920232-7.3641717 3.9301697-14.0102061 7.3511147-20.4342707-8.1867654 1.9324422-13.030928 9.8319526-15.3942526 17.3528088-5.1314175-.7703655-10.3281202-.8487077-15.5117659-.5353387-.9009359-5.8103837-.940107-11.6991097-.4047683-17.5486645-6.4371217 3.8909985-6.241266 12.3780758-6.2934942 18.9849391-4.8311055 1.7627007-9.4402414 4.06074-13.8535216 6.6852055-2.6114084-4.0085119-4.5307935-8.382621-6.4632358-12.743673-3.1989752 5.6275851-.7703654 12.2475054 1.5146169 17.7445201-2.6375225 3.8257133-5.0139041 7.8211681-7.155259 11.9471934-3.420945-1.7235295-6.7374337-3.6298577-10.0930935-5.4839576.92705 4.8049914 4.0607401 8.6568188 8.1084231 11.2290561-1.1229056 5.0269612-1.5929591 10.1453216-1.6321302 15.2767391-3.420945.313369-6.8549471.5222817-10.2889491.8487078 2.807264 3.0161767 6.854947 3.7212569 10.7590026 4.047683 1.0053922 4.1129682 2.2196971 8.1867658 3.7081999 12.1561058-2.1282978 2.07607-4.2696527 4.126026-6.3065513 6.293495 2.9117204-.430883 5.7581555-1.135963 8.5523625-2.023842 3.6037436 3.381774 8.0300809 5.614528 12.2736195 8.069252-.2089127.992335-.639795 2.977006-.8487077 3.969341 1.4232176-.92705 2.8333781-1.8541 4.2565957-2.78115 8.0170238 2.311096 16.7521849 3.447059 24.8083798.652852 4.9486189-1.553788 8.9571308-5.092246 13.8404645-6.776605-1.8279859 8.513191-8.9701879 14.937256-16.5563293 18.580171-11.0854286 5.248931-23.9857861 3.786542-35.149557-.404768-7.6383696-2.206641-13.7882364-7.651427-18.8674257-13.55321-8.14759423-9.244386-13.56626667-20.9957236-14.53248777-33.3215712-1.46238871-22.1578003 6.80271888-44.6420266 21.80526017-60.924158zm162.6776866 121.0779502c-.79648 4.139083-.639795 8.539306.731194 12.534761 3.629858 10.027808 14.219119 14.689172 23.032622 19.233022-.652852-2.219697-1.292647-4.439394-1.919385-6.659091-11.411855-1.162077-17.862034-17.457265-8.931017-25.38289-1.096791-2.55918-2.20664-5.11836-3.303431-7.690597-3.695143 1.8541-8.34345 3.603743-9.609983 7.964795zm14.832799 6.93329c-.92705 4.648307-.013057 10.354234 5.157532 11.999421-1.240419-4.152139-2.154412-8.682933-5.157532-11.999421z" fill="#11100e"/></svg>