<svg height="120" preserveAspectRatio="xMidYMid" viewBox="0 0 256 120" width="256" xmlns="http://www.w3.org/2000/svg"><path d="m255.867703 26.3199996-2.775132-16.61846134c-.891126-5.335385-2.972476-9.70153826-4.628305-9.70153826-1.655828 0-3.009477 4.42461499-3.009477 9.83384537v4.34461613c0 5.4092304-4.434044 9.8338454-9.854804 9.8338454h-4.350791c-.317598 0-.629029.0123085-.937378.0307696v11.9476925c.308349.0153845.61978.0276921.937378.0276921h16.382533c5.420759 0 9.127103-4.3630765 8.235976-9.6984615zm-39.277375-14.0676923h-26.567269c-.22201 0-.437855.0184611-.653698.0338463h-27.273385c-.320682 0-.632114.0307689-.940462.0799997v-2.53230793c0-5.40923038-1.353648-9.83384537-3.006393-9.83384537-1.655829 0-3.737179 4.36615326-4.628305 9.70153826l-2.775132 16.61846134c-.891127 5.3323075 2.815217 9.6984615 8.232893 9.6984615h16.385616c1.686663 0 3.280823-.2615382 4.671472-.7230771-.521108 2.7876927-2.966308 4.8984616-5.907948 4.8984616h-22.978098c-3.718677 0-6.546228-3.3323079-5.9357-6.9907693l2.328028-13.9261534c.610529-3.6615389-2.217022-6.9907693-5.932616-6.9907693h-114.3508775c-2.4359501 0-4.5296336 1.4461535-5.4762615 3.5261535l-21.5350284 32.6892308c-.36693439.5538461-.32068198 1.28.10792123 1.7876929l4.17811639 4.9230769c.52419209.6153846 1.43998562.7076919 2.07209895.20923l14.63728253-11.5261535v69.9415388c0 3.313846 2.6918783 6.003076 6.0158708 6.003076h32.4628836c3.3239916 0 6.01587-2.68923 6.01587-6.003076v-24.3230776c0-3.3169227 2.6949624-6.0030764 6.0158708-6.0030764h81.0431201c3.320909 0 6.015871 2.6861537 6.015871 6.0030764v24.3230776c0 3.313846 2.691878 6.003076 6.01587 6.003076h32.462884c3.320908 0 6.01587-2.68923 6.01587-6.003076v-26.1753849h-17.242823c-5.417675 0-9.851721-4.4276925-9.851721-9.8338462v-16.8338463c0-3.2030768 1.560242-6.0523071 3.956106-7.8492302v20.0892306c0 5.4092303 4.434045 9.8338461 9.854804 9.8338461h26.567269c5.420759 0 9.854804-4.4246158 9.854804-9.8338461v-51.1476925c0-5.4092312-4.434045-9.8338462-9.854804-9.8338462z" fill="#585858"/></svg>