<svg height="258" preserveAspectRatio="xMidYMid" viewBox="0 0 256 258" width="256" xmlns="http://www.w3.org/2000/svg"><path d="m76.188 140.056 7.168 5.599-5.321 6.81-7.171-5.605-5.605 7.172-6.815-5.326 5.605-7.172-7.169-5.599 5.327-6.814 7.173 5.604 5.603-7.172 6.81 5.33z" fill="#100c72"/><path d="m147.117 110.789 13.048 3.157-7.653 31.624-13.048-3.157z" fill="#26efc4"/><path d="m89.331 40.203 13.401.776-1.88 32.48-13.401-.776z" fill="#5740b2"/><path d="m105.754 120.128 30.28 9.117-6.953 23.092-30.28-9.117z" fill="#c7f9fc"/><path d="m7.776 113.571 14.81 27.38-14.636-.28-7.95-14.694z" fill="#016a91"/><path d="m112.412 91.348 21.159 22.834-14.246 3.37-11.356-12.254z" fill="#f1fcab"/><path d="m135.77 101.409-11.545-11.046 7.149-16.244 11.544 11.046z" fill="#8218bf"/><path d="m36.399 55.966-3.403-12.604 9.215-9.25 12.619 3.357 3.402 12.605-9.216 9.249z" fill="#f9c27f"/><path d="m6.982 107.34 6.131-21.768 15.785 16.193z" fill="#5ac425"/><path d="m149.811 2.674-15.048 13.069-13.001-15.106z" fill="#7b4ab2"/><path d="m75.692 97.748 11.429-19.968 19.917 11.518z" fill="#69d637"/><path d="m96.015 5.249 1.813 4.731-30.685 11.761-1.813-4.732z" fill="#f8cc7e"/><path d="m210.09 29.881-2.724 4.272-27.704-17.672 2.725-4.272z" fill="#dd7a96"/><path d="m43.554 84.745 7.547 1.7-10.251 45.492-7.546-1.7z" fill="#6b14b2"/><path d="m24.317 146.037c-10.236 0-18.533 8.297-18.533 18.535 0 10.236 8.298 18.535 18.533 18.535 10.239 0 18.536-8.299 18.536-18.535h-18.536z" fill="#43c648"/><path d="m28.495 108.361c2.948 1.297 3.776 5.899 1.849 10.279s-5.879 6.879-8.827 5.582c-2.949-1.297-3.777-5.9-1.85-10.279 1.927-4.38 5.879-6.879 8.828-5.582" fill="#4bcaf4"/><path d="m97.53 99.269c4.99 2.295 6.272 10.164 2.863 17.576s-10.217 11.561-15.207 9.266-6.273-10.164-2.864-17.576 10.217-11.561 15.208-9.266" fill="#116570"/><path d="m108.217 159.401c2.386 5.18.12 11.314-5.06 13.7-5.181 2.385-11.314.12-13.699-5.062-2.386-5.18-.439-25.637-.439-25.637s16.813 11.818 19.198 16.999" fill="#0cd12a"/><path d="m79.882 30.998c4.478 3.531 5.248 10.024 1.719 14.505-3.53 4.479-10.023 5.248-14.504 1.718-4.479-3.53-12.042-22.639-12.042-22.639s20.346 2.886 24.827 6.416" fill="#96e83e"/><path d="m40.837 159.46c-5.986 0-10.856-4.87-10.856-10.855s4.87-10.856 10.856-10.856c5.985 0 10.854 4.871 10.854 10.856s-4.869 10.855-10.854 10.855zm0-16.752c-3.252 0-5.896 2.645-5.896 5.897s2.645 5.896 5.896 5.896 5.895-2.644 5.895-5.896-2.644-5.897-5.895-5.897z" fill="#19218e"/><path d="m26.677 86.321c-7.415 0-13.447-6.033-13.447-13.448s6.032-13.448 13.447-13.448 13.446 6.033 13.446 13.448-6.031 13.448-13.446 13.448zm0-20.752c-4.028 0-7.304 3.276-7.304 7.304s3.276 7.305 7.304 7.305c4.027 0 7.303-3.277 7.303-7.305s-3.276-7.304-7.303-7.304z" fill="#51870c"/><path d="m207.757 175.816 7.977 2.481-6.821 4.824.106 8.353-6.695-4.997-7.912 2.683 2.684-7.911-4.997-6.696 8.354.107 4.823-6.821z" fill="#94e1e8"/><path d="m119.331 17.823c7.043 0 12.752 5.709 12.752 12.752 0 7.042-5.709 12.751-12.752 12.751-7.042 0-12.751-5.709-12.751-12.751 0-7.043 5.709-12.752 12.751-12.752" fill="#8bd1dd"/><path d="m50.831 61.853c4.603 0 8.334 3.731 8.334 8.334 0 4.602-3.731 8.333-8.334 8.333-4.602 0-8.333-3.731-8.333-8.333 0-4.603 3.731-8.334 8.333-8.334" fill="#f202a6"/><path d="m98.225 20.303 1.186 8.796-7.999 3.845-6.129-6.418 4.209-7.813z" fill="#a6e843"/><path d="m230.34 130.5 9.493 9.494-23.009 23.005-9.492-9.494z" fill="#0daf05"/><path d="m210.37 36.85-2.725 11.19-34.976-8.517 2.725-11.19z" fill="#dfed1e"/><path d="m153.459 61.659 9.79 12.81-9.769 7.466-9.79-12.81z" fill="#9533e0"/><path d="m209.751 140.983-11.102-11.493 7.782-15.95 11.1 11.492z" fill="#1362e8"/><path d="m194.719 70.574 3.378-12.611 12.613-3.379 9.231 9.232-3.379 12.612-12.611 3.379z" fill="#1b5db5"/><path d="m115.153 59.201 15.391-16.568 6.652 21.613z" fill="#99b5e5"/><path d="m85.73 176.704-6.882 27.433-27.403-7.003z" fill="#9ff4b7"/><path d="m171.788 81.136 19.93-.043-.045 19.929z" fill="#ed74c4"/><path d="m157.557 146.303 4.134 6.538-42.402 26.809-4.134-6.537z" fill="#199908"/><path d="m192.928 116.841c1.906 5.152-2.752 11.623-10.404 14.454-7.653 2.831-15.401.95-17.307-4.201-1.906-5.152 2.752-11.623 10.404-14.455 7.653-2.831 15.401-.95 17.307 4.202" fill="#ff75c3"/><path d="m198.207 145.569c4.94 2.851 6.636 9.166 3.787 14.107-2.85 4.939-9.165 6.636-14.106 3.786-4.94-2.85-15.172-20.671-15.172-20.671s20.55-.071 25.491 2.778" fill="#21b749"/><path d="m125.166 232.935c-5.243-5.243-5.243-13.774 0-19.016 5.243-5.244 13.775-5.244 19.018-.001 5.244 5.243 5.242 13.774-.001 19.017-5.243 5.244-13.773 5.244-19.017 0zm14.675-14.673c-2.849-2.849-7.482-2.848-10.33 0-2.849 2.849-2.849 7.482 0 10.33 2.848 2.848 7.48 2.848 10.329-.001 2.848-2.848 2.849-7.482.001-10.329z" fill="#eb9e72"/><path d="m43.653 206.129c-.444 4.772-2.792 8.922-6.214 11.763l-5.067-6.106c1.862-1.545 3.137-3.795 3.378-6.392.483-5.183-3.344-9.795-8.532-10.283-2.598-.242-5.044.596-6.906 2.141l-5.066-6.106c3.423-2.84 7.934-4.382 12.707-3.939 9.544.888 16.588 9.378 15.7 18.922" fill="#046c70"/><path d="m167.301 92.908 8.207 5.143-9.075 3.386-2.356 9.395-6.024-7.585-9.664.663 5.354-8.073-3.617-8.986 9.331 2.595 7.428-6.216z" fill="#37e8c7"/><path d="m223.574 47.011c2.718 0 4.921 2.203 4.921 4.921 0 2.717-2.203 4.92-4.921 4.92-2.717 0-4.92-2.203-4.92-4.92 0-2.718 2.203-4.921 4.92-4.921" fill="#c16a3c"/><path d="m115.036 67.269c4.602 0 8.333 3.731 8.333 8.333s-3.731 8.333-8.333 8.333-8.333-3.731-8.333-8.333 3.731-8.333 8.333-8.333" fill="#a1d626"/><path d="m234.661 108.687-2.537 8.506-8.874.214-2.946-8.371 7.051-5.39z" fill="#e868e3"/><path d="m178.293 217.735-1.506-21.243 17.595-1.247 1.505 21.243z" fill="#14db96"/><path d="m173.67 244.252-29.627 9.553 2.953-14.339 15.901-5.127z" fill="#71f902"/><path d="m164.882 44.108-7.762 10.497-12.972-1.475-5.21-11.972 7.764-10.497 12.971 1.474z" fill="#b58e2b"/><path d="m243.76 182.954-5.571 11.809-13.011 1.078-7.44-10.729 5.571-11.807 13.012-1.08z" fill="#ba8712"/><path d="m191.953 55.362-15.633 14.146-4.435-20.61z" fill="#a4f9bd"/><path d="m164.675 221.613-12.765-15.307 15.363-12.696z" fill="#33089e"/><path d="m82.941 247.072 1.613-7.567 49.065 10.46-1.613 7.567z" fill="#8cebb2"/><path d="m167.126 26.544c5.797-2.652 8.347-9.5 5.694-15.298-2.651-5.797-9.5-8.347-15.296-5.695-5.799 2.652-8.347 9.501-5.695 15.298l10.496-4.802z" fill="#1f0fff"/><path d="m103.526 13.534c-1.285-2.955 1.229-6.897 5.617-8.806 4.387-1.909 8.986-1.062 10.271 1.893 1.285 2.954-1.229 6.896-5.617 8.805-4.387 1.909-8.985 1.062-10.271-1.892" fill="#71e567"/><path d="m218.043 91.043c2.389 5.488-.133 11.897-5.622 14.285-5.488 2.388-11.896-.134-14.285-5.623-2.388-5.488.134-11.895 5.624-14.284 5.488-2.387 11.896.135 14.283 5.622zm-15.36 6.684c1.297 2.981 4.778 4.351 7.76 3.054 2.98-1.297 4.351-4.778 3.054-7.759s-4.778-4.35-7.758-3.053c-2.982 1.297-4.353 4.777-3.056 7.758z" fill="#5b26af"/><path d="m185.868 226.006c4.603 0 8.333 3.731 8.333 8.333 0 4.603-3.73 8.334-8.333 8.334-4.602 0-8.333-3.731-8.333-8.334 0-4.602 3.731-8.333 8.333-8.333" fill="#8aef81"/><path d="m140.716 175.355c6.919 0 12.529 5.61 12.529 12.529 0 6.92-5.61 12.529-12.529 12.529-6.92 0-12.529-5.609-12.529-12.529 0-6.919 5.609-12.529 12.529-12.529" fill="#07775d"/><path d="m161.743 165.353 14.689-1.737 6.192 13.433-10.86 10.04-12.907-7.226z" fill="#d18e36"/><path d="m67.773 241.625-26.106-17.848 13.612-19.909 26.105 17.848z" fill="#1385ef"/><path d="m251.151 85.743c1.066 5.603-2.611 11.009-8.213 12.075-5.603 1.066-11.009-2.612-12.075-8.215s5.758-24.987 5.758-24.987 13.465 15.524 14.53 21.127" fill="#f8bbb9"/><path d="m94.674 181.599c2.519-3.162 9.721-1.613 16.087 3.458 6.366 5.072 9.485 11.747 6.966 14.908-2.519 3.162-9.722 1.614-16.088-3.458-6.365-5.072-9.484-11.746-6.965-14.908" fill="#cc94f8"/><path d="m107.043 237.362-17.174-12.146 6.159-22.536 17.174 12.146z" fill="#67a4e5"/><path d="m63.476 101.506-7.362-15.776 13.672-13.672 7.363 15.775z" fill="#af2636"/><path d="m55.832 104.888c-4.118 4.866-3.512 12.149 1.354 16.267 4.866 4.119 12.148 3.513 16.266-1.351 4.12-4.867 3.512-12.15-1.353-16.268l-7.457 8.811z" fill="#f4abd7"/><path d="m45.614 177.747c3.22 0 5.831 2.61 5.831 5.831 0 3.22-2.611 5.831-5.831 5.831-3.221 0-5.831-2.611-5.831-5.831 0-3.221 2.61-5.831 5.831-5.831" fill="#e871ce"/><path d="m62.156 181.271-10.674-11.031 7.193-13.559 15.118 2.65 2.151 15.198z" fill="#743aa3"/><path d="m242.671 113.353c3.267-3.506 7.663-5.357 12.107-5.514l.28 7.93c-2.417.085-4.802 1.088-6.58 2.996-3.549 3.809-3.339 9.797.47 13.355 1.908 1.778 4.357 2.61 6.773 2.525l.279 7.929c-4.445.156-8.958-1.38-12.465-4.649-7.011-6.535-7.4-17.56-.864-24.572" fill="#d348d6"/><path d="m249.699 155.055c2.949 1.298 3.777 5.9 1.85 10.279-1.927 4.38-5.88 6.878-8.829 5.581-2.949-1.298-3.777-5.9-1.849-10.28 1.927-4.379 5.88-6.878 8.828-5.58" fill="#9a08c6"/><path d="m230.673 207.173-22.369 21.648-3.679-14.171 12.007-11.618z" fill="#29dba8"/><path d="m72.587 62.461 1.576 4.759-4.521 1.498-1.577-4.763-4.761 1.577-1.499-4.526 4.763-1.576-1.576-4.759 4.526-1.497 1.576 4.762 4.762-1.576 1.494 4.525z" fill="#6176d3"/></svg>