<svg height="230" preserveAspectRatio="xMidYMid" viewBox="0 0 256 230" width="256" xmlns="http://www.w3.org/2000/svg"><path d="m.75412411 114.750341c0 19.214341 18.76247909 37.151709 48.34307589 47.262184-5.9069691 29.737705-1.0586328 53.706093 15.1353395 63.045579 16.6457275 9.599101 41.4437565 2.954516 64.9804525-17.619288 22.942873 19.743258 46.130737 27.513217 62.30962 18.147189 16.629451-9.626968 21.687771-35.221002 15.61744-65.886911 30.809758-10.18643 48.043885-25.48149 48.043885-44.948753 0-18.7688745-18.797291-35.006479-47.978913-45.0523488 6.534946-31.9332805.997696-55.3200558-15.866608-65.04523715-16.258957-9.37567702-39.715997-1.20381864-62.99629 19.05650405-24.219189-21.50473146-47.4447786-28.07039585-64.292734-18.31686956-16.2431543 9.40234626-20.8782824 33.80630666-14.9521921 64.09455096-28.5817704 9.9652619-48.34307579 26.5695854-48.34307579 45.2634005z" fill="#fff"/><path d="m201.024553 79.6741178c-2.344019-.8068122-4.772902-1.570187-7.273779-2.292135.411049-1.6775743.788311-3.3334298 1.123746-4.9611313 5.506112-26.7273653 1.906024-48.259117-10.387205-55.3482859-11.787664-6.7975742-31.065489.2899859-50.535164 17.2338476-1.872239 1.6293103-3.749707 3.3543441-5.626369 5.1622309-1.250439-1.1961414-2.498866-2.3520628-3.744075-3.4577093-20.404789-18.11748-40.8574399-25.7524336-53.1386025-18.6427525-11.7764023 6.817282-15.2638743 27.0591798-10.3075695 52.3889018.4786174 2.4465797 1.0380769 4.9450432 1.6707368 7.4853354-2.89463.8216936-5.6891123 1.6976842-8.3629348 2.6295805-23.9224258 8.3404116-39.2003771 21.411896-39.2003771 34.970444 0 14.003382 16.4008924 28.048994 41.3179576 36.565568 1.9663535.672076 4.0067117 1.307551 6.1094109 1.91085-.6825326 2.747426-1.2761791 5.439749-1.7745044 8.06571-4.7258444 24.890118-1.0352616 44.6538 10.7097691 51.428047 12.1315444 6.995859 32.4916889-.195067 52.3173099-17.52504 1.56697-1.369892 3.13957-2.822636 4.714985-4.345363 2.041968 1.966353 4.080716 3.82733 6.108607 5.572876 19.203419 16.525172 38.169942 23.198065 49.904113 16.404915 12.119478-7.01597 16.058219-28.246876 10.944653-54.077738-.390536-1.972789-.845021-3.988211-1.355412-6.039428 1.429819-.422713 2.833496-.859099 4.202181-1.31278 25.903661-8.582535 42.757429-22.457213 42.757429-36.647617 0-13.607616-15.770646-26.7671824-40.174906-35.1683262z" fill="#53c1de"/><path d="m195.406228 142.327554c-1.235557.409036-2.50329.804399-3.795155 1.187695-2.859638-9.053109-6.719145-18.679755-11.442174-28.625747 4.507048-9.709097 8.217338-19.2126693 10.996939-28.2070574 2.311441.6688578 4.55491 1.3743159 6.716733 2.1187872 20.909548 7.1981649 33.6641 17.8407662 33.6641 26.0412122 0 8.73497-13.774529 20.074181-36.140443 27.48511zm-9.280352 18.389366c2.261165 11.422065 2.584131 21.74894 1.08634 29.821889-1.345759 7.254071-4.05216 12.09052-7.39846 14.027513-7.120943 4.121741-22.34902-1.235959-38.772034-15.368446-1.882696-1.62006-3.779067-3.34992-5.681471-5.180733 6.366819-6.96328 12.730018-15.058349 18.940381-24.048716 10.923336-.9693 21.243375-2.553967 30.602155-4.717398.460921 1.859368.87036 3.682941 1.223089 5.465891zm-93.8492381 43.137107c-6.9572475 2.457037-12.4983504 2.527422-15.8478681.596059-7.1273778-4.110881-10.0903817-19.979261-6.0486787-41.265269.4629317-2.437732 1.0139451-4.941825 1.6490181-7.501423 9.2562199 2.046793 19.5006441 3.519647 30.4501238 4.407302 6.252192 8.797311 12.799196 16.883532 19.396877 23.963852-1.441483 1.39161-2.877336 2.716456-4.305144 3.964883-8.766743 7.663108-17.551987 13.100041-25.2943281 15.834596zm-32.5938476-61.579966c-11.0178539-3.765794-20.1168138-8.66016-26.353722-14.000967-5.6042481-4.799447-8.4337219-9.564305-8.4337219-13.43065 0-8.227795 12.2666835-18.7223875 32.7253669-25.8553961 2.4823755-.8655334 5.0809866-1.681194 7.7777345-2.4473841 2.8274626 9.1974988 6.5365467 18.8136872 11.0126253 28.5376652-4.5339953 9.868367-8.2957675 19.637795-11.150982 28.943082-1.9225137-.552622-3.7850997-1.134202-5.5773008-1.74635zm10.9257502-74.3707146c-4.2464227-21.7018821-1.4261995-38.0730117 5.6706111-42.1810777 7.5593402-4.3763331 24.2751544 1.8633903 41.8931034 17.506941 1.126158.9998681 2.256741 2.0463912 3.390542 3.1291124-6.565103 7.0493511-13.052179 15.0748405-19.248867 23.820267-10.6269167.9849867-20.7993472 2.5672397-30.1520949 4.6860267-.5880158-2.3653354-1.1088642-4.6892442-1.5532946-6.9612694zm97.4674245 24.0672176c-2.235826-3.8619199-4.53118-7.6325405-6.871176-11.3001979 7.209427.9113841 14.1168 2.1212003 20.603475 3.6016968-1.947451 6.2413322-4.374724 12.7670196-7.23195 19.4568041-2.049608-3.8912802-4.217464-7.8147366-6.500349-11.758303zm-39.746966-38.7137156c4.452349 4.823579 8.911133 10.2090306 13.296717 16.0521853-4.419369-.2087415-8.893437-.3173354-13.404506-.3173354-4.468437 0-8.909524.1061807-13.301543.3113024 4.390008-5.7888578 8.887403-11.1670699 13.409332-16.0461523zm-40.0015583 38.7804807c-2.233414 3.8727793-4.3610495 7.7749192-6.3784823 11.6842989-2.8109726-6.6664575-5.2157235-13.2219077-7.180066-19.5517239 6.4468562-1.4426897 13.3216528-2.6223408 20.4852286-3.5164304-2.3729772 3.7014422-4.6872334 7.4998146-6.9266803 11.383051zm7.1330086 57.6826519c-7.4012757-.825716-14.3794375-1.944634-20.824685-3.347507 1.9957141-6.442834 4.4535554-13.138249 7.3240534-19.948292 2.0226615 3.906564 4.1587432 7.810313 6.405832 11.691539h.0004021c2.2889176 3.954023 4.660286 7.827204 7.0943975 11.60426zm33.1356107 27.388581c-4.57502-4.936195-9.138376-10.396455-13.595149-16.269775 4.32646.169728 8.737382.256604 13.220299.256604 4.605587 0 9.158485-.103768 13.639793-.303259-4.400064 5.979099-8.842759 11.447805-13.264943 16.31643zm46.072358-51.031478c3.020116 6.883645 5.566039 13.544069 7.587494 19.877103-6.551428 1.494573-13.624911 2.698357-21.077668 3.592849 2.345628-3.717129 4.66109-7.552504 6.936332-11.497679 2.301789-3.991427 4.487341-7.988888 6.553842-11.972273zm-14.915168 7.149901c-3.532116 6.124292-7.158347 11.970664-10.839679 17.489245-6.705069.479421-13.632151.726372-20.692361.726372-7.031654 0-13.87146-.218395-20.457879-.645933-3.829744-5.590975-7.534806-11.454642-11.0443993-17.516996h.0008044c-3.5003426-6.045863-6.7219607-12.142806-9.6411249-18.205561 2.9183597-6.076833 6.1315317-12.180613 9.6117643-18.2156171l-.0008044.0012066c3.4894829-6.0510919 7.1619669-11.8862027 10.9563169-17.442187 6.71995-.5079779 13.610835-.7730274 20.57492-.7730274h.000402c6.995456 0 13.895189.2670604 20.613127.7794627 3.736434 5.5153621 7.383982 11.3315694 10.88714 17.3834658 3.542976 6.1198684 6.797574 12.1830254 9.74087 18.1295464-2.934447 6.048678-6.181806 12.172971-9.709097 18.290023zm19.912497-107.7918868c7.56658 4.3634627 10.509071 21.9613009 5.755073 45.0374988-.303259 1.4724525-.644725 2.9722545-1.015554 4.4921665-9.374467-2.163029-19.554137-3.7726315-30.212021-4.7724996-6.208755-8.8415522-12.642741-16.8795098-19.100859-23.8383661 1.736296-1.6703345 3.470178-3.2630447 5.19682-4.7660643 16.681628-14.517392 32.272893-20.2491375 39.376541-16.1527353z" fill="#fff"/><path d="m128.22121 94.6653008c11.14334 0 20.177143 9.0334012 20.177143 20.1771432 0 11.14334-9.033803 20.177145-20.177143 20.177145s-20.177144-9.033805-20.177144-20.177145c0-11.143742 9.033804-20.1771432 20.177144-20.1771432" fill="#53c1de"/></svg>