<svg height="276" preserveAspectRatio="xMidYMid" viewBox="0 0 256 276" width="256" xmlns="http://www.w3.org/2000/svg" xmlns:xlink="http://www.w3.org/1999/xlink"><linearGradient id="a"><stop offset="0" stop-color="#ffd54f"/><stop offset=".2164" stop-color="#ffd03d"/><stop offset=".7309" stop-color="#ffc516"/><stop offset="1" stop-color="#ffc107"/></linearGradient><linearGradient id="b" x1="47.271163%" x2="61.47134%" xlink:href="#a" y1="-17.693113%" y2="99.941377%"/><linearGradient id="c" x1="0%" x2="99.999836%" xlink:href="#a" y1="49.999458%" y2="49.999458%"/><linearGradient id="d" x1="49.999262%" x2="49.999262%" y1="-.020192%" y2="99.980536%"><stop offset="0" stop-color="#ffc107"/><stop offset=".4213" stop-color="#ffbe06"/><stop offset=".6937" stop-color="#ffb605"/><stop offset=".9233" stop-color="#ffa701"/><stop offset="1" stop-color="#ffa000"/></linearGradient><path d="m128 257.039205c3.347557 0 6.665749-.121642 9.941992-.3859 1.967424-.14681 7.21109-.746634 9.157539-.973141 3.288828-.419457 7.471177 19.957776 10.68869 19.303422 3.423066-.696299 2.588274-21.639799 5.906467-22.608745 53.321797-15.452805 92.305312-59.680377 92.305312-122.598964h-256c0 58.724014 36.735031 104.251904 87.6657163 121.147642 2.9406482.97314 2.7896306 23.44766 5.8267623 24.206877 3.1294203.78858 9.4511844-20.414984 12.6728934-19.857106 3.876119.671132 7.819356 1.124146 11.808737 1.434544 3.309803.24748 6.653165.331371 10.025891.331371z" fill="url(#b)"/><ellipse cx="128" cy="128.781763" fill="#ffe082" rx="128" ry="24.483719"/><path d="m255.995805 129.775877c0-67.1131591-51.966834-123.42109973-117.974109-128.5426727-3.309803-.24747977-6.64897-1.2332043-10.021696-1.2332043-3.343362 0-6.657359 1.02347568-9.933602 1.27095545-66.0534199 5.0712381-118.066398 61.39176245-118.066398 128.50492155h.1006784c-.0377544 4.194573-.1006784.385901-.1006784.650159 0 13.531691 57.3111788 24.416606 128 24.416606 70.697211 0 128-10.855553 128-24.378855 0-.260063-.058729 3.506663-.100678-.68791z" fill="url(#c)" opacity=".2"/><path d="m183.785192 243.7508c-16.396584 7.252416-34.542304 13.984704-55.800397 13.288405-31.2118139-1.015086-50.058028-10.7423-61.173645-16.107158-5.2432155-2.525133 26.4929196-14.983013 64.676113-14.983013 26.505503-.008389 63.149288 13.011564 52.297929 17.801766z" fill="url(#d)" opacity=".5"/><g fill="#ff8f00"><path d="m109.058884 179.137606c0-6.367361-4.26588-11.501518-9.5426526-11.501518-5.2809667 0-9.555236 5.14674-9.555236 11.501518 0 1.107367-.0083892 5.251604-.0083892 6.358972 0 6.350582 4.2784639 11.493128 9.5552361 11.493128 5.2767717 0 9.5510417-5.155129 9.5510417-11.493128 0-1.107368 0-5.251605 0-6.358972z"/><path d="m159.393753 179.137606c0-6.367361-4.517554-11.501518-9.802716-11.501518-5.276772 0-9.681073 5.14674-9.681073 11.501518 0 1.107367-.075502 5.251604-.075502 6.358972 0 6.350582 4.500776 11.493128 9.777548 11.493128s9.781743-5.14674 9.781743-11.493128z"/></g></svg>