<svg height="357" preserveAspectRatio="xMidYMid" viewBox="0 0 256 357" width="256" xmlns="http://www.w3.org/2000/svg"><g fill="#fff"><path d="m215.787082 4.49842802c10.599595 0 19.192031 8.59243578 19.192031 19.19203108 0 10.5995954-8.592436 19.1930273-19.192031 19.1930273-10.600592 0-19.193028-8.5934319-19.193028-19.1930273 0-10.5995953 8.592436-19.19203108 19.193028-19.19203108"/><path d="m127.888436 66.7253541c60.901105 0 110.271253 32.2201401 110.271253 71.9668789 0 39.74674-49.370148 71.967876-110.271253 71.967876-60.9011053 0-110.2712531-32.221136-110.2712531-71.967876 0-39.7467388 49.3701478-71.9668789 110.2712531-71.9668789"/><path d="m127.888436 210.660109c-18.676047 0-36.2633465-3.035144-51.6791286-8.382257-2.2332763 12.394584-3.4564981 25.806195-3.4564981 39.81049 0 53.360561 17.7327316 98.026086 41.6652447 110.487409h26.941759c23.922553-12.461323 41.664249-57.126848 41.664249-110.487409 0-14.004295-1.223222-27.416902-3.456498-39.81049-15.415782 5.347113-33.003082 8.382257-51.679128 8.382257"/><path d="m175.996514 324.80523c-4.008343 0-7.810491.704249-11.240094 1.95835-4.709603 8.752809-10.151346 15.855066-16.113058 20.871471.074708 1.701354.421354 3.327003.933354 4.90484h52.856529c.558817-1.775066.964234-3.603922.964234-5.541354 0-12.245167-12.264094-22.193307-27.400965-22.193307"/><path d="m90.9397665 326.62014c-3.328-1.165447-6.9956731-1.81491-10.852607-1.81491-15.1279066 0-27.383035 9.94814-27.383035 22.193307 0 1.937432.3964514 3.766288.9731985 5.541354h52.829634c.479129-1.50014.826771-3.042117.928374-4.651829-6.114117-5.056249-11.6893388-12.299953-16.4955645-21.267922"/><path d="m72.7528093 242.088342c0-11.566817.8466926-22.719253 2.3956421-33.239159-16.1260078 6.113121-27.8233152 24.293105-27.8233152 45.773198 0 24.002242 14.6059455 43.887565 33.6744591 47.415782-5.2255875-17.404015-8.246786-37.934817-8.246786-59.949821"/><path d="m180.609494 208.714708c1.561899 10.558755 2.414568 21.757012 2.414568 33.373634 0 22.038911-3.028171 42.591627-8.266708 60.007596 19.249806-3.337961 34.046008-23.315922 34.046008-47.473557 0-21.644451-11.877603-39.934007-28.193868-45.907673"/><path d="m47.4277354 89.4874397c-4.4655564-5.2734008-11.1315175-8.6253074-18.5834086-8.6253074-13.4464747 0-24.34589878 10.9004202-24.34589878 24.3468947 0 9.92523 5.94178988 18.456903 14.45951748 22.248094 3.4993308-14.568094 13.6974942-27.6848564 28.4697899-37.9696813"/><path d="m227.996389 80.8621323c-7.672031 0-14.511315 3.5521245-18.973883 9.097463 14.545183 10.3087317 24.539144 23.3946147 27.894039 37.9019457 9.03172-3.560094 15.425743-12.356732 15.425743-22.652514 0-13.4464745-10.90042-24.3468947-24.345899-24.3468947"/></g><path d="m255.922304 105.209027c0-15.398848-12.528063-27.9269103-27.925915-27.9269103-7.374194 0-14.32305 2.8697899-19.519751 7.9638911-.22014-.146428-.435299-.2948483-.658428-.4402802-20.0447-13.0828949-46.217463-20.6592996-74.220078-21.5677509l16.039347-50.7009495 43.400467 10.2160934c-.011954.310786-.022911.6225681-.022911.9373385 0 12.5569495 10.215097 22.7720467 22.772047 22.7720467 12.556949 0 22.772046-10.2150972 22.772046-22.7720467 0-12.5569494-10.215097-22.77204665-22.772046-22.77204665-9.757884 0-18.098304 6.16989883-21.333666 14.81214005l-46.40772-10.92333071c-1.817898-.42733074-3.668669.61858366-4.233463 2.404607l-17.698863 55.94745521c-29.4788486.2958444-57.1736657 7.9529339-78.1547085 21.6464436-.0119533.0079689-.0229105.0159378-.0338677.0229105-5.1508794-4.8271439-11.9433463-7.5465214-19.080467-7.5465214-15.3988482 0-27.92591435 12.5280623-27.92591435 27.9269103 0 10.027829 5.40189883 19.210957 13.96544745 24.163611-.5598132 3.066023-.8466926 6.176872-.8466926 9.319595 0 20.473028 12.0469416 39.610273 33.9214942 53.886506 7.3253852 4.780327 15.469572 8.825526 24.2213852 12.078817-.091642.555829-.192249 1.105681-.2799066 1.662506-16.9238911 7.487751-28.1550195 26.590133-28.1550195 48.302319 0 12.275051 3.6786304 24.162615 10.3575409 33.472249 6.2615408 8.727907 14.7742879 14.701572 24.1496653 17.007565 1.8328405 5.818272 3.9147082 11.302848 6.2226927 16.383003-1.444358-.170334-2.9076421-.259984-4.3868639-.259984-17.0733074 0-30.9640467 11.561837-30.9640467 25.773323 0 2.094817.3765292 4.269323 1.1485137 6.648031.4791284 1.475237 1.8537587 2.473339 3.4047004 2.473339h59.795424l.068732.03586h28.69491l.067736-.03586h60.12912c1.562895 0 2.945494-1.014039 3.414662-2.505214.769992-2.448436 1.128591-4.551222 1.128591-6.616156 0-14.211486-13.897712-25.773323-30.979984-25.773323-1.590786 0-3.163642.100607-4.713588.297837 2.304-5.067207 4.383876-10.536841 6.214724-16.339176 9.461043-2.221322 18.061447-8.163112 24.400685-16.917914 6.761587-9.337525 10.485042-21.284856 10.485042-33.64358 0-21.934319-11.38154-41.098459-28.53354-48.463688-.079689-.503035-.169339-1.000094-.252016-1.501137 8.751813-3.253291 16.896-7.297494 24.220389-12.078817 21.874553-14.276233 33.921494-33.413478 33.921494-53.886506 0-2.952466-.258988-5.876046-.753058-8.761774 9.16221-4.790288 14.935658-14.194552 14.935658-24.721432zm-40.135222-97.13058342c8.608373 0 15.612015 7.00264592 15.612015 15.61201552 0 8.6093697-7.003642 15.6130117-15.612015 15.6130117-8.608374 0-15.613012-7.003642-15.613012-15.6130117 0-8.6093696 7.004638-15.61201552 15.613012-15.61201552zm-207.70863842 97.13058342c0-11.4512682 9.31561092-20.7668791 20.76588322-20.7668791 4.8012452 0 9.3943036 1.6545369 13.0629728 4.6289182-12.5141167 9.5188172-21.0786615 20.8156889-25.1497587 33.0210119-5.3740078-3.853946-8.67909732-10.11449-8.67909732-16.883051zm113.55940842 108.915549c.888529.031875 1.778055.055782 2.670568.073712.173323.003984.34565.009961.518973.012949 1.018023.01793 2.038039.027891 3.061043.027891 1.022008 0 2.042023-.009961 3.061043-.027891.173323-.002988.347642-.008965.521961-.012949.890521-.01793 1.780046-.041837 2.666583-.073712.078693-.002988.156389-.005977.235082-.008965 14.864934-.54786 29.200934-2.976374 42.364514-7.112218l.330708 2.235268c.784934 5.31225 1.377619 10.722117 1.775066 16.190755.005977.080685.009961.16137.015938.242055.090646 1.268047.17133 2.539082.241058 3.812109.014942.272934.025899.545867.038848.818801.056779 1.098708.108576 2.197417.148421 3.299113.020918.582724.033867 1.169432.050801 1.754148.022911.812825.050802 1.624654.065743 2.439471.025899 1.427424.039845 2.858833.039845 4.293229 0 1.440374-.015938 2.873775-.041837 4.304187-.011953.652452-.031875 1.303907-.049805 1.955362-.01793.718195-.038849 1.435393-.063751 2.150599-.032872.903471-.070724 1.805946-.113557 2.705432-.016934.369557-.03586.738117-.054786 1.106677-.874583 16.585214-3.520249 32.544872-7.785587 46.734444-1.07281 3.552124-2.238257 7.010615-3.515269 10.343595-1.942412 5.074179-4.088031 9.757883-6.398008 14.009276-.114552.212172-.231097.421354-.346645.631533-.173323.312779-.346646.626553-.521962.935347-.063751.11256-.128498.224124-.193245.336685-3.691579 6.442832-7.775626 11.803891-12.114677 15.892918-.05877.055782-.118537.109572-.177307.164358-.254008.237074-.509012.472156-.765012.700264-.276918.247035-.555829.488094-.835735.725168-1.94042 1.64856-3.927658 3.047097-5.947767 4.175688h-25.261323c-1.911533-1.067828-3.792186-2.376715-5.632996-3.908731-.230101-.191253-.45821-.388483-.686319-.586708-.124513-.108576-.250023-.213168-.373541-.323736-.151408-.133478-.300825-.272933-.451237-.4094-4.569152-4.163736-8.8673619-9.728996-12.7322647-16.485604-.0527937-.093634-.1065836-.185276-.1603735-.27891-.192249-.339673-.3825058-.683331-.5727626-1.027984-.1016032-.184281-.2032063-.368561-.3038133-.554833-2.3079844-4.247409-4.4496187-8.927129-6.3900389-13.994335-1.2809961-3.34593-2.450428-6.817369-3.5262257-10.383439-4.2573696-14.176623-6.8980544-30.12632-7.7706459-46.698584-.018926-.372545-.0388482-.744093-.0557821-1.117634-.0428327-.894506-.0806848-1.792-.1125603-2.690491-.0258988-.718194-.045821-1.438381-.0647471-2.158568-.0169338-.650459-.036856-1.299922-.0488093-1.951377-.0258988-1.42842-.0428327-2.861821-.0428327-4.301199 0-1.431408.0149416-2.858832.0408405-4.283268.0149416-.794895.0408404-1.586802.0637509-2.3807.0169339-.60165.0298833-1.204296.0517977-1.80495.0388483-1.072809.0896498-2.143626.1444358-3.214443.0139455-.295845.0258988-.592685.0418366-.88853.0677354-1.24414.146428-2.485291.2340856-3.723455.0079689-.104591.0139455-.210179.0219144-.31477.393463-5.439751.9801712-10.821728 1.7581323-16.107082l.2828949-1.918506c.0229105-.149416.0428327-.299829.0667393-.449245 13.1645759 4.135844 27.5025681 6.564358 42.3694941 7.112218.075704.002988.152405.005977.229105.008965zm-45.816031 82.687004c-14.5491673-5.888996-24.9166692-22.896561-24.9166692-42.189199 0-17.041432 7.7586926-32.160373 19.8205758-39.614256-.1215253 1.052887-.2360778 2.108762-.3436576 3.168622-.0209182.200218-.0388482.400436-.0587704.600654-.1693385 1.704342-.3187549 3.416653-.4502412 5.135938-.0388483.505027-.0786926 1.010054-.1145526 1.516077-.054786.782942-.1055875 1.565884-.1524046 2.351814-.0537899.896498-.100607 1.793992-.1444358 2.693478-.0318755.663409-.0647471 1.325821-.0906459 1.991222-.0508016 1.247128-.0896499 2.497245-.1205292 3.748358-.0109572.447253-.0209183.894506-.0288872 1.342755-.0288871 1.509105-.0488093 3.019206-.0488093 4.531299 0 1.064841.0099611 2.125697.0239066 3.185557.0039844.300825.008965.60165.0149416.902475.0139455.850677.0328716 1.699361.0567782 2.546054.0059767.23807.0109572.47614.01793.71421.0308794.987144.0677354 1.9713.1105681 2.953463.0179299.410397.0378521.819798.0577743 1.230195.0288872.593681.0597665 1.185369.0936342 1.777058.0278911.496062.054786.992125.0856654 1.487191.0229105.36358.0488094.726163.0737121 1.089743.0796887 1.204296.1693385 2.405603.2679533 3.602926.0099611.119533.0199222.240062.0298833.359595 1.0230038 12.178428 2.9773696 23.95144 5.8162801 34.874771zm23.0619144 52.148295h-42.4282646c-.1155486-.680342-.1713307-1.327813-.1713307-1.961338 0-10.263907 10.6782879-18.613292 23.8040155-18.613292 2.8936965 0 5.7096965.403424 8.3902257 1.200311 4.1258833 7.453884 8.7328872 13.612825 13.7283737 18.408094.121525.116545.24305.234085.364576.349634.215159.203206.426334.419362.643486.616591zm100.9337276-1.961338c0 .622568-.057774 1.269043-.175315 1.961338h-47.082086c.212171-.192249.418366-.40442.628545-.601649.135471-.129494.270942-.259985.406412-.390475 4.957635-4.766381 9.533759-10.879502 13.633744-18.263658 2.794085-.875579 5.736591-1.318848 8.767751-1.318848 13.134692 0 23.820949 8.349385 23.820949 18.613292zm-14.790226-132.19063c12.1346 7.38814 20.196109 22.848747 20.196109 39.814474 0 19.52274-10.539828 36.608996-25.309136 42.339611 2.855844-10.947237 4.822164-22.750132 5.851144-34.959439.014942-.167347.028887-.335689.041837-.504032.082677-.996109.157385-1.995206.227113-2.997291.037852-.536903.075704-1.073806.109571-1.613697.028888-.47614.055783-.954272.082678-1.431408.033867-.609619.065743-1.22123.095626-1.834833.019922-.401432.039844-.801868.056778-1.204296.042833-.987144.080685-1.977276.111564-2.970397.006973-.228109.011954-.45821.01793-.687315.023907-.85765.042833-1.717292.057775-2.578926.00498-.298833.009961-.597665.013945-.897494.013946-1.061852.023907-2.126693.023907-3.194522 0-1.515081-.018926-3.028171-.047813-4.539268-.008965-.448249-.018926-.896498-.028888-1.343751-.030879-1.232187-.069727-2.461385-.118537-3.689588-.025898-.649463-.056778-1.295937-.087657-1.943408-.045821-.955269-.096623-1.909541-.153401-2.861821-.046817-.769992-.096622-1.537992-.150412-2.304996-.039845-.561806-.083674-1.122615-.127502-1.683424-.129494-1.682428-.277915-3.357884-.443269-5.02537-.02291-.229105-.043829-.45821-.067735-.686319-.10758-1.055876-.224125-2.107767-.346646-3.157665-.000996-.014942-.002988-.029884-.004981-.044825zm-4.22649-16.74758-2.406599.834739c-13.429541 4.658802-28.39807 7.405074-43.660452 8.039595-.157385.006973-.31477.013946-.472155.019923-.861634.032871-1.724265.057774-2.587891.077696-.225121.004981-.449245.011953-.675362.015938-1.035953.019922-2.072903.030879-3.109852.030879-1.03695 0-2.073899-.010957-3.109852-.030879-.225121-.003985-.448249-.010957-.67337-.015938-.864623-.019922-1.728249-.044825-2.591875-.077696-.155393-.005977-.310786-.01295-.466179-.019923-15.262382-.634521-30.2319071-3.379797-43.6644363-8.039595l-2.3936498-.829759c-32.1115642-11.800902-53.7918755-33.99421-53.7918755-59.373074 0-3.367844.3884825-6.677914 1.1256032-9.91726l.1165447-.482117c3.2164358-13.390693 12.5649183-25.794241 27.0334008-35.867891l2.3179455-1.6136965c19.3713307-12.6475953 46.3280311-20.506895 76.0977434-20.506895 30.106397 0 57.336031 8.0376032 76.752187 20.9362179l2.311968 1.6385993c14.240374 10.0935723 23.396607 22.4692293 26.477572 35.7891983l.019923.086662c.740109 3.245323 1.129587 6.562365 1.129587 9.937182 0 25.375876-21.674334 47.566195-53.778926 59.368094zm58.410833-75.366599c-3.928654-12.254133-12.375658-23.6097747-24.792156-33.1963272 3.743378-3.2463191 8.527689-5.0552529 13.576965-5.0552529 11.450272 0 20.765883 9.3156109 20.765883 20.7668791 0 7.213821-3.645758 13.720405-9.550692 17.484701z"/><path d="m89.6906459 106.69323c-9.7947393 0-18.011642 8.216902-18.011642 18.010645 0 9.79474 8.2169027 17.743689 18.011642 17.743689 9.7937432 0 17.7426931-7.948949 17.7426931-17.743689 0-9.793743-7.9489499-18.010645-17.7426931-18.010645" fill="#ff4500"/><path d="m167.419019 106.69323c-9.799719 0-18.033556 8.211922-18.033556 18.010645 0 9.79972 8.233837 17.743689 18.033556 17.743689 9.79972 0 17.742693-7.943969 17.742693-17.743689 0-9.798723-7.942973-18.010645-17.742693-18.010645" fill="#ff4500"/><path d="m169.04965 169.293696c-1.397541-1.398536-3.662693-1.399533-5.063222-.001992-7.007626 7.00165-18.597354 10.405354-35.430599 10.405354-.047813 0-.092638.011954-.140452.013946-.046817-.001992-.091642-.013946-.139455-.013946-16.833245 0-28.4199843-3.403704-35.420638-10.404358-1.3975408-1.39754-3.6636887-1.39754-5.0632217 0-1.3975409 1.397541-1.3975409 3.664685 0 5.062226 8.41214 8.413136 21.6544127 12.502163 40.4838597 12.502163.047813 0 .092638-.012949.139455-.013945.047814.000996.092639.013945.140452.013945 18.827455 0 32.07172-4.089027 40.491829-12.500171 1.398537-1.397541 1.399533-3.664685.001992-5.063222"/></svg>