<svg height="187" preserveAspectRatio="xMidYMid" viewBox="0 0 512 187" width="512" xmlns="http://www.w3.org/2000/svg"><path d="m477.090909 0h-442.1818181c-19.2581818 0-34.9090909 15.6509091-34.9090909 34.9090909v93.0909091c0 16.290909 11.1127273 29.905455 26.1818182 33.803636.5236363.116364 1.6872727.407273 1.8036363.407273 73.5418185 15.709091 149.8181815 23.970909 228.0145455 23.970909s154.472727-8.261818 228.014545-23.970909c.116364 0 1.28-.290909 1.803637-.407273 15.069091-3.898181 26.181818-17.570909 26.181818-33.803636v-93.0909091c0-19.2581818-15.650909-34.9090909-34.909091-34.9090909zm-384.0581817 122.007273c-.8727273.523636-1.92.756363-2.8509091.756363-2.6181818 0-3.84-1.861818-5.2363637-4.305454l-14.4872727-25.4254547h-13.2072727v22.5163637c0 2.618182-.0581818 3.432727-.7563636 4.770909-.7563637 1.396364-2.3854546 2.385455-4.48 2.385455-2.0945455 0-3.7236364-.989091-4.48-2.385455-.7563637-1.396364-.7563637-2.210909-.7563637-4.770909v-56.3781819c0-1.5709091 0-3.4327273 1.5127273-4.9454546 1.5127273-1.5127272 3.3745454-1.5127272 4.9454545-1.5127272h20.5381819c13.2072727 0 21.5854545 8.4945454 21.5854545 20.3054545 0 9.9490909-5.9927273 16.2909091-13.7890909 18.5018182l12.4509091 21.76c1.2218182 2.152727 1.6290909 3.025455 1.6872727 4.363636-.0581818 1.745455-.8727273 3.316364-2.6763636 4.363637zm-8.32-48.8145457c0-6.8654546-4.7709091-11.0545455-11.8109091-11.0545455h-15.6509091v21.8763637h15.6509091c7.04 0 11.8109091-4.0145455 11.8109091-10.8218182zm56.3781817 26.0072727c-1.28 1.28-2.909091 1.28-4.421818 1.28h-26.356364c0 8.436364 4.421818 13.963636 12.683637 13.963636 3.490909 0 6.865454-.989091 9.541818-3.141818 1.512727-1.221818 2.792727-1.803636 4.072727-1.803636 1.978182 0 4.130909 1.978182 4.130909 4.247273 0 2.26909-2.56 4.421818-5.003636 5.992727-3.141818 2.036363-7.621818 3.2-12.974546 3.2-12.392727 0-22.341818-6.516364-22.341818-25.3672729 0-16.3490909 8.378182-25.3672727 21.003637-25.3672727 12.974545 0 20.654545 9.4254545 20.945454 22.5163636.116364 1.4545455-.058182 3.2581818-1.28 4.48zm-19.607273-18.6763636c-4.770909 0-8.203636 2.56-9.890909 6.2836363-.989091 2.1527273-1.163636 3.7236364-1.28 6.7490909h22.283637c-.174546-3.0254545-.407273-4.5963636-1.396364-6.7490909-1.629091-3.7236363-5.003636-6.2836363-9.716364-6.2836363zm68.421819 35.3745456c0 2.734545-.174546 3.607273-.872728 4.712727-.814545 1.338182-2.443636 2.094546-4.130909 2.094546-1.629091 0-3.141818-.64-4.072727-1.978182-.523636-.756364-.756364-1.454546-.872727-3.490909-3.665455 4.363636-7.796364 5.643636-12.974546 5.643636-5.003636 0-9.367273-1.687273-12.101818-4.421818-4.770909-4.887273-5.469091-12.8-5.469091-21.0036365 0-8.0872728.698182-16.0581819 5.469091-20.9454546 2.734545-2.7345454 7.04-4.4218182 12.043636-4.4218182 5.294546 0 9.367273 1.28 12.974546 5.5854546v-18.6181818c0-2.3854546.174545-3.2581819.756363-4.4218182.698182-1.3381818 2.094546-2.3272728 4.247273-2.3272728s3.549091 1.0472728 4.247273 2.3272728c.581818 1.1636363.756364 2.0363636.756364 4.4218182zm-20.247273-34.6763638c-9.018182 0-10.24 7.5636363-10.24 16.3490909 0 8.7854549 1.28 16.3490909 10.24 16.3490909 9.018182 0 10.298182-7.563636 10.298182-16.3490909 0-8.7854546-1.221819-16.3490909-10.298182-16.3490909zm48.232727 41.7163638c-7.738182 0-12.8-1.454546-17.28-4.48-1.570909-1.047273-2.734545-2.443637-2.734545-4.130909 0-1.28.581818-2.618182 1.629091-3.432728.756363-.698181 1.687272-1.047272 2.734545-1.047272s2.210909.465454 3.723636 1.396363c3.490909 2.269091 6.923637 3.316364 11.985455 3.316364 6.341818 0 10.88-2.269091 10.88-6.981818 0-3.316364-1.92-5.410909-6.690909-5.876364l-7.970909-.756363c-9.250909-.814546-14.661818-5.0036368-14.661818-13.6145459 0-9.7163636 8.378181-15.1854546 18.734545-15.1854546 5.352727 0 9.483636.9309091 13.323636 2.7345455 1.687273.7563636 2.618182 1.3963636 3.2 2.0945455.756364.8727272.930909 1.6290909.930909 2.7345454 0 .9890909-.523636 2.2109091-1.221818 2.9090909-.814545.8145455-1.745454 1.28-2.909091 1.28-.930909 0-1.92-.4072727-3.2-1.0472727-3.141818-1.5127273-6.516363-2.6181818-10.298181-2.6181818-5.934546 0-8.901819 2.7345454-8.901819 6.5163636 0 3.6654546 2.269091 5.2945455 6.865455 5.6436364l7.796364.7563636c9.250909.8727273 14.72 5.12 14.72 13.9636361 0 10.472728-8.785455 15.825455-20.654546 15.825455zm64.058182-4.421818c-2.734546 2.734545-7.04 4.421818-12.043636 4.421818-5.294546 0-9.367273-1.338182-12.974546-5.643637v18.618182c0 2.385455-.174545 3.258182-.756364 4.421818-.698181 1.338182-2.094545 2.327273-4.247272 2.327273-2.152728 0-3.549091-1.047273-4.247273-2.327273-.581818-1.163636-.756364-2.036363-.756364-4.421818v-56.7272725c0-2.7345454.174546-3.6072727.872728-4.7127272.814545-1.3381818 2.443636-2.0945455 4.130909-2.0945455 1.629091 0 3.141818.64 4.072727 1.9781818.523636.7563637.756364 1.5127273.872727 3.4909091 3.665455-4.3636363 7.738182-5.6436363 12.974546-5.6436363 5.003636 0 9.367272 1.6872727 12.101818 4.4218181 4.770909 4.8872728 5.469091 12.8 5.469091 21.0036364 0 8.0290911-.698182 16.0000001-5.469091 20.8872731zm-14.778182-37.3527276c-9.018182 0-10.298182 7.5636363-10.298182 16.3490909 0 8.7854547 1.28 16.4072727 10.298182 16.4072727s10.24-7.621818 10.24-16.4072727c0-8.7854546-1.28-16.3490909-10.24-16.3490909zm59.287273 2.7927272c-1.047273 0-2.152727-.3490909-3.84-1.3381818-1.687273-.9309091-3.432727-1.4545454-5.352727-1.4545454-5.643637 0-10.123637 4.1890909-10.123637 11.1127272v23.6800004c0 2.385454-.174545 3.258181-.756363 4.421818-.698182 1.338182-2.094546 2.327273-4.247273 2.327273s-3.549091-1.047273-4.247273-2.327273c-.581818-1.163637-.756364-2.036364-.756364-4.421818v-36.7127276c0-2.7345455.174546-3.6072728.872728-4.7127273.814545-1.3381818 2.443636-2.0945455 4.130909-2.0945455 1.629091 0 3.141818.64 4.072727 1.9781819.523636.7563636.756364 1.5127272.872727 3.6072727 2.792728-3.4909091 7.447273-5.76 12.625455-5.76 3.665454 0 6.283636.6981818 8.727273 2.2690909 1.687272 1.1054545 2.967272 2.6181818 2.967272 4.48 0 1.3963636-.581818 2.7345454-1.454545 3.6072727-.930909.8145455-2.210909 1.3381818-3.490909 1.3381818zm45.381818 15.2436364c-1.28 1.28-2.909091 1.28-4.421818 1.28h-26.356364c0 8.436364 4.421818 13.963636 12.683637 13.963636 3.490909 0 6.865454-.989091 9.541818-3.141818 1.512727-1.221818 2.792727-1.803636 4.072727-1.803636 1.978182 0 4.130909 1.978182 4.130909 4.247273 0 2.26909-2.56 4.421818-5.003636 5.992727-3.141818 2.036363-7.621818 3.2-12.974546 3.2-12.392727 0-22.341818-6.516364-22.341818-25.3672729 0-16.3490909 8.378182-25.3672727 21.003636-25.3672727 12.974546 0 20.654546 9.4254545 20.945455 22.5163636.174545 1.4545455-.058182 3.2581818-1.28 4.48zm-19.607273-18.6763636c-4.770909 0-8.203636 2.56-9.890909 6.2836363-.989091 2.1527273-1.163636 3.7236364-1.28 6.7490909h22.283637c-.174546-3.0254545-.407273-4.5963636-1.396364-6.7490909-1.570909-3.7236363-5.003636-6.2836363-9.716364-6.2836363zm66.734546 35.4327276c0 2.443636-.116364 3.374545-.756364 4.48-.756364 1.396363-2.327273 2.269091-4.247273 2.269091-1.629091 0-2.850909-.581819-3.607272-1.396364-.581819-.698182-1.047273-1.454546-1.105455-3.549091-3.898182 3.84-7.214545 5.12-13.265454 5.12-6.225455 0-10.356364-1.396364-13.323637-4.48-2.56-2.618182-3.956363-6.4-3.956363-10.589091 0-8.3199999 5.934545-14.370909 17.163636-14.370909h13.149091v-3.0836364c0-6.5163636-3.083637-9.6581818-10.356364-9.6581818-3.956363 0-6.574545 1.1054546-9.483636 3.3163637-1.28.9890909-2.676364 1.3381818-3.607273 1.3381818-1.047273 0-2.152727-.4654546-2.909091-1.3381818-.814545-.9309091-1.163636-1.7454546-1.163636-3.0836364 0-2.2690909 2.094545-4.2472727 4.654545-5.7018182 3.490909-1.9781818 7.505455-2.9672727 12.625455-2.9672727 13.265454 0 20.305454 5.8181818 20.305454 17.0472727v26.6472731zm-30.603637-8.32c0 4.48 3.025455 6.981818 9.309091 6.981818 3.549091 0 6.516364-.407273 9.018182-2.850909 1.570909-1.454546 2.210909-3.723637 2.210909-7.389091v-3.898182h-11.752727c-5.818182 0-8.785455 2.56-8.785455 7.156364zm80.290909 8.261818c0 2.734545-.174545 3.607273-.872727 4.712727-.814545 1.338182-2.443636 2.094546-4.130909 2.094546-1.629091 0-3.141818-.64-4.072727-1.978182-.523637-.756364-.756364-1.454546-.872727-3.490909-3.665455 4.363636-7.796364 5.643636-12.974546 5.643636-5.003636 0-9.367273-1.687273-12.101818-4.421818-4.770909-4.887273-5.469091-12.8-5.469091-21.0036365 0-8.0872728.698182-16.0581819 5.469091-20.9454546 2.734545-2.7345454 7.04-4.4218182 12.043636-4.4218182 5.294546 0 9.367273 1.28 12.974546 5.5854546v-18.6181818c0-2.3854546.174545-3.2581819.756363-4.4218182.698182-1.3381818 2.094546-2.3272728 4.247273-2.3272728s3.549091 1.0472728 4.247273 2.3272728c.581818 1.1636363.756363 2.0363636.756363 4.4218182zm-20.247272-34.6763638c-9.018182 0-10.24 7.5636363-10.24 16.3490909 0 8.7854549 1.28 16.3490909 10.24 16.3490909 9.018182 0 10.298182-7.563636 10.298182-16.3490909.058181-8.7854546-1.221819-16.3490909-10.298182-16.3490909z" fill="#ff351a"/></svg>