<svg height="250" preserveAspectRatio="xMidYMid" viewBox="0 0 256 250" width="256" xmlns="http://www.w3.org/2000/svg" xmlns:xlink="http://www.w3.org/1999/xlink"><linearGradient id="a"><stop offset="0" stop-color="#b1278f"/><stop offset=".48" stop-color="#af278e"/><stop offset=".65" stop-color="#a8258a"/><stop offset=".76" stop-color="#9e2383"/></linearGradient><linearGradient id="b" x1="73.844062%" x2="30.458501%" xlink:href="#a" y1="26.69218%" y2="67.386722%"/><linearGradient id="c"><stop offset="0" stop-color="#ec178d"/><stop offset=".47" stop-color="#ea178d"/><stop offset=".64" stop-color="#e3188c"/><stop offset=".76" stop-color="#d81a8a"/><stop offset=".86" stop-color="#c71d88"/><stop offset=".95" stop-color="#b12085"/><stop offset="1" stop-color="#9e2383"/></linearGradient><linearGradient id="d" x1="111.45912%" x2="-.073378%" xlink:href="#c" y1="16.589288%" y2="76.323152%"/><linearGradient id="e"><stop offset="0" stop-color="#ec178d"/><stop offset=".24" stop-color="#cb1c8c"/><stop offset=".77" stop-color="#772888"/><stop offset="1" stop-color="#512e87"/></linearGradient><radialGradient id="f" cx="56.914982%" cy="88.883314%" r="141.731287%" xlink:href="#e"/><linearGradient id="g"><stop offset="0" stop-color="#ba258e"/><stop offset=".23" stop-color="#b5258d"/><stop offset=".51" stop-color="#a5278b"/><stop offset=".83" stop-color="#8b2987"/><stop offset="1" stop-color="#7a2a85"/></linearGradient><radialGradient id="h" cx="37.432884%" cy="107.316971%" r="81.74392%" xlink:href="#g"/><linearGradient id="i"><stop offset=".09" stop-color="#e21a8d"/><stop offset="1" stop-color="#952584"/></linearGradient><radialGradient id="j" cx="-17.811377%" cy="68.575616%" r="115.435554%" xlink:href="#i"/><radialGradient id="k" cx="5.23908%" cy="62.226971%" r="80.217464%" xlink:href="#i"/><radialGradient id="l" cx="6.171729%" cy="59.655906%" r="84.763768%" xlink:href="#i"/><linearGradient id="m"><stop offset="0" stop-color="#e21a8d"/><stop offset=".25" stop-color="#df1a8d"/><stop offset=".44" stop-color="#d51c8c"/><stop offset=".6" stop-color="#c51e8a"/><stop offset=".76" stop-color="#af2187"/><stop offset=".89" stop-color="#952584"/></linearGradient><radialGradient id="n" cx="22.050557%" cy="60.48024%" r="133.158635%" xlink:href="#m"/><linearGradient id="o" x1="4.051389%" x2="91.05465%" xlink:href="#a" y1="47.637492%" y2="51.935977%"/><linearGradient id="p" x1="3.187497%" x2="95.474314%" xlink:href="#c" y1="44.801168%" y2="53.594511%"/><radialGradient id="q" cx="95.195158%" cy="26.553165%" r="109.020649%" xlink:href="#e"/><radialGradient id="r" cx="103.819561%" cy="39.47988%" r="117.774443%" xlink:href="#g"/><radialGradient id="s" cx="101.124411%" cy="82.932487%" r="100.719861%" xlink:href="#i"/><radialGradient id="t" cx="98.548645%" cy="73.093931%" r="110.462498%" xlink:href="#i"/><radialGradient id="u" cx="99.551569%" cy="72.246476%" r="112.771912%" xlink:href="#i"/><radialGradient id="v" cx="77.359636%" cy="60.365252%" r="125.522698%" xlink:href="#m"/><linearGradient id="w" x1="59.889078%" x2="42.457043%" xlink:href="#a" y1="137.595586%" y2="-75.966214%"/><linearGradient id="x" x1="68.555243%" x2="37.751836%" xlink:href="#c" y1="128.237426%" y2="-32.566779%"/><radialGradient id="y" cx="16.850902%" cy="17.911616%" r="71.895758%" xlink:href="#e"/><radialGradient id="z" cx="19.491964%" cy="16.608096%" r="72.093433%" xlink:href="#g"/><radialGradient id="A" cx="56.361122%" cy="-43.49768%" r="66.715691%" xlink:href="#i"/><radialGradient id="B" cx="57.47657%" cy="-39.617514%" r="53.609065%" xlink:href="#i"/><radialGradient id="C" cx="57.49708%" cy="-37.216495%" r="52.32936%" xlink:href="#i"/><radialGradient id="D" cx="49.164971%" cy="11.762164%" r="70.915868%" xlink:href="#m"/><g transform="translate(0 65.7393)"><path d="m24.3050584 20.2210117c-1.7929961-.3984436-3.8848249-1.1953308-5.3789884-2.1914397 2.3906615 2.1914397 12.0529183 17.3322957 13.5470818 20.4202334.2988326-3.0879377-2.9883269-12.9494163-8.1680934-18.2287937z" fill="url(#b)"/><path d="m33.9673152 55.3836576s3.0879377-14.244358.9961089-23.5081712-7.3712062-19.025681-7.3712062-19.1252918.4980545 4.8809338-1.1953307 5.4785992c-1.6933853.5976653-6.8731518-3.4863813-6.8731518-3.4863813s7.2715953 7.8692607 10.2599222 14.7424124c2.5898833 5.8770428 3.2871595 9.3634241 2.1914397 16.6350195-1.0957199 7.2715953-1.2949417 7.0723735-1.2949417 7.0723735z" fill="url(#d)"/><path d="m14.6640887 1.59377432c-.9961089 1.49416342-1.7929961 2.98832685-2.4902723 4.58210117-3.48638135 6.57431911-6.4747082 13.34785991-8.86536967 20.42023341-13.44747083 42.6334631 15.73852137 126.4062261 57.87392997 125.2108951 4.7813229-.099611 9.1642023 3.785214 7.7696498 10.160311-.4980545 2.390662-.7968872 4.781323-.996109 7.271596-.5976653 3.287159.4980545 6.574319 2.7891051 8.96498 3.1875486 3.38677 7.570428 6.375097 12.9494163 5.877043 3.3867705-.298833 4.4824903-1.09572 7.3712063-3.187549 2.3906614-1.693385 4.2832685-3.884825 6.6739299-5.677821.1992218-.199222.4980545-.298832.6972763-.498054-6.9727627-5.279378-5.7774319-11.953308-2.5898833-22.711284-1.2949416-1.09572-2.3906615-2.19144-3.4863813-3.386771-1.1953307-1.294941-2.1914397-2.689494-3.2871595-4.084046-.8964981-1.09572-2.0918288-2.091829-2.888716-3.187549-2.1914397-3.187549-2.0918288-7.670039-2.0918288-11.554864.0996109-4.084047.7968872-8.267704 0-12.25214-.6972762-3.38677-1.9922179-6.67393-3.5859922-9.761868-3.0879377-6.076264-7.3712062-11.4552526-12.5509728-15.838132-5.2793774-4.4824902-10.5587548-8.9649805-15.7385214-13.6466926-4.1836575-3.785214-7.7696498-7.3712062-10.0607003-12.6505836-1.5937744-3.5859923-2.888716-7.2715954-3.884825-11.0568094-.7968871-2.9883268-1.2949416-6.0762646-2.2910505-8.9649805-.7968872-2.1914397-1.7929961-4.3828794-2.9883269-6.4747082-1.892607-3.4863813-3.4863813-7.2715953-5.5782101-10.6583657-2.1914397-3.7852141-4.8809339-7.8692607-8.6661479-10.459144 1.1953308-1.3945525 1.6933853-3.1875487 1.4941635-5.0801557-.0996109-1.2949416-.3984436-3.78521397-2.0918288-3.98443576.3984436-1.29494163.7968871-2.68949416.9961089-3.98443579.3984436-1.39455253 0-2.88871596-1.1953307-3.78521401-.996109-.19922179-1.9922179-.29883269-2.9883269-.19922179 0 .19922179-.1992218.39844358-.2988327.59766537zm74.2101168 166.94785968c1.2949416 1.195331 1.3945525 3.28716.2988327 4.582101-.8964981 1.494164-2.7891051 1.892607-4.2832685.996109 0 0-.0996109 0-.0996109-.099611-1.2949416-1.19533-1.3945525-3.287159-.2988327-4.582101.8964981-1.494163 2.7891051-1.892607 4.2832685-.996109 0 .099611 0 .099611.0996109.099611z" fill="url(#f)"/><path d="m99.4116732 174.319066c3.9844358-1.693385 8.2677038-1.195331 12.1525288-.398443 3.386771.697276 6.67393 1.693385 9.96109 2.888716 4.980545-5.4786.597665-13.24825-3.785214-15.5393-4.38288-2.291051-9.562646-3.28716-14.543191-4.681712-2.390661-.697276-4.582101-2.490273-6.474708-3.984436-3.0879378 10.558755-4.1836576 16.73463 2.6894942 21.715175z" fill="url(#h)"/><path d="m15.0412451 90.8451362c-.1992218-2.9883269 2.5898833-1.4941634 4.6817121 0-2.6894942-2.3906615-6.8731518-6.67393-5.2793774-9.2638132 1.1953307-1.7929962 2.9883268-.996109 4.4824902.1992217-1.9922179-2.3906614-3.9844358-5.677821-2.9883268-8.0684824-3.3867704-2.888716-6.87315176-5.0801557-8.76575876-4.2832685-1.79299611.7968871 1.29494163 5.2793774 5.27937746 9.8614786-2.78910509-2.2910506-5.37898836-3.6856031-6.67392999-2.3906615-1.9922179 2.0918288 3.98443579 9.1642023 9.26381319 14.6428016.0996109-.1992218 0-.3984436 0-.6972763z" fill="url(#j)"/><path d="m8.56653696 60.0653696c-1.7929961 1.8926071 2.78910504 7.9688716 7.67003894 13.34786.9961089-1.4941635 2.789105-.2988327 4.4824902 1.2949416-2.5898832-3.3867704-5.3789883-7.7696498-3.3867704-9.0645914.0996109-.0996109.1992218-.0996109.3984436-.1992218-3.6856031-3.785214-7.570428-7.0723736-9.16420234-5.3789884z" fill="url(#k)"/><path d="m16.9338521 99.511284c-.2988326-1.3945525.0996109-1.892607.7968872-2.0918287 1.1953307 0 2.3906615.2988326 3.3867704.9961089-1.6933852-.9961089-4.8809338-3.2871595-5.7774319-6.1758755-2.789105-2.0918288-5.37898831-3.2871595-5.67782099-.5976654-.59766537 5.777432 12.94941639 15.9377437 12.94941639 15.9377437l.0996108-.199222c-3.2871595-3.785214-5.5782101-6.773541-5.7774319-7.869261z" fill="url(#l)"/><path d="m17.4319066 59.0692607c-.3984436 1.2949416 1.4941634 4.4824903 3.4863813 7.3712062-1.1953307-.9961089-2.4902723-1.4941634-3.6856031-.6972762-1.9922179 1.2949416.7968872 5.677821 3.3867705 9.0645914-1.7929962-1.6933852-3.7852141-2.888716-4.6817121-.8964981-.996109 2.3906615.9961089 5.6778211 2.9883268 8.0684825-1.4941634-1.1953307-3.2871595-1.9922179-4.4824902-.1992218-1.5937744 2.4902724 2.4902723 6.8731518 5.2793774 9.2638133-2.0918288-1.4941634-4.781323-3.0879378-4.6817121 0 .1992218 3.4863813 4.0840467 6.3750973 6.0762646 7.570428-.9961089-.5976654-2.1914397-.996109-3.3867704-.996109-.6972763.0996109-1.0957198.6972763-.7968872 2.0918288.996109 4.4824902 34.8638133 40.1431902 40.9400779 36.2583662 6.2754863-4.084047.1992218-24.902724-13.6466926-46.6178992-5.6778211-8.9649806-22.5120623-31.277821-26.0980545-30.6801557-.3984436-.1992218-.5976654.0996109-.6972763.3984436z" fill="url(#n)"/></g><g transform="translate(127.501946 63.747082)"><path d="m13.9455253 162.863813c.4980545 1.792996.896498 3.984436.7968872 5.777432.6972762-3.187549 8.9649805-19.125292 10.8575875-21.914397-2.7891051 1.294942-9.6622568 8.964981-11.6544747 16.136965z" fill="url(#o)"/><path d="m39.5455253 136.86537s-13.8459144 4.48249-20.8186771 10.857587c-6.9727626 6.375097-12.8498054 15.937743-12.8498054 15.937743s3.9844358-2.888716 5.2793774-1.693385c1.2949417 1.195331.3984436 7.670039.3984436 7.670039s3.1875487-10.160311 7.6700389-16.236576c3.785214-5.179766 6.4747082-7.570428 13.3478599-10.259922 6.8731518-2.689494 6.7735409-2.490272 6.7735409-2.490272z" fill="url(#p)"/><path d="m2.58988327 180.494942c1.79299611.099611 3.48638132.099611 5.27937743-.099611 7.4708171-.199222 14.8420233-1.09572 22.1136187-2.589884 43.629572-9.761867 101.6031126-76.8 79.4894946-112.7595326-2.490273-4.0840467-1.294942-9.8614786 4.880933-11.8536965 2.291051-.7968872 4.582102-1.6933852 6.773541-2.6894942 3.087938-1.1953307 5.478599-3.6856031 6.375098-6.8731517 1.294941-4.4824903 1.693385-9.7618677-1.394553-14.1447471-1.992218-2.7891051-3.187549-3.3867704-6.474708-4.8809338-2.689494-1.1953308-5.478599-1.7929962-8.168094-2.888716-.298832-.0996109-.498054-.1992218-.796887-.3984436-1.09572 8.6661479-7.470817 10.9571985-18.3284044 13.6466926-.2988327 1.5937743-.6972763 3.1875487-1.1953307 4.781323-.5976654 1.6933852-1.1953308 3.2871595-1.892607 4.8809338-.4980545 1.2949417-.7968872 2.7891051-1.3945526 4.0840467-1.5937743 3.4863813-5.5782101 5.677821-8.9649805 7.570428-3.5859922 1.9922179-7.570428 3.4863814-10.6583658 6.0762646-2.5898832 2.2910506-4.7813229 4.9805448-6.6739299 7.9688716-3.6856031 5.677821-6.1758755 12.1525292-7.4708171 18.8264592-1.2949417 6.8731517-2.4902724 13.646693-3.9844358 20.420233-1.1953308 5.4786-2.5898833 10.459144-5.8770428 15.041246-2.2910506 3.187548-4.8809339 6.076264-7.5704281 8.865369-2.1914397 2.19144-4.5821011 4.183658-6.6739299 6.474708-1.4941634 1.792997-2.888716 3.785214-4.0840467 5.777432-2.0918288 3.386771-4.4824903 6.67393-6.4747082 10.160312-2.1914397 3.785214-4.3828794 8.168093-4.7813229 12.750194-1.7929962-.298833-3.6856032.099611-5.08015569 1.294942-.99610895.697276-2.98832684 2.29105-2.39066147 3.785214-1.29494164.398443-2.68949417.697276-3.9844358 1.09572-1.39455253.298832-2.49027237 1.494163-2.68949416 2.888716.29883268.996109.69727626 1.892607 1.39455252 2.689494.19922179.099611.49805448.099611.69727627.099611zm107.48015573-147.7229576c.398443-1.6933852 2.091829-2.8887159 3.884825-2.5898832 1.693385.0996109 3.087938 1.4941634 2.988327 3.1875486v.0996109c-.398444 1.6933852-2.091829 2.888716-3.884825 2.5898833-1.693385-.0996109-3.087938-1.4941635-2.988327-3.1875487 0 0 0 0 0-.0996109z" fill="url(#q)"/><path d="m109.771206 20.7190661c-3.486381-2.5898832-5.080155-6.574319-6.375097-10.2599221-1.09572-3.28715956-1.892607-6.67392999-2.490272-10.06070042-7.2715958-1.59377432-11.754086 6.07626459-11.5548642 11.05680932.1992218 4.9805448 1.9922179 9.9610895 3.1875486 14.9416343.5976654 2.3906614.0996109 5.1797665-.1992218 7.570428 10.6583654-2.5898833 16.5354084-4.781323 17.4319064-13.2482491z" fill="url(#r)"/><path d="m79.688716 135.470817c-2.5898833 1.693385-2.5898833-1.494163-2.3906615-4.084047-.6972763 3.585993-2.3906615 9.263814-5.3789884 9.164203-2.1914396-.099611-2.3906614-1.992218-2.0918287-3.984436-1.0957199 2.888716-2.888716 6.375097-5.4785993 6.574319-.7968871 4.382879-.9961089 8.566537.6972763 9.662257s3.9844358-3.785214 5.8770428-9.562646c-.5976654 3.585992-.4980545 6.474708 1.1953307 6.972763 2.7891051.697276 5.9766537-8.068483 8.0684825-15.340078-.0996109.398443-.2988327.498054-.4980544.597665z" fill="url(#s)"/><path d="m56.2801556 156.588327c2.4902724.697276 5.4785993-6.474708 7.7696498-13.248249-1.6933852-.099611-1.6933852-2.291051-1.0957198-4.48249-1.5937743 3.984435-3.9844358 8.566537-6.1758755 7.470817-.0996109-.099611-.1992218-.099611-.2988327-.199222-1.5937743 4.980545-2.3906614 9.861478-.1992218 10.459144z" fill="url(#t)"/><path d="m86.263035 129.593774c-.9961089.996109-1.6933852.896498-2.1914397.398444-.5976653-1.09572-.896498-2.19144-.896498-3.486381 0 1.992217-.3984436 5.877042-2.3906615 8.068482-.3984436 3.486381-.1992218 6.375097 2.2910506 5.279377 5.2793774-2.390661 7.3712062-19.224902 7.3712062-19.224902h-.1992218c-1.6933852 4.781323-3.1875486 8.168093-3.9844358 8.96498z" fill="url(#u)"/><path d="m50.9011673 149.416342c1.2949416-.298832 3.0879378-3.585992 4.5821012-6.77354-.2988327 1.494163 0 2.888716 1.1953307 3.486381 2.1914397 1.09572 4.5821012-3.486381 6.1758755-7.470817-.5976654 2.390661-.5976654 4.781323 1.5937743 4.48249 2.5898833-.298833 4.3828794-3.685603 5.4785992-6.574319-.2988326 1.892607-.0996108 3.884825 2.0918288 3.984436 2.9883269.099611 4.6817121-5.57821 5.3789884-9.164203-.2988327 2.589884-.1992218 5.677821 2.3906614 4.084047 2.9883269-1.892607 3.4863814-6.67393 3.4863814-8.96498 0 1.19533.2988327 2.390661.896498 3.486381.4980545.498054 1.0957199.597665 2.1914397-.398444 3.3867704-3.087937 17.3322961-50.3035016 10.9571985-53.5906612-6.67393-3.3867704-21.6155642 12.351751-33.5688716 35.1626462-4.8809339 9.463035-15.8381323 35.162646-13.5470817 37.951751.0996108.199222.3984435.398443.6972762.298832z" fill="url(#v)"/></g><g transform="translate(21.914397 -1)"><path d="m184.379767 55.981323c1.294941-1.2949417 2.988326-2.7891051 4.582101-3.5859923-3.087938.996109-21.017899 1.7929961-24.40467 1.5937744 2.490273 1.7929961 12.650584 3.8848249 19.822569 1.9922179z" fill="url(#w)"/><path d="m149.017899 46.8171206s10.857587 9.7618677 19.822568 12.6505837c9.064591 2.8887159 20.221012 3.1875486 20.221012 3.1875486s-4.482491-2.0918288-4.183658-3.785214 6.474708-4.1836576 6.474708-4.1836576-10.459144 2.3906615-17.83035 1.4941634c-6.375097-.6972762-9.761868-1.892607-15.5393-6.4747081-5.777432-4.5821012-5.57821-4.6817121-5.57821-4.6817121z" fill="url(#x)"/><path d="m205.298054 56.9774319c-.796887-1.5937743-1.693385-3.0879377-2.789105-4.4824903-3.884824-6.3750972-8.367315-12.3517509-13.248249-17.8303502-30.182101-32.97120619-117.3416339-49.7058365-137.3634237-12.5509727-2.2910506 4.2832685-7.8692607 6.0762646-12.6505837 1.6933852-1.7929961-1.5937743-3.785214-3.0879378-5.7774319-4.4824903-2.5898833-2.0918288-5.9766537-2.8887159-9.1642023-2.0918288-4.5821012 1.0957199-9.2638133 3.3867705-11.5548638 8.2677043-1.4941635 3.0879377-1.2949417 4.4824903-.996109 7.9688716.2988327 2.888716 1.1953307 5.677821 1.5937743 8.566537v.896498c8.0684825-3.3867704 13.248249.996109 21.0178989 9.0645915 1.4941634-.5976654 3.0879377-.996109 4.681712-1.2949417 1.6933852-.3984436 3.4863813-.5976653 5.1797666-.896498 1.3945525-.1992218 2.789105-.6972763 4.1836575-.8964981 3.785214-.2988327 7.7696498 1.9922179 11.0568094 3.9844358 3.4863813 2.0918288 6.7735408 4.781323 10.6583657 6.0762646 3.2871596 1.0957198 6.7735409 1.6933852 10.2599222 1.7929961 6.7735409.2988327 13.6466926-.6972763 20.0217898-2.9883268 6.574319-2.2910506 13.049027-4.6817121 19.722957-6.7735409 5.378989-1.6933852 10.259922-2.9883268 15.937743-2.3906615 3.884825.3984436 7.76965 1.1953308 11.554864 2.1914397 2.988327.7968872 5.877043 1.892607 8.86537 2.4902724 2.291051.3984436 4.681712.6972763 7.072373.6972763 3.984436.0996109 7.968872.5976653 12.052919.5976653 4.382879 0 9.263813-.2988327 13.447471-2.2910506.597665 1.6933853 1.892607 3.0879378 3.685603 3.7852141 1.09572.4980544 3.486381 1.4941634 4.48249.0996108.996109.996109 1.892607 1.9922179 2.888716 2.888716.996109 1.0957198 2.589883 1.3945525 3.884825.8964981.697276-.6972763 1.294941-1.5937744 1.593774-2.4902724-.099611-.0996109-.199222-.2988327-.298833-.4980545zm-181.590661-19.2249027c-1.6933852.4980545-3.4863813-.3984436-4.1836576-2.0918288-.7968872-1.4941634-.1992218-3.3867704 1.2949416-4.1836576 0 0 .0996109 0 .0996109-.0996109 1.6933853-.4980545 3.4863814.3984436 4.1836576 2.0918288.7968872 1.4941634.1992218 3.3867704-1.2949416 4.1836576-.0996109 0-.0996109.0996109-.0996109.0996109z" fill="url(#y)"/><path d="m13.3478599 44.0280156c-.5976653 4.2832684-3.0879377 7.6700389-5.67782099 10.6583657-2.29105058 2.5898833-4.78132296 4.9805448-7.47081712 7.1719845 2.29105058 7.0723735 11.15642021 7.0723735 15.34007781 4.4824902 4.1836576-2.5898832 7.6700389-6.6739299 11.355642-10.1603113 1.7929961-1.6933852 4.4824903-2.6894941 6.67393-3.6856031-7.6700389-7.8692607-12.4513619-11.8536965-20.2210117-8.466926z" fill="url(#z)"/><path d="m127.800778 12.7501946c2.689494 1.3945525 0 2.9883268-2.390661 4.0840466 3.486381-1.1953307 9.263813-2.5898832 10.658365.0996109.996109 1.892607-.597665 3.0879378-2.390661 3.785214 2.988327-.4980544 6.972763-.5976653 8.466926 1.3945526 4.183658-1.4941634 7.869261-3.3867705 8.068483-5.3789883.199221-1.9922179-5.179767-1.5937744-11.256032-.2988327 3.386771-1.2949417 5.877043-2.888716 5.378989-4.5821012-.796887-2.78910506-9.96109-1.0957198-17.332296.6972763.398444-.0996109.597665 0 .796887.1992218z" fill="url(#A)"/><path d="m157.783658 22.4124514c-.697277-2.4902724-8.367316-1.4941635-15.340078-.0996109.796887 1.5937743-1.09572 2.5898832-3.386771 3.2871595 4.183658-.5976654 9.363424-.7968872 9.463035 1.5937743v.3984436c5.179767-1.1953307 9.861479-2.888716 9.263814-5.1797665z" fill="url(#B)"/><path d="m119.433463 9.96108949c1.394553.39844361 1.593774.99610891 1.394553 1.69338521-.597666.996109-1.494164 1.892607-2.589884 2.4902724 1.792996-.996109 5.279378-2.5898833 8.267705-1.892607 3.187548-1.3945526 5.57821-3.08793777 3.38677-4.58210119-4.781323-3.48638132-20.320623 3.18754859-20.320623 3.18754859l.099611.1992218c4.980545-.896498 8.666148-1.39455249 9.761868-1.09571981z" fill="url(#C)"/><path d="m154.197665 30.6801556c-.896498-.9961089-4.681712-.896498-8.168093-.5976653 1.394553-.4980545 2.490272-1.3945526 2.490272-2.7891051-.099611-2.3906615-5.279377-2.1914397-9.463035-1.5937743 2.390662-.6972763 4.482491-1.892607 3.187549-3.5859922-1.494163-2.0918288-5.378988-1.892607-8.466926-1.3945526 1.792996-.6972762 3.38677-1.892607 2.390661-3.785214-1.394552-2.6894941-7.171984-1.1953307-10.658365-.0996109 2.390661-.9961089 5.080155-2.6894941 2.390661-4.0840466-3.187549-1.5937744-7.470817.2988326-9.562646 1.4941634 1.09572-.5976654 1.892607-1.3945526 2.589883-2.4902724.199222-.6972763-.09961-1.2949416-1.394552-1.6933852-4.382879-1.39455254-52.196109 10.1603113-51.7976654 17.3322957.3984435 7.4708171 21.5159533 12.5509728 47.2155644 11.4552529 10.658366-.4980544 38.350194-3.785214 39.645136-7.2715953-.099611-.3984436-.199222-.6972763-.398444-.8964981z" fill="url(#D)"/></g></svg>