<svg height="266" preserveAspectRatio="xMidYMid" viewBox="0 0 256 266" width="256" xmlns="http://www.w3.org/2000/svg"><path d="m229.382 209.176-101.382 44.933-101.384-44.933c-.072-7.289-6.003-13.176-13.307-13.176-7.349 0-13.309 5.96-13.309 13.309 0 7.354 5.96 13.311 13.309 13.311 3.392 0 6.49-1.27 8.838-3.359l103.63 45.922c1.474.647 3.078.6 4.444 0l103.63-45.922c2.346 2.089 5.444 3.359 8.839 3.359 7.349 0 13.309-5.957 13.309-13.311 0-7.349-5.96-13.309-13.309-13.309-7.309 0-13.236 5.887-13.308 13.176z" fill="#62bbe7"/><path d="m114.807643 107.166123-103.5174809 45.878099c-1.2159954.538555-2.24714358 1.510752-2.82166894 2.82067-1.22698635 2.781702.03996698 6.036013 2.82166894 7.260002l114.5953289 50.786044c1.365872.600504 2.96655.65346 4.440332.001998l103.544459-45.889089c2.346062 2.087275 5.439506 3.361223 8.830705 3.361223 7.343933 0 13.299013-5.95608 13.299013-13.298014 0-7.348929-5.95508-13.300013-13.299013-13.300013-7.301968 0-13.224075 5.88314-13.296016 13.165124l-101.299314 44.894911-101.0005601-44.760022 92.1638611-40.850253c2.349059 2.093271 5.443503 3.362223 8.836699 3.362223 7.344932 0 13.299014-5.955081 13.299014-13.300013 0-7.3479294-5.954082-13.299013-13.299014-13.299013-7.303966 0-13.225074 5.8841389-13.298014 13.166123z" fill="#62bbe7"/><g fill="#78cbc8"><path d="m125.777 51.467-103.63 45.926c-2.348-2.093-5.446-3.363-8.838-3.363-7.349 0-13.309 5.961-13.309 13.309 0 7.355 5.96 13.31 13.309 13.31 7.304 0 13.235-5.887 13.307-13.176l101.384-44.927 101.082 44.793-92.244 40.882c-2.351-2.093-5.448-3.363-8.838-3.363-7.355 0-13.31 5.959-13.31 13.31 0 7.354 5.955 13.309 13.31 13.309 7.306 0 13.23-5.887 13.307-13.177l103.604-45.916c1.217-.536 2.249-1.512 2.825-2.822 1.222-2.783-.041-6.042-2.825-7.267l-114.69-50.824c-.698-.308-1.457-.471-2.23-.471-.74 0-1.493.15-2.214.467z"/><path d="m125.778.466-103.63 45.928c-2.349-2.089-5.446-3.361-8.838-3.361-7.349 0-13.31 5.959-13.31 13.312 0 7.35 5.961 13.305 13.31 13.305 7.304 0 13.235-5.887 13.307-13.173l101.383-44.934 101.383 44.934c.072 7.286 5.999 13.173 13.307 13.173 7.35 0 13.31-5.955 13.31-13.305 0-7.353-5.96-13.312-13.31-13.312-3.394 0-6.49 1.269-8.838 3.361l-103.63-45.926c-.698-.306-1.457-.468-2.229-.468-.741 0-1.493.149-2.215.466z"/></g></svg>