<svg height="283" preserveAspectRatio="xMidYMid" viewBox="0 0 256 283" width="256" xmlns="http://www.w3.org/2000/svg"><circle cx="128.105142" cy="145.127314" fill="#43a5eb" r="100.131657"/><circle cx="128.457142" cy="145.373257" fill="#f34b41" r="66.742857"/><circle cx="128.457142" cy="145.370514" fill="#fefb1f" r="33.828571"/><path d="m.34742857 75.584 3.7184-6.0187429c1.48205714-2.3981714 3.08388572-3.7961142 4.80731429-4.1938285 1.72160004-.3977143 3.45508574-.0576 5.19954284 1.0212571.5888.3629714 1.1117714.8210286 1.568 1.3750857.4571429.5531429.8237714 1.1648 1.1044572 1.8349715.2797714.6692571.4443428 1.3750857.4992 2.1165714.0548571.7424-.0384 1.4765714-.2761143 2.2025143l12.0036571.9088-1.5771428 2.5517714-11.7842286-1.0441143-2.4246857 3.9250286 8.9947428 5.5579428-1.4555428 2.3552zm3.61417143-1.0212571 7.1954286 4.4461714 2.4356571-3.9424c.8987429-1.4546286 1.2288-2.7062857.9874286-3.7558857-.2395429-1.0477715-.8950857-1.9035429-1.9629714-2.5636572-.5238858-.3236571-1.056-.5321143-1.6009143-.6290285-.5430857-.0950858-1.07520003-.0868572-1.59634289.0256-.52114285.1124571-1.04228571.3684571-1.56068571.7689142-.5184.4004572-1.00571429.9700572-1.46285714 1.7078858zm17.9867429-28.7131429 10.6093714-10.1577143 1.6484571 1.7216-8.7762285 8.4022857 5.4509714 5.6941715 7.2484571-6.9403429 1.7554286 1.8322286-7.2484571 6.9403428 6.0891428 6.3597715 8.6921143-8.3227429 1.6493714 1.7225143-10.5270857 10.0790857zm47.5958857-20.3136c1.7408 3.0793143 2.5984 5.8048 2.5718857 8.1755429-.0274286 2.3716571-.9325714 4.3556571-2.7099429 5.9492571.4617143.7113143.992 1.2059429 1.5908572 1.4857143.5997714.2788571 1.3677714.1536 2.3049143-.3757714.1115428-.0630858.2843428-.1755429.5165714-.3364572s.4909714-.3291428.7744-.5046857c.2843428-.1746286.5476571-.3465143.7917714-.5138286s.4214857-.2825143.5330286-.3456l1.2214857 2.3131429-1.3056.7387428c-1.0934857.6180572-2.0452571 1.0834286-2.8562286 1.3942858-.8109714.3108571-1.5588571.3949714-2.2427428.2523428s-1.2946286-.4534857-1.8294857-.9307428c-.5348572-.4781715-1.0486858-1.152-1.5414858-2.0214858-.9115428.3675429-1.8916571.5330286-2.9449142.4955429-1.0532572-.0374857-2.1376-.3154286-3.2530286-.832-1.1181714-.5165714-2.2180572-1.3019429-3.2978286-2.3533714-1.0806857-1.0523429-2.1019428-2.4265143-3.0610286-4.1225143-1.1858285-2.0964572-1.9300571-3.9725714-2.2336-5.6274286-.3026285-1.6548571-.3126857-3.0921143-.0301714-4.3117714.2816-1.2187429.7561143-2.2537143 1.4244572-3.104.6692571-.8484572 1.3924571-1.4939429 2.1732571-1.9364572.96-.5421714 1.9940571-.8621714 3.1030857-.9590857 1.1081143-.096 2.2738286.0905143 3.4980572.5613715 1.2233142.4717714 2.3917714 1.2608 3.5053714 2.3689142 1.1126857 1.1081143 2.2116571 2.6212572 3.2969143 4.5403429zm-14.6194286-.6985143c-.416 1.9730286.2093714 4.4324572 1.8761143 7.3764572.7570286 1.3385142 1.5625143 2.4886857 2.4155428 3.4486857.8521143.9609143 1.7289143 1.7024 2.6276572 2.2244571.8969143.5229714 1.8148571.8146286 2.7474286.8749714.9334857.0621715 1.8020571-.1353142 2.6038857-.5897142.5577143-.3154286 1.0532571-.7798858 1.4875428-1.3933715.4342857-.6125714.7158857-1.376.8466286-2.2902857.1316571-.9142857.0557714-1.9602286-.2285714-3.1396571-.2843429-1.1785143-.8429715-2.5051429-1.6758857-3.9771429-1.0596572-1.8752-2.0809143-3.3142857-3.0628572-4.3209143-.9819428-1.0057143-1.9337143-1.6886857-2.8598857-2.048-.9252571-.3602285-1.7508571-.5046857-2.4758857-.4333714-.7241143.0722286-1.3540572.2587429-1.8898286.5613714-.6701714.3794286-1.2004571.8996572-1.5908571 1.5625143-.3904.6628572-.6637715 1.3796572-.8210286 2.144zm27.6827429-17.42079999 2.9321142-.79268571.0576.064c.0265143.09965714.0091429.25782857-.0521142.4736-.0612572.21577143-.0786286.4672-.0548572.75245714l3.7906286 14.01782856c.3483428 1.2882286.7433143 2.2528 1.1803428 2.8928.4388572.6390857.9435429 1.1282286 1.5131429 1.4665143.5686857.3373714 1.1867429.5366857 1.8532571.5952.6665143.0594286 1.3522286.0192 2.0589715-.1179429.6793143-.2368 1.2946285-.5366857 1.8477714-.8996571.5522286-.3620571.9929143-.8457143 1.3193143-1.4537143.3264-.6070857.5238857-1.3046857.5897143-2.0937143.0658285-.7890285-.0822857-1.8532571-.4443429-3.1917714l-4.0841143-15.09577143 2.4877715-.672 4.0658281 15.03177143c.407772 1.5094857.586058 2.8288.533029 3.9588571-.054857 1.1291429-.3328 2.1348572-.8384 3.0144-.5056.8804572-1.168457 1.6182858-1.9913143 2.2116572-.8210286.5933714-1.8020571 1.0450286-2.9403428 1.3522286-1.1136.3017142-2.1741715.4022857-3.1826286.3044571-1.0093714-.0987429-1.9337143-.3940571-2.7693714-.8841143-.8365715-.4909714-1.5643429-1.1702857-2.1833143-2.0379428-.6208-.8676572-1.152-2.1184-1.5926857-3.7522286zm37.8203431-6.99245714 11.957943-.10697143.0192 2.22902857-4.727772.04297143.174629 19.57028576 4.960914-.0438858.0192 2.1906286-12.458057.1115429-.0192-2.2290286 4.728686-.0429714-.175543-19.53097146-4.458972.03931429zm34.416457 2.26742857 6.875428 1.66948572c2.7392.66468571 4.564115 1.75451428 5.476572 3.26857143.911543 1.51405714 1.125486 3.26674281.641828 5.25897141-.163657.6729143-.437942 1.3129143-.821942 1.9172572-.384.6061714-.852115 1.1456-1.4016 1.6192-.549486.4736-1.169372.8502857-1.856915 1.1309714-.688457.2816-1.415314.4214857-2.179657.4205714l2.858057 11.6937143-2.914743-.7076571-2.660571-11.5273143-4.484571-1.0889143-2.495086 10.2747428-2.689829-.6537142zm2.090057 3.11862857-1.994971 8.21942859 4.501942 1.0944c1.661258.4032 2.953143.3282286 3.876572-.2258286.923428-.5540571 1.533257-1.4409143 1.829486-2.6624.144457-.5970286.178285-1.1693714.101485-1.7161143-.077714-.54674283-.250514-1.05051426-.520228-1.51039997-.267886-.4608-.672915-.87588572-1.214172-1.24525714-.541257-.36754286-1.233371-.65462858-2.076343-.85942858zm33.211429 8.32365719 12.952685 6.9238857-1.123657 2.1028571-10.715428-5.7289143-3.716572 6.9513143 8.8512 4.7314286-1.1968 2.2372571-8.850286-4.7314285-4.151771 7.7650285 10.613029 5.6740572-1.123658 2.1019428-12.850285-6.8690285zm21.609142 21.9318857c.328229.2523428.597943.5659428.810058.9389714.2112.3739429.355657.7588571.429714 1.1547429.0768.3968.080457.7872.010971 1.1739428-.069485.3858286-.216685.7277714-.446171 1.0249143-.245029.3190857-.541257.5677714-.890514.7469714-.350172.1792-.720458.2825143-1.112686.3099429-.393143.0274286-.7936-.0192-1.200457-.1371429-.406857-.1188571-.789943-.3172571-1.152-.5942857-.350172-.2688-.631772-.5787428-.8448-.928-.212115-.3501714-.353829-.7158857-.423315-1.0989714-.067657-.3821714-.058514-.7634286.030172-1.1428572.0896-.3785142.260571-.7332571.513828-1.0624.244115-.3181714.544915-.5650285.897829-.7405714.354743-.1746286.727771-.2770286 1.121829-.3044571.392228-.0274286.786285.0146285 1.183085.1243428.395886.1115429.754286.2898286 1.072457.5348572zm20.8768 8.7625143 7.439543 8.0475428-1.6384 1.5140572-2.505143-2.7108572-10.0416 9.2809143c-1.149257 1.0633143-2.211657 1.8441143-3.184457 2.3414857-.9728.4982857-1.931885.7469714-2.876343.7469714-.944457 0-1.776457-.1728-2.497828-.5174857-.721372-.3456-1.378743-.8384-1.968457-1.4774857-1.5488-1.6758857-2.178743-3.6598857-1.888-5.952l2.836114-.1609143c-.004571.1088-.064.224-.176457.3474286-.114286.1225143-.181943.2468571-.205714.3730286l-.024686.6509714c-.0256.1627429-.010972.3766857.042971.6409143.053029.2651428.136229.5449143.252343.8402286.1152.2944.244114.5851428.386743.8722285s.319086.5430857.528457.7698286c.868572.9408 1.834057 1.3229714 2.894629 1.1456 1.059657-.1773714 2.410971-1.024 4.052114-2.5408l10.071771-9.3092571-3.131428-3.3883429zm22.431086 36.0932571-2.842514-.3190857c-.020114-.1362286.039314-.2514286.176457-.3456.138057-.0950857.228571-.1828572.269714-.2651429.379429-.7808.551315-1.6393143.514743-2.5792-.0384-.9398857-.362057-1.9428571-.973714-3.0098285-.587886-1.0230858-1.376-1.7014858-2.365257-2.0352-.989257-.3328-1.896229-.2633143-2.718172.2084571-.490057.2806857-.864914.6070857-1.123657.9773714-.259657.3712-.457143.8246857-.592457 1.3613715-.135314.5348571-.183771 1.2361142-.146286 2.1010285.0384.8649143.152686 1.952.343772 3.2612572.163657 1.2653714.232228 2.3497143.203885 3.2530285-.028342.9024-.160914 1.6886858-.398628 2.3561143-.2368.6674286-.568686 1.2361143-.995657 1.7024-.426057.4672-.962743.8850286-1.607315 1.2553143-.711314.4086857-1.504914.6866286-2.3808.8347429-.874971.1481143-1.76.1014857-2.651428-.1398857-.892343-.2413715-1.7664-.6939429-2.618514-1.3558858-.853943-.6628571-1.631086-1.6054857-2.333258-2.8288-1.544228-2.6889142-1.899885-5.3677714-1.065142-8.0329142l3.184457-.0109715c-.002743.1490286-.081372.2678857-.237715.3584-.155428.0886857-.258742.1929143-.309028.3099429-.351086.8822857-.494629 1.8806857-.430629 2.9961143.064 1.1154285.447086 2.2848 1.150172 3.5072.356571.6217143.790857 1.1346285 1.301943 1.536.511085.4013714 1.047771.6921143 1.609142.8713143.562286.1801142 1.1456.2450285 1.750858.192.605257-.0521143 1.174857-.2304 1.7088-.5376.4224-.2422858.764342-.5348572 1.025828-.8768.260572-.3428572.446172-.7661715.554972-1.2726858.1088-.5056.137142-1.1510857.087771-1.9337142-.052114-.7835429-.164571-1.7901715-.338286-3.0208-.203885-1.3321143-.295314-2.4841143-.277028-3.4550858.018285-.9709714.122514-1.8066285.312685-2.5069714.189258-.6994286.484572-1.2909714.888686-1.7728.402286-.4827428.903314-.896 1.504-1.2406857.756114-.4333714 1.560686-.6811429 2.4128-.7414857.852114-.0612572 1.691429.0493714 2.516114.3282286.8256.2797714 1.6.7286857 2.325029 1.3467428.725029.6189714 1.343086 1.3723429 1.853257 2.2619429.650057 1.1337143 1.034972 2.3314285 1.153829 3.5940571s-.030172 2.4841143-.443429 3.6681143z"/><g transform="translate(55.771429 264.228571)"><path d="m2.048 9.23245714h130.742857" stroke="#4c4c4c" stroke-width="2"/><path d="m143.790629 8.30811429c.906057.4352.912457 1.15931428.0128 1.60914285l-12.151772 6.09645716c-.899657.4498286-1.603657-.0054857-1.603657-1.0102857v-11.49074289c0-1.00571428.709486-1.472 1.616457-1.03771428z" fill="#4c4c4c"/><g stroke="#4c4c4c" stroke-width="2"><path d="m13.5469714.54674286 8.7616 8.68571428"/><path d="m7.14697143.54674286 8.76159997 8.68571428"/><path d="m.74697143.54674286 8.7616 8.68571428"/><path d="m9.50857143 9.23428571-8.76251429 8.68571429"/><path d="m15.9085714 9.23428571-8.76251426 8.68571429"/><path d="m22.3085714 9.23428571-8.7625143 8.68571429"/><path d="m19.9469714.54674286 8.7625143 8.68571428"/><path d="m28.7085714 9.23428571-8.7625143 8.68571429"/></g></g></svg>