<svg height="224" preserveAspectRatio="xMidYMid" viewBox="0 0 512 224" width="512" xmlns="http://www.w3.org/2000/svg"><path d="m352.945262 196.972731c5.819998 2.909999 37.099987-.06 48.737983 25.399992-13.049995-18.485994-41.637985-19.619994-58.557979-20.307993-18.221994-1.794-31.967989-2.989999-42.059986-10.285997 2.034 4.777999 9.931997 9.557997 15.749995 11.497996 6.777997 2.567999 14.723995 5.939998 16.489994 7.759998-8.243997-3.393999-23.277992-4.849999-31.643989-12.911996-3.169999-2.829999-4.889998-7.357997-6.427998-11.415996-5.547998-14.619995-9.383996-30.00999-16.113994-44.031985-10.391996-19.441993-26.079991-34.701988-45.607984-45.2559839-5.657998-2.721999-10.637997-4.3659985-17.039994-4.5119984-1.778-.04-3.273999-.04-5.293998.1219999-1.33-1.2499995-3.147999-6.7799976-4.121999-8.405997 2.075999-1.0519997 16.503994-2.1439993 21.255993.0799999 11.265996 5.2739982 21.273992 2.7619991 31.741989-3.5139987 1.061999-.6379998 3.821998-1.6579995 5.923997-3.4359988-.937999 2.3639991-1.015999 5.3139981-2.181999 7.5579973-1.919999 3.6879987-5.091998 7.3539975 1.146 7.8459973 9.617997.7559997 21.393992 5.855998 30.173989 13.0059954-5.259998-2.313999-19.183993-2.017999-19.883993.486 12.297996.836 30.03799 4.641998 40.735986 10.385996-2.989999 0-8.729997.322-11.193996.564-7.049998.694-10.183996 3.435999-4.727998 11.881996 10.223996 13.781995 6.087998 11.777996 16.891994 4.323998 26.187991-18.063993 57.52398-33.409988 85.92597-49.4859823 25.741991-14.569995 51.823982-28.5679901 75.117974-47.0279837 3.417999-2.707999 6.735997-5.557998 9.935996-8.519997 8.193997-7.5819974 17.125994-15.9179945 20.941993-28.2059902 3.605999 6.6179977 3.561999 13.1299954 2.545999 18.9119934-1.575999 8.9619969-5.249998 17.1699941-10.791996 24.2479916-12.813996 16.3699943-30.23599 28.58999-47.039984 40.4939859-27.34599 19.3719933-57.89198 32.8559883-87.897969 47.2839833-11.621996 5.587998-20.893993 11.431996-32.127989 17.821994-1.176.668-9.965997 6.335998-10.669996 7.879997 18.049993-11.123996 56.37398-28.01599 80.239972-39.061986 35.819987-17.427994 69.449976-38.0659869 96.865966-67.5779766.62-.6679998 3.073999-3.4119988 4.933998-4.8999983-.779999 3.0939989-1.767999 7.5699974-2.301999 9.3359968-7.151997 23.6579917-22.745992 41.1159857-42.493985 55.1619811-20.059993 14.267995-42.885985 24.059991-65.591977 33.099988-18.763994 7.469998-28.75199 11.339996-47.523984 18.791994-1.457999.577999-13.539995 5.677998-15.639994 7.515997.528-.04 4.617998-1.635999 5.091998-1.817999 33.043988-12.145996 65.685977-23.323992 96.323966-37.583987 20.973993-8.793997 41.159986-24.065992 57.58798-42.1919856-.519999 2.0159993-1.683999 7.4739974-2.303999 9.4559967-7.269997 23.2879919-23.489992 40.0199859-43.401985 52.9219819-16.415994 10.635996-32.507988 18.131993-51.223982 23.579991-2.227999.65-7.273997 1.698-13.335995 3.395999 25.579991-3.031999 43.245985-11.971996 59.467979-18.853993-11.761996 12.729995-27.57799 24.119991-41.463985 31.583989-14.397995 7.735997-29.37999 7.273997-45.161985 6.909997zm-194.830732-.484999c-15.199995.23-30.737989 1.603999-44.619984-6.047998-13.5639957-7.477998-30.5459898-21.201993-41.7019859-31.899989 16.2139943 6.791997 38.1039869 16.229994 55.8199809 18.065994-1.514-.524-3.007999-1.114-4.545999-1.56-23.6099916-6.851998-46.0379838-16.205994-65.553977-31.525989-17.4639939-11.197996-31.455989-31.829989-36.0339874-55.1779807 9.3359967 13.4579957 46.4819838 39.4199867 78.1979728 51.0419827 19.5199936 7.153997 37.2159866 14.491994 56.3759806 21.823992.122 2.787999-1.264 1.01-3.393999 8.121997-1.026 3.425999-1.59 6.977998-1.398 10.509996.024.426.302.704.348 1.13.092.854-.014 1.857999.176 2.705999.33 1.476 1.18 3.455999 2.175999 4.651998 2.456 2.945999 4.881999 2.244 7.791998 4.279999 2.293999 1.605999 5.209998 4.423998 11.759996 5.091998 2.909999.298 6.999997-.847999 9.091997-2.787999 6.449997-5.979998 11.415996-13.147995 12.971995-22.247992.702-4.099999 2.003999-7.431997 6.365998-9.091997 1.131999-.432 4.425998-2.545999 4.425998-2.545999s1.172 3.785999 1.394 5.091998c1.649999 9.765997 2.113999 20.093993-.114 29.68399-.472 2.029999-3.797999 4.119998-6.101998 4.543998-10.299997 1.896-20.665993 3.781999-31.091989 4.579999-15.485995 1.185999-31.033989 1.071999-46.155984-3.313999-3.929999-1.14-13.467996-4.881998-16.133995-8.761997 10.587997 4.647998 36.375988 9.483997 49.949983 3.637999zm-155.38774592-196.487732c7.96199722 22.7519921 32.93598852 40.4539859 55.36598072 54.7599809 30.0579896 18.2719937 60.4039792 34.733988 91.0299682 52.0719821 3.885999 2.199999 7.697997 4.061998 7.697997 4.061998-2.661999 7.435998-4.537998 15.485995-5.535998 23.681992 0 0-.391999-.362-3.105999-1.577999-44.781984-20.071993-88.7099687-41.6599858-124.3439563-76.4379737-7.4919974-7.3119974-12.9759955-13.8839951-18.48199354-22.895992-4.23599852-6.9339976-6.70999766-17.6259939-4.56599841-25.903991.24199992-.93399967 1.4479995-7.16199751 1.93999933-7.7599973zm4.32419849 45.5453842c4.05799863 3.8899986 10.15799643 10.7379962 13.69999523 14.183995 23.4119919 22.7779921 50.3579825 39.9399861 79.4119722 54.4379808 16.471994 8.217997 54.435981 25.337991 54.435981 25.337991l1.09 19.397994s-38.981987-15.241995-55.9579807-22.375992c-19.1119933-8.031998-37.4979869-17.493994-53.8179812-30.51999-16.8399942-13.4439952-30.3059895-28.7419899-36.43798737-49.6719826-.52799982-1.8019994-1.82999936-8.4439971-2.42399916-10.7899962zm214.51892543 62.6813778c16.133994 2.272 30.155989 11.031997 37.777987 24.489992 5.707998 10.075996 10.637996 21.775992 15.397994 32.369989 3.837999 8.541997 7.751998 19.581993 11.517996 28.12799 3.647999 8.279997 10.857997 16.203994 16.729995 22.913992-18.685994.951999-28.009991-21.073993-30.30799-28.36999-3.999998-12.619996-8.083997-16.083995-12.043996.08-1.615999 5.495998-3.959998 12.771995-5.415998 19.317993-.726-9.091997.49-26.285991 1.456-35.521988 2.819999-26.97599-10.197997-47.193983-32.757989-61.843978-.79-.514-1.569999-1.042-2.353999-1.564zm-54.908181 41.220386c1.715999.094 3.629999-3.015999 5.575998-2.909999-.302 7.273997-.484 13.153995-15.335995 25.459991.548-2.757999 3.259999-8.913997 3.575999-11.699996 1.052-9.217997.9-18.021993-3.215999-26.68399-.627999-1.318-.502-3.161999-.326-4.641999.746-6.269998 2.63-12.065996 5.011999-17.671994 1.183999-2.783999 1.209999-3.143999-.924-5.679998-3.109999-3.695998-5.897998-10.4519961-5.151998-16.547994 3.215999 1.4899995 6.825997 2.913999 9.191997 4.4139985 2.123999 1.3479995 5.537998 3.3439988 5.537998 3.3439988s3.065999-2.6359991 4.927998-4.0799986c2.345999-1.8199993 6.443998-4.9879982 11.681996-5.1339982-8.303997 4.9099983-17.369994 12.9719955-20.731993 21.5799925-3.451999 8.841997-5.307998 19.869993-2.749999 28.93999.056.006.062.006.118.012.286-5.139998 8.665997-30.11199 14.149995-26.223991.736.522 1.492-2.845999 1.925999-4.343998 1.948-6.725998 3.589999-14.8119953 11.713996-19.4179937-1.939999 7.2739975-.296 16.2819947-.122 23.2179917.128 5.119998-3.391998 7.127998-7.577997 8.909997-11.129996 4.739999-14.357995 12.781996-16.971994 24.187992-.098.426-.378 4.005998-.304 4.969998zm44.252185 51.526382c.459999-3.851999 1.355999-8.813997 1.757999-12.245996 1.1-9.405996 1.346-18.755993-2.061999-27.76199-1.434-3.793999-3.221999-4.915998-7.333998-2.971999-7.407997 3.503999-12.115995 9.337997-13.355995 17.317994-1.082 6.953998-4.889998 10.689996-9.133997 16.143994-3.013999 3.277999-11.003996 2.641999-15.515994-1.037999-1.726-1.41-4.631999-2.341999-6.549998-3.467999-3.785999-2.219999-3.635999-3.251999-2.787999-11.435996l2.667999.122c.364 1.453999.084 5.283998.546 5.817998 1.173999 1.365999 4.465998 3.017999 6.121998 3.577999.527999.178-.124-3.501999.483999-4.789999 2.366-5.003998 8.061998-6.733997 10.493997-.731999-7.017998-1.462-10.613997 4.619998-3.299999 8.733997 3.393999.323999 4.701998-1.154 5.657998-2.264 3.143999-3.647998 3.071999-4.039998 5.151998-10.889996 2.617999-8.613997 6.001998-16.487994 14.911995-20.003993 5.629998-2.221999 10.245996-10.973996 14.003995-16.609994 7.269998 11.595996 14.547995 51.465982-1.757999 62.497978zm-12.612396-120.9145579c8.509997 5.5359981 13.117995 20.0039929 7.459997 27.3579909.658-5.961998-1.455999-13.2539958-5.657998-17.2959944-4.283998 4.0419986-4.179998 11.7799964-3.959998 16.4079944-4.333999-4.899998-4.929998-15.8419945 2.157999-26.4699909zm-15.251595 49.5043829c-6.709997.808-8.753997 9.151997-9.375996 14.871995 1.311999-.868 3.037999-3.575999 4.403998-4.969999 2.893999 2.616 7.473997 2.13 9.497997-1.979999 2.383999-4.843998 6.303998-10.021996 6.787997-16.893994-5.655998 8.567997-7.471997 8.509997-11.313996 8.971997zm-3.839998 8.365997c-1.132-2.181999 1.091999-4.243999 5.213998-4.727998-1.214 5.091998-4.405999 5.939998-5.213998 4.727998zm7.153197 86.01897c2.303999-4.727998 21.397993-12.365996 20.609993-24.731991-2.995999 9.885996-23.277992 15.759994-20.609993 24.731991z"/></svg>