<svg height="254" preserveAspectRatio="xMidYMid" viewBox="0 0 256 254" width="256" xmlns="http://www.w3.org/2000/svg"><path d="m137.452332 220.044843c-.019995-3.127831-.524842-43.299473-13.27166-77.867421-13.272484-35.993498-35.7694325-66.1397064-35.7694325-66.1397064s46.5677525 28.3455884 67.9389765 51.9669114c18.415283 20.353 34.493384 52.399935 38.588739 60.875647-4.438953 3.277606-7.318157 8.546483-7.318157 14.487174 0 9.939852 8.058246 17.998099 17.996749 17.998099 9.939853 0 17.998099-8.058247 17.998099-17.998099 0-9.635741-7.57476-17.504039-17.095103-17.974489-2.845243-7.267781-14.882726-35.642826-39.146593-63.012906-28.120174-31.7200634-67.265431-52.8672221-67.265431-52.8672221s42.294317 13.497899 63.665541 22.9464288c18.970795 8.3872653 50.351679 25.8151333 57.161784 29.6243373-.596847 1.790027-.920088 3.70511-.920088 5.695615 0 9.939853 8.058246 17.998099 17.99675 17.998099 9.939852 0 17.998098-8.058246 17.998098-17.998099 0-9.938503-8.058246-17.996749-17.998098-17.996749-3.78628 0-7.299662 1.169564-10.198542 3.167088-6.920049-4.555177-35.235448-22.3891756-77.987284-38.7124547-49.492746-18.8970594-85.9370739-25.4205938-85.9370739-25.4205938l-6.2994696 14.172794s23.9317753 15.8600312 47.5530995 67.1520485c21.669933 47.054713 20.264588 82.465573 19.884504 87.99512-8.187932 1.687913-14.344967 8.938606-14.344967 17.625939 0 9.939854 8.058246 17.9981 17.99675 17.9981 9.939852 0 17.998098-8.058246 17.998098-17.9981 0-6.753693-3.721185-12.63911-9.225289-15.717561z" fill="#3d4c67"/><path d="m63.890281 51.2913425c0-9.4431302-7.6546586-17.0977889-17.0977888-17.0977889-9.4417805 0-17.0964392 7.6546587-17.0964392 17.0977889 0 9.4417805 7.6546587 17.0977889 17.0964392 17.0977889 9.4431302 0 17.0977888-7.6560084 17.0977888-17.0977889" fill="#f6861a" transform="matrix(1 0 0 -1 0 102.582686)"/><g fill="#3d4c67"><path d="m146.677621 18.4462294c0-9.93985294-8.058246-17.99674895-17.998098-17.99674895-9.939854 0-17.99675 8.05689601-17.99675 17.99674895 0 9.9385031 8.056896 17.996749 17.99675 17.996749 9.939852 0 17.998098-8.0582459 17.998098-17.996749" transform="matrix(1 0 0 -1 0 36.892458)"/><path d="m223.615646 52.1909766c0-9.9398529-8.058246-17.9967489-17.998099-17.9967489-9.938503 0-17.996749 8.056896-17.996749 17.9967489 0 9.9385031 8.058246 17.9967489 17.996749 17.9967489 9.939853 0 17.998099-8.0582458 17.998099-17.9967489" transform="matrix(1 0 0 -1 0 104.381954)"/><path d="m68.3898057 204.718588c0-9.939853-8.0582458-17.998098-17.9980987-17.998098-9.9385032 0-17.996749 8.058245-17.996749 17.998098 0 9.938504 8.0582458 17.996749 17.996749 17.996749 9.9398529 0 17.9980987-8.058245 17.9980987-17.996749" transform="matrix(1 0 0 -1 0 409.435826)"/><path d="m35.9948477 127.780562c0-9.939853-8.0582458-17.998099-17.9980987-17.998099-9.9385032 0-17.996749 8.058246-17.996749 17.998099 0 9.938503 8.0582458 17.996749 17.996749 17.996749 9.9398529 0 17.9980987-8.058246 17.9980987-17.996749" transform="matrix(1 0 0 -1 0 255.559774)"/></g></svg>