<svg height="248" preserveAspectRatio="xMidYMid" viewBox="0 0 512 248" width="512" xmlns="http://www.w3.org/2000/svg"><path d="m481.1582 247.153h-450.316c-17.034 0-30.842-13.808-30.842-30.842v-185.47c0-17.033 13.808-30.841 30.842-30.841h450.316c17.033 0 30.842 13.808 30.842 30.841v185.47c0 17.034-13.809 30.842-30.842 30.842" fill="#f04"/><path d="m125.6714 119.308c6.021 0 10.571-1.805 10.571-8.495 0-6.825-4.951-9.233-10.571-9.233h-12.444v17.728zm-42.417-43.308h42.685c30.374 0 42.492 13.064 42.492 32.601 0 14.56-7.072 22.293-17.509 27.646l21.195 31.207h-34.649l-17.325-26.6h-6.916v26.6h-29.973zm105.0916 0h29.973v91.454h-29.973zm97.5157 0c31.157 0 49.718 22.328 49.718 47.527 0 24.939-18.429 47.266-49.718 47.266s-49.85-22.327-49.85-47.266c0-25.199 18.694-47.527 49.85-47.527zm85.5533 25.607h-27.698v-25.607h85.236v25.607h-27.698v65.847h-29.84zm-85.5533 42.397c10.109 0 18.649-7.942 18.649-20.477 0-12.534-6.825-20.737-18.649-20.737s-18.649 8.203-18.649 20.737c0 12.535 8.54 20.477 18.649 20.477z" fill="#fff"/></svg>