<svg height="256" preserveAspectRatio="xMidYMid" viewBox="0 0 256 256" width="256" xmlns="http://www.w3.org/2000/svg"><path d="m169.140203 255.189829s6.040056-29.174432 31.291404-64.193075c17.551288-10.140329 35.152314-22.565498 50.061273-37.471347 13.783635-68.352413-7.140509-141.6879494-7.140509-141.6879494s-73.335536-20.92103587-141.68484-7.13739941c-14.9120672 14.91517541-27.331018 32.51620151-37.4713477 50.06127241-35.0279693 25.2451312-64.1961833 31.2851866-64.1961833 31.2851866s23.3302191 16.0187368 34.5865447 34.1948588c-4.7934973 13.827156-7.0472494 22.736471-7.0472494 22.736471 1.824762 8.533172 7.224441 18.486984 14.6758114 28.530946-5.1447718 4.078515-11.1755014 8.321785-17.7284796 11.868725-.7833731.432099-1.5853979.845546-2.3843142 1.249667 5.6234998 18.549156 30.4614013 41.910461 48.5535899 48.205424.3668176-.72431.7491783-1.439293 1.1377563-2.151167 3.6495239-6.730171 8.0295744-12.913223 12.2075644-18.151253 10.1372211 7.355003 20.0444035 12.835506 28.2076495 15.111019 0 0 8.918641-2.250644 22.742689-7.044141 18.169904 11.259434 34.188641 34.592762 34.188641 34.592762zm-51.553411-61.780783c-10.404564-4.507504-24.2223946-15.60529-33.6415238-25.030637-12.7360303-12.73603-19.6371745-23.585125-22.2857217-30.337056 4.4733092-15.247797 21.6577797-67.9203139 54.6620345-103.3306438 39.802816-6.7581474 81.498783.5067057 99.646926 4.507504 3.99769 18.1419266 11.271868 59.8472191 4.507504 99.6469258-35.192726 32.830172-87.103629 49.902732-102.889219 54.543907z" fill="#54a3da"/><circle cx="152.474869" cy="103.050868" fill="#f1616e" r="27.259519"/></svg>