<svg height="219" preserveAspectRatio="xMidYMid" viewBox="0 0 256 219" width="256" xmlns="http://www.w3.org/2000/svg"><path d="m255.950264 109.306711c0-12.8522496-3.844689-25.1731403-11.42933-36.6305723-6.810594-10.2823107-16.352068-19.384391-28.356187-27.0558889-23.180543-14.8065275-53.646838-22.9634016-85.781294-22.9634016-10.734477 0-21.315678.9068871-31.5775517 2.7053334-6.3660915-5.9599082-13.8204474-11.3220376-21.7065328-15.56013778-42.1357599-20.42156332-77.07773413-.48026694-77.07773413-.48026694s32.48699273 26.68802492 27.20405643 50.08060122c-14.5331841 14.4182266-22.41160551 31.8049116-22.41160551 49.9043329 0 .056202.00255461.114958.00255461.173714 0 .056201-.00255461.112403-.00255461.173713 0 18.099422 7.87586691 35.486107 22.41160551 49.901779 5.2829363 23.395131-27.20405643 50.083155-27.20405643 50.083155s34.94197423 19.938743 77.07773413-.480267c7.8860854-4.2381 15.3378867-9.602784 21.7065328-15.560137 10.2644287 1.795892 20.8430747 2.702779 31.5775517 2.702779 32.13701 0 62.600751-8.151766 85.781294-22.958293 12.004119-7.671497 21.545593-16.771023 28.356187-27.058444 7.584641-11.454877 11.42933-23.780877 11.42933-36.628017 0-.058756-.002554-.114957-.002554-.173713s.002554-.120067.002554-.176269z" fill="#c1272d"/><path d="m130.383453 40.8277989c59.504562 0 107.745843 30.8137223 107.745843 68.8237851 0 38.007508-48.241281 68.823785-107.745843 68.823785-13.25077 0-25.939525-1.532767-37.662636-4.324958-11.9147074 14.33137-38.12502 34.259894-63.5868315 27.819719 8.2820501-8.895158 20.5518485-23.926491 17.925708-48.685784-15.2612483-11.873833-24.4220847-27.071217-24.4220847-43.632762-.0025546-38.0126175 48.2387265-68.8237851 107.7458442-68.8237851" fill="#fff"/><path d="m130.383453 126.17992c7.90512 0 14.313487-6.408368 14.313487-14.313489 0-7.90512-6.408367-14.3134867-14.313487-14.3134867-7.905121 0-14.313488 6.4083667-14.313488 14.3134867 0 7.905121 6.408367 14.313489 14.313488 14.313489zm49.763829 0c7.90512 0 14.313488-6.408368 14.313488-14.313489 0-7.90512-6.408368-14.3134867-14.313488-14.3134867-7.905121 0-14.313487 6.4083667-14.313487 14.3134867 0 7.905121 6.408366 14.313489 14.313487 14.313489zm-99.5302137-.002555c7.9037101 0 14.3109329-6.407224 14.3109329-14.310934 0-7.903709-6.4072228-14.3109322-14.3109329-14.3109322-7.9037099 0-14.3109328 6.4072232-14.3109328 14.3109322 0 7.90371 6.4072229 14.310934 14.3109328 14.310934z" fill="#c1272d"/><path d="m130.383453 169.419271c-13.25077 0-25.939525-1.328398-37.662636-3.750169-10.5198896 10.969501-32.1881032 25.714718-54.6431371 25.17314-2.95824 4.483343-6.1744957 8.149211-8.9436944 11.125333 25.4618115 6.440175 51.6721241-13.485794 63.5868315-27.819718 11.723111 2.794745 24.414421 4.324957 37.662636 4.324957 59.02685 0 106.961577-30.325791 107.725406-67.914343-.763829 32.581513-48.698556 58.8608-107.725406 58.8608z" fill="#ccc"/></svg>