<svg height="201" preserveAspectRatio="xMidYMid" viewBox="0 0 256 201" width="256" xmlns="http://www.w3.org/2000/svg"><path d="m256 21.9277945c-.461276-11.5975225-.788809-29.23984739-26.602525-18.69502527-43.069259 15.82751347-86.386898 31.06973657-129.067212 47.91568277-32.3398161 12.7694739-67.761174 26.7616154-85.993859 95.115858-4.77652682 17.909612-9.55714777 35.823336-14.336404 53.73569h41.0549301c3.8635278-14.485595 7.729785-28.969819 11.5946775-43.455413 13.0549301-48.949194 38.6966906-59.0745805 62.1057664-68.3172343 33.593995-13.2574444 67.635619-25.371722 101.536676-37.8300463v149.6026936h39.70795z" fill="#3a4757"/><path d="m98.9821277 108.153907c-4.1763405 2.321702-8.1702128 5.013787-11.9162554 8.348596-12.6202553 11.231319-19.4614468 27.265362-23.7494468 43.276255l-10.7955744 40.279149h46.4612766z" fill="#f7941e"/><path d="m150.721362 87.1292263c-10.74383 4.0074893-21.461788 8.0857872-32.137532 12.2798297-2.854128 1.123404-5.672851 2.235915-8.438468 3.404255v97.244596h40.576z" fill="#bfd730"/><path d="m204.651574 200.057907v-132.6665531c-14.261106 5.184-28.531744 10.3462128-42.76834 15.5982979v117.0682552z" fill="#00bad9"/></svg>