<svg height="129" preserveAspectRatio="xMidYMid" viewBox="0 0 256 129" width="256" xmlns="http://www.w3.org/2000/svg"><path d="m.86040237.53926627v127.53344373h179.78470963l14.843456-32.0787692 15.081278 32.3150772h44.974201v-127.77732569z" fill="#d9222a"/><g fill="#fff"><path d="m232.710059 95.9666746-30.895716-70.5302722.012119-.0045444h-.012119v-.007574l-.004544.007574h-12.407669l-30.198911 70.5620828h13.307456l22.990011-55.3338698 23.974628 55.3338698z"/><path d="m71.2906982 65.7677633c9.6977042-3.6218698 14.336-11.6305799 14.2239054-19.7907692-.1726864-12.3864616-9.8885681-21.0328994-23.6307693-21.0328994h-29.7156923v70.9347219h10.8216805v-60.5765681h18.2774911c6.1258225 0 12.7045681 3.1871243 12.8121184 10.8247101.0924023 6.8029349-4.9851835 11.051929-13.5892071 11.4185089l-.1681421.0075739-6.5560236.0560474 21.8296804 38.384852 12.7833373-.0272662s-10.5020591-18.5562131-17.0883787-30.1989113"/><path d="m100.183858 43.2609704c0 14.1254438 14.017893 18.1108639 24.916828 21.1828639 11.353373 3.2098462 15.308497 6.8286864 15.308497 12.3137515 0 9.1493491-9.279621 10.5777988-15.019171 10.5777988-7.881468 0-14.382959-2.2009941-20.745089-6.1288521l-5.4290177 9.1993373c8.0268877 4.9488284 16.3461307 7.255858 26.1741067 7.255858 16.417325 0 27.323834-8.5055621 27.323834-21.6706272 0-14.7025799-13.268071-18.7713136-24.423006-21.9251124-11.362461-3.211361-15.805349-5.9258699-15.805349-11.4139645 0-8.3101539 10.171834-9.1175385 13.814911-9.1175385 5.730462 0 13.015101 1.9192426 17.329231 4.1459882l4.567101-8.9918107c-5.816805-3.0083787-14.74045-5.0215384-22.200805-5.0215384-15.873515 0-25.812071 7.2270769-25.812071 19.5938461"/></g></svg>