<svg height="256" preserveAspectRatio="xMidYMid" viewBox="0 0 256 256" width="256" xmlns="http://www.w3.org/2000/svg" xmlns:xlink="http://www.w3.org/1999/xlink"><linearGradient id="a" x1="67.621528%" x2="37.048611%" y1="100.512713%" y2="13.665376%"><stop offset=".17" stop-color="#ff1f51"/><stop offset=".28" stop-color="#ff3648"/><stop offset=".47" stop-color="#ff593b"/><stop offset=".65" stop-color="#ff7231"/><stop offset=".81" stop-color="#ff812b"/><stop offset=".94" stop-color="#ff8629"/></linearGradient><linearGradient id="b" x1="61.538462%" x2="43.605769%" y1="22.903698%" y2="91.688026%"><stop offset=".02" stop-color="#9039d0"/><stop offset=".63" stop-color="#ff1f51"/></linearGradient><linearGradient id="c" x1=".474684%" x2="81.833465%" y1="8.066034%" y2="97.528013%"><stop offset=".11" stop-color="#9039d0"/><stop offset=".39" stop-color="#ff1f51"/><stop offset=".63" stop-color="#ff1f51"/><stop offset=".66" stop-color="#ff3648"/><stop offset=".71" stop-color="#ff593b"/><stop offset=".77" stop-color="#ff7231"/><stop offset=".81" stop-color="#ff812b"/><stop offset=".85" stop-color="#ff8629"/></linearGradient><path d="m212.48 0-72.54 26.46-58.02-26.46-56.32 142.5 64.86-26.44-.86 72.52 139.1 2.56 27.3-140.8z" fill="url(#a)"/><path d="m186.02 82.78-92.16-60.6-74.24 46.08 163 63.16z" fill="url(#b)"/><path d="m106.66 249.18 95.58-12.8-30.72-58.88 20.48-23.9 1.7-15.36-99.84-116.06-93.86 23.04v134.84l53.76 75.94z" fill="url(#c)"/><path d="m42.66 42.66h170.66v170.66h-170.66z"/><path d="m126.3 59.74h17.06l17.92 32.42 18.78-32.42h16.2v76.8h-15.36v-50.36l-19.62 33.28-19.62-32.42v49.5h-15.36zm-66.56 0h31.56c8.5333333 0 15.36 2.56 20.48 7.68 4.26 4.26 6 10.24 6 18 .018423 5.4141811-1.455534 10.7287295-4.26 15.36-2.466739 4.165845-6.44103 7.223542-11.1 8.54l17.06 27.3h-18l-14.44-23.98h-12.8v23.9h-15.36v-76.8zm30.72 37.54c3.0620834.2030749 6.0945691-.7059606 8.54-2.56 2.128606-1.9943542 3.361813-4.7636625 3.42-7.68.167678-3.2104827-1.082669-6.3326939-3.42-8.54-2.4536503-1.8327046-5.4853786-2.7202128-8.54-2.5h-15.36v22.14h15.36zm-30.72 87.9h64v10.24h-64z" fill="#fff"/></svg>