<svg height="256" preserveAspectRatio="xMidYMid" viewBox="0 0 256 256" width="256" xmlns="http://www.w3.org/2000/svg"><path d="m254.251166 124.861882-10.747382-6.652909c-.0905-1.046854-.193228-2.091263-.305741-3.13078l9.235802-8.614538c.939235-.87564 1.359933-2.171979 1.105557-3.426737-.247038-1.25965-1.130016-2.296721-2.330964-2.744325l-11.806466-4.4148891c-.295957-1.0223955-.606589-2.0374532-.924559-3.0476191l7.364672-10.2288466c.750898-1.0395169.904991-2.3921119.415807-3.5783841-.489185-1.1813804-1.558053-2.0276695-2.822594-2.2355729l-12.449744-2.0252236c-.484293-.9441259-.988153-1.8735764-1.496905-2.795689l5.231828-11.4836047c.535657-1.1691508.42559-2.5290836-.288619-3.5906138-.711763-1.0664221-1.917603-1.6901322-3.204158-1.6412138l-12.635634.440266c-.653061-.816938-1.318352-1.6265382-1.995872-2.4214629l2.903309-12.3078805c.293511-1.2498662-.075823-2.5584346-.985706-3.4658717-.902546-.9049913-2.21356-1.2792173-3.463426-.9857067l-12.305435 2.9008637c-.79737-.6750745-1.606971-1.3428112-2.426355-1.9958725l.442712-12.635634c.048919-1.2792173-.574791-2.4948406-1.641214-3.2041581-1.068868-.7142092-2.421462-.8218298-3.588167-.2910647l-11.481159 5.2342735c-.927005-.5087518-1.856455-1.0126118-2.795689-1.4993503l-2.030116-12.4521899c-.205457-1.2620958-1.051746-2.3334098-2.235572-2.8225942-1.181381-.49163036-2.536422-.33264542-3.575939.4158068l-10.236184 7.3646717c-1.00772-.3204158-2.020332-.628602-3.042727-.9221127l-4.41489-11.80891231c-.447604-1.20339372-1.484675-2.08637163-2.744325-2.33585569-1.257204-.24703814-2.551096.17121455-3.424291 1.10555683l-8.614538 9.24313997c-1.039516-.1149584-2.086371-.220133-3.13078-.3057403l-6.652908-10.74982801c-.672629-1.08843538-1.863793-1.75128029-3.145456-1.75128029s-2.472828.66284491-3.14301 1.75128029l-6.652909 10.74982801c-1.046854.0856073-2.093709.1907819-3.133226.3057403l-8.616984-9.24313997c-.873194-.93434228-2.169533-1.35259497-3.424291-1.10555683-1.25965.25192999-2.296721 1.13246197-2.744325 2.33585569l-4.4148891 11.80891231c-1.0223955.2935107-2.0350073.6041428-3.0451731.9221127l-10.2337385-7.3646717c-1.0395169-.75089814-2.3945578-.90988308-3.5783841-.4158068-1.1813805.4891844-2.0301155 1.5604984-2.2355729 2.8225942l-2.0301154 12.4521899c-.9392342.4867385-1.8686846.9881525-2.7956891 1.4993503l-11.4811588-5.2342735c-1.1667048-.533211-2.5266376-.4231445-3.5881678.2910647-1.0664221.7093175-1.6901322 1.9249408-1.6412138 3.2041581l.440266 12.635634c-.816938.6530613-1.6265383 1.320798-2.4263548 1.9958725l-12.3054345-2.9008637c-1.2498663-.2910647-2.5608806.0807154-3.4658718.9857067-.909883.9074371-1.2792173 2.2160055-.9857066 3.4658717l2.8984178 12.3078805c-.6726286.7973706-1.3379195 1.6045249-1.9909807 2.4214629l-12.635634-.440266c-1.2743255-.0366888-2.4923947.5747917-3.2041581 1.6412138-.7142093 1.0615302-.8218298 2.421463-.2910647 3.5906138l5.2342735 11.4836047c-.5087519.9221126-1.0126118 1.8515631-1.4993503 2.795689l-12.449744 2.0252236c-1.2645418.2054575-2.3309638 1.0517465-2.8225942 2.2355729-.48918444 1.1862722-.33019949 2.5388672.4158068 3.5783841l7.3646717 10.2288466c-.3204158 1.0101659-.6310479 2.0252236-.9245586 3.0476191l-11.80891233 4.4148891c-1.19850187.447604-2.08147978 1.484675-2.33096385 2.744325-.24948406 1.257204.16876863 2.551097 1.10555683 3.426737l9.23824815 8.614538c-.1149584 1.039517-.2176871 2.086372-.3057403 3.13078l-10.74738211 6.652909c-1.08843538.672628-1.75128029 1.861347-1.75128029 3.145456s.66284491 2.472827 1.75128029 3.14301l10.74738211 6.652908c.0880532 1.046855.1907819 2.091264.3057403 3.130781l-9.23824815 8.616983c-.9367882.873195-1.35504089 2.169533-1.10555683 3.424291.24948407 1.25965 1.13246198 2.294275 2.33096385 2.744325l11.80891233 4.41489c.2935107 1.022395.6041428 2.037453.9245586 3.047619l-7.3646717 10.231292c-.74845222 1.041963-.90743716 2.394558-.4158068 3.575939.4916304 1.186272 1.5604984 2.032561 2.8250401 2.235572l12.4472981 2.025224c.4867385.944126.9857066 1.873576 1.4993503 2.800581l-5.2342735 11.478713c-.5332111 1.166705-.4231446 2.524191.2910647 3.590613.7142093 1.068868 1.9298326 1.692579 3.2041581 1.641214l12.6307422-.442712c.657953.82183 1.3207979 1.626539 1.9958725 2.426355l-2.8984178 12.310327c-.2935107 1.24742.0758236 2.551096.9857066 3.458534.9025453.912329 2.2160055 1.276771 3.4658718.98326l12.3054345-2.898418c.7998165.679967 1.6094168 1.340366 2.4263548 1.990981l-.440266 12.63808c-.0489184 1.279217.5747917 2.492395 1.6412138 3.206604 1.0615302.711763 2.421463.819384 3.5881678.286173l11.4811588-5.231828c.9245586.513644 1.854009 1.012612 2.7956891 1.499351l2.0301154 12.444852c.2054574 1.266987 1.0517465 2.338301 2.2355729 2.82504 1.1813804.49163 2.5388672.332645 3.5783841-.413361l10.2288466-7.369563c1.0101659.320415 2.0252236.633493 3.0476191.927004l4.41489 11.804021c.447603 1.198501 1.484674 2.086371 2.744324 2.330963 1.257204.254376 2.551097-.166322 3.424291-1.105556l8.616984-9.238249c1.039517.119851 2.086372.220133 3.133226.313078l6.652909 10.747383c.670183 1.083543 1.861347 1.75128 3.14301 1.75128s2.472827-.665291 3.145456-1.75128l6.652908-10.747383c1.046855-.092945 2.091264-.193227 3.130781-.313078l8.614537 9.238249c.873195.939234 2.169533 1.359932 3.424292 1.105556 1.259649-.247038 2.29672-1.132462 2.744324-2.330963l4.41489-11.804021c1.022395-.293511 2.037453-.606589 3.047619-.927004l10.231292 7.369563c1.039517.746006 2.394558.904991 3.575939.413361 1.183826-.486739 2.030115-1.560498 2.235572-2.82504l2.030116-12.444852c.939234-.486739 1.868684-.993045 2.795689-1.499351l11.481159 5.231828c1.166705.533211 2.524191.42559 3.588168-.286173 1.066422-.714209 1.687686-1.924941 1.641213-3.206604l-.440266-12.63808c.816938-.653061 1.626539-1.311014 2.423909-1.990981l12.305435 2.898418c1.249866.293511 2.56088-.070931 3.463426-.98326.909883-.907438 1.279217-2.211114.985706-3.458534l-2.898418-12.310327c.675075-.799816 1.340366-1.604525 1.990981-2.426355l12.635634.442712c1.274326.051365 2.492395-.572346 3.204158-1.641214.714209-1.066422.824276-2.423908.288619-3.590613l-5.231828-11.478713c.511198-.927005 1.012612-1.856455 1.496905-2.800581l12.449744-2.025224c1.266987-.203011 2.33341-1.0493 2.822594-2.235572.489184-1.181381.335091-2.533976-.415807-3.575939l-7.364671-10.231292c.317969-1.010166.628602-2.025224.924558-3.047619l11.806467-4.41489c1.200947-.45005 2.086371-1.484675 2.330963-2.744325.254376-1.257204-.166322-2.551096-1.105556-3.424291l-9.235803-8.616983c.112513-1.039517.215241-2.086372.305741-3.130781l10.747382-6.652908c1.088435-.670183 1.75128-1.861347 1.75128-3.14301s-.660399-2.472828-1.748834-3.145456zm-71.932126 89.15631c-4.104257-.885424-6.714056-4.93098-5.833524-9.047467.878086-4.111595 4.921195-6.728732 9.023007-5.843308 4.104257.878086 6.718948 4.930979 5.838416 9.040129-.880532 4.109149-4.926088 6.728732-9.027899 5.850646zm-3.651762-24.698923c-3.744707-.802262-7.428266 1.580066-8.230528 5.332111l-3.815639 17.806313c-11.774669 5.34434-24.850569 8.31369-38.621111 8.31369-14.086066 0-27.445693-3.116105-39.4307116-8.687916l-3.8131927-17.806313c-.8022625-3.747153-4.4858213-6.134373-8.2280822-5.329665l-15.719942 3.375373c-2.9179851-3.003593-5.6329588-6.202859-8.1277994-9.580677h76.4888789c.865856 0 1.443094-.15654 1.443094-.944126v-27.056792c0-.787587-.577238-.944126-1.443094-.944126h-22.370405v-17.150806h24.195063c2.208667 0 11.808912.631048 14.878544 12.902239.961248 3.774058 3.072079 16.050142 4.515173 19.980739 1.438202 4.407552 7.29374 13.212872 13.533287 13.212872h38.114806c.432928 0 .895207-.048919 1.381946-.136972-2.644042 3.59306-5.544906 6.992891-8.668348 10.170144zm-105.7910264 24.327142c-4.1042574.885424-8.1449209-1.731713-9.0278988-5.843308-.878086-4.118933 1.7317129-8.162042 5.8359704-9.047466 4.1042574-.878086 8.1473668 1.739051 9.0278988 5.850646.878086 4.109149-1.7341589 8.159596-5.8359704 9.040128zm-29.0159749-117.6610865c1.7023618 3.8425437-.0293511 8.3454865-3.867003 10.0454025-3.8376519 1.704808-8.328365-.029351-10.0307269-3.874341-1.7023618-3.8449895.0293511-8.3405945 3.867003-10.0454023 3.8400978-1.7023618 8.3283651.0293511 10.0307269 3.8743408zm-8.9178323 21.1401055 16.375449-7.276619c3.4976688-1.55316 5.0777345-5.652526 3.5245739-9.157532l-3.3729267-7.6263856h13.2642361v59.7881216h-26.7608347c-2.3211802-8.159596-3.5661546-16.771688-3.5661546-25.672399 0-3.397386.1834442-6.755637.535657-10.055186zm71.8611936-5.806619v-17.6228697h31.586639c1.631431 0 11.520294 1.885806 11.520294 9.2798287 0 6.139265-7.584805 8.340595-13.821906 8.340595h-29.285027zm114.79202 15.861805c0 2.338302-.085607 4.652144-.256821 6.948865h-9.602691c-.961247 0-1.347703.631048-1.347703 1.572728v4.409998c0 10.380493-5.853092 12.63808-10.982191 13.212871-4.884506.550333-10.299778-2.044791-10.967515-5.033708-2.881296-16.20668-7.682641-19.66766-15.265-25.64794 9.409463-5.975388 19.200489-14.790491 19.200489-26.5896197 0-12.7408087-8.734388-20.7658794-14.687763-24.7013682-8.352824-5.5057708-17.600856-6.6088818-20.095696-6.6088818h-99.311779c13.4672476-15.0301918 31.7187189-25.6772911 52.362302-29.5516318l11.706184 12.2809753c2.646488 2.7712298 7.02958 2.8739585 9.798364.2250248l13.097913-12.5280134c27.445693 5.1095314 50.681954 22.1942979 64.073378 45.6335702l-8.966751 20.2522356c-1.548268 3.505007.031797 7.604372 3.52702 9.157533l17.263319 7.667966c.298402 3.06474.454941 6.161278.454941 9.299396zm-99.243292-102.4352212c3.032943-2.9057556 7.844072-2.7907972 10.747382.2470381 2.898418 3.0451732 2.788351 7.8611939-.25193 10.7645036-3.032944 2.9057555-7.844073 2.7932431-10.747382-.2494841-2.895972-3.0402813-2.785906-7.8563021.25193-10.7620576zm88.982649 71.6092639c1.699916-3.8425437 6.190629-5.5767026 10.028281-3.8718948 3.837652 1.7023618 5.569365 6.2028587 3.867003 10.0454021-1.699916 3.84499-6.190629 5.579149-10.030727 3.874341-3.83276-1.702362-5.564473-6.200413-3.864557-10.0478483z"/></svg>