<svg height="256" preserveAspectRatio="xMidYMid" viewBox="0 0 256 256" width="256" xmlns="http://www.w3.org/2000/svg"><rect fill="#78787a" height="256" rx="14" width="256"/><g transform="translate(12 80)"><path d="m68.4370779 34.4952847c0 18.8280053-15.2631612 34.0898263-34.0911665 34.0898263s-34.08982632-15.261821-34.08982632-34.0898263 15.26182102-34.09116647 34.08982632-34.09116647 34.0911665 15.26316117 34.0911665 34.09116647" fill="#fff"/><path d="m53.5704077 34.4949925c0 10.61722-8.606984 19.2234484-19.2242041 19.2234484-10.61722 0-19.2234484-8.6062284-19.2234484-19.2234484 0-10.6172201 8.6062284-19.2242041 19.2234484-19.2242041 10.6172201 0 19.2242041 8.606984 19.2242041 19.2242041" fill="#1b94b8"/></g><g transform="translate(176 80)"><path d="m69.167646 34.4952847c0 18.8280053-15.2631613 34.0898263-34.0911665 34.0898263-18.8280053 0-34.08982632-15.261821-34.08982632-34.0898263s15.26182102-34.09116647 34.08982632-34.09116647c18.8280052 0 34.0911665 15.26316117 34.0911665 34.09116647" fill="#fff"/><path d="m54.3009758 34.4949925c0 10.61722-8.6069841 19.2234484-19.2242041 19.2234484s-19.2234484-8.6062284-19.2234484-19.2234484c0-10.6172201 8.6062284-19.2242041 19.2234484-19.2242041s19.2242041 8.606984 19.2242041 19.2242041" fill="#1b94b8"/></g><path d="m127.903 209.484c-17.907 0-38.038-5.336-58.089-21.416-3.734-2.994-4.33-8.444-1.34-12.174 3.002-3.733 8.448-4.329 12.173-1.34 48.448 38.867 96.529 2.085 98.55.495 3.763-2.948 9.2-2.296 12.156 1.45 2.951 3.751 2.326 9.175-1.416 12.14-.398.317-26.926 20.845-62.034 20.845"/></svg>