<svg height="192" preserveAspectRatio="xMidYMid" viewBox="0 0 256 192" width="256" xmlns="http://www.w3.org/2000/svg"><path d="m220.281239 110.513661c-8.906376.04663-16.646995 2.191621-23.128598 5.362477-2.378142-4.709653-4.756284-8.906375-5.175956-11.98397-.466302-3.590529-1.025865-5.7821498-.466302-10.0721316.559562-4.2899818 3.077595-10.3985428 3.030965-10.8648451-.04663-.4663024-.559563-2.6579235-5.688889-2.7045538-5.129326-.0466302-9.559199.979235-10.072131 2.3315119-.512933 1.3522768-1.492168 4.4298725-2.144991 7.6007286-.885975 4.6630236-10.258652 21.310018-15.621129 30.029872-1.725319-3.404007-3.217487-6.388342-3.543898-8.766484-.466303-3.590528-1.025866-5.782149-.466303-10.072131s3.077596-10.398543 3.030966-10.8648454c-.046631-.4663024-.559563-2.6579235-5.688889-2.7045537-5.129326-.0466303-9.559199.979235-10.072131 2.3315118-.512933 1.3522769-1.072496 4.523133-2.144991 7.6007286-1.072496 3.0775957-13.522769 30.8692167-16.786885 38.0502737-1.678689 3.683788-3.124226 6.621493-4.150092 8.626593s-.04663.139891-.186521.373042c-.885974 1.725319-1.398907 2.657924-1.398907 2.657924v.04663c-.699453 1.259016-1.445537 2.424772-1.818579 2.424772-.279781 0-.792714-3.357377.093261-7.92714 1.865209-9.652459 6.295082-24.667395 6.248451-25.180328 0-.279781.839345-2.891075-2.891074-4.243351-3.637159-1.352277-4.942805.885974-5.269217.885974s-.559563.792714-.559563.792714 4.056831-16.8801456-7.740619-16.8801456c-7.367578 0-17.5329693 8.0670306-22.5690349 15.3413476-3.1708561 1.725319-9.9322404 5.409108-17.1599271 9.372678-2.751184 1.538798-5.5956284 3.077596-8.2535519 4.523133-.186521-.186521-.3730419-.419672-.5595628-.606193-14.2688525-15.248088-40.6615665-26.0196723-39.5424408-46.4903463.4196721-7.4608379 2.9843351-27.0455373 50.6870673-50.8269581 39.2626592-19.35154824 70.5049182-13.989071 75.9140252-2.0983606 7.74062 16.9734062-16.740255 48.4954462-57.3085607 53.0652094-15.4812386 1.7253188-23.5948998-4.2433515-25.6466302-6.4816029-2.1449909-2.3315118-2.4714026-2.4714025-3.2641166-2.0051002-1.3056466.6994536-.4663024 2.7978143 0 4.0102004 1.2123862 3.1708561 6.2018215 8.7664845 14.6418944 11.5176685 7.4608379 2.4247723 25.6000001 3.7770492 47.5628411-4.7096539 24.574135-9.5125683 43.785793-35.9519126 38.143534-58.1012751-5.642259-22.4757741-42.946448-29.88998175-78.2455372-17.34644805-20.9836066 7.46083785-43.7391622 19.21165755-60.1063753 34.50637525-19.44480871 18.1857923-22.52240434 33.9934426-21.26338795 40.6149362 4.52313297 23.5016394 36.93114755 38.7963574 49.89435335 50.1275044-.6528233.373042-1.2590164.699454-1.771949.979235-6.4816029 3.217486-31.1956284 16.134062-37.3508196 29.796721-6.99453557 15.481239 1.1191256 26.579235 6.4816029 28.071403 16.6469945 4.616393 33.7602914-3.683789 42.9464481-17.393078 9.1861566-13.70929 8.0670309-31.52204 3.8236794-39.682332-.0466303-.09326-.0932605-.186521-.186521-.279781 1.6786885-.979235 3.4040073-2.0051 5.0826958-2.984335 3.3107468-1.95847 6.5748634-3.77705 9.3726776-5.269217-1.585428 4.336612-2.7511839 9.512568-3.3107468 16.973406-.6994535 8.766485 2.8910747 20.144262 7.6007286 24.620765 2.0983607 1.95847 4.5697632 2.0051 6.1551913 2.0051 5.5023679 0 7.9737705-4.569763 10.7249548-9.97887 3.357377-6.621494 6.388342-14.315483 6.388342-14.315483s-3.777049 20.797085 6.481603 20.797085c3.730419 0 7.507468-4.849544 9.186157-7.320947v.046631s.09326-.139891.279781-.466303c.373042-.606193.606193-.979235.606193-.979235v-.09326c1.492168-2.611294 4.849545-8.533334 9.83898-18.372314 6.434973-12.683424 12.636794-28.537704 12.636794-28.537704s.559563 3.870309 2.471403 10.305282c1.119126 3.777049 3.450637 7.92714 5.315847 11.93734-1.492168 2.098361-2.424772 3.264117-2.424772 3.264117s0 0 .04663.04663c-1.212386 1.585428-2.518033 3.310747-3.96357 4.989436-5.082696 6.06193-11.144627 13.009836-11.983971 15.014936-.979235 2.378142-.746084 4.103461 1.119125 5.502368 1.352277 1.025865 3.77705 1.165756 6.248452 1.025865 4.569763-.326412 7.78725-1.445537 9.372678-2.144991 2.471402-.885974 5.362477-2.238251 8.067031-4.243351 4.989435-3.683789 8.0204-8.953006 7.740619-15.900911-.139891-3.82368-1.398907-7.647359-2.937705-11.237887.466302-.652824.885975-1.305647 1.352277-1.95847 7.88051-11.517669 13.989071-24.154463 13.989071-24.154463s.559563 3.87031 2.471403 10.305282c.932604 3.264117 2.844444 6.808015 4.523133 10.258653-7.414208 6.0153-11.983971 13.009836-13.61603 17.579599-2.937705 8.486703-.652823 12.310382 3.683789 13.196357 1.95847.419672 4.756284-.512933 6.808015-1.398907 2.611293-.839344 5.688889-2.284882 8.626593-4.429873 4.989436-3.683788 9.79235-8.813114 9.512569-15.76102-.139891-3.170856-.979235-6.295082-2.144991-9.326047 6.295082-2.611293 14.408743-4.056831 24.760656-2.844445 22.195992 2.611294 26.579235 16.460474 25.73989 22.289254-.839344 5.828779-5.502368 8.999635-7.041165 9.97887-1.538798.979235-2.051731 1.305647-1.91184 2.0051.186521 1.025866.932605.979235 2.238251.792714 1.818579-.326411 11.657559-4.709653 12.077232-15.434608.699453-13.709289-12.357013-28.677596-35.43898-28.537705zm-171.2262299 57.728233c-7.3675774 8.020401-17.6262295 11.051366-22.056102 8.486703-4.7562841-2.751184-2.8910747-14.595264 6.1551913-23.081967 5.5023679-5.175956 12.5901639-9.97887 17.2998178-12.916575 1.0724955-.652824 2.6579235-1.585428 4.5697632-2.751184.3264117-.186521.5129326-.279782.5129326-.279782l1.1191257-.699453c3.3107468 12.123861.1398907 22.802185-7.6007286 31.242258zm53.6247719-36.464845c-2.564663 6.248452-7.9271398 22.242623-11.1912564 21.356649-2.7978142-.746084-4.523133-12.869946-.5595629-24.853917 2.0051002-6.0153 6.2484518-13.196357 8.7198543-15.994171 4.0102-4.476503 8.440073-5.96867 9.512568-4.150091 1.352277 2.378142-4.896175 19.72459-6.481603 23.64153zm44.252095 21.170128c-1.072495.559563-2.098361.932604-2.564663.652823-.326412-.186521.466302-.932605.466302-.932605s5.548999-5.96867 7.74062-8.673224c1.259016-1.585428 2.751184-3.450637 4.336612-5.548998v.606193c0 7.134426-6.901275 11.937341-9.978871 13.895811zm34.133333-7.78725c-.792714-.559563-.652823-2.424772 2.005101-8.253552 1.025865-2.284881 3.450637-6.108561 7.600728-9.792349.466303 1.492167.792714 2.937704.746084 4.289981-.04663 8.999636-6.481603 12.357013-10.351913 13.75592z" fill="#cd6799"/></svg>