<svg height="332" preserveAspectRatio="xMidYMid" viewBox="0 0 256 332" width="256" xmlns="http://www.w3.org/2000/svg"><g fill="#4a4a4a" transform="translate(0 280)"><path d="m10.2052207 40.4053673c-2.92615138 0-7.12210357-.717004-9.77185656-1.6002549l1.2698008-5.9073785c2.20914741.6619283 5.13325896 1.2137051 8.11448606 1.2137051 2.3753944 0 2.7619442-.6619282 2.7619442-2.2642231 0-1.7093864-.0560956-1.9307091-4.36219918-2.9802071-6.51423108-1.600255-7.12108367-3.366757-7.12108367-8.3919044 0-5.6870757 2.20812749-8.0594104 10.26855775-8.0594104 2.0418805 0 5.7962072.2753785 8.1705817.883251l-.7180239 6.182757c-2.3733546-.4416255-5.299506-.7730996-7.398502-.7730996-2.31827889 0-2.8710757.6068526-2.8710757 1.8215777 0 1.6573705.22234263 1.8776733 3.4228526 2.5956972 7.6759203 1.7104064 8.2276972 3.3677769 8.2276972 8.7213386 0 5.5218486-2.3192988 8.5581514-9.9931793 8.5581514"/><path d="m39.2479618 22.0756653c0-1.8756334-.550757-3.4218326-3.3127012-3.4218326-2.7588845 0-3.6431554 1.5461992-3.6431554 3.4218326v1.1606694h6.9558566zm-6.9558566 7.1221036v.7741195c0 3.0903586 1.2147251 3.9195538 4.8589004 3.9195538 2.483506 0 5.7962071-.4426454 8.1705817-1.1606693l1.1596494 5.9624542c-2.4284303.8842709-6.350024 1.7124462-10.1023108 1.7124462-8.7233785 0-12.0350598-4.3071235-12.0350598-10.930486v-6.2939283c0-5.799267 2.5936574-10.7662789 11.5363188-10.7662789 8.9447012 0 10.8764302 5.299506 10.8764302 11.1528287v5.6299601z"/><path d="m68.237055 39.8535904v-17.778231c0-1.2147251-.5517769-1.9296893-1.9317291-1.9296893-1.4350279 0-4.0858008.9913626-5.7972271 1.9296893v17.778231h-7.949259v-26.8850996h5.9073785l.8271554 2.0418805c3.3127012-1.6033147 7.6198247-2.5946773 10.7112032-2.5946773 2.3743745 0 3.9756494.9373068 4.9129562 2.5946773 3.0373227-1.4921434 7.0670279-2.5946773 10.7662789-2.5946773 4.5825019 0 6.1837768 3.4228526 6.1837768 8.6111873v18.8267091h-7.9502788v-17.778231c0-1.2147251-.5517769-1.9296893-1.932749-1.9296893-1.4360479 0-4.0847809.9913626-5.7962072 1.9296893v17.778231z"/><path d="m111.749508 30.1932112h-3.808383c-1.713466 0-2.374374.4416255-2.374374 1.9307091 0 1.4911235.606852 2.098996 2.153051 2.098996 1.655331 0 2.81498-.3875697 4.029706-.9393466zm1.434008 9.6606852-.551777-1.7124462c-3.091379 1.7124462-5.852303 2.2642231-7.672861 2.2642231-4.9700716 0-7.0119521-3.5890996-7.0119521-8.1716016 0-5.4096574 2.4835061-7.5637291 8.0053541-7.5637291h5.797228v-2.0418804c0-2.7599044-.495682-3.699251-4.748749-3.699251-2.372335 0-4.74773.2774183-7.2873311.7741195l-1.049498-5.964494c2.5396011-.7710598 6.5693071-1.3238566 9.6637451-1.3238566 9.328191 0 11.372111 2.8149801 11.372111 10.2695777v17.1693386z"/><path d="m134.277406 32.8426582c1.381992.3304542 3.423872.6619283 5.079203.6619283 2.097976 0 2.871075-1.2708208 2.871075-3.0352829v-8.1165259c0-1.8776733-.773099-3.0373227-2.871075-3.0373227-1.820558 0-3.917514 1.1035538-5.079203 2.0979761zm15.900557-2.3733546c0 6.3469641-2.760924 9.9360637-9.053832 9.9360637-2.209148 0-5.026168-.3314741-6.846725-.7730996v11.097753l-7.950279 1.1045737v-38.8661036h6.238852l.829196 2.151012c1.876653-1.2137052 5.354581-2.7038088 8.280733-2.7038088 5.465753 0 8.502055 3.3677769 8.502055 9.9370837z"/><path d="m171.657893 39.8535904v-17.778231c0-1.2147251-.551777-1.9296893-1.932749-1.9296893-1.434008 0-4.082741 1.1025339-5.796207 1.9857849v17.7221354h-7.950279v-37.87270116l7.840128-1.10559362v14.02288448c3.257625-1.4911235 6.514231-2.4824861 9.605609-2.4824861 4.582502 0 6.185817 3.4228526 6.185817 8.6111873v18.8267091z"/><path d="m201.47659 29.7499538v-6.6794582c0-2.5406215-1.324877-3.9756494-4.194933-3.9756494-2.871075 0-4.197992 1.4350279-4.197992 3.9756494v6.6794582c0 2.5396016 1.326917 3.9756494 4.197992 3.9756494 2.870056 0 4.194933-1.4360478 4.194933-3.9756494m-16.340144-.2203028v-6.2378327c0-5.5228685 2.592638-10.8764303 12.145211-10.8764303 9.551554 0 12.145212 5.3535618 12.145212 10.8764303v6.2378327c0 5.5198088-2.593658 10.8754104-12.145212 10.8754104-9.552573 0-12.145211-5.3556016-12.145211-10.8754104"/><path d="m223.17774 23.4571474v16.3962391h-7.950279v-26.8850996h6.625403l.551777 2.5936573c1.65329-1.1045737 5.080223-2.7048287 7.231235-3.1464542l.662948 7.5076335c-2.374375.9373068-5.409657 2.3192988-7.121084 3.5340239"/><path d="m247.803308 22.0756653c0-1.8756334-.551777-3.4218326-3.312701-3.4218326-2.758884 0-3.643155 1.5461992-3.643155 3.4218326v1.1606694h6.955856zm-6.955856 7.1221036v.7741195c0 3.0903586 1.214725 3.9195538 4.85584 3.9195538 2.484526 0 5.799267-.4426454 8.173642-1.1606693l1.157609 5.9624542c-2.42639.8842709-6.346964 1.7124462-10.10333 1.7124462-8.723379 0-12.03404-4.3071235-12.03404-10.930486v-6.2939283c0-5.799267 2.593657-10.7662789 11.537339-10.7662789 8.946741 0 10.87847 5.299506 10.87847 11.1528287v5.6299601z"/></g><g transform="translate(1)"><path d="m162.812545 112.599559c7.845101 19.83258-1.873623 42.267827-21.706203 50.111073-11.032116 4.35942-22.858203 3.272348-32.539826-1.944116l-44.8352464 44.833391c-.2448696 1.988638-1.0165797 7.320116-1.0165797 7.320116l-4.7916522 25.429334c5.5577971 4.897391 9.8281739 8.121507 16.9943188 11.225043 7.6744348 3.322435 13.4715363 4.327884 21.3704348 4.908522l14.7960577-21.329623-.799536-.333913c10.698203 1.688115 21.737739 1.754898 32.75687.072347l-.680812.280116 14.590145 21.37229c7.386898-.467478 12.692406-1.209507 19.953159-4.081159 7.774609-3.073855 12.586667-6.468638 18.582261-11.64058l-4.62284-25.542493-.821797.335768c9.024927-6.550261 16.810666-14.400927 23.245913-23.153159l-.296812.716058 25.431188 4.793507c4.897392-5.559652 8.119653-9.830029 11.225044-16.990609 3.322435-7.676289 4.326029-13.477101 4.908522-21.374144l-21.329624-14.799769-.326492.777276c1.688116-10.614725 1.786434-21.555942.166956-32.484174l.178087.439652 21.36858-14.5975652c-.467478-7.3868985-1.209507-12.6868406-4.075594-19.9475942-3.079421-7.782029-6.470493-12.5885217-11.64429-18.585971l-25.540638 4.6209855s-6.26458 1.0054493-8.299594 1.2503189l-44.189681 44.185971c.717913 1.328232 1.380174 2.69542 1.949681 4.133101" fill="#8eb43f"/><path d="m142.196568 91.9837681c-19.83258-7.8451014-42.267826 1.8736232-50.1092173 21.7080579-4.3612753 11.028406-3.277913 22.854493 1.9422609 32.536116l-44.8352464 44.835246c-1.9886377.246725-7.3201159 1.018435-7.3201159 1.018435l-25.4311884 4.789797c-4.8936812-5.555942-8.12150728-9.828174-11.21947829-16.990608-3.32428986-7.67629-4.32602899-13.473392-4.91223189-21.376l21.33147828-14.790493.3357681.799536c-1.6881159-10.700058-1.7567536-21.739594-.0742029-32.758725l-.2801159.682667-21.37414497-14.593855c.46933334-7.3868985 1.21136232-12.6905507 4.08486957-19.9494492 3.07014493-7.7783189 6.4649275-12.5885218 11.6387246-18.5859711l25.5406377 4.6246957-.3376232.8217971c6.5558261-9.0230725 14.4046377-16.8106667 23.1568696-23.2477681l-.717913.2968116-4.7935073-25.4311884c5.5615073-4.8955363 9.8337391-8.11779714 16.9943188-11.2194783 7.6744348-3.32614492 13.4733913-4.32973913 21.3722899-4.91408695l14.801623 21.33333335-.77913.3264927c10.612869-1.689971 21.554087-1.7901449 32.486029-.1669565l-.443363-.179942 14.597566-21.3704348c7.388753.46933334 12.692405 1.21136232 19.949449 4.08115942 7.780174 3.07385507 12.590377 6.46863768 18.584116 11.63686958l-4.619131 25.5462029s-1.003594 6.2627246-1.254029 8.2977391l-44.184116 44.1878261c-1.326376-.7142029-2.693565-1.3801739-4.131246-1.9478261" fill="#bf1919"/></g></svg>