<svg height="230" preserveAspectRatio="xMidYMid" viewBox="0 0 256 230" width="256" xmlns="http://www.w3.org/2000/svg"><path d="m251.220287 187.855608c5.784484 10.045602 6.344969 20.608572 1.537739 28.958349-4.800044 8.356963-14.191746 13.142635-25.7679 13.142635h-21.815768c.258684-4.067103.431142-8.170134.431142-12.301909 0-4.627587-.215572-9.197688-.531742-13.753419l14.349831-.014371c3.528177 0 6.380898-2.867093 6.380898-6.402453 0-1.106598-.280243-2.134152-.76887-3.053921l-91.459518-158.9691171c-1.08504-1.9329519-3.161706-3.2407482-5.540171-3.2407482-2.313793 0-4.34016 1.2359394-5.461128 3.0898486l-14.522288 25.2433444c44.134535 33.269765 73.804268 84.8127503 77.864185 143.3330463.31617 4.548545.531741 9.118646.531741 13.753419 0 4.131774-.172457 8.22762-.423956 12.301908h-71.24616c.388027-4.052731.610784-8.148577.610784-12.301908 0-4.649144-.273056-9.233618-.776055-13.753419-3.52099-32.206282-19.2864035-60.747861-42.5033821-80.889362l-10.0024866 17.375009c17.5402801 16.325897 29.5116469 38.558436 32.7667665 63.514353.5892269 4.50543.9197688 9.089903.9197688 13.753419 0 4.153331-.2730563 8.263549-.7401265 12.301908h-66.0437171c-11.5761538 0-20.9678563-4.792857-25.76790015-13.14982-4.80722955-8.349777-4.24674539-18.905562 1.5377386-28.958349l13.55940525-23.238535c7.7749214 4.174888 14.7594163 9.614459 20.716357 16.052841l-8.0839062 13.76779c-.4814415.912583-.7688692 1.947323-.7688692 3.053921 0 3.535362 2.8527206 6.395268 6.3808965 6.395268l32.0338256.014371c-2.6874497-15.355828-9.7725443-29.209848-19.9187448-40.182403-5.9784977-6.445568-12.9629927-11.89951-20.737914-16.074399l35.7703867-62.1490702c7.616836 4.2611168 14.8240875 9.147389 21.5642688 14.6228882 30.8266289 25.013402 51.6435859 61.955057 55.4160749 103.775798h19.171433c-3.909017-48.891464-28.476907-92.005631-64.9371203-120.5472088-6.8335953-5.3461567-14.0695896-10.1893147-21.6720543-14.4576171l30.5320156-53.0447961c5.777298-10.0527864 14.615703-15.822899 24.230161-15.822899 9.607274 0 18.438492 5.7701126 24.222976 15.822899z" fill="#fb2d26"/></svg>