<svg height="256" preserveAspectRatio="xMidYMid" viewBox="0 0 256 256" width="256" xmlns="http://www.w3.org/2000/svg"><circle cx="128" cy="128" fill="#373e4d" r="128"/><path d="m159.581198 131.861093c-16.97976 0-30.744774-13.765014-30.744774-30.744775 0-16.9797599 13.765014-30.7447737 30.744774-30.7447737 16.979761 0 30.744774 13.7650138 30.744774 30.7447737 0 16.979761-13.765013 30.744775-30.744774 30.744775zm30.535373 41.620055c-1.242248.868276-3.356313 1.556645-6.684313 1.602654-23.563207-31.379465-38.285567-34.568258-53.386028-20.574378-1.287668 1.193291-3.246599 1.221014-4.560221.055447-14.825585-13.158046-31.832479-10.941935-52.910009 19.962102-2.376553 1.217474-4.1650138.646488-5.4379355-.418212v-73.697327c0-4.5254197 1.1366636-9.0237054 3.5621751-12.84424 9.7958341-15.4290138 34.6331424-20.3761843 46.4238894 1.4186175-10.457069 48.3132165 42.038857 70.9007925 72.992442 43.0846825zm-64.835834-99.3445162c-17.14964-25.5162396-64.6264329-19.2418802-72.7830411 22.1693641v80.4801471c0 .972682.3385806 1.926489.9632442 2.672074 22.2029862 26.502489 44.4059723 26.742562 69.0987649.927853 2.420793-2.531097 6.471963-2.322286 8.66035.412313 16.035392 20.037014 49.774894 31.967558 70.849475-3.733825.930802-1.5767 1.432774-3.378138 1.432774-5.209659v-75.6190967c0-1.0641106-.123281-2.1317604-.407594-3.1575299-10.398083-37.538212-53.672701-44.3204424-77.813973-18.9416406zm-22.840096 29.8861712c0 5.416701-4.3915203 9.808221-9.8082207 9.808221-5.4172903 0-9.8082212-4.39152-9.8082212-9.808221 0-5.4167002 4.3909309-9.808221 9.8082212-9.808221 5.4167004 0 9.8082207 4.3915208 9.8082207 9.808221" fill="#fff"/></svg>