<svg height="135" preserveAspectRatio="xMidYMid" viewBox="0 0 512 135" width="512" xmlns="http://www.w3.org/2000/svg"><g fill-rule="evenodd"><path d="m271.013495 133.368242h-17.094594v-73.2247915h16.948752v30.4541737h29.514989v-30.4174545h16.995815v73.0867073h-16.787912v-30.675523h-29.57705c.001034 10.144323.001034 20.337777.001034 30.776888zm91.46699-73.2801289c.579232-.0341333 1.08606-.0930909 1.590303-.0930909 8.696242-.0051717 17.392485-.0248242 26.088727.0093091 4.156509.0165495 8.220962.6992162 12.139055 2.1069576 10.068299 3.6191677 15.605656 11.6844606 15.237947 22.3728485-.085333 2.4746666-.367192 5.0000161-.995555 7.3862464-2.439499 9.2584082-9.060849 14.1560242-17.969132 16.1171392-3.905681.860057-8.007887.8704-12.030965 1.131572-2.296243.148428-4.611103.026893-7.164897.026893v24.516008h-16.896c.001551-24.518077.001551-49.0082263.001551-73.5738829zm-117.996348 7.1721374c-1.57427 2.9204687-2.927192 5.695095-4.526804 8.3197414-1.430497 2.3479596-3.320242 2.604994-6.059701 1.3777455-2.963394-1.3275798-5.903515-2.8651313-9.019474-3.6388202-2.146263-.5326869-4.642651-.2275556-6.862869.2534141-2.80514.6071596-4.579038 2.5496566-5.039838 5.5456323-.466489 3.0445899.690424 5.3061819 3.366787 6.6042829 2.539314 1.2308687 5.226021 2.1648808 7.865148 3.1878464 3.599515 1.3963637 7.333495 2.5067313 10.798545 4.1787475 7.575532 3.656404 11.072647 10.6718386 10.380671 19.0784646-1.106747 13.438707-11.19263 21.809131-24.341204 22.283378-9.088259.328921-17.330424-2.2016-24.699087-7.535192-.755071-.546651-1.426359-1.207596-2.292622-1.949737 1.804929-2.874441 3.446432-5.685786 5.290667-8.357495 1.32189-1.913536 3.525042-2.322101 5.773705-1.205011 1.612541.802651 3.112339 1.830788 4.678335 2.729116 4.2496 2.437947 8.728824 3.593309 13.622303 2.404848 3.304727-.803168 5.243087-2.789107 5.748364-5.858004.567854-3.445398-.075507-6.480162-3.430918-8.13718-2.523798-1.246384-5.245155-2.100751-7.89204-3.091135-3.695709-1.3824-7.558982-2.416744-11.072646-4.159095-6.126934-3.038901-9.091879-8.3461172-9.745067-15.1024485-1.368436-14.1637818 8.992065-23.4402909 21.573301-24.5977212 7.902384-.7261091 15.446368.6790464 22.259071 5.0113939 1.215353.7721374 2.330375 1.7004606 3.626925 2.6582626zm267.028687-7.1235232v13.1966707h-20.226586v59.936582h-17.157689v-59.743677h-20.43966v-13.3895757zm-163.246804 73.2041047h-16.969955v-73.2247916h16.969955zm96.193422.001552h-16.969438v-73.2263436h16.969438zm-64.974351-60.602182c4.328727.2156606 8.485753.1189495 12.545551.7012849 5.115863.7343838 7.957722 4.1280646 8.362667 9.3277091.131879 1.6983919.085333 3.4702222-.248242 5.1344808-1.004865 5.035701-4.403718 7.8118788-10.165528 8.180105-3.426262.2192808-6.878383.0398222-10.493414.0398222v-23.383402z" fill="#464462"/><path d="m.06206061 82.8509091c10.83785049 11.8959838 24.74821819 17.6045249 39.52226259 21.5433049 16.3622788 4.363895 33.0483071 5.576663 49.9329293 4.376824 27.8745215-1.980767 53.5417535-10.4039431 76.7431115-26.1052764.272549-.1846303.568889-.3346101 1.122262-.6568081.067233.8223031.175839 1.445495.160323 2.0650667-.320646 12.3629899-3.552969 23.7578348-11.236589 33.6663268-4.552663 5.870934-10.201213 10.467556-16.589318 14.17878-.853333.494934-1.922327.793859-2.911676.855919-9.026198.571475-18.050328 1.304825-27.086869 1.539103-14.8981657.384259-29.8061576.618021-44.7084606.563718-13.0927192-.050166-26.1730263-.775758-39.1736889-2.469495-1.1098505-.143774-2.330893-.623709-3.1909495-1.325511-11.9844202-9.790061-18.94658588-22.49697-21.58933335-37.6511357-.42770101-2.4565657-.69973334-4.9426101-.97642021-7.4224485-.10446868-.9309091-.01706666-1.8856081-.01706666-3.1599192z" fill="#464563"/><path d="m138.426182 91.6831677c-17.654691 7.5765656-45.3311355 13.3213093-57.0388689 11.9983843.3320243-4.6038631.6857697-9.2123803.9898667-13.8240005.4520081-6.8695919 1.1408808-13.7376323 1.2432808-20.6144646.2058343-13.7691798.3444364-27.5497374.0025859-41.3137455-.2192808-8.8374303-1.1512243-17.682101-3.9274021-26.19267877-.0982626-.2999596-.0620606-.64284445-.1489454-1.71028687 1.4858343 1.13777778 2.6944646 1.7718303 3.5079757 2.73790707 2.6582627 3.15578182 5.3475556 6.31052929 7.7141334 9.68352327 11.5262059 16.4269252 21.6100199 33.7557979 31.7165899 51.0670868 4.68299 8.0213334 9.219103 16.1290344 13.810554 24.202602.7168 1.258796 1.372573 2.550691 2.130747 3.9667071zm-43.1290184-61.671693c-.1696323.0568889-.3397818.1153293-.5099313.1722182 0 .5414788-.1148121 1.1119192.0191354 1.6187475.5906101 2.2253899 1.1879434 4.4528485 1.8995717 6.6425535 3.0409697 9.3540849 6.2567436 18.6543839 9.1477336 28.0550142 2.029382 6.5991111 3.701915 13.312 5.401341 20.0083394.619055 2.4420848.854368 4.9803636 1.301204 7.6924121 5.787152-.1820444 11.23659-1.4620444 16.601212-3.2085333 1.336372-.4354586 1.364299-1.4030869.926772-2.4803556-.548202-1.3472323-1.065374-2.7203232-1.756315-3.9961859-3.834828-7.0842181-7.510885-14.2656646-11.634295-21.1792161-5.959887-9.9933091-12.236283-19.7983677-18.4320001-29.6510061-.8316121-1.3239596-1.9693899-2.4544969-2.9649454-3.674505z" fill="#e88826"/><path d="m25.1914343 92.2892929c7.1493819-12.0113131 13.9636364-23.8757495 21.1947314-35.4800485 6.1889939-9.9307313 12.7679353-19.6240808 19.3680808-29.2910545 1.9238788-2.8196202 4.3742383-5.3268687 6.8318383-7.7213737 2.3102061-2.2512485 3.785697-1.8152728 4.4807758 1.2949979.7100768 3.1764687 1.2308687 6.4336162 1.4248081 9.6814546.8533333 14.2946262.4344242 28.5918384-.2689293 42.8823273-.3671919 7.4855434-.7602424 14.968501-1.1801859 22.4504242-.1344646 2.4007111-.391499 4.7941818-.6330181 7.6644848-2.180396.015515-4.2961455.17739-6.3881051.018618-11.5277576-.868848-22.8848485-2.766868-33.9590465-6.1284846-2.6194747-.7943758-5.1458585-1.939394-7.6386262-3.0875152-1.1222627-.5156202-2.0593778-1.4361858-3.2323233-2.2833131zm33.2112162-42.3899798c-.5699232.7736889-.8310949 1.0860606-1.0446869 1.4258425-4.6493737 7.3919353-9.390804 14.7290505-13.9000242 22.2052848-2.6117172 4.3287273-4.8986505 8.8576-7.2300606 13.3492364-1.1688081 2.2517656-.6361212 3.7013979 1.5809939 4.7662545 4.2242586 2.0283475 8.7298586 2.9375354 13.2147717 3.9811879 1.2370748.2896162 2.0624809-.165495 2.2962425-1.6823596.5740606-3.6993293 1.3963636-7.3593535 2.0004202-11.0571313.8093737-4.9596768 1.6332283-9.9219394 2.2186666-14.9100606.6154344-5.2508445.9748687-10.5337536 1.391192-15.8063192.0465454-.5844041-.2663435-1.1967354-.5275152-2.2714182z" fill="#e88826"/><path d="m95.2966465 30.0114747c.9960727 1.219491 2.1333333 2.3515798 2.9649454 3.6739879 6.1946831 9.8521212 12.4710791 19.657697 18.4320001 29.6510061 4.122893 6.9135515 7.798949 14.094998 11.633778 21.1781818.690424 1.2758626 1.20863 2.6479192 1.756315 3.996703.43701 1.0772687.408566 2.044897-.927806 2.4803556-5.364105 1.7470061-10.813026 3.0280404-16.601212 3.2090505-.445802-2.7115313-.681115-5.2503273-1.300687-7.6924121-1.698909-6.6947879-3.37196-13.408194-5.400824-20.0078222-2.89099-9.4006304-6.1062469-18.7009293-9.1477338-28.0550142-.7121454-2.1891879-1.3094788-4.4166465-1.9000889-6.6430707-.1344646-.5057939-.0196525-1.0757172-.0196525-1.6177131.1706667-.0568889.3413333-.1137778.5104485-.171701zm-36.893996 19.8878384c.2616889 1.0741657.5740606 1.6870142.5275152 2.2703839-.4163233 5.2725656-.7757576 10.5554747-1.391192 15.8063192-.584404 4.9886383-1.4087757 9.9503838-2.2186666 14.9100606-.6030223 3.6962262-1.4263596 7.357802-1.9993859 11.0571313-.2342788 1.5173818-1.0591677 1.9719757-2.2962424 1.6828767-4.4838788-1.0446868-8.9905131-1.9528404-13.2152889-3.9811878-2.216598-1.0653738-2.749802-2.5144889-1.5809939-4.7662546 2.3324444-4.4916363 4.6193777-9.0194747 7.2300606-13.3492363 4.5097373-7.4762344 9.2506505-14.8133495 13.899507-22.2058021.2141091-.3397818.475798-.6516363 1.0446869-1.424808z" fill="#f7a81f"/></g></svg>