<svg height="118" preserveAspectRatio="xMidYMid" viewBox="0 0 512 118" width="512" xmlns="http://www.w3.org/2000/svg"><path d="m0 68.8872727h17.8734545c.1861819 3.5374546 1.4894546 6.144 3.9098182 7.8196364 2.6065455 1.6756364 6.144 2.6065454 10.4261818 2.6065454 3.165091 0 5.7716364-.5585454 8.192-1.8618181 2.048-1.3032728 3.165091-2.7927273 3.165091-5.0269091 0-3.1650909-3.7236364-5.5854546-10.9847273-7.0749091-3.1650909-.5585455-5.5854546-1.1170909-7.0749091-1.4894546-9.3090909-2.2341818-15.4530909-5.0269091-18.61818183-8.192-3.53745454-3.1650909-5.21309091-7.2610909-5.21309091-12.6603636 0-6.7025455 2.60654546-12.1018182 7.63345455-16.5701818 5.21309089-4.096 12.10181819-5.9578182 20.47999999-5.9578182 9.1229091 0 16.384 2.048 21.7832727 5.9578182 5.0269091 4.2821818 7.8196364 10.0538182 8.192 16.9425454h-11.1709091c-3.3512727 0-5.7716363-1.4894545-7.6334545-4.4683636-.7447273-.7447273-1.4894545-1.3032727-2.048-2.048-2.048-1.4894545-5.0269091-2.4203636-8.5643636-2.4203636-3.5374546 0-6.144.5585454-7.8196364 1.4894545-1.4894545 1.1170909-2.4203636 2.6065455-2.4203636 4.6545455 0 2.7927272 4.4683636 5.2130909 13.5912727 7.0749091 1.1170909.3723636 2.048.5585454 2.7927273.7447272.7447272.1861818 1.4894545.1861818 2.2341818.1861818 8.9367273 2.2341819 15.0807273 4.8407273 18.6181818 7.8196364 3.3512727 3.1650909 5.0269091 7.2610909 5.0269091 12.6603636 0 7.6334546-2.7927273 13.5912728-8.3781818 17.8734546-5.2130909 3.9098182-13.0327273 5.7716364-23.6450909 5.7716364-9.8676364 0-17.3149091-2.048-22.34181822-5.9578182-5.02690909-4.096-7.63345454-9.8676364-7.63345454-17.5010909v-.3723637zm108.916364-26.9963636c-2.606546-3.7236364-6.144-5.5854546-10.7985458-5.5854546-4.8407273 0-8.5643637 1.6756364-11.1709091 5.213091-2.6065455 3.5374545-3.9098182 8.3781818-3.9098182 14.336v36.1192727h-17.8734545v-90.11200002h8.9367272c2.4203637 0 4.4683637.93090909 6.3301819 2.60654546 1.6756363 1.67563636 2.6065454 3.90981818 2.6065454 6.33018186v20.6661818c3.1650909-5.2130909 7.6334546-8.5643637 13.4050909-9.8676364 5.7716362-1.3032727 11.1709092-1.1170909 16.5701822 1.1170909 4.840727 2.048 8.936727 5.3992727 12.288 9.8676364 3.351272 4.4683636 5.026909 10.7985454 5.026909 18.8043636v40.5876364h-17.501091v-36.1192727c0-2.6065455-.186182-5.0269091-.744727-7.261091-.558546-2.048-1.675637-4.2821818-3.165091-6.7025454zm25.134545-19.5490909h9.495273c2.420363 0 4.468363.9309091 6.330182 2.6065454 1.675636 1.6756364 2.606545 3.9098182 2.606545 6.3301819v60.6952727h-18.245818v-69.632zm40.215273 86.0159998c0 2.420364-.930909 4.468364-2.606546 6.330182-1.675636 1.675636-3.909818 2.606545-6.330181 2.606545h-8.936728v-65.1636359c0-12.288 3.537455-20.48 10.798546-24.9483636 7.074909-4.4683637 14.894545-6.7025455 23.272727-6.7025455 4.282182 0 8.750545.7447273 13.218909 2.4203636 4.468364 1.6756364 8.005818 4.096 10.612364 7.2610909 5.213091 6.8887273 7.819636 15.453091 7.819636 26.2516364 0 10.9847273-2.606545 19.9214546-7.819636 26.624-5.213091 6.7025455-11.915637 9.8676364-20.107637 9.8676364-4.282181 0-8.192-.7447273-11.543272-2.4203637-3.537455-1.6756363-6.330182-4.4683636-8.378182-8.192zm29.975273-51.3861816c0-6.8887273-1.303273-12.1018182-3.909819-15.6392728-2.606545-3.7236363-6.330181-5.5854545-11.170909-5.5854545-4.654545 0-8.378182 1.8618182-10.984727 5.5854545-2.420364 3.3512728-3.723636 8.5643637-3.723636 15.6392728 0 6.7025454 1.303272 11.5432727 3.909818 14.8945454 2.606545 3.7236364 6.330182 5.5854546 11.170909 5.5854546 4.468364 0 8.192-1.8618182 10.798545-5.5854546 2.606546-3.5374545 3.909819-8.5643636 3.909819-14.8945454zm38.912 51.3861816c0 2.420364-.93091 4.468364-2.606546 6.330182-1.675636 1.675636-3.909818 2.606545-6.330182 2.606545h-8.936727v-65.1636359c0-12.288 3.537455-20.48 10.798545-24.9483636 7.07491-4.4683637 14.894546-6.7025455 23.272728-6.7025455 4.282182 0 8.750545.7447273 13.218909 2.4203636 4.468363 1.6756364 8.005818 4.096 10.612363 7.2610909 5.213091 6.8887273 7.819637 15.453091 7.819637 26.2516364 0 10.9847273-2.606546 19.9214546-7.819637 26.624-5.21309 6.7025455-11.915636 9.8676364-20.107636 9.8676364-4.282182 0-8.192-.7447273-11.543273-2.4203637-3.537454-1.6756363-6.330181-4.4683636-8.378181-8.192zm29.78909-51.3861816c0-6.8887273-1.303272-12.1018182-3.909818-15.6392728-2.606545-3.7236363-6.330182-5.5854545-11.170909-5.5854545-4.654545 0-8.378182 1.8618182-10.984727 5.5854545-2.420364 3.3512728-3.723636 8.5643637-3.723636 15.6392728 0 6.7025454 1.303272 11.5432727 3.909818 14.8945454 2.606545 3.7236364 6.330182 5.5854546 11.170909 5.5854546 4.468363 0 8.192-1.8618182 10.798545-5.5854546 2.606546-3.5374545 3.909818-8.5643636 3.909818-14.8945454zm65.536 31.6509091c-3.723636 1.8618181-7.633454 3.1650909-11.729454 3.5374545s-7.633455.7447273-10.798546.7447273c-6.330181 0-11.729454-1.6756364-16.570181-5.0269091-4.654546-3.3512727-7.074909-9.1229091-7.074909-16.9425455 0-7.2610909 2.048-12.6603636 6.330181-15.6392727 4.282182-3.1650909 9.681455-5.2130909 16.384-6.3301818.930909 0 1.861819-.1861818 3.165091-.3723637 1.303273-.1861818 2.606546-.5585454 4.282182-.7447272 7.633455-1.1170909 11.543273-3.3512728 11.543273-6.8887273 0-2.6065455-1.303273-4.2821818-4.096-5.0269091s-5.213091-1.1170909-7.447273-1.1170909c-2.420364 0-4.654545.3723636-6.516364 1.1170909-1.861818.7447273-3.351272 2.048-4.282181 3.9098182h-17.501091c.744727-5.3992727 3.165091-9.8676364 7.261091-13.4050909 4.654545-4.096 11.357091-5.9578182 20.107636-5.9578182 9.681455 0 17.128727 1.6756364 21.969455 5.0269091 5.026909 3.5374545 7.633454 8.3781818 7.633454 14.7083636v23.8312728c0 7.074909-1.303273 12.4741818-3.723636 16.384-2.420364 3.5374545-5.399273 6.3301818-8.936728 8.192zm-4.096-32.2094546c-2.420363 1.3032727-5.771636 2.4203636-10.24 3.3512727l-5.957818 1.3032728c-3.165091.9309091-5.399272 2.048-6.888727 3.3512727-1.303273 1.8618182-1.861818 3.9098182-1.861818 5.7716364 0 2.6065454.744727 4.6545454 2.420363 6.3301818 1.489455 1.4894545 3.909819 2.048 6.888728 2.048 4.840727 0 8.750545-1.3032728 11.543272-4.2821818 2.792728-2.7927273 4.282182-6.7025455 4.282182-11.5432728v-6.3301818zm39.098182-47.47636363v21.03854543c1.861818-3.3512727 4.654546-5.9578182 8.378182-8.192 3.165091-1.6756363 6.888727-2.6065454 11.543273-2.6065454 8.192 0 14.894545 3.3512727 20.107636 10.24 5.213091 6.8887272 7.819637 15.6392727 7.819637 26.4378182 0 10.7985454-2.606546 19.5490909-7.819637 26.4378181-2.606545 3.3512728-6.144 5.7716364-10.612363 7.2610909-4.468364 1.4894546-8.936728 2.2341819-13.21891 2.2341819-8.378181 0-16.197818-2.2341819-23.272727-6.5163637s-10.798545-12.6603636-10.798545-25.1345454v-60.1367273h8.936727c2.420364 0 4.468364.93090909 6.330182 2.60654545 1.675636 1.67563637 2.606545 3.90981819 2.606545 6.33018182zm29.789091 45.98690913c0-6.3301819-1.303273-11.1709091-3.909818-14.7083637-2.606545-3.7236363-6.144-5.5854545-10.798545-5.5854545-4.840728 0-8.564364 1.6756363-11.17091 5.2130909-2.606545 3.7236364-3.909818 8.5643636-3.909818 14.8945454 0 7.261091 1.303273 12.6603637 3.723637 16.0116364 2.606545 3.7236364 6.330181 5.5854546 10.984727 5.5854546 4.840727 0 8.564364-1.8618182 11.170909-5.5854546 2.606545-3.5374545 3.909818-8.7505454 3.909818-15.8254545zm21.224727-53.06181822h9.495273c2.420364 0 4.468364.74472727 6.330182 2.42036364 1.675636 1.67563636 2.606545 3.72363636 2.606545 6.14399998v81.5476364h-18.245818v-90.11200002zm72.424728 68.51490912h13.032727c-1.861818 7.2610909-5.585455 12.8465454-10.984727 16.7563636-5.399273 4.096-12.288 5.9578182-20.48 5.9578182-9.867637 0-17.687273-3.1650909-23.272728-9.6814546-5.585454-6.3301818-8.378181-15.266909-8.378181-26.9963636 0-11.1709091 2.792727-19.9214545 8.192-26.2516364 5.585454-6.5163636 13.405091-9.6814545 23.272727-9.6814545 10.426182 0 18.618182 3.1650909 24.389818 9.4952727 5.585455 6.5163637 8.378182 15.4530909 8.378182 26.9963637v1.8618181 1.117091c0 .930909 0 1.4894545-.186182 1.8618181h-45.242182c.186182 5.3992728 1.489455 9.4952728 3.909818 12.1018182 2.234182 2.7927273 5.585455 4.2821818 10.24 4.2821818 2.97891 0 5.585455-.5585454 7.633455-1.8618181.558545-.1861819.930909-.5585455 1.489455-.9309091.372363-.3723637.930909-.9309091 1.489454-1.4894546.186182-.5585454.744727-1.3032727 2.048-2.048.744727-1.1170909 2.420364-1.4894545 4.468364-1.4894545zm-31.464728-20.48h26.624c-.372363-4.6545455-1.489454-8.192-3.723636-10.4261818-2.234182-2.4203637-5.585454-3.7236364-9.681454-3.7236364-3.909819 0-7.07491 1.3032727-9.495273 3.7236364-2.234182 2.4203636-3.537455 5.9578181-3.723637 10.4261818z" fill="#b64326"/><path d="m134.050909 1.86181818h9.495273c2.420363 0 4.468363.93090909 6.330182 2.60654546 1.675636 1.67563636 2.606545 3.90981818 2.606545 6.33018186v5.5854545h-18.245818v-14.52218182z" fill="#3a3a3c"/></svg>