<svg height="256" preserveAspectRatio="xMidYMid" viewBox="0 0 256 256" width="256" xmlns="http://www.w3.org/2000/svg"><path d="m88.9645227 86.1240855c2.0359978-1.876 4.1159956-3.652 6.2179933-5.365-9.7669894-17.655-14.9369839-36.527-17.1389815-54.521-8.6149907 5.641-17.0089816 12.131-25.0159729 19.51-3.5099962 3.234-6.8469926 6.571-10.0199892 9.991.7599992 23.082 7.7999916 49.8369995 18.8989796 67.1289995 6.0999934-13.152 15.1669836-25.7879995 27.0579707-36.7439995zm140.8834473-56.6639c-32.505964-35.28000002-85.993907-37.98400002-135.2218534-12.868 1.4429984 18.269 6.3749934 35.883 16.1179824 53.275 35.292962-20.929 75.143919-20.572 98.724893 5.021 28.61497 31.0559995 22.428976 87.4799995-16.880981 123.6999995-39.310958 36.221-94.3748983 40.407-122.9898673 9.351-14.8889839-16.16-19.6609788-38.677-15.2969835-61.663-11.8829872-15.301-22.6759755-46.7849995-26.5219713-71.6329995-35.05196214 50.2429995-37.915959 111.9359995-2.9659968 149.8679995 42.0449545 45.632 122.8448669 39.581 180.4708049-13.516 57.626938-53.097 66.608928-135.9029995 24.563973-181.5349995z" fill="#e57e41"/></svg>