<svg height="307" viewBox="0 0 256 307" width="256" xmlns="http://www.w3.org/2000/svg"><g fill="none" fill-rule="evenodd"><path d="m249.630577 171.957624-22.595768-21.600022-71.425606-65.6234721-30.791521 29.2404561c-2.814897 3.829791-2.623407 9.000009.574469 12.580864l28.148965 24.242578-.095745.038298 30.25535 28.914923c3.580855 3.982983 3.48511 9.880861-.268085 13.710653l-81.574552 77.514973 37.091527 35.40642 110.680966-105.166066c8.482987-8.08086 8.502136-21.178746 0-29.297903z" fill="#07508b"/><path d="m6.34309165 134.463968 22.59576795 21.542576 71.4639034 65.623472 30.772372-29.240456c2.795748-3.791493 2.604258-9.000009-.574468-12.580864l-28.148966-24.280876.095745-.057447-30.2744991-28.895774c-3.5425569-3.963834-3.4468121-9.880862.2872343-13.691504l81.5745518-77.5532713-37.091527-35.3298237-110.6809654 105.166066c-8.48298747 8.080859-8.48298747 21.197894 0 29.297902z" fill="#e57b25"/></g></svg>