<svg height="289" preserveAspectRatio="xMidYMid" viewBox="0 0 256 289" width="256" xmlns="http://www.w3.org/2000/svg"><path d="m239.348 64.287-111.348-64.287-111.348 64.287c-10.304 5.949-16.652 16.944-16.652 28.842v109.345c0 11.899 6.348 22.893 16.652 28.842l89.177 51.487c13.72 7.921 30.623 7.921 44.342 0l89.177-51.487c10.304-5.949 16.652-16.943 16.652-28.842v-109.345c0-11.898-6.348-22.893-16.652-28.842zm-17.28 122.846c0 8.805-4.65 16.942-12.198 21.344l-63.805 37.216c-10.974 6.401-24.544 6.401-35.518 0l-63.806-37.216c-7.548-4.402-12.198-12.539-12.198-21.344v-80.919c0-8.806 4.65-16.942 12.198-21.345l81.565-47.574 81.564 47.574c7.548 4.403 12.198 12.539 12.198 21.345z" fill="#bac4c5"/><g transform="translate(68 84)"><path d="m92.404 26.041-.654.459-30.125 31.969-.402.593.152.063 30.984.047.045-.11 29.389-27.966z" fill="#ed1a3b"/><path d="m92.404 92.083-.185.042-30.875-32.688-.121-.375h31.181l29.389 27.62z" fill="#c2315d"/><path d="m61.223 59.062 31.181 33.021-1.44 25.677-29.741-29.363-.077-.272-.063-28.667z" fill="#94407e"/><path d="m28.206 90.241-.039-.304 32.666-30.645.394-.232-.004 29.337-29.53 29.363z" fill="#577f9f"/><path d="m61.227 59.06-33.021 31.181-27.511-3.645 31.197-27.536.171-.143 28.791-.021z" fill="#00aec5"/><path d="m61.227 59.064-.394-.647-32.125-30.5-.502-.034-27.511 3.907 31.197 27.274z" fill="#93c483"/><path d="m28.206 27.883 33.021 31.181.148-.772v-28l-.152-.565-29.568-29.346z" fill="#fcde11"/><path d="m61.223 59.062 31.181-33.021-1.766-25.66-29.415 29.346z" fill="#f78e36"/></g></svg>