<svg height="248" preserveAspectRatio="xMidYMid" viewBox="0 0 256 248" width="256" xmlns="http://www.w3.org/2000/svg"><path d="m50.1996332.0921705 205.6898768 41.6164703-41.617599 205.6954522-205.68987612-41.61647z" fill="#512833"/><path d="m24.1706512 9.17308483 208.8824168 20.27332607-20.273476 208.8839611-208.8824168-20.273326z" fill="#934358"/><path d="m.182044 18.825051h209.869317v209.869317h-209.869317z" fill="#e5637c"/><path d="m72.5690182 162.917366c0-1.240695.7752404-3.107168 2.3314101-5.595281 1.5530666-2.486562 2.9525333-3.73036 4.1968485-3.73036.1220525 0 1.1191596.591645 2.9845979 1.772348 1.8649213 1.182771 4.5376647 2.362957 8.020299 3.54366 3.4800485 1.183289 7.676897 1.772348 12.5905453 1.772348 4.911063 0 8.953277-1.399467 12.124057-4.196849 3.171297-2.797899 4.756945-6.589285 4.756945-11.377777 0-4.785908-1.399466-8.516267-4.197365-11.192114-2.798417-2.672226-8.364736-5.190335-16.6943035-7.55381-8.3321535-2.360371-14.3623757-5.376517-18.0927353-9.046367-3.7298425-3.666231-5.595798-9.233584-5.595798-16.694303 0-7.4607196 2.8589252-13.7091883 8.5798788-18.7454065 5.7178505-5.0362181 13.179604-7.5543272 22.382675-7.5543272 6.342076 0 11.999418.8093737 16.97461 2.424501 4.972089 1.6182303 7.460202 3.4221252 7.460202 5.4096161 0 1.617196-.7168 3.701398-2.144194 6.2484687-1.431531 2.5501738-2.704291 3.8239677-3.823968 3.8239677-.125672 0-.932978-.373398-2.424501-1.1196768-4.22943-2.2388363-8.985858-3.3574787-14.269285-3.3574787-5.287046 0-9.3902865 1.0901979-12.3107552 3.2643878-2.9235717 2.1767758-4.3835475 5.0067394-4.3835475 8.4867879 0 3.482634 1.087095 6.21899 3.2643879 8.206998 2.1741899 1.991111 5.8755878 3.795006 11.0979878 5.409099 11.686529 3.608307 19.614255 7.55381 23.781624 11.844267 4.165301 4.290456 6.248986 10.757689 6.248986 19.398594 0 8.645042-3.077689 15.761325-9.233584 21.35764-6.155377 5.595281-13.523006 8.39318-22.102884 8.39318-8.5798793 0-15.9806065-1.273794-22.1964934-3.823968-6.2184727-2.547071-9.3256404-5.004671-9.3256404-7.368145z" fill="#fff"/></svg>