<svg height="297" preserveAspectRatio="xMidYMid" viewBox="0 0 256 297" width="256" xmlns="http://www.w3.org/2000/svg" xmlns:xlink="http://www.w3.org/1999/xlink"><linearGradient id="a"><stop offset="0" stop-color="#2b3990"/><stop offset=".16" stop-color="#1e62a7"/><stop offset=".32" stop-color="#1485bc"/><stop offset=".49" stop-color="#0ba1cc"/><stop offset=".66" stop-color="#05b4d7"/><stop offset=".83" stop-color="#01c0de"/><stop offset="1" stop-color="#00c4e0"/></linearGradient><linearGradient id="b" x1="82.179063%" x2="34.613457%" xlink:href="#a" y1="6.03161%" y2="106.134929%"/><linearGradient id="c" x1="-31668%" x2="-19806%" xlink:href="#a" y1="78954%" y2="78954%"/><path d="m21.9428571 218.332687c98.8605779 9.799564 178.2415029-48.675204 198.0431319-73.731978 19.801632-25.056774-10.222791-144.600709-10.222791-144.600709-32.546582 79.9558442-91.723405 201.139761-187.8203409 218.373014z" fill="url(#b)"/><path d="m67.6571429 186.423921c58.3146371 2.146776 102.7015681-34.522856 113.4016261-49.72472 10.700057-15.201864-5.682287-83.6706296-5.682287-83.6706296-16.206044 47.4303526-61.298176 116.5431506-107.7193391 133.3953496z" fill="url(#c)"/><g fill="#149cb5"><path d="m3.8046938 269.930368c1.80339291 1.871358 3.94807908 3.393476 6.3227093 4.487325 2.3565236 1.116018 4.9382223 1.696929 7.5540466 1.699745 2.7680883.166806 5.5085111-.621981 7.7477402-2.230065 1.8111257-1.409392 2.8372434-3.577706 2.76705-5.847121.0330332-1.104279-.1893007-2.20153-.6502568-3.209119-.4225554-.86255-1.0205612-1.630789-1.7570767-2.25726-.8063184-.671305-1.6938755-1.242205-2.6425329-1.699745l-3.2651189-1.577364-7.2081654-3.086736c-1.2343954-.532381-2.4355614-1.136285-3.59716507-1.808529-1.21574299-.693842-2.32451723-1.554658-3.29278956-2.556416-1.00047182-1.045701-1.80596906-2.256237-2.37966303-3.576261-1.31548887-3.220425-1.22037824-6.831682.26286976-9.980902.78791658-1.606777 1.90960878-3.033482 3.29278954-4.188171 1.47216633-1.20528 3.16173366-2.127829 4.98069006-2.719591 2.0371886-.670948 4.1743103-1.001876 6.3227093-.979054 2.8584115-.018704 5.6881434.560712 8.3011502 1.699745 2.4361016 1.050279 4.6473377 2.545295 6.5164028 4.405738l-3.4449774 4.079388c-1.4877535-1.423267-3.214999-2.582618-5.1052072-3.426684-1.9934788-.851513-4.1494142-1.273449-6.3227094-1.237415-2.4180456-.118985-4.8077256.555487-6.7931078 1.917312-1.70003536 1.244599-2.663502 3.235213-2.57335652 5.316802-.0329194 1.06108.22004297 2.111866.73326826 3.045941.52138586.832854 1.20276576 1.55797 2.00611126 2.134881.8358198.640038 1.7350259 1.19582 2.6840386 1.658949.9684675.480461 1.9646055.933727 2.988414 1.359797l7.1389891 3.018747c1.4064458.588207 2.7661016 1.279102 4.0675636 2.066889 1.2277383.742393 2.3372871 1.658794 3.2927895 2.71959.9431657 1.067296 1.6835813 2.292438 2.1859696 3.617057.5625785 1.53396.8345468 3.156217.8024444 4.786482.0043614 1.875895-.4014058 3.730814-1.1898315 5.439184-.8003379 1.718261-1.9655294 3.248295-3.4173068 4.487325-1.5755288 1.335708-3.3980903 2.360628-5.368077 3.018747-2.2950475.757328-4.7045062 1.125193-7.1251539 1.087837-6.6545421.055144-13.03713307-2.591868-17.639944-7.315701z"/><path d="m40.7558111 283.859644v12.368927h-6.012954v-52.115499h4.9821618l.515396 4.218227h.2246599c1.6179661-1.415942 3.3922176-2.630808 5.2861133-3.619511 1.8678916-.990649 3.9382691-1.508433 6.0393845-1.510396 2.1006684-.030313 4.180175.435159 6.0790303 1.360716 1.7447883.865972 3.2560397 2.160359 4.4006894 3.769191 1.2249112 1.775219 2.1209507 3.768058 2.6430566 5.878301.6376437 2.522834.9443204 5.122225.9118545 7.728878.0457174 2.832636-.374287 5.652825-1.2422365 8.341202-.7385853 2.270281-1.8813702 4.379065-3.3698974 6.21848-1.3388803 1.646641-3.0125787 2.970494-4.9028701 3.878047-1.8316851.887883-3.8298746 1.352316-5.8543704 1.360718-1.7067191-.010666-3.3916388-.395679-4.9425159-1.129397-1.7579644-.829356-3.4165555-1.865894-4.9425159-3.08883zm0-11.23953c1.3841626 1.265907 2.9716314 2.27426 4.6914255 2.979972 1.2627737.523834 2.604132.818476 3.9645849.870861 1.4179665.012611 2.8167174-.338094 4.0703073-1.020539 1.2680638-.699375 2.3694287-1.680029 3.2245292-2.871115.9710548-1.374517 1.6919415-2.918979 2.1276606-4.558405.5354467-1.98884.7935251-4.045971.7664863-6.109625.0103468-1.827708-.1623652-3.651642-.515396-5.442871-.2852511-1.514125-.8457135-2.959139-1.6519104-4.259048-.7393964-1.147372-1.7486224-2.083547-2.9337929-2.721435-1.3274873-.683575-2.7980286-1.020053-4.2817518-.979718-1.6041283.025457-3.1763679.465265-4.572488 1.279075-1.7791755 1.035637-3.4374594 2.277425-4.9425159 3.701153z"/><path d="m72.2325001 236.411608c-1.1993889.031193-2.3655865-.365704-3.2556932-1.108025-.8424517-.736174-1.319664-1.759598-1.319664-2.830137s.4772123-2.093963 1.319664-2.830136c1.8886232-1.429175 4.6082934-1.429175 6.4969165 0 .8463273.734193 1.3262766 1.758356 1.3262766 2.830136 0 1.071781-.4799493 2.095944-1.3262766 2.830137-.8856682.740292-2.0465424 1.137141-3.2412233 1.108025zm-3.3714512 7.395732h6.583735v35.964089h-6.583735z"/><path d="m80.4571429 244.078479h5.1415919l.5263047 5.140633h.229415c1.6514542-1.639124 3.495161-3.080095 5.4924617-4.292694 2.0397643-1.184888 4.378204-1.781804 6.7474961-1.722377 3.8415747 0 6.6485327 1.174749 8.4208747 3.52425 1.772343 2.349498 2.672009 5.825166 2.698999 10.427004v22.616134h-6.140222v-21.807942c0-3.374093-.548796-5.807501-1.646389-7.300228-1.250577-1.563595-3.2181812-2.404999-5.2360566-2.239091-1.7724034-.033474-3.5149881.450723-5.0066421 1.391152-1.7816229 1.204134-3.4362315 2.580037-4.9391671 4.107205v25.848904h-6.1402215z"/><path d="m113.371429 244.07857h5.097016l.527277 5.140621h.229839c1.654507-1.639121 3.501622-3.080086 5.502614-4.292683 2.043251-1.185554 4.386213-1.782517 6.759969-1.722372 3.848675 0 6.660822 1.174746 8.43644 3.524239s2.676948 5.825152 2.703987 10.426979v22.616075h-6.27325v-21.807885c0-3.374084-.549811-5.807488-1.649432-7.300211-1.25289-1.56359-3.224131-2.404992-5.245736-2.239084-1.775679-.033474-3.521485.450721-5.015896 1.391148-1.784916 1.20413-3.442583 2.58003-4.948297 4.107194v25.848838h-6.124531z"/><path d="m146.300188 271.200236c-.091264-3.857814 2.049434-7.432721 5.52357-9.22421 3.682381-2.137372 9.486732-3.631722 17.413056-4.483049.000888-1.136108-.114773-2.269403-.345223-3.382663-.210278-1.04789-.627857-2.044904-1.228995-2.934358-.599854-.861142-1.39991-1.569048-2.333708-2.064918-1.164544-.569742-2.456539-.840775-3.756028-.787929-2.093444-.019573-4.167862.392283-6.089736 1.209064-1.754945.746704-3.433436 1.656497-5.01264 2.716997l-2.527034-4.292856c2.017808-1.249694 4.143354-2.322507 6.352106-3.206058 2.628677-1.056275 5.446072-1.582898 8.285356-1.548691 4.538533 0 7.829661 1.358501 9.873382 4.075498 2.188017 3.232412 3.262669 7.070806 3.065581 10.949504v22.455993h-5.205965l-.538548-4.360783h-.151898c-1.776875 1.44871-3.712967 2.697242-5.772131 3.722288-2.025526 1.0211-4.269461 1.552027-6.545431 1.54869-2.869501.101632-5.671748-.869074-7.84347-2.716999-2.16229-1.968285-3.321352-4.781607-3.162244-7.67552zm6.200208-.448305c-.172524 1.720619.53044 3.413937 1.878014 4.523803 1.351213.934848 2.974977 1.411694 4.62599 1.358499 1.77709.001673 3.527205-.427593 5.095493-1.24982 1.849955-.999367 3.562352-2.227456 5.095494-3.654363v-10.161575c-2.655504.316224-5.28876.792597-7.884897 1.426425-1.802707.421881-3.539719 1.079832-5.164538 1.956239-1.135841.61184-2.088257 1.506646-2.761785 2.594733-.576352.97351-.881217 2.079467-.883771 3.206059z"/><path d="m177.371429 226.742857h6.225462v35.907842h.235707l15.903353-19.069321h6.932584l-12.478654 14.527086 14.267262 21.662965h-6.932586l-10.91189-17.470133-6.932585 7.901875v9.527941h-6.225462z"/><path d="m202.97707 262.555666c-.062812-2.775543.399394-5.538061 1.362477-8.143281.843118-2.231468 2.100314-4.284934 3.705942-6.053171 1.47041-1.609423 3.25543-2.902601 5.245541-3.800198 1.918493-.882351 4.004456-1.345135 6.117528-1.357213 2.137214-.032666 4.257808.378721 6.226525 1.207921 1.791651.768739 3.371205 1.955809 4.605177 3.460894 1.289038 1.609486 2.251558 3.453332 2.833954 5.428853.680895 2.294734 1.011586 4.678401.980983 7.071082.013349 1.130836-.064104 2.260924-.231619 3.379461h-24.688106c.053997 3.470735 1.354208 6.807408 3.665066 9.405488 2.226936 2.32347 5.347483 3.583669 8.569987 3.460893 1.659215.018677 3.309252-.247614 4.877672-.787184 1.493386-.529261 2.923564-1.221105 4.264558-2.062963l2.193589 4.07164c-1.700981 1.046221-3.498562 1.927905-5.368164 2.632993-2.150614.783011-4.427579 1.164873-6.717018 1.126488-2.369865.005378-4.717433-.455863-6.907763-1.357214-2.104015-.85299-4.006506-2.133365-5.586162-3.75948-1.641175-1.720589-2.911621-3.757457-3.733191-5.985311-.951036-2.53927-1.431153-5.229499-1.416976-7.939698zm25.682715-2.782288c0-3.764005-.794779-6.636773-2.384338-8.618304-1.623669-2.000439-4.110757-3.105465-6.689768-2.972297-1.286386-.004574-2.559002.263771-3.73319.787183-1.206405.539571-2.297889 1.304342-3.215449 2.252974-1.006876 1.050284-1.814666 2.273381-2.384337 3.610189-.663334 1.56955-1.081465 3.231036-1.239855 4.926683z"/><path d="m235.89924 244.024102h5.099588l.527543 6.475389h.229955c1.110689-2.06379 2.655198-3.872869 4.531464-5.307696 1.655413-1.286372 3.704636-1.987608 5.816504-1.990385 1.335953-.022567 2.662249.225896 3.895706.729808l-1.203882 5.307696c-.540738-.17797-1.091802-.324191-1.650264-.437885-.620557-.107393-1.250167-.156271-1.880219-.145962-1.776591.07776-3.477972.725777-4.842579 1.844424-2.018596 1.708279-3.532245 3.917197-4.382668 6.395772v22.876166h-6.154674z"/></g></svg>