<svg height="301" preserveAspectRatio="xMidYMid" viewBox="0 0 256 301" width="256" xmlns="http://www.w3.org/2000/svg"><path d="m256 128c0 37.708543-7.798995 83.859296-15.115578 97.929648-3.698492 7.155779-7.959799 11.9799-14.874372 15.035176-5.547738 2.492462-15.19598 5.788945-22.753769 7.316583-7.557789 1.60804-37.708542 7.638191-37.708542 7.638191v41.407035c-.080402 2.01005-1.688443 3.698493-3.778895 3.698493-.80402 0-1.60804-.321608-2.170854-.723618l-69.3869347-44.38191s-29.9095478-5.788945-37.4673367-7.557789c-7.638191-1.849246-17.1256281-4.904523-22.5929648-7.396985-6.9145729-3.055276-11.1758794-7.959799-14.8743719-15.035176-4.0201005-7.638191-8.12060301-24.683417-11.09547738-44.783919l150.11055248 6.994975c6.271357 0 11.336684-5.065327 11.336684-11.336684 0-5.708543-4.180905-10.452261-9.648242-11.256281l-147.05527588-21.306533c-5.06532664-1.125628-8.84422111-5.628141-8.84422111-11.015075-.08040201-1.768845-.08040201-3.457287-.08040201-5.226131 0-37.7085427 7.87939698-83.8592965 15.1959799-97.9296482 3.6984925-7.1557789 8.040201-11.8190955 14.8743719-15.0351759 21.4673366-10.13065329 65.5276381-15.0351759 97.9296482-15.0351759 44.221106 0 82.331658 8.12060302 97.929648 15.0351759 6.914573 3.0552764 11.17588 7.959799 14.874372 15.0351759 3.939699 7.6381909 8.040201 24.603015 11.015075 44.6231155l-150.110552-6.9949748c-6.2713571 0-11.3366837 5.0653266-11.3366837 11.3366834 0 5.7085427 4.1809045 10.4522613 9.6482417 11.2562814 0 0 146.572864 21.2261307 146.894472 21.3065327 4.743718.964824 8.442211 4.984925 8.924623 9.889447.080402 0 .160804 4.904523.160804 6.512563z" fill="#ff6c0c"/></svg>