<svg height="262" preserveAspectRatio="xMidYMid" viewBox="0 0 256 262" width="256" xmlns="http://www.w3.org/2000/svg"><path d="m74.2028387 33.6020645 56.9517423 208.1940645c3.827613 13.991226 18.270967 22.23071 32.253935 18.398968 13.99329-3.831742 22.224516-18.279226 18.394839-32.268387l-56.962065-208.2002584c-3.829677-13.98709676-18.270967-22.22864515-32.2539352-18.3948387-13.9809032 3.82554839-22.2141935 18.2771613-18.3845161 32.2683871z" fill="#f96316"/><path d="m179.662452 32.8134194-142.6167746 161.0446456c-9.6206451 10.859354-8.6152258 27.464258 2.2338065 37.086967 10.8490322 9.620645 27.4374193 8.617291 37.0580645-2.237935l142.6167746-161.0425809c9.620645-10.8593548 8.615225-27.4580645-2.233807-37.0828387-10.853161-9.6289032-27.445677-8.6234839-37.058064 2.2296774z" fill="#b200f8"/><path d="m18.0645161 122.054194 203.3878709 67.292903c13.764129 4.552258 28.614194-2.919226 33.166452-16.695742 4.56258-13.774452-2.910968-28.63071-16.681291-33.189161l-203.381677-67.2867101c-13.7703226-4.5563871-28.61419358 2.9150967-33.16851616 16.6916129-4.55019355 13.7744512 2.92335484 28.6348382 16.68129036 33.1870972z" fill="#00b4f2"/></svg>