<svg height="258" preserveAspectRatio="xMidYMid" viewBox="0 0 256 258" width="256" xmlns="http://www.w3.org/2000/svg"><g fill="#ffa64d"><path d="m13.221978 183.044689c16.785348-17.066667 231.05641-178.26227142 234.713553-174.60512856 2.813187 2.81318686-156.5069596 219.61611756-173.3860805 236.58901056-16.8791208 16.972894-44.2608058 16.785348-61.1399267-.281318-16.97289376-17.066667-16.97289376-44.729671-.1875458-61.702564z" opacity=".5"/><path d="m22.6930403 175.449084c20.6300366-12.096703 230.1186817-95.1794869 232.6505497-90.678388 1.969231 3.469597-168.791209 154.537729-189.5150186 166.540659-20.6300366 12.002931-46.9802198 4.782418-58.88937726-16.22271-11.90915751-20.817583-4.87619048-47.542857 15.75384616-59.639561z" opacity=".3"/><path d="m82.0512821 235.27619c12.0029304-20.817582 94.3355309-231.80659293 89.9282049-234.33846106-3.469597-1.96923077-153.3186811 170.10402906-165.32161154 190.92161206-11.90915751 20.817582-4.68864469 47.355311 16.12893774 59.264469 20.7238095 12.00293 47.2615384 4.87619 59.2644689-15.84762z" opacity=".3"/><path d="m32.7267399 171.041758c23.0681319-6.282784 216.5216121-30.194872 217.9282051-25.224908 1.031502 3.844688-172.7296703 103.431502-195.7978021 109.714286-23.0681319 6.282783-46.69890114-7.595605-52.79413924-30.945055-6.09523809-23.349451 7.68937729-47.261539 30.66373624-53.544323z" opacity=".2"/><path d="m32.7267399 171.041758c23.0681319-6.282784 179.3875461 29.069597 180.7003661 33.945788 1.031502 3.844688-135.5956042 44.167033-158.663736 50.449817-23.0681319 6.282784-46.69890114-7.595605-52.79413923-30.945055-6.0014652-23.255678 7.78315018-47.167766 30.75750913-53.45055z" opacity=".1"/><path d="m86.4586081 225.054945c6.2827838-23.255678-28.8820513-180.7003662-33.8520147-182.0131868-3.8446886-1.0315018-43.79194139 136.5333338-49.98095237 159.7890108-6.18901099 23.255678 7.59560437 47.073993 30.75750917 53.075458 23.0681319 6.189011 46.8864469-7.595604 53.0754579-30.851282z" opacity=".1"/><path d="m86.4586081 225.054945c6.2827838-23.255678 29.9135529-218.11575086 25.0373629-219.42857137-3.844689-1.03150184-102.58754609 173.94871837-108.87032997 197.29816837-6.18901099 23.255678 7.59560437 47.073993 30.75750917 53.075458 23.0681319 6.189011 46.8864469-7.689377 53.0754579-30.945055z" opacity=".2"/></g></svg>