<svg height="254" preserveAspectRatio="xMidYMid" viewBox="0 0 256 254" width="256" xmlns="http://www.w3.org/2000/svg"><g fill="#6db33f"><path d="m244.896373 54.5668792-170.2678905-52.95679649c-8.2318443-2.55992278-17.079284 2.02817048-19.6592063 10.19620209l-53.37052133 168.9479842c-2.57992219 8.169021 2.04401556 16.946887 10.27585993 19.50681l170.2688872 52.956796c8.231845 2.559923 17.078288-2.02817 19.65821-10.196202l53.370522-168.948973c2.580918-8.1680316-2.044016-16.945898-10.275861-19.5058208zm-163.2981162 125.9689568c0 7.218192-5.9517509 13.123805-13.2263346 13.123805h-.0488093c-7.2735876 0-13.2253386-5.905613-13.2253386-13.123805v-67.246898c0-7.218192 5.951751-13.122817 13.2253386-13.122817h.0488093c7.2745837 0 13.2263346 5.904625 13.2263346 13.122817zm-13.2502413-93.2909001c-7.3482956 0-13.3050271-5.9105553-13.3050271-13.2008991 0-7.2913322 5.9567315-13.2018875 13.3050271-13.2018875 7.3472997 0 13.3040312 5.9105553 13.3040312 13.2018875 0 7.2903438-5.9567315 13.2008991-13.3040312 13.2008991zm84.2628485 106.3712161c-33.116639 0-59.9169496-27.195474-59.9169496-60.055393 0-32.860909 26.8471286-59.4989312 59.9647626-59.4989312 17.055378 0 32.448249 7.0649915 43.3666 18.4077227l6.40498-11.2448808c6.568342 17.5834078 10.845634 38.1240703 10.845634 52.2204483 0 32.85992-27.547393 60.171034-60.665027 60.171034z"/><path d="m129.955362 174.318881c6.43586-2.002473 13.297058-4.110702 19.035642-5.949103 22.660483-7.260692 42.140389-25.539924 47.290273-48.500158-4.098989 10.801095-20.834615 31.900196-47.044234 40.306429-8.409152 2.645912-17.132078 4.321228-25.745432 6.295038-1.106677.254015-2.623751-.028663-3.595954-.628614-5.520435-3.405983-8.494816-9.499389-8.963984-15.647158-1.265058-16.541647 10.057712-30.041039 26.888965-33.535977 7.068389-1.468744 14.345961-1.086237 21.566755-1.853226 19.070506-1.9916 36.996483-15.5404113 42.41133-26.8663399 0 0 .972203 2.2070685 1.181386 2.8574273 4.093011 12.7225196 7.356264 25.6140536 7.674024 39.0600726.17133 7.262669-.630537 14.411674-3.218428 21.273057-5.202678 13.790966-15.824188 20.783806-30.01376 22.42947-8.295595.961701-16.738615.750186-25.117882.910305-6.800436.129479-14.670694-.151223-22.348701-.151223"/><path d="m121.522303 175.012729c0 2.804054-2.290054 5.076356-5.116015 5.076356s-5.116015-2.272302-5.116015-5.076356c0-2.804055 2.290054-5.076357 5.116015-5.076357s5.116015 2.272302 5.116015 5.076357"/></g></svg>