<svg height="228" preserveAspectRatio="xMidYMid" viewBox="0 0 512 228" width="512" xmlns="http://www.w3.org/2000/svg" xmlns:xlink="http://www.w3.org/1999/xlink"><linearGradient id="a" x1="57.661563%" x2="57.661558%" y1="2.046447%" y2="94.438752%"><stop offset="0" stop-color="#97d9f6"/><stop offset=".92024499" stop-color="#0f80cc"/><stop offset="1" stop-color="#0f80cc"/></linearGradient><path d="m194.519337 112.044206c-6.820773 0-12.366851 2.019005-16.618785 6.055249-4.251933 4.039779-6.408839 9.334997-6.408839 15.823211 0 3.362482.53569 6.428287 1.59116 9.237569 1.05547 2.814939 2.6979 5.422674 4.906077 7.779006 2.208177 2.358453 6.628067 5.562172 13.21547 9.635359 8.083094 4.934534 13.372818 8.939308 15.911602 12.066284 2.540553 3.124331 3.801105 6.398586 3.801105 9.812155 0 4.570519-1.50453 8.218873-4.596685 10.961326-3.097459 2.743697-7.239779 4.110497-12.375691 4.110497-5.417016 0-10.13569-1.909562-14.187845-5.701658-4.052155-3.797569-6.097679-8.820501-6.143646-15.116022h-2.519337v22.850829h2.519337c.76906-2.163808 1.83337-3.270718 3.226519-3.270718.670055 0 2.24.462143 4.685083 1.325967 5.949171 2.116766 10.834033 3.138121 14.674033 3.138121 6.617459 0 12.266077-2.317606 16.972376-7.027624 4.699226-4.707883 7.071823-10.38674 7.071823-17.016575 0-5.140862-1.566409-9.714747-4.640884-13.701643-3.074475-3.991691-9.053702-8.63471-17.98895-13.966851-7.68884-4.619513-12.679779-8.381878-14.983426-11.314917-2.307182-2.92881-3.491712-6.168567-3.491712-9.723757 0-3.845311 1.412596-6.93393 4.198895-9.237576 2.786298-2.305414 6.437127-3.447514 11.005524-3.447514 5.141216 0 9.426741 1.525746 12.81768 4.596685 3.387403 3.076243 5.346298 7.339138 5.922652 12.817687h2.519337v-19.801112h-2.342541c-.286409 1.009503-.551603 1.654806-.795581 1.944751-.236906.288177-.693038.441989-1.370165.441989-.815028 0-2.268288-.342983-4.331492-1.016574-4.41989-1.488619-8.495028-2.254144-12.243094-2.254144zm82.342541 0c-8.31116 0-15.856795 1.958895-22.674033 5.878453-6.827845 3.912486-12.232486 9.345414-16.220994 16.2652-3.986741 6.919242-5.966851 14.267913-5.966851 22.099448 0 10.521444 3.443978 19.894962 10.38674 28.110483 6.946299 8.210571 15.269835 13.326681 24.928177 15.292818 2.208177 1.150585 5.367514 4.120751 9.502763 8.928177 4.660331 5.425318 8.602872 9.338342 11.845303 11.668508 3.238895 2.331396 6.735912 4.040132 10.43094 5.171271 3.698563 1.126371 7.697679 1.679558 12.022099 1.679558 5.236685 0 9.925304-.910144 14.055249-2.784531l-.928177-2.298342c-2.397348.864714-4.953812 1.281768-7.646409 1.281768-3.654365 0-7.347624-1.205039-11.049724-3.62431-3.696795-2.425282-8.32-7.052545-13.834254-13.878453-2.591823-3.270718-4.380994-5.334276-5.392265-6.143646 10.567072-2.063558 19.256575-7.184973 26.033149-15.381216 6.774807-8.192707 10.165746-17.542874 10.165746-28.022085 0-12.442717-4.426961-22.899808-13.21547-31.425421-8.79558-8.526498-19.611933-12.81768-32.441989-12.81768zm51.403315 0 .132526 2.696133c5.533702 0 8.632929 1.630055 9.325967 4.906077.258122 1.172155.376575 3.336486.39779 6.453039l-.044128 59.624302c-.045967 4.453127-.680663 7.296353-1.900552 8.530387-1.221658 1.225193-3.28663 1.992486-6.276244 2.298342l-.132525 2.696133h55.160221l1.414364-13.524862h-2.519337c-.719558 3.68442-2.369061 6.323808-4.994475 7.823204-2.632486 1.510358-7.287514 2.254144-14.01105 2.254144h-5.215469c-6.049945 0-9.550498-2.187145-10.475138-6.585635-.19094-.870188-.256354-1.803146-.265194-2.82873l.220995-60.287285c-.001415-4.446056.560442-7.425415 1.723757-8.883978 1.17569-1.45326 3.295469-2.26652 6.36464-2.475138l-.132526-2.696133h-28.77348zm-50.519337 3.270718c9.373702 0 17.027183 3.691846 22.939227 11.138122 5.910276 7.448942 8.839779 17.658165 8.839779 30.585642 0 12.249968-2.971934 22.058601-8.928177 29.43645-5.956243 7.375558-13.883757 11.049724-23.734807 11.049724-9.463867 0-17.138563-3.788729-23.027624-11.403315-5.883757-7.614586-8.79558-17.500641-8.79558-29.657444 0-12.492376 2.947182-22.492472 8.883978-29.966858 5.93326-7.466431 13.878453-11.182321 23.823204-11.182321zm126.850829 12.817687c-1.345414 0-2.370829.454364-3.138121 1.370166-.784973.912251-1.025415 2.017223-.751382 3.359116.265194 1.301738.998895 2.442607 2.165746 3.403315 1.159779.959802 2.411492 1.458563 3.756906 1.458563 1.301216 0 2.293039-.498733 3.005525-1.458563.712486-.960708.929945-2.101577.662984-3.403315-.274034-1.341893-.982984-2.446865-2.077349-3.359116-1.10674-.915802-2.323093-1.370166-3.624309-1.370166zm36.375691 9.149171c-2.285967 8.794152-7.241547 13.553135-14.850829 14.320442l.088398 2.519337h8.883978l-.176796 29.790041c.014144 5.093127.169724 8.484067.530387 10.209945.875138 4.131897 3.573038 6.232044 8.088398 6.232044 6.532596 0 13.385193-3.979315 20.552486-11.933701l-2.165746-1.856354c-5.174807 5.238283-9.750276 7.867403-13.745856 7.867403-2.455691 0-3.977901-1.412243-4.552487-4.198895-.157348-.676773-.220994-1.467573-.220994-2.38674l.088398-33.723743h13.56906l-.132525-4.022099h-13.392266v-12.81768h-2.563536zm52.464088 11.226519c-7.589834 0-13.763536 3.68442-18.563536 11.005525-4.775248 7.333481-6.253259 15.458454-4.37569 24.397776 1.104972 5.236148 3.306077 9.294328 6.674033 12.154696 3.362652 2.859138 7.628729 4.287293 12.729281 4.287293 4.74873 0 11.360884-1.20238 14.143647-3.624309 2.789834-2.420516 5.360442-6.341842 7.734807-11.712707l-1.900553-1.988951c-3.786961 6.967514-11.429834 10.475138-17.19337 10.475138-7.923978 0-12.777017-4.347403-14.585635-12.994475-.235139-1.103742-.410166-2.289502-.530387-3.535911 9.42674-1.492509 16.571049-4.135433 21.392265-7.955801 4.81768-3.822476 9.654807-7.874292 8.751381-12.154682-.537458-2.543565-1.858121-4.543477-3.889503-6.055249-2.0579-1.511065-7.400663-2.298343-10.38674-2.298343zm-82.961326.309393-16.353591 3.756906v2.917127l5.657459-.707182c2.740331 0 4.352707 1.240935 4.861878 3.712707.171492.827233.279337 1.98895.309392 3.447514l-.176795 26.740317c-.045967 3.700331-.456133 5.851396-1.281768 6.497237-.832707.647072-3.028509.972376-6.585636.972376l-.088397 2.519337h25.944751l-.044128-2.519337c-3.604862 0-5.9421-.284457-6.983426-.839779-1.023646-.551772-1.72906-1.555971-2.033149-3.093923-.235138-1.108338-.337679-3.01807-.353591-5.657458l.088398-37.745842h-2.961326zm78.80663 4.950276c1.578784 0 3.10453.609761 4.640884 1.812155 1.515138 1.19815 2.438011 2.530468 2.740331 3.9779 1.479779 7.109134-4.822983 12.024023-19.005524 14.762417-.404862-5.183816.493259-9.889577 2.78453-14.143632 2.273591-4.249996 5.234917-6.40884 8.839779-6.40884z" fill="#003b57"/><path d="m157.887646 9.95179492h-140.7377675c-9.43239784 0-17.1498785 7.71889498-17.1498785 17.15093918v155.2074259c0 9.431506 7.71748066 17.149171 17.1498785 17.149171h92.6935695c-1.052098-46.121314 14.697722-135.6284862 48.044198-189.50753608z" fill="#0f80cc"/><path d="m152.774718 14.9551098h-135.6248395c-6.697547 0-12.14780115 5.4488398-12.14780115 12.1476243v143.8834989c30.71611045-11.788729 76.81726935-21.960698 108.69333565-21.498724 6.405558-33.49343 25.231431-99.1334179 39.079305-134.5323992z" fill="url(#a)"/><path d="m190.71505 4.8724579c-9.638895-8.5958011-21.309172-5.14298343-32.827404 5.07933702-1.709613 1.51867408-3.41569 3.20353588-5.112928 5.00331488-19.703867 20.9025415-37.99337 59.6207735-43.67558 89.1898342 2.213481 4.48884 3.942542 10.217017 5.081105 14.592707.291713 1.122652.555138 2.176354.765525 3.072707.500331 2.121371.769061 3.497017.769061 3.497017s-.176796-.668464-.901658-2.770387c-.1379-.403094-.291712-.843315-.473812-1.361326-.07779-.213922-.185635-.473812-.304088-.751381-1.285304-2.987845-4.840663-9.294144-6.405304-12.039779-1.338343 3.947845-2.521105 7.641105-3.51116 10.982542 4.517127 8.264839 7.269834 22.42864 7.269834 22.42864s-.238674-.917922-1.373702-4.121628c-1.007735-2.83351-6.026961-11.627675-7.215911-13.683631-2.033857 7.508162-2.8419893 12.577244-2.113238 13.811447 1.414895 2.391521 2.762431 6.51793 3.945724 11.081378 2.673149 10.280479 4.531271 22.795668 4.531271 22.795668s.06011.829341.160884 2.105635c-.371271 8.633282-.148509 17.584258.519779 25.674778.885745 10.709922 2.552928 19.910195 4.678011 24.834121l1.442651-.786556c-3.120441-9.700957-4.388066-22.414328-3.832928-37.075985.839779-22.410778 5.996906-49.437164 15.526188-77.606188 16.099006-42.5228728 38.435359-76.6408839 58.878232-92.9343645-18.632486 16.8274033-43.850608 71.2963535-51.399779 91.4669615-8.452596 22.587403-14.442431 43.783609-18.052596 64.09158 6.228508-19.038579 26.367292-27.222276 26.367292-27.222276s9.877569-12.181739 21.420553-29.585326c-6.914475 1.577016-18.268287 4.276685-22.07116 5.874917-5.609724 2.353149-7.121326 3.155801-7.121326 3.155801s18.171049-11.065635 33.760884-16.076022c21.44-33.767956 44.798232-81.7396687 21.27558-102.7235361" fill="#003b57"/></svg>