<svg height="204" preserveAspectRatio="xMidYMid" viewBox="0 0 256 204" width="256" xmlns="http://www.w3.org/2000/svg"><path d="m162.931025 40.6692367c-4.823016-4.8230159-12.643776-4.8230159-17.464232 0l-78.5967274 78.5992873c-9.6511517 9.643471-25.2875535 9.643471-34.9310253 0-9.6537117-9.646032-9.6537117-25.2849939 0-34.9361457l77.0837747-77.08377454c-9.6460319-9.64859176-25.2875537-9.64859176-34.9335854 0l-59.6221019 59.61954194c-19.28950359 19.2946235-19.28950359 50.5699873 0 69.8671703 19.2946235 19.294624 50.5699871 19.294624 69.8646106 0l78.5992867-78.5992867c4.820456-4.8230159 4.820456-12.6437768 0-17.4667926zm26.198909-26.1963491c-19.294623-19.29718348-50.569987-19.29718348-69.86461 0l-78.5967273 78.5941671c-4.8204559 4.8204559-4.8204559 12.6463363 0 17.4667923 4.8230158 4.823016 12.6412168 4.823016 17.4642326 0l78.6018467-78.5941667c9.646032-9.6485918 25.282434-9.6485918 34.925906 0 4.828136 4.8204559 12.646336 4.8204559 17.469352 0 4.823016-4.8281359 4.823016-12.6437768 0-17.4667927zm26.201469 78.5941671c-4.823016-4.8178959-12.646336-4.8178959-17.469352 0l-78.596727 78.5967273c-9.646032 9.646031-25.2875539 9.646031-34.9335857 0-4.8204559-4.820456-12.6386568-4.820456-17.4616727 0-4.8306958 4.825576-4.8306958 12.646336 0 17.464232 19.2869436 19.294624 50.5699874 19.294624 69.8646104 0l78.596727-78.594167c4.820456-4.820456 4.820456-12.6463364 0-17.4667923zm26.201469-26.1963491c-19.294623-19.2920635-50.575107-19.2920635-69.86461 0l-78.6018473 78.5992874c-4.8230159 4.817896-4.8230159 12.643776 0 17.464232 4.8255758 4.825576 12.6463363 4.825576 17.4667923 0l78.596727-78.5967267c9.643472-9.6485917 25.287554-9.6485917 34.931026 0 9.646031 9.6460318 9.646031 25.2849937 0 34.9310257l-77.083775 77.086334c9.646032 9.643472 25.279874 9.643472 34.933585 0l59.622102-59.619542c19.289504-19.297183 19.289504-50.5725468 0-69.8646104z" fill="#1a1918"/></svg>