<svg height="256" preserveAspectRatio="xMidYMid" viewBox="0 0 256 256" width="256" xmlns="http://www.w3.org/2000/svg"><g fill="#2e3b4e"><path d="m212.65112 0h-169.9816429c-23.5627885 0-42.6694771 19.1008864-42.6694771 42.6694771v169.9816429c0 23.568591 19.1066886 42.669477 42.6694771 42.669477h169.9816429c23.568591 0 42.669477-19.100886 42.669477-42.669477v-169.9816429c.005802-23.5685907-19.095084-42.6694771-42.669477-42.6694771zm-3.74823 195.447557c0 7.438438-6.0285 13.461135-13.461135 13.461135h-135.533902c-7.4384375 0-13.4669372-6.022697-13.4669372-13.461135v-135.539704c0-7.4384375 6.0284997-13.4669372 13.4669372-13.4669372h135.533902c7.432635 0 13.461135 6.0284997 13.461135 13.4669372z"/><path d="m100.569764 162.479381c-4.2704287 0-7.7285479-3.481328-7.7285479-7.769164v-54.099837c0-4.2878359 3.4581192-7.7691639 7.7285479-7.7691639h54.181069c4.282033 0 7.728548 3.481328 7.728548 7.7691639v54.099837c0 4.287836-3.446515 7.769164-7.728548 7.769164z"/></g></svg>