<svg height="280" preserveAspectRatio="xMidYMid" viewBox="0 0 256 280" width="256" xmlns="http://www.w3.org/2000/svg" xmlns:xlink="http://www.w3.org/1999/xlink"><defs><path id="a" d="m25.484 51.303 77.032-44.475c15.77-9.104 35.199-9.104 50.968 0l77.032 44.475c15.77 9.105 25.484 25.93 25.484 44.139v88.95c0 18.209-9.714 35.034-25.484 44.139l-77.032 44.475c-15.769 9.104-35.198 9.104-50.968 0l-77.032-44.475c-15.769-9.105-25.484-25.93-25.484-44.139v-88.95c0-18.209 9.715-35.034 25.484-44.139"/><mask id="b" fill="#fff"><use fill="#fff" xlink:href="#a"/></mask></defs><use fill="#fff" xlink:href="#a"/><path d="m25.484 51.303 77.032-44.475c15.77-9.104 35.199-9.104 50.968 0l77.032 44.475c15.77 9.105 25.484 25.93 25.484 44.139v88.95c0 18.209-9.714 35.034-25.484 44.139l-77.032 44.475c-15.769 9.104-35.198 9.104-50.968 0l-77.032-44.475c-15.769-9.105-25.484-25.93-25.484-44.139v-88.95c0-18.209 9.715-35.034 25.484-44.139" fill="#2f4154" mask="url(#b)"/><path d="m151.3329 31.2332-125.503 73.181 44.545 74.241 124.442-72.827zm45.7804 66.708-38.676-65.458 18.739 5.251c.091.025.168.084.216.165l23.891 40.053c.048.079.063.174.044.264zm-132.9253-22.1633 44.014-25.101-10.605-7.247-32.879 19.974zm-40.174 36.1933 37.413 64.413-17.737-4.144c-.344-.08-.641-.295-.825-.596l-23.642-38.656c-.183-.3-.239-.661-.155-1.003zm147.3409 40.0917-41.875 42.848 17.187 29.469 41.715-43.025zm-11.3605-19.5436-50.201 28.636 17.008 29.162 41.756-43.068zm31.1671 53.6171-41.834 42.806 14.409 24.706 41.68-42.989zm17.0151 29.2716-41.798 42.77 5.149 8.727 49.902-28.811z" fill="#fff" mask="url(#b)"/></svg>