<svg height="114" preserveAspectRatio="xMidYMid" viewBox="0 0 512 114" width="512" xmlns="http://www.w3.org/2000/svg"><g fill="#0a0b09" transform="translate(97.52381 51.397683)"><path d="m15.4390734 54.2252149c-6.24745435 0-11.1394595-1.4299099-15.20383016-5.3433822l3.61233462-3.6129936c2.93559846 3.0851789 6.92484944 4.2903887 11.51637584 4.2903887 6.095897 0 9.8597889-2.1830837 9.8597889-6.548592 0-3.2360772-1.8826049-5.0422446-6.1723346-5.4191609l-6.096556-.5264968c-7.22532819-.6022754-11.06368083-3.8383526-11.06368083-9.9349086 0-6.7739511 5.71963964-10.8376628 13.62302193-10.8376628 5.2682625 0 10.0100283 1.2796705 13.3218841 3.9879331l-3.5378739 3.5372149c-2.6338018-2.0308674-6.0207773-2.9349395-9.8591299-2.9349395-5.4198199 0-8.27963968 2.333982-8.27963968 6.096556 0 3.1616164 1.80616731 5.0435624 6.47281338 5.4191608l5.9456577.5264968c6.4734723.6029344 10.9134414 3.0858379 10.9134414 10.0113462 0 7.1495496-6.096556 11.2890399-15.0522728 11.2890399"/><path d="m46.9708932 53.7738378c-6.322574 0-9.4835316-4.441287-9.4835316-9.9349086v-22.7296371h-4.6659871v-4.1401492h4.6659871v-11.59017765h5.4191609v11.59017765h7.9027233v4.1401492h-7.9027233v22.5787388c0 3.3869755 1.5808083 5.4191609 5.0429035 5.4191609h2.8598198v4.666646z"/><path d="m78.8348211 36.6887207h-10.3862857c-5.5700592 0-8.2796396 2.2582034-8.2796396 6.5472742 0 4.2903886 2.6344607 6.3232329 8.5049987 6.3232329 3.1616164 0 5.9456576-.226677 8.2789807-2.4842214 1.2796705-1.2038919 1.8819459-3.3111969 1.8819459-6.3976937zm0 17.0851171v-3.5378738c-3.0107181 3.0113771-5.7202986 3.9892509-10.6874234 3.9892509-5.1180232 0-8.1287413-.9778738-10.4627233-3.3863166-1.8055084-1.8074852-2.7840412-4.5915264-2.7840412-7.5271248 0-6.4721545 4.5157478-10.6880824 12.7947284-10.6880824h11.1394595v-3.5372149c0-5.417843-2.7095804-8.1280824-9.4835315-8.1280824-4.7411068 0-7.1502085 1.1294312-9.3326332 4.2146101l-3.6881133-3.3863166c3.3118559-4.2903887 7.0750888-5.4942806 13.0965251-5.4942806 9.9342497 0 14.8262548 4.2890708 14.8262548 12.3420335v25.1393976z"/><path d="m105.477931 54.2252149c-9.3326337 0-16.4077225-6.322574-16.4077225-18.9664041 0-12.644489 7.0750888-18.9664041 16.4077225-18.9664041 5.118023 0 8.3541 1.3541313 12.192453 5.4942806l-3.687455 3.4614363c-2.7847-3.0858379-4.967784-4.1388315-8.504998-4.1388315-3.612994 0-6.6230533 1.429251-8.5801189 4.2146101-1.7310476 2.4084427-2.4084427 5.2689215-2.4084427 9.9349086s.6773951 7.5264659 2.4084427 9.9349086c1.9570656 2.7847002 4.9671249 4.2146101 8.5801189 4.2146101 3.537214 0 5.720298-1.1287722 8.504998-4.2146101l3.687455 3.5378739c-3.838353 4.1381725-7.07443 5.4936216-12.192453 5.4936216"/><path d="m147.33739 53.7738378-11.741735-18.967063-7.225328 8.2789807v10.6880823h-5.419161v-53.58933329h5.419161v35.82616219l16.70886-19.2675419h6.773951l-12.56937 14.1495187 14.751135 22.8811943z"/><path d="m175.893416 26.1923912c-1.070126-1.0701261-2.497401-1.6407722-4.351671-1.6407722-1.854929 0-3.209719.5706461-4.279845 1.6407722-1.926755 1.9254363-2.140253 5.1351558-2.140253 8.9880052 0 3.8515315.213498 7.1330759 2.140253 9.0578533 1.070126 1.0701261 2.424916 1.6414311 4.279845 1.6414311 1.85427 0 3.281545-.571305 4.351671-1.6414311 1.924777-1.9247774 2.139593-5.2063218 2.139593-9.0578533 0-3.8528494-.214816-7.0625689-2.139593-8.9880052zm7.204242 23.4676551c-2.283244 2.4255753-6.063609 4.5651686-11.555913 4.5651686s-9.201503-2.1395933-11.484087-4.5651686c-3.352711-3.4950424-4.20868-7.7043809-4.20868-14.4796499 0-6.7054209.855969-10.9141004 4.20868-14.4098018 2.282584-2.4249164 5.991783-4.5651686 11.484087-4.5651686s9.272669 2.1402522 11.555913 4.5651686c3.352051 3.4957014 4.208679 7.7043809 4.208679 14.4098018 0 6.775269-.856628 10.9846075-4.208679 14.4796499z"/><path d="m208.14678 53.7969009h-7.276067l-13.695506-37.1631609h9.772149l7.56139 22.968834 7.489565-22.968834h9.77215z"/><path d="m243.752196 27.7613385c-.998302-2.2114183-3.067388-3.8515316-6.2066-3.8515316-3.137895 0-5.206981 1.6401133-6.204623 3.8515316-.571305 1.3554491-.786121 2.3530914-.856628 3.9945225h14.12382c-.071825-1.6414311-.285323-2.6390734-.855969-3.9945225zm-13.267851 10.3427953c0 4.7793257 2.924396 8.2743681 8.131377 8.2743681 4.066347 0 6.063609-1.1406332 8.418018-3.4950424l5.635295 5.4923037c-3.781025 3.7803655-7.419058 5.8494517-14.12382 5.8494517-8.774507 0-17.191207-3.9938635-17.191207-19.0448185 0-12.1272175 6.56243-18.9749704 16.191588-18.9749704 10.343454 0 16.192906 7.56139 16.192906 17.7618533v4.1368545z"/><path d="m278.544474 26.7623784c-1.427275-1.4266152-2.639074-2.2107594-4.921658-2.2107594-2.85323 0-5.992443 2.1395934-5.992443 6.8477529v22.397529h-9.273328v-37.1631609h9.05983v3.5662085c1.782445-2.1402522 5.349972-3.9945225 9.343835-3.9945225 3.638034 0 6.205941.9271351 8.774508 3.4957014z"/><path d="m323.320422 53.7969009c-7.632556 0-10.842275-5.3493127-10.842275-10.6281184v-41.74150837h9.273328v41.17020337c0 2.2120772.927135 3.3527104 3.280226 3.3527104h3.566209v7.846713zm-22.099686-30.0860952v30.0860952h-9.273328v-30.0860952h-3.851532v-7.061251h3.851532v-4.6376525c0-5.27748779 3.280885-10.62745947 10.842275-10.62745947h5.278806v7.84605405h-3.566867c-2.21076 0-3.280886 1.21245822-3.280886 3.35271042v4.0663475h6.847753v7.061251z"/><path d="m349.972757 26.1923912c-1.069467-1.0701261-2.496742-1.6407722-4.351671-1.6407722-1.85427 0-3.209719.5706461-4.279845 1.6407722-1.926096 1.9254363-2.139594 5.1351558-2.139594 8.9880052 0 3.8515315.213498 7.1330759 2.139594 9.0578533 1.070126 1.0701261 2.425575 1.6414311 4.279845 1.6414311 1.854929 0 3.282204-.571305 4.351671-1.6414311 1.925436-1.9247774 2.140252-5.2063218 2.140252-9.0578533 0-3.8528494-.214816-7.0625689-2.140252-8.9880052zm7.204242 23.4676551c-2.282585 2.4255753-6.063609 4.5651686-11.555913 4.5651686s-9.200844-2.1395933-11.483428-4.5651686c-3.352711-3.4950424-4.209339-7.7043809-4.209339-14.4796499 0-6.7054209.856628-10.9141004 4.209339-14.4098018 2.282584-2.4249164 5.991124-4.5651686 11.483428-4.5651686s9.273328 2.1402522 11.555913 4.5651686c3.35271 3.4957014 4.209338 7.7043809 4.209338 14.4098018 0 6.775269-.856628 10.9846075-4.209338 14.4796499z"/><path d="m403.00001 53.7969009h-7.631897l-7.774888-23.3246641-7.774888 23.3246641h-7.632556l-11.412921-37.1631609h9.843974l5.991125 22.968834 7.562049-22.968834h6.775269l7.632556 22.968834 5.992442-22.968834h9.77215z"/></g><path d="m63.2771377 73.1751454-43.425112-10.5325714 2.1066461-8.6848906 43.425112 10.5319125z" fill="#b58f52"/><path d="m66.1883552 62.784906-39.7903732-20.3323963 4.0663475-7.9580747 39.7903732 20.3323964z" fill="#c78431"/><path d="m72.3171995 52.021704-33.6503269-29.398816 5.8791042-6.7298018 33.6509859 29.398157z" fill="#e9812c"/><path d="m81.574713 42.5605766-25.0932716-36.97272589 7.394677-5.01852252 25.0932716 36.97272591z" fill="#e5712a"/><path d="m62.5819511 84.0378481-44.6178018-2.4361184.4869601-8.9240875 44.6178018 2.4367774z" fill="#9d8469"/><g fill="#797b7b"><path d="m71.8328752 105.058842v-37.0234649h8.9287001l.0065894 45.9620489h-80.7681647l.00197683-46.0009266h8.93660747v37.0623426z"/><path d="m17.8402677 87.2205508h44.9874698v8.9366075h-44.9874698z"/></g></svg>