<svg height="256" preserveAspectRatio="xMidYMid" viewBox="0 0 256 256" width="256" xmlns="http://www.w3.org/2000/svg"><g fill="#81bd41"><path d="m48.566 128.001c0-43.871 35.564-79.435 79.435-79.435 21.896 0 41.723 8.861 56.091 23.191l34.268-34.413c-23.151-23.077-55.089-37.344-90.359-37.344-70.693 0-128.001 57.308-128.001 128.001 0 .168.006.335.006.504l48.565-.148c-.001-.119-.005-.237-.005-.356"/><path d="m207.432 128.261c-.141 43.75-35.648 79.174-79.431 79.174-21.793 0-41.533-8.778-55.885-22.988l-34.268 34.413c23.135 22.956 54.986 37.141 90.153 37.141 70.655 0 127.938-57.247 127.999-127.888z"/><path d="m176.567 128.001c0 27.049-21.928 48.978-48.978 48.978s-48.978-21.929-48.978-48.978c0-27.05 21.928-48.978 48.978-48.978s48.978 21.928 48.978 48.978"/></g></svg>