<svg height="256" preserveAspectRatio="xMidYMid" viewBox="0 0 256 256" width="256" xmlns="http://www.w3.org/2000/svg"><path d="m250.422 128c0 67.612-54.81 122.422-122.422 122.422s-122.422-54.81-122.422-122.422 54.81-122.422 122.422-122.422 122.422 54.81 122.422 122.422" fill="#fff"/><g fill="#3880f0"><path d="m127.7549 53.5404c2.497 0 4.528 2.031 4.528 4.528s-2.031 4.528-4.528 4.528-4.528-2.031-4.528-4.528 2.031-4.528 4.528-4.528m49.871 20.585h-44.67v-4.873c4.211-1.966 7.137-6.238 7.137-11.184 0-6.803-5.535-12.337-12.338-12.337s-12.338 5.534-12.338 12.337c0 4.923 2.9 9.181 7.08 11.158v4.899h-44.717c-2.464 0-4.462 1.998-4.462 4.462v67.773c0 2.465 1.998 4.463 4.462 4.463h80.323v39.324h-60.986v-10.877c0-2.464-1.997-4.462-4.462-4.462s-4.462 1.998-4.462 4.462v15.34c0 2.464 1.997 4.462 4.462 4.462h16.455v5.857c0 .614.502 1.116 1.116 1.116h11.435c.613 0 1.115-.502 1.115-1.116v-5.857h9.866v5.857c0 .614.502 1.116 1.116 1.116h11.435c.613 0 1.115-.502 1.115-1.116v-5.857h16.258c2.464 0 4.462-1.998 4.462-4.462v-48.25c0-2.464-1.998-4.462-4.462-4.462h-80.323v-58.848h90.921v43.973c0 2.465 1.998 4.463 4.462 4.463 2.465 0 4.463-1.998 4.463-4.463v-48.436c0-2.464-1.998-4.462-4.463-4.462zm-76.1588 27.5034c-.614 0-1.116.502-1.116 1.116v9.159c0 .614.502 1.116 1.116 1.116h15.568c.613 0 1.115-.502 1.115-1.116v-9.159c0-.614-.502-1.116-1.115-1.116zm36.9053 0c-.614 0-1.116.502-1.116 1.116v9.159c0 .614.502 1.116 1.116 1.116h15.568c.613 0 1.115-.502 1.115-1.116v-9.159c0-.614-.502-1.116-1.115-1.116z"/><path d="m128 11.156c-64.428 0-116.844 52.416-116.844 116.844s52.416 116.844 116.844 116.844 116.844-52.416 116.844-116.844-52.416-116.844-116.844-116.844m0 244.844c-34.19 0-66.334-13.314-90.51-37.49s-37.49-56.32-37.49-90.51 13.314-66.334 37.49-90.51 56.32-37.49 90.51-37.49 66.334 13.314 90.51 37.49 37.49 56.32 37.49 90.51-13.314 66.334-37.49 90.51-56.32 37.49-90.51 37.49"/></g></svg>