<svg height="290" preserveAspectRatio="xMidYMid" viewBox="0 0 256 290" width="256" xmlns="http://www.w3.org/2000/svg"><path d="m241.026415 73.9018868-110.611321-64.24150944-120.75471664 67.62264154v135.2452831l120.75471664 67.622641 115.924529-67.622641v-135.2452831-5.7962264z" fill="#202a5a"/><path d="m9.66037736 77.2830189 120.75471664 67.6226411 115.924529-67.6226411-115.924529-67.62264154z" fill="#2c448a"/><path d="m246.339623 71.4867925-38.64151 20.2867924-.483019 8.6943401-76.8 44.437735v135.245283l115.924529-67.622641z" fill="#283a79"/><path d="m9.66037736 77.2830189v135.2452831l120.75471664 67.622641v-135.245283z" fill="#202a5a"/><path d="m0 212.528302v-43.471698l130.415094 77.283019v43.471698z" fill="#3558a7"/><path d="m0 77.2830189v24.1509431l130.415094 77.283019v-24.150943z" fill="#3558a7"/><path d="m256 212.528302v-24.150944l-105.781132-45.886792-19.803774 12.075472v23.667924l64.24151 28.498113-64.24151 39.607548v43.471698z" fill="#416fb5"/><path d="m194.656604 206.732075-7.728302-2.898113-56.513208 32.845283-120.75471664-67.622641v-5.796227l-9.66037736 5.796227 130.415094 77.283019z" fill="#477fc1"/><path d="m56.9962264 86.9433962 73.4188676-43.4716981 77.283019 48.3018868 38.64151-20.2867924-115.924529-71.4867925-130.415094 77.2830189 130.415094 77.2830191 19.803774-12.075472z" fill="#477fc1"/><path d="m207.215094 100.467925.483019-8.6943401-77.283019-48.3018868-73.4188676 43.4716981 8.2113208 4.8301887 65.2075468-38.6415094z" fill="#202a5a"/></svg>