<svg height="315" preserveAspectRatio="xMidYMid" viewBox="0 0 512 315" width="512" xmlns="http://www.w3.org/2000/svg"><path d="m78.9087876 244.603943c13.280107-15.884049 14.8424725-32.288887 4.5568995-62.755015-6.5098564-19.269175-17.316218-34.111647-9.3741932-46.089783 8.4628133-12.759319 26.4300171-.390591 11.4573472 16.665232l2.9945339 2.083154c17.967204 2.083154 26.820608-22.524103 13.410304-29.554748-35.4136185-18.487992-66.4005348 17.055824-52.7298364 58.198116 5.8588707 17.446415 14.0612897 35.934407 7.4212362 50.646683-5.7286736 12.629121-16.7954294 20.050357-24.2166656 20.310752-15.4934582.781182-5.2078851-34.762633 12.6291213-43.616038 1.5623655-.781183 3.7757167-1.82276 1.6925627-4.426702-22.0033145-2.473746-34.8928301 7.68163-42.31406638 21.873117-21.61272312 41.272489 41.01209508 56.505553 74.47275678 16.665232zm386.6854684-121.343722c5.077687 12.498924 12.759318 24.867651 8.202419 35.80421-3.775717 9.374193-8.723208 13.280107-14.191487 14.191487-7.681631 1.301971-5.598477-22.784498 7.551433-29.94534 1.171774-.650985 2.864337-3.775716 1.301971-5.598476-16.665232-.91138-26.039425 7.030645-31.117113 17.576612-14.712275 30.856719 33.330464 39.319532 56.896145 8.983602 9.374193-12.108333 9.764784-24.086469.781182-45.829389-5.728673-13.800895-14.451881-24.0864685-8.983602-33.2002674 5.858871-9.6345875 19.920161-1.3019713 9.374194 11.5875443l2.343548 1.3019713c13.670698.7811827 19.269175-17.4464151 8.853405-22.0033145-27.471594-11.7177415-53.120428 17.8370064-41.012095 47.1313603zm-173.943362-32.9398735c-9.504391-7.5514334-36.194802 5.077688-43.746235 23.8260745-9.504391 23.826074-23.56568 58.588707-37.366576 73.821771-14.582078 16.014247-16.014246 3.64552-14.582078-5.598477 3.385125-21.74292 24.607257-72.129208 36.194801-86.3206949-4.296505-6.3796592-32.419084-5.4682793-51.948653 24.8676509-7.29104 11.457348-23.956272 49.605106-42.444264 79.680642-4.036111 6.509857-9.113799 1.952957-5.207885-13.280107 4.426702-17.576612 17.446415-65.879746 34.241844-103.8973072 44.00663-8.7232075 90.747398-14.8424725 126.551608-14.9726697 4.817294-1.3019712 8.072222-5.5984764 0-5.8588707-30.856719-1.041577-77.206896 2.6039426-120.56254 8.0722219 8.332616-16.6652323 17.316218-29.9453393 26.430017-35.5438157-9.894981-6.2494621-29.945339-3.7757167-41.402686 13.1499098-5.077688 7.5514334-10.155376 16.6652323-14.97267 26.560214-31.768099 4.9474908-58.9792986 10.5459673-72.7801941 15.7538524-14.3216839 5.4682793-12.7593184 22.7844972-4.0361109 19.5295692 18.0974007-6.770251 42.574461-13.8008956 69.78566-20.0503577-17.316218 39.0591377-30.856719 85.1489207-34.111647 103.8973077-8.072222 45.568994 20.180555 45.3086 33.98145 27.341397 14.97267-19.659767 46.21998-88.794441 51.037274-96.08548 1.432168-2.473746 3.385125-1.171775 2.343548 1.041577-34.89283 69.655463-31.898296 96.606268-3.645519 90.6172 12.759318-2.734139 34.762633-24.607257 40.491306-35.934407 1.171774-2.73414 3.64552-2.473745 3.124731-1.301971-22.133511 57.416933-50.256091 103.897307-69.134674 118.479386-17.186021 13.149909-29.94534-15.363261 30.856719-56.245159 8.983602-6.119265 4.817294-14.451881-5.338082-11.587545-31.377508 4.947491-121.2135258 33.460662-160.6632553 60.802059-2.994534 2.083154-5.7286736 3.775716-5.5984765 8.072222.1301971 2.473745 4.4267023 1.562365 6.5098564.260394 51.0372738-30.596325 92.8305514-42.574461 140.7430944-52.59964.650986.260395 1.432169.390592 2.083154.130198 2.213351-.520789 2.083154.650985.650986 1.562365-3.254928 1.82276-6.509857 3.515323-7.291039 3.775717-32.288888 12.629121-51.818457 40.491306-44.918009 54.682793 5.85887 12.23853 37.496772 7.811828 52.469442-.260394 36.71559-19.92016 63.406001-58.979299 81.633599-112.880909 15.884049-47.782346 35.934407-101.944351 40.621504-103.5067165zm213.393091 110.2769665c-59.760481-7.811827-188.655637 2.603943-245.551782 17.70681-16.925626 4.426702-12.23853 13.410304-3.645519 11.717741.130197 0 3.775716-.91138 3.905913-.91138 46.740769-9.113799 160.142467-17.055824 226.282607-4.426702 7.942025 1.432168 31.7681-22.393906 19.008781-24.086469zm-196.727859-7.030645c16.665232-8.332616 41.402686-59.890678 57.677327-88.143455 1.171774-2.083154 3.254928-.390591 2.083154 1.041577-41.142292 70.827238-23.695877 79.029657-7.421236 77.98808 21.74292-1.301972 41.793278-32.549282 46.21998-39.579927 1.82276-2.73414 2.864337-.520789 1.82276 1.432168-1.041577 3.254928-4.817294 8.983602-8.332616 16.79543-4.947491 11.066755.260394 15.363261 4.556899 17.316218 6.770251 3.254928 25.258243 1.171774 28.12258-10.155376-18.487992-.390592 25.779031-87.622667 30.33593-92.9607492-12.368727-7.160842-31.507704.6509856-40.230912 17.8370064-18.618189 36.8457868-34.241844 66.5307318-44.006629 67.0515208-19.008781 1.041577 21.873117-82.1543875 28.513171-84.7583301-4.036111-5.8588707-29.945339-3.3851253-44.39722 19.0087806-5.207886 8.0722215-36.975985 64.3173805-44.787812 73.5613765-13.800896 16.404838-14.842473 2.343549-10.936559-14.061289 1.301971-5.598477 3.515322-12.759319 6.379659-20.701344 9.113799-20.571146 18.878584-27.081002 24.867652-33.721056 40.230912-44.6576142 63.275803-80.8524156 54.162005-95.04390243-8.072222-12.62912134-35.023028-7.03064487-52.339246 19.00878063-31.898296 47.7823457-61.322847 113.2715008-65.098563 143.2168398-3.64552 29.945339 18.0974 32.158691 32.809676 24.867651zm16.925626-87.622666c1.432169-3.254928 2.343549-4.166308 4.817294-9.6345876 14.321684-31.5077048 32.288888-64.7079723 44.657615-80.2014304 7.68163-8.0722219 18.487992 2.8643368-1.041577 32.8096761-11.457348 17.7068093-24.47706 33.9814502-38.668547 48.3031342v.1301971c-3.64552 4.0361106-6.900448 7.4212366-8.332616 9.3741936-1.041577 1.301971-2.213351 1.041577-1.432169-.781183z" fill="#333"/></svg>