<svg height="256" preserveAspectRatio="xMidYMid" viewBox="0 0 256 256" width="256" xmlns="http://www.w3.org/2000/svg"><path d="m0 0h256v256h-256z" fill="#e44041"/><path d="m153.490604 185.360812c-6.776387 2.509773-18.070366 4.517591-28.109458 4.517591-31.3721618 0-51.4503458-21.082093-51.4503458-61.489438 0-43.67005 23.3408888-62.7443248 51.1993688-62.7443248 12.297888 0 21.584048 2.7607503 28.109458 5.7724778l8.031273-35.8897538c-5.5215-3.0117275-19.074275-7.0273642-38.650504-7.0273642-49.9444823 0-95.120396 32.8780262-95.120396 102.398738 0 53.709142 29.1133667 96.62626 90.602805 96.62626 19.074274 0 34.132912-3.513682 40.909299-6.52541zm30.870208 39.654413h44.172004v-194.005452h-44.172004z" fill="#fff"/></svg>