<svg height="245" preserveAspectRatio="xMidYMid" viewBox="0 0 256 245" width="256" xmlns="http://www.w3.org/2000/svg"><path d="m129.7408 243.648c28-100.1088 27.1872-100.5632 47.424-171.9424l4.864 2.816c2.6496 1.5168 4.8128.2688 4.8128-2.7776v-34.048c5.376-18.8032 9.5744-33.344 10.816-37.696h21.92l36.4224 33.728-23.9232 20.672 18.0928 19.5648-119.2256 169.6832c-.576.96-1.3888.7424-1.2032 0zm13.024-215.7824c1.088 0 1.9584.5952 1.9584 1.344v17.44c0 .7296-.8768 1.3248-1.9584 1.3248h-29.44c-1.088 0-1.9648-.5952-1.9648-1.3312v-17.4464c0-.736.8768-1.344 1.9584-1.344h29.44zm36.352-19.3152-32.3968 18.7008c.3712.576.6016 1.2352.6016 1.952v17.4528c0 .896-.3584 1.7152-.9344 2.368l32.7232 18.8928c2.2272 1.2928 4.0576.2368 4.0576-2.336v-54.688c0-2.5792-1.8176-3.6288-4.0512-2.3424zm-70.3616 38.1056v-17.4592c0-.7168.2304-1.376.6016-1.9456l-32.3968-18.7136c-2.2272-1.28-4.0576-.2304-4.0576 2.3424v54.688c0 2.5728 1.8304 3.6288 4.064 2.336l32.7168-18.8928c-.576-.6592-.9216-1.472-.9216-2.368zm16.3008 196.992h1.2032c-27.9936-100.1088-27.1872-100.5632-47.424-171.9424l-4.864 2.816c-2.6432 1.5168-4.8128.2688-4.8128-2.7776v-34.048c-5.376-18.7968-9.5744-33.344-10.816-37.696h-21.9136l-36.4288 33.728 23.9168 20.672-18.0928 19.5712zm2.0544-159.2384c4.884848 0 8.8448-3.9599518 8.8448-8.8448s-3.959952-8.8448-8.8448-8.8448-8.8448 3.9599518-8.8448 8.8448 3.959952 8.8448 8.8448 8.8448zm0 52.576c4.884848 0 8.8448-3.959952 8.8448-8.8448s-3.959952-8.8448-8.8448-8.8448-8.8448 3.959952-8.8448 8.8448 3.959952 8.8448 8.8448 8.8448zm0 52.5888c4.884848 0 8.8448-3.959952 8.8448-8.8448s-3.959952-8.8448-8.8448-8.8448-8.8448 3.959952-8.8448 8.8448 3.959952 8.8448 8.8448 8.8448z"/></svg>