<svg height="186" preserveAspectRatio="xMidYMid" viewBox="0 0 256 186" width="256" xmlns="http://www.w3.org/2000/svg"><path d="m0 0v67.1490265c34.6001372-14.4074806 80.8312035-28.8865579 139.010265-43.4973451 37.279226-9.3478984 73.308541-17.20812968 108.109027-23.6516814zm256 14.3178761c-33.736889 5.013939-63.992366 10.9141799-90.619469 17.580177-30.482997 7.6565477-55.023011 15.3970742-73.5830089 23.2892035-18.5837477 7.750792-27.2166948 14.0193394-26.0077876 18.8488496 1.0903625 4.2641317 8.8731394 6.2001406 23.379823 5.799646 7.4666963-.1413374 19.5562035-.9625382 36.3384075-2.4467257 16.782261-1.4841874 38.449681-3.6304914 64.974159-6.4339823 26.291274-2.7144953 48.067466-4.5504022 65.517876-5.618407zm-74.942301 85.1823009c-7.466638.0942442-17.74567.665248-30.901239 1.63115-13.202952.989478-29.536524 2.414335-49.115752 4.440354-30.3881733 3.251079-55.6808065 5.781697-75.7578761 7.430797-9.6306892.812704-17.99760655 1.317969-25.2828319 1.72177v54.462301c39.8750602-5.828761 75.9467996-12.778331 108.109027-20.842478 31.597051-7.915676 55.881967-15.639877 72.948672-23.107965 17.090397-7.468059 25.069724-13.803679 23.742301-18.939469-1.114112-4.429016-9.117102-6.6786692-23.742301-6.79646zm74.942301 19.120708c-35.03975 13.726428-78.530194 27.188653-130.492035 40.235044-48.3779506 12.129989-90.16701 20.809014-125.507965 26.189027v.453097h256zm-245.3069027 11.418053c.1305501-.01911.230536-.001131.3624779 0 .6617976.022242 1.3674116.229637 1.8123894.724956.6796315.69964.8560858 1.821292.4530973 2.718584-.4382502 1.032656-1.6013692 1.655422-2.718584 1.449911-1.23323675-.179035-2.18945339-1.391277-2.08424781-2.627964.03572582-1.164279 1.0240145-2.121308 2.17486721-2.265487zm9.0619469 0c.5779058.023257 1.115446.140351 1.540531.543717.80299.659797 1.1195057 1.846346.7249558 2.809203-.3694085.989362-1.3815917 1.724351-2.4467257 1.631151-.9148362-.037524-1.8147962-.607542-2.1748672-1.449912-.4978997-1.094915-.0923014-2.575796.9968141-3.171681.4060622-.248602.8820102-.367292 1.359292-.362478zm-8.699469 16.039646c1.0796041-.034624 2.0441723.72542 2.3561062 1.72177.3304058 1.108167-.1952451 2.502518-1.2686726 2.990442-1.0782121.54102-2.49436971.198087-3.17168137-.815575-.68940392-.989767-.59411573-2.482886.36247788-3.262301.46881439-.418502 1.09204439-.647617 1.72176989-.634336zm8.699469 0c.8586376-.046948 1.6217551.49645 2.0842478 1.178053.6662924 1.039384.3875324 2.538389-.6343362 3.262301-1.0250295.779559-2.6273267.648864-3.4435399-.362478-.8437615-1.004788-.7880849-2.715742.2718584-3.534159.459941-.379993 1.1213326-.562769 1.7217699-.543717z" fill="#809cc8"/></svg>