<svg width="256" height="256" viewBox="0 0 256 256" version="1.1" xmlns="http://www.w3.org/2000/svg" xmlns:xlink="http://www.w3.org/1999/xlink" preserveAspectRatio="xMidYMid"><defs><polygon id="path-1" points="8.69849462 14.5892473 26.0404301 0 26.0404301 81.5346237 9.13892473 117.099355 0.330322581 39.7488172 8.69849462 14.5892473"/><polygon id="path-3" points="0.440430108 0.495483871 114.456774 0.495483871 114.456774 102.84043 0.440430108 102.84043"/><polygon id="path-5" points="129.596559 1.15612903 23.507957 1.15612903 0.16516129 15.4701075 0.16516129 117.870108 114.126452 117.870108 114.126452 116.658925 130.642581 81.5346237 130.642581 0.0550537634"/><path d="M8.09290323,0.385376344 C3.96387097,0.0550537634 1.43139785,2.8627957 0.0550537634,5.28516129 C1.43139785,9.24903226 3.68860215,12.2769892 7.54236559,12.0567742 C11.396129,11.8365591 13.7083871,8.80860215 15.3049462,4.95483871 C13.9286022,2.91784946 11.7264516,0.715698925 8.09290323,0.385376344 L8.09290323,0.385376344 Z" id="path-7"/><path d="M8.53333333,0.220215054 C18.2227957,0.440430108 14.5892473,24.8292473 14.3690323,32.7569892 C14.1488172,40.6847312 15.8004301,47.7866667 15.9655914,52.9617204 C16.1307527,58.1367742 18.7733333,73.7169892 7.10193548,73.6068817 C-4.56946237,73.4967742 2.58752688,43.1621505 2.69763441,36.8860215 C2.64258065,36.8860215 -1.15612903,-0.0550537634 8.53333333,0.220215054 Z M41.3453763,0.220215054 C31.655914,0.440430108 35.2894624,24.8292473 35.5096774,32.7569892 C35.7298925,40.6847312 34.0782796,47.7866667 33.9131183,52.9617204 C33.747957,58.1367742 31.1053763,73.7169892 42.7767742,73.6068817 C54.448172,73.4967742 47.2911828,43.1621505 47.1810753,36.8860215 C47.236129,36.8860215 51.0348387,-0.0550537634 41.3453763,0.220215054 Z" id="path-9"/><path d="M129.816774,6.93677419 C129.816774,6.93677419 130.477419,-0.935913978 136.643441,0.770752688 C136.643441,0.770752688 146.883441,10.5152688 136.643441,21.1956989 C126.403441,31.876129 116.108387,35.2344086 103.390968,38.2623656 C90.6735484,41.2903226 91.1690323,44.5384946 79.1673118,45.9148387 C67.1655914,47.2911828 64.688172,41.7858065 64.7982796,36.9410753 C64.9083871,32.0963441 69.2576344,26.0404301 80.1032258,26.2606452 C90.9488172,26.4808602 89.7376344,30.5548387 100.748387,28.7380645 C111.75914,26.9212903 123.210323,21.2507527 127.009032,18.3329032 C130.807742,15.4150538 134.166022,11.4511828 129.816774,6.93677419 L129.816774,6.93677419 Z M11.7264516,8.97376344 C11.7264516,8.97376344 -0.605591398,11.6713978 0.495483871,21.9113978 C1.59655914,32.1513978 10.4051613,34.2434409 20.6451613,36.6107527 C30.8851613,38.9780645 28.9582796,43.7677419 41.2352688,44.923871 C53.5122581,46.08 58.412043,40.5195699 57.2008602,33.2524731 C55.9896774,25.9853763 43.8227957,26.4258065 29.784086,26.3156989 C15.7453763,26.2055914 11.7264516,19.8193548 11.7264516,19.8193548 L11.7264516,8.97376344 L11.7264516,8.97376344 Z" id="path-11"/></defs><g><circle fill="#2DCC9F" cx="127.89" cy="127.89" r="127.89"/><polygon fill="#D0F5F5" points="68.1015054 91.4993548 91.8296774 77.1303226 198.744086 77.1303226 189.770323 101.904516 110.713118 109.171613 68.1015054 91.4993548"/><polygon fill="#C8EEEE" points="181.982968 91.5461505 198.757849 77.1193118 198.964301 158.059355 182.062796 193.624086 173.254194 116.273548"/><g transform="translate(181.126882, 76.524731)"><mask id="mask-2" fill="#fff"><use xlink:href="#path-1"/></mask><path d="M-39.4184946,101.188817 C-39.4184946,101.188817 7.65247312,90.288172 14.424086,74.5978495 C21.1956989,58.9075269 2.53247312,78.3965591 2.53247312,78.3965591 L-41.3453763,92.5453763 L-39.4184946,101.188817 L-39.4184946,101.188817 Z M-80.5436559,100.087742 C-80.5436559,100.087742 -86.9298925,101.95957 -95.8486022,97.9406452 C-104.767312,93.9217204 -115.557849,92.1049462 -115.557849,92.1049462 L-117.154409,86.2692473 L-111.593978,83.5165591 L-89.9578495,92.0498925 L-80.5436559,100.087742 L-80.5436559,100.087742 Z" fill="#9DEEEE" opacity=".35" mask="url(#mask-2)"/></g><polygon fill="azure" points="68.2116129 91.3341935 182.227957 91.3341935 182.227957 193.67914 68.2116129 193.67914"/><g transform="translate(75.974194, 90.838710)"><mask id="mask-4" fill="#fff"><use xlink:href="#path-3"/></mask><path d="M65.7341935,86.8748387 C65.7341935,86.8748387 112.805161,75.9741935 119.576774,60.283871 C126.348387,44.5935484 107.685161,64.0825806 107.685161,64.0825806 L63.8073118,78.2313978 L65.7341935,86.8748387 L65.7341935,86.8748387 Z M24.6090323,85.7737634 C24.6090323,85.7737634 18.2227957,87.6455914 9.30408602,83.6266667 C0.385376344,79.6077419 -10.4051613,77.7909677 -10.4051613,77.7909677 L-12.0017204,71.9552688 L-6.44129032,69.2025806 L15.1948387,77.735914 L24.6090323,85.7737634 L24.6090323,85.7737634 Z" fill="#9DEEEE" opacity=".35" mask="url(#mask-4)"/></g><g transform="translate(76.524731, 76.524731)"><mask id="mask-6" fill="#fff"><use xlink:href="#path-5"/></mask><g mask="url(#mask-6)" fill="#D0F5F5" opacity=".35"><g transform="translate(-24.168602, -20.739111)"><ellipse cx="28.628" cy="56.488" rx="1.211" ry="1.201"/><ellipse cx="28.628" cy="56.488" rx="1.101" ry="1.092"/><ellipse cx="28.628" cy="56.488" rx="1.101" ry="1.092"/><ellipse cx="29.894" cy="48.137" rx="1.211" ry="1.201"/><ellipse cx="29.894" cy="48.137" rx="1.101" ry="1.092"/><ellipse cx="29.894" cy="48.137" rx="1.101" ry="1.092"/><ellipse cx="40.96" cy="27.671" rx="1.211" ry="1.201"/><ellipse cx="40.96" cy="27.671" rx="1.101" ry="1.092"/><ellipse cx="40.96" cy="27.671" rx="1.101" ry="1.092"/><ellipse cx="36.225" cy="36.512" rx="1.211" ry="1.201"/><ellipse cx="36.225" cy="36.512" rx="1.101" ry="1.092"/><ellipse cx="36.225" cy="36.512" rx="1.101" ry="1.092"/><ellipse cx="1.266" cy="45.518" rx="1.211" ry="1.201"/><ellipse cx="1.266" cy="45.518" rx="1.101" ry="1.092"/><ellipse cx="1.266" cy="45.518" rx="1.101" ry="1.092"/><ellipse cx="23.728" cy="13.317" rx="1.211" ry="1.201"/><ellipse cx="23.728" cy="13.317" rx="1.101" ry="1.092"/><ellipse cx="23.728" cy="13.317" rx="1.101" ry="1.092"/><ellipse cx="29.399" cy="24.614" rx="1.211" ry="1.201"/><ellipse cx="29.399" cy="24.614" rx="1.101" ry="1.092"/><ellipse cx="29.399" cy="24.614" rx="1.101" ry="1.092"/><ellipse cx="4.735" cy="37.822" rx="1.211" ry="1.201"/><ellipse cx="4.735" cy="37.822" rx="1.101" ry="1.092"/><ellipse cx="4.735" cy="37.822" rx="1.101" ry="1.092"/><ellipse cx="42.171" cy="2.783" rx="1.211" ry="1.201"/><ellipse cx="42.171" cy="2.783" rx="1.101" ry="1.092"/><ellipse cx="42.171" cy="2.783" rx="1.101" ry="1.092"/><ellipse cx="4.68" cy="50.812" rx="1.211" ry="1.201"/><ellipse cx="4.68" cy="50.812" rx="1.101" ry="1.092"/><ellipse cx="4.68" cy="50.812" rx="1.101" ry="1.092"/><ellipse cx="47.126" cy="10.916" rx="1.211" ry="1.201"/><ellipse cx="47.126" cy="10.916" rx="1.101" ry="1.092"/><ellipse cx="47.126" cy="10.916" rx="1.101" ry="1.092"/><ellipse cx="35.62" cy="52.231" rx="1.211" ry="1.201"/><ellipse cx="35.62" cy="52.231" rx="1.101" ry="1.092"/><ellipse cx="35.62" cy="52.231" rx="1.101" ry="1.092"/><ellipse cx="17.782" cy="61.072" rx="1.211" ry="1.201"/><ellipse cx="17.782" cy="61.072" rx="1.101" ry="1.092"/><ellipse cx="17.782" cy="61.072" rx="1.101" ry="1.092"/><ellipse cx="74.268" cy="1.31" rx="1.211" ry="1.201"/><ellipse cx="74.268" cy="1.31" rx="1.101" ry="1.092"/><ellipse cx="74.268" cy="1.31" rx="1.101" ry="1.092"/><ellipse cx="3.523" cy="84.486" rx="1.211" ry="1.201"/><ellipse cx="3.523" cy="84.486" rx="1.101" ry="1.092"/><ellipse cx="3.523" cy="84.486" rx="1.101" ry="1.092"/><ellipse cx="82.085" cy="9.66" rx="1.211" ry="1.201"/><ellipse cx="82.085" cy="9.66" rx="1.101" ry="1.092"/><ellipse cx="82.085" cy="9.66" rx="1.101" ry="1.092"/><ellipse cx="34.629" cy="79.356" rx="1.211" ry="1.201"/><ellipse cx="34.629" cy="79.356" rx="1.101" ry="1.092"/><ellipse cx="34.629" cy="79.356" rx="1.101" ry="1.092"/><ellipse cx="77.956" cy="30.618" rx="1.211" ry="1.201"/><ellipse cx="77.956" cy="30.618" rx="1.101" ry="1.092"/><ellipse cx="77.956" cy="30.618" rx="1.101" ry="1.092"/><ellipse cx="77.571" cy="37.167" rx="1.211" ry="1.201"/><ellipse cx="77.571" cy="37.167" rx="1.101" ry="1.092"/><ellipse cx="77.571" cy="37.167" rx="1.101" ry="1.092"/><ellipse cx="44.759" cy="62.71" rx="1.211" ry="1.201"/><ellipse cx="44.759" cy="62.71" rx="1.101" ry="1.092"/><ellipse cx="44.759" cy="62.71" rx="1.101" ry="1.092"/><ellipse cx="66.45" cy="18.666" rx="1.211" ry="1.201"/><ellipse cx="66.45" cy="18.666" rx="1.101" ry="1.092"/><ellipse cx="66.45" cy="18.666" rx="1.101" ry="1.092"/><ellipse cx="67.276" cy="13.644" rx="1.211" ry="1.201"/><ellipse cx="67.276" cy="13.644" rx="1.101" ry="1.092"/><ellipse cx="67.276" cy="13.644" rx="1.101" ry="1.092"/><ellipse cx="66.945" cy="25.706" rx="1.211" ry="1.201"/><ellipse cx="66.945" cy="25.706" rx="1.101" ry="1.092"/><ellipse cx="66.945" cy="25.706" rx="1.101" ry="1.092"/><ellipse cx="62.211" cy="23.85" rx="1.211" ry="1.201"/><ellipse cx="62.211" cy="23.85" rx="1.101" ry="1.092"/><ellipse cx="62.211" cy="23.85" rx="1.101" ry="1.092"/><ellipse cx="64.138" cy="30.236" rx="1.211" ry="1.201"/><ellipse cx="64.138" cy="30.236" rx="1.101" ry="1.092"/><ellipse cx="64.138" cy="30.236" rx="1.101" ry="1.092"/><ellipse cx="56.155" cy="25.051" rx="1.211" ry="1.201"/><ellipse cx="56.155" cy="25.051" rx="1.101" ry="1.092"/><ellipse cx="56.155" cy="25.051" rx="1.101" ry="1.092"/><ellipse cx="47.511" cy="30.018" rx="1.211" ry="1.201"/><ellipse cx="47.511" cy="30.018" rx="1.101" ry="1.092"/><ellipse cx="47.511" cy="30.018" rx="1.101" ry="1.092"/><ellipse cx="33.252" cy="31.873" rx="1.211" ry="1.201"/><ellipse cx="33.252" cy="31.873" rx="1.101" ry="1.092"/><ellipse cx="33.252" cy="31.873" rx="1.101" ry="1.092"/><ellipse cx="27.747" cy="34.548" rx="1.211" ry="1.201"/><ellipse cx="27.747" cy="34.548" rx="1.101" ry="1.092"/><ellipse cx="27.747" cy="34.548" rx="1.101" ry="1.092"/><ellipse cx="20.205" cy="32.965" rx="1.211" ry="1.201"/><ellipse cx="20.205" cy="32.965" rx="1.101" ry="1.092"/><ellipse cx="20.205" cy="32.965" rx="1.101" ry="1.092"/><ellipse cx="16.626" cy="28.544" rx="1.211" ry="1.201"/><ellipse cx="16.626" cy="28.544" rx="1.101" ry="1.092"/><ellipse cx="16.626" cy="28.544" rx="1.101" ry="1.092"/><ellipse cx="14.975" cy="33.784" rx="1.211" ry="1.201"/><ellipse cx="14.975" cy="33.784" rx="1.101" ry="1.092"/><ellipse cx="14.975" cy="33.784" rx="1.101" ry="1.092"/><ellipse cx="15.195" cy="41.916" rx="1.211" ry="1.201"/><ellipse cx="15.195" cy="41.916" rx="1.101" ry="1.092"/><ellipse cx="15.195" cy="41.916" rx="1.101" ry="1.092"/><ellipse cx="16.516" cy="47.81" rx="1.211" ry="1.201"/><ellipse cx="16.516" cy="47.81" rx="1.101" ry="1.092"/><ellipse cx="16.516" cy="47.81" rx="1.101" ry="1.092"/><ellipse cx="45.915" cy="46.336" rx="1.211" ry="1.201"/><ellipse cx="45.915" cy="46.336" rx="1.101" ry="1.092"/><ellipse cx="45.915" cy="46.336" rx="1.101" ry="1.092"/><ellipse cx="67.331" cy="37.276" rx="1.211" ry="1.201"/><ellipse cx="67.331" cy="37.276" rx="1.101" ry="1.092"/><ellipse cx="67.331" cy="37.276" rx="1.101" ry="1.092"/><ellipse cx="79.938" cy="19.866" rx="1.211" ry="1.201"/><ellipse cx="79.938" cy="19.866" rx="1.101" ry="1.092"/><ellipse cx="79.938" cy="19.866" rx="1.101" ry="1.092"/><ellipse cx="90.839" cy="11.134" rx="1.211" ry="1.201"/><ellipse cx="90.839" cy="11.134" rx="1.101" ry="1.092"/><ellipse cx="90.839" cy="11.134" rx="1.101" ry="1.092"/><ellipse cx="99.702" cy="6.822" rx="1.211" ry="1.201"/><ellipse cx="99.702" cy="6.822" rx="1.101" ry="1.092"/><ellipse cx="99.702" cy="6.822" rx="1.101" ry="1.092"/><ellipse cx="116.989" cy="5.076" rx="1.211" ry="1.201"/><ellipse cx="116.989" cy="5.076" rx="1.101" ry="1.092"/><ellipse cx="116.989" cy="5.076" rx="1.101" ry="1.092"/><ellipse cx="141.984" cy="13.59" rx="1.211" ry="1.201"/><ellipse cx="141.984" cy="13.59" rx="1.101" ry="1.092"/><ellipse cx="141.984" cy="13.59" rx="1.101" ry="1.092"/><ellipse cx="145.342" cy="18.611" rx="1.211" ry="1.201"/><ellipse cx="145.342" cy="18.611" rx="1.101" ry="1.092"/><ellipse cx="145.342" cy="18.611" rx="1.101" ry="1.092"/><ellipse cx="119.962" cy="26.798" rx="1.211" ry="1.201"/><ellipse cx="119.962" cy="26.798" rx="1.101" ry="1.092"/><ellipse cx="119.962" cy="26.798" rx="1.101" ry="1.092"/><ellipse cx="99.262" cy="31.546" rx="1.211" ry="1.201"/><ellipse cx="99.262" cy="31.546" rx="1.101" ry="1.092"/><ellipse cx="99.262" cy="31.546" rx="1.101" ry="1.092"/><ellipse cx="93.096" cy="28.872" rx="1.211" ry="1.201"/><ellipse cx="93.096" cy="28.872" rx="1.101" ry="1.092"/><ellipse cx="93.096" cy="28.872" rx="1.101" ry="1.092"/><ellipse cx="93.702" cy="34.22" rx="1.211" ry="1.201"/><ellipse cx="93.702" cy="34.22" rx="1.101" ry="1.092"/><ellipse cx="93.702" cy="34.22" rx="1.101" ry="1.092"/><ellipse cx="138.35" cy="19.484" rx="1.211" ry="1.201"/><ellipse cx="138.35" cy="19.484" rx="1.101" ry="1.092"/><ellipse cx="138.35" cy="19.484" rx="1.101" ry="1.092"/><ellipse cx="134.551" cy="13.644" rx="1.211" ry="1.201"/><ellipse cx="134.551" cy="13.644" rx="1.101" ry="1.092"/><ellipse cx="134.551" cy="13.644" rx="1.101" ry="1.092"/><ellipse cx="115.228" cy="9.66" rx="1.211" ry="1.201"/><ellipse cx="115.228" cy="9.66" rx="1.101" ry="1.092"/><ellipse cx="115.228" cy="9.66" rx="1.101" ry="1.092"/><ellipse cx="108.511" cy="8.023" rx="1.211" ry="1.201"/><ellipse cx="108.511" cy="8.023" rx="1.101" ry="1.092"/><ellipse cx="108.511" cy="8.023" rx="1.101" ry="1.092"/><ellipse cx="103.831" cy="17.301" rx="1.211" ry="1.201"/><ellipse cx="103.831" cy="17.301" rx="1.101" ry="1.092"/><ellipse cx="103.831" cy="17.301" rx="1.101" ry="1.092"/><ellipse cx="104.822" cy="12.989" rx="1.211" ry="1.201"/><ellipse cx="104.822" cy="12.989" rx="1.101" ry="1.092"/><ellipse cx="104.822" cy="12.989" rx="1.101" ry="1.092"/><ellipse cx="129.486" cy="22.595" rx="1.211" ry="1.201"/><ellipse cx="129.486" cy="22.595" rx="1.101" ry="1.092"/><ellipse cx="129.486" cy="22.595" rx="1.101" ry="1.092"/><ellipse cx="131.689" cy="28.653" rx="1.211" ry="1.201"/><ellipse cx="131.689" cy="28.653" rx="1.101" ry="1.092"/><ellipse cx="131.689" cy="28.653" rx="1.101" ry="1.092"/><ellipse cx="123.596" cy="36.949" rx="1.211" ry="1.201"/><ellipse cx="123.596" cy="36.949" rx="1.101" ry="1.092"/><ellipse cx="123.596" cy="36.949" rx="1.101" ry="1.092"/><ellipse cx="91.885" cy="46.937" rx="1.211" ry="1.201"/><ellipse cx="91.885" cy="46.937" rx="1.101" ry="1.092"/><ellipse cx="91.885" cy="46.937" rx="1.101" ry="1.092"/><ellipse cx="78.837" cy="49.393" rx="1.211" ry="1.201"/><ellipse cx="78.837" cy="49.393" rx="1.101" ry="1.092"/><ellipse cx="78.837" cy="49.393" rx="1.101" ry="1.092"/><ellipse cx="71.019" cy="50.757" rx="1.211" ry="1.201"/><ellipse cx="71.019" cy="50.757" rx="1.101" ry="1.092"/><ellipse cx="71.019" cy="50.757" rx="1.101" ry="1.092"/><ellipse cx="61.715" cy="66.203" rx="1.211" ry="1.201"/><ellipse cx="61.715" cy="66.203" rx="1.101" ry="1.092"/><ellipse cx="61.715" cy="66.203" rx="1.101" ry="1.092"/><ellipse cx="53.788" cy="68.058" rx="1.211" ry="1.201"/><ellipse cx="53.788" cy="68.058" rx="1.101" ry="1.092"/><ellipse cx="53.788" cy="68.058" rx="1.101" ry="1.092"/><ellipse cx="83.572" cy="71.115" rx="1.211" ry="1.201"/><ellipse cx="83.572" cy="71.115" rx="1.101" ry="1.092"/><ellipse cx="83.572" cy="71.115" rx="1.101" ry="1.092"/><ellipse cx="91.609" cy="65.111" rx="1.211" ry="1.201"/><ellipse cx="91.609" cy="65.111" rx="1.101" ry="1.092"/><ellipse cx="91.609" cy="65.111" rx="1.101" ry="1.092"/><ellipse cx="101.905" cy="52.231" rx="1.211" ry="1.201"/><ellipse cx="101.905" cy="52.231" rx="1.101" ry="1.092"/><ellipse cx="101.905" cy="52.231" rx="1.101" ry="1.092"/><ellipse cx="142.534" cy="40.278" rx="1.211" ry="1.201"/><ellipse cx="142.534" cy="40.278" rx="1.101" ry="1.092"/><ellipse cx="142.534" cy="40.278" rx="1.101" ry="1.092"/><ellipse cx="150.407" cy="33.292" rx="1.211" ry="1.201"/><ellipse cx="150.407" cy="33.292" rx="1.101" ry="1.092"/><ellipse cx="150.407" cy="33.292" rx="1.101" ry="1.092"/><ellipse cx="152.224" cy="37.768" rx="1.211" ry="1.201"/><ellipse cx="152.224" cy="37.768" rx="1.101" ry="1.092"/><ellipse cx="152.224" cy="37.768" rx="1.101" ry="1.092"/><ellipse cx="148.205" cy="43.007" rx="1.211" ry="1.201"/><ellipse cx="148.205" cy="43.007" rx="1.101" ry="1.092"/><ellipse cx="148.205" cy="43.007" rx="1.101" ry="1.092"/><ellipse cx="133.726" cy="61.291" rx="1.211" ry="1.201"/><ellipse cx="133.726" cy="61.291" rx="1.101" ry="1.092"/><ellipse cx="133.726" cy="61.291" rx="1.101" ry="1.092"/><ellipse cx="125.578" cy="67.731" rx="1.211" ry="1.201"/><ellipse cx="125.578" cy="67.731" rx="1.101" ry="1.092"/><ellipse cx="125.578" cy="67.731" rx="1.101" ry="1.092"/><ellipse cx="118.421" cy="72.424" rx="1.211" ry="1.201"/><ellipse cx="118.421" cy="72.424" rx="1.101" ry="1.092"/><ellipse cx="118.421" cy="72.424" rx="1.101" ry="1.092"/><ellipse cx="108.015" cy="80.72" rx="1.211" ry="1.201"/><ellipse cx="108.015" cy="80.72" rx="1.101" ry="1.092"/><ellipse cx="108.015" cy="80.72" rx="1.101" ry="1.092"/><ellipse cx="102.951" cy="88.252" rx="1.211" ry="1.201"/><ellipse cx="102.951" cy="88.252" rx="1.101" ry="1.092"/><ellipse cx="102.951" cy="88.252" rx="1.101" ry="1.092"/><ellipse cx="92.821" cy="98.185" rx="1.211" ry="1.201"/><ellipse cx="92.821" cy="98.185" rx="1.101" ry="1.092"/><ellipse cx="92.821" cy="98.185" rx="1.101" ry="1.092"/><ellipse cx="91.004" cy="105.935" rx="1.211" ry="1.201"/><ellipse cx="91.004" cy="105.935" rx="1.101" ry="1.092"/><ellipse cx="91.004" cy="105.935" rx="1.101" ry="1.092"/><ellipse cx="91.279" cy="117.069" rx="1.211" ry="1.201"/><ellipse cx="91.279" cy="117.069" rx="1.101" ry="1.092"/><ellipse cx="91.279" cy="117.069" rx="1.101" ry="1.092"/><ellipse cx="106.749" cy="128.912" rx="1.211" ry="1.201"/><ellipse cx="106.749" cy="128.912" rx="1.101" ry="1.092"/><ellipse cx="106.749" cy="128.912" rx="1.101" ry="1.092"/><ellipse cx="111.924" cy="136.116" rx="1.211" ry="1.201"/><ellipse cx="111.924" cy="136.116" rx="1.101" ry="1.092"/><ellipse cx="111.924" cy="136.116" rx="1.101" ry="1.092"/><ellipse cx="119.412" cy="137.208" rx="1.211" ry="1.201"/><ellipse cx="119.412" cy="137.208" rx="1.101" ry="1.092"/><ellipse cx="119.412" cy="137.208" rx="1.101" ry="1.092"/><ellipse cx="133.505" cy="129.785" rx="1.211" ry="1.201"/><ellipse cx="133.505" cy="129.785" rx="1.101" ry="1.092"/><ellipse cx="133.505" cy="129.785" rx="1.101" ry="1.092"/><ellipse cx="137.965" cy="108.937" rx="1.211" ry="1.201"/><ellipse cx="137.965" cy="108.937" rx="1.101" ry="1.092"/><ellipse cx="137.965" cy="108.937" rx="1.101" ry="1.092"/><ellipse cx="126.018" cy="91.581" rx="1.211" ry="1.201"/><ellipse cx="126.018" cy="91.581" rx="1.101" ry="1.092"/><ellipse cx="126.018" cy="91.581" rx="1.101" ry="1.092"/><ellipse cx="113.246" cy="85.196" rx="1.211" ry="1.201"/><ellipse cx="113.246" cy="85.196" rx="1.101" ry="1.092"/><ellipse cx="113.246" cy="85.196" rx="1.101" ry="1.092"/><ellipse cx="97.831" cy="85.086" rx="1.211" ry="1.201"/><ellipse cx="97.831" cy="85.086" rx="1.101" ry="1.092"/><ellipse cx="97.831" cy="85.086" rx="1.101" ry="1.092"/><ellipse cx="91.94" cy="84.322" rx="1.211" ry="1.201"/><ellipse cx="91.94" cy="84.322" rx="1.101" ry="1.092"/><ellipse cx="91.94" cy="84.322" rx="1.101" ry="1.092"/><ellipse cx="97.005" cy="75.044" rx="1.211" ry="1.201"/><ellipse cx="97.005" cy="75.044" rx="1.101" ry="1.092"/><ellipse cx="97.005" cy="75.044" rx="1.101" ry="1.092"/><ellipse cx="107.52" cy="63.801" rx="1.211" ry="1.201"/><ellipse cx="107.52" cy="63.801" rx="1.101" ry="1.092"/><ellipse cx="107.52" cy="63.801" rx="1.101" ry="1.092"/><ellipse cx="114.622" cy="60.799" rx="1.211" ry="1.201"/><ellipse cx="114.622" cy="60.799" rx="1.101" ry="1.092"/><ellipse cx="114.622" cy="60.799" rx="1.101" ry="1.092"/><ellipse cx="126.624" cy="48.792" rx="1.211" ry="1.201"/><ellipse cx="126.624" cy="48.792" rx="1.101" ry="1.092"/><ellipse cx="126.624" cy="48.792" rx="1.101" ry="1.092"/><ellipse cx="133.836" cy="47.428" rx="1.211" ry="1.201"/><ellipse cx="133.836" cy="47.428" rx="1.101" ry="1.092"/><ellipse cx="133.836" cy="47.428" rx="1.101" ry="1.092"/><ellipse cx="130.973" cy="43.717" rx="1.211" ry="1.201"/><ellipse cx="130.973" cy="43.717" rx="1.101" ry="1.092"/><ellipse cx="130.973" cy="43.717" rx="1.101" ry="1.092"/><ellipse cx="128.11" cy="55.123" rx="1.211" ry="1.201"/><ellipse cx="128.11" cy="55.123" rx="1.101" ry="1.092"/><ellipse cx="128.11" cy="55.123" rx="1.101" ry="1.092"/><ellipse cx="120.292" cy="52.067" rx="1.211" ry="1.201"/><ellipse cx="120.292" cy="52.067" rx="1.101" ry="1.092"/><ellipse cx="120.292" cy="52.067" rx="1.101" ry="1.092"/><ellipse cx="112.2" cy="47.428" rx="1.211" ry="1.201"/><ellipse cx="112.2" cy="47.428" rx="1.101" ry="1.092"/><ellipse cx="112.2" cy="47.428" rx="1.101" ry="1.092"/><ellipse cx="107.3" cy="44.317" rx="1.211" ry="1.201"/><ellipse cx="107.3" cy="44.317" rx="1.101" ry="1.092"/><ellipse cx="107.3" cy="44.317" rx="1.101" ry="1.092"/><ellipse cx="112.365" cy="40.66" rx="1.211" ry="1.201"/><ellipse cx="112.365" cy="40.66" rx="1.101" ry="1.092"/><ellipse cx="112.365" cy="40.66" rx="1.101" ry="1.092"/><ellipse cx="127.394" cy="31.6" rx="1.211" ry="1.201"/><ellipse cx="127.394" cy="31.6" rx="1.101" ry="1.092"/><ellipse cx="127.394" cy="31.6" rx="1.101" ry="1.092"/><ellipse cx="125.468" cy="25.488" rx="1.211" ry="1.201"/><ellipse cx="125.468" cy="25.488" rx="1.101" ry="1.092"/><ellipse cx="125.468" cy="25.488" rx="1.101" ry="1.092"/><ellipse cx="114.732" cy="17.192" rx="1.211" ry="1.201"/><ellipse cx="114.732" cy="17.192" rx="1.101" ry="1.092"/><ellipse cx="114.732" cy="17.192" rx="1.101" ry="1.092"/><ellipse cx="105.593" cy="23.578" rx="1.211" ry="1.201"/><ellipse cx="105.593" cy="23.578" rx="1.101" ry="1.092"/><ellipse cx="105.593" cy="23.578" rx="1.101" ry="1.092"/><ellipse cx="73.607" cy="20.357" rx="1.211" ry="1.201"/><ellipse cx="73.607" cy="20.357" rx="1.101" ry="1.092"/><ellipse cx="73.607" cy="20.357" rx="1.101" ry="1.092"/><ellipse cx="45.585" cy="19.266" rx="1.211" ry="1.201"/><ellipse cx="45.585" cy="19.266" rx="1.101" ry="1.092"/><ellipse cx="45.585" cy="19.266" rx="1.101" ry="1.092"/><ellipse cx="36.446" cy="20.248" rx="1.211" ry="1.201"/><ellipse cx="36.446" cy="20.248" rx="1.101" ry="1.092"/><ellipse cx="36.446" cy="20.248" rx="1.101" ry="1.092"/><ellipse cx="36.666" cy="14.681" rx="1.211" ry="1.201"/><ellipse cx="36.666" cy="14.681" rx="1.101" ry="1.092"/><ellipse cx="36.666" cy="14.681" rx="1.101" ry="1.092"/><ellipse cx="31.821" cy="14.136" rx="1.211" ry="1.201"/><ellipse cx="31.821" cy="14.136" rx="1.101" ry="1.092"/><ellipse cx="31.821" cy="14.136" rx="1.101" ry="1.092"/><ellipse cx="29.729" cy="18.993" rx="1.211" ry="1.201"/><ellipse cx="29.729" cy="18.993" rx="1.101" ry="1.092"/><ellipse cx="29.729" cy="18.993" rx="1.101" ry="1.092"/><ellipse cx="23.288" cy="55.069" rx="1.211" ry="1.201"/><ellipse cx="23.288" cy="55.069" rx="1.101" ry="1.092"/><ellipse cx="23.288" cy="55.069" rx="1.101" ry="1.092"/><ellipse cx="18.994" cy="75.754" rx="1.211" ry="1.201"/><ellipse cx="18.994" cy="75.754" rx="1.101" ry="1.092"/><ellipse cx="18.994" cy="75.754" rx="1.101" ry="1.092"/><ellipse cx="18.498" cy="81.921" rx="1.211" ry="1.201"/><ellipse cx="18.498" cy="81.921" rx="1.101" ry="1.092"/><ellipse cx="18.498" cy="81.921" rx="1.101" ry="1.092"/><ellipse cx="16.571" cy="89.725" rx="1.211" ry="1.201"/><ellipse cx="16.571" cy="89.725" rx="1.101" ry="1.092"/><ellipse cx="16.571" cy="89.725" rx="1.101" ry="1.092"/><ellipse cx="21.416" cy="92.564" rx="1.211" ry="1.201"/><ellipse cx="21.416" cy="92.564" rx="1.101" ry="1.092"/><ellipse cx="21.416" cy="92.564" rx="1.101" ry="1.092"/><ellipse cx="27.637" cy="107.845" rx="1.211" ry="1.201"/><ellipse cx="27.637" cy="107.845" rx="1.101" ry="1.092"/><ellipse cx="27.637" cy="107.845" rx="1.101" ry="1.092"/><ellipse cx="30.059" cy="121.435" rx="1.211" ry="1.201"/><ellipse cx="30.059" cy="121.435" rx="1.101" ry="1.092"/><ellipse cx="30.059" cy="121.435" rx="1.101" ry="1.092"/><ellipse cx="27.747" cy="131.75" rx="1.211" ry="1.201"/><ellipse cx="27.747" cy="131.75" rx="1.101" ry="1.092"/><ellipse cx="27.747" cy="131.75" rx="1.101" ry="1.092"/><ellipse cx="25.545" cy="139.664" rx="1.211" ry="1.201"/><ellipse cx="25.545" cy="139.664" rx="1.101" ry="1.092"/><ellipse cx="25.545" cy="139.664" rx="1.101" ry="1.092"/><ellipse cx="20.535" cy="139.937" rx="1.211" ry="1.201"/><ellipse cx="20.535" cy="139.937" rx="1.101" ry="1.092"/><ellipse cx="20.535" cy="139.937" rx="1.101" ry="1.092"/><ellipse cx="12.938" cy="124.655" rx="1.211" ry="1.201"/><ellipse cx="12.938" cy="124.655" rx="1.101" ry="1.092"/><ellipse cx="12.938" cy="124.655" rx="1.101" ry="1.092"/><ellipse cx="17.067" cy="107.954" rx="1.211" ry="1.201"/><ellipse cx="17.067" cy="107.954" rx="1.101" ry="1.092"/><ellipse cx="17.067" cy="107.954" rx="1.101" ry="1.092"/><ellipse cx="37.106" cy="89.343" rx="1.211" ry="1.201"/><ellipse cx="37.106" cy="89.343" rx="1.101" ry="1.092"/><ellipse cx="37.106" cy="89.343" rx="1.101" ry="1.092"/><ellipse cx="47.456" cy="80.775" rx="1.211" ry="1.201"/><ellipse cx="47.456" cy="80.775" rx="1.101" ry="1.092"/><ellipse cx="47.456" cy="80.775" rx="1.101" ry="1.092"/><ellipse cx="49.934" cy="88.143" rx="1.211" ry="1.201"/><ellipse cx="49.934" cy="88.143" rx="1.101" ry="1.092"/><ellipse cx="49.934" cy="88.143" rx="1.101" ry="1.092"/><ellipse cx="50.209" cy="114.012" rx="1.211" ry="1.201"/><ellipse cx="50.209" cy="114.012" rx="1.101" ry="1.092"/><ellipse cx="50.209" cy="114.012" rx="1.101" ry="1.092"/><ellipse cx="51.475" cy="124.164" rx="1.211" ry="1.201"/><ellipse cx="51.475" cy="124.164" rx="1.101" ry="1.092"/><ellipse cx="51.475" cy="124.164" rx="1.101" ry="1.092"/><ellipse cx="52.466" cy="130.932" rx="1.211" ry="1.201"/><ellipse cx="52.466" cy="130.932" rx="1.101" ry="1.092"/><ellipse cx="52.466" cy="130.932" rx="1.101" ry="1.092"/><ellipse cx="57.696" cy="133.442" rx="1.211" ry="1.201"/><ellipse cx="57.696" cy="133.442" rx="1.101" ry="1.092"/><ellipse cx="57.696" cy="133.442" rx="1.101" ry="1.092"/><ellipse cx="77.571" cy="137.426" rx="1.211" ry="1.201"/><ellipse cx="77.571" cy="137.426" rx="1.101" ry="1.092"/><ellipse cx="77.571" cy="137.426" rx="1.101" ry="1.092"/><ellipse cx="86.214" cy="142.065" rx="1.211" ry="1.201"/><ellipse cx="86.214" cy="142.065" rx="1.101" ry="1.092"/><ellipse cx="86.214" cy="142.065" rx="1.101" ry="1.092"/><ellipse cx="85.058" cy="137.645" rx="1.211" ry="1.201"/><ellipse cx="85.058" cy="137.645" rx="1.101" ry="1.092"/><ellipse cx="85.058" cy="137.645" rx="1.101" ry="1.092"/><ellipse cx="70.634" cy="127.111" rx="1.211" ry="1.201"/><ellipse cx="70.634" cy="127.111" rx="1.101" ry="1.092"/><ellipse cx="70.634" cy="127.111" rx="1.101" ry="1.092"/><ellipse cx="64.578" cy="118.597" rx="1.211" ry="1.201"/><ellipse cx="64.578" cy="118.597" rx="1.101" ry="1.092"/><ellipse cx="64.578" cy="118.597" rx="1.101" ry="1.092"/><ellipse cx="65.569" cy="113.74" rx="1.211" ry="1.201"/><ellipse cx="65.569" cy="113.74" rx="1.101" ry="1.092"/><ellipse cx="65.569" cy="113.74" rx="1.101" ry="1.092"/><ellipse cx="59.238" cy="111.229" rx="1.211" ry="1.201"/><ellipse cx="59.238" cy="111.229" rx="1.101" ry="1.092"/><ellipse cx="59.238" cy="111.229" rx="1.101" ry="1.092"/><ellipse cx="54.613" cy="108.064" rx="1.211" ry="1.201"/><ellipse cx="54.613" cy="108.064" rx="1.101" ry="1.092"/><ellipse cx="54.613" cy="108.064" rx="1.101" ry="1.092"/><ellipse cx="48.612" cy="102.497" rx="1.211" ry="1.201"/><ellipse cx="48.612" cy="102.497" rx="1.101" ry="1.092"/><ellipse cx="48.612" cy="102.497" rx="1.101" ry="1.092"/><ellipse cx="56.1" cy="100.968" rx="1.211" ry="1.201"/><ellipse cx="56.1" cy="100.968" rx="1.101" ry="1.092"/><ellipse cx="56.1" cy="100.968" rx="1.101" ry="1.092"/><ellipse cx="79.277" cy="105.662" rx="1.211" ry="1.201"/><ellipse cx="79.277" cy="105.662" rx="1.101" ry="1.092"/><ellipse cx="79.277" cy="105.662" rx="1.101" ry="1.092"/><ellipse cx="86.049" cy="110.192" rx="1.211" ry="1.201"/><ellipse cx="86.049" cy="110.192" rx="1.101" ry="1.092"/><ellipse cx="86.049" cy="110.192" rx="1.101" ry="1.092"/><ellipse cx="99.427" cy="116.305" rx="1.211" ry="1.201"/><ellipse cx="99.427" cy="116.305" rx="1.101" ry="1.092"/><ellipse cx="99.427" cy="116.305" rx="1.101" ry="1.092"/><ellipse cx="102.07" cy="122.254" rx="1.211" ry="1.201"/><ellipse cx="102.07" cy="122.254" rx="1.101" ry="1.092"/><ellipse cx="102.07" cy="122.254" rx="1.101" ry="1.092"/><ellipse cx="97.996" cy="130.167" rx="1.211" ry="1.201"/><ellipse cx="97.996" cy="130.167" rx="1.101" ry="1.092"/><ellipse cx="97.996" cy="130.167" rx="1.101" ry="1.092"/><ellipse cx="98.051" cy="136.662" rx="1.211" ry="1.201"/><ellipse cx="98.051" cy="136.662" rx="1.101" ry="1.092"/><ellipse cx="98.051" cy="136.662" rx="1.101" ry="1.092"/><ellipse cx="104.767" cy="135.734" rx="1.211" ry="1.201"/><ellipse cx="104.767" cy="135.734" rx="1.101" ry="1.092"/><ellipse cx="104.767" cy="135.734" rx="1.101" ry="1.092"/><ellipse cx="118.476" cy="129.185" rx="1.211" ry="1.201"/><ellipse cx="118.476" cy="129.185" rx="1.101" ry="1.092"/><ellipse cx="118.476" cy="129.185" rx="1.101" ry="1.092"/><ellipse cx="136.148" cy="122.145" rx="1.211" ry="1.201"/><ellipse cx="136.148" cy="122.145" rx="1.101" ry="1.092"/><ellipse cx="136.148" cy="122.145" rx="1.101" ry="1.092"/><ellipse cx="142.479" cy="115.595" rx="1.211" ry="1.201"/><ellipse cx="142.479" cy="115.595" rx="1.101" ry="1.092"/><ellipse cx="142.479" cy="115.595" rx="1.101" ry="1.092"/><ellipse cx="147.324" cy="108.009" rx="1.211" ry="1.201"/><ellipse cx="147.324" cy="108.009" rx="1.101" ry="1.092"/><ellipse cx="147.324" cy="108.009" rx="1.101" ry="1.092"/><ellipse cx="148.59" cy="102.442" rx="1.211" ry="1.201"/><ellipse cx="148.59" cy="102.442" rx="1.101" ry="1.092"/><ellipse cx="148.59" cy="102.442" rx="1.101" ry="1.092"/><ellipse cx="152.774" cy="99.604" rx="1.211" ry="1.201"/><ellipse cx="152.774" cy="99.604" rx="1.101" ry="1.092"/><ellipse cx="152.774" cy="99.604" rx="1.101" ry="1.092"/><ellipse cx="149.691" cy="93.655" rx="1.211" ry="1.201"/><ellipse cx="149.691" cy="93.655" rx="1.101" ry="1.092"/><ellipse cx="149.691" cy="93.655" rx="1.101" ry="1.092"/><ellipse cx="147.929" cy="84.595" rx="1.211" ry="1.201"/><ellipse cx="147.929" cy="84.595" rx="1.101" ry="1.092"/><ellipse cx="147.929" cy="84.595" rx="1.101" ry="1.092"/><ellipse cx="151.398" cy="74.826" rx="1.211" ry="1.201"/><ellipse cx="151.398" cy="74.826" rx="1.101" ry="1.092"/><ellipse cx="151.398" cy="74.826" rx="1.101" ry="1.092"/><ellipse cx="146.718" cy="76.845" rx="1.211" ry="1.201"/><ellipse cx="146.718" cy="76.845" rx="1.101" ry="1.092"/><ellipse cx="146.718" cy="76.845" rx="1.101" ry="1.092"/><ellipse cx="136.148" cy="95.784" rx="1.211" ry="1.201"/><ellipse cx="136.148" cy="95.784" rx="1.101" ry="1.092"/><ellipse cx="136.148" cy="95.784" rx="1.101" ry="1.092"/><ellipse cx="131.358" cy="111.557" rx="1.211" ry="1.201"/><ellipse cx="131.358" cy="111.557" rx="1.101" ry="1.092"/><ellipse cx="131.358" cy="111.557" rx="1.101" ry="1.092"/><ellipse cx="129.707" cy="119.307" rx="1.211" ry="1.201"/><ellipse cx="129.707" cy="119.307" rx="1.101" ry="1.092"/><ellipse cx="129.707" cy="119.307" rx="1.101" ry="1.092"/><ellipse cx="127.78" cy="127.166" rx="1.211" ry="1.201"/><ellipse cx="127.78" cy="127.166" rx="1.101" ry="1.092"/><ellipse cx="127.78" cy="127.166" rx="1.101" ry="1.092"/><ellipse cx="124.422" cy="123.946" rx="1.211" ry="1.201"/><ellipse cx="124.422" cy="123.946" rx="1.101" ry="1.092"/><ellipse cx="124.422" cy="123.946" rx="1.101" ry="1.092"/><ellipse cx="122.55" cy="115.268" rx="1.211" ry="1.201"/><ellipse cx="122.55" cy="115.268" rx="1.101" ry="1.092"/><ellipse cx="122.55" cy="115.268" rx="1.101" ry="1.092"/><ellipse cx="119.632" cy="110.465" rx="1.211" ry="1.201"/><ellipse cx="119.632" cy="110.465" rx="1.101" ry="1.092"/><ellipse cx="119.632" cy="110.465" rx="1.101" ry="1.092"/><ellipse cx="122.77" cy="106.917" rx="1.211" ry="1.201"/><ellipse cx="122.77" cy="106.917" rx="1.101" ry="1.092"/><ellipse cx="122.77" cy="106.917" rx="1.101" ry="1.092"/><ellipse cx="115.172" cy="117.123" rx="1.211" ry="1.201"/><ellipse cx="115.172" cy="117.123" rx="1.101" ry="1.092"/><ellipse cx="115.172" cy="117.123" rx="1.101" ry="1.092"/><ellipse cx="114.016" cy="112.921" rx="1.211" ry="1.201"/><ellipse cx="114.016" cy="112.921" rx="1.101" ry="1.092"/><ellipse cx="114.016" cy="112.921" rx="1.101" ry="1.092"/><ellipse cx="109.006" cy="108.609" rx="1.211" ry="1.201"/><ellipse cx="109.006" cy="108.609" rx="1.101" ry="1.092"/><ellipse cx="109.006" cy="108.609" rx="1.101" ry="1.092"/><ellipse cx="113.301" cy="100.859" rx="1.211" ry="1.201"/><ellipse cx="113.301" cy="100.859" rx="1.101" ry="1.092"/><ellipse cx="113.301" cy="100.859" rx="1.101" ry="1.092"/><ellipse cx="103.226" cy="101.351" rx="1.211" ry="1.201"/><ellipse cx="103.226" cy="101.351" rx="1.101" ry="1.092"/><ellipse cx="103.226" cy="101.351" rx="1.101" ry="1.092"/><ellipse cx="107.85" cy="102.278" rx="1.211" ry="1.201"/><ellipse cx="107.85" cy="102.278" rx="1.101" ry="1.092"/><ellipse cx="107.85" cy="102.278" rx="1.101" ry="1.092"/><ellipse cx="108.456" cy="96.984" rx="1.211" ry="1.201"/><ellipse cx="108.456" cy="96.984" rx="1.101" ry="1.092"/><ellipse cx="108.456" cy="96.984" rx="1.101" ry="1.092"/><ellipse cx="116.218" cy="92.4" rx="1.211" ry="1.201"/><ellipse cx="116.218" cy="92.4" rx="1.101" ry="1.092"/><ellipse cx="116.218" cy="92.4" rx="1.101" ry="1.092"/><ellipse cx="129.266" cy="81.43" rx="1.211" ry="1.201"/><ellipse cx="129.266" cy="81.43" rx="1.101" ry="1.092"/><ellipse cx="129.266" cy="81.43" rx="1.101" ry="1.092"/><ellipse cx="135.047" cy="76.9" rx="1.211" ry="1.201"/><ellipse cx="135.047" cy="76.9" rx="1.101" ry="1.092"/><ellipse cx="135.047" cy="76.9" rx="1.101" ry="1.092"/><ellipse cx="139.011" cy="72.042" rx="1.211" ry="1.201"/><ellipse cx="139.011" cy="72.042" rx="1.101" ry="1.092"/><ellipse cx="139.011" cy="72.042" rx="1.101" ry="1.092"/><ellipse cx="141.929" cy="67.349" rx="1.211" ry="1.201"/><ellipse cx="141.929" cy="67.349" rx="1.101" ry="1.092"/><ellipse cx="141.929" cy="67.349" rx="1.101" ry="1.092"/><ellipse cx="147.434" cy="67.185" rx="1.211" ry="1.201"/><ellipse cx="147.434" cy="67.185" rx="1.101" ry="1.092"/><ellipse cx="147.434" cy="67.185" rx="1.101" ry="1.092"/><ellipse cx="148.92" cy="62.109" rx="1.211" ry="1.201"/><ellipse cx="148.92" cy="62.109" rx="1.101" ry="1.092"/><ellipse cx="148.92" cy="62.109" rx="1.101" ry="1.092"/><ellipse cx="141.598" cy="56.706" rx="1.211" ry="1.201"/><ellipse cx="141.598" cy="56.706" rx="1.101" ry="1.092"/><ellipse cx="141.598" cy="56.706" rx="1.101" ry="1.092"/><ellipse cx="123.871" cy="56.815" rx="1.211" ry="1.201"/><ellipse cx="123.871" cy="56.815" rx="1.101" ry="1.092"/><ellipse cx="123.871" cy="56.815" rx="1.101" ry="1.092"/><ellipse cx="114.567" cy="53.65" rx="1.211" ry="1.201"/><ellipse cx="114.567" cy="53.65" rx="1.101" ry="1.092"/><ellipse cx="114.567" cy="53.65" rx="1.101" ry="1.092"/><ellipse cx="93.922" cy="54.523" rx="1.211" ry="1.201"/><ellipse cx="93.922" cy="54.523" rx="1.101" ry="1.092"/><ellipse cx="93.922" cy="54.523" rx="1.101" ry="1.092"/><ellipse cx="82.801" cy="54.96" rx="1.211" ry="1.201"/><ellipse cx="82.801" cy="54.96" rx="1.101" ry="1.092"/><ellipse cx="82.801" cy="54.96" rx="1.101" ry="1.092"/><ellipse cx="65.404" cy="54.632" rx="1.211" ry="1.201"/><ellipse cx="65.404" cy="54.632" rx="1.101" ry="1.092"/><ellipse cx="65.404" cy="54.632" rx="1.101" ry="1.092"/><ellipse cx="59.293" cy="60.745" rx="1.211" ry="1.201"/><ellipse cx="59.293" cy="60.745" rx="1.101" ry="1.092"/><ellipse cx="59.293" cy="60.745" rx="1.101" ry="1.092"/><ellipse cx="57.476" cy="70.569" rx="1.211" ry="1.201"/><ellipse cx="57.476" cy="70.569" rx="1.101" ry="1.092"/><ellipse cx="57.476" cy="70.569" rx="1.101" ry="1.092"/><ellipse cx="59.954" cy="75.917" rx="1.211" ry="1.201"/><ellipse cx="59.954" cy="75.917" rx="1.101" ry="1.092"/><ellipse cx="59.954" cy="75.917" rx="1.101" ry="1.092"/><ellipse cx="70.138" cy="76.299" rx="1.211" ry="1.201"/><ellipse cx="70.138" cy="76.299" rx="1.101" ry="1.092"/><ellipse cx="70.138" cy="76.299" rx="1.101" ry="1.092"/><ellipse cx="75.754" cy="70.241" rx="1.211" ry="1.201"/><ellipse cx="75.754" cy="70.241" rx="1.101" ry="1.092"/><ellipse cx="75.754" cy="70.241" rx="1.101" ry="1.092"/><ellipse cx="73.552" cy="61.618" rx="1.211" ry="1.201"/><ellipse cx="73.552" cy="61.618" rx="1.101" ry="1.092"/><ellipse cx="73.552" cy="61.618" rx="1.101" ry="1.092"/><ellipse cx="67.661" cy="59.544" rx="1.211" ry="1.201"/><ellipse cx="67.661" cy="59.544" rx="1.101" ry="1.092"/><ellipse cx="67.661" cy="59.544" rx="1.101" ry="1.092"/><ellipse cx="51.475" cy="59.817" rx="1.211" ry="1.201"/><ellipse cx="51.475" cy="59.817" rx="1.101" ry="1.092"/><ellipse cx="51.475" cy="59.817" rx="1.101" ry="1.092"/><ellipse cx="35.785" cy="65.22" rx="1.211" ry="1.201"/><ellipse cx="35.785" cy="65.22" rx="1.101" ry="1.092"/><ellipse cx="35.785" cy="65.22" rx="1.101" ry="1.092"/><ellipse cx="21.911" cy="68.713" rx="1.211" ry="1.201"/><ellipse cx="21.911" cy="68.713" rx="1.101" ry="1.092"/><ellipse cx="21.911" cy="68.713" rx="1.101" ry="1.092"/><ellipse cx="7.983" cy="71.224" rx="1.211" ry="1.201"/><ellipse cx="7.983" cy="71.224" rx="1.101" ry="1.092"/><ellipse cx="7.983" cy="71.224" rx="1.101" ry="1.092"/><ellipse cx="5.285" cy="65.548" rx="1.211" ry="1.201"/><ellipse cx="5.285" cy="65.548" rx="1.101" ry="1.092"/><ellipse cx="5.285" cy="65.548" rx="1.101" ry="1.092"/><ellipse cx="8.313" cy="55.123" rx="1.211" ry="1.201"/><ellipse cx="8.313" cy="55.123" rx="1.101" ry="1.092"/><ellipse cx="8.313" cy="55.123" rx="1.101" ry="1.092"/><ellipse cx="23.453" cy="41.752" rx="1.211" ry="1.201"/><ellipse cx="23.453" cy="41.752" rx="1.101" ry="1.092"/><ellipse cx="23.453" cy="41.752" rx="1.101" ry="1.092"/><ellipse cx="44.098" cy="35.148" rx="1.211" ry="1.201"/><ellipse cx="44.098" cy="35.148" rx="1.101" ry="1.092"/><ellipse cx="44.098" cy="35.148" rx="1.101" ry="1.092"/><ellipse cx="54.118" cy="37.495" rx="1.211" ry="1.201"/><ellipse cx="54.118" cy="37.495" rx="1.101" ry="1.092"/><ellipse cx="54.118" cy="37.495" rx="1.101" ry="1.092"/><ellipse cx="57.311" cy="32.31" rx="1.211" ry="1.201"/><ellipse cx="57.311" cy="32.31" rx="1.101" ry="1.092"/><ellipse cx="57.311" cy="32.31" rx="1.101" ry="1.092"/><ellipse cx="59.128" cy="12.553" rx="1.211" ry="1.201"/><ellipse cx="59.128" cy="12.553" rx="1.101" ry="1.092"/><ellipse cx="59.128" cy="12.553" rx="1.101" ry="1.092"/><ellipse cx="58.852" cy="17.356" rx="1.211" ry="1.201"/><ellipse cx="58.852" cy="17.356" rx="1.101" ry="1.092"/><ellipse cx="58.852" cy="17.356" rx="1.101" ry="1.092"/><ellipse cx="83.241" cy="33.129" rx="1.211" ry="1.201"/><ellipse cx="83.241" cy="33.129" rx="1.101" ry="1.092"/><ellipse cx="83.241" cy="33.129" rx="1.101" ry="1.092"/><ellipse cx="83.076" cy="41.206" rx="1.211" ry="1.201"/><ellipse cx="83.076" cy="41.206" rx="1.101" ry="1.092"/><ellipse cx="83.076" cy="41.206" rx="1.101" ry="1.092"/><ellipse cx="57.036" cy="43.662" rx="1.211" ry="1.201"/><ellipse cx="57.036" cy="43.662" rx="1.101" ry="1.092"/><ellipse cx="57.036" cy="43.662" rx="1.101" ry="1.092"/><ellipse cx="39.859" cy="43.28" rx="1.211" ry="1.201"/><ellipse cx="39.859" cy="43.28" rx="1.101" ry="1.092"/><ellipse cx="39.859" cy="43.28" rx="1.101" ry="1.092"/><ellipse cx="44.318" cy="40.988" rx="1.211" ry="1.201"/><ellipse cx="44.318" cy="40.988" rx="1.101" ry="1.092"/><ellipse cx="44.318" cy="40.988" rx="1.101" ry="1.092"/><ellipse cx="83.406" cy="25.706" rx="1.211" ry="1.201"/><ellipse cx="83.406" cy="25.706" rx="1.101" ry="1.092"/><ellipse cx="83.406" cy="25.706" rx="1.101" ry="1.092"/><ellipse cx="110.273" cy="22.923" rx="1.211" ry="1.201"/><ellipse cx="110.273" cy="22.923" rx="1.101" ry="1.092"/><ellipse cx="110.273" cy="22.923" rx="1.101" ry="1.092"/><ellipse cx="115.833" cy="22.322" rx="1.211" ry="1.201"/><ellipse cx="115.833" cy="22.322" rx="1.101" ry="1.092"/><ellipse cx="115.833" cy="22.322" rx="1.101" ry="1.092"/><ellipse cx="120.953" cy="10.752" rx="1.211" ry="1.201"/><ellipse cx="120.953" cy="10.752" rx="1.101" ry="1.092"/><ellipse cx="120.953" cy="10.752" rx="1.101" ry="1.092"/><ellipse cx="125.578" cy="8.132" rx="1.211" ry="1.201"/><ellipse cx="125.578" cy="8.132" rx="1.101" ry="1.092"/><ellipse cx="125.578" cy="8.132" rx="1.101" ry="1.092"/><ellipse cx="124.091" cy="14.354" rx="1.211" ry="1.201"/><ellipse cx="124.091" cy="14.354" rx="1.101" ry="1.092"/><ellipse cx="124.091" cy="14.354" rx="1.101" ry="1.092"/><ellipse cx="91.94" cy="18.829" rx="1.211" ry="1.201"/><ellipse cx="91.94" cy="18.829" rx="1.101" ry="1.092"/><ellipse cx="91.94" cy="18.829" rx="1.101" ry="1.092"/><ellipse cx="93.481" cy="23.141" rx="1.211" ry="1.201"/><ellipse cx="93.481" cy="23.141" rx="1.101" ry="1.092"/><ellipse cx="93.481" cy="23.141" rx="1.101" ry="1.092"/><ellipse cx="110.493" cy="30.181" rx="1.211" ry="1.201"/><ellipse cx="110.493" cy="30.181" rx="1.101" ry="1.092"/><ellipse cx="110.493" cy="30.181" rx="1.101" ry="1.092"/><ellipse cx="115.723" cy="30.127" rx="1.211" ry="1.201"/><ellipse cx="115.723" cy="30.127" rx="1.101" ry="1.092"/><ellipse cx="115.723" cy="30.127" rx="1.101" ry="1.092"/><ellipse cx="137.689" cy="27.998" rx="1.211" ry="1.201"/><ellipse cx="137.689" cy="27.998" rx="1.101" ry="1.092"/><ellipse cx="137.689" cy="27.998" rx="1.101" ry="1.092"/><ellipse cx="143.911" cy="34.711" rx="1.211" ry="1.201"/><ellipse cx="143.911" cy="34.711" rx="1.101" ry="1.092"/><ellipse cx="143.911" cy="34.711" rx="1.101" ry="1.092"/><ellipse cx="152.058" cy="48.574" rx="1.211" ry="1.201"/><ellipse cx="152.058" cy="48.574" rx="1.101" ry="1.092"/><ellipse cx="152.058" cy="48.574" rx="1.101" ry="1.092"/><ellipse cx="156.243" cy="60.363" rx="1.211" ry="1.201"/><ellipse cx="156.243" cy="60.363" rx="1.101" ry="1.092"/><ellipse cx="156.243" cy="60.363" rx="1.101" ry="1.092"/><ellipse cx="158.225" cy="69.968" rx="1.211" ry="1.201"/><ellipse cx="158.225" cy="69.968" rx="1.101" ry="1.092"/><ellipse cx="158.225" cy="69.968" rx="1.101" ry="1.092"/><ellipse cx="159.271" cy="81.43" rx="1.211" ry="1.201"/><ellipse cx="159.271" cy="81.43" rx="1.101" ry="1.092"/><ellipse cx="159.271" cy="81.43" rx="1.101" ry="1.092"/><ellipse cx="160.151" cy="93.437" rx="1.211" ry="1.201"/><ellipse cx="160.151" cy="93.437" rx="1.101" ry="1.092"/><ellipse cx="160.151" cy="93.437" rx="1.101" ry="1.092"/><ellipse cx="160.647" cy="102.77" rx="1.211" ry="1.201"/><ellipse cx="160.647" cy="102.77" rx="1.101" ry="1.092"/><ellipse cx="160.647" cy="102.77" rx="1.101" ry="1.092"/><ellipse cx="158.39" cy="111.338" rx="1.211" ry="1.201"/><ellipse cx="158.39" cy="111.338" rx="1.101" ry="1.092"/><ellipse cx="158.39" cy="111.338" rx="1.101" ry="1.092"/><ellipse cx="155.142" cy="120.835" rx="1.211" ry="1.201"/><ellipse cx="155.142" cy="120.835" rx="1.101" ry="1.092"/><ellipse cx="155.142" cy="120.835" rx="1.101" ry="1.092"/><ellipse cx="142.149" cy="137.372" rx="1.211" ry="1.201"/><ellipse cx="142.149" cy="137.372" rx="1.101" ry="1.092"/><ellipse cx="142.149" cy="137.372" rx="1.101" ry="1.092"/><ellipse cx="123.596" cy="148.069" rx="1.211" ry="1.201"/><ellipse cx="123.596" cy="148.069" rx="1.101" ry="1.092"/><ellipse cx="123.596" cy="148.069" rx="1.101" ry="1.092"/><ellipse cx="95.683" cy="153.636" rx="1.211" ry="1.201"/><ellipse cx="95.683" cy="153.636" rx="1.101" ry="1.092"/><ellipse cx="95.683" cy="153.636" rx="1.101" ry="1.092"/><ellipse cx="82.085" cy="154.618" rx="1.211" ry="1.201"/><ellipse cx="82.085" cy="154.618" rx="1.101" ry="1.092"/><ellipse cx="82.085" cy="154.618" rx="1.101" ry="1.092"/><ellipse cx="69.863" cy="157.347" rx="1.211" ry="1.201"/><ellipse cx="69.863" cy="157.347" rx="1.101" ry="1.092"/><ellipse cx="69.863" cy="157.347" rx="1.101" ry="1.092"/><ellipse cx="56.045" cy="160.567" rx="1.211" ry="1.201"/><ellipse cx="56.045" cy="160.567" rx="1.101" ry="1.092"/><ellipse cx="56.045" cy="160.567" rx="1.101" ry="1.092"/><ellipse cx="50.319" cy="160.349" rx="1.211" ry="1.201"/><ellipse cx="50.319" cy="160.349" rx="1.101" ry="1.092"/><ellipse cx="50.319" cy="160.349" rx="1.101" ry="1.092"/><ellipse cx="33.638" cy="156.965" rx="1.211" ry="1.201"/><ellipse cx="33.638" cy="156.965" rx="1.101" ry="1.092"/><ellipse cx="33.638" cy="156.965" rx="1.101" ry="1.092"/><ellipse cx="28.518" cy="155.273" rx="1.211" ry="1.201"/><ellipse cx="28.518" cy="155.273" rx="1.101" ry="1.092"/><ellipse cx="28.518" cy="155.273" rx="1.101" ry="1.092"/><ellipse cx="34.023" cy="146.05" rx="1.211" ry="1.201"/><ellipse cx="34.023" cy="146.05" rx="1.101" ry="1.092"/><ellipse cx="34.023" cy="146.05" rx="1.101" ry="1.092"/><ellipse cx="36.446" cy="134.861" rx="1.211" ry="1.201"/><ellipse cx="36.446" cy="134.861" rx="1.101" ry="1.092"/><ellipse cx="36.446" cy="134.861" rx="1.101" ry="1.092"/><ellipse cx="36.335" cy="119.307" rx="1.211" ry="1.201"/><ellipse cx="36.335" cy="119.307" rx="1.101" ry="1.092"/><ellipse cx="36.335" cy="119.307" rx="1.101" ry="1.092"/><ellipse cx="35.069" cy="110.083" rx="1.211" ry="1.201"/><ellipse cx="35.069" cy="110.083" rx="1.101" ry="1.092"/><ellipse cx="35.069" cy="110.083" rx="1.101" ry="1.092"/><ellipse cx="36.611" cy="102.551" rx="1.211" ry="1.201"/><ellipse cx="36.611" cy="102.551" rx="1.101" ry="1.092"/><ellipse cx="36.611" cy="102.551" rx="1.101" ry="1.092"/></g></g></g><path d="M110.933333,125.082151 C111.098495,121.889032 110.823226,118.64086 110.107527,115.502796 C109.777204,114.016344 109.171613,112.584946 108.235699,111.31871 C107.354839,110.162581 105.978495,109.556989 104.547097,109.667097 C103.115699,109.722151 101.739355,110.382796 100.803441,111.538925 C99.8675269,112.750108 99.2068817,114.181505 98.8765591,115.667957 C98.1608602,118.806022 97.8305376,121.99914 98.0507527,125.192258 C98.1058065,126.073118 97.4451613,126.183226 97.3350538,125.247312 C97.1698925,123.595699 97.0597849,121.944086 97.1148387,120.292473 C97.1148387,118.64086 97.3350538,116.989247 97.6653763,115.337634 C97.9956989,113.630968 98.7113978,112.034409 99.7574194,110.658065 C100.307957,109.942366 101.023656,109.336774 101.849462,108.951398 C102.675269,108.566022 103.556129,108.290753 104.492043,108.290753 C106.363871,108.180645 108.180645,109.006452 109.336774,110.547957 C109.887312,111.263656 110.327742,112.034409 110.603011,112.860215 C110.933333,113.630968 111.153548,114.456774 111.31871,115.282581 C111.649032,116.934194 111.814194,118.585806 111.814194,120.237419 C111.869247,121.889032 111.75914,123.540645 111.593978,125.192258 C111.538925,126.293333 110.933333,126.183226 110.933333,125.082151 L110.933333,125.082151 Z M139.56129,125.192258 C139.396129,123.540645 139.286022,121.889032 139.341075,120.237419 C139.341075,118.585806 139.506237,116.934194 139.836559,115.282581 C140.00172,114.456774 140.221935,113.630968 140.552258,112.860215 C140.882581,112.034409 141.267957,111.263656 141.818495,110.547957 C142.974624,109.061505 144.791398,108.180645 146.663226,108.290753 C147.59914,108.345806 148.48,108.566022 149.305806,108.951398 C150.131613,109.391828 150.847312,109.942366 151.397849,110.658065 C152.443871,112.034409 153.15957,113.630968 153.489892,115.337634 C153.820215,116.989247 154.04043,118.64086 154.04043,120.292473 C154.095484,121.944086 153.985376,123.595699 153.820215,125.247312 C153.710108,126.183226 153.049462,126.073118 153.104516,125.192258 C153.269677,121.99914 152.994409,118.750968 152.27871,115.667957 C151.948387,114.181505 151.287742,112.750108 150.351828,111.538925 C149.415914,110.382796 148.094624,109.722151 146.608172,109.667097 C145.176774,109.556989 143.80043,110.162581 142.91957,111.31871 C142.03871,112.529892 141.378065,113.96129 141.047742,115.502796 C140.387097,118.64086 140.111828,121.833978 140.221935,125.082151 C140.332043,126.183226 139.671398,126.293333 139.56129,125.192258 L139.56129,125.192258 Z" fill="#94B3CA"/><path d="M126.513548,144.075699 C122.384516,143.745376 119.852043,146.553118 118.475699,148.975484 C119.852043,152.939355 122.109247,155.967312 125.963011,155.747097 C129.816774,155.526882 132.129032,152.498925 133.725591,148.645161 C132.349247,146.608172 130.147097,144.406022 126.513548,144.075699 Z" fill="#FF8AFF"/><g transform="translate(126.623656, 143.690323)"><mask id="mask-8" fill="#fff"><use xlink:href="#path-7"/></mask><path d="M-3.35827957,-1.2111828 C-3.35827957,-1.2111828 -7.81763441,6.93677419 2.2572043,11.2309677 C12.332043,15.5251613 -0.0550537634,18.0025806 -1.48645161,17.231828 C-2.91784946,16.4610753 -11.6713978,8.09290323 -11.6713978,8.09290323 L-12.9926882,2.69763441 L-3.35827957,-1.2111828 L-3.35827957,-1.2111828 Z" fill="#FF8AFF" opacity=".35" mask="url(#mask-8)"/></g><path d="M116.493763,131.578495 C116.493763,131.578495 115.943226,141.818495 118.420645,148.975484 C119.796989,146.608172 122.329462,143.745376 126.458495,144.075699 C130.092043,144.406022 132.294194,146.608172 133.615484,148.645161 C136.533333,141.488172 136.47828,131.578495 136.47828,131.578495 C125.027097,139.506237 116.493763,131.578495 116.493763,131.578495 L116.493763,131.578495 Z" fill="#733335"/><path d="M103.28086,147.764301 C112.970323,147.984516 109.336774,172.373333 109.116559,180.301075 C108.896344,188.283871 110.547957,195.330753 110.713118,200.505806 C110.823226,205.68086 113.52086,221.261075 101.849462,221.150968 C90.1780645,221.04086 97.3350538,190.706237 97.4451613,184.430108 C97.3901075,184.430108 93.5913978,147.489032 103.28086,147.764301 Z M136.092903,147.764301 C126.403441,147.984516 130.036989,172.373333 130.257204,180.301075 C130.477419,188.283871 128.825806,195.330753 128.660645,200.505806 C128.550538,205.68086 125.852903,221.261075 137.524301,221.150968 C149.195699,221.04086 142.03871,190.706237 141.928602,184.430108 C141.983656,184.430108 145.782366,147.489032 136.092903,147.764301 L136.092903,147.764301 Z" fill="#CDEEEE"/><g><g transform="translate(94.747527, 147.544086)"><mask id="mask-10" fill="#fff"><use xlink:href="#path-9"/></mask><path d="M15.0296774,28.5178495 L5.39526882,33.9131183 C5.39526882,33.9131183 5.23010753,48.0068817 3.9088172,54.7234409 C2.58752688,61.44 3.41333333,70.9092473 8.14795699,74.4877419 C12.8825806,78.0662366 -1.26623656,76.1393548 -1.26623656,76.1393548 C-1.26623656,76.1393548 -11.396129,67.6060215 -11.1208602,65.0735484 C-10.8455914,62.5410753 -13.0477419,31.8210753 -12.4421505,27.8021505 C-11.8365591,23.7832258 -7.32215054,-1.10107527 -7.32215054,-1.10107527 L4.67956989,-3.4683871 L8.31311828,-2.03698925 C6.88172043,4.12903226 6.05591398,10.3501075 5.89075269,16.6812903 C5.7255914,25.9853763 15.0296774,23.8382796 15.0296774,23.8382796 L15.0296774,28.5178495 Z M50.264086,28.5178495 L40.0791398,33.9131183 C40.0791398,33.9131183 39.6387097,48.0068817 38.3174194,54.7234409 C36.996129,61.44 37.6567742,70.9092473 42.3913978,74.4877419 C47.1260215,78.0662366 32.9221505,76.1393548 32.9221505,76.1393548 C32.9221505,76.1393548 22.7372043,67.6060215 23.0675269,65.0735484 C23.3427957,62.5410753 21.1406452,31.8210753 21.7462366,27.8021505 C22.351828,23.7832258 26.8111828,-1.10107527 26.8111828,-1.10107527 L38.8129032,-3.4683871 L42.4464516,-2.03698925 C41.3453763,4.12903226 40.7397849,10.4051613 40.5195699,16.6812903 C40.3544086,25.9853763 50.2090323,23.8382796 50.2090323,23.8382796 L50.264086,28.5178495 L50.264086,28.5178495 Z" fill="#9DEEEE" opacity=".35" mask="url(#mask-10)"/></g></g><path d="M186.026667,138.515269 C186.026667,138.515269 186.687312,130.642581 192.853333,132.349247 C192.853333,132.349247 203.093333,142.093763 192.853333,152.774194 C182.613333,163.454624 172.31828,166.812903 159.60086,169.84086 C146.883441,172.868817 147.378925,176.116989 135.377204,177.493333 C123.375484,178.869677 120.898065,173.364301 121.008172,168.51957 C121.11828,163.674839 125.467527,157.618925 136.313118,157.83914 C147.15871,158.059355 145.947527,162.133333 156.95828,160.316559 C167.969032,158.499785 179.420215,152.829247 183.218925,149.911398 C187.017634,146.993548 190.375914,143.029677 186.026667,138.515269 L186.026667,138.515269 Z M67.9363441,140.552258 C67.9363441,140.552258 55.6043011,143.249892 56.7053763,153.489892 C57.8064516,163.729892 66.6150538,165.821935 76.8550538,168.189247 C87.0950538,170.556559 85.168172,175.346237 97.4451613,176.502366 C109.722151,177.658495 114.621935,172.098065 113.410753,164.830968 C112.19957,157.563871 100.032688,158.004301 85.9939785,157.894194 C71.9552688,157.784086 67.9363441,151.397849 67.9363441,151.397849 L67.9363441,140.552258 L67.9363441,140.552258 Z" fill="#DDF5F5"/><g><g transform="translate(56.209892, 131.578495) translate(0.000000, -0.000000)"><mask id="mask-12" fill="#fff"><use xlink:href="#path-11"/></mask><path d="M11.3410753,19.1587097 C11.3410753,19.1587097 6.82666667,25.1595699 13.267957,28.4627957 C19.7092473,31.7660215 27.471828,33.2524731 30.6098925,36.1152688 C33.747957,38.9780645 48.9978495,42.2262366 59.0726882,36.1152688 C69.1475269,30.0043011 62.2107527,50.2090323 62.2107527,50.2090323 L25.1045161,49.4382796 C25.1045161,49.4382796 2.36731183,38.2073118 2.36731183,37.4916129 C2.36731183,36.775914 -2.31225806,13.5432258 -2.31225806,13.5432258 C-2.31225806,13.5432258 15.36,4.12903226 15.8004301,3.57849462 C16.2408602,3.02795699 25.9853763,2.42236559 25.9853763,2.42236559 L11.3410753,19.1587097 Z M64.0275269,33.747957 C64.0275269,33.747957 64.0825806,40.5195699 75.9191398,40.0791398 C87.7556989,39.6387097 92.6554839,36.2253763 92.6554839,36.2253763 C92.6554839,36.2253763 100.858495,37.4365591 118.695914,30.2245161 C136.533333,23.0124731 142.47914,15.2498925 142.47914,15.2498925 L138.900645,28.627957 L95.3531183,47.951828 L73.3316129,47.951828 C73.3316129,47.951828 68.5419355,46.3552688 67.0554839,46.08 C65.5690323,45.8047312 62.2658065,42.3363441 62.2658065,42.3363441 L64.0275269,33.747957 L64.0275269,33.747957 Z" fill="#C2F5F5" opacity=".35" mask="url(#mask-12)"/></g></g><path d="M70.1384946,40.7948387 L71.7901075,40.7948387 L71.7901075,80.4335484 L70.1384946,80.4335484 L70.1384946,40.7948387 Z M83.9019355,54.5582796 L85.5535484,54.5582796 L85.5535484,68.3217204 L83.9019355,68.3217204 L83.9019355,54.5582796 Z M194.009462,34.7389247 L195.661075,34.7389247 L195.661075,65.5690323 L194.009462,65.5690323 L194.009462,34.7389247 Z M179.695484,56.2098925 L181.347097,56.2098925 L181.347097,72.1754839 L179.695484,72.1754839 L179.695484,56.2098925 Z" fill="#249E7C"/></g></svg>