<svg height="258" preserveAspectRatio="xMidYMid" viewBox="0 0 256 258" width="256" xmlns="http://www.w3.org/2000/svg"><path d="m148.866523 8.05417544c-41.353319-19.21761724-92.2426794-2.40291034-116.6235134 39.81839006-8.0297836 13.908066-12.2345015 28.9278162-12.9295913 43.7543335-2.1886127 2.9592765-4.2350597 6.0757587-6.1226191 9.344524-25.7196651 44.543904-12.1963635 100.497142 30.2083199 124.978476 25.4993456 14.720398 55.6363955 14.706506 81.2039059 2.667951 41.649963 20.503639 93.627842 3.817349 118.34875-38.996808 15.491021-26.828909 16.744447-57.796764 6.026933-83.534171 4.128573-34.9524216-11.43644-69.9205433-42.587355-87.9047817-17.947475-10.36081448-38.19243-13.42165086-57.524824-10.12791496z" fill="#dbe9f5"/><path d="m224.12499 165.779591c-.694976 14.826298-4.899701 29.84546-12.929629 43.752498-25.71557 44.543905-80.939131 60.810191-123.3438144 36.328857-22.69822-13.103349-37.1209022-35.228139-41.6778254-59.793354-34.4448583-26.963481-43.87450243-77.421422-20.2828136-118.2798837 22.3075371-38.634438 66.8099131-55.9965261 105.8902174-43.9499934 22.410591-6.6935024 46.954254-4.6805111 68.262222 7.6211363 42.400588 24.4772381 55.923889 80.4304758 30.204224 124.9743808-1.887472 3.269435-3.933912 6.386531-6.122581 9.346359z" fill="#9bdcff"/><path d="m216.073622 76.7043271c23.919397 28.2875229 28.262948 70.8843109 7.825943 106.2824289-20.535268 35.561774-59.878833 53.099594-96.486945 46.264331-19.658661 3.597095-40.3274432.617325-58.6132839-9.939569-42.4005879-24.481333-55.9238895-80.430476-30.2042245-124.9784763.0146196-.0253214.0292488-.0506337.0438874-.0759368 1.209753-13.5131192 5.3492955-27.0883575 12.6562211-39.7420632 25.719665-44.5439048 80.9432259-60.81019051 123.3438139-36.3329524 22.3054 12.878735 36.620354 34.467092 41.434588 58.5222378z" fill="#3b9dff"/><path d="m81.5035401 206.038851c42.4005879 24.473143 97.6241489 8.215048 123.3438139-36.328857s12.192268-100.4971428-30.20832-124.9784761c-42.404683-24.4772381-97.6241489-8.2109524-123.3438139 36.3288571-25.719665 44.543905-12.1963635 100.497143 30.20832 124.978476z" fill="#3356b4"/></svg>