<svg height="318" preserveAspectRatio="xMidYMid" viewBox="0 0 256 318" width="256" xmlns="http://www.w3.org/2000/svg"><path d="m244.219469 254.173173-233.7982301-101.946902c-6.34336279-2.718584-10.4212389-9.061947-10.4212389-15.858407v-54.8247792c0-9.741593 9.96814159-16.3115045 19.0300885-12.460177l226.3221235 98.7752212c6.343363 2.718584 10.421239 9.061947 10.421239 15.858407v62.753982c0 5.890266-6.116814 9.968142-11.553982 7.702655" fill="#313949"/><g fill="#fb5152"><path d="m253.961062 50.2371681-105.571681-45.98938049c-13.139823-5.66371681-28.318585-5.66371681-41.458408 0l-88.5805305 38.73982299c-11.10088498 4.7575221-18.3504425 15.8584071-18.3504425 27.8654867v63.8867257c0 4.077876.67964602 5.890265 1.81238938 7.929204.90619469-4.077877 4.75752212-8.155753 7.92920354-9.515045l101.26725708-45.7628316c10.647787-4.7575221 23.107964-4.7575221 33.755752 0l107.157522 48.2548676c2.038938.906194 4.077876-.453098 4.077876-2.718584v-80.1982305c-.226549-1.1327433-.906195-2.038938-2.038938-2.4920354"/><path d="m1.81238938 267.100885 105.57168162 45.98938c13.139823 5.663717 28.318584 5.663717 41.458407 0l88.580531-38.739823c11.100885-4.757522 18.350442-15.858407 18.350442-28.092035v-63.886726c0-4.077876-.679646-5.890265-1.812389-7.929203-.906195 4.077876-4.757522 8.155752-7.929204 9.515044l-101.040708 45.762832c-10.647787 4.757522-23.107964 4.757522-33.755752 0l-106.93097322-48.028319c-2.03893805-.906194-4.30442478.453098-4.30442478 2.718584v79.971682c0 1.132743.67964602 2.265487 1.81238938 2.718584"/></g></svg>