<svg height="167" preserveAspectRatio="xMidYMid" viewBox="0 0 256 167" width="256" xmlns="http://www.w3.org/2000/svg"><path d="m253.52428 151.303374v.853334c0 1.875226-1.423276 3.244773-3.393317 3.244773h-25.630551c-1.864692 0-3.255309-1.401152-3.255309-3.244773v-32.152757c0-1.854157 1.443292-3.244774 3.318518-3.244774l.010535.031605h24.493828c1.970041 0 3.402798 1.359012 3.402798 3.233185v.854387c0 1.874173-1.432757 3.233185-3.402798 3.233185h-19.921647v8.417449h15.370535c1.970042 0 3.402799 1.381135 3.402799 3.255308v.843852c0 1.885761-1.432757 3.24372-3.402799 3.24372h-15.370535v8.196214h20.985679c1.980577.001054 3.392264 1.381136 3.392264 3.235292z" fill="#73ba25"/><path d="m230.25251 17.2562963c8.101399.2844444 14.455046 7.1111111 14.180083 15.2019753-.14749 3.9190124-1.789893 7.5430453-4.656461 10.21893-2.865515 2.6864198-6.594897 4.0770371-10.53498 3.9400824-8.090864-.2949795-14.431868-7.1111112-14.168494-15.2019754.136955-3.9190123 1.779358-7.5535802 4.656461-10.229465 2.864461-2.6758848 6.604379-4.066502 10.523391-3.9295473zm10.334815 14.8964609c.18963-5.7626337-4.320395-10.6087243-10.081975-10.8088889-2.790716-.1053498-5.446585.8849383-7.479836 2.7917696-2.034304 1.8962963-3.224757 4.4773662-3.309037 7.2691358-.189629 5.7626337 4.320395 10.6087242 10.072494 10.8194238 2.802305.0842799 5.45712-.9060082 7.500906-2.8023045 2.033251-1.9068313 3.213168-4.4879012 3.297448-7.2691358z" fill="#fff"/><path d="m230.50535 21.3438683c5.762634.2001646 10.271605 5.0462552 10.081975 10.8088889-.08428 2.7812346-1.264197 5.3623045-3.297448 7.2691358-2.043786 1.8962963-4.698601 2.8865844-7.500906 2.8023045-5.752099-.2106996-10.26107-5.0567901-10.072494-10.8194238.08428-2.7917696 1.274733-5.3728395 3.309037-7.2691358 2.033251-1.9068313 4.688066-2.8971194 7.479836-2.7917696zm6.342057 8.3331687c0-1.7172016-2.076444-3.0972839-4.635391-3.0972839-2.558946 0-4.624856 1.3800823-4.624856 3.0972839 0 1.6961317 2.064856 3.086749 4.624856 3.086749s4.635391-1.3906173 4.635391-3.086749z" fill="#73ba25"/><path d="m232.212016 26.5797531c2.56 0 4.635391 1.3800823 4.635391 3.0972839 0 1.6961317-2.076444 3.086749-4.635391 3.086749-2.558946 0-4.624856-1.3906173-4.624856-3.086749 0-1.7172016 2.064856-3.0972839 4.624856-3.0972839z" fill="#fff"/><g fill="#73ba25"><path d="m214.492181 140.54716v5.151605c0 5.900642-3.518683 9.702716-9.007407 9.702716h-20.933004c-1.970042 0-3.392264-1.380082-3.392264-3.244773v-.853334c0-1.865744 1.422222-3.234238 3.392264-3.234238h19.859489c2.159671 0 2.221827-2.960329 2.221827-3.286914v-3.086749c0-1.011358-.400329-2.20181-2.221827-2.20181h-14.54986c-4.140247 0-8.627094-3.392264-8.627094-8.859918v-4.772346c0-3.729383 3.518683-9.102222 9.859687-9.102222v.04214h17.08879c1.991111 0 3.466008 1.401152 3.466008 3.234239v.853333c0 1.854156-1.465416 3.244774-3.393317 3.244774h-15.865679c-2.085926 0-3.276378 1.021893-3.276378 2.812839v2.83391c0 1.158847.969218 2.748576 3.129942 2.748576h14.327572c3.949564.001053 7.921251 2.487308 7.921251 8.018172z"/><path d="m170.993251 116.759177c1.907885 0 3.393317 1.495967 3.393317 3.401745v25.315555c0 5.889054-4.62591 10.156774-11.009054 10.156774h-11.830781c-6.384198 0-11.008-4.26772-11.008-10.156774v-25.315555c0-1.906831 1.506502-3.401745 3.392263-3.401745h1.074568c1.89735 0 3.402798 1.527572 3.402798 3.401745v24.378996c0 1.948971 1.569712 3.518683 3.508148 3.518683h11.072264c1.927901 0 3.508148-1.569712 3.508148-3.518683v-24.377943c0-1.874173 1.527572-3.401745 3.401745-3.401745h.022123 1.072461z"/><path d="m133.741564 140.54716v5.151605c0 5.900642-3.539753 9.702716-9.007408 9.702716h-20.943539c-1.980576 0-3.402798-1.380082-3.402798-3.244773v-.853334c0-1.865744 1.432757-3.234238 3.402798-3.234238h19.858436c2.149136 0 2.201811-2.960329 2.201811-3.286914v-3.086749c0-1.011358-.379259-2.20181-2.201811-2.20181h-14.548806c-4.161317 0-8.628148-3.392264-8.628148-8.859918v-4.772346c0-3.729383 3.508148-9.102222 9.860741-9.102222l.021069.04214h17.098272c1.980576 0 3.466008 1.401152 3.466008 3.234239v.853333c0 1.854156-1.464362 3.244774-3.402798 3.244774h-15.865679c-2.096461 0-3.286914 1.021893-3.286914 2.812839v2.83391c0 1.158847.969218 2.748576 3.128889 2.748576h14.317037c3.950618.001053 7.93284 2.487308 7.93284 8.018172z"/><path d="m253.682305 52.2956379 1.075621-.2001646c.293926.2317695.251786.7058436.156971 1.1272427-.199111.9797531-.674239 2.7601647-1.000823 3.602963l-.273909.6953087c-.378206 1.0324279-.758519 2.012181-1.485432 2.6021399-2.000593 1.8225514-5.203227 3.2763786-10.217877 5.4676543-7.753745 3.3922634-20.321975 5.5308642-31.994733 5.4571193-4.18344-.0948148-8.228872-.5583539-11.77916-.9586831-10.871045-1.2431276-18.73014-2.1280658-20.364115 7.7537449-2.064856 12.3891358 9.587885 27.433086 9.703769 27.568988l-.011588.411917-.378206.094815s-18.573169-8.5544032-19.027226-8.8072427l-.589959-.4203456-.474074-.4540577c-1.401152-1.3474238-4.213992-4.3709629-9.923951-10.9879835-11.072263-12.8-24.030288-14.4855967-34.017448-12.0520165-2.433581.5794239-5.530865 2.3598354-7.543046 4.3614815-5.214814 5.14107-4.624856 15.4969548-4.329876 19.2684774.347654 4.2666671.568889 4.5827161.663704 4.9303701l-.06321.431934-.368725.04214-.210699-.147489-15.2335805-7.4482308-.5794239-2.4862552c-.3897942-1.6434568-.8427983-3.4660082-1.7066666-5.7520987-5.4465844-14.359177-17.6882305-25.1575309-31.1730041-27.4857614-9.1127572-1.5697119-25.7264198-1.7488065-34.5231276 14.854321-3.6767078 6.9320165-3.4554733 15.9604939.5794239 23.566749 4.1086419 7.7864031 11.4515226 12.7789301 20.1428806 13.7376131 8.6176132.938667 15.0966255-1.053498 18.7311934-5.762634 3.6661729-4.751275 4.3509465-11.2197528 1.7488066-16.4872425-2.7917695-5.6562304-7.0057613-8.6597531-12.8632099-9.1538436-4.4562963-.4003292-7.7642798 1.4538272-8.9547325 3.3501235-.3476543.5910123-.9797531 1.6866502-.990288 3.2447736v.0526749c0 4.2455967 3.8874074 5.4044445 4.6775308 5.4581729.2423046 0 1.4116873-.031605 2.9603292-.4213992l.7479836-.241251.516214-.1801482.3792592-.0726914c2.8233745-.5162139 5.5413992 1.1483128 6.3315227 3.8979424.1369547.5046255.2106996 1.0113581.2106996 1.5159836 0 1.8225514-.9270782 3.5186831-2.4651852 4.551111l.0632098-.022123-.1685596.094814-.2528395.158025c-.8111934.516214-1.559177.800659-2.3493004 1.042963-2.2123457.72586-4.1718519 1.064033-6.141893 1.064033-6.7213169-.010535-16.0869136-5.7942387-16.2133334-16.6558025-.0632099-6.131358 3.0130041-11.7148971 8.4279836-15.3073251 6.2367078-4.1191769 17.0139917-5.5203292 27.0116872.6110289 12.304856 7.5325102 15.5180247 22.2804279 12.304856 32.3423867-4.6669959 14.569877-17.7935803 22.355226-35.1236214 20.806584-12.2732511-1.095637-23.6720988-7.57465-30.4566255-17.330041-3.0130042-4.320395-5.2464198-9.1338269-6.4474074-13.9377775-2.77069964-10.9879835.0316049-22.6607407 2.1175308-27.8334156 6.6370371-16.4451029 19.3422222-30.5935803 37.7257613-42.0661729l1.1588478-.7269135c39.1058436-24.03134161 66.7812344-23.0621235 87.0400004-22.35627988 23.894386.83226338 49.377448 9.07061729 52.896131 10.23999998.011589-.7901234.148543-7.91176953.148543-7.91176953l.10535-.24230452.27391-.07374486c1.60237.22123457 35.934815 5.32016461 50.400395 13.74814811 1.789893 1.053498 2.674831 2.1491358 3.782057 3.2869136 3.992758 4.129712 9.281317 21.3333334 9.839671 24.8836214l-.210699.3581893c-.2107.0737449-.705844.4424692-1.369548.8849383-3.371193 2.3598354-11.261893 7.8801646-21.375473 6.9741564-9.091687-.8006585-20.964609-6.0154733-35.281646-15.4442799.633152 1.4854321 3.613498 8.5438683 4.119177 9.734321l.18963.2317696c2.076444 1.0745679 21.966485 11.2092181 31.837761 11.0090535 7.961284-.1580247 16.463012-4.0454321 19.865811-6.0892181zm-9.249712-19.8373663c.274963-8.0908642-6.078684-14.9175309-14.180083-15.2019753-3.919012-.1369547-7.65893 1.2536625-10.523391 3.9295473-2.876049 2.6758848-4.519506 6.3104527-4.656461 10.229465-.263374 8.0908642 6.078684 14.9069959 14.168494 15.2019754 3.940083.1369547 7.669465-1.2536626 10.53498-3.9400824 2.865514-2.6758847 4.508971-6.2999176 4.656461-10.21893z"/><path d="m81.2457613 133.37284c1.3695473-.652116 3.076214-1.453828 5.3306996-1.453828h.6953086c3.9400824 0 6.4895474 2.349301 6.4895474 5.962799v15.823539c0 .957629-.7795885 1.737218-1.7172017 1.737218h-.6742387c-.9586831 0-1.7172016-.779589-1.7172016-1.737218v-15.25465c0-1.432758-1.1693827-2.60214-2.5916049-2.60214h-5.7204939c-1.4327572 0-2.5916049 1.168329-2.5916049 2.60214v15.25465c0 .957629-.7795885 1.737218-1.7172017 1.737218h-.6742386c-.9586832 0-1.7172017-.779589-1.7172017-1.737218v-20.163951c0-.862815.5794239-1.473843 1.3800823-1.473843h.6637037c.6320988 0 1.0956379.273909 1.3484774.811193l.4740741.863868c.2001646.35819.3055144.378206.5688889.378206.5899588 0 1.3168724-.358189 2.1702057-.747983z"/><path d="m69.8995885 137.660576v4.666996c0 1.992165-1.1588478 3.172082-3.076214 3.172082h-11.9782716v3.518683c0 1.737219.9797531 2.64428 2.8444444 2.64428h6.6370371c.990288 0 1.7172016.684774 1.7172016 1.622387v.526749c0 .948148-.7269136 1.632922-1.7172016 1.632922h-8.0908642c-2.9919342 0-5.5203293-2.654815-5.5203293-5.772115v-12.043589c0-3.076214 2.60214-5.561415 5.8047737-5.561415l.010535.02107h7.5535802c3.2026338-.001054 5.8153087 2.506271 5.8153087 5.57195zm-4.1507819 4.256132v-3.739918c0-1.306337-1.011358-2.317695-2.3071605-2.317695h-6.2999177c-1.3063375 0-2.3071605 1.032428-2.3071605 2.317695v3.739918z"/><path d="m29.8561317 149.048889c0 .989234.5478189 1.843621 1.3590123 2.28609l-.9692181 2.137548c-.1790946 0-.3792592.317103-.3792592.611029v10.208395c0 .937613-.7690535 1.717201-1.7172017 1.717201h-.6742387c-.9692181 0-1.7172016-.769053-1.7172016-1.717201v-30.751605c0-.820675.6110288-1.473844 1.3379424-1.473844h.7690535c.6531687 0 1.1799177.504626 1.2958024.768l.5056791 1.000823c.1264197.179095.3476543.284445.5794238.284445l.9586832 2.064856c-.8111935.431934-1.3484774 1.286321-1.3484774 2.287144z"/><path d="m38.410535 131.929547c3.9506173 0 6.4895473 2.348247 6.4895473 5.961745v11.737021c0 3.675654-2.4862551 5.95121-6.4895473 5.95121h-.7058436c-2.2650206 0-3.9716873-.778535-5.3306996-1.401153-.8427984-.38874-1.559177-.705843-2.1280659-.705843l.9692181-2.137548c.3687243.199112.7901235.31605 1.2325926.31605h5.7204939c1.4432921 0 2.5916049-1.169383 2.5916049-2.60214v-10.577119c0-1.454881-1.1377778-2.591605-2.5916049-2.591605h-5.7204939c-.4530041 0-.8744033.114831-1.2431275.304461l-.9586832-2.064856c.5688889 0 1.2852675-.336066 2.1069959-.736396 1.3800823-.653168 3.076214-1.465415 5.3412346-1.465415v.011588z"/><path d="m19.9111111 137.628971v12.13735c0 3.118354-2.5283951 5.657284-5.625679 5.657284h-7.83802469c-3.08674897 0-5.60460906-2.53893-5.60460906-5.657284v-12.13735c0-3.076214 2.60213992-5.561415 5.80477367-5.561415h7.45876538c3.2026338-.001054 5.8047737 2.495736 5.8047737 5.561415zm-4.1297119 11.662222v-11.061728c0-1.285267-1.0851029-2.37037-2.3598354-2.37037h-6.11028808c-1.29580247 0-2.35983539 1.064033-2.35983539 2.37037v11.061728c0 1.327408 1.01135802 2.359836 2.30716049 2.359836h6.16296298c1.3063374 0 2.3598354-1.064033 2.3598354-2.359836z"/></g></svg>