<svg height="256" preserveAspectRatio="xMidYMid" viewBox="0 0 256 256" width="256" xmlns="http://www.w3.org/2000/svg"><path d="m245.23538 153.523831c14.011493-14.011493 14.011043-36.810817-.00045-50.822761-6.787155-6.7876052-15.812057-10.5252954-25.411155-10.5252954-2.279212 0-4.523268.2077747-6.711888.6174648 9.538254-6.5243943 15.719212-17.4954366 15.719212-29.6946479 0-19.8156619-16.12124-35.9369014-35.936902-35.9369014-12.223549 0-23.213521 6.2057465-29.732958 15.776 2.157071-11.3771267-1.226366-23.536676-9.869521-32.1798309-6.787155-6.78760568-15.812056-10.52574652-25.411155-10.52574652-9.599098 0-18.624 3.73814084-25.411155 10.52574652-8.6436052 8.6431549-12.0265911 20.8031549-9.8695207 32.1802816-6.5194366-9.5702535-17.5098591-15.7764507-29.7334084-15.7764507-19.815662 0-35.9369014 16.1212395-35.9369014 35.9369014 0 12.199662 6.180507 23.1702536 15.7187605 29.6941972-2.1886197-.4092394-4.4317746-.6170141-6.7114366-.6170141-9.5990986 0-18.6235493 3.7381409-25.4111549 10.5257464-6.78760565 6.787606-10.5257465 15.812507-10.5257465 25.411155 0 9.599099 3.73814085 18.623549 10.5257465 25.411606 6.7876056 6.787155 15.812507 10.525295 25.4111549 10.525295 2.2792113 0 4.5223662-.207774 6.7114366-.617464-9.5382535 6.524394-15.7187605 17.495436-15.7187605 29.694648 0 19.815662 16.1212394 35.93645 35.9369014 35.93645 12.2235493 0 23.2144225-6.205746 29.7334084-15.776-2.1570704 11.377578 1.2263662 23.537578 9.8695207 32.180733 6.787606 6.787155 15.812507 10.525295 25.411155 10.525295 9.599099 0 18.624-3.73814 25.411155-10.525746 8.643155-8.643155 12.026141-20.803606 9.869071-32.180732 6.519436 9.570253 17.509859 15.77645 29.733408 15.77645 19.815662 0 35.936902-16.120788 35.936902-35.93645 0-12.199212-6.180958-23.170254-15.718761-29.694648 2.18862.40969 4.432225.617464 6.711437.617464 9.599098 0 18.624-3.73814 25.411605-10.525746"/><path d="m234.391437 113.538254c-8.049127-8.048677-21.099268-8.048677-29.148395 0h-42.184112l29.828957-29.8285075c11.382986 0 20.610705-9.2277183 20.610705-20.611155 0-11.3829859-9.227719-20.6111549-20.610705-20.6111549-11.383436 0-20.611155 9.228169-20.611155 20.6111549l-29.828507 29.8289578v-42.1841127c8.048676-8.0491267 8.048676-21.0992676-.00045-29.1483943-8.049127-8.0491268-21.099268-8.0491268-29.148395 0-8.049126 8.0491267-8.049126 21.0992676 0 29.1483943v42.1841127l-29.8285068-29.8289578c0-11.3829859-9.2277183-20.6111549-20.6111549-20.6111549-11.3829859 0-20.6111549 9.228169-20.6111549 20.6111549 0 11.3834367 9.228169 20.611155 20.6111549 20.611155l29.8285071 29.8285075h-42.183662c-8.0495775-8.049127-21.0997183-8.048677-29.1488451.00045s-8.0491268 21.099268 0 29.148395c8.0491268 8.049126 21.0997183 8.049126 29.1488451 0h42.183662l-29.8285071 29.828507c-11.3829859 0-20.6111549 9.227718-20.6111549 20.611155 0 11.382985 9.228169 20.611154 20.6111549 20.611154 11.3834366 0 20.6111549-9.228169 20.6111549-20.611154l29.8285068-29.828507v42.183661c-8.049126 8.049127-8.049126 21.099719 0 29.148846 8.049127 8.049126 21.099719 8.049126 29.148845 0 8.048676-8.049127 8.048676-21.099719 0-29.148846v-42.183661l29.828507 29.828507c0 11.382985 9.227719 20.611154 20.611155 20.611154 11.382986 0 20.610705-9.228169 20.610705-20.611154 0-11.383437-9.227719-20.611155-20.610705-20.611155l-29.828957-29.828507h42.184112c8.049127 8.049126 21.099268 8.049126 29.148395 0 8.049126-8.049127 8.049126-21.099719 0-29.148845" fill="#ffb13b"/></svg>