<svg height="315" preserveAspectRatio="xMidYMid" viewBox="0 0 256 315" width="256" xmlns="http://www.w3.org/2000/svg"><path d="m249.408 62.308c-4.359-14.935-11.258-27.047-20.593-36.309-9.345-9.29-21.224-15.935-35.667-19.955-14.451-4.028-31.733-6.044-51.853-6.044-24.101 0-45.032 3.761-62.729 11.286-17.741 7.532-32.43 19.285-44.067 35.265-11.653 15.991-20.318 36.466-25.982 61.433-5.695 24.967-8.517 54.958-8.517 89.949 0 20.306 1.835 37.773 5.504 52.418 3.67 14.64 9.867 26.753 18.584 36.317 8.673 9.564 20.266 16.629 34.713 21.177s32.467 6.822 53.995 6.822c14.386 0 27.897-1.274 40.598-3.855 12.69-2.564 24.299-6.871 34.835-12.935 10.523-6.08 20.035-14.032 28.523-23.902 8.443-9.855 15.535-22.092 21.277-36.753 5.754-14.645 10.19-31.813 13.31-51.53 3.113-19.718 4.661-42.418 4.661-68.095 0-21.927-2.21-40.353-6.592-55.289" fill="#f55341"/><path d="m192.781 140.689h-32.201l-40.994 32.027-40.894 99.217zm-129.634 31.989h56.22l.219.038 50.472-123.026z" fill="#fff"/></svg>