<svg height="256" preserveAspectRatio="xMidYMid" viewBox="0 0 256 256" width="256" xmlns="http://www.w3.org/2000/svg" xmlns:xlink="http://www.w3.org/1999/xlink"><linearGradient id="a" x1="73.727006%" x2="33.337416%" y1="82.979863%" y2="10.98075%"><stop offset="0" stop-color="#9154ff"/><stop offset=".1989" stop-color="#6974ff"/><stop offset=".4539" stop-color="#3c99ff"/><stop offset=".6817" stop-color="#1bb3ff"/><stop offset=".8715" stop-color="#07c3ff"/><stop offset="1" stop-color="#00c9ff"/></linearGradient><path d="m116.083836 139.91476c-3.663919-3.663919-9.658808-3.663919-13.315983-.008992l-47.8647106 47.869206c-3.6594228 3.659423-3.6594228 9.652065.0067434 13.318231 3.6639184 3.670662 9.6565603 3.670662 13.3159831.011239l47.8692061-47.869206c3.684148-3.688644 3.654927-9.654312-.011239-13.320478m56.912116-56.9121165c-27.218643-27.2163948-71.471134-27.191669-98.6695467.011239l-54.5721534 54.5699055c-3.6661662 3.670662-3.6661662 9.663304-.0067434 13.320479 3.6639184 3.666166 9.6610559 3.666166 13.3249743 0l54.5721534-54.5699058c19.8683278-19.8705757 52.1670048-19.8750713 72.0308368-.0067434 19.868328 19.8660802 19.859337 52.1625092-.006743 72.0308372l-54.572154 54.574401c-3.663918 3.663918-3.663918 9.658808 0 13.324974 3.657175 3.657175 9.652065 3.657175 13.318231-.006743l54.572154-54.572154c27.20066-27.202908 27.227633-71.455399.008991-98.6762895m46.554241-46.5519935c-48.613229-48.6154763-127.6572097-48.5862549-176.2434646 0l-40.56384718 40.566095c-3.65717496 3.6571749-3.65717496 9.6520647 0 13.3114875 3.66391837 3.6639183 9.66105588 3.6639183 13.31823088.0022478l40.5660949-40.5638472c41.260666-41.26066596 108.373311-41.23369233 149.604755 0 41.260666 41.260666 41.233692 108.3688149 0 149.6047549l-40.566095 40.566095c-3.659423 3.657175-3.659423 9.654313.008991 13.320479 3.654928 3.654927 9.652065 3.654927 13.30924 0l40.566095-40.568343c48.586255-48.581759 48.613229-127.6234926 0-176.238969" fill="url(#a)"/></svg>