<svg height="267" preserveAspectRatio="xMidYMid" viewBox="0 0 256 267" width="256" xmlns="http://www.w3.org/2000/svg"><path d="m213.217649 64.4498944-.017603-.0158427-38.930814 14.1686614 7.189069-40.7773688.003521-.0228839-31.791033-26.6755988-.017604-.0158427-38.999464 14.1933056-.022884.0088015-7.19259 40.8002527-31.7206206-26.6139883-.017603-.0158427-38.9994649 14.1933056-.0228839.0088015-7.2066716 40.872425-.0035206.0228839 31.7364637 26.6315913-38.9096896 14.16162-.022884.008802-7.2066716 40.870664-.0052809.022884 31.7927934 26.67736.017603.015842 38.9308132-14.168661-7.1890686 40.775608-.0035206.022884 31.7927936 26.677359.017603.015843 38.999465-14.193306.022884-.008801 7.194349-40.798492 31.718861 26.613988.017603.015843 38.999465-14.193306.022884-.008802 7.206671-40.872425.003521-.022884-31.736464-26.631591 38.90969-14.16162.022884-.008802 7.206671-40.8706643.005281-.0228839zm-92.301375 110.1138586 38.839278-14.136976-7.176747 40.705196zm14.240834-81.7237268-38.8392774 14.1352158 7.1767464-40.7034363zm-77.789454 28.4006938 38.8410379-14.136976-7.1785068 40.705196zm63.383152 53.294868-38.8410377 14.136976 7.1785067-40.705197zm-31.6449279-26.663277 7.1925892-40.800253 38.9308127-14.168661 31.736464 26.629831-7.192589 40.800253-38.930813 14.170421zm77.9355589-28.279233 31.662531 26.568221-38.841038 14.136976zm-31.720621-26.724887 38.841038-14.136976-7.178507 40.705196zm-24.616047-67.4916942 38.930813-14.1704217 31.736464 26.629831-7.194349 40.8002527-38.930814 14.1704217-31.736463-26.629831zm-85.1475113 69.1727815 7.1943495-40.8002527 38.9308132-14.1704217 31.7364636 26.629831-7.1943494 40.8002531-38.9308132 14.170421zm17.331922 108.3253927-31.7364637-26.631591 7.1943495-40.800253 38.9308132-14.170422 31.7364637 26.629831-7.1943495 40.802013zm102.4776733 39.152611-38.930813 14.170422-31.736464-26.629831 7.1943495-40.800253 38.9308135-14.170422 31.736463 26.629831zm85.147512-69.172781-7.19435 40.800252-38.930813 14.168662-31.736464-26.628071 7.19435-40.800253 38.930813-14.170421zm7.211952-40.895309-38.930813 14.170421-31.738224-26.631591 7.194349-40.8002527 38.930814-14.1704217 31.736463 26.629831z" fill="#1a1a1a"/><path d="m238.176954 99.2334388-95.32205-79.9827889c-4.469404-3.7494408-5.052064-10.41217942-1.302623-14.87982293 3.754722-4.46940382 10.41394-5.05030309 14.879823-1.30262262l95.32205 79.98454925c4.469404 3.7494408 5.052064 10.4121794 1.302623 14.8798229-2.089477 2.4890655-5.083749 3.7723245-8.095624 3.7723245-2.395769 0-4.80386-.809738-6.784199-2.4714622z" fill="#649791"/><path d="m104.946825 266.808797c-4.33034 0-8.3913538-2.682698-9.9404186-6.993675-1.9732972-5.488618.8783902-11.538772 6.3670086-13.512069l118.410156-42.558793c5.485097-1.975058 11.538772.876629 13.512069 6.367008 1.973297 5.488618-.87839 11.538772-6.367008 13.512069l-118.410156 42.558793c-1.179402.425993-2.385208.626667-3.571651.626667z" fill="#efc519"/><path d="m11.1192703 188.040616c-.6037832 0-1.21284731-.051049-1.8289526-.160188-5.74738222-1.001611-9.59187924-6.474386-8.58850776-12.220008l21.60769276-123.7597102c1.0033714-5.745622 6.477907-9.590119 12.2200083-8.5885078 5.7473823 1.0033715 9.5918793 6.4743865 8.5885078 12.2200084l-21.6076927 123.7614706c-.8942328 5.133037-5.3548352 8.746935-10.3910558 8.746935z" fill="#a21c3d"/><path d="m64.500393 90.9424219c-.6090641 0-1.2251694-.052809-1.8465556-.1619477-5.7438616-1.0121729-9.5795571-6.4902291-8.5673841-12.235851l7.203151-40.8477809c1.012173-5.7438616 6.4849483-9.5830777 12.2358511-8.5673841 5.7438616 1.012173 9.5795571 6.4902291 8.5673841 12.2358511l-7.203151 40.8477808c-.9030343 5.1242357-5.360116 8.7293318-10.3892955 8.7293318z" fill="#068cba"/><path d="m42.8927003 213.484004c-.6090641 0-1.2251694-.052809-1.8465556-.161948-5.7438616-1.013933-9.5795571-6.491989-8.5673841-12.235851l7.203151-40.84602c1.012173-5.745622 6.4884688-9.572516 12.2358511-8.567384 5.7438616 1.013933 9.5795571 6.491989 8.5673841 12.235851l-7.203151 40.84602c-.9030343 5.124236-5.360116 8.729332-10.3892955 8.729332z" fill="#531210"/><path d="m142.435952 62.5681328c-2.395769 0-4.803861-.8097384-6.784199-2.4714624l-31.77343-26.6597561c-4.4694042-3.7494408-5.0520637-10.4104191-1.302623-14.8798229 3.751201-4.4694038 10.41394-5.0503031 14.879823-1.3026226l31.77519 26.6615164c4.469404 3.7494407 5.052064 10.4104191 1.302623 14.8798229-2.089477 2.4890654-5.083749 3.7723247-8.097384 3.7723247z" fill="#509f4e"/><path d="m237.758002 142.552682c-2.395769 0-4.803861-.811499-6.784199-2.471462l-31.77519-26.661517c-4.469404-3.749441-5.052064-10.412179-1.302623-14.8798227 3.754722-4.4694038 10.41394-5.0503031 14.879823-1.3026226l31.77519 26.6615163c4.469404 3.749441 5.052064 10.41218 1.302623 14.879823-2.089477 2.490826-5.081989 3.774085-8.095624 3.774085z" fill="#106e66"/><path d="m191.583551 197.590248c-4.312737 0-8.363189-2.665096-9.924576-6.951428-1.996181-5.481577.830862-11.544053 6.310679-13.536714l38.976581-14.188024c5.485097-1.996181 11.544053.832622 13.536713 6.310678 1.996181 5.481577-.830862 11.544053-6.310678 13.536714l-38.976581 14.188024c-1.191724.434795-2.411613.64075-3.612138.64075z" fill="#068cba"/><path d="m120.828259 185.111475c-2.395769 0-4.803861-.811498-6.784199-2.469702l-31.7734301-26.661516c-4.4676435-3.751201-5.0503031-10.41218-1.3008623-14.879823 3.7512011-4.469404 10.4139397-5.046783 14.8798229-1.302623l31.7734305 26.661517c4.469403 3.751201 5.052063 10.412179 1.302622 14.879823-2.089477 2.490825-5.083749 3.772324-8.097384 3.772324z" fill="#92beaf"/><path d="m159.820683 170.926971c-.609064 0-1.225169-.052809-1.846555-.161948-5.745622-1.013933-9.579558-6.491989-8.567385-12.235851l7.203151-40.84778c1.013934-5.742102 6.486709-9.583078 12.235851-8.567385 5.745622 1.012173 9.579558 6.49199 8.567385 12.235852l-7.203151 40.84778c-.903035 5.124236-5.358356 8.729332-10.389296 8.729332z" fill="#4b635b"/><path d="m96.2632612 117.605699c-4.3144973 0-8.3649495-2.663336-9.9263364-6.951428-1.9944208-5.481577.830862-11.5422929 6.3124388-13.5367138l38.9783414-14.1862644c5.476296-1.9926605 11.542293.830862 13.534953 6.3124388 1.996181 5.4815768-.830862 11.5422924-6.312439 13.5367134l-38.9765808 14.186264c-1.1917236.433034-2.4116121.63899-3.610377.63899z" fill="#b9bc63"/><path d="m74.6555685 240.149041c-4.3144973 0-8.3649495-2.665095-9.9263364-6.953188-1.9944208-5.479817.830862-11.542293 6.3124388-13.534953l38.9765811-14.188025c5.481577-1.997941 11.544053.830862 13.536713 6.312439 1.994421 5.479816-.830862 11.542292-6.312438 13.534953l-38.9765815 14.188025c-1.1917236.434794-2.4116121.640749-3.610377.640749z" fill="#e38b25"/></svg>