<svg height="221" preserveAspectRatio="xMidYMid" viewBox="0 0 256 221" width="256" xmlns="http://www.w3.org/2000/svg"><path d="m255.644176 164.540226c-.016101-.437937-.035421-.877484-.059572-1.315421-.109485-2.007748-.296252-4.001006-.526491-5.992654s-.502339-3.983296-.78571-5.989434c-.284982-2.007748-.578013-4.028377-.848504-6.077987l-7.498063-60.4659124c-.140075-1.0964528-.336503-2.125283-.586062-3.0848805-.24795-.9628176-.550642-1.8612327-.904856-2.6968553-.355824-.8356227-.759949-1.6100629-1.215597-2.3249309-.457258-.7148679-.961208-1.3701635-1.515069-1.9707169-.573183-.6182642-1.197887-1.1785661-1.870894-1.6792956-.674616-.5023397-1.399144-.9483271-2.171974-1.3379623-.774441-.3912453-1.597183-.7277484-2.466617-1.0127296-.872654-.2849811-1.792-.5152201-2.756427-.6987673-.379975-.0708427-.75995-.1336352-1.139925-.1948176s-.76156-.1175346-1.143145-.1754968c-.383195-.0563522-.764779-.1143145-1.147974-.1754969-.383195-.0595723-.76639-.1223648-1.149585-.1883773-.265661-.0466919-.524881-.0885535-.779271-.1304151-.256-.0386415-.505559-.0740629-.751899-.1046541-.24473-.0338113-.483019-.0595723-.718088-.0853333-.235069-.024151-.465308-.0450818-.690717-.0595724-.909686-.0660126-1.737258-.0692327-2.485937.0064403-.75029.0740629-1.421686.2221887-2.015799.4524276-.597333.230239-1.117384.5458114-1.568201.9515472-.450818.4057359-.830793.9032453-1.143145 1.5037988-.238289.4540377-.436327.9628176-.598943 1.53761-.162617.5715723-.288202 1.2059371-.381585 1.9014843-.090164.6987673-.146516 1.4619371-.170667 2.2927296-.024151.8307924-.016101 1.7308176.022541 2.7016855l3.363421 36.648252s.296252 3.118691.74546 7.861937c.450817 4.743245 1.054591 11.109434 1.669635 17.604427.613434 6.493384 1.239748 13.115573 1.735648 18.390139.495899 5.269736.861383 9.193459.956377 10.288302.138465 1.55693.313962 2.939974.445987 4.149132.132025 1.207547.218969 2.241207.178717 3.107421-.041861.864604-.209308 1.561761-.589283 2.093082-.378365.532931-.970868.900025-1.858012 1.107723-.016101 0-.030592.00483-.046692.00805-.016101.003221-.030591.006441-.046692.008051-.014491.00161-.030591.00322-.045082.00483-.0161.00322-.030591.00483-.045081.00483-.690717.048302-1.247799-.558692-1.693787-1.492528-.445987-.938667-.7841-2.205786-1.03366-3.480956-.24956-1.27356-.412176-2.55517-.51361-3.516378-.099824-.962817-.138465-1.605232-.138465-1.605232-.313963-2.790239-.687497-6.124679-1.107724-9.908327-.420226-3.783648-.883924-8.019724-1.384654-12.603573-.500729-4.587069-1.03688-9.526742-1.595572-14.717585-.558692-5.194062-1.139925-10.642515-1.732428-16.240704-.212528-2.004528-.423446-3.994566-.632755-5.955623-.207698-1.961056-.412176-3.897962-.613434-5.789786-.201257-1.895044-.399295-3.748226-.590893-5.548276-.191597-1.7984407-.378364-3.5437489-.560302-5.2198244-.175496-1.6374339-.437937-3.2056352-.814691-4.686893-.376755-1.484478-.867824-2.8820126-1.500579-4.1765032s-1.407195-2.4891572-2.352302-3.5646792c-.948327-1.0787422-2.067321-2.0367296-3.385962-2.8610818-.144906-.0885535-.289811-.1771069-.437937-.2640503s-.297862-.1738868-.450818-.2592201c-.151346-.0821132-.304302-.1674466-.463698-.2447296-.156176-.0805031-.317182-.1577862-.479799-.2350692-1.073912-.5007295-2.157484-.8984151-3.249107-1.2268679-1.094842-.3284528-2.197735-.5844528-3.305459-.8082516-1.110943-.2205786-2.226717-.4073459-3.34732-.5957232-1.123824-.1867673-2.249258-.3735346-3.376302-.5957233-.328453-.0660126-.653686-.1255849-.974088-.178717-.318793-.0531321-.635975-.101434-.945107-.1432956-.310742-.0418616-.616654-.0788931-.917736-.1078742-.299472-.0289811-.597333-.0547421-.888755-.0708428-1.061031-.0644025-2.05605-.051522-2.985056.0418617-.929007.0966037-1.792.2721006-2.584151.5281006-.795371.2576101-1.52151.5973333-2.175195 1.0207799-.656906.4202264-1.242969.9241761-1.754969 1.511849-.563522.6408051-1.03688 1.381434-1.428126 2.2218868-.388025.8404528-.689107 1.7807296-.901635 2.8208302-.212528 1.0417107-.338113 2.1816352-.370314 3.4213837-.035422 1.2413584.02093 2.5809308.167446 4.0187169.233459 2.278239.455648 4.5532579.664956 6.833107.210918 2.2750186.410566 4.5516476.600554 6.8266666.189987 2.275019.370314 4.550038.544201 6.826667.175497 2.275019.341333 4.548427.502339 6.821836.183548 2.55839.576403 7.061736 1.114164 12.564931.536151 5.499975 1.217208 11.993358 1.973937 18.538264.75512 6.533635 1.587522 13.117183 2.427975 18.802315.840453 5.678691 1.688956 10.460578 2.481107 13.413434.275321 1.02722.512 1.973937.78088 2.993106.267271 1.01917.568353 2.109183.967648 3.432655.400906 1.320251.901635 2.870742 1.571422 4.802817.669786 1.930466 1.507018 4.245736 2.58254 7.092327-.854943-.318792-1.943346-.429887-3.179874-.819522-1.241358-.389635-2.634063-1.057811-4.09117-2.484327-1.463547-1.431346-2.991496-3.630692-4.496905-7.082667-1.510239-3.463245-2.997937-8.187169-4.371321-14.658012-.404126-2.622793-.806642-5.669032-1.201107-9.001862-.396075-3.33766-.787321-6.960302-1.167296-10.742339-.381584-3.782038-.751899-7.717032-1.109333-11.674566-.359044-3.959145-.701987-7.93761-1.03044-11.800151-.106264-1.26712-.212528-2.531019-.315572-3.796529-.103045-1.265509-.206089-2.531018-.309133-3.798138-.103044-1.263899-.204478-2.529409-.304301-3.796528-.103044-1.2639-.202868-2.531019-.305912-3.798139-.185158-2.31205-.373535-4.6241-.565132-6.936151-.193208-2.31366-.386416-4.62571-.590894-6.939371-.201257-2.31205-.412176-4.6257104-.631144-6.9393707-.222189-2.3152705-.452428-4.6289309-.697157-6.9409812-.128805-1.2413585-.288202-2.4118742-.481409-3.5163773-.193208-1.1045032-.418617-2.1462139-.682667-3.121912-.26244-.9789182-.563522-1.8998742-.903245-2.7628679-.341334-.8629937-.722918-1.6728553-1.147975-2.432805l-.020931.0048302c-.663346-1.1801761-1.432956-2.2395975-2.321711-3.2008051-.891974-.9644276-1.904704-1.8290314-3.055899-2.611522-1.152805-.7841006-2.445685-1.4909182-3.891522-2.1333333-1.449057-.6472453-3.054289-1.2349183-4.830189-1.7807296-1.094842-.3348931-2.199346-.6536855-3.308679-.9531572-1.114163-.3043019-2.233157-.587673-3.358591-.8549434-1.128654-.2688805-2.262138-.5168302-3.400453-.7486793-1.139924-.2334591-2.286289-.4492075-3.432654-.6456352-.365484-.0627924-.724528-.1207547-1.078742-.1738868-.355824-.053132-.705208-.1014339-1.051371-.1449056-.346164-.0418617-.685887-.0805032-1.02239-.1127044-.334893-.0338114-.668176-.0627925-.995019-.0853334-2.04156-.1465157-3.896352-.0966037-5.577258.1561761-1.685736.256-3.191144.714868-4.527497 1.3878743-1.337962.6730062-2.503647 1.5601509-3.503497 2.6710943-1.003069 1.1109434-1.840301 2.4456855-2.518138 4.0074465l.00644.0016101c-.322012.7406289-.606993 1.5327799-.856553 2.3780629-.25117.845283-.468528 1.7453082-.650466 2.6968553-.185157.9499371-.333283 1.9546164-.450817 3.0124277-.117535 1.0594214-.202868 2.1719748-.25439 3.3392704-.016101.3445535-.020931.690717-.028981 1.0368805l-.017711 2.3603523c.00161.0225408 0 .0466918 0 .0692327.00966.5796226.027371 1.1592452.049912 1.7356478.022541.5780125.053132 1.1511949.090164 1.7259874.135245 2.1365534.25922 4.2602264.376754 6.374239.115925 2.1124025.225409 4.2151449.330063 6.3130569.104654 2.094691.202868 4.184553.301082 6.269585.096604 2.083421.191597 4.165232.286591 6.245434.122365 2.711345.24312 5.417861.371925 8.127597s.26244 5.424302.407346 8.145308c.144905 2.722617.302691 5.453283.476578 8.19683.173887 2.745158.365484 5.501585.579623 8.278944.243119 3.189534.437937 6.380679.642415 9.568604.204478 3.186314.418616 6.366188.701987 9.538012.283371 3.168604.634365 6.325937 1.114164 9.45912.479799 3.131572 1.086792 6.242213 1.878943 9.320654.814692 3.165383 1.914365 5.939522 3.295799 8.338515 1.376604 2.390944 3.030138 4.403522 4.955774 6.055447 1.917585 1.647094 4.10244 2.933535 6.546515 3.878641 2.431195.940277 5.11517 1.539221 8.045485 1.819372.838842.078893 1.616503.141685 2.357132.186767.739019.041861 1.442616.067623 2.130113.075673.685887.00644 1.357283-.00644 2.035119-.035422.677837-.027371 1.360504-.077283 2.072151-.143295.701988-.066013 1.431346-.148126 2.207397-.24956.77605-.099824 1.598792-.218968 2.489157-.355824.888754-.136855 1.843522-.289811 2.885232-.463698 1.040101-.172277 2.167145-.360654 3.398843-.568352 3.516378-.592503 6.747774-1.114164 9.795623-1.597183 3.025308-.479798 5.870289-.922566 8.633157-1.357283 2.745157-.433106 5.408201-.859773 8.084126-1.310591 2.659824-.447597 5.330918-.919346 8.103446-1.441006 4.001007-.753509 7.964982-1.476428 11.891925-2.178415 3.886692-.695547 7.739572-1.374994 11.552201-2.05444 3.775598-.673007 7.515774-1.344403 11.218918-2.03351 3.666114-.681056 7.296806-1.379824 10.890466-2.107572 2.400604-.487849 4.477585-1.292881 6.250264-2.413484 1.764629-1.115774 3.226566-2.54551 4.406742-4.289208 1.175346-1.737258 2.068931-3.788478 2.698466-6.158491.626314-2.363572.986968-5.045937 1.098062-8.047094zm-135.726692-116.8567543c1.220428 2.3909434 2.822441 4.5790189 4.691724 6.4531321 1.861232 1.8676729 3.984905 3.4213836 6.256704 4.5532578 2.260528 1.1270441 4.665962 1.8354717 7.106818 2.0174088 2.427974.1819371 4.661132-.1722767 6.627018-.9644276 1.953007-.7889309 3.641963-2.0109686 4.986365-3.5775598 1.339573-1.5585409 2.342642-3.4584151 2.927095-5.6110692.586062-2.1462138.758339-4.5468176.437937-7.1116478-.318793-2.5680503-1.099673-5.0636478-2.241208-7.3805283-1.144755-2.3265408-2.653384-4.4759748-4.422843-6.3420377-1.779119-1.8741132-3.823899-3.4664654-6.032905-4.6611321-2.218667-1.2011069-4.60639-2.0061383-7.055296-2.2943396-2.463396-.2898113-4.754516-.0322013-6.789635.6874969-2.04317.7213081-3.8239 1.9047044-5.256855 3.4648553-1.436177 1.5633711-2.514919 3.5002767-3.152504 5.7173333-.637585 2.2218868-.830792 4.7158743-.489459 7.3901887.341334 2.6743145 1.181786 5.2665157 2.407044 7.6590692zm56.978516 14.5292075c.972478 2.0061384 2.246038 3.8351699 3.730516 5.3969309 1.478037 1.5569308 3.165383 2.8465912 4.971874 3.7788176 1.79844.9273962 3.711195 1.4989685 5.654541 1.6245534 1.933685.1239749 3.714415-.2028679 5.277786-.9016352 1.556931-.690717 2.901333-1.7533585 3.972025-3.0993711 1.067472-1.3460125 1.862843-2.9737861 2.328151-4.8108679.463698-1.8338616.595723-3.8802516.334893-6.0570566-.26244-2.1800251-.893585-4.2940377-1.809711-6.2454339-.920956-1.9610567-2.131723-3.762717-3.550188-5.3212579-1.424906-1.5633711-3.05751-2.8787925-4.820529-3.8593208-1.771069-.9789182-3.672553-1.6181132-5.619119-1.819371-1.957836-.204478-3.777208.0547421-5.388881.6987673-1.618113.6472452-3.026918 1.6792956-4.155572 3.0236981-1.133484 1.3492327-1.981987 3.0043773-2.479497 4.891371-.499119 1.8886038-.644025 4.0026164-.367094 6.2599246.276931 2.252478.946717 4.4325031 1.920805 6.4402515zm40.557484-5.3502389c.829183 1.79361 1.915975 3.4342641 3.179874 4.8382389 1.26068 1.4023648 2.698466 2.5632202 4.239296 3.4085032 1.53278.8388428 3.165384 1.3621132 4.822138 1.4893082 1.647095.1255849 3.163774-.152956 4.496906-.76639 1.328302-.6086037 2.476277-1.5504905 3.387572-2.7499874.908076-1.1930566 1.585912-2.6485535 1.980378-4.2908176.391245-1.6406541.500729-3.4712956.2721-5.4243019-.227018-1.9546163-.77122-3.8496604-1.560151-5.606239-.78893-1.7581887-1.827421-3.3779119-3.041408-4.7786666-1.218818-1.4039749-2.616353-2.5889812-4.121761-3.4696856-1.511849-.8839245-3.134793-1.4619371-4.794768-1.6487044-1.669635-.1883773-3.216905.0370315-4.587069.6069937-1.373383.5715724-2.56805 1.4909183-3.524427 2.687195-.957988 1.1994968-1.676076 2.6743145-2.093082 4.3552201-.420227 1.6841258-.537761 3.5711195-.299472 5.5836981.238289 2.0157988.811472 3.9655849 1.643874 5.7656353z" fill="#4badfc"/><path d="m106.334994 208.256654c-.370315-.162616-.660126-.280151-.914516-.386415-.25761-.103044-.478189-.191597-.711648-.288201s-.479799-.201258-.7841-.341334c-.041862-.01932-.217359-.098213-.457258-.202868-.2399-.104654-.547422-.239899-.853334-.375144-.307522-.135245-.613434-.270491-.856553-.376755-.239899-.106264-.415396-.181937-.457258-.199648-2.2524779-.943497-4.1958239-1.999698-5.8590188-3.257157-1.6696352-1.263899-3.0558994-2.730667-4.1845535-4.482415-1.1334843-1.758189-2.0093585-3.804579-2.6582138-6.224503-.6488554-2.426365-1.0706918-5.223044-1.2961006-8.478591-.1094843-2.171975-.2093082-4.3359-.3043019-6.493384s-.1867673-4.308528-.2704906-6.451522c-.0853333-2.142994-.1658365-4.281157-.2431195-6.40966-.077283-2.128504-.1513459-4.248956-.2237987-6.362969-.1062642-3.089711-.2076982-6.158491-.3091321-9.21117-.0998239-3.051069-.2028679-6.084427-.305912-9.096855-.1062641-3.012428-.2141383-6.003925-.3300629-8.976101-.1159245-2.968956-.2398993-5.916981-.3767547-8.842465-.1046541-1.518289-.0901635-2.766088.0611824-3.785258.152956-1.01756.4443774-1.806491.8935849-2.403824.4475975-.597333 1.0529812-1.004679 1.8354717-1.257459.7792705-.25439 1.7340378-.354214 2.8771824-.344553.1078742 0 .2157484.00161.3252327.00483.1110944.00322.2221887.00644.3365032.01127.1127044.00322.2286289.009661.3445534.014491.1191447.00805.2366793.0161.357434.024151.5039497.033811 1.0095094.053132 1.5134591.067622.5023396.014491 1.0062893.024151 1.5086289.028981.5007296.008051 1.0030692.019321 1.5021887.035422.4991195.017711.9966289.041861 1.4925283.080503.0547421.00483.1078742.00805.1593962.00966.0547422.004831.1062642.008051.1610063.009661.051522.00161.1046541.00161.1561761.00322.0531321.00322.1030441.00322.1561761.00322.8887547.00805 1.7082767-.119145 2.4553457-.375145.745459-.25761 1.418466-.642415 2.015799-1.152805.595723-.50717 1.117384-1.138314 1.560151-1.888603.441157-.74707.805031-1.614894 1.085182-2.592202.270491-.945107.442768-1.870893.51361-2.775748.070843-.904856.038642-1.78878-.099824-2.648554-.138465-.858163-.384805-1.697006-.740628-2.511698-.355824-.814692-.824353-1.6036224-1.408805-2.3651821-.061183-.0805032-.125585-.1626164-.188378-.2431195-.066012-.0821132-.130415-.1610063-.198038-.2415095-.066012-.0805031-.135245-.1610063-.204478-.2415094-.069232-.077283-.140075-.1577862-.212528-.2382893-.663346-.7148679-1.350843-1.3202516-2.06088-1.8386918-.711648-.5168302-1.449057-.945107-2.2073966-1.2993208-.7599497-.3558239-1.5440503-.640805-2.3506918-.8678239-.8098617-.2334591-1.6406541-.410566-2.4955975-.5506415-2.4972076-.4153962-4.4341132-.8034214-5.9346918-1.3460126-1.5070189-.5442012-2.5712705-1.2429685-3.3247799-2.2766289-.7551195-1.0384906-1.1962767-2.4086541-1.4571069-4.2956478-.2608302-1.8902138-.3413334-4.2940377-.3767547-7.398239-.0032202-.2769308-.0064403-.5538616-.0096604-.8324025-.0016101-.2785409-.0048302-.5554717-.0080503-.8356227-.0016101-.2785408-.0048302-.5586918-.0080503-.8356226-.0048302-.2785409-.0080504-.5570818-.0144906-.8372327-.0225409-.9370566-.0869434-1.8612327-.1915975-2.7741384-.1046541-.9096855-.2495597-1.8097107-.434717-2.688805-.1835471-.8807044-.4057358-1.7453082-.666566-2.5873711-.2608302-.8485031-.5586918-1.6712453-.8919749-2.4746666-.5731823-1.3782139-1.254239-2.6888051-2.0351195-3.9221132-.7841006-1.2333082-1.6696352-2.3877233-2.6533836-3.4471447-.9821384-1.0626415-2.0641006-2.0302893-3.2362264-2.8852327-1.176956-.8613837-2.4440755-1.6068428-3.7997484-2.2299371-2.1961258-1.0111195-4.4196227-1.9465661-6.6704906-2.8015094-2.2637484-.8565535-4.5516478-1.6277736-6.8685283-2.3007799-2.3313711-.6762264-4.6917233-1.2558491-7.0794466-1.7195472-2.4022138-.4701384-4.8350188-.8227421-7.296805-1.0545912-.2737107-.0241509-.5458113-.0483019-.8211321-.0708428-.2737107-.0225408-.5474213-.0418616-.8227421-.0627924-.2753208-.0177107-.5506415-.0354214-.8259623-.051522-.2753207-.0161006-.5522515-.0289812-.8275723-.0434717-.7213082-.0354214-1.4249057-.024151-2.1124025.025761-.692327.0547421-1.3653333.1449056-2.022239.2801509-.6569057.1320252-1.2961006.307522-1.9175849.5184403-.6198742.2125283-1.2220377.4653082-1.8016604.7502893-.5442012.2688805-1.0690817.5699623-1.5730314.9000251-.5055598.3332831-.9885786.6955472-1.4506667 1.0884026-.4636981.3928553-.9032453.8146918-1.3202516 1.2671195-.4170063.4492075-.8098616.9306163-1.178566 1.4361761-.4958994.6858868-.946717 1.4184654-1.3476226 2.1977358-.4009057.7808805-.7535095 1.6052327-1.0513711 2.4698365-.2978617.8678239-.5409811 1.7758994-.7261384 2.7242264-.1867673.946717-.3155723 1.9320755-.3799748 2.9512453-.0660126.9885786-.1143145 1.9852075-.1513459 2.9802264-.0370315.9934088-.0644026 1.9916478-.0869434 2.9882767-.0225409.998239-.0418617 1.996478-.0611824 2.9963271-.0209308.9966289-.0434717 1.9948679-.075673 2.9914968-.0305912.9531573-.0579622 1.8000503-.0949937 2.5567799-.0386415.7567296-.0837233 1.4216855-.1497358 2.0029182-.0660126.5828428-.1513459 1.0851824-.2672705 1.5134592-.1143144.4314968-.2608302.7905408-.4459874 1.0900125-.2415094.3864151-.5490314.6746164-.9515472.8855346-.4009056.2125283-.8919748.3493837-1.5037987.4314969-.6102138.0837233-1.3379623.1143145-2.2041761.1175346-.869434 0-1.8821635-.0289812-3.0591195-.0660126-.9515472-.0289811-1.867673.0483019-2.74193712.2221887-.87587421.1771069-1.70827673.4492075-2.49076729.8082516-.78249057.3622641-1.51345912.8114717-2.18324528 1.3395723-.66978617.5281006-1.27838994 1.1350943-1.81615095 1.8113207-.24633962.307522-.47657861.6295346-.69071698.9644277-.21413836.3365032-.41378616.6842767-.59572327 1.0417107-.18354717.3622641-.34938365.7357987-.4991195 1.1189937-.14812578.384805-.281761.7776604-.39607547 1.1833962-.0998239.3622642-.18676729.7325787-.25922012 1.1093334s-.1304151.7615597-.17227673 1.1511949c-.02093082.1948176-.02415095.3944654-.03864151.5925032l-.00966038 1.8403019c.11431447 1.8290314.52005031 3.558239 1.19949686 5.147371.67783647 1.5859119 1.62938364 3.0269179 2.83049056 4.2795469 1.19949686 1.247799 2.64533333 2.30722 4.31979874 3.136403 1.66802514.825962 3.55823904 1.418465 5.65132074 1.740478 1.3878742.214138 2.5261887.549031 3.456805 1.015949.9273963.468529 1.6454843 1.069082 2.1896856 1.822592.5425912.748679.9112956 1.645484 1.1415346 2.704905.2286289 1.062642.3171824 2.28629.2994717 3.687044-.0483019 3.696705-.0933837 7.398239-.1304151 11.099774-.0386415 3.704755-.0708428 7.409509-.0949937 11.115874-.024151 3.709585-.0402516 7.41917-.0483019 11.128755-.0096604 3.712805-.0080503 7.42722.0048302 11.140025.0032201 1.03044.0080503 2.060881.0128805 3.089711.0048302 1.03044.0096604 2.06088.0144905 3.08971.0064403 1.030441.0144906 2.059271.0209309 3.091321.0080503 1.02883.0161006 2.057661.025761 3.088101.027371 2.627622.1207547 5.245585.2978616 7.847446.1754969 2.601862.436327 5.187623.7985912 7.747623.3622641 2.55517.8259623 5.086189 1.4120252 7.583396.5828427 2.492378 1.2880503 4.949334 2.1285031 7.362818.6794465 1.946566 1.5054088 3.704755 2.4714465 5.282616.9644277 1.573032 2.0705409 2.964126 3.3102893 4.189384 1.2381384 1.218817 2.609912 2.271799 4.1104906 3.163773 1.4957484.891975 3.1203019 1.624554 4.864 2.210617 1.408805.474968 2.8256604.843673 4.248956 1.117383 1.4152453.272101 2.8369308.449208 4.2634465.545812 1.4184654.096604 2.841761.112704 4.2618365.062792 1.4184654-.049912 2.8369308-.169056 4.2521761-.339723.0064403-.00161.0112704-.00161.0177107-.00322l.077283-.009661c.0080503 0 .0128805-.00161.0193208-.00161.0193207-.00322.0386415-.00644.0579622-.00805.0193208-.00161.0386415-.00483.0563522-.00805.4781887-.059573.9531573-.125585 1.4297359-.198038.4749685-.072453.9499371-.149736 1.4249056-.230239.4749686-.083723.946717-.170667 1.4200755-.26244.4733585-.091774.9451069-.189988 1.4184654-.289812 3.3891824-.719698 6.7493837-1.458717 10.0838239-2.209006 3.3086793-.742239 6.5932076-1.497358 9.8584151-2.257308 3.2394466-.751899 6.4595723-1.510239 9.6668176-2.268579 3.1814843-.750289 6.3500881-1.497358 9.5090313-2.239597.450818-.106264.901635-.210918 1.350843-.317183.449207-.106264.896805-.209308 1.344402-.315572.449208-.103044.896805-.209308 1.344403-.312352l1.339572-.313962c-.576402-.267271-1.02722-.470139-1.397534-.629535zm-67.6484028-179.7007295c1.3041509 2.1800252 2.8659119 4.171673 4.6176604 5.8541887 1.7453081 1.6744654 3.6773836 3.0397987 5.7269937 3.9800755.4685283.2141383.9354465.4057358 1.4023648.5747924.4669182.1706667.9306163.3187925 1.3943144.4459875.4620881.1255849.920956.231849 1.3766038.3171823.4572579.0853334.9096855.1481258 1.3588931.1915975 1.5665912.1545661 3.0832704.0644025 4.5097861-.2415094 1.4232956-.307522 2.7564277-.8307925 3.9607548-1.5456604 1.2027169-.7116478 2.278239-1.613283 3.1879245-2.6823648.9064654-1.0658616 1.6519245-2.2975597 2.1929057-3.6709434.0161006-.0466918.0322012-.0901635.0483018-.1336352.0161007-.0434717.0322013-.0869434.0466919-.1320251.0144905-.0434717.0305912-.0869434.0450817-.1320252.0144906-.0434717.0305912-.0853333.0450818-.1320252.0096604-.0289811.0209308-.0579622.0305912-.0853333.0112704-.0289811.0225409-.0563522.0322012-.0869434.0096604-.0289811.0209309-.0579622.0322013-.0869434.0096604-.027371.0209308-.0563522.0305912-.0853333.1127044-.3542138.2125283-.7196981.2994717-1.0900126.0853333-.3719245.1593962-.7502893.2157484-1.1367044.0595723-.3880251.103044-.7841006.1336352-1.1866163.0289812-.4041258.0466919-.8130818.0466919-1.2300881.0032201-.640805-.0177107-1.2735597-.0563522-1.9030943s-.0982139-1.2510189-.1754969-1.8692831c-.0788931-.616654-.1771069-1.230088-.2946415-1.8354717-.1159245-.6053836-.2511698-1.204327-.4041258-1.7952201-.4975094-1.9191949-1.1850063-3.7594968-2.0447799-5.4854843-.8629937-1.7292075-1.8982641-3.3489308-3.0897107-4.82213832-1.1946666-1.47803773-2.5455094-2.81277987-4.0380377-3.96880503-1.4957484-1.16246541-3.1331824-2.14460377-4.8929811-2.91743396-.3526038-.15295598-.7068176-.29464151-1.0610315-.42344654-.3558239-.12880503-.7100377-.24472956-1.0658616-.34777359-.3558239-.10304402-.7100377-.18998742-1.0642516-.26727044-.3542138-.07567295-.7084277-.14007547-1.0594214-.19159748-.845283-.12236478-1.6825157-.17066667-2.5052578-.15295598-.8243522.02093082-1.6326038.10948428-2.4183145.26566038-.7873207.15456604-1.5504906.37675472-2.2862893.66012579-.7341887.28498113-1.4377862.63275471-2.1043522 1.0368805-.0563522.03220126-.1110943.0692327-.1674465.0998239-.0547422.03542138-.1110944.0692327-.1642265.10465409-.0547421.03381132-.1094842.07084276-.1626163.10626415-.0531321.03703144-.1062642.07245283-.1577862.10948427-.1078742.07245283-.2141383.14973585-.3187924.22701887s-.2093082.15778617-.3123522.23667925c-.101434.08050314-.2028679.16100629-.3026918.24472956s-.1980378.1690566-.2946416.25438993c-.1465157.13202516-.2914213.26727044-.4314968.40412579s-.2769308.27854088-.4121761.42344654c-.1336352.1432956-.2640503.28820126-.3912453.43954717-.127195.14973585-.2511698.30269183-.3719245.45886793-.0805032.10465408-.1610063.21091824-.2382893.31879245-.0788931.10465409-.1561761.2125283-.230239.3252327-.075673.11109434-.1497359.22218868-.2205786.33489309-.0708428.1127044-.1416856.2254088-.2093082.34133333-.2382893.40573585-.4572579.82757233-.6536856 1.26550943-.1980377.43632705-.3735345.89036478-.5264905 1.35728302-.152956.4669182-.2833711.9499371-.3880252 1.4474465-.1046541.4975095-.1867673 1.0062894-.2398993 1.5311699-.0161007.1577861-.0305912.3155723-.0418617.4765786-.0112704.1593962-.0225409.3171824-.0322012.4781886-.0080504.1610063-.0144906.3220126-.0193208.4830189-.0064402.1593962-.0096604.3220126-.0128805.4830189-.0241509 2.4279748.3542138 4.9235723 1.0674717 7.3644277.7100377 2.4360251 1.7533585 4.8076478 3.0591195 6.9957232z" fill="#6ee549"/></svg>