<svg height="219" preserveAspectRatio="xMidYMid" viewBox="0 0 256 219" width="256" xmlns="http://www.w3.org/2000/svg"><path d="m256 7.569-113.115 52.883 3.073 1.243 107.024 14.285 3.018-.513z" fill="#c5cf21"/><path d="m256 75.467-113.115-15.015 1.891 2.78 55.969 42.391 2.612.297z" fill="#70b540"/><path d="m203.357 105.92-60.472-45.468.44 4.024 42.495 129.038 2.95 2.312z" fill="#006d69"/><path d="m188.77 195.826-60.773 22.952 14.888-158.326z" fill="#008ca9"/><path d="m127.982 38.006.311-.596.07-22.053-.381-.489-90.772-14.868 1.582 1.402 85.818 35.563z" fill="#70b540"/><path d="m0 7.569 113.115 52.883-3.073 1.243-107.024 14.285-3.018-.513z" fill="#008ca9"/><path d="m127.982 38.006v-23.138l90.808-14.868-1.582 1.402-85.818 35.563z" fill="#006d69"/><path d="m127.854 38.006-90.644-38.006-37.21 7.569z" fill="#c5cf21"/><path d="m0 75.467 113.115-15.015-1.891 2.78-55.969 42.391-2.612.297z" fill="#006d69"/><path d="m52.643 105.92 60.472-45.468-.44 4.024-42.495 129.038-2.951 2.312z" fill="#c5cf21"/><path d="m67.229 195.826 60.768 22.952-14.882-158.326z" fill="#70b540"/><path d="m128.146 38.006 90.644-38.006 37.21 7.569z" fill="#008ca9"/></svg>