<svg height="307" preserveAspectRatio="xMidYMid" viewBox="0 0 256 307" width="256" xmlns="http://www.w3.org/2000/svg"><g fill="#c00000"><path d="m26.4093561 241.05844c11.4712677 13.600282 31.0531222 26.865273 43.4116831 21.860399 12.3591706-5.002706 17.36775-41.591916 12.9385859-46.464931-4.429164-4.873016-28.0956841-44.525159-46.5015093-38.793308-18.4057344 5.731591-21.3200274 49.797559-9.8487597 63.39784z"/><path d="m30.9136655 140.047477c11.229341 18.672973 44.5540333 42.253829 65.9710919 33.868947 21.4167806-8.385038 6.7632326-37.77772-5.1038764-57.24106-1.7141037-2.811092-2.4512282-14.641934-10.0627273-24.7736044-7.6114991-10.1316705-19.6902621-16.717053-28.8304265-13.656653-25.9178088 8.6777653-33.4453294 48.2020894-21.9740617 61.8023704z"/><path d="m127.12069 132.183371c11.471207 13.600065 13.734419 27.564094 31.479274 26.884221s31.355848-42.794823 30.861984-59.8459128c-.49408-17.0510291-16.801965-55.5571666-45.58268-47.3923658-28.780993 8.1646448-29.894198 43.0334555-16.758578 80.3540576z"/><path d="m197.259881 185.862996c3.18601 16.763599 16.487949 28.457865 36.237856 23.04333 19.749432-5.412062 24.930034-56.229467 20.499569-61.102117-4.428296-4.87326-13.264876-30.344922-31.671629-24.613044-18.405608 5.73179-32.09202 41.14926-25.065796 62.671831z"/><path d="m96.0676019 303.560093c26.8097281 10.632245 36.1587351-17.220789 65.7550241-25.405928 29.596507-8.1852 54.947305 5.178442 63.530885-21.083509 11.001209-33.659638-15.998187-28.610067-37.657726-43.541252-21.659722-14.931836-16.109749-32.029652-49.569442-23.973704-36.075684 8.685891-17.793934 44.788295-31.800302 57.996512-20.3369698 19.179345-26.7975554 49.447098-10.2584391 56.007881z"/><path d="m1.66749887 166.619745c2.3145405 6.363965 13.36658153 12.543042 19.08274453 10.01801s5.4729691-9.074726 2.8096627-17.094659c-2.6632454-8.019717-15.37419296-18.130561-19.79802557-16.329681-4.42391527 1.80067-4.40892129 17.042365-2.09438166 23.40633z"/><path d="m28.4483856 62.6554474c2.3145011 6.363976 5.4549454 17.6922916 14.423717 14.2528039 8.9687105-3.4397045 11.7411241-9.6670151 9.0778177-17.6869488-2.6635232-8.0198727-13.5106037-19.8244487-17.9344356-18.0237325-4.4238258 1.800738-7.8816001 15.0939015-5.5670991 21.4578774z"/><path d="m129.079265 27.3437219c2.314501 6.3639759 14.043939 17.0324956 19.760015 14.5074877 5.716016-2.5252247 8.590592-14.6311201 5.927285-22.6510538-2.663493-8.0197643-14.899675-20.60390202-19.323503-18.8031695-4.423827 1.8007326-8.67831 20.5827162-6.363797 26.9467356z"/><path d="m215.147974 106.688478c2.314501 6.363976 6.404061 12.745562 12.120571 10.220433 5.715365-2.525042 12.197512-8.040368 9.535507-16.060668-2.664174-8.0196895-8.918885-26.3802877-13.344904-24.5790268-4.423789 1.8008681-10.625675 24.0552858-8.311174 30.4192618z"/></g></svg>