<svg height="274" preserveAspectRatio="xMidYMid" viewBox="0 0 256 274" width="256" xmlns="http://www.w3.org/2000/svg"><path d="m242.346667 60.3733333c-3.413334-1.7066666-11.093334-5.12-19.626667-10.24-9.386667-5.12-23.893333 3.4133334-33.28 17.92l-16.213333 27.3066667c-5.973334 11.946667-5.12 24.746667 2.56 35.84l.853333.853333c7.68 11.093334 17.92 20.48 20.48 23.893334 1.706667 1.706666 3.413333 5.12 4.266667 7.68 2.56 10.24-2.56 19.626666-12.8 22.186666-9.386667 2.56-19.626667-3.413333-23.04-12.8-.853334-2.56-.853334-5.12-.853334-7.68.853334-4.266666-.853333-11.093333-6.826666-16.213333-5.973334-6.826667-17.92 5.973333-21.333334 17.92v.853333c-3.413333 12.8-5.973333 23.04-5.12 23.893334 0 .853333.853334 1.706666.853334 1.706666 5.12 10.24 1.706666 22.186667-8.533334 27.306667s-23.04 1.706667-28.1599997-8.533333c-5.12-10.24-1.7066666-22.186667 8.5333337-27.306667.853333 0 .853333-.853333 1.706666-.853333.853334 0 2.56-5.973334 5.12-11.946667 1.706667-5.973333 3.413334-11.093333 3.413334-11.093333 0-.853334 0-1.706667.853333-1.706667l10.24-35.84-10.24 21.333333c-1.706667-4.266666-3.413333-4.266666-8.533333-.853333-2.56 1.706667-7.6800003 5.973333-9.386667 7.68-4.2666667 3.413333-7.68 9.386667-9.3866667 12.8-.8533333 2.56-2.56 4.266667-4.2666666 5.973333-7.68 6.826667-19.6266667 5.12-25.6-2.56-5.9733334-7.68-4.2666667-17.92 3.4133333-23.893333 2.56-1.706667 5.12-3.413333 7.68-3.413333 4.2666667-.853334 20.48-11.093334 29.8666667-17.066667 1.7066663-.853333 3.4133333-2.56 4.2666663-3.413333l24.746667-17.92-22.186667 11.946666h-5.12c-6.8266663.853334-15.3599997 1.706667-17.0666663 4.266667-.8533334.853333-1.7066667 2.56-3.4133334 3.413333-6.8266666 3.413334-17.0666666 1.706667-23.04-5.12-5.12-7.68-3.4133333-17.0666663 3.4133334-22.1866663 4.2666666-2.56 7.68-3.4133334 11.0933333-3.4133334 5.9733333 0 21.3333333 3.4133334 34.133333.8533334l3.413334-.8533334c12.8-2.56 28.16-12.8 34.133333-24.7466666 0 0 5.973333-11.0933334 13.653333-23.04 7.68-12.8 6.826667-26.4533334-.853333-31.5733334l-14.506667-8.5333333c-7.68-4.26666667-19.626666-4.26666667-27.306666 0l-100.6933337 55.4666667c-7.67999997 4.2666666-13.6533333 15.36-13.6533333 23.8933333v109.226667c0 8.533333 5.97333333 17.92 13.6533333 22.186666l101.5466667 56.32c7.68 4.266667 19.626667 4.266667 27.306667 0l99.84-57.173333c7.68-4.266667 13.653333-13.653333 13.653333-22.186667v-108.373333c0-8.5333333-5.973333-17.92-13.653333-22.1866667z" fill="#5fcf80"/></svg>