<svg height="171" viewBox="0 0 256 171" width="256" xmlns="http://www.w3.org/2000/svg"><path d="m51.1945879 55.3560586c-.0060007 25.1038446 0 50.2106894-.0020002 75.3165344.0190021 2.009228.0860097 4.036457.539061 6.00268.2510285 1.018116.6050686 2.055233 1.3051479 2.860324.6680757.765087 1.6371856 1.187135 2.6052953 1.429162 1.4311621.356041 2.91233.417048 4.3814964.434049 2.8283205-.027003 5.6716427-.120013 8.4639591-.609069-1.509171-7.323829-1.209137-14.82968-1.2241387-22.258522 10.0261361-.002 20.0522722-.002 30.0784084 0 .0250028 2.781315-.0090011 5.565631.0170019 8.347946.0840095 3.947448.4130468 8.002907 1.9952261 11.670323 1.0291169 2.425274 2.8563239 4.535514 5.2275919 5.726649 3.209364 1.641186 6.897782 1.966222 10.449184 1.960222 4.076462-.068008 8.331945-.658075 11.839342-2.881327 2.663302-1.642186 4.514512-4.392498 5.315602-7.389837.8831-3.327377.961109-6.874779.250029-10.243161-.744085-3.521399-2.857324-6.70876-5.801658-8.775994-3.008341-2.223252-6.681757-3.147357-10.136148-4.422502-4.293487-1.511171-8.585973-3.022342-12.88146-4.533513-4.4074994-1.580179-8.9030088-2.960336-13.1204867-5.02457-5.9076694-2.819319-11.4272949-6.7927693-15.1747195-12.2343859-4.0824626-5.8046578-5.8806664-12.8994617-6.3927244-19.8962546-.3730423-5.1635851-.291033-10.4031788.8070915-15.4807542-6.1797003 0-12.3614008-.0020002-18.541101.0020003m52.8329871-1.2271391c-2.586293 2.3362648-3.598408 5.9146702-3.70342 9.2990537-.074008 2.9763373.118013 6.1606981 1.770201 8.7389903 1.265143 1.9552216 3.227365 3.3173759 5.226592 4.4385029 2.926331 1.6021816 6.055686 2.7843155 9.190041 3.9034424 4.223479 1.465166 8.446957 2.9293319 12.671436 4.3944979 3.964449 1.3951581 7.987905 2.6553009 11.806338 4.4285018 6.046685 2.7433109 11.744331 6.5667441 15.849796 11.8553435-.004001-8.9700165-.002-17.9410331 0-26.9110495-8.960015-.0270031-17.91703.0490056-26.875045.0150017-.065008-3.7644266.192021-7.5478553-.290033-11.2932797-.462053-3.4753938-1.608183-7.1068053-4.297487-9.5090775-2.749312-2.4302754-6.586747-3.0583466-10.140149-2.965336-3.950448.0950107-8.179927.8831-11.20827 3.6054085m-85.8747312-54.12413305c11.0122478-.0080009 22.0254958-.00400045 33.0377436-.00200022.0040005 9.72010143 0 19.44120297.0020003 29.16130437 7.1998158.0040005 14.4016319-.0020002 21.6014477.0020003.0040005 5.8106584-.0040004 11.6243172.0040005 17.4369758 2.9523345-5.8386616 7.7248753-10.6752096 13.3985182-13.9025753 7.8378882-4.509511 16.9329189-6.2947133 25.8759319-6.7777681 8.792997-.4380496 17.807018.1310149 26.142963 3.159358 6.373722 2.3012608 12.230386 6.2937132 16.228839 11.8153389.8851 1.1991359 1.68019 2.462279 2.396271 3.768427-.008001-5.1655853-.002-10.3331709-.002-15.4997563 11.008247-.0040005 22.016495.0020002 33.024742-.0020003.032004 32.7087064.002 65.419413.015002 98.1281194.057006 3.385384.345039 6.87978 1.806204 9.984131.889101 1.928219 2.428276 3.557403 4.352494 4.474507 2.392271 1.159132 5.087576 1.460166 7.713874 1.534174 4.206476.116013 8.545968-.8851 12.00036-3.363381 3.473393-2.443277 5.733649-6.367721 6.493735-10.509191.584067-2.845322.43905-5.759652.456052-8.644979.002-30.5344604-.005-61.0679202.004001-91.6013801 11.010247-.0020003 22.022495-.0020003 33.032743 0 .002 46.1392282.002 92.2774561 0 138.4156841-10.529193.009001-21.059387.003001-31.58658.003001-.007-3.183361.008001-6.367722-.007-9.550082-4.594521 4.933559-10.481188 8.621977-16.881913 10.717214-4.786543 1.583179-9.843116 2.29526-14.877686 2.20725-7.383837-.028003-15.082709-1.442163-21.1824-5.832661-5.656641-3.991452-9.333058-10.228159-11.339285-16.752898-2.980338 5.871665-7.633865 10.841228-13.187495 14.356627-6.836774 4.373495-14.810678 6.679757-22.817585 7.656867-5.2946.647074-10.650207.709081-15.97181.409047-6.651754-.413047-13.3475126-1.530174-19.5002098-4.179474-5.03057-2.153244-9.6150895-5.456618-12.963469-9.811112-.9741103-1.247141-1.8422087-2.571291-2.6282978-3.941446.0040005 4.4135 0 8.829.0020003 13.2445-5.9356726 1.731197-12.0963707 2.544289-18.2630695 2.81632-3.8504363.158018-7.7118739.234026-11.56031-.025003-3.8364347-.285033-7.7038729-.953108-11.2232717-2.563291-3.1213537-1.429162-5.8826666-3.667415-7.8548901-6.487735-2.1312415-3.00134-3.4293886-6.509737-4.2554822-10.076142-1.0861231-4.736536-1.4181607-9.611089-1.4861684-14.458638-.0020003-26.65302.0040004-53.3050402-.0020003-79.9580604-6.0486854-.0060007-12.09837088 0-18.14705629-.0020003-.00400045-8.7299892-.00600068-17.4599784 0-26.1879674 6.04868541-.0040005 12.09837089.0020002 18.14705629-.0020003.0040005-9.7201014.0020003-19.44120294.0020003-29.15930415zm138.6892512-.00478645h99.157905c0 7.19366583-.001998 14.3853337 0 21.5770016-33.052302.0039959-66.105603.0019979-99.159903.0019979.003996-7.1936658 0-14.38533367.001998-21.5789995z" fill="#5cd39b" fill-rule="evenodd"/></svg>