<svg height="275" preserveAspectRatio="xMidYMid" viewBox="0 0 256 275" width="256" xmlns="http://www.w3.org/2000/svg"><path d="m0 108.687749c0-2.374751 1.92153654-4.296288 4.29859978-4.296288h121.67650322c21.950838 0 39.811185 17.79329 39.811185 39.667821v35.339161c0 2.384-1.935411 4.312474-4.314786 4.312474-.071682 0-.166487 0-.252043.011561l-121.5631996-.011561c-21.8606575 0-39.6562594-17.788665-39.6562594-39.670133zm216.843201-4.320799h34.865136c2.367814 0 4.291663 1.933099 4.291663 4.2986v35.364597c0 21.872219-17.779416 39.656259-39.653947 39.656259l-34.774956-.006937c-2.47418 0-4.404966-1.889164-4.404966-4.28935v-35.350723c0-21.879156 17.802539-39.672446 39.67707-39.672446zm-55.372624 90.746009h-70.2343574c-2.3724386 0-4.2985998 1.933098-4.2985998 4.298599v70.719944c0 2.411748 1.9446597 4.291663 4.4119034 4.291663l34.7633938.006937c21.872219 0 39.672446-17.788665 39.672446-39.663196v-35.355348c0-2.365501-1.933098-4.298599-4.314786-4.298599zm10.082401-149.9140725c0 24.9637887-20.23741 45.2011988-45.201199 45.2011988-24.961476 0-45.198886-20.2374101-45.198886-45.2011988 0-24.9614764 20.23741-45.1988865 45.198886-45.1988865 24.963789 0 45.201199 20.2374101 45.201199 45.1988865z" fill="#29b4a7"/></svg>