<svg height="175" preserveAspectRatio="xMidYMid" viewBox="0 0 256 175" width="256" xmlns="http://www.w3.org/2000/svg"><path d="m214.049913 72.4514895c.596951-3.4680065.970046-7.017739.970046-10.6598565 0-34.1257529-27.584154-61.791633-61.613968-61.791633-24.276046 0-45.215557 14.1278628-55.2535885 34.6089998-6.474086-2.96344-13.644616-4.6548039-21.23088-4.6548039-28.3303446 0-51.2952282 23.0323961-51.2952282 51.4515726 0 4.8893205.7248703 9.608084 1.9898399 14.09233-16.0324238 5.3654605-27.6161342 20.5273295-27.6161342 38.4323345 0 5.96952 1.3147156 11.619244 3.63145768 16.721762l70.90581032-71.1296675-11.9177195-11.5197515 44.5581985-6.857841-6.950226 43.20795-11.3243205-10.9441185-72.7002191 72.9134165c6.7512423 5.091858 15.1192294 8.14413 24.2120868 8.14413h12.8699998l110.603114-110.947783-11.917719-11.5197515 44.558199-6.8578408-6.950226 43.2079503-11.327874-10.944119-96.7595145 97.061544h46.4982925l54.763235-54.933792-11.917719-11.512645 44.558199-6.85784-6.950227 43.20795-11.324321-10.944119-40.916081 41.040446h48.502346c28.333897 0 51.295228-23.035949 51.295228-51.451572 0-25.2141135-18.096882-46.157178-41.964301-50.5632515" fill="#0096e5"/></svg>