<svg height="256" preserveAspectRatio="xMidYMid" viewBox="0 0 256 256" width="256" xmlns="http://www.w3.org/2000/svg"><path d="m239.483871.82580645-74.322581 38.81290325v123.0451613c0 4.954839 0 10.735484-1.651613 15.690323-.825806 4.954838-2.477419 9.909677-4.129032 14.038709-.825806.825807-.825806 2.47742-1.651613 3.303226-2.477419 0-20.645161-5.780645-28.903226-11.56129-3.303225-2.47742-6.606451-4.954839-9.909677-8.258065s-5.780645-6.606451-8.258064-9.909677c-2.47742-3.303226-4.954839-7.432258-6.606452-11.561291-1.651613-4.129032-3.303226-8.258064-4.1290324-13.212903-.8258064-4.129032-.8258064-9.083871-.8258064-13.212903v-118.09032258l-16.516129-9.90967742-82.5806452 48.7225806v113.1354844c0 52.025806 42.116129 94.141935 93.316129 94.141935 17.341936 0 33.032258-4.129032 47.070968-12.387097l69.367742-39.638709c27.251613-14.03871 46.245161-42.941936 46.245161-75.148388v-118.0903221zm-91.664516 215.53548355c-7.432258 7.432258-13.212903 11.561291-21.470968 15.690323-4.954839 1.651613-10.735484 4.129032-15.690322 5.780645-4.954839.825807-9.909678 1.651613-14.8645166 1.651613-4.9548387 0-13.2129032-.825806-18.1677419-1.651613-4.9548388-.825806-9.9096775-2.477419-14.0387097-4.129032-4.1290323-1.651613-9.083871-4.129032-13.2129033-7.432258-10.7354838-7.432258-15.6903225-14.03871-20.6451612-20.645162-2.4774194-4.129032-4.9548388-8.258064-7.4322581-13.212903-1.6516129-4.954838-3.3032258-9.083871-4.1290323-14.038709-1.6516129-5.780646-1.6516129-11.561291-1.6516129-16.516129v-103.2258069l66.0645162-38.8129033v108.1806452c0 41.290323 30.5548388 75.148387 69.3677418 83.406452-1.651613 1.651613-2.477419 3.303225-4.129032 4.954838zm90.83871-74.32258c-.825807 4.129032-2.47742 8.258064-4.129033 12.387096-1.651613 4.129033-4.954838 9.909678-8.258064 14.03871-4.954839 5.780645-9.909678 9.909678-22.296774 17.341936-10.735484 5.780645-19.819355 7.432258-25.6 9.083871 4.129032-9.909678 4.129032-20.645162 4.129032-32.206452l-.825807-113.1354839 57.806452-30.5548387v109.8322576c0 4.129033 0 9.083871-.825806 13.212904z" fill="#02b3e4"/></svg>