<svg height="256" preserveAspectRatio="xMidYMid" viewBox="0 0 256 256" width="256" xmlns="http://www.w3.org/2000/svg"><path d="m128.000675 0c-70.6950012 0-128.000675 57.3073274-128.000675 128.000002 0 70.692676 57.3056738 128.000003 128.000675 128.000003 70.695001 0 127.999325-57.307327 127.999325-128.000003 0-70.6926746-57.304324-128.000002-127.999325-128.000002zm-35.3907093 218.026018c1.4150882-9.111704 2.7653633-17.486154 4.0278705-25.21517-28.1910428-14.129353-46.0565322-42.577099-41.4993539-75.45242 6.2180167-44.6497816 40.5973701-67.5478674 83.8318277-63.6523032 3.278468-4.64092 6.876951-9.0941507 10.973685-13.4029013 7.292836-8.1543543 18.140946-8.4109079 13.262402 1.2517116-9.834053 18.6082392-13.720145 32.6565754-22.166116 55.2170906-8.417614 23.9945153-21.428865 59.2125753-38.750193 121.0473993-1.253056 5.663084-10.1284137 4.759745-9.6801223.206593zm108.3177153-81.995887c-5.621195 42.63246-45.469162 66.826817-85.080832 62.649044 2.874736-9.720682 4.237163-13.866048 7.569642-21.701736 2.514212-4.522095 11.92698-6.369281 19.236019-9.476281 14.847625-5.336315 26.249347-18.587985 28.403036-35.31123 1.516359-11.856828-1.947097-23.218102-8.73628-31.998988-4.747567-6.024959-9.222378-9.6761221-7.693867-15.331104 2.248208-7.6358459 3.973859-13.3029804 8.166463-22.8980858 26.026552 13.9794718 42.251458 43.0145898 38.135819 74.0683808zm-115.8860071-14.850404c-1.4690993 11.404484 1.6365334 22.290459 7.8626517 30.876903 4.1493953 5.542909 7.3279424 8.774134 8.8848104 11.318066 5.128344-27.776656 8.830798-42.145009 13.763353-58.266028 2.211751-6.7338573 5.875047-16.1790814 8.526987-22.6104756-3.162344 1.0586213-7.649308 2.2360674-11.313954 3.6700671-14.5154574 5.4429876-25.6106676 18.5582785-27.7238481 35.0114675z" fill="#278cc0"/></svg>