<svg height="108" preserveAspectRatio="xMidYMid" viewBox="0 0 512 108" width="512" xmlns="http://www.w3.org/2000/svg" xmlns:xlink="http://www.w3.org/1999/xlink"><linearGradient id="a" x1="50.116458%" x2="50.116458%" y1="-.093457%" y2="84.061104%"><stop offset="0" stop-color="#487bf6"/><stop offset="1" stop-color="#0093cb"/></linearGradient><path d="m0 68.7188624v-47.5344884c0-1.5063747 1.17162471-2.6779994 2.67799935-2.6779994h14.05949655c1.5063746 0 2.6779994 1.1716247 2.6779994 2.6779994v47.0323635c0 14.2268715 7.1971232 21.7587447 18.9133703 21.7587447 11.7162472 0 18.9133704-7.1971233 18.9133704-21.0892449v-47.7018633c0-1.5063747 1.1716247-2.6779994 2.6779994-2.6779994h14.0594965c1.5063747 0 2.6779994 1.1716247 2.6779994 2.6779994v46.8649885c0 26.6126185-14.8963714 39.6678655-38.4962406 39.6678655-23.7672442 0-38.1614907-13.2226219-38.1614907-38.9983656zm98.249101-47.5344884c0-1.5063747 1.1716247-2.6779994 2.677999-2.6779994h33.307617c20.92187 0 33.642367 12.385747 33.642367 30.2948676v.33475c0 20.25237-15.733246 30.7969924-35.483491 30.7969924h-14.728997v23.7672444c0 1.506374-1.171624 2.677999-2.677999 2.677999h-14.059497c-1.5063743 0-2.677999-1.171625-2.677999-2.677999zm34.479242 41.6763648c9.707747 0 15.231121-5.6907486 15.231121-13.2226218v-.1673749c0-8.7034979-6.025499-13.2226218-15.733246-13.2226218h-12.385747c-1.506375 0-2.678 1.1716247-2.678 2.6779993v21.5913698c0 1.5063746 1.171625 2.6779993 2.678 2.6779993h12.887872zm48.036613-.167375v-.3347499c0-24.9388689 18.745995-45.3586139 45.860739-45.3586139 15.398496 0 23.599869 5.0212488 31.968617 11.2141223 1.171625.8368748 1.339 2.5106243.502125 3.6822491l-7.866623 11.2141222c-.836875 1.1716247-2.510625 1.3389997-3.682249.6694999-6.694999-4.5191239-13.222622-8.8708729-21.25662-8.8708729-14.728997 0-25.440994 12.218372-25.440994 27.2821184v.6694998c0 15.0637463 12.218372 27.9516182 27.282118 27.2821183 8.201373-.3347499 13.557372-2.8453743 19.080746-8.201373 1.004249-1.0042497 2.510624-1.0042497 3.514874-.1673749l9.372997 8.201373c1.00425 1.0042497 1.171625 2.6779993.167375 3.6822491-8.033998 9.0382477-18.745995 14.2268717-34.646616 14.2268717-25.608369 0-44.856489-20.0849953-44.856489-45.1912392zm181.601831 28.1189932 9.205622-8.7034979c1.00425-1.0042498 2.678-.8368748 3.682249 0 6.694999 6.3602485 14.394247 8.368748 23.59987 8.368748 7.866623 0 12.720497-3.1801243 12.720497-8.201373v-.33475c0-4.8538738-3.01275-7.3644982-17.741746-11.2141222-17.741746-4.5191239-29.123243-9.3729977-29.123243-26.7799935v-.3347499c0-15.9006211 12.720497-26.4452435 30.796992-26.4452435 11.883623 0 22.093495 3.5148741 30.629618 9.5403726 1.171625.8368748 1.339 2.5106244.6695 3.6822491l-7.197123 10.3772475c-.836875 1.1716247-2.34325 1.3389997-3.514875.6694998-7.029748-4.5191239-13.892121-7.1971232-20.754495-7.1971232-7.364498 0-11.214122 3.3474992-11.214122 7.6992481v.3347499c0 5.6907486 3.682249 7.6992481 18.913371 11.5488722 17.741745 4.6864989 27.784243 11.0467473 27.784243 26.2778686v.3347499c0 17.4069958-13.222622 27.2821185-32.303367 27.2821185-12.385747 0-26.779994-3.514874-35.985617-12.887872-1.338999-1.3389997-1.338999-3.0127493-.167374-4.016999zm82.683229-69.627983c0-1.5063747 1.171625-2.6779994 2.678-2.6779994h60.924485c1.506374 0 2.677999 1.1716247 2.677999 2.6779994v11.8836221c0 1.5063746-1.171625 2.6779993-2.677999 2.6779993h-41.84374c-1.506375 0-2.677999 1.1716247-2.677999 2.6779994v12.5531219c0 1.5063746 1.171624 2.6779994 2.677999 2.6779994h36.152991c1.506375 0 2.678 1.1716247 2.678 2.6779993v11.8836221c0 1.5063746-1.171625 2.6779993-2.678 2.6779993h-36.152991c-1.506375 0-2.677999 1.1716248-2.677999 2.6779994v13.2226218c0 1.5063746 1.171624 2.6779993 2.677999 2.6779993h42.51324c1.506374 0 2.677999 1.1716247 2.677999 2.6779994v11.8836223c0 1.506374-1.171625 2.677999-2.677999 2.677999h-61.593985c-1.506375 0-2.678-1.171625-2.678-2.677999z" fill="#5f5f5f"/><path d="m307.526601 1.73421956c-9.691894 14.03653564-37.263661 54.64222794-46.120046 68.51166204-1.169711 1.6710161-.668407 4.0104387.835508 5.3472516 2.172321 1.6710162 5.18015 4.0104388 7.352471 5.8485565 1.671016 1.1697113 3.843337 1.1697113 5.514353-.1671016 15.874654-13.7023324 19.049584-16.2088566 28.741478-25.0652422 3.843337-3.5091339 9.691894-3.5091339 13.535231 0 12.699723 11.3629098 18.381177 15.7075518 28.908579 25.2323438 1.503915 1.336813 3.843337 1.5039146 5.347252.1671017 2.339422-1.8381178 5.514353-4.1775404 7.686674-5.8485566 1.671016-1.3368129 2.005219-3.5091339.835508-5.3472516-9.023487-14.0365357-36.428152-54.4751264-46.120046-68.51166203-1.336812-2.50652422-4.845946-2.50652422-6.516962-.16710161z" fill="url(#a)"/></svg>