<svg height="256" preserveAspectRatio="xMidYMid" viewBox="0 0 256 256" width="256" xmlns="http://www.w3.org/2000/svg"><path d="m31.2255415 127.833082-.2930284.362509c.0096379-.014219.0930836-.035685.2401636-.104496.0375873-.154648.0508421-.242782.0528648-.258013" fill="#0097e8"/><path d="m29.5175265 138.068084s-.0141119.001225-.0129934.004474c-.0098863.319516-.0000683.654049-.006492.994175.1082069-.044526.2057645-.067217.3043335-.097524z" fill="#0097e8"/><path d="m119.561371 206.170251c-.010542.032698-.017729.075141-.017729.075141l.080934-.16594c-.015016.019704-.047285.052616-.063205.090799" fill="#0097e8"/><path d="m120.450124 206.503721-.068155.139739.051331-.083077z" fill="#0097e8"/><path d="m122.476163 202.626807-.05985.100544c.022524-.029556.042811-.06561.05985-.100544" fill="#0097e8"/><path d="m123.227273 203.214779-.012886.015338.003248-.001119s.005379-.005485.009638-.014219" fill="#0097e8"/><path d="m123.227273 203.214779-.004259.008734.012993-.004474z" fill="#0097e8"/><path d="m187.409775 176.983707s-.002022.01523.004474.012993c.035946.009424.04468.013683.077378.024226z" fill="#0097e8"/><path d="m172.334128 7.89125595-.081423.00623532-.157253.02871238-.818859.14388335-.673466.344531c-2.141601 1.08259256-21.222015 11.5475948-30.526989 44.873088-6.890417 24.6675826-86.4004405 60.729092-113.675048 71.40311l-2.7460205 1.047268-.5188776 3.020044c-.1593316.91963-.566707 3.788643-.7550925 7.821267-6.0136194 2.637478-10.2577706 6.889368-12.3148092 12.470157-.26877709.728406-.50464211 1.489081-.69795716 2.267807-2.05486064 8.225211.26032521 18.684544 6.41541986 28.519318 7.0846545 11.33144 18.7233275 10.942868 25.8643771 8.603912 1.9206537 1.631391 3.9437074 3.180287 6.1188379 4.506046l.0568761.038551 1.970043 1.131132 1.9229755-.556763s17.2007496-5.076092 17.7727804-5.240357c.9196643-.167693 5.8467244-.832308 9.6005018 1.817486 2.7834205 1.973809 4.5082183 5.558413 5.1212413 10.65221 2.2863954 18.99702 1.0459356 25.524754 1.0213416 25.674928-.026141.103472-.057446.234156-.057446.234156l-.0249625.22297c-.1468609 1.082476-1.2708289 10.829329 4.495911 17.309685 2.1841431 2.459934 6.2349259 5.370809 13.1348699 5.244091l.165083-.005974 22.970055-2.081125.182336-.019182s3.170042-1.567518 3.178668-1.574122c.52046-.54619 2.9785-3.252902 4.541606-7.250193l-.269575.757748c.443498-.748599 2.752833-4.763028 4.097948-10.153185 1.128478-4.552532 1.576808-10.098986-.367708-15.47191-1.781323-4.909528-5.230832-8.765034-10.243829-11.526266.213294-.625732.45167-1.241933.609313-1.892104 1.379561-5.532823.903774-11.473239-3.545146-15.645914l-1.492382-1.390074c-5.873716-5.429781-7.806511-7.961727-7.299825-10.014701.017515-.096868.094939-.17803.122306-.267389.750202-.385487 1.562443-.759635 2.46527-1.092304l.758781-.286703s.115393-.086969.209167-.162859c2.238528-.948828 20.401153-7.42073 63.567503 11.438215 4.035518 3.235877 24.209214 18.359263 42.595234 13.718015 9.682369-2.440071 16.981399-9.691384 21.676369-21.550767.69314-1.764728 1.29372-3.661091 1.801739-5.68909 3.814554-15.313248 2.418998-38.392192-4.044328-64.718561-7.136973-29.0847669-19.398749-56.8445735-32.784085-74.2654106-12.477255-16.2292545-26.072642-23.99265006-39.341472-22.43961245" fill="#fff"/><g fill="#f8941e"><path d="m164.136013 147.939662c-.465054-.88631-.892354-1.800155-1.334777-2.705159-2.033121-4.332307-4.121336-9.183399-6.150095-14.505515-5.952144-16.13607-9.243217-31.6877946-10.302575-37.2019959-1.537013-8.7797351-2.54595-18.1046488-2.75426-27.8796478 0 0-8.190014 56.2648777 32.53736 103.3382537 0 0-5.605887-7.79656-12.162296-21.308302.105983.170615.166643.262366.166643.262366"/><path d="m182.600155 18.3634377s-32.335864-6.8951876-14.313863 81.7658203c0 0 23.325824 100.750977 65.457215 75.038329 0 0-29.92268 23.856078-56.104097-39.918404-26.182643-63.7885948-20.305956-122.392622 4.960745-116.8857453"/><path d="m210.052586 85.4282236-2.194174-.0620178-41.794993 4.7406524.112792.9712692 41.148298-4.6560492c.395-.4884568.856895-.8037397 1.389839-.965446.428996-.1259144.891813.7538995 1.367632.8589393z"/><path d="m182.276684 141.22461 33.945721-24.529161c-2.969167-1.088685-6.498809-6.569832-8.643828-13.875763-1.925841-6.5638678-2.164358-12.902096-.60534-15.7716019.142011-.2523728.296217-.4798773.457349-.6661647l-39.624059 4.4291571-1.278757.0006604c2.737092 15.6734391 7.579518 32.9764481 15.611472 50.4674651z"/><path d="m207.807841 87.5092037c-1.452526 2.6511636-1.188572 8.7044884.685176 15.0537513 2.367445 8.046876 6.107729 13.073978 8.53575 13.382489.236975.012873.457388-.001252.666507-.058724.478841-.139443.89765-.527094 1.239284-1.138881 1.445921-2.65979 1.172222-8.709759-.699288-15.0525251-1.85415-6.3451099-4.895717-11.5800981-7.544751-13.0369903-.527591-.2870545-1.010121-.4115844-1.446257-.3486142-.066086.0191216-.138775.0296166-.208109.0498567-.473354.1448217-.891153.5248573-1.228312 1.1496376"/><path d="m210.652799 86.3588326s-1.777696-.2453911-4.901635.158074l.718-1.0066244s2.7143-.7384006 4.665221.3266459z"/><path d="m211.731938 113.267409 4.951523 4.239424 1.710213-.868651s-5.041208-2.537144-6.661736-3.370773"/><path d="m206.973237 87.0480841c-1.559018 2.8695059-1.320501 9.2077341.60534 15.7716019 2.145019 7.305931 5.674661 12.787078 8.643828 13.875763l.804721-.585934.001641-.164071c-2.428021-.308511-6.168305-5.335613-8.53575-13.382489-1.873748-6.3492629-2.137702-12.4025877-.685176-15.0537513.337159-.6247803.754958-1.0048159 1.228312-1.1496376.069334-.0202401.142023-.0307351.208109-.0498567l-.017635-.1356336-1.796041.2078436c-.161132.1862874-.315338.4137919-.457349.6661647"/><path d="m182.363811 142.237418 35.219584-25.35657-.01097-.010756c-.434006.058603-.896403-.007456-1.36312-.181033l-34.397611 24.757429z"/><path d="m205.705169 87.6918234-38.860757 4.0500598 1.974872 10.8744578 34.67444-3.4079609s4.588692 11.1843949 8.218112 15.4357719c0 0-7.735465-13.316503-6.006667-26.9523286"/><path d="m228.999357 78.0468264c.149664.4135517.306944.8281147.459856 1.2405479.417782 1.1605648.829067 2.3233666 1.233856 3.4884054.154352.4482721.31419.9019225.468543 1.3501947.391581 1.1477856.771287 2.3032937 1.152111 3.46205.1502.4678694.304767.9378687.451718 1.4068566.366498 1.1382549.714518 2.2756056 1.066904 3.4150862.15164.5037083.302162 1.0041684.453801 1.5078767.330445 1.1179678.653275 2.2349242.967478 3.3584844.143121.5211758.293856 1.0433629.439107 1.5601718.300995 1.1063071.593257 2.2083549.886638 3.3136499.138967.540773.276817 1.078298.409288 1.621308.277936 1.081546.546126 2.166447.806702 3.250338.133697.557121.263027 1.112113.393475 1.670354.245131 1.06014.479398 2.120388.711535 3.185002.126189.566974.244763 1.132937.365466 1.694533.217811 1.044112.430137 2.082847.634848 3.12057.112184.579064.22112 1.159245.326807 1.740545.191396 1.009607.376295 2.021451.548094 3.026905.101427.590034.19524 1.179056.297679 1.761475.15859.988201.314944 1.969905.462565 2.94735.088434.594508.167016 1.181508.249965 1.770637.139898.96557.268825 1.920383.389019 2.870937.073096.581621.134211 1.160102.199692 1.740712.11359.941927.215198 1.880713.305835 2.808742.055629.573103.104655 1.137578.157035 1.711799.076311.907528.155978 1.824801.219188 2.725939.04141.563465.064235 1.115161.099041 1.669999.05224.890382.104479 1.780764.142393 2.650645.019469.541951.027967 1.073146.043069 1.612968.025931.866739.051756 1.722615.054627 2.564593.00951.52358-.004041 1.022399-.005502 1.535222-.00911.838837-.011617 1.686301-.033935 2.507885-.018131.474962-.047341.928303-.065579 1.392402-.036323.833673-.070409 1.673843-.127662 2.478388-.031768.414254-.076743.811256-.109629 1.222262-.071151.827498-.140064 1.661492-.233156 2.467477-.04024.326335-.093688.635417-.136165.955255-.107786.85828-.21994 1.71443-.360638 2.540441-.028747.169771-.066334.324419-.092951.489823-.370945 2.046203-.819007 3.984521-1.361866 5.784707-.186878.660238-.42861 1.266693-.649519 1.891414-.115381.308606-.21308.647458-.331816.946319-2.396924 6.039369-5.514442 10.619123-9.291418 13.76908-.168057.14507-.328285.312879-.500708.455819-.272802.210205-.568877.373921-.843915.577628-.547043.38457-1.083007.79076-1.652313 1.121226-.090739.053045-.191438.087718-.287556.146248-.776878.434641-1.564941.836798-2.387356 1.170847-.912143.379479-1.859757.687601-2.835119.936241-17.248134 4.347546-37.973917-12.885733-38.171175-13.057621l-.047131-.041907-.051284-.02231-.027319-.016027c-1.121744-.493055-2.206101-.940847-3.291684-1.40275-24.46287-10.369108-40.889011-12.677718-50.466671-12.729932-5.323779-.012683-9.12886.618051-11.667856 1.28519-2.378709.61558-3.668397 1.270397-4.000097 1.45728l-.029236.010067-.001011.007615-.003248.001118c-.0606.0245-.118963.055496-.179564.079996-1.70048.643658-3.231773 1.367132-4.552338 2.196088-.82496.516599-1.539738 1.078829-2.221711 1.662465-2.557599 2.195971-4.119878 4.844958-4.582356 7.965486-1.194892 8.06354 5.105504 16.547498 8.734357 19.309343 5.113285 3.89668 4.129071 9.416912 3.970369 10.180086.015921-.038183.04819-.071095.063206-.0908l-.081946.173555s.008198-.050058.01874-.082755c-.024654.033923-.06938.125627-.101435.180266l-.004367-.00213c-.00852.017468-.017039.034935-.031044.047024l.005486.005378c-.319324.560504-.923131 1.909323-.634434 3.971836.098239.707403.342071 1.415543.615246 2.124481l-.00426.008733c.006711.01949.018907.044359.025618.063849.131447.328987.296603.660902.469374.993827.302671.615211.649915 1.233241 1.100416 1.855686l.008734.00426c1.345113 1.880433 3.259818 3.790016 5.79183 5.719586 3.160101 2.381862 4.877078 5.173428 5.127227 8.284755.031653.345182-.040167.664223-.047709 1.0011-.004259.008734-.009531.025083-.01379.033817-.038843 1.459498-.307474 2.863681-.779753 4.109076l-.012779.026201.37587.215758-.408936-.153503c-1.093861 2.774742-2.817371 4.828852-3.256944 5.314489l-4.307161.396665-18.339332 1.663886c-3.7802985.059012-6.7216708-1.075578-8.7517958-3.341468-4.1571777-4.665546-3.1274755-12.733974-3.1174691-12.82099.1547635-.721849 1.4757291-7.458978-.9323599-27.55864-.8237334-6.73988-3.333021-11.653093-7.4960091-14.594369-3.8918151-2.765771-8.3175628-3.156706-11.1728062-3.049236-1.7137742.066879-2.8640712.313986-2.9974678.338117l-15.347108 4.53957-2.2619223.669838c-1.7118162-1.05654-3.29402-2.19041-4.7541192-3.391759-.1412861-.114858-.2663305-.235308-.4076166-.350166-.5532695-.467154-1.0979125-.940911-1.6209355-1.425746-.3311432-.307462-.6417849-.62925-.9566864-.942304-12.1491873-12.047446-14.6909202-29.063504-14.8447884-40.368775-.0056313-.681155-.0076928-1.330838-.0009135-1.965397.002914-.255347.0081721-.493334.013323-.742184.0059952-.38358.0152387-.768278.0279448-1.132367.0103149-.276062.0196185-.54451.028922-.812957.0164902-.31089.0309577-.60655.0421768-.901092.0137775-.255453.0318148-.519641.0445809-.76748.0136704-.266317.0373001-.514263.0533147-.763221.0390014-.562084.0838095-1.0862.1280349-1.559246.0068652-.075033.0136233-.16093.021607-.232716.0276751-.278406.0534347-.530719.0814313-.776535.006758-.085897.0177758-.180528.0321491-.265413.0249625-.222971.0479023-.430711.0731862-.621091.0079837-.071785.0149561-.135955.0219284-.200125.051472-.399238.0994344-.713698.1268481-.908445 2.7543257-1.086462 28.4240816-11.335058 54.7850661-25.084525 14.0150436-7.3001656 25.7054695-14.2286509 35.0508825-20.7602667 15.578972-10.8835237 24.633755-20.6651345 27.020946-29.2336855 8.68274-31.0910272 26.29338-40.6538962 27.553833-41.2986469-.003248.0011185-.006496.002237-.010863.0001071l.003248-.0011185s.007615.0010114.010864-.0001071l-.003249.0011185c1.350054-.1523816 2.712256-.1745077 4.086394-.0881056.464205.0291021.92815.1418642 1.391558.2003086.907219.1127363 1.81545.2178573 2.729119.4337436.594628.1440671 1.199858.371687 1.799282.5613381.780272.2400176 1.554952.4637934 2.335975.7798558.676325.2758094 1.355637.6341604 2.032498.9642876.703062.3429063 1.404899.6717007 2.106367 1.0732915.727669.41437 1.451721.9026549 2.180033 1.3822061.653968.4324802 1.311078.8529784 1.96883 1.3386578.754037.5542632 1.498972 1.1770632 2.253652 1.7965077.630969.5239697 1.257571 1.0458095 1.885719 1.6143518.755323.6846258 1.507934 1.4246878 2.263899 2.1744948.627673.6304753 1.256465 1.2641989 1.884567 1.9381283.733548.7902271 1.46204 1.6185302 2.187498 2.4696789.926607 1.0870996 1.858593 2.1687139 2.773171 3.3580594.077009.0970219.152792.179932.226553.2780724 3.302823 4.2947966 6.472014 9.1406599 9.468104 14.391307.03973.0626229.07946.1252457.109445.191224.690918 1.2045889 1.361441 2.4343674 2.03106 3.6826247.073071.1383462.153757.2777038.231195.4181799.62664 1.186753 1.246998 2.39747 1.866345 3.6158022.106411.2140696.219319.4259022.326849.6432202.586328 1.1751994 1.162006 2.3722331 1.733425 3.5780005.126544.2725399.2541.5374646.383892.808886.54937 1.173391 1.086973 2.3653679 1.619197 3.5628301.141084.3147685.283181.6219217.425384.9399385.515768 1.1813276 1.022909 2.3692591 1.523661 3.5702911.146785.3418737.290321.684866.433857 1.0278582.488555 1.1761637.962095 2.3720318 1.434516 3.5646515.148224.3777127.298578.7510586.446803 1.1287713.454846 1.1732367.896699 2.3509475 1.337541 3.5362735zm-110.014676 126.9340066c5.122699 1.876858 8.668642 4.714487 10.625312 8.455428.179756.490393 1.768951 5.527846-2.273146 12.751384-.920672-1.58693-2.244353-3.056893-4.011143-4.399717-6.169492-4.684811-7.653222-8.39239-7.747459-10.787105zm-1.773567-18.00362 1.480399 1.386933c.385997.361244.699518.754709.979438 1.156112.384394 1.190228.667576 4.566326-4.49641 10.621033-.676913-1.216678-1.649271-2.426097-3.070116-3.50289-3.375944-2.565517-9.495109-10.850267-8.369096-18.406837.462048-3.163982 2.091746-5.807115 4.883393-7.956504-2.698961 6.259639 3.26364 11.77872 8.592392 16.702153zm-98.1840441-10.531857c-5.7956076-9.297262-7.7649767-18.952766-5.2154794-25.825867 1.7874646-4.823041 5.7008586-8.241613 11.6260144-10.154636.0019555 3.392995.2112013 7.314138.8389743 11.479954 1.3134593 8.805842 4.7696304 20.056816 13.217738 29.069341.2722443.28414.5023673.593685.7854752.877718-1.9532562.901469-14.1627969 5.868581-21.2527225-5.44651zm196.5395961-150.6953517c-17.724855-23.05913861-34.573667-26.36312338-45.565747-25.07807977l-2.489272.42110791-1.5675.79771038c-3.945908 1.9945438-24.157601 13.75381228-34.040725 49.15688668-4.907062 17.5643029-66.781596 50.1077615-109.507918 66.8325605l-6.4001388 2.443554-1.1913402 6.881436c-.0698436.409198-.3392589 2.064361-.5722476 4.658952-5.76770452 3.446638-9.93790189 8.367058-12.16851708 14.414564-.35881368.962883-.66186972 1.961069-.91364211 2.981565-2.52417355 10.101811.1191049 22.432051 7.25110478 33.827126 7.66202111 12.259015 19.93897871 14.568346 30.07790361 12.48339 1.3836729 1.053258 2.6898012 1.955176 3.9008101 2.686371l4.9772181 2.878923 4.7505391-1.377765s14.5780463-4.303829 17.3101822-5.106506c1.0439586-.123288 3.0281558-.090707 4.1485324.704397 1.0853347.767201 1.9082136 2.903758 2.2687473 5.860806 1.9534556 16.193976 1.2052107 22.726635 1.1001368 23.529478l-.1480995.846727c-.3140562 2.306392-1.489607 14.203858 6.1667688 22.805905 4.4441768 5.013641 10.9763086 7.691444 18.5247101 7.548552l23.590074-2.116574 1.410975-.144291 4.002463-1.988583 1.14299-.437165 1.061314-1.11757c.794748-.825942 3.284628-3.60902 5.234074-7.76114l.002237.006497c.969048-1.65989 3.3814-6.134908 4.837254-11.973778 1.746011-7.043356 1.55754-13.595024-.575574-19.473465-1.768912-4.862932-4.740545-8.955654-8.866434-12.211283 1.215835-7.812774-.898697-14.671384-6.093303-19.542903l-1.512086-1.405091c-.562431-.514867-1.057123-.99129-1.511181-1.423569 7.102468-.963117 23.57748-.749684 53.11398 12.029131 6.924018 5.39878 27.565163 19.558211 47.828206 14.437793 1.341735-.334824 2.672868-.753202 3.940307-1.240485l.003249-.001118c9.986946-3.834831 17.544673-12.065423 22.452783-24.456013.804475-2.042874 1.498708-4.247629 2.075834-6.539233 4.111315-16.509108 2.67581-40.664339-4.032325-68.018258-7.354082-29.947448-20.06968-58.6664689-34.016343-76.8205627z"/></g></svg>