<svg height="304" preserveAspectRatio="xMidYMid" viewBox="0 0 256 304" width="256" xmlns="http://www.w3.org/2000/svg" xmlns:xlink="http://www.w3.org/1999/xlink"><linearGradient id="a" x1="-26.259866%" x2="99.866424%" y1="20.881864%" y2="90.009983%"><stop offset="0" stop-color="#231f20" stop-opacity=".16"/><stop offset="1" stop-color="#231f20" stop-opacity="0"/></linearGradient><radialGradient id="b" cx="10.534691%" cy=".168765%" gradientTransform="matrix(1 0 0 .841682 0 .000267)" r="142.584341%"><stop offset="0" stop-color="#fff" stop-opacity=".1"/><stop offset="1" stop-color="#fff" stop-opacity="0"/></radialGradient><ellipse cx="128" cy="156.840506" fill="#4285f4" rx="127.270886" ry="125.488608"/><path d="m128 280.303797c-69.9139241 0-126.70379747-55.655696-127.27088608-124.516455v.972152c0 69.265822 56.95189878 125.488607 127.27088608 125.488607 70.318987 0 127.270886-56.222785 127.270886-125.488607v-.972152c-.567089 68.860759-57.356962 124.516455-127.270886 124.516455z" fill="#263238" opacity=".2"/><path d="m128 33.3772152c69.913924 0 126.703797 55.6556962 127.270886 124.5164558v-.972152c0-69.2658228-56.951899-125.4886076-127.270886-125.4886076-70.3189873 0-127.27088608 56.1417721-127.27088608 125.4075946v.972152c.56708861-68.7797466 57.35696198-124.4354428 127.27088608-124.4354428z" fill="#fff" opacity=".2"/><path d="m97.7822785 61.0835443v37.5088608l30.2177215 40.5873419 30.217722-41.6405065v-36.4556962h35.726582l34.916455-60.43544303h-201.6405058l34.835443 60.43544303z" fill="#424242"/><path d="m90.0860759 61.0835443h-28.0303797l9.964557 17.2556962h18.0658227zm75.8278481 17.2556962h18.065823l9.964557-17.2556962h-28.03038z" fill="#9e9e9e"/><path d="m158.217722 242.632911v-24.70886l-30.217722-41.478481-30.2177215 41.478481v24.70886h-35.6455696l-34.9974684 60.435443h201.7215185l-34.835443-60.435443z" fill="#424242"/><path d="m158.217722 94.4607595-30.217722 41.7215185-30.2177215-40.7493666v3.1594937l30.2177215 40.5873419 30.217722-41.6405065z" fill="#263238" opacity=".2"/><path d="m27.2202532.64810127h201.5594938l-1.21519 2.10632911h-199.129114z" fill="#fff" opacity=".2"/><path d="m97.7822785 221.002532 30.2987345-41.559494 30.136709 41.559494v-3.078481l-30.136709-41.478481-30.2987345 41.397468zm130.9974685 81.98481h-201.5594938l1.2151898-2.187342h199.129114z" fill="#263238" opacity=".2"/><path d="m228.779747 302.987342-1.21519-2.187342-24.546835-42.612658c26.005063-18.713924 44.475949-46.906329 50.30886-79.392405l-117.630379-119.1696205-15.797469 185.9240505 55.817722 57.437975 53.144303.081012z" fill="url(#a)"/><path d="m135.696203 59.6253165-56.7088612 113.4987345h41.1544302l-.243038 72.425316 57.437975-114.146835h-41.883544z" fill="#e8e8e8"/><path d="m135.696203 59.6253165-55.6556967 111.4734175h40.1012657l-.243038 72.425317 56.38481-112.121519h-40.830379z" fill="#fff"/><path d="m97.7822785 61.0835443h-35.7265823l9.964557 17.2556962h25.7620253zm60.4354435 17.2556962h25.762025l9.964557-17.2556962h-35.726582z" fill="#9e9e9e"/><path d="m158.217722 76.3139241v2.0253164h25.762025l1.21519-2.1063291zm-60.4354435 0-26.9772152-.0810127 1.2151899 2.1063291h25.7620253z" fill="#263238" opacity=".3"/><path d="m255.270886 157.812658v-.972152c0-43.422784-22.440506-81.7417718-56.465823-104.2632908l30.055696-51.92911393h-201.6405058l29.9746835 51.92911393c-34.0253164 22.521519-56.46582278 60.8405068-56.46582278 104.2632908v.972152c.32405064 41.235443 20.90126578 77.772152 52.33417718 100.455696l-24.6278481 42.531646-1.2151898 2.187342-.0810127.081012h201.6405065l-.081013-.081012-1.21519-2.187342-24.546835-42.612658c31.513924-22.602532 52.010126-59.058228 52.334177-100.374684z" fill="url(#b)"/></svg>