<svg height="254" preserveAspectRatio="xMidYMid" viewBox="0 0 256 254" width="256" xmlns="http://www.w3.org/2000/svg" xmlns:xlink="http://www.w3.org/1999/xlink"><linearGradient id="a" x1="50%" x2="50%" y1="-1.019573%" y2="100%"><stop offset="0" stop-color="#8fc53b"/><stop offset="1" stop-color="#48a23c"/></linearGradient><path d="m189.574 13.209c25.131 18.66 41.421 48.556 41.421 82.263 0 56.554-45.846 102.4-102.4 102.4s-102.4-45.846-102.4-102.4c0-35.134 17.702-66.125 44.665-84.569-42.002 20.996-70.86 64.384-70.86 114.534 0 70.693 57.308 128.001 128 128.001s128-57.308 128-128.001c0-48.369-26.837-90.461-66.426-112.228zm-107.824 166.61c-18.812-13.967-31.006-36.346-31.006-61.576 0-42.333 34.318-76.65 76.651-76.65 42.332 0 76.65 34.317 76.65 76.65 0 26.299-13.251 49.497-33.433 63.302 31.439-15.716 53.041-48.193 53.041-85.733 0-52.915-42.897-95.812-95.813-95.812s-95.812 42.897-95.812 95.812c0 36.207 20.088 67.714 49.722 84.007zm78.2-80.775c0 17.645-14.304 31.95-31.95 31.95s-31.95-14.305-31.95-31.95c0-17.646 14.304-31.951 31.95-31.951s31.95 14.305 31.95 31.951z" fill="url(#a)"/></svg>