<svg height="242" preserveAspectRatio="xMidYMid" viewBox="0 0 256 242" width="256" xmlns="http://www.w3.org/2000/svg"><path d="m0 0h256l-128.025 241.508z"/><path d="m158.988 64.196c0 3.998-3.241 7.24-7.24 7.24-3.998 0-7.24-3.242-7.24-7.24 0-3.999 3.242-7.24 7.24-7.24 3.999 0 7.24 3.241 7.24 7.24" fill="#00adcc"/><path d="m158.988 84.082c0 3.999-3.241 7.24-7.24 7.24-3.998 0-7.24-3.241-7.24-7.24s3.242-7.24 7.24-7.24c3.999 0 7.24 3.241 7.24 7.24" fill="#005766"/><path d="m158.988 103.872c0 3.998-3.241 7.24-7.24 7.24-3.998 0-7.24-3.242-7.24-7.24 0-3.999 3.242-7.24 7.24-7.24 3.999 0 7.24 3.241 7.24 7.24" fill="#00d8fe"/><path d="m115.548 103.872c0 3.998-3.242 7.24-7.24 7.24-3.999 0-7.241-3.242-7.241-7.24 0-3.999 3.242-7.24 7.241-7.24 3.998 0 7.24 3.241 7.24 7.24" fill="#008da6"/><path d="m115.548 84.082c0 3.999-3.242 7.24-7.24 7.24-3.999 0-7.241-3.241-7.241-7.24s3.242-7.24 7.241-7.24c3.998 0 7.24 3.241 7.24 7.24" fill="#00d8fe"/><path d="m115.548 64.196c0 3.998-3.242 7.24-7.24 7.24-3.999 0-7.241-3.242-7.241-7.24 0-3.999 3.242-7.24 7.241-7.24 3.998 0 7.24 3.241 7.24 7.24" fill="#00d8fe"/><path d="m137.268 64.196c0 3.998-3.241 7.24-7.24 7.24s-7.24-3.242-7.24-7.24c0-3.999 3.241-7.24 7.24-7.24s7.24 3.241 7.24 7.24" fill="#005766"/><path d="m137.268 84.082c0 3.999-3.241 7.24-7.24 7.24s-7.24-3.241-7.24-7.24 3.241-7.24 7.24-7.24 7.24 3.241 7.24 7.24" fill="#00c3e6"/><path d="m137.268 103.872c0 3.998-3.241 7.24-7.24 7.24s-7.24-3.242-7.24-7.24c0-3.999 3.241-7.24 7.24-7.24s7.24 3.241 7.24 7.24" fill="#008da6"/><path d="m137.268 123.951c0 3.999-3.241 7.24-7.24 7.24s-7.24-3.241-7.24-7.24 3.241-7.24 7.24-7.24 7.24 3.241 7.24 7.24" fill="#00d8fe"/></svg>