<svg height="230" preserveAspectRatio="xMidYMid" viewBox="0 0 256 230" width="256" xmlns="http://www.w3.org/2000/svg" xmlns:xlink="http://www.w3.org/1999/xlink"><linearGradient id="a" x1="50%" x2="51.668965%" y1="0%" y2="69.24908%"><stop offset="0" stop-color="#54beaf"/><stop offset="1" stop-color="#25488d"/></linearGradient><linearGradient id="b" x1="50%" x2="50%" y1="0%" y2="100%"><stop offset="0" stop-color="#0e2e62"/><stop offset="1" stop-color="#08154e"/></linearGradient><path d="m128.22116 229.503163c-5.648663 0-11.373065-1.437538-16.617278-4.46258-15.9447104-9.196307-21.4146276-29.574816-12.2198347-45.518012l93.9171597-162.8402363c9.194793-15.94471008 29.571787-21.41462724 45.518012-12.21983434 15.943195 9.19630774 21.414627 29.57481654 12.218319 45.51801184l-93.917159 162.8402368c-6.169752 10.698982-17.37619 16.682414-28.899219 16.682414" fill="url(#a)"/><path d="m156.914889 212.319168c-2.806911 4.903385-6.898367 9.156923-12.128947 12.206201-15.900781 9.269018-36.305041 3.893018-45.5740589-12.007763l-94.67152665-162.4024617c-9.26901775-15.9022959-3.89453254-36.3035266 12.00776335-45.57405919 15.900781-9.27053255 36.3050414-3.89453255 45.5740591 12.00624849l94.6700121 162.4039764c6.219739 10.668686 5.845586 23.36871.122698 33.367858" fill="url(#a)"/><path d="m157.020071 179.401847-28.918911-49.609468-28.6886627 49.742769c-9.1947929 15.943196-3.7248757 36.321704 12.2198347 45.518012 1.078532.62258 2.181301 1.160331 3.296189 1.64961.36355.157538.725586.319621 1.095195.463526.415053.165113.831622.319622 1.251219.466556.672568.234793 1.349681.451409 2.034367.642273.209041.057562.416568.122698.62561.17723.854343.219645 1.71626.398391 2.585751.54987.240852.042414.481704.080284.722556.118154.896758.136331 1.798059.246911 2.70542.310533.042415.003029.083314.009088.125728.012118.942201.062106 1.890462.06968 2.838722.051503.243882-.004544.487763-.013633.73316-.024237.901302-.03787 1.804118-.101491 2.703905-.213586.056047-.007574.112095-.009088.168142-.016662.961894-.124213 1.920758-.302959 2.876592-.513515.195408-.043929.389302-.087858.58471-.134817 3.097751-.740733 6.14097-1.929846 9.034225-3.61581 5.23058-3.049278 9.322035-7.302817 12.128946-12.206201 5.722888-9.999148 6.097042-22.699172-.122698-33.367858" fill="url(#b)"/><g fill="#fff"><path d="m140.87574 197.816568c0 6.901396-5.595645 12.497041-12.497042 12.497041-6.901396 0-12.497041-5.595645-12.497041-12.497041s5.595645-12.497041 12.497041-12.497041c6.901397 0 12.497042 5.595645 12.497042 12.497041"/><path d="m234.792899 31.1893491c0 6.9013965-5.595645 12.4970414-12.497041 12.4970414s-12.497041-5.5956449-12.497041-12.4970414c0-6.9013964 5.595645-12.4970414 12.497041-12.4970414s12.497041 5.595645 12.497041 12.4970414"/><path d="m46.2011834 31.1893491c0 6.9013965-5.5956449 12.4970414-12.4970414 12.4970414-6.9013964 0-12.4970414-5.5956449-12.4970414-12.4970414 0-6.9013964 5.595645-12.4970414 12.4970414-12.4970414 6.9013965 0 12.4970414 5.595645 12.4970414 12.4970414"/></g></svg>