<svg height="257" preserveAspectRatio="xMidYMid" viewBox="0 0 256 257" width="256" xmlns="http://www.w3.org/2000/svg"><path d="m128.286 1.952-126.341 125.933 126.341 126.515 125.761-126.515z" fill="#019833"/><path d="m128.264 13.516v-10.631l-125.49 125.023h10.753z" fill="#66fe98"/><path d="m128.264 13.516v-10.631l125.88 125.023h-11.636z" fill="#45fe02"/><path d="m128.264 242.836v11.769l-125.49-126.697h10.753z" fill="#017d17"/><path d="m128.264 242.836v11.769l125.88-126.697h-11.636z" fill="#005d04"/><path d="m65.226 230.591h-24.326l-9.5-9.258v-176.783h-7.54l-6.455-6.464v-19.761l6.687-7.253h85.075l7.649 7.658v18.756l-6.356 7.747h-6.428v59.758l60.487-59.758h-3.377l-7.035-7.587v-19.888l6.912-6.345h85.872l6.796 6.805v18.81z"/><path d="m128.264 256.342-128.264-128.434 128.264-127.908 127.736 127.908zm-124.335-128.434 124.335 124.502 123.805-124.502-123.805-123.973z"/><path d="m108.075 22.742 3.779-2.441-3.861-4.008h-81.837l-4.158 4.164v15.75l4.61 4.616 2.199-4.616-2.892-2.897v-11.103l2.169-1.931 77.264.095z" fill="#fefefe"/><path d="m41.458 35.833v184.334l2.592 2.468-2.077 3.925-5.451-5.369v-180.579z" fill="#fefefe"/><path d="m28.236 35.833-1.628 4.99h9.886l5.719-4.99z" fill="#808080"/><path d="m166.531 35.897-3.457-2.442v-9.896l3.616-3.621h75.449l2.893 3.862 4.117-3.249-4.238-3.872h-81.114l-4.038 4.043v15.871l4.252 3.848m-65.615 76.31-7.879 19.144 88.948-89.309-.435-10.804z" fill="#fefefe"/><g fill="#808080"><path d="m107.897 22.671 3.957-2.37v15.532l-4.517 4.523h-8.778l-.163 76.395-7.849 19.1v-100.018h14.659l2.727-2.219z"/><path d="m244.764 22.722 4.385-2.171v14.183l-186.741 191.826h-20.435l1.994-3.77 15.695.001 185.129-191.412z"/><path d="m179.03 35.782-4.548 4.569-10.471.09 2.557-4.59c.085 0 12.462-.069 12.462-.069"/></g><path d="m165.973 19.79-2.89 2.893v10.624l2.531 2.534h13.372v10.265l-88.46 89.783v-99.921h14.701l3.016-3.02v-10.751l-2.784-2.154h-77.366l-2.531 2.535v10.982l2.573 2.577h13.457v184.002l2.531 2.534h15.292l185.379-191.542v-8.448l-2.89-2.893z" fill="#ccc"/><path d="m59.519 222.918h-15.497l-2.674-2.678v-183.859h-13.314l-2.716-2.72v-11.185l2.674-2.677h77.551l2.945 2.278v10.972l-3.159 3.163h-14.559v99.081l87.972-89.288v-9.919h-13.229l-2.674-2.678v-10.826l3.032-3.037h76.134l3.033 3.037v8.648l-.068.071zm-15.294-.489h15.087l185.238-191.396v-8.249l-2.747-2.75h-75.729l-2.747 2.75v10.422l2.388 2.391h13.516v10.609l-.07.071-88.879 90.208v-100.761h14.844l2.873-2.878v-10.529l-2.623-2.03h-77.182l-2.388 2.392v10.78l2.431 2.434h13.599v184.144z" fill="#808080"/><path d="m134.566 143.819c-.141.029-.271.095-.38.19l-3.585 3.083c-.107.098-.187.221-.232.359l-3.586 10.054c-.108.301-.034.637.19.866l2.742 2.745c.159.153.371.236.591.233h11.073c.22.003.432-.08.59-.233l2.89-2.914c.1-.1.172-.224.211-.359l3.08-10.582c.085-.292.004-.608-.211-.823l-2.384-2.387c-.158-.153-.371-.236-.59-.232h-10.23c-.056-.006-.113-.006-.169 0zm-20.29 28.343c-.311.067-.556.305-.633.613l-1.371 5.449c-.111.446.16.899.606 1.01.064.016.129.024.195.025h6.518l-16.157 46.19c-.146.437.089.909.525 1.055.082.028.168.043.256.044h23.517c.363.005.687-.226.802-.571l1.54-4.963c.134-.44-.113-.906-.553-1.041-.08-.024-.164-.037-.249-.036h-5.315l15.988-46.676c.146-.437-.089-.909-.525-1.055-.082-.028-.169-.043-.256-.044h-24.72c-.056-.005-.112-.005-.168 0zm74.835.169c-.181.038-.345.134-.465.275l-4.893 5.533h-7.783l-5.189-5.385c-.155-.161-.367-.252-.59-.254h-18.582c-.35.001-.662.22-.781.549l-1.708 5.112c-.146.436.088.908.524 1.055.083.027.169.042.256.043h4.978l-15.482 45.683c-.146.437.089.909.525 1.056.082.027.169.042.256.043h19.784c.35-.001.661-.22.781-.549l1.518-4.457c.146-.436-.088-.909-.524-1.055-.083-.028-.169-.042-.256-.043h-3.459l9.871-31.111h17.865l-11.263 36.138c-.135.44.112.906.552 1.04.081.025.165.037.249.037h19.088c.332-.003.63-.202.76-.507l1.708-4.098c.17-.427-.039-.912-.466-1.081-.094-.037-.193-.057-.293-.059h-3.459l10.04-31.639h17l-11.432 36.307c-.134.44.113.906.552 1.04.081.025.165.037.25.037h20.965c.344.002.655-.208.781-.528l1.708-4.457c.158-.432-.064-.91-.496-1.068-.091-.034-.187-.051-.284-.051h-4.156l12.635-41.079c.084-.26.037-.543-.127-.761l-3.923-5.28c-.162-.206-.413-.324-.675-.317h-14.996c-.231-.004-.452.088-.612.254l-4.725 5.195h-8.268l-4.893-5.364c-.16-.166-.382-.258-.612-.254h-12.086c-.056-.005-.112-.005-.168 0z" fill="#ccc"/><path d="m128.359 162.524c.523.504 1.207.78 1.901.78.015 0 .03 0 .046-.001h11.039c.742.023 1.444-.263 2.013-.81l2.883-2.909c.334-.334.579-.751.706-1.195l3.079-10.58c.285-.979.015-2.035-.705-2.752l-2.409-2.413c-.535-.516-1.238-.8-1.947-.78h-10.16c-.146-.008-.292-.005-.436.01l-.205.032c-.47.099-.909.318-1.252.62l-3.586 3.084-.041.037c-.349.318-.612.72-.764 1.167l-3.578 10.031c-.359 1.001-.109 2.137.647 2.907zm16.154-16.751 1.575 1.577-2.816 9.676-2.346 2.368-10.168.001-1.897-1.9 3.257-9.13 3.014-2.592z"/><path d="m241.638 176.931-3.923-5.28-.035-.045c-.534-.678-1.36-1.071-2.225-1.06h-14.948c-.777-.018-1.514.296-2.049.848l-4.184 4.601h-6.541l-4.312-4.727-.04-.043c-.534-.552-1.273-.847-2.016-.848h-12.016c-.145-.008-.292-.005-.436.01l-.202.031c-.601.125-1.152.452-1.529.893l-4.31 4.874h-6.071l-4.615-4.79c-.515-.533-1.237-.843-1.995-.849h-18.588c-1.165.003-2.214.741-2.612 1.837l-1.724 5.155c-.489 1.457.298 3.041 1.756 3.531.276.092.564.141.877.144h2.252l-14.61 43.11c-.486 1.455.301 3.038 1.757 3.528.277.092.565.141.878.144h19.79c1.166-.003 2.216-.742 2.625-1.873l1.522-4.466c.487-1.456-.3-3.039-1.757-3.529-.277-.093-.565-.142-.877-.145h-.789l8.631-27.201h13.778l-10.476 33.611c-.449 1.47.381 3.031 1.847 3.48.271.083.561.117.824.123h19.105c1.11-.009 2.108-.675 2.547-1.709l1.722-4.13c.565-1.429-.136-3.052-1.558-3.616-.317-.127-.65-.193-1.019-.199h-.788l8.799-27.729h12.905l-10.637 33.782c-.447 1.469.383 3.03 1.848 3.478.265.082.541.123.809.123h.015 20.952c1.158-.007 2.194-.702 2.619-1.783l1.719-4.485c.527-1.443-.217-3.047-1.66-3.575-.303-.111-.622-.168-.956-.17h-1.51l11.847-38.518c.282-.864.124-1.815-.416-2.533zm-16.723 44.96h5.169l-.842 2.195h-18.676l11.772-37.383h-21.096l-11.28 35.548h4.432l-.765 1.835h-16.815l11.599-37.214h-21.952l-11.111 35.019h4.554l-.748 2.195h-17.406l15.854-46.782h-6.137l.952-2.849h17.287l5.433 5.639h9.495l5.135-5.808 11.114-.001 5.124 5.619h9.996l4.955-5.449h13.97l3.236 4.356z"/><path d="m130.096 218.105c-.27-.083-.54-.116-.824-.123h-2.58l15.106-44.099c.489-1.458-.299-3.041-1.757-3.531-.275-.092-.563-.141-.877-.144h-24.65c-.146-.008-.292-.005-.437.01l-.213.034c-1.046.225-1.858 1.01-2.117 2.046l-1.372 5.454c-.371 1.49.539 3.005 2.034 3.38.212.052.431.08.664.081h3.763l-15.255 43.615c-.489 1.458.3 3.041 1.756 3.53.277.092.565.141.878.144h23.489.041c1.204 0 2.263-.763 2.656-1.946l1.542-4.971c.449-1.469-.381-3.031-1.847-3.48zm-24.292 6.488 16.541-47.289h-7.826l.802-3.187h22.264l-16.364 47.774h6.534l-.838 2.702z"/></svg>