<svg height="223" preserveAspectRatio="xMidYMid" viewBox="0 0 256 223" width="256" xmlns="http://www.w3.org/2000/svg"><path d="m255.876213 51.662485c-1.139207 24.9678413-18.54476 59.156862-52.208977 102.549142-34.805985 45.327653-64.253855 67.98892-88.343611 67.98892-14.917216 0-27.550898-13.79849-37.8626446-41.405708-6.8915645-25.305763-13.775449-50.608967-20.6644535-75.91473-7.6621295-27.5918585-15.8772226-41.4057077-24.6606393-41.4057077-1.9148924 0-8.6170157 4.0371461-20.0910098 12.080718l-12.0448778-15.5469804c12.6336816-11.1232719 25.0984021-22.2439837 37.3608813-33.3800557 16.8500289-14.5895342 29.4990706-22.26190376 37.9292051-23.03758877 19.9246087-1.91745239 32.1870876 11.72743577 36.7899976 40.93722447 4.974112 31.5138036 8.414774 51.1158502 10.350147 58.7882201 5.742117 26.145449 12.060238 39.201533 18.964602 39.201533 5.358115 0 13.406807-8.478775 24.138396-25.436324 10.72135-16.96267 16.463467-29.8677134 17.239152-38.7330506 1.52577-14.6381746-4.218908-21.975182-17.239152-21.975182-6.128679 0-12.4468 1.4131291-18.946682 4.2061072 12.579921-41.2905068 36.618476-61.3431163 72.100306-60.19878891 26.30417.77312499 38.70489 17.86635541 37.18936 51.28225131" fill="#32b8e8"/></svg>