<svg height="256" preserveAspectRatio="xMidYMid" viewBox="0 0 256 256" width="256" xmlns="http://www.w3.org/2000/svg" xmlns:xlink="http://www.w3.org/1999/xlink"><linearGradient id="a" x1="82.165601%" x2="35.139292%" y1="64.827001%" y2="45.368451%"><stop offset="0" stop-opacity="0"/><stop offset="1" stop-opacity=".2"/></linearGradient><path d="m.51600953 48.3895578c-.78806134-4.0542241 1.86133144-7.9799918 5.9139109-8.7677335l201.18197657-39.1058148c4.054224-.78806134 7.979992 1.86133144 8.767734 5.9139109l39.105815 201.1819766c.788061 4.054224-1.861332 7.979992-5.913911 8.767734l-201.1819772 39.105814c-4.0542241.788062-7.9799918-1.861331-8.7677334-5.91391z" fill="#f03939" fill-opacity=".3"/><path d="m9.53601736 35.2491489c-.35996244-4.1143895 2.68527114-7.7417145 6.79799154-8.1015309l204.1675521-17.86234623c4.114389-.35996244 7.741714 2.68527113 8.10153 6.79799163l17.862347 204.1675516c.359962 4.114389-2.685272 7.741714-6.797992 8.101531l-204.1675515 17.862346c-4.1143895.359962-7.7417145-2.685271-8.1015309-6.797992z" fill="#f03939" fill-opacity=".5"/><rect fill="#ef3939" height="219.87429" rx="7" width="219.87429" x="18.187501" y="18.187501"/><path d="m18.4367911 25.6686741c0-3.9940932 3.2377604-7.231883 7.231883-7.231883h204.9119419c3.994094 0 7.231884 3.2377604 7.231884 7.231883v204.9119419c0 3.994094-3.237761 7.231884-7.231884 7.231884h-204.9119419c-3.9940932 0-7.231883-3.237761-7.231883-7.231884zm-.4985812 0v204.9119419c0 4.269483 3.4610132 7.730465 7.7304642 7.730465h204.9119419c4.269483 0 7.730465-3.461014 7.730465-7.730465v-204.9119419c0-4.2694824-3.461014-7.7304642-7.730465-7.7304642h-204.9119419c-4.2694824 0-7.7304642 3.4610132-7.7304642 7.7304642z" fill-opacity=".3"/><path d="m238.06179 80.4171692v127.6479018c0 16.56673-13.423138 29.996719-29.996719 29.996719h-26.915764l-63.420079-36.620786 35.100114-60.801972c1.146736.174504 2.318402.27422 3.514997.27422 14.608428 0 26.44973-14.708144 26.44973-32.856498 0-5.235102-.997162-10.1710558-2.742196-14.55857l20.167607-34.9256099z" fill="url(#a)"/><path d="m170.678547 84.5237232c-6.331981-12.6888904.398865-26.8735243 14.184634-29.9148693 11.218076-2.4929058 22.835017 5.7336833 24.305831 17.1262627.648156 4.9858115-.324078 9.5478291-2.816983 13.8605561-20.441828 35.4491203-40.908584 70.8733113-61.300553 106.3224313-3.789217 6.581271-9.323468 10.569921-16.876973 11.11836-8.475879.598297-15.131938-2.941629-19.394807-10.295701-12.9381805-22.21179-25.7267872-44.498368-38.5652519-66.760017-7.8027951-13.536478-15.6554483-27.0729564-23.4333143-40.6343639-7.8526533-13.6860527.9971623-30.3137342 16.7523268-31.1363931 8.3013762-.423794 14.7330731 3.4152809 18.9460839 10.6197786 5.7586123 9.8469778 11.4175085 19.7687428 17.1262627 29.6406497 4.1132948 7.1297107 8.1518018 14.3092787 12.3897418 21.3392737 6.107619 10.245842 15.131938 16.004455 27.097886 16.727398 16.976688.997162 32.731853-11.267935 34.776035-29.266714.149575-1.346169.249291-2.692339.299149-3.3903522-.074787-5.8333995-1.171666-10.7444239-3.490068-15.3562996z" fill="#fff"/></svg>