<svg height="211" preserveAspectRatio="xMidYMid" viewBox="0 0 256 211" width="256" xmlns="http://www.w3.org/2000/svg"><path d="m128.016818 0c-22.031879.04678314-43.4934462 7.00726851-61.3590608 19.9001677l23.9026848 23.9026848c11.277449-6.8985948 24.236289-10.5597341 37.456376-10.5822149 39.772415-.0000786 72.01434 32.2418466 72.014262 72.0142614-.031827 13.215381-3.69956 26.167196-10.601511 37.437081l23.947987 23.947986c12.888803-17.875944 19.840407-39.347145 19.874174-61.385067 0-58.1196251-47.115287-105.234899-105.234913-105.234899z" fill="#abc2ab"/><path d="m189.375878 190.569631-23.902684-23.902685c-11.277449 6.898595-24.236289 10.559748-37.456376 10.582215-39.7724153.000079-72.0143405-32.241847-72.0142619-72.014262.0318269-13.2153807 3.6995467-26.1671952 10.6015103-37.4370802l-23.9479998-23.9479864c-12.8888161 17.875937-19.840381 39.347145-19.8741481 61.3850666 0 58.119626 47.1152739 105.2349 105.2348995 105.2349 22.031879-.046797 43.493446-7.007262 61.35906-19.900168z" fill="#478061"/><circle cx="128" cy="105.234899" fill="#abc2ab" r="33.503356"/><path d="m30.591915 124.810389c-1.1475636.819684-2.1926645 1.229526-3.1353029 1.229526h-4.0574535c-.573782 0-1.0246087-.102459-1.3524803-.307375-.3278715-.204925-.5942699-.512309-.799195-.922151l-20.77906086-38.6072509c-.08197011-.0819701-.12295516-.1844283-.12295516-.3073748v-.3688655c0-.4098417.14344762-.7377177.43034287-.983628.32787157-.2868867.84017582-.43033 1.53691275-.43033h25.2668439c1.3524801 0 2.233641.4098417 2.6434826 1.2295251l12.7871227 24.6520811 35.8407874-24.6520811c1.1885487-.8196834 2.4385749-1.2295251 3.7500787-1.2295251h3.9959628c.5328056 0 .7992084.2254133.7992084.6762399 0 .3688565-.3278716.8196832-.9836147 1.3524802z"/><path d="m86.3530304 126.039915c-2.1311871 0-4.0164638-.327876-5.6558303-.983629-1.6393842-.696728-3.0123656-1.639366-4.1189442-2.827915-1.1065786-1.188548-1.9467544-2.582014-2.5205275-4.180395-.573773-1.639375-.8606595-3.401706-.8606595-5.286992 0-2.418073.4098417-4.795162 1.229525-7.131265.8196834-2.336112 1.9467545-4.569762 3.3812132-6.7009493 1.4754265-2.1311871 3.1967632-4.098434 5.1640101-5.9017407 2.0082321-1.8033155 4.1804043-3.3607207 6.5165165-4.6722156 2.3770975-1.3114951 4.8771412-2.3361036 7.5001313-3.0738255 2.6230075-.7786981 5.307484-1.1680472 8.053429-1.1680472h30.12348c2.172172 0 4.07795.3278715 5.717334.9836147 1.680352.655752 3.073817 1.5779022 4.180396 2.7664507 1.106578 1.1475549 1.946754 2.5205274 2.520527 4.1189176.573791 1.5983904.860686 3.340224.860686 5.2255007 0 2.4180824-.430334 4.8156676-1.291003 7.1927566-.8197 2.336112-1.967264 4.569757-3.442691 6.700936-1.475444 2.131187-3.217282 4.11893-5.225513 5.963231-2.008232 1.803307-4.200897 3.3812-6.577994 4.73368-2.37708 1.311504-4.877124 2.356609-7.500131 3.135316-2.62299.737713-5.266482 1.10657-7.930475 1.10657h-30.1234791zm37.0088616-25.143903c1.352489-2.8688999 2.028733-5.0205752 2.028733-6.4550254 0-1.1885487-.430343-2.0082364-1.291029-2.4590629-.819683-.4508266-2.049208-.6762399-3.688574-.6762399h-8.360817c-1.188531 0-2.29511.1639357-3.319736.4918073-.983624.2868953-1.90577.7991995-2.766438 1.5369128-.860668.7377218-1.700844 1.7213497-2.520527 2.9508836-.778698 1.2295251-1.577889 2.7664334-2.397573 4.6107245l-2.9508962 6.70095c-1.5573966 3.483667-2.3360949 6.106665-2.3360949 7.868996 0 1.18854.348364 2.049208 1.0450921 2.582005.6967458.491811 1.7008619.737717 3.0123481.737717h8.4222939c1.270519 0 2.438575-.184428 3.504169-.553284 1.065593-.409842 2.090202-1.045102 3.073825-1.905779.983624-.860668 1.926262-2.008227 2.827916-3.442677.901653-1.434451 1.823799-3.196777 2.766437-5.286978z"/><path d="m144.122693 126.039915c-.737713 0-1.10657-.245906-1.10657-.737718 0-.245902.061478-.553285.184433-.92215l17.274879-38.6687162c.491821-1.0655934 1.270528-1.5983901 2.336122-1.5983901h21.147913c.778698 0 1.168047.266394 1.168047.7991821 0 .2459104-.081962.5123132-.245884.7992084l-17.213428 38.6687158c-.491821 1.106579-1.270528 1.659868-2.336121 1.659868z"/><path d="m174.348967 126.039915c-.737713 0-1.10657-.245906-1.10657-.737718 0-.245902.061478-.553285.184433-.92215l17.274879-38.6687162c.491821-1.0655934 1.270528-1.5983901 2.336121-1.5983901h49.427119c2.131187 0 4.016464.3278715 5.65583.9836147 1.639367.655752 3.012339 1.5779022 4.118918 2.7664507 1.106578 1.1475549 1.946763 2.5205274 2.520553 4.1189176.573773 1.5983904.86066 3.340224.86066 5.2255007 0 2.5000525-.430334 4.9591156-1.291002 7.3771886-.860669 2.377089-2.049217 4.631227-3.565647 6.762414-1.475426 2.131187-3.237748 4.098434-5.286965 5.901741-2.008232 1.803315-4.200897 3.36072-6.577994 4.672215-2.336112 1.270519-4.795171 2.274635-7.377176 3.012348-2.582022.737722-5.164036 1.106583-7.746041 1.106583h-49.427118zm53.484559-25.143903c1.311503-2.95087 1.967255-5.1025453 1.967255-6.4550254 0-1.1885487-.409841-2.0082364-1.229525-2.4590629-.819683-.4508266-2.008232-.6762399-3.565646-.6762399h-12.479734l-12.172347 27.4799972h12.418257c1.229534 0 2.377097-.184428 3.442691-.553285 1.065593-.409842 2.069709-1.045101 3.012348-1.905778.983624-.901654 1.926262-2.049213 2.827915-3.442678.942639-1.43445 1.885277-3.196776 2.827915-5.286978l2.950871-6.700949z"/></svg>