<svg height="347" preserveAspectRatio="xMidYMid" viewBox="0 0 256 347" width="256" xmlns="http://www.w3.org/2000/svg"><path d="m184.778 249.117c-.618-21.607-.737-37.872-1.194-48.7l72.416-72.417-127.999-128-128.001 127.999 128.001 128.001 21.976-21.977c-.015 13.707.123 34.429-.49 64.797-.384 19.091-5.274 22.765-6.79 33.45-1.1 7.76 4.515 14.336 10.086 14.336s10.61-6.454 10.086-14.336c-.505-7.609-4.828-14.185-5.208-33.076-.717-35.571-.843-58.029-1.388-71.466l21.74-21.741c-.005 10.488.089 24.787-.43 42.898-.339 11.824-4.643 14.099-5.978 20.717-.969 4.806 3.975 8.879 8.879 8.879s9.34-3.997 8.88-8.879c-.445-4.713-4.251-8.785-4.586-20.485zm-15.837-150.137 17.1-17.1 17.099 17.1-17.1 17.099zm5.179 29.02-17.1 17.099-17.099-17.099 17.1-17.1zm-17.099-40.94-17.101-17.101 17.1-17.1 17.101 17.102zm-11.92 11.92-17.1 17.099-17.1-17.099 17.099-17.1zm-46.12-11.921-17.1-17.099 17.1-17.1 17.099 17.099zm-11.921 11.921-17.1 17.1-17.1-17.1 17.1-17.1zm11.921 11.92 17.1 17.099-17.101 17.101-17.099-17.1zm-11.921 46.12-17.1 17.099-17.099-17.099 17.099-17.099zm11.92 11.92 17.099 17.1-17.099 17.099-17.099-17.1zm11.92-11.92 17.101-17.101 17.099 17.1-17.1 17.101zm46.121 11.919 17.1 17.1-17.101 17.101-17.1-17.1zm11.92-11.92 17.099-17.099 17.1 17.1-17.099 17.099zm46.119-11.919-17.1-17.1 17.1-17.1 17.1 17.1zm-69.961-104.161-17.099 17.1-17.099-17.099 17.1-17.1zm-104.159 69.96 17.101 17.101-17.1 17.1-17.101-17.101zm69.961 104.16 17.099-17.099 17.099 17.101-17.098 17.098z" fill="#ffd150"/></svg>