<svg height="256" preserveAspectRatio="xMidYMid" viewBox="0 0 256 256" width="256" xmlns="http://www.w3.org/2000/svg" xmlns:xlink="http://www.w3.org/1999/xlink"><defs><path id="a" d="m256 128c0 70.692-57.308 128-128 128s-128-57.308-128-128 57.308-128 128-128 128 57.308 128 128"/><mask id="b" fill="#fff"><use fill="#fff" xlink:href="#a"/></mask></defs><use fill="#4356e6" xlink:href="#a"/><g fill="#fff"><path d="m128 172.2959c-11.365.293-35.131-7.026-71.484-43.146 31.923-32.31 53.981-43.45 71.016-43.861 11.365-.293 32.033 6.064 71.8 43.861-31.008 30.926-54.296 42.735-71.332 43.146m86.814-41.733c-.39-.378-1.041-1.039-1.43-1.413 18.29-18.179 31.437-31.542 40.111-40.468-1.05-3.353-2.235-6.646-3.54-9.878-11.601 11.59-30.94 30.991-43.444 44.105-32.592-31.384-58.718-46.945-78.409-46.792-.265.002-.53.008-.791.01-21.119.131-45.97 15.872-77.669 46.451-.342-.328-28.069-29.485-43.009-45.212-1.516 3.629-2.875 7.339-4.067 11.125 15.67 16.527 40.004 40.974 40.269 41.228-.586.563-24.106 23.978-39.503 40.148 1.19 3.544 2.531 7.019 4.008 10.421 14.948-15.623 41.555-43.394 42.256-44.067 33.644 31.217 58.995 45.961 77.724 45.961.265 0 .53-.003.791-.009 19.619-.475 42.322-12.616 78.535-46.419.336.323 27.247 28.042 42.395 43.663 1.352-3.177 2.579-6.419 3.682-9.719-9.338-10.225-22.91-24.64-37.909-39.135" mask="url(#b)"/><path d="m149.6914 114.4653v29.513l-21.691 10.785-21.692-11.396v-29.513l21.692-10.701zm-25.746-19.531-21.692 10.701c-3.128 1.544-5.109 4.73-5.109 8.219v29.513c0 3.405 1.888 6.529 4.901 8.113l21.692 11.397c1.334.7 2.798 1.05 4.263 1.05 1.396 0 2.794-.318 4.08-.958l21.691-10.785c3.115-1.549 5.084-4.727 5.084-8.206v-29.513c0-3.415-1.898-6.547-4.927-8.126l-21.691-11.312c-1.326-.692-2.781-1.039-4.237-1.039-1.388 0-2.776.315-4.055.946z" mask="url(#b)"/></g></svg>