<svg height="256" preserveAspectRatio="xMidYMid" viewBox="0 0 256 256" width="256" xmlns="http://www.w3.org/2000/svg"><path d="m157.29009 0h98.70991v255.997187h-256v-255.997187h98.7099099c-.019688.45844869-.0675016.91127225-.0675016 1.37534608 0 16.21445832 13.1431337 29.36040432 29.3575917 29.36040432s29.360404-13.145946 29.360404-29.36040432c0-.46407383-.047813-.91689739-.070314-1.37534608zm58.327049 228.599956h17.598242l-26.657526-90.632213h-26.753153l-21.952098 90.632213h17.058229l4.443858-20.18018h30.485432zm-93.39978 0h16.841661l21.608965-90.632213h-16.627906l-13.235948 62.453088h-.216568l-12.569369-62.453088h-15.871325l-13.9840916 61.690881h-.2165678l-11.6046583-61.690881h-16.9513513l19.5304768 90.632213h17.1651065l13.4468907-61.690881h.216568zm67.783186-68.291136h7.129862l8.502395 33.258625h-23.029313z" fill="#654ff0"/></svg>