<svg height="171" preserveAspectRatio="xMidYMid" viewBox="0 0 256 171" width="256" xmlns="http://www.w3.org/2000/svg"><path d="m87.329 169.901-48.722-133.301 133.8-35.791 24.339 139.814-50.73 29.831z" fill="#e44d26"/><path d="m142.99 158.831 40.987-24.116-20.804-119.48-54.683 14.629z" fill="#f16529"/><path d="m236.043 69.772 6.234 21.45-47.728 13.485s0 28.707-23.162 40.119c-23.159 11.412-41.151 1.735-41.151 1.735l-2.881-8.301 34.356-9.341 7.604-29.403-22.134-21.771-31.817 9.623-2.763-7.552c0 .001 14.866-32.856 58.792-14.169 0 0 13.842 8.637 16.946 16.254zm6.234-1.611 7.605-2.191 6.118 21.905-7.96 2.414z" fill="#efefef"/><path d="m244.956 67.194 4.926-1.224 6.118 21.905-7.96 2.414-2.084-7.335 3.176-1.243zm-14.176 3.92 5.263-1.342 6.234 21.45-47.728 13.485s-.514 25.048-17.124 36.39c-16.582 11.332-35.27 10.991-47.195 5.465l-1.329-3.828s32.454 7.631 48.524-16.754c9.691-16.077 9.52-27.667 9.52-27.667l47.893-12.965zm-118.185 8.689 28.014-8.13 6.56 6.058-31.811 9.623z" fill="#bcbcbc"/><path d="m13.834 95.006 5.624 21.614 47.894-12.828s14.696 24.654 40.441 22.601c25.753-2.052 36.244-19.569 36.244-19.569l-1.775-8.603-34.291 9.557-21.583-21.357 7.873-30.049 32.266-8.012-1.494-7.906s-29.58-20.622-57.766 17.905c0 0-7.46 14.498-6.243 22.629zm-6.177 1.809-7.657 2.006 5.954 21.943 8.077-1.993z" fill="#efefef"/><path d="m4.862 97.346-4.862 1.475 5.954 21.943 8.077-1.993-1.954-7.375-3.38.561zm14.195-3.881-5.223 1.541 5.624 21.614 47.894-12.828s13.267 21.247 33.337 22.497c20.05 1.237 35.922-8.604 43.348-19.465l-.809-3.966s-23.989 23.168-50.281 10.439c-16.55-8.853-22.326-18.912-22.326-18.912l-47.788 13.38zm105.976-53.004-28.219 7.341-2.546 8.571 32.265-8.012z" fill="#bcbcbc"/></svg>