<svg height="239" preserveAspectRatio="xMidYMid" viewBox="0 0 256 239" width="256" xmlns="http://www.w3.org/2000/svg"><path d="m119.540432 100.502743c-10.610308 17.836072-20.7758019 35.108712-31.1528295 52.250874-2.6649329 4.400698-3.9835608 7.984914-1.8543821 13.579692 5.877482 15.453843-2.4138599 30.492527-17.9981823 34.574935-14.6966704 3.851105-29.0157428-5.808289-31.9317488-21.54286-2.5838779-13.927635 8.2241255-27.580474 23.5791213-29.7571 1.2869966-.183856 2.5996935-.205603 4.7624804-.367713 7.524284-12.616916 15.2324247-25.540259 23.3577025-39.167398-14.6907395-14.6077072-23.4348037-31.6846293-21.4993665-52.8439598 1.3680517-14.9576283 7.2494876-27.8829486 18.0001593-38.477441 20.5899677-20.28749419 52.0017777-23.57319048 76.2451557-8.0007298 23.284555 14.9576282 33.948241 44.0939651 24.85821 69.0312533-6.854097-1.858336-13.755641-3.7324877-21.343187-5.790496 2.85472-13.8643731.743334-26.3152246-8.607655-36.9808874-6.177978-7.0419074-14.105561-10.7328791-23.120468-12.0930229-18.071329-2.7301725-35.8144847 8.8804739-41.0791111 26.6176984-5.9763297 20.1313149 3.0682314 36.575612 27.7841011 48.9671552z" fill="#c73a63"/><path d="m149.841194 79.4106285c7.47486 13.1862782 15.064384 26.5722285 22.586691 39.8356075 38.020765-11.762871 66.686587 9.283773 76.970697 31.817086 12.421198 27.218692 3.930183 59.456869-20.46542 76.249109-25.040089 17.239033-56.706926 14.293372-78.892296-7.850481 5.654087-4.732826 11.33585-9.487398 17.407074-14.566191 21.912549 14.192547 41.077134 13.524337 55.305267-3.281743 12.132562-14.336865 11.869627-35.71366-.614833-49.750028-14.408035-16.197178-33.707053-16.691416-57.035101-1.142679-9.677186-17.167862-19.522413-34.199314-28.893172-51.4917242-3.159171-5.8280582-6.648493-9.2086482-13.769479-10.442267-11.893351-2.0619623-19.571837-12.2749027-20.032467-23.7175081-.452722-11.3160803 6.213564-21.5448364 16.634085-25.5303742 10.321672-3.9479756 22.434465-.761127 29.377525 8.0145685 5.673856 7.1704094 7.476837 15.2403325 4.491637 24.0832444-.83032 2.4652607-1.905782 4.8514432-3.070208 7.7733801z" fill="#4b4b4b"/><path d="m167.706921 187.209935h-45.770422c-4.386859 18.043652-13.862396 32.611821-30.1900529 41.875824-12.6920398 7.200063-26.3725563 9.641601-40.9328169 7.291003-26.807486-4.323597-48.72794353-28.456265-50.65744989-55.631464-2.18453334-30.783139 18.97479719-58.146149 47.17801219-64.292497 1.9472989 7.071562 3.9143674 14.21034 5.8616664 21.26411-25.876341 13.202093-34.8319392 29.836178-27.5903595 50.635703 6.3756742 18.30461 24.4845659 28.337648 44.1473429 24.456889 20.0799141-3.961815 30.2038916-20.649277 28.9682958-47.431063 19.0360829 0 38.0879809-.197695 57.1260409.096871 7.433344.11664 13.172439-.654372 18.773148-7.207972 9.22051-10.784279 26.190677-9.811618 36.120913.373645 10.147701 10.408658 9.66137 27.157406-1.07744 37.127182-10.361212 9.619854-26.730385 9.105846-36.423386-1.25932-1.992769-2.137086-3.56247-4.673517-5.533492-7.298911z" fill="#4a4a4a"/></svg>