<svg height="254" preserveAspectRatio="xMidYMid" viewBox="0 0 256 253.9" width="256" xmlns="http://www.w3.org/2000/svg"><path d="m256 219.9v-186c0-18.7-15.2-33.9-33.9-33.9s-33.9 15.2-33.9 33.9v104.1l57.9 57.9c6.6 6.6 9.9 15.3 9.9 24z" fill="#2db2c4"/><path d="m104.7 101.2-37.6 37.5v81.9c0 9.4-3.8 17.8-9.9 24l71.5-71.4-24-24c-13.2-13.3-13.2-34.7 0-48z" fill="#e45026"/><path d="m188.8 138.7-37.4-37.4c13.2 13.2 13.2 34.7 0 48l-24 24 71.4 71.4c-6.1-6.1-9.7-14.8-9.9-24v-82z" fill="#694ea0"/><path d="m104 149.8 24 24 24-24c13.2-13.2 13.2-34.7 0-48-13.2-13.2-34.7-13.2-48 0-13.2 13.3-13.2 34.7 0 48z" fill="#801434"/><path d="m67.8 138c-15.4 15.4-30.8 30.8-46.2 46.2-6.8 6.8-15.7 13.5-19.1 22.9-4.4 10.9-2.8 23.6 4.3 33.1 7 9.4 19.4 15.2 31.2 13.4 11.4-1.8 21.4-8.3 26.5-18.9 2.6-5.4 3.6-10.8 3.4-17 0-11.1 0-22.1 0-33.2-.1-15.6-.1-31-.1-46.5z" fill="#d02f28"/><path d="m188.2 138v65.4c0 9.6-1.2 20.4 2.5 29.4 4.3 10.4 14.1 18.7 25.3 20.5 11.9 1.8 24-2.1 31.8-11.4 7.6-9 9.9-21.6 6.4-32.8-1.8-5.8-5.3-10.5-9.8-14.8-7.9-7.9-15.7-15.7-23.5-23.5-10.9-10.9-21.8-21.8-32.7-32.8z" fill="#263d81"/><path d="m67.8 138v-104.1c0-18.7-15.2-33.9-33.9-33.9s-33.9 15.2-33.9 33.9v186c0-8.7 3.3-17.4 9.9-24z" fill="#f99d22"/><g fill="#fff"><path d="m138.1 115.8c-5.5-5.5-14.6-5.5-20.1 0s-5.5 14.6 0 20.1 14.6 5.5 20.1 0 5.4-14.7 0-20.1z"/><circle cx="33.9" cy="33.9" r="14.2"/><circle cx="222.1" cy="33.9" r="14.2"/><circle cx="33.9" cy="219.9" r="14.2"/><circle cx="222.1" cy="219.9" r="14.2"/></g></svg>