<svg height="256" preserveAspectRatio="xMidYMid" viewBox="0 0 256 256" width="256" xmlns="http://www.w3.org/2000/svg"><circle cx="128" cy="128" fill="#fff" r="115.2"/><g fill="#3c790a"><path d="m128 256c70.692448 0 128-57.307552 128-128s-57.307552-128-128-128-128 57.307552-128 128 57.307552 128 128 128zm0-25.6c-56.5539584 0-102.4-45.846042-102.4-102.4 0-56.5539584 45.8460416-102.4 102.4-102.4 56.553958 0 102.4 45.8460416 102.4 102.4 0 56.553958-45.846042 102.4-102.4 102.4z"/><path d="m97.28 97.28c0-30.72 61.44-38.4 58.88-5.12 0 23.04-40.96 33.28-40.96 58.88v17.92h25.6v-10.24c0-23.04 43.52-30.72 43.52-69.12-5.12-56.32-115.2-56.32-115.2 7.68zm17.92 81.92h25.6v25.6h-25.6z"/></g></svg>