<svg height="192" preserveAspectRatio="xMidYMid" viewBox="0 0 256 192" width="256" xmlns="http://www.w3.org/2000/svg"><path d="m198.751242 31.3023697c-17.488149-19.230441-42.709803-31.3023697-70.751242-31.3023697-28.0414392 0-53.2630931 12.0719287-70.7512417 31.3023697zm-141.5024837 128.6066353c17.4881486 19.230453 42.7098025 31.302369 70.7512417 31.302369 28.041439 0 53.263093-12.071916 70.751242-31.302369zm-14.7843033-120.4777254c-23.4527303 0-42.464455 19.0116762-42.464455 42.464455v27.4199054c0 23.452779 19.0117247 42.464455 42.464455 42.464455h171.07109c23.45273 0 42.464455-19.011676 42.464455-42.464455v-27.4199054c0-23.4527788-19.011725-42.464455-42.464455-42.464455zm209.167772 41.9791469c0-20.7724466-16.838927-37.6113744-37.611374-37.6113744h-42.464455c-20.772447 0-37.611374 16.8389278-37.611374 37.6113744v28.5118485c0 20.772447-16.838928 37.611374-37.6113747 37.611374h117.6872037c20.772447 0 37.611374-16.838927 37.611374-37.611374zm-147.533649 2.5478673v40.1592422h12.132702v-40.1592422zm-1.21327-12.6786729c0 3.9869755 3.231994 7.2189573 7.218957 7.2189573 3.986964 0 7.218958-3.2319818 7.218958-7.2189573 0-3.9869756-3.231994-7.2189574-7.218958-7.2189574-3.986963 0-7.218957 3.2319818-7.218957 7.2189574zm-80.9251184-5.7630332 15.6511848 58.6009483h10.0701422l11.7687204-40.5232232 11.7687203 40.5232232h10.4341233l15.4085308-58.6009483h-11.7687204l-8.9781991 38.5819903-11.1620853-38.5819903h-10.7981042l-11.1620853 37.6113743-8.492891-37.6113743zm131.2758294 0v58.6009483h12.860663v-22.930806h29.118484v-11.8900475h-29.118484v-11.8900474h31.059716v-11.8900474zm52.655924 18.4417061v40.1592422h12.132702v-40.1592422zm-1.091943-12.8c0 3.9869756 3.231994 7.2189574 7.218957 7.2189574 3.986964 0 7.218958-3.2319818 7.218958-7.2189574 0-3.9869755-3.231994-7.2189573-7.218958-7.2189573-3.986963 0-7.218957 3.2319818-7.218957 7.2189573z" fill-rule="evenodd"/></svg>