<svg height="174" preserveAspectRatio="xMidYMid" viewBox="0 0 512 174" width="512" xmlns="http://www.w3.org/2000/svg"><path d="m198.232009 108.466571c0 29.008555-23.359206 52.607167-52.394532 52.607167-11.694901 0-22.605042-3.875609-31.353654-10.344901 9.781955-11.374419 15.605694-26.124986 15.605694-42.262266l.021416-83.7099424c0-13.6506797-11.115892-24.7566286-24.77881-24.7566286-13.6629172 0-24.7788094 11.1059489-24.7788094 24.7566286l-.0214165 83.7099424c0 16.13728 6.2153541 30.887847 15.9973086 42.262266-8.7486118 6.469292-19.6587533 10.344901-31.3544189 10.344901-29.0345606 0-52.7853818-23.598612-52.7853818-52.607167v-102.11889402h-12.389405v102.11889402c0 35.831983 29.4391781 64.985098 65.30558 64.985098 15.2064304 0 29.308385-5.27915 40.396742-14.046883 11.087592 8.767733 24.864475 14.046883 40.070141 14.046883 35.866402 0 64.848951-29.153115 64.848951-64.985098v-102.11889402h-12.389405zm-92.921302 33.829546c-7.7175636-9.153994-12.3894049-20.951387-12.3894049-33.829546l.0214164-83.7099424c0-6.8264872 5.5575637-12.3779319 12.3894045-12.3779319 6.831077 0 12.389405 5.5514447 12.389405 12.3779319l-.021416 83.7099424c0 12.878159-4.671841 24.675552-12.389405 33.829546zm142.499727 27.876773h12.389404v-164.16076259h-12.389404zm120.858041-167.02283904c-24.448385 0-46.059858 12.35957494-58.911246 31.15096284v-28.28804503h-12.389405v164.15999823h12.389405v-95.7773361h.006884c0-32.4466569 26.42405-58.843937 58.904362-58.843937zm31.981385 140.82526804 51.266345-51.2663455 60.083795-60.0845603c-1.342351-1.5511614-2.746657-3.0671387-4.219802-4.5402832-33.210764-33.2107645-87.249007-33.2107645-120.459772 0-33.210764 33.2107645-33.210764 87.249008 0 120.459772 33.206176 33.206175 87.232946 33.210765 120.44524.014533l-8.76085-8.76085c-26.90592 26.889858-69.792322 28.279631-98.354956 4.177734zm-4.568584-107.1303392c26.905156-26.90439067 69.801501-28.29875327 98.369489-4.1922663l-102.561755 102.5617555c-24.106487-28.567989-22.712125-71.4650986 4.192266-98.3694892z"/></svg>