<svg height="300" preserveAspectRatio="xMidYMid" viewBox="0 0 256 300" width="256" xmlns="http://www.w3.org/2000/svg"><path d="m226.360754 2.13841511c-3.802601 0-7.595182-.01002003-11.392773-.01002003-9.008006-.02004006-17.31962 6.86872991-23.677329 12.33215072-6.189873 5.3206355-11.492973 11.7685241-16.555593 18.1713227-1.81613-4.9824594-4.203402-9.8772436-6.680854-14.3461766-3.246489-6.3727385-9.614218-12.51752127-16.743469-14.00299058-3.609715-.7590172-7.655302-.38827612-11.320127-.38827612-3.178855-.01002003-12.204396 0-12.204396 0s-9.038066-.01002003-12.21191 0c-3.669836 0-7.705402-.37074108-11.320128.38827612-7.1292506 1.48546931-13.4969791 7.63025208-16.7409635 14.00299058-2.4799572 4.468933-4.8697341 9.3637172-6.6808543 14.3461766-5.0626197-6.4027986-10.3682251-12.8506872-16.558098-18.1713227-6.3602135-5.46342081-14.6643126-12.35219078-23.6798337-12.33215072-3.797591 0-7.595182.01002003-11.392773.01002003-5.4258458.00751502-10.8441765.01503004-16.2750322.02505007-3.95039646.01753505-12.70038683-1.02204296-10.62874583 5.40831068.50100146 1.55811452 2.26953658 2.95590854 3.27153949 4.25099734 1.14228331 1.4829643 2.28456662 2.9784536 3.27404449 4.5716382 1.57815455 2.5250474 3.10871405 5.1102149 4.58917335 7.7079074 3.5571103 6.2775482 6.555604 12.9007874 10.0876642 19.2109007 7.7730375 13.9203253 16.0871566 27.5200098 26.1322358 39.9398358 7.4198315 9.1608115 16.3802425 18.4092987 27.4674046 22.9558867-8.3692293 15.556095-16.7058934 31.134735-25.0475676 46.703355-7.226946 13.464414-14.4488819 26.858688-22.066609 40.107672-.3657311.646291-.7464922 1.280058-1.0896782 1.928855-.9994979 1.886271-2.429857 4.521538-2.419837 6.690874.0075151 4.301098 6.3902736 4.428853 9.4463824 4.448893 3.2940846.02004 6.5981891-.07014 9.8947787-.102705 5.7289516-.06513 11.4604082-.14028 17.1868548-.197895 3.3917799-.037576 6.8386699.09519 10.2154196-.227956 8.592175-.826653 16.4503827-5.12274 21.5205174-12.159305 1.6432848-2.289577 17.0490795-27.557585 23.2840425-37.76549 2.354707-3.865226 9.741973-15.415815 9.741973-15.415815s7.377247 11.550589 9.736964 15.415815c6.229953 10.207905 21.640757 35.475913 23.281537 37.76549 5.075145 7.036565 12.925837 11.332652 21.520517 12.159305 3.379255.323146 6.821135.19038 10.212915.227956 5.723942.057615 11.455398.132765 17.18936.197895 3.296589.032565 6.598189.122745 9.897284.102705 3.048593-.02004 9.441372-.147795 9.446382-4.448893.012525-2.169336-1.412824-4.804603-2.427352-6.690874-.345691-.648797-.721442-1.282564-1.087173-1.928855-7.610212-13.248984-14.834653-26.643258-22.056589-40.107672-8.351694-15.56862-16.688359-31.14726-25.065103-46.703355 11.092172-4.546588 20.052583-13.7950752 27.472415-22.9558867 10.055099-12.419826 18.359198-26.0195105 26.137246-39.9398358 3.52705-6.3101133 6.525543-12.9333525 10.090169-19.2109007 1.480459-2.5976925 3.006009-5.18286 4.589173-7.7079074.984468-1.5931846 2.129256-3.0886739 3.269035-4.5716382 1.012023-1.2950888 2.768033-2.69288282 3.276549-4.25099734 2.064126-6.43035364-6.673339-5.39077563-10.623736-5.40831068-5.43336-.01002003-10.859206-.01753505-16.285052-.02505007z" fill="#f9c638"/><g fill="#2a2d2c"><path d="m146.608838 37.9550089c.839177-.1252503 1.570639-.2555107 1.733465-.2955908.804107-.1653305 1.59569-.4033062 2.352202-.681362 2.084166-.7264521 3.369234-1.6983949 4.293582-2.4373721.706412-.5385765 1.237474-1.1497983 1.420339-1.5255494-5.030054.0926853-8.77504.0651302-11.249987-.1277553-.673847-.1027053-1.164829 1.6407797-1.487975 5.1603149-.03507.2705408 1.58567.0926853 2.938374-.0926853"/><path d="m132.786208 62.5491702h-.007515.01002zm-10.753996 0h-.002505-.012525zm-.816633-1.1447883c-.062625.0751502-.097695.1603205-.097695.2605208 0 .0951903.052605.2129256.142785.2855708.237976.2079156.483467.4233462.769038.5986967 1.465429 1.017033 3.266529 1.5531045 5.370735 1.5831646 2.141781-.0300601 3.840176-.5335665 5.385766-1.5831646.265531-.1703404.541081-.360721.804107-.5986967.190381-.1603205.278056-.4058112.140281-.5686366-.140281-.1528055-.385772-.1978956-.643787-.0125251-.237976.1953906-.478457.3832661-.718937.5410816h-.007515c-1.42034.9594178-2.988474 1.4178341-4.959915 1.4503992-1.933865-.0325651-3.604705-.5210415-4.942379-1.4478942 0-.002505-.00501-.002505-.012525-.002505-.240481-.1628255-.460922-.355711-.676352-.5410816-.165331-.1402804-.408316-.1352704-.553607.0350701z"/><path d="m143.254633 58.0476722c-.02004-.0275551-.037575-.1077153-.047595-.1252504 0 0 .03006.0826653.057615.1277554-.00501-.002505-.007515-.002505-.01002-.002505zm11.846179-14.0606058c-.586171-1.1623233-1.229958-2.0065108-1.92134-2.5150273-2.229457-1.6482947-5.618731-1.6608198-7.635262.320641-.939378.9243477-1.62575 2.0490959-2.149296 3.2565094-1.169839 2.7304579-2.044086 5.8266469-1.851201 8.8351606.097695 1.360219.568637 2.7705381 1.52555 3.7650259 1.144788 1.2174336 2.795588 1.69589 4.388772 2.0190359 1.58066.3256509 3.424345.5736467 4.9023-.2104206 1.703404-.9193377 2.419837-3.0185338 2.890778-4.7394738.598697-2.2169314 1.157313-4.5866683.929358-6.9038-.125251-1.2775537-.503507-2.6728427-1.079659-3.8276511z"/></g><path d="m149.524666 49.6007877c1.262524-.4233462 2.086671-.6613219 2.449897-.688877-1.79108.1327654-2.715427-.5936867-2.880758-2.1543062l-.333166-3.2514995c-.1002 2.0891761-.330661 3.424345-.794087 4.113222-.303106.4283562-.556112.7264521-.859218.8592175l-1.062123.3356709c-.425851.1252504-.864227.2680358-1.219938.2680358 1.9514-.1703405 3.006008.328156 3.168834 1.4078141.275551 1.5706395.435871 2.5926825.566132 3.0911789.03507-2.424847.365731-3.7349658.964427-3.9804565" fill="#fff"/><path d="m151.909433 54.4329467-.197895-2.0115208c-.067636 1.2900787-.197896 2.1142261-.465932 2.5475924-.162825.2379757-.363226.4333662-.566131.5410815l-.626252.1903806c-.268036.0651302-.528557.1653305-.761522.1653305 1.184868-.1002003 1.853705.1953905 1.983965.8592175.132766.9644278.268036 1.6232447.335671 1.8887754 0-1.4929843.200401-2.2795566.593687-2.417332.766532-.2630257 1.260019-.4308612 1.490479-.4308612-1.094688.0726452-1.685869-.3957912-1.78607-1.3326639" fill="#fff"/><path d="m111.082825 38.0476942c-.343186-3.5195352-.829158-5.2630202-1.495489-5.1603149-2.482463.1928855-6.219934.2204406-11.2575031.1277553.1803605.3757511.7239471.9869729 1.4178341 1.5255494.931863.7389772 2.204406 1.71092 4.296087 2.4373721.769038.2780558 1.553105.5160315 2.349697.681362.165331.0400801.901803.1703405 1.738475.2955908 1.347694.1853706 2.968434.3632261 2.950899.0926853" fill="#2a2d2c"/><path d="m111.481121 58.0501772c.02004-.0450901.052605-.1277554.052605-.1277554-.002505.0175351-.032565.0976953-.04509.1252504 0 0-.007515 0-.007515.002505zm-12.9208274-10.2354597c-.2304607 2.3171317.3256509 4.6868686.9318627 6.9038.4634263 1.72094 1.1798587 3.8201361 2.8857687 4.7394738 1.482964.7840673 3.331659.5360715 4.899794.2104206 1.590679-.3231459 3.246489-.8016023 4.393783-2.0190359.956912-.9944878 1.427854-2.4048069 1.525549-3.7650259.192886-3.0085137-.678857-6.1047027-1.85621-8.8351606-.516032-1.2074135-1.202404-2.3321617-2.149297-3.2565094-2.00651-1.9814608-5.390775-1.9689357-7.630252-.320641-.693887.5085165-1.332664 1.352704-1.9088153 2.5150273-.5836667 1.1548084-.9744478 2.5500974-1.0921831 3.8276511z" fill="#2a2d2c"/><path d="m105.213593 49.6007877c-1.260019-.4233462-2.084166-.6613219-2.447392-.688877 1.788575.1327654 2.720438-.5936867 2.880758-2.1543062l.330661-3.2514995c.097695 2.0891761.328156 3.424345.801602 4.113222.295591.4283562.558617.7264521.849198.8592175l1.064628.3356709c.433366.1252504.859217.2680358 1.224948.2680358-1.9514-.1703405-3.008513.328156-3.171339 1.4078141-.273046 1.5706395-.440881 2.5926825-.568636 3.0911789-.032565-2.424847-.365731-3.7349658-.964428-3.9804565" fill="#fff"/><path d="m102.828826 54.4329467.202906-2.0115208c.06513 1.2900787.202905 2.1142261.465931 2.5475924.162825.2379757.363226.4333662.558616.5410815l.628757.1903806c.268036.0651302.528557.1653305.764028.1653305-1.194889-.1002003-1.858716.1953905-1.986471.8592175-.132766.9644278-.270541 1.6232447-.333166 1.8887754 0-1.4929843-.202906-2.2795566-.596192-2.417332-.761522-.2630257-1.260019-.4308612-1.492984-.4308612 1.094688.0726452 1.693385-.3957912 1.788575-1.3326639" fill="#fff"/><path d="m29.6625738 195.3371c-.5010014.949398-1.0921832 2.056611-1.5480945 3.168834-.4659313 1.102204-.7815622 2.221942-.7815622 3.118734v.01503c.01503.859218.3006008 1.407815.7990973 1.898796.5010014.478456 1.2725437.856712 2.1768513 1.122243 1.8261503.521042 4.1232419.576152 5.6337613.583667.338176.007515.678857.007515 1.012023.007515 2.9433835 0 5.9043021-.082665 8.8727357-.11022 5.7264466-.065131 11.4654182-.132766 17.1868548-.197896.5986967 0 1.1948885-.00501 1.7885752-.00501.711422 0 1.4153291.00501 2.1142261.00501 2.1067111 0 4.2008972-.03006 6.2424781-.227956 8.3667243-.801602 15.9844514-4.977449 20.9168107-11.818624.373246-.503506 1.6558098-2.542582 3.4218399-5.380755 1.7710401-2.840679 4.0531015-6.530554 6.4679285-10.473436 4.834664-7.873238 10.24548-16.753488 13.361709-21.848673 2.369737-3.885266 9.736963-15.420825 9.741973-15.42834.152806-.235471.423346-.393286.716432-.393286.285571 0 .553607.157815.703907.393286.002505.002505 7.387267 11.543074 9.754499 15.42834 4.669333 7.650292 14.506497 23.782539 19.822122 32.322109 1.76603 2.838173 3.051099 4.877249 3.424345 5.380755 4.919834 6.841175 12.542571 11.017022 20.914306 11.818624 2.039076.197896 4.138272.227956 6.237468.227956.703907 0 1.407814-.00501 2.116731-.00501.593687 0 1.189878.00501 1.79108.00501 5.721437.06513 11.452893.132765 17.18936.197896 2.965928.027555 5.924342.11022 8.867726.11022.333166 0 .673847 0 1.012023-.007515 1.129758-.007515 2.705407-.027555 4.195887-.273046 1.495489-.227956 2.868233-.711422 3.61222-1.432864.501002-.490981.784067-1.039578.799097-1.898796v-.02505c0-.896792-.31563-2.014025-.769037-3.118734-.458416-1.102203-1.054608-2.209416-1.558114-3.146289-.338176-.633767-.703907-1.262523-1.072143-1.898795-7.615222-13.264014-14.852188-26.673318-22.069114-40.137732-8.356705-15.56361-16.685854-31.154775-25.062598-46.70586-.11022-.205411-.13527-.463426-.047595-.683867.07515-.230461.255511-.410821.470941-.498496 10.864217-4.441378 19.749477-13.5871598 27.131734-22.6978713 10.017524-12.3722308 18.294068-25.9243201 26.05959-39.8271104 2.675348-4.7870689 5.060115-9.7745384 7.635263-14.6868576-4.92234 7.8231377-12.126741 15.526035-21.490458 23.093662-12.31211 9.9223337-33.233931 19.7169121-62.552536 29.2835349-28.279027 9.2409717-49.060567 19.9598974-62.4222761 32.2845334-6.3276483 5.766527-10.7865612 9.764518-13.3617087 11.88626-.5911817.603706-3.4093149 3.549595-8.3316542 9.002996-5.9744423 6.718429-12.3071006 14.751987-18.9178148 24.105685-2.5075123 3.549595-4.6392735 6.575644-6.4704338 9.188366-4.7895739 8.840171-9.6417729 17.652786-14.6643125 26.392757-.365731.636272-.7314621 1.265028-1.0721431 1.88627" fill="#fff"/><path d="m251.841688 7.11335953c-.12525.4158312-.551102 1.03957801-1.139778 1.68837489-.581162.65631191-1.282564 1.33266388-1.886271 2.10170108l-.01002.01002c-1.139778 1.4854694-2.317132 3.0160288-3.354205 4.6968887l.007515-.0100201c-1.600699 2.5475924-3.138774 5.150295-4.621738 7.7655225-3.61222 6.3577085-6.613219 12.9834527-10.097684 19.2159108-7.758008 13.8902652-16.022027 27.4122944-25.996966 39.7294151-7.357206 9.0956814-16.179842 18.1437675-26.873718 22.5125005-.388276.157815-.696392.483466-.839177.879257-.142785.398297-.107715.839178.09018 1.212424 8.371735 15.556095 16.705894 31.134735 25.065103 46.70586 7.216926 13.464414 14.456397 26.873718 22.074124 40.145247l-.002505-.01002c.370741.658817.733967 1.285068 1.069638 1.89629.503507.941883 1.087173 2.026551 1.528055 3.093684.443386 1.057113.726452 2.109216.721442 2.863223v.03006c-.02004.698898-.205411 1.034568-.586172 1.422845-.573647.573646-1.84619 1.049598-3.27655 1.267533-1.430359.227956-2.970938.255511-4.095686.265531h-1.119739c-2.898293 0-5.816627-.07515-8.755-.102705-5.733962-.07014-11.460408-.145291-17.18936-.197896-.521041-.01002-1.034568-.012525-1.555609-.012525-.811623 0-1.618235.00501-2.424847.00501-2.074146 0-4.120737-.027555-6.107208-.217935-8.183859-.789078-15.633751-4.87224-20.445869-11.543074-.160321-.222946-.586172-.871742-1.169839-1.79108-4.118232-6.480454-16.595673-26.953878-22.051579-35.879219-2.377252-3.900296-9.749488-15.43335-9.751993-15.44337-.273046-.428356-.748997-.688877-1.260019-.688877-.511021 0-.986973.260521-1.262523.688877-.007515.01002-7.377247 11.543074-9.759509 15.44337-3.111219 5.1027-8.527044 13.970425-13.359203 21.846168-2.417332 3.940377-4.694384 7.627747-6.4629191 10.470931-.8817626 1.425349-1.6432848 2.640277-2.2294565 3.56212-.5811617.919338-1.0095179 1.568134-1.1698384 1.793585-4.8046039 6.668329-12.2570005 10.751491-20.4458693 11.540569-1.9839657.19038-4.0280516.217935-6.1072077.217935-.8066123 0-1.6157297-.00501-2.424847-.00501-.5185365 0-1.034568.002505-1.5581145.012525-5.7289516.052605-11.4579032.127756-17.1868548.197896-2.9358686.027555-5.856707.102705-8.7550004.102705h-1.1172333c-1.5004993-.007515-3.7550059-.067635-5.4534008-.563627-.8517024-.237975-1.5280544-.591181-1.9138255-.969437-.3807611-.388277-.5636267-.718937-.5836667-1.427855v-.02505c-.00501-.754007.2730458-1.80611.7214421-2.865728.4408812-1.067133 1.0195379-2.151801 1.5180344-3.091179.3231459-.606212.696392-1.232463 1.0721431-1.89629l-.00501.01002c7.6252421-13.271529 14.8622081-26.680833 22.086649-40.150257 8.3491892-15.566115 16.6808434-31.144755 25.0475676-46.70085.2004006-.373246.2329657-.814127.0926853-1.212424-.1452904-.395791-.4509013-.721442-.8416825-.879257-10.691371-4.368733-19.5140065-13.4168191-26.8737179-22.5125005-9.9624138-12.3196257-18.2364528-25.8391499-25.9869453-39.7269101-3.4919801-6.2349631-6.4904738-12.8607073-10.0976843-19.2184158-1.4829643-2.6152275-3.0285538-5.2204351-4.6217384-7.7630175l.00501.0050101c-1.03957798-1.6758499-2.20941637-3.2089143-3.3567097-4.6968887-.60370675-.7765522-1.3101188-1.45791419-1.8962905-2.11422609-.58366669-.64629187-1.01703294-1.26753368-1.13476829-1.68336488-.18036052-.5511016-.24549071-.98446786-.24549071-1.30510878.01002003-.51853651.12775537-.74649217.31563092-.98697287.28306582-.35320602 1.00951792-.73146212 2.06663099-.93687271 1.04959804-.21543063 2.34969681-.27805581 3.62474551-.27805581 1.18987848 0 2.34719178.05010015 3.32664968.05010015h.1177353c5.4283507-.01002003 10.8466814-.01503005 16.2725272-.02505008 3.795086 0 7.597687-.00751502 11.390268-.00751502h.0425851c4.1082119-.002505 8.1788487 1.58316459 12.0390649 3.90530632 3.8552062 2.31713172 7.4599117 5.34568547 10.6187258 8.06612337 6.0621176 5.2054051 11.3126128 11.5756386 16.3602024 17.9659121.338176.4258512.8767526.6387769 1.4128241.5485966.5360716-.0851703.9794579-.4534063 1.1648284-.9644278 1.7760502-4.8847642 4.133262-9.7119132 6.5856641-14.133251l.0275551-.0475951c3.0510988-6.0445825 9.2184267-11.89878451 15.7139106-13.21641833 1.673345-.35070102 3.509515-.4483963 5.408311-.4483963 1.848695 0 3.744985.09018026 5.606206.09018026 1.054608-.002505 2.768033-.002505 4.576648-.002505 3.614726 0 7.622737.002505 7.632757.002505s4.015527-.002505 7.630252-.002505c1.808616 0 3.517031 0 4.569134.002505 1.86623 0 3.762521-.09018026 5.616226-.09018026 1.893785 0 3.737471.09769528 5.400796.4483963 6.495483 1.31763382 12.667821 7.17183583 15.721425 13.21641833l.02505.0475951c2.452402 4.4213378 4.802099 9.2484868 6.583159 14.133251.185371.5110215.633767.8792575 1.169839.9644278.536071.0901803 1.072143-.1227454 1.412824-.5485966 5.045084-6.3902735 10.29558-12.763012 16.350182-17.9659121 3.166329-2.7204379 6.771035-5.74899165 10.626241-8.06612337 3.857711-2.32214173 7.933358-3.90781132 12.039065-3.90530632h.04008c3.795086 0 7.590172.00751502 11.392773.00751502 5.420836.01002003 10.849187.01503005 16.282547.02505008h.115231c.976952 0 2.136771-.05010015 3.324144-.05010015 1.698395-.00751502 3.454405.12274536 4.561618.53356655.556112.20040058.926853.44589129 1.122244.68136197.192885.2404807.305611.46843636.315631.98697287 0 .32064092-.065131.7590172-.240481 1.30510878zm2.196891-4.23847229c-.999498-1.14478832-2.367232-1.63576974-3.739976-1.92134057-1.385269-.28306582-2.845688-.33817598-4.215927-.33817598-1.270038 0-2.452402.05260515-3.324144.05260515h-.112726c-5.430855-.01002003-10.859206-.01503004-16.285052-.02505007-3.800096 0-7.592677-.01002003-11.392773-.01002003h.007515l-.047595-.00250501c-4.884764.00501002-9.456402 1.85621039-13.582149 4.33616758-4.125747 2.4849672-7.843178 5.62374129-11.029547 8.35670419-5.658812 4.8722392-10.531051 10.6087058-15.132749 16.3627075-1.69589-4.2259473-3.717431-8.3341592-5.824142-12.1267402-3.44188-6.6833594-9.997484-13.09116794-17.747977-14.74196773-1.983965-.4158312-4.018031-.50851647-6.012017-.50851647-1.943886 0-3.850196.08767525-5.608711.08767525-1.054608-.002505-2.765528-.002505-4.576649-.002505-3.61723 0-7.630252.002505-7.630252.002505.002505 0-4.015526-.002505-7.632757-.002505-1.81112 0-3.52204 0-4.584163.002505-1.75601 0-3.657311-.08767525-5.598691-.08767525-1.996491 0-4.028052.09268527-6.022038.51102148-7.7655223 1.65330479-14.3311464 8.08365842-17.7680163 14.78705792h.002505c-2.0941861 3.7775509-4.113222 7.8682278-5.8015969 12.079145-4.5991933-5.7540017-9.4714324-11.4954784-15.1302438-16.3627075-3.1838643-2.7329629-6.901295-5.87173699-11.027042-8.35670419-4.128252-2.47995719-8.6973852-4.33115756-13.5846544-4.33616758l-.0801602.00250501c-3.785066 0-7.575142.01002003-11.3551979.01002003-5.4283508.01002003-10.8466815.01503004-16.2775372.02505007h-.1102203c-.8767526 0-2.061621-.05260515-3.32664968-.05260515-1.82364529.00501002-3.81512606.08767525-5.57364116.70641205-.88176256.31563091-1.72595001.78907729-2.38977693 1.5531045-.66132192.75651219-1.04709303 1.81112025-1.034568 2.93336351 0 .70390704.13527039 1.44037917.38076111 2.21943643.38326611 1.14228331 1.08967815 2.00150082 1.75601009 2.76552802.68136197.7540072 1.35771393 1.4203391 1.7610201 1.9463906 1.13977831 1.4729443 2.24448651 2.9308585 3.18135922 4.4463879l.00250501.002505c1.57063956 2.5050073 3.09618894 5.0726397 4.55660824 7.6527972 3.5195352 6.197388 6.5155239 12.8181222 10.0876642 19.2033857 7.7905726 13.9503854 16.1447718 27.6252201 26.2725162 40.1477514 7.1543007 8.8176256 15.7965758 17.790562 26.570612 22.690356-8.1212335 15.102689-16.212407 30.217902-24.3060854 45.323096-7.221936 13.464414-14.4413669 26.846163-22.044064 40.070096l-.002505.00501c-.355711.623747-.7414821 1.272544-1.1097182 1.971441-.4959914.931863-1.1272533 2.094186-1.6457898 3.349195-.5110214 1.255008-.9418827 2.597692-.9468927 4.008011v.062626h.002505c-.00501 1.437874.6062118 2.717932 1.5055094 3.554605 1.3702389 1.280059 3.1588141 1.76603 4.8647241 2.059116 1.7109199.270541 3.3942848.290581 4.5541032.295591.3782561.002505.7615222.00501 1.1347683.00501 2.9508985 0 5.881757-.07515 8.7875654-.102706 5.7364667-.06513 11.4654183-.14529 17.1868549-.197895.5110215-.00501 1.0120229-.007515 1.5255494-.007515.8016023 0 1.6107197.002505 2.424847.002505 2.0991961 0 4.2459873-.02505 6.3927786-.232966 8.997986-.864227 17.256995-5.375745 22.5876504-12.775537.2580158-.353206.668837-.994488 1.2700387-1.933865 4.1558073-6.540574 16.6232283-26.988949 22.0791343-35.92431 1.167333-1.913825 3.604705-5.766526 5.743981-9.135761 1.039578-1.633265 1.998996-3.146289 2.722943-4.278553.721442 1.132264 1.68086 2.645288 2.720438 4.278553 2.139276 3.369235 4.571638 7.221936 5.743982 9.135761 3.111219 5.105205 8.522035 13.975436 13.359204 21.856189 2.419837 3.940376 4.696888 7.632757 6.472938 10.48596.886773 1.427854 1.6508 2.645288 2.241982 3.582161.598697.939377 1.012023 1.578154 1.265028 1.93136 5.338171 7.402297 13.594675 11.913815 22.587651 12.778042 2.151801.207916 4.296087.232966 6.395284.232966.816632 0 1.623244-.002505 2.424847-.002505.513526 0 1.017032.002505 1.523044.007515 5.721437.052605 11.452893.132765 17.18936.197895 2.908313.027556 5.836667.102706 8.787565.102706.375751 0 .759017-.002505 1.134769-.00501 1.553104-.01503 4.010516-.032565 6.270033-.676352 1.129758-.328156 2.244486-.816633 3.148794-1.67585.914328-.844188 1.533064-2.136771 1.513024-3.589676v-.03006c-.002505-1.410319-.430861-2.753003-.944387-4.010516-.523547-1.255009-1.154809-2.419837-1.658315-3.35671-.365731-.683867-.746492-1.330159-1.104708-1.961421l-.002505-.00501c-7.597688-13.223933-14.817118-26.605682-22.034044-40.070096-8.103699-15.105194-16.197377-30.220407-24.318611-45.323096 10.774036-4.899794 19.416311-13.8727304 26.568107-22.687851 10.13526-12.5250363 18.484449-26.199871 26.282536-40.1502564 3.569636-6.3852635 6.563119-13.0059977 10.08516-19.2033857 1.465429-2.5801575 2.983463-5.1477899 4.554103-7.6477871l.007515-.0125251c.931863-1.5080144 2.044086-2.9684336 3.178854-4.4488929l-.007515.01002c.410821-.5285565 1.089678-1.1973934 1.76603-1.9514006.668837-.7640272 1.372744-1.62073971 1.753505-2.75801301.250501-.78406727.383266-1.5205394.383266-2.22444644.01503-1.12224326-.370741-2.17434631-1.034568-2.93336351z" fill="#2a2d2c"/><g transform="translate(23.034325 219.432765)"><path d="m119.631632 1.77605015c-4.070637 2.13426619-5.588671 5.73646663-5.588671 15.68635545 0 0 2.061621-1.9939858 5.120234-3.101199 2.226952-.8091173 4.130757-2.0365709 5.232961-2.8431832 3.439375-2.52003731 3.970436-5.76652673 3.970436-11.22744256 0 0-5.608711-.15280544-8.73496 1.48546931" fill="#f9c638"/><g fill="#2a2d2c"><path d="m95.4883718 4.10821191c-3.3191346 2.92584848-4.2910774 7.59017199-4.2910774 7.59017199l-10.9894669 42.5826185-9.1432765-34.8496611c-.8892775-3.7049057-2.4949872-8.286564-5.0325596-11.38275297-3.2364693-3.94789144-9.8121134-4.19338215-10.5110104-4.19338215-.7014021 0-7.2770461.24549071-10.5110105 4.19338215-2.5400774 3.09618897-4.145787 7.67784727-5.0350646 11.38275297l-9.1407715 34.8496611-10.9919719-42.5826185s-.9694378-4.66432351-4.2885724-7.59017199c-5.3832606-4.74698876-13.45689902-3.72995581-13.45689902-3.72995581l21.04707102 79.5815757s6.9438801.4984965 10.4183252-1.2725437c4.5641232-2.3246467 6.7359645-4.1207369 9.4989875-14.9473783 2.4624222-9.654298 9.3461821-38.0084752 9.987464-40.0275111.3181359-.9969928.7214421-3.3817598 2.4724422-3.3817598 1.7910802 0 2.1593162 2.3822619 2.4724421 3.3817598.6312619 2.0215409 7.5250418 30.3732131 9.987464 40.0275111 2.760518 10.8266414 4.9348643 12.6227316 9.4964825 14.9473783 3.4744451 1.7710402 10.4183252 1.2725437 10.4183252 1.2725437l21.0470712-79.5815757s-8.071134-1.01703295-13.4543942 3.72995581"/><path d="m128.361582 13.3717288s-1.317634 2.0340659-4.321137 3.7149257c-1.928856 1.0771532-3.780056 1.8086153-5.766527 2.760518-3.329155 1.5981947-4.230957 3.3767498-4.230957 6.0921777v54.0204816s5.310615.671342 8.78506-1.0996982c4.473943-2.2795566 5.500996-4.4764479 5.538571-14.3737316v-48.2339149h-.00501z"/><path d="m180.826454 40.360677 26.703378-39.71939514s-11.270028-1.91883556-16.851184 3.16131916c-3.569636 3.25149943-7.565122 9.09568138-7.565122 9.09568138l-9.824639 14.1658161c-.475951.7364721-1.102203 1.5380744-2.096691 1.5380744-.996993 0-1.620739-.8016023-2.096691-1.5380744l-9.827143-14.1658161s-3.992982-5.84418195-7.565122-9.09568138c-5.581156-5.08015472-16.851184-3.16131916-16.851184-3.16131916l26.705882 39.71939514-26.635742 39.5991548s11.738464 1.4804593 17.317115-3.5996954c3.572141-3.2489944 7.029051-8.5345598 7.029051-8.5345598l9.827143-14.165816c.475952-.7364722 1.099698-1.5380745 2.096691-1.5380745.994488 0 1.62074.8016023 2.096691 1.5380745l9.824639 14.165816s3.659815 5.2855654 7.231956 8.5345598c5.581156 5.0801547 17.114209 3.5996954 17.114209 3.5996954z"/></g></g></svg>