<svg height="153" preserveAspectRatio="xMidYMid" viewBox="0 0 256 153" width="256" xmlns="http://www.w3.org/2000/svg"><path d="m23.7586644 0h208.3787736c13.187205 0 23.862562 10.6753566 23.862562 23.8625617v79.5418723c0 13.187205-10.675357 23.862562-23.862562 23.862562h-74.727496l10.256715 25.118486-45.108614-25.118486h-98.6947182c-13.1872052 0-23.86256176-10.675357-23.86256176-23.862562v-79.5418723c-.10466036-13.0825448 10.57069616-23.8625617 23.75790136-23.8625617z" fill="#9b5c8f"/><path d="m14.5781994 21.7495935c1.4569105-1.9772358 3.6422764-3.0178862 6.5560975-3.2260163 5.3073171-.4162601 8.3252033 2.0813008 9.0536586 7.492683 3.2260162 21.7495935 6.7642276 40.1691057 10.5105691 55.2585365l22.7902439-43.3951219c2.0813008-3.9544715 4.6829268-6.0357724 7.804878-6.2439024 4.5788618-.3121952 7.3886179 2.601626 8.5333333 8.7414634 2.6016261 13.8406504 5.9317074 25.6 9.8861789 35.5902439 2.7056911-26.4325204 7.2845529-45.4764228 13.7365853-57.2357724 1.560976-2.9138211 3.850407-4.3707317 6.868293-4.5788618 2.393496-.2081301 4.578862.5203252 6.556097 2.0813008 1.977236 1.5609757 3.017886 3.5382114 3.226017 5.9317074.104065 1.8731707-.208131 3.4341463-1.040651 4.9951219-4.058536 7.4926829-7.388618 20.0845529-10.094309 37.5674797-2.601626 16.9626016-3.538211 30.1788618-2.913821 39.6487807.20813 2.601626-.20813 4.891057-1.24878 6.868292-1.248781 2.289431-3.121952 3.538212-5.5154476 3.746342-2.705691.20813-5.5154471-1.04065-8.2211382-3.850407-9.6780487-9.886178-17.3788618-24.6634142-22.9983739-44.3317069-6.7642277 13.3203252-11.7593496 23.3105691-14.9853659 29.9707317-6.1398374 11.7593492-11.3430894 17.7951222-15.7138211 18.1073172-2.8097561.20813-5.2032521-2.185366-7.2845529-7.180488-5.3073171-13.6325203-11.0308943-39.9609755-17.1707317-78.9853658-.4162602-2.705691.2081301-5.099187 1.6650407-6.9723577zm223.6357726 16.3382114c-3.746342-6.5560976-9.261789-10.5105691-16.650407-12.0715447-1.977236-.4162602-3.850406-.6243903-5.619512-.6243903-9.990244 0-18.107317 5.2032521-24.455285 15.6097561-5.411382 8.8455285-8.117073 18.6276423-8.117073 29.3463415 0 8.0130081 1.665041 14.8813008 4.995122 20.604878 3.746342 6.5560976 9.261789 10.5105695 16.650407 12.0715445 1.977236.41626 3.850406.62439 5.619512.62439 10.094309 0 18.211382-5.2032515 24.455284-15.6097556 5.411383-8.9495935 8.117074-18.7317073 8.117074-29.4504065.104065-8.1170732-1.665041-14.8813008-4.995122-20.500813zm-13.112195 28.8260162c-1.456911 6.8682927-4.058537 11.9674797-7.908943 15.4016261-3.017887 2.705691-5.827643 3.8504065-8.429269 3.3300813-2.497561-.5203252-4.578862-2.7056911-6.139837-6.7642277-1.248781-3.2260162-1.873171-6.4520325-1.873171-9.4699187 0-2.601626.20813-5.203252.728455-7.596748.936586-4.2666666 2.705691-8.4292682 5.515448-12.3837398 3.434146-5.099187 7.076422-7.1804878 10.822764-6.4520325 2.497561.5203252 4.578862 2.705691 6.139837 6.7642276 1.248781 3.2260163 1.873171 6.4520326 1.873171 9.4699187 0 2.7056911-.20813 5.3073171-.728455 7.700813zm-52.032521-28.8260162c-3.746341-6.5560976-9.365853-10.5105691-16.650406-12.0715447-1.977236-.4162602-3.850407-.6243903-5.619512-.6243903-9.990244 0-18.107318 5.2032521-24.455285 15.6097561-5.411382 8.8455285-8.117073 18.6276423-8.117073 29.3463415 0 8.0130081 1.66504 14.8813008 4.995122 20.604878 3.746341 6.5560976 9.261788 10.5105695 16.650406 12.0715445 1.977236.41626 3.850407.62439 5.619512.62439 10.094309 0 18.211383-5.2032515 24.455285-15.6097556 5.411382-8.9495935 8.117073-18.7317073 8.117073-29.4504065 0-8.1170732-1.66504-14.8813008-4.995122-20.500813zm-13.21626 28.8260162c-1.45691 6.8682927-4.058536 11.9674797-7.908943 15.4016261-3.017886 2.705691-5.827642 3.8504065-8.429268 3.3300813-2.497561-.5203252-4.578862-2.7056911-6.139838-6.7642277-1.24878-3.2260162-1.87317-6.4520325-1.87317-9.4699187 0-2.601626.20813-5.203252.728455-7.596748.936585-4.2666666 2.705691-8.4292682 5.515447-12.3837398 3.434146-5.099187 7.076423-7.1804878 10.822764-6.4520325 2.497561.5203252 4.578862 2.705691 6.139838 6.7642276 1.24878 3.2260163 1.87317 6.4520326 1.87317 9.4699187.104065 2.7056911-.20813 5.3073171-.728455 7.700813z" fill="#fff"/></svg>