<svg height="256" preserveAspectRatio="xMidYMid" viewBox="0 0 256 256" width="256" xmlns="http://www.w3.org/2000/svg"><path d="m86.8392157 256h82.3215683v-62.243137l-20.078431-20.078432h-42.666667l-19.5764703 20.078432zm106.4156863-169.1607843-19.576471 19.5764703v43.168628l19.576471 19.57647h62.745098v-82.3215683zm-24.094118-86.8392157h-82.3215683v62.745098l19.5764703 19.5764706h42.666667l20.078431-19.5764706zm86.839216 256v-62.243137l-19.576471-20.078432h-62.745098v82.321569zm-236.4235294-256-19.5764706 19.5764706v62.745098h82.3215686v-82.3215686zm154.1019604 0v62.745098l19.576471 19.5764706h62.745098v-82.3215686zm-45.678431 140.047059c-6.52549 0-11.545098-5.521569-11.545098-11.545098 0-6.52549 5.521569-11.545098 11.545098-11.545098 6.52549 0 11.545098 5.521568 11.545098 11.545098 0 6.023529-5.019608 11.545098-11.545098 11.545098zm-45.6784314-53.2078433h-82.3215686v82.3215683h62.2431373l20.0784313-19.57647zm0 106.9176473-20.0784313-20.078432h-62.2431373v82.321569h62.2431373l20.0784313-19.576471z" fill="#40bac8"/></svg>