<svg height="256" preserveAspectRatio="xMidYMid" viewBox="0 0 256 256" width="256" xmlns="http://www.w3.org/2000/svg"><path d="m.06 131.957001c2.09101102 68.861221 58.5717898 124.042999 127.94 124.042999 70.692 0 128-57.308 128-128s-57.308-128-128-128c-69.3682102 0-125.84898898 55.1817785-127.94 124.042999z" fill="#d46a59"/><path d="m227.187 128c0 54.779-44.408 99.187-99.187 99.187-54.78 0-99.187-44.408-99.187-99.187s44.407-99.187 99.187-99.187c54.779 0 99.187 44.408 99.187 99.187z" fill="#d04f41"/><path d="m85.738 206.945-61.388-121.739 41.817-13.259 32.51 72.797 4.462-78.151 36.335-7.013 33.53 71.522 3.013-78.57 37.401-7.358-10.709 139.092-39.14 7.777-33.784-69.992-4.717 77.641z" fill="#fff"/></svg>