<svg height="196" preserveAspectRatio="xMidYMid" viewBox="0 0 256 196" width="256" xmlns="http://www.w3.org/2000/svg"><path d="m81.5002 55.6832 1.38.096 44.856-25.454.307-1.054-47.584-26.75c-11.443-6.332-24.096 6.139-17.93 17.673z" fill="#e79ec0"/><path d="m174.2417 56.0273-1.576.113-44.502-25.773-.121-1.096 47.989-26.877c11.652-6.526 24.546 6.335 18.049 18.003z" fill="#57b4dd"/><path d="m127.6129 137.3268-.115-3.642 44.048-76.166 2.696-1.491 47.368 25.883-74.898 86.531z" fill="#e79ec0"/><path d="m127.6129 137.3268-15.141 26.412-80.812-79.837 49.84-28.219 2.391.212 44.066 78.019z" fill="#57b4dd"/><path d="m256 135.7925c0 32.872-26.648 59.519-59.519 59.519-32.872 0-59.519-26.647-59.519-59.519s26.647-59.519 59.519-59.519c32.871 0 59.519 26.647 59.519 59.519" fill="#f072ab"/><path d="m119.0384 136.4808c0 32.872-26.648 59.519-59.519 59.519-32.872 0-59.519-26.647-59.519-59.519s26.647-59.519 59.519-59.519c32.871 0 59.519 26.647 59.519 59.519" fill="#26a9e0"/><path d="m128.043 29.2717 46.199 26.756-46.629 81.299-46.113-81.643z" fill="#507ab4"/><path d="m227.9825 138.6172c0 17.548-14.226 31.774-31.774 31.774-17.549 0-31.774-14.226-31.774-31.774s14.225-31.774 31.774-31.774c17.548 0 31.774 14.226 31.774 31.774" fill="#fff"/><path d="m200.9114 138.9613c-1.901 0-3.441-1.541-3.441-3.441 0-1.901 1.54-3.441 3.441-3.441s3.441 1.54 3.441 3.441c0 1.9-1.54 3.441-3.441 3.441m-14.6069-10.000311c-2.460232 2.522173-3.9761 5.969778-3.9761 9.771311 0 7.728 6.266 13.994 13.995 13.994s13.994-6.266 13.994-13.994c0-4.254536-1.898362-8.065768-4.894295-10.632572 4.537954 2.262128 9.107447 6.089623 13.153695 11.320472l.573-4.588c-7.964-10.295-15.145-13.638-23.874-13.236-13.846.648-22.915 14.715-23.294 15.314l2.432 4.46c.058197-.091966 4.849113-7.846724 11.8907-12.409211z" fill="#f072ab"/><path d="m89.6445 138.6172c0 17.548-14.226 31.774-31.774 31.774-17.549 0-31.774-14.226-31.774-31.774s14.225-31.774 31.774-31.774c17.548 0 31.774 14.226 31.774 31.774" fill="#fff"/><path d="m62.5733 138.9613c-1.901 0-3.441-1.541-3.441-3.441 0-1.901 1.54-3.441 3.441-3.441s3.441 1.54 3.441 3.441c0 1.9-1.54 3.441-3.441 3.441m-14.6069002-10.000311c-2.460232 2.522173-3.9760998 5.969778-3.9760998 9.771311 0 7.728 6.266 13.994 13.995 13.994s13.994-6.266 13.994-13.994c0-4.254536-1.8983617-8.065768-4.8942952-10.632572 4.5379543 2.262128 9.1074477 6.089623 13.1536952 11.320472l.573-4.588c-7.964-10.295-15.145-13.638-23.874-13.236-13.846.648-22.915 14.715-23.294 15.314l2.432 4.46c.0581973-.091966 4.849113-7.846724 11.8906998-12.409211z" fill="#26a9e0"/></svg>