<svg height="119" preserveAspectRatio="xMidYMid" viewBox="0 0 512 119" width="512" xmlns="http://www.w3.org/2000/svg" xmlns:xlink="http://www.w3.org/1999/xlink"><linearGradient id="a" x1="14.974742%" x2="81.496003%" y1="98.42801%" y2="10.024569%"><stop offset="0" stop-color="#210045"/><stop offset=".59415621" stop-color="#430085"/><stop offset="1" stop-color="#5000b2"/></linearGradient><linearGradient id="b" x1="6.473745%" x2="96.869726%" y1="3.412684%" y2="98.466125%"><stop offset="0" stop-color="#5500bd"/><stop offset="1" stop-color="#5000ac"/></linearGradient><linearGradient id="c" x1="67.722012%" x2="81.980644%" y1="78.401434%" y2="75.996807%"><stop offset="0" stop-color="#2a005a"/><stop offset="1" stop-color="#210046"/></linearGradient><linearGradient id="d" x1="25.265817%" x2="99.460281%" y1="99.92673%" y2="14.028599%"><stop offset="0" stop-color="#21004e"/><stop offset="1" stop-color="#39007f"/></linearGradient><linearGradient id="e" x1="31.526207%" x2="43.213457%" y1="62.532452%" y2="67.497874%"><stop offset="0" stop-color="#1b0041"/><stop offset="1" stop-color="#21004f"/></linearGradient><linearGradient id="f" x1="86.972832%" x2="12.07555%" y1="-.098272%" y2="97.304194%"><stop offset="0" stop-color="#5500bd"/><stop offset="1" stop-color="#47008d"/></linearGradient><linearGradient id="g" x1="20.051225%" x2="99.733624%" y1=".783585%" y2="96.158127%"><stop offset="0" stop-color="#5100b2"/><stop offset="1" stop-color="#5500bd"/></linearGradient><linearGradient id="h" x1="72.604944%" x2="84.607898%" y1="81.924851%" y2="76.551846%"><stop offset="0" stop-color="#27005d" stop-opacity=".980392"/><stop offset=".3176744" stop-color="#2b005d"/><stop offset=".59756237" stop-color="#280055"/><stop offset=".80877602" stop-color="#24004d"/><stop offset="1" stop-color="#230049"/></linearGradient><linearGradient id="i" x1="32.888003%" x2="96.37919%" y1="-.446085%" y2="100.17197%"><stop offset="0" stop-color="#5500bd"/><stop offset="1" stop-color="#5300b5"/></linearGradient><linearGradient id="j" x1="84.994331%" x2="84.994331%" y1=".479773%" y2="100.040254%"><stop offset="0" stop-color="#210045"/><stop offset=".25" stop-color="#25004d"/><stop offset=".5" stop-color="#2b005c"/><stop offset=".74854362" stop-color="#340071"/><stop offset="1" stop-color="#3e0088"/></linearGradient><linearGradient id="k" x1="1.858056%" x2="99.909809%" y1="99.053185%" y2="3.5627%"><stop offset="0" stop-color="#4d00a1"/><stop offset="1" stop-color="#5200b4"/></linearGradient><linearGradient id="l" x1=".225906%" x2="99.643567%" y1="66.145534%" y2="66.145534%"><stop offset="0" stop-color="#6700e8"/><stop offset=".50604492" stop-color="#6700e8"/><stop offset="1" stop-color="#6700e8"/></linearGradient><linearGradient id="m" x1="27.598643%" x2="99.563306%" y1="43.412674%" y2="43.412674%"><stop offset="0" stop-color="#5a00c9"/><stop offset="1" stop-color="#4f00a8"/></linearGradient><linearGradient id="n" x1=".928797%" x2="100.982139%" y1="1.753673%" y2="1.753673%"><stop offset="0" stop-color="#390080"/><stop offset=".5" stop-color="#31006e"/><stop offset="1" stop-color="#250056"/></linearGradient><linearGradient id="o" x1="-1.290743%" x2="72.686542%" y1="97.061442%" y2="97.061442%"><stop offset="0" stop-color="#3f008b"/><stop offset="1" stop-color="#220050"/></linearGradient><linearGradient id="p" x1=".061488%" x2="99.970429%" y1="56.314349%" y2="56.314349%"><stop offset="0" stop-color="#6700e8"/><stop offset=".5" stop-color="#6700e8"/><stop offset="1" stop-color="#6700e8"/></linearGradient><linearGradient id="q" x1="70.133648%" x2="15.08413%" y1="5.816473%" y2="84.489236%"><stop offset="0" stop-color="#1c0044"/><stop offset=".10005283" stop-color="#2f0065"/><stop offset=".20479059" stop-color="#34006d"/><stop offset=".30000001" stop-color="#3b007a"/><stop offset=".40000001" stop-color="#3c007a"/><stop offset=".5" stop-color="#490096"/><stop offset=".60000002" stop-color="#5000ab"/><stop offset=".7002604" stop-color="#5400ba"/><stop offset=".80312496" stop-color="#5500bc"/><stop offset=".89999998" stop-color="#5700c2"/><stop offset="1" stop-color="#5c00ce"/></linearGradient><linearGradient id="r"><stop offset="0" stop-color="#1b0041"/><stop offset=".10005283" stop-color="#1b0041"/><stop offset=".20479059" stop-color="#1b0041"/><stop offset=".30000001" stop-color="#240052"/><stop offset=".40000001" stop-color="#32006a"/><stop offset=".5" stop-color="#3d007d"/><stop offset=".60000002" stop-color="#490098"/><stop offset=".7002604" stop-color="#4f00a8"/><stop offset=".80312496" stop-color="#5500bc"/><stop offset=".89999998" stop-color="#5700c2"/><stop offset="1" stop-color="#6000da"/></linearGradient><linearGradient id="s" x1="15.581582%" x2="77.808249%" xlink:href="#r" y1="88.954294%" y2="7.079219%"/><linearGradient id="t" x1="61.827961%" x2="16.828133%" y1="2.027901%" y2="87.188664%"><stop offset="0" stop-color="#1e0046"/><stop offset=".10005283" stop-color="#2d0061"/><stop offset=".20479059" stop-color="#33006b"/><stop offset=".30000001" stop-color="#400082"/><stop offset=".40000001" stop-color="#490096"/><stop offset=".5" stop-color="#5000ac"/><stop offset=".60000002" stop-color="#5500bd"/><stop offset=".7002604" stop-color="#4f00a8"/><stop offset=".80312496" stop-color="#5500bc"/><stop offset=".89999998" stop-color="#5700c2"/><stop offset="1" stop-color="#6000da"/></linearGradient><linearGradient id="u" x1="20.311681%" x2="71.385133%" xlink:href="#r" y1="92.318149%" y2="3.947922%"/><radialGradient id="v" cx="55.028941%" cy="19.90365%" r="81.986017%"><stop offset="0" stop-color="#6000d8"/><stop offset=".20885758" stop-color="#5c00cd"/><stop offset=".37415123" stop-color="#5500be"/><stop offset=".72099608" stop-color="#2d0062"/><stop offset="1" stop-color="#210045"/></radialGradient><linearGradient id="w" x1="-.21002%" x2="66.934591%" y1="99.610376%" y2="11.047441%"><stop offset="0" stop-color="#47008d"/><stop offset="1" stop-color="#5100b3"/></linearGradient><linearGradient id="x" x1="-.580779%" x2="99.580109%" y1="69.344741%" y2="69.344741%"><stop offset="0" stop-color="#5500bd"/><stop offset="1" stop-color="#5200b2"/></linearGradient><radialGradient id="y" cx="53.296603%" cy="32.389382%" r="50.000076%"><stop offset="0" stop-color="#6700e8"/><stop offset=".39935982" stop-color="#5c00ce"/><stop offset=".70123935" stop-color="#5600bf" stop-opacity=".045045"/><stop offset="1" stop-color="#220047" stop-opacity="0"/></radialGradient><path d="m505.200865 1.6219904c3.922745.65587712 6.543135 3.05707008 6.543135 7.19117312 0 1.36821248-.563702 3.29471998-.940713 4.92303358-2.628444 11.5865344-12.893358 52.5251687-17.214935 79.8503015l-3.976576-3.976576 12.656328-84.05232132z" fill="url(#a)"/><path d="m249.403648 12.7459328c-5.297418 1.2685414-10.498995 1.2336947-15.612421 0l8.118461 8.4307046z" fill="#6700e8"/><path d="m168.245622 12.7459328c5.297418 1.2685414 10.498995 1.2336947 15.612421 0l-8.118456 8.4307046z" fill="#6700e8"/><path d="m122.421965 12.7129907c11.972091 30.2989875 30.812943 76.1598055 40.20075 93.6879313l-13.897718-4.246769-34.388485-85.9988429z" fill="url(#b)"/><path d="m111.535974 12.7105536c3.823514 1.280937 6.994842 1.3594675 10.887066 0l-7.737754 4.7532646z" fill="#6700e8"/><path d="m117.034445 16.0173261 35.040568 85.9390519c-2.073211 2.245314-2.99775 3.423457-5.013489 4.473799-10.156267-26.1587607-21.063086-52.3240804-30.303201-78.1450493l-4.561254-7.7329869z" fill="url(#c)"/><path d="m86.8977664 106.397548-10.344448-3.663796 36.4243456-85.4602186 4.059238-1.2550195v12.6520832c-5.663795 16.3426407-20.0372732 52.1993063-30.1391356 77.7269509z" fill="url(#d)"/><path d="m78.3181312.256 3.4347008 7.806208 8.7429632-4.05922816 3.5554816-3.74697984c-5.6242688 1.27581184-10.6970112 1.31821568-15.7331456 0z" fill="#6700e8"/><path d="m53.6504832 68.3261389-5.9327488 2.1857382-3.7469696-6.5572147 37.1575808-59.32718592 2.6565632-.90992128c3.6668416-.8286464 7.666176-1.7172736 10.2710784-3.4615552-5.9010048 7.97154304-27.3883136 45.2318874-40.405504 68.0701389z" fill="url(#e)"/><path d="m45.5320064 67.3893939 1.5612416-1.5612416 36.7588864-62.12396542-5.5340032-3.44818688c-4.4381184 8.2665216-20.8067584 35.0166221-31.2248832 52.1454746l-4.9959936 9.3674496z" fill="url(#f)"/><path d="m15.868416.256c8.1490432 14.4418918 20.6586368 34.6454528 31.224832 52.1454746v13.4266777l-2.4979968 2.4979866-36.5330432-64.9476557z" fill="url(#g)"/><path d="m9.8469888 4.18392576 6.0214272-3.92792576c-6.4613888 1.37801216-9.164288 1.46572288-15.612416 0l2.4979968 2.81023488z" fill="#6700e8"/><path d="m47.093248 65.8281523-2.8102144 4.0592282-3.7470208-1.5612416c-6.9761024-12.057344-27.48288-48.7868672-40.2800128-68.0701389 2.594048 1.87973632 6.0986368 2.91121664 10.146304 3.56859392z" fill="url(#h)"/><path d="m54.5871872 118.598118-10.6164224-4.995973.9367552-44.3392612 2.185728-3.4347315 6.5572352 2.4979866z" fill="url(#i)"/><path d="m47.093248 115.163387-7.4939392 3.434731.936704-50.2719791 6.5572352-2.4979866z" fill="url(#j)"/><path d="m71.4486272 106.420434c13.027072-26.5545985 27.513344-62.1644289 40.0865788-93.7150004l5.501696 3.3147648-35.5645948 86.9996646-7.2134144 2.463826z" fill="url(#k)"/><path d="m151.702641 101.800253 10.932311 4.604166c-4.19369-1.057214-9.870377-1.462605-15.575204.026828l2.134436-5.256857z" fill="#200045"/><path d="m92.6850048 75.7004134 7.6863492-3.298094c11.071846.3891865 22.143692.3836006 33.215529 0l7.796751 3.3946726-7.258568 1.5869696h-35.9340644z" fill="url(#l)"/><path d="m97.8046464 78.9432986-5.1610624-3.2428852c16.216627-.2480179 32.457626-.2278144 48.726246.0965786l-5.161031 3.1463066c-12.801388-.4148224-25.60277-.3651431-38.4041526 0z" fill="#200045"/><path d="m183.858043 106.420434-10.928691-3.74698v-83.9948031l3.122483-1.5612416 7.806208-4.3714765c-1.619804 31.1695667-1.655296 62.3945267 0 93.6745012z" fill="url(#m)"/><path d="m176.051835 102.048957v2.185739l-7.806213 2.185738c1.241293-31.1751834 1.359667-62.3952743 0-93.6745012l7.806213 4.3714765z" fill="url(#n)"/><path d="m233.791227 106.420434 10.928696-3.74698v-83.9948031l-3.122483-1.5612416-7.806213-4.3714765c1.619804 31.1695667 1.655296 62.3945267 0 93.6745012z" fill="url(#o)"/><path d="m176.082621 59.3893427 6.56169-2.9255219c17.437333.4394906 34.895201.4066458 52.369321 0l6.58239 2.9255219-8.141742 1.9457127h-50.865168z" fill="url(#p)"/><path d="m304.512753 12.7108966c-30.666455 0-45.968809 19.1731098-45.968809 47.0519245 0 34.9170125 23.16142 47.0128899 45.568742 47.0128899 26.615486 0 45.695606-14.9753347 45.695606-46.9250563 0-30.7489331-18.06057-47.1397581-45.295539-47.1397581zm-.917228 4.4495412c.288225-.0059392.579175 0 .868439 0 20.253553 0 35.127936 13.7952256 35.127936 42.6218956 0 28.7902669-14.854871 42.5828706-35.088906 42.5828706-22.077266 0-35.049877-15.8203131-35.049877-42.5048059 0-30.1793331 15.984164-42.3279463 34.142408-42.6999603z" fill="url(#q)"/><path d="m304.405417 11.4814208c-33.120445 0-50.49641 21.0001971-50.49641 48.2228531 0 29.7964237 18.969815 47.9691521 50.447621 47.9691521 34.031683 0 50.652534-20.4803994 50.652534-47.6569038 0-30.3002675-19.849405-48.5351014-50.603745-48.5351014zm.097577 3.1029658c26.150548 0 43.490355 15.7319168 43.490355 45.256494 0 30.6775604-18.324951 45.0613404-43.880663 45.0613404-21.515115 0-43.7538-11.6127029-43.7538-45.1393999 0-26.7687373 14.698717-45.1784345 44.144108-45.1784345z" fill="url(#s)"/><path d="m418.951788 7.9198208c-31.123825 0-52.44798 17.5956941-52.44798 51.8918042 0 33.6436992 19.838228 52.438175 52.574812 52.438175 24.794204 0 51.960095-12.7345206 51.960095-51.9600592 0-42.3344128-29.672807-52.36992-52.086927-52.36992zm-.165899 3.7469798c24.768476 0 43.012209 15.0467482 43.012209 48.2326272 0 36.074834-22.068618 47.7739982-42.973179 47.7739982-22.3345 0-42.680443-13.1070926-42.680443-48.4862977 0-36.670039 22.551542-47.5203277 42.641413-47.5203277z" fill="url(#t)"/><path d="m418.74686 5.8414336c-32.983168 0-58.195288 18.7286886-58.195288 53.550592 0 28.6899712 16.770361 53.9408994 58.468501 53.9408994 35.302021 0 58.351411-19.408573 58.351411-53.4334972 0-32.0853913-21.501829-54.0579942-58.624624-54.0579942zm.204928 3.49327872c21.804641 0 50.672035 9.77178108 50.672035 50.95502848 0 38.1589299-26.434979 50.5451982-50.554946 50.5451982-31.846426 0-51.140439-18.2846977-51.140439-51.0135707 0-33.3635174 20.745846-50.48665598 51.02335-50.48665598z" fill="url(#u)"/><path d="m479.918054 111.779461c0-4.028785 2.449966-7.775201 7.361321-7.775201 4.701021 0 8.218686 2.811484 8.218686 7.302205 0 5.594993-3.702641 7.656955-7.09525 7.656955-4.69078 0-8.484757-2.434007-8.484757-7.183959z" fill="url(#v)"/><path d="m487.761203 92.6928435c3.806997-26.9092813 6.122691-55.1897395 8.346148-83.38841598 0-5.62019328 3.71476-7.81832704 7.462953-7.81832704.656911 0 1.625754.1368576 1.625754.1368576l-1.01952 6.74075648-13.352802 83.58179324z" fill="url(#w)"/><g fill="#200045"><path d="m39.5993088 118.598118 7.5079168-5.500564 7.4799616 5.500564s-4.1465344-.754544-7.4801152-.754544c-3.0078976 0-7.5077632.754544-7.5077632.754544z"/><path d="m71.4474496 106.43202 10.473216-4.527943c1.5980032 1.915894 3.0196224 3.539456 4.9823232 4.500342-3.7703168-1.020242-9.4781952-1.477996-15.4543616.015923z"/><path d="m168.245622 106.420434c5.070361-1.221857 10.262364-1.275909 15.592903 0l-7.78669-4.371477z"/><path d="m182.644311 62.8530176-6.575493-3.4636749c21.841966.227753 43.683927.2660352 65.525893 0l-6.566973 3.4431898c-17.461141-.2345575-34.922286-.2233498-52.383427.0205824z"/></g><path d="m241.59744 102.048957v2.185739l7.806208 2.185738c-1.241293-31.1751834-1.359667-62.3952743 0-93.6745012l-7.806208 4.3714765z" fill="url(#x)"/><path d="m249.403648 106.420434c-5.070362-1.221857-10.262364-1.275909-15.592904 0l7.786696-4.371477z" fill="#200045"/><path d="m491.205243 89.5362611-3.459712 3.1565824c2.318162-.4082944 4.110904.1967463 5.853281.8988979z" fill="#200045"/><path d="m511.555807 8.30102026c0 3.67141604-3.406775 6.64767364-7.609261 6.64767364-4.202485 0-7.60926-2.9762576-7.60926-6.64767364 0-3.67138482 3.406775-6.64764238 7.60926-6.64764238 4.202486 0 7.609261 2.97625756 7.609261 6.64764238z" fill="url(#y)"/></svg>