<svg height="253" preserveAspectRatio="xMidYMid" viewBox="0 0 256 253" width="256" xmlns="http://www.w3.org/2000/svg"><g fill="#719c40"><path d="m225.851155 150.373343c-11.203546 6.290127-23.396106 9.280904-35.390864 9.280904-7.817164 0-15.555206-1.297586-22.090609-3.90067-11.947284 10.776293-24.804462 18.324445-31.276567 21.829509 9.375849 14.874766 24.282263 26.307763 42.701653 30.896787 5.696719 1.424179 11.417174 2.088796 17.026859 2.088796 12.596078 0 24.717429-3.449679 35.018995-8.996068 1.527037-5.886609 2.2866-11.939372 2.2866-18.055433 0-11.251019-2.690118-22.62072-8.276067-33.143825"/><path d="m211.253314 61.6706874c-2.120445 14.1468512-8.244418 26.7271047-16.821144 36.0871298.45099 2.4844018.759562 5.2061678.759562 8.0545268-.03956 16.544221-8.576726 30.936347-19.242249 42.519675 3.054074.379781 6.131885.593408 9.185959.593408 15.207074 0 30.532829-4.873859 43.500776-14.977623 14.977622-11.749482 23.989515-28.32535 26.592599-45.2256154-10.08794-13.268607-24.90732-22.7868743-41.419892-26.9407316-.854508-.1819786-1.637806-.5221992-2.508138-.6725293z"/><path d="m199.994383 49.5730726c0-19.0523588-7.50068-36.316581-19.24225-48.81771343h-1.020662c-16.852792 0-31.616788 5.98946662-45.004077 18.10290573 12.793881 13.6009156 17.390816 30.8493135 17.390816 48.0897993 0 1.3925312-.047472 2.7692382-.087033 4.1063847 2.88792-.7279141 5.799576-1.0760469 8.66376-1.0760469h.759562c11.005744.2215391 22.098521 5.6888065 28.459857 15.9903726 6.37716-10.6496989 10.080027-23.0717103 10.080027-36.395702"/><path d="m72.8467888 2.01338452c-1.0523105 0-2.0571483 0-2.4290175-.20571484-11.5121188 12.64355042-18.4273021 29.34601282-18.4273021 47.54386382 0 .2610996 0 .4826387-.0949454.6250566.7991231 0 1.6061582-.0237363 2.4290175-.0237363 19.3925795 0 37.1394403 7.7222185 49.7117817 20.152142 10.554754.7437382 21.354783 6.3455115 27.043589 17.4620248 3.054074-5.9736424 7.587713-10.3411266 12.374539-12.5723414 0-.7912109.031648-1.6219824.031648-2.4369296 0-19.4796127-8.062439-38.9117527-23.744239-52.7975043-13.482234-11.94728478-30.2242572-17.74686078-46.8950712-17.74686078"/><path d="m92.6191496 71.1019215c-10.5943142-6.1793572-22.763138-9.644861-35.5411943-9.644861-4.0984725 0-8.2760661.3560449-12.4061871 1.1076953-18.775435 3.3705585-34.4730595 13.8145425-44.6717682 27.549964 2.7692382 16.9952102 11.7494821 32.9934952 26.2523781 44.2998992 10.5943142-14.210148 25.4374309-23.388195 40.7790105-26.331499 0-.720002-.0316484-1.527037-.0316484-2.2866-.0316484-19.2501614 11.9314606-31.1737099 25.6194094-34.6945985"/><path d="m30.4932686 150.539497c-5.6096854 10.554754-8.2839782 21.845334-8.2839782 33.00932 0 6.67782.9415409 13.268607 2.397369 19.139392 10.2778298 5.633421 21.9007181 8.663759 33.9112998 8.663759 5.6729822 0 11.4250856-.680441 17.2246616-2.096709-1.7802246-6.41672-2.6426445-12.817617-2.6426445-19.17104 0-15.112129 4.7947382-29.615025 13.2923434-41.625606-8.189033-8.837826-15.1358648-19.297635-17.9921362-31.126238-15.7450972 5.831225-29.4567823 17.232574-37.9069149 33.207122"/><path d="m128.48474 252.637354c15.847955-6.851887 29.235244-19.43214 36.664714-36.284933-18.071257-7.484855-31.418985-21.536761-38.175927-37.756585-5.775839-2.982865-20.682253-11.33014-34.2673442-23.82336-5.1349588 9.961345-7.8646365 21.069946-7.8646365 32.400087 0 9.597388 1.9068183 19.360931 6.1477088 28.697219 7.7855154 17.446201 21.7582999 30.129312 37.4954849 36.767572"/></g></svg>