<svg height="161" preserveAspectRatio="xMidYMid" viewBox="0 0 256 161" width="256" xmlns="http://www.w3.org/2000/svg"><path d="m82.4251 0-46.13 79.9 22.804 39.387 68.838-119.231zm92.456.113-24.008-.029-80.282 139.051 12.03 20.777 92.456.113 46.13-79.899zm-162.9241 91.1765c-6.603 0-11.957-5.311-11.957-11.863 0-6.551 5.354-11.862 11.957-11.862s11.957 5.311 11.957 11.862c0 6.552-5.354 11.863-11.957 11.863zm232.087 0c-6.603 0-11.957-5.311-11.957-11.863 0-6.551 5.354-11.862 11.957-11.862s11.957 5.311 11.957 11.862c0 6.552-5.354 11.863-11.957 11.863z" fill="#26cdaf"/></svg>