<svg height="177" preserveAspectRatio="xMidYMid" viewBox="0 0 512 177" width="512" xmlns="http://www.w3.org/2000/svg" xmlns:xlink="http://www.w3.org/1999/xlink"><linearGradient id="a" x1="49.995856%" x2="49.995856%" y1="1.431177%" y2="96.981178%"><stop offset=".005618" stop-color="#ffe513"/><stop offset="1" stop-color="#fdb924"/></linearGradient><linearGradient id="b" x1="4.512455%" x2="95.672455%" y1="13.494211%" y2="87.064211%"><stop offset=".005618" stop-color="#008cd2"/><stop offset="1" stop-color="#00649d"/></linearGradient><linearGradient id="c" x1="50.001638%" x2="50.001638%" y1="27.778816%" y2="97.528816%"><stop offset="0" stop-color="#26a146"/><stop offset="1" stop-color="#008a52"/></linearGradient><linearGradient id="d" x1="43.733871%" x2="57.543871%" y1="8.207796%" y2="93.197796%"><stop offset="0" stop-color="#d92231"/><stop offset="1" stop-color="#ba2234"/></linearGradient><g transform="translate(384 37)"><path d="m128 .7v121.4l-16.8 16.4v-118.8z" fill="#e79225"/><path d="m17.9.8-17.4 18.9.9 1.2 109.1-.4 1-.8 16.5-19z" fill="#fff16d"/><path d="m.5 19.7h111v118.9h-111z" fill="url(#a)"/><path d="m94.6 62.5c-2.2-5.5-5.5-10.5-9.8-14.8-4.1-4.2-8.7-7.4-13.9-9.5-5.1-2.1-10.6-3.2-16.6-3.2s-11.6 1.1-16.7 3.2c-5.2 2.1-9.8 5.3-13.9 9.5-4.3 4.3-7.5 9.3-9.7 14.8s-3.2 11.5-3.2 18.1c0 6.4 1.1 12.4 3.3 18s5.4 10.6 9.7 15c4 4.1 8.6 7.2 13.7 9.3s10.8 3.2 16.9 3.2c5.9 0 11.4-1.1 16.5-3.2s9.8-5.2 13.9-9.3c4.3-4.4 7.6-9.4 9.8-14.9s3.3-11.6 3.3-18c0-6.7-1.1-12.7-3.3-18.2zm-22.9 39.2c-4.3 5.1-10 7.7-17.4 7.7s-13.2-2.6-17.5-7.7-6.4-12.2-6.4-21.2c0-9.2 2.2-16.3 6.4-21.5 4.3-5.2 10-7.7 17.5-7.7 7.4 0 13.1 2.6 17.4 7.7 4.2 5.2 6.4 12.3 6.4 21.5 0 9-2.1 16.1-6.4 21.2z" fill="#fff"/></g><g transform="translate(257 27)"><path d="m116.6.8v.6l14.2 109.1-8.3 23-1.1-.8-14.6-104.6.3-1.4 9.1-25.3z" fill="#009ada"/><path d="m7.3 16 109.3-15.2-9.2 26.2-1.3 1.4-102.2 15 .5-18.7z" fill="#91c9ed"/><path d="m107.4 27 15.1 106.5-107.7 15.1-14.5-102.9 6.3-4.9z" fill="url(#b)"/><path d="m89.1 47.4c-.5-3.3-1.6-5.8-3.4-7.5-1.5-1.3-3.3-2-5.4-2-.5 0-1.1 0-1.7.1-2.8.4-4.9 1.7-6.2 3.8-1 1.5-1.4 3.4-1.4 5.6 0 .8.1 1.7.2 2.6l3.9 27.7-31 4.6-3.9-27.7c-.5-3.2-1.6-5.7-3.4-7.4-1.5-1.4-3.3-2.1-5.3-2.1-.5 0-1 0-1.5.1-2.9.4-5.1 1.7-6.5 3.8-1 1.5-1.4 3.4-1.4 5.6 0 .8.1 1.7.2 2.7l10.6 72.1c.5 3.3 1.6 5.8 3.6 7.5 1.5 1.3 3.3 1.9 5.5 1.9.6 0 1.2 0 1.8-.1 2.7-.4 4.7-1.7 6-3.8.9-1.5 1.3-3.3 1.3-5.4 0-.8-.1-1.7-.2-2.6l-4.3-28.5 31-4.6 4.3 28.5c.5 3.3 1.6 5.8 3.5 7.4 1.5 1.3 3.3 2 5.4 2 .5 0 1.1 0 1.7-.1 2.8-.4 4.9-1.7 6.2-3.8.9-1.5 1.4-3.3 1.4-5.5 0-.8-.1-1.7-.2-2.6z" fill="#fff"/></g><g transform="translate(123)"><path d="m39 0-38.9 92.4 5.3 40.6.3-.1 43.7-98.3-.2-2.1-9.4-31.2z" fill="#66bf6b"/><path d="m39 0 10.1 33.9.2.7 96.2 43.1.3-.2-8.2-32.4z" fill="#98d0a0"/><path d="m49.1 33.9 96.7 43.6-43.7 99.1-96.7-43.6z" fill="url(#c)"/><path d="m116.5 85.5c-2.1-5.6-5-10.4-8.8-14.4s-8.4-7.2-13.8-9.5-10.8-3.4-16.3-3.4h-.3c-5.6 0-11.1 1.3-16.5 3.7-5.7 2.5-10.6 5.9-14.8 10.4-4.2 4.4-7.6 9.8-10.2 16-2.6 6.1-4 12.3-4.3 18.4v2.1c0 5.4.9 10.7 2.8 15.9 2 5.5 4.9 10.2 8.7 14.2s8.5 7.2 14.1 9.5c5.3 2.3 10.7 3.4 16.2 3.4h.1c5.5 0 11-1.2 16.4-3.5 5.7-2.5 10.7-6 14.9-10.5 4.2-4.4 7.7-9.7 10.3-15.9s4-12.3 4.3-18.4v-1.8c.1-5.5-.8-10.9-2.8-16.2zm-19.3 28.8c-3.6 8.6-8.5 14.5-14.4 17.7-3.2 1.7-6.5 2.6-9.8 2.6-2.9 0-6-.7-9.1-2-6.8-2.9-11-7.5-12.8-14.1-.6-2.2-.9-4.5-.9-6.9 0-4.8 1.2-10.1 3.6-15.8 3.7-8.8 8.6-14.8 14.5-18.1 3.2-1.8 6.5-2.6 9.8-2.6 3 0 6 .7 9.2 2 6.7 2.9 10.9 7.5 12.7 14.1.6 2.1.9 4.4.9 6.8 0 5-1.2 10.4-3.7 16.3z" fill="#fff"/></g><g transform="translate(0 15)"><path d="m115.4.7 15.8 105.8-7.2 37.2-1-1.3-15.4-102.2v-2l6.8-35.7z" fill="#760d16"/><path d="m0 55.4 7.5-37.4 107.9-17.3-7.3 38.1v2.5l-106.8 15.1z" fill="#ef463e"/><path d="m108.1 38.8 15.9 104.9-106.8 16.7-17.2-105z" fill="url(#d)"/><path d="m96.6 127c-.8-1-2-1.7-3.4-2.2s-3.1-.7-5.2-.7c-1.9 0-4.1.2-6.5.6l-28.2 4.8c.3-2.2 1.4-5 3.3-8.5 2.1-3.9 5.3-8.6 9.4-14 1.4-1.9 2.5-3.3 3.3-4.3.5-.7 1.3-1.6 2.3-2.9 6.5-8.5 10.4-15.4 12-20.8.9-3.1 1.4-6.2 1.6-9.3.1-.9.1-1.7.1-2.5 0-2.2-.2-4.4-.6-6.6-.3-2-.8-3.6-1.5-4.9s-1.5-2.3-2.5-2.9c-1.1-.7-2.8-1-4.9-1-1.7 0-3.8.2-6.3.6l-32.6 5.6c-3.9.7-6.9 1.8-8.7 3.6-1.5 1.4-2.2 3.2-2.2 5.2 0 .5 0 1.1.1 1.7.5 2.8 1.9 4.8 4.2 5.8 1.4.6 3 .9 5 .9 1.3 0 2.8-.1 4.4-.4l27.2-4.8c0 .5.1 1 .1 1.4 0 1.7-.3 3.4-.9 5-.8 2.3-2.8 5.5-6.1 9.6-.9 1.1-2.3 2.9-4.2 5.2-7.4 8.9-12.6 16.5-15.8 22.8-2.3 4.4-3.8 8.6-4.7 12.9-.5 2.5-.8 4.8-.8 7.1 0 1.6.1 3.2.4 4.7.4 2.2.9 4 1.6 5.4s1.7 2.5 2.8 3.1 2.6.8 4.8.8c2.7 0 6.4-.4 11.1-1.2l29.6-5.1c5.2-.9 8.9-2.2 11-3.9 1.7-1.4 2.6-3.3 2.6-5.5 0-.6-.1-1.2-.2-1.8-.2-1.3-.7-2.5-1.6-3.5z" fill="#fff"/></g></svg>